<svg xmlns="http://www.w3.org/2000/svg" width="2550" height="1098.601" xmlns:v="https://vecta.io/nano"><path fill="#5504b0" d="M0 0h2550v1089H0z"/><path d="M1791.135 1098.601a39.96 39.96 0 0 1-2.93-7.9 34.08 34.08 0 0 1-1.141-8.228c-.005-2.772.492-5.521 1.466-8.116a19.18 19.18 0 0 1 4.606-6.606 18.63 18.63 0 0 0-3.6 6.938 21.4 21.4 0 0 0-.354 7.644 31.44 31.44 0 0 0 2.05 7.371c.942 2.339 2.123 4.574 3.525 6.67zm196.648-216.168c-25.368 38.444-48.946 79.687-53.273 87.3a152.81 152.81 0 0 1-7.573-29.938c0 0-.149.261-.429.746a38.69 38.69 0 0 1-.522-4.365c-.205-2.2-.28-4.421-.28-6.622a130.36 130.36 0 0 1 .746-13.225c.5-4.471.638-8.975.41-13.468-.111-4.5-.968-8.95-2.537-13.169a37.29 37.29 0 0 1 .914 6.585 65.43 65.43 0 0 1 .205 6.622q-.112 6.631-.839 13.225a79.29 79.29 0 0 0-.336 13.468 45.64 45.64 0 0 0 2 11.322c-6.422 10.222-13.866 19.765-22.216 28.483-7.408 7.748-15.98 14.294-25.406 19.4l-52.341 28.633a28.37 28.37 0 0 0 .783-6.827c0-8.357 4.887-18.317 7.107-26.264v-.019l11.733 2.2c7.48.037 14.979.093 22.514-.522-7.014-2.761-14.009-5.279-20.985-7.853l-12.367-2.313c-.308-1.743-1.356-3.267-2.873-4.178-5.783-3.563-10-3.563-12.871 1.212l-4.551-.876c-3.04-15.053-9.457-20.089-13.9-21.75a10.86 10.86 0 0 0-4.7-.783s.056-.037.149-.112c2.723-2.127 44.264-34.788 66.928-69.875 23.447-36.318 47.267-58.627 72.6-59.205 0 0 26.264-.187 39.116.933 3.71 6.19 8.97 45.1 12.794 61.235zm4.477 144.991a15.41 15.41 0 0 0 1.6.373h-34zm30.33-193.172c.933-5.465 1.13-4.739 6.047-11.621 0 0 3.839-7.517 14.881-8.636-5.744 3.432-12.963 10.67-20.928 20.257zm150.419 193.546h-172.355c24.193-4.57 53.441-54.244 77.168-104.159a102.65 102.65 0 0 0 1.119 12.181c.56 4.085 1.585 8.1 2.35 12.05a118.37 118.37 0 0 1 1.474 12.032c.255 4.033.211 8.079-.131 12.105-.289 4.006-1.053 7.963-2.276 11.789l-.019.056-.019.093c-.473 3.442-.64 6.919-.5 10.39.129 3.454.541 6.891 1.231 10.277s1.757 6.685 3.19 9.83a39.67 39.67 0 0 0 5.409 8.73c-1.978-2.78-3.619-5.786-4.887-8.954a49.89 49.89 0 0 1-2.723-9.793 62.26 62.26 0 0 1-.149-20.146c-.019.037-.019.056-.037.093l.037-.149a53 53 0 0 0 2.462-12.05c.379-4.117.46-8.256.242-12.385-.26-4.114-.784-8.208-1.567-12.255-.821-4.066-1.847-7.984-2.444-11.976-.76-4.887-1.239-9.813-1.436-14.755 24.51-52.042 42.772-103.469 42.772-103.469 12.815 3.6 23.466 9.495 29.155 18.8 1.087 1.792 2.263 3.527 3.525 5.2 8.448 10.957 34.451 43.544 18.409 186.465z" fill="#fff"/><g fill="#fbd206"><path d="M1987.445 882.799c-1.707-6.085-2.971-12.273-4.324-18.431l-3.757-18.516-1.982-9.209c-.674-3.055-1.365-6.117-2.225-9.063-.212-.738-.417-1.483-.678-2.167-.206-.67-.468-1.322-.783-1.949a15.17 15.17 0 0 0-2.442-3.438 14.43 14.43 0 0 0-3.225-2.635 11.7 11.7 0 0 0-1.833-.867 8.1 8.1 0 0 0-1.749-.447l.936-.184c-2.253 1.029-4.63 1.762-7.072 2.178-2.482.437-5.02.446-7.505.026a14.32 14.32 0 0 1-7.025-3.291c-1.805-1.683-3.368-3.608-4.643-5.721a93.1 93.1 0 0 1-6.35-12.484 181.45 181.45 0 0 1-5.007-12.939l1.085.717c-1.858.13-3.719-.205-5.414-.976a5.32 5.32 0 0 1-2.19-2.044 6.34 6.34 0 0 1-.8-2.787 13.9 13.9 0 0 1 .861-5.252 25.68 25.68 0 0 1 2.167-4.716 14.28 14.28 0 0 0 2.488-9.121 12.5 12.5 0 0 0-1.329-4.577c-.766-1.413-1.637-2.943-2.336-4.48a29.26 29.26 0 0 1-1.787-4.806c-.5-1.627-.909-3.279-1.228-4.951-.393-1.66-.528-3.362-.8-5.046-.123-1.7-.3-3.4-.272-5.112a49.5 49.5 0 0 1 .97-10.212 41.46 41.46 0 0 1 3.223-9.9c.221-.452.68-.739 1.183-.737s.961.29 1.18.743l.066.136c2.854 5.832 6.367 11.317 10.47 16.348 4.042 5.025 8.792 9.438 14.1 13.1a46.43 46.43 0 0 0 8.365 4.559 41.28 41.28 0 0 0 9.057 2.737 48.14 48.14 0 0 0 18.839-.452l.122-.025c.768-.155 1.559.128 2.055.735.77.95 1.441 1.978 2 3.066a27.17 27.17 0 0 1 1.425 3.077 40.96 40.96 0 0 1 1.938 6.356c.869 4.27 1.257 8.624 1.155 12.98-.073 4.294-.497 8.575-1.268 12.8-.39 2.162-.63 4.061-.941 6.075a28.49 28.49 0 0 0-.195 2.99 19.6 19.6 0 0 0-.022 2.985c.066 3.936 1.029 7.805 2.816 11.313a19.28 19.28 0 0 0 8 8.13c3.545 1.824 7.51 2.675 11.491 2.466 4.074-.256 8.086-1.125 11.9-2.578l.076-.028a.73.73 0 0 1 .965.814l-2.642 14.338c-.022.115-.134.191-.249.169-.109-.025-.182-.128-.171-.239l1.574-14.462 1.041.786a38.64 38.64 0 0 1-12.36 3.435c-4.413.441-8.864-.296-12.9-2.136-4.107-1.923-7.498-5.099-9.685-9.072-2.152-3.912-3.387-8.262-3.609-12.721a22.46 22.46 0 0 1-.079-3.284 32.06 32.06 0 0 1 .115-3.275l.785-6.362c.615-4.032.942-8.103.978-12.182a53.85 53.85 0 0 0-1.224-11.968 37.9 37.9 0 0 0-1.712-5.642c-.344-.897-.745-1.772-1.2-2.619a14.7 14.7 0 0 0-1.391-2.205l2.177.71c-6.784 1.507-13.806 1.588-20.623.238-3.402-.673-6.715-1.732-9.876-3.158-3.156-1.385-6.161-3.09-8.969-5.087-5.558-3.961-10.472-8.754-14.57-14.212-4.151-5.357-7.598-11.223-10.257-17.456l2.428.142c-2.947 5.838-4.548 12.262-4.686 18.8a42.69 42.69 0 0 0 .725 9.846 45.03 45.03 0 0 0 1.124 4.827 27.83 27.83 0 0 0 1.647 4.639c.67 1.527 1.443 2.926 2.252 4.472a14.92 14.92 0 0 1 1.423 5.042 15.63 15.63 0 0 1-2.58 9.963c-1.64 2.756-2.515 5.899-2.535 9.106.05 1.406.89 2.663 2.17 3.247a9.28 9.28 0 0 0 4.425.528c.46-.036.89.23 1.062.658l.023.059c1.686 4.218 3.549 8.406 5.541 12.491a90.12 90.12 0 0 0 6.68 11.744 23.63 23.63 0 0 0 4.1 4.845 11.39 11.39 0 0 0 5.329 2.372c4.181.529 8.427-.117 12.262-1.866l.163-.069c.244-.103.51-.142.774-.115a11 11 0 0 1 2.82.7 15.4 15.4 0 0 1 2.417 1.178 18.09 18.09 0 0 1 4.029 3.362c1.184 1.276 2.174 2.719 2.938 4.283.376.789.685 1.608.925 2.448.277.8.47 1.577.673 2.359 1.611 6.239 2.619 12.448 3.631 18.688l2.87 18.691 2.878 18.666c.01.056-.002.113-.034.159s-.081.078-.137.089c-.108.018-.212-.047-.243-.152z"/><path d="M1924.445 784.923l-1.232 10.1c-.353 3.36-.661 6.716-.769 10.07a53.77 53.77 0 0 0 .423 9.985 19.8 19.8 0 0 0 1.3 4.763 9.4 9.4 0 0 0 2.945 3.965 8.87 8.87 0 0 1-3.7-3.581 17.5 17.5 0 0 1-1.865-4.885 40.16 40.16 0 0 1-.825-10.307 72.99 72.99 0 0 1 3.721-20.112zm-1.025-71.613c-.883-1.546-1.097-3.385-.593-5.092l.345-1.27.544-1.178c.188-.391.365-.794.576-1.172l.726-1.063a28.62 28.62 0 0 1 3.263-3.963c1.218-1.183 2.515-2.273 3.786-3.406a103.99 103.99 0 0 1 17.159-10.532c3.017-1.432 6.067-2.8 9.116-4.164l9.3-3.689c3.117-1.141 6.282-2.126 9.429-3.171 1.592-.479 3.127-1.023 4.829-1.493 1.65-.443 3.322-.799 5.009-1.066a49.81 49.81 0 0 1 20.147.82 42.04 42.04 0 0 1 17.685 9.37 55.46 55.46 0 0 1 12.125 16.063 86.2 86.2 0 0 1 6.936 18.948l.031.178c1.627 9.013 4.513 17.753 8.575 25.962a87.83 87.83 0 0 0 6.931 11.77c1.249 1.906 2.69 3.658 4.1 5.443 1.429 1.762 3.03 3.375 4.575 5.034l5.059 4.686 2.652 2.47c.9.8 1.642 1.778 2.469 2.658a47.51 47.51 0 0 1 7.956 12.076 41.86 41.86 0 0 1 2.967 27.99c-.029.108-.137.176-.247.154s-.184-.126-.168-.237v-.024a40.86 40.86 0 0 0-.547-13.765c-.87-4.481-2.447-8.796-4.672-12.782a25.94 25.94 0 0 0-1.741-2.914c-.64-.935-1.217-1.907-1.9-2.807a52.21 52.21 0 0 0-4.438-5.126c-.808-.793-1.516-1.678-2.4-2.394l-2.577-2.218-5.405-4.68a77.92 77.92 0 0 1-16.62-23.409c-2.014-4.341-3.719-8.818-5.1-13.4a87.51 87.51 0 0 1-3.131-14.037l.031.177a99.27 99.27 0 0 0-5.654-18.652c-2.501-6.024-6.172-11.492-10.8-16.088a38.97 38.97 0 0 0-7.889-5.7c-2.879-1.528-5.956-2.647-9.143-3.326-6.382-1.272-12.967-1.115-19.281.459a45.8 45.8 0 0 0-4.625 1.33c-1.46.514-3.009 1.182-4.552 1.769l-9.292 3.477-9.185 3.6-9.044 3.888c-5.957 2.672-11.7 5.797-17.179 9.348-1.279.975-2.6 1.919-3.845 2.945-1.217 1.041-2.348 2.178-3.383 3.4l-.774.917c-.225.323-.41.668-.625 1l-.626 1.011-.435 1.087a6.07 6.07 0 0 0-.106 4.543l.02.044a.21.21 0 0 1-.368.2zm5.263 41.105a40.91 40.91 0 0 1 9.549-5.1 36.1 36.1 0 0 1 5.215-1.566c1.786-.458 3.647-.543 5.467-.252-1.738.38-3.443.897-5.1 1.544l-4.969 1.881c-3.326 1.248-6.643 2.538-10.161 3.494zm9.309 11.892c1.053.038 2.024-.567 2.454-1.53s.231-2.09-.501-2.848-1.852-.996-2.829-.6-1.616 1.345-1.614 2.399c0 1.393 1.103 2.535 2.495 2.583zm-4.165 31.289a36.4 36.4 0 0 0 7.613-.609 50.15 50.15 0 0 0 3.688-.852c1.239-.32 2.461-.72 3.787-1.028a14.3 14.3 0 0 1-7.162 3.572c-1.344.24-2.715.29-4.072.147a9.08 9.08 0 0 1-3.854-1.23zm148.061 186.627v.056c-.019.037-.019.056-.037.093zm-98.529-95.031c2.446-5.674 5.296-11.167 8.527-16.434 3.133-5.293 6.544-10.4 10.118-15.386s7.349-9.836 11.39-14.481a110.9 110.9 0 0 1 13.051-13.157c-3 5.457-6.216 10.655-9.559 15.78-3.309 5.146-6.776 10.169-10.341 15.126s-7.237 9.837-11.086 14.6c-3.82 4.785-7.761 9.484-12.1 13.952z"/><path d="M2121.917 817.333c-24.977-7.051-58.123-5.391-78.4-3.339 1.216-.747 2.519-1.342 3.88-1.772 0 0 57.9-10.222 74.52 5.111z"/><path d="M2122.161 817.47a20.52 20.52 0 0 0-2.367-.148c-.962-.034-1.921-.122-2.873-.263l-4.881-.5-4.868-.427-4.863-.361-9.725-.574-9.74-.548c-6.5-.461-13.056-1.259-19.619-1.174a118.98 118.98 0 0 0-19.56 1.979l-6.567 1.171 5.67-3.89c1.276-.908 2.66-1.656 4.12-2.225l.2-.047a148.89 148.89 0 0 1 19.009-3.355c3.194-.393 6.4-.684 9.62-.931 3.221-.153 6.453-.33 9.692-.231 6.524.043 13.024.78 19.392 2.2 3.222.723 6.358 1.785 9.357 3.166a29.57 29.57 0 0 1 4.295 2.5c.683.463 1.306 1.03 1.948 1.533a6.11 6.11 0 0 1 1.017 1.092c.302.422.506.771.743 1.033zm-.488-.273a4.17 4.17 0 0 0-1.108-.48c-.302-.089-.592-.215-.864-.374-.712-.331-1.379-.71-2.1-.989-1.438-.558-2.907-1.034-4.4-1.425-2.998-.746-6.049-1.26-9.126-1.536a157.1 157.1 0 0 0-18.659-.558l-18.828.7c-6.284.384-12.6.959-18.878 1.448l.2-.047c-1.263.285-2.486.728-3.639 1.318l-.9-2.719c6.619-.155 13.2-.383 19.771-.906 6.57-.507 13.164-1.514 19.811-1.677 1.66-.026 3.322-.088 4.982.017 1.661.065 3.322.1 4.977.295l4.968.488 4.944.73a98.29 98.29 0 0 1 9.765 2.167c1.605.467 3.19 1 4.772 1.513.649.287 1.283.608 1.9.96.771.428 1.579.788 2.413 1.075zm-186.458 159.91l9.433 2.167c3.1.6 6.164 1.088 9.24 1.4 1.536.209 3.076.238 4.621.367 1.539-.006 3.1.123 4.655.048 3.146.025 6.248-.41 9.623-.6a24.84 24.84 0 0 1-9.231 3.9c-3.317.736-6.734.911-10.109.518a34.5 34.5 0 0 1-9.771-2.47c-3.13-1.23-6-3.038-8.461-5.33zm78.929 5.957l9.433 2.167c3.1.6 6.164 1.088 9.24 1.4 1.536.209 3.076.238 4.621.367 1.539-.006 3.1.123 4.655.048 3.146.025 6.248-.41 9.623-.6a24.84 24.84 0 0 1-9.231 3.9c-3.317.736-6.734.911-10.109.518a34.5 34.5 0 0 1-9.771-2.47 26.8 26.8 0 0 1-8.461-5.331zm-263.293 41.04a29.2 29.2 0 0 1 4.384 7.965h-.914q-45.383-.028-90.748-.877l-90.766-2.649c-.1-.002-.195-.045-.262-.12s-.1-.173-.092-.272a.38.38 0 0 1 .354-.354l90.748-2.723q43.647-.868 87.295-.97zm95.821.466a36.97 36.97 0 0 0-3.395 6.827q-14.633.168-29.248.3c3.777-1.384 7.009-3.948 9.215-7.312q11.723.082 23.428.185zm452.544 2.873c.003.095-.033.187-.1.254s-.159.103-.254.1c-30.237 1.343-60.492 2.145-90.748 2.611l-22.682.3-12.143.093-10.558.075-22.682.075q-11.36.028-22.7-.131l-44.152-.877-46.6-.9c-30.255-.317-60.511-.037-90.766.672q-20.341.531-40.683.9l-12.945-5.615q26.8.363 53.628 1.007 45.383.979 90.766.466l90.748-2q11.332-.168 22.682-.187l22.7.019 22.682.112 22.7.261 90.748 2.369c.206.011.364.186.354.392z"/><path d="M2089.675 1028.381c-12.282 1.746-24.62 3.149-36.954 4.415q-18.515 1.809-37.044 3.43l-37.079 2.967-37.1 2.706h-.016c-.107.006-.215.003-.322-.009l-33.241-3.9h-.027c-.164-.02-.323-.064-.474-.131l-39.467-17.7-9.9-4.2c-1.031-.665-2.621.439-3.97 1.4-1.374 1.072-2.634 2.284-3.759 3.615a35.94 35.94 0 0 0-8.352 19.11.76.76 0 0 1-.114.326c-1.531 2.334-3.031 4.688-4.434 7.091a50.65 50.65 0 0 0-3.7 7.412c-1.155 2.403-1.243 5.181-.243 7.652 1.481 2.388 2.836 4.853 4.057 7.384a.75.75 0 0 1 .026.45v.009a18.48 18.48 0 0 0-.517 5.14 11.87 11.87 0 0 0 1.191 4.9 7.64 7.64 0 0 0 3.439 3.443c.739.399 1.524.708 2.337.919.818.218 1.688.292 2.529.439h-.159c2.361-.344 4.691-.872 6.97-1.579 2.276-.69 4.485-1.584 6.6-2.673 1.049-.534 2.059-1.14 3.025-1.812.973-.653 1.8-1.471 2.714-2.191a15.3 15.3 0 0 0 3.884-5.553c.176-.44.608-.722 1.081-.707s.886.326 1.032.777l.027.086a24.38 24.38 0 0 0 11.967 14.188c5.877 2.628 12.434 3.333 18.735 2.012 6.306-1.308 12.881-3.268 19.279-5.049 6.379-1.865 12.948-3.706 18.914-6.044l.041-.016c.3-.116.622-.159.942-.126l69.405 6.457c23.149 1.975 46.328 3.625 69.516 4.647 11.591.558 23.19.949 34.773.934 5.791-.012 11.578-.129 17.343-.444a130.39 130.39 0 0 0 17.1-1.886c2.726-.451 5.368-1.314 7.834-2.559.538-.302 1.041-.662 1.5-1.074l1.4-1.566c.951-1.034 1.817-2.144 2.589-3.318a50.73 50.73 0 0 0 6.889-15.538 104.38 104.38 0 0 0 2.854-34.4c-.013-.116.071-.221.187-.235a.22.22 0 0 1 .235.185c.7 5.798.937 11.642.709 17.477a93.3 93.3 0 0 1-2.185 17.43 52 52 0 0 1-6.715 16.4c-.791 1.278-1.683 2.49-2.668 3.626l-1.461 1.729a10.91 10.91 0 0 1-1.981 1.53 29.59 29.59 0 0 1-8.579 3.117 119.93 119.93 0 0 1-17.494 2.371c-5.841.42-11.682.639-17.518.753-11.673.218-23.332.026-34.979-.332-23.289-.857-46.521-2.484-69.724-4.358q-34.795-3.005-69.474-7.083l.982-.142c-3.3 1.313-6.5 2.26-9.748 3.219s-6.483 1.836-9.73 2.707l-9.755 2.542c-3.219.852-6.568 1.588-9.964 2.255-6.961 1.298-14.156.331-20.527-2.76a26.89 26.89 0 0 1-12.885-16.1l2.14.156c-1.032 2.388-2.585 4.516-4.545 6.227-1.008.774-1.953 1.647-3.017 2.328-1.049.695-2.144 1.318-3.277 1.865-2.239 1.09-4.573 1.975-6.972 2.643-2.391.684-4.832 1.179-7.3 1.479l-.048.005a.36.36 0 0 1-.111 0c-.93-.181-1.874-.262-2.791-.517a12.01 12.01 0 0 1-2.672-1.077 9.18 9.18 0 0 1-4.037-4.118c-.83-1.728-1.277-3.615-1.311-5.532a19.8 19.8 0 0 1 .615-5.585l.023.457c-.511-1.263-1.125-2.483-1.837-3.645a38.89 38.89 0 0 1-2.132-3.708c-.637-1.38-.905-2.901-.778-4.416a15.78 15.78 0 0 1 1.049-4.242 53.48 53.48 0 0 1 3.716-7.646c1.394-2.451 2.88-4.838 4.394-7.2l-.114.325c.786-7.38 3.745-14.36 8.5-20.058 1.17-1.454 2.484-2.785 3.922-3.974a13.31 13.31 0 0 1 2.438-1.6c.496-.249 1.029-.418 1.578-.5a2.97 2.97 0 0 1 1.026.036c.262.075.522.155.729.23 3.464 1.249 6.768 2.616 10.128 3.965l39.966 16.634-.5-.134 33.276 3.595-.337-.008 74.2-4.9q18.555-1.163 37.1-2.467l18.546-1.277 18.524-1.526c.056-.007.113.009.157.044s.073.086.08.142a.22.22 0 0 1-.175.234z"/><path d="M1856.042 1067.298c1.202-1.253 2.59-2.314 4.116-3.143a7.41 7.41 0 0 1 5.2-.912c1.792.561 3.291 1.804 4.175 3.461.421.794.8 1.618 1.145 2.447l.8 2.551a.87.87 0 0 1-1.021 1.107.87.87 0 0 1-.639-.589l-.018-.069-.02-.091-.54-2.434-.848-2.3c-.624-1.468-1.798-2.633-3.271-3.245-1.594-.431-3.291-.264-4.771.47-1.569.688-3.022 1.615-4.308 2.747zm-19.859 2.4c2.712-3.433 5.235-7.011 7.558-10.719a60.1 60.1 0 0 0 3.185-5.738 19.61 19.61 0 0 0 2.033-6.218 19.81 19.81 0 0 1-1.635 6.392 60.75 60.75 0 0 1-2.831 6 121.67 121.67 0 0 1-6.921 11.328.87.87 0 0 1-1.193.204.87.87 0 0 1-.24-1.186l.032-.044zm-3.781-6.695l16.557-27.8-15.043 28.643a.87.87 0 0 1-1.17.361.87.87 0 0 1-.367-1.168zm8.108-23.465l10.949-15.148-9.5 16.1a.87.87 0 1 1-1.5-.883c.02-.029.039-.052.051-.074zm-39.7-89.1c-1.039-.47-2.177-.681-3.316-.615a23.19 23.19 0 0 0-3.409.262c-2.189.418-4.229 1.402-5.919 2.855-1.625 1.485-2.91 3.304-3.767 5.331a20.61 20.61 0 0 0-1.624 6.37c-.056.641-.568 1.148-1.21 1.198s-1.226-.373-1.379-.998l-.01-.042c-.923-3.941-2.334-7.752-4.2-11.345a21.72 21.72 0 0 0-7.637-8.542 12.06 12.06 0 0 0-2.466-1.156c-.389-.14-.791-.241-1.2-.3l-1.475-.187a15.48 15.48 0 0 0-5.6.271c-3.524.777-6.462 3.196-7.9 6.506l-.074.17c-.403.928-1.483 1.354-2.411.951a1.91 1.91 0 0 1-.362-.209 5.83 5.83 0 0 0-3.335-1.174 10.08 10.08 0 0 0-3.875.77c-2.639.925-4.833 2.809-6.146 5.277l-.077.147-.138.311-.2.48a9.34 9.34 0 0 0-.3.955c-.162.623-.232 1.266-.209 1.909a5.73 5.73 0 0 0 1.433 3.484 15.24 15.24 0 0 0 7.392 4.189l.074.02a.8.8 0 0 1 .449.318 38.84 38.84 0 0 1 3.093 5.577c.453.94.885 1.87 1.4 2.737.527.917 1.054 1.833 1.511 2.8.507.987.878 2.038 1.1 3.125.247.71.068 1.498-.461 2.031s-1.316.719-2.028.478c-2.112-.512-4.127-1.366-5.963-2.529-1.835-1.057-3.586-2.181-5.341-3.384a30.94 30.94 0 0 1-4.745-4.318c-.72-.769-1.417-1.638-2.066-2.259-.682-.639-1.472-1.151-2.334-1.511-1.761-.693-3.688-.846-5.536-.44a9.89 9.89 0 0 0-4.864 2.485c-1.192 1.215-1.711 2.939-1.387 4.61a14.7 14.7 0 0 0 2.062 5.2 31.71 31.71 0 0 0 3.529 4.765 33.01 33.01 0 0 0 2.056 2.133l2.316 2.022q2.384 2.113 4.63 4.317a336.71 336.71 0 0 1 8.831 8.975c.268.281.446.637.51 1.02l.026.155c.25 1.238.661 2.438 1.222 3.569a18.18 18.18 0 0 0 2.139 3.372 19.22 19.22 0 0 0 2.815 2.879c1.042.921 2.094 1.511 3.51 2.568 2.57 2.002 4.761 4.447 6.469 7.221 1.724 2.75 3.015 5.749 3.829 8.891l-.124-.388a12.5 12.5 0 0 0 5.071 6.127 16.39 16.39 0 0 0 8.065 1.961c3.006-.014 5.998-.419 8.9-1.205a51.15 51.15 0 0 0 8.623-3.078l.108-.05c.045-.02.09-.038.137-.053l10.851-3.235c3.642-1.004 7.269-2.022 11.011-2.849 3.583-.538 6.914-2.161 9.546-4.651a21.25 21.25 0 0 0 5.661-9.335c.034-.112.153-.176.265-.142.104.033.167.137.148.244a21.11 21.11 0 0 1-5.044 10.242 19.53 19.53 0 0 1-4.546 3.727 16.25 16.25 0 0 1-2.7 1.275c-.974.318-1.963.628-2.8.829-3.557 1.014-7.122 2.24-10.666 3.459l-10.634 3.708.244-.1a54.44 54.44 0 0 1-9.184 3.675 38.59 38.59 0 0 1-9.892 1.7c-3.576.167-7.13-.64-10.284-2.334-1.602-.929-3.034-2.123-4.235-3.531a19.76 19.76 0 0 1-2.821-4.617l-.043-.112-.082-.278c-.732-2.627-1.828-5.139-3.254-7.463a23.3 23.3 0 0 0-5.368-6.062c-.948-.757-2.469-1.709-3.641-2.793-1.237-1.072-2.36-2.27-3.349-3.575-1.003-1.308-1.858-2.723-2.551-4.219a17.81 17.81 0 0 1-1.508-4.913l.536 1.174c-2.782-3.052-5.633-6.086-8.529-9.033l-4.387-4.348c-.747-.732-1.459-1.326-2.317-2.178-.783-.794-1.5-1.608-2.2-2.449a35 35 0 0 1-3.699-5.417c-1.155-1.99-1.888-4.197-2.154-6.483a8.74 8.74 0 0 1 .423-3.676 7.64 7.64 0 0 1 2.082-3.107 12.38 12.38 0 0 1 6.269-2.838 11.62 11.62 0 0 1 6.714.879 9.7 9.7 0 0 1 2.8 2c.813.869 1.372 1.668 2.043 2.452 1.292 1.565 2.765 2.972 4.387 4.191a78.31 78.31 0 0 0 5.163 3.4 19.13 19.13 0 0 0 5.438 2.46c1.929.588.8-2.107 0-3.773-.442-.91-.967-1.8-1.489-2.681-.556-.923-1.055-1.86-1.535-2.784a36.3 36.3 0 0 0-3.157-5.239l.522.338c-1.592-.321-3.14-.83-4.612-1.515-1.532-.684-2.926-1.645-4.111-2.833a8.16 8.16 0 0 1-2.285-4.794c-.09-.896-.048-1.8.126-2.683a12.1 12.1 0 0 1 .318-1.272l.208-.6.112-.309.2-.441-.076.147a12.81 12.81 0 0 1 3.04-4.322c1.282-1.186 2.747-2.156 4.339-2.875a12.47 12.47 0 0 1 5.249-1.263 9.5 9.5 0 0 1 5.465 1.732l-2.846.911a12.74 12.74 0 0 1 1.752-3.253 14.63 14.63 0 0 1 2.428-2.626 15 15 0 0 1 6.355-3.156 19.2 19.2 0 0 1 6.856-.261l1.632.23c.626.098 1.242.256 1.837.473 1.114.392 2.181.909 3.179 1.54 3.753 2.521 6.742 6.026 8.638 10.131 1.85 3.909 3.158 8.052 3.887 12.315l-2.6.16c.346-2.475 1.095-4.876 2.217-7.108a15.69 15.69 0 0 1 4.7-5.749c2.017-1.459 4.381-2.363 6.856-2.622a20.19 20.19 0 0 1 3.615.053 7.76 7.76 0 0 1 3.454 1.054c.103.052.146.177.096.281s-.173.15-.278.104z"/><path d="M1806.331 970.25c.838 1.919 1.31 3.977 1.392 6.069a26.32 26.32 0 0 1-.007 3.086l-.378 3.081-.017.1a1.14 1.14 0 0 1-.135.37c-.466.829-1.001 1.618-1.6 2.357a15.69 15.69 0 0 1-2.094 2.014 14.09 14.09 0 0 1-5 2.828c-1.965.494-4.039.318-5.893-.5a8.57 8.57 0 0 1-2.63-1.756c-.208-.216-.403-.444-.584-.683a5.7 5.7 0 0 1-.513-.976l-.45-1.3-.836-2.492c-.252-.681-.568-1.338-.942-1.961a18.17 18.17 0 0 0-1.215-1.813c-.187-.227-.521-.69-.794-1.1l-.829-1.256a17.56 17.56 0 0 1-2.025-5.347 18.54 18.54 0 0 1-.386-5.536c.013-.122.12-.21.242-.2.072.007.136.048.173.11a62.12 62.12 0 0 0 5.474 8.615l.767.853s.442.542.848.97c.689.775 1.275 1.635 1.744 2.56.463.932.815 1.915 1.05 2.929l.266 1.373.227 1.254.211 1.264c.045.141 0 .087.044.219.069.123.1.256.178.4a7.72 7.72 0 0 0 1.334 1.71 4.77 4.77 0 0 0 4.229 1.386c1.601-.398 2.931-1.509 3.609-3.013.384-.73.726-1.48 1.025-2.248.261-.782.57-1.547.927-2.29l-.152.465c.221-1.886.7-3.737 1.017-5.658l1.295-5.832c.014-.058.051-.108.102-.139s.113-.04.171-.026c.065.017.12.062.15.123zm-70.127 35.614c-.343-1.161-.495-2.371-.448-3.581a13.24 13.24 0 0 1 .578-3.6c.352-1.216.977-2.336 1.827-3.274a4.48 4.48 0 0 1 3.349-1.558c-.942.596-1.726 1.411-2.283 2.376a13.13 13.13 0 0 0-1.253 2.977c-.682 2.108-1.094 4.337-1.77 6.66zm5.027-37.715l3.925-.858 1.92-.339a12.28 12.28 0 0 1 2.114-.185 6.06 6.06 0 0 1-3.707 2.213c-.726.135-1.47.148-2.2.04a4.03 4.03 0 0 1-2.053-.87zm7.766-18.706a19.11 19.11 0 0 0 .722 5.468c.445 1.775 1.392 3.384 2.727 4.636a6.78 6.78 0 0 0 5.141 1.553 17.38 17.38 0 0 0 2.83-.467l2.737-.989-2.653 1.241a17.82 17.82 0 0 1-2.861.744c-2.037.404-4.15-.045-5.847-1.242-1.646-1.273-2.891-2.994-3.584-4.957-.738-1.913-1.19-3.925-1.34-5.97-.039-.385.133-.761.451-.982s.73-.253 1.077-.084.576.514.597.901v.1z"/><path d="M1757.569 961.461a53.07 53.07 0 0 1 3.911 7.047c1.244 2.467 2.099 5.112 2.534 7.84.246 1.031.98 1.876 1.967 2.262a11.56 11.56 0 0 0 3.538 1.123c1.259.215 2.544.229 3.807.042a5.07 5.07 0 0 0 3.373-1.7c-.657 1.248-1.809 2.162-3.173 2.519-1.34.419-2.748.58-4.149.474a11.46 11.46 0 0 1-4.133-1c-1.542-.605-2.659-1.969-2.947-3.6a17.63 17.63 0 0 0-.819-3.7l-1.238-3.754z"/><path d="M1785.303 974.803l-4.4-.877-43.238-8.842-4.16-.858-17.459-3.6c-6.939-2.761-13.878-5.5-20.705-8.749 7.573-.224 15.016.056 22.477.336l14.4 3.04 7.163 1.492 42.231 8.637a30.73 30.73 0 0 0 3.693 9.42z"/><path d="M1781.442 964.526a38.37 38.37 0 0 0 4.752 9.435l1.625 1.885a16.02 16.02 0 0 1 1.887 2.3 12.84 12.84 0 0 1 1.362 2.717l.821 2.674c.268.8.467 1.862.678 1.965a5.86 5.86 0 0 0 1.477 1.363 5.29 5.29 0 0 0 3.721.892 6.61 6.61 0 0 0 3.514-2.229 14.81 14.81 0 0 0 1.512-1.885l1.319-2.158-.12.368 1.306-7.443.31-3.8a21.17 21.17 0 0 0-.138-3.85c1.054 2.436 1.642 5.048 1.734 7.7a53.01 53.01 0 0 1 .064 3.967l-.319 3.985c-.006.075-.024.149-.054.219l-.066.149a20.46 20.46 0 0 1-2.957 5.03 9.4 9.4 0 0 1-5.374 3.534c-2.279.446-4.642-.077-6.52-1.443a9.37 9.37 0 0 1-2.388-2.361 4.23 4.23 0 0 1-.509-.923c-.114-.26-.2-.532-.254-.811l-.31-1.363-.579-2.54a12.31 12.31 0 0 0-.879-2.184 12.98 12.98 0 0 0-1.3-2.042l-1.594-2.447a25.31 25.31 0 0 1-2.721-10.704zm288.913-211.617a5.6 5.6 0 0 0 2.615 4.662 15.65 15.65 0 0 0 5.147 2.084l5.5 1.284 2.763.711 1.382.393 1.3.332a17.66 17.66 0 0 0 5.282.692 9.87 9.87 0 0 0 5.11-1.588 9.54 9.54 0 0 0 3.432-4.176 9.23 9.23 0 0 0 .66-2.617c.11-.833.058-1.679-.155-2.491a3.21 3.21 0 0 0-1.269-1.572c-.703-.423-1.45-.767-2.228-1.028l-5.434-1.735a35.47 35.47 0 0 1-5.692-2.355c-.944-.498-1.849-1.066-2.707-1.7-.733-.435-1.4-.971-2.119-1.3a7.2 7.2 0 0 0-8.464.8 13.4 13.4 0 0 0-5.123 9.604zm-.433 0a24.2 24.2 0 0 1 .924-5.872 17.86 17.86 0 0 1 2.537-5.673 9.42 9.42 0 0 1 5.6-3.966 10.43 10.43 0 0 1 7.025.966 23.57 23.57 0 0 1 2.824 1.749l2.176 1.462a37.89 37.89 0 0 0 4.893 2.455l5.441 2.407a11.13 11.13 0 0 1 2.734 1.97 5.89 5.89 0 0 1 1.636 3.335c-.005 9.073-8.741 15.209-17.27 14.186a30.63 30.63 0 0 1-5.869-1.294 28.27 28.27 0 0 1-5.523-2.433 20.66 20.66 0 0 1-4.828-3.8 8.26 8.26 0 0 1-2.3-5.492zm27.676-61.254c.031 1.613.439 3.196 1.19 4.623a11.31 11.31 0 0 0 3.138 3.571 27.81 27.81 0 0 0 8.619 4.133c3.059 1 6.2 1.741 9.333 2.592l4.722 1.226 2.369.623 2.292.523a28.55 28.55 0 0 0 9.31.744 18.46 18.46 0 0 0 8.818-3.112 17.7 17.7 0 0 0 5.991-7.262c.278-.742.581-1.475.807-2.23a17.42 17.42 0 0 0 .461-2.311 12.92 12.92 0 0 0-.071-4.5 6.37 6.37 0 0 0-2.289-3.277 17.94 17.94 0 0 0-3.96-2.067c-2.905-1.145-6.07-2.066-9.218-3.185a64.2 64.2 0 0 1-9.377-4.028 37.52 37.52 0 0 1-4.408-2.8 28.49 28.49 0 0 0-3.827-2.4 13.5 13.5 0 0 0-8.135-1.706c-2.881.501-5.551 1.841-7.673 3.854a25.19 25.19 0 0 0-5.642 7.622c-1.472 2.913-2.308 6.106-2.45 9.367zm-.433 0a33.3 33.3 0 0 1 1.789-9.807 29.73 29.73 0 0 1 4.641-9.109 15.7 15.7 0 0 1 9.018-6.025 16.93 16.93 0 0 1 10.956 1.679c1.593.804 3.109 1.753 4.529 2.834 1.263.887 2.525 1.774 3.872 2.568 2.744 1.604 5.611 2.987 8.574 4.136 3 1.22 6.13 2.281 9.23 3.838a18.23 18.23 0 0 1 4.464 3.007 9.06 9.06 0 0 1 2.666 5.039 19.14 19.14 0 0 1-2.192 10.127 22.9 22.9 0 0 1-6.49 7.765 26.04 26.04 0 0 1-19.57 4.787l-2.555-.407c-.814-.161-1.62-.357-2.426-.549-1.613-.4-3.23-.786-4.821-1.3a55.1 55.1 0 0 1-9.364-3.712 32.85 32.85 0 0 1-8.3-5.854c-2.492-2.347-3.939-5.595-4.017-9.018zm13.762-82.456a18.33 18.33 0 0 0-1.3 7.216 13.26 13.26 0 0 0 2.3 6.89 30.86 30.86 0 0 0 11.24 9.4 163.97 163.97 0 0 0 27.731 10.837l28.558 9.163q7.116 2.435 14.106 5.292c4.628 1.828 9.179 3.7 13.9 5.175a95.02 95.02 0 0 0 28.883 5.406 48.96 48.96 0 0 0 14.487-1.94 32.93 32.93 0 0 0 12.691-7.075 35.54 35.54 0 0 0 8.486-11.88c1.956-4.534 3.272-9.318 3.908-14.215a81.26 81.26 0 0 0 .658-14.806c-.131-2.475-.275-4.945-.563-7.409a51.82 51.82 0 0 0-1.154-7.251 92.27 92.27 0 0 0-12.072-26.76 116.94 116.94 0 0 0-18.848-22.55c-7.131-6.679-15.336-12.108-24.272-16.059a71.43 71.43 0 0 0-13.788-4.373 58.69 58.69 0 0 0-14.373-1.085 64.77 64.77 0 0 0-27.944 6.713 78.44 78.44 0 0 0-22.919 17.9c-6.552 7.456-12.253 15.617-17 24.334a241.75 241.75 0 0 0-12.717 27.077zm-.4-.161c3.693-9.286 7.624-18.485 12.054-27.476a140.52 140.52 0 0 1 15.89-25.62 74.44 74.44 0 0 1 23.185-19.762 67.23 67.23 0 0 1 29.7-7.62c10.37-.441 20.695 1.596 30.12 5.942a91.21 91.21 0 0 1 25.237 17.214 113.58 113.58 0 0 1 18.987 23.715 90.74 90.74 0 0 1 11.463 28.068c1.609 9.996 1.693 20.179.249 30.2-1.479 9.913-5.4 19.907-12.952 26.905-3.755 3.488-8.217 6.124-13.084 7.73a51.03 51.03 0 0 1-15 2.66 95.98 95.98 0 0 1-29.993-4.375c-4.853-1.414-9.615-3.183-14.269-5.042-4.6-1.851-9.265-3.561-13.936-5.279l-28.173-10.184c-4.685-1.77-9.356-3.6-13.964-5.6a105.56 105.56 0 0 1-13.448-6.826 54.78 54.78 0 0 1-6.16-4.387 25.19 25.19 0 0 1-5.011-5.673 14.27 14.27 0 0 1-2.3-7.182 18.8 18.8 0 0 1 1.4-7.4zm139.916 260.97c2.902 4.764 6.37 9.159 10.328 13.089a24.15 24.15 0 0 1-11.583-2.511 16.4 16.4 0 0 1-6.347-5.809 16.76 16.76 0 0 1-2.438-8.284 23.84 23.84 0 0 1 2.724-11.511 67.81 67.81 0 0 0 7.315 15.025z"/><path d="M2263.532 871.59c.071 4.009-.879 7.97-2.761 11.511-1.81-5.291-4.267-10.338-7.316-15.025a70.26 70.26 0 0 0-10.328-13.089 23.65 23.65 0 0 1 11.552 2.542 16.7 16.7 0 0 1 6.382 5.774c1.555 2.489 2.41 5.35 2.475 8.284zm-22.663 32.628a67.93 67.93 0 0 0 10.364 13.089c-4.01.143-7.992-.721-11.583-2.511a16.53 16.53 0 0 1-6.383-5.809c-1.522-2.501-2.362-5.357-2.438-8.284a23.84 23.84 0 0 1 2.725-11.511c1.824 5.285 4.281 10.329 7.315 15.025z"/><path d="M2253.958 905.795c.07 4.005-.867 7.963-2.724 11.512-1.84-5.278-4.296-10.322-7.316-15.026a70.48 70.48 0 0 0-10.364-13.089c4.003-.147 7.977.729 11.547 2.546a16.02 16.02 0 0 1 8.857 14.057zm-23.886 36.075c2.913 4.766 6.394 9.161 10.366 13.089a23.6 23.6 0 0 1-11.583-2.547 16.17 16.17 0 0 1-6.382-5.773c-1.522-2.501-2.363-5.357-2.439-8.284-.077-4.005.86-7.965 2.725-11.511a69.42 69.42 0 0 0 7.313 15.026z"/><path d="M2243.164 943.413a23.97 23.97 0 0 1-2.726 11.548 69.5 69.5 0 0 0-7.35-15.026c-2.911-4.757-6.378-9.151-10.328-13.089 4.003-.147 7.977.729 11.547 2.546a16.7 16.7 0 0 1 6.383 5.774 16.29 16.29 0 0 1 2.474 8.247zm-18.361 38.549c2.914 4.776 6.394 9.183 10.364 13.125a23.6 23.6 0 0 1-11.583-2.546 16.19 16.19 0 0 1-8.821-14.058c-.059-4.004.877-7.959 2.725-11.511a70.83 70.83 0 0 0 7.316 14.989z"/><path d="M2237.893 983.539a23.55 23.55 0 0 1-2.725 11.548c-3.784-10.541-9.815-20.133-17.675-28.112 4.003-.147 7.977.729 11.547 2.546 2.61 1.313 4.816 3.308 6.383 5.774s2.426 5.322 2.474 8.247zm-14.663 22.926c4.004-.136 7.978.739 11.555 2.542a16.52 16.52 0 0 1 6.386 5.79c1.551 2.478 2.405 5.328 2.472 8.25a23.7 23.7 0 0 1-2.75 11.528 23.7 23.7 0 0 1-11.579-2.526c-2.604-1.328-4.801-3.333-6.361-5.805a16.51 16.51 0 0 1-2.446-8.265c-.074-4.005.861-7.964 2.72-11.513zm51.2-125.914a108.77 108.77 0 0 0-13.841 7.817c.615-3.811 2.019-7.45 4.124-10.686a15.29 15.29 0 0 1 5.78-5.164 13.89 13.89 0 0 1 7.316-1.362 43.49 43.49 0 0 1 10.83 2.51zm12.193 5.02c-3.082 5.439-9.148 8.472-15.348 7.674a20.58 20.58 0 0 1-10.686-4.876 36.91 36.91 0 0 0 7.961-1.613 58.45 58.45 0 0 0 7.495-2.977 44.74 44.74 0 0 0 6.921-4.232 22.7 22.7 0 0 0 5.666-5.881 16.51 16.51 0 0 1-2.008 11.906zm-17.783 27.254c-5.917 2.151-11.942 4.052-18 6.6 1.738-3.849 4.197-7.33 7.244-10.255a22.5 22.5 0 0 1 7.745-4.77 20.31 20.31 0 0 1 8.534-1.148 78.25 78.25 0 0 1 11.835 2.116 105.13 105.13 0 0 1-17.356 7.459z"/><path d="M2282.143 918.275c-4.78 5.825-12.351 8.587-19.759 7.207-4.368-.821-8.39-2.932-11.548-6.06a42.18 42.18 0 0 0 9.754-.753c3.208-.558 6.362-1.386 9.431-2.474 3.11-1.068 6.092-2.477 8.893-4.2a23.88 23.88 0 0 0 7.281-6.634c.508 4.68-.961 9.36-4.052 12.91zm-20.046 22.447c-5.917 2.152-11.942 4.053-18 6.6a32.57 32.57 0 0 1 7.279-10.253 22.05 22.05 0 0 1 7.71-4.769c2.73-.988 5.64-1.38 8.534-1.148 3.993.401 7.949 1.108 11.834 2.116a105.02 105.02 0 0 1-17.357 7.458z"/><path d="M2275.401 946.174a20.66 20.66 0 0 1-19.758 7.208 22.25 22.25 0 0 1-11.548-6.06 42.18 42.18 0 0 0 9.755-.753c3.208-.558 6.362-1.386 9.431-2.475 3.11-1.068 6.092-2.477 8.893-4.2a23.87 23.87 0 0 0 7.28-6.634 16.88 16.88 0 0 1-4.053 12.914zm-18.97 28.724c-5.988 2.725-12.264 4.949-18.539 7.745a35.27 35.27 0 0 1 7.279-10.614 26 26 0 0 1 7.639-5.342c2.616-1.156 5.426-1.813 8.284-1.937 3.084-.287 6.239.322 11.8-.431a29.94 29.94 0 0 1-7.709 6.168c-2.816 1.662-5.74 3.136-8.751 4.411z"/><path d="M2273.931 968.228c.042 1.272-.043 2.545-.251 3.8a18.88 18.88 0 0 1-2.761 6.491 21.72 21.72 0 0 1-9.395 7.853c-3.547 1.569-7.444 2.176-11.3 1.758a22.59 22.59 0 0 1-12.333-5.487c3.445-.001 6.877-.423 10.22-1.255a53.93 53.93 0 0 0 9.79-3.228c3.218-1.372 6.224-3.195 8.929-5.414 2.822-2.136 4.934-5.073 6.06-8.428a15.37 15.37 0 0 1 .682 1.937 17.56 17.56 0 0 1 .358 1.973zm-36.183 55.26a34.9 34.9 0 0 1 2.556-11.489c.981-2.41 2.454-4.59 4.324-6.4 1.682-1.535 3.707-2.644 5.906-3.234 2.383-.819 5.3-.778 9.96-3.438.521.387 1.016.806 1.484 1.255a16.28 16.28 0 0 1 1.173 1.5c.608 1.042 1.082 2.157 1.411 3.318.531 2.174.574 4.438.128 6.631a17.7 17.7 0 0 1-5.494 9.8c-2.566 2.371-5.792 3.907-9.251 4.405a19.38 19.38 0 0 1-12.2-2.342zm34.677-175.534c-2.086 5.735-3.506 11.691-4.231 17.75a24.88 24.88 0 0 1-5.021-11.331 19.75 19.75 0 0 1 .753-9.36 19.09 19.09 0 0 1 5.165-7.853 25.15 25.15 0 0 1 10.937-5.81 80.62 80.62 0 0 0-7.603 16.604zm11.869 4.088a19.2 19.2 0 0 1-5.2 7.818c-3.083 2.836-6.832 4.846-10.9 5.845 3.126-5.243 5.674-10.808 7.6-16.6a80.07 80.07 0 0 0 4.231-17.751 25.01 25.01 0 0 1 5.057 11.332 19.32 19.32 0 0 1-.79 9.359z"/><path d="M2218.779 1050.094l1.65 3.371 1.829 3.837 3.191 6.742 2.833-7.351 1.721-4.231.717-1.793c-3.978-.108-7.96-.287-11.941-.575zm15.456 5.989l-.932-2.26-.968 2.474-4.268 10.614 10.543-.286zm11.368-5.308l-5.2.072-4.554-.072.394 1.005 1.471 3.98 3.191 8.5 3.442-9.144 1.614-4.34zm3.048 3.909l-.753-2.116-.789 2.26-4.053 11.834 10.041.25zm1.04-3.98l1.255 3.765 3.765 11.367 5.272-12.229 1.47-3.442c-3.909.251-7.853.431-11.762.539zm13.95 2.546l-1.112-2.725-1.148 2.94-5.271 13.591c4.518.251 9.073.646 13.627 1.291zm-44.861-3.156c.574 1.112 1.112 2.26 1.65 3.371l1.829 3.837 3.191 6.742 2.833-7.351 1.721-4.231c.215-.609.467-1.184.717-1.793a266.48 266.48 0 0 1-11.941-.574zm15.456 5.989l-.931-2.26-.968 2.474-4.268 10.614 10.543-.286zm11.368-5.308l-5.2.072-4.554-.072.394 1.005 1.471 3.98 3.191 8.5 3.442-9.144 1.614-4.34zm3.048 3.909l-.753-2.116-.789 2.26-4.053 11.834 10.041.25zm1.04-3.98l1.255 3.765 3.765 11.367 5.272-12.229 1.47-3.442c-3.909.251-7.853.431-11.762.539zm13.95 2.546l-1.112-2.725-1.148 2.94-5.271 13.591c4.518.251 9.073.646 13.627 1.291zm-46.761-1.578l-1.22 2.3 2.044-.215c-.287-.681-.537-1.4-.824-2.08zm1.9-1.578c.574 1.112 1.112 2.26 1.65 3.371l1.829 3.837 6.024-.609 1.721-4.231c.215-.609.467-1.184.717-1.793a266.48 266.48 0 0 1-11.941-.574zm14.524 3.73l-.968 2.474 1.9-.215zm7.1-2.977l-4.554-.072.394 1.005 9.36-1.005-5.2.072zm-40.916-52.856l7.961 51.063c3.012-.394 6.024-.681 9-.931a1.06 1.06 0 0 1 .968-.144l.072.072c5.092-.359 10.149-.61 15.2-.718a2.1 2.1 0 0 1 1.148 0l6.563-.072c9.037.037 18.037.251 27.038 1.112l5.953.681.214-1.362 7.71-49.7zm12.653 48.088c-6.921 0-6.921-10.758 0-10.758 6.96 0 6.924 10.758 0 10.758zm19.365 0c-6.922 0-6.922-10.758 0-10.758 6.957 0 6.921 10.758 0 10.758zm18.718-.645c-6.921 0-6.921-10.758 0-10.758 6.957 0 6.922 10.758 0 10.758zm18.4.645c-6.921 0-6.921-10.758 0-10.758 6.956 0 6.917 10.758-.001 10.758zm-4.984 7.172l-1.112-2.725-1.148 2.94-5.271 13.591c4.518.251 9.073.646 13.627 1.291zm-13.95-2.546l1.255 3.765 3.765 11.367 5.272-12.229 1.47-3.442c-3.911.251-7.854.431-11.763.539zm-1.04 3.98l-.753-2.116-.789 2.26-4.053 11.834 10.041.25zm-3.048-3.909l-5.2.072-4.554-.072.394 1.005 1.471 3.98 3.191 8.5 3.442-9.144 1.613-4.34zm-11.368 5.308l-.931-2.26-.968 2.474-4.268 10.614 10.543-.286zm-15.456-5.989c.574 1.112 1.112 2.26 1.65 3.371l1.829 3.837 3.191 6.742 2.833-7.351 1.721-4.231c.215-.609.467-1.184.717-1.793-3.98-.108-7.961-.287-11.942-.574zm44.861 3.156l-1.112-2.725-1.148 2.94-5.271 13.591c4.518.251 9.073.646 13.627 1.291zm-13.95-2.546l1.255 3.765 3.765 11.367 5.272-12.229 1.47-3.442a323.63 323.63 0 0 1-11.762.539zm-1.04 3.98l-.753-2.116-.789 2.26-4.053 11.834 10.041.25zm-3.048-3.909l-5.2.072-4.554-.072.394 1.005 1.471 3.98 3.191 8.5 3.442-9.144 1.613-4.34zm-11.368 5.308l-.931-2.26-.968 2.474-4.268 10.614 10.543-.286zm-15.456-5.989c.574 1.112 1.112 2.26 1.65 3.371l1.829 3.837 3.191 6.742 2.833-7.351 1.721-4.231c.215-.609.467-1.184.717-1.793-3.98-.108-7.961-.287-11.942-.574zm26.824.681l-9.36 1.005 1.471 3.98 6.634-.645 1.613-4.34zm2.295 1.793l-.789 2.26c.5-.036 1.04-.072 1.542-.144zm1.793-1.864l1.255 3.765 9.037-.861 1.47-3.442c-3.909.251-7.853.431-11.762.539zm12.838-.179l-1.148 2.94 2.26-.215zm.932-.5l1.148 3.156 5.486 15.169v.036a.79.79 0 0 1 .287.036l2.51-16.029.5-3.336c-3.335.431-6.635.718-9.933.968zm6.6 18.432c0 .036 0 .108-.072.108-.08.033-.171.002-.215-.072a230.61 230.61 0 0 1-29.369 1.721c-4.626-.036-9.252-.143-13.878-.359-.467.345-1.083.414-1.614.179-.152-.083-.296-.179-.431-.287-4.662-.286-9.359-.681-14.021-1.326l2.4 15.42h55.117l2.4-15.42c-.109-.006-.217.006-.322.036zm-45.686 14.021c-6.957 0-6.921-10.758 0-10.758s6.921 10.758 0 10.758zm18.073 0c-6.957 0-6.921-10.758 0-10.758s6.921 10.758 0 10.758zm18.073-.645c-6.957 0-6.921-10.758 0-10.758s6.922 10.755 0 10.755zm3.12-28.58l-1.112-2.725-1.148 2.94-5.271 13.591c4.518.251 9.073.646 13.627 1.291zm-13.95-2.546l1.255 3.765 3.765 11.367 5.272-12.229 1.47-3.442a330.55 330.55 0 0 1-11.762.536zm-1.04 3.98l-.753-2.116-.789 2.26-4.053 11.834 10.041.25zm-3.048-3.909l-5.2.072-4.554-.072.394 1.005 1.471 3.98 3.191 8.5 3.442-9.144 1.613-4.34zm-11.368 5.308l-.931-2.26-.968 2.474-4.268 10.614 10.543-.286zm-15.456-5.989c.574 1.112 1.112 2.26 1.65 3.371l1.829 3.837 3.191 6.742 2.833-7.351 1.721-4.231c.215-.609.467-1.184.717-1.793-3.98-.108-7.961-.287-11.942-.574zm.467 7.495l-1.542-3.837c-.287-.681-.538-1.4-.825-2.08l-1.22 2.3-2.223 4.2q-1.668 3.174-3.442 6.347c-.029.028-.068.041-.108.036l.574 3.873c4.231-.61 8.5-.968 12.73-1.255l-3.945-9.574zm3.012-.287l3.191 6.742 2.833-7.351-6.024.609zm11.977-1.219l-1.9.215-4.268 10.614 10.543-.286zm3.479-.323l3.191 8.5 3.442-9.144-6.634.645zm10.936-1.076c-.5.072-1.04.108-1.542.144l-4.053 11.834 10.041.25zm2.3-.215l3.765 11.367 5.272-12.229-9.037.862zm12.694-1.22l-2.26.215-5.271 13.591c4.518.251 9.073.646 13.627 1.291zm-56.193-4.2l.9 5.7.573 3.873.861 5.415 2.259-5.738c.538-1.4 1.112-2.761 1.685-4.124l1.757-4.3c-2.694-.214-5.343-.502-8.037-.825z"/><path d="M2245.379 1040.9c-3.211-2.444-4.934-6.3-6.418-9.976-.564-1.915-1.295-3.811-1.725-5.768l-1.213-5.9a139.15 139.15 0 0 1-.9-23.959c.141-8.012 1.339-15.905 2.267-23.831 1.452-7.825 2.571-15.739 4.471-23.464 1.782-7.756 3.565-15.51 5.818-23.132 2.17-7.646 4.255-15.313 6.929-22.8 2.586-7.508 4.907-15.1 7.783-22.5l8.7-22.148-13.209 45.635-3.195 11.415-2.941 11.476c-.95 3.83-2.1 7.614-2.95 11.464l-2.595 11.541c-1.972 7.648-3.082 15.446-4.665 23.166-1.163 7.773-2.386 15.553-3.014 23.379a139.95 139.95 0 0 0-.345 23.493l.7 5.825c.258 1.941.811 3.814 1.2 5.739 1.184 3.676 2.435 7.557 5.302 10.345zm-552.718-141.075c-1.776 5.02-3.79 9.937-5.805 14.853l-8.024 13.521-15.4 26.019h-5.941l.922-1.537 16.014-27.077 8.024-13.555c3.35-4.097 6.663-8.228 10.21-12.224zm-37.491 17l-1.909 16.736-2.356 20.658h-5.157l2.425-21.239 1.878-16.731c1.4-5.5 2.765-10.995 4.472-16.424.412 5.706.547 11.337.651 17.006zm-21.136 37.389h3.244l-1.81-12.668-1.468-10.175-2.254-15.98c-1.537-5.19-3.039-10.414-4.849-15.57-.239 4.473-.307 8.912-.273 13.351v2.971l.649 4.4 1.673 11.541 3.175 22.126zm-10.824 0h-5.149l-3.209-22.126-2.291-15.941c-.035-5.429-.035-10.858.273-16.321 1.81 5.157 3.312 10.38 4.849 15.57l2.253 15.98 2.185 15.228z"/><path d="M1627.276 917.547v3l-.034 12.7v20.965h-5.122v-36.665c.751-5.224 1.5-10.449 2.561-15.707.751 3.79 1.4 7.58 1.946 11.336.241 1.469.449 2.903.649 4.371zm15.775 2.628l-1.776 15.6-2.083 18.439h-5.156l1.44-12.663.717-6.351 1.741-15.6c1.331-5.122 2.663-10.243 4.3-15.3.477 5.291.647 10.584.818 15.876zm-35.648 54.939v18.44l2.663-.273 7.683-17.243c-3.447-.24-6.895-.513-10.345-.923zm11.3 1.23l-8.227 16.903c4.951-.513 9.936-.854 14.888-1.059zm1.093-.171l7.034 15.16 5.6-14.647c-4.197-.068-8.431-.273-12.631-.512zm14.409 1.981l-5.77 13.931c3.653-.137 7.272-.205 10.926-.238zm7.271-1.331l-5.36-.068 5.224 12.873 4.439-12.873-4.3.068zm6.591 3.244l-4.473 11.781 8.6.17-4.131-11.951zm2.39-3.379l4.234 12.189 5.532-12.531a311.69 311.69 0 0 1-9.766.342zm11.677 1.571l-5.258 13.9a224.52 224.52 0 0 1 11.746.717c-2.254-4.848-4.371-9.7-6.488-14.613zm-54.734-24.038v20.9a291.74 291.74 0 0 1 34.076-1.713l6.249.068a1.69 1.69 0 0 1 .922 0c4.371.068 8.707.239 13.044.478.11-.038.225-.061.341-.067a1.37 1.37 0 0 1 .513.1c4.336.273 8.673.614 13.009 1.126v-20.9zm7.956 15.263c-6.624 0-6.59-10.243 0-10.243s6.591 10.243 0 10.243zm18.438 0c-6.624 0-6.59-10.243 0-10.243s6.591 10.243 0 10.243zm17.824-.614c-6.624 0-6.59-10.243 0-10.243s6.59 10.243 0 10.243zm17.516.614c-6.624 0-6.59-10.243 0-10.243s6.591 10.243 0 10.243zm-5.5 6.658c1.911 5.565 3.755 11.131 5.463 16.766l6.453.649v-18.442a230.2 230.2 0 0 1-11.916 1.024zm-44.935.205l-8.223 16.9c4.951-.513 9.936-.854 14.888-1.059zm1.093-.171l7.034 15.16 5.6-14.647c-4.2-.068-8.434-.273-12.633-.513zm14.409 1.981l-5.77 13.931c3.653-.137 7.272-.205 10.926-.238zm7.275-1.334l-5.36-.068 5.224 12.873 4.439-12.873-4.3.068zm6.591 3.244l-4.473 11.781 8.6.17-4.131-11.951zm2.39-3.379l4.234 12.189 5.532-12.531a311.69 311.69 0 0 1-9.766.342zm11.677 1.571l-5.258 13.9a224.52 224.52 0 0 1 11.746.717c-2.254-4.848-4.371-9.7-6.488-14.613zm-43.432-1.912l-8.226 16.9c4.951-.513 9.936-.854 14.888-1.059zm1.093-.171l7.034 15.16 5.6-14.648c-4.2-.068-8.434-.273-12.633-.513zm14.409 1.981l-5.77 13.931c3.653-.137 7.272-.205 10.926-.238zm7.272-1.334l-5.36-.068 5.224 12.873 4.439-12.873-4.3.068zm6.591 3.244l-4.473 11.781 8.6.17-4.131-11.951zm2.39-3.379l4.234 12.189 5.532-12.531a311.69 311.69 0 0 1-9.766.342zm11.677 1.571l-5.258 13.9a224.52 224.52 0 0 1 11.746.717c-2.254-4.848-4.371-9.7-6.488-14.613zm-54.734 35.271v4.234a34.08 34.08 0 1 0 68.153 0v-4.234a340.94 340.94 0 0 1-68.153 0zm48.008-18.54c-.443.297-1.002.36-1.5.171a2.1 2.1 0 0 1-.205-.137l-12.224.239c-11.382.062-22.758-.508-34.076-1.707v19.974a291.73 291.73 0 0 1 34.073-1.709 292.45 292.45 0 0 1 34.076 1.707v-19.974c-6.726.785-13.419 1.195-20.145 1.434zm-38.516 13.829c-6.624 0-6.59-10.243 0-10.243s6.59 10.243 0 10.243zm15.673-.308c-6.624 0-6.59-10.243 0-10.243s6.59 10.243 0 10.243zm17.209 0c-6.624 0-6.59-10.243 0-10.243s6.59 10.243 0 10.243zm17.209-.614c-6.624 0-6.591-10.243 0-10.243s6.59 10.243 0 10.243zm1.639-15.024c-2.254-4.848-4.371-9.7-6.488-14.613l-5.258 13.9a224.52 224.52 0 0 1 11.746.717zm-8.4-16.526a311.69 311.69 0 0 1-9.766.342l4.234 12.189 5.532-12.531zm-8.024 15.672l-4.131-11.951-4.473 11.78 8.6.17zm-6.419-15.263l-4.3.068-5.36-.068 5.224 12.873zm-6.42 15.093l-5.156-13.692-5.77 13.931c3.653-.137 7.273-.205 10.926-.239zm-6.932-15.16c-4.2-.068-8.434-.273-12.633-.513l7.034 15.16zm-13.726-.342l-8.225 16.9c4.951-.513 9.936-.854 14.888-1.059zm43.432 1.912l-5.258 13.9a224.52 224.52 0 0 1 11.746.717c-2.254-4.849-4.371-9.7-6.488-14.614zm-11.677-1.571l4.234 12.189 5.532-12.531a311.69 311.69 0 0 1-9.766.342zm-2.39 3.379l-4.473 11.781 8.6.17-4.117-11.952zm-6.59-3.244l-5.36-.068 5.224 12.873 4.439-12.873-4.3.068zm-7.272 1.332l-5.77 13.931c3.653-.137 7.273-.205 10.926-.238zm-14.409-1.981l7.034 15.16 5.6-14.647c-4.2-.068-8.434-.273-12.634-.513zm-1.093.171l-8.226 16.902c4.951-.513 9.936-.854 14.888-1.059zm43.432 1.912l-5.258 13.9a224.52 224.52 0 0 1 11.746.717c-2.254-4.848-4.371-9.7-6.488-14.613zm-11.677-1.571l4.234 12.189 5.532-12.531a311.69 311.69 0 0 1-9.766.342zm-2.39 3.38l-4.473 11.781 8.6.17-4.118-11.951zm-6.591-3.243l-5.36-.068 5.224 12.873 4.439-12.873-4.3.068zm-7.272 1.332l-5.77 13.931c3.653-.137 7.273-.205 10.926-.238zm-14.409-1.981l7.034 15.16 5.6-14.647c-4.2-.068-8.434-.273-12.634-.513zm-1.093.171l-8.226 16.902c4.951-.513 9.936-.854 14.888-1.059zm315.8-6.616c1.315 4.921 2.783 9.714 4.223 14.519l4.547 14.325c.736 2.395 1.524 4.774 2.321 7.152.709 2.41 1.6 4.756 2.309 7.173l2.275 7.212c.725 2.422 1.5 4.831 2.1 7.321-1.362-2.159-2.582-4.389-3.8-6.625-1.129-2.272-2.281-4.541-3.3-6.866a144.03 144.03 0 0 1-5.46-14.223 127.7 127.7 0 0 1-3.814-14.774c-1.04-5.002-1.512-10.106-1.408-15.214zm-99.228 8.171a10.52 10.52 0 0 0-.206-2.072h.019v.019a10.24 10.24 0 0 1 .187 2.053z"/><path d="M1819.345 972.864l6.473 1.25 9.271 1.735a32.66 32.66 0 0 1-.9 8.469v.019l-9.979-1.865-7.7-1.511c-.429-.056-.839-.149-1.268-.243l-9.308-1.809a43.3 43.3 0 0 0 .186-8.636l8.674 1.717m394.451-398.318l-42.318 38.045 26.672 6.336-4.098 14.293 43.059-39.848-27.536-4.104zm-492.718 154.691l49.75 27.626-2.692-27.281 14.849-.778-51.696-27.739 5.084 27.371z"/></g><path fill="#fff" d="M333.907 416.169h112.42v41.588h-112.42z"/><path d="M402.809 468.608h98.42v41.588h-98.42zm1365.331 67.4h65.262v27.577h-65.262zm-36.405 34.772h65.262v27.577h-65.262zM637.805 820.953h49.766v21.029h-49.766zm27.761 26.515h49.766v21.029h-49.766zm103.169-181.46h111.262v47.577H768.735z" fill="none" stroke="#ebebeb" stroke-miterlimit="10"/><g fill="#f5f5f5"><path d="M319.815 901.252l6.5 1.047 7.938.773c2.857.266 5.923.223 9.143.259a129.2 129.2 0 0 0 20.829-2.129 129.1 129.1 0 0 0 20.119-5.779l8.391-3.641c2.615-1.183 4.951-2.479 7.078-3.673 2.168-1.125 3.988-2.38 5.642-3.392l4.146-2.755 2.071-1.425h-98.67v19.257l1.941.443a53.28 53.28 0 0 0 4.872 1.015zm58.971 179.81a72.7 72.7 0 0 0-21.032 2.723 54.2 54.2 0 0 0-11.985 5.137h80.761l-21.836-4.662a138.19 138.19 0 0 0-25.908-3.198zm99.383-13.181c-9.162-1.44-20.229-.354-32.473.782a140.83 140.83 0 0 1-19.359.533c-6.718-.279-13.632-1.019-20.683-1.883-14.084-1.766-27.515-3.557-39.761-3.019a86.86 86.86 0 0 0-31.516 7.029 89.34 89.34 0 0 0-18.888 11.052l-2.488 1.95v4.6h31.718a49.42 49.42 0 0 1 12.753-6.057 71.1 71.1 0 0 1 21.32-3.056 133.55 133.55 0 0 1 26.172 3.116l25.669 5.524c.909.177 1.773.313 2.66.473h64.276v-13.912a45.82 45.82 0 0 0-19.4-7.132zm-144.176 2.561a86.27 86.27 0 0 1 31.847-7.4c12.391-.611 25.917 1.16 39.981 2.922 7.04.862 13.915 1.607 20.575 1.9a142.17 142.17 0 0 0 19.2-.451c12.209-1.062 23.416-2.069 32.721-.484 6.899.96 13.485 3.489 19.253 7.394v-24.391a59.36 59.36 0 0 0-16.429-2.3c-18.357-.618-42.736 9.374-71.1 8.681a170.92 170.92 0 0 1-39.288-4.762c-11.874-2.844-22.069-6.925-30.918-9.251-8.821-2.462-16.245-3.209-21.346-2.961a53.28 53.28 0 0 0-5.485.516v43.917c.643-.559 1.347-1.157 2.159-1.816a84.52 84.52 0 0 1 18.83-11.514zM320.1 958.331c4.919.43 11.674 2.861 19.588 6.439a112.2 112.2 0 0 0 13.2 5.083 86.04 86.04 0 0 0 15.913 2.952c11.386 1.084 24.038.037 37.055-2.3 13.03-2.311 25.256-5.565 36.511-7.992 9.948-2.307 20.047-3.911 30.221-4.8a107.12 107.12 0 0 1 20.633.345 54.56 54.56 0 0 1 4.349.65v-32.515l-1.915-1.535c-4.036-3.327-8.278-6.396-12.7-9.188-5.588-3.382-12.907-6.971-21.609-7.184-8.7-.283-17.944 3.11-26.975 7.523-8.557 4.128-16.835 8.812-24.781 14.021-3.591 2.425-7.413 4.571-8.923 7.968-.731 1.571-.477 3.425.65 4.742a11.98 11.98 0 0 0 4.092 2.8 41.39 41.39 0 0 0 14.971 4c3.688.257 5.744.041 5.753.164a5.98 5.98 0 0 1-1.481.242 34.6 34.6 0 0 1-4.3.121 39.73 39.73 0 0 1-15.355-3.66 12.81 12.81 0 0 1-4.481-3c-1.405-1.612-1.752-3.891-.89-5.848 1.751-3.962 5.735-6.115 9.27-8.584a207.49 207.49 0 0 1 24.885-14.2c9.087-4.437 18.564-7.912 27.6-7.551 9.039.3 16.489 4.1 22.082 7.623 4.409 2.884 8.596 6.093 12.527 9.6l1.574 1.4v-26.919c-3.32-1.83-6.772-3.411-10.326-4.729a77.33 77.33 0 0 0-32.881-4.44 69.41 69.41 0 0 0-19.139 4.446c-6.4 2.427-12.572 6.016-18.914 9.657s-12.63 7.2-19.2 9.577c-6.337 2.184-12.947 3.475-19.64 3.835-12.76.738-24.166-.544-33.73-.7a101.48 101.48 0 0 0-22.533 1.522c-1.3.285-2.477.49-3.472.747l-2.5.728a13.08 13.08 0 0 1-2.095.523 12.87 12.87 0 0 1 2.01-.784l2.477-.855c.991-.3 2.162-.548 3.468-.879a95.44 95.44 0 0 1 22.664-1.958c9.607.032 21.035 1.209 33.628.408a71.65 71.65 0 0 0 19.273-3.839c6.426-2.347 12.643-5.861 18.981-9.506s12.578-7.255 19.108-9.717a69.94 69.94 0 0 1 19.512-4.453 77.19 77.19 0 0 1 33.326 4.787 75.02 75.02 0 0 1 9.989 4.72v-17.281H412.2c-.548.46-1.3 1.069-2.285 1.851a44.32 44.32 0 0 1-4.038 2.963c-1.626 1.08-3.425 2.4-5.582 3.589-2.114 1.261-4.448 2.617-7.065 3.857-2.559 1.365-5.433 2.52-8.43 3.794-6.587 2.565-13.384 4.556-20.315 5.949-6.953 1.288-14.005 1.972-21.076 2.045-3.256-.071-6.355-.071-9.238-.386-2.891-.175-5.563-.566-7.994-.948-2.444-.3-4.606-.855-6.517-1.255a44.12 44.12 0 0 1-4.85-1.246l-1.807-.548v41.389c1.442-.492 3.341-1.047 5.66-1.622a89.84 89.84 0 0 1 44.155.514c2.178.567 4.323 1.253 6.426 2.054a8.74 8.74 0 0 1 2.259 1.021c-.076.218-3.41-.9-8.914-2.142a106.65 106.65 0 0 0-21.836-2.586 106.7 106.7 0 0 0-21.888 2.077c-2.41.49-4.375.952-5.867 1.311v16.232c2.348-.4 4.742-.44 7.102-.119zm113.376-25.357a4.14 4.14 0 0 1 1.116-1.455 8.48 8.48 0 0 1 2.984-1.607 65.46 65.46 0 0 1 42.572 1.712 59.41 59.41 0 0 1 11.615 6.018c1.309.821 2.218 1.617 2.872 2.1.639.5.959.782.933.821-.179.3-5.472-4.23-15.759-8.035-6.007-2.202-12.3-3.529-18.685-3.941-7.811-.527-15.653.364-23.146 2.63-.911.271-1.759.723-2.492 1.328-.7.6-1.067 1.324-.805 1.965.492 1.367 2.941 1.486 4.779 1.924l11.179 2.283 18.921 3.945 12.734 2.775 3.449.823c.411.069.811.196 1.186.378a4.29 4.29 0 0 1-1.237-.108l-3.5-.572-12.818-2.352-18.977-3.658-11.2-2.207c-.983-.207-1.922-.352-2.978-.62-1.233-.209-2.284-1.013-2.809-2.149a2.65 2.65 0 0 1 .066-1.998zm-81.743 15.949a89.02 89.02 0 0 0 11 5.062 81.62 81.62 0 0 0 39.206 4.561c15.573-1.823 27.953-9.717 38.146-11.939a38.22 38.22 0 0 1 12.181-1.209c1.11.08 2.213.241 3.3.481a3.65 3.65 0 0 1 1.112.346c-.024.125-1.585-.235-4.44-.3-4.028-.048-8.042.495-11.913 1.611-4.936 1.3-10.54 3.721-16.822 6.344a81.06 81.06 0 0 1-21.387 6.012 79.21 79.21 0 0 1-39.733-5.012 73.51 73.51 0 0 1-10.918-5.5 28.17 28.17 0 0 1-3.647-2.6 28.04 28.04 0 0 1 3.915 2.143z"/><path d="M340.079 1041.37c8.948 2.231 19.184 6.213 30.963 8.964a173.87 173.87 0 0 0 39 4.621c28.074.713 52.408-9.113 71.111-8.283a58.22 58.22 0 0 1 16.416 2.568v-26.12l-5.5.663c-7.847.782-18.655 2.317-30.763 2.572-5.699.137-11.398-.265-17.022-1.2-4.598-.784-9.093-2.085-13.4-3.876-2.899-1.209-5.664-2.718-8.251-4.5a22.82 22.82 0 0 1-2.03-1.55c-.447-.378-.665-.594-.637-.63.149-.233 3.969 2.939 11.281 5.792 4.281 1.635 8.721 2.818 13.248 3.531 5.557.852 11.179 1.213 16.8 1.08 11.976-.248 22.818-1.632 30.689-2.172l5.589-.41v-63.37c-1.162-.145-2.632-.313-4.405-.464a117.24 117.24 0 0 0-20.5.086 229.63 229.63 0 0 0-30.028 5.07c-11.207 2.486-23.434 5.781-36.543 8.106-13.088 2.345-25.876 3.371-37.411 2.207a85.77 85.77 0 0 1-16.118-3.122c-4.534-1.47-8.967-3.235-13.269-5.286-7.867-3.686-14.444-6.206-19.264-6.793-2.325-.355-4.683-.445-7.029-.27v44.848c.344-.418.709-.819 1.093-1.2 3.559-3.608 10.246-6.914 18.858-9.158 8.642-2.319 19.253-3.153 30.834-4.656s24.01-4.932 36.956-8.825 25.4-7.521 37.066-9.244c10.308-1.58 20.746-2.139 31.164-1.667 7.013.326 13.994 1.141 20.894 2.438 2.436.477 4.321.881 5.588 1.211a10.57 10.57 0 0 1 1.918.544c-.666-.033-1.327-.125-1.976-.276-1.283-.244-3.179-.561-5.621-.959-6.9-1.089-13.86-1.757-20.842-2-10.349-.333-20.705.317-30.931 1.941-11.553 1.775-23.919 5.411-36.874 9.309s-25.48 7.336-37.18 8.772c-11.661 1.442-22.2 2.172-30.763 4.347-8.543 2.1-15.17 5.224-18.728 8.607a16.4 16.4 0 0 0-1.46 1.557v18.826l.678.35 4.874 2.6c6.021 3.083 12.202 5.846 18.515 8.277 20.865 8.017 43.039 12.086 65.391 12 26.258.309 49.035-7.8 66.228-9.38a76.35 76.35 0 0 1 20.372.166q1.749.317 3.151.568l2.272.594c.633.131 1.251.324 1.846.577-.644-.046-1.283-.149-1.909-.309l-2.285-.464-3.148-.441c-6.714-.754-13.496-.666-20.188.263-8.5 1-18.452 3.31-29.566 5.679-34.236 7.557-69.953 4.646-102.513-8.355-6.313-2.516-12.463-5.421-18.415-8.7l-4.761-2.829-.54-.335v16.302a42.04 42.04 0 0 1 5.457-.747c5.146-.42 12.699.195 21.618 2.555zm52.231-42.274c-7.206 3.594-14.102 7.78-20.616 12.514-1.309 1.009-2.38 2.289-2.263 3.673a3.61 3.61 0 0 0 2.371 2.907c2.421 1.138 4.82.609 6.733.43 1.494-.234 3.02-.17 4.489.188.511.136.988.377 1.4.708-.03.06-.494-.222-1.468-.443a12.4 12.4 0 0 0-4.355.071c-1.84.246-4.388.918-7.109-.261-1.563-.536-2.693-1.905-2.924-3.541-.171-1.855 1.183-3.412 2.522-4.481a138.22 138.22 0 0 1 20.663-12.886 142.3 142.3 0 0 1 27.9-10.439 140.72 140.72 0 0 1 53.769-3.369c3.427.516 6.534.931 9.212 1.585 2.688.592 5.014 1.039 6.863 1.633l4.271 1.268c.506.121.996.298 1.462.529-.521-.029-1.037-.118-1.537-.266l-4.325-1.015c-1.859-.516-4.191-.885-6.878-1.4-2.678-.579-5.776-.926-9.186-1.378-27.778-3.174-55.883 1.675-80.992 13.973zm19.972 17.588c-1.069.077-2.143.028-3.2-.147a5.9 5.9 0 0 1-4.256-2.827 3.91 3.91 0 0 1-.322-3.354 7.59 7.59 0 0 1 2.384-2.8c4.406-3.796 9.401-6.849 14.79-9.037 6.597-2.672 13.577-4.277 20.678-4.755 15.172-1.067 28.644 2.686 37.852 5.943 4.638 1.656 8.29 3.245 10.784 4.4 1.25.572 2.2 1.054 2.846 1.386s.97.529.948.574c-1.368-.392-2.705-.884-4-1.473-2.55-1-6.241-2.449-10.888-3.975-9.227-3.008-22.566-6.547-37.439-5.5a67.95 67.95 0 0 0-20.3 4.556c-5.298 2.092-10.238 4.996-14.641 8.609-.912.612-1.666 1.431-2.2 2.39a3.13 3.13 0 0 0 .19 2.667 5.39 5.39 0 0 0 3.7 2.671c2.628.531 4.2.356 4.189.512-.36.117-.737.171-1.115.16z"/></g><path d="M320.031 958.853c4.82.587 11.4 3.107 19.264 6.793 4.302 2.051 8.735 3.818 13.269 5.288a85.77 85.77 0 0 0 16.118 3.122c11.535 1.164 24.323.138 37.411-2.207 13.11-2.326 25.336-5.621 36.543-8.106a229.62 229.62 0 0 1 30.028-5.07c6.818-.627 13.677-.656 20.5-.086a113.44 113.44 0 0 1 4.405.464v-.341a54.7 54.7 0 0 0-4.349-.65 107.12 107.12 0 0 0-20.633-.345 217.52 217.52 0 0 0-30.221 4.8c-11.255 2.427-23.481 5.681-36.511 7.992-13.017 2.332-25.669 3.379-37.055 2.3a86.04 86.04 0 0 1-15.913-2.952 112.19 112.19 0 0 1-13.2-5.083c-7.914-3.578-14.669-6.01-19.588-6.439-2.359-.321-4.753-.28-7.1.119v.134a31.22 31.22 0 0 1 7.032.267zm-.372-56.858l6.517 1.255 7.994.948c2.883.315 5.981.315 9.238.386 7.071-.073 14.123-.757 21.076-2.045 6.931-1.393 13.728-3.384 20.315-5.949 3-1.274 5.871-2.429 8.43-3.794 2.617-1.24 4.951-2.6 7.065-3.857 2.157-1.186 3.956-2.509 5.582-3.589a44.32 44.32 0 0 0 4.038-2.963l2.285-1.851h-.527l-2.071 1.425c-1.108.8-2.477 1.76-4.146 2.755-1.654 1.013-3.474 2.267-5.642 3.392-2.127 1.194-4.463 2.49-7.078 3.673-2.552 1.306-5.416 2.41-8.391 3.641a129.1 129.1 0 0 1-20.119 5.779 129.2 129.2 0 0 1-20.829 2.129c-3.22-.037-6.286.007-9.143-.259-2.868-.123-5.517-.456-7.938-.773-2.431-.235-4.587-.723-6.5-1.047-1.92-.3-3.548-.682-4.872-1.015l-1.941-.443v.406l1.807.548a44.12 44.12 0 0 0 4.85 1.248zm134.595-13.684a69.94 69.94 0 0 0-19.512 4.453c-6.53 2.462-12.771 6.081-19.108 9.717s-12.555 7.158-18.981 9.506a71.65 71.65 0 0 1-19.273 3.84c-12.594.8-24.021-.376-33.628-.408a95.44 95.44 0 0 0-22.663 1.963c-1.306.33-2.477.579-3.468.879l-2.477.855a12.87 12.87 0 0 0-2.01.784 13.02 13.02 0 0 0 2.095-.523l2.5-.728c1-.257 2.168-.462 3.472-.747a101.47 101.47 0 0 1 22.533-1.522c9.564.153 20.97 1.436 33.73.7 6.694-.361 13.306-1.652 19.644-3.837 6.571-2.38 12.861-5.934 19.2-9.577s12.518-7.23 18.914-9.657a69.41 69.41 0 0 1 19.139-4.446 77.33 77.33 0 0 1 32.881 4.44c3.554 1.318 7.006 2.899 10.326 4.729v-.909a75.02 75.02 0 0 0-9.989-4.72 77.19 77.19 0 0 0-33.325-4.792zm29.214 26.342c-5.593-3.522-13.043-7.32-22.082-7.623-9.037-.361-18.515 3.114-27.6 7.551a207.49 207.49 0 0 0-24.885 14.2c-3.535 2.468-7.519 4.621-9.27 8.584-.862 1.957-.515 4.236.89 5.848a12.81 12.81 0 0 0 4.481 3 39.73 39.73 0 0 0 15.355 3.66c1.434.049 2.871.008 4.3-.121.502-.018.999-.099 1.481-.242-.009-.123-2.064.093-5.753-.164a41.39 41.39 0 0 1-14.971-4 11.98 11.98 0 0 1-4.092-2.8c-1.127-1.317-1.381-3.171-.65-4.742 1.509-3.4 5.332-5.543 8.923-7.968 7.946-5.209 16.224-9.893 24.781-14.021 9.031-4.414 18.273-7.806 26.975-7.523 8.7.214 16.02 3.8 21.609 7.184 4.422 2.792 8.664 5.861 12.7 9.188l1.915 1.535v-.538l-1.574-1.4a105.89 105.89 0 0 0-12.533-9.608zm-47.247 22.467l2.978.62 11.2 2.207 18.977 3.658 12.818 2.352 3.5.572a4.28 4.28 0 0 0 1.237.108c-.375-.182-.775-.309-1.186-.378l-3.449-.823-12.734-2.775-18.921-3.945-11.179-2.283c-1.838-.438-4.286-.557-4.779-1.924-.261-.641.106-1.367.805-1.965.733-.605 1.581-1.057 2.492-1.328 7.493-2.266 15.335-3.157 23.146-2.63a66.77 66.77 0 0 1 18.685 3.941c10.287 3.8 15.58 8.34 15.759 8.035.026-.039-.294-.32-.933-.821-.654-.479-1.563-1.276-2.872-2.1-3.638-2.427-7.534-4.446-11.615-6.018a65.46 65.46 0 0 0-42.572-1.712 8.48 8.48 0 0 0-2.984 1.607 4.14 4.14 0 0 0-1.116 1.455 2.65 2.65 0 0 0-.065 2 3.79 3.79 0 0 0 2.808 2.147zm-95.468 1.71a106.65 106.65 0 0 1 21.831 2.585c5.5 1.246 8.838 2.36 8.914 2.142-.7-.445-1.459-.787-2.255-1.018a61.74 61.74 0 0 0-6.426-2.054 89.83 89.83 0 0 0-44.155-.514c-2.319.574-4.217 1.129-5.66 1.622v.628l5.867-1.311a106.7 106.7 0 0 1 21.884-2.08zm-7.563 55.178c8.566-2.175 19.1-2.9 30.763-4.347 11.7-1.436 24.233-4.869 37.176-8.765s25.321-7.534 36.874-9.309c10.226-1.624 20.582-2.274 30.931-1.941a171.96 171.96 0 0 1 20.842 2l5.621.959c.649.151 1.31.243 1.976.276-.621-.241-1.263-.423-1.918-.544-1.268-.33-3.153-.734-5.588-1.211a151.14 151.14 0 0 0-20.894-2.438c-10.418-.472-20.856.087-31.164 1.667-11.665 1.723-24.122 5.347-37.066 9.244s-25.362 7.333-36.956 8.825-22.192 2.336-30.834 4.656c-8.612 2.244-15.3 5.549-18.858 9.158a16.13 16.13 0 0 0-1.093 1.2v.741a16.4 16.4 0 0 1 1.46-1.557c3.558-3.39 10.186-6.517 18.728-8.614zm18.275-44.63a73.5 73.5 0 0 0 10.918 5.5 79.21 79.21 0 0 0 39.733 5.012 81.06 81.06 0 0 0 21.387-6.012c6.282-2.624 11.885-5.04 16.822-6.344 3.871-1.116 7.885-1.659 11.913-1.611 2.855.063 4.416.423 4.44.3a3.65 3.65 0 0 0-1.112-.346c-1.087-.24-2.19-.401-3.3-.481-4.099-.254-8.212.154-12.181 1.209-10.192 2.222-22.572 10.117-38.146 11.939a81.62 81.62 0 0 1-39.206-4.561 89.12 89.12 0 0 1-11-5.062c-1.246-.819-2.555-1.538-3.915-2.149a28.17 28.17 0 0 0 3.647 2.606zm121.836 35.745l9.186 1.378 6.878 1.4 4.325 1.015a6.72 6.72 0 0 0 1.537.266c-.466-.231-.956-.408-1.462-.529l-4.271-1.268c-1.848-.594-4.174-1.041-6.863-1.633-2.678-.654-5.785-1.069-9.212-1.585a140.72 140.72 0 0 0-53.769 3.369 142.3 142.3 0 0 0-27.9 10.439 138.22 138.22 0 0 0-20.661 12.885c-1.339 1.069-2.693 2.626-2.522 4.481.231 1.636 1.361 3.005 2.924 3.541 2.721 1.179 5.269.507 7.109.261a12.4 12.4 0 0 1 4.355-.075c.974.22 1.438.5 1.468.443-.412-.331-.889-.572-1.4-.708-1.469-.358-2.995-.422-4.489-.188-1.913.179-4.312.708-6.733-.43-1.272-.449-2.186-1.571-2.371-2.907-.117-1.384.954-2.665 2.263-3.673a145 145 0 0 1 101.608-26.487zm-67.806 28.227a3.13 3.13 0 0 1-.19-2.667 6.96 6.96 0 0 1 2.2-2.39c4.405-3.614 9.346-6.519 14.645-8.61a67.95 67.95 0 0 1 20.3-4.556c14.874-1.052 28.212 2.488 37.439 5.5 4.647 1.527 8.337 2.973 10.888 3.975a28.87 28.87 0 0 0 4 1.473c.022-.045-.307-.24-.948-.574s-1.6-.814-2.846-1.386c-2.494-1.153-6.146-2.742-10.784-4.4-9.208-3.256-22.68-7.009-37.852-5.943-7.101.478-14.081 2.083-20.678 4.755-5.389 2.188-10.384 5.241-14.79 9.037a7.59 7.59 0 0 0-2.384 2.8 3.91 3.91 0 0 0 .322 3.354 5.9 5.9 0 0 0 4.256 2.827 13.63 13.63 0 0 0 3.2.147 3.31 3.31 0 0 0 1.1-.151c.013-.155-1.561.019-4.189-.512a5.39 5.39 0 0 1-3.689-2.679zm-87.192 13.062a163.93 163.93 0 0 0 18.415 8.7c32.56 13.001 68.277 15.912 102.513 8.355 11.114-2.369 21.063-4.675 29.566-5.679a81.04 81.04 0 0 1 20.188-.263l3.148.441 2.285.464c.626.16 1.265.263 1.909.309a9.78 9.78 0 0 0-1.846-.577l-2.272-.594q-1.4-.253-3.151-.568c-6.753-.965-13.604-1.021-20.372-.166-17.193 1.578-39.97 9.689-66.228 9.38-22.352.086-44.526-3.983-65.391-12-6.313-2.428-12.493-5.188-18.514-8.268l-4.874-2.6-.678-.35v.25l.54.335 4.762 2.831zm142.988-1.419a95.89 95.89 0 0 1-16.8-1.08 65.84 65.84 0 0 1-13.248-3.531c-7.312-2.853-11.132-6.025-11.281-5.792-.028.037.19.253.637.63a22.82 22.82 0 0 0 2.03 1.55 45.25 45.25 0 0 0 8.251 4.5c4.307 1.791 8.802 3.092 13.4 3.876 5.624.935 11.323 1.337 17.022 1.2 12.108-.255 22.915-1.79 30.763-2.572l5.5-.663v-.708l-5.589.41c-7.866.548-18.709 1.929-30.685 2.18zm-121.459 17.308c8.849 2.326 19.044 6.407 30.918 9.251a170.92 170.92 0 0 0 39.286 4.764c28.368.693 52.747-9.3 71.1-8.681a59.36 59.36 0 0 1 16.429 2.3v-.693a58.22 58.22 0 0 0-16.416-2.568c-18.7-.829-43.037 9-71.111 8.283a173.87 173.87 0 0 1-39-4.621c-11.779-2.751-22.015-6.733-30.963-8.964-8.918-2.36-16.472-2.976-21.62-2.557a41.98 41.98 0 0 0-5.457.747v.3a53.29 53.29 0 0 1 5.485-.516c5.104-.258 12.528.493 21.349 2.955zm-5.454 29.02a86.86 86.86 0 0 1 31.516-7.026c12.246-.538 25.677 1.253 39.761 3.019 7.05.864 13.965 1.6 20.683 1.883a140.84 140.84 0 0 0 19.359-.533c12.244-1.136 23.311-2.222 32.473-.782a45.82 45.82 0 0 1 19.4 7.135v-.693c-5.768-3.905-12.354-6.434-19.253-7.394-9.3-1.585-20.512-.579-32.721.484-6.383.583-12.797.734-19.2.451-6.66-.294-13.535-1.039-20.575-1.9-14.064-1.762-27.59-3.533-39.981-2.922a86.27 86.27 0 0 0-31.847 7.4 84.52 84.52 0 0 0-18.832 11.514c-.812.659-1.516 1.257-2.159 1.816v.551l2.488-1.95a89.34 89.34 0 0 1 18.888-11.053zm70.586 11.604a133.55 133.55 0 0 0-26.172-3.116 71.1 71.1 0 0 0-21.32 3.055c-4.519 1.398-8.814 3.438-12.753 6.057h1.049a54.21 54.21 0 0 1 11.985-5.137 72.7 72.7 0 0 1 21.029-2.72 138.14 138.14 0 0 1 25.908 3.2l21.836 4.662h6.763l-2.66-.473c-7.904-1.511-16.516-3.66-25.665-5.528z" fill="#ebebeb"/><g fill="#e0e0e0"><path d="M313 947.196h133.569v2.613H313zm0 68.753h133.587v2.611H313z"/><path d="M366.766 948.504h28.212v5.983h-28.212zm0-67.968h28.212v5.985h-28.212zm0 136.358h28.212v5.985h-28.212z"/></g><path d="M446.568 880.536h51.002v208.497h-51.002zm-133.567-85.844h18.018v85.844h-18.018zm27.164 8.739h12.56v77.105h-12.56z" fill="#ebebeb"/><path fill="#e0e0e0" d="M331.019 803.431h9.146v77.105h-9.146z"/><path fill="#f5f5f5" d="M352.725 812.283h9.283v68.253h-9.283z"/><path d="M362.008 788.916h19.657v91.62h-19.657zm33.526 51.15l-1.853 7.724 1.853 2.781v4.632l-1.853 4.325 1.853 1.546v10.814l-1.853 1.235 1.853 1.546v5.867h99.174v-7.1l-1.855-3.4 1.855-15.45-1.546-7.413s-1.544-3.09-1.544-4.019.309-3.088.309-3.088z" fill="#ebebeb"/><g opacity=".24"><path d="M446.568 880.536l-2.376-11.2 2.376-4.612V860.3l-2.378-2.315 2.376-3.549v-14.371h45.358l-.309 3.089 1.545 4.017 1.546 7.415-1.854 15.449 1.854 3.4v7.1z" fill="#e0e0e0"/></g><path d="M352.414 945.335c-4.573-4.48-10.483-9.894-17.474-7.962-6.578 1.817-9.1 9-10.273 14.98-1.518 7.71-2.7 15.495-3.923 23.255q-1.855 11.758-3.527 23.543-.954 6.649-1.885 13.3-.464 3.327-.925 6.653c-.3 2.176-.665 4.348-.785 6.543-.038.7 1.06.8 1.212.134.848-3.7 1.2-7.544 1.742-11.3q.819-5.663 1.644-11.325 1.644-11.247 3.36-22.485 1.694-11.245 3.495-22.474c1.015-6.348 1.493-14.236 7.122-18.424 3.087-2.3 7.026-2.322 10.525-.987 3.7 1.414 6.663 4.065 9.56 6.688a.1.1 0 0 0 .132-.139z" fill="#263238"/><path d="M346.156 940.758s-9.348-3.366-13.961 3.457.9 24.174 43.463 33.963a120.19 120.19 0 0 0-10.241-38.474c-9.124-19.898-25.382-12.362-19.261 1.054z" fill="#ffc727"/><path d="M373.21 975.338c-.643-1.193-1.358-2.345-2.141-3.451q-1.067-1.646-2.158-3.276l-1.665-2.437c.041-.2.052-.4.078-.61l.147-1.1.338-2.39.4-2.374a12.66 12.66 0 0 1 .557-2.508c.054-.123-.17-.186-.186-.039a9.23 9.23 0 0 1-.38 1.409l-.286 1.075q-.309 1.21-.585 2.431l-.438 2.26-.164 1.091-2.331-3.206c-2.26-2.977-4.65-5.842-7.123-8.637.01-.028.036-.044.038-.077.221-4.472.113-8.9 1.106-13.3.026-.12-.154-.186-.181-.065-.93 4.126-1.858 8.46-1.591 12.723q-1.33-1.487-2.691-2.951-3.109-3.342-6.341-6.57c-.087-.087-.225.041-.141.131 3.586 3.861 6.993 7.882 10.311 11.977a73.25 73.25 0 0 0-7.781.287c-2.885.213-5.753.582-8.618.978-.122.017-.086.208.036.189 2.853-.41 5.726-.667 8.607-.771 2.776-.115 5.538.01 8.312 0q2.689 3.335 5.313 6.72c-.125 0-.255 0-.4-.007l-1.956-.012c-1.293.022-2.589.113-3.877.222-2.643.215-5.269.608-7.859 1.176a.1.1 0 0 0 .036.189c2.615-.295 5.237-.54 7.866-.633 1.255-.044 2.509-.044 3.765-.044h1.958c.361.046.728.012 1.074-.1l3.425 4.466q1.354 1.783 2.669 3.6c.894 1.237 1.7 2.586 2.7 3.743.076.087.203-.013.157-.109zm-22.983-24.913a28.4 28.4 0 0 0-4.553-.222l-4.556.1a.1.1 0 1 0 .012.19l4.621-.113 4.47.123c.022.002.04-.014.042-.036s-.014-.04-.036-.042zm13.359 3.43l.666-4.345a.1.1 0 1 0-.186-.039l-.708 4.284q-.159 1.073-.292 2.152c-.127.669-.185 1.348-.174 2.029.013.056.06.098.118.102s.111-.029.132-.083a12.58 12.58 0 0 0 .221-2.026q.096-1.038.223-2.074zm-2.801-16.106l-1 4.287-.343 2.2c-.135.708-.184 1.43-.144 2.15.006.025.027.043.053.045s.05-.013.059-.036a12.19 12.19 0 0 0 .335-2.051q.141-1.06.325-2.116l.9-4.414c.027-.119-.153-.189-.185-.065zm-55.421 86.324q-.353-4.019-.778-8.032-.84-7.955-1.919-15.878l-2.232-15.8a39.41 39.41 0 0 0-1.624-7.171 6.8 6.8 0 0 0-3.972-4.482c-5.007-1.73-8.386 3.463-10.408 7.136-.061.11.1.193.168.093 1.21-1.739 4.557-6.625 8.356-6.4 2.556.154 4.6 1.964 5.827 8.337 3.058 15.881 5.813 48.109 6.135 50.216.171 1.118.961 1.07.967-.128.016-2.629-.29-5.267-.52-7.891z" fill="#263238"/><path d="M285.782 977.876s4.376-15.454-5.3-7.727c-16.107 12.863-16.678 40.846-16.678 40.846s28.631-16.63 32.191-27.6c5.304-16.338-10.213-5.519-10.213-5.519z" fill="#ffc727"/><path d="M291.2 985.463l-6.794 1.08q-1.609.231-3.222.453l-2.19.258 6.328-8.862c.08-.116-.1-.235-.192-.141a66.37 66.37 0 0 0-4.784 5.521l-1.27-3.586-1.361-4.187c-.03-.12-.218-.064-.184.055l1.046 4.283a47.82 47.82 0 0 0 1.268 4.06l-3.032 4.165-1.536-4.165a.1.1 0 0 0-.184.055c.512 1.569.79 3.2 1.271 4.778l-1.942 2.89-3.312 5.437c-.168.075-.269.249-.251.432-1.808 3.129-3.53 6.3-5.226 9.508a.1.1 0 0 0 .167.093c1.7-3.164 3.591-6.244 5.557-9.27h.02a4.3 4.3 0 0 1 .936-.181l.99-.215c.74-.161 1.473-.353 2.209-.536 1.451-.36 2.888-.7 4.363-.956.122-.022.067-.208-.055-.184-1.733.329-3.472.527-5.223.73l-2.473.332-.119.017q1.544-2.347 3.131-4.652l3.183-4.486c.993-.139 1.977-.4 2.962-.589q1.661-.318 3.322-.646l6.653-1.3c.119-.028.067-.217-.056-.191zm-17.206 1.522l-.386-1.229c-.266-.851-.485-1.717-.657-2.592-.025-.12-.209-.065-.184.057l.592 2.611a16.91 16.91 0 0 0 .745 2.57c.033.084.125.128.212.102s.139-.114.12-.202c-.125-.444-.299-.878-.442-1.317zm20.136-5.101l-3.938.4-3.935.5c-.073.01-.074.12 0 .115l3.939-.364 3.936-.457c.127-.007.117-.207-.002-.194zm32.304 22.624c-.508-11.38-1.231-22.739-2.374-34.074-.569-5.644-1.206-11.284-2-16.9a120.79 120.79 0 0 0-3.26-16.36c-1.171-4.1-2.71-8.207-5.446-11.534-2.592-3.391-6.751-5.206-11-4.8-4.981.615-8.99 3.753-12.459 7.162-3.891 3.824-7.454 8-11.059 12.09q-1.367 1.552-2.713 3.125c-.08.093.058.226.139.132 3.524-4.048 7.184-7.981 11.016-11.742 3.54-3.476 7.186-7.274 12.09-8.71a12.46 12.46 0 0 1 7.025-.165 11.14 11.14 0 0 1 4.8 3.039c2.759 2.871 4.311 6.76 5.412 10.524 3.059 10.459 4.155 21.427 5.292 32.228 1.155 10.974 1.935 21.978 2.486 33 .554 11.078.987 22.17 2.054 33.215.132 1.364.309 2.723.482 4.081.118.914 1.536.916 1.46-.036-.909-11.423-1.434-22.84-1.945-34.275z" fill="#263238"/><path d="M289.266 929.231s6.5-12.026-1.18-15.884-33.374 24.827-40.884 66.772c0 0 41.5-18.363 55.6-36.662s-1.89-22.326-13.536-14.226z" fill="#ffc727"/><path d="M295.368 939.012c-4.665.01-9.316-.354-13.982-.321l2.628-3a43.77 43.77 0 0 0 3.646-4.237c.065-.1-.074-.234-.168-.16a34 34 0 0 0-3.53 3.54q-1.753 1.861-3.488 3.739l-5.273 5.855-.007-.566v-2.45l.049-4.746c.03-3.206.023-6.431.245-9.631.009-.123-.183-.118-.192 0l-.714 9.643a127.4 127.4 0 0 0-.135 4.749l-.017 2.45c0 .446-.013.916.02 1.374l-.824.914c-3.723 4.255-7.261 8.654-10.708 13.132 0-.247-.038-.5-.061-.743l-.163-1.48a85.63 85.63 0 0 0-.427-3.2q-.226-1.5-.478-3c-.189-1.12-.463-2.257-.549-3.39a.1.1 0 1 0-.187.03 29.88 29.88 0 0 1 .39 3.415q.144 1.539.284 3.08l.29 3.081.148 1.48c.026.247.057.493.09.739.023.208.091.409.2.588l-1.774 2.318-6.975 9.411c-.071.1.064.231.139.132 2.189-2.853 4.44-5.656 6.721-8.432 1.708.073 3.45-.054 5.157-.081l5.4-.045a.1.1 0 0 0 0-.192l-5.4.065c-1.64.006-3.315-.074-4.956.015q3.009-3.66 6.068-7.28l2.229-2.643a10.18 10.18 0 0 0 2.083.07q1.228 0 2.454 0l4.6-.064 9.505-.163a.1.1 0 0 0 0-.192l-9.515-.255-4.6-.11-2.454-.028c-.466-.006-.946-.038-1.418-.02q2.61-3.1 5.228-6.2c.045-.026.08-.065.1-.113l5.122-6 .711-.813c4.836.151 9.665-.167 14.5-.073.115.002.111-.194-.012-.192zm-2.386 8.246l-1.131.01c-.11 0-.106.171 0 .173l1.131.009c.127.001.123-.193 0-.192zm-2.513.013q-2.242-.03-4.483-.094-1.119-.03-2.241-.071a8.35 8.35 0 0 0-2.086.025c-.073.017-.06.12 0 .139.687.14 1.389.19 2.089.148q1.121.02 2.241.032 2.24.022 4.48.014a.1.1 0 0 0 0-.193zm-13.048 14.008a62.23 62.23 0 0 0-9.178-.827c-.045 0-.041.062 0 .067l9.131.948c.123.019.172-.171.047-.188zm-12.476-13.357l-.1-.8-.267-1.8q-.27-1.709-.6-3.409c-.02-.106-.2-.078-.189.03q.216 1.757.379 3.522l.149 1.734a4.85 4.85 0 0 0 .234 1.644c.087.178.356.106.4-.062a2.24 2.24 0 0 0-.006-.859zm61.08-34.137c-1.486-2.765-3.376-6.418-7.084-6.186-3.062.192-4.441 3.315-5.1 5.9-2.022 7.987-2.164 16.413-2.557 24.6-.833 17.3-1.581 34.618-1.691 51.94q-.044 7.2.032 14.4c.045 4.9.032 9.821.343 14.71a.36.36 0 0 0 .369.335.36.36 0 0 0 .352-.352c.026-4.189-.122-8.38-.139-12.569q-.024-6.133.081-12.263.2-12.418.663-24.83l1.015-24.667q.261-6.163.533-12.327c.18-3.981.353-7.965.807-11.926.255-2.218.583-4.437 1.046-6.621a9.21 9.21 0 0 1 1.914-4.437c1.463-1.441 3.756-1.607 5.412-.392a11.47 11.47 0 0 1 3.836 4.787c.06.11.226.008.168-.102z" fill="#263238"/><path d="M325.02 912.466s-3.048-10.766 3.692-5.383c11.219 8.957 11.617 28.457 11.617 28.457s-19.943-11.585-22.424-19.225c-3.694-11.386 7.115-3.849 7.115-3.849z" fill="#ffc727"/><path d="M336.135 927.544l-.567-.882a5.53 5.53 0 0 0 0-.917v-1.39q.033-1.363.1-2.727c.006-.123-.186-.118-.192 0q-.07 1.339-.107 2.676l-.048 1.34-.038.575-2.418-3.6-.74-1.016c-.119-1.169-.139-2.345-.06-3.517l.075-3.752c0-.123-.189-.119-.192 0l-.167 3.9a25.13 25.13 0 0 0-.077 2.785l-6.038-7.655c-.07-.084-.216.033-.148.119l3.711 4.967c-2.347-.547-4.733-.862-7.118-1.206-.122-.019-.17.167-.046.186 2.524.382 5 1.015 7.493 1.565.02 0 .032-.009.049-.009q1.435 2.018 2.839 4.054l1.132 1.666-.107-.013-.776-.106-1.659-.154-3.453-.213c-.123-.006-.119.19 0 .193l3.389.234 1.784.215.779.093.228.032q.958 1.415 1.919 2.826l3.332 5.058c.028.043.085.055.127.027s.055-.085.028-.127a51.9 51.9 0 0 0-3.034-5.227zm-4.969-12.159l.009-1.257a19.03 19.03 0 0 1 .106-2.637c.019-.139-.19-.16-.19-.022 0 .872-.1 1.743-.136 2.614l-.023 1.308v.6a1.84 1.84 0 0 0 .046.626c.011.037.045.063.084.063s.073-.025.084-.063a1.83 1.83 0 0 0 .026-.578l-.005-.654zm-2.465 4.458c-.742-.126-1.5-.165-2.25-.228l-2.463-.248a.1.1 0 1 0-.022.189l4.718.438c.038-.002.068-.031.073-.068s-.019-.072-.056-.083zm6.267.066c.058.081.019.316.019.414v.348.752l-.006.753a1.56 1.56 0 0 0 .036.657c.008.013.022.021.037.021s.029-.008.037-.021a.65.65 0 0 0 .038-.312v-.347l-.006-.753v-.753-.347c0-.106-.041-.328.022-.415.11-.175-.306-.178-.177.003zm-8.48 51.321c-4.2-3.148-7.964-7.673-13.605-7.9-4.656-.183-7.919 3.322-9.785 7.226a40.76 40.76 0 0 0-2.283 6.431q-1.263 4.419-2.376 8.879c-1.462 5.849-2.718 11.753-3.734 17.7-.567 3.312-1.1 6.637-1.515 9.972a84.34 84.34 0 0 0-.98 10.209.53.53 0 0 0 .472.501.53.53 0 0 0 .57-.386c.567-2.79.806-5.669 1.216-8.486l1.322-8.492q1.439-8.473 3.341-16.866c1.2-5.276 2.385-10.634 4.087-15.775 1.221-3.684 3.178-7.983 7.157-9.308 6.054-2.014 11.55 3.109 15.98 6.434.099.074.232-.069.133-.139z" fill="#263238"/><path d="M322.146 968.218s-3.865-11.041 1.727-13.2c8.38-3.245 30.316 21.461 26.023 59.316 0 0-16.949-9.337-29.464-19.84s-15.717-24.222-10.2-27.769 11.914 1.493 11.914 1.493z" fill="#ffc727"/><path d="M347.362 1006.215a29.04 29.04 0 0 0-2.038-3.817l-2.189-3.865-4.395-7.459-.736-1.2.093-.443.248-1.1.485-2.477 1.022-4.852c.032-.118-.164-.155-.19-.033-.345 1.618-.856 3.212-1.335 4.8l-.692 2.345-.212.811c-1.8-2.954-3.636-5.894-5.611-8.734a3.97 3.97 0 0 0 .2-1.213l.192-1.66.473-3.732c.32-2.438.763-4.859 1.328-7.252.03-.12-.158-.152-.189-.033-.6 2.383-1.261 4.768-1.713 7.184-.222 1.186-.433 2.376-.591 3.57a45.84 45.84 0 0 0-.2 1.8c-.019.177-.046.36-.07.543l-1.852-2.553c-1.936-2.547-3.942-5.033-5.967-7.511-.077-.094-.235.015-.157.112 3.467 4.434 6.651 9.083 9.531 13.919l1.647 2.676-.544-.068c-.708-.09-1.427-.135-2.138-.2q-2.138-.2-4.28-.37l-8.566-.708c-.122-.013-.157.176-.033.189 2.887.331 5.759.794 8.634 1.2q2.12.3 4.245.572a16.84 16.84 0 0 0 3.268.335q1.681 2.732 3.366 5.464a6.3 6.3 0 0 0-.758-.029c-.476-.007-.952 0-1.427 0q-1.328 0-2.653 0l-5.517.035c-.123 0-.1.19.019.192 1.864.023 3.721.118 5.582.215q1.324.067 2.646.16l1.322.094a2.73 2.73 0 0 0 1.164-.045l2.864 4.649q1.315 2.149 2.671 4.273a34.16 34.16 0 0 0 2.874 4.315c.069.084.224.021.179-.099zm-8.075-30.596a26.78 26.78 0 0 1-.758 3.6q-.468 1.84-1.067 3.643a.12.12 0 1 0 .228.073q.564-1.787 1.006-3.611l.781-3.669c.029-.122-.176-.156-.19-.036zm-12.452 7.397a1.41 1.41 0 0 0-.925-.344l-1.6-.219-2.98-.361-6.2-.7c-.122-.016-.157.174-.033.189l5.832.788 2.861.372 1.377.154c.535.003 1.067.094 1.572.27.096.038.165-.085.096-.149zm12.423 16.644l-2.935-.144-1.48-.045-.71-.023c-.309.015-.619-.003-.925-.054-.135-.035-.149.213-.007.19a4.13 4.13 0 0 1 .866.028l.768.046 1.479.089 2.935.123a.11.11 0 0 0 .009-.21zm5.975-4.235l.319-1.665.6-3.273a.1.1 0 0 0-.19-.033l-.718 3.189-.35 1.6-.152.737a2.05 2.05 0 0 0-.089.782c.017.088.15.161.212.067.207-.442.332-.917.368-1.404z" fill="#263238"/><g fill="#e0e0e0"><path d="M336.988 1028.052l-.941 15.645-2.786 46.191h-47.362l-2.785-46.191-.941-15.645z"/><path d="M336.988 1028.052l-.941 15.645h-52.934l-.941-15.645z"/></g><path fill="#ebebeb" d="M277.801 1016.982h63.562v15.656h-63.562z"/></svg>