<svg xmlns="http://www.w3.org/2000/svg" width="726.766" height="570.101" viewBox="0 0 726.766 570.101">
  <g id="Group_5506" data-name="Group 5506" transform="translate(-1572.451 -9822.5)">
    <g id="drawing" transform="translate(1417.261 9718.242)">
      <path id="Path_45586" data-name="Path 45586" d="M274.315,541.918a39.961,39.961,0,0,1-2.93-7.9,34.081,34.081,0,0,1-1.141-8.228,22.984,22.984,0,0,1,1.466-8.116,19.18,19.18,0,0,1,4.606-6.606,18.63,18.63,0,0,0-3.6,6.938,21.4,21.4,0,0,0-.354,7.644,31.438,31.438,0,0,0,2.05,7.371,36.577,36.577,0,0,0,3.525,6.67ZM470.963,325.75c-25.368,38.444-48.946,79.687-53.273,87.3a152.808,152.808,0,0,1-7.573-29.938s-.149.261-.429.746a38.689,38.689,0,0,1-.522-4.365c-.205-2.2-.28-4.421-.28-6.622a130.36,130.36,0,0,1,.746-13.225,83.216,83.216,0,0,0,.41-13.468,40.647,40.647,0,0,0-2.537-13.169,37.289,37.289,0,0,1,.914,6.585,65.431,65.431,0,0,1,.205,6.622q-.112,6.631-.839,13.225a79.288,79.288,0,0,0-.336,13.468,45.64,45.64,0,0,0,2,11.322,178.316,178.316,0,0,1-22.216,28.483,103.074,103.074,0,0,1-25.406,19.4c-16.788,9.178-45.961,25.126-52.341,28.633a28.372,28.372,0,0,0,.783-6.827c0-8.357,4.887-18.317,7.107-26.264v-.019l11.733,2.2c7.48.037,14.979.093,22.514-.522-7.014-2.761-14.009-5.279-20.985-7.853l-12.367-2.313a6.113,6.113,0,0,0-2.873-4.178c-5.783-3.563-10-3.563-12.871,1.212l-4.551-.876c-3.04-15.053-9.457-20.089-13.9-21.75a10.862,10.862,0,0,0-4.7-.783s.056-.037.149-.112c2.723-2.127,44.264-34.788,66.928-69.875,23.447-36.318,47.267-58.627,72.6-59.205,0,0,26.264-.187,39.116.933C461.879,270.705,467.139,309.615,470.963,325.75Zm4.477,144.991a15.409,15.409,0,0,0,1.6.373h-34Zm30.33-193.172c.933-5.465,1.13-4.739,6.047-11.621,0,0,3.839-7.517,14.881-8.636C520.954,260.744,513.735,267.982,505.77,277.569ZM656.189,471.115H483.834c24.193-4.57,53.441-54.244,77.168-104.159a102.649,102.649,0,0,0,1.119,12.181c.56,4.085,1.585,8.1,2.35,12.05a118.371,118.371,0,0,1,1.474,12.032,81.914,81.914,0,0,1-.131,12.105,50.725,50.725,0,0,1-2.276,11.789l-.019.056-.019.093a58.865,58.865,0,0,0-.5,10.39,63.373,63.373,0,0,0,1.231,10.277,45.527,45.527,0,0,0,3.19,9.83,39.669,39.669,0,0,0,5.409,8.73,43.054,43.054,0,0,1-4.887-8.954,49.888,49.888,0,0,1-2.723-9.793,62.258,62.258,0,0,1-.149-20.146c-.019.037-.019.056-.037.093l.037-.149a53,53,0,0,0,2.462-12.05,85.817,85.817,0,0,0,.242-12.385,96.554,96.554,0,0,0-1.567-12.255c-.821-4.066-1.847-7.984-2.444-11.976a129.525,129.525,0,0,1-1.436-14.755c24.51-52.042,42.772-103.469,42.772-103.469,12.815,3.6,23.466,9.495,29.155,18.8a62.144,62.144,0,0,0,3.525,5.2C646.228,295.607,672.231,328.194,656.189,471.115Z" transform="translate(99.559 132.441)" fill="#fff"/>
      <path id="Path_45587" data-name="Path 45587" d="M409.781,374.514c-1.707-6.085-2.971-12.273-4.324-18.431L401.7,337.567l-1.982-9.209c-.674-3.055-1.365-6.117-2.225-9.063-.212-.738-.417-1.483-.678-2.167a12.583,12.583,0,0,0-.783-1.949,15.172,15.172,0,0,0-2.442-3.438,14.432,14.432,0,0,0-3.225-2.635,11.7,11.7,0,0,0-1.833-.867,8.1,8.1,0,0,0-1.749-.447l.936-.184a28.573,28.573,0,0,1-7.072,2.178,22.067,22.067,0,0,1-7.505.026,14.322,14.322,0,0,1-7.025-3.291,26.627,26.627,0,0,1-4.643-5.721,93.1,93.1,0,0,1-6.35-12.484c-1.836-4.257-3.5-8.552-5.007-12.939l1.085.717a11.185,11.185,0,0,1-5.414-.976,5.319,5.319,0,0,1-2.19-2.044,6.34,6.34,0,0,1-.8-2.787,13.9,13.9,0,0,1,.861-5.252,25.681,25.681,0,0,1,2.167-4.716,14.28,14.28,0,0,0,2.488-9.121,12.5,12.5,0,0,0-1.329-4.577c-.766-1.413-1.637-2.943-2.336-4.48a29.258,29.258,0,0,1-1.787-4.806,46.534,46.534,0,0,1-1.228-4.951c-.393-1.66-.528-3.362-.8-5.046-.123-1.7-.3-3.4-.272-5.112a49.5,49.5,0,0,1,.97-10.212,41.461,41.461,0,0,1,3.223-9.9,1.313,1.313,0,0,1,2.363.006l.066.136a84.925,84.925,0,0,0,10.47,16.348,66.735,66.735,0,0,0,14.1,13.1,46.431,46.431,0,0,0,8.365,4.559A41.281,41.281,0,0,0,389.176,239a48.141,48.141,0,0,0,18.839-.452l.122-.025a2.115,2.115,0,0,1,2.055.735,17.766,17.766,0,0,1,2,3.066,27.169,27.169,0,0,1,1.425,3.077,40.959,40.959,0,0,1,1.938,6.356,58.273,58.273,0,0,1,1.155,12.98,78.786,78.786,0,0,1-1.268,12.8c-.39,2.162-.63,4.061-.941,6.075a28.491,28.491,0,0,0-.195,2.99,19.6,19.6,0,0,0-.022,2.985A25.883,25.883,0,0,0,417.1,300.9a19.28,19.28,0,0,0,8,8.13,22.536,22.536,0,0,0,11.491,2.466,40.554,40.554,0,0,0,11.9-2.578l.076-.028a.728.728,0,0,1,.965.814c-.869,4.787-1.721,9.571-2.642,14.338a.213.213,0,0,1-.249.169.222.222,0,0,1-.171-.239c.484-4.834,1.037-9.649,1.574-14.462l1.041.786a38.639,38.639,0,0,1-12.36,3.435,25.086,25.086,0,0,1-12.9-2.136,21.427,21.427,0,0,1-9.685-9.072,29.426,29.426,0,0,1-3.609-12.721,22.459,22.459,0,0,1-.079-3.284,32.06,32.06,0,0,1,.115-3.275c.253-2.133.493-4.394.785-6.362a85.827,85.827,0,0,0,.978-12.182,53.85,53.85,0,0,0-1.224-11.968,37.9,37.9,0,0,0-1.712-5.642,22.777,22.777,0,0,0-1.2-2.619,14.7,14.7,0,0,0-1.391-2.205l2.177.71a50.167,50.167,0,0,1-20.623.238,45.494,45.494,0,0,1-9.876-3.158,50.463,50.463,0,0,1-8.969-5.087,66.416,66.416,0,0,1-14.57-14.212A79.317,79.317,0,0,1,344.685,203.3l2.428.142a43.767,43.767,0,0,0-4.686,18.8,42.69,42.69,0,0,0,.725,9.846,45.031,45.031,0,0,0,1.124,4.827,27.832,27.832,0,0,0,1.647,4.639c.67,1.527,1.443,2.926,2.252,4.472a14.919,14.919,0,0,1,1.423,5.042,15.628,15.628,0,0,1-2.58,9.963,18.027,18.027,0,0,0-2.535,9.106,3.714,3.714,0,0,0,2.17,3.247,9.282,9.282,0,0,0,4.425.528,1.055,1.055,0,0,1,1.062.658l.023.059c1.686,4.218,3.549,8.406,5.541,12.491a90.121,90.121,0,0,0,6.68,11.744,23.629,23.629,0,0,0,4.1,4.845,11.388,11.388,0,0,0,5.329,2.372,22.686,22.686,0,0,0,12.262-1.866l.163-.069a1.576,1.576,0,0,1,.774-.115,11,11,0,0,1,2.82.7,15.4,15.4,0,0,1,2.417,1.178,18.09,18.09,0,0,1,4.029,3.362,17.777,17.777,0,0,1,2.938,4.283,15.684,15.684,0,0,1,.925,2.448c.277.8.47,1.577.673,2.359,1.611,6.239,2.619,12.448,3.631,18.688l2.87,18.691c.874,6.24,1.819,12.459,2.878,18.666a.213.213,0,0,1-.171.248.217.217,0,0,1-.243-.152Z" transform="translate(160.403 84.043)" fill="#fbd206"/>
      <path id="Path_45588" data-name="Path 45588" d="M345.643,294.394c-.457,3.38-.854,6.746-1.232,10.1-.353,3.36-.661,6.716-.769,10.07a53.794,53.794,0,0,0,.423,9.985,19.8,19.8,0,0,0,1.3,4.763,9.4,9.4,0,0,0,2.945,3.965,8.867,8.867,0,0,1-3.7-3.581,17.5,17.5,0,0,1-1.865-4.885,40.158,40.158,0,0,1-.825-10.307,73.007,73.007,0,0,1,3.721-20.112Zm-1.025-71.613a6.533,6.533,0,0,1-.593-5.092l.345-1.27.544-1.178c.188-.391.365-.794.576-1.172l.726-1.063a28.62,28.62,0,0,1,3.263-3.963c1.218-1.183,2.515-2.273,3.786-3.406a103.992,103.992,0,0,1,17.159-10.532c3.017-1.432,6.067-2.8,9.116-4.164,3.083-1.266,6.186-2.488,9.3-3.689,3.117-1.141,6.282-2.126,9.429-3.171,1.592-.479,3.127-1.023,4.829-1.493a48.625,48.625,0,0,1,5.009-1.066,49.824,49.824,0,0,1,20.147.82,42.038,42.038,0,0,1,17.685,9.37,55.458,55.458,0,0,1,12.125,16.063A86.2,86.2,0,0,1,465,226.723l.031.178a97.647,97.647,0,0,0,8.575,25.962,87.807,87.807,0,0,0,6.931,11.77c1.249,1.906,2.69,3.658,4.1,5.443,1.429,1.762,3.03,3.375,4.575,5.034l5.059,4.686,2.652,2.47c.9.8,1.642,1.778,2.469,2.658A47.509,47.509,0,0,1,507.348,297a41.862,41.862,0,0,1,2.967,27.99.212.212,0,0,1-.415-.083l0-.024a40.874,40.874,0,0,0-.547-13.765,43.046,43.046,0,0,0-4.672-12.782,25.938,25.938,0,0,0-1.741-2.914c-.64-.935-1.217-1.907-1.9-2.807a52.21,52.21,0,0,0-4.438-5.126c-.808-.793-1.516-1.678-2.4-2.394l-2.577-2.218-5.405-4.68A77.918,77.918,0,0,1,469.6,254.788a101.267,101.267,0,0,1-5.1-13.4,87.508,87.508,0,0,1-3.131-14.037l.031.177a99.269,99.269,0,0,0-5.654-18.652,49.326,49.326,0,0,0-10.8-16.088,38.971,38.971,0,0,0-7.889-5.7,35.107,35.107,0,0,0-9.143-3.326,44.085,44.085,0,0,0-19.281.459,45.677,45.677,0,0,0-4.625,1.33c-1.46.514-3.009,1.182-4.552,1.769l-9.292,3.477c-3.051,1.229-6.108,2.437-9.185,3.6l-9.044,3.888a127.594,127.594,0,0,0-17.179,9.348c-1.279.975-2.6,1.919-3.845,2.945a30.014,30.014,0,0,0-3.383,3.4l-.774.917c-.225.323-.41.668-.625,1l-.626,1.011-.435,1.087a6.069,6.069,0,0,0-.106,4.543l.02.044a.21.21,0,0,1-.368.2Zm5.263,41.105a40.911,40.911,0,0,1,9.549-5.1,36.1,36.1,0,0,1,5.215-1.566,13.453,13.453,0,0,1,5.467-.252,33.985,33.985,0,0,0-5.1,1.544l-4.969,1.881C356.717,261.641,353.4,262.931,349.882,263.887Zm9.309,11.892A2.584,2.584,0,1,0,356.7,273.2a2.584,2.584,0,0,0,2.495,2.583Zm-4.165,31.289a36.4,36.4,0,0,0,7.613-.609c1.23-.24,2.457-.514,3.688-.852,1.239-.32,2.461-.72,3.787-1.028a14.3,14.3,0,0,1-7.162,3.572,14.516,14.516,0,0,1-4.072.147A9.08,9.08,0,0,1,355.025,307.067Z" transform="translate(161.541 66.287)" fill="#fbd206"/>
      <path id="Path_45589" data-name="Path 45589" d="M428.317,348.572v.056c-.019.037-.019.056-.037.093Z" transform="translate(236.31 211.409)" fill="#fbd206"/>
      <path id="Path_45590" data-name="Path 45590" d="M375.478,325.208a129.464,129.464,0,0,1,8.527-16.434c3.133-5.293,6.544-10.4,10.118-15.386s7.349-9.836,11.39-14.481a110.9,110.9,0,0,1,13.051-13.157c-3,5.457-6.216,10.655-9.559,15.78-3.309,5.146-6.776,10.169-10.341,15.126s-7.237,9.837-11.086,14.6C383.758,316.041,379.817,320.74,375.478,325.208Z" transform="translate(190.62 139.742)" fill="#fbd206"/>
      <path id="Path_45591" data-name="Path 45591" d="M486.129,263.021c-24.977-7.051-58.123-5.391-78.4-3.339a17.486,17.486,0,0,1,3.88-1.772S469.509,247.688,486.129,263.021Z" transform="translate(218.527 130.07)" fill="#fbd206"/>
      <path id="Path_45592" data-name="Path 45592" d="M704.9,264.535a20.519,20.519,0,0,0-2.367-.148,25.944,25.944,0,0,1-2.873-.263c-1.636-.16-3.268-.3-4.881-.5-1.629-.13-3.255-.25-4.868-.427-1.621-.133-3.25-.2-4.863-.361l-9.725-.574c-3.246-.125-6.488-.32-9.74-.548-6.5-.461-13.056-1.259-19.619-1.174a118.978,118.978,0,0,0-19.56,1.979l-6.567,1.171,5.67-3.89a19.024,19.024,0,0,1,4.12-2.225l.2-.047a148.891,148.891,0,0,1,19.009-3.355c3.194-.393,6.4-.684,9.62-.931,3.221-.153,6.453-.33,9.692-.231a91.907,91.907,0,0,1,19.392,2.2,46.964,46.964,0,0,1,9.357,3.166,29.568,29.568,0,0,1,4.295,2.5c.683.463,1.306,1.03,1.948,1.533a6.108,6.108,0,0,1,1.017,1.092C704.459,263.924,704.663,264.273,704.9,264.535Zm-.488-.273a4.17,4.17,0,0,0-1.108-.48,3.905,3.905,0,0,1-.864-.374c-.712-.331-1.379-.71-2.1-.989a40.635,40.635,0,0,0-4.4-1.425,59.993,59.993,0,0,0-9.126-1.536,157.1,157.1,0,0,0-18.659-.558c-6.253.146-12.534.344-18.828.7-6.284.384-12.6.959-18.878,1.448l.2-.047a15.434,15.434,0,0,0-3.639,1.318l-.9-2.719c6.619-.155,13.2-.383,19.771-.906,6.57-.507,13.164-1.514,19.811-1.677,1.66-.026,3.322-.088,4.982.017,1.661.065,3.322.1,4.977.295,1.657.165,3.314.283,4.968.488,1.65.243,3.3.456,4.944.73a98.288,98.288,0,0,1,9.765,2.167c1.605.467,3.19,1,4.772,1.513a20.767,20.767,0,0,1,1.9.96A15.027,15.027,0,0,0,704.413,264.262ZM517.954,424.172c3.25.793,6.341,1.527,9.433,2.167,3.1.6,6.164,1.088,9.24,1.4,1.536.209,3.076.238,4.621.367,1.539-.006,3.1.123,4.655.048,3.146.025,6.248-.41,9.623-.6a24.842,24.842,0,0,1-9.231,3.9,30.424,30.424,0,0,1-10.109.518,34.5,34.5,0,0,1-9.771-2.47A26.806,26.806,0,0,1,517.954,424.172Zm78.929,5.957c3.25.793,6.341,1.527,9.433,2.167,3.1.6,6.164,1.088,9.24,1.4,1.536.209,3.076.238,4.621.367,1.539-.006,3.1.123,4.655.048,3.146.025,6.248-.41,9.623-.6a24.841,24.841,0,0,1-9.231,3.9,30.425,30.425,0,0,1-10.109.518,34.5,34.5,0,0,1-9.771-2.47A26.8,26.8,0,0,1,596.883,430.128Zm-263.293,41.04a29.2,29.2,0,0,1,4.384,7.965h-.914q-45.383-.028-90.748-.877c-30.255-.615-60.511-1.362-90.766-2.649a.363.363,0,0,1-.354-.392.381.381,0,0,1,.354-.354c30.255-1.324,60.492-2.089,90.748-2.723Q289.941,471.271,333.589,471.169Zm95.821.466a36.969,36.969,0,0,0-3.395,6.827q-14.633.168-29.248.3a18.725,18.725,0,0,0,9.215-7.312Q417.706,471.532,429.411,471.635Zm452.544,2.873a.343.343,0,0,1-.354.354c-30.237,1.343-60.492,2.145-90.748,2.611l-22.682.3-12.143.093-10.558.075c-7.555.056-15.128.112-22.682.075q-11.36.028-22.7-.131c-14.717-.2-29.435-.541-44.152-.877-15.519-.354-31.058-.69-46.6-.9-30.255-.317-60.511-.037-90.766.672q-20.341.531-40.683.9c-3.973-1.735-8.469-3.675-12.945-5.615q26.8.363,53.628,1.007,45.383.979,90.766.466c30.237-.466,60.492-1.492,90.748-2q11.332-.168,22.682-.187c7.573-.056,15.128-.019,22.7.019l22.682.112,22.7.261c30.237.392,60.492,1.1,90.748,2.369a.374.374,0,0,1,.354.392Z" transform="translate(0 128.693)" fill="#fbd206"/>
      <path id="Path_45593" data-name="Path 45593" d="M552.268,379.016c-12.282,1.746-24.62,3.149-36.954,4.415q-18.515,1.809-37.044,3.43c-12.351,1.105-24.718,2-37.079,2.967-12.365.918-24.722,1.928-37.1,2.706h-.016a1.875,1.875,0,0,1-.322-.009l-33.241-3.9-.027,0a1.637,1.637,0,0,1-.474-.131c-13.143-5.934-26.274-11.9-39.467-17.7-3.293-1.43-6.618-2.911-9.9-4.2-1.031-.665-2.621.439-3.97,1.4a25.314,25.314,0,0,0-3.759,3.615,35.939,35.939,0,0,0-8.352,19.11.759.759,0,0,1-.114.326c-1.531,2.334-3.031,4.688-4.434,7.091a50.651,50.651,0,0,0-3.7,7.412,9.464,9.464,0,0,0-.243,7.652,79.814,79.814,0,0,1,4.057,7.384.749.749,0,0,1,.026.45l0,.009a18.479,18.479,0,0,0-.517,5.14,11.87,11.87,0,0,0,1.191,4.9,7.641,7.641,0,0,0,3.439,3.443,10.433,10.433,0,0,0,2.337.919c.818.218,1.688.292,2.529.439h-.159a45.787,45.787,0,0,0,6.97-1.579,39.324,39.324,0,0,0,6.6-2.673,25.745,25.745,0,0,0,3.025-1.812c.973-.653,1.8-1.471,2.714-2.191a15.3,15.3,0,0,0,3.884-5.553,1.124,1.124,0,0,1,2.113.07l.027.086a24.378,24.378,0,0,0,11.967,14.188,30.543,30.543,0,0,0,18.735,2.012c6.306-1.308,12.881-3.268,19.279-5.049,6.379-1.865,12.948-3.706,18.914-6.044l.041-.016a2.023,2.023,0,0,1,.942-.126c23.091,2.48,46.252,4.562,69.405,6.457,23.149,1.975,46.328,3.625,69.516,4.647,11.591.558,23.19.949,34.773.934,5.791-.012,11.578-.129,17.343-.444a130.39,130.39,0,0,0,17.1-1.886,27.236,27.236,0,0,0,7.834-2.559,8.456,8.456,0,0,0,1.5-1.074l1.4-1.566a25.933,25.933,0,0,0,2.589-3.318,50.731,50.731,0,0,0,6.889-15.538,104.382,104.382,0,0,0,2.854-34.4.213.213,0,0,1,.187-.235.221.221,0,0,1,.235.185,109.893,109.893,0,0,1,.709,17.477,93.3,93.3,0,0,1-2.185,17.43,52,52,0,0,1-6.715,16.4,28.207,28.207,0,0,1-2.668,3.626l-1.461,1.729a10.909,10.909,0,0,1-1.981,1.53,29.589,29.589,0,0,1-8.579,3.117,119.931,119.931,0,0,1-17.494,2.371c-5.841.42-11.682.639-17.518.753-11.673.218-23.332.026-34.979-.332-23.289-.857-46.521-2.484-69.724-4.358q-34.795-3.005-69.474-7.083l.982-.142c-3.3,1.313-6.5,2.26-9.748,3.219s-6.483,1.836-9.73,2.707l-9.755,2.542c-3.219.852-6.568,1.588-9.964,2.255A33.115,33.115,0,0,1,345,438.881a26.89,26.89,0,0,1-12.885-16.1l2.14.156a17.467,17.467,0,0,1-4.545,6.227c-1.008.774-1.953,1.647-3.017,2.328a27.776,27.776,0,0,1-3.277,1.865A41.147,41.147,0,0,1,316.444,436a47.306,47.306,0,0,1-7.3,1.479l-.048.005a.361.361,0,0,1-.111,0c-.93-.181-1.874-.262-2.791-.517a12.012,12.012,0,0,1-2.672-1.077,9.18,9.18,0,0,1-4.037-4.118,13.337,13.337,0,0,1-1.311-5.532,19.8,19.8,0,0,1,.615-5.585l.023.457a24.766,24.766,0,0,0-1.837-3.645,38.89,38.89,0,0,1-2.132-3.708,8.785,8.785,0,0,1-.778-4.416,15.782,15.782,0,0,1,1.049-4.242,53.48,53.48,0,0,1,3.716-7.646c1.394-2.451,2.88-4.838,4.394-7.2l-.114.325a37.505,37.505,0,0,1,8.5-20.058,27.655,27.655,0,0,1,3.922-3.974,13.309,13.309,0,0,1,2.438-1.6,5.235,5.235,0,0,1,1.578-.5,2.969,2.969,0,0,1,1.026.036c.262.075.522.155.729.23,3.464,1.249,6.768,2.616,10.128,3.965,13.376,5.432,26.662,11.056,39.966,16.634l-.5-.134,33.276,3.595-.337-.008,74.2-4.9q18.555-1.163,37.1-2.467l18.546-1.277,18.524-1.526a.213.213,0,0,1,.237.186A.221.221,0,0,1,552.268,379.016Z" transform="translate(120.146 225.123)" fill="#fbd206"/>
      <path id="Path_45594" data-name="Path 45594" d="M374.344,452.452a16.864,16.864,0,0,1,4.116-3.143,7.409,7.409,0,0,1,5.2-.912,7.155,7.155,0,0,1,4.175,3.461c.421.794.8,1.618,1.145,2.447l.8,2.551a.869.869,0,1,1-1.66.518c-.007-.023-.013-.046-.018-.069l-.02-.091-.54-2.434c-.251-.777-.533-1.553-.848-2.3a6.093,6.093,0,0,0-3.271-3.245,6.764,6.764,0,0,0-4.771.47A16.643,16.643,0,0,0,374.344,452.452Zm-19.859,2.4a120.415,120.415,0,0,0,7.558-10.719,60.1,60.1,0,0,0,3.185-5.738,19.611,19.611,0,0,0,2.033-6.218,19.812,19.812,0,0,1-1.635,6.392,60.751,60.751,0,0,1-2.831,6,121.668,121.668,0,0,1-6.921,11.328.869.869,0,0,1-1.433-.982l.032-.044Zm-3.781-6.695,16.557-27.8L352.218,449a.868.868,0,0,1-1.537-.807Zm8.108-23.465,10.949-15.148-9.5,16.1a.869.869,0,0,1-1.5-.883C358.781,424.732,358.8,424.709,358.812,424.687Zm-39.7-89.1a7.064,7.064,0,0,0-3.316-.615,23.19,23.19,0,0,0-3.409.262,12.746,12.746,0,0,0-5.919,2.855,15.287,15.287,0,0,0-3.767,5.331,20.608,20.608,0,0,0-1.624,6.37,1.316,1.316,0,0,1-2.589.2l-.01-.042a48.743,48.743,0,0,0-4.2-11.345,21.721,21.721,0,0,0-7.637-8.542,12.061,12.061,0,0,0-2.466-1.156,6.113,6.113,0,0,0-1.2-.3l-1.475-.187a15.48,15.48,0,0,0-5.6.271A11.254,11.254,0,0,0,268,335.2l-.074.17a1.833,1.833,0,0,1-2.411.951,1.912,1.912,0,0,1-.362-.209,5.829,5.829,0,0,0-3.335-1.174,10.079,10.079,0,0,0-3.875.77,11.133,11.133,0,0,0-6.146,5.277l-.077.147-.138.311-.2.48a9.342,9.342,0,0,0-.3.955,6.643,6.643,0,0,0-.209,1.909,5.73,5.73,0,0,0,1.433,3.484,15.239,15.239,0,0,0,7.392,4.189l.074.02a.8.8,0,0,1,.449.318,38.839,38.839,0,0,1,3.093,5.577c.453.94.885,1.87,1.4,2.737.527.917,1.054,1.833,1.511,2.8a12.163,12.163,0,0,1,1.1,3.125,1.967,1.967,0,0,1-2.489,2.509,19.927,19.927,0,0,1-5.963-2.529c-1.835-1.057-3.586-2.181-5.341-3.384a30.941,30.941,0,0,1-4.745-4.318c-.72-.769-1.417-1.638-2.066-2.259a7.833,7.833,0,0,0-2.334-1.511,9.535,9.535,0,0,0-5.536-.44,9.888,9.888,0,0,0-4.864,2.485A5.177,5.177,0,0,0,232.6,362.2a14.7,14.7,0,0,0,2.062,5.2,31.711,31.711,0,0,0,3.529,4.765c.659.745,1.35,1.467,2.056,2.133l2.316,2.022q2.384,2.113,4.63,4.317c3.009,2.94,5.932,5.923,8.831,8.975a1.947,1.947,0,0,1,.51,1.02l.026.155a14.456,14.456,0,0,0,1.222,3.569,18.178,18.178,0,0,0,2.139,3.372,19.219,19.219,0,0,0,2.815,2.879c1.042.921,2.094,1.511,3.51,2.568a27.284,27.284,0,0,1,6.469,7.221,31.706,31.706,0,0,1,3.829,8.891l-.124-.388a12.5,12.5,0,0,0,5.071,6.127,16.392,16.392,0,0,0,8.065,1.961,34.684,34.684,0,0,0,8.9-1.205,51.151,51.151,0,0,0,8.623-3.078l.108-.05a1.206,1.206,0,0,1,.137-.053c3.608-1.126,7.209-2.231,10.851-3.235s7.269-2.022,11.011-2.849a17.717,17.717,0,0,0,9.546-4.651,21.252,21.252,0,0,0,5.661-9.335.213.213,0,0,1,.265-.142.216.216,0,0,1,.148.244,21.109,21.109,0,0,1-5.044,10.242,19.53,19.53,0,0,1-4.546,3.727,16.25,16.25,0,0,1-2.7,1.275c-.974.318-1.963.628-2.8.829-3.557,1.014-7.122,2.24-10.666,3.459l-10.634,3.708.244-.1a54.439,54.439,0,0,1-9.184,3.675,38.588,38.588,0,0,1-9.892,1.7,19.787,19.787,0,0,1-10.284-2.334,16.336,16.336,0,0,1-4.235-3.531,19.761,19.761,0,0,1-2.821-4.617l-.043-.112-.082-.278a29.327,29.327,0,0,0-3.254-7.463,23.3,23.3,0,0,0-5.368-6.062c-.948-.757-2.469-1.709-3.641-2.793a23.566,23.566,0,0,1-3.349-3.575,22.444,22.444,0,0,1-2.551-4.219,17.811,17.811,0,0,1-1.508-4.913l.536,1.174c-2.782-3.052-5.633-6.086-8.529-9.033-1.455-1.467-2.906-2.936-4.387-4.348-.747-.732-1.459-1.326-2.317-2.178-.783-.794-1.5-1.608-2.2-2.449A35,35,0,0,1,231.852,369a16.775,16.775,0,0,1-2.154-6.483,8.741,8.741,0,0,1,.423-3.676,7.641,7.641,0,0,1,2.082-3.107,12.381,12.381,0,0,1,6.269-2.838,11.621,11.621,0,0,1,6.714.879,9.7,9.7,0,0,1,2.8,2c.813.869,1.372,1.668,2.043,2.452a25.745,25.745,0,0,0,4.387,4.191c1.663,1.184,3.4,2.345,5.163,3.4a19.13,19.13,0,0,0,5.438,2.46c1.929.588.8-2.107,0-3.773-.442-.91-.967-1.8-1.489-2.681-.556-.923-1.055-1.86-1.535-2.784a36.3,36.3,0,0,0-3.157-5.239l.522.338a20.545,20.545,0,0,1-4.612-1.515,13.687,13.687,0,0,1-4.111-2.833,8.158,8.158,0,0,1-2.285-4.794,9.153,9.153,0,0,1,.126-2.683,12.1,12.1,0,0,1,.318-1.272l.208-.6.112-.309.2-.441-.076.147a12.808,12.808,0,0,1,3.04-4.322,16.225,16.225,0,0,1,4.339-2.875,12.468,12.468,0,0,1,5.249-1.263,9.5,9.5,0,0,1,5.465,1.732l-2.846.911a12.738,12.738,0,0,1,1.752-3.253,14.629,14.629,0,0,1,2.428-2.626,15,15,0,0,1,6.355-3.156,19.2,19.2,0,0,1,6.856-.261l1.632.23a9.747,9.747,0,0,1,1.837.473,15.684,15.684,0,0,1,3.179,1.54,24.667,24.667,0,0,1,8.638,10.131,47.513,47.513,0,0,1,3.887,12.315l-2.6.16a22.867,22.867,0,0,1,2.217-7.108,15.688,15.688,0,0,1,4.7-5.749,14.225,14.225,0,0,1,6.856-2.622,20.191,20.191,0,0,1,3.615.053,7.762,7.762,0,0,1,3.454,1.054.213.213,0,0,1-.182.385Z" transform="translate(64.437 190.604)" fill="#fbd206"/>
      <path id="Path_45595" data-name="Path 45595" d="M313.317,351.258a16.823,16.823,0,0,1,1.392,6.069,26.322,26.322,0,0,1-.007,3.086c-.088,1.03-.2,2.062-.378,3.081l-.017.1a1.141,1.141,0,0,1-.135.37,16.843,16.843,0,0,1-1.6,2.357,15.688,15.688,0,0,1-2.094,2.014,14.089,14.089,0,0,1-5,2.828,9.107,9.107,0,0,1-5.893-.5,8.572,8.572,0,0,1-2.63-1.756,7.847,7.847,0,0,1-.584-.683,5.7,5.7,0,0,1-.513-.976l-.45-1.3-.836-2.492a11.713,11.713,0,0,0-.942-1.961,18.172,18.172,0,0,0-1.215-1.813c-.187-.227-.521-.69-.794-1.1s-.567-.83-.829-1.256a17.56,17.56,0,0,1-2.025-5.347,18.541,18.541,0,0,1-.386-5.536.224.224,0,0,1,.242-.2.227.227,0,0,1,.173.11,62.121,62.121,0,0,0,5.474,8.615c.271.277.514.57.767.853s.442.542.848.97a12.024,12.024,0,0,1,1.744,2.56,13.364,13.364,0,0,1,1.05,2.929c.127.54.189.977.266,1.373l.227,1.254.211,1.264c.045.141,0,.087.044.219.069.123.1.256.178.4a7.72,7.72,0,0,0,1.334,1.71,4.769,4.769,0,0,0,4.229,1.386,5.383,5.383,0,0,0,3.609-3.013,21.986,21.986,0,0,0,1.025-2.248,19.625,19.625,0,0,1,.927-2.29l-.152.465c.221-1.886.7-3.737,1.017-5.658.386-1.912.767-3.81,1.295-5.832a.225.225,0,0,1,.273-.165.234.234,0,0,1,.15.123ZM243.19,386.872a11.117,11.117,0,0,1-.448-3.581,13.238,13.238,0,0,1,.578-3.6,8.327,8.327,0,0,1,1.827-3.274,4.481,4.481,0,0,1,3.349-1.558,6.885,6.885,0,0,0-2.283,2.376,13.128,13.128,0,0,0-1.253,2.977C244.278,382.32,243.866,384.549,243.19,386.872Zm5.027-37.715c1.463-.361,2.657-.608,3.925-.858.63-.118,1.26-.242,1.92-.339a12.281,12.281,0,0,1,2.114-.185,6.058,6.058,0,0,1-3.707,2.213,6.674,6.674,0,0,1-2.2.04,4.03,4.03,0,0,1-2.053-.87Zm7.766-18.706a19.11,19.11,0,0,0,.722,5.468,9.534,9.534,0,0,0,2.727,4.636,6.781,6.781,0,0,0,5.141,1.553,17.379,17.379,0,0,0,2.83-.467l2.737-.989-2.653,1.241a17.821,17.821,0,0,1-2.861.744,7.586,7.586,0,0,1-5.847-1.242,10.825,10.825,0,0,1-3.584-4.957,20.837,20.837,0,0,1-1.34-5.97,1.066,1.066,0,1,1,2.125-.165c0,.032,0,.065,0,.1Z" transform="translate(75.753 194.75)" fill="#fbd206"/>
      <path id="Path_45596" data-name="Path 45596" d="M254.432,336.369a53.069,53.069,0,0,1,3.911,7.047,26.767,26.767,0,0,1,2.534,7.84,3.234,3.234,0,0,0,1.967,2.262,11.562,11.562,0,0,0,3.538,1.123,12.087,12.087,0,0,0,3.807.042,5.069,5.069,0,0,0,3.373-1.7,5.023,5.023,0,0,1-3.173,2.519,11.086,11.086,0,0,1-4.149.474,11.462,11.462,0,0,1-4.133-1,4.755,4.755,0,0,1-2.947-3.6,17.628,17.628,0,0,0-.819-3.7c-.366-1.256-.81-2.5-1.238-3.754Z" transform="translate(85.876 200.85)" fill="#fbd206"/>
      <path id="Path_45597" data-name="Path 45597" d="M311.034,354.194c-1.474-.28-2.929-.578-4.4-.877l-43.238-8.842-4.16-.858-17.459-3.6c-6.939-2.761-13.878-5.5-20.705-8.749,7.573-.224,15.016.056,22.477.336,4.775,1.063,9.588,2.052,14.4,3.04,2.388.5,4.775.989,7.163,1.492l42.231,8.637a30.729,30.729,0,0,0,3.693,9.42Z" transform="translate(57.008 196.367)" fill="#fbd206"/>
      <path id="Path_45598" data-name="Path 45598" d="M267.23,540.284a38.372,38.372,0,0,0,4.752,9.435l1.625,1.885a16.021,16.021,0,0,1,1.887,2.3,12.842,12.842,0,0,1,1.362,2.717c.362,1.022.56,1.858.821,2.674.268.8.467,1.862.678,1.965a5.874,5.874,0,0,0,1.477,1.363,5.29,5.29,0,0,0,3.721.892,6.612,6.612,0,0,0,3.514-2.229,14.811,14.811,0,0,0,1.512-1.885l1.319-2.158-.12.368c.508-2.432,1.036-4.918,1.306-7.443.159-1.26.272-2.524.31-3.8a21.177,21.177,0,0,0-.138-3.85,21.233,21.233,0,0,1,1.734,7.7c.074,1.321.089,2.644.064,3.967-.064,1.324-.213,2.65-.319,3.985a.686.686,0,0,1-.054.219l-.066.149a20.474,20.474,0,0,1-2.957,5.03,9.4,9.4,0,0,1-5.374,3.534,8.356,8.356,0,0,1-6.52-1.443,9.37,9.37,0,0,1-2.388-2.361,4.228,4.228,0,0,1-.509-.923,3.836,3.836,0,0,1-.254-.811l-.31-1.363c-.217-.919-.384-1.85-.579-2.54a12.309,12.309,0,0,0-.879-2.184,12.98,12.98,0,0,0-1.3-2.042c-.544-.817-1.129-1.607-1.594-2.447A25.306,25.306,0,0,1,267.23,540.284ZM556.143,328.667a5.6,5.6,0,0,0,2.615,4.662,15.651,15.651,0,0,0,5.147,2.084l5.5,1.284,2.763.711c.462.124.925.246,1.382.393l1.3.332a17.66,17.66,0,0,0,5.282.692,9.871,9.871,0,0,0,5.11-1.588,9.544,9.544,0,0,0,3.432-4.176,9.229,9.229,0,0,0,.66-2.617,6.477,6.477,0,0,0-.155-2.491,3.209,3.209,0,0,0-1.269-1.572,11.283,11.283,0,0,0-2.228-1.028c-1.672-.592-3.545-1.107-5.434-1.735a35.472,35.472,0,0,1-5.692-2.355,21.153,21.153,0,0,1-2.707-1.7c-.733-.435-1.4-.971-2.119-1.3a7.2,7.2,0,0,0-8.464.8A13.4,13.4,0,0,0,556.143,328.667Zm-.433,0a24.2,24.2,0,0,1,.924-5.872,17.862,17.862,0,0,1,2.537-5.673,9.424,9.424,0,0,1,5.6-3.966,10.432,10.432,0,0,1,7.025.966,23.475,23.475,0,0,1,2.824,1.749c.71.5,1.419,1,2.176,1.462a37.89,37.89,0,0,0,4.893,2.455c1.737.75,3.574,1.4,5.441,2.407a11.132,11.132,0,0,1,2.734,1.97A5.888,5.888,0,0,1,591.5,327.5c-.005,9.073-8.741,15.209-17.27,14.186a30.631,30.631,0,0,1-5.869-1.294,28.285,28.285,0,0,1-5.523-2.433,20.658,20.658,0,0,1-4.828-3.8A8.261,8.261,0,0,1,555.71,328.667Zm27.676-61.254a10.356,10.356,0,0,0,1.19,4.623,11.309,11.309,0,0,0,3.138,3.571,27.826,27.826,0,0,0,8.619,4.133c3.059,1,6.2,1.741,9.333,2.592l4.722,1.226c.792.2,1.584.394,2.369.623l2.292.523a28.548,28.548,0,0,0,9.31.744,18.459,18.459,0,0,0,8.818-3.112,17.694,17.694,0,0,0,5.991-7.262c.278-.742.581-1.475.807-2.23a17.422,17.422,0,0,0,.461-2.311,12.919,12.919,0,0,0-.071-4.5,6.372,6.372,0,0,0-2.289-3.277,17.94,17.94,0,0,0-3.96-2.067c-2.905-1.145-6.07-2.066-9.218-3.185a64.2,64.2,0,0,1-9.377-4.028,37.521,37.521,0,0,1-4.408-2.8,28.488,28.488,0,0,0-3.827-2.4,13.5,13.5,0,0,0-8.135-1.706,14.844,14.844,0,0,0-7.673,3.854,25.189,25.189,0,0,0-5.642,7.622A22.985,22.985,0,0,0,583.386,267.413Zm-.433,0a33.3,33.3,0,0,1,1.789-9.807,29.729,29.729,0,0,1,4.641-9.109,15.7,15.7,0,0,1,9.018-6.025,16.931,16.931,0,0,1,10.956,1.679,29.165,29.165,0,0,1,4.529,2.834c1.263.887,2.525,1.774,3.872,2.568a59.945,59.945,0,0,0,8.574,4.136c3,1.22,6.13,2.281,9.23,3.838a18.228,18.228,0,0,1,4.464,3.007,9.061,9.061,0,0,1,2.666,5.039A19.137,19.137,0,0,1,640.5,275.7a22.906,22.906,0,0,1-6.49,7.765,26.042,26.042,0,0,1-19.57,4.787l-2.555-.407c-.814-.161-1.62-.357-2.426-.549-1.613-.4-3.23-.786-4.821-1.3a55.1,55.1,0,0,1-9.364-3.712,32.851,32.851,0,0,1-8.3-5.854,12.785,12.785,0,0,1-4.017-9.018Zm13.762-82.456a18.335,18.335,0,0,0-1.3,7.216,13.262,13.262,0,0,0,2.3,6.89,30.854,30.854,0,0,0,11.24,9.4A163.987,163.987,0,0,0,636.686,219.3c9.508,3,19.1,5.834,28.558,9.163q7.116,2.435,14.106,5.292c4.628,1.828,9.179,3.7,13.9,5.175a95.02,95.02,0,0,0,28.883,5.406,48.961,48.961,0,0,0,14.487-1.94,32.932,32.932,0,0,0,12.691-7.075,35.542,35.542,0,0,0,8.486-11.88,53.166,53.166,0,0,0,3.908-14.215,81.245,81.245,0,0,0,.658-14.806c-.131-2.475-.275-4.945-.563-7.409a51.82,51.82,0,0,0-1.154-7.251A92.268,92.268,0,0,0,748.574,153a116.942,116.942,0,0,0-18.848-22.55,86.934,86.934,0,0,0-24.272-16.059,71.43,71.43,0,0,0-13.788-4.373,58.692,58.692,0,0,0-14.373-1.085,64.764,64.764,0,0,0-27.944,6.713,78.44,78.44,0,0,0-22.919,17.9,133.824,133.824,0,0,0-17,24.334,241.749,241.749,0,0,0-12.717,27.077Zm-.4-.161c3.693-9.286,7.624-18.485,12.054-27.476A140.521,140.521,0,0,1,624.259,131.7a74.441,74.441,0,0,1,23.185-19.762,67.232,67.232,0,0,1,29.7-7.62,65.313,65.313,0,0,1,30.12,5.942,91.21,91.21,0,0,1,25.237,17.214,113.578,113.578,0,0,1,18.987,23.715,90.726,90.726,0,0,1,11.463,28.068,100.155,100.155,0,0,1,.249,30.2c-1.479,9.913-5.4,19.907-12.952,26.905a35.626,35.626,0,0,1-13.084,7.73,51.031,51.031,0,0,1-15,2.66,95.98,95.98,0,0,1-29.993-4.375c-4.853-1.414-9.615-3.183-14.269-5.042-4.6-1.851-9.265-3.561-13.936-5.279-9.365-3.369-18.8-6.64-28.173-10.184-4.685-1.77-9.356-3.6-13.964-5.6a105.466,105.466,0,0,1-13.448-6.826,54.78,54.78,0,0,1-6.16-4.387,25.192,25.192,0,0,1-5.011-5.673,14.266,14.266,0,0,1-2.3-7.182,18.8,18.8,0,0,1,1.4-7.4Z" transform="translate(96.951)" fill="#fbd206"/>
      <path id="Path_45600" data-name="Path 45600" d="M523.322,294.311A69.133,69.133,0,0,0,533.65,307.4a24.144,24.144,0,0,1-11.583-2.511,16.4,16.4,0,0,1-6.347-5.809,16.764,16.764,0,0,1-2.438-8.284,23.839,23.839,0,0,1,2.724-11.511,67.81,67.81,0,0,0,7.315,15.025Z" transform="translate(309.86 151.455)" fill="#fbd206"/>
      <path id="Path_45601" data-name="Path 45601" d="M540.853,295.9a23.627,23.627,0,0,1-2.761,11.511,67.785,67.785,0,0,0-7.316-15.025,70.261,70.261,0,0,0-10.328-13.089A23.652,23.652,0,0,1,532,281.839a16.7,16.7,0,0,1,6.382,5.774,16.315,16.315,0,0,1,2.475,8.284ZM518.19,328.528a67.929,67.929,0,0,0,10.364,13.089,24.045,24.045,0,0,1-11.583-2.511,16.53,16.53,0,0,1-6.383-5.809,16.774,16.774,0,0,1-2.438-8.284,23.839,23.839,0,0,1,2.725-11.511,69.424,69.424,0,0,0,7.315,15.025Z" transform="translate(305.418 151.448)" fill="#fbd206"/>
      <path id="Path_45602" data-name="Path 45602" d="M536.286,314.236a23.923,23.923,0,0,1-2.724,11.512,71.207,71.207,0,0,0-7.316-15.026,70.481,70.481,0,0,0-10.364-13.089,23.545,23.545,0,0,1,11.547,2.546,16.018,16.018,0,0,1,8.857,14.057ZM512.4,350.311A69.057,69.057,0,0,0,522.766,363.4a23.6,23.6,0,0,1-11.583-2.547,16.169,16.169,0,0,1-6.382-5.773,16.765,16.765,0,0,1-2.439-8.284,23.753,23.753,0,0,1,2.725-11.511A69.42,69.42,0,0,0,512.4,350.311Z" transform="translate(300.411 167.317)" fill="#fbd206"/>
      <path id="Path_45603" data-name="Path 45603" d="M527.937,334.386a23.969,23.969,0,0,1-2.726,11.548,69.5,69.5,0,0,0-7.35-15.026,70.286,70.286,0,0,0-10.328-13.089,23.544,23.544,0,0,1,11.547,2.546,16.7,16.7,0,0,1,6.383,5.774A16.29,16.29,0,0,1,527.937,334.386Zm-18.361,38.549A69.553,69.553,0,0,0,519.94,386.06a23.6,23.6,0,0,1-11.583-2.546,16.19,16.19,0,0,1-8.821-14.058,24.164,24.164,0,0,1,2.725-11.511,70.83,70.83,0,0,0,7.316,14.989Z" transform="translate(297.966 184.785)" fill="#fbd206"/>
      <path id="Path_45604" data-name="Path 45604" d="M521.4,400.364a23.549,23.549,0,0,1-2.725,11.548A77.246,77.246,0,0,0,501,383.8a23.546,23.546,0,0,1,11.547,2.546,16.175,16.175,0,0,1,6.383,5.774,15.846,15.846,0,0,1,2.474,8.247ZM506.737,423.29a23.875,23.875,0,0,1,11.555,2.542,16.519,16.519,0,0,1,6.386,5.79,16.255,16.255,0,0,1,2.472,8.25A23.7,23.7,0,0,1,524.4,451.4a23.7,23.7,0,0,1-11.579-2.526,16.255,16.255,0,0,1-6.361-5.805,16.512,16.512,0,0,1-2.446-8.265,23.864,23.864,0,0,1,2.72-11.513Zm51.2-125.914a108.769,108.769,0,0,0-13.841,7.817,27.686,27.686,0,0,1,4.124-10.686A15.292,15.292,0,0,1,554,289.343a13.89,13.89,0,0,1,7.316-1.362,43.492,43.492,0,0,1,10.83,2.51Zm12.193,5.02a15.384,15.384,0,0,1-15.348,7.674,20.58,20.58,0,0,1-10.686-4.876,36.908,36.908,0,0,0,7.961-1.613,58.449,58.449,0,0,0,7.495-2.977,44.741,44.741,0,0,0,6.921-4.232,22.7,22.7,0,0,0,5.666-5.881,16.512,16.512,0,0,1-2.008,11.906ZM552.347,329.65c-5.917,2.151-11.942,4.052-18,6.6a33.106,33.106,0,0,1,7.244-10.255,22.5,22.5,0,0,1,7.745-4.77,20.31,20.31,0,0,1,8.534-1.148,78.251,78.251,0,0,1,11.835,2.116,105.131,105.131,0,0,1-17.356,7.459Z" transform="translate(299.232 158.933)" fill="#fbd206"/>
      <path id="Path_45605" data-name="Path 45605" d="M553.307,319.206a20.664,20.664,0,0,1-19.759,7.207A22.247,22.247,0,0,1,522,320.353a42.181,42.181,0,0,0,9.754-.753,57.983,57.983,0,0,0,9.431-2.474,44.674,44.674,0,0,0,8.893-4.2,23.878,23.878,0,0,0,7.281-6.634,16.886,16.886,0,0,1-4.052,12.91Zm-20.046,22.447c-5.917,2.152-11.942,4.053-18,6.6A32.571,32.571,0,0,1,522.54,338a22.051,22.051,0,0,1,7.71-4.769,20.307,20.307,0,0,1,8.534-1.148,78.243,78.243,0,0,1,11.834,2.116,105.021,105.021,0,0,1-17.357,7.458Z" transform="translate(311.575 174.827)" fill="#fbd206"/>
      <path id="Path_45606" data-name="Path 45606" d="M549.443,334.162a20.661,20.661,0,0,1-19.758,7.208,22.249,22.249,0,0,1-11.548-6.06,42.179,42.179,0,0,0,9.755-.753,57.914,57.914,0,0,0,9.431-2.475,44.645,44.645,0,0,0,8.893-4.2,23.868,23.868,0,0,0,7.28-6.634A16.881,16.881,0,0,1,549.443,334.162Zm-18.97,28.724c-5.988,2.725-12.264,4.949-18.539,7.745a35.272,35.272,0,0,1,7.279-10.614,26,26,0,0,1,7.639-5.342,22.947,22.947,0,0,1,8.284-1.937c3.084-.287,6.239.322,11.8-.431a29.94,29.94,0,0,1-7.709,6.168,73.914,73.914,0,0,1-8.751,4.411Z" transform="translate(308.697 187.77)" fill="#fbd206"/>
      <path id="Path_45607" data-name="Path 45607" d="M548.04,403.494a19.347,19.347,0,0,1-.251,3.8,18.882,18.882,0,0,1-2.761,6.491,21.718,21.718,0,0,1-9.395,7.853,22.054,22.054,0,0,1-11.3,1.758A22.588,22.588,0,0,1,512,417.909a42.386,42.386,0,0,0,10.22-1.255,53.929,53.929,0,0,0,9.79-3.228,36.917,36.917,0,0,0,8.929-5.414,17.593,17.593,0,0,0,6.06-8.428,15.37,15.37,0,0,1,.682,1.937,17.562,17.562,0,0,1,.358,1.973Zm-36.183,55.26a34.9,34.9,0,0,1,2.556-11.489,18.746,18.746,0,0,1,4.324-6.4,14.235,14.235,0,0,1,5.906-3.234c2.383-.819,5.3-.778,9.96-3.438a15.413,15.413,0,0,1,1.484,1.255,16.28,16.28,0,0,1,1.173,1.5,14.366,14.366,0,0,1,1.411,3.318,15.184,15.184,0,0,1,.128,6.631,17.7,17.7,0,0,1-5.494,9.8,17.254,17.254,0,0,1-9.251,4.405,19.378,19.378,0,0,1-12.2-2.342ZM546.534,283.22a79.586,79.586,0,0,0-4.231,17.75,24.881,24.881,0,0,1-5.021-11.331,19.749,19.749,0,0,1,.753-9.36,19.088,19.088,0,0,1,5.165-7.853,25.152,25.152,0,0,1,10.937-5.81A80.622,80.622,0,0,0,546.534,283.22Zm11.869,4.088a19.2,19.2,0,0,1-5.2,7.818,24.856,24.856,0,0,1-10.9,5.845,84.477,84.477,0,0,0,7.6-16.6,80.07,80.07,0,0,0,4.231-17.751,25.009,25.009,0,0,1,5.057,11.332,19.322,19.322,0,0,1-.79,9.359Z" transform="translate(308.63 140.492)" fill="#fbd206"/>
      <path id="Path_45608" data-name="Path 45608" d="M510.637,408.056c.574,1.112,1.112,2.26,1.65,3.371.609,1.291,1.219,2.547,1.829,3.837,1.075,2.26,2.151,4.482,3.191,6.742.932-2.474,1.9-4.913,2.833-7.351.573-1.4,1.148-2.833,1.721-4.231.215-.609.467-1.184.717-1.793C518.6,408.523,514.618,408.344,510.637,408.056Zm15.456,5.989-.932-2.26-.968,2.474c-1.4,3.551-2.8,7.1-4.268,10.614,3.514-.143,7.029-.25,10.543-.286Zm11.368-5.308c-1.722,0-3.443.037-5.2.072-1.507-.035-3.012-.035-4.554-.072l.394,1.005,1.471,3.98,3.191,8.5,3.442-9.144,1.614-4.34Zm3.048,3.909-.753-2.116-.789,2.26-4.053,11.834c3.336.036,6.67.108,10.041.25Zm1.04-3.98,1.255,3.765,3.765,11.367,5.272-12.229,1.47-3.442c-3.909.251-7.853.431-11.762.539Zm13.95,2.546-1.112-2.725-1.148,2.94-5.271,13.591c4.518.251,9.073.646,13.627,1.291Zm-44.861-3.156c.574,1.112,1.112,2.26,1.65,3.371.609,1.291,1.22,2.547,1.829,3.837,1.075,2.26,2.151,4.482,3.191,6.742.932-2.474,1.9-4.913,2.833-7.351.573-1.4,1.148-2.833,1.721-4.231.215-.609.467-1.184.717-1.793-3.98-.108-7.961-.287-11.941-.574Zm15.456,5.989-.931-2.26-.968,2.474c-1.4,3.551-2.8,7.1-4.268,10.614,3.514-.143,7.029-.25,10.543-.286Zm11.368-5.308c-1.722,0-3.443.037-5.2.072-1.507-.035-3.013-.035-4.554-.072l.394,1.005,1.471,3.98,3.191,8.5,3.442-9.144,1.614-4.34Zm3.048,3.909-.753-2.116-.789,2.26-4.053,11.834c3.336.036,6.67.108,10.041.25Zm1.04-3.98,1.255,3.765,3.765,11.367,5.272-12.229,1.47-3.442c-3.909.251-7.853.431-11.762.539Zm13.95,2.546-1.112-2.725-1.148,2.94-5.271,13.591c4.518.251,9.073.646,13.627,1.291Zm-46.761-1.578c-.395.754-.825,1.543-1.22,2.3l2.044-.215c-.287-.681-.537-1.4-.824-2.08Zm1.9-1.578c.574,1.112,1.112,2.26,1.65,3.371.609,1.291,1.22,2.547,1.829,3.837,2.008-.215,4.016-.43,6.024-.609.573-1.4,1.148-2.833,1.721-4.231.215-.609.467-1.184.717-1.793-3.98-.108-7.961-.287-11.941-.574Zm14.524,3.73-.968,2.474c.609-.072,1.255-.144,1.9-.215Zm7.1-2.977c-1.507-.035-3.013-.035-4.554-.072l.394,1.005c3.12-.323,6.24-.682,9.36-1.005-1.722,0-3.443.037-5.2.072Zm-40.916-52.856,7.961,51.063c3.012-.394,6.024-.681,9-.931a1.059,1.059,0,0,1,.968-.144l.072.072c5.092-.359,10.149-.61,15.2-.718a2.1,2.1,0,0,1,1.148,0c2.187-.035,4.375-.072,6.563-.072,9.037.037,18.037.251,27.038,1.112,1.973.215,3.981.431,5.953.681l.214-1.362,7.71-49.7ZM504,404.041c-6.921,0-6.921-10.758,0-10.758C510.96,393.283,510.924,404.041,504,404.041Zm19.365,0c-6.922,0-6.922-10.758,0-10.758,6.957,0,6.921,10.758,0,10.758Zm18.718-.645c-6.921,0-6.921-10.758,0-10.758,6.957,0,6.922,10.758,0,10.758Zm18.4.645c-6.921,0-6.921-10.758,0-10.758C567.439,393.283,567.4,404.041,560.482,404.041Zm-4.984,7.172-1.112-2.725-1.148,2.94-5.271,13.591c4.518.251,9.073.646,13.627,1.291Zm-13.95-2.546,1.255,3.765,3.765,11.367,5.272-12.229,1.47-3.442C549.4,408.379,545.457,408.559,541.548,408.667Zm-1.04,3.98-.753-2.116-.789,2.26-4.053,11.834c3.335.036,6.67.108,10.041.25Zm-3.048-3.909c-1.722,0-3.443.037-5.2.072-1.507-.035-3.013-.035-4.554-.072l.394,1.005,1.471,3.98,3.191,8.5,3.442-9.144,1.613-4.34Zm-11.368,5.308-.931-2.26-.968,2.474c-1.4,3.551-2.8,7.1-4.268,10.614,3.514-.143,7.029-.25,10.543-.286Zm-15.456-5.989c.574,1.112,1.112,2.26,1.65,3.371.609,1.291,1.22,2.547,1.829,3.837,1.075,2.26,2.151,4.482,3.191,6.742.932-2.474,1.9-4.913,2.833-7.351.573-1.4,1.148-2.833,1.721-4.231.215-.609.467-1.184.717-1.793-3.98-.108-7.961-.287-11.942-.574Zm44.861,3.156-1.112-2.725-1.148,2.94-5.271,13.591c4.518.251,9.073.646,13.627,1.291Zm-13.95-2.546,1.255,3.765,3.765,11.367,5.272-12.229,1.47-3.442C549.4,408.379,545.457,408.559,541.548,408.667Zm-1.04,3.98-.753-2.116-.789,2.26-4.053,11.834c3.335.036,6.67.108,10.041.25Zm-3.048-3.909c-1.722,0-3.443.037-5.2.072-1.507-.035-3.013-.035-4.554-.072l.394,1.005,1.471,3.98,3.191,8.5,3.442-9.144,1.613-4.34Zm-11.368,5.308-.931-2.26-.968,2.474c-1.4,3.551-2.8,7.1-4.268,10.614,3.514-.143,7.029-.25,10.543-.286Zm-15.456-5.989c.574,1.112,1.112,2.26,1.65,3.371.609,1.291,1.22,2.547,1.829,3.837,1.075,2.26,2.151,4.482,3.191,6.742.932-2.474,1.9-4.913,2.833-7.351.573-1.4,1.148-2.833,1.721-4.231.215-.609.467-1.184.717-1.793-3.98-.108-7.961-.287-11.942-.574Zm26.824.681c-3.12.323-6.239.682-9.36,1.005l1.471,3.98c2.187-.215,4.411-.431,6.634-.645l1.613-4.34Zm2.295,1.793-.789,2.26c.5-.036,1.04-.072,1.542-.144Zm1.793-1.864,1.255,3.765,9.037-.861,1.47-3.442c-3.909.251-7.853.431-11.762.539Zm12.838-.179-1.148,2.94,2.26-.215Zm.932-.5,1.148,3.156,5.486,15.169v.036a.791.791,0,0,1,.287.036l2.51-16.029.5-3.336c-3.335.431-6.635.718-9.933.968Zm6.6,18.432c0,.036,0,.108-.072.108a.173.173,0,0,1-.215-.072,230.608,230.608,0,0,1-29.369,1.721c-4.626-.036-9.252-.143-13.878-.359a1.616,1.616,0,0,1-1.614.179,2.983,2.983,0,0,1-.431-.287c-4.662-.286-9.359-.681-14.021-1.326l2.4,15.42h55.117l2.4-15.42a.987.987,0,0,0-.322.036Zm-45.686,14.021c-6.957,0-6.921-10.758,0-10.758s6.921,10.758,0,10.758Zm18.073,0c-6.957,0-6.921-10.758,0-10.758s6.921,10.758,0,10.758Zm18.073-.645c-6.957,0-6.921-10.758,0-10.758S559.3,439.793,552.378,439.793Zm3.12-28.58-1.112-2.725-1.148,2.94-5.271,13.591c4.518.251,9.073.646,13.627,1.291Zm-13.95-2.546,1.255,3.765,3.765,11.367,5.272-12.229,1.47-3.442C549.4,408.379,545.457,408.559,541.548,408.667Zm-1.04,3.98-.753-2.116-.789,2.26-4.053,11.834c3.335.036,6.67.108,10.041.25Zm-3.048-3.909c-1.722,0-3.443.037-5.2.072-1.507-.035-3.013-.035-4.554-.072l.394,1.005,1.471,3.98,3.191,8.5,3.442-9.144,1.613-4.34Zm-11.368,5.308-.931-2.26-.968,2.474c-1.4,3.551-2.8,7.1-4.268,10.614,3.514-.143,7.029-.25,10.543-.286Zm-15.456-5.989c.574,1.112,1.112,2.26,1.65,3.371.609,1.291,1.22,2.547,1.829,3.837,1.075,2.26,2.151,4.482,3.191,6.742.932-2.474,1.9-4.913,2.833-7.351.573-1.4,1.148-2.833,1.721-4.231.215-.609.467-1.184.717-1.793-3.98-.108-7.961-.287-11.942-.574Zm.467,7.495c-.5-1.255-1.04-2.546-1.542-3.837-.287-.681-.538-1.4-.825-2.08-.395.754-.825,1.543-1.22,2.3-.717,1.4-1.47,2.8-2.223,4.2q-1.668,3.174-3.442,6.347a.133.133,0,0,1-.108.036l.574,3.873c4.231-.61,8.5-.968,12.73-1.255-1.292-3.191-2.619-6.383-3.945-9.574Zm3.012-.287c1.075,2.26,2.151,4.482,3.191,6.742.932-2.474,1.9-4.913,2.833-7.351-2.008.18-4.016.395-6.024.609Zm11.977-1.219c-.645.071-1.29.143-1.9.215-1.4,3.551-2.8,7.1-4.268,10.614,3.514-.143,7.029-.25,10.543-.286Zm3.479-.323,3.191,8.5,3.442-9.144c-2.223.215-4.447.43-6.634.645Zm10.936-1.076c-.5.072-1.04.108-1.542.144l-4.053,11.834c3.336.036,6.67.108,10.041.25Zm2.3-.215,3.765,11.367,5.272-12.229-9.037.862Zm12.694-1.22-2.26.215-5.271,13.591c4.518.251,9.073.646,13.627,1.291Zm-56.193-4.2.9,5.7.573,3.873.861,5.415c.753-1.937,1.506-3.837,2.259-5.738.538-1.4,1.112-2.761,1.685-4.124.573-1.434,1.148-2.869,1.757-4.3C504.649,407.627,502,407.339,499.306,407.016Z" transform="translate(290.881 217.796)" fill="#fbd206"/>
      <path id="Path_45609" data-name="Path 45609" d="M809.518,464.069c-3.211-2.444-4.934-6.3-6.418-9.976-.564-1.915-1.295-3.811-1.725-5.768l-1.213-5.9a139.149,139.149,0,0,1-.9-23.959c.141-8.012,1.339-15.905,2.267-23.831,1.452-7.825,2.571-15.739,4.471-23.464,1.782-7.756,3.565-15.51,5.818-23.132,2.17-7.646,4.255-15.313,6.929-22.8,2.586-7.508,4.907-15.1,7.783-22.5,2.91-7.388,5.672-14.82,8.7-22.148-4.218,15.309-9.1,30.359-13.209,45.635l-3.195,11.415-2.941,11.476c-.95,3.83-2.1,7.614-2.95,11.464l-2.595,11.541c-1.972,7.648-3.082,15.446-4.665,23.166-1.163,7.773-2.386,15.553-3.014,23.379a139.951,139.951,0,0,0-.345,23.493l.7,5.825c.258,1.941.811,3.814,1.2,5.739C805.4,457.4,806.651,461.281,809.518,464.069ZM256.8,322.994c-1.776,5.02-3.79,9.937-5.805,14.853l-8.024,13.521-15.4,26.019h-5.941l.922-1.537,16.014-27.077,8.024-13.555C249.94,331.121,253.253,326.99,256.8,322.994Zm-37.491,17L217.4,356.73l-2.356,20.658h-5.157l2.425-21.239,1.878-16.731c1.4-5.5,2.765-10.995,4.472-16.424C219.074,328.7,219.209,334.331,219.313,340Zm-21.136,37.389h3.244l-1.81-12.668-1.468-10.175-2.254-15.98c-1.537-5.19-3.039-10.414-4.849-15.57-.239,4.473-.307,8.912-.273,13.351v2.971l.649,4.4,1.673,11.541,3.175,22.126Zm-10.824,0H182.2l-3.209-22.126L176.7,339.316c-.035-5.429-.035-10.858.273-16.321,1.81,5.157,3.312,10.38,4.849,15.57l2.253,15.98,2.185,15.228Z" transform="translate(18.6 152.589)" fill="#fbd206"/>
      <path id="Path_45610" data-name="Path 45610" d="M193.8,320.113v3l-.034,12.7v20.965h-5.122V320.113c.751-5.224,1.5-10.449,2.561-15.707.751,3.79,1.4,7.58,1.946,11.336C193.392,317.211,193.6,318.645,193.8,320.113Zm15.775,2.628-1.776,15.6-2.083,18.439h-5.156L202,344.117l.717-6.351,1.741-15.6c1.331-5.122,2.663-10.243,4.3-15.3C209.235,312.157,209.405,317.45,209.576,322.742Zm-35.648,54.939V396.12c.889-.1,1.776-.171,2.663-.273l7.683-17.243C180.826,378.364,177.378,378.091,173.928,377.681Zm11.3,1.23L177,395.813c4.951-.513,9.936-.854,14.888-1.059Zm1.093-.171,7.034,15.16,5.6-14.647C194.757,379.184,190.523,378.979,186.323,378.74Zm14.409,1.981-5.77,13.931c3.653-.137,7.272-.205,10.926-.238ZM208,379.389c-1.776-.034-3.585-.068-5.36-.068l5.224,12.873,4.439-12.873c-1.435.034-2.868.034-4.3.068Zm6.591,3.244-4.473,11.781c2.868.033,5.736.068,8.6.17-1.434-3.995-2.8-7.955-4.131-11.951Zm2.39-3.379c1.468,4.063,2.868,8.126,4.234,12.189,1.844-4.2,3.654-8.365,5.532-12.531-3.244.17-6.488.273-9.766.342Zm11.677,1.571c-1.707,4.643-3.482,9.253-5.258,13.9,3.926.137,7.853.376,11.746.717-2.254-4.848-4.371-9.7-6.488-14.613Zm-54.734-24.038v20.9A291.742,291.742,0,0,1,208,375.974c2.083,0,4.166.034,6.249.068a1.689,1.689,0,0,1,.922,0c4.371.068,8.707.239,13.044.478a1.244,1.244,0,0,1,.341-.067,1.371,1.371,0,0,1,.513.1c4.336.273,8.673.614,13.009,1.126v-20.9Zm7.956,15.263c-6.624,0-6.59-10.243,0-10.243s6.591,10.243,0,10.243Zm18.438,0c-6.624,0-6.59-10.243,0-10.243s6.591,10.243,0,10.243Zm17.824-.614c-6.624,0-6.59-10.243,0-10.243s6.59,10.243,0,10.243Zm17.516.614c-6.624,0-6.59-10.243,0-10.243s6.591,10.243,0,10.243Zm-5.5,6.658c1.911,5.565,3.755,11.131,5.463,16.766,2.152.2,4.3.375,6.453.649V377.681c-3.961.444-7.921.785-11.916,1.024Zm-44.935.205L177,395.813c4.951-.513,9.936-.854,14.888-1.059Zm1.093-.171,7.034,15.16,5.6-14.647c-4.2-.068-8.434-.273-12.633-.513Zm14.409,1.981-5.77,13.931c3.653-.137,7.272-.205,10.926-.238ZM208,379.389c-1.776-.034-3.585-.068-5.36-.068l5.224,12.873,4.439-12.873c-1.435.034-2.868.034-4.3.068Zm6.591,3.244-4.473,11.781c2.868.033,5.736.068,8.6.17-1.434-3.995-2.8-7.955-4.131-11.951Zm2.39-3.379c1.468,4.063,2.868,8.126,4.234,12.189,1.844-4.2,3.654-8.365,5.532-12.531-3.244.17-6.488.273-9.766.342Zm11.677,1.571c-1.707,4.643-3.482,9.253-5.258,13.9,3.926.137,7.853.376,11.746.717-2.254-4.848-4.371-9.7-6.488-14.613Zm-43.432-1.912L177,395.813c4.951-.513,9.936-.854,14.888-1.059Zm1.093-.171,7.034,15.16,5.6-14.648c-4.2-.068-8.434-.273-12.633-.513Zm14.409,1.981-5.77,13.931c3.653-.137,7.272-.205,10.926-.238ZM208,379.389c-1.776-.034-3.585-.068-5.36-.068l5.224,12.873,4.439-12.873c-1.435.034-2.868.034-4.3.068Zm6.591,3.244-4.473,11.781c2.868.033,5.736.068,8.6.17-1.434-3.995-2.8-7.955-4.131-11.951Zm2.39-3.379c1.468,4.063,2.868,8.126,4.234,12.189,1.844-4.2,3.654-8.365,5.532-12.531-3.244.17-6.488.273-9.766.342Zm11.677,1.571c-1.707,4.643-3.482,9.253-5.258,13.9,3.926.137,7.853.376,11.746.717-2.254-4.848-4.371-9.7-6.488-14.613Zm-54.734,35.271v4.234a34.077,34.077,0,1,0,68.153,0v-4.234a340.942,340.942,0,0,1-68.153,0Zm48.008-18.54a1.645,1.645,0,0,1-1.5.171,2.1,2.1,0,0,1-.205-.137c-4.063.137-8.16.205-12.224.239a307.437,307.437,0,0,1-34.076-1.707v19.974A291.728,291.728,0,0,1,208,414.387a292.45,292.45,0,0,1,34.076,1.707V396.12c-6.726.785-13.419,1.195-20.145,1.434Zm-38.516,13.829c-6.624,0-6.59-10.243,0-10.243s6.59,10.243,0,10.243Zm15.673-.308c-6.624,0-6.59-10.243,0-10.243s6.59,10.243,0,10.243Zm17.209,0c-6.624,0-6.59-10.243,0-10.243s6.59,10.243,0,10.243Zm17.209-.614c-6.624,0-6.591-10.243,0-10.243s6.59,10.243,0,10.243Zm1.639-15.024c-2.254-4.848-4.371-9.7-6.488-14.613-1.707,4.643-3.482,9.253-5.258,13.9,3.926.137,7.853.376,11.746.717Zm-8.4-16.526c-3.244.17-6.488.273-9.766.342,1.468,4.063,2.868,8.126,4.234,12.189,1.844-4.2,3.654-8.365,5.532-12.531Zm-8.024,15.672c-1.434-3.995-2.8-7.955-4.131-11.951l-4.473,11.78c2.868.033,5.736.068,8.6.17Zm-6.419-15.263c-1.435.034-2.868.034-4.3.068-1.776-.034-3.585-.068-5.36-.068l5.224,12.873Zm-6.42,15.093-5.156-13.692-5.77,13.931c3.653-.137,7.273-.205,10.926-.239Zm-6.932-15.16c-4.2-.068-8.434-.273-12.633-.513l7.034,15.16Zm-13.726-.342L177,395.813c4.951-.513,9.936-.854,14.888-1.059Zm43.432,1.912c-1.707,4.643-3.482,9.253-5.258,13.9,3.926.137,7.853.376,11.746.717-2.254-4.849-4.371-9.7-6.488-14.614Zm-11.677-1.571c1.468,4.063,2.868,8.126,4.234,12.189,1.844-4.2,3.654-8.365,5.532-12.531-3.244.17-6.488.273-9.766.342Zm-2.39,3.379-4.473,11.781c2.868.033,5.736.068,8.6.17C217.293,390.588,215.927,386.628,214.6,382.632ZM208,379.389c-1.776-.034-3.585-.068-5.36-.068l5.224,12.873,4.439-12.873c-1.435.034-2.869.034-4.3.068Zm-7.272,1.332-5.77,13.931c3.653-.137,7.273-.205,10.926-.238Zm-14.409-1.981,7.034,15.16,5.6-14.647c-4.2-.068-8.434-.273-12.634-.513Zm-1.093.171L177,395.813c4.951-.513,9.936-.854,14.888-1.059Zm43.432,1.912c-1.707,4.643-3.482,9.253-5.258,13.9,3.926.137,7.853.376,11.746.717-2.254-4.848-4.371-9.7-6.488-14.613Zm-11.677-1.571c1.468,4.063,2.868,8.126,4.234,12.189,1.844-4.2,3.654-8.365,5.532-12.531-3.244.17-6.488.273-9.766.342Zm-2.39,3.38-4.473,11.781c2.868.033,5.736.068,8.6.17C217.293,390.588,215.927,386.628,214.6,382.632ZM208,379.389c-1.776-.034-3.585-.068-5.36-.068l5.224,12.873,4.439-12.873c-1.435.034-2.869.034-4.3.068Zm-7.272,1.332-5.77,13.931c3.653-.137,7.273-.205,10.926-.238Zm-14.409-1.981,7.034,15.16,5.6-14.647c-4.2-.068-8.434-.273-12.634-.513Zm-1.093.171L177,395.813c4.951-.513,9.936-.854,14.888-1.059Zm315.8-6.616c1.315,4.921,2.783,9.714,4.223,14.519,1.489,4.788,2.98,9.567,4.547,14.325.736,2.395,1.524,4.774,2.321,7.152.709,2.41,1.6,4.756,2.309,7.173.776,2.392,1.55,4.79,2.275,7.212s1.5,4.831,2.1,7.321c-1.362-2.159-2.582-4.389-3.8-6.625-1.129-2.272-2.281-4.541-3.3-6.866a144.028,144.028,0,0,1-5.46-14.223,127.7,127.7,0,0,1-3.814-14.774,67.923,67.923,0,0,1-1.408-15.214Z" transform="translate(16.215 173.192)" fill="#fbd206"/>
      <path id="Path_45611" data-name="Path 45611" d="M296.185,346.143a10.533,10.533,0,0,0-.206-2.072l.019,0v.019A10.241,10.241,0,0,1,296.185,346.143Z" transform="translate(121.828 207.515)" fill="#fbd206"/>
      <path id="Path_45612" data-name="Path 45612" d="M293.772,343.685c2.164.429,4.309.839,6.473,1.25l9.271,1.735a32.661,32.661,0,0,1-.9,8.469v.019l-9.979-1.865c-2.574-.485-5.13-.989-7.7-1.511-.429-.056-.839-.149-1.268-.243-3.1-.6-6.211-1.194-9.308-1.809a43.3,43.3,0,0,0,.186-8.636c2.667.541,5.354,1.063,8.021,1.586l.653.131" transform="translate(108.312 204.937)" fill="#fbd206"/>
    </g>
    <path id="Path_45613" data-name="Path 45613" d="M1162.089,1131.385l-30.192,48.236,27.385-1.261v14.869l30.407-50.173-27.6,3.645Z" transform="translate(1404.025 8459.8) rotate(16)" fill="#fbd206"/>
    <path id="Path_45615" data-name="Path 45615" d="M1162.089,1131.385l-30.192,48.236,27.385-1.261v14.869l30.407-50.173-27.6,3.645Z" transform="translate(647.511 11242.072) rotate(-93)" fill="#fbd206"/>
  </g>
</svg>
