<svg xmlns="http://www.w3.org/2000/svg" width="2550" height="1098.601" viewBox="0 0 2550 1098.601">
  <g id="Group_5520" data-name="Group 5520" transform="translate(0 -9294)">
    <g id="Group_5513" data-name="Group 5513">
      <g id="Group_5512" data-name="Group 5512">
        <g id="Group_5511" data-name="Group 5511">
          <rect id="Rectangle_42079" data-name="Rectangle 42079" width="2550" height="1089" transform="translate(0 9294)" fill="#5504b0"/>
          <g id="Group_5506" data-name="Group 5506">
            <g id="drawing" transform="translate(1417.261 9718.242)">
              <path id="Path_45586" data-name="Path 45586" d="M274.315,541.918a39.961,39.961,0,0,1-2.93-7.9,34.081,34.081,0,0,1-1.141-8.228,22.984,22.984,0,0,1,1.466-8.116,19.18,19.18,0,0,1,4.606-6.606,18.63,18.63,0,0,0-3.6,6.938,21.4,21.4,0,0,0-.354,7.644,31.438,31.438,0,0,0,2.05,7.371,36.577,36.577,0,0,0,3.525,6.67ZM470.963,325.75c-25.368,38.444-48.946,79.687-53.273,87.3a152.808,152.808,0,0,1-7.573-29.938s-.149.261-.429.746a38.689,38.689,0,0,1-.522-4.365c-.205-2.2-.28-4.421-.28-6.622a130.36,130.36,0,0,1,.746-13.225,83.216,83.216,0,0,0,.41-13.468,40.647,40.647,0,0,0-2.537-13.169,37.289,37.289,0,0,1,.914,6.585,65.431,65.431,0,0,1,.205,6.622q-.112,6.631-.839,13.225a79.288,79.288,0,0,0-.336,13.468,45.64,45.64,0,0,0,2,11.322,178.316,178.316,0,0,1-22.216,28.483,103.074,103.074,0,0,1-25.406,19.4c-16.788,9.178-45.961,25.126-52.341,28.633a28.372,28.372,0,0,0,.783-6.827c0-8.357,4.887-18.317,7.107-26.264v-.019l11.733,2.2c7.48.037,14.979.093,22.514-.522-7.014-2.761-14.009-5.279-20.985-7.853l-12.367-2.313a6.113,6.113,0,0,0-2.873-4.178c-5.783-3.563-10-3.563-12.871,1.212l-4.551-.876c-3.04-15.053-9.457-20.089-13.9-21.75a10.862,10.862,0,0,0-4.7-.783s.056-.037.149-.112c2.723-2.127,44.264-34.788,66.928-69.875,23.447-36.318,47.267-58.627,72.6-59.205,0,0,26.264-.187,39.116.933C461.879,270.705,467.139,309.615,470.963,325.75Zm4.477,144.991a15.409,15.409,0,0,0,1.6.373h-34Zm30.33-193.172c.933-5.465,1.13-4.739,6.047-11.621,0,0,3.839-7.517,14.881-8.636C520.954,260.744,513.735,267.982,505.77,277.569ZM656.189,471.115H483.834c24.193-4.57,53.441-54.244,77.168-104.159a102.649,102.649,0,0,0,1.119,12.181c.56,4.085,1.585,8.1,2.35,12.05a118.371,118.371,0,0,1,1.474,12.032,81.914,81.914,0,0,1-.131,12.105,50.725,50.725,0,0,1-2.276,11.789l-.019.056-.019.093a58.865,58.865,0,0,0-.5,10.39,63.373,63.373,0,0,0,1.231,10.277,45.527,45.527,0,0,0,3.19,9.83,39.669,39.669,0,0,0,5.409,8.73,43.054,43.054,0,0,1-4.887-8.954,49.888,49.888,0,0,1-2.723-9.793,62.258,62.258,0,0,1-.149-20.146c-.019.037-.019.056-.037.093l.037-.149a53,53,0,0,0,2.462-12.05,85.817,85.817,0,0,0,.242-12.385,96.554,96.554,0,0,0-1.567-12.255c-.821-4.066-1.847-7.984-2.444-11.976a129.525,129.525,0,0,1-1.436-14.755c24.51-52.042,42.772-103.469,42.772-103.469,12.815,3.6,23.466,9.495,29.155,18.8a62.144,62.144,0,0,0,3.525,5.2C646.228,295.607,672.231,328.194,656.189,471.115Z" transform="translate(99.559 132.441)" fill="#fff"/>
              <path id="Path_45587" data-name="Path 45587" d="M409.781,374.514c-1.707-6.085-2.971-12.273-4.324-18.431L401.7,337.567l-1.982-9.209c-.674-3.055-1.365-6.117-2.225-9.063-.212-.738-.417-1.483-.678-2.167a12.583,12.583,0,0,0-.783-1.949,15.172,15.172,0,0,0-2.442-3.438,14.432,14.432,0,0,0-3.225-2.635,11.7,11.7,0,0,0-1.833-.867,8.1,8.1,0,0,0-1.749-.447l.936-.184a28.573,28.573,0,0,1-7.072,2.178,22.067,22.067,0,0,1-7.505.026,14.322,14.322,0,0,1-7.025-3.291,26.627,26.627,0,0,1-4.643-5.721,93.1,93.1,0,0,1-6.35-12.484c-1.836-4.257-3.5-8.552-5.007-12.939l1.085.717a11.185,11.185,0,0,1-5.414-.976,5.319,5.319,0,0,1-2.19-2.044,6.34,6.34,0,0,1-.8-2.787,13.9,13.9,0,0,1,.861-5.252,25.681,25.681,0,0,1,2.167-4.716,14.28,14.28,0,0,0,2.488-9.121,12.5,12.5,0,0,0-1.329-4.577c-.766-1.413-1.637-2.943-2.336-4.48a29.258,29.258,0,0,1-1.787-4.806,46.534,46.534,0,0,1-1.228-4.951c-.393-1.66-.528-3.362-.8-5.046-.123-1.7-.3-3.4-.272-5.112a49.5,49.5,0,0,1,.97-10.212,41.461,41.461,0,0,1,3.223-9.9,1.313,1.313,0,0,1,2.363.006l.066.136a84.925,84.925,0,0,0,10.47,16.348,66.735,66.735,0,0,0,14.1,13.1,46.431,46.431,0,0,0,8.365,4.559A41.281,41.281,0,0,0,389.176,239a48.141,48.141,0,0,0,18.839-.452l.122-.025a2.115,2.115,0,0,1,2.055.735,17.766,17.766,0,0,1,2,3.066,27.169,27.169,0,0,1,1.425,3.077,40.959,40.959,0,0,1,1.938,6.356,58.273,58.273,0,0,1,1.155,12.98,78.786,78.786,0,0,1-1.268,12.8c-.39,2.162-.63,4.061-.941,6.075a28.491,28.491,0,0,0-.195,2.99,19.6,19.6,0,0,0-.022,2.985A25.883,25.883,0,0,0,417.1,300.9a19.28,19.28,0,0,0,8,8.13,22.536,22.536,0,0,0,11.491,2.466,40.554,40.554,0,0,0,11.9-2.578l.076-.028a.728.728,0,0,1,.965.814c-.869,4.787-1.721,9.571-2.642,14.338a.213.213,0,0,1-.249.169.222.222,0,0,1-.171-.239c.484-4.834,1.037-9.649,1.574-14.462l1.041.786a38.639,38.639,0,0,1-12.36,3.435,25.086,25.086,0,0,1-12.9-2.136,21.427,21.427,0,0,1-9.685-9.072,29.426,29.426,0,0,1-3.609-12.721,22.459,22.459,0,0,1-.079-3.284,32.06,32.06,0,0,1,.115-3.275c.253-2.133.493-4.394.785-6.362a85.827,85.827,0,0,0,.978-12.182,53.85,53.85,0,0,0-1.224-11.968,37.9,37.9,0,0,0-1.712-5.642,22.777,22.777,0,0,0-1.2-2.619,14.7,14.7,0,0,0-1.391-2.205l2.177.71a50.167,50.167,0,0,1-20.623.238,45.494,45.494,0,0,1-9.876-3.158,50.463,50.463,0,0,1-8.969-5.087,66.416,66.416,0,0,1-14.57-14.212A79.317,79.317,0,0,1,344.685,203.3l2.428.142a43.767,43.767,0,0,0-4.686,18.8,42.69,42.69,0,0,0,.725,9.846,45.031,45.031,0,0,0,1.124,4.827,27.832,27.832,0,0,0,1.647,4.639c.67,1.527,1.443,2.926,2.252,4.472a14.919,14.919,0,0,1,1.423,5.042,15.628,15.628,0,0,1-2.58,9.963,18.027,18.027,0,0,0-2.535,9.106,3.714,3.714,0,0,0,2.17,3.247,9.282,9.282,0,0,0,4.425.528,1.055,1.055,0,0,1,1.062.658l.023.059c1.686,4.218,3.549,8.406,5.541,12.491a90.121,90.121,0,0,0,6.68,11.744,23.629,23.629,0,0,0,4.1,4.845,11.388,11.388,0,0,0,5.329,2.372,22.686,22.686,0,0,0,12.262-1.866l.163-.069a1.576,1.576,0,0,1,.774-.115,11,11,0,0,1,2.82.7,15.4,15.4,0,0,1,2.417,1.178,18.09,18.09,0,0,1,4.029,3.362,17.777,17.777,0,0,1,2.938,4.283,15.684,15.684,0,0,1,.925,2.448c.277.8.47,1.577.673,2.359,1.611,6.239,2.619,12.448,3.631,18.688l2.87,18.691c.874,6.24,1.819,12.459,2.878,18.666a.213.213,0,0,1-.171.248.217.217,0,0,1-.243-.152Z" transform="translate(160.403 84.043)" fill="#fbd206"/>
              <path id="Path_45588" data-name="Path 45588" d="M345.643,294.394c-.457,3.38-.854,6.746-1.232,10.1-.353,3.36-.661,6.716-.769,10.07a53.794,53.794,0,0,0,.423,9.985,19.8,19.8,0,0,0,1.3,4.763,9.4,9.4,0,0,0,2.945,3.965,8.867,8.867,0,0,1-3.7-3.581,17.5,17.5,0,0,1-1.865-4.885,40.158,40.158,0,0,1-.825-10.307,73.007,73.007,0,0,1,3.721-20.112Zm-1.025-71.613a6.533,6.533,0,0,1-.593-5.092l.345-1.27.544-1.178c.188-.391.365-.794.576-1.172l.726-1.063a28.62,28.62,0,0,1,3.263-3.963c1.218-1.183,2.515-2.273,3.786-3.406a103.992,103.992,0,0,1,17.159-10.532c3.017-1.432,6.067-2.8,9.116-4.164,3.083-1.266,6.186-2.488,9.3-3.689,3.117-1.141,6.282-2.126,9.429-3.171,1.592-.479,3.127-1.023,4.829-1.493a48.625,48.625,0,0,1,5.009-1.066,49.824,49.824,0,0,1,20.147.82,42.038,42.038,0,0,1,17.685,9.37,55.458,55.458,0,0,1,12.125,16.063A86.2,86.2,0,0,1,465,226.723l.031.178a97.647,97.647,0,0,0,8.575,25.962,87.807,87.807,0,0,0,6.931,11.77c1.249,1.906,2.69,3.658,4.1,5.443,1.429,1.762,3.03,3.375,4.575,5.034l5.059,4.686,2.652,2.47c.9.8,1.642,1.778,2.469,2.658A47.509,47.509,0,0,1,507.348,297a41.862,41.862,0,0,1,2.967,27.99.212.212,0,0,1-.415-.083l0-.024a40.874,40.874,0,0,0-.547-13.765,43.046,43.046,0,0,0-4.672-12.782,25.938,25.938,0,0,0-1.741-2.914c-.64-.935-1.217-1.907-1.9-2.807a52.21,52.21,0,0,0-4.438-5.126c-.808-.793-1.516-1.678-2.4-2.394l-2.577-2.218-5.405-4.68A77.918,77.918,0,0,1,469.6,254.788a101.267,101.267,0,0,1-5.1-13.4,87.508,87.508,0,0,1-3.131-14.037l.031.177a99.269,99.269,0,0,0-5.654-18.652,49.326,49.326,0,0,0-10.8-16.088,38.971,38.971,0,0,0-7.889-5.7,35.107,35.107,0,0,0-9.143-3.326,44.085,44.085,0,0,0-19.281.459,45.677,45.677,0,0,0-4.625,1.33c-1.46.514-3.009,1.182-4.552,1.769l-9.292,3.477c-3.051,1.229-6.108,2.437-9.185,3.6l-9.044,3.888a127.594,127.594,0,0,0-17.179,9.348c-1.279.975-2.6,1.919-3.845,2.945a30.014,30.014,0,0,0-3.383,3.4l-.774.917c-.225.323-.41.668-.625,1l-.626,1.011-.435,1.087a6.069,6.069,0,0,0-.106,4.543l.02.044a.21.21,0,0,1-.368.2Zm5.263,41.105a40.911,40.911,0,0,1,9.549-5.1,36.1,36.1,0,0,1,5.215-1.566,13.453,13.453,0,0,1,5.467-.252,33.985,33.985,0,0,0-5.1,1.544l-4.969,1.881C356.717,261.641,353.4,262.931,349.882,263.887Zm9.309,11.892A2.584,2.584,0,1,0,356.7,273.2a2.584,2.584,0,0,0,2.495,2.583Zm-4.165,31.289a36.4,36.4,0,0,0,7.613-.609c1.23-.24,2.457-.514,3.688-.852,1.239-.32,2.461-.72,3.787-1.028a14.3,14.3,0,0,1-7.162,3.572,14.516,14.516,0,0,1-4.072.147A9.08,9.08,0,0,1,355.025,307.067Z" transform="translate(161.541 66.287)" fill="#fbd206"/>
              <path id="Path_45589" data-name="Path 45589" d="M428.317,348.572v.056c-.019.037-.019.056-.037.093Z" transform="translate(236.31 211.409)" fill="#fbd206"/>
              <path id="Path_45590" data-name="Path 45590" d="M375.478,325.208a129.464,129.464,0,0,1,8.527-16.434c3.133-5.293,6.544-10.4,10.118-15.386s7.349-9.836,11.39-14.481a110.9,110.9,0,0,1,13.051-13.157c-3,5.457-6.216,10.655-9.559,15.78-3.309,5.146-6.776,10.169-10.341,15.126s-7.237,9.837-11.086,14.6C383.758,316.041,379.817,320.74,375.478,325.208Z" transform="translate(190.62 139.742)" fill="#fbd206"/>
              <path id="Path_45591" data-name="Path 45591" d="M486.129,263.021c-24.977-7.051-58.123-5.391-78.4-3.339a17.486,17.486,0,0,1,3.88-1.772S469.509,247.688,486.129,263.021Z" transform="translate(218.527 130.07)" fill="#fbd206"/>
              <path id="Path_45592" data-name="Path 45592" d="M704.9,264.535a20.519,20.519,0,0,0-2.367-.148,25.944,25.944,0,0,1-2.873-.263c-1.636-.16-3.268-.3-4.881-.5-1.629-.13-3.255-.25-4.868-.427-1.621-.133-3.25-.2-4.863-.361l-9.725-.574c-3.246-.125-6.488-.32-9.74-.548-6.5-.461-13.056-1.259-19.619-1.174a118.978,118.978,0,0,0-19.56,1.979l-6.567,1.171,5.67-3.89a19.024,19.024,0,0,1,4.12-2.225l.2-.047a148.891,148.891,0,0,1,19.009-3.355c3.194-.393,6.4-.684,9.62-.931,3.221-.153,6.453-.33,9.692-.231a91.907,91.907,0,0,1,19.392,2.2,46.964,46.964,0,0,1,9.357,3.166,29.568,29.568,0,0,1,4.295,2.5c.683.463,1.306,1.03,1.948,1.533a6.108,6.108,0,0,1,1.017,1.092C704.459,263.924,704.663,264.273,704.9,264.535Zm-.488-.273a4.17,4.17,0,0,0-1.108-.48,3.905,3.905,0,0,1-.864-.374c-.712-.331-1.379-.71-2.1-.989a40.635,40.635,0,0,0-4.4-1.425,59.993,59.993,0,0,0-9.126-1.536,157.1,157.1,0,0,0-18.659-.558c-6.253.146-12.534.344-18.828.7-6.284.384-12.6.959-18.878,1.448l.2-.047a15.434,15.434,0,0,0-3.639,1.318l-.9-2.719c6.619-.155,13.2-.383,19.771-.906,6.57-.507,13.164-1.514,19.811-1.677,1.66-.026,3.322-.088,4.982.017,1.661.065,3.322.1,4.977.295,1.657.165,3.314.283,4.968.488,1.65.243,3.3.456,4.944.73a98.288,98.288,0,0,1,9.765,2.167c1.605.467,3.19,1,4.772,1.513a20.767,20.767,0,0,1,1.9.96A15.027,15.027,0,0,0,704.413,264.262ZM517.954,424.172c3.25.793,6.341,1.527,9.433,2.167,3.1.6,6.164,1.088,9.24,1.4,1.536.209,3.076.238,4.621.367,1.539-.006,3.1.123,4.655.048,3.146.025,6.248-.41,9.623-.6a24.842,24.842,0,0,1-9.231,3.9,30.424,30.424,0,0,1-10.109.518,34.5,34.5,0,0,1-9.771-2.47A26.806,26.806,0,0,1,517.954,424.172Zm78.929,5.957c3.25.793,6.341,1.527,9.433,2.167,3.1.6,6.164,1.088,9.24,1.4,1.536.209,3.076.238,4.621.367,1.539-.006,3.1.123,4.655.048,3.146.025,6.248-.41,9.623-.6a24.841,24.841,0,0,1-9.231,3.9,30.425,30.425,0,0,1-10.109.518,34.5,34.5,0,0,1-9.771-2.47A26.8,26.8,0,0,1,596.883,430.128Zm-263.293,41.04a29.2,29.2,0,0,1,4.384,7.965h-.914q-45.383-.028-90.748-.877c-30.255-.615-60.511-1.362-90.766-2.649a.363.363,0,0,1-.354-.392.381.381,0,0,1,.354-.354c30.255-1.324,60.492-2.089,90.748-2.723Q289.941,471.271,333.589,471.169Zm95.821.466a36.969,36.969,0,0,0-3.395,6.827q-14.633.168-29.248.3a18.725,18.725,0,0,0,9.215-7.312Q417.706,471.532,429.411,471.635Zm452.544,2.873a.343.343,0,0,1-.354.354c-30.237,1.343-60.492,2.145-90.748,2.611l-22.682.3-12.143.093-10.558.075c-7.555.056-15.128.112-22.682.075q-11.36.028-22.7-.131c-14.717-.2-29.435-.541-44.152-.877-15.519-.354-31.058-.69-46.6-.9-30.255-.317-60.511-.037-90.766.672q-20.341.531-40.683.9c-3.973-1.735-8.469-3.675-12.945-5.615q26.8.363,53.628,1.007,45.383.979,90.766.466c30.237-.466,60.492-1.492,90.748-2q11.332-.168,22.682-.187c7.573-.056,15.128-.019,22.7.019l22.682.112,22.7.261c30.237.392,60.492,1.1,90.748,2.369a.374.374,0,0,1,.354.392Z" transform="translate(0 128.693)" fill="#fbd206"/>
              <path id="Path_45593" data-name="Path 45593" d="M552.268,379.016c-12.282,1.746-24.62,3.149-36.954,4.415q-18.515,1.809-37.044,3.43c-12.351,1.105-24.718,2-37.079,2.967-12.365.918-24.722,1.928-37.1,2.706h-.016a1.875,1.875,0,0,1-.322-.009l-33.241-3.9-.027,0a1.637,1.637,0,0,1-.474-.131c-13.143-5.934-26.274-11.9-39.467-17.7-3.293-1.43-6.618-2.911-9.9-4.2-1.031-.665-2.621.439-3.97,1.4a25.314,25.314,0,0,0-3.759,3.615,35.939,35.939,0,0,0-8.352,19.11.759.759,0,0,1-.114.326c-1.531,2.334-3.031,4.688-4.434,7.091a50.651,50.651,0,0,0-3.7,7.412,9.464,9.464,0,0,0-.243,7.652,79.814,79.814,0,0,1,4.057,7.384.749.749,0,0,1,.026.45l0,.009a18.479,18.479,0,0,0-.517,5.14,11.87,11.87,0,0,0,1.191,4.9,7.641,7.641,0,0,0,3.439,3.443,10.433,10.433,0,0,0,2.337.919c.818.218,1.688.292,2.529.439h-.159a45.787,45.787,0,0,0,6.97-1.579,39.324,39.324,0,0,0,6.6-2.673,25.745,25.745,0,0,0,3.025-1.812c.973-.653,1.8-1.471,2.714-2.191a15.3,15.3,0,0,0,3.884-5.553,1.124,1.124,0,0,1,2.113.07l.027.086a24.378,24.378,0,0,0,11.967,14.188,30.543,30.543,0,0,0,18.735,2.012c6.306-1.308,12.881-3.268,19.279-5.049,6.379-1.865,12.948-3.706,18.914-6.044l.041-.016a2.023,2.023,0,0,1,.942-.126c23.091,2.48,46.252,4.562,69.405,6.457,23.149,1.975,46.328,3.625,69.516,4.647,11.591.558,23.19.949,34.773.934,5.791-.012,11.578-.129,17.343-.444a130.39,130.39,0,0,0,17.1-1.886,27.236,27.236,0,0,0,7.834-2.559,8.456,8.456,0,0,0,1.5-1.074l1.4-1.566a25.933,25.933,0,0,0,2.589-3.318,50.731,50.731,0,0,0,6.889-15.538,104.382,104.382,0,0,0,2.854-34.4.213.213,0,0,1,.187-.235.221.221,0,0,1,.235.185,109.893,109.893,0,0,1,.709,17.477,93.3,93.3,0,0,1-2.185,17.43,52,52,0,0,1-6.715,16.4,28.207,28.207,0,0,1-2.668,3.626l-1.461,1.729a10.909,10.909,0,0,1-1.981,1.53,29.589,29.589,0,0,1-8.579,3.117,119.931,119.931,0,0,1-17.494,2.371c-5.841.42-11.682.639-17.518.753-11.673.218-23.332.026-34.979-.332-23.289-.857-46.521-2.484-69.724-4.358q-34.795-3.005-69.474-7.083l.982-.142c-3.3,1.313-6.5,2.26-9.748,3.219s-6.483,1.836-9.73,2.707l-9.755,2.542c-3.219.852-6.568,1.588-9.964,2.255A33.115,33.115,0,0,1,345,438.881a26.89,26.89,0,0,1-12.885-16.1l2.14.156a17.467,17.467,0,0,1-4.545,6.227c-1.008.774-1.953,1.647-3.017,2.328a27.776,27.776,0,0,1-3.277,1.865A41.147,41.147,0,0,1,316.444,436a47.306,47.306,0,0,1-7.3,1.479l-.048.005a.361.361,0,0,1-.111,0c-.93-.181-1.874-.262-2.791-.517a12.012,12.012,0,0,1-2.672-1.077,9.18,9.18,0,0,1-4.037-4.118,13.337,13.337,0,0,1-1.311-5.532,19.8,19.8,0,0,1,.615-5.585l.023.457a24.766,24.766,0,0,0-1.837-3.645,38.89,38.89,0,0,1-2.132-3.708,8.785,8.785,0,0,1-.778-4.416,15.782,15.782,0,0,1,1.049-4.242,53.48,53.48,0,0,1,3.716-7.646c1.394-2.451,2.88-4.838,4.394-7.2l-.114.325a37.505,37.505,0,0,1,8.5-20.058,27.655,27.655,0,0,1,3.922-3.974,13.309,13.309,0,0,1,2.438-1.6,5.235,5.235,0,0,1,1.578-.5,2.969,2.969,0,0,1,1.026.036c.262.075.522.155.729.23,3.464,1.249,6.768,2.616,10.128,3.965,13.376,5.432,26.662,11.056,39.966,16.634l-.5-.134,33.276,3.595-.337-.008,74.2-4.9q18.555-1.163,37.1-2.467l18.546-1.277,18.524-1.526a.213.213,0,0,1,.237.186A.221.221,0,0,1,552.268,379.016Z" transform="translate(120.146 225.123)" fill="#fbd206"/>
              <path id="Path_45594" data-name="Path 45594" d="M374.344,452.452a16.864,16.864,0,0,1,4.116-3.143,7.409,7.409,0,0,1,5.2-.912,7.155,7.155,0,0,1,4.175,3.461c.421.794.8,1.618,1.145,2.447l.8,2.551a.869.869,0,1,1-1.66.518c-.007-.023-.013-.046-.018-.069l-.02-.091-.54-2.434c-.251-.777-.533-1.553-.848-2.3a6.093,6.093,0,0,0-3.271-3.245,6.764,6.764,0,0,0-4.771.47A16.643,16.643,0,0,0,374.344,452.452Zm-19.859,2.4a120.415,120.415,0,0,0,7.558-10.719,60.1,60.1,0,0,0,3.185-5.738,19.611,19.611,0,0,0,2.033-6.218,19.812,19.812,0,0,1-1.635,6.392,60.751,60.751,0,0,1-2.831,6,121.668,121.668,0,0,1-6.921,11.328.869.869,0,0,1-1.433-.982l.032-.044Zm-3.781-6.695,16.557-27.8L352.218,449a.868.868,0,0,1-1.537-.807Zm8.108-23.465,10.949-15.148-9.5,16.1a.869.869,0,0,1-1.5-.883C358.781,424.732,358.8,424.709,358.812,424.687Zm-39.7-89.1a7.064,7.064,0,0,0-3.316-.615,23.19,23.19,0,0,0-3.409.262,12.746,12.746,0,0,0-5.919,2.855,15.287,15.287,0,0,0-3.767,5.331,20.608,20.608,0,0,0-1.624,6.37,1.316,1.316,0,0,1-2.589.2l-.01-.042a48.743,48.743,0,0,0-4.2-11.345,21.721,21.721,0,0,0-7.637-8.542,12.061,12.061,0,0,0-2.466-1.156,6.113,6.113,0,0,0-1.2-.3l-1.475-.187a15.48,15.48,0,0,0-5.6.271A11.254,11.254,0,0,0,268,335.2l-.074.17a1.833,1.833,0,0,1-2.411.951,1.912,1.912,0,0,1-.362-.209,5.829,5.829,0,0,0-3.335-1.174,10.079,10.079,0,0,0-3.875.77,11.133,11.133,0,0,0-6.146,5.277l-.077.147-.138.311-.2.48a9.342,9.342,0,0,0-.3.955,6.643,6.643,0,0,0-.209,1.909,5.73,5.73,0,0,0,1.433,3.484,15.239,15.239,0,0,0,7.392,4.189l.074.02a.8.8,0,0,1,.449.318,38.839,38.839,0,0,1,3.093,5.577c.453.94.885,1.87,1.4,2.737.527.917,1.054,1.833,1.511,2.8a12.163,12.163,0,0,1,1.1,3.125,1.967,1.967,0,0,1-2.489,2.509,19.927,19.927,0,0,1-5.963-2.529c-1.835-1.057-3.586-2.181-5.341-3.384a30.941,30.941,0,0,1-4.745-4.318c-.72-.769-1.417-1.638-2.066-2.259a7.833,7.833,0,0,0-2.334-1.511,9.535,9.535,0,0,0-5.536-.44,9.888,9.888,0,0,0-4.864,2.485A5.177,5.177,0,0,0,232.6,362.2a14.7,14.7,0,0,0,2.062,5.2,31.711,31.711,0,0,0,3.529,4.765c.659.745,1.35,1.467,2.056,2.133l2.316,2.022q2.384,2.113,4.63,4.317c3.009,2.94,5.932,5.923,8.831,8.975a1.947,1.947,0,0,1,.51,1.02l.026.155a14.456,14.456,0,0,0,1.222,3.569,18.178,18.178,0,0,0,2.139,3.372,19.219,19.219,0,0,0,2.815,2.879c1.042.921,2.094,1.511,3.51,2.568a27.284,27.284,0,0,1,6.469,7.221,31.706,31.706,0,0,1,3.829,8.891l-.124-.388a12.5,12.5,0,0,0,5.071,6.127,16.392,16.392,0,0,0,8.065,1.961,34.684,34.684,0,0,0,8.9-1.205,51.151,51.151,0,0,0,8.623-3.078l.108-.05a1.206,1.206,0,0,1,.137-.053c3.608-1.126,7.209-2.231,10.851-3.235s7.269-2.022,11.011-2.849a17.717,17.717,0,0,0,9.546-4.651,21.252,21.252,0,0,0,5.661-9.335.213.213,0,0,1,.265-.142.216.216,0,0,1,.148.244,21.109,21.109,0,0,1-5.044,10.242,19.53,19.53,0,0,1-4.546,3.727,16.25,16.25,0,0,1-2.7,1.275c-.974.318-1.963.628-2.8.829-3.557,1.014-7.122,2.24-10.666,3.459l-10.634,3.708.244-.1a54.439,54.439,0,0,1-9.184,3.675,38.588,38.588,0,0,1-9.892,1.7,19.787,19.787,0,0,1-10.284-2.334,16.336,16.336,0,0,1-4.235-3.531,19.761,19.761,0,0,1-2.821-4.617l-.043-.112-.082-.278a29.327,29.327,0,0,0-3.254-7.463,23.3,23.3,0,0,0-5.368-6.062c-.948-.757-2.469-1.709-3.641-2.793a23.566,23.566,0,0,1-3.349-3.575,22.444,22.444,0,0,1-2.551-4.219,17.811,17.811,0,0,1-1.508-4.913l.536,1.174c-2.782-3.052-5.633-6.086-8.529-9.033-1.455-1.467-2.906-2.936-4.387-4.348-.747-.732-1.459-1.326-2.317-2.178-.783-.794-1.5-1.608-2.2-2.449A35,35,0,0,1,231.852,369a16.775,16.775,0,0,1-2.154-6.483,8.741,8.741,0,0,1,.423-3.676,7.641,7.641,0,0,1,2.082-3.107,12.381,12.381,0,0,1,6.269-2.838,11.621,11.621,0,0,1,6.714.879,9.7,9.7,0,0,1,2.8,2c.813.869,1.372,1.668,2.043,2.452a25.745,25.745,0,0,0,4.387,4.191c1.663,1.184,3.4,2.345,5.163,3.4a19.13,19.13,0,0,0,5.438,2.46c1.929.588.8-2.107,0-3.773-.442-.91-.967-1.8-1.489-2.681-.556-.923-1.055-1.86-1.535-2.784a36.3,36.3,0,0,0-3.157-5.239l.522.338a20.545,20.545,0,0,1-4.612-1.515,13.687,13.687,0,0,1-4.111-2.833,8.158,8.158,0,0,1-2.285-4.794,9.153,9.153,0,0,1,.126-2.683,12.1,12.1,0,0,1,.318-1.272l.208-.6.112-.309.2-.441-.076.147a12.808,12.808,0,0,1,3.04-4.322,16.225,16.225,0,0,1,4.339-2.875,12.468,12.468,0,0,1,5.249-1.263,9.5,9.5,0,0,1,5.465,1.732l-2.846.911a12.738,12.738,0,0,1,1.752-3.253,14.629,14.629,0,0,1,2.428-2.626,15,15,0,0,1,6.355-3.156,19.2,19.2,0,0,1,6.856-.261l1.632.23a9.747,9.747,0,0,1,1.837.473,15.684,15.684,0,0,1,3.179,1.54,24.667,24.667,0,0,1,8.638,10.131,47.513,47.513,0,0,1,3.887,12.315l-2.6.16a22.867,22.867,0,0,1,2.217-7.108,15.688,15.688,0,0,1,4.7-5.749,14.225,14.225,0,0,1,6.856-2.622,20.191,20.191,0,0,1,3.615.053,7.762,7.762,0,0,1,3.454,1.054.213.213,0,0,1-.182.385Z" transform="translate(64.437 190.604)" fill="#fbd206"/>
              <path id="Path_45595" data-name="Path 45595" d="M313.317,351.258a16.823,16.823,0,0,1,1.392,6.069,26.322,26.322,0,0,1-.007,3.086c-.088,1.03-.2,2.062-.378,3.081l-.017.1a1.141,1.141,0,0,1-.135.37,16.843,16.843,0,0,1-1.6,2.357,15.688,15.688,0,0,1-2.094,2.014,14.089,14.089,0,0,1-5,2.828,9.107,9.107,0,0,1-5.893-.5,8.572,8.572,0,0,1-2.63-1.756,7.847,7.847,0,0,1-.584-.683,5.7,5.7,0,0,1-.513-.976l-.45-1.3-.836-2.492a11.713,11.713,0,0,0-.942-1.961,18.172,18.172,0,0,0-1.215-1.813c-.187-.227-.521-.69-.794-1.1s-.567-.83-.829-1.256a17.56,17.56,0,0,1-2.025-5.347,18.541,18.541,0,0,1-.386-5.536.224.224,0,0,1,.242-.2.227.227,0,0,1,.173.11,62.121,62.121,0,0,0,5.474,8.615c.271.277.514.57.767.853s.442.542.848.97a12.024,12.024,0,0,1,1.744,2.56,13.364,13.364,0,0,1,1.05,2.929c.127.54.189.977.266,1.373l.227,1.254.211,1.264c.045.141,0,.087.044.219.069.123.1.256.178.4a7.72,7.72,0,0,0,1.334,1.71,4.769,4.769,0,0,0,4.229,1.386,5.383,5.383,0,0,0,3.609-3.013,21.986,21.986,0,0,0,1.025-2.248,19.625,19.625,0,0,1,.927-2.29l-.152.465c.221-1.886.7-3.737,1.017-5.658.386-1.912.767-3.81,1.295-5.832a.225.225,0,0,1,.273-.165.234.234,0,0,1,.15.123ZM243.19,386.872a11.117,11.117,0,0,1-.448-3.581,13.238,13.238,0,0,1,.578-3.6,8.327,8.327,0,0,1,1.827-3.274,4.481,4.481,0,0,1,3.349-1.558,6.885,6.885,0,0,0-2.283,2.376,13.128,13.128,0,0,0-1.253,2.977C244.278,382.32,243.866,384.549,243.19,386.872Zm5.027-37.715c1.463-.361,2.657-.608,3.925-.858.63-.118,1.26-.242,1.92-.339a12.281,12.281,0,0,1,2.114-.185,6.058,6.058,0,0,1-3.707,2.213,6.674,6.674,0,0,1-2.2.04,4.03,4.03,0,0,1-2.053-.87Zm7.766-18.706a19.11,19.11,0,0,0,.722,5.468,9.534,9.534,0,0,0,2.727,4.636,6.781,6.781,0,0,0,5.141,1.553,17.379,17.379,0,0,0,2.83-.467l2.737-.989-2.653,1.241a17.821,17.821,0,0,1-2.861.744,7.586,7.586,0,0,1-5.847-1.242,10.825,10.825,0,0,1-3.584-4.957,20.837,20.837,0,0,1-1.34-5.97,1.066,1.066,0,1,1,2.125-.165c0,.032,0,.065,0,.1Z" transform="translate(75.753 194.75)" fill="#fbd206"/>
              <path id="Path_45596" data-name="Path 45596" d="M254.432,336.369a53.069,53.069,0,0,1,3.911,7.047,26.767,26.767,0,0,1,2.534,7.84,3.234,3.234,0,0,0,1.967,2.262,11.562,11.562,0,0,0,3.538,1.123,12.087,12.087,0,0,0,3.807.042,5.069,5.069,0,0,0,3.373-1.7,5.023,5.023,0,0,1-3.173,2.519,11.086,11.086,0,0,1-4.149.474,11.462,11.462,0,0,1-4.133-1,4.755,4.755,0,0,1-2.947-3.6,17.628,17.628,0,0,0-.819-3.7c-.366-1.256-.81-2.5-1.238-3.754Z" transform="translate(85.876 200.85)" fill="#fbd206"/>
              <path id="Path_45597" data-name="Path 45597" d="M311.034,354.194c-1.474-.28-2.929-.578-4.4-.877l-43.238-8.842-4.16-.858-17.459-3.6c-6.939-2.761-13.878-5.5-20.705-8.749,7.573-.224,15.016.056,22.477.336,4.775,1.063,9.588,2.052,14.4,3.04,2.388.5,4.775.989,7.163,1.492l42.231,8.637a30.729,30.729,0,0,0,3.693,9.42Z" transform="translate(57.008 196.367)" fill="#fbd206"/>
              <path id="Path_45598" data-name="Path 45598" d="M267.23,540.284a38.372,38.372,0,0,0,4.752,9.435l1.625,1.885a16.021,16.021,0,0,1,1.887,2.3,12.842,12.842,0,0,1,1.362,2.717c.362,1.022.56,1.858.821,2.674.268.8.467,1.862.678,1.965a5.874,5.874,0,0,0,1.477,1.363,5.29,5.29,0,0,0,3.721.892,6.612,6.612,0,0,0,3.514-2.229,14.811,14.811,0,0,0,1.512-1.885l1.319-2.158-.12.368c.508-2.432,1.036-4.918,1.306-7.443.159-1.26.272-2.524.31-3.8a21.177,21.177,0,0,0-.138-3.85,21.233,21.233,0,0,1,1.734,7.7c.074,1.321.089,2.644.064,3.967-.064,1.324-.213,2.65-.319,3.985a.686.686,0,0,1-.054.219l-.066.149a20.474,20.474,0,0,1-2.957,5.03,9.4,9.4,0,0,1-5.374,3.534,8.356,8.356,0,0,1-6.52-1.443,9.37,9.37,0,0,1-2.388-2.361,4.228,4.228,0,0,1-.509-.923,3.836,3.836,0,0,1-.254-.811l-.31-1.363c-.217-.919-.384-1.85-.579-2.54a12.309,12.309,0,0,0-.879-2.184,12.98,12.98,0,0,0-1.3-2.042c-.544-.817-1.129-1.607-1.594-2.447A25.306,25.306,0,0,1,267.23,540.284ZM556.143,328.667a5.6,5.6,0,0,0,2.615,4.662,15.651,15.651,0,0,0,5.147,2.084l5.5,1.284,2.763.711c.462.124.925.246,1.382.393l1.3.332a17.66,17.66,0,0,0,5.282.692,9.871,9.871,0,0,0,5.11-1.588,9.544,9.544,0,0,0,3.432-4.176,9.229,9.229,0,0,0,.66-2.617,6.477,6.477,0,0,0-.155-2.491,3.209,3.209,0,0,0-1.269-1.572,11.283,11.283,0,0,0-2.228-1.028c-1.672-.592-3.545-1.107-5.434-1.735a35.472,35.472,0,0,1-5.692-2.355,21.153,21.153,0,0,1-2.707-1.7c-.733-.435-1.4-.971-2.119-1.3a7.2,7.2,0,0,0-8.464.8A13.4,13.4,0,0,0,556.143,328.667Zm-.433,0a24.2,24.2,0,0,1,.924-5.872,17.862,17.862,0,0,1,2.537-5.673,9.424,9.424,0,0,1,5.6-3.966,10.432,10.432,0,0,1,7.025.966,23.475,23.475,0,0,1,2.824,1.749c.71.5,1.419,1,2.176,1.462a37.89,37.89,0,0,0,4.893,2.455c1.737.75,3.574,1.4,5.441,2.407a11.132,11.132,0,0,1,2.734,1.97A5.888,5.888,0,0,1,591.5,327.5c-.005,9.073-8.741,15.209-17.27,14.186a30.631,30.631,0,0,1-5.869-1.294,28.285,28.285,0,0,1-5.523-2.433,20.658,20.658,0,0,1-4.828-3.8A8.261,8.261,0,0,1,555.71,328.667Zm27.676-61.254a10.356,10.356,0,0,0,1.19,4.623,11.309,11.309,0,0,0,3.138,3.571,27.826,27.826,0,0,0,8.619,4.133c3.059,1,6.2,1.741,9.333,2.592l4.722,1.226c.792.2,1.584.394,2.369.623l2.292.523a28.548,28.548,0,0,0,9.31.744,18.459,18.459,0,0,0,8.818-3.112,17.694,17.694,0,0,0,5.991-7.262c.278-.742.581-1.475.807-2.23a17.422,17.422,0,0,0,.461-2.311,12.919,12.919,0,0,0-.071-4.5,6.372,6.372,0,0,0-2.289-3.277,17.94,17.94,0,0,0-3.96-2.067c-2.905-1.145-6.07-2.066-9.218-3.185a64.2,64.2,0,0,1-9.377-4.028,37.521,37.521,0,0,1-4.408-2.8,28.488,28.488,0,0,0-3.827-2.4,13.5,13.5,0,0,0-8.135-1.706,14.844,14.844,0,0,0-7.673,3.854,25.189,25.189,0,0,0-5.642,7.622A22.985,22.985,0,0,0,583.386,267.413Zm-.433,0a33.3,33.3,0,0,1,1.789-9.807,29.729,29.729,0,0,1,4.641-9.109,15.7,15.7,0,0,1,9.018-6.025,16.931,16.931,0,0,1,10.956,1.679,29.165,29.165,0,0,1,4.529,2.834c1.263.887,2.525,1.774,3.872,2.568a59.945,59.945,0,0,0,8.574,4.136c3,1.22,6.13,2.281,9.23,3.838a18.228,18.228,0,0,1,4.464,3.007,9.061,9.061,0,0,1,2.666,5.039A19.137,19.137,0,0,1,640.5,275.7a22.906,22.906,0,0,1-6.49,7.765,26.042,26.042,0,0,1-19.57,4.787l-2.555-.407c-.814-.161-1.62-.357-2.426-.549-1.613-.4-3.23-.786-4.821-1.3a55.1,55.1,0,0,1-9.364-3.712,32.851,32.851,0,0,1-8.3-5.854,12.785,12.785,0,0,1-4.017-9.018Zm13.762-82.456a18.335,18.335,0,0,0-1.3,7.216,13.262,13.262,0,0,0,2.3,6.89,30.854,30.854,0,0,0,11.24,9.4A163.987,163.987,0,0,0,636.686,219.3c9.508,3,19.1,5.834,28.558,9.163q7.116,2.435,14.106,5.292c4.628,1.828,9.179,3.7,13.9,5.175a95.02,95.02,0,0,0,28.883,5.406,48.961,48.961,0,0,0,14.487-1.94,32.932,32.932,0,0,0,12.691-7.075,35.542,35.542,0,0,0,8.486-11.88,53.166,53.166,0,0,0,3.908-14.215,81.245,81.245,0,0,0,.658-14.806c-.131-2.475-.275-4.945-.563-7.409a51.82,51.82,0,0,0-1.154-7.251A92.268,92.268,0,0,0,748.574,153a116.942,116.942,0,0,0-18.848-22.55,86.934,86.934,0,0,0-24.272-16.059,71.43,71.43,0,0,0-13.788-4.373,58.692,58.692,0,0,0-14.373-1.085,64.764,64.764,0,0,0-27.944,6.713,78.44,78.44,0,0,0-22.919,17.9,133.824,133.824,0,0,0-17,24.334,241.749,241.749,0,0,0-12.717,27.077Zm-.4-.161c3.693-9.286,7.624-18.485,12.054-27.476A140.521,140.521,0,0,1,624.259,131.7a74.441,74.441,0,0,1,23.185-19.762,67.232,67.232,0,0,1,29.7-7.62,65.313,65.313,0,0,1,30.12,5.942,91.21,91.21,0,0,1,25.237,17.214,113.578,113.578,0,0,1,18.987,23.715,90.726,90.726,0,0,1,11.463,28.068,100.155,100.155,0,0,1,.249,30.2c-1.479,9.913-5.4,19.907-12.952,26.905a35.626,35.626,0,0,1-13.084,7.73,51.031,51.031,0,0,1-15,2.66,95.98,95.98,0,0,1-29.993-4.375c-4.853-1.414-9.615-3.183-14.269-5.042-4.6-1.851-9.265-3.561-13.936-5.279-9.365-3.369-18.8-6.64-28.173-10.184-4.685-1.77-9.356-3.6-13.964-5.6a105.466,105.466,0,0,1-13.448-6.826,54.78,54.78,0,0,1-6.16-4.387,25.192,25.192,0,0,1-5.011-5.673,14.266,14.266,0,0,1-2.3-7.182,18.8,18.8,0,0,1,1.4-7.4Z" transform="translate(96.951)" fill="#fbd206"/>
              <path id="Path_45600" data-name="Path 45600" d="M523.322,294.311A69.133,69.133,0,0,0,533.65,307.4a24.144,24.144,0,0,1-11.583-2.511,16.4,16.4,0,0,1-6.347-5.809,16.764,16.764,0,0,1-2.438-8.284,23.839,23.839,0,0,1,2.724-11.511,67.81,67.81,0,0,0,7.315,15.025Z" transform="translate(309.86 151.455)" fill="#fbd206"/>
              <path id="Path_45601" data-name="Path 45601" d="M540.853,295.9a23.627,23.627,0,0,1-2.761,11.511,67.785,67.785,0,0,0-7.316-15.025,70.261,70.261,0,0,0-10.328-13.089A23.652,23.652,0,0,1,532,281.839a16.7,16.7,0,0,1,6.382,5.774,16.315,16.315,0,0,1,2.475,8.284ZM518.19,328.528a67.929,67.929,0,0,0,10.364,13.089,24.045,24.045,0,0,1-11.583-2.511,16.53,16.53,0,0,1-6.383-5.809,16.774,16.774,0,0,1-2.438-8.284,23.839,23.839,0,0,1,2.725-11.511,69.424,69.424,0,0,0,7.315,15.025Z" transform="translate(305.418 151.448)" fill="#fbd206"/>
              <path id="Path_45602" data-name="Path 45602" d="M536.286,314.236a23.923,23.923,0,0,1-2.724,11.512,71.207,71.207,0,0,0-7.316-15.026,70.481,70.481,0,0,0-10.364-13.089,23.545,23.545,0,0,1,11.547,2.546,16.018,16.018,0,0,1,8.857,14.057ZM512.4,350.311A69.057,69.057,0,0,0,522.766,363.4a23.6,23.6,0,0,1-11.583-2.547,16.169,16.169,0,0,1-6.382-5.773,16.765,16.765,0,0,1-2.439-8.284,23.753,23.753,0,0,1,2.725-11.511A69.42,69.42,0,0,0,512.4,350.311Z" transform="translate(300.411 167.317)" fill="#fbd206"/>
              <path id="Path_45603" data-name="Path 45603" d="M527.937,334.386a23.969,23.969,0,0,1-2.726,11.548,69.5,69.5,0,0,0-7.35-15.026,70.286,70.286,0,0,0-10.328-13.089,23.544,23.544,0,0,1,11.547,2.546,16.7,16.7,0,0,1,6.383,5.774A16.29,16.29,0,0,1,527.937,334.386Zm-18.361,38.549A69.553,69.553,0,0,0,519.94,386.06a23.6,23.6,0,0,1-11.583-2.546,16.19,16.19,0,0,1-8.821-14.058,24.164,24.164,0,0,1,2.725-11.511,70.83,70.83,0,0,0,7.316,14.989Z" transform="translate(297.966 184.785)" fill="#fbd206"/>
              <path id="Path_45604" data-name="Path 45604" d="M521.4,400.364a23.549,23.549,0,0,1-2.725,11.548A77.246,77.246,0,0,0,501,383.8a23.546,23.546,0,0,1,11.547,2.546,16.175,16.175,0,0,1,6.383,5.774,15.846,15.846,0,0,1,2.474,8.247ZM506.737,423.29a23.875,23.875,0,0,1,11.555,2.542,16.519,16.519,0,0,1,6.386,5.79,16.255,16.255,0,0,1,2.472,8.25A23.7,23.7,0,0,1,524.4,451.4a23.7,23.7,0,0,1-11.579-2.526,16.255,16.255,0,0,1-6.361-5.805,16.512,16.512,0,0,1-2.446-8.265,23.864,23.864,0,0,1,2.72-11.513Zm51.2-125.914a108.769,108.769,0,0,0-13.841,7.817,27.686,27.686,0,0,1,4.124-10.686A15.292,15.292,0,0,1,554,289.343a13.89,13.89,0,0,1,7.316-1.362,43.492,43.492,0,0,1,10.83,2.51Zm12.193,5.02a15.384,15.384,0,0,1-15.348,7.674,20.58,20.58,0,0,1-10.686-4.876,36.908,36.908,0,0,0,7.961-1.613,58.449,58.449,0,0,0,7.495-2.977,44.741,44.741,0,0,0,6.921-4.232,22.7,22.7,0,0,0,5.666-5.881,16.512,16.512,0,0,1-2.008,11.906ZM552.347,329.65c-5.917,2.151-11.942,4.052-18,6.6a33.106,33.106,0,0,1,7.244-10.255,22.5,22.5,0,0,1,7.745-4.77,20.31,20.31,0,0,1,8.534-1.148,78.251,78.251,0,0,1,11.835,2.116,105.131,105.131,0,0,1-17.356,7.459Z" transform="translate(299.232 158.933)" fill="#fbd206"/>
              <path id="Path_45605" data-name="Path 45605" d="M553.307,319.206a20.664,20.664,0,0,1-19.759,7.207A22.247,22.247,0,0,1,522,320.353a42.181,42.181,0,0,0,9.754-.753,57.983,57.983,0,0,0,9.431-2.474,44.674,44.674,0,0,0,8.893-4.2,23.878,23.878,0,0,0,7.281-6.634,16.886,16.886,0,0,1-4.052,12.91Zm-20.046,22.447c-5.917,2.152-11.942,4.053-18,6.6A32.571,32.571,0,0,1,522.54,338a22.051,22.051,0,0,1,7.71-4.769,20.307,20.307,0,0,1,8.534-1.148,78.243,78.243,0,0,1,11.834,2.116,105.021,105.021,0,0,1-17.357,7.458Z" transform="translate(311.575 174.827)" fill="#fbd206"/>
              <path id="Path_45606" data-name="Path 45606" d="M549.443,334.162a20.661,20.661,0,0,1-19.758,7.208,22.249,22.249,0,0,1-11.548-6.06,42.179,42.179,0,0,0,9.755-.753,57.914,57.914,0,0,0,9.431-2.475,44.645,44.645,0,0,0,8.893-4.2,23.868,23.868,0,0,0,7.28-6.634A16.881,16.881,0,0,1,549.443,334.162Zm-18.97,28.724c-5.988,2.725-12.264,4.949-18.539,7.745a35.272,35.272,0,0,1,7.279-10.614,26,26,0,0,1,7.639-5.342,22.947,22.947,0,0,1,8.284-1.937c3.084-.287,6.239.322,11.8-.431a29.94,29.94,0,0,1-7.709,6.168,73.914,73.914,0,0,1-8.751,4.411Z" transform="translate(308.697 187.77)" fill="#fbd206"/>
              <path id="Path_45607" data-name="Path 45607" d="M548.04,403.494a19.347,19.347,0,0,1-.251,3.8,18.882,18.882,0,0,1-2.761,6.491,21.718,21.718,0,0,1-9.395,7.853,22.054,22.054,0,0,1-11.3,1.758A22.588,22.588,0,0,1,512,417.909a42.386,42.386,0,0,0,10.22-1.255,53.929,53.929,0,0,0,9.79-3.228,36.917,36.917,0,0,0,8.929-5.414,17.593,17.593,0,0,0,6.06-8.428,15.37,15.37,0,0,1,.682,1.937,17.562,17.562,0,0,1,.358,1.973Zm-36.183,55.26a34.9,34.9,0,0,1,2.556-11.489,18.746,18.746,0,0,1,4.324-6.4,14.235,14.235,0,0,1,5.906-3.234c2.383-.819,5.3-.778,9.96-3.438a15.413,15.413,0,0,1,1.484,1.255,16.28,16.28,0,0,1,1.173,1.5,14.366,14.366,0,0,1,1.411,3.318,15.184,15.184,0,0,1,.128,6.631,17.7,17.7,0,0,1-5.494,9.8,17.254,17.254,0,0,1-9.251,4.405,19.378,19.378,0,0,1-12.2-2.342ZM546.534,283.22a79.586,79.586,0,0,0-4.231,17.75,24.881,24.881,0,0,1-5.021-11.331,19.749,19.749,0,0,1,.753-9.36,19.088,19.088,0,0,1,5.165-7.853,25.152,25.152,0,0,1,10.937-5.81A80.622,80.622,0,0,0,546.534,283.22Zm11.869,4.088a19.2,19.2,0,0,1-5.2,7.818,24.856,24.856,0,0,1-10.9,5.845,84.477,84.477,0,0,0,7.6-16.6,80.07,80.07,0,0,0,4.231-17.751,25.009,25.009,0,0,1,5.057,11.332,19.322,19.322,0,0,1-.79,9.359Z" transform="translate(308.63 140.492)" fill="#fbd206"/>
              <path id="Path_45608" data-name="Path 45608" d="M510.637,408.056c.574,1.112,1.112,2.26,1.65,3.371.609,1.291,1.219,2.547,1.829,3.837,1.075,2.26,2.151,4.482,3.191,6.742.932-2.474,1.9-4.913,2.833-7.351.573-1.4,1.148-2.833,1.721-4.231.215-.609.467-1.184.717-1.793C518.6,408.523,514.618,408.344,510.637,408.056Zm15.456,5.989-.932-2.26-.968,2.474c-1.4,3.551-2.8,7.1-4.268,10.614,3.514-.143,7.029-.25,10.543-.286Zm11.368-5.308c-1.722,0-3.443.037-5.2.072-1.507-.035-3.012-.035-4.554-.072l.394,1.005,1.471,3.98,3.191,8.5,3.442-9.144,1.614-4.34Zm3.048,3.909-.753-2.116-.789,2.26-4.053,11.834c3.336.036,6.67.108,10.041.25Zm1.04-3.98,1.255,3.765,3.765,11.367,5.272-12.229,1.47-3.442c-3.909.251-7.853.431-11.762.539Zm13.95,2.546-1.112-2.725-1.148,2.94-5.271,13.591c4.518.251,9.073.646,13.627,1.291Zm-44.861-3.156c.574,1.112,1.112,2.26,1.65,3.371.609,1.291,1.22,2.547,1.829,3.837,1.075,2.26,2.151,4.482,3.191,6.742.932-2.474,1.9-4.913,2.833-7.351.573-1.4,1.148-2.833,1.721-4.231.215-.609.467-1.184.717-1.793-3.98-.108-7.961-.287-11.941-.574Zm15.456,5.989-.931-2.26-.968,2.474c-1.4,3.551-2.8,7.1-4.268,10.614,3.514-.143,7.029-.25,10.543-.286Zm11.368-5.308c-1.722,0-3.443.037-5.2.072-1.507-.035-3.013-.035-4.554-.072l.394,1.005,1.471,3.98,3.191,8.5,3.442-9.144,1.614-4.34Zm3.048,3.909-.753-2.116-.789,2.26-4.053,11.834c3.336.036,6.67.108,10.041.25Zm1.04-3.98,1.255,3.765,3.765,11.367,5.272-12.229,1.47-3.442c-3.909.251-7.853.431-11.762.539Zm13.95,2.546-1.112-2.725-1.148,2.94-5.271,13.591c4.518.251,9.073.646,13.627,1.291Zm-46.761-1.578c-.395.754-.825,1.543-1.22,2.3l2.044-.215c-.287-.681-.537-1.4-.824-2.08Zm1.9-1.578c.574,1.112,1.112,2.26,1.65,3.371.609,1.291,1.22,2.547,1.829,3.837,2.008-.215,4.016-.43,6.024-.609.573-1.4,1.148-2.833,1.721-4.231.215-.609.467-1.184.717-1.793-3.98-.108-7.961-.287-11.941-.574Zm14.524,3.73-.968,2.474c.609-.072,1.255-.144,1.9-.215Zm7.1-2.977c-1.507-.035-3.013-.035-4.554-.072l.394,1.005c3.12-.323,6.24-.682,9.36-1.005-1.722,0-3.443.037-5.2.072Zm-40.916-52.856,7.961,51.063c3.012-.394,6.024-.681,9-.931a1.059,1.059,0,0,1,.968-.144l.072.072c5.092-.359,10.149-.61,15.2-.718a2.1,2.1,0,0,1,1.148,0c2.187-.035,4.375-.072,6.563-.072,9.037.037,18.037.251,27.038,1.112,1.973.215,3.981.431,5.953.681l.214-1.362,7.71-49.7ZM504,404.041c-6.921,0-6.921-10.758,0-10.758C510.96,393.283,510.924,404.041,504,404.041Zm19.365,0c-6.922,0-6.922-10.758,0-10.758,6.957,0,6.921,10.758,0,10.758Zm18.718-.645c-6.921,0-6.921-10.758,0-10.758,6.957,0,6.922,10.758,0,10.758Zm18.4.645c-6.921,0-6.921-10.758,0-10.758C567.439,393.283,567.4,404.041,560.482,404.041Zm-4.984,7.172-1.112-2.725-1.148,2.94-5.271,13.591c4.518.251,9.073.646,13.627,1.291Zm-13.95-2.546,1.255,3.765,3.765,11.367,5.272-12.229,1.47-3.442C549.4,408.379,545.457,408.559,541.548,408.667Zm-1.04,3.98-.753-2.116-.789,2.26-4.053,11.834c3.335.036,6.67.108,10.041.25Zm-3.048-3.909c-1.722,0-3.443.037-5.2.072-1.507-.035-3.013-.035-4.554-.072l.394,1.005,1.471,3.98,3.191,8.5,3.442-9.144,1.613-4.34Zm-11.368,5.308-.931-2.26-.968,2.474c-1.4,3.551-2.8,7.1-4.268,10.614,3.514-.143,7.029-.25,10.543-.286Zm-15.456-5.989c.574,1.112,1.112,2.26,1.65,3.371.609,1.291,1.22,2.547,1.829,3.837,1.075,2.26,2.151,4.482,3.191,6.742.932-2.474,1.9-4.913,2.833-7.351.573-1.4,1.148-2.833,1.721-4.231.215-.609.467-1.184.717-1.793-3.98-.108-7.961-.287-11.942-.574Zm44.861,3.156-1.112-2.725-1.148,2.94-5.271,13.591c4.518.251,9.073.646,13.627,1.291Zm-13.95-2.546,1.255,3.765,3.765,11.367,5.272-12.229,1.47-3.442C549.4,408.379,545.457,408.559,541.548,408.667Zm-1.04,3.98-.753-2.116-.789,2.26-4.053,11.834c3.335.036,6.67.108,10.041.25Zm-3.048-3.909c-1.722,0-3.443.037-5.2.072-1.507-.035-3.013-.035-4.554-.072l.394,1.005,1.471,3.98,3.191,8.5,3.442-9.144,1.613-4.34Zm-11.368,5.308-.931-2.26-.968,2.474c-1.4,3.551-2.8,7.1-4.268,10.614,3.514-.143,7.029-.25,10.543-.286Zm-15.456-5.989c.574,1.112,1.112,2.26,1.65,3.371.609,1.291,1.22,2.547,1.829,3.837,1.075,2.26,2.151,4.482,3.191,6.742.932-2.474,1.9-4.913,2.833-7.351.573-1.4,1.148-2.833,1.721-4.231.215-.609.467-1.184.717-1.793-3.98-.108-7.961-.287-11.942-.574Zm26.824.681c-3.12.323-6.239.682-9.36,1.005l1.471,3.98c2.187-.215,4.411-.431,6.634-.645l1.613-4.34Zm2.295,1.793-.789,2.26c.5-.036,1.04-.072,1.542-.144Zm1.793-1.864,1.255,3.765,9.037-.861,1.47-3.442c-3.909.251-7.853.431-11.762.539Zm12.838-.179-1.148,2.94,2.26-.215Zm.932-.5,1.148,3.156,5.486,15.169v.036a.791.791,0,0,1,.287.036l2.51-16.029.5-3.336c-3.335.431-6.635.718-9.933.968Zm6.6,18.432c0,.036,0,.108-.072.108a.173.173,0,0,1-.215-.072,230.608,230.608,0,0,1-29.369,1.721c-4.626-.036-9.252-.143-13.878-.359a1.616,1.616,0,0,1-1.614.179,2.983,2.983,0,0,1-.431-.287c-4.662-.286-9.359-.681-14.021-1.326l2.4,15.42h55.117l2.4-15.42a.987.987,0,0,0-.322.036Zm-45.686,14.021c-6.957,0-6.921-10.758,0-10.758s6.921,10.758,0,10.758Zm18.073,0c-6.957,0-6.921-10.758,0-10.758s6.921,10.758,0,10.758Zm18.073-.645c-6.957,0-6.921-10.758,0-10.758S559.3,439.793,552.378,439.793Zm3.12-28.58-1.112-2.725-1.148,2.94-5.271,13.591c4.518.251,9.073.646,13.627,1.291Zm-13.95-2.546,1.255,3.765,3.765,11.367,5.272-12.229,1.47-3.442C549.4,408.379,545.457,408.559,541.548,408.667Zm-1.04,3.98-.753-2.116-.789,2.26-4.053,11.834c3.335.036,6.67.108,10.041.25Zm-3.048-3.909c-1.722,0-3.443.037-5.2.072-1.507-.035-3.013-.035-4.554-.072l.394,1.005,1.471,3.98,3.191,8.5,3.442-9.144,1.613-4.34Zm-11.368,5.308-.931-2.26-.968,2.474c-1.4,3.551-2.8,7.1-4.268,10.614,3.514-.143,7.029-.25,10.543-.286Zm-15.456-5.989c.574,1.112,1.112,2.26,1.65,3.371.609,1.291,1.22,2.547,1.829,3.837,1.075,2.26,2.151,4.482,3.191,6.742.932-2.474,1.9-4.913,2.833-7.351.573-1.4,1.148-2.833,1.721-4.231.215-.609.467-1.184.717-1.793-3.98-.108-7.961-.287-11.942-.574Zm.467,7.495c-.5-1.255-1.04-2.546-1.542-3.837-.287-.681-.538-1.4-.825-2.08-.395.754-.825,1.543-1.22,2.3-.717,1.4-1.47,2.8-2.223,4.2q-1.668,3.174-3.442,6.347a.133.133,0,0,1-.108.036l.574,3.873c4.231-.61,8.5-.968,12.73-1.255-1.292-3.191-2.619-6.383-3.945-9.574Zm3.012-.287c1.075,2.26,2.151,4.482,3.191,6.742.932-2.474,1.9-4.913,2.833-7.351-2.008.18-4.016.395-6.024.609Zm11.977-1.219c-.645.071-1.29.143-1.9.215-1.4,3.551-2.8,7.1-4.268,10.614,3.514-.143,7.029-.25,10.543-.286Zm3.479-.323,3.191,8.5,3.442-9.144c-2.223.215-4.447.43-6.634.645Zm10.936-1.076c-.5.072-1.04.108-1.542.144l-4.053,11.834c3.336.036,6.67.108,10.041.25Zm2.3-.215,3.765,11.367,5.272-12.229-9.037.862Zm12.694-1.22-2.26.215-5.271,13.591c4.518.251,9.073.646,13.627,1.291Zm-56.193-4.2.9,5.7.573,3.873.861,5.415c.753-1.937,1.506-3.837,2.259-5.738.538-1.4,1.112-2.761,1.685-4.124.573-1.434,1.148-2.869,1.757-4.3C504.649,407.627,502,407.339,499.306,407.016Z" transform="translate(290.881 217.796)" fill="#fbd206"/>
              <path id="Path_45609" data-name="Path 45609" d="M809.518,464.069c-3.211-2.444-4.934-6.3-6.418-9.976-.564-1.915-1.295-3.811-1.725-5.768l-1.213-5.9a139.149,139.149,0,0,1-.9-23.959c.141-8.012,1.339-15.905,2.267-23.831,1.452-7.825,2.571-15.739,4.471-23.464,1.782-7.756,3.565-15.51,5.818-23.132,2.17-7.646,4.255-15.313,6.929-22.8,2.586-7.508,4.907-15.1,7.783-22.5,2.91-7.388,5.672-14.82,8.7-22.148-4.218,15.309-9.1,30.359-13.209,45.635l-3.195,11.415-2.941,11.476c-.95,3.83-2.1,7.614-2.95,11.464l-2.595,11.541c-1.972,7.648-3.082,15.446-4.665,23.166-1.163,7.773-2.386,15.553-3.014,23.379a139.951,139.951,0,0,0-.345,23.493l.7,5.825c.258,1.941.811,3.814,1.2,5.739C805.4,457.4,806.651,461.281,809.518,464.069ZM256.8,322.994c-1.776,5.02-3.79,9.937-5.805,14.853l-8.024,13.521-15.4,26.019h-5.941l.922-1.537,16.014-27.077,8.024-13.555C249.94,331.121,253.253,326.99,256.8,322.994Zm-37.491,17L217.4,356.73l-2.356,20.658h-5.157l2.425-21.239,1.878-16.731c1.4-5.5,2.765-10.995,4.472-16.424C219.074,328.7,219.209,334.331,219.313,340Zm-21.136,37.389h3.244l-1.81-12.668-1.468-10.175-2.254-15.98c-1.537-5.19-3.039-10.414-4.849-15.57-.239,4.473-.307,8.912-.273,13.351v2.971l.649,4.4,1.673,11.541,3.175,22.126Zm-10.824,0H182.2l-3.209-22.126L176.7,339.316c-.035-5.429-.035-10.858.273-16.321,1.81,5.157,3.312,10.38,4.849,15.57l2.253,15.98,2.185,15.228Z" transform="translate(18.6 152.589)" fill="#fbd206"/>
              <path id="Path_45610" data-name="Path 45610" d="M193.8,320.113v3l-.034,12.7v20.965h-5.122V320.113c.751-5.224,1.5-10.449,2.561-15.707.751,3.79,1.4,7.58,1.946,11.336C193.392,317.211,193.6,318.645,193.8,320.113Zm15.775,2.628-1.776,15.6-2.083,18.439h-5.156L202,344.117l.717-6.351,1.741-15.6c1.331-5.122,2.663-10.243,4.3-15.3C209.235,312.157,209.405,317.45,209.576,322.742Zm-35.648,54.939V396.12c.889-.1,1.776-.171,2.663-.273l7.683-17.243C180.826,378.364,177.378,378.091,173.928,377.681Zm11.3,1.23L177,395.813c4.951-.513,9.936-.854,14.888-1.059Zm1.093-.171,7.034,15.16,5.6-14.647C194.757,379.184,190.523,378.979,186.323,378.74Zm14.409,1.981-5.77,13.931c3.653-.137,7.272-.205,10.926-.238ZM208,379.389c-1.776-.034-3.585-.068-5.36-.068l5.224,12.873,4.439-12.873c-1.435.034-2.868.034-4.3.068Zm6.591,3.244-4.473,11.781c2.868.033,5.736.068,8.6.17-1.434-3.995-2.8-7.955-4.131-11.951Zm2.39-3.379c1.468,4.063,2.868,8.126,4.234,12.189,1.844-4.2,3.654-8.365,5.532-12.531-3.244.17-6.488.273-9.766.342Zm11.677,1.571c-1.707,4.643-3.482,9.253-5.258,13.9,3.926.137,7.853.376,11.746.717-2.254-4.848-4.371-9.7-6.488-14.613Zm-54.734-24.038v20.9A291.742,291.742,0,0,1,208,375.974c2.083,0,4.166.034,6.249.068a1.689,1.689,0,0,1,.922,0c4.371.068,8.707.239,13.044.478a1.244,1.244,0,0,1,.341-.067,1.371,1.371,0,0,1,.513.1c4.336.273,8.673.614,13.009,1.126v-20.9Zm7.956,15.263c-6.624,0-6.59-10.243,0-10.243s6.591,10.243,0,10.243Zm18.438,0c-6.624,0-6.59-10.243,0-10.243s6.591,10.243,0,10.243Zm17.824-.614c-6.624,0-6.59-10.243,0-10.243s6.59,10.243,0,10.243Zm17.516.614c-6.624,0-6.59-10.243,0-10.243s6.591,10.243,0,10.243Zm-5.5,6.658c1.911,5.565,3.755,11.131,5.463,16.766,2.152.2,4.3.375,6.453.649V377.681c-3.961.444-7.921.785-11.916,1.024Zm-44.935.205L177,395.813c4.951-.513,9.936-.854,14.888-1.059Zm1.093-.171,7.034,15.16,5.6-14.647c-4.2-.068-8.434-.273-12.633-.513Zm14.409,1.981-5.77,13.931c3.653-.137,7.272-.205,10.926-.238ZM208,379.389c-1.776-.034-3.585-.068-5.36-.068l5.224,12.873,4.439-12.873c-1.435.034-2.868.034-4.3.068Zm6.591,3.244-4.473,11.781c2.868.033,5.736.068,8.6.17-1.434-3.995-2.8-7.955-4.131-11.951Zm2.39-3.379c1.468,4.063,2.868,8.126,4.234,12.189,1.844-4.2,3.654-8.365,5.532-12.531-3.244.17-6.488.273-9.766.342Zm11.677,1.571c-1.707,4.643-3.482,9.253-5.258,13.9,3.926.137,7.853.376,11.746.717-2.254-4.848-4.371-9.7-6.488-14.613Zm-43.432-1.912L177,395.813c4.951-.513,9.936-.854,14.888-1.059Zm1.093-.171,7.034,15.16,5.6-14.648c-4.2-.068-8.434-.273-12.633-.513Zm14.409,1.981-5.77,13.931c3.653-.137,7.272-.205,10.926-.238ZM208,379.389c-1.776-.034-3.585-.068-5.36-.068l5.224,12.873,4.439-12.873c-1.435.034-2.868.034-4.3.068Zm6.591,3.244-4.473,11.781c2.868.033,5.736.068,8.6.17-1.434-3.995-2.8-7.955-4.131-11.951Zm2.39-3.379c1.468,4.063,2.868,8.126,4.234,12.189,1.844-4.2,3.654-8.365,5.532-12.531-3.244.17-6.488.273-9.766.342Zm11.677,1.571c-1.707,4.643-3.482,9.253-5.258,13.9,3.926.137,7.853.376,11.746.717-2.254-4.848-4.371-9.7-6.488-14.613Zm-54.734,35.271v4.234a34.077,34.077,0,1,0,68.153,0v-4.234a340.942,340.942,0,0,1-68.153,0Zm48.008-18.54a1.645,1.645,0,0,1-1.5.171,2.1,2.1,0,0,1-.205-.137c-4.063.137-8.16.205-12.224.239a307.437,307.437,0,0,1-34.076-1.707v19.974A291.728,291.728,0,0,1,208,414.387a292.45,292.45,0,0,1,34.076,1.707V396.12c-6.726.785-13.419,1.195-20.145,1.434Zm-38.516,13.829c-6.624,0-6.59-10.243,0-10.243s6.59,10.243,0,10.243Zm15.673-.308c-6.624,0-6.59-10.243,0-10.243s6.59,10.243,0,10.243Zm17.209,0c-6.624,0-6.59-10.243,0-10.243s6.59,10.243,0,10.243Zm17.209-.614c-6.624,0-6.591-10.243,0-10.243s6.59,10.243,0,10.243Zm1.639-15.024c-2.254-4.848-4.371-9.7-6.488-14.613-1.707,4.643-3.482,9.253-5.258,13.9,3.926.137,7.853.376,11.746.717Zm-8.4-16.526c-3.244.17-6.488.273-9.766.342,1.468,4.063,2.868,8.126,4.234,12.189,1.844-4.2,3.654-8.365,5.532-12.531Zm-8.024,15.672c-1.434-3.995-2.8-7.955-4.131-11.951l-4.473,11.78c2.868.033,5.736.068,8.6.17Zm-6.419-15.263c-1.435.034-2.868.034-4.3.068-1.776-.034-3.585-.068-5.36-.068l5.224,12.873Zm-6.42,15.093-5.156-13.692-5.77,13.931c3.653-.137,7.273-.205,10.926-.239Zm-6.932-15.16c-4.2-.068-8.434-.273-12.633-.513l7.034,15.16Zm-13.726-.342L177,395.813c4.951-.513,9.936-.854,14.888-1.059Zm43.432,1.912c-1.707,4.643-3.482,9.253-5.258,13.9,3.926.137,7.853.376,11.746.717-2.254-4.849-4.371-9.7-6.488-14.614Zm-11.677-1.571c1.468,4.063,2.868,8.126,4.234,12.189,1.844-4.2,3.654-8.365,5.532-12.531-3.244.17-6.488.273-9.766.342Zm-2.39,3.379-4.473,11.781c2.868.033,5.736.068,8.6.17C217.293,390.588,215.927,386.628,214.6,382.632ZM208,379.389c-1.776-.034-3.585-.068-5.36-.068l5.224,12.873,4.439-12.873c-1.435.034-2.869.034-4.3.068Zm-7.272,1.332-5.77,13.931c3.653-.137,7.273-.205,10.926-.238Zm-14.409-1.981,7.034,15.16,5.6-14.647c-4.2-.068-8.434-.273-12.634-.513Zm-1.093.171L177,395.813c4.951-.513,9.936-.854,14.888-1.059Zm43.432,1.912c-1.707,4.643-3.482,9.253-5.258,13.9,3.926.137,7.853.376,11.746.717-2.254-4.848-4.371-9.7-6.488-14.613Zm-11.677-1.571c1.468,4.063,2.868,8.126,4.234,12.189,1.844-4.2,3.654-8.365,5.532-12.531-3.244.17-6.488.273-9.766.342Zm-2.39,3.38-4.473,11.781c2.868.033,5.736.068,8.6.17C217.293,390.588,215.927,386.628,214.6,382.632ZM208,379.389c-1.776-.034-3.585-.068-5.36-.068l5.224,12.873,4.439-12.873c-1.435.034-2.869.034-4.3.068Zm-7.272,1.332-5.77,13.931c3.653-.137,7.273-.205,10.926-.238Zm-14.409-1.981,7.034,15.16,5.6-14.647c-4.2-.068-8.434-.273-12.634-.513Zm-1.093.171L177,395.813c4.951-.513,9.936-.854,14.888-1.059Zm315.8-6.616c1.315,4.921,2.783,9.714,4.223,14.519,1.489,4.788,2.98,9.567,4.547,14.325.736,2.395,1.524,4.774,2.321,7.152.709,2.41,1.6,4.756,2.309,7.173.776,2.392,1.55,4.79,2.275,7.212s1.5,4.831,2.1,7.321c-1.362-2.159-2.582-4.389-3.8-6.625-1.129-2.272-2.281-4.541-3.3-6.866a144.028,144.028,0,0,1-5.46-14.223,127.7,127.7,0,0,1-3.814-14.774,67.923,67.923,0,0,1-1.408-15.214Z" transform="translate(16.215 173.192)" fill="#fbd206"/>
              <path id="Path_45611" data-name="Path 45611" d="M296.185,346.143a10.533,10.533,0,0,0-.206-2.072l.019,0v.019A10.241,10.241,0,0,1,296.185,346.143Z" transform="translate(121.828 207.515)" fill="#fbd206"/>
              <path id="Path_45612" data-name="Path 45612" d="M293.772,343.685c2.164.429,4.309.839,6.473,1.25l9.271,1.735a32.661,32.661,0,0,1-.9,8.469v.019l-9.979-1.865c-2.574-.485-5.13-.989-7.7-1.511-.429-.056-.839-.149-1.268-.243-3.1-.6-6.211-1.194-9.308-1.809a43.3,43.3,0,0,0,.186-8.636c2.667.541,5.354,1.063,8.021,1.586l.653.131" transform="translate(108.312 204.937)" fill="#fbd206"/>
            </g>
            <path id="Path_45613" data-name="Path 45613" d="M1162.089,1131.385l-30.192,48.236,27.385-1.261v14.869l30.407-50.173-27.6,3.645Z" transform="translate(1404.025 8459.8) rotate(16)" fill="#fbd206"/>
            <path id="Path_45615" data-name="Path 45615" d="M1162.089,1131.385l-30.192,48.236,27.385-1.261v14.869l30.407-50.173-27.6,3.645Z" transform="translate(647.511 11242.072) rotate(-93)" fill="#fbd206"/>
          </g>
          <g id="Group_5505" data-name="Group 5505" transform="translate(347.907 9710.169)">
            <rect id="Rectangle_42080" data-name="Rectangle 42080" width="112.42" height="41.588" transform="translate(-14 0)" fill="#fff"/>
            <rect id="Rectangle_42081" data-name="Rectangle 42081" width="98.42" height="41.588" transform="translate(54.902 52.439)" fill="none" stroke="#ebebeb" stroke-miterlimit="10" stroke-width="1"/>
          </g>
          <g id="Group_5507" data-name="Group 5507" transform="translate(1731.735 9830.008)">
            <rect id="Rectangle_42080-2" data-name="Rectangle 42080" width="65.262" height="27.577" transform="translate(36.405 0)" fill="none" stroke="#ebebeb" stroke-miterlimit="10" stroke-width="1"/>
            <rect id="Rectangle_42081-2" data-name="Rectangle 42081" width="65.262" height="27.577" transform="translate(0 34.772)" fill="none" stroke="#ebebeb" stroke-miterlimit="10" stroke-width="1"/>
          </g>
          <g id="Group_5509" data-name="Group 5509" transform="translate(637.805 10114.953)">
            <rect id="Rectangle_42080-3" data-name="Rectangle 42080" width="49.766" height="21.029" transform="translate(0 0)" fill="none" stroke="#ebebeb" stroke-miterlimit="10" stroke-width="1"/>
            <rect id="Rectangle_42081-3" data-name="Rectangle 42081" width="49.766" height="21.029" transform="translate(27.761 26.515)" fill="none" stroke="#ebebeb" stroke-miterlimit="10" stroke-width="1"/>
          </g>
          <g id="Group_5508" data-name="Group 5508" transform="translate(791.735 9970.008)">
            <rect id="Rectangle_42080-4" data-name="Rectangle 42080" width="111.262" height="47.577" transform="translate(-23 -10)" fill="none" stroke="#ebebeb" stroke-miterlimit="10" stroke-width="1"/>
          </g>
          <g id="Group_5510" data-name="Group 5510" transform="translate(280.452 9736.882)">
            <g id="Group_23" data-name="Group 23" transform="translate(32.55 437.655)">
              <path id="Path_23" data-name="Path 23" d="M39.362,371.178c1.913.324,4.068.812,6.5,1.047,2.421.317,5.07.65,7.938.773,2.857.266,5.923.223,9.143.259a129.155,129.155,0,0,0,20.829-2.129,129.1,129.1,0,0,0,20.119-5.779c2.976-1.231,5.839-2.334,8.391-3.641,2.615-1.183,4.951-2.479,7.078-3.673,2.168-1.125,3.988-2.38,5.642-3.392,1.669-1,3.038-1.954,4.146-2.755.851-.6,1.512-1.049,2.071-1.425H32.549V369.72c.555.123,1.2.268,1.941.443C35.814,370.5,37.442,370.874,39.362,371.178Z" transform="translate(-32.549 -350.463)" fill="#f5f5f5"/>
              <path id="Path_24" data-name="Path 24" d="M80.74,443.327a72.7,72.7,0,0,0-21.032,2.723,54.2,54.2,0,0,0-11.985,5.137h80.761c-6.878-1.378-14.174-3.1-21.836-4.662A138.134,138.134,0,0,0,80.74,443.327Z" transform="translate(-14.956 -242.802)" fill="#f5f5f5"/>
              <path id="Path_25" data-name="Path 25" d="M197.716,439.2c-9.162-1.44-20.229-.354-32.473.782a140.83,140.83,0,0,1-19.359.533c-6.718-.279-13.632-1.019-20.683-1.883-14.084-1.766-27.515-3.557-39.761-3.019a86.862,86.862,0,0,0-31.516,7.029,89.339,89.339,0,0,0-18.888,11.052c-.939.715-1.76,1.363-2.488,1.95v4.6H64.266a49.422,49.422,0,0,1,12.753-6.057,71.1,71.1,0,0,1,21.32-3.056,133.547,133.547,0,0,1,26.172,3.116c9.149,1.868,17.761,4.017,25.669,5.524.909.177,1.773.313,2.66.473h64.276V446.332A45.819,45.819,0,0,0,197.716,439.2Z" transform="translate(-32.549 -251.856)" fill="#f5f5f5"/>
              <path id="Path_26" data-name="Path 26" d="M53.54,455.13a86.274,86.274,0,0,1,31.847-7.4c12.391-.611,25.917,1.16,39.981,2.922,7.04.862,13.915,1.607,20.575,1.9a142.172,142.172,0,0,0,19.2-.451c12.209-1.062,23.416-2.069,32.721-.484a45.535,45.535,0,0,1,19.253,7.394V434.62a59.373,59.373,0,0,0-16.429-2.3c-18.357-.618-42.736,9.374-71.1,8.681A170.919,170.919,0,0,1,90.3,436.239c-11.874-2.844-22.069-6.925-30.918-9.251-8.821-2.462-16.245-3.209-21.346-2.961a53.281,53.281,0,0,0-5.485.516V468.46c.643-.559,1.347-1.157,2.159-1.816A84.519,84.519,0,0,1,53.54,455.13Z" transform="translate(-32.549 -265.225)" fill="#f5f5f5"/>
              <path id="Path_27" data-name="Path 27" d="M39.647,428.257c4.919.43,11.674,2.861,19.588,6.439a112.2,112.2,0,0,0,13.2,5.083,86.041,86.041,0,0,0,15.913,2.952c11.386,1.084,24.038.037,37.055-2.3,13.03-2.311,25.256-5.565,36.511-7.992a217.523,217.523,0,0,1,30.221-4.8,107.134,107.134,0,0,1,20.633.345c1.753.19,3.2.432,4.349.65V396.119c-.574-.462-1.207-.97-1.915-1.535a124.264,124.264,0,0,0-12.7-9.188c-5.588-3.382-12.907-6.971-21.609-7.184-8.7-.283-17.944,3.11-26.975,7.523a217.884,217.884,0,0,0-24.781,14.021c-3.591,2.425-7.413,4.571-8.923,7.968a4.423,4.423,0,0,0,.65,4.742,11.974,11.974,0,0,0,4.092,2.8,41.375,41.375,0,0,0,14.971,4c3.688.257,5.744.041,5.753.164a5.979,5.979,0,0,1-1.481.242,34.6,34.6,0,0,1-4.3.121,39.737,39.737,0,0,1-15.355-3.66,12.808,12.808,0,0,1-4.481-3,5.515,5.515,0,0,1-.89-5.848c1.751-3.962,5.735-6.115,9.27-8.584a207.385,207.385,0,0,1,24.885-14.2c9.087-4.437,18.564-7.912,27.6-7.551,9.039.3,16.489,4.1,22.082,7.623a105.893,105.893,0,0,1,12.527,9.6c.587.518,1.106.98,1.574,1.4V368.654a76.556,76.556,0,0,0-10.326-4.729,77.333,77.333,0,0,0-32.881-4.44,69.384,69.384,0,0,0-19.139,4.446c-6.4,2.427-12.572,6.016-18.914,9.657s-12.63,7.2-19.2,9.577A72.185,72.185,0,0,1,97.011,387c-12.76.738-24.166-.544-33.73-.7a101.482,101.482,0,0,0-22.533,1.522c-1.3.285-2.477.49-3.472.747l-2.5.728a13.082,13.082,0,0,1-2.095.523,12.869,12.869,0,0,1,2.01-.784c.708-.244,1.529-.529,2.477-.855.991-.3,2.162-.548,3.468-.879A95.438,95.438,0,0,1,63.3,385.344c9.607.032,21.035,1.209,33.628.408a71.649,71.649,0,0,0,19.273-3.839c6.426-2.347,12.643-5.861,18.981-9.506s12.578-7.255,19.108-9.717a69.938,69.938,0,0,1,19.512-4.453,77.191,77.191,0,0,1,33.326,4.787,75.022,75.022,0,0,1,9.989,4.72V350.463H131.747c-.548.46-1.3,1.069-2.285,1.851a44.516,44.516,0,0,1-4.038,2.963c-1.626,1.08-3.425,2.4-5.582,3.589-2.114,1.261-4.448,2.617-7.065,3.857-2.559,1.365-5.433,2.52-8.43,3.794a122.564,122.564,0,0,1-20.315,5.949,122.684,122.684,0,0,1-21.076,2.045c-3.256-.071-6.355-.071-9.238-.386-2.891-.175-5.563-.566-7.994-.948-2.444-.3-4.606-.855-6.517-1.255a44.12,44.12,0,0,1-4.85-1.246c-.687-.2-1.289-.384-1.807-.548v41.389c1.442-.492,3.341-1.047,5.66-1.622a89.833,89.833,0,0,1,44.155.514,61.747,61.747,0,0,1,6.426,2.054,8.738,8.738,0,0,1,2.259,1.021c-.076.218-3.41-.9-8.914-2.142A106.652,106.652,0,0,0,60.3,408.756a106.7,106.7,0,0,0-21.888,2.077c-2.41.49-4.375.952-5.867,1.311v16.232A23.475,23.475,0,0,1,39.647,428.257ZM153.023,402.9a4.139,4.139,0,0,1,1.116-1.455,8.478,8.478,0,0,1,2.984-1.607,65.459,65.459,0,0,1,42.572,1.712,59.411,59.411,0,0,1,11.615,6.018c1.309.821,2.218,1.617,2.872,2.1.639.5.959.782.933.821-.179.3-5.472-4.23-15.759-8.035a66.766,66.766,0,0,0-18.685-3.941,64.884,64.884,0,0,0-23.146,2.63,7.094,7.094,0,0,0-2.492,1.328c-.7.6-1.067,1.324-.805,1.965.492,1.367,2.941,1.486,4.779,1.924,3.872.79,7.61,1.553,11.179,2.283,7.07,1.475,13.468,2.809,18.921,3.945,5.215,1.138,9.514,2.073,12.734,2.775,1.369.328,2.5.6,3.449.823a4.353,4.353,0,0,1,1.186.378,4.284,4.284,0,0,1-1.237-.108l-3.5-.572c-3.241-.6-7.569-1.389-12.818-2.352-5.47-1.054-11.887-2.293-18.977-3.658-3.576-.706-7.32-1.442-11.2-2.207-.983-.207-1.922-.352-2.978-.62a3.794,3.794,0,0,1-2.809-2.149A2.648,2.648,0,0,1,153.023,402.9ZM71.28,418.849a89.022,89.022,0,0,0,11,5.062,81.613,81.613,0,0,0,39.206,4.561c15.573-1.823,27.953-9.717,38.146-11.939a38.222,38.222,0,0,1,12.181-1.209,23.047,23.047,0,0,1,3.3.481,3.652,3.652,0,0,1,1.112.346c-.024.125-1.585-.235-4.44-.3a41.234,41.234,0,0,0-11.913,1.611c-4.936,1.3-10.54,3.721-16.822,6.344a81.046,81.046,0,0,1-21.387,6.012,79.208,79.208,0,0,1-39.733-5.012,73.493,73.493,0,0,1-10.918-5.5,28.169,28.169,0,0,1-3.647-2.6A27.987,27.987,0,0,1,71.28,418.849Z" transform="translate(-32.549 -350.463)" fill="#f5f5f5"/>
              <path id="Path_28" data-name="Path 28" d="M59.626,469.608c8.948,2.231,19.184,6.213,30.963,8.964a173.871,173.871,0,0,0,39,4.621c28.074.713,52.408-9.113,71.111-8.283a58.219,58.219,0,0,1,16.416,2.568v-26.12c-1.654.2-3.479.417-5.5.663-7.847.782-18.655,2.317-30.763,2.572a90.527,90.527,0,0,1-17.022-1.2,62.075,62.075,0,0,1-13.4-3.876,45.233,45.233,0,0,1-8.251-4.5,22.82,22.82,0,0,1-2.03-1.55c-.447-.378-.665-.594-.637-.63.149-.233,3.969,2.939,11.281,5.792a65.815,65.815,0,0,0,13.248,3.531,95.867,95.867,0,0,0,16.8,1.08c11.976-.248,22.818-1.632,30.689-2.172,2.056-.149,3.908-.285,5.589-.41V387.288c-1.162-.145-2.632-.313-4.405-.464a117.239,117.239,0,0,0-20.5.086,229.63,229.63,0,0,0-30.028,5.07c-11.207,2.486-23.434,5.781-36.543,8.106-13.088,2.345-25.876,3.371-37.411,2.207a85.769,85.769,0,0,1-16.118-3.122,108.844,108.844,0,0,1-13.269-5.286c-7.867-3.686-14.444-6.206-19.264-6.793a31.213,31.213,0,0,0-7.029-.27V431.67a15.986,15.986,0,0,1,1.093-1.2c3.559-3.608,10.246-6.914,18.858-9.158,8.642-2.319,19.253-3.153,30.834-4.656s24.01-4.932,36.956-8.825,25.4-7.521,37.066-9.244a158.357,158.357,0,0,1,31.164-1.667,151.154,151.154,0,0,1,20.894,2.438c2.436.477,4.321.881,5.588,1.211a10.571,10.571,0,0,1,1.918.544,11.146,11.146,0,0,1-1.976-.276c-1.283-.244-3.179-.561-5.621-.959a171.957,171.957,0,0,0-20.842-2,163.684,163.684,0,0,0-30.931,1.941c-11.553,1.775-23.919,5.411-36.874,9.309S95.2,416.464,83.5,417.9c-11.661,1.442-22.2,2.172-30.763,4.347-8.543,2.1-15.17,5.224-18.728,8.607a16.4,16.4,0,0,0-1.46,1.557v18.826c.2.1.423.216.678.35,1.231.654,2.85,1.52,4.874,2.6a191.866,191.866,0,0,0,18.515,8.277,180.385,180.385,0,0,0,65.391,12c26.258.309,49.035-7.8,66.228-9.38a76.348,76.348,0,0,1,20.372.166q1.749.317,3.151.568l2.272.594a9.816,9.816,0,0,1,1.846.577,10.835,10.835,0,0,1-1.909-.309l-2.285-.464c-.935-.13-1.984-.279-3.148-.441a81.037,81.037,0,0,0-20.188.263c-8.5,1-18.452,3.31-29.566,5.679a174.827,174.827,0,0,1-102.513-8.355,163.933,163.933,0,0,1-18.415-8.7c-1.976-1.172-3.559-2.114-4.761-2.829-.2-.127-.374-.229-.54-.335V467.8a42.039,42.039,0,0,1,5.457-.747C43.154,466.633,50.707,467.248,59.626,469.608Zm52.231-42.274a145.573,145.573,0,0,0-20.616,12.514c-1.309,1.009-2.38,2.289-2.263,3.673a3.608,3.608,0,0,0,2.371,2.907c2.421,1.138,4.82.609,6.733.43a11.476,11.476,0,0,1,4.489.188,3.806,3.806,0,0,1,1.4.708c-.03.06-.494-.222-1.468-.443a12.4,12.4,0,0,0-4.355.071c-1.84.246-4.388.918-7.109-.261a4.393,4.393,0,0,1-2.924-3.541c-.171-1.855,1.183-3.412,2.522-4.481A138.219,138.219,0,0,1,111.3,426.213a142.3,142.3,0,0,1,27.9-10.439,140.72,140.72,0,0,1,53.769-3.369c3.427.516,6.534.931,9.212,1.585,2.688.592,5.014,1.039,6.863,1.633,1.738.518,3.153.937,4.271,1.268a6.884,6.884,0,0,1,1.462.529,6.724,6.724,0,0,1-1.537-.266l-4.325-1.015c-1.859-.516-4.191-.885-6.878-1.4-2.678-.579-5.776-.926-9.186-1.378a146.357,146.357,0,0,0-80.992,13.973Zm19.972,17.588a13.627,13.627,0,0,1-3.2-.147,5.9,5.9,0,0,1-4.256-2.827,3.911,3.911,0,0,1-.322-3.354,7.588,7.588,0,0,1,2.384-2.8,53.484,53.484,0,0,1,14.79-9.037,67.077,67.077,0,0,1,20.678-4.755c15.172-1.067,28.644,2.686,37.852,5.943,4.638,1.656,8.29,3.245,10.784,4.4,1.25.572,2.2,1.054,2.846,1.386s.97.529.948.574a28.967,28.967,0,0,1-4-1.473c-2.55-1-6.241-2.449-10.888-3.975-9.227-3.008-22.566-6.547-37.439-5.5a67.951,67.951,0,0,0-20.3,4.556,54.814,54.814,0,0,0-14.641,8.609,6.957,6.957,0,0,0-2.2,2.39,3.131,3.131,0,0,0,.19,2.667,5.388,5.388,0,0,0,3.7,2.671c2.628.531,4.2.356,4.189.512A3.306,3.306,0,0,1,131.829,444.922Z" transform="translate(-32.549 -308.775)" fill="#f5f5f5"/>
              <path id="Path_29" data-name="Path 29" d="M39.578,387.519c4.82.587,11.4,3.107,19.264,6.793A108.844,108.844,0,0,0,72.111,399.6a85.771,85.771,0,0,0,16.118,3.122c11.535,1.164,24.323.138,37.411-2.207,13.11-2.326,25.336-5.621,36.543-8.106a229.635,229.635,0,0,1,30.028-5.07,117.243,117.243,0,0,1,20.5-.086c1.773.151,3.243.32,4.405.464v-.341c-1.147-.218-2.6-.46-4.349-.65a107.137,107.137,0,0,0-20.633-.345,217.518,217.518,0,0,0-30.221,4.8c-11.255,2.427-23.481,5.681-36.511,7.992-13.017,2.332-25.669,3.379-37.055,2.3a86.038,86.038,0,0,1-15.913-2.952,112.192,112.192,0,0,1-13.2-5.083c-7.914-3.578-14.669-6.01-19.588-6.439a23.474,23.474,0,0,0-7.1.119v.134A31.215,31.215,0,0,1,39.578,387.519Z" transform="translate(-32.549 -309.203)" fill="#ebebeb"/>
              <path id="Path_30" data-name="Path 30" d="M39.206,371.921c1.911.4,4.073.959,6.517,1.255,2.431.382,5.1.773,7.994.948,2.883.315,5.981.315,9.238.386a122.684,122.684,0,0,0,21.076-2.045,122.564,122.564,0,0,0,20.315-5.949c3-1.274,5.871-2.429,8.43-3.794,2.617-1.24,4.951-2.6,7.065-3.857,2.157-1.186,3.956-2.509,5.582-3.589a44.516,44.516,0,0,0,4.038-2.963c.987-.782,1.736-1.391,2.285-1.851h-.527c-.559.376-1.22.829-2.071,1.425-1.108.8-2.477,1.76-4.146,2.755-1.654,1.013-3.474,2.267-5.642,3.392-2.127,1.194-4.463,2.49-7.078,3.673-2.552,1.306-5.416,2.41-8.391,3.641a129.1,129.1,0,0,1-20.119,5.779,129.155,129.155,0,0,1-20.829,2.129c-3.22-.037-6.286.007-9.143-.259-2.868-.123-5.517-.456-7.938-.773-2.431-.235-4.587-.723-6.5-1.047-1.92-.3-3.548-.682-4.872-1.015-.745-.175-1.386-.32-1.941-.443v.406c.518.164,1.121.345,1.807.548A44.12,44.12,0,0,0,39.206,371.921Z" transform="translate(-32.549 -350.463)" fill="#ebebeb"/>
              <path id="Path_31" data-name="Path 31" d="M173.73,354.184a69.938,69.938,0,0,0-19.512,4.453c-6.53,2.462-12.771,6.081-19.108,9.717s-12.555,7.158-18.981,9.506A71.649,71.649,0,0,1,96.856,381.7c-12.594.8-24.021-.376-33.628-.408a95.44,95.44,0,0,0-22.663,1.963c-1.306.33-2.477.579-3.468.879-.948.326-1.769.611-2.477.855a12.87,12.87,0,0,0-2.01.784,13.087,13.087,0,0,0,2.095-.523l2.5-.728c1-.257,2.168-.462,3.472-.747a101.486,101.486,0,0,1,22.533-1.522c9.564.153,20.97,1.436,33.73.7a72.184,72.184,0,0,0,19.644-3.837c6.571-2.38,12.861-5.934,19.2-9.577s12.518-7.23,18.914-9.657a69.385,69.385,0,0,1,19.139-4.446,77.333,77.333,0,0,1,32.881,4.44,76.555,76.555,0,0,1,10.326,4.729v-.909a75.022,75.022,0,0,0-9.989-4.72A77.191,77.191,0,0,0,173.73,354.184Z" transform="translate(-32.478 -346.41)" fill="#ebebeb"/>
              <path id="Path_32" data-name="Path 32" d="M156.755,370.368c-5.593-3.522-13.043-7.32-22.082-7.623-9.037-.361-18.515,3.114-27.6,7.551a207.384,207.384,0,0,0-24.885,14.2c-3.535,2.468-7.519,4.621-9.27,8.584a5.515,5.515,0,0,0,.89,5.848,12.809,12.809,0,0,0,4.481,3,39.737,39.737,0,0,0,15.355,3.66,34.615,34.615,0,0,0,4.3-.121,5.976,5.976,0,0,0,1.481-.242c-.009-.123-2.064.093-5.753-.164a41.375,41.375,0,0,1-14.971-4,11.975,11.975,0,0,1-4.092-2.8,4.423,4.423,0,0,1-.65-4.742c1.509-3.4,5.332-5.543,8.923-7.968a217.886,217.886,0,0,1,24.781-14.021c9.031-4.414,18.273-7.806,26.975-7.523,8.7.214,16.02,3.8,21.609,7.184a124.263,124.263,0,0,1,12.7,9.188c.708.566,1.341,1.073,1.915,1.535v-.538c-.469-.423-.987-.885-1.574-1.4A105.892,105.892,0,0,0,156.755,370.368Z" transform="translate(13.711 -336.252)" fill="#ebebeb"/>
              <path id="Path_33" data-name="Path 33" d="M91.208,382.022c1.056.268,2,.412,2.978.62,3.876.764,7.62,1.5,11.2,2.207,7.089,1.365,13.507,2.6,18.977,3.658,5.249.963,9.577,1.756,12.818,2.352l3.5.572a4.281,4.281,0,0,0,1.237.108,4.356,4.356,0,0,0-1.186-.378c-.944-.225-2.079-.495-3.449-.823-3.22-.7-7.519-1.637-12.734-2.775-5.452-1.136-11.851-2.47-18.921-3.945-3.569-.73-7.307-1.492-11.179-2.283-1.838-.438-4.286-.557-4.779-1.924-.261-.641.106-1.367.805-1.965a7.094,7.094,0,0,1,2.492-1.328,64.885,64.885,0,0,1,23.146-2.63,66.769,66.769,0,0,1,18.685,3.941c10.287,3.8,15.58,8.34,15.759,8.035.026-.039-.294-.32-.933-.821-.654-.479-1.563-1.276-2.872-2.1a59.414,59.414,0,0,0-11.615-6.018,65.46,65.46,0,0,0-42.572-1.712,8.478,8.478,0,0,0-2.984,1.607,4.14,4.14,0,0,0-1.116,1.455,2.648,2.648,0,0,0-.065,2A3.794,3.794,0,0,0,91.208,382.022Z" transform="translate(32.011 -325.439)" fill="#ebebeb"/>
              <path id="Path_34" data-name="Path 34" d="M60.3,378.191a106.654,106.654,0,0,1,21.831,2.585c5.5,1.246,8.838,2.36,8.914,2.142A8.737,8.737,0,0,0,88.79,381.9a61.74,61.74,0,0,0-6.426-2.054,89.832,89.832,0,0,0-44.155-.514c-2.319.574-4.217,1.129-5.66,1.622v.628c1.492-.358,3.457-.82,5.867-1.311A106.7,106.7,0,0,1,60.3,378.191Z" transform="translate(-32.549 -319.898)" fill="#ebebeb"/>
              <path id="Path_35" data-name="Path 35" d="M52.737,416.694c8.566-2.175,19.1-2.9,30.763-4.347,11.7-1.436,24.233-4.869,37.176-8.765s25.321-7.534,36.874-9.309a163.687,163.687,0,0,1,30.931-1.941,171.962,171.962,0,0,1,20.842,2c2.442.4,4.338.715,5.621.959a11.146,11.146,0,0,0,1.976.276,10.574,10.574,0,0,0-1.918-.544c-1.268-.33-3.153-.734-5.588-1.211a151.14,151.14,0,0,0-20.894-2.438,158.357,158.357,0,0,0-31.164,1.667c-11.665,1.723-24.122,5.347-37.066,9.244s-25.362,7.333-36.956,8.825-22.192,2.336-30.834,4.656c-8.612,2.244-15.3,5.549-18.858,9.158a15.986,15.986,0,0,0-1.093,1.2v.741a16.4,16.4,0,0,1,1.46-1.557C37.567,421.918,44.195,418.791,52.737,416.694Z" transform="translate(-32.549 -303.223)" fill="#ebebeb"/>
              <path id="Path_36" data-name="Path 36" d="M52.32,384.531a73.5,73.5,0,0,0,10.918,5.5,79.208,79.208,0,0,0,39.733,5.012,81.046,81.046,0,0,0,21.387-6.012c6.282-2.624,11.885-5.04,16.822-6.344a41.234,41.234,0,0,1,11.913-1.611c2.855.063,4.416.423,4.44.3a3.655,3.655,0,0,0-1.112-.346,23.047,23.047,0,0,0-3.3-.481,38.223,38.223,0,0,0-12.181,1.209c-10.192,2.222-22.572,10.117-38.146,11.939a81.613,81.613,0,0,1-39.206-4.561,89.023,89.023,0,0,1-11-5.062,27.987,27.987,0,0,0-3.915-2.149A28.169,28.169,0,0,0,52.32,384.531Z" transform="translate(-13.857 -315.69)" fill="#ebebeb"/>
              <path id="Path_37" data-name="Path 37" d="M163.023,400.055c3.41.451,6.508.8,9.186,1.378,2.686.516,5.018.885,6.878,1.4l4.325,1.015a6.722,6.722,0,0,0,1.537.266,6.883,6.883,0,0,0-1.462-.529c-1.119-.33-2.533-.749-4.271-1.268-1.848-.594-4.174-1.041-6.863-1.633-2.678-.654-5.785-1.069-9.212-1.585a140.721,140.721,0,0,0-53.769,3.369,142.3,142.3,0,0,0-27.9,10.439,138.222,138.222,0,0,0-20.661,12.885c-1.339,1.069-2.693,2.626-2.522,4.481a4.393,4.393,0,0,0,2.924,3.541c2.721,1.179,5.269.507,7.109.261A12.4,12.4,0,0,1,72.677,434c.974.22,1.438.5,1.468.443a3.806,3.806,0,0,0-1.4-.708,11.476,11.476,0,0,0-4.489-.188c-1.913.179-4.312.708-6.733-.43a3.607,3.607,0,0,1-2.371-2.907c-.117-1.384.954-2.665,2.263-3.673a145,145,0,0,1,101.608-26.487Z" transform="translate(-2.724 -295.469)" fill="#ebebeb"/>
              <path id="Path_38" data-name="Path 38" d="M76.045,422.581a3.131,3.131,0,0,1-.19-2.667,6.958,6.958,0,0,1,2.2-2.39A54.815,54.815,0,0,1,92.7,408.914a67.95,67.95,0,0,1,20.3-4.556c14.874-1.052,28.212,2.488,37.439,5.5,4.647,1.527,8.337,2.973,10.888,3.975a28.956,28.956,0,0,0,4,1.473c.022-.045-.307-.24-.948-.574s-1.6-.814-2.846-1.386c-2.494-1.153-6.146-2.742-10.784-4.4-9.208-3.256-22.68-7.009-37.852-5.943a67.077,67.077,0,0,0-20.678,4.755,53.484,53.484,0,0,0-14.79,9.037,7.588,7.588,0,0,0-2.384,2.8,3.911,3.911,0,0,0,.322,3.354,5.9,5.9,0,0,0,4.256,2.827,13.628,13.628,0,0,0,3.2.147,3.309,3.309,0,0,0,1.1-.151c.013-.155-1.561.019-4.189-.512A5.388,5.388,0,0,1,76.045,422.581Z" transform="translate(16.448 -289.768)" fill="#ebebeb"/>
              <path id="Path_39" data-name="Path 39" d="M37.85,419.85a163.929,163.929,0,0,0,18.415,8.7,174.827,174.827,0,0,0,102.513,8.355c11.114-2.369,21.063-4.675,29.566-5.679a81.041,81.041,0,0,1,20.188-.263c1.164.162,2.213.311,3.148.441l2.285.464a10.843,10.843,0,0,0,1.909.309,9.813,9.813,0,0,0-1.846-.577l-2.272-.594q-1.4-.253-3.151-.568a76.347,76.347,0,0,0-20.372-.166c-17.193,1.578-39.97,9.689-66.228,9.38a180.384,180.384,0,0,1-65.391-12A191.866,191.866,0,0,1,38.1,419.384c-2.023-1.078-3.643-1.943-4.874-2.6-.255-.134-.477-.248-.678-.35v.25c.166.106.337.207.54.335C34.292,417.736,35.874,418.677,37.85,419.85Z" transform="translate(-32.549 -273.975)" fill="#ebebeb"/>
              <path id="Path_40" data-name="Path 40" d="M123.409,422.951a95.867,95.867,0,0,1-16.8-1.08,65.815,65.815,0,0,1-13.248-3.531c-7.312-2.853-11.132-6.025-11.281-5.792-.028.037.19.253.637.63a22.82,22.82,0,0,0,2.03,1.55,45.233,45.233,0,0,0,8.251,4.5,62.074,62.074,0,0,0,13.4,3.876,90.527,90.527,0,0,0,17.022,1.2c12.108-.255,22.915-1.79,30.763-2.572,2.017-.246,3.842-.464,5.5-.663v-.708c-1.68.125-3.533.261-5.589.41C146.228,421.319,135.385,422.7,123.409,422.951Z" transform="translate(24.88 -278.495)" fill="#ebebeb"/>
              <path id="Path_41" data-name="Path 41" d="M59.379,427.313c8.849,2.326,19.044,6.407,30.918,9.251a170.921,170.921,0,0,0,39.286,4.764c28.368.693,52.747-9.3,71.1-8.681a59.373,59.373,0,0,1,16.429,2.3v-.693a58.22,58.22,0,0,0-16.416-2.568c-18.7-.829-43.037,9-71.111,8.283a173.87,173.87,0,0,1-39-4.621c-11.779-2.751-22.015-6.733-30.963-8.964-8.918-2.36-16.472-2.976-21.62-2.557a42.044,42.044,0,0,0-5.457.747v.3a53.288,53.288,0,0,1,5.485-.516C43.134,424.1,50.558,424.851,59.379,427.313Z" transform="translate(-32.549 -265.549)" fill="#ebebeb"/>
              <path id="Path_42" data-name="Path 42" d="M53.925,443.326A86.862,86.862,0,0,1,85.441,436.3c12.246-.538,25.677,1.253,39.761,3.019,7.05.864,13.965,1.6,20.683,1.883a140.84,140.84,0,0,0,19.359-.533c12.244-1.136,23.311-2.222,32.473-.782a45.818,45.818,0,0,1,19.4,7.135v-.693a45.535,45.535,0,0,0-19.253-7.394c-9.3-1.585-20.512-.579-32.721.484a142.187,142.187,0,0,1-19.2.451c-6.66-.294-13.535-1.039-20.575-1.9-14.064-1.762-27.59-3.533-39.981-2.922a86.275,86.275,0,0,0-31.847,7.4,84.522,84.522,0,0,0-18.832,11.514c-.812.659-1.516,1.257-2.159,1.816v.551c.728-.587,1.548-1.235,2.488-1.95A89.341,89.341,0,0,1,53.925,443.326Z" transform="translate(-32.549 -252.542)" fill="#ebebeb"/>
              <path id="Path_43" data-name="Path 43" d="M107.482,445.861a133.552,133.552,0,0,0-26.172-3.116A71.1,71.1,0,0,0,59.99,445.8a49.424,49.424,0,0,0-12.753,6.057h1.049a54.208,54.208,0,0,1,11.985-5.137A72.7,72.7,0,0,1,81.3,444a138.139,138.139,0,0,1,25.908,3.2c7.661,1.563,14.958,3.284,21.836,4.662h6.763c-.888-.16-1.751-.3-2.66-.473C125.243,449.878,116.631,447.729,107.482,445.861Z" transform="translate(-15.52 -243.473)" fill="#ebebeb"/>
            </g>
            <g id="Group_40" data-name="Group 40" transform="translate(32.548 346.034)">
              <g id="Group_30" data-name="Group 30" transform="translate(0 91.62)">
                <g id="Group_24" data-name="Group 24" transform="translate(0 66.66)">
                  <rect id="Rectangle_15" data-name="Rectangle 15" width="133.569" height="2.613" fill="#e0e0e0"/>
                </g>
                <g id="Group_25" data-name="Group 25" transform="translate(0 135.413)">
                  <rect id="Rectangle_16" data-name="Rectangle 16" width="133.587" height="2.611" fill="#e0e0e0"/>
                </g>
                <g id="Group_26" data-name="Group 26" transform="translate(53.766 67.968)">
                  <rect id="Rectangle_17" data-name="Rectangle 17" width="28.212" height="5.983" fill="#e0e0e0"/>
                </g>
                <g id="Group_27" data-name="Group 27" transform="translate(53.766)">
                  <rect id="Rectangle_18" data-name="Rectangle 18" width="28.212" height="5.985" fill="#e0e0e0"/>
                </g>
                <g id="Group_28" data-name="Group 28" transform="translate(53.766 136.358)">
                  <rect id="Rectangle_19" data-name="Rectangle 19" width="28.212" height="5.985" fill="#e0e0e0"/>
                </g>
                <g id="Group_29" data-name="Group 29" transform="translate(133.568)">
                  <rect id="Rectangle_20" data-name="Rectangle 20" width="51.002" height="208.497" transform="translate(0)" fill="#ebebeb"/>
                </g>
              </g>
              <g id="Group_36" data-name="Group 36" transform="translate(0.001)">
                <g id="Group_31" data-name="Group 31" transform="translate(0 5.776)">
                  <rect id="Rectangle_21" data-name="Rectangle 21" width="18.018" height="85.844" fill="#ebebeb"/>
                </g>
                <g id="Group_32" data-name="Group 32" transform="translate(27.164 14.515)">
                  <rect id="Rectangle_22" data-name="Rectangle 22" width="12.56" height="77.105" fill="#ebebeb"/>
                </g>
                <g id="Group_33" data-name="Group 33" transform="translate(18.018 14.515)">
                  <rect id="Rectangle_23" data-name="Rectangle 23" width="9.146" height="77.105" fill="#e0e0e0"/>
                </g>
                <g id="Group_34" data-name="Group 34" transform="translate(39.724 23.367)">
                  <rect id="Rectangle_24" data-name="Rectangle 24" width="9.283" height="68.253" fill="#f5f5f5"/>
                </g>
                <g id="Group_35" data-name="Group 35" transform="translate(49.007)">
                  <rect id="Rectangle_25" data-name="Rectangle 25" width="19.657" height="91.62" fill="#ebebeb"/>
                </g>
              </g>
              <g id="Group_39" data-name="Group 39" transform="translate(80.681 51.149)">
                <g id="Group_37" data-name="Group 37" transform="translate(0 0.001)">
                  <path id="Path_44" data-name="Path 44" d="M71.764,331.721l-1.853,7.724,1.853,2.781v4.632l-1.853,4.325,1.853,1.546v10.814l-1.853,1.235,1.853,1.546v5.867h99.174v-7.1l-1.855-3.4,1.855-15.45-1.546-7.413s-1.544-3.09-1.544-4.019.309-3.088.309-3.088Z" transform="translate(-69.911 -331.721)" fill="#ebebeb"/>
                </g>
                <g id="Group_38" data-name="Group 38" transform="translate(50.512)" opacity="0.24">
                  <path id="Path_45" data-name="Path 45" d="M95.678,372.192l-2.376-11.2,2.376-4.612v-4.424L93.3,349.641l2.376-3.549V331.721h45.358l-.309,3.089,1.545,4.017,1.546,7.415-1.854,15.449,1.854,3.4v7.1Z" transform="translate(-93.303 -331.721)" fill="#e0e0e0"/>
                </g>
              </g>
            </g>
          </g>
        </g>
        <g id="Plant" transform="translate(209.012 9938.34)">
          <g id="Group_36-2" data-name="Group 36" transform="translate(38.19 261.235)">
            <g id="Group_22" data-name="Group 22" transform="translate(66.419 21.961)">
              <path id="Path_25-2" data-name="Path 25" d="M122.746,291.232c-4.573-4.48-10.483-9.894-17.474-7.962-6.578,1.817-9.1,9-10.273,14.98-1.518,7.71-2.7,15.495-3.923,23.255q-1.855,11.758-3.527,23.543-.954,6.649-1.885,13.3-.464,3.327-.925,6.653c-.3,2.176-.665,4.348-.785,6.543-.038.7,1.06.8,1.212.134.848-3.7,1.2-7.544,1.742-11.3q.819-5.663,1.644-11.325,1.644-11.247,3.36-22.485,1.694-11.245,3.495-22.474c1.015-6.348,1.493-14.236,7.122-18.424,3.087-2.3,7.026-2.322,10.525-.987,3.7,1.414,6.663,4.065,9.56,6.688A.1.1,0,0,0,122.746,291.232Z" transform="translate(-83.953 -273.433)" fill="#263238"/>
              <g id="Group_21" data-name="Group 21" transform="translate(17.224)">
                <path id="Path_26-2" data-name="Path 26" d="M111.132,289.589s-9.348-3.366-13.961,3.457.9,24.174,43.463,33.963a120.188,120.188,0,0,0-10.241-38.474C121.269,268.637,105.011,276.173,111.132,289.589Z" transform="translate(-95.821 -276.367)" fill="#ffc727"/>
                <g id="Group_20" data-name="Group 20" transform="translate(10.174 10.15)">
                  <path id="Path_27-2" data-name="Path 27" d="M134.932,320.272a33.216,33.216,0,0,0-2.141-3.451q-1.067-1.646-2.158-3.276c-.547-.817-1.106-1.627-1.665-2.437.041-.2.052-.4.078-.61.049-.369.1-.737.147-1.1.1-.8.221-1.594.338-2.39s.25-1.585.4-2.374a12.66,12.66,0,0,1,.557-2.508c.054-.123-.17-.186-.186-.039a9.232,9.232,0,0,1-.38,1.409c-.1.357-.193.717-.286,1.075q-.309,1.21-.585,2.431c-.168.749-.311,1.5-.438,2.26-.061.363-.115.727-.164,1.091-.759-1.083-1.533-2.154-2.331-3.206-2.26-2.977-4.65-5.842-7.123-8.637.01-.028.036-.044.038-.077.221-4.472.113-8.9,1.106-13.3.026-.12-.154-.186-.181-.065-.93,4.126-1.858,8.46-1.591,12.723q-1.33-1.487-2.691-2.951-3.109-3.342-6.341-6.57c-.087-.087-.225.041-.141.131,3.586,3.861,6.993,7.882,10.311,11.977a73.249,73.249,0,0,0-7.781.287c-2.885.213-5.753.582-8.618.978-.122.017-.086.208.036.189a80.987,80.987,0,0,1,8.607-.771c2.776-.115,5.538.01,8.312,0q2.689,3.335,5.313,6.72c-.125,0-.255,0-.4-.007-.652-.013-1.3-.023-1.956-.012-1.293.022-2.589.113-3.877.222a59.034,59.034,0,0,0-7.859,1.176.1.1,0,0,0,.036.189c2.615-.295,5.237-.54,7.866-.633,1.255-.044,2.509-.044,3.765-.044.653,0,1.3-.006,1.958,0a2.465,2.465,0,0,0,1.074-.1c1.145,1.486,2.292,2.972,3.425,4.466q1.354,1.783,2.669,3.6c.894,1.237,1.7,2.586,2.7,3.743C134.851,320.468,134.978,320.368,134.932,320.272Z" transform="translate(-102.741 -282.62)" fill="#263238"/>
                  <path id="Path_28-2" data-name="Path 28" d="M112.039,292.207a28.387,28.387,0,0,0-4.553-.222c-1.518,0-3.038.045-4.556.1a.1.1,0,1,0,.012.19c1.54-.11,3.078-.136,4.621-.113,1.489.022,2.983.164,4.47.123A.038.038,0,0,0,112.039,292.207Z" transform="translate(-102.831 -279.468)" fill="#263238"/>
                  <path id="Path_29-2" data-name="Path 29" d="M118.6,295.891c.174-1.453.356-2.914.666-4.345a.1.1,0,1,0-.186-.039c-.219,1.431-.5,2.852-.708,4.284q-.159,1.073-.292,2.152a9.957,9.957,0,0,0-.174,2.029.131.131,0,0,0,.25.019,12.578,12.578,0,0,0,.221-2.026Q118.473,296.927,118.6,295.891Z" transform="translate(-96.033 -279.722)" fill="#263238"/>
                  <path id="Path_30-2" data-name="Path 30" d="M116.921,283.424c-.373,1.415-.742,2.846-1,4.287-.132.73-.244,1.464-.343,2.2a8.843,8.843,0,0,0-.144,2.15.059.059,0,0,0,.112.009,12.188,12.188,0,0,0,.335-2.051q.141-1.06.325-2.116c.258-1.483.521-2.954.9-4.414C117.133,283.37,116.953,283.3,116.921,283.424Z" transform="translate(-97.155 -283.361)" fill="#263238"/>
                </g>
              </g>
            </g>
            <g id="Group_24-2" data-name="Group 24" transform="translate(16.602 62.41)">
              <path id="Path_31-2" data-name="Path 31" d="M84.778,358.96q-.353-4.019-.778-8.032-.84-7.955-1.919-15.878c-.708-5.267-1.386-10.547-2.232-15.8a39.41,39.41,0,0,0-1.624-7.171,6.8,6.8,0,0,0-3.972-4.482c-5.007-1.73-8.386,3.463-10.408,7.136-.061.11.1.193.168.093,1.21-1.739,4.557-6.625,8.356-6.4,2.556.154,4.6,1.964,5.827,8.337,3.058,15.881,5.813,48.109,6.135,50.216.171,1.118.961,1.07.967-.128C85.314,364.222,85.008,361.584,84.778,358.96Z" transform="translate(-43.218 -302.872)" fill="#263238"/>
              <path id="Path_32-2" data-name="Path 32" d="M71.607,314.127s4.376-15.454-5.3-7.727C50.2,319.263,49.629,347.246,49.629,347.246s28.631-16.63,32.191-27.6C87.124,303.308,71.607,314.127,71.607,314.127Z" transform="translate(-49.629 -304.236)" fill="#ffc727"/>
              <g id="Group_23-2" data-name="Group 23" transform="translate(1.818 7.947)">
                <path id="Path_33-2" data-name="Path 33" d="M76.46,319.243c-2.247.454-4.524.753-6.794,1.08q-1.609.231-3.222.453c-.726.1-1.46.168-2.19.258,2.134-2.939,4.283-5.865,6.328-8.862.08-.116-.1-.235-.192-.141a66.368,66.368,0,0,0-4.784,5.521c-.419-1.2-.849-2.39-1.27-3.586-.486-1.385-1.01-2.76-1.361-4.187-.03-.12-.218-.064-.184.055.39,1.417.668,2.862,1.046,4.283.366,1.372.782,2.727,1.268,4.06-1.049,1.363-2.054,2.758-3.032,4.165-.493-1.4-1.1-2.747-1.536-4.165a.1.1,0,0,0-.184.055c.512,1.569.79,3.2,1.271,4.778-.657.959-1.315,1.92-1.942,2.89-1.157,1.787-2.245,3.605-3.312,5.437a.426.426,0,0,0-.251.432c-1.808,3.129-3.53,6.3-5.226,9.508a.1.1,0,0,0,.167.093c1.7-3.164,3.591-6.244,5.557-9.27l.02,0a4.3,4.3,0,0,1,.936-.181c.331-.068.66-.142.99-.215.74-.161,1.473-.353,2.209-.536,1.451-.36,2.888-.7,4.363-.956.122-.022.067-.208-.055-.184-1.733.329-3.472.527-5.223.73-.827.1-1.652.2-2.473.332l-.119.017q1.544-2.347,3.131-4.652c1.041-1.509,2.109-3,3.183-4.486.993-.139,1.977-.4,2.962-.589q1.661-.318,3.322-.646c2.218-.438,4.424-.935,6.653-1.3C76.635,319.406,76.583,319.217,76.46,319.243Z" transform="translate(-50.882 -309.712)" fill="#263238"/>
                <path id="Path_34-2" data-name="Path 34" d="M57.033,318.537c-.134-.408-.257-.82-.386-1.229a24.465,24.465,0,0,1-.657-2.592c-.025-.12-.209-.065-.184.057.187.872.392,1.742.592,2.611a16.911,16.911,0,0,0,.745,2.57.174.174,0,0,0,.332-.1C57.35,319.41,57.176,318.976,57.033,318.537Z" transform="translate(-48.661 -307.484)" fill="#263238"/>
                <path id="Path_35-2" data-name="Path 35" d="M72.989,313.813c-1.306.2-2.624.287-3.938.4s-2.624.3-3.935.5c-.073.01-.074.12,0,.115,1.319-.09,2.627-.192,3.939-.364s2.617-.366,3.936-.457C73.118,314,73.108,313.8,72.989,313.813Z" transform="translate(-44.481 -307.861)" fill="#263238"/>
              </g>
            </g>
            <g id="Group_27-2" data-name="Group 27" transform="translate(0 7.425)">
              <path id="Path_36-2" data-name="Path 36" d="M108.436,355.448c-.508-11.38-1.231-22.739-2.374-34.074-.569-5.644-1.206-11.284-2-16.9a120.792,120.792,0,0,0-3.26-16.36c-1.171-4.1-2.71-8.207-5.446-11.534a12.365,12.365,0,0,0-11-4.8c-4.981.615-8.99,3.753-12.459,7.162-3.891,3.824-7.454,8-11.059,12.09q-1.367,1.552-2.713,3.125c-.08.093.058.226.139.132,3.524-4.048,7.184-7.981,11.016-11.742,3.54-3.476,7.186-7.274,12.09-8.71a12.458,12.458,0,0,1,7.025-.165,11.146,11.146,0,0,1,4.8,3.039c2.759,2.871,4.311,6.76,5.412,10.524,3.059,10.459,4.155,21.427,5.292,32.228,1.155,10.974,1.935,21.978,2.486,33,.554,11.078.987,22.17,2.054,33.215.132,1.364.309,2.723.482,4.081.118.914,1.536.916,1.46-.036C109.472,378.3,108.947,366.883,108.436,355.448Z" transform="translate(-29.204 -263.94)" fill="#263238"/>
              <g id="Group_26-2" data-name="Group 26">
                <path id="Path_37-2" data-name="Path 37" d="M80.254,282.582s6.5-12.026-1.18-15.884S45.7,291.525,38.19,333.47c0,0,41.5-18.363,55.6-36.662S91.9,274.482,80.254,282.582Z" transform="translate(-38.19 -266.351)" fill="#ffc727"/>
                <g id="Group_25-2" data-name="Group 25" transform="translate(6.491 13.942)">
                  <path id="Path_38-2" data-name="Path 38" d="M84.337,288.027c-4.665.01-9.316-.354-13.982-.321.874-1,1.745-2.007,2.628-3a43.706,43.706,0,0,0,3.646-4.237c.065-.1-.074-.234-.168-.16a34,34,0,0,0-3.53,3.54q-1.753,1.861-3.488,3.739c-1.784,1.929-3.53,3.891-5.273,5.855,0-.192-.009-.38-.007-.566,0-.816,0-1.633,0-2.45.01-1.582.033-3.164.049-4.746.03-3.206.023-6.431.245-9.631.009-.123-.183-.118-.192,0-.224,3.218-.556,6.421-.714,9.643-.078,1.582-.116,3.164-.135,4.749-.01.816-.023,1.634-.017,2.45,0,.446-.013.916.02,1.374-.271.308-.553.607-.824.914-3.723,4.255-7.261,8.654-10.708,13.132,0-.247-.038-.5-.061-.743-.048-.493-.107-.987-.163-1.48-.12-1.071-.267-2.136-.427-3.2q-.226-1.5-.478-3c-.189-1.12-.463-2.257-.549-3.39a.1.1,0,1,0-.187.03,29.88,29.88,0,0,1,.39,3.415q.144,1.539.284,3.08c.091,1.028.184,2.054.29,3.081.051.493.094.987.148,1.48.026.247.057.493.09.739a1.424,1.424,0,0,0,.2.588c-.592.772-1.187,1.541-1.774,2.318-2.354,3.115-4.663,6.264-6.975,9.411-.071.1.064.231.139.132,2.189-2.853,4.44-5.656,6.721-8.432,1.708.073,3.45-.054,5.157-.081,1.8-.031,3.6-.039,5.4-.045a.1.1,0,0,0,0-.192c-1.8.03-3.6.058-5.4.065-1.64.006-3.315-.074-4.956.015q3.009-3.66,6.068-7.28c.74-.882,1.486-1.76,2.229-2.643a10.182,10.182,0,0,0,2.083.07q1.228,0,2.454,0c1.534-.006,3.067-.041,4.6-.064,3.168-.049,6.338-.154,9.505-.163a.1.1,0,0,0,0-.192c-3.171-.039-6.344-.176-9.515-.255-1.534-.039-3.07-.09-4.6-.11-.819-.012-1.637-.019-2.454-.028-.466-.006-.946-.038-1.418-.02q2.61-3.1,5.228-6.2a.235.235,0,0,0,.1-.113c1.7-2.006,3.4-4.013,5.122-6,.235-.273.475-.54.711-.813,4.836.151,9.665-.167,14.5-.073C84.464,288.221,84.46,288.025,84.337,288.027Z" transform="translate(-42.662 -275.957)" fill="#263238"/>
                  <path id="Path_39-2" data-name="Path 39" d="M70.109,289.955l-1.131.01c-.11,0-.106.171,0,.173l1.131.009C70.236,290.148,70.232,289.954,70.109,289.955Z" transform="translate(-30.82 -269.639)" fill="#263238"/>
                  <path id="Path_40-2" data-name="Path 40" d="M70.756,290.033q-2.242-.03-4.483-.094-1.119-.03-2.241-.071a8.35,8.35,0,0,0-2.086.025c-.073.017-.06.12,0,.139a8.033,8.033,0,0,0,2.089.148q1.121.02,2.241.032,2.24.022,4.48.014A.1.1,0,0,0,70.756,290.033Z" transform="translate(-33.98 -269.704)" fill="#263238"/>
                  <path id="Path_41-2" data-name="Path 41" d="M61.875,299.873a62.229,62.229,0,0,0-9.178-.827c-.045,0-.041.062,0,.067,3.049.29,6.1.456,9.131.948C61.951,300.08,62,299.89,61.875,299.873Z" transform="translate(-38.147 -265.536)" fill="#263238"/>
                  <path id="Path_42-2" data-name="Path 42" d="M50.772,292.3c-.03-.267-.061-.534-.1-.8-.078-.6-.173-1.2-.267-1.8q-.27-1.709-.6-3.409c-.02-.106-.2-.078-.189.03q.216,1.757.379,3.522c.054.578.1,1.157.149,1.734a4.833,4.833,0,0,0,.234,1.644c.087.178.356.106.4-.062A2.24,2.24,0,0,0,50.772,292.3Z" transform="translate(-39.52 -271.32)" fill="#263238"/>
                </g>
              </g>
            </g>
            <g id="Group_30-2" data-name="Group 30" transform="translate(62.38)">
              <path id="Path_43-2" data-name="Path 43" d="M97.613,268.819c-1.486-2.765-3.376-6.418-7.084-6.186-3.062.192-4.441,3.315-5.1,5.9-2.022,7.987-2.164,16.413-2.557,24.6-.833,17.3-1.581,34.618-1.691,51.94q-.044,7.2.032,14.4c.045,4.9.032,9.821.343,14.71a.361.361,0,0,0,.721-.017c.026-4.189-.122-8.38-.139-12.569q-.024-6.133.081-12.263.2-12.418.663-24.83c.3-8.225.666-16.445,1.015-24.667q.261-6.163.533-12.327c.18-3.981.353-7.965.807-11.926.255-2.218.583-4.437,1.046-6.621a9.21,9.21,0,0,1,1.914-4.437,4.185,4.185,0,0,1,5.412-.392,11.468,11.468,0,0,1,3.836,4.787C97.505,269.031,97.671,268.929,97.613,268.819Z" transform="translate(-81.17 -260.609)" fill="#263238"/>
              <g id="Group_29-2" data-name="Group 29" transform="translate(7.554)">
                <path id="Path_44-2" data-name="Path 44" d="M94.259,268.126s-3.048-10.766,3.692-5.383C109.17,271.7,109.568,291.2,109.568,291.2s-19.943-11.585-22.424-19.225C83.45,260.589,94.259,268.126,94.259,268.126Z" transform="translate(-86.375 -261.235)" fill="#ffc727"/>
                <g id="Group_28-2" data-name="Group 28" transform="translate(4.861 5.8)">
                  <path id="Path_45-2" data-name="Path 45" d="M103.862,280.789c-.184-.3-.38-.586-.567-.882a5.529,5.529,0,0,0,0-.917c0-.463-.006-.927,0-1.39q.033-1.363.1-2.727c.006-.123-.186-.118-.192,0q-.07,1.339-.107,2.676c-.013.447-.033.893-.048,1.34-.006.174-.028.374-.038.575-.784-1.216-1.586-2.419-2.418-3.6-.242-.342-.495-.676-.74-1.016a20.917,20.917,0,0,1-.06-3.517c.015-1.251.032-2.5.075-3.752,0-.123-.189-.119-.192,0-.036,1.3-.1,2.6-.167,3.9a25.117,25.117,0,0,0-.077,2.785c-1.927-2.618-3.968-5.144-6.038-7.655-.07-.084-.216.033-.148.119,1.28,1.621,2.508,3.284,3.711,4.967-2.347-.547-4.733-.862-7.118-1.206-.122-.019-.17.167-.046.186,2.524.382,5,1.015,7.493,1.565.02,0,.032-.009.049-.009q1.435,2.018,2.839,4.054c.383.552.755,1.112,1.132,1.666l-.107-.013c-.258-.036-.517-.076-.776-.106-.552-.067-1.1-.11-1.659-.154-1.149-.09-2.3-.151-3.453-.213-.123-.006-.119.19,0,.193,1.135.026,2.261.112,3.389.234.6.064,1.189.145,1.784.215l.779.093.228.032q.958,1.415,1.919,2.826c1.126,1.666,2.131,3.45,3.332,5.058a.091.091,0,0,0,.155-.1A51.783,51.783,0,0,0,103.862,280.789Z" transform="translate(-89.724 -264.62)" fill="#263238"/>
                  <path id="Path_46" data-name="Path 46" d="M96.116,269.241c0-.419.009-.839.009-1.257a19.03,19.03,0,0,1,.106-2.637c.019-.139-.19-.16-.19-.022,0,.872-.1,1.743-.136,2.614-.022.435-.022.872-.023,1.308,0,.2,0,.4,0,.6a1.841,1.841,0,0,0,.046.626.087.087,0,0,0,.167,0,1.83,1.83,0,0,0,.026-.578C96.117,269.676,96.116,269.459,96.116,269.241Z" transform="translate(-86.947 -265.231)" fill="#263238"/>
                  <path id="Path_47" data-name="Path 47" d="M95.845,271.214c-.742-.126-1.5-.165-2.25-.228-.823-.07-1.644-.142-2.463-.248a.1.1,0,1,0-.022.189c1.575.1,3.142.383,4.718.438A.077.077,0,0,0,95.845,271.214Z" transform="translate(-89.141 -262.746)" fill="#263238"/>
                </g>
              </g>
              <path id="Path_48" data-name="Path 48" d="M98.669,271.154c.058.081.019.316.019.414v.348c0,.25,0,.5,0,.752s0,.5-.006.753a1.559,1.559,0,0,0,.036.657.043.043,0,0,0,.074,0,.647.647,0,0,0,.038-.312c0-.116,0-.232,0-.347l-.006-.753c0-.251,0-.5,0-.753v-.347c0-.106-.041-.328.022-.415C98.956,270.976,98.54,270.973,98.669,271.154Z" transform="translate(-73.283 -256.82)" fill="#263238"/>
            </g>
            <g id="Group_33-2" data-name="Group 33" transform="translate(45.008 49.153)">
              <path id="Path_49" data-name="Path 49" d="M103.479,308.93c-4.2-3.148-7.964-7.673-13.605-7.9-4.656-.183-7.919,3.322-9.785,7.226a40.758,40.758,0,0,0-2.283,6.431q-1.263,4.419-2.376,8.879c-1.462,5.849-2.718,11.753-3.734,17.7-.567,3.312-1.1,6.637-1.515,9.972a84.34,84.34,0,0,0-.98,10.209.531.531,0,0,0,1.042.115c.567-2.79.806-5.669,1.216-8.486.414-2.835.843-5.668,1.322-8.492q1.439-8.473,3.341-16.866c1.2-5.276,2.385-10.634,4.087-15.775,1.221-3.684,3.178-7.983,7.157-9.308,6.054-2.014,11.55,3.109,15.98,6.434C103.445,309.143,103.578,309,103.479,308.93Z" transform="translate(-69.201 -292.428)" fill="#263238"/>
              <g id="Group_32-2" data-name="Group 32" transform="translate(15.421)">
                <path id="Path_50" data-name="Path 50" d="M94.341,308.592s-3.865-11.041,1.727-13.2c8.38-3.245,30.316,21.461,26.023,59.316,0,0-16.949-9.337-29.464-19.84s-15.717-24.222-10.2-27.769S94.341,308.592,94.341,308.592Z" transform="translate(-79.826 -295.102)" fill="#ffc727"/>
                <g id="Group_31-2" data-name="Group 31" transform="translate(7.393 11.502)">
                  <path id="Path_51" data-name="Path 51" d="M116.084,343.012a29.04,29.04,0,0,0-2.038-3.817c-.716-1.295-1.441-2.588-2.189-3.865-1.457-2.491-2.9-4.988-4.395-7.459-.242-.4-.493-.8-.736-1.2.033-.147.06-.3.093-.443l.248-1.1c.187-.82.329-1.65.485-2.477.3-1.621.585-3.263,1.022-4.852.032-.118-.164-.155-.19-.033-.345,1.618-.856,3.212-1.335,4.8-.235.779-.486,1.557-.692,2.345-.071.27-.142.541-.212.811-1.8-2.954-3.636-5.894-5.611-8.734a3.964,3.964,0,0,0,.2-1.213c.058-.554.126-1.107.192-1.66.148-1.245.29-2.491.473-3.732a72.716,72.716,0,0,1,1.328-7.252c.03-.12-.158-.152-.189-.033-.6,2.383-1.261,4.768-1.713,7.184-.222,1.186-.433,2.376-.591,3.57-.08.6-.144,1.2-.2,1.8-.019.177-.046.36-.07.543-.608-.858-1.215-1.717-1.852-2.553-1.936-2.547-3.942-5.033-5.967-7.511-.077-.094-.235.015-.157.112a133.465,133.465,0,0,1,9.531,13.919c.554.888,1.1,1.785,1.647,2.676-.184-.025-.367-.046-.544-.068-.708-.09-1.427-.135-2.138-.2q-2.138-.2-4.28-.37c-2.855-.228-5.717-.4-8.566-.708-.122-.013-.157.176-.033.189,2.887.331,5.759.794,8.634,1.2q2.12.3,4.245.572a16.857,16.857,0,0,0,3.268.335q1.681,2.732,3.366,5.464a6.3,6.3,0,0,0-.758-.029c-.476-.007-.952,0-1.427,0q-1.328,0-2.653,0c-1.839,0-3.678.038-5.517.035-.123,0-.1.19.019.192,1.864.023,3.721.118,5.582.215q1.324.067,2.646.16c.441.03.881.067,1.322.094a2.729,2.729,0,0,0,1.164-.045c.952,1.552,1.913,3.1,2.864,4.649q1.315,2.149,2.671,4.273a34.184,34.184,0,0,0,2.874,4.315C115.974,343.195,116.129,343.132,116.084,343.012Z" transform="translate(-83.746 -303.027)" fill="#263238"/>
                  <path id="Path_52" data-name="Path 52" d="M102.207,309.52a26.754,26.754,0,0,1-.758,3.6q-.468,1.84-1.067,3.643a.12.12,0,1,0,.228.073q.564-1.787,1.006-3.611c.295-1.216.485-2.456.781-3.669C102.426,309.434,102.221,309.4,102.207,309.52Z" transform="translate(-77.944 -300.131)" fill="#263238"/>
                  <path id="Path_53" data-name="Path 53" d="M96.731,315.1a1.412,1.412,0,0,0-.925-.344c-.533-.076-1.067-.145-1.6-.219-.991-.135-1.987-.244-2.98-.361-2.065-.241-4.133-.443-6.2-.7-.122-.016-.157.174-.033.189,1.948.238,3.885.533,5.832.788.954.125,1.906.26,2.861.372.459.054.919.1,1.377.154a4.845,4.845,0,0,1,1.572.27C96.731,315.287,96.8,315.164,96.731,315.1Z" transform="translate(-84.92 -298.314)" fill="#263238"/>
                  <path id="Path_54" data-name="Path 54" d="M103.532,326.145c-.974-.083-1.958-.113-2.935-.144l-1.48-.045-.71-.023a4.367,4.367,0,0,1-.925-.054c-.135-.035-.149.213-.007.19a4.128,4.128,0,0,1,.866.028l.768.046,1.479.089c.975.06,1.958.116,2.935.123C103.641,326.355,103.651,326.155,103.532,326.145Z" transform="translate(-79.298 -292.715)" fill="#263238"/>
                  <path id="Path_55" data-name="Path 55" d="M105.919,324.712c.112-.553.216-1.109.319-1.665l.6-3.273a.1.1,0,0,0-.19-.033l-.718,3.189c-.12.531-.239,1.062-.35,1.6l-.152.737a2.052,2.052,0,0,0-.089.782c.017.088.15.161.212.067A4.006,4.006,0,0,0,105.919,324.712Z" transform="translate(-75.71 -295.517)" fill="#263238"/>
                </g>
              </g>
            </g>
            <g id="Group_35-2" data-name="Group 35" transform="translate(30.599 111.407)">
              <g id="Group_34-2" data-name="Group 34" transform="translate(4.371 11.07)">
                <path id="Path_56" data-name="Path 56" d="M117.1,345.622l-.941,15.645-2.786,46.191H66.011l-2.785-46.191-.941-15.645Z" transform="translate(-62.284 -345.622)" fill="#e0e0e0"/>
                <path id="Path_57" data-name="Path 57" d="M117.1,345.622l-.941,15.645H63.225l-.941-15.645Z" transform="translate(-62.284 -345.622)" fill="#e0e0e0"/>
              </g>
              <rect id="Rectangle_24-2" data-name="Rectangle 24" width="63.562" height="15.656" fill="#ebebeb"/>
            </g>
          </g>
        </g>
      </g>
    </g>
  </g>
</svg>
