<svg xmlns="http://www.w3.org/2000/svg" width="250.367" height="300.973" xmlns:v="https://vecta.io/nano"><g fill="#f5f5f5"><path d="M72.613 112.336l6.5 1.047 7.938.773c2.857.266 5.923.223 9.143.259a129.2 129.2 0 0 0 20.829-2.129 129.1 129.1 0 0 0 20.119-5.779l8.391-3.641c2.615-1.183 4.951-2.479 7.078-3.673 2.168-1.125 3.988-2.38 5.642-3.392l4.146-2.755 2.071-1.425H65.8v19.257l1.941.443a53.28 53.28 0 0 0 4.872 1.015zm58.971 179.81a72.7 72.7 0 0 0-21.032 2.723 54.2 54.2 0 0 0-11.985 5.137h80.761l-21.836-4.662a138.19 138.19 0 0 0-25.908-3.198zm99.383-13.181c-9.162-1.44-20.229-.354-32.473.782a140.83 140.83 0 0 1-19.359.533c-6.718-.279-13.632-1.019-20.683-1.883-14.084-1.766-27.515-3.557-39.761-3.019a86.86 86.86 0 0 0-31.516 7.029 89.34 89.34 0 0 0-18.888 11.052l-2.488 1.95v4.6h31.718a49.42 49.42 0 0 1 12.753-6.057 71.1 71.1 0 0 1 21.32-3.056 133.55 133.55 0 0 1 26.172 3.116l25.669 5.524c.909.177 1.773.313 2.66.473h64.276v-13.912a45.82 45.82 0 0 0-19.4-7.132zm-144.176 2.561a86.27 86.27 0 0 1 31.847-7.4c12.391-.611 25.917 1.16 39.981 2.922 7.04.862 13.915 1.607 20.575 1.9a142.17 142.17 0 0 0 19.2-.451c12.209-1.062 23.416-2.069 32.721-.484 6.899.96 13.485 3.489 19.253 7.394v-24.391a59.36 59.36 0 0 0-16.429-2.3c-18.357-.618-42.736 9.374-71.1 8.681a170.92 170.92 0 0 1-39.288-4.762c-11.874-2.844-22.069-6.925-30.918-9.251-8.821-2.462-16.245-3.209-21.346-2.961a53.28 53.28 0 0 0-5.485.516v43.917c.643-.559 1.347-1.157 2.159-1.816a84.52 84.52 0 0 1 18.83-11.514zM72.898 169.415c4.919.43 11.674 2.861 19.588 6.439a112.2 112.2 0 0 0 13.2 5.083 86.04 86.04 0 0 0 15.913 2.952c11.386 1.084 24.038.037 37.055-2.3 13.03-2.311 25.256-5.565 36.511-7.992 9.948-2.307 20.047-3.911 30.221-4.8a107.12 107.12 0 0 1 20.633.345 54.56 54.56 0 0 1 4.349.65v-32.515l-1.915-1.535c-4.036-3.327-8.278-6.396-12.7-9.188-5.588-3.382-12.907-6.971-21.609-7.184-8.7-.283-17.944 3.11-26.975 7.523-8.557 4.128-16.835 8.812-24.781 14.021-3.591 2.425-7.413 4.571-8.923 7.968-.731 1.571-.477 3.425.65 4.742a11.98 11.98 0 0 0 4.092 2.8 41.39 41.39 0 0 0 14.971 4c3.688.257 5.744.041 5.753.164a5.98 5.98 0 0 1-1.481.242 34.6 34.6 0 0 1-4.3.121 39.73 39.73 0 0 1-15.355-3.66 12.81 12.81 0 0 1-4.481-3c-1.405-1.612-1.752-3.891-.89-5.848 1.751-3.962 5.735-6.115 9.27-8.584a207.49 207.49 0 0 1 24.885-14.2c9.087-4.437 18.564-7.912 27.6-7.551 9.039.3 16.489 4.1 22.082 7.623 4.409 2.884 8.596 6.093 12.527 9.6l1.574 1.4v-26.919c-3.32-1.83-6.772-3.411-10.326-4.729a77.33 77.33 0 0 0-32.881-4.44 69.41 69.41 0 0 0-19.139 4.446c-6.4 2.427-12.572 6.016-18.914 9.657s-12.63 7.2-19.2 9.577c-6.337 2.184-12.947 3.475-19.64 3.835-12.76.738-24.166-.544-33.73-.7a101.48 101.48 0 0 0-22.533 1.522c-1.3.285-2.477.49-3.472.747l-2.5.728a13.08 13.08 0 0 1-2.095.523 12.87 12.87 0 0 1 2.01-.784l2.477-.855c.991-.3 2.162-.548 3.468-.879a95.44 95.44 0 0 1 22.664-1.958c9.607.032 21.035 1.209 33.628.408a71.65 71.65 0 0 0 19.273-3.839c6.426-2.347 12.643-5.861 18.981-9.506s12.578-7.255 19.108-9.717a69.94 69.94 0 0 1 19.512-4.453 77.19 77.19 0 0 1 33.326 4.787 75.02 75.02 0 0 1 9.989 4.72V91.621h-85.37c-.548.46-1.3 1.069-2.285 1.851a44.32 44.32 0 0 1-4.038 2.963c-1.626 1.08-3.425 2.4-5.582 3.589-2.114 1.261-4.448 2.617-7.065 3.857-2.559 1.365-5.433 2.52-8.43 3.794-6.587 2.565-13.384 4.556-20.315 5.949-6.953 1.288-14.005 1.972-21.076 2.045-3.256-.071-6.355-.071-9.238-.386-2.891-.175-5.563-.566-7.994-.948-2.444-.3-4.606-.855-6.517-1.255a44.12 44.12 0 0 1-4.85-1.246l-1.807-.548v41.389c1.442-.492 3.341-1.047 5.66-1.622a89.84 89.84 0 0 1 44.155.514c2.178.567 4.323 1.253 6.426 2.054a8.74 8.74 0 0 1 2.259 1.021c-.076.218-3.41-.9-8.914-2.142a106.65 106.65 0 0 0-21.836-2.586 106.7 106.7 0 0 0-21.888 2.077c-2.41.49-4.375.952-5.867 1.311v16.232c2.348-.4 4.742-.44 7.102-.119zm113.376-25.357a4.14 4.14 0 0 1 1.116-1.455 8.48 8.48 0 0 1 2.984-1.607 65.46 65.46 0 0 1 42.572 1.712 59.41 59.41 0 0 1 11.615 6.018c1.309.821 2.218 1.617 2.872 2.1.639.5.959.782.933.821-.179.3-5.472-4.23-15.759-8.035-6.007-2.202-12.3-3.529-18.685-3.941-7.811-.527-15.653.364-23.146 2.63-.911.271-1.759.723-2.492 1.328-.7.6-1.067 1.324-.805 1.965.492 1.367 2.941 1.486 4.779 1.924l11.179 2.283 18.921 3.945 12.734 2.775 3.449.823c.411.069.811.196 1.186.378a4.29 4.29 0 0 1-1.237-.108l-3.5-.572-12.818-2.352-18.977-3.658-11.2-2.207c-.983-.207-1.922-.352-2.978-.62-1.233-.209-2.284-1.013-2.809-2.149a2.65 2.65 0 0 1 .066-1.998zm-81.743 15.949a89.02 89.02 0 0 0 11 5.062 81.62 81.62 0 0 0 39.206 4.561c15.573-1.823 27.953-9.717 38.146-11.939a38.22 38.22 0 0 1 12.181-1.209c1.11.08 2.213.241 3.3.481a3.65 3.65 0 0 1 1.112.346c-.024.125-1.585-.235-4.44-.3-4.028-.048-8.042.495-11.913 1.611-4.936 1.3-10.54 3.721-16.822 6.344a81.06 81.06 0 0 1-21.387 6.012 79.21 79.21 0 0 1-39.733-5.012 73.51 73.51 0 0 1-10.918-5.5 28.17 28.17 0 0 1-3.647-2.6 28.04 28.04 0 0 1 3.915 2.143z"/><path d="M92.877 252.454c8.948 2.231 19.184 6.213 30.963 8.964a173.87 173.87 0 0 0 39 4.621c28.074.713 52.408-9.113 71.111-8.283a58.22 58.22 0 0 1 16.416 2.568v-26.12l-5.5.663c-7.847.782-18.655 2.317-30.763 2.572-5.699.137-11.398-.265-17.022-1.2-4.598-.784-9.093-2.085-13.4-3.876-2.899-1.209-5.664-2.718-8.251-4.5a22.82 22.82 0 0 1-2.03-1.55c-.447-.378-.665-.594-.637-.63.149-.233 3.969 2.939 11.281 5.792 4.281 1.635 8.721 2.818 13.248 3.531 5.557.852 11.179 1.213 16.8 1.08 11.976-.248 22.818-1.632 30.689-2.172l5.589-.41v-63.37c-1.162-.145-2.632-.313-4.405-.464a117.24 117.24 0 0 0-20.5.086 229.63 229.63 0 0 0-30.028 5.07c-11.207 2.486-23.434 5.781-36.543 8.106-13.088 2.345-25.876 3.371-37.411 2.207a85.77 85.77 0 0 1-16.118-3.122c-4.534-1.47-8.967-3.235-13.269-5.286-7.867-3.686-14.444-6.206-19.264-6.793-2.325-.355-4.683-.445-7.029-.27v44.848c.344-.418.709-.819 1.093-1.2 3.559-3.608 10.246-6.914 18.858-9.158 8.642-2.319 19.253-3.153 30.834-4.656s24.01-4.932 36.956-8.825 25.4-7.521 37.066-9.244c10.308-1.58 20.746-2.139 31.164-1.667 7.013.326 13.994 1.141 20.894 2.438 2.436.477 4.321.881 5.588 1.211a10.57 10.57 0 0 1 1.918.544c-.666-.033-1.327-.125-1.976-.276-1.283-.244-3.179-.561-5.621-.959-6.9-1.089-13.86-1.757-20.842-2-10.349-.333-20.705.317-30.931 1.941-11.553 1.775-23.919 5.411-36.874 9.309s-25.48 7.336-37.18 8.772c-11.661 1.442-22.2 2.172-30.763 4.347-8.543 2.1-15.17 5.224-18.728 8.607a16.4 16.4 0 0 0-1.46 1.557v18.826l.678.35 4.874 2.6c6.021 3.083 12.202 5.846 18.515 8.277 20.865 8.017 43.039 12.086 65.391 12 26.258.309 49.035-7.8 66.228-9.38a76.35 76.35 0 0 1 20.372.166q1.749.317 3.151.568l2.272.594c.633.131 1.251.324 1.846.577-.644-.046-1.283-.149-1.909-.309l-2.285-.464-3.148-.441c-6.714-.754-13.496-.666-20.188.263-8.5 1-18.452 3.31-29.566 5.679-34.236 7.557-69.953 4.646-102.513-8.355-6.313-2.516-12.463-5.421-18.415-8.7l-4.761-2.829-.54-.335v16.302a42.04 42.04 0 0 1 5.457-.747c5.146-.42 12.699.195 21.618 2.555zm52.231-42.274c-7.206 3.594-14.102 7.78-20.616 12.514-1.309 1.009-2.38 2.289-2.263 3.673a3.61 3.61 0 0 0 2.371 2.907c2.421 1.138 4.82.609 6.733.43 1.494-.234 3.02-.17 4.489.188.511.136.988.377 1.4.708-.03.06-.494-.222-1.468-.443a12.4 12.4 0 0 0-4.355.071c-1.84.246-4.388.918-7.109-.261-1.563-.536-2.693-1.905-2.924-3.541-.171-1.855 1.183-3.412 2.522-4.481a138.22 138.22 0 0 1 20.663-12.886 142.3 142.3 0 0 1 27.9-10.439 140.72 140.72 0 0 1 53.769-3.369c3.427.516 6.534.931 9.212 1.585 2.688.592 5.014 1.039 6.863 1.633l4.271 1.268c.506.121.996.298 1.462.529-.521-.029-1.037-.118-1.537-.266l-4.325-1.015c-1.859-.516-4.191-.885-6.878-1.4-2.678-.579-5.776-.926-9.186-1.378-27.778-3.174-55.883 1.675-80.992 13.973zm19.972 17.588c-1.069.077-2.143.028-3.2-.147a5.9 5.9 0 0 1-4.256-2.827 3.91 3.91 0 0 1-.322-3.354 7.59 7.59 0 0 1 2.384-2.8c4.406-3.796 9.401-6.849 14.79-9.037 6.597-2.672 13.577-4.277 20.678-4.755 15.172-1.067 28.644 2.686 37.852 5.943 4.638 1.656 8.29 3.245 10.784 4.4 1.25.572 2.2 1.054 2.846 1.386s.97.529.948.574c-1.368-.392-2.705-.884-4-1.473-2.55-1-6.241-2.449-10.888-3.975-9.227-3.008-22.566-6.547-37.439-5.5a67.95 67.95 0 0 0-20.3 4.556c-5.298 2.092-10.238 4.996-14.641 8.609-.912.612-1.666 1.431-2.2 2.39a3.13 3.13 0 0 0 .19 2.667 5.39 5.39 0 0 0 3.7 2.671c2.628.531 4.2.356 4.189.512-.36.117-.737.171-1.115.16z"/></g><path d="M72.829 169.937c4.82.587 11.4 3.107 19.264 6.793 4.302 2.051 8.735 3.818 13.269 5.288a85.77 85.77 0 0 0 16.118 3.122c11.535 1.164 24.323.138 37.411-2.207 13.11-2.326 25.336-5.621 36.543-8.106a229.62 229.62 0 0 1 30.028-5.07c6.818-.627 13.677-.656 20.5-.086a113.44 113.44 0 0 1 4.405.464v-.341a54.7 54.7 0 0 0-4.349-.65 107.12 107.12 0 0 0-20.633-.345 217.52 217.52 0 0 0-30.221 4.8c-11.255 2.427-23.481 5.681-36.511 7.992-13.017 2.332-25.669 3.379-37.055 2.3a86.04 86.04 0 0 1-15.913-2.952 112.19 112.19 0 0 1-13.2-5.083c-7.914-3.578-14.669-6.01-19.588-6.439-2.359-.321-4.753-.28-7.1.119v.134a31.22 31.22 0 0 1 7.032.267zm-.372-56.858l6.517 1.255 7.994.948c2.883.315 5.981.315 9.238.386 7.071-.073 14.123-.757 21.076-2.045 6.931-1.393 13.728-3.384 20.315-5.949 3-1.274 5.871-2.429 8.43-3.794 2.617-1.24 4.951-2.6 7.065-3.857 2.157-1.186 3.956-2.509 5.582-3.589a44.32 44.32 0 0 0 4.038-2.963l2.285-1.851h-.527l-2.071 1.425c-1.108.8-2.477 1.76-4.146 2.755-1.654 1.013-3.474 2.267-5.642 3.392-2.127 1.194-4.463 2.49-7.078 3.673-2.552 1.306-5.416 2.41-8.391 3.641a129.1 129.1 0 0 1-20.119 5.779 129.2 129.2 0 0 1-20.829 2.129c-3.22-.037-6.286.007-9.143-.259-2.868-.123-5.517-.456-7.938-.773-2.431-.235-4.587-.723-6.5-1.047-1.92-.3-3.548-.682-4.872-1.015l-1.941-.443v.406l1.807.548a44.12 44.12 0 0 0 4.85 1.248zm134.595-13.684a69.94 69.94 0 0 0-19.512 4.453c-6.53 2.462-12.771 6.081-19.108 9.717s-12.555 7.158-18.981 9.506a71.65 71.65 0 0 1-19.273 3.84c-12.594.8-24.021-.376-33.628-.408a95.44 95.44 0 0 0-22.663 1.963c-1.306.33-2.477.579-3.468.879l-2.477.855a12.87 12.87 0 0 0-2.01.784 13.02 13.02 0 0 0 2.095-.523l2.5-.728c1-.257 2.168-.462 3.472-.747a101.47 101.47 0 0 1 22.533-1.522c9.564.153 20.97 1.436 33.73.7 6.694-.361 13.306-1.652 19.644-3.837 6.571-2.38 12.861-5.934 19.2-9.577s12.518-7.23 18.914-9.657a69.41 69.41 0 0 1 19.139-4.446 77.33 77.33 0 0 1 32.881 4.44c3.554 1.318 7.006 2.899 10.326 4.729v-.909a75.02 75.02 0 0 0-9.989-4.72 77.19 77.19 0 0 0-33.325-4.792zm29.214 26.342c-5.593-3.522-13.043-7.32-22.082-7.623-9.037-.361-18.515 3.114-27.6 7.551a207.49 207.49 0 0 0-24.885 14.2c-3.535 2.468-7.519 4.621-9.27 8.584-.862 1.957-.515 4.236.89 5.848a12.81 12.81 0 0 0 4.481 3 39.73 39.73 0 0 0 15.355 3.66c1.434.049 2.871.008 4.3-.121.502-.018.999-.099 1.481-.242-.009-.123-2.064.093-5.753-.164a41.39 41.39 0 0 1-14.971-4 11.98 11.98 0 0 1-4.092-2.8c-1.127-1.317-1.381-3.171-.65-4.742 1.509-3.4 5.332-5.543 8.923-7.968 7.946-5.209 16.224-9.893 24.781-14.021 9.031-4.414 18.273-7.806 26.975-7.523 8.7.214 16.02 3.8 21.609 7.184 4.422 2.792 8.664 5.861 12.7 9.188l1.915 1.535v-.538l-1.574-1.4a105.89 105.89 0 0 0-12.533-9.608zm-47.247 22.467l2.978.62 11.2 2.207 18.977 3.658 12.818 2.352 3.5.572a4.28 4.28 0 0 0 1.237.108c-.375-.182-.775-.309-1.186-.378l-3.449-.823-12.734-2.775-18.921-3.945-11.179-2.283c-1.838-.438-4.286-.557-4.779-1.924-.261-.641.106-1.367.805-1.965.733-.605 1.581-1.057 2.492-1.328 7.493-2.266 15.335-3.157 23.146-2.63a66.77 66.77 0 0 1 18.685 3.941c10.287 3.8 15.58 8.34 15.759 8.035.026-.039-.294-.32-.933-.821-.654-.479-1.563-1.276-2.872-2.1-3.638-2.427-7.534-4.446-11.615-6.018a65.46 65.46 0 0 0-42.572-1.712 8.48 8.48 0 0 0-2.984 1.607 4.14 4.14 0 0 0-1.116 1.455 2.65 2.65 0 0 0-.065 2 3.79 3.79 0 0 0 2.808 2.147zm-95.468 1.71a106.65 106.65 0 0 1 21.831 2.585c5.5 1.246 8.838 2.36 8.914 2.142-.7-.445-1.459-.787-2.255-1.018a61.74 61.74 0 0 0-6.426-2.054 89.83 89.83 0 0 0-44.155-.514c-2.319.574-4.217 1.129-5.66 1.622v.628l5.867-1.311a106.7 106.7 0 0 1 21.884-2.08zm-7.563 55.178c8.566-2.175 19.1-2.9 30.763-4.347 11.7-1.436 24.233-4.869 37.176-8.765s25.321-7.534 36.874-9.309c10.226-1.624 20.582-2.274 30.931-1.941a171.96 171.96 0 0 1 20.842 2l5.621.959c.649.151 1.31.243 1.976.276-.621-.241-1.263-.423-1.918-.544-1.268-.33-3.153-.734-5.588-1.211a151.14 151.14 0 0 0-20.894-2.438c-10.418-.472-20.856.087-31.164 1.667-11.665 1.723-24.122 5.347-37.066 9.244s-25.362 7.333-36.956 8.825-22.192 2.336-30.834 4.656c-8.612 2.244-15.3 5.549-18.858 9.158a16.13 16.13 0 0 0-1.093 1.2v.741a16.4 16.4 0 0 1 1.46-1.557c3.558-3.39 10.186-6.517 18.728-8.614zm18.275-44.63a73.5 73.5 0 0 0 10.918 5.5 79.21 79.21 0 0 0 39.733 5.012 81.06 81.06 0 0 0 21.387-6.012c6.282-2.624 11.885-5.04 16.822-6.344 3.871-1.116 7.885-1.659 11.913-1.611 2.855.063 4.416.423 4.44.3a3.65 3.65 0 0 0-1.112-.346c-1.087-.24-2.19-.401-3.3-.481-4.099-.254-8.212.154-12.181 1.209-10.192 2.222-22.572 10.117-38.146 11.939a81.62 81.62 0 0 1-39.206-4.561 89.12 89.12 0 0 1-11-5.062c-1.246-.819-2.555-1.538-3.915-2.149a28.17 28.17 0 0 0 3.647 2.606zm121.836 35.745l9.186 1.378 6.878 1.4 4.325 1.015a6.72 6.72 0 0 0 1.537.266c-.466-.231-.956-.408-1.462-.529l-4.271-1.268c-1.848-.594-4.174-1.041-6.863-1.633-2.678-.654-5.785-1.069-9.212-1.585a140.72 140.72 0 0 0-53.769 3.369 142.3 142.3 0 0 0-27.9 10.439 138.22 138.22 0 0 0-20.661 12.885c-1.339 1.069-2.693 2.626-2.522 4.481.231 1.636 1.361 3.005 2.924 3.541 2.721 1.179 5.269.507 7.109.261a12.4 12.4 0 0 1 4.355-.075c.974.22 1.438.5 1.468.443-.412-.331-.889-.572-1.4-.708-1.469-.358-2.995-.422-4.489-.188-1.913.179-4.312.708-6.733-.43-1.272-.449-2.186-1.571-2.371-2.907-.117-1.384.954-2.665 2.263-3.673a145 145 0 0 1 101.608-26.487zm-67.806 28.227a3.13 3.13 0 0 1-.19-2.667 6.96 6.96 0 0 1 2.2-2.39c4.405-3.614 9.346-6.519 14.645-8.61a67.95 67.95 0 0 1 20.3-4.556c14.874-1.052 28.212 2.488 37.439 5.5 4.647 1.527 8.337 2.973 10.888 3.975a28.87 28.87 0 0 0 4 1.473c.022-.045-.307-.24-.948-.574s-1.6-.814-2.846-1.386c-2.494-1.153-6.146-2.742-10.784-4.4-9.208-3.256-22.68-7.009-37.852-5.943-7.101.478-14.081 2.083-20.678 4.755-5.389 2.188-10.384 5.241-14.79 9.037a7.59 7.59 0 0 0-2.384 2.8 3.91 3.91 0 0 0 .322 3.354 5.9 5.9 0 0 0 4.256 2.827 13.63 13.63 0 0 0 3.2.147 3.31 3.31 0 0 0 1.1-.151c.013-.155-1.561.019-4.189-.512a5.39 5.39 0 0 1-3.689-2.679zm-87.192 13.062a163.93 163.93 0 0 0 18.415 8.7c32.56 13.001 68.277 15.912 102.513 8.355 11.114-2.369 21.063-4.675 29.566-5.679a81.04 81.04 0 0 1 20.188-.263l3.148.441 2.285.464c.626.16 1.265.263 1.909.309a9.78 9.78 0 0 0-1.846-.577l-2.272-.594q-1.4-.253-3.151-.568c-6.753-.965-13.604-1.021-20.372-.166-17.193 1.578-39.97 9.689-66.228 9.38-22.352.086-44.526-3.983-65.391-12-6.313-2.428-12.493-5.188-18.514-8.268l-4.874-2.6-.678-.35v.25l.54.335 4.762 2.831zm142.988-1.419a95.89 95.89 0 0 1-16.8-1.08 65.84 65.84 0 0 1-13.248-3.531c-7.312-2.853-11.132-6.025-11.281-5.792-.028.037.19.253.637.63a22.82 22.82 0 0 0 2.03 1.55 45.25 45.25 0 0 0 8.251 4.5c4.307 1.791 8.802 3.092 13.4 3.876 5.624.935 11.323 1.337 17.022 1.2 12.108-.255 22.915-1.79 30.763-2.572l5.5-.663v-.708l-5.589.41c-7.866.548-18.709 1.929-30.685 2.18zM92.63 253.385c8.849 2.326 19.044 6.407 30.918 9.251a170.92 170.92 0 0 0 39.286 4.764c28.368.693 52.747-9.3 71.1-8.681a59.36 59.36 0 0 1 16.429 2.3v-.693a58.22 58.22 0 0 0-16.416-2.568c-18.7-.829-43.037 9-71.111 8.283a173.87 173.87 0 0 1-39-4.621c-11.779-2.751-22.015-6.733-30.963-8.964-8.918-2.36-16.472-2.976-21.62-2.557a41.98 41.98 0 0 0-5.457.747v.3a53.29 53.29 0 0 1 5.485-.516c5.104-.258 12.528.493 21.349 2.955zm-5.454 29.02a86.86 86.86 0 0 1 31.516-7.026c12.246-.538 25.677 1.253 39.761 3.019 7.05.864 13.965 1.6 20.683 1.883a140.84 140.84 0 0 0 19.359-.533c12.244-1.136 23.311-2.222 32.473-.782a45.82 45.82 0 0 1 19.4 7.135v-.693c-5.768-3.905-12.354-6.434-19.253-7.394-9.3-1.585-20.512-.579-32.721.484-6.383.583-12.797.734-19.2.451-6.66-.294-13.535-1.039-20.575-1.9-14.064-1.762-27.59-3.533-39.981-2.922a86.27 86.27 0 0 0-31.847 7.4 84.52 84.52 0 0 0-18.832 11.514c-.812.659-1.516 1.257-2.159 1.816v.551l2.488-1.95a89.34 89.34 0 0 1 18.888-11.053zm70.586 11.604a133.55 133.55 0 0 0-26.172-3.116 71.1 71.1 0 0 0-21.32 3.055c-4.519 1.398-8.814 3.438-12.753 6.057h1.049a54.21 54.21 0 0 1 11.985-5.137 72.7 72.7 0 0 1 21.029-2.72 138.14 138.14 0 0 1 25.908 3.2l21.836 4.662h6.763l-2.66-.473c-7.904-1.511-16.516-3.66-25.665-5.528z" fill="#ebebeb"/><g fill="#e0e0e0"><path d="M65.798 158.28h133.569v2.613H65.798zm0 68.753h133.587v2.611H65.798z"/><path d="M119.564 159.588h28.212v5.983h-28.212zm0-67.968h28.212v5.985h-28.212zm0 136.358h28.212v5.985h-28.212z"/></g><path d="M199.366 91.62h51.002v208.497h-51.002zM65.799 5.776h18.018V91.62H65.799zm27.164 8.739h12.56V91.62h-12.56z" fill="#ebebeb"/><path fill="#e0e0e0" d="M83.817 14.515h9.146V91.62h-9.146z"/><path fill="#f5f5f5" d="M105.523 23.367h9.283V91.62h-9.283z"/><path d="M114.806 0h19.657v91.62h-19.657zm33.526 51.15l-1.853 7.724 1.853 2.781v4.632l-1.853 4.325 1.853 1.546v10.814l-1.853 1.235 1.853 1.546v5.867h99.174v-7.1l-1.855-3.4 1.855-15.45-1.546-7.413s-1.544-3.09-1.544-4.019.309-3.088.309-3.088z" fill="#ebebeb"/><g opacity=".24"><path d="M199.366 91.62l-2.376-11.2 2.376-4.612v-4.424l-2.378-2.315 2.376-3.549V51.149h45.358l-.309 3.089 1.545 4.017 1.546 7.415-1.854 15.449 1.854 3.4v7.1z" fill="#e0e0e0"/></g><path d="M105.212 156.419c-4.573-4.48-10.483-9.894-17.474-7.962-6.578 1.817-9.1 9-10.273 14.98-1.518 7.71-2.7 15.495-3.923 23.255q-1.855 11.758-3.527 23.543-.954 6.649-1.885 13.3-.464 3.327-.925 6.653c-.3 2.176-.665 4.348-.785 6.543-.038.7 1.06.8 1.212.134.848-3.7 1.2-7.544 1.742-11.3q.819-5.663 1.644-11.325 1.644-11.247 3.36-22.485 1.694-11.245 3.495-22.474c1.015-6.348 1.493-14.236 7.122-18.424 3.087-2.3 7.026-2.322 10.525-.987 3.7 1.414 6.663 4.065 9.56 6.688a.1.1 0 0 0 .132-.139z" fill="#263238"/><path d="M98.954 151.842s-9.348-3.366-13.961 3.457.9 24.174 43.463 33.963a120.19 120.19 0 0 0-10.241-38.474c-9.124-19.898-25.382-12.362-19.261 1.054z" fill="#ffc727"/><path d="M126.008 186.422c-.643-1.193-1.358-2.345-2.141-3.451q-1.067-1.646-2.158-3.276l-1.665-2.437c.041-.2.052-.4.078-.61l.147-1.1.338-2.39.4-2.374a12.66 12.66 0 0 1 .557-2.508c.054-.123-.17-.186-.186-.039a9.23 9.23 0 0 1-.38 1.409l-.286 1.075q-.309 1.21-.585 2.431l-.438 2.26-.164 1.091-2.331-3.206c-2.26-2.977-4.65-5.842-7.123-8.637.01-.028.036-.044.038-.077.221-4.472.113-8.9 1.106-13.3.026-.12-.154-.186-.181-.065-.93 4.126-1.858 8.46-1.591 12.723q-1.33-1.487-2.691-2.951-3.109-3.342-6.341-6.57c-.087-.087-.225.041-.141.131 3.586 3.861 6.993 7.882 10.311 11.977a73.25 73.25 0 0 0-7.781.287c-2.885.213-5.753.582-8.618.978-.122.017-.086.208.036.189 2.853-.41 5.726-.667 8.607-.771 2.776-.115 5.538.01 8.312 0q2.689 3.335 5.313 6.72c-.125 0-.255 0-.4-.007l-1.956-.012c-1.293.022-2.589.113-3.877.222-2.643.215-5.269.608-7.859 1.176a.1.1 0 0 0 .036.189c2.615-.295 5.237-.54 7.866-.633 1.255-.044 2.509-.044 3.765-.044h1.958c.361.046.728.012 1.074-.1l3.425 4.466q1.354 1.783 2.669 3.6c.894 1.237 1.7 2.586 2.7 3.743.076.087.203-.013.157-.109zm-22.983-24.913a28.4 28.4 0 0 0-4.553-.222l-4.556.1a.1.1 0 1 0 .012.19l4.621-.113 4.47.123c.022.002.04-.014.042-.036s-.014-.04-.036-.042zm13.359 3.43l.666-4.345a.1.1 0 1 0-.186-.039l-.708 4.284q-.159 1.073-.292 2.152c-.127.669-.185 1.348-.174 2.029.013.056.06.098.118.102s.111-.029.132-.083a12.58 12.58 0 0 0 .221-2.026q.096-1.038.223-2.074zm-2.801-16.106l-1 4.287-.343 2.2c-.135.708-.184 1.43-.144 2.15.006.025.027.043.053.045s.05-.013.059-.036a12.19 12.19 0 0 0 .335-2.051q.141-1.06.325-2.116l.9-4.414c.027-.119-.153-.189-.185-.065zm-55.421 86.324q-.353-4.019-.778-8.032-.84-7.955-1.919-15.878l-2.232-15.8a39.41 39.41 0 0 0-1.624-7.171 6.8 6.8 0 0 0-3.972-4.482c-5.007-1.73-8.386 3.463-10.408 7.136-.061.11.1.193.168.093 1.21-1.739 4.557-6.625 8.356-6.4 2.556.154 4.6 1.964 5.827 8.337 3.058 15.881 5.813 48.109 6.135 50.216.171 1.118.961 1.07.967-.128.016-2.629-.29-5.267-.52-7.891z" fill="#263238"/><path d="M38.58 188.96s4.376-15.454-5.3-7.727c-16.107 12.863-16.678 40.846-16.678 40.846s28.631-16.63 32.191-27.6c5.304-16.338-10.213-5.519-10.213-5.519z" fill="#ffc727"/><path d="M43.998 196.547l-6.794 1.08q-1.609.231-3.222.453l-2.19.258 6.328-8.862c.08-.116-.1-.235-.192-.141a66.37 66.37 0 0 0-4.784 5.521l-1.27-3.586-1.361-4.187c-.03-.12-.218-.064-.184.055l1.046 4.283a47.82 47.82 0 0 0 1.268 4.06l-3.032 4.165-1.536-4.165a.1.1 0 0 0-.184.055c.512 1.569.79 3.2 1.271 4.778l-1.942 2.89-3.312 5.437c-.168.075-.269.249-.251.432-1.808 3.129-3.53 6.3-5.226 9.508a.1.1 0 0 0 .167.093c1.7-3.164 3.591-6.244 5.557-9.27h.02a4.3 4.3 0 0 1 .936-.181l.99-.215c.74-.161 1.473-.353 2.209-.536 1.451-.36 2.888-.7 4.363-.956.122-.022.067-.208-.055-.184-1.733.329-3.472.527-5.223.73l-2.473.332-.119.017q1.544-2.347 3.131-4.652l3.183-4.486c.993-.139 1.977-.4 2.962-.589q1.661-.318 3.322-.646l6.653-1.3c.119-.028.067-.217-.056-.191zm-17.206 1.522l-.386-1.229c-.266-.851-.485-1.717-.657-2.592-.025-.12-.209-.065-.184.057l.592 2.611a16.91 16.91 0 0 0 .745 2.57c.033.084.125.128.212.102s.139-.114.12-.202c-.125-.444-.299-.878-.442-1.317zm20.136-5.101l-3.938.4-3.935.5c-.073.01-.074.12 0 .115l3.939-.364 3.936-.457c.127-.007.117-.207-.002-.194zm32.304 22.624c-.508-11.38-1.231-22.739-2.374-34.074-.569-5.644-1.206-11.284-2-16.9a120.79 120.79 0 0 0-3.26-16.36c-1.171-4.1-2.71-8.207-5.446-11.534-2.592-3.391-6.751-5.206-11-4.8-4.981.615-8.99 3.753-12.459 7.162-3.891 3.824-7.454 8-11.059 12.09q-1.367 1.552-2.713 3.125c-.08.093.058.226.139.132 3.524-4.048 7.184-7.981 11.016-11.742 3.54-3.476 7.186-7.274 12.09-8.71a12.46 12.46 0 0 1 7.025-.165 11.14 11.14 0 0 1 4.8 3.039c2.759 2.871 4.311 6.76 5.412 10.524 3.059 10.459 4.155 21.427 5.292 32.228 1.155 10.974 1.935 21.978 2.486 33 .554 11.078.987 22.17 2.054 33.215.132 1.364.309 2.723.482 4.081.118.914 1.536.916 1.46-.036-.909-11.423-1.434-22.84-1.945-34.275z" fill="#263238"/><path d="M42.064 140.315s6.5-12.026-1.18-15.884S7.51 149.258 0 191.203c0 0 41.5-18.363 55.6-36.662s-1.89-22.326-13.536-14.226z" fill="#ffc727"/><path d="M48.166 150.096c-4.665.01-9.316-.354-13.982-.321l2.628-3a43.77 43.77 0 0 0 3.646-4.237c.065-.1-.074-.234-.168-.16a34 34 0 0 0-3.53 3.54q-1.753 1.861-3.488 3.739l-5.273 5.855-.007-.566v-2.45l.049-4.746c.03-3.206.023-6.431.245-9.631.009-.123-.183-.118-.192 0l-.714 9.643a127.4 127.4 0 0 0-.135 4.749l-.017 2.45c0 .446-.013.916.02 1.374l-.824.914c-3.723 4.255-7.261 8.654-10.708 13.132 0-.247-.038-.5-.061-.743l-.163-1.48a85.63 85.63 0 0 0-.427-3.2q-.226-1.5-.478-3c-.189-1.12-.463-2.257-.549-3.39a.1.1 0 1 0-.187.03 29.88 29.88 0 0 1 .39 3.415q.144 1.539.284 3.08l.29 3.081.148 1.48c.026.247.057.493.09.739.023.208.091.409.2.588l-1.774 2.318-6.975 9.411c-.071.1.064.231.139.132 2.189-2.853 4.44-5.656 6.721-8.432 1.708.073 3.45-.054 5.157-.081l5.4-.045a.1.1 0 0 0 0-.192l-5.4.065c-1.64.006-3.315-.074-4.956.015q3.009-3.66 6.068-7.28l2.229-2.643a10.18 10.18 0 0 0 2.083.07q1.228 0 2.454 0l4.6-.064 9.505-.163a.1.1 0 0 0 0-.192l-9.515-.255-4.6-.11-2.454-.028c-.466-.006-.946-.038-1.418-.02q2.61-3.1 5.228-6.2c.045-.026.08-.065.1-.113l5.122-6 .711-.813c4.836.151 9.665-.167 14.5-.073.115.002.111-.194-.012-.192zm-2.386 8.246l-1.131.01c-.11 0-.106.171 0 .173l1.131.009c.127.001.123-.193 0-.192zm-2.513.013q-2.242-.03-4.483-.094-1.119-.03-2.241-.071a8.35 8.35 0 0 0-2.086.025c-.073.017-.06.12 0 .139.687.14 1.389.19 2.089.148q1.121.02 2.241.032 2.24.022 4.48.014a.1.1 0 0 0 0-.193zm-13.048 14.008a62.23 62.23 0 0 0-9.178-.827c-.045 0-.041.062 0 .067l9.131.948c.123.019.172-.171.047-.188zm-12.476-13.357l-.1-.8-.267-1.8q-.27-1.709-.6-3.409c-.02-.106-.2-.078-.189.03q.216 1.757.379 3.522l.149 1.734a4.85 4.85 0 0 0 .234 1.644c.087.178.356.106.4-.062a2.24 2.24 0 0 0-.006-.859zm61.08-34.137c-1.486-2.765-3.376-6.418-7.084-6.186-3.062.192-4.441 3.315-5.1 5.9-2.022 7.987-2.164 16.413-2.557 24.6-.833 17.3-1.581 34.618-1.691 51.94q-.044 7.2.032 14.4c.045 4.9.032 9.821.343 14.71a.36.36 0 0 0 .369.335.36.36 0 0 0 .352-.352c.026-4.189-.122-8.38-.139-12.569q-.024-6.133.081-12.263.2-12.418.663-24.83l1.015-24.667q.261-6.163.533-12.327c.18-3.981.353-7.965.807-11.926.255-2.218.583-4.437 1.046-6.621a9.21 9.21 0 0 1 1.914-4.437c1.463-1.441 3.756-1.607 5.412-.392a11.47 11.47 0 0 1 3.836 4.787c.06.11.226.008.168-.102z" fill="#263238"/><path d="M77.818 123.55s-3.048-10.766 3.692-5.383c11.219 8.957 11.617 28.457 11.617 28.457s-19.943-11.585-22.424-19.225c-3.694-11.386 7.115-3.849 7.115-3.849z" fill="#ffc727"/><path d="M88.933 138.628l-.567-.882a5.53 5.53 0 0 0 0-.917v-1.39q.033-1.363.1-2.727c.006-.123-.186-.118-.192 0q-.07 1.339-.107 2.676l-.048 1.34-.038.575-2.418-3.6-.74-1.016c-.119-1.169-.139-2.345-.06-3.517l.075-3.752c0-.123-.189-.119-.192 0l-.167 3.9a25.13 25.13 0 0 0-.077 2.785l-6.038-7.655c-.07-.084-.216.033-.148.119l3.711 4.967c-2.347-.547-4.733-.862-7.118-1.206-.122-.019-.17.167-.046.186 2.524.382 5 1.015 7.493 1.565.02 0 .032-.009.049-.009q1.435 2.018 2.839 4.054l1.132 1.666-.107-.013-.776-.106-1.659-.154-3.453-.213c-.123-.006-.119.19 0 .193l3.389.234 1.784.215.779.093.228.032q.958 1.415 1.919 2.826l3.332 5.058c.028.043.085.055.127.027s.055-.085.028-.127a51.9 51.9 0 0 0-3.034-5.227zm-4.969-12.159l.009-1.257a19.03 19.03 0 0 1 .106-2.637c.019-.139-.19-.16-.19-.022 0 .872-.1 1.743-.136 2.614l-.023 1.308v.6a1.84 1.84 0 0 0 .046.626c.011.037.045.063.084.063s.073-.025.084-.063a1.83 1.83 0 0 0 .026-.578l-.005-.654zm-2.465 4.458c-.742-.126-1.5-.165-2.25-.228l-2.463-.248a.1.1 0 1 0-.022.189l4.718.438c.038-.002.068-.031.073-.068s-.019-.072-.056-.083zm6.267.066c.058.081.019.316.019.414v.348.752l-.006.753a1.56 1.56 0 0 0 .036.657c.008.013.022.021.037.021s.029-.008.037-.021a.65.65 0 0 0 .038-.312v-.347l-.006-.753v-.753-.347c0-.106-.041-.328.022-.415.11-.175-.306-.178-.177.003zm-8.48 51.321c-4.2-3.148-7.964-7.673-13.605-7.9-4.656-.183-7.919 3.322-9.785 7.226a40.76 40.76 0 0 0-2.283 6.431q-1.263 4.419-2.376 8.879c-1.462 5.849-2.718 11.753-3.734 17.7-.567 3.312-1.1 6.637-1.515 9.972a84.34 84.34 0 0 0-.98 10.209.53.53 0 0 0 .472.501.53.53 0 0 0 .57-.386c.567-2.79.806-5.669 1.216-8.486l1.322-8.492q1.439-8.473 3.341-16.866c1.2-5.276 2.385-10.634 4.087-15.775 1.221-3.684 3.178-7.983 7.157-9.308 6.054-2.014 11.55 3.109 15.98 6.434.099.074.232-.069.133-.139z" fill="#263238"/><path d="M74.944 179.302s-3.865-11.041 1.727-13.2c8.38-3.245 30.316 21.461 26.023 59.316 0 0-16.949-9.337-29.464-19.84s-15.717-24.222-10.2-27.769 11.914 1.493 11.914 1.493z" fill="#ffc727"/><path d="M100.16 217.299a29.04 29.04 0 0 0-2.038-3.817l-2.189-3.865-4.395-7.459-.736-1.2.093-.443.248-1.1.485-2.477 1.022-4.852c.032-.118-.164-.155-.19-.033-.345 1.618-.856 3.212-1.335 4.8l-.692 2.345-.212.811c-1.8-2.954-3.636-5.894-5.611-8.734a3.97 3.97 0 0 0 .2-1.213l.192-1.66.473-3.732c.32-2.438.763-4.859 1.328-7.252.03-.12-.158-.152-.189-.033-.6 2.383-1.261 4.768-1.713 7.184-.222 1.186-.433 2.376-.591 3.57a45.84 45.84 0 0 0-.2 1.8c-.019.177-.046.36-.07.543l-1.852-2.553c-1.936-2.547-3.942-5.033-5.967-7.511-.077-.094-.235.015-.157.112 3.467 4.434 6.651 9.083 9.531 13.919l1.647 2.676-.544-.068c-.708-.09-1.427-.135-2.138-.2q-2.138-.2-4.28-.37l-8.566-.708c-.122-.013-.157.176-.033.189 2.887.331 5.759.794 8.634 1.2q2.12.3 4.245.572a16.84 16.84 0 0 0 3.268.335q1.681 2.732 3.366 5.464a6.3 6.3 0 0 0-.758-.029c-.476-.007-.952 0-1.427 0q-1.328 0-2.653 0l-5.517.035c-.123 0-.1.19.019.192 1.864.023 3.721.118 5.582.215q1.324.067 2.646.16l1.322.094a2.73 2.73 0 0 0 1.164-.045l2.864 4.649q1.315 2.149 2.671 4.273a34.16 34.16 0 0 0 2.874 4.315c.069.084.224.021.179-.099zm-8.075-30.596a26.78 26.78 0 0 1-.758 3.6q-.468 1.84-1.067 3.643a.12.12 0 1 0 .228.073q.564-1.787 1.006-3.611l.781-3.669c.029-.122-.176-.156-.19-.036zM79.633 194.1a1.41 1.41 0 0 0-.925-.344l-1.6-.219-2.98-.361-6.2-.7c-.122-.016-.157.174-.033.189l5.832.788 2.861.372 1.377.154c.535.003 1.067.094 1.572.27.096.038.165-.085.096-.149zm12.423 16.644l-2.935-.144-1.48-.045-.71-.023c-.309.015-.619-.003-.925-.054-.135-.035-.149.213-.007.19a4.13 4.13 0 0 1 .866.028l.768.046 1.479.089 2.935.123a.11.11 0 0 0 .009-.21zm5.975-4.235l.319-1.665.6-3.273a.1.1 0 0 0-.19-.033l-.718 3.189-.35 1.6-.152.737a2.05 2.05 0 0 0-.089.782c.017.088.15.161.212.067.207-.442.332-.917.368-1.404z" fill="#263238"/><g fill="#e0e0e0"><path d="M89.786 239.136l-.941 15.645-2.786 46.191H38.697l-2.785-46.191-.941-15.645z"/><path d="M89.786 239.136l-.941 15.645H35.911l-.941-15.645z"/></g><path fill="#ebebeb" d="M30.599 228.066h63.562v15.656H30.599z"/></svg>