<svg xmlns="http://www.w3.org/2000/svg" width="250.367" height="300.973" viewBox="0 0 250.367 300.973">
  <g id="Group_5521" data-name="Group 5521" transform="translate(-247.202 -10082.916)">
    <g id="Group_5510" data-name="Group 5510" transform="translate(280.452 9736.882)">
      <g id="Group_23" data-name="Group 23" transform="translate(32.55 437.655)">
        <path id="Path_23" data-name="Path 23" d="M39.362,371.178c1.913.324,4.068.812,6.5,1.047,2.421.317,5.07.65,7.938.773,2.857.266,5.923.223,9.143.259a129.155,129.155,0,0,0,20.829-2.129,129.1,129.1,0,0,0,20.119-5.779c2.976-1.231,5.839-2.334,8.391-3.641,2.615-1.183,4.951-2.479,7.078-3.673,2.168-1.125,3.988-2.38,5.642-3.392,1.669-1,3.038-1.954,4.146-2.755.851-.6,1.512-1.049,2.071-1.425H32.549V369.72c.555.123,1.2.268,1.941.443C35.814,370.5,37.442,370.874,39.362,371.178Z" transform="translate(-32.549 -350.463)" fill="#f5f5f5"/>
        <path id="Path_24" data-name="Path 24" d="M80.74,443.327a72.7,72.7,0,0,0-21.032,2.723,54.2,54.2,0,0,0-11.985,5.137h80.761c-6.878-1.378-14.174-3.1-21.836-4.662A138.134,138.134,0,0,0,80.74,443.327Z" transform="translate(-14.956 -242.802)" fill="#f5f5f5"/>
        <path id="Path_25" data-name="Path 25" d="M197.716,439.2c-9.162-1.44-20.229-.354-32.473.782a140.83,140.83,0,0,1-19.359.533c-6.718-.279-13.632-1.019-20.683-1.883-14.084-1.766-27.515-3.557-39.761-3.019a86.862,86.862,0,0,0-31.516,7.029,89.339,89.339,0,0,0-18.888,11.052c-.939.715-1.76,1.363-2.488,1.95v4.6H64.266a49.422,49.422,0,0,1,12.753-6.057,71.1,71.1,0,0,1,21.32-3.056,133.547,133.547,0,0,1,26.172,3.116c9.149,1.868,17.761,4.017,25.669,5.524.909.177,1.773.313,2.66.473h64.276V446.332A45.819,45.819,0,0,0,197.716,439.2Z" transform="translate(-32.549 -251.856)" fill="#f5f5f5"/>
        <path id="Path_26" data-name="Path 26" d="M53.54,455.13a86.274,86.274,0,0,1,31.847-7.4c12.391-.611,25.917,1.16,39.981,2.922,7.04.862,13.915,1.607,20.575,1.9a142.172,142.172,0,0,0,19.2-.451c12.209-1.062,23.416-2.069,32.721-.484a45.535,45.535,0,0,1,19.253,7.394V434.62a59.373,59.373,0,0,0-16.429-2.3c-18.357-.618-42.736,9.374-71.1,8.681A170.919,170.919,0,0,1,90.3,436.239c-11.874-2.844-22.069-6.925-30.918-9.251-8.821-2.462-16.245-3.209-21.346-2.961a53.281,53.281,0,0,0-5.485.516V468.46c.643-.559,1.347-1.157,2.159-1.816A84.519,84.519,0,0,1,53.54,455.13Z" transform="translate(-32.549 -265.225)" fill="#f5f5f5"/>
        <path id="Path_27" data-name="Path 27" d="M39.647,428.257c4.919.43,11.674,2.861,19.588,6.439a112.2,112.2,0,0,0,13.2,5.083,86.041,86.041,0,0,0,15.913,2.952c11.386,1.084,24.038.037,37.055-2.3,13.03-2.311,25.256-5.565,36.511-7.992a217.523,217.523,0,0,1,30.221-4.8,107.134,107.134,0,0,1,20.633.345c1.753.19,3.2.432,4.349.65V396.119c-.574-.462-1.207-.97-1.915-1.535a124.264,124.264,0,0,0-12.7-9.188c-5.588-3.382-12.907-6.971-21.609-7.184-8.7-.283-17.944,3.11-26.975,7.523a217.884,217.884,0,0,0-24.781,14.021c-3.591,2.425-7.413,4.571-8.923,7.968a4.423,4.423,0,0,0,.65,4.742,11.974,11.974,0,0,0,4.092,2.8,41.375,41.375,0,0,0,14.971,4c3.688.257,5.744.041,5.753.164a5.979,5.979,0,0,1-1.481.242,34.6,34.6,0,0,1-4.3.121,39.737,39.737,0,0,1-15.355-3.66,12.808,12.808,0,0,1-4.481-3,5.515,5.515,0,0,1-.89-5.848c1.751-3.962,5.735-6.115,9.27-8.584a207.385,207.385,0,0,1,24.885-14.2c9.087-4.437,18.564-7.912,27.6-7.551,9.039.3,16.489,4.1,22.082,7.623a105.893,105.893,0,0,1,12.527,9.6c.587.518,1.106.98,1.574,1.4V368.654a76.556,76.556,0,0,0-10.326-4.729,77.333,77.333,0,0,0-32.881-4.44,69.384,69.384,0,0,0-19.139,4.446c-6.4,2.427-12.572,6.016-18.914,9.657s-12.63,7.2-19.2,9.577A72.185,72.185,0,0,1,97.011,387c-12.76.738-24.166-.544-33.73-.7a101.482,101.482,0,0,0-22.533,1.522c-1.3.285-2.477.49-3.472.747l-2.5.728a13.082,13.082,0,0,1-2.095.523,12.869,12.869,0,0,1,2.01-.784c.708-.244,1.529-.529,2.477-.855.991-.3,2.162-.548,3.468-.879A95.438,95.438,0,0,1,63.3,385.344c9.607.032,21.035,1.209,33.628.408a71.649,71.649,0,0,0,19.273-3.839c6.426-2.347,12.643-5.861,18.981-9.506s12.578-7.255,19.108-9.717a69.938,69.938,0,0,1,19.512-4.453,77.191,77.191,0,0,1,33.326,4.787,75.022,75.022,0,0,1,9.989,4.72V350.463H131.747c-.548.46-1.3,1.069-2.285,1.851a44.516,44.516,0,0,1-4.038,2.963c-1.626,1.08-3.425,2.4-5.582,3.589-2.114,1.261-4.448,2.617-7.065,3.857-2.559,1.365-5.433,2.52-8.43,3.794a122.564,122.564,0,0,1-20.315,5.949,122.684,122.684,0,0,1-21.076,2.045c-3.256-.071-6.355-.071-9.238-.386-2.891-.175-5.563-.566-7.994-.948-2.444-.3-4.606-.855-6.517-1.255a44.12,44.12,0,0,1-4.85-1.246c-.687-.2-1.289-.384-1.807-.548v41.389c1.442-.492,3.341-1.047,5.66-1.622a89.833,89.833,0,0,1,44.155.514,61.747,61.747,0,0,1,6.426,2.054,8.738,8.738,0,0,1,2.259,1.021c-.076.218-3.41-.9-8.914-2.142A106.652,106.652,0,0,0,60.3,408.756a106.7,106.7,0,0,0-21.888,2.077c-2.41.49-4.375.952-5.867,1.311v16.232A23.475,23.475,0,0,1,39.647,428.257ZM153.023,402.9a4.139,4.139,0,0,1,1.116-1.455,8.478,8.478,0,0,1,2.984-1.607,65.459,65.459,0,0,1,42.572,1.712,59.411,59.411,0,0,1,11.615,6.018c1.309.821,2.218,1.617,2.872,2.1.639.5.959.782.933.821-.179.3-5.472-4.23-15.759-8.035a66.766,66.766,0,0,0-18.685-3.941,64.884,64.884,0,0,0-23.146,2.63,7.094,7.094,0,0,0-2.492,1.328c-.7.6-1.067,1.324-.805,1.965.492,1.367,2.941,1.486,4.779,1.924,3.872.79,7.61,1.553,11.179,2.283,7.07,1.475,13.468,2.809,18.921,3.945,5.215,1.138,9.514,2.073,12.734,2.775,1.369.328,2.5.6,3.449.823a4.353,4.353,0,0,1,1.186.378,4.284,4.284,0,0,1-1.237-.108l-3.5-.572c-3.241-.6-7.569-1.389-12.818-2.352-5.47-1.054-11.887-2.293-18.977-3.658-3.576-.706-7.32-1.442-11.2-2.207-.983-.207-1.922-.352-2.978-.62a3.794,3.794,0,0,1-2.809-2.149A2.648,2.648,0,0,1,153.023,402.9ZM71.28,418.849a89.022,89.022,0,0,0,11,5.062,81.613,81.613,0,0,0,39.206,4.561c15.573-1.823,27.953-9.717,38.146-11.939a38.222,38.222,0,0,1,12.181-1.209,23.047,23.047,0,0,1,3.3.481,3.652,3.652,0,0,1,1.112.346c-.024.125-1.585-.235-4.44-.3a41.234,41.234,0,0,0-11.913,1.611c-4.936,1.3-10.54,3.721-16.822,6.344a81.046,81.046,0,0,1-21.387,6.012,79.208,79.208,0,0,1-39.733-5.012,73.493,73.493,0,0,1-10.918-5.5,28.169,28.169,0,0,1-3.647-2.6A27.987,27.987,0,0,1,71.28,418.849Z" transform="translate(-32.549 -350.463)" fill="#f5f5f5"/>
        <path id="Path_28" data-name="Path 28" d="M59.626,469.608c8.948,2.231,19.184,6.213,30.963,8.964a173.871,173.871,0,0,0,39,4.621c28.074.713,52.408-9.113,71.111-8.283a58.219,58.219,0,0,1,16.416,2.568v-26.12c-1.654.2-3.479.417-5.5.663-7.847.782-18.655,2.317-30.763,2.572a90.527,90.527,0,0,1-17.022-1.2,62.075,62.075,0,0,1-13.4-3.876,45.233,45.233,0,0,1-8.251-4.5,22.82,22.82,0,0,1-2.03-1.55c-.447-.378-.665-.594-.637-.63.149-.233,3.969,2.939,11.281,5.792a65.815,65.815,0,0,0,13.248,3.531,95.867,95.867,0,0,0,16.8,1.08c11.976-.248,22.818-1.632,30.689-2.172,2.056-.149,3.908-.285,5.589-.41V387.288c-1.162-.145-2.632-.313-4.405-.464a117.239,117.239,0,0,0-20.5.086,229.63,229.63,0,0,0-30.028,5.07c-11.207,2.486-23.434,5.781-36.543,8.106-13.088,2.345-25.876,3.371-37.411,2.207a85.769,85.769,0,0,1-16.118-3.122,108.844,108.844,0,0,1-13.269-5.286c-7.867-3.686-14.444-6.206-19.264-6.793a31.213,31.213,0,0,0-7.029-.27V431.67a15.986,15.986,0,0,1,1.093-1.2c3.559-3.608,10.246-6.914,18.858-9.158,8.642-2.319,19.253-3.153,30.834-4.656s24.01-4.932,36.956-8.825,25.4-7.521,37.066-9.244a158.357,158.357,0,0,1,31.164-1.667,151.154,151.154,0,0,1,20.894,2.438c2.436.477,4.321.881,5.588,1.211a10.571,10.571,0,0,1,1.918.544,11.146,11.146,0,0,1-1.976-.276c-1.283-.244-3.179-.561-5.621-.959a171.957,171.957,0,0,0-20.842-2,163.684,163.684,0,0,0-30.931,1.941c-11.553,1.775-23.919,5.411-36.874,9.309S95.2,416.464,83.5,417.9c-11.661,1.442-22.2,2.172-30.763,4.347-8.543,2.1-15.17,5.224-18.728,8.607a16.4,16.4,0,0,0-1.46,1.557v18.826c.2.1.423.216.678.35,1.231.654,2.85,1.52,4.874,2.6a191.866,191.866,0,0,0,18.515,8.277,180.385,180.385,0,0,0,65.391,12c26.258.309,49.035-7.8,66.228-9.38a76.348,76.348,0,0,1,20.372.166q1.749.317,3.151.568l2.272.594a9.816,9.816,0,0,1,1.846.577,10.835,10.835,0,0,1-1.909-.309l-2.285-.464c-.935-.13-1.984-.279-3.148-.441a81.037,81.037,0,0,0-20.188.263c-8.5,1-18.452,3.31-29.566,5.679a174.827,174.827,0,0,1-102.513-8.355,163.933,163.933,0,0,1-18.415-8.7c-1.976-1.172-3.559-2.114-4.761-2.829-.2-.127-.374-.229-.54-.335V467.8a42.039,42.039,0,0,1,5.457-.747C43.154,466.633,50.707,467.248,59.626,469.608Zm52.231-42.274a145.573,145.573,0,0,0-20.616,12.514c-1.309,1.009-2.38,2.289-2.263,3.673a3.608,3.608,0,0,0,2.371,2.907c2.421,1.138,4.82.609,6.733.43a11.476,11.476,0,0,1,4.489.188,3.806,3.806,0,0,1,1.4.708c-.03.06-.494-.222-1.468-.443a12.4,12.4,0,0,0-4.355.071c-1.84.246-4.388.918-7.109-.261a4.393,4.393,0,0,1-2.924-3.541c-.171-1.855,1.183-3.412,2.522-4.481A138.219,138.219,0,0,1,111.3,426.213a142.3,142.3,0,0,1,27.9-10.439,140.72,140.72,0,0,1,53.769-3.369c3.427.516,6.534.931,9.212,1.585,2.688.592,5.014,1.039,6.863,1.633,1.738.518,3.153.937,4.271,1.268a6.884,6.884,0,0,1,1.462.529,6.724,6.724,0,0,1-1.537-.266l-4.325-1.015c-1.859-.516-4.191-.885-6.878-1.4-2.678-.579-5.776-.926-9.186-1.378a146.357,146.357,0,0,0-80.992,13.973Zm19.972,17.588a13.627,13.627,0,0,1-3.2-.147,5.9,5.9,0,0,1-4.256-2.827,3.911,3.911,0,0,1-.322-3.354,7.588,7.588,0,0,1,2.384-2.8,53.484,53.484,0,0,1,14.79-9.037,67.077,67.077,0,0,1,20.678-4.755c15.172-1.067,28.644,2.686,37.852,5.943,4.638,1.656,8.29,3.245,10.784,4.4,1.25.572,2.2,1.054,2.846,1.386s.97.529.948.574a28.967,28.967,0,0,1-4-1.473c-2.55-1-6.241-2.449-10.888-3.975-9.227-3.008-22.566-6.547-37.439-5.5a67.951,67.951,0,0,0-20.3,4.556,54.814,54.814,0,0,0-14.641,8.609,6.957,6.957,0,0,0-2.2,2.39,3.131,3.131,0,0,0,.19,2.667,5.388,5.388,0,0,0,3.7,2.671c2.628.531,4.2.356,4.189.512A3.306,3.306,0,0,1,131.829,444.922Z" transform="translate(-32.549 -308.775)" fill="#f5f5f5"/>
        <path id="Path_29" data-name="Path 29" d="M39.578,387.519c4.82.587,11.4,3.107,19.264,6.793A108.844,108.844,0,0,0,72.111,399.6a85.771,85.771,0,0,0,16.118,3.122c11.535,1.164,24.323.138,37.411-2.207,13.11-2.326,25.336-5.621,36.543-8.106a229.635,229.635,0,0,1,30.028-5.07,117.243,117.243,0,0,1,20.5-.086c1.773.151,3.243.32,4.405.464v-.341c-1.147-.218-2.6-.46-4.349-.65a107.137,107.137,0,0,0-20.633-.345,217.518,217.518,0,0,0-30.221,4.8c-11.255,2.427-23.481,5.681-36.511,7.992-13.017,2.332-25.669,3.379-37.055,2.3a86.038,86.038,0,0,1-15.913-2.952,112.192,112.192,0,0,1-13.2-5.083c-7.914-3.578-14.669-6.01-19.588-6.439a23.474,23.474,0,0,0-7.1.119v.134A31.215,31.215,0,0,1,39.578,387.519Z" transform="translate(-32.549 -309.203)" fill="#ebebeb"/>
        <path id="Path_30" data-name="Path 30" d="M39.206,371.921c1.911.4,4.073.959,6.517,1.255,2.431.382,5.1.773,7.994.948,2.883.315,5.981.315,9.238.386a122.684,122.684,0,0,0,21.076-2.045,122.564,122.564,0,0,0,20.315-5.949c3-1.274,5.871-2.429,8.43-3.794,2.617-1.24,4.951-2.6,7.065-3.857,2.157-1.186,3.956-2.509,5.582-3.589a44.516,44.516,0,0,0,4.038-2.963c.987-.782,1.736-1.391,2.285-1.851h-.527c-.559.376-1.22.829-2.071,1.425-1.108.8-2.477,1.76-4.146,2.755-1.654,1.013-3.474,2.267-5.642,3.392-2.127,1.194-4.463,2.49-7.078,3.673-2.552,1.306-5.416,2.41-8.391,3.641a129.1,129.1,0,0,1-20.119,5.779,129.155,129.155,0,0,1-20.829,2.129c-3.22-.037-6.286.007-9.143-.259-2.868-.123-5.517-.456-7.938-.773-2.431-.235-4.587-.723-6.5-1.047-1.92-.3-3.548-.682-4.872-1.015-.745-.175-1.386-.32-1.941-.443v.406c.518.164,1.121.345,1.807.548A44.12,44.12,0,0,0,39.206,371.921Z" transform="translate(-32.549 -350.463)" fill="#ebebeb"/>
        <path id="Path_31" data-name="Path 31" d="M173.73,354.184a69.938,69.938,0,0,0-19.512,4.453c-6.53,2.462-12.771,6.081-19.108,9.717s-12.555,7.158-18.981,9.506A71.649,71.649,0,0,1,96.856,381.7c-12.594.8-24.021-.376-33.628-.408a95.44,95.44,0,0,0-22.663,1.963c-1.306.33-2.477.579-3.468.879-.948.326-1.769.611-2.477.855a12.87,12.87,0,0,0-2.01.784,13.087,13.087,0,0,0,2.095-.523l2.5-.728c1-.257,2.168-.462,3.472-.747a101.486,101.486,0,0,1,22.533-1.522c9.564.153,20.97,1.436,33.73.7a72.184,72.184,0,0,0,19.644-3.837c6.571-2.38,12.861-5.934,19.2-9.577s12.518-7.23,18.914-9.657a69.385,69.385,0,0,1,19.139-4.446,77.333,77.333,0,0,1,32.881,4.44,76.555,76.555,0,0,1,10.326,4.729v-.909a75.022,75.022,0,0,0-9.989-4.72A77.191,77.191,0,0,0,173.73,354.184Z" transform="translate(-32.478 -346.41)" fill="#ebebeb"/>
        <path id="Path_32" data-name="Path 32" d="M156.755,370.368c-5.593-3.522-13.043-7.32-22.082-7.623-9.037-.361-18.515,3.114-27.6,7.551a207.384,207.384,0,0,0-24.885,14.2c-3.535,2.468-7.519,4.621-9.27,8.584a5.515,5.515,0,0,0,.89,5.848,12.809,12.809,0,0,0,4.481,3,39.737,39.737,0,0,0,15.355,3.66,34.615,34.615,0,0,0,4.3-.121,5.976,5.976,0,0,0,1.481-.242c-.009-.123-2.064.093-5.753-.164a41.375,41.375,0,0,1-14.971-4,11.975,11.975,0,0,1-4.092-2.8,4.423,4.423,0,0,1-.65-4.742c1.509-3.4,5.332-5.543,8.923-7.968a217.886,217.886,0,0,1,24.781-14.021c9.031-4.414,18.273-7.806,26.975-7.523,8.7.214,16.02,3.8,21.609,7.184a124.263,124.263,0,0,1,12.7,9.188c.708.566,1.341,1.073,1.915,1.535v-.538c-.469-.423-.987-.885-1.574-1.4A105.892,105.892,0,0,0,156.755,370.368Z" transform="translate(13.711 -336.252)" fill="#ebebeb"/>
        <path id="Path_33" data-name="Path 33" d="M91.208,382.022c1.056.268,2,.412,2.978.62,3.876.764,7.62,1.5,11.2,2.207,7.089,1.365,13.507,2.6,18.977,3.658,5.249.963,9.577,1.756,12.818,2.352l3.5.572a4.281,4.281,0,0,0,1.237.108,4.356,4.356,0,0,0-1.186-.378c-.944-.225-2.079-.495-3.449-.823-3.22-.7-7.519-1.637-12.734-2.775-5.452-1.136-11.851-2.47-18.921-3.945-3.569-.73-7.307-1.492-11.179-2.283-1.838-.438-4.286-.557-4.779-1.924-.261-.641.106-1.367.805-1.965a7.094,7.094,0,0,1,2.492-1.328,64.885,64.885,0,0,1,23.146-2.63,66.769,66.769,0,0,1,18.685,3.941c10.287,3.8,15.58,8.34,15.759,8.035.026-.039-.294-.32-.933-.821-.654-.479-1.563-1.276-2.872-2.1a59.414,59.414,0,0,0-11.615-6.018,65.46,65.46,0,0,0-42.572-1.712,8.478,8.478,0,0,0-2.984,1.607,4.14,4.14,0,0,0-1.116,1.455,2.648,2.648,0,0,0-.065,2A3.794,3.794,0,0,0,91.208,382.022Z" transform="translate(32.011 -325.439)" fill="#ebebeb"/>
        <path id="Path_34" data-name="Path 34" d="M60.3,378.191a106.654,106.654,0,0,1,21.831,2.585c5.5,1.246,8.838,2.36,8.914,2.142A8.737,8.737,0,0,0,88.79,381.9a61.74,61.74,0,0,0-6.426-2.054,89.832,89.832,0,0,0-44.155-.514c-2.319.574-4.217,1.129-5.66,1.622v.628c1.492-.358,3.457-.82,5.867-1.311A106.7,106.7,0,0,1,60.3,378.191Z" transform="translate(-32.549 -319.898)" fill="#ebebeb"/>
        <path id="Path_35" data-name="Path 35" d="M52.737,416.694c8.566-2.175,19.1-2.9,30.763-4.347,11.7-1.436,24.233-4.869,37.176-8.765s25.321-7.534,36.874-9.309a163.687,163.687,0,0,1,30.931-1.941,171.962,171.962,0,0,1,20.842,2c2.442.4,4.338.715,5.621.959a11.146,11.146,0,0,0,1.976.276,10.574,10.574,0,0,0-1.918-.544c-1.268-.33-3.153-.734-5.588-1.211a151.14,151.14,0,0,0-20.894-2.438,158.357,158.357,0,0,0-31.164,1.667c-11.665,1.723-24.122,5.347-37.066,9.244s-25.362,7.333-36.956,8.825-22.192,2.336-30.834,4.656c-8.612,2.244-15.3,5.549-18.858,9.158a15.986,15.986,0,0,0-1.093,1.2v.741a16.4,16.4,0,0,1,1.46-1.557C37.567,421.918,44.195,418.791,52.737,416.694Z" transform="translate(-32.549 -303.223)" fill="#ebebeb"/>
        <path id="Path_36" data-name="Path 36" d="M52.32,384.531a73.5,73.5,0,0,0,10.918,5.5,79.208,79.208,0,0,0,39.733,5.012,81.046,81.046,0,0,0,21.387-6.012c6.282-2.624,11.885-5.04,16.822-6.344a41.234,41.234,0,0,1,11.913-1.611c2.855.063,4.416.423,4.44.3a3.655,3.655,0,0,0-1.112-.346,23.047,23.047,0,0,0-3.3-.481,38.223,38.223,0,0,0-12.181,1.209c-10.192,2.222-22.572,10.117-38.146,11.939a81.613,81.613,0,0,1-39.206-4.561,89.023,89.023,0,0,1-11-5.062,27.987,27.987,0,0,0-3.915-2.149A28.169,28.169,0,0,0,52.32,384.531Z" transform="translate(-13.857 -315.69)" fill="#ebebeb"/>
        <path id="Path_37" data-name="Path 37" d="M163.023,400.055c3.41.451,6.508.8,9.186,1.378,2.686.516,5.018.885,6.878,1.4l4.325,1.015a6.722,6.722,0,0,0,1.537.266,6.883,6.883,0,0,0-1.462-.529c-1.119-.33-2.533-.749-4.271-1.268-1.848-.594-4.174-1.041-6.863-1.633-2.678-.654-5.785-1.069-9.212-1.585a140.721,140.721,0,0,0-53.769,3.369,142.3,142.3,0,0,0-27.9,10.439,138.222,138.222,0,0,0-20.661,12.885c-1.339,1.069-2.693,2.626-2.522,4.481a4.393,4.393,0,0,0,2.924,3.541c2.721,1.179,5.269.507,7.109.261A12.4,12.4,0,0,1,72.677,434c.974.22,1.438.5,1.468.443a3.806,3.806,0,0,0-1.4-.708,11.476,11.476,0,0,0-4.489-.188c-1.913.179-4.312.708-6.733-.43a3.607,3.607,0,0,1-2.371-2.907c-.117-1.384.954-2.665,2.263-3.673a145,145,0,0,1,101.608-26.487Z" transform="translate(-2.724 -295.469)" fill="#ebebeb"/>
        <path id="Path_38" data-name="Path 38" d="M76.045,422.581a3.131,3.131,0,0,1-.19-2.667,6.958,6.958,0,0,1,2.2-2.39A54.815,54.815,0,0,1,92.7,408.914a67.95,67.95,0,0,1,20.3-4.556c14.874-1.052,28.212,2.488,37.439,5.5,4.647,1.527,8.337,2.973,10.888,3.975a28.956,28.956,0,0,0,4,1.473c.022-.045-.307-.24-.948-.574s-1.6-.814-2.846-1.386c-2.494-1.153-6.146-2.742-10.784-4.4-9.208-3.256-22.68-7.009-37.852-5.943a67.077,67.077,0,0,0-20.678,4.755,53.484,53.484,0,0,0-14.79,9.037,7.588,7.588,0,0,0-2.384,2.8,3.911,3.911,0,0,0,.322,3.354,5.9,5.9,0,0,0,4.256,2.827,13.628,13.628,0,0,0,3.2.147,3.309,3.309,0,0,0,1.1-.151c.013-.155-1.561.019-4.189-.512A5.388,5.388,0,0,1,76.045,422.581Z" transform="translate(16.448 -289.768)" fill="#ebebeb"/>
        <path id="Path_39" data-name="Path 39" d="M37.85,419.85a163.929,163.929,0,0,0,18.415,8.7,174.827,174.827,0,0,0,102.513,8.355c11.114-2.369,21.063-4.675,29.566-5.679a81.041,81.041,0,0,1,20.188-.263c1.164.162,2.213.311,3.148.441l2.285.464a10.843,10.843,0,0,0,1.909.309,9.813,9.813,0,0,0-1.846-.577l-2.272-.594q-1.4-.253-3.151-.568a76.347,76.347,0,0,0-20.372-.166c-17.193,1.578-39.97,9.689-66.228,9.38a180.384,180.384,0,0,1-65.391-12A191.866,191.866,0,0,1,38.1,419.384c-2.023-1.078-3.643-1.943-4.874-2.6-.255-.134-.477-.248-.678-.35v.25c.166.106.337.207.54.335C34.292,417.736,35.874,418.677,37.85,419.85Z" transform="translate(-32.549 -273.975)" fill="#ebebeb"/>
        <path id="Path_40" data-name="Path 40" d="M123.409,422.951a95.867,95.867,0,0,1-16.8-1.08,65.815,65.815,0,0,1-13.248-3.531c-7.312-2.853-11.132-6.025-11.281-5.792-.028.037.19.253.637.63a22.82,22.82,0,0,0,2.03,1.55,45.233,45.233,0,0,0,8.251,4.5,62.074,62.074,0,0,0,13.4,3.876,90.527,90.527,0,0,0,17.022,1.2c12.108-.255,22.915-1.79,30.763-2.572,2.017-.246,3.842-.464,5.5-.663v-.708c-1.68.125-3.533.261-5.589.41C146.228,421.319,135.385,422.7,123.409,422.951Z" transform="translate(24.88 -278.495)" fill="#ebebeb"/>
        <path id="Path_41" data-name="Path 41" d="M59.379,427.313c8.849,2.326,19.044,6.407,30.918,9.251a170.921,170.921,0,0,0,39.286,4.764c28.368.693,52.747-9.3,71.1-8.681a59.373,59.373,0,0,1,16.429,2.3v-.693a58.22,58.22,0,0,0-16.416-2.568c-18.7-.829-43.037,9-71.111,8.283a173.87,173.87,0,0,1-39-4.621c-11.779-2.751-22.015-6.733-30.963-8.964-8.918-2.36-16.472-2.976-21.62-2.557a42.044,42.044,0,0,0-5.457.747v.3a53.288,53.288,0,0,1,5.485-.516C43.134,424.1,50.558,424.851,59.379,427.313Z" transform="translate(-32.549 -265.549)" fill="#ebebeb"/>
        <path id="Path_42" data-name="Path 42" d="M53.925,443.326A86.862,86.862,0,0,1,85.441,436.3c12.246-.538,25.677,1.253,39.761,3.019,7.05.864,13.965,1.6,20.683,1.883a140.84,140.84,0,0,0,19.359-.533c12.244-1.136,23.311-2.222,32.473-.782a45.818,45.818,0,0,1,19.4,7.135v-.693a45.535,45.535,0,0,0-19.253-7.394c-9.3-1.585-20.512-.579-32.721.484a142.187,142.187,0,0,1-19.2.451c-6.66-.294-13.535-1.039-20.575-1.9-14.064-1.762-27.59-3.533-39.981-2.922a86.275,86.275,0,0,0-31.847,7.4,84.522,84.522,0,0,0-18.832,11.514c-.812.659-1.516,1.257-2.159,1.816v.551c.728-.587,1.548-1.235,2.488-1.95A89.341,89.341,0,0,1,53.925,443.326Z" transform="translate(-32.549 -252.542)" fill="#ebebeb"/>
        <path id="Path_43" data-name="Path 43" d="M107.482,445.861a133.552,133.552,0,0,0-26.172-3.116A71.1,71.1,0,0,0,59.99,445.8a49.424,49.424,0,0,0-12.753,6.057h1.049a54.208,54.208,0,0,1,11.985-5.137A72.7,72.7,0,0,1,81.3,444a138.139,138.139,0,0,1,25.908,3.2c7.661,1.563,14.958,3.284,21.836,4.662h6.763c-.888-.16-1.751-.3-2.66-.473C125.243,449.878,116.631,447.729,107.482,445.861Z" transform="translate(-15.52 -243.473)" fill="#ebebeb"/>
      </g>
      <g id="Group_40" data-name="Group 40" transform="translate(32.548 346.034)">
        <g id="Group_30" data-name="Group 30" transform="translate(0 91.62)">
          <g id="Group_24" data-name="Group 24" transform="translate(0 66.66)">
            <rect id="Rectangle_15" data-name="Rectangle 15" width="133.569" height="2.613" fill="#e0e0e0"/>
          </g>
          <g id="Group_25" data-name="Group 25" transform="translate(0 135.413)">
            <rect id="Rectangle_16" data-name="Rectangle 16" width="133.587" height="2.611" fill="#e0e0e0"/>
          </g>
          <g id="Group_26" data-name="Group 26" transform="translate(53.766 67.968)">
            <rect id="Rectangle_17" data-name="Rectangle 17" width="28.212" height="5.983" fill="#e0e0e0"/>
          </g>
          <g id="Group_27" data-name="Group 27" transform="translate(53.766)">
            <rect id="Rectangle_18" data-name="Rectangle 18" width="28.212" height="5.985" fill="#e0e0e0"/>
          </g>
          <g id="Group_28" data-name="Group 28" transform="translate(53.766 136.358)">
            <rect id="Rectangle_19" data-name="Rectangle 19" width="28.212" height="5.985" fill="#e0e0e0"/>
          </g>
          <g id="Group_29" data-name="Group 29" transform="translate(133.568)">
            <rect id="Rectangle_20" data-name="Rectangle 20" width="51.002" height="208.497" transform="translate(0)" fill="#ebebeb"/>
          </g>
        </g>
        <g id="Group_36" data-name="Group 36" transform="translate(0.001)">
          <g id="Group_31" data-name="Group 31" transform="translate(0 5.776)">
            <rect id="Rectangle_21" data-name="Rectangle 21" width="18.018" height="85.844" fill="#ebebeb"/>
          </g>
          <g id="Group_32" data-name="Group 32" transform="translate(27.164 14.515)">
            <rect id="Rectangle_22" data-name="Rectangle 22" width="12.56" height="77.105" fill="#ebebeb"/>
          </g>
          <g id="Group_33" data-name="Group 33" transform="translate(18.018 14.515)">
            <rect id="Rectangle_23" data-name="Rectangle 23" width="9.146" height="77.105" fill="#e0e0e0"/>
          </g>
          <g id="Group_34" data-name="Group 34" transform="translate(39.724 23.367)">
            <rect id="Rectangle_24" data-name="Rectangle 24" width="9.283" height="68.253" fill="#f5f5f5"/>
          </g>
          <g id="Group_35" data-name="Group 35" transform="translate(49.007)">
            <rect id="Rectangle_25" data-name="Rectangle 25" width="19.657" height="91.62" fill="#ebebeb"/>
          </g>
        </g>
        <g id="Group_39" data-name="Group 39" transform="translate(80.681 51.149)">
          <g id="Group_37" data-name="Group 37" transform="translate(0 0.001)">
            <path id="Path_44" data-name="Path 44" d="M71.764,331.721l-1.853,7.724,1.853,2.781v4.632l-1.853,4.325,1.853,1.546v10.814l-1.853,1.235,1.853,1.546v5.867h99.174v-7.1l-1.855-3.4,1.855-15.45-1.546-7.413s-1.544-3.09-1.544-4.019.309-3.088.309-3.088Z" transform="translate(-69.911 -331.721)" fill="#ebebeb"/>
          </g>
          <g id="Group_38" data-name="Group 38" transform="translate(50.512)" opacity="0.24">
            <path id="Path_45" data-name="Path 45" d="M95.678,372.192l-2.376-11.2,2.376-4.612v-4.424L93.3,349.641l2.376-3.549V331.721h45.358l-.309,3.089,1.545,4.017,1.546,7.415-1.854,15.449,1.854,3.4v7.1Z" transform="translate(-93.303 -331.721)" fill="#e0e0e0"/>
          </g>
        </g>
      </g>
    </g>
    <g id="Plant" transform="translate(209.012 9938.34)">
      <g id="Group_36-2" data-name="Group 36" transform="translate(38.19 261.235)">
        <g id="Group_22" data-name="Group 22" transform="translate(66.419 21.961)">
          <path id="Path_25-2" data-name="Path 25" d="M122.746,291.232c-4.573-4.48-10.483-9.894-17.474-7.962-6.578,1.817-9.1,9-10.273,14.98-1.518,7.71-2.7,15.495-3.923,23.255q-1.855,11.758-3.527,23.543-.954,6.649-1.885,13.3-.464,3.327-.925,6.653c-.3,2.176-.665,4.348-.785,6.543-.038.7,1.06.8,1.212.134.848-3.7,1.2-7.544,1.742-11.3q.819-5.663,1.644-11.325,1.644-11.247,3.36-22.485,1.694-11.245,3.495-22.474c1.015-6.348,1.493-14.236,7.122-18.424,3.087-2.3,7.026-2.322,10.525-.987,3.7,1.414,6.663,4.065,9.56,6.688A.1.1,0,0,0,122.746,291.232Z" transform="translate(-83.953 -273.433)" fill="#263238"/>
          <g id="Group_21" data-name="Group 21" transform="translate(17.224)">
            <path id="Path_26-2" data-name="Path 26" d="M111.132,289.589s-9.348-3.366-13.961,3.457.9,24.174,43.463,33.963a120.188,120.188,0,0,0-10.241-38.474C121.269,268.637,105.011,276.173,111.132,289.589Z" transform="translate(-95.821 -276.367)" fill="#ffc727"/>
            <g id="Group_20" data-name="Group 20" transform="translate(10.174 10.15)">
              <path id="Path_27-2" data-name="Path 27" d="M134.932,320.272a33.216,33.216,0,0,0-2.141-3.451q-1.067-1.646-2.158-3.276c-.547-.817-1.106-1.627-1.665-2.437.041-.2.052-.4.078-.61.049-.369.1-.737.147-1.1.1-.8.221-1.594.338-2.39s.25-1.585.4-2.374a12.66,12.66,0,0,1,.557-2.508c.054-.123-.17-.186-.186-.039a9.232,9.232,0,0,1-.38,1.409c-.1.357-.193.717-.286,1.075q-.309,1.21-.585,2.431c-.168.749-.311,1.5-.438,2.26-.061.363-.115.727-.164,1.091-.759-1.083-1.533-2.154-2.331-3.206-2.26-2.977-4.65-5.842-7.123-8.637.01-.028.036-.044.038-.077.221-4.472.113-8.9,1.106-13.3.026-.12-.154-.186-.181-.065-.93,4.126-1.858,8.46-1.591,12.723q-1.33-1.487-2.691-2.951-3.109-3.342-6.341-6.57c-.087-.087-.225.041-.141.131,3.586,3.861,6.993,7.882,10.311,11.977a73.249,73.249,0,0,0-7.781.287c-2.885.213-5.753.582-8.618.978-.122.017-.086.208.036.189a80.987,80.987,0,0,1,8.607-.771c2.776-.115,5.538.01,8.312,0q2.689,3.335,5.313,6.72c-.125,0-.255,0-.4-.007-.652-.013-1.3-.023-1.956-.012-1.293.022-2.589.113-3.877.222a59.034,59.034,0,0,0-7.859,1.176.1.1,0,0,0,.036.189c2.615-.295,5.237-.54,7.866-.633,1.255-.044,2.509-.044,3.765-.044.653,0,1.3-.006,1.958,0a2.465,2.465,0,0,0,1.074-.1c1.145,1.486,2.292,2.972,3.425,4.466q1.354,1.783,2.669,3.6c.894,1.237,1.7,2.586,2.7,3.743C134.851,320.468,134.978,320.368,134.932,320.272Z" transform="translate(-102.741 -282.62)" fill="#263238"/>
              <path id="Path_28-2" data-name="Path 28" d="M112.039,292.207a28.387,28.387,0,0,0-4.553-.222c-1.518,0-3.038.045-4.556.1a.1.1,0,1,0,.012.19c1.54-.11,3.078-.136,4.621-.113,1.489.022,2.983.164,4.47.123A.038.038,0,0,0,112.039,292.207Z" transform="translate(-102.831 -279.468)" fill="#263238"/>
              <path id="Path_29-2" data-name="Path 29" d="M118.6,295.891c.174-1.453.356-2.914.666-4.345a.1.1,0,1,0-.186-.039c-.219,1.431-.5,2.852-.708,4.284q-.159,1.073-.292,2.152a9.957,9.957,0,0,0-.174,2.029.131.131,0,0,0,.25.019,12.578,12.578,0,0,0,.221-2.026Q118.473,296.927,118.6,295.891Z" transform="translate(-96.033 -279.722)" fill="#263238"/>
              <path id="Path_30-2" data-name="Path 30" d="M116.921,283.424c-.373,1.415-.742,2.846-1,4.287-.132.73-.244,1.464-.343,2.2a8.843,8.843,0,0,0-.144,2.15.059.059,0,0,0,.112.009,12.188,12.188,0,0,0,.335-2.051q.141-1.06.325-2.116c.258-1.483.521-2.954.9-4.414C117.133,283.37,116.953,283.3,116.921,283.424Z" transform="translate(-97.155 -283.361)" fill="#263238"/>
            </g>
          </g>
        </g>
        <g id="Group_24-2" data-name="Group 24" transform="translate(16.602 62.41)">
          <path id="Path_31-2" data-name="Path 31" d="M84.778,358.96q-.353-4.019-.778-8.032-.84-7.955-1.919-15.878c-.708-5.267-1.386-10.547-2.232-15.8a39.41,39.41,0,0,0-1.624-7.171,6.8,6.8,0,0,0-3.972-4.482c-5.007-1.73-8.386,3.463-10.408,7.136-.061.11.1.193.168.093,1.21-1.739,4.557-6.625,8.356-6.4,2.556.154,4.6,1.964,5.827,8.337,3.058,15.881,5.813,48.109,6.135,50.216.171,1.118.961,1.07.967-.128C85.314,364.222,85.008,361.584,84.778,358.96Z" transform="translate(-43.218 -302.872)" fill="#263238"/>
          <path id="Path_32-2" data-name="Path 32" d="M71.607,314.127s4.376-15.454-5.3-7.727C50.2,319.263,49.629,347.246,49.629,347.246s28.631-16.63,32.191-27.6C87.124,303.308,71.607,314.127,71.607,314.127Z" transform="translate(-49.629 -304.236)" fill="#ffc727"/>
          <g id="Group_23-2" data-name="Group 23" transform="translate(1.818 7.947)">
            <path id="Path_33-2" data-name="Path 33" d="M76.46,319.243c-2.247.454-4.524.753-6.794,1.08q-1.609.231-3.222.453c-.726.1-1.46.168-2.19.258,2.134-2.939,4.283-5.865,6.328-8.862.08-.116-.1-.235-.192-.141a66.368,66.368,0,0,0-4.784,5.521c-.419-1.2-.849-2.39-1.27-3.586-.486-1.385-1.01-2.76-1.361-4.187-.03-.12-.218-.064-.184.055.39,1.417.668,2.862,1.046,4.283.366,1.372.782,2.727,1.268,4.06-1.049,1.363-2.054,2.758-3.032,4.165-.493-1.4-1.1-2.747-1.536-4.165a.1.1,0,0,0-.184.055c.512,1.569.79,3.2,1.271,4.778-.657.959-1.315,1.92-1.942,2.89-1.157,1.787-2.245,3.605-3.312,5.437a.426.426,0,0,0-.251.432c-1.808,3.129-3.53,6.3-5.226,9.508a.1.1,0,0,0,.167.093c1.7-3.164,3.591-6.244,5.557-9.27l.02,0a4.3,4.3,0,0,1,.936-.181c.331-.068.66-.142.99-.215.74-.161,1.473-.353,2.209-.536,1.451-.36,2.888-.7,4.363-.956.122-.022.067-.208-.055-.184-1.733.329-3.472.527-5.223.73-.827.1-1.652.2-2.473.332l-.119.017q1.544-2.347,3.131-4.652c1.041-1.509,2.109-3,3.183-4.486.993-.139,1.977-.4,2.962-.589q1.661-.318,3.322-.646c2.218-.438,4.424-.935,6.653-1.3C76.635,319.406,76.583,319.217,76.46,319.243Z" transform="translate(-50.882 -309.712)" fill="#263238"/>
            <path id="Path_34-2" data-name="Path 34" d="M57.033,318.537c-.134-.408-.257-.82-.386-1.229a24.465,24.465,0,0,1-.657-2.592c-.025-.12-.209-.065-.184.057.187.872.392,1.742.592,2.611a16.911,16.911,0,0,0,.745,2.57.174.174,0,0,0,.332-.1C57.35,319.41,57.176,318.976,57.033,318.537Z" transform="translate(-48.661 -307.484)" fill="#263238"/>
            <path id="Path_35-2" data-name="Path 35" d="M72.989,313.813c-1.306.2-2.624.287-3.938.4s-2.624.3-3.935.5c-.073.01-.074.12,0,.115,1.319-.09,2.627-.192,3.939-.364s2.617-.366,3.936-.457C73.118,314,73.108,313.8,72.989,313.813Z" transform="translate(-44.481 -307.861)" fill="#263238"/>
          </g>
        </g>
        <g id="Group_27-2" data-name="Group 27" transform="translate(0 7.425)">
          <path id="Path_36-2" data-name="Path 36" d="M108.436,355.448c-.508-11.38-1.231-22.739-2.374-34.074-.569-5.644-1.206-11.284-2-16.9a120.792,120.792,0,0,0-3.26-16.36c-1.171-4.1-2.71-8.207-5.446-11.534a12.365,12.365,0,0,0-11-4.8c-4.981.615-8.99,3.753-12.459,7.162-3.891,3.824-7.454,8-11.059,12.09q-1.367,1.552-2.713,3.125c-.08.093.058.226.139.132,3.524-4.048,7.184-7.981,11.016-11.742,3.54-3.476,7.186-7.274,12.09-8.71a12.458,12.458,0,0,1,7.025-.165,11.146,11.146,0,0,1,4.8,3.039c2.759,2.871,4.311,6.76,5.412,10.524,3.059,10.459,4.155,21.427,5.292,32.228,1.155,10.974,1.935,21.978,2.486,33,.554,11.078.987,22.17,2.054,33.215.132,1.364.309,2.723.482,4.081.118.914,1.536.916,1.46-.036C109.472,378.3,108.947,366.883,108.436,355.448Z" transform="translate(-29.204 -263.94)" fill="#263238"/>
          <g id="Group_26-2" data-name="Group 26">
            <path id="Path_37-2" data-name="Path 37" d="M80.254,282.582s6.5-12.026-1.18-15.884S45.7,291.525,38.19,333.47c0,0,41.5-18.363,55.6-36.662S91.9,274.482,80.254,282.582Z" transform="translate(-38.19 -266.351)" fill="#ffc727"/>
            <g id="Group_25-2" data-name="Group 25" transform="translate(6.491 13.942)">
              <path id="Path_38-2" data-name="Path 38" d="M84.337,288.027c-4.665.01-9.316-.354-13.982-.321.874-1,1.745-2.007,2.628-3a43.706,43.706,0,0,0,3.646-4.237c.065-.1-.074-.234-.168-.16a34,34,0,0,0-3.53,3.54q-1.753,1.861-3.488,3.739c-1.784,1.929-3.53,3.891-5.273,5.855,0-.192-.009-.38-.007-.566,0-.816,0-1.633,0-2.45.01-1.582.033-3.164.049-4.746.03-3.206.023-6.431.245-9.631.009-.123-.183-.118-.192,0-.224,3.218-.556,6.421-.714,9.643-.078,1.582-.116,3.164-.135,4.749-.01.816-.023,1.634-.017,2.45,0,.446-.013.916.02,1.374-.271.308-.553.607-.824.914-3.723,4.255-7.261,8.654-10.708,13.132,0-.247-.038-.5-.061-.743-.048-.493-.107-.987-.163-1.48-.12-1.071-.267-2.136-.427-3.2q-.226-1.5-.478-3c-.189-1.12-.463-2.257-.549-3.39a.1.1,0,1,0-.187.03,29.88,29.88,0,0,1,.39,3.415q.144,1.539.284,3.08c.091,1.028.184,2.054.29,3.081.051.493.094.987.148,1.48.026.247.057.493.09.739a1.424,1.424,0,0,0,.2.588c-.592.772-1.187,1.541-1.774,2.318-2.354,3.115-4.663,6.264-6.975,9.411-.071.1.064.231.139.132,2.189-2.853,4.44-5.656,6.721-8.432,1.708.073,3.45-.054,5.157-.081,1.8-.031,3.6-.039,5.4-.045a.1.1,0,0,0,0-.192c-1.8.03-3.6.058-5.4.065-1.64.006-3.315-.074-4.956.015q3.009-3.66,6.068-7.28c.74-.882,1.486-1.76,2.229-2.643a10.182,10.182,0,0,0,2.083.07q1.228,0,2.454,0c1.534-.006,3.067-.041,4.6-.064,3.168-.049,6.338-.154,9.505-.163a.1.1,0,0,0,0-.192c-3.171-.039-6.344-.176-9.515-.255-1.534-.039-3.07-.09-4.6-.11-.819-.012-1.637-.019-2.454-.028-.466-.006-.946-.038-1.418-.02q2.61-3.1,5.228-6.2a.235.235,0,0,0,.1-.113c1.7-2.006,3.4-4.013,5.122-6,.235-.273.475-.54.711-.813,4.836.151,9.665-.167,14.5-.073C84.464,288.221,84.46,288.025,84.337,288.027Z" transform="translate(-42.662 -275.957)" fill="#263238"/>
              <path id="Path_39-2" data-name="Path 39" d="M70.109,289.955l-1.131.01c-.11,0-.106.171,0,.173l1.131.009C70.236,290.148,70.232,289.954,70.109,289.955Z" transform="translate(-30.82 -269.639)" fill="#263238"/>
              <path id="Path_40-2" data-name="Path 40" d="M70.756,290.033q-2.242-.03-4.483-.094-1.119-.03-2.241-.071a8.35,8.35,0,0,0-2.086.025c-.073.017-.06.12,0,.139a8.033,8.033,0,0,0,2.089.148q1.121.02,2.241.032,2.24.022,4.48.014A.1.1,0,0,0,70.756,290.033Z" transform="translate(-33.98 -269.704)" fill="#263238"/>
              <path id="Path_41-2" data-name="Path 41" d="M61.875,299.873a62.229,62.229,0,0,0-9.178-.827c-.045,0-.041.062,0,.067,3.049.29,6.1.456,9.131.948C61.951,300.08,62,299.89,61.875,299.873Z" transform="translate(-38.147 -265.536)" fill="#263238"/>
              <path id="Path_42-2" data-name="Path 42" d="M50.772,292.3c-.03-.267-.061-.534-.1-.8-.078-.6-.173-1.2-.267-1.8q-.27-1.709-.6-3.409c-.02-.106-.2-.078-.189.03q.216,1.757.379,3.522c.054.578.1,1.157.149,1.734a4.833,4.833,0,0,0,.234,1.644c.087.178.356.106.4-.062A2.24,2.24,0,0,0,50.772,292.3Z" transform="translate(-39.52 -271.32)" fill="#263238"/>
            </g>
          </g>
        </g>
        <g id="Group_30-2" data-name="Group 30" transform="translate(62.38)">
          <path id="Path_43-2" data-name="Path 43" d="M97.613,268.819c-1.486-2.765-3.376-6.418-7.084-6.186-3.062.192-4.441,3.315-5.1,5.9-2.022,7.987-2.164,16.413-2.557,24.6-.833,17.3-1.581,34.618-1.691,51.94q-.044,7.2.032,14.4c.045,4.9.032,9.821.343,14.71a.361.361,0,0,0,.721-.017c.026-4.189-.122-8.38-.139-12.569q-.024-6.133.081-12.263.2-12.418.663-24.83c.3-8.225.666-16.445,1.015-24.667q.261-6.163.533-12.327c.18-3.981.353-7.965.807-11.926.255-2.218.583-4.437,1.046-6.621a9.21,9.21,0,0,1,1.914-4.437,4.185,4.185,0,0,1,5.412-.392,11.468,11.468,0,0,1,3.836,4.787C97.505,269.031,97.671,268.929,97.613,268.819Z" transform="translate(-81.17 -260.609)" fill="#263238"/>
          <g id="Group_29-2" data-name="Group 29" transform="translate(7.554)">
            <path id="Path_44-2" data-name="Path 44" d="M94.259,268.126s-3.048-10.766,3.692-5.383C109.17,271.7,109.568,291.2,109.568,291.2s-19.943-11.585-22.424-19.225C83.45,260.589,94.259,268.126,94.259,268.126Z" transform="translate(-86.375 -261.235)" fill="#ffc727"/>
            <g id="Group_28-2" data-name="Group 28" transform="translate(4.861 5.8)">
              <path id="Path_45-2" data-name="Path 45" d="M103.862,280.789c-.184-.3-.38-.586-.567-.882a5.529,5.529,0,0,0,0-.917c0-.463-.006-.927,0-1.39q.033-1.363.1-2.727c.006-.123-.186-.118-.192,0q-.07,1.339-.107,2.676c-.013.447-.033.893-.048,1.34-.006.174-.028.374-.038.575-.784-1.216-1.586-2.419-2.418-3.6-.242-.342-.495-.676-.74-1.016a20.917,20.917,0,0,1-.06-3.517c.015-1.251.032-2.5.075-3.752,0-.123-.189-.119-.192,0-.036,1.3-.1,2.6-.167,3.9a25.117,25.117,0,0,0-.077,2.785c-1.927-2.618-3.968-5.144-6.038-7.655-.07-.084-.216.033-.148.119,1.28,1.621,2.508,3.284,3.711,4.967-2.347-.547-4.733-.862-7.118-1.206-.122-.019-.17.167-.046.186,2.524.382,5,1.015,7.493,1.565.02,0,.032-.009.049-.009q1.435,2.018,2.839,4.054c.383.552.755,1.112,1.132,1.666l-.107-.013c-.258-.036-.517-.076-.776-.106-.552-.067-1.1-.11-1.659-.154-1.149-.09-2.3-.151-3.453-.213-.123-.006-.119.19,0,.193,1.135.026,2.261.112,3.389.234.6.064,1.189.145,1.784.215l.779.093.228.032q.958,1.415,1.919,2.826c1.126,1.666,2.131,3.45,3.332,5.058a.091.091,0,0,0,.155-.1A51.783,51.783,0,0,0,103.862,280.789Z" transform="translate(-89.724 -264.62)" fill="#263238"/>
              <path id="Path_46" data-name="Path 46" d="M96.116,269.241c0-.419.009-.839.009-1.257a19.03,19.03,0,0,1,.106-2.637c.019-.139-.19-.16-.19-.022,0,.872-.1,1.743-.136,2.614-.022.435-.022.872-.023,1.308,0,.2,0,.4,0,.6a1.841,1.841,0,0,0,.046.626.087.087,0,0,0,.167,0,1.83,1.83,0,0,0,.026-.578C96.117,269.676,96.116,269.459,96.116,269.241Z" transform="translate(-86.947 -265.231)" fill="#263238"/>
              <path id="Path_47" data-name="Path 47" d="M95.845,271.214c-.742-.126-1.5-.165-2.25-.228-.823-.07-1.644-.142-2.463-.248a.1.1,0,1,0-.022.189c1.575.1,3.142.383,4.718.438A.077.077,0,0,0,95.845,271.214Z" transform="translate(-89.141 -262.746)" fill="#263238"/>
            </g>
          </g>
          <path id="Path_48" data-name="Path 48" d="M98.669,271.154c.058.081.019.316.019.414v.348c0,.25,0,.5,0,.752s0,.5-.006.753a1.559,1.559,0,0,0,.036.657.043.043,0,0,0,.074,0,.647.647,0,0,0,.038-.312c0-.116,0-.232,0-.347l-.006-.753c0-.251,0-.5,0-.753v-.347c0-.106-.041-.328.022-.415C98.956,270.976,98.54,270.973,98.669,271.154Z" transform="translate(-73.283 -256.82)" fill="#263238"/>
        </g>
        <g id="Group_33-2" data-name="Group 33" transform="translate(45.008 49.153)">
          <path id="Path_49" data-name="Path 49" d="M103.479,308.93c-4.2-3.148-7.964-7.673-13.605-7.9-4.656-.183-7.919,3.322-9.785,7.226a40.758,40.758,0,0,0-2.283,6.431q-1.263,4.419-2.376,8.879c-1.462,5.849-2.718,11.753-3.734,17.7-.567,3.312-1.1,6.637-1.515,9.972a84.34,84.34,0,0,0-.98,10.209.531.531,0,0,0,1.042.115c.567-2.79.806-5.669,1.216-8.486.414-2.835.843-5.668,1.322-8.492q1.439-8.473,3.341-16.866c1.2-5.276,2.385-10.634,4.087-15.775,1.221-3.684,3.178-7.983,7.157-9.308,6.054-2.014,11.55,3.109,15.98,6.434C103.445,309.143,103.578,309,103.479,308.93Z" transform="translate(-69.201 -292.428)" fill="#263238"/>
          <g id="Group_32-2" data-name="Group 32" transform="translate(15.421)">
            <path id="Path_50" data-name="Path 50" d="M94.341,308.592s-3.865-11.041,1.727-13.2c8.38-3.245,30.316,21.461,26.023,59.316,0,0-16.949-9.337-29.464-19.84s-15.717-24.222-10.2-27.769S94.341,308.592,94.341,308.592Z" transform="translate(-79.826 -295.102)" fill="#ffc727"/>
            <g id="Group_31-2" data-name="Group 31" transform="translate(7.393 11.502)">
              <path id="Path_51" data-name="Path 51" d="M116.084,343.012a29.04,29.04,0,0,0-2.038-3.817c-.716-1.295-1.441-2.588-2.189-3.865-1.457-2.491-2.9-4.988-4.395-7.459-.242-.4-.493-.8-.736-1.2.033-.147.06-.3.093-.443l.248-1.1c.187-.82.329-1.65.485-2.477.3-1.621.585-3.263,1.022-4.852.032-.118-.164-.155-.19-.033-.345,1.618-.856,3.212-1.335,4.8-.235.779-.486,1.557-.692,2.345-.071.27-.142.541-.212.811-1.8-2.954-3.636-5.894-5.611-8.734a3.964,3.964,0,0,0,.2-1.213c.058-.554.126-1.107.192-1.66.148-1.245.29-2.491.473-3.732a72.716,72.716,0,0,1,1.328-7.252c.03-.12-.158-.152-.189-.033-.6,2.383-1.261,4.768-1.713,7.184-.222,1.186-.433,2.376-.591,3.57-.08.6-.144,1.2-.2,1.8-.019.177-.046.36-.07.543-.608-.858-1.215-1.717-1.852-2.553-1.936-2.547-3.942-5.033-5.967-7.511-.077-.094-.235.015-.157.112a133.465,133.465,0,0,1,9.531,13.919c.554.888,1.1,1.785,1.647,2.676-.184-.025-.367-.046-.544-.068-.708-.09-1.427-.135-2.138-.2q-2.138-.2-4.28-.37c-2.855-.228-5.717-.4-8.566-.708-.122-.013-.157.176-.033.189,2.887.331,5.759.794,8.634,1.2q2.12.3,4.245.572a16.857,16.857,0,0,0,3.268.335q1.681,2.732,3.366,5.464a6.3,6.3,0,0,0-.758-.029c-.476-.007-.952,0-1.427,0q-1.328,0-2.653,0c-1.839,0-3.678.038-5.517.035-.123,0-.1.19.019.192,1.864.023,3.721.118,5.582.215q1.324.067,2.646.16c.441.03.881.067,1.322.094a2.729,2.729,0,0,0,1.164-.045c.952,1.552,1.913,3.1,2.864,4.649q1.315,2.149,2.671,4.273a34.184,34.184,0,0,0,2.874,4.315C115.974,343.195,116.129,343.132,116.084,343.012Z" transform="translate(-83.746 -303.027)" fill="#263238"/>
              <path id="Path_52" data-name="Path 52" d="M102.207,309.52a26.754,26.754,0,0,1-.758,3.6q-.468,1.84-1.067,3.643a.12.12,0,1,0,.228.073q.564-1.787,1.006-3.611c.295-1.216.485-2.456.781-3.669C102.426,309.434,102.221,309.4,102.207,309.52Z" transform="translate(-77.944 -300.131)" fill="#263238"/>
              <path id="Path_53" data-name="Path 53" d="M96.731,315.1a1.412,1.412,0,0,0-.925-.344c-.533-.076-1.067-.145-1.6-.219-.991-.135-1.987-.244-2.98-.361-2.065-.241-4.133-.443-6.2-.7-.122-.016-.157.174-.033.189,1.948.238,3.885.533,5.832.788.954.125,1.906.26,2.861.372.459.054.919.1,1.377.154a4.845,4.845,0,0,1,1.572.27C96.731,315.287,96.8,315.164,96.731,315.1Z" transform="translate(-84.92 -298.314)" fill="#263238"/>
              <path id="Path_54" data-name="Path 54" d="M103.532,326.145c-.974-.083-1.958-.113-2.935-.144l-1.48-.045-.71-.023a4.367,4.367,0,0,1-.925-.054c-.135-.035-.149.213-.007.19a4.128,4.128,0,0,1,.866.028l.768.046,1.479.089c.975.06,1.958.116,2.935.123C103.641,326.355,103.651,326.155,103.532,326.145Z" transform="translate(-79.298 -292.715)" fill="#263238"/>
              <path id="Path_55" data-name="Path 55" d="M105.919,324.712c.112-.553.216-1.109.319-1.665l.6-3.273a.1.1,0,0,0-.19-.033l-.718,3.189c-.12.531-.239,1.062-.35,1.6l-.152.737a2.052,2.052,0,0,0-.089.782c.017.088.15.161.212.067A4.006,4.006,0,0,0,105.919,324.712Z" transform="translate(-75.71 -295.517)" fill="#263238"/>
            </g>
          </g>
        </g>
        <g id="Group_35-2" data-name="Group 35" transform="translate(30.599 111.407)">
          <g id="Group_34-2" data-name="Group 34" transform="translate(4.371 11.07)">
            <path id="Path_56" data-name="Path 56" d="M117.1,345.622l-.941,15.645-2.786,46.191H66.011l-2.785-46.191-.941-15.645Z" transform="translate(-62.284 -345.622)" fill="#e0e0e0"/>
            <path id="Path_57" data-name="Path 57" d="M117.1,345.622l-.941,15.645H63.225l-.941-15.645Z" transform="translate(-62.284 -345.622)" fill="#e0e0e0"/>
          </g>
          <rect id="Rectangle_24-2" data-name="Rectangle 24" width="63.562" height="15.656" fill="#ebebeb"/>
        </g>
      </g>
    </g>
  </g>
</svg>
