<svg xmlns="http://www.w3.org/2000/svg" width="726.766" height="570.101" xmlns:v="https://vecta.io/nano"><path d="M218.684 570.101a39.96 39.96 0 0 1-2.93-7.9 34.08 34.08 0 0 1-1.141-8.228c-.005-2.772.492-5.521 1.466-8.116a19.18 19.18 0 0 1 4.606-6.606 18.63 18.63 0 0 0-3.6 6.938 21.4 21.4 0 0 0-.354 7.644 31.44 31.44 0 0 0 2.05 7.371c.942 2.339 2.123 4.574 3.525 6.67zm196.648-216.168c-25.368 38.444-48.946 79.687-53.273 87.3a152.81 152.81 0 0 1-7.573-29.938c0 0-.149.261-.429.746a38.69 38.69 0 0 1-.522-4.365c-.205-2.2-.28-4.421-.28-6.622a130.36 130.36 0 0 1 .746-13.225c.5-4.471.638-8.975.41-13.468-.111-4.5-.968-8.95-2.537-13.169a37.29 37.29 0 0 1 .914 6.585 65.43 65.43 0 0 1 .205 6.622q-.112 6.631-.839 13.225a79.29 79.29 0 0 0-.336 13.468 45.64 45.64 0 0 0 2 11.322c-6.422 10.222-13.866 19.765-22.216 28.483-7.408 7.748-15.98 14.294-25.406 19.4l-52.341 28.633a28.37 28.37 0 0 0 .783-6.827c0-8.357 4.887-18.317 7.107-26.264v-.019l11.733 2.2c7.48.037 14.979.093 22.514-.522-7.014-2.761-14.009-5.279-20.985-7.853l-12.367-2.313c-.308-1.743-1.356-3.267-2.873-4.178-5.783-3.563-10-3.563-12.871 1.212l-4.551-.876c-3.04-15.053-9.457-20.089-13.9-21.75a10.86 10.86 0 0 0-4.7-.783 2.19 2.19 0 0 0 .149-.112c2.723-2.127 44.264-34.788 66.928-69.875 23.447-36.318 47.267-58.627 72.6-59.205 0 0 26.264-.187 39.116.933 3.71 6.19 8.97 45.1 12.794 61.235zm4.477 144.991a15.41 15.41 0 0 0 1.6.373h-34zm30.33-193.172c.933-5.465 1.13-4.739 6.047-11.621 0 0 3.839-7.517 14.881-8.636-5.744 3.432-12.963 10.67-20.928 20.257zm150.419 193.546H428.203c24.193-4.57 53.441-54.244 77.168-104.159a102.65 102.65 0 0 0 1.119 12.181c.56 4.085 1.585 8.1 2.35 12.05a118.37 118.37 0 0 1 1.474 12.032c.255 4.033.211 8.079-.131 12.105-.289 4.006-1.053 7.963-2.276 11.789l-.019.056-.019.093c-.473 3.442-.64 6.919-.5 10.39.129 3.454.541 6.891 1.231 10.277s1.757 6.685 3.19 9.83a39.67 39.67 0 0 0 5.409 8.73c-1.978-2.78-3.619-5.786-4.887-8.954a49.89 49.89 0 0 1-2.723-9.793 62.26 62.26 0 0 1-.149-20.146c-.019.037-.019.056-.037.093l.037-.149a53 53 0 0 0 2.462-12.05c.379-4.117.46-8.256.242-12.385-.26-4.114-.784-8.208-1.567-12.255-.821-4.066-1.847-7.984-2.444-11.976-.76-4.887-1.239-9.813-1.436-14.755 24.51-52.042 42.772-103.469 42.772-103.469 12.815 3.6 23.466 9.495 29.155 18.8 1.087 1.792 2.263 3.527 3.525 5.2 8.448 10.957 34.451 43.544 18.409 186.465z" fill="#fff"/><g fill="#fbd206"><path d="M414.994 354.299c-1.707-6.085-2.971-12.273-4.324-18.431l-3.757-18.516-1.982-9.209c-.674-3.055-1.365-6.117-2.225-9.063-.212-.738-.417-1.483-.678-2.167-.206-.67-.468-1.322-.783-1.949a15.17 15.17 0 0 0-2.442-3.438 14.43 14.43 0 0 0-3.225-2.635 11.7 11.7 0 0 0-1.833-.867 8.1 8.1 0 0 0-1.749-.447l.936-.184c-2.253 1.029-4.63 1.762-7.072 2.178-2.482.437-5.02.446-7.505.026a14.32 14.32 0 0 1-7.025-3.291c-1.805-1.683-3.368-3.608-4.643-5.721a93.1 93.1 0 0 1-6.35-12.484 181.45 181.45 0 0 1-5.007-12.939l1.085.717c-1.858.13-3.719-.205-5.414-.976a5.32 5.32 0 0 1-2.19-2.044 6.34 6.34 0 0 1-.8-2.787 13.9 13.9 0 0 1 .861-5.252 25.68 25.68 0 0 1 2.167-4.716 14.28 14.28 0 0 0 2.488-9.121 12.5 12.5 0 0 0-1.329-4.577c-.766-1.413-1.637-2.943-2.336-4.48a29.26 29.26 0 0 1-1.787-4.806c-.5-1.627-.909-3.279-1.228-4.951-.393-1.66-.528-3.362-.8-5.046-.123-1.7-.3-3.4-.272-5.112a49.5 49.5 0 0 1 .97-10.212 41.46 41.46 0 0 1 3.223-9.9c.221-.452.68-.739 1.183-.737s.961.29 1.18.743l.066.136c2.854 5.832 6.367 11.317 10.47 16.348 4.042 5.025 8.792 9.438 14.1 13.1a46.43 46.43 0 0 0 8.365 4.559 41.28 41.28 0 0 0 9.057 2.737 48.14 48.14 0 0 0 18.839-.452l.122-.025c.768-.155 1.559.128 2.055.735.77.95 1.441 1.978 2 3.066a27.17 27.17 0 0 1 1.425 3.077 40.96 40.96 0 0 1 1.938 6.356c.869 4.27 1.257 8.624 1.155 12.98-.073 4.294-.497 8.575-1.268 12.8-.39 2.162-.63 4.061-.941 6.075a28.49 28.49 0 0 0-.195 2.99 19.6 19.6 0 0 0-.022 2.985c.066 3.936 1.029 7.805 2.816 11.313a19.28 19.28 0 0 0 8 8.13c3.545 1.824 7.51 2.675 11.491 2.466 4.074-.256 8.086-1.125 11.9-2.578l.076-.028a.73.73 0 0 1 .965.814l-2.642 14.338c-.022.115-.134.191-.249.169-.109-.025-.182-.128-.171-.239l1.574-14.462 1.041.786a38.64 38.64 0 0 1-12.36 3.435c-4.413.441-8.864-.296-12.9-2.136-4.107-1.923-7.498-5.099-9.685-9.072-2.152-3.912-3.387-8.262-3.609-12.721a22.46 22.46 0 0 1-.079-3.284 32.06 32.06 0 0 1 .115-3.275l.785-6.362c.615-4.032.942-8.103.978-12.182a53.85 53.85 0 0 0-1.224-11.968 37.9 37.9 0 0 0-1.712-5.642c-.344-.897-.745-1.772-1.2-2.619a14.7 14.7 0 0 0-1.391-2.205l2.177.71c-6.784 1.507-13.806 1.588-20.623.238-3.402-.673-6.715-1.732-9.876-3.158-3.156-1.385-6.161-3.09-8.969-5.087-5.558-3.961-10.472-8.754-14.57-14.212-4.151-5.357-7.598-11.223-10.257-17.456l2.428.142c-2.947 5.838-4.548 12.262-4.686 18.8a42.69 42.69 0 0 0 .725 9.846 45.03 45.03 0 0 0 1.124 4.827 27.83 27.83 0 0 0 1.647 4.639c.67 1.527 1.443 2.926 2.252 4.472a14.92 14.92 0 0 1 1.423 5.042 15.63 15.63 0 0 1-2.58 9.963c-1.64 2.756-2.515 5.899-2.535 9.106.05 1.406.89 2.663 2.17 3.247a9.28 9.28 0 0 0 4.425.528c.46-.036.89.23 1.062.658l.023.059c1.686 4.218 3.549 8.406 5.541 12.491a90.12 90.12 0 0 0 6.68 11.744 23.63 23.63 0 0 0 4.1 4.845 11.39 11.39 0 0 0 5.329 2.372c4.181.529 8.427-.117 12.262-1.866l.163-.069c.244-.103.51-.142.774-.115a11 11 0 0 1 2.82.7 15.4 15.4 0 0 1 2.417 1.178 18.09 18.09 0 0 1 4.029 3.362c1.184 1.276 2.174 2.719 2.938 4.283.376.789.685 1.608.925 2.448.277.8.47 1.577.673 2.359 1.611 6.239 2.619 12.448 3.631 18.688l2.87 18.691 2.878 18.666c.01.056-.002.113-.034.159s-.081.078-.137.089c-.108.018-.212-.047-.243-.152z"/><path d="M351.994 256.423l-1.232 10.1c-.353 3.36-.661 6.716-.769 10.07a53.77 53.77 0 0 0 .423 9.985 19.8 19.8 0 0 0 1.3 4.763 9.4 9.4 0 0 0 2.945 3.965 8.87 8.87 0 0 1-3.7-3.581 17.5 17.5 0 0 1-1.865-4.885 40.16 40.16 0 0 1-.825-10.307 72.99 72.99 0 0 1 3.721-20.112zm-1.025-71.613c-.883-1.546-1.097-3.385-.593-5.092l.345-1.27.544-1.178c.188-.391.365-.794.576-1.172l.726-1.063a28.62 28.62 0 0 1 3.263-3.963c1.218-1.183 2.515-2.273 3.786-3.406a103.99 103.99 0 0 1 17.159-10.532c3.017-1.432 6.067-2.8 9.116-4.164l9.3-3.689c3.117-1.141 6.282-2.126 9.429-3.171 1.592-.479 3.127-1.023 4.829-1.493 1.65-.443 3.322-.799 5.009-1.066a49.81 49.81 0 0 1 20.147.82 42.04 42.04 0 0 1 17.685 9.37 55.46 55.46 0 0 1 12.125 16.063 86.2 86.2 0 0 1 6.936 18.948l.031.178c1.627 9.013 4.513 17.753 8.575 25.962a87.83 87.83 0 0 0 6.931 11.77c1.249 1.906 2.69 3.658 4.1 5.443 1.429 1.762 3.03 3.375 4.575 5.034l5.059 4.686 2.652 2.47c.9.8 1.642 1.778 2.469 2.658a47.51 47.51 0 0 1 7.956 12.076 41.86 41.86 0 0 1 2.967 27.99c-.029.108-.137.176-.247.154s-.184-.126-.168-.237v-.024a40.86 40.86 0 0 0-.547-13.765c-.87-4.481-2.447-8.796-4.672-12.782a25.94 25.94 0 0 0-1.741-2.914c-.64-.935-1.217-1.907-1.9-2.807a52.21 52.21 0 0 0-4.438-5.126c-.808-.793-1.516-1.678-2.4-2.394l-2.577-2.218-5.405-4.68a77.92 77.92 0 0 1-16.62-23.409c-2.014-4.341-3.719-8.818-5.1-13.4a87.51 87.51 0 0 1-3.131-14.037l.031.177a99.27 99.27 0 0 0-5.654-18.652c-2.501-6.024-6.172-11.492-10.8-16.088a38.97 38.97 0 0 0-7.889-5.7c-2.879-1.528-5.956-2.647-9.143-3.326-6.382-1.272-12.967-1.115-19.281.459a45.8 45.8 0 0 0-4.625 1.33c-1.46.514-3.009 1.182-4.552 1.769l-9.292 3.477-9.185 3.6-9.044 3.888c-5.957 2.672-11.7 5.797-17.179 9.348-1.279.975-2.6 1.919-3.845 2.945-1.217 1.041-2.348 2.178-3.383 3.4l-.774.917c-.225.323-.41.668-.625 1l-.626 1.011-.435 1.087a6.07 6.07 0 0 0-.106 4.543l.02.044a.21.21 0 0 1-.368.2zm5.263 41.105a40.91 40.91 0 0 1 9.549-5.1 36.1 36.1 0 0 1 5.215-1.566c1.786-.458 3.647-.543 5.467-.252-1.738.38-3.443.897-5.1 1.544l-4.969 1.881c-3.326 1.248-6.643 2.538-10.161 3.494zm9.309 11.892c1.053.038 2.024-.567 2.454-1.53s.231-2.09-.501-2.848-1.852-.996-2.829-.6-1.616 1.345-1.614 2.399c0 1.393 1.103 2.535 2.495 2.583zm-4.165 31.289a36.4 36.4 0 0 0 7.613-.609 50.15 50.15 0 0 0 3.688-.852c1.239-.32 2.461-.72 3.787-1.028a14.3 14.3 0 0 1-7.162 3.572c-1.344.24-2.715.29-4.072.147a9.08 9.08 0 0 1-3.854-1.23zm148.061 186.627v.056c-.019.037-.019.056-.037.093zm-98.529-95.031c2.446-5.674 5.296-11.167 8.527-16.434 3.133-5.293 6.544-10.4 10.118-15.386s7.349-9.836 11.39-14.481a110.9 110.9 0 0 1 13.051-13.157c-3 5.457-6.216 10.655-9.559 15.78-3.309 5.146-6.776 10.169-10.341 15.126s-7.237 9.837-11.086 14.6c-3.82 4.785-7.761 9.484-12.1 13.952z"/><path d="M549.466 288.833c-24.977-7.051-58.123-5.391-78.4-3.339 1.216-.747 2.519-1.342 3.88-1.772 0 0 57.9-10.222 74.52 5.111z"/><path d="M549.71 288.97a20.52 20.52 0 0 0-2.367-.148c-.962-.034-1.921-.122-2.873-.263l-4.881-.5-4.868-.427-4.863-.361-9.725-.574-9.74-.548c-6.5-.461-13.056-1.259-19.619-1.174a118.98 118.98 0 0 0-19.56 1.979l-6.567 1.171 5.67-3.89c1.276-.908 2.66-1.656 4.12-2.225l.2-.047a148.89 148.89 0 0 1 19.009-3.355c3.194-.393 6.4-.684 9.62-.931 3.221-.153 6.453-.33 9.692-.231 6.524.043 13.024.78 19.392 2.2 3.222.723 6.358 1.785 9.357 3.166a29.57 29.57 0 0 1 4.295 2.5c.683.463 1.306 1.03 1.948 1.533a6.11 6.11 0 0 1 1.017 1.092c.302.422.506.771.743 1.033zm-.488-.273a4.17 4.17 0 0 0-1.108-.48c-.302-.089-.592-.215-.864-.374-.712-.331-1.379-.71-2.1-.989-1.438-.558-2.907-1.034-4.4-1.425-2.998-.746-6.049-1.26-9.126-1.536a157.1 157.1 0 0 0-18.659-.558l-18.828.7c-6.284.384-12.6.959-18.878 1.448l.2-.047c-1.263.285-2.486.728-3.639 1.318l-.9-2.719c6.619-.155 13.2-.383 19.771-.906 6.57-.507 13.164-1.514 19.811-1.677 1.66-.026 3.322-.088 4.982.017 1.661.065 3.322.1 4.977.295l4.968.488 4.944.73a98.29 98.29 0 0 1 9.765 2.167c1.605.467 3.19 1 4.772 1.513.649.287 1.283.608 1.9.96.771.428 1.579.788 2.413 1.075zm-186.458 159.91l9.433 2.167c3.1.6 6.164 1.088 9.24 1.4 1.536.209 3.076.238 4.621.367 1.539-.006 3.1.123 4.655.048 3.146.025 6.248-.41 9.623-.6a24.84 24.84 0 0 1-9.231 3.9c-3.317.736-6.734.911-10.109.518a34.5 34.5 0 0 1-9.771-2.47c-3.13-1.23-6-3.038-8.461-5.33zm78.929 5.957l9.433 2.167c3.1.6 6.164 1.088 9.24 1.4 1.536.209 3.076.238 4.621.367 1.539-.006 3.1.123 4.655.048 3.146.025 6.248-.41 9.623-.6a24.84 24.84 0 0 1-9.231 3.9c-3.317.736-6.734.911-10.109.518a34.5 34.5 0 0 1-9.771-2.47 26.8 26.8 0 0 1-8.461-5.331zM178.4 495.604a29.2 29.2 0 0 1 4.384 7.965h-.914q-45.383-.028-90.748-.877L.356 500.043c-.1-.002-.195-.045-.262-.12s-.1-.173-.092-.272a.38.38 0 0 1 .354-.354l90.748-2.723q43.647-.868 87.295-.97zm95.821.466a36.97 36.97 0 0 0-3.395 6.827q-14.633.168-29.248.3c3.777-1.384 7.009-3.948 9.215-7.312q11.723.082 23.428.185zm452.544 2.873c.003.095-.033.187-.1.254s-.159.103-.254.1c-30.237 1.343-60.492 2.145-90.748 2.611l-22.682.3-12.143.093-10.558.075-22.682.075q-11.36.028-22.7-.131l-44.152-.877-46.6-.9c-30.255-.317-60.511-.037-90.766.672q-20.341.531-40.683.9l-12.945-5.615q26.8.363 53.628 1.007 45.383.979 90.766.466l90.748-2q11.332-.168 22.682-.187l22.7.019 22.682.112 22.7.261 90.748 2.369c.206.011.364.186.354.392z"/><path d="M517.224 499.881c-12.282 1.746-24.62 3.149-36.954 4.415q-18.515 1.809-37.044 3.43l-37.079 2.967-37.1 2.706h-.016c-.107.006-.215.003-.322-.009l-33.241-3.9h-.027c-.164-.02-.323-.064-.474-.131l-39.467-17.7-9.9-4.2c-1.031-.665-2.621.439-3.97 1.4-1.374 1.072-2.634 2.284-3.759 3.615a35.94 35.94 0 0 0-8.352 19.11.76.76 0 0 1-.114.326c-1.531 2.334-3.031 4.688-4.434 7.091a50.65 50.65 0 0 0-3.7 7.412c-1.155 2.403-1.243 5.181-.243 7.652 1.481 2.388 2.836 4.853 4.057 7.384a.75.75 0 0 1 .026.45v.009a18.48 18.48 0 0 0-.517 5.14 11.87 11.87 0 0 0 1.191 4.9 7.64 7.64 0 0 0 3.439 3.443c.739.399 1.524.708 2.337.919.818.218 1.688.292 2.529.439h-.159c2.361-.344 4.691-.872 6.97-1.579 2.276-.69 4.485-1.584 6.6-2.673 1.049-.534 2.059-1.14 3.025-1.812.973-.653 1.8-1.471 2.714-2.191a15.3 15.3 0 0 0 3.884-5.553c.176-.44.608-.722 1.081-.707s.886.326 1.032.777l.027.086a24.38 24.38 0 0 0 11.967 14.188c5.877 2.628 12.434 3.333 18.735 2.012 6.306-1.308 12.881-3.268 19.279-5.049 6.379-1.865 12.948-3.706 18.914-6.044l.041-.016c.3-.116.622-.159.942-.126l69.405 6.457c23.149 1.975 46.328 3.625 69.516 4.647 11.591.558 23.19.949 34.773.934 5.791-.012 11.578-.129 17.343-.444a130.39 130.39 0 0 0 17.1-1.886c2.726-.451 5.368-1.314 7.834-2.559.538-.302 1.041-.662 1.5-1.074l1.4-1.566c.951-1.034 1.817-2.144 2.589-3.318a50.73 50.73 0 0 0 6.889-15.538 104.38 104.38 0 0 0 2.854-34.4c-.013-.116.071-.221.187-.235a.22.22 0 0 1 .235.185c.7 5.798.937 11.642.709 17.477a93.3 93.3 0 0 1-2.185 17.43 52 52 0 0 1-6.715 16.4c-.791 1.278-1.683 2.49-2.668 3.626l-1.461 1.729a10.91 10.91 0 0 1-1.981 1.53 29.59 29.59 0 0 1-8.579 3.117 119.93 119.93 0 0 1-17.494 2.371c-5.841.42-11.682.639-17.518.753-11.673.218-23.332.026-34.979-.332-23.289-.857-46.521-2.484-69.724-4.358q-34.795-3.005-69.474-7.083l.982-.142c-3.3 1.313-6.5 2.26-9.748 3.219s-6.483 1.836-9.73 2.707l-9.755 2.542c-3.219.852-6.568 1.588-9.964 2.255-6.961 1.298-14.156.331-20.527-2.76a26.89 26.89 0 0 1-12.885-16.1l2.14.156c-1.032 2.388-2.585 4.516-4.545 6.227-1.008.774-1.953 1.647-3.017 2.328-1.049.695-2.144 1.318-3.277 1.865-2.239 1.09-4.573 1.975-6.972 2.643-2.391.684-4.832 1.179-7.3 1.479l-.048.005a.36.36 0 0 1-.111 0c-.93-.181-1.874-.262-2.791-.517a12.01 12.01 0 0 1-2.672-1.077 9.18 9.18 0 0 1-4.037-4.118c-.83-1.728-1.277-3.615-1.311-5.532a19.8 19.8 0 0 1 .615-5.585l.023.457c-.511-1.263-1.125-2.483-1.837-3.645a38.89 38.89 0 0 1-2.132-3.708c-.637-1.38-.905-2.901-.778-4.416a15.78 15.78 0 0 1 1.049-4.242 53.48 53.48 0 0 1 3.716-7.646c1.394-2.451 2.88-4.838 4.394-7.2l-.114.325c.786-7.38 3.745-14.36 8.5-20.058 1.17-1.454 2.484-2.785 3.922-3.974a13.31 13.31 0 0 1 2.438-1.6c.496-.249 1.029-.418 1.578-.5a2.97 2.97 0 0 1 1.026.036c.262.075.522.155.729.23 3.464 1.249 6.768 2.616 10.128 3.965l39.966 16.634-.5-.134 33.276 3.595-.337-.008 74.2-4.9q18.555-1.163 37.1-2.467l18.546-1.277 18.524-1.526c.056-.007.113.009.157.044s.073.086.08.142a.22.22 0 0 1-.175.234z"/><path d="M283.591 538.798c1.202-1.253 2.59-2.314 4.116-3.143a7.41 7.41 0 0 1 5.2-.912c1.792.561 3.291 1.804 4.175 3.461.421.794.8 1.618 1.145 2.447l.8 2.551a.87.87 0 0 1-1.021 1.107.87.87 0 0 1-.639-.589l-.018-.069-.02-.091-.54-2.434-.848-2.3c-.624-1.468-1.798-2.633-3.271-3.245-1.594-.431-3.291-.264-4.771.47-1.569.688-3.022 1.615-4.308 2.747zm-19.859 2.4c2.712-3.433 5.235-7.011 7.558-10.719a60.1 60.1 0 0 0 3.185-5.738 19.61 19.61 0 0 0 2.033-6.218 19.81 19.81 0 0 1-1.635 6.392 60.75 60.75 0 0 1-2.831 6 121.67 121.67 0 0 1-6.921 11.328.87.87 0 0 1-1.193.204.87.87 0 0 1-.24-1.186l.032-.044zm-3.781-6.695l16.557-27.8-15.043 28.643a.87.87 0 0 1-1.17.361.87.87 0 0 1-.367-1.168zm8.108-23.465l10.949-15.148-9.5 16.1a.87.87 0 1 1-1.5-.883c.02-.029.039-.052.051-.074zm-39.7-89.1c-1.039-.47-2.177-.681-3.316-.615a23.19 23.19 0 0 0-3.409.262c-2.189.418-4.229 1.402-5.919 2.855-1.625 1.485-2.91 3.304-3.767 5.331a20.61 20.61 0 0 0-1.624 6.37c-.056.641-.568 1.148-1.21 1.198s-1.226-.373-1.379-.998l-.01-.042c-.923-3.941-2.334-7.752-4.2-11.345a21.72 21.72 0 0 0-7.637-8.542 12.06 12.06 0 0 0-2.466-1.156c-.389-.14-.791-.241-1.2-.3l-1.475-.187a15.48 15.48 0 0 0-5.6.271c-3.524.777-6.462 3.196-7.9 6.506l-.074.17c-.403.928-1.483 1.354-2.411.951a1.91 1.91 0 0 1-.362-.209 5.83 5.83 0 0 0-3.335-1.174 10.08 10.08 0 0 0-3.875.77c-2.639.925-4.833 2.809-6.146 5.277l-.077.147-.138.311-.2.48a9.34 9.34 0 0 0-.3.955c-.162.623-.232 1.266-.209 1.909a5.73 5.73 0 0 0 1.433 3.484 15.24 15.24 0 0 0 7.392 4.189l.074.02a.8.8 0 0 1 .449.318 38.84 38.84 0 0 1 3.093 5.577c.453.94.885 1.87 1.4 2.737.527.917 1.054 1.833 1.511 2.8.507.987.878 2.038 1.1 3.125.247.71.068 1.498-.461 2.031s-1.316.719-2.028.478c-2.112-.512-4.127-1.366-5.963-2.529-1.835-1.057-3.586-2.181-5.341-3.384a30.94 30.94 0 0 1-4.745-4.318c-.72-.769-1.417-1.638-2.066-2.259-.682-.639-1.472-1.151-2.334-1.511-1.761-.693-3.688-.846-5.536-.44a9.89 9.89 0 0 0-4.864 2.485c-1.192 1.215-1.711 2.939-1.387 4.61a14.7 14.7 0 0 0 2.062 5.2 31.71 31.71 0 0 0 3.529 4.765 33.01 33.01 0 0 0 2.056 2.133l2.316 2.022q2.384 2.113 4.63 4.317a336.71 336.71 0 0 1 8.831 8.975c.268.281.446.637.51 1.02l.026.155c.25 1.238.661 2.438 1.222 3.569a18.18 18.18 0 0 0 2.139 3.372 19.22 19.22 0 0 0 2.815 2.879c1.042.921 2.094 1.511 3.51 2.568 2.57 2.002 4.761 4.447 6.469 7.221 1.724 2.75 3.015 5.749 3.829 8.891l-.124-.388a12.5 12.5 0 0 0 5.071 6.127 16.39 16.39 0 0 0 8.065 1.961c3.006-.014 5.998-.419 8.9-1.205a51.15 51.15 0 0 0 8.623-3.078l.108-.05c.045-.02.09-.038.137-.053l10.851-3.235c3.642-1.004 7.269-2.022 11.011-2.849 3.583-.538 6.914-2.161 9.546-4.651a21.25 21.25 0 0 0 5.661-9.335c.034-.112.153-.176.265-.142.104.033.167.137.148.244a21.11 21.11 0 0 1-5.044 10.242 19.53 19.53 0 0 1-4.546 3.727 16.25 16.25 0 0 1-2.7 1.275c-.974.318-1.963.628-2.8.829-3.557 1.014-7.122 2.24-10.666 3.459l-10.634 3.708.244-.1a54.44 54.44 0 0 1-9.184 3.675 38.59 38.59 0 0 1-9.892 1.7c-3.576.167-7.13-.64-10.284-2.334-1.602-.929-3.034-2.123-4.235-3.531a19.76 19.76 0 0 1-2.821-4.617l-.043-.112-.082-.278c-.732-2.627-1.828-5.139-3.254-7.463a23.3 23.3 0 0 0-5.368-6.062c-.948-.757-2.469-1.709-3.641-2.793-1.237-1.072-2.36-2.27-3.349-3.575-1.003-1.308-1.858-2.723-2.551-4.219a17.81 17.81 0 0 1-1.508-4.913l.536 1.174c-2.782-3.052-5.633-6.086-8.529-9.033l-4.387-4.348c-.747-.732-1.459-1.326-2.317-2.178-.783-.794-1.5-1.608-2.2-2.449a35 35 0 0 1-3.699-5.417c-1.155-1.99-1.888-4.197-2.154-6.483a8.74 8.74 0 0 1 .423-3.676 7.64 7.64 0 0 1 2.082-3.107 12.38 12.38 0 0 1 6.269-2.838 11.62 11.62 0 0 1 6.714.879 9.7 9.7 0 0 1 2.8 2c.813.869 1.372 1.668 2.043 2.452 1.292 1.565 2.765 2.972 4.387 4.191a78.31 78.31 0 0 0 5.163 3.4 19.13 19.13 0 0 0 5.438 2.46c1.929.588.8-2.107 0-3.773-.442-.91-.967-1.8-1.489-2.681-.556-.923-1.055-1.86-1.535-2.784a36.3 36.3 0 0 0-3.157-5.239l.522.338c-1.592-.321-3.14-.83-4.612-1.515-1.532-.684-2.926-1.645-4.111-2.833a8.16 8.16 0 0 1-2.285-4.794c-.09-.896-.048-1.8.126-2.683a12.1 12.1 0 0 1 .318-1.272l.208-.6.112-.309.2-.441-.076.147a12.81 12.81 0 0 1 3.04-4.322c1.282-1.186 2.747-2.156 4.339-2.875a12.47 12.47 0 0 1 5.249-1.263 9.5 9.5 0 0 1 5.465 1.732l-2.846.911a12.74 12.74 0 0 1 1.752-3.253 14.63 14.63 0 0 1 2.428-2.626 15 15 0 0 1 6.355-3.156 19.2 19.2 0 0 1 6.856-.261l1.632.23c.626.098 1.242.256 1.837.473 1.114.392 2.181.909 3.179 1.54 3.753 2.521 6.742 6.026 8.638 10.131 1.85 3.909 3.158 8.052 3.887 12.315l-2.6.16c.346-2.475 1.095-4.876 2.217-7.108a15.69 15.69 0 0 1 4.7-5.749c2.017-1.459 4.381-2.363 6.856-2.622a20.19 20.19 0 0 1 3.615.053 7.76 7.76 0 0 1 3.454 1.054c.103.052.146.177.096.281s-.173.15-.278.104z"/><path d="M233.88 441.75c.838 1.919 1.31 3.977 1.392 6.069a26.32 26.32 0 0 1-.007 3.086l-.378 3.081-.017.1a1.14 1.14 0 0 1-.135.37c-.466.829-1.001 1.618-1.6 2.357a15.69 15.69 0 0 1-2.094 2.014 14.09 14.09 0 0 1-5 2.828c-1.965.494-4.039.318-5.893-.5a8.57 8.57 0 0 1-2.63-1.756c-.208-.216-.403-.444-.584-.683a5.7 5.7 0 0 1-.513-.976l-.45-1.3-.836-2.492c-.252-.681-.568-1.338-.942-1.961a18.17 18.17 0 0 0-1.215-1.813c-.187-.227-.521-.69-.794-1.1l-.829-1.256a17.56 17.56 0 0 1-2.025-5.347 18.54 18.54 0 0 1-.386-5.536c.013-.122.12-.21.242-.2.072.007.136.048.173.11a62.12 62.12 0 0 0 5.474 8.615l.767.853s.442.542.848.97c.689.775 1.275 1.635 1.744 2.56.463.932.815 1.915 1.05 2.929l.266 1.373.227 1.254.211 1.264c.045.141 0 .087.044.219.069.123.1.256.178.4a7.72 7.72 0 0 0 1.334 1.71 4.77 4.77 0 0 0 4.229 1.386c1.601-.398 2.931-1.509 3.609-3.013.384-.73.726-1.48 1.025-2.248.261-.782.57-1.547.927-2.29l-.152.465c.221-1.886.7-3.737 1.017-5.658l1.295-5.832c.014-.058.051-.108.102-.139s.113-.04.171-.026c.065.017.12.062.15.123zm-70.127 35.614c-.343-1.161-.495-2.371-.448-3.581a13.24 13.24 0 0 1 .578-3.6c.352-1.216.977-2.336 1.827-3.274a4.48 4.48 0 0 1 3.349-1.558c-.942.596-1.726 1.411-2.283 2.376a13.13 13.13 0 0 0-1.253 2.977c-.682 2.108-1.094 4.337-1.77 6.66zm5.027-37.715l3.925-.858 1.92-.339a12.28 12.28 0 0 1 2.114-.185 6.06 6.06 0 0 1-3.707 2.213c-.726.135-1.47.148-2.2.04a4.03 4.03 0 0 1-2.053-.87zm7.766-18.706a19.11 19.11 0 0 0 .722 5.468c.445 1.775 1.392 3.384 2.727 4.636a6.78 6.78 0 0 0 5.141 1.553 17.38 17.38 0 0 0 2.83-.467l2.737-.989-2.653 1.241a17.82 17.82 0 0 1-2.861.744c-2.037.404-4.15-.045-5.847-1.242-1.646-1.273-2.891-2.994-3.584-4.957-.738-1.913-1.19-3.925-1.34-5.97-.039-.385.133-.761.451-.982s.73-.253 1.077-.084.576.514.597.901v.1z"/><path d="M185.118 432.961a53.07 53.07 0 0 1 3.911 7.047c1.244 2.467 2.099 5.112 2.534 7.84.246 1.031.98 1.876 1.967 2.262a11.56 11.56 0 0 0 3.538 1.123c1.259.215 2.544.229 3.807.042a5.07 5.07 0 0 0 3.373-1.7c-.657 1.248-1.809 2.162-3.173 2.519-1.34.419-2.748.58-4.149.474a11.46 11.46 0 0 1-4.133-1c-1.542-.605-2.659-1.969-2.947-3.6a17.63 17.63 0 0 0-.819-3.7l-1.238-3.754z"/><path d="M212.852 446.303l-4.4-.877-43.238-8.842-4.16-.858-17.459-3.6c-6.939-2.761-13.878-5.5-20.705-8.749 7.573-.224 15.016.056 22.477.336l14.4 3.04 7.163 1.492 42.231 8.637a30.73 30.73 0 0 0 3.693 9.42z"/><path d="M208.991 436.026a38.37 38.37 0 0 0 4.752 9.435l1.625 1.885a16.02 16.02 0 0 1 1.887 2.3 12.84 12.84 0 0 1 1.362 2.717l.821 2.674c.268.8.467 1.862.678 1.965a5.86 5.86 0 0 0 1.477 1.363 5.29 5.29 0 0 0 3.721.892 6.61 6.61 0 0 0 3.514-2.229 14.81 14.81 0 0 0 1.512-1.885l1.319-2.158-.12.368 1.306-7.443.31-3.8a21.17 21.17 0 0 0-.138-3.85c1.054 2.436 1.642 5.048 1.734 7.7a53.01 53.01 0 0 1 .064 3.967l-.319 3.985c-.006.075-.024.149-.054.219l-.066.149a20.46 20.46 0 0 1-2.957 5.03 9.4 9.4 0 0 1-5.374 3.534c-2.279.446-4.642-.077-6.52-1.443a9.37 9.37 0 0 1-2.388-2.361 4.23 4.23 0 0 1-.509-.923c-.114-.26-.2-.532-.254-.811l-.31-1.363-.579-2.54a12.31 12.31 0 0 0-.879-2.184 12.98 12.98 0 0 0-1.3-2.042l-1.594-2.447a25.31 25.31 0 0 1-2.721-10.704zm288.913-211.617a5.6 5.6 0 0 0 2.615 4.662 15.65 15.65 0 0 0 5.147 2.084l5.5 1.284 2.763.711 1.382.393 1.3.332a17.66 17.66 0 0 0 5.282.692 9.87 9.87 0 0 0 5.11-1.588 9.54 9.54 0 0 0 3.432-4.176 9.23 9.23 0 0 0 .66-2.617c.11-.833.058-1.679-.155-2.491a3.21 3.21 0 0 0-1.269-1.572c-.703-.423-1.45-.767-2.228-1.028l-5.434-1.735a35.47 35.47 0 0 1-5.692-2.355c-.944-.498-1.849-1.066-2.707-1.7-.733-.435-1.4-.971-2.119-1.3a7.2 7.2 0 0 0-8.464.8 13.4 13.4 0 0 0-5.123 9.604zm-.433 0a24.2 24.2 0 0 1 .924-5.872 17.86 17.86 0 0 1 2.537-5.673 9.42 9.42 0 0 1 5.6-3.966 10.43 10.43 0 0 1 7.025.966 23.57 23.57 0 0 1 2.824 1.749l2.176 1.462a37.89 37.89 0 0 0 4.893 2.455l5.441 2.407a11.13 11.13 0 0 1 2.734 1.97 5.89 5.89 0 0 1 1.636 3.335c-.005 9.073-8.741 15.209-17.27 14.186a30.63 30.63 0 0 1-5.869-1.294 28.27 28.27 0 0 1-5.523-2.433 20.66 20.66 0 0 1-4.828-3.8 8.26 8.26 0 0 1-2.3-5.492zm27.676-61.254c.031 1.613.439 3.196 1.19 4.623a11.31 11.31 0 0 0 3.138 3.571 27.81 27.81 0 0 0 8.619 4.133c3.059 1 6.2 1.741 9.333 2.592l4.722 1.226 2.369.623 2.292.523a28.55 28.55 0 0 0 9.31.744 18.46 18.46 0 0 0 8.818-3.112 17.7 17.7 0 0 0 5.991-7.262c.278-.742.581-1.475.807-2.23a17.42 17.42 0 0 0 .461-2.311 12.92 12.92 0 0 0-.071-4.5 6.37 6.37 0 0 0-2.289-3.277 17.94 17.94 0 0 0-3.96-2.067c-2.905-1.145-6.07-2.066-9.218-3.185a64.2 64.2 0 0 1-9.377-4.028 37.52 37.52 0 0 1-4.408-2.8 28.49 28.49 0 0 0-3.827-2.4 13.5 13.5 0 0 0-8.135-1.706c-2.881.501-5.551 1.841-7.673 3.854a25.19 25.19 0 0 0-5.642 7.622c-1.472 2.913-2.308 6.106-2.45 9.367zm-.433 0a33.3 33.3 0 0 1 1.789-9.807 29.73 29.73 0 0 1 4.641-9.109 15.7 15.7 0 0 1 9.018-6.025 16.93 16.93 0 0 1 10.956 1.679c1.593.804 3.109 1.753 4.529 2.834 1.263.887 2.525 1.774 3.872 2.568 2.744 1.604 5.611 2.987 8.574 4.136 3 1.22 6.13 2.281 9.23 3.838a18.23 18.23 0 0 1 4.464 3.007 9.06 9.06 0 0 1 2.666 5.039 19.14 19.14 0 0 1-2.192 10.127 22.9 22.9 0 0 1-6.49 7.765 26.04 26.04 0 0 1-19.57 4.787l-2.555-.407c-.814-.161-1.62-.357-2.426-.549-1.613-.4-3.23-.786-4.821-1.3a55.1 55.1 0 0 1-9.364-3.712 32.85 32.85 0 0 1-8.3-5.854c-2.492-2.347-3.939-5.595-4.017-9.018zm13.762-82.456a18.33 18.33 0 0 0-1.3 7.216 13.26 13.26 0 0 0 2.3 6.89 30.86 30.86 0 0 0 11.24 9.4 163.97 163.97 0 0 0 27.731 10.837l28.558 9.163q7.116 2.435 14.106 5.292c4.628 1.828 9.179 3.7 13.9 5.175a95.02 95.02 0 0 0 28.883 5.406 48.96 48.96 0 0 0 14.487-1.94 32.93 32.93 0 0 0 12.691-7.075 35.54 35.54 0 0 0 8.486-11.88c1.956-4.534 3.272-9.318 3.908-14.215a81.26 81.26 0 0 0 .658-14.806c-.131-2.475-.275-4.945-.563-7.409a51.82 51.82 0 0 0-1.154-7.251 92.27 92.27 0 0 0-12.072-26.76 116.94 116.94 0 0 0-18.848-22.55c-7.131-6.679-15.336-12.108-24.272-16.059a71.43 71.43 0 0 0-13.788-4.373 58.69 58.69 0 0 0-14.373-1.085 64.77 64.77 0 0 0-27.944 6.713 78.44 78.44 0 0 0-22.919 17.9c-6.552 7.456-12.253 15.617-17 24.334a241.75 241.75 0 0 0-12.717 27.077zm-.4-.161c3.693-9.286 7.624-18.485 12.054-27.476a140.52 140.52 0 0 1 15.89-25.62A74.44 74.44 0 0 1 589.205 7.68a67.23 67.23 0 0 1 29.7-7.62c10.37-.441 20.695 1.596 30.12 5.942a91.21 91.21 0 0 1 25.237 17.214 113.58 113.58 0 0 1 18.987 23.715 90.74 90.74 0 0 1 11.463 28.068c1.609 9.996 1.693 20.179.249 30.2-1.479 9.913-5.4 19.907-12.952 26.905-3.755 3.488-8.217 6.124-13.084 7.73a51.03 51.03 0 0 1-15 2.66 95.98 95.98 0 0 1-29.993-4.375c-4.853-1.414-9.615-3.183-14.269-5.042-4.6-1.851-9.265-3.561-13.936-5.279l-28.173-10.184c-4.685-1.77-9.356-3.6-13.964-5.6a105.56 105.56 0 0 1-13.448-6.826 54.78 54.78 0 0 1-6.16-4.387 25.19 25.19 0 0 1-5.011-5.673 14.27 14.27 0 0 1-2.3-7.182 18.8 18.8 0 0 1 1.4-7.4zm139.916 260.97c2.902 4.764 6.37 9.159 10.328 13.089a24.15 24.15 0 0 1-11.583-2.511 16.4 16.4 0 0 1-6.347-5.809 16.76 16.76 0 0 1-2.438-8.284 23.84 23.84 0 0 1 2.724-11.511 67.81 67.81 0 0 0 7.315 15.025z"/><path d="M691.081 343.09c.071 4.009-.879 7.97-2.761 11.511-1.81-5.291-4.267-10.338-7.316-15.025a70.26 70.26 0 0 0-10.328-13.089 23.65 23.65 0 0 1 11.552 2.542 16.7 16.7 0 0 1 6.382 5.774c1.555 2.489 2.41 5.35 2.475 8.284zm-22.663 32.628a67.93 67.93 0 0 0 10.364 13.089c-4.01.143-7.992-.721-11.583-2.511a16.53 16.53 0 0 1-6.383-5.809c-1.522-2.501-2.362-5.357-2.438-8.284a23.84 23.84 0 0 1 2.725-11.511c1.824 5.285 4.281 10.329 7.315 15.025z"/><path d="M681.507 377.295c.07 4.005-.867 7.963-2.724 11.512-1.84-5.278-4.296-10.322-7.316-15.026a70.48 70.48 0 0 0-10.364-13.089c4.003-.147 7.977.729 11.547 2.546a16.02 16.02 0 0 1 8.857 14.057zm-23.886 36.075c2.913 4.766 6.394 9.161 10.366 13.089a23.6 23.6 0 0 1-11.583-2.547 16.17 16.17 0 0 1-6.382-5.773c-1.522-2.501-2.363-5.357-2.439-8.284-.077-4.005.86-7.965 2.725-11.511a69.42 69.42 0 0 0 7.313 15.026z"/><path d="M670.713 414.913a23.97 23.97 0 0 1-2.726 11.548 69.5 69.5 0 0 0-7.35-15.026c-2.911-4.757-6.378-9.151-10.328-13.089 4.003-.147 7.977.729 11.547 2.546a16.7 16.7 0 0 1 6.383 5.774 16.29 16.29 0 0 1 2.474 8.247zm-18.361 38.549c2.914 4.776 6.394 9.183 10.364 13.125a23.6 23.6 0 0 1-11.583-2.546 16.19 16.19 0 0 1-8.821-14.058c-.059-4.004.877-7.959 2.725-11.511a70.83 70.83 0 0 0 7.316 14.989z"/><path d="M665.442 455.039a23.55 23.55 0 0 1-2.725 11.548c-3.784-10.541-9.815-20.133-17.675-28.112 4.003-.147 7.977.729 11.547 2.546 2.61 1.313 4.816 3.308 6.383 5.774s2.426 5.322 2.474 8.247zm-14.663 22.926c4.004-.136 7.978.739 11.555 2.542a16.52 16.52 0 0 1 6.386 5.79c1.551 2.478 2.405 5.328 2.472 8.25a23.7 23.7 0 0 1-2.75 11.528 23.7 23.7 0 0 1-11.579-2.526c-2.604-1.328-4.801-3.333-6.361-5.805a16.51 16.51 0 0 1-2.446-8.265c-.074-4.005.861-7.964 2.72-11.513zm51.2-125.914a108.77 108.77 0 0 0-13.841 7.817c.615-3.811 2.019-7.45 4.124-10.686a15.29 15.29 0 0 1 5.78-5.164 13.89 13.89 0 0 1 7.316-1.362 43.49 43.49 0 0 1 10.83 2.51zm12.193 5.02c-3.082 5.439-9.148 8.472-15.348 7.674a20.58 20.58 0 0 1-10.686-4.876 36.91 36.91 0 0 0 7.961-1.613 58.45 58.45 0 0 0 7.495-2.977 44.74 44.74 0 0 0 6.921-4.232 22.7 22.7 0 0 0 5.666-5.881 16.51 16.51 0 0 1-2.008 11.906zm-17.783 27.254c-5.917 2.151-11.942 4.052-18 6.6 1.738-3.849 4.197-7.33 7.244-10.255a22.5 22.5 0 0 1 7.745-4.77 20.31 20.31 0 0 1 8.534-1.148 78.25 78.25 0 0 1 11.835 2.116 105.13 105.13 0 0 1-17.356 7.459z"/><path d="M709.692 389.775c-4.78 5.825-12.351 8.587-19.759 7.207-4.368-.821-8.39-2.932-11.548-6.06a42.18 42.18 0 0 0 9.754-.753c3.208-.558 6.362-1.386 9.431-2.474 3.11-1.068 6.092-2.477 8.893-4.2a23.88 23.88 0 0 0 7.281-6.634c.508 4.68-.961 9.36-4.052 12.91zm-20.046 22.447c-5.917 2.152-11.942 4.053-18 6.6a32.57 32.57 0 0 1 7.279-10.253 22.05 22.05 0 0 1 7.71-4.769c2.73-.988 5.64-1.38 8.534-1.148 3.993.401 7.949 1.108 11.834 2.116a105.02 105.02 0 0 1-17.357 7.458z"/><path d="M702.95 417.674a20.66 20.66 0 0 1-19.758 7.208 22.25 22.25 0 0 1-11.548-6.06 42.18 42.18 0 0 0 9.755-.753c3.208-.558 6.362-1.386 9.431-2.475 3.11-1.068 6.092-2.477 8.893-4.2a23.87 23.87 0 0 0 7.28-6.634 16.88 16.88 0 0 1-4.053 12.914zm-18.97 28.724c-5.988 2.725-12.264 4.949-18.539 7.745a35.27 35.27 0 0 1 7.279-10.614 26 26 0 0 1 7.639-5.342c2.616-1.156 5.426-1.813 8.284-1.937 3.084-.287 6.239.322 11.8-.431a29.94 29.94 0 0 1-7.709 6.168c-2.816 1.662-5.74 3.136-8.751 4.411z"/><path d="M701.48 439.728c.042 1.272-.043 2.545-.251 3.8a18.88 18.88 0 0 1-2.761 6.491 21.72 21.72 0 0 1-9.395 7.853c-3.547 1.569-7.444 2.176-11.3 1.758a22.59 22.59 0 0 1-12.333-5.487c3.445-.001 6.877-.423 10.22-1.255a53.93 53.93 0 0 0 9.79-3.228c3.218-1.372 6.224-3.195 8.929-5.414 2.822-2.136 4.934-5.073 6.06-8.428a15.37 15.37 0 0 1 .682 1.937 17.56 17.56 0 0 1 .358 1.973zm-36.183 55.26a34.9 34.9 0 0 1 2.556-11.489c.981-2.41 2.454-4.59 4.324-6.4 1.682-1.535 3.707-2.644 5.906-3.234 2.383-.819 5.3-.778 9.96-3.438.521.387 1.016.806 1.484 1.255a16.28 16.28 0 0 1 1.173 1.5c.608 1.042 1.082 2.157 1.411 3.318.531 2.174.574 4.438.128 6.631a17.7 17.7 0 0 1-5.494 9.8c-2.566 2.371-5.792 3.907-9.251 4.405a19.38 19.38 0 0 1-12.2-2.342zm34.677-175.534c-2.086 5.735-3.506 11.691-4.231 17.75a24.88 24.88 0 0 1-5.021-11.331 19.75 19.75 0 0 1 .753-9.36 19.09 19.09 0 0 1 5.165-7.853 25.15 25.15 0 0 1 10.937-5.81 80.62 80.62 0 0 0-7.603 16.604zm11.869 4.088a19.2 19.2 0 0 1-5.2 7.818c-3.083 2.836-6.832 4.846-10.9 5.845 3.126-5.243 5.674-10.808 7.6-16.6a80.07 80.07 0 0 0 4.231-17.751 25.01 25.01 0 0 1 5.057 11.332 19.32 19.32 0 0 1-.79 9.359z"/><path d="M646.328 521.594l1.65 3.371 1.829 3.837 3.191 6.742 2.833-7.351 1.721-4.231.717-1.793c-3.978-.108-7.96-.287-11.941-.575zm15.456 5.989l-.932-2.26-.968 2.474-4.268 10.614 10.543-.286zm11.368-5.308l-5.2.072-4.554-.072.394 1.005 1.471 3.98 3.191 8.5 3.442-9.144 1.614-4.34zm3.048 3.909l-.753-2.116-.789 2.26-4.053 11.834 10.041.25zm1.04-3.98l1.255 3.765 3.765 11.367 5.272-12.229 1.47-3.442c-3.909.251-7.853.431-11.762.539zm13.95 2.546l-1.112-2.725-1.148 2.94-5.271 13.591c4.518.251 9.073.646 13.627 1.291zm-44.861-3.156c.574 1.112 1.112 2.26 1.65 3.371l1.829 3.837 3.191 6.742 2.833-7.351 1.721-4.231c.215-.609.467-1.184.717-1.793a266.48 266.48 0 0 1-11.941-.574zm15.456 5.989l-.931-2.26-.968 2.474-4.268 10.614 10.543-.286zm11.368-5.308l-5.2.072-4.554-.072.394 1.005 1.471 3.98 3.191 8.5 3.442-9.144 1.614-4.34zm3.048 3.909l-.753-2.116-.789 2.26-4.053 11.834 10.041.25zm1.04-3.98l1.255 3.765 3.765 11.367 5.272-12.229 1.47-3.442c-3.909.251-7.853.431-11.762.539zm13.95 2.546l-1.112-2.725-1.148 2.94-5.271 13.591c4.518.251 9.073.646 13.627 1.291zm-46.761-1.578l-1.22 2.3 2.044-.215c-.287-.681-.537-1.4-.824-2.08zm1.9-1.578c.574 1.112 1.112 2.26 1.65 3.371l1.829 3.837 6.024-.609 1.721-4.231c.215-.609.467-1.184.717-1.793a266.48 266.48 0 0 1-11.941-.574zm14.524 3.73l-.968 2.474 1.9-.215zm7.1-2.977l-4.554-.072.394 1.005 9.36-1.005-5.2.072zm-40.916-52.856l7.961 51.063c3.012-.394 6.024-.681 9-.931a1.06 1.06 0 0 1 .968-.144l.072.072c5.092-.359 10.149-.61 15.2-.718a2.1 2.1 0 0 1 1.148 0l6.563-.072c9.037.037 18.037.251 27.038 1.112l5.953.681.214-1.362 7.71-49.7zm12.653 48.088c-6.921 0-6.921-10.758 0-10.758 6.96 0 6.924 10.758 0 10.758zm19.365 0c-6.922 0-6.922-10.758 0-10.758 6.957 0 6.921 10.758 0 10.758zm18.718-.645c-6.921 0-6.921-10.758 0-10.758 6.957 0 6.922 10.758 0 10.758zm18.4.645c-6.921 0-6.921-10.758 0-10.758 6.956 0 6.917 10.758-.001 10.758zm-4.984 7.172l-1.112-2.725-1.148 2.94-5.271 13.591c4.518.251 9.073.646 13.627 1.291zm-13.95-2.546l1.255 3.765 3.765 11.367 5.272-12.229 1.47-3.442c-3.911.251-7.854.431-11.763.539zm-1.04 3.98l-.753-2.116-.789 2.26-4.053 11.834 10.041.25zm-3.048-3.909l-5.2.072-4.554-.072.394 1.005 1.471 3.98 3.191 8.5 3.442-9.144 1.613-4.34zm-11.368 5.308l-.931-2.26-.968 2.474-4.268 10.614 10.543-.286zm-15.456-5.989c.574 1.112 1.112 2.26 1.65 3.371l1.829 3.837 3.191 6.742 2.833-7.351 1.721-4.231c.215-.609.467-1.184.717-1.793-3.98-.108-7.961-.287-11.942-.574zm44.861 3.156l-1.112-2.725-1.148 2.94-5.271 13.591c4.518.251 9.073.646 13.627 1.291zm-13.95-2.546l1.255 3.765 3.765 11.367 5.272-12.229 1.47-3.442a323.63 323.63 0 0 1-11.762.539zm-1.04 3.98l-.753-2.116-.789 2.26-4.053 11.834 10.041.25zm-3.048-3.909l-5.2.072-4.554-.072.394 1.005 1.471 3.98 3.191 8.5 3.442-9.144 1.613-4.34zm-11.368 5.308l-.931-2.26-.968 2.474-4.268 10.614 10.543-.286zm-15.456-5.989c.574 1.112 1.112 2.26 1.65 3.371l1.829 3.837 3.191 6.742 2.833-7.351 1.721-4.231c.215-.609.467-1.184.717-1.793-3.98-.108-7.961-.287-11.942-.574zm26.824.681l-9.36 1.005 1.471 3.98 6.634-.645 1.613-4.34zm2.295 1.793l-.789 2.26c.5-.036 1.04-.072 1.542-.144zm1.793-1.864l1.255 3.765 9.037-.861 1.47-3.442c-3.909.251-7.853.431-11.762.539zm12.838-.179l-1.148 2.94 2.26-.215zm.932-.5l1.148 3.156 5.486 15.169v.036a.79.79 0 0 1 .287.036l2.51-16.029.5-3.336c-3.335.431-6.635.718-9.933.968zm6.6 18.432c0 .036 0 .108-.072.108-.08.033-.171.002-.215-.072a230.61 230.61 0 0 1-29.369 1.721c-4.626-.036-9.252-.143-13.878-.359-.467.345-1.083.414-1.614.179-.152-.083-.296-.179-.431-.287-4.662-.286-9.359-.681-14.021-1.326l2.4 15.42h55.117l2.4-15.42c-.109-.006-.217.006-.322.036zm-45.686 14.021c-6.957 0-6.921-10.758 0-10.758s6.921 10.758 0 10.758zm18.073 0c-6.957 0-6.921-10.758 0-10.758s6.921 10.758 0 10.758zm18.073-.645c-6.957 0-6.921-10.758 0-10.758s6.922 10.755 0 10.755zm3.12-28.58l-1.112-2.725-1.148 2.94-5.271 13.591c4.518.251 9.073.646 13.627 1.291zm-13.95-2.546l1.255 3.765 3.765 11.367 5.272-12.229 1.47-3.442a330.55 330.55 0 0 1-11.762.536zm-1.04 3.98l-.753-2.116-.789 2.26-4.053 11.834 10.041.25zm-3.048-3.909l-5.2.072-4.554-.072.394 1.005 1.471 3.98 3.191 8.5 3.442-9.144 1.613-4.34zm-11.368 5.308l-.931-2.26-.968 2.474-4.268 10.614 10.543-.286zm-15.456-5.989c.574 1.112 1.112 2.26 1.65 3.371l1.829 3.837 3.191 6.742 2.833-7.351 1.721-4.231c.215-.609.467-1.184.717-1.793-3.98-.108-7.961-.287-11.942-.574zm.467 7.495l-1.542-3.837c-.287-.681-.538-1.4-.825-2.08l-1.22 2.3-2.223 4.2q-1.668 3.174-3.442 6.347c-.029.028-.068.041-.108.036l.574 3.873c4.231-.61 8.5-.968 12.73-1.255l-3.945-9.574zm3.012-.287l3.191 6.742 2.833-7.351-6.024.609zm11.977-1.219l-1.9.215-4.268 10.614 10.543-.286zm3.479-.323l3.191 8.5 3.442-9.144-6.634.645zm10.936-1.076c-.5.072-1.04.108-1.542.144l-4.053 11.834 10.041.25zm2.3-.215l3.765 11.367 5.272-12.229-9.037.862zm12.694-1.22l-2.26.215-5.271 13.591c4.518.251 9.073.646 13.627 1.291zm-56.193-4.2l.9 5.7.573 3.873.861 5.415 2.259-5.738c.538-1.4 1.112-2.761 1.685-4.124l1.757-4.3c-2.694-.214-5.343-.502-8.037-.825z"/><path d="M672.928 512.4c-3.211-2.444-4.934-6.3-6.418-9.976-.564-1.915-1.295-3.811-1.725-5.768l-1.213-5.9a139.15 139.15 0 0 1-.9-23.959c.141-8.012 1.339-15.905 2.267-23.831 1.452-7.825 2.571-15.739 4.471-23.464 1.782-7.756 3.565-15.51 5.818-23.132 2.17-7.646 4.255-15.313 6.929-22.8 2.586-7.508 4.907-15.1 7.783-22.5l8.7-22.148-13.209 45.635-3.195 11.415-2.941 11.476c-.95 3.83-2.1 7.614-2.95 11.464l-2.595 11.541c-1.972 7.648-3.082 15.446-4.665 23.166-1.163 7.773-2.386 15.553-3.014 23.379a139.95 139.95 0 0 0-.345 23.493l.7 5.825c.258 1.941.811 3.814 1.2 5.739 1.184 3.676 2.435 7.557 5.302 10.345zM120.21 371.325c-1.776 5.02-3.79 9.937-5.805 14.853l-8.024 13.521-15.4 26.019H85.04l.922-1.537 16.014-27.077L110 383.549c3.35-4.097 6.663-8.228 10.21-12.224zm-37.491 17l-1.909 16.736-2.356 20.658h-5.157l2.425-21.239 1.878-16.731c1.4-5.5 2.765-10.995 4.472-16.424.412 5.706.547 11.337.651 17.006zm-21.136 37.389h3.244l-1.81-12.668-1.468-10.175-2.254-15.98c-1.537-5.19-3.039-10.414-4.849-15.57-.239 4.473-.307 8.912-.273 13.351v2.971l.649 4.4 1.673 11.541 3.175 22.126zm-10.824 0H45.61l-3.209-22.126-2.291-15.941c-.035-5.429-.035-10.858.273-16.321 1.81 5.157 3.312 10.38 4.849 15.57l2.253 15.98 2.185 15.228z"/><path d="M54.825 389.047v3l-.034 12.7v20.965h-5.122v-36.665c.751-5.224 1.5-10.449 2.561-15.707.751 3.79 1.4 7.58 1.946 11.336.241 1.469.449 2.903.649 4.371zm15.775 2.628l-1.776 15.6-2.083 18.439h-5.156l1.44-12.663.717-6.351 1.741-15.6c1.331-5.122 2.663-10.243 4.3-15.3.477 5.291.647 10.584.818 15.876zm-35.648 54.939v18.44l2.663-.273 7.683-17.243c-3.447-.24-6.895-.513-10.345-.923zm11.3 1.23l-8.227 16.903c4.951-.513 9.936-.854 14.888-1.059zm1.093-.171l7.034 15.16 5.6-14.647c-4.197-.068-8.431-.273-12.631-.512zm14.409 1.981l-5.77 13.931c3.653-.137 7.272-.205 10.926-.238zm7.271-1.331l-5.36-.068 5.224 12.873 4.439-12.873-4.3.068zm6.591 3.244l-4.473 11.781 8.6.17-4.131-11.951zm2.39-3.379l4.234 12.189 5.532-12.531a311.69 311.69 0 0 1-9.766.342zm11.677 1.571l-5.258 13.9a224.52 224.52 0 0 1 11.746.717c-2.254-4.848-4.371-9.7-6.488-14.613zm-54.734-24.038v20.9a291.74 291.74 0 0 1 34.076-1.713l6.249.068a1.69 1.69 0 0 1 .922 0c4.371.068 8.707.239 13.044.478.11-.038.225-.061.341-.067a1.37 1.37 0 0 1 .513.1c4.336.273 8.673.614 13.009 1.126v-20.9zm7.956 15.263c-6.624 0-6.59-10.243 0-10.243s6.591 10.243 0 10.243zm18.438 0c-6.624 0-6.59-10.243 0-10.243s6.591 10.243 0 10.243zm17.824-.614c-6.624 0-6.59-10.243 0-10.243s6.59 10.243 0 10.243zm17.516.614c-6.624 0-6.59-10.243 0-10.243s6.591 10.243 0 10.243zm-5.5 6.658c1.911 5.565 3.755 11.131 5.463 16.766l6.453.649v-18.442a230.2 230.2 0 0 1-11.916 1.024zm-44.935.205l-8.223 16.9c4.951-.513 9.936-.854 14.888-1.059zm1.093-.171l7.034 15.16 5.6-14.647c-4.2-.068-8.434-.273-12.633-.513zm14.409 1.981l-5.77 13.931c3.653-.137 7.272-.205 10.926-.238zm7.275-1.334l-5.36-.068 5.224 12.873 4.439-12.873-4.3.068zm6.591 3.244l-4.473 11.781 8.6.17-4.131-11.951zm2.39-3.379l4.234 12.189 5.532-12.531a311.69 311.69 0 0 1-9.766.342zm11.677 1.571l-5.258 13.9a224.52 224.52 0 0 1 11.746.717c-2.254-4.848-4.371-9.7-6.488-14.613zm-43.432-1.912l-8.226 16.9c4.951-.513 9.936-.854 14.888-1.059zm1.093-.171l7.034 15.16 5.6-14.648c-4.2-.068-8.434-.273-12.633-.513zm14.409 1.981l-5.77 13.931c3.653-.137 7.272-.205 10.926-.238zm7.272-1.334l-5.36-.068 5.224 12.873 4.439-12.873-4.3.068zm6.591 3.244l-4.473 11.781 8.6.17-4.131-11.951zm2.39-3.379l4.234 12.189 5.532-12.531a311.69 311.69 0 0 1-9.766.342zm11.677 1.571l-5.258 13.9a224.52 224.52 0 0 1 11.746.717c-2.254-4.848-4.371-9.7-6.488-14.613zM34.949 485.03v4.234a34.08 34.08 0 1 0 68.153 0v-4.234a340.94 340.94 0 0 1-68.153 0zm48.008-18.54c-.443.297-1.002.36-1.5.171a2.1 2.1 0 0 1-.205-.137l-12.224.239c-11.382.062-22.758-.508-34.076-1.707v19.974a291.73 291.73 0 0 1 34.073-1.709 292.45 292.45 0 0 1 34.076 1.707v-19.974c-6.726.785-13.419 1.195-20.145 1.434zm-38.516 13.829c-6.624 0-6.59-10.243 0-10.243s6.59 10.243 0 10.243zm15.673-.308c-6.624 0-6.59-10.243 0-10.243s6.59 10.243 0 10.243zm17.209 0c-6.624 0-6.59-10.243 0-10.243s6.59 10.243 0 10.243zm17.209-.614c-6.624 0-6.591-10.243 0-10.243s6.59 10.243 0 10.243zm1.639-15.024c-2.254-4.848-4.371-9.7-6.488-14.613l-5.258 13.9a224.52 224.52 0 0 1 11.746.717zm-8.4-16.526a311.69 311.69 0 0 1-9.766.342l4.234 12.189 5.532-12.531zm-8.024 15.672l-4.131-11.951-4.473 11.78 8.6.17zm-6.419-15.263l-4.3.068-5.36-.068 5.224 12.873zm-6.42 15.093l-5.156-13.692-5.77 13.931c3.653-.137 7.273-.205 10.926-.239zm-6.932-15.16c-4.2-.068-8.434-.273-12.633-.513l7.034 15.16zm-13.726-.342l-8.225 16.9c4.951-.513 9.936-.854 14.888-1.059zm43.432 1.912l-5.258 13.9a224.52 224.52 0 0 1 11.746.717c-2.254-4.849-4.371-9.7-6.488-14.614zm-11.677-1.571l4.234 12.189 5.532-12.531a311.69 311.69 0 0 1-9.766.342zm-2.39 3.379l-4.473 11.781 8.6.17-4.117-11.952zm-6.59-3.244l-5.36-.068 5.224 12.873 4.439-12.873-4.3.068zm-7.272 1.332l-5.77 13.931c3.653-.137 7.273-.205 10.926-.238zm-14.409-1.981l7.034 15.16 5.6-14.647c-4.2-.068-8.434-.273-12.634-.513zm-1.093.171l-8.226 16.902c4.951-.513 9.936-.854 14.888-1.059zm43.432 1.912l-5.258 13.9a224.52 224.52 0 0 1 11.746.717c-2.254-4.848-4.371-9.7-6.488-14.613zm-11.677-1.571l4.234 12.189 5.532-12.531a311.69 311.69 0 0 1-9.766.342zm-2.39 3.38l-4.473 11.781 8.6.17-4.118-11.951zm-6.591-3.243l-5.36-.068 5.224 12.873 4.439-12.873-4.3.068zm-7.272 1.332l-5.77 13.931c3.653-.137 7.273-.205 10.926-.238zm-14.409-1.981l7.034 15.16 5.6-14.647c-4.2-.068-8.434-.273-12.634-.513zm-1.093.171l-8.226 16.902c4.951-.513 9.936-.854 14.888-1.059zm315.8-6.616c1.315 4.921 2.783 9.714 4.223 14.519l4.547 14.325c.736 2.395 1.524 4.774 2.321 7.152.709 2.41 1.6 4.756 2.309 7.173l2.275 7.212c.725 2.422 1.5 4.831 2.1 7.321-1.362-2.159-2.582-4.389-3.8-6.625-1.129-2.272-2.281-4.541-3.3-6.866a144.03 144.03 0 0 1-5.46-14.223 127.7 127.7 0 0 1-3.814-14.774c-1.04-5.002-1.512-10.106-1.408-15.214zm-99.228 8.171a10.52 10.52 0 0 0-.206-2.072h.019v.019a10.24 10.24 0 0 1 .187 2.053z"/><path d="M246.894 444.364l6.473 1.25 9.271 1.735a32.66 32.66 0 0 1-.9 8.469v.019l-9.979-1.865-7.7-1.511c-.429-.056-.839-.149-1.268-.243l-9.308-1.809a43.3 43.3 0 0 0 .186-8.636l8.674 1.717M636.794 45.172l-42.318 38.045 26.672 6.336-4.098 14.293 43.059-39.848-27.536-4.104zM144.076 199.863l49.75 27.626-2.692-27.281 14.849-.778-51.696-27.739 5.084 27.371z"/></g></svg>