<svg xmlns="http://www.w3.org/2000/svg" xmlns:xlink="http://www.w3.org/1999/xlink" width="539.494" height="397.907" xmlns:v="https://vecta.io/nano"><style><![CDATA[.B{fill:#263238}.C{fill:#ebebeb}.D{fill:#fff}.E{fill:#ffc727}.F{fill:#c7c7c7}.G{fill:#d3766a}.H{fill:#a6a6a6}.I{opacity:.2}.J{fill:#455a64}.K{fill:#fbd206}.L{opacity:.8}.M{opacity:.6}.N{opacity:.4}.O{fill:#151515}.P{fill:#dbdbdb}.Q{fill:#535353}]]></style><path d="M480.547 108.059h-1.5v-1h.5v-.5h1zm-3.523 0H475v-1h2.024zm-4.047 0h-2.023v-1h2.023zm-4.047 0h-2.023v-1h2.023zm-4.047 0h-2.024v-1h2.024zm-4.047 0h-2.024v-1h2.024zm-4.047 0h-2.023v-1h2.023zm-4.047 0h-2.023v-1h2.023zm-4.047 0h-2.023v-1h2.023zm-4.047 0h-2.024v-1h2.023zm-4.047 0h-2.023v-1h2.023zm-4.047 0h-2.023v-1h2.023zm-4.047 0h-2.023v-1h2.023zm-4.047 0h-2.023v-1h2.023zm-4.046 0h-1.5v-1.5h1v.5h.5zm-.5-3.524h-1v-2.023h1zm0-4.047h-1v-2.023h1zm0-4.047h-1v-2.023h1zm0-4.047h-1v-2.023h1zm0-4.047h-1v-2.023h1zm0-4.047h-1v-2.023h1zm0-4.047h-1V78.23h1zm0-4.046h-1v-2.024h1zm0-4.048h-1v-2.023h1zm0-4.047h-1v-2.023h1zm0-4.046h-1v-2.024h1zm0-4.047h-1v-2.024h1zm0-4.047h-1v-2.024h1zm0-4.047h-1v-1.5h1.5v1h-.5zm53.11-.5H475v-1h2.024zm-4.047 0h-2.023v-1h2.023zm-4.047 0h-2.023v-1h2.023zm-4.047 0h-2.023v-1h2.023zm-4.047 0h-2.024v-1h2.024zm-4.047 0h-2.023v-1h2.023zm-4.047 0h-2.023v-1h2.023zm-4.047 0h-2.023v-1h2.023zm-4.047 0h-2.023v-1h2.022zm-4.046 0h-2.024v-1h2.024zm-4.048 0h-2.023v-1h2.023zm-4.047 0h-2.023v-1h2.023zm-4.047 0h-2.023v-1h2.023zm52.087.5h-1v-.5h-.5v-1h1.5zm0 52.61h-1v-2.023h1zm0-4.047h-1v-2.023h1zm0-4.047h-1v-2.023h1zm0-4.046h-1v-2.024h1zm0-4.047h-1v-2.024h1zm0-4.048h-1v-2.023h1zm0-4.047h-1V78.23h1zm0-4.046h-1v-2.024h1zm0-4.047h-1v-2.024h1zm0-4.047h-1v-2.024h1zm0-4.047h-1v-2.024h1zm0-4.047h-1v-2.024h1zm0-4.047h-1v-2.024h1z" class="C"/><path d="M419.885 104.03h7.057v7.057h-7.057z" class="D"/><use xlink:href="#B" class="C"/><path d="M419.885 75.713h7.057v7.057h-7.057z" class="D"/><use xlink:href="#C" class="C"/><path d="M419.885 47.396h7.057v7.057h-7.057z" class="D"/><use xlink:href="#B" y="-56.634" class="C"/><path d="M476.519 104.03h7.057v7.057h-7.057z" class="D"/><use xlink:href="#B" x="56.629" class="C"/><path d="M476.519 75.713h7.057v7.057h-7.057z" class="D"/><use xlink:href="#C" x="56.629" class="C"/><path d="M476.519 47.396h7.057v7.057h-7.057z" class="D"/><use xlink:href="#B" x="56.629" y="-56.634" class="C"/><path d="M448.202 47.396h7.057v7.057h-7.057z" class="D"/><use xlink:href="#B" x="28.312" y="-56.634" class="C"/><path d="M448.202 104.03h7.057v7.057h-7.057z" class="D"/><use xlink:href="#B" x="28.312" class="C"/><path d="M452.416 85.976h-11.3l-4.4 12.328h4.281v1.084h-8.732v-1.085h2.682l14.554-39.209h4.68l14.386 39.209h2.625v1.084H452.53v-1.084h4.051zm-10.788-1.255h10.331l-4.966-14.954z" class="P"/><path d="M108.704 95.326s-.2 11.125-7.319 23.741H91.347c-7.123-12.616-7.318-23.741-7.318-23.741 10.3-5.763 10.573-18.662 10.573-18.662h1.04v20.425c-1.554.366-2.586 1.839-2.402 3.424s1.528 2.782 3.124 2.782 2.939-1.196 3.124-2.782-.848-3.058-2.402-3.424V76.664h1.04s.274 12.899 10.578 18.662z" class="C"/><path d="M88.955 117.845h14.826v6.24H88.955z" class="F"/><g class="C"><path d="M130.79 110.048h-1c0-18.458-14.964-33.422-33.422-33.422S62.946 91.59 62.946 110.048h-1c0-19.011 15.411-34.422 34.422-34.422s34.422 15.411 34.422 34.422z"/><path d="M61.672 75.213h68.618v1H61.672z"/></g><path d="M58.918 106.52h7.057v7.057h-7.057z" class="D"/><path d="M66.476 114.077h-8.058v-8.057h8.058zm-7.058-1h6.058v-6.057h-6.058z" class="C"/><path d="M58.918 72.184h7.057v7.057h-7.057z" class="D"/><path d="M66.476 79.742h-8.058v-8.058h8.058zm-7.058-1h6.058v-6.058h-6.058z" class="C"/><path d="M126.761 106.52h7.057v7.057h-7.057z" class="D"/><use xlink:href="#B" x="-293.128" y="2.49" class="C"/><path d="M126.761 72.184h7.057v7.057h-7.057z" class="D"/><use xlink:href="#C" x="-293.128" y="-3.529" class="C"/><g fill="none"><path d="M491.02 279.593h-26.481v-11.19h26.481zm14.772 14.109h-26.481v-11.19h26.481zm-29.544 0h-26.48v-11.19h26.48zm-341.293 0h-26.481v-11.19h26.481zm-38-268.276H70.474v-11.19h26.481zM82.183 39.535H55.702v-11.19h26.481zm423.609-7.055h-26.481V21.29h26.481zM217.053 218.9h26.481v11.19h-26.481zm-14.772-14.11h26.48v11.19h-26.48z" stroke="#ebebeb" stroke-miterlimit="10"/><path stroke="#263238" stroke-linecap="round" stroke-linejoin="round" d="M94.097 334.931h411.3"/></g><path d="M160.429 235.334c-3.151-3.087-7.223-6.817-12.04-5.486-4.532 1.252-6.267 6.2-7.078 10.321-1.046 5.312-1.86 10.676-2.7 16.023q-1.278 8.1-2.43 16.221-.657 4.581-1.3 9.163-.32 2.292-.637 4.584c-.208 1.5-.458 3-.541 4.508-.026.481.73.551.835.092.584-2.548.825-5.2 1.2-7.784q.564-3.9 1.133-7.8 1.132-7.749 2.315-15.492 1.167-7.748 2.408-15.485c.7-4.374 1.029-9.809 4.907-12.694a7.5 7.5 0 0 1 7.252-.68 21.7 21.7 0 0 1 6.587 4.608c.027.025.069.022.094-.005s.022-.069-.005-.094z" class="B"/><path d="M156.117 232.18s-6.441-2.319-9.619 2.382.621 16.656 29.946 23.4a82.81 82.81 0 0 0-7.056-26.509c-6.286-13.709-17.488-8.517-13.271.727z" class="E"/><path d="M174.758 256.003a22.88 22.88 0 0 0-1.475-2.378q-.735-1.134-1.487-2.257l-1.147-1.679c.028-.136.036-.278.054-.42l.1-.761.233-1.647.276-1.636a8.72 8.72 0 0 1 .384-1.728c.037-.085-.117-.128-.128-.027a6.36 6.36 0 0 1-.262.971l-.2.741q-.213.834-.4 1.675l-.3 1.557-.113.752-1.606-2.209-4.908-5.951c.007-.019.025-.03.026-.053a52.83 52.83 0 0 1 .762-9.162c.018-.083-.106-.128-.125-.045a31.49 31.49 0 0 0-1.1 8.766q-.917-1.025-1.854-2.033-2.142-2.3-4.369-4.527c-.06-.06-.155.028-.1.09 2.471 2.66 4.818 5.431 7.1 8.252a50.47 50.47 0 0 0-5.361.2c-1.988.147-3.964.4-5.938.674-.084.012-.059.143.025.13a55.81 55.81 0 0 1 5.93-.531c1.913-.079 3.816.007 5.727 0q1.853 2.3 3.661 4.63c-.086 0-.176 0-.273-.005l-1.348-.008a39.69 39.69 0 0 0-2.671.153 40.68 40.68 0 0 0-5.415.81c-.036.007-.059.042-.052.077s.042.059.077.053c1.8-.2 3.608-.372 5.42-.436.865-.03 1.729-.03 2.594-.03h1.349a1.7 1.7 0 0 0 .74-.068l2.36 3.077q.933 1.229 1.839 2.479c.616.852 1.173 1.782 1.859 2.579a.07.07 0 0 0 .116-.075zm-15.836-17.162a19.58 19.58 0 0 0-3.137-.153l-3.139.067c-.025-.001-.049.012-.061.034s-.01.049.004.07.04.031.065.027l3.184-.078 3.08.085c.014.001.027-.01.028-.024s-.01-.027-.024-.028zm9.204 2.362l.459-2.994c.009-.024.002-.051-.016-.069s-.045-.024-.07-.015-.041.031-.043.057l-.488 2.952q-.109.739-.2 1.483a6.86 6.86 0 0 0-.12 1.4.09.09 0 0 0 .172.013c.089-.462.139-.93.152-1.4q.066-.712.153-1.427zm-1.929-11.1l-.691 2.954-.236 1.516a6.09 6.09 0 0 0-.1 1.481c.005.017.019.029.036.03s.034-.008.041-.024a8.4 8.4 0 0 0 .231-1.413q.1-.73.224-1.458l.619-3.041c.026-.078-.102-.123-.124-.045zm-38.186 59.481q-.243-2.769-.536-5.534-.579-5.481-1.322-10.94l-1.538-10.883c-.218-1.678-.593-3.332-1.119-4.941a4.69 4.69 0 0 0-2.737-3.088c-3.45-1.192-5.778 2.386-7.171 4.917-.042.076.068.133.116.064.834-1.2 3.14-4.565 5.757-4.408 1.761.106 3.17 1.353 4.015 5.744 2.107 10.942 4.005 33.147 4.227 34.6.118.77.662.737.666-.088.011-1.817-.2-3.635-.358-5.443z" class="B"/><path d="M114.519 257.754s3.015-10.648-3.651-5.324c-11.1 8.863-11.492 28.143-11.492 28.143s19.727-11.458 22.18-19.016c3.654-11.254-7.037-3.803-7.037-3.803z" class="E"/><path d="M118.247 262.982l-4.681.744q-1.109.159-2.22.312l-1.509.178 4.36-6.106c.055-.08-.068-.162-.132-.1a45.73 45.73 0 0 0-3.3 3.8l-.875-2.471-.938-2.885c-.021-.083-.15-.044-.127.038l.721 2.951.874 2.8-2.089 2.87-1.058-2.87c-.01-.035-.047-.055-.082-.044s-.055.047-.045.082c.353 1.081.544 2.2.876 3.292l-1.338 1.991-2.282 3.746c-.117.052-.187.173-.173.3l-3.6 6.551c-.014.031-.002.068.028.085s.068.008.087-.021l3.829-6.387h.014a2.96 2.96 0 0 1 .645-.125l.682-.148 1.522-.369 3.006-.659c.084-.015.046-.143-.038-.127l-3.6.5-1.7.229-.082.012q1.063-1.617 2.157-3.2l2.193-3.091c.684-.1 1.362-.276 2.041-.406q1.144-.219 2.289-.445l4.584-.9c.087-.015.051-.145-.039-.127zm-11.85 1.049l-.266-.847a16.92 16.92 0 0 1-.453-1.786c-.017-.083-.144-.045-.127.039l.408 1.8c.124.603.295 1.195.513 1.771a.12.12 0 0 0 .229-.069c-.085-.307-.205-.606-.304-.908zm13.874-3.515l-2.713.277-2.711.342c-.05.007-.051.083 0 .079l2.714-.251 2.712-.315c.087-.005.08-.145-.002-.132zm22.257 15.587c-.35-7.841-.848-15.667-1.636-23.477-.392-3.889-.831-7.775-1.379-11.645-.488-3.805-1.238-7.571-2.246-11.272a21.66 21.66 0 0 0-3.752-7.947 8.52 8.52 0 0 0-7.581-3.309c-3.432.424-6.194 2.586-8.584 4.935-2.681 2.635-5.136 5.511-7.62 8.33q-.942 1.069-1.869 2.153c-.055.064.04.156.1.091 2.428-2.789 4.95-5.5 7.59-8.09 2.439-2.4 4.951-5.012 8.33-6a8.58 8.58 0 0 1 4.84-.114 7.68 7.68 0 0 1 3.307 2.094 17.33 17.33 0 0 1 3.729 7.251c2.108 7.206 2.863 14.763 3.646 22.205.8 7.561 1.333 15.143 1.713 22.736.382 7.633.68 15.275 1.415 22.885.091.94.213 1.876.332 2.812.081.63 1.058.631 1.006-.025-.622-7.865-.989-15.734-1.341-23.613z" class="B"/><path d="M116.919 224.237s4.477-8.286-.813-10.944-22.996 17.11-28.169 46.01c0 0 28.6-12.652 38.307-25.26s-1.297-15.387-9.325-9.806z" class="E"/><path d="M121.123 230.976c-3.214.007-6.419-.244-9.634-.221l1.811-2.069c.899-.918 1.738-1.893 2.512-2.919.045-.066-.051-.161-.116-.11a23.43 23.43 0 0 0-2.432 2.439q-1.207 1.282-2.4 2.576l-3.633 4.034v-.39-1.688l.034-3.27.169-6.636c.006-.085-.126-.081-.132 0l-.492 6.644-.093 3.272-.012 1.688.014.947-.568.63c-2.565 2.932-5 5.963-7.378 9.048 0-.17-.026-.345-.042-.512l-.112-1.02a60.5 60.5 0 0 0-.294-2.206q-.156-1.033-.329-2.065c-.13-.772-.319-1.555-.378-2.336-.001-.026-.016-.049-.04-.059s-.051-.006-.07.011-.027.044-.019.069a20.44 20.44 0 0 1 .269 2.353q.1 1.061.2 2.122l.2 2.123.1 1.02a17.24 17.24 0 0 0 .062.509.98.98 0 0 0 .138.4l-1.222 1.6-4.806 6.484c-.049.067.044.159.1.091 1.508-1.966 3.059-3.9 4.631-5.81 1.177.05 2.377-.037 3.553-.056l3.721-.031c.036 0 .066-.03.066-.066s-.03-.066-.066-.066l-3.72.045c-1.13 0-2.284-.051-3.415.01q2.073-2.521 4.181-5.016l1.536-1.821a7.02 7.02 0 0 0 1.435.048q.846 0 1.691 0l3.169-.044 6.549-.112c.036 0 .066-.03.066-.066s-.03-.066-.066-.066l-6.556-.176-3.172-.076-1.691-.019c-.321 0-.652-.026-.977-.014q1.8-2.136 3.6-4.27a.16.16 0 0 0 .067-.078l3.529-4.136.49-.56c3.332.1 6.659-.115 9.99-.05.07.005.067-.13-.018-.129zm-1.644 5.682l-.779.007c-.076 0-.073.118 0 .119l.779.006c.088.001.085-.133 0-.132zm-1.732.009q-1.545-.021-3.089-.065-.771-.021-1.544-.049a5.76 5.76 0 0 0-1.437.017c-.05.012-.041.083 0 .1.473.096.957.13 1.439.1q.772.014 1.544.022 1.543.015 3.087.01c.037 0 .068-.03.068-.067s-.03-.068-.068-.067zm-8.989 9.651a42.87 42.87 0 0 0-6.324-.57c-.031 0-.028.043 0 .046l6.291.653c.085.014.122-.117.033-.129zm-8.596-9.2l-.066-.551-.184-1.239q-.186-1.178-.41-2.349c-.014-.073-.139-.054-.13.021q.148 1.211.261 2.427l.1 1.2a3.33 3.33 0 0 0 .161 1.133c.06.123.245.073.277-.043a1.55 1.55 0 0 0-.009-.599zm42.085-23.523c-1.024-1.9-2.326-4.422-4.881-4.262-2.11.132-3.06 2.284-3.511 4.064-1.393 5.5-1.491 11.309-1.762 16.948-.574 11.919-1.089 23.852-1.165 35.787q-.03 4.962.022 9.924c.031 3.374.022 6.767.236 10.135a.25.25 0 1 0 .5-.012c.018-2.886-.084-5.774-.1-8.66q-.016-4.226.056-8.449.138-8.556.457-17.108l.7-17q.18-4.246.367-8.493c.124-2.743.243-5.488.556-8.217.176-1.528.4-3.057.721-4.562.16-1.118.615-2.174 1.319-3.057 1.008-.993 2.588-1.107 3.729-.27a7.9 7.9 0 0 1 2.643 3.3c.038.078.152.008.113-.068z" class="B"/><path d="M141.554 212.686s-2.1-7.418 2.544-3.709c7.73 6.174 8 19.6 8 19.6s-13.737-7.974-15.451-13.242c-2.54-7.842 4.907-2.649 4.907-2.649z" class="E"/><path d="M149.212 223.075l-.391-.608a3.81 3.81 0 0 0 0-.632v-.958q.023-.939.069-1.879c0-.085-.128-.081-.132 0q-.048.922-.074 1.844l-.033.923c0 .12-.019.258-.026.4l-1.666-2.482-.51-.7a14.41 14.41 0 0 1-.041-2.423l.052-2.585c0-.085-.13-.082-.132 0l-.115 2.688a17.31 17.31 0 0 0-.053 1.919l-4.16-5.274c-.048-.058-.149.023-.1.082l2.557 3.422c-1.617-.377-3.261-.594-4.9-.831-.084-.013-.117.115-.032.128 1.739.263 3.447.7 5.163 1.078.014 0 .022-.006.034-.006q.988 1.391 1.956 2.793l.78 1.148-.074-.009-.535-.073-1.143-.106-2.379-.147c-.085 0-.082.131 0 .133l2.335.161 1.229.148.537.064.157.022q.66.975 1.322 1.947l2.3 3.485c.019.027.056.034.084.017s.038-.054.023-.083a35.68 35.68 0 0 0-2.102-3.606zm-3.423-8.378l.006-.866a13.11 13.11 0 0 1 .073-1.817c.013-.1-.131-.11-.131-.015 0 .6-.066 1.2-.094 1.8l-.016.9v.416a1.27 1.27 0 0 0 .032.431.06.06 0 0 0 .115 0 1.26 1.26 0 0 0 .018-.4l-.003-.449zm-1.699 3.072c-.511-.087-1.034-.114-1.55-.157l-1.7-.171c-.025-.006-.051.002-.067.022s-.019.047-.008.07.035.038.06.037l3.251.3c.024-.003.044-.021.047-.046s-.01-.048-.033-.056zm4.318.046c.04.056.013.218.013.285v.24.518.519c-.024.151-.015.305.025.453a.03.03 0 0 0 .051 0 .45.45 0 0 0 .026-.215v-.239-.519-.519-.239c0-.073-.028-.226.015-.286.068-.121-.219-.123-.13.002zm-5.842 35.36c-2.891-2.169-5.487-5.287-9.374-5.44-3.208-.126-5.456 2.289-6.742 4.979-.647 1.43-1.173 2.913-1.573 4.431q-.87 3.045-1.637 6.118c-1.007 4.03-1.873 8.1-2.573 12.192-.391 2.282-.755 4.573-1.044 6.871a58.11 58.11 0 0 0-.675 7.034c.01.179.147.325.325.344a.37.37 0 0 0 .393-.265c.391-1.922.555-3.906.838-5.847l.911-5.851q.992-5.838 2.3-11.621c.829-3.635 1.643-7.327 2.816-10.869.841-2.538 2.19-5.5 4.931-6.413 4.171-1.388 7.958 2.142 11.01 4.433.07.051.162-.045.094-.096z" class="B"/><path d="M139.574 251.103s-2.663-7.607 1.19-9.1c5.774-2.236 20.888 14.787 17.93 40.869-7.131-3.991-13.92-8.563-20.3-13.67-8.622-7.237-10.829-16.689-7.031-19.133s8.211 1.034 8.211 1.034z" class="E"/><path d="M156.947 277.28a20.01 20.01 0 0 0-1.4-2.63l-1.508-2.663-3.028-5.139-.507-.824.064-.305.171-.755.334-1.707.7-3.343c.022-.081-.113-.107-.131-.023-.238 1.115-.59 2.213-.92 3.305l-.477 1.616-.146.559-3.866-6.018a2.73 2.73 0 0 0 .135-.836l.132-1.144.326-2.571a50.1 50.1 0 0 1 .915-5c.021-.083-.109-.1-.13-.023l-1.18 4.95-.407 2.46-.141 1.239-.048.374-1.276-1.759-4.111-5.175c-.053-.065-.162.01-.108.077a91.96 91.96 0 0 1 6.567 9.59l1.135 1.844-.375-.047-1.473-.139q-1.473-.137-2.949-.255l-5.9-.488c-.084-.009-.108.121-.023.13l5.949.829q1.461.208 2.925.394a11.59 11.59 0 0 0 2.252.231q1.158 1.882 2.319 3.765a4.34 4.34 0 0 0-.522-.02c-.328-.005-.656 0-.983 0h-1.829l-3.8.024c-.085 0-.072.131.013.132l3.846.148q.912.047 1.823.11l.911.065a1.88 1.88 0 0 0 .8-.031l1.973 3.2q.906 1.48 1.84 2.944c.584 1.04 1.246 2.034 1.98 2.973.053.059.16.019.128-.064zm-5.563-21.077a18.4 18.4 0 0 1-.522 2.48q-.322 1.268-.735 2.51c-.013.029-.009.063.012.088s.054.035.085.027.055-.033.061-.065q.388-1.232.693-2.488l.538-2.528c.02-.087-.121-.113-.131-.024zm-8.579 5.091c-.177-.153-.403-.237-.637-.237l-1.1-.151-2.053-.249-4.27-.484c-.084-.011-.108.12-.023.13l4.018.543 1.971.256.949.106a3.34 3.34 0 0 1 1.083.186c.062.031.104-.054.062-.1zm8.559 11.47l-2.022-.1-1.02-.031-.489-.016a3.02 3.02 0 0 1-.637-.037c-.093-.024-.1.147 0 .131.2-.015.401-.008.6.019l.529.032 1.019.061 2.022.085c.073.001.081-.137-.002-.144zm4.117-2.918l.22-1.147.414-2.255c.002-.034-.022-.064-.055-.069s-.066.014-.076.046l-.5 2.2-.241 1.1-.1.508c-.055.174-.076.357-.061.539.012.061.1.111.146.046a2.76 2.76 0 0 0 .253-.968z" class="B"/><g class="C"><path d="M149.803 292.325l-.648 10.78-1.919 31.826h-32.637l-1.919-31.828-.648-10.78z"/><path d="M149.803 292.325l-.648 10.78H112.68l-.648-10.78z"/><path d="M109.02 284.698h43.795v10.787H109.02z"/><ellipse cx="299.747" cy="382.172" rx="180.132" ry="15.735"/></g><path d="M210.747 2.581h168.828v168.48H210.747z" class="F"/><path d="M210.747 2.581h168.936v10.184H210.747z" class="B"/><use xlink:href="#D" class="F"/><use xlink:href="#D" x="8.641" class="D"/><use xlink:href="#D" x="17.282" class="E"/><path d="M233.491 30.001h123.447v123.447H233.491z" class="D"/><path d="M295.139 133.254v-.962c23.706-.001 42.922-19.218 42.922-42.924s-19.218-42.923-42.923-42.922-42.923 19.217-42.923 42.923h-.962c0-24.237 19.648-43.885 43.885-43.885s43.885 19.647 43.885 43.884-19.647 43.885-43.884 43.886z" class="E"/><use xlink:href="#E" class="D"/><g class="E"><path d="M251.734 92.203c-1.147 0-2.182-.691-2.621-1.751a2.84 2.84 0 0 1 .615-3.092c.811-.812 2.032-1.054 3.092-.615s1.751 1.474 1.751 2.621a2.84 2.84 0 0 1-2.837 2.837zm0-4.712c-1.035.001-1.873.84-1.873 1.874s.839 1.873 1.874 1.874 1.874-.838 1.874-1.873-.841-1.871-1.875-1.872zm30.221-7.177a5.12 5.12 0 0 1-5.116 5.116 5.12 5.12 0 0 1-5.116-5.116 5.12 5.12 0 0 1 8.734-3.618c.96.959 1.498 2.261 1.498 3.618z"/><circle cx="313.437" cy="80.314" r="5.116"/></g><circle cx="338.543" cy="89.369" r="2.356" class="D"/><path d="M338.547 92.203a2.84 2.84 0 0 1-2.836-2.838 2.84 2.84 0 0 1 2.837-2.836 2.84 2.84 0 0 1 2.837 2.837 2.84 2.84 0 0 1-2.838 2.837zm0-4.712c-1.035.001-1.873.84-1.873 1.874s.839 1.873 1.874 1.874 1.874-.838 1.874-1.873-.841-1.871-1.875-1.872z" class="E"/><use xlink:href="#E" x="43.404" y="-43.404" class="D"/><g class="E"><path d="M295.139 48.803a2.84 2.84 0 0 1-2.837-2.837 2.84 2.84 0 0 1 2.836-2.837 2.84 2.84 0 0 1 2.838 2.836 2.84 2.84 0 0 1-2.837 2.838zm0-4.713c-1.036 0-1.875.839-1.875 1.875s.839 1.875 1.875 1.875 1.875-.839 1.875-1.875a1.88 1.88 0 0 0-1.875-1.876z"/><use xlink:href="#E" x="43.404" y="43.385"/></g><g class="B"><path d="M304.511 138.277a26.87 26.87 0 0 1 1.869 11.933l-4.384 2.142a26.86 26.86 0 0 1-8.263-8.811c3.271-4.717.636-10.409.636-10.409l.455-.222 4.358 8.923a1.53 1.53 0 0 0 1.64 2.559 1.53 1.53 0 0 0-1.009-2.867l-4.358-8.923.454-.222s2.87 5.577 8.602 5.897z"/><path d="M300.689 152.329l6.477-3.164 1.332 2.726-6.477 3.164zm11.441-2.341h.56v5.399h-.56z"/><path d="M309.711 152.408h5.399v.56h-5.399z"/><path d="M310.303 154.399l3.818-3.818.396.396-3.818 3.818z"/><path d="M310.303 150.977l.396-.396 3.818 3.818-.396.396zm2.093-10c-4.254-.107-5.683-2.885-6.943-5.336-.496-1.285-1.333-2.411-2.421-3.257-3.4-1.982-6.608.908-6.743 1.033l-.76-.823c.039-.036 3.947-3.581 8.067-1.178 1.347.786 2.078 2.208 2.853 3.713 1.226 2.385 2.385 4.638 5.975 4.728z"/></g><path d="M304.747 79.157c-.054 5.27-4.341 9.514-9.612 9.514s-9.558-4.244-9.611-9.514z" class="E"/><path d="M148.858.001h29.443v110.718h-29.443z" class="O"/><g class="C"><path d="M150.254 1.405l.17-.17 1.819 1.819-.17.17z"/><path d="M150.254 3.054l1.819-1.819.17.17-1.819 1.819zm24.366-.821l.17-.17 1.08 1.08-.17.17z"/><path d="M174.62 2.233l1.08-1.08.17.17-1.08 1.08zm1.191 0l.17-.17 1.08 1.08-.17.17z"/><path d="M175.811 2.233l1.08-1.08.17.17-1.08 1.08zm-18.82 16.194l-1.265-3.056-2.26 1.754V7.303l6.867 6.938-2.874.429 1.26 3.042zm-1.061-3.823l1.317 3.199.84-.348-1.312-3.167 2.545-.379-5.373-5.436v7.67zm16.729-.127l1.286 3.1-1.284.531-1.293-3.125-2.122 1.646V7.888l6.122 6.185zm-19.164 19.681l5.98-7.672.57.444-5.98 7.672zm2.7-6.704l-1.462.27-.327 1.541-.327-1.541-1.462-.271 1.455-.356.333-1.455.333 1.455zm3.242-2.439l-.858.159-.192.9-.192-.9-.858-.159.854-.209.2-.854.2.854zm1.01 4.856l-.489.09-.109.515-.109-.515-.489-.091.487-.119.111-.487.111.487zm7.245 31.736l5.98-7.672.57.444-5.98 7.672zm4.967-29.712l1.286 3.1-1.284.531-1.293-3.125-2.122 1.646v-8.744l6.122 6.185z"/><path d="M168.647 30.703c-.996.118-1.979-.301-2.585-1.1-.507-1-.124-3.1 3.007-4.805 2.493-1.362 4.973-.8 5.586.183a2.02 2.02 0 0 1 .1 1.668c-.61 1.587-1.858 2.844-3.441 3.465h0a6.66 6.66 0 0 1-2.667.589zm3.482-6.242c-.991.013-1.963.273-2.829.755-2.811 1.534-3.215 3.369-2.809 4.166s2.36 1.289 4.626.289h0a5.65 5.65 0 0 0 3.176-3.166c.165-.412.148-.874-.047-1.272a2.54 2.54 0 0 0-2.113-.774z"/><path d="M167.287 31.325a1.12 1.12 0 0 1-.92-.461h0a1.03 1.03 0 0 1-.14-1.107c.251-.455.728-.739 1.247-.745a1.08 1.08 0 0 1 1 .565c.299.543.103 1.225-.439 1.526a1.4 1.4 0 0 1-.748.222zm-.534-.749c.253.308.705.361 1.023.121a.65.65 0 0 0 .272-.894.59.59 0 0 0-.566-.31c-.338.005-.65.186-.823.476-.094.203-.057.442.094.607z"/><path d="M168.647 32.613l-.288-.386c.144-.107.311-.269.289-.43-.038-.282-.571-.578-.822-.677l.175-.448c.106.041 1.037.422 1.124 1.06a.95.95 0 0 1-.478.881zM153.686 43.27a11.92 11.92 0 0 1 4.736-2.5l1.53 1.53a11.92 11.92 0 0 1-2.5 4.735 5.04 5.04 0 0 0-4.458 1.234l-.158-.159 3.114-3.114a.68.68 0 0 0 .836-1.056.68.68 0 0 0-1.056.836l-3.114 3.114-.159-.159a5.04 5.04 0 0 0 1.229-4.461z"/><path d="M160.131 42.848l-2.261-2.261.951-.951 2.261 2.261z"/></g><path d="M164.537 38.131h11.785v11.007h-11.785z" class="B"/><g class="C"><path d="M168.808 43.27a11.91 11.91 0 0 1 4.735-2.5l1.53 1.53a11.92 11.92 0 0 1-2.5 4.735 5.04 5.04 0 0 0-4.457 1.234l-.159-.159 3.114-3.114a.68.68 0 0 0 .836-1.056.68.68 0 0 0-1.056.836l-3.114 3.114-.159-.159a5.04 5.04 0 0 0 1.23-4.461z"/><path d="M175.252 42.848l-2.261-2.261.951-.951 2.261 2.261zm-7.519 5.278a1.87 1.87 0 0 1-1.644-.813c-.338-.537-.55-1.574.358-3.467a1.78 1.78 0 0 0 .141-1.644 2.16 2.16 0 0 0-1.49-.844l.054-.478c.746.081 1.422.477 1.857 1.089.307.673.259 1.455-.128 2.086-.813 1.694-.658 2.568-.385 3a1.42 1.42 0 0 0 1.237.589zm-8.086 5.399v1.964h-.654c-.134.009-.253-.085-.276-.218l-.057-.471h-1.689v5.893l.333.057c.08.011.138.035.173.035a.4.4 0 0 1 .068.011.34.34 0 0 1 .3.357v.677h-3.285v-.677a.33.33 0 0 1 .287-.357.55.55 0 0 1 .069-.011c.034 0 .092-.023.172-.035l.333-.057v-5.9h-1.689l-.057.482a.25.25 0 0 1-.264.218h-.664v-1.964h6.9zm1.163 24.305h-8.428v-8.427h8.428zm-7.707-.721h6.985v-6.984h-6.985zm20.994 25.849h-7.276v-6.514h7.276zm-6.554-.722h5.832v-5.071h-5.828z"/><path d="M170.101 104.878h-5.071v-4.564h5.071zm-4.349-.721h3.627v-3.121h-3.627zm4.907-4.539l1.834-1.834.34.34-1.834 1.834z"/><path d="M173.01 99.043h-.481v-.961h-.921v-.479h1.4zm1.486-21.21h-8.432v-8.43h3.935a3.2 3.2 0 0 1 6.364.428c-.005 1.251-.732 2.386-1.867 2.912zm-7.71-.722h6.988V72.25l.236-.088a2.48 2.48 0 0 0-.843-4.807 2.46 2.46 0 0 0-2.474 2.416l-.009.352h-3.9zm4.607-5.345c-1.257-.209-1.433 1.115-1.453 1.632-.105.532-.496.961-1.015 1.115 0 0 1.951.538 2.926-.458a1.31 1.31 0 0 0-.458-2.289z"/><path d="M175.696 67.722l-3.151 4.453a1.36 1.36 0 0 0-.977-.747 2 2 0 0 0-.22-.019l2.614-3.687zm-18.459 17.042l2.215 2.215-4.513 4.513-2.215-2.215zm1.328-1.328l2.215 2.215-.957.957-2.215-2.215z"/><path d="M152.529 91.686l.176-2.355.48.036-.135 1.8 1.8-.135.036.48z"/><use xlink:href="#F"/><path d="M165.103 90.603l6.664-3.67 1.145.648-5.713 3.28c-.708.142-1.443.052-2.096-.258z"/><use xlink:href="#F" x="-0.025" y="3.78"/><path d="M165.079 85.659l6.668 3.669 1.144-.648-5.712-3.28a3.35 3.35 0 0 0-2.1.259zm-12.65 18.127v-6.25l3.987 3.125zm.722-4.767v3.284l2.1-1.642zm7.602-1.39v6.065l-3.86-3.033zm-3.954 6.358h-.241v-.962h.241zm0-1.925h-.241v-.959h.241zm0-1.924h-.241v-.963h.241zm0-1.925h-.241v-.963h.241z"/></g><path d="M383.723 10.572h60.637v35.976h-60.637z" class="O"/><g class="C"><path d="M386.938 13.795l-1.819-1.819.171-.17 1.819 1.82z"/><path d="M385.289 13.795l-.171-.17 1.819-1.82.171.17zm55.254-.991l.17-.17 1.08 1.08-.17.17z"/><path d="M440.543 12.804l1.08-1.08.17.17-1.08 1.08zm1.191.001l.17-.17 1.08 1.08-.17.17z"/><path d="M441.734 12.805l1.08-1.08.17.17-1.08 1.08zm-47.295 3.492h.241v23.639h-.241zm8.721 0h.241v23.639h-.241zm-13.036 2.179a2.97 2.97 0 0 0-2.526 1.431 3.12 3.12 0 0 0 2.526 1.439 3.23 3.23 0 0 0 2.565-1.439 3.09 3.09 0 0 0-2.565-1.431zm0 2.608c-.475.002-.904-.284-1.087-.722s-.082-.944.254-1.28.841-.436 1.28-.254a1.17 1.17 0 0 1 .722 1.087 1.17 1.17 0 0 1-1.169 1.169z"/><path d="M391.026 19.911c0 .5-.406.906-.906.906s-.906-.406-.906-.906.406-.906.906-.906c.24 0 .471.095.641.265s.265.4.265.641zm-.902 6.792a2.97 2.97 0 0 0-2.526 1.43 3.12 3.12 0 0 0 2.526 1.439 3.23 3.23 0 0 0 2.565-1.439 3.09 3.09 0 0 0-2.565-1.43zm0 2.608c-.476.002-.906-.283-1.089-.722s-.083-.945.254-1.282.843-.437 1.282-.254.724.613.722 1.089a1.17 1.17 0 0 1-1.169 1.166z"/><path d="M391.026 28.134c0 .5-.406.906-.906.906s-.906-.406-.906-.906.406-.906.906-.906.905.406.906.906zm-.902 6.422a2.97 2.97 0 0 0-2.526 1.43 3.12 3.12 0 0 0 2.526 1.44 3.23 3.23 0 0 0 2.565-1.44 3.09 3.09 0 0 0-2.565-1.43zm0 2.608c-.476.002-.906-.283-1.089-.722s-.083-.945.254-1.282.843-.437 1.282-.254.724.613.722 1.089a1.17 1.17 0 0 1-1.169 1.169z"/><path d="M391.026 35.991c-.001.5-.406.905-.907.905s-.906-.406-.905-.906.406-.906.906-.906a.91.91 0 0 1 .641.266c.17.17.265.401.265.641zm-4.798-11.923h55.627v.241h-55.627zm0 7.892h55.627v.241h-55.627zm23.627-10.339h-.008a.14.14 0 0 1-.139-.138V17.74c0-.078.063-.141.141-.141s.141.063.141.141v3.6h1.923c.053-.004.104.021.132.067s.028.102 0 .148-.079.071-.132.067zm5.38-2.675v2.537c0 .076-.062.137-.137.137s-.137-.062-.137-.137v-.419c-.243.344-.636.551-1.057.557a1.41 1.41 0 0 1-1.325-1.406 1.41 1.41 0 0 1 1.325-1.406 1.31 1.31 0 0 1 1.057.551v-.413c0-.076.062-.137.137-.137s.137.062.137.137zm-.275 1.268a1.06 1.06 0 0 0-1.105-.985 1.06 1.06 0 0 0-1.01 1.082 1.06 1.06 0 0 0 1.058 1.035 1.1 1.1 0 0 0 1.057-1.132zm1.412-1.274c.001-.073.059-.131.132-.132.037-.002.073.011.1.036s.043.06.044.096v1.527a.86.86 0 0 0 .861.867.87.87 0 0 0 .873-.867V18.94a.1.1 0 0 1 .022-.069c.007-.023.012-.023.018-.023a.1.1 0 0 1 .052-.035h.011.052c.024.007.047.016.068.029.015.012.027.028.035.046s.016.037.017.057v2.457c-.001.353-.143.691-.394.939a1.32 1.32 0 0 1-.943.382 1.41 1.41 0 0 1-.58-.132c-.064-.037-.089-.117-.058-.184s.11-.092.178-.069a1.04 1.04 0 0 0 .46.109c.581.003 1.055-.464 1.062-1.045v-.189a1.16 1.16 0 0 1-.873.4 1.15 1.15 0 0 1-1.137-1.149zm3.238 1.28a1.36 1.36 0 0 1 1.312-1.396 1.36 1.36 0 0 1 1.41 1.296v.023a.13.13 0 0 1-.138.126h-2.308c.014.594.495 1.072 1.09 1.08a1.06 1.06 0 0 0 .908-.511c.018-.03.048-.052.082-.061s.071-.003.101.015c.064.043.085.128.047.195-.244.394-.674.635-1.138.637-.367-.005-.718-.156-.974-.419s-.397-.618-.392-.985zm.293-.224h2.13c-.084-.521-.53-.906-1.057-.913a1.1 1.1 0 0 0-1.073.913zm3.284-1.045c0-.038.015-.074.043-.1s.064-.04.101-.038c.074.002.133.064.131.138v.62c.012-.024.026-.047.041-.069a1.36 1.36 0 0 1 1.125-.689c.037-.001.072.014.098.04s.04.061.04.098a.14.14 0 0 1-.138.138c-.33.011-.635.183-.815.46a2.5 2.5 0 0 0-.339.654c-.008.014-.013.03-.012.046v1.234c.001.036-.012.07-.037.096s-.059.041-.094.042-.075-.012-.102-.038-.043-.062-.042-.1zm4.679-.942l-.568.334c-.021.013-.044.021-.069.023-.049 0-.095-.026-.12-.069-.02-.032-.026-.07-.016-.106s.034-.067.067-.084l.776-.471c.067-.034.148-.012.188.052.017.03.023.066.018.1v3.695c.001.037-.014.072-.04.098s-.061.04-.098.04a.14.14 0 0 1-.138-.138zm-18.011 11.894h-.008a.14.14 0 0 1-.139-.138V26.02c0-.078.063-.141.141-.141s.141.063.141.141v3.6h1.923c.038 0 .075.015.102.042s.042.064.042.102-.016.073-.043.099a.14.14 0 0 1-.101.039zm5.38-2.677v2.538c0 .076-.062.137-.137.137s-.137-.062-.137-.137v-.419c-.243.344-.636.551-1.057.557a1.41 1.41 0 0 1-1.325-1.407 1.41 1.41 0 0 1 1.325-1.406 1.31 1.31 0 0 1 1.057.551v-.414c0-.076.062-.137.137-.137s.137.062.137.137zm-.275 1.269a1.06 1.06 0 0 0-1.104-.986 1.06 1.06 0 0 0-1.011 1.082 1.06 1.06 0 0 0 1.058 1.035 1.1 1.1 0 0 0 1.057-1.131zm1.412-1.275c.001-.072.06-.13.132-.131.037-.002.072.01.1.035s.043.059.044.096v1.528a.86.86 0 0 0 .861.867.87.87 0 0 0 .873-.867V27.22a.1.1 0 0 1 .022-.069c.007-.023.012-.023.018-.023a.1.1 0 0 1 .052-.034h.011.052a.28.28 0 0 1 .068.028c.015.013.027.028.035.046s.016.037.017.057v2.458c-.001.353-.143.691-.394.939a1.32 1.32 0 0 1-.943.382c-.201-.002-.398-.047-.58-.133-.064-.036-.09-.116-.058-.183s.11-.093.178-.069a1.04 1.04 0 0 0 .46.109c.581.003 1.055-.464 1.062-1.045v-.184c-.22.253-.538.398-.873.4a1.15 1.15 0 0 1-1.137-1.148zm3.238 1.283a1.36 1.36 0 0 1 1.312-1.396 1.36 1.36 0 0 1 1.41 1.296v.023a.13.13 0 0 1-.138.126h-2.308c.014.594.496 1.071 1.09 1.079a1.06 1.06 0 0 0 .908-.511c.038-.063.12-.083.183-.046.067.043.088.132.047.2-.244.394-.674.635-1.138.637-.368-.005-.719-.156-.975-.42a1.39 1.39 0 0 1-.391-.988zm.293-.224h2.13c-.084-.521-.53-.906-1.057-.913a1.1 1.1 0 0 0-1.073.911zm3.284-1.047c0-.038.015-.074.042-.1s.064-.04.102-.038.07.016.094.042.038.061.037.096v.62a.5.5 0 0 1 .041-.069c.23-.409.656-.67 1.125-.689.037-.001.072.014.098.04s.04.061.04.098a.14.14 0 0 1-.138.138c-.33.011-.634.182-.815.459-.145.2-.259.421-.339.655-.008.014-.013.03-.012.046v1.234c.002.074-.057.136-.131.138-.038.002-.074-.012-.101-.038s-.043-.062-.043-.1zm4.019 2.423l1.878-1.694a1.04 1.04 0 0 0 .344-.769c-.005-.568-.465-1.026-1.033-1.028a1.05 1.05 0 0 0-.7.264l-.195.178c-.056.045-.138.04-.187-.013s-.05-.134-.002-.187l.2-.183a1.34 1.34 0 0 1 .89-.339 1.32 1.32 0 0 1 .878 2.285l-1.607 1.452h1.9c.077.002.139.067.137.144s-.061.137-.137.138h-2.262c-.038.002-.075-.013-.1-.041a.15.15 0 0 1-.004-.207zm-17.351 8.527h-.008a.14.14 0 0 1-.139-.137v-3.742c0-.078.063-.141.141-.141s.141.063.141.141v3.6h1.923c.053-.004.104.021.132.067s.028.102 0 .148-.079.071-.132.067zm5.38-2.679v2.538c0 .076-.062.137-.137.137s-.137-.062-.137-.137v-.42c-.243.344-.636.551-1.057.557a1.41 1.41 0 0 1-1.325-1.406 1.41 1.41 0 0 1 1.325-1.406 1.31 1.31 0 0 1 1.057.551v-.413c0-.076.062-.137.137-.137s.137.062.137.137zm-.275 1.268a1.06 1.06 0 0 0-1.105-.985 1.06 1.06 0 0 0-1.01 1.082 1.06 1.06 0 0 0 1.058 1.035 1.1 1.1 0 0 0 1.057-1.128zm1.412-1.268c.001-.073.059-.131.132-.132.037-.002.073.011.1.036s.043.06.044.096v1.527a.86.86 0 0 0 .861.867.87.87 0 0 0 .873-.867v-1.527a.1.1 0 0 1 .022-.069c.007-.023.012-.023.018-.023a.1.1 0 0 1 .052-.034h.011l.052-.006a.33.33 0 0 1 .068.029c.015.012.027.028.035.046s.016.037.017.057v2.457c-.001.353-.143.691-.394.939a1.32 1.32 0 0 1-.943.382 1.41 1.41 0 0 1-.58-.132c-.064-.037-.09-.117-.058-.184s.11-.092.178-.069a1.04 1.04 0 0 0 .46.109c.581.003 1.056-.464 1.062-1.045v-.184a1.16 1.16 0 0 1-.873.4 1.15 1.15 0 0 1-1.137-1.149zm3.238 1.278a1.36 1.36 0 0 1 1.312-1.396 1.36 1.36 0 0 1 1.41 1.296v.022a.13.13 0 0 1-.138.126h-2.308c.014.594.495 1.072 1.09 1.08a1.06 1.06 0 0 0 .908-.511c.018-.03.048-.052.082-.061s.071-.003.101.015c.064.043.085.128.047.195-.244.394-.674.635-1.138.637-.765-.01-1.376-.638-1.366-1.403zm.293-.224h2.13c-.084-.521-.53-.906-1.057-.913a1.1 1.1 0 0 0-1.073.913zm3.284-1.045c0-.038.015-.074.043-.099s.064-.039.101-.038.069.016.094.041a.13.13 0 0 1 .037.096v.621a.61.61 0 0 1 .041-.07c.231-.408.656-.669 1.125-.688.037-.001.072.014.098.039s.04.061.04.098a.14.14 0 0 1-.138.139c-.33.011-.634.182-.815.459a2.51 2.51 0 0 0-.339.654c-.008.014-.012.03-.012.046v1.235c.001.036-.013.07-.037.096s-.058.041-.094.041-.074-.012-.101-.038-.043-.062-.043-.099zm6.453-1.096l-1.039 1.068c.57.119 1.001.586 1.074 1.164a1.36 1.36 0 0 1-.752 1.394c-.523.256-1.15.153-1.563-.258-.047-.056-.043-.139.009-.191s.135-.056.191-.009a1.08 1.08 0 0 0 .758.311c.286 0 .56-.112.764-.311s.317-.477.316-.763a1.08 1.08 0 0 0-1.074-1.074c-.045-.001-.087-.022-.115-.057h-.006c-.057-.057-.057-.15 0-.207l1-1.028h-1.538c-.054.005-.106-.022-.135-.068s-.028-.105 0-.151.081-.073.135-.068h1.881c.038 0 .075.015.102.042a.14.14 0 0 1 .041.102c-.001.038-.019.079-.046.109z"/></g><path d="M403.999 24.722h1.801v6.825h-1.801z" class="J"/><path d="M403.999 32.578h1.801v6.825h-1.801z" class="B"/><path d="M403.999 16.498h1.801v6.825h-1.801z" class="E"/><g class="C"><path d="M386.228 43.645h10.571v.241h-10.571zm10.881-24.154h3.66v3.075h-3.66z"/><path d="M400.327 19.83h-.426v-.808c0-.89-.315-1.341-.935-1.341-1.007 0-1.018 1.19-1.018 1.24v.909h-.426v-.909a1.51 1.51 0 0 1 1.444-1.666c.878 0 1.361.628 1.361 1.767zm36.655 1.952a1.87 1.87 0 1 1 1.871-1.871c-.001 1.033-.838 1.87-1.871 1.871zm0-3.5a1.63 1.63 0 1 0 1.631 1.631 1.63 1.63 0 0 0-1.631-1.633zm0 11.721a1.87 1.87 0 1 1 1.871-1.872c-.001 1.033-.838 1.87-1.871 1.872zm0-3.5a1.63 1.63 0 0 0 .001 3.26 1.63 1.63 0 1 0-.001-3.26zm0 11.726a1.87 1.87 0 1 1 1.871-1.871c-.001 1.033-.838 1.87-1.871 1.871zm0-3.5a1.63 1.63 0 1 0 1.631 1.631 1.63 1.63 0 0 0-1.631-1.633z"/></g><path d="M331.469 258.133l-2.586 15.508-17.519 94.608h-2.824l12.739-94.608 1.883-15.508z" class="F"/><path d="M323.162 258.133h8.307l-2.586 15.508h-7.6z" class="H"/><path d="M386.484 368.25h-2.824l-17.519-94.608-2.586-15.508h8.307l1.885 15.508z" class="F"/><path d="M371.862 258.133l1.885 15.509h-7.6l-2.586-15.508z" class="H"/><path d="M439.031 368.25h-2.824l-17.519-94.608-2.586-15.508h8.307l1.883 15.508z" class="F"/><path d="M426.291 273.642h-7.6l-2.586-15.508h8.307z" class="H"/><path d="M434.547 265.42H306.181v-13.526h48.056l16.15-113.967h59.271z" class="F"/><g class="P"><path d="M427.073 251.894H306.181v13.526h121.373z"/><path d="M434.547 265.42h-7l-4.561-127.493h6.664z"/></g><path d="M303.964 385.945c2.486.235 70.153-15.956 72.283-18.153.26-.244-1.076-6.395-3.039-14.781l-.039-.165c-1.225-5.317-20.986-48.312-20.986-48.312l-43.856 12.277 19.971 39.892s-8.25 5.969-15.323 11.636c-.008.012-.017.014-.015.024-4.369 3.48-8.134 6.606-8.933 7.618-2.068 2.64-2.544 9.75-.063 9.964z" class="G"/><path d="M303.967 385.942c2.48.236 70.145-15.956 72.284-18.149.259-.249-1.082-6.392-3.043-14.784l-.04-.159c-.45-1.981-3.494-9.207-7.118-17.488l-42.486 11.884 4.729 9.457s-8.248 5.974-15.322 11.637c0 .01-.01.01-.01.02-4.368 3.48-8.139 6.611-8.934 7.617-2.069 2.648-2.549 9.758-.06 9.965z" class="D"/><path d="M303.747 386.268c2.557.219 70.27-16.158 72.458-18.414.834-.852-.675-11.538-4.4-22.859l-43.641 10.608s-22.277 17.671-24.411 20.4c-2.119 2.735-2.567 10.045-.006 10.265z" class="K"/><g class="B"><path d="M304.059 383.324c11.283-3.024 57.079-14.156 68.462-16.287.093-.018.108.044.017.071-11.118 3.241-57 14-68.435 16.4-.241.053-.282-.12-.044-.184zm3.461-10.804a9.38 9.38 0 0 1 7.46 1.13 9.09 9.09 0 0 1 4 5.447c.014.068-.11.1-.137.032a10.84 10.84 0 0 0-11.292-6.466c-.037.002-.069-.022-.077-.058s.012-.072.046-.085zm17.358-14.917c4.528-1.162 10.183-.832 13.9 2.2.144.117-.025.32-.176.284a64.61 64.61 0 0 0-13.672-1.907c-.142-.012-.256-.124-.269-.267s.079-.273.217-.31zm-3.176 2.218c4.528-1.162 10.183-.833 13.9 2.2.144.118-.025.321-.177.284a64.6 64.6 0 0 0-13.671-1.906c-.144-.01-.259-.123-.272-.267s.08-.275.22-.311zm-3.177 2.215c4.528-1.162 10.183-.832 13.9 2.2.144.117-.025.32-.177.283a64.7 64.7 0 0 0-13.671-1.906c-.142-.012-.256-.124-.269-.267s.079-.273.217-.31zm-3.178 2.216c4.528-1.162 10.182-.832 13.9 2.2.145.118-.024.321-.176.284a64.6 64.6 0 0 0-13.671-1.906c-.144-.01-.259-.123-.272-.266s.08-.276.219-.312zm51.675-7.297c5.1-1.218 7 6.707 1.893 7.927s-7.002-6.707-1.893-7.927z"/><path d="M319.01 353.241c3.216 2.57 7.433 3.658 11.209 5.113a.57.57 0 0 0 .728-.564c.039-.002.075-.022.097-.055s.027-.073.014-.11a24.53 24.53 0 0 0-6.938-10.619c-1.9-1.637-5.245-2.8-7.083-.337-1.739 2.334.094 5.071 1.973 6.572zm-1.121-3.713c-.744-5.052 4.634-2.334 5.984-1.071.859.832 1.661 1.722 2.4 2.663 1.498 1.966 2.895 4.006 4.188 6.112-1.811-.828-3.677-1.494-5.516-2.255-2.192-.907-6.646-2.663-7.056-5.449z"/><path d="M346.491 350.826c-1.074-2.88-4.614-2.7-6.894-1.664a24.52 24.52 0 0 0-9.639 8.245c-.023.032-.03.072-.018.11s.041.067.078.079a.57.57 0 0 0 .541.746c4.032-.337 8.385-.2 12.194-1.762 2.223-.914 4.753-3.03 3.738-5.754zm-9.923 5.754c-1.98.214-3.957.33-5.928.617a73.55 73.55 0 0 1 5.735-4.692 26.33 26.33 0 0 1 3.052-1.882c1.65-.833 7.574-1.933 5.443 2.707-1.175 2.559-5.943 2.995-8.302 3.25z"/></g><path d="M323.332 353.052l46.986-14.092s-38.728-80.71-37.507-84.816c.816-2.742 58.884-2.932 75.9-18.213 17.615-15.817 3.9-46.885 3.9-46.885l-48.82-.251s.838 10.19-1.027 11.774c-1.23 1.057-67.979 6.93-80.761 31.472-11.6 22.276 41.329 121.011 41.329 121.011z" class="Q"/><path d="M332.809 254.142c-.211.692.732 3.593 2.452 7.93l-35.089 43.111c-12.514-28.525-24.278-61.422-18.17-73.139 12.788-24.541 79.528-30.417 80.768-31.472 1.855-1.584 1.019-11.779 1.019-11.779l30.988.16-51.5 63.258c-6.203.684-10.257 1.217-10.468 1.931z" class="B"/><path d="M322.166 343.112a29.19 29.19 0 0 1 3.831-1.424l4.073-1.364 8.082-2.454 16.419-4.453 9.384-2.259c.183.029.224.335.06.393-5.31 1.9-10.7 3.529-16.1 5.174s-10.777 3.264-16.235 4.641l-4.548 1.084c-1.583.461-3.197.807-4.83 1.035-.155.018-.307-.282-.136-.373zm87.823-144.766l-.517-4.883c-.022-.188-.317-.186-.3.006.651 6.6 1.32 13.361.105 19.94-1.114 6.074-4.175 11.62-8.72 15.8-9.686 9.032-23.229 11.692-35.848 13.839-7.228 1.23-14.5 2.175-21.795 2.891q-5.361.527-10.738.86c-3.552.221-7.111.256-10.662.453-1.122.062-2.123.575-1.948 1.857a8.97 8.97 0 0 0 .854 2.242l1.142 2.589q2.138 4.836 4.3 9.662 4.458 9.943 9.043 19.83 9.1 19.629 18.882 38.937 1.212 2.4 2.433 4.789c.053.1.2.009.154-.1q-9.342-19.549-18.456-39.21l-9.008-19.531q-2.234-4.89-4.441-9.792-1.1-2.451-2.2-4.9l-1.1-2.455c-.3-.68-1.408-2.31-.646-2.946.509-.425 1.567-.279 2.177-.3l2.833-.094q2.691-.09 5.38-.222 5.448-.275 10.884-.745c7.1-.615 14.17-1.514 21.2-2.646 12.54-2.017 26.177-4.293 36.213-12.711 4.49-3.658 7.832-8.531 9.627-14.038 1.923-6.165 1.74-12.765 1.152-19.122z" class="J"/><path d="M200.727 324.082c1.766 1.766 64.211 32.448 67.253 32.114.357-.022 3.25-5.611 7.086-13.323l.076-.152c2.446-4.877 24.661-45.9 24.661-45.9l-38.851-19.669-22.831 39.927s-10.161-.664-19.223-.81c-.014.005-.022 0-.027.009-5.584-.105-10.478-.1-11.739.171-3.278.712-8.179 5.885-6.405 7.633z" class="G"/><path d="M200.726 324.079c1.767 1.765 64.212 32.451 67.259 32.115.353-.017 3.247-5.611 7.081-13.317l.076-.152.529-1.028q.182-.378.388-.741c.185-.364.384-.733.583-1.1l7.529-14.081-39.614-19.967-6.438 11.265s-10.159-.66-19.222-.81c-.014 0-.023 0-.028.008-5.582-.1-10.479-.1-11.734.172-3.278.721-8.188 5.888-6.409 7.636z" class="D"/><path d="M200.347 324.189c1.83 1.8 64.43 32.368 67.555 32.026 1.185-.124 6.838-9.318 11.192-20.41l-40.383-19.66s-28.428-.6-31.814.149-8.375 6.095-6.55 7.895z" class="E"/><g class="B"><path d="M202.472 322.123c10.619 4.867 52.992 25.5 63.12 31.115.082.046.054.1-.032.066-10.631-4.594-52.836-25.567-63.173-31.009-.218-.115-.14-.275.085-.172zm9.555-6.12c2.389 1.09 4.212 3.131 5.027 5.628a9.09 9.09 0 0 1-.391 6.748c-.033.062-.149.007-.127-.062a10.84 10.84 0 0 0-4.573-12.182c-.036-.018-.052-.062-.034-.098s.062-.052.098-.034zm22.883-.413c4.229 1.993 8.374 5.853 9.307 10.563.036.182-.224.231-.317.106a64.62 64.62 0 0 0-9.315-10.187c-.107-.098-.126-.26-.045-.381s.238-.164.37-.101zm-3.863-.319c4.229 1.992 8.374 5.853 9.307 10.562.036.183-.224.232-.317.106a64.61 64.61 0 0 0-9.315-10.187c-.105-.099-.123-.259-.042-.379s.236-.163.367-.102zm-3.857-.32c4.229 1.993 8.375 5.854 9.307 10.563.037.183-.223.231-.317.106a64.61 64.61 0 0 0-9.315-10.187c-.107-.098-.126-.26-.045-.381s.238-.164.37-.101zm-3.859-.319c4.228 1.993 8.374 5.853 9.307 10.563.036.182-.224.231-.317.106-2.732-3.719-5.855-7.134-9.315-10.187-.107-.098-.126-.26-.045-.381s.238-.164.37-.101zm44.455 27.334c4.706 2.315 1.116 9.632-3.6 7.313s-1.114-9.632 3.6-7.313z"/><path d="M233.173 308.486c.838 4.031 3.393 7.558 5.373 11.087a.57.57 0 0 0 .921.03c.031.023.072.03.109.019s.067-.039.081-.075c1.572-4.002 2.064-8.347 1.428-12.6-.417-2.47-2.254-5.5-5.241-4.776-2.825.68-3.161 3.961-2.671 6.315zm1.5-3.575c2.65-4.365 5.058 1.158 5.293 2.991.131 1.19.182 2.387.151 3.583a73.44 73.44 0 0 1-.673 7.379c-.866-1.793-1.879-3.5-2.81-5.255-1.107-2.097-3.418-6.291-1.957-8.698z"/><path d="M255.88 324.151c1.01-2.9-1.829-5.024-4.248-5.678-4.172-1.047-8.546-.978-12.683.2-.038.01-.069.037-.084.073s-.011.077.01.111a.57.57 0 0 0-.06.919c3.321 2.312 6.585 5.2 10.516 6.419 2.296.719 5.594.702 6.549-2.044zm-11.313-1.895c-1.661-1.1-3.258-2.27-4.959-3.306a73.56 73.56 0 0 1 7.41.044 26.39 26.39 0 0 1 3.551.5c1.8.411 7.067 3.342 2.466 5.557-2.537 1.218-6.488-1.487-8.468-2.795z"/></g><path d="M238.316 310.614l46.847 23.408s36.565-74.342 40.578-79.133c5.348-6.386 75 2.633 91.432-17.99 16.99-21.329 2.432-47.816 2.432-47.816l-53.022-.033s-.157 5.881 2.9 14.478c0 0-60.63-3.607-77.786 13.07-13.17 12.805-53.381 94.016-53.381 94.016z" class="O"/><g class="J"><path d="M379.147 208.881c-2.716-1.868-5.532-3.589-8.434-5.153-2.04-1.068-4.18-1.932-6.389-2.581-1.546-.375-2.224-.488-.773.2l3.9 1.853-.822-.031-3.127-.117-6.118-.051c-4.138-.024-8.234.367-12.361.574-.047 0-.085.038-.085.085s.038.085.085.085c4.118-.134 8.256.085 12.377.068 2.041-.008 4.078.05 6.119.088q1.494.028 2.989.053c.843.045 1.689.045 2.532 0l1.137.539c3 1.413 5.989 2.889 8.876 4.515.089.048.178-.069.094-.127z"/><path d="M365.331 187.067l1.628 7.5.959 3.4c.329.936.839 2.008 1.9 2.251 1.224.279 1.612-.764 1.546-1.785-.074-1.139-.326-2.287-.513-3.411l-.624-3.894-.283-1.952-.178-1.764c-.011.03-.031.058-.07.051l-.043-.007c-.036-.004-.066-.031-.073-.067-.009-.1-.007-.118.068-.184a.1.1 0 0 1 .113 0c.232.137.238.46.306.7l.524 1.908.859 3.6.768 3.617a5.62 5.62 0 0 1 .147 2.764 2.1 2.1 0 0 1-2 1.521l.123.246c.1.248.171.511.254.765l.228.784a2.4 2.4 0 0 1 .059.386c.011.144-.023.283-.01.428.015.1-.045.197-.141.228s-.201-.012-.248-.103c-.06-.129-.152-.23-.22-.354a2.21 2.21 0 0 1-.164-.422l-.194-.757-.16-.763c-.023-.152-.023-.306-.031-.459a2.85 2.85 0 0 1-1.414-.591 4.79 4.79 0 0 1-1.4-2.317c-.34-1.045-.594-2.124-.849-3.192a46.47 46.47 0 0 1-1.312-8.047.23.23 0 0 1 .188-.229.23.23 0 0 1 .257.149zm25.564 7.123l.527 3.717.875 3.583c.315 1.143.788 2.237 1.406 3.249a11.98 11.98 0 0 0 2.325 2.533c1.706 1.45 3.638 2.612 5.718 3.44 1.046.418 2.116.771 3.205 1.057l1.72.361a3.65 3.65 0 0 1 1.383.37c.08.058.123.154.115.253a.28.28 0 0 1-.157.229 5.05 5.05 0 0 1-2.58-.005 18.91 18.91 0 0 1-2.737-.576 19.98 19.98 0 0 1-5.129-2.368c-1.612-.981-3.043-2.233-4.23-3.7a12.36 12.36 0 0 1-2.155-5.176 25.2 25.2 0 0 1-.525-6.951c.005-.06.053-.108.113-.112a.12.12 0 0 1 .126.096zm-143.072 107.9a29.37 29.37 0 0 1 3.763 1.6l3.9 1.8 7.561 3.765 14.995 8.036 8.373 4.8c.114.146-.067.4-.226.327-5.166-2.265-10.205-4.784-15.254-7.291s-10.077-5.025-14.991-7.771l-4.051-2.335a33.92 33.92 0 0 1-4.222-2.564c-.124-.098-.032-.421.152-.367zm171.745-100.678c-.009-.092-.087-.162-.179-.16s-.167.075-.172.167c.1 11.513-1.678 24.386-10.539 32.644-9.717 9.055-23.734 10.136-36.349 10.03-7.241-.061-14.468-.245-21.71-.015-7.273.231-14.62.588-21.843 1.511a11.91 11.91 0 0 0-7.417 3.547c-1.898 2.163-3.546 4.534-4.912 7.067q-5.463 9.051-10.584 18.3-10.178 18.386-18.835 37.55-1.075 2.377-2.13 4.766c-.046.1.109.194.158.088q8.8-19.221 18.936-37.788 5.049-9.288 10.443-18.382c1.69-2.849 3.326-5.766 5.21-8.493 1.665-2.41 3.749-4.675 6.635-5.55 1.767-.442 3.574-.704 5.394-.784q2.775-.255 5.553-.457 5.413-.4 10.84-.593c7.3-.266 14.588-.177 21.889-.045 12.675.23 26.522-.207 37.031-8.275a29.86 29.86 0 0 0 9.76-13.637 53.93 53.93 0 0 0 2.824-17.14 88.89 88.89 0 0 0-.003-4.351zm-75.88 50.426l-7.756.241a30.6 30.6 0 0 0-6.417.573c-1.956.487-3.511.724-5.112 2.912-2 2.733-12.884 23.76-17.455 33.07q-1.9 3.871-3.747 7.769c-1.268 2.686-2.391 5.439-3.654 8.126-.047.1.1.181.149.082 1.119-2.247 2.365-4.433 3.521-6.662l3.4-6.729q3.4-6.809 6.816-13.611c2.262-4.492 5.009-8.872 7.3-13.347 1.929-3.761 4.56-8.895 6.4-9.656 2.566-1.009 5.257-1.663 8-1.944l8.549-.619c.057.002.104-.043.106-.099s-.043-.104-.099-.106z"/></g><g class="B"><path d="M400.674 117.117c2.432 9.613 6.971 20.742 4.748 30.775-1.754 7.861-7.54 14.1-13.919 18.654-14.037 10.007-35.474 15.338-49.441 2.234-5.577-5.236-8.937-17.838-2.733-23.978 3.19-3.146 7.452-4.6 11.377-6.578a18.1 18.1 0 0 0 10-12.118c2.914-10.967.427-18.049-.837-29.005a7.83 7.83 0 0 1 1.46-6.187c3.031-3.736 7.261-6.308 11.973-7.281 4.87-.481 10.347 2.974 14.6 4.954 4.3 2.008 6.613 4.552 7.864 9.175l4.908 19.355z"/><path d="M402.814 121.444l-8.669-25.893c-.017-.052-.1-.035-.085.02l6.557 21.5c2.236 7 5.016 14.041 6.631 21.211 3.626 16.1-11.637 26.088-25.539 28.121-.633.092-.414 1.089.223.975 12.149-2.169 25.723-9.261 26.671-23.143.519-7.596-3.503-15.705-5.789-22.791zm-42.345-25.352c-.019-.07-.09-.113-.161-.096s-.117.085-.104.156c1.421 8.969 3.92 19.294.451 28.072-1.712 4.323-4.691 8.026-8.547 10.624-3.056 2.044-6.57 2.889-9.918 4.292-13.092 5.483-9.437 23.932 1.952 29.079.24.108.435-.3.2-.419-8.12-4.126-12.5-13.76-8.334-22.349 3.342-6.893 12.5-6.806 18.066-11.3 11.534-9.313 9.321-25.212 6.395-38.059z"/></g><path d="M384.623 132.366c-6.01 12.987-26.54 43.112-36.432 44.486-8.752 1.215-30.417-3.82-37.716-7.829-3.355-1.843 5.087-26.706 10.719-25.525 7.039 1.475 16.565 4.949 23.09 5.353 2.309.143 13.43-7.8 33.02-20.7 7.285-4.801 10.704-3.1 7.319 4.215zm-74.762 14.227s-17.426-2.695-18.322-2.53-.708 1.452-.6 2.461a9.37 9.37 0 0 0 .76 1.676c1.311 2.587 3.522 7.209.01 8.258-4.62 1.379-9.608-9-10.133-10.745a5.63 5.63 0 0 1 .138-2.4c.628-2.843 2.6-6.989 5.957-8.058 4.6-1.468 9.856-.829 14.457-.6z" class="G"/><path d="M309.861 146.593s-17.426-2.695-18.322-2.53-.708 1.452-.6 2.461a9.37 9.37 0 0 0 .76 1.676l-9.985-4.89c.628-2.843 2.6-6.989 5.957-8.058 4.6-1.468 9.856-.829 14.457-.6z" class="B"/><path d="M310.475 169.023c-.911-.487-5.6-1.87-11.929-4.064-1.7-4.891-6.232-14.238-7.42-16.718-.851-2.985-4.371-8.882-4.645-8.749-.513.249-2.328 1.128-4.615 2.019-3.023 1.172-6.866 2.378-9.616 2.2-1.308.069-2.546-.595-3.212-1.724-.987-2.023 3.353-4.369 8.252-7.6 6.665-4.407 15.093-9.456 19.218-8.24 6.1 1.8 12.11 9.25 14.155 11.26s10.531 6.087 10.531 6.087c-1.74 9.148-9.497 26.169-10.719 25.529z" class="G"/><path d="M290.435 146.385c-.074-.123-.145-.061-.09.092.176.48.93 2.629.462 2.861-.815.4-5.691-2.226-7.929-2.971-.121-.04-.188.123-.071.154a35.35 35.35 0 0 1 3.287 1.571c1.027.51 4.041 2.289 5.066 1.779.687-.341-.43-3.006-.725-3.486zm-23.882 11.718c-.6.587-1.268 1.066-1.553.795l-.009-.01c-.263-.292.232-.945.834-1.531z" class="B"/><path d="M273.528 157.277c-.628.613-5.4 1.1-7.168 1.014a.87.87 0 0 1-.735-.734c-.04-1.744.572-6.539 1.2-7.154.428-.416 2.415-1.452 4.347-2.659 2.53-1.566 29.695-26.741 30.142-26.861s1.259.552 1.664.968 1.068 1.257.937 1.7-25.99 26.958-27.619 29.448c-1.254 1.904-2.34 3.861-2.768 4.278z" fill="#37474f"/><path d="M273.525 157.281a.6.6 0 0 1-.241.141c-1.488-.94-2.864-2.047-4.1-3.3-1.002-1.003-1.858-2.142-2.542-3.384.033-.125.097-.239.186-.333a2.49 2.49 0 0 1 .309-.245c.579 1.175 2.324 4.032 6.665 6.778a2.1 2.1 0 0 1-.277.343z" class="H"/><rect width="1.976" height="12.102" rx=".73" transform="matrix(.698 .716 -.716 .698 281.082 141.831)" class="B"/><rect width="1.154" height="7.683" rx=".426" transform="matrix(.698 .716 -.716 .698 278.587 144.836)" class="H"/><path d="M274.902 148.431l.243-.237.803.824-.243.237z" class="B"/><path d="M298.547 164.959l-5.428-1.78c-4.041-1.064-7.52-3.637-9.722-7.189-2.081-3.06-12.729-6.34-7.549-9.556s14.456 4.657 15.359 3.3c.156-.491.128-1.022-.08-1.494 1.187 2.481 5.72 11.828 7.42 16.719z" class="G"/><path d="M354.817 140.203l21.53 8.63s6.8-9.472 9.822-15.244c4-7.638 2.1-10.914-7.754-7.093-6.594 2.554-23.598 13.707-23.598 13.707z" class="E"/><path d="M373.719 147.784c.248.051 2.489.864 2.632.969l2.313-3.4 1.2-1.669 1.333-1.855c.062-.084.175-.013.121.077l-1.2 1.937-1.093 1.707-2.451 3.627c-.992-.372-1.958-.811-2.891-1.313-.036-.028-.003-.088.036-.08zm-15.899-8.75c3.22 1.039 6.418 2.122 9.572 3.349q2.361.918 4.691 1.906c1.552.659 3.041 1.479 4.6 2.114.085.034.024.17-.061.131-1.521-.716-3.156-1.231-4.715-1.862l-4.705-1.877-9.442-3.63c-.089-.032-.026-.162.06-.131z" class="B"/><path d="M362.002 191.515l61.169 4.942s-15.655-53.366-28.263-66.837c-5.738-6.131-11.346-5.194-16.1-1.251-1.186.986-15.886 19.644-17.132 26.147-1.1 5.747 3.571 12.125 3.571 12.125z" class="K"/><path d="M371.061 138.261c-1.842 2.942-3.847 5.776-5.7 8.7a40.64 40.64 0 0 0-2.583 4.469 11.43 11.43 0 0 0-1.264 4.948c-.098-.872-.064-1.754.1-2.616s.432-1.703.784-2.507a33.92 33.92 0 0 1 2.507-4.588c.883-1.33 1.788-2.66 2.725-3.946.152-.457.338-.9.512-1.351a15.54 15.54 0 0 1 .959-1.9c-.192.68-.428 1.346-.708 1.995-.087.185-.164.36-.24.545.935-1.275 1.905-2.529 2.908-3.749z" class="B"/><path d="M410.987 160.703c-2.403 1.018-4.898 1.805-7.45 2.35a7.91 7.91 0 0 1-2.28.09 3.53 3.53 0 0 1-2.08-.92c-1.014-1.161-1.634-2.614-1.77-4.15-.233-1.762-.376-3.534-.43-5.31a2.11 2.11 0 0 0-.02-.26l-.23-3.47c-.125-1.495-.393-2.976-.8-4.42-.391-1.446-1.079-2.795-2.02-3.96s-2.183-2.044-3.59-2.55c-1.427-.456-2.925-.646-4.42-.56-2.072.112-4.132.39-6.16.83a1.7 1.7 0 0 1-.22.04l-2.54.54-7.34 1.32.14-.21c2.41-.28 4.78-.8 7.16-1.31l2.65-.56c.069-.018.139-.032.21-.04a36.58 36.58 0 0 1 6.09-.84c1.525-.084 3.052.105 4.51.56 1.45.523 2.732 1.428 3.71 2.62a11.09 11.09 0 0 1 2.05 4.05c.41 1.461.678 2.958.8 4.47l.22 3.27.02.26a52.74 52.74 0 0 0 .42 5.49c.125 1.493.72 2.907 1.7 4.04 1.08 1.06 2.75 1.03 4.19.79 2.54-.536 5.025-1.309 7.42-2.31zm-36.25 26.12a7.2 7.2 0 0 0-3.96-2.16 3.52 3.52 0 0 0-2.21.57c-.643.414-1.226.915-1.73 1.49-1.298 1.524-2.453 3.164-3.45 4.9l.2.02a32.34 32.34 0 0 1 3.39-4.79c.98-1.08 2.28-2.15 3.78-1.99 1.472.277 2.817 1.016 3.84 2.11 1.97 1.85 3.64 4 5.49 6l.35.03-5.7-6.18zm42.62-8.52l-.64.05c-3.023.483-5.818 1.903-7.99 4.06a59.56 59.56 0 0 0-6.1 6.7l-4.67 5.3.29.03c1.63-1.64 3.07-3.43 4.54-5.2a61.17 61.17 0 0 1 6.06-6.69 14.5 14.5 0 0 1 7.88-4.04l.69-.05-.06-.16zm-11.95-30.91a15 15 0 0 0-7.5 4.18l-.73.71-.22.22c-1.8 1.85-3.4 3.89-5 5.9l-4.53 5.39-.19.19-1.24 1.2a12.39 12.39 0 0 1-3.76 2.39 8.3 8.3 0 0 1-4.39.34 11.08 11.08 0 0 1-4.08-1.77c-1.238-.849-2.39-1.817-3.44-2.89l-6.3-6.51a10.21 10.21 0 0 0-2.44-1.66l-.03.22a9.4 9.4 0 0 1 2.34 1.59c2.24 2.01 4.11 4.4 6.26 6.53a23.72 23.72 0 0 0 3.48 2.92c1.248.888 2.669 1.505 4.17 1.81 1.511.295 3.073.174 4.52-.35 1.412-.576 2.707-1.407 3.82-2.45l1.36-1.32c.07-.06.13-.13.19-.19 1.59-1.68 3-3.51 4.43-5.31a72.53 72.53 0 0 1 4.85-5.77 2.28 2.28 0 0 1 .22-.22l.84-.83c2.013-2.088 4.598-3.535 7.43-4.16l-.06-.16zm-6.48 20.05a7.27 7.27 0 0 0-3.92-2.22c-2.41-.65-4.88-.94-7.31-1.38a2.56 2.56 0 0 0-.27-.05l-1.32-.27a23.8 23.8 0 0 1-4.31-1.3 11.01 11.01 0 0 1-3.71-2.45c-1.043-1.071-1.775-2.405-2.12-3.86-.287-1.471-.304-2.983-.05-4.46.556-2.96 1.362-5.867 2.41-8.69l1.41-4.39.06-.22a38.41 38.41 0 0 0 .99-4.11c.48-2.325.45-4.728-.09-7.04l-.15.09a16.26 16.26 0 0 1 .05 6.91 39.93 39.93 0 0 1-1.01 4.19 1.42 1.42 0 0 0-.07.22l-1.39 4.28a54.58 54.58 0 0 0-2.44 8.73 12.6 12.6 0 0 0 .05 4.54 8.47 8.47 0 0 0 2.17 3.98c1.082 1.085 2.375 1.936 3.8 2.5a23.65 23.65 0 0 0 4.35 1.3l1.18.24.27.05 7.44 1.39c1.468.29 2.806 1.039 3.82 2.14.93 1.2.71 2.86.31 4.26a49.75 49.75 0 0 1-3.71 8.23 55.15 55.15 0 0 0-3.69 8.27c-.487 1.436-.733 2.943-.73 4.46a7.9 7.9 0 0 0 .11 1.08l.14.01a6.61 6.61 0 0 1-.12-1.09 13.62 13.62 0 0 1 .74-4.42 55.78 55.78 0 0 1 3.7-8.24 50.63 50.63 0 0 0 3.74-8.25 8.14 8.14 0 0 0 .36-2.25 3.56 3.56 0 0 0-.69-2.18z" class="D"/><path d="M381.661 165.349c-2.375.071-4.742.319-7.081.74l-3.443.8-1.713.411c-.597.152-1.211.231-1.827.234-.021.003-.036.021-.036.043s.015.039.036.043a12.83 12.83 0 0 0 1.742.07 12.48 12.48 0 0 0 1.678-.215l3.521-.718 7.145-1.216c.107-.008.09-.196-.022-.191zm5.715 2.437a51.81 51.81 0 0 0-5.842-.627c-.981-.046-1.955-.035-2.936 0l-1.4.075-1.538.166c-.054 0-.059.086 0 .085.486-.011.976.058 1.461.075l1.465.047 2.931.1 5.859.235c.099.011.1-.139 0-.156z" class="B"/><path d="M386.893 126.818c.063 1.106-2.889 9.273-7.68 10.446-1.56.38-4.013-8.047-4.013-8.047l-.323-.58-4.518-8.132 8.29-9.582 1.221-1.306 2.417 5.192.189.411c.08.161.157.313.224.466l.607 1.308c.15.335.3.66.444 1.018s.3.7.454 1.057a60.2 60.2 0 0 1 2.688 7.749z" class="G"/><path d="M382.287 114.809a18.66 18.66 0 0 1-7.41 13.828l-4.518-8.132 8.29-9.582 1.221-1.306 2.417 5.192z" class="B"/><path d="M355.077 108.219c.528 16.318 10.361 17.845 13.88 17.727 3.194-.107 14.056-.876 15.217-17.161s-6.592-21.2-13.91-21.341-15.717 4.459-15.187 20.775z" class="G"/><g class="B"><path d="M357.288 105.328a10.72 10.72 0 0 0 1.089-.292 1.82 1.82 0 0 0 1.054-.51.58.58 0 0 0-.039-.708 1.44 1.44 0 0 0-1.437-.259 2.12 2.12 0 0 0-1.285.819.62.62 0 0 0 .618.95zm11.177-.644a10.7 10.7 0 0 1-1.114-.172c-.4-.007-.786-.145-1.1-.393a.58.58 0 0 1-.038-.708 1.44 1.44 0 0 1 1.4-.413c.524.047 1.011.288 1.367.675a.62.62 0 0 1-.515 1.011zm-2.365 4.142c.007-.042.088.05.088.1 0 1.112.186 2.386 1.2 2.723.032.011.03.067-.007.063-1.234-.139-1.46-1.833-1.281-2.886z"/><path d="M367.056 107.635c1.783-.192 2.034 3.388.382 3.566-1.626.174-1.877-3.406-.382-3.566z"/><path d="M367.772 107.775c.327.18.658.516 1.038.527.439.013.742-.385 1-.766.027-.039.06-.01.064.037.058.685-.156 1.408-.884 1.561-.665.141-1.189-.433-1.409-1.11-.034-.121.059-.321.191-.249zm-7.853 1.25c-.012-.042-.082.059-.078.1.122 1.106.075 2.393-.9 2.839-.03.013-.023.069.014.061 1.211-.264 1.256-1.972.964-3z"/><path d="M358.839 107.945c-1.793 0-1.654 3.589.007 3.586 1.635-.004 1.501-3.589-.007-3.586z"/><path d="M358.101 108.209c-.276.2-.543.558-.881.593-.391.041-.7-.336-.961-.7-.028-.037-.055-.006-.054.041.007.687.262 1.391.925 1.5.605.1 1.024-.509 1.161-1.2.025-.126-.079-.315-.19-.234zm8.765 9.711c-.235.289-.457.675-.854.756a2.93 2.93 0 0 1-1.219-.141.04.04 0 0 0-.042.063 1.5 1.5 0 0 0 1.472.437c.446-.174.744-.599.755-1.078.009-.066-.078-.079-.112-.037zm-4.4-1.56c.472.619 1.095 1.106 1.809 1.414a2.05 2.05 0 0 0 1.239.082c.9-.232.922-1.054.76-1.759a4.88 4.88 0 0 0-.4-1.078 5.87 5.87 0 0 1-3.408 1.341z"/></g><path d="M364.275 117.774a2.05 2.05 0 0 0 1.239.082c.9-.232.922-1.054.76-1.759-.974.029-1.801.723-1.999 1.677z" fill="#ff9cbd"/><path d="M361.992 114.179l-.087 2.453c.005.073.2.1.462.1.013 0 .02.008.031 0a3.72 3.72 0 0 0 3.528-1.6c.05-.08-.054-.155-.122-.1a5.61 5.61 0 0 1-3.337 1.171c-.068-.213.322-2.854.2-2.856a6.8 6.8 0 0 0-1.752.506c.175-3.489.907-6.921 1.029-10.4 0-.052-.036-.097-.087-.106s-.101.019-.12.067a56.57 56.57 0 0 0-1.59 11.149c-.036.448 1.54-.233 1.845-.384zm21.012-4.093c-1.774-.112-6.378-5.013-6.487-13.586 0 0 .63 7.691 1.2 8.821s-2.573-2.758-2.758-9.671a27.99 27.99 0 0 1-7.107 3.652c-3.268.9-5.266.864-5.5.627s4.577-1.732 5.882-3.225c0 0-8.7 4-12.7 4.294-.463.034-.979-9.491 5.224-13.508s15.991.383 18.617 2.939c0 0 3.094.452 6.44 5.043s-.899 14.731-2.811 14.614z" class="B"/><g class="E"><path d="M368.247 114.13a5.13 5.13 0 0 1-4.679-5.533h0c.172-2.067 1.572-3.826 3.547-4.457s4.136-.011 5.475 1.573 1.592 3.818.641 5.66a5.13 5.13 0 0 1-4.985 2.758zm-4-5.476a4.44 4.44 0 0 0 4.05 4.795 4.44 4.44 0 0 0 4.797-4.048 4.44 4.44 0 0 0-4.047-4.798 4.39 4.39 0 0 0-1.1.045 4.45 4.45 0 0 0-3.7 4.006zm-6.811 5.973c-2.1.1-3.921-2.11-4.06-4.931a6.13 6.13 0 0 1 .906-3.631 3.19 3.19 0 0 1 5.458-.267c.777 1.015 1.216 2.248 1.256 3.525.131 2.671-1.292 4.945-3.226 5.268-.111.019-.222.031-.334.036zm-2.581-8.187a5.44 5.44 0 0 0-.8 3.223c.12 2.444 1.62 4.364 3.343 4.28s3.028-2.142 2.91-4.587a5.44 5.44 0 0 0-1.107-3.129 2.73 2.73 0 0 0-2.237-1.151 2.25 2.25 0 0 0-.259.028 2.83 2.83 0 0 0-1.85 1.336z"/><path d="M363.767 109.181l.414-.546c-.808-.614-2.646-1.4-3.83 0l.523.442c1.059-1.258 2.819.048 2.893.104zm22.867.2l.592-.344c-.161-.275-1.611-2.7-3.151-2.877-1.44-.158-10.569 1.151-10.956 1.207l.1.678c2.617-.378 9.669-1.329 10.781-1.2 1.015.11 2.247 1.869 2.634 2.536z"/></g><path d="M384.399 114.803a3.4 3.4 0 0 1-.728.283c-.247.076-.504.113-.762.111-.333.009-.665-.055-.97-.19-.241-.1-.467-.235-.669-.4a3.15 3.15 0 0 1-.724-.837l.38-4.438s2.939-5.482 5.38-4.493.671 8.638-1.907 9.964z" class="G"/><path d="M385.747 107.013c.018-.002.035.009.041.026s-.002.036-.018.045c-1.8.991-2.584 2.863-3.064 4.763.177-.41.524-.721.95-.853s.888-.07 1.265.169c.053.029.015.112-.039.107a1.7 1.7 0 0 0-1.786.81 8.22 8.22 0 0 0-.709 1.608c-.068.179-.384.125-.343-.077l.01-.046c-.338-2.404 1.132-6 3.693-6.552z" class="B"/><path d="M384.092 114.144c-.024.305-.23.565-.521.659s-.61.004-.808-.229-.237-.562-.097-.834.429-.434.734-.409c.2.016.385.111.515.263s.194.351.178.551zm1.408-1.318c-.017.216-.163.4-.369.466s-.432.002-.572-.162-.167-.398-.069-.591.304-.307.519-.289c.141.011.273.078.365.186a.53.53 0 0 1 .125.39z" class="D"/><g class="G"><path d="M397.713 132.545c11.123 17.233 25.758 46.062 17.79 51.588-13.1 9.086-49.458 12-57.773 12.324-3.589.141-8.83-23.661-6.215-26.474s40.731-1.872 41.186-4.179c.257-1.307-1.912-12.885-4.481-27.281-2.963-16.598 6.311-10.909 9.493-5.978z"/><path d="M357.887 168.571s-10.883-.963-18.029-1.257c-3.987-.165-10.847.163-13.831 1.382-4.464 1.824-21.968 12.3-19.519 16.6 2.217 3.891 16.112-7.019 16.112-7.019s-14.995 9.769-11.464 13.964 17.591-10.221 17.591-10.221-15.182 10.383-10.857 14.133c3.269 2.834 16.739-9.5 16.739-9.5s-12.987 9.015-9.751 12.074c3.575 3.38 16.724-7.228 16.724-7.228 9.533 6.391 16.687 5.534 21.7 4.318 1.217-.298-5.415-27.246-5.415-27.246z"/></g><path d="M327.589 174.565l-5.335 3.409-4.936 3.934a35.92 35.92 0 0 0-5.621 6c3.194-3.708 9.212-8.243 10.913-9.484s3.332-2.561 5.029-3.8c.042-.027-.007-.085-.05-.059zm4.591 6.058l-6.7 4.457c-2.177 1.583-4.085 3.26-6.137 4.98-.158.133-.035.174.129.047l6.344-4.6 6.4-4.836c.037-.021-.002-.068-.036-.048zm4.874 4.491a60.11 60.11 0 0 0-9.723 7.6c-.151.137.014.173.177.041 3.184-2.587 5.664-4.639 9.62-7.518.061-.045.001-.167-.074-.123zm22.907-16.904c-2.53-.215-5.279-.09-7.882-.188l-6.608-.538c-4.533-.3-11.22-.72-15.728 0-3.263.52-7.309 3.182-9.607 4.265-.1.048-.022.187.078.152 4.31-1.547 6.913-3.4 10.818-3.96 4.489-.644 16.2.238 20.717.5 2.642.151 5.555-.119 8.2-.022.058.003.107-.041.11-.099s-.041-.107-.098-.11z" class="B"/><path d="M411.932 154.416l-23.111-1.983s-1.809-11.517-1.911-18.032c-.134-8.621 3.036-10.692 10.117-2.845 4.737 5.247 14.905 22.86 14.905 22.86z" class="E"/><path d="M391.638 152.682c-.244-.066-2.611-.348-2.786-.319l-.534-4.081-.324-2.032-.355-2.256c.001-.028-.014-.054-.039-.067a.07.07 0 0 0-.077.008c-.022.018-.032.046-.026.073l.2 2.271.209 2.016.556 4.342a23.41 23.41 0 0 0 3.172.129c.045-.005.043-.073.004-.084zm18.136-.658c-3.343-.521-6.686-.993-10.055-1.317q-2.52-.243-5.047-.409c-1.682-.11-3.381-.048-5.058-.183-.04-.002-.073.029-.075.069s.029.073.069.075c1.681.046 3.373.322 5.049.46l5.046.441 10.066 1.008c.094.011.095-.13.005-.144z" class="B"/><path d="M131.349 193.545h336.795v11.977H131.349z" class="O"/><g class="Q"><path d="M143.404 205.526h312.685V217.5H143.404z"/><path d="M143.43 385.553h-4.841l14.09-168.05h12.356z"/><path d="M165.033 217.503l-1.447 11.244h-11.845l.939-11.244zm291.031 168.05h4.841l-14.09-168.05h-12.356z"/><path d="M434.461 217.503l1.447 11.244h11.845l-.939-11.244z"/></g><path d="M216.047 193.542h69.473l-16.873-46.36h-69.473z" class="B"/><path d="M213.586 193.542h69.473l-16.874-46.361h-69.473z" class="Q"/><path d="M196.708 147.185l16.88 46.361h28.1l-38.473-46.361z" class="B"/><path d="M201.208 193.542h8.456l7.589-13.144h-8.456z" class="J"/><path d="M217.252 180.403v13.147h-7.589z" fill="#37474f"/><path d="M248.635 193.542h8.456l7.589-13.144h-8.456z" class="J"/><path d="M264.68 180.403v13.147h-7.589z" class="B"/><path d="M314.155 191.027h56.153v2.519h-56.153z" class="F"/><path d="M314.155 191.027h28.263v2.519h-28.263z" class="H"/><path d="M339.377 193.543h-54.73l-7.155-37.168h54.726z" class="F"/><path d="M311.768 174.959a3 3 0 0 1-3.04 3.331 3.71 3.71 0 0 1-3.622-3.331 3 3 0 0 1 3.039-3.331 3.71 3.71 0 0 1 3.623 3.331z" class="H"/><path d="M172.721 187.396l-1.8-.236 9.264-70.478 33.633-18.458.873 1.591-32.827 18.016z" class="B"/><g class="E"><path d="M178.466 117.257a2.56 2.56 0 1 0 .75-1.81 2.56 2.56 0 0 0-.75 1.81zm32.872-18.237a2.56 2.56 0 1 0 2.559-2.56 2.56 2.56 0 0 0-2.559 2.56z"/><path d="M231.103 101.362l-12.03 13.43-5.553-6.858-3.381-4.181 9.02-10.058 4.524 2.9z"/></g><path d="M231.103 101.362l-12.03 13.43-5.553-6.858 10.163-11.331z" opacity=".1"/><path d="M248.547 107.99l-20.982 23.413-13.932-17.773 15.721-17.545z" class="K"/><path d="M188.294 193.545h-31.04l1.9-9.751h27.23z" class="E"/><path d="M359.378 17.722l-32.092 31.859c-2.182 2.166-5.705 2.153-7.871-.029s-2.153-5.705.029-7.871l32.081-31.868z" class="C"/><path d="M359.378 17.722l-9.122 9.058-6.066-9.677 7.335-7.285z" class="F"/><g class="C"><path d="M317.322 51.632h0a1.41 1.41 0 0 1 .006-1.994l7.259-7.209 1.988 2-7.259 7.208a1.41 1.41 0 0 1-1.994-.005z"/><path d="M326.579 44.428l-7.265 7.214a1.41 1.41 0 0 1-1.983-2.007l1.224-1.215 6.031-5.989z"/></g><g class="E"><path d="M350.002 7.49l11.743 11.826-5.577 5.538-11.743-11.826z"/><path d="M356.61 20.463l-7.846-7.9 6.628-6.582a5.57 5.57 0 0 1 7.874.028h0a5.57 5.57 0 0 1-.028 7.873zm-17.397 17.279L327.291 49.58a5.54 5.54 0 0 1-6.743.837l-1.234 1.225a1.411 1.411 0 0 1-1.983-2.007l1.224-1.215a5.54 5.54 0 0 1 .884-6.737l4.024-4z"/></g><path d="M67.173 174.672v17.666H5.011v-17.666z" class="C"/><g class="E"><use xlink:href="#G"/><use xlink:href="#G" x="-10.422" class="L"/><use xlink:href="#G" x="-20.844" class="M"/><use xlink:href="#G" x="-31.266" class="N"/><use xlink:href="#G" x="-41.688" class="I"/></g><g class="I"><use xlink:href="#G"/><use xlink:href="#G" x="-10.422" class="L"/><use xlink:href="#G" x="-20.844" class="M"/><use xlink:href="#G" x="-31.266" class="N"/><use xlink:href="#G" x="-41.688" class="I"/></g><path d="M9.227 184.627a1.12 1.12 0 1 1 0-2.244 1.12 1.12 0 0 1 .793 1.915 1.12 1.12 0 0 1-.793.329z" class="B"/><path d="M43.955 136.285l12.492 12.492-43.955 43.955L0 180.24z" class="C"/><g class="E"><use xlink:href="#H"/><use xlink:href="#H" x="-7.369" y="7.369" class="L"/><use xlink:href="#H" x="-14.739" y="14.738" class="M"/><path d="M22.007 161.34l9.384 9.384-6.079 6.079-9.384-9.384z" class="N"/><use xlink:href="#H" x="-29.478" y="29.477" class="I"/></g><g opacity=".1"><use xlink:href="#H"/><use xlink:href="#H" x="-7.369" y="7.369" class="L"/><use xlink:href="#H" x="-14.739" y="14.738" class="M"/><path d="M22.007 161.34l9.384 9.384-6.079 6.079-9.384-9.384z" class="N"/><use xlink:href="#H" x="-29.478" y="29.477" class="I"/></g><path d="M10.02 184.298a1.12 1.12 0 1 1-1.585-1.586 1.12 1.12 0 0 1 1.914.793 1.12 1.12 0 0 1-.329.793z" class="B"/><path d="M.394 125.559H18.06v62.162H.394z" class="C"/><g class="E"><path d="M2.59 127.529h13.273v8.598H2.59z"/><path d="M2.59 137.951h13.273v8.598H2.59z" class="L"/><path d="M2.59 148.373h13.273v8.598H2.59z" class="M"/><path d="M2.59 158.795h13.273v8.598H2.59z" class="N"/><path d="M2.59 169.217h13.273v8.598H2.59z" class="I"/></g><path d="M11.047 183.505c0 1.004-.813 1.817-1.817 1.817s-1.817-.813-1.817-1.817.813-1.817 1.817-1.817c.482 0 .944.191 1.285.532s.532.803.532 1.285z" class="B"/><path d="M539.494 185.733h-41.839v-53.709h31.066l10.774 10.234z" class="P"/><path d="M497.655 170.016h41.839v15.717h-41.839z" class="C"/><path d="M497.655 170.016l13.236-12.679 12 12.679z" class="E"/><path d="M514.647 170.016l15.717-19.862 9.126 11.533v8.329z" class="K"/><path d="M511.356 148.976a4.69 4.69 0 0 1-8.006 3.316 4.69 4.69 0 0 1 3.316-8.006 4.69 4.69 0 0 1 4.69 4.69z" class="D"/><path d="M528.72 132.024l10.774 10.234H528.72z" class="C"/><path d="M507.372 179.618a.28.28 0 0 1 .36.181 2.27 2.27 0 0 0 4.426-.684v-5.265c0-.159.129-.287.287-.287a.29.29 0 0 1 .288.287v5.265c-.003 1.398-1.022 2.587-2.403 2.805s-2.716-.6-3.149-1.93a.3.3 0 0 1 .191-.372zm7.632-5.768a.29.29 0 0 1 .288-.288h2.375c1.302.027 2.344 1.09 2.344 2.392s-1.042 2.366-2.344 2.392l-2.075.024v3.3c0 .162-.132.294-.294.294s-.294-.132-.294-.294zm2.663 3.933c.987-.023 1.774-.83 1.774-1.817a1.82 1.82 0 0 0-1.774-1.817h-2.075v3.633zm8.255.396c-.079.004-.155-.025-.212-.08s-.089-.13-.088-.208a.3.3 0 0 1 .3-.3h2.625a.3.3 0 0 1 .263.3v2.927a.33.33 0 0 1-.108.216 4.3 4.3 0 1 1-2.71-7.592 4.39 4.39 0 0 1 2.723.947.3.3 0 0 1 .036.408c-.106.123-.289.144-.42.048-1.255-1.073-3.067-1.186-4.446-.279a3.71 3.71 0 0 0-1.504 4.194c.488 1.577 1.961 2.641 3.611 2.609a3.77 3.77 0 0 0 2.219-.719v-2.471z" class="H"/><path d="M7.607 79.525l28.778 9.926-3.955-14.122 7.75-1.79-29.813-9.809 5.223 13.947z" class="K"/><path d="M45.282 230.322l18.984-7.649-8.234-5.423 3.145-4.327-19.456 8.168 8.801 4.776z" class="D"/><defs ><path id="B" d="M427.447 111.587h-8.057v-8.057h8.057zm-7.057-1h6.057v-6.057h-6.057z"/><path id="C" d="M427.447 83.271h-8.057v-8.058h8.057zm-7.057-1h6.057v-6.058h-6.057z"/><path id="D" d="M218.774 7.673c0 1.169-.947 2.116-2.116 2.116s-2.116-.947-2.116-2.116.947-2.116 2.116-2.116c.561 0 1.099.223 1.496.62s.62.935.62 1.496z"/><path id="E" d="M254.09 89.369c0 .953-.574 1.812-1.454 2.177s-1.894.163-2.568-.511-.875-1.687-.511-2.568 1.224-1.454 2.177-1.454c1.301 0 2.356 1.055 2.356 2.356z"/><path id="F" d="M172.912 87.937a1.7 1.7 0 0 1-1.202-2.902 1.7 1.7 0 0 1 2.902 1.202 1.7 1.7 0 0 1-1.7 1.7zm0-2.676c-.54 0-.977.437-.977.977s.437.977.977.977.977-.437.977-.977a.98.98 0 0 0-.977-.977z"/><path id="G" d="M65.203 176.869v13.273h-8.598v-13.273z"/><path id="H" d="M44.115 139.232l9.385 9.385-6.08 6.08-9.385-9.385z"/></defs></svg>