<svg xmlns="http://www.w3.org/2000/svg" width="312.645" height="301.017" xmlns:v="https://vecta.io/nano"><style><![CDATA[.B{fill:#5504b0}.C{stroke-linecap:round}.D{stroke-linejoin:round}]]></style><path d="M0 119.559l.483 5.508 15.39 175.6h296.772V71.59" fill="#fbd206"/><g class="B"><path d="M194.43 116.63c-9.123 18.5-20.914 31.4-35.365 25.587h3.911l-3.214-16.341c.683-4.587 1.56-9.72 2.667-15.608a43.03 43.03 0 0 0 7.276 3.48c5.167 2.075 10.654 3.243 16.219 3.451a35.2 35.2 0 0 0 8.506-.569zm48.514 43.481c3.027 13.911 5.953 24.731 9.03 30.806a57.15 57.15 0 0 1-3.99 4.127 27.66 27.66 0 0 1-4.436 3.422 15.1 15.1 0 0 1-5.076 2.042 13.05 13.05 0 0 1-2.761.194c-.932-.054-1.859-.187-2.768-.4-1.51-5.8-1.97-7-2.293-14.026-.309-6.521.848-27.312.848-27.312-1.4-42.633-15.666-56.609-15.666-56.609 12.481-6.643 14.285-16.075 14.285-16.075s8.29 52.997 12.826 73.832z"/><path d="M251.974 190.918a20.08 20.08 0 0 1-3.185 4.9 19.55 19.55 0 0 1-4.493 3.875 16.01 16.01 0 0 1-2.718 1.3c-.957.334-1.952.544-2.962.625a10.19 10.19 0 0 1-3-.223 9.81 9.81 0 0 1-2.667-1.064l1.7 6.916c10.626 7.312 24.58-11.057 24.94-11.539-2.712 1.81-5.214-.045-7.615-4.79zm-14.975 15.206a1.08 1.08 0 0 1-.814-1.828 1.08 1.08 0 0 1 1.855.75 1.08 1.08 0 0 1-1.042 1.078zm5-.345a1.08 1.08 0 0 1-.814-1.828 1.08 1.08 0 0 1 1.855.75 1.08 1.08 0 0 1-1.038 1.078zm5.521-2.588a1.08 1.08 0 0 1-.814-1.828 1.08 1.08 0 0 1 1.855.75 1.08 1.08 0 0 1-1.041 1.078zm4.141-3.969a1.08 1.08 0 0 1-.814-1.828 1.08 1.08 0 0 1 1.855.75 1.08 1.08 0 0 1-1.037 1.078z"/><path d="M232.95 200.336l-.072-.043c.021.007.043.007.065.014.005.009.007.019.007.029zM178.538 3.127a6.62 6.62 0 0 0-2.284 2.753 10.16 10.16 0 0 0-.572 1.694l-.175.9a6.5 6.5 0 0 1-.241.952c-.389 1.273-1.084 2.432-2.023 3.375-.484.5-1.056.907-1.687 1.2a3.23 3.23 0 0 1-1.114.267 2.11 2.11 0 0 1-1.266-.336c-.112-.07-.195-.18-.231-.307v-.006a2.86 2.86 0 0 1-.109-.853 4.05 4.05 0 0 1 .082-.77c.102-.491.28-.963.526-1.4a6.99 6.99 0 0 1 .836-1.172 9.36 9.36 0 0 1 1.008-.972l-.116.131a9.7 9.7 0 0 0 1.166-2.527c.069-.237.1-.417.167-.705a4.2 4.2 0 0 1 .278-.806c.226-.486.504-.945.83-1.37a7.18 7.18 0 0 1 2.376-2.061 3.74 3.74 0 0 1 3.125-.253l-.134-.01c2.245-.408 4.513-.669 6.792-.782a27.92 27.92 0 0 1 6.873.381 13.56 13.56 0 0 1 3.347 1.1 9.2 9.2 0 0 1 2.91 2.144l.572.725.488.778.783 1.581a22.38 22.38 0 0 1 1.165 3.3 41.53 41.53 0 0 1 .99 13.687 22.94 22.94 0 0 0 .857 6.555 21.75 21.75 0 0 0 1.191 3.112 3.88 3.88 0 0 0 .952 1.288 4.4 4.4 0 0 0 1.455.756c.038.012.059.052.047.09a.07.07 0 0 1-.083.049 4.27 4.27 0 0 1-1.633-.611c-.488-.345-.898-.788-1.206-1.3a18.1 18.1 0 0 1-1.517-3.114 20.69 20.69 0 0 1-1.323-6.81l-.018-3.405-.149-3.346a40.48 40.48 0 0 0-1.01-6.569 20.96 20.96 0 0 0-1.009-3.131c-.2-.511-.442-1-.685-1.483a7.83 7.83 0 0 0-.86-1.294 10.65 10.65 0 0 0-5.489-3.159 29.76 29.76 0 0 0-13.343-.077c-.042.009-.085.006-.126-.007h-.008a3.05 3.05 0 0 0-2.646.37 6.88 6.88 0 0 0-2.606 3.248c-.076.202-.131.411-.165.624l-.123.767a9.33 9.33 0 0 1-1.184 2.97.42.42 0 0 1-.072.09l-.044.041a11.42 11.42 0 0 0-.856.855c-.256.295-.481.615-.671.956a3.93 3.93 0 0 0-.411 1.032c-.039.172-.061.348-.067.525-.005.148.006.296.033.441l-.232-.312c.382.178.825.168 1.2-.025a4.54 4.54 0 0 0 1.372-.9 7.63 7.63 0 0 0 1.929-2.863c.224-.543.343-1.11.536-1.752a8.86 8.86 0 0 1 .791-1.769 6.47 6.47 0 0 1 2.757-2.6c.034-.013.072.001.089.032s.009.071-.02.093z"/><path d="M172.883 12.36a33.62 33.62 0 0 0 .185 6.11c.122.994.315 1.978.579 2.944.1.487.288.947.432 1.418l.575 1.351a11.72 11.72 0 0 0 1.565 2.443c.599.759 1.293 1.437 2.065 2.018.754.568 1.603.998 2.508 1.27.448.131.91.21 1.377.234a4.8 4.8 0 0 0 1.342-.081l.082-.018a.52.52 0 0 1 .62.4.55.55 0 0 1 .012.118 29.26 29.26 0 0 1-.3 3.862c-.092.645-.239 1.28-.438 1.9a3.07 3.07 0 0 1-.453.894.74.74 0 0 1-.448.27.66.66 0 0 1-.455-.183.61.61 0 0 0 .437.082c.131-.056.238-.158.3-.286a2.97 2.97 0 0 0 .254-.87 13.75 13.75 0 0 0 .134-1.868l-.112-3.77.714.5c-1.099.328-2.267.352-3.379.069a8.21 8.21 0 0 1-3.011-1.387c-.891-.632-1.683-1.391-2.352-2.255l-.494-.641-.441-.69c-.288-.461-.544-.941-.766-1.437-.82-1.971-1.258-4.08-1.292-6.215a21.12 21.12 0 0 1 .762-6.181zm41.821 24.866l4.228 1.174 4.169 1.4-.045-.013c1.704.393 3.277 1.223 4.564 2.408a15.99 15.99 0 0 1 3.206 4.061c1.614 3.05 2.659 6.369 3.083 9.793a55.56 55.56 0 0 1 .4 10.224 91.79 91.79 0 0 1-1.061 10.143h0c-.055.344-.352.596-.7.594l-8.818-.042-8.818-.1h-.016a.56.56 0 0 1-.55-.52q-.376-5.488-.466-10.976-.03-2.746.053-5.494c.027-1.832.186-3.661.476-5.47a49.65 49.65 0 0 0-.088 5.471q.082 2.735.277 5.465c.228 3.64.534 7.281.881 10.906l-.566-.52 8.818-.1 8.818-.042-.7.6c.488-3.319.9-6.649 1.069-9.99.201-3.332.121-6.675-.24-9.993-.203-1.648-.51-3.28-.92-4.889-.422-1.598-1.008-3.148-1.749-4.626a15.36 15.36 0 0 0-2.87-3.985 9.6 9.6 0 0 0-4.147-2.528l-.035-.009h-.011c-1.334-.566-2.713-1.063-4.088-1.553s-2.751-.976-4.154-1.389zM179.467 2.559c1.579.341 2.921 1.375 3.652 2.816.38.698.671 1.441.865 2.211a15.48 15.48 0 0 0 .73 2.062c.566 1.318 1.385 2.513 2.41 3.517.895 1.018 2.194 1.587 3.549 1.553l-.313.18a10.4 10.4 0 0 1 1.7-1.472 3.52 3.52 0 0 1 2.22-.752c.432.059.823.288 1.086.636a3.35 3.35 0 0 1 .5 1.046c.192.71.297 1.44.314 2.175.159 1.488-.13 2.99-.831 4.313a4.03 4.03 0 0 1-4.147 1.864l.645-.342c-.324 1.295-.622 2.618-.866 3.938-.263 1.318-.477 2.643-.624 3.968a27.23 27.23 0 0 0-.16 3.939 6.19 6.19 0 0 0 .929 3.4l-.73-.227c1.174-.27 2.318-.434 3.48-.6a50.43 50.43 0 0 1 3.485-.329c2.324-.146 4.655-.125 6.976.064.019.002.037.011.049.025s.018.034.017.053c-.003.035-.031.063-.066.066-1.154.119-2.3.2-3.448.356-1.145.116-2.285.276-3.42.453s-2.265.367-3.388.587-2.251.464-3.324.735h0a.73.73 0 0 1-.726-.228 5.23 5.23 0 0 1-1.056-2.118 9.84 9.84 0 0 1-.307-2.166c-.048-1.405.04-2.812.262-4.2a46.38 46.38 0 0 1 1.935-8.026l.009-.028a.5.5 0 0 1 .633-.315h0a3.02 3.02 0 0 0 1.788-.093c.608-.227 1.136-.626 1.52-1.148a6.12 6.12 0 0 0 .927-3.929 7.35 7.35 0 0 0-.318-2.055c-.207-.639-.627-1.227-1.2-1.229a2.92 2.92 0 0 0-1.68.811 9.76 9.76 0 0 0-1.4 1.476c-.068.089-.166.15-.276.172l-.037.008a4.32 4.32 0 0 1-2.549-.254c-.769-.327-1.468-.798-2.06-1.387a10.95 10.95 0 0 1-2.593-4c-.282-.736-.499-1.494-.648-2.268-.124-.714-.325-1.413-.6-2.083-.281-.66-.666-1.27-1.14-1.808a4.84 4.84 0 0 0-1.8-1.226h-.01c-.033-.014-.051-.05-.042-.085s.042-.058.078-.053z"/><path d="M214.466 49.437c.161-1.141.464-2.258.9-3.325a13.03 13.03 0 0 1 1.68-3.045c.692-.96 1.576-1.766 2.595-2.367a5.85 5.85 0 0 1 3.383-.712 7.59 7.59 0 0 0-3.087 1.189c-.893.643-1.675 1.426-2.317 2.319-.667.895-1.251 1.848-1.747 2.847l-1.407 3.094zm-23.881-11.349a9.27 9.27 0 0 1 0 3.6c-.201 1.192-.6 2.341-1.182 3.4.087-1.184.245-2.361.475-3.526l.708-3.474zm-32.784 27.176c.123-1.247.326-2.486.567-3.717l.822-3.678c.633-2.443 1.45-4.836 2.443-7.156a34.92 34.92 0 0 1 1.682-3.414 26.48 26.48 0 0 1 2.07-3.223 18.8 18.8 0 0 1 5.7-5.225l-.062.039a5.26 5.26 0 0 1 .754-.4l.718-.294 1.446-.447c.961-.252 1.938-.438 2.924-.555l2.935-.26 2.931-.041h.018c.148.002.289.062.392.168s.16.248.158.396v.037l-.363 6.972c-.086 2.332-.042 4.663.1 7-.429-2.31-.701-4.646-.813-6.993l-.052-7.056.566.6q-1.433.054-2.858.157l-2.825.334a26.41 26.41 0 0 0-2.753.579l-1.316.42-.62.26a4.49 4.49 0 0 0-.522.277l-.062.039c-2.061 1.249-3.859 2.889-5.291 4.828-1.48 1.958-2.751 4.065-3.793 6.287a61.7 61.7 0 0 0-2.8 6.883 74.8 74.8 0 0 0-2.1 7.18z"/><path d="M148.484 32.48a6.87 6.87 0 0 1 1.918 1.879c.502.757.903 1.576 1.193 2.436a15.76 15.76 0 0 1 .652 2.639 17.04 17.04 0 0 1 .225 2.727l-.009-.1 5.88 22.672q.738 2.831 1.515 5.647l.389 1.407.212.619.277.618a17.5 17.5 0 0 0 1.471 2.4 39.02 39.02 0 0 0 3.688 4.4l4.186 4.085-1.042.16 4.623-8.5.356.908-8.3-2.864-.036-.013c-.06-.021-.115-.055-.16-.1a7.21 7.21 0 0 1-1.67-2.652 9.96 9.96 0 0 1-.611-2.961 14.8 14.8 0 0 1 .967-5.807c.328-.926.732-1.8 1.107-2.673l1.113-2.646 1.053-2.669a19.79 19.79 0 0 0 .892-2.723c-.367 1.885-.885 3.738-1.549 5.54l-1.886 5.413a14.34 14.34 0 0 0-.68 5.489 8.89 8.89 0 0 0 .631 2.626 6.22 6.22 0 0 0 1.417 2.141l-.2-.111 8.323 2.8c.177.06.318.194.387.367s.059.368-.028.533v.007l-4.583 8.524a.66.66 0 0 1-.894.269.7.7 0 0 1-.148-.109l-4.22-4.089a37.47 37.47 0 0 1-3.877-4.534c-.604-.816-1.14-1.68-1.605-2.582l-.326-.716c-.108-.239-.183-.513-.267-.764l-.391-1.416q-.768-2.836-1.483-5.679l-2.738-11.4q-1.3-5.715-2.5-11.452v-.012a.35.35 0 0 1-.007-.089 17.36 17.36 0 0 0-.057-2.618 15.28 15.28 0 0 0-.469-2.593c-.408-1.734-1.367-3.289-2.733-4.433zm-7.247-2.416a3.34 3.34 0 0 1 3.056-.99c.555.104 1.08.329 1.538.658a4.52 4.52 0 0 1 .619.539c.176.206.337.425.481.655-.253-.114-.471-.254-.7-.377l-.682-.332a5.97 5.97 0 0 0-1.382-.436c-.474-.086-.957-.102-1.436-.049-.508.059-1.009.172-1.493.337zm5.694 5.867a2.33 2.33 0 0 1 .043 1.472 2.27 2.27 0 0 1-.935 1.26 2.84 2.84 0 0 1-1.49.382c-.246-.016-.49-.05-.731-.1-.233-.07-.461-.155-.682-.255a6.29 6.29 0 0 1 .7-.1l.663-.108a3.88 3.88 0 0 0 1.152-.43c.685-.516 1.143-1.279 1.278-2.126zm-2.847 7.376a12.46 12.46 0 0 1 1.742.2l.84.154a7.66 7.66 0 0 0 .782.116h.045c.041.003.082.016.118.036.434.24.823.553 1.151.925a2.35 2.35 0 0 1 .41.633c.111.229.141.489.086.738-.175-.41-.473-.755-.854-.987-.359-.252-.733-.481-1.121-.685l.163.04c-.315-.01-.627-.057-.931-.141-.289-.068-.567-.166-.844-.259a7.85 7.85 0 0 1-1.586-.77z"/><path d="M159.065 142.325l-22.575.417-22.575.252-22.575.12-22.575.05h-.01c-.459-.004-.849-.337-.923-.79l-2.577-15.624-2.449-15.647-2.446-15.647-1.225-7.823-1.279-7.814-2.571-15.626-2.687-15.606-5.544-31.183c-.065-.361.176-.707.537-.772a.68.68 0 0 1 .1-.01h.017l22.6-.556 22.6-.477 22.6-.439 22.6-.389a1.15 1.15 0 0 1 1.149.93l5.336 27.5 5.2 27.531 5.111 27.549 4.957 27.579c.008.038-.006.077-.035.102a.11.11 0 0 1-.106.021c-.037-.012-.064-.043-.071-.081l-5.859-27.4-5.705-27.432-5.613-27.45-5.481-27.476 1.149.93-22.6.3-22.6.251-22.605.213-22.607.134.651-.782 4.981 31.278 2.576 15.625 2.692 15.605 1.353 7.8 1.406 7.792 2.817 15.584 2.81 15.585 2.689 15.606-.934-.79 22.575.05 22.575.12 22.575.252 22.575.417c.06 0 .108.048.108.108s-.048.108-.108.108zM54.834 24.924l39.435-1 19.871-.491 19.932-.438c.346-.008.648.233.717.572v.009l5.614 27.644 5.512 27.664 11 55.332c.056.279-.002.569-.16.806s-.404.401-.684.457a1.14 1.14 0 0 1-.212.021l-82.577-.163h-.008c-.444-.001-.821-.323-.892-.761l-8.883-55.051zm0 0l9.783 54.9 9.568 54.447-.9-.761 82.577-.163-1.055 1.283-10.777-55.376-5.378-27.69-5.275-27.71.718.581-19.693.167-19.754.114zm151.378 61.045c1.3-.4 2.6-.679 3.88-.972a34.26 34.26 0 0 0 3.712-.994l-.465.6.244-2.089.333-2.08.424-2.071.575-2.055c.092.714.114 1.421.143 2.129l-.007 2.114-.1 2.1-.187 2.1v.014a.7.7 0 0 1-.464.585 11.63 11.63 0 0 1-2.029.508 18.99 18.99 0 0 1-2.021.229 20.4 20.4 0 0 1-4.038-.118z"/><path d="M201.43 94.813a28.62 28.62 0 0 1 2.818-2.95q1.48-1.394 3.032-2.7l3.143-2.557 3.243-2.429.043-.031c.077-.056.168-.091.263-.1l3.654-.2h1.836a10.78 10.78 0 0 1 1.836.177c-.609.059-1.2.193-1.8.3l-1.789.337-3.579.631.306-.127-3.132 2.562-3.212 2.459-3.291 2.358-3.371 2.27zm2.352 14.582l9.709-6.232 4.79-3.18 2.366-1.623a25.36 25.36 0 0 0 2.187-1.744 23.39 23.39 0 0 0 6.313-9.12 23 23 0 0 0 1.3-11.189 19.76 19.76 0 0 1-.237 11.558c-1.226 3.789-3.441 7.181-6.418 9.826a26.81 26.81 0 0 1-2.342 1.824l-2.418 1.6c-1.635 1.03-3.274 2.051-4.955 3q-5.017 2.891-10.295 5.281zm-16.918 155.786c-.208.405-.432.8-.622 1.207-.181.411-.339.831-.476 1.259a8.22 8.22 0 0 0-.39 2.613c.021.872.187 1.734.491 2.551.293.801.729 1.542 1.287 2.187l.006.007a.5.5 0 0 1 .056.078 23 23 0 0 1 2.678 6.7 13.6 13.6 0 0 1 .325 3.678 8.83 8.83 0 0 1-1 3.667 7.66 7.66 0 0 1-2.642 2.776c-1.063.684-2.247 1.159-3.488 1.4a11.01 11.01 0 0 1-3.716.1c-.6-.09-1.195-.213-1.781-.368-.561-.133-1.128-.25-1.7-.347a26.99 26.99 0 0 0-13.768.992c-.54.22-1.087.422-1.62.657-.523.256-1.058.488-1.572.762l-1.529.855a17.71 17.71 0 0 1-1.6.819c-2.194.971-4.53 1.583-6.919 1.811a26.39 26.39 0 0 1-7.184-.2 19.65 19.65 0 0 1-3.532-.932 8.05 8.05 0 0 1-3.235-2.066c-.508-.557-.821-1.264-.891-2.015a3.1 3.1 0 0 1 .158-1.138c.106-.347.262-.677.464-.978.763-1.046 1.738-1.92 2.861-2.564 2.087-1.188 4.276-2.187 6.541-2.986 4.363-1.749 8.808-3.342 12.993-5.317 2.082-.917 3.958-2.243 5.516-3.9 1.464-1.783 2.675-3.758 3.6-5.871l-.029.1.826-4.022.856-4.017c.007-.043.048-.072.091-.065s.072.048.065.091l-.511 4.076-.541 4.071c-.004.026-.011.052-.021.076l-.008.02c-.839 2.256-1.99 4.383-3.42 6.319-1.608 1.842-3.57 3.341-5.77 4.408-2.119 1.121-4.291 2.067-6.472 2.972l-6.558 2.634a46.3 46.3 0 0 0-6.32 2.784 7.82 7.82 0 0 0-2.414 2.037 2.2 2.2 0 0 0-.3.6 1.6 1.6 0 0 0-.105.592c.042.428.22.831.51 1.149.735.77 1.635 1.363 2.632 1.735a18.36 18.36 0 0 0 3.252.974c2.261.454 4.571.624 6.874.505 2.314-.106 4.595-.592 6.752-1.437.536-.216 1.056-.467 1.558-.752l1.566-.842c.529-.271 1.078-.5 1.616-.751.547-.231 1.108-.427 1.661-.642a30.29 30.29 0 0 1 6.937-1.552 31.11 31.11 0 0 1 7.137.029 27.45 27.45 0 0 1 1.776.265 15.42 15.42 0 0 0 1.691.257 10.95 10.95 0 0 0 3.3-.232c2.141-.417 4.016-1.698 5.184-3.541a9.65 9.65 0 0 0 .657-6.416c-.217-1.122-.521-2.225-.91-3.3a23.94 23.94 0 0 0-1.36-3.161l.063.085a7.82 7.82 0 0 1-1.357-2.576c-.297-.913-.418-1.875-.356-2.833.063-.942.278-1.868.637-2.742a10.33 10.33 0 0 1 .6-1.256c.239-.4.51-.772.762-1.156.024-.033.069-.043.104-.022s.049.064.032.101zm25.98.946c.854 2.475.98 5.143.363 7.688-.164.649-.405 1.277-.718 1.869-.283.55-.541 1.123-.781 1.7a26.01 26.01 0 0 0-1.171 3.542 11.1 11.1 0 0 0 .188 7.06c1.099 2.098 3.1 3.575 5.429 4.007a11.01 11.01 0 0 0 3.582.207c.3-.032.6-.079.9-.134l.958-.171q.961-.155 1.927-.251a32.44 32.44 0 0 1 7.72.186 30.46 30.46 0 0 1 7.423 2.03c.581.276 1.182.512 1.747.821l1.692.9a16 16 0 0 0 3.5 1.324 20.75 20.75 0 0 0 3.693.631 25.45 25.45 0 0 0 3.744.06c2.474-.079 4.918-.572 7.229-1.458a6.5 6.5 0 0 0 2.766-1.907c.276-.35.399-.797.341-1.239a2.64 2.64 0 0 0-.692-1.271c-.822-.841-1.779-1.537-2.832-2.06-.544-.28-1.1-.555-1.658-.811l-1.729-.719c-4.734-1.892-9.494-3.7-14.127-5.979a34.49 34.49 0 0 1-3.4-1.914 15.33 15.33 0 0 1-2.986-2.59 23.04 23.04 0 0 1-3.753-6.776l-.007-.018c-.005-.013-.008-.026-.01-.04l-.438-3.513c-.007-.043.022-.084.065-.091s.084.022.091.065l.748 3.465-.017-.058a24.66 24.66 0 0 0 4.048 6.292 20.52 20.52 0 0 0 6.233 3.966c2.291 1.043 4.67 1.935 7.04 2.86l7.124 2.766c2.385.977 4.868 1.986 6.82 4.13.529.585.881 1.307 1.015 2.084a3.2 3.2 0 0 1-.65 2.344c-.919 1.086-2.116 1.901-3.463 2.359a18.6 18.6 0 0 1-3.836.986 25.89 25.89 0 0 1-11.585-.8c-1.246-.375-2.444-.894-3.57-1.548l-1.662-.931c-.548-.312-1.133-.553-1.7-.834a24.4 24.4 0 0 0-7.282-1.97 28.22 28.22 0 0 0-7.531.206c-.62.1-1.236.214-1.848.348l-.914.217c-.324.079-.651.15-.982.2-1.332.229-2.695.214-4.022-.045-1.347-.258-2.626-.792-3.756-1.569-1.168-.79-2.09-1.893-2.66-3.183-.532-1.271-.78-2.643-.727-4.02a16.17 16.17 0 0 1 .637-3.92 22.91 22.91 0 0 1 1.405-3.649 23.97 23.97 0 0 1 .911-1.728c.312-.52.56-1.076.74-1.655a13.34 13.34 0 0 0 .623-3.656c.02-1.262-.1-2.523-.356-3.759-.011-.042.014-.086.056-.097s.086.014.097.056z"/><path d="M210.682 289.321c3.681 6.6 14.337.8 21.265 2.882.993.3 1.186.208 1.186.208s4.4-12.349 10.284-11.966c0 0 9.673 1.9 11 4.746 0 0-7.7 7.034-7.089 12.544 14.793 1.541 16.847-3.914 16.847-3.914 2.926 5.69-8.454 8.748-16.207 6.4-6.519-1.974-19.2-6.4-19.2-6.4v3.7l-4.694 1.991h-13.43l2.048-4.457c-3.889-3.131-2.01-5.734-2.01-5.734zm-75.9 4.5s2.054 5.455 16.848 3.914c.614-5.51-7.089-12.544-7.089-12.544 1.328-2.845 11-4.746 11-4.746 5.88-.384 10.284 11.966 10.284 11.966s.192.091 1.186-.208c6.927-2.081 17.584 3.715 21.265-2.882 0 0 1.879 2.6-2.009 5.732l2.048 4.457h-13.427l-4.694-1.992v-3.7l-19.2 6.4c-7.757 2.351-19.136-.708-16.211-6.398zM170.59 39.986c.191-2.217.313-4.409.4-6.6.073-2.191.139-4.378.108-6.566 0-1.093-.013-2.188-.055-3.282L171 21.895l-.075-1.643-.339-6.616a39.18 39.18 0 0 1 1.456 6.511 49.42 49.42 0 0 1 .494 6.665c.01 2.231-.134 4.461-.431 6.672a30.9 30.9 0 0 1-1.514 6.502zm14.991-10.62c.502-.262.974-.575 1.411-.935.433-.347.847-.717 1.24-1.108.409-.377.784-.793 1.187-1.191s.781-.827 1.224-1.225a7.14 7.14 0 0 1-.785 1.574c-.327.492-.704.947-1.127 1.359a6.39 6.39 0 0 1-1.434 1.058 3.4 3.4 0 0 1-1.715.467zm-8.857-10.458c-.056.38-.138.721-.2 1.053a3.53 3.53 0 0 0-.085.917c.002.247.122.477.324.619a4.24 4.24 0 0 0 .913.431 1.6 1.6 0 0 1-1.165.07.71.71 0 0 1-.3-.154c-.101-.066-.188-.152-.256-.252a1.3 1.3 0 0 1-.231-.656 2.2 2.2 0 0 1 .276-1.167 2.5 2.5 0 0 1 .725-.862zm.146 5.694a22.07 22.07 0 0 1 2.291.211c.342.048.689.058 1.033.031s.641-.259.757-.586a2.08 2.08 0 0 1 .04.318c-.016.115-.047.228-.092.335a2.02 2.02 0 0 1-.231.283c-.094.068-.2.125-.3.186-.407.155-.846.206-1.278.149-.404-.046-.8-.149-1.176-.305a3.6 3.6 0 0 1-1.043-.623zm54.737 134.375l-.3 13.469c-.052 4.482-.185 8.991.008 13.426.376 8.9 3.479 17.385 5.541 26.17 1.081 4.386 2.006 8.8 2.82 13.23s1.551 8.886 2.112 13.366.984 8.985 1.162 13.513c.228 4.549.079 9.11-.444 13.635l-.006.046c-.047.356-.283.658-.617.788a17.16 17.16 0 0 1-2.619.756c-.854.192-1.709.334-2.564.458-1.711.238-3.423.385-5.133.458a79.53 79.53 0 0 1-10.22-.261l-20.126-1.8q-5.035-.331-10.08-.485l-5.046-.1c-1.683-.014-3.391-.046-5.079-.167a57.41 57.41 0 0 1-10.042-1.577 59.8 59.8 0 0 1-9.594-3.346c-.128-.056-.208-.186-.2-.325v-.006c.592-9.841.739-19.712.74-29.567-.036-9.856-.235-19.708-.8-29.52l-.23-3.678c-.083-1.225-.22-2.444-.327-3.666-.188-2.45-.538-4.872-.851-7.3-.126-1.222-.4-2.407-.613-3.61l-.709-3.619a70.98 70.98 0 0 1-1.116-7.39 127.73 127.73 0 0 1-.379-14.863c.112-4.942.334-9.888.882-14.8.008-.057.058-.097.115-.093s.101.052.1.109c-.2 4.93-.259 9.855-.116 14.78l.212 7.385c.094 2.454.3 4.889.625 7.313s.757 4.829 1.287 7.209c.287 1.173.526 2.412.778 3.631.235 1.223.54 2.441.69 3.673l.54 3.689c.193 1.23.27 2.466.41 3.7l.36 3.7.262 3.706c.645 9.887.638 19.786.316 29.661-.3 9.878-.869 19.735-1.5 29.592l-.2-.331a53.67 53.67 0 0 0 19.4 4.74c1.677.1 3.334.074 5.028.044l5.065-.031q5.065.022 10.13.2a305.38 305.38 0 0 1 10.121.516l10.074.792c3.324.224 6.658.257 9.986.1 1.656-.09 3.3-.251 4.928-.5.811-.127 1.618-.271 2.406-.458.758-.165 1.504-.385 2.23-.658l-.623.834a80.66 80.66 0 0 0 .275-13.271q-.337-6.666-1.187-13.323c-1.121-8.862-2.684-17.695-4.592-26.426-.969-4.37-2.1-8.7-3.131-13.1-.5-2.2-.975-4.426-1.282-6.683a60.67 60.67 0 0 1-.526-6.8c-.033-4.545.211-9.019.468-13.512l.959-13.448c.008-.056.057-.097.113-.093s.101.049.102.105z"/></g><path fill="none" stroke="#020202" stroke-width="2.903" d="M142.498 38.112l13.365-18.529" class="C D"/><path d="M204.344 36.591c-13.847.324-38.434 36.436-38.434 36.436l-.043.41-.733 6.578s-.4 2.959 1.136 10.712l-.007.058 2.408-.848a33.25 33.25 0 0 1 10.87-1.553c4.206-.065 5.337.508 9.176 1.22 4.508.841 12.714 5.21 12.714 5.21a28.43 28.43 0 0 1 2.668-2.262 313.48 313.48 0 0 0 13.517-54.443c-5.234-5.666-13.272-1.518-13.272-1.518zm-16.111 39.2a4.08 4.08 0 0 1-1.344-.518c-.415-.241-.765-.579-1.021-.985a11.58 11.58 0 0 0 2.5.8c.42.082.846.135 1.273.158.431.043.87.022 1.352.058-.824.51-1.812.684-2.76.484zM47.722 17.297c.78.432 1.514.942 2.191 1.522a21.8 21.8 0 0 1 1.893 1.8 21.42 21.42 0 0 1 1.667 2.011c.533.715.991 1.483 1.366 2.292a13 13 0 0 1-2.192-1.521 21.42 21.42 0 0 1-1.891-1.8 21.8 21.8 0 0 1-1.665-2.013 13.17 13.17 0 0 1-1.369-2.291zm108.141 117.125c.784.448 1.521.974 2.2 1.57.667.577 1.3 1.193 1.894 1.845a21.92 21.92 0 0 1 1.666 2.053c.532.728.988 1.509 1.361 2.33a13.29 13.29 0 0 1-2.2-1.568 21.93 21.93 0 0 1-1.892-1.846c-.595-.651-1.15-1.337-1.664-2.054-.532-.729-.989-1.51-1.365-2.33zM134.085 23.714a9.6 9.6 0 0 1 .512-2.209 15.51 15.51 0 0 1 .874-2.025 15.23 15.23 0 0 1 1.148-1.879 9.48 9.48 0 0 1 1.514-1.689c-.081.754-.252 1.496-.51 2.21-.243.694-.536 1.369-.876 2.02a15.5 15.5 0 0 1-1.15 1.878 9.6 9.6 0 0 1-1.512 1.69zm41.383-5.911a1.2 1.2 0 0 0 .906-2.033 1.2 1.2 0 0 0-2.064.833 1.2 1.2 0 0 0 1.158 1.2zm6.532.416a1.2 1.2 0 0 0 .906-2.033 1.2 1.2 0 0 0-2.064.833 1.2 1.2 0 0 0 1.157 1.199z" class="B"/><path d="M172.916 13.907c1.349-.547 2.868-.484 4.167.173m4.1.17c1.146-.42 2.412-.367 3.52.146" fill="none" stroke="#020202" stroke-width="1.075" class="C D"/><path d="M178.95 13.502a1.08 1.08 0 0 0 .813-1.828 1.08 1.08 0 0 0-1.855.75 1.08 1.08 0 0 0 1.042 1.078z" class="B"/><path fill="none" stroke="#b21919" stroke-width="1.936" d="M179.13 4.338l.146-2.316" class="C D"/><g class="B"><path d="M201.856 102.897a3.97 3.97 0 0 0 2.389-3.311 4.95 4.95 0 0 0-1.777-3.737 7.79 7.79 0 0 0-1.785-1.172l-1.95-.975q-1.97-.932-4.012-1.683a48.5 48.5 0 0 0-16.937-3.032c-2.883-.012-5.754.368-8.535 1.129a32.67 32.67 0 0 0-4.082 1.47 18.93 18.93 0 0 0-3.791 2.067 8.83 8.83 0 0 0-2.746 3.228 10.79 10.79 0 0 0-1 4.139 8.97 8.97 0 0 0 .773 4.147 8.8 8.8 0 0 0 2.676 3.215 34.35 34.35 0 0 0 7.557 4.137 52.39 52.39 0 0 0 8.23 2.667 47.12 47.12 0 0 0 8.536 1.236c2.881.136 5.768.07 8.64-.2 2.818-.153 5.574-.882 8.1-2.14a5.59 5.59 0 0 0 1.481-1.255 4.15 4.15 0 0 0 .831-1.668 1.48 1.48 0 0 0-.465-1.469 4.83 4.83 0 0 0-1.706-.971 20.99 20.99 0 0 0-4.186-.929c-.717-.1-1.44-.13-2.2-.312a1.98 1.98 0 0 1-1.063-.613 2.03 2.03 0 0 1-.452-1.121c-.039-.396.02-.795.172-1.162a1.55 1.55 0 0 1 .8-.868 7.23 7.23 0 0 1 2.166-.527c.736-.078 1.468-.094 2.2-.112a10.1 10.1 0 0 0 2.136-.178zm.057.132a9.9 9.9 0 0 1-2.2.22 21.8 21.8 0 0 0-2.176.149 7.04 7.04 0 0 0-2.059.574 1.77 1.77 0 0 0-.3 2.584c.228.221.521.363.836.405.668.12 1.417.11 2.151.17a22.28 22.28 0 0 1 4.417.69 5.79 5.79 0 0 1 2.142 1.062 2.71 2.71 0 0 1 .8 1.1c.156.439.199.909.126 1.369a5.31 5.31 0 0 1-.981 2.278 6.93 6.93 0 0 1-1.792 1.626c-1.318.797-2.755 1.379-4.256 1.722a32.7 32.7 0 0 1-4.419.77 55.89 55.89 0 0 1-8.879.17 50.13 50.13 0 0 1-17.142-4.354 41.9 41.9 0 0 1-3.944-2.027c-1.295-.736-2.521-1.589-3.66-2.549-1.187-.954-2.127-2.18-2.741-3.574-.556-1.403-.798-2.911-.71-4.418a11.25 11.25 0 0 1 1.111-4.31c.679-1.339 1.659-2.503 2.863-3.4a20.9 20.9 0 0 1 3.83-2.235 33.4 33.4 0 0 1 4.09-1.7c2.827-.924 5.769-1.449 8.741-1.56a39.17 39.17 0 0 1 17.3 3.392q2.026.894 3.964 1.955a51.69 51.69 0 0 1 1.912 1.1c.656.363 1.259.813 1.793 1.339 1.111 1.039 1.734 2.498 1.714 4.019a4.17 4.17 0 0 1-2.528 3.432zm-17.196 1.574c-.654.525-1.481.359-2.847.086a6.27 6.27 0 0 1-3.882-1.9c-.63-.566-.951-1.4-.863-2.243a2.14 2.14 0 0 1 1.812-1.467c.791-.072 1.122.431 2.243 1.035 2.257 1.222 3.429.554 4.055 1.553.52.982.306 2.191-.518 2.936zm-21.522-3.535c2.776 0 2.78-4.314 0-4.314s-2.781 4.313 0 4.313zm1.941 6.6c2.776 0 2.78-4.314 0-4.314s-2.78 4.313 0 4.313zm7.506 4.012c2.776 0 2.78-4.314 0-4.314s-2.781 4.313.001 4.313zm8.8 2.329c2.776 0 2.78-4.314 0-4.314s-2.781 4.313.001 4.313zm9.059.388c2.776 0 2.78-4.314 0-4.314s-2.781 4.314-.001 4.314zM169.666 96.28c2.776 0 2.78-4.314 0-4.314s-2.781 4.313-.001 4.313zm9.317-1.035c2.776 0 2.78-4.314 0-4.314s-2.781 4.313 0 4.313zm9.447 1.423c2.776 0 2.78-4.314 0-4.314s-2.781 4.313-.001 4.313zm10.223 4.788c2.776 0 2.78-4.314 0-4.314s-2.781 4.314 0 4.314zm-69.717 196.75l-10.252-71.6-4.81-35.836-4.656-35.854-2.311-17.926-2.231-17.938-4.442-35.879-8.544-71.8 7.876-.253-3.9 71.81-2.12 35.9-1.07 17.948-1.151 17.944-2.335 35.885-2.49 35.877-5.618 71.722 1.749-71.921 1.193-35.944 1.348-35.936.69-17.967.772-17.963 1.563-35.925 3.469-71.832 7.876-.253 8.115 71.846 3.888 35.943 1.933 17.973 1.853 17.982 3.674 35.968 3.52 35.985 6.411 72.044z"/><rect width="14.494" height="9.426" rx="3.871" x="88.393" y="7.137"/><path d="M162.244 249.768c6.581 1.245 13.193 2.347 19.821 3.237 3.31.465 6.632.85 9.947 1.09.829.06 1.657.12 2.482.13.826.031 1.651.053 2.46.007.4-.023.822 0 1.208-.061l1.157-.16c.868-.167 1.747-.268 2.63-.3a47.3 47.3 0 0 1 5.123.129c1.689.114 3.366.264 5.04.426q5.016.526 9.972 1.214c3.306.452 6.61.869 9.914 1.133a48.7 48.7 0 0 0 4.954.165 14.39 14.39 0 0 0 4.844-.8h.006c.053-.028.119-.007.146.047s.007.119-.046.146a13.35 13.35 0 0 1-4.857 1.588 37.3 37.3 0 0 1-5.089.372 95.8 95.8 0 0 1-10.114-.506c-3.35-.309-6.67-.791-9.979-1.236-3.264-.535-6.56-.853-9.866-.951-.792.002-1.583.065-2.366.188l-1.338.143c-.446.047-.867.014-1.3.025-.867.02-1.716-.031-2.562-.089-.851-.039-1.691-.126-2.531-.215-3.359-.352-6.684-.847-9.992-1.421-6.612-1.179-13.173-2.564-19.7-4.092-.038-.008-.07-.035-.082-.072s-.003-.078.023-.107.066-.041.105-.032zm3.665 8.681c2.776 0 2.78-4.314 0-4.314s-2.781 4.314 0 4.314zm7.247 1.553c2.776 0 2.78-4.314 0-4.314s-2.781 4.314 0 4.314zm8.11 1.553c2.776 0 2.78-4.314 0-4.314s-2.781 4.313-.001 4.313zm8.8.69c2.776 0 2.78-4.314 0-4.314s-2.781 4.314-.001 4.314zm9.663-.345c2.776 0 2.78-4.314 0-4.314s-2.782 4.314-.001 4.314zm9.663 1.38c2.776 0 2.78-4.314 0-4.314s-2.782 4.314-.002 4.314zm9.835 1.38c2.776 0 2.78-4.314 0-4.314s-2.782 4.314.001 4.314zm9.145-.345c2.776 0 2.78-4.314 0-4.314s-2.782 4.314-.002 4.314zm9.317-1.035c2.776 0 2.78-4.314 0-4.314s-2.782 4.314-.002 4.314zM216.694 74.731a1.08 1.08 0 0 0 .813-1.828 1.08 1.08 0 0 0-1.855.75 1.08 1.08 0 0 0 1.042 1.078zm4.486-.086a1.08 1.08 0 0 0 .813-1.828 1.08 1.08 0 0 0-1.855.75 1.08 1.08 0 0 0 1.042 1.078zm4.918 0a1.08 1.08 0 0 0 .813-1.828 1.08 1.08 0 0 0-1.855.75 1.08 1.08 0 0 0 1.042 1.078zm4.429 0a1.08 1.08 0 0 0 .813-1.828 1.08 1.08 0 0 0-1.855.75 1.08 1.08 0 0 0 1.042 1.078z"/></g><path fill="none" stroke="#5504b0" stroke-width="7.742" d="M170.527 144.52H60.024" class="C D"/><path d="M89.712 142.398l.987-.651a9.22 9.22 0 0 1-1.258.015 14.53 14.53 0 0 1-3.5-.727 26.49 26.49 0 0 1-4.156-1.939l.283 1.439c1.031.791 2.178 1.418 3.4 1.859a9.73 9.73 0 0 0 3.78.5z" class="B"/></svg>