<svg xmlns="http://www.w3.org/2000/svg" width="312.645" height="232.945" viewBox="0 0 312.645 232.945">
  <g id="Group_5484" data-name="Group 5484" transform="translate(-1476.806 -7409.298)">
    <g id="Group_5482" data-name="Group 5482" transform="translate(-46.68 -826.516)">
      <g id="Group_5481" data-name="Group 5481">
        <g id="Group_5479" data-name="Group 5479" transform="translate(457.68 557.379)">
          <path id="Path_45468" data-name="Path 45468" d="M-3612.252,4091.689l.483,5.508,15.39,175.6h296.772V4043.72" transform="translate(4678.058 3638.585)" fill="#fbd206"/>
        </g>
        <g id="man-working-remotely-and-drinking-coffee" transform="translate(1526.219 8235.813)">
          <path id="Path_5175" data-name="Path 5175" d="M367.056,156.073a13.661,13.661,0,0,0-3.024-1.461,16.083,16.083,0,0,0-3.284-.789,15.844,15.844,0,0,0-1.706-.107,9.357,9.357,0,0,0-1.718.188,5,5,0,0,0-2.974,1.634,7.4,7.4,0,0,1,3.09-.772,16.506,16.506,0,0,1,3.17.162C362.739,155.185,364.85,155.68,367.056,156.073Zm-3.611,4.695a1.62,1.62,0,0,1,0-3.237A1.62,1.62,0,0,1,363.445,160.768Z" transform="translate(-226.733 -128.311)" fill="#5504b0"/>
          <path id="Path_5176" data-name="Path 5176" d="M340.9,131.56c.755,3.36,1.586,6.7,2.458,10.025.451,1.658.878,3.325,1.35,4.977l.347,1.241a1.584,1.584,0,0,1-.011.908,2.149,2.149,0,0,1-.486.839l-.233.268a2.74,2.74,0,0,0-.538,1.168,2.924,2.924,0,0,0,.6,2.391c.187.227.3.335.448.51.566.635,1.115,1.283,1.664,1.931a39.229,39.229,0,0,1,3.026,4.049,14.46,14.46,0,0,1,1.178,2.157,3.63,3.63,0,0,1,.362,2.1,1.166,1.166,0,0,1-.175.377l-.386.461c-.134.145-.275.279-.412.419a3.9,3.9,0,0,1-.44.335,1.248,1.248,0,0,1-.859.258,1.007,1.007,0,0,1-.676-.488l-.032-.056a3.113,3.113,0,0,0-2.052-1.17,3.461,3.461,0,0,0-1.155.075l-.522.153-.215.059a1.941,1.941,0,0,1-.206.011c-.555.007-.877-.711-.97-1.363a8.071,8.071,0,0,1-.059-2.07,7.147,7.147,0,0,0-.215,2.1,2.922,2.922,0,0,0,.243,1.077,1.243,1.243,0,0,0,.946.746,1.646,1.646,0,0,0,.614-.03l.5-.092a2.8,2.8,0,0,1,.928.036,2.361,2.361,0,0,1,1.441.95l-.032-.056a2.087,2.087,0,0,0,.5.665,1.692,1.692,0,0,0,.769.4,2.185,2.185,0,0,0,1.587-.31,5.411,5.411,0,0,0,1.126-.882l.469-.5a2.329,2.329,0,0,0,.418-.757,3.271,3.271,0,0,0,.078-1.557,7.044,7.044,0,0,0-.382-1.363,15.713,15.713,0,0,0-1.208-2.4A38.45,38.45,0,0,0,347.6,154.9c-.549-.675-1.124-1.325-1.707-1.967-.132-.149-.323-.347-.408-.453a1.461,1.461,0,0,1-.229-.375,1.491,1.491,0,0,1-.1-.859,1.355,1.355,0,0,1,.255-.574l.188-.22a3.432,3.432,0,0,0,.741-1.4,2.9,2.9,0,0,0-.042-1.632l-.387-1.229c-.508-1.641-1.061-3.268-1.589-4.9C343.236,138.034,342.108,134.786,340.9,131.56Z" transform="translate(-201.917 -122.791)" fill="#5504b0"/>
          <path id="Path_5177" data-name="Path 5177" d="M407.129,128.65s-5.885-11.5-40.393-8.159c0,0-9.363.134-8.828,16.318,0,0-7.089-7.758-10.433,2.408s7.891,19.528,10.3,15.114c0,0-1.07,17.12,10.031,5.083,0,0-4.845-11.345,2.682-14.262a3.2,3.2,0,0,1,4.147,1.728,11.768,11.768,0,0,1,.661,4.351c0,6.845-.535,18.883,7.758,29.717,0,0,7.57,9.488,17.275,9.963a9.257,9.257,0,0,0,7.6-3.314c2.992-3.61,6.96-11.089,6.021-24.839,0,0-8.694,1.873-9.1,2.274s-4.28,9.764-7.356,8.828-14.178-6.821-14.178-11.1-.067-19.127,2.408-21.869c0,0,5.35.468,5.751-2.675.321-2.515-1.327-5.8,1.973-8.28a7.289,7.289,0,0,1,5.588-1.29c2.489.418,6.519.9,8.087.006Z" transform="translate(-268.143 -119.882)" fill="#5504b0"/>
          <path id="Path_5178" data-name="Path 5178" d="M322.2,173.956a5.249,5.249,0,0,1-2.493-.074,2.414,2.414,0,0,1-.962-.635,5.067,5.067,0,0,1-.418-.479c-.133-.175-.247-.367-.407-.551a3.769,3.769,0,0,0,.088.7,2.669,2.669,0,0,0,.291.667,2.212,2.212,0,0,0,1.159.967,2.582,2.582,0,0,0,1.49.065,2.7,2.7,0,0,0,1.251-.666Zm45.515.863a13.815,13.815,0,0,1,3.877-1.837,20.277,20.277,0,0,1,4.212-.8,26.164,26.164,0,0,1,4.269.016c.709.037,1.411.175,2.115.247.7.108,1.4.247,2.1.367l-.462-.389a20.731,20.731,0,0,1,.666,3.612c.149,1.239.192,2.492.232,3.747a48.9,48.9,0,0,1-.472,7.553l-.279,1.883-.385,1.866c-.227,1.253-.631,2.462-.953,3.692-.366,1.218-.807,2.413-1.217,3.616q-.709,1.772-1.455,3.527l.166-.168a28.093,28.093,0,0,1-3.84,1.092,33.247,33.247,0,0,1-3.948.585,26.542,26.542,0,0,1-3.964.1,25.754,25.754,0,0,1-3.907-.477l.387.229a34.345,34.345,0,0,1-3.171-5.034,44.983,44.983,0,0,1-2.457-5.464,42.9,42.9,0,0,1-1.754-5.729,55.172,55.172,0,0,1-1.064-5.916l-.261.476,5.754-3.469C363.808,176.994,365.757,175.9,367.711,174.819Zm-.079-.12c-1.97,1.055-3.944,2.1-5.955,3.087l-6.016,2.951-.275.135.014.341a36.526,36.526,0,0,0,.7,6.147,40.536,40.536,0,0,0,4.258,11.608,35.527,35.527,0,0,0,3.45,5.2l.156.193.231.037a23.941,23.941,0,0,0,4.141.392,27.709,27.709,0,0,0,4.124-.271,32,32,0,0,0,4.024-.842,30.712,30.712,0,0,0,3.884-1.34l.125-.054.042-.114,1.322-3.607c.389-1.22.816-2.427,1.191-3.65l.538-1.844.273-.921.237-.931.483-1.863.407-1.883a44.65,44.65,0,0,0,.948-7.675c-.007-.648.015-1.3-.016-1.947s-.066-1.3-.15-1.947a18.166,18.166,0,0,0-.8-3.888l-.115-.348-.347-.041c-.731-.087-1.459-.191-2.19-.263-.736-.03-1.467-.1-2.2-.078a27.7,27.7,0,0,0-4.377.35,25.651,25.651,0,0,0-4.222,1.117,16.279,16.279,0,0,0-3.877,1.954Z" transform="translate(-218.252 -132.686)" fill="#5504b0"/>
          <path id="Path_5179" data-name="Path 5179" d="M331.626,173.674c-.062.021-.088.006-.126.034l-.152.095-.3.19-.6.377-1.211.737c-.809.485-1.621.957-2.442,1.406-1.641.9-3.317,1.707-5.011,2.478a22.185,22.185,0,0,1-5.308,1.77,13.509,13.509,0,0,1-5.546-.4l.129.719c1.644-.9,3.32-1.763,4.976-2.632s3.365-1.636,5.061-2.4a41.57,41.57,0,0,1,5.175-1.988,15.1,15.1,0,0,1,2.683-.557,8.393,8.393,0,0,1,1.365-.036,5.44,5.44,0,0,1,.68.089C331.206,173.6,331.364,173.612,331.626,173.674Zm.143-.019a3.963,3.963,0,0,0-.68-.4,5.878,5.878,0,0,0-.7-.242,6.826,6.826,0,0,0-1.456-.242,12.256,12.256,0,0,0-2.925.189,26.459,26.459,0,0,0-5.532,1.684,45.211,45.211,0,0,0-5.1,2.614,43.589,43.589,0,0,0-4.766,3.158l-.783.594.912.126a25.441,25.441,0,0,0,5.785.09,28.918,28.918,0,0,0,5.687-1.118,23.192,23.192,0,0,0,5.156-2.637c.4-.264.8-.54,1.179-.836s.766-.583,1.129-.9.723-.636,1.074-.963l.509-.512c.086-.084.164-.177.245-.266l.121-.134a.835.835,0,0,0,.142-.2Zm4.977,5.68c.879.68,1.752,1.356,2.592,2.052a16.463,16.463,0,0,1,2.289,2.211,2.418,2.418,0,0,1,.566,1.12.539.539,0,0,1-.028.2c-.039.116-.069.234-.113.349a7.383,7.383,0,0,1-.284.693,12.451,12.451,0,0,1-1.707,2.586l-.293.342.219.283c.524.675,1.037,1.381,1.489,2.1.111.182.206.368.3.553a2,2,0,0,1,.1.263.317.317,0,0,1,.02.085c.017,0-.01.073-.019.111a8.787,8.787,0,0,1-.494,1.165,7.662,7.662,0,0,1-1.5,2.037,3.366,3.366,0,0,1-2.077,1l-.193.008-.136.2a14.885,14.885,0,0,0-2.23,4.82,9.734,9.734,0,0,0-.227,1.37c-.05.645-.006.5-.192.724a2.884,2.884,0,0,1-.841.49,7.826,7.826,0,0,1-1.111.37,36.816,36.816,0,0,1-4.921.873c-1.68.212-3.381.379-5.08.544l.238.149c-.323-.509-.638-1.022-.978-1.523l-.129.064c.194.573.415,1.133.626,1.7l.049.13.189.019a41.145,41.145,0,0,0,5.182.174,24.693,24.693,0,0,0,5.225-.642,9.315,9.315,0,0,0,1.319-.451,3.71,3.71,0,0,0,1.314-.875,3.526,3.526,0,0,0,.29-.39,2.3,2.3,0,0,0,.191-.505,4.44,4.44,0,0,0,.05-.761,8.343,8.343,0,0,1,.133-1.17,20.543,20.543,0,0,1,1.654-4.647l-.328.207a4.181,4.181,0,0,0,2.389-1.487,11.041,11.041,0,0,0,1.478-2.228,9.973,9.973,0,0,0,.556-1.221.719.719,0,0,0,.05-.2.657.657,0,0,0-.014-.237,2.386,2.386,0,0,0-.1-.357c-.079-.217-.17-.424-.262-.627-.359-.819-.772-1.59-1.2-2.37l-.073.624a8.742,8.742,0,0,0,2.2-2.735,7.034,7.034,0,0,0,.352-.837c.049-.145.084-.3.126-.444a1.854,1.854,0,0,0,.051-.619,3.257,3.257,0,0,0-.92-1.787,12.471,12.471,0,0,0-2.708-2.127,19.329,19.329,0,0,0-3.007-1.5Z" transform="translate(-169.706 -133.053)" fill="#5504b0"/>
          <path id="Path_5180" data-name="Path 5180" d="M380.132,190.517c.45.237.944.3,1.235.481a2.129,2.129,0,0,1,.408.306c.139.134.289.281.431.43.29.3.578.607.9.915a8.168,8.168,0,0,0,1.046.927,3.525,3.525,0,0,0-.353-1.4,4.164,4.164,0,0,0-.818-1.193,3.818,3.818,0,0,0-.577-.482,1.833,1.833,0,0,0-.8-.3,1.813,1.813,0,0,0-.79.061A4.206,4.206,0,0,0,380.132,190.517Zm1.474,10.752a4.388,4.388,0,0,0,0-1.338,5.3,5.3,0,0,0-.114-.632,2.129,2.129,0,0,0-.287-.712,1.891,1.891,0,0,0-1.328-.855,1.681,1.681,0,0,0-.748.062,3.758,3.758,0,0,0-.635.265c.421.236.885.307,1.143.48a2.067,2.067,0,0,1,.664.636c.146.2.285.658.51,1.021a4.39,4.39,0,0,0,.8,1.073Zm38.46,123.747a23.724,23.724,0,0,1,.795,4.536,5.3,5.3,0,0,1-.25,2.175,1.111,1.111,0,0,1-1.556.6,7.1,7.1,0,0,1-1.935-1.029,22.313,22.313,0,0,1-1.779-1.423c-1.143-1.016-2.22-2.115-3.281-3.228l-.136-.143-.185-.007a12.347,12.347,0,0,0-3.841.524,19.5,19.5,0,0,0-3.544,1.4c-1.127.575-2.175,1.192-3.275,1.663a12.525,12.525,0,0,1-3.391.981,13.035,13.035,0,0,1-3.522-.026,17.58,17.58,0,0,1-3.484-.818,36.4,36.4,0,0,1-6.577-3.111l-.138-.079-.131,0a61.024,61.024,0,0,0-6.121.226,33.4,33.4,0,0,0-6.049,1.027,14.859,14.859,0,0,0-1.469.5c-.488.2-.947.438-1.4.64-.9.429-1.849.8-2.774,1.2q-2.8,1.155-5.631,2.247c-3.785,1.421-7.593,2.784-11.432,4.052s-7.7,2.467-11.58,3.6c-7.756,2.276-15.549,4.413-23.408,6.26-7.866,1.805-15.767,3.471-23.754,4.566l-.031,0-.059.014a27.848,27.848,0,0,1-9.377.585,18.045,18.045,0,0,1-8.708-3.255,14.658,14.658,0,0,1-3.3-3.335,8.249,8.249,0,0,1-.665-.979c-.2-.341-.421-.671-.607-1.021a20.68,20.68,0,0,1-.988-2.169,30.285,30.285,0,0,1-1.976-9.394l-.144.005a30.482,30.482,0,0,0,1.5,9.62,21.354,21.354,0,0,0,.94,2.281c.179.371.4.724.592,1.088a8.849,8.849,0,0,0,.658,1.052,15.585,15.585,0,0,0,3.366,3.662,18.819,18.819,0,0,0,9.169,3.7,27.831,27.831,0,0,0,4.961.224,26.237,26.237,0,0,0,4.948-.663l-.09.018a216.6,216.6,0,0,0,23.9-4.613q11.809-2.92,23.356-6.746c1.922-.639,3.844-1.276,5.754-1.948s3.827-1.323,5.728-2.019c3.821-1.338,7.614-2.754,11.405-4.172,1.9-.706,3.79-1.425,5.674-2.17.939-.385,1.879-.751,2.815-1.162.48-.2.925-.412,1.383-.575a14.207,14.207,0,0,1,1.419-.425,32.785,32.785,0,0,1,5.934-.785c2-.1,4.021-.108,6.009-.011l-.269-.081a33.786,33.786,0,0,0,6.759,3.327,15.727,15.727,0,0,0,7.588.894,13.746,13.746,0,0,0,3.7-1.122c1.168-.52,2.247-1.177,3.315-1.739a18.386,18.386,0,0,1,3.324-1.37,12.677,12.677,0,0,1,3.465-.583l-.321-.15c1.113,1.092,2.244,2.169,3.451,3.172a23.083,23.083,0,0,0,1.9,1.414,7.6,7.6,0,0,0,2.191,1.056,2.128,2.128,0,0,0,1.335-.039,1.609,1.609,0,0,0,.9-1.011,5.721,5.721,0,0,0,.165-2.413,21.052,21.052,0,0,0-1.086-4.545Zm-113.46-10.383c.3-.038,30.3-3.831,40.534-5.418l-.086-.551c-10.229,1.586-40.217,5.378-40.519,5.417Z" transform="translate(-213.463 -137.395)" fill="#5504b0"/>
          <path id="Path_5181" data-name="Path 5181" d="M420.681,376.829a9.38,9.38,0,0,1-1.62-.631,3.433,3.433,0,0,1-1.289-.969.9.9,0,0,1,.152-1.178,4.893,4.893,0,0,1,1.249-.978,19.739,19.739,0,0,1,3.065-1.447c1.07-.41,2.146-.81,3.246-1.163,2.2-.7,4.417-1.4,6.653-2.039l6.7-2c2.227-.7,4.46-1.386,6.682-2.119,2.213-.761,4.436-1.5,6.618-2.38a58.567,58.567,0,0,0,6.443-2.913,19.014,19.014,0,0,0,2.986-1.966,5.611,5.611,0,0,0,1.214-1.355,1.959,1.959,0,0,0,.279-.88,1.4,1.4,0,0,0-.245-.853,1.42,1.42,0,0,1-.3,1.55,5.275,5.275,0,0,1-1.3,1.056,20.4,20.4,0,0,1-3.087,1.492c-2.133.868-4.342,1.574-6.55,2.282-2.219.677-4.434,1.376-6.671,2.019l-6.7,2c-4.454,1.39-8.928,2.756-13.3,4.527a29.02,29.02,0,0,0-6.333,3.318,5.717,5.717,0,0,0-1.327,1.363,2.017,2.017,0,0,0-.343,1.018,1.43,1.43,0,0,0,.408,1.017,3.8,3.8,0,0,0,1.631.895,9.535,9.535,0,0,0,1.74.33Z" transform="translate(-369.704 -178.199)" fill="#5504b0"/>
          <path id="Path_5182" data-name="Path 5182" d="M443.525,334.569a18.555,18.555,0,0,1-3.064-.164,11.585,11.585,0,0,1-2.92-.741,5.014,5.014,0,0,1-2.254-1.693,3.917,3.917,0,0,1-.539-1.235,4.865,4.865,0,0,1-.078-1.376l.2-1.517a8.932,8.932,0,0,0,.068-1.645,13,13,0,0,0-.177-1.635c-.124-.529-.235-1.068-.4-1.583a27.7,27.7,0,0,0-2.747-5.74c-1.024-1.769-2.2-3.565-2.48-5.258l-.028-.3c-.01-.1-.024-.188-.028-.354-.01-.3-.029-.586-.057-.841-.046-.536-.11-1.048-.168-1.569l-.389-3.089c-.534-4.107-1.135-8.2-1.745-12.284-.632-4.085-1.264-8.171-1.849-12.263s-1.141-8.19-1.563-12.3a184.518,184.518,0,0,1-1.012-24.736,68.637,68.637,0,0,1,1.362-12.166c.464-1.914,1.187-3.878,1.849-5.819l1.044-2.9,1.129-2.856c.359-.96.808-1.877,1.221-2.811s.827-1.867,1.316-2.761l1.412-2.71,1.568-2.618c.5-.89,1.1-1.706,1.673-2.547.587-.828,1.114-1.7,1.75-2.494,1.279-1.578,2.474-3.225,3.9-4.681a80.265,80.265,0,0,1,19.019-15.272,153.808,153.808,0,0,1,22.314-10.573l-.068-.2a121.409,121.409,0,0,0-23.081,9.311,87.253,87.253,0,0,0-10.556,6.754,55.226,55.226,0,0,0-4.851,4.006l-2.321,2.133-2.161,2.3A66.412,66.412,0,0,0,425.79,219.75l-1.1,2.935-.992,2.965c-.61,1.993-1.267,3.938-1.717,6.06a63.313,63.313,0,0,0-.871,12.514c.022,4.158.282,8.3.539,12.432q.416,6.2.958,12.386l1.066,12.377q.574,6.186,1.261,12.361c.483,4.112,1.039,8.215,1.632,12.3l.425,3.062c.062.506.133,1.019.182,1.513.032.259.048.489.059.705l.036.419.05.469a10.327,10.327,0,0,0,1.229,3.166c.527.934,1.087,1.816,1.634,2.689a28.737,28.737,0,0,1,2.8,5.329c.17.462.286.936.42,1.407a13.014,13.014,0,0,1,.219,1.438,7.688,7.688,0,0,1,.019,1.451l-.049.73c-.022.28-.067.555-.066.839a5.959,5.959,0,0,0,.2,1.7,4.589,4.589,0,0,0,.8,1.543,5.853,5.853,0,0,0,2.768,1.8,14.6,14.6,0,0,0,6.263.432Z" transform="translate(-391.629 -133.323)" fill="#5504b0"/>
          <path id="Path_5183" data-name="Path 5183" d="M373.574,228.467a23.024,23.024,0,0,1,16.046,14.507c.156.439.354.854.475,1.311l.39,1.357.4,1.354.342,1.384c.223.924.468,1.84.673,2.77l.609,2.795c.813,3.727,1.561,7.477,2.276,11.234l1.086,5.635,1.05,5.644,2.116,11.292c1.408,7.531,2.836,15.061,4.413,22.574-.689-7.647-1.655-15.258-2.752-22.85-.532-3.8-1.16-7.583-1.765-11.372-.64-3.783-1.326-7.559-2.031-11.333-.759-3.765-1.518-7.53-2.407-11.276l-.689-2.805c-.232-.935-.507-1.865-.758-2.8l-.385-1.4-.456-1.391-.466-1.387c-.145-.464-.378-.912-.563-1.367l-.589-1.359-.716-1.3a20.055,20.055,0,0,0-1.606-2.488,22.425,22.425,0,0,0-4.105-4.222,21.394,21.394,0,0,0-10.586-4.513Zm-12.439,0a11.423,11.423,0,0,0-4.459.4,15.759,15.759,0,0,0-4.121,1.788,15.263,15.263,0,0,0-3.473,2.858,12.222,12.222,0,0,0-2.393,3.781c1.267-.838,2.353-1.731,3.521-2.514,1.132-.819,2.293-1.561,3.467-2.282s2.377-1.4,3.615-2.056S359.795,229.146,361.135,228.467Zm95.1-14.636c-.31,2.414-.545,4.832-.814,7.249s-.492,4.836-.708,7.256c-.438,4.84-.842,9.682-1.186,14.528l1.26-.379-5.506-7.336c-1.815-2.461-3.658-4.9-5.438-7.383s-3.584-4.956-5.153-7.541a42.324,42.324,0,0,1-1.935-4.117c-.589-1.41-1.17-2.826-1.676-4.272a45.309,45.309,0,0,0,1.285,4.421l.758,2.176a18.137,18.137,0,0,0,.9,2.156,88.215,88.215,0,0,0,4.84,7.866c1.731,2.535,3.482,5.054,5.3,7.524s3.633,4.937,5.513,7.364l1.136,1.467.124-1.847c.326-4.848.59-9.7.821-14.553q.173-3.641.295-7.285C456.11,218.692,456.208,216.264,456.233,213.831Z" transform="translate(-310.158 -142.791)" fill="#5504b0"/>
          <path id="Path_5184" data-name="Path 5184" d="M395.5,253.358a51.2,51.2,0,0,1-9.4-1.682,40.258,40.258,0,0,1-4.437-1.532,30.445,30.445,0,0,1-4.178-2.053,34.052,34.052,0,0,1-3.831-2.616,33.7,33.7,0,0,1-3.4-3.185A42.036,42.036,0,0,1,364.8,234.5a24.276,24.276,0,0,0,4.154,8.864,26.415,26.415,0,0,0,3.38,3.674,27.145,27.145,0,0,0,4.066,2.919,28.816,28.816,0,0,0,9.326,3.356A27.012,27.012,0,0,0,395.5,253.358Zm-49.846-49.937q1.42,8.445,3.045,16.842c1.065,5.6,2.194,11.19,3.31,16.78l3.418,16.752c.562,2.793,1.136,5.584,1.671,8.381.275,1.4.545,2.8.778,4.2.122.7.226,1.405.32,2.11a16.635,16.635,0,0,1,.188,2.125,24.447,24.447,0,0,0-.13-4.284c-.127-1.425-.291-2.844-.46-4.263q-.555-4.25-1.263-8.473c-.92-5.635-2-11.239-3.113-16.834-1.145-5.589-2.335-11.169-3.625-16.726Q347.881,211.691,345.651,203.421ZM335.6,195.386a25.9,25.9,0,0,0-3.768,2.98,25.081,25.081,0,0,0-3.192,3.639,17.225,17.225,0,0,0-2.3,4.334,11.347,11.347,0,0,0-.481,4.929l.392-.462a16.681,16.681,0,0,1-4.439-.089,8.882,8.882,0,0,1-2.128-.6,4.8,4.8,0,0,1-1.762-1.206,11.585,11.585,0,0,1-1.044-1.919c-.305-.681-.586-1.373-.847-2.078-.525-1.4-1.047-2.812-1.538-4.231-1.021-2.825-1.914-5.7-2.812-8.556-.455-1.427-.888-2.862-1.288-4.3-.212-.718-.377-1.437-.548-2.155a11.219,11.219,0,0,1-.295-2.079l-.133.3c.728-.908,1.433-1.821,2.116-2.759.34-.47.661-.954.97-1.449a5.664,5.664,0,0,0,.769-1.591l-.141-.03a6.844,6.844,0,0,1-.977,1.367c-.367.436-.763.851-1.149,1.274-.77.844-1.569,1.673-2.375,2.478l-.119.119-.014.178a11.048,11.048,0,0,0,.124,2.417c.117.763.26,1.521.43,2.264.316,1.5.739,2.958,1.156,4.419.88,2.908,1.958,5.745,3.084,8.561.6,1.395,1.181,2.8,1.877,4.153.333.683.695,1.356,1.063,2.026a12.406,12.406,0,0,0,1.294,1.947,8.107,8.107,0,0,0,4.2,1.9c.752.148,1.508.265,2.27.338a21.287,21.287,0,0,0,2.307.139h.4l-.011-.463a12.062,12.062,0,0,1,.839-4.422,20.5,20.5,0,0,1,2.1-4.072,33.676,33.676,0,0,1,2.817-3.727c1.019-1.192,2.088-2.359,3.226-3.463Z" transform="translate(-220.732 -134.378)" fill="#5504b0"/>
          <path id="Path_5185" data-name="Path 5185" d="M241.52,200.484c-.828,1.64-1.51,3.326-2.174,5.017s-1.28,3.4-1.8,5.137-.9,3.528-1.494,5.243a34.012,34.012,0,0,1-2.17,4.976,20.867,20.867,0,0,1-1.37,2.266,3.826,3.826,0,0,1-.373.448c-.1.129-.3.194-.128.132a.323.323,0,0,1,.178.042,1.334,1.334,0,0,1-.063-.12,1.757,1.757,0,0,1-.147-.5,5.67,5.67,0,0,1,.32-2.344c.246-.849.5-1.737.7-2.667a9.615,9.615,0,0,0,.169-2.924,5.414,5.414,0,0,0-1.143-2.79,3.685,3.685,0,0,0-.477-.559,7.071,7.071,0,0,0-.517-.5,4.73,4.73,0,0,0-1.224-.836,1.771,1.771,0,0,0-1.57-.047,1.805,1.805,0,0,0-.827,1.207l.137.044a1.66,1.66,0,0,1,.877-.826,1.284,1.284,0,0,1,1.033.269,6.757,6.757,0,0,1,1.637,1.893,6.061,6.061,0,0,1,.4,4.753c-.176.849-.442,1.7-.649,2.612a6.771,6.771,0,0,0-.184,3.027,2.978,2.978,0,0,0,.291.784,1.779,1.779,0,0,0,.318.441,1.053,1.053,0,0,0,.779.313,1.251,1.251,0,0,0,.4-.1c.089-.049.177-.1.261-.159a2.406,2.406,0,0,0,.332-.326,3.851,3.851,0,0,0,.44-.642,17.083,17.083,0,0,0,1.122-2.574c.632-1.724,1.2-3.451,1.888-5.135s1.505-3.323,2.188-5.012a53.612,53.612,0,0,0,1.723-5.176,50.779,50.779,0,0,0,1.253-5.327Zm-29.364-18.727a9.432,9.432,0,0,0-4.056-1.817,2.9,2.9,0,0,0-1.2.107,1.985,1.985,0,0,0-1.017.751,4.04,4.04,0,0,0-.572,2.3,16.711,16.711,0,0,0,.753,4.426c.384,1.434.866,2.831,1.38,4.214a131.364,131.364,0,0,0,7.511,15.942c1.426,2.565,2.9,5.1,4.4,7.621l4.542,7.527c.744,1.266,1.544,2.486,2.174,3.8a39.455,39.455,0,0,1,1.715,4.011,57.769,57.769,0,0,1,2.253,8.438c.578,2.86,1.013,5.751,1.493,8.636.453,2.89.827,5.8,1.271,8.69.853,5.792,1.695,11.586,2.616,17.367,1.875,11.556,3.842,23.1,6.1,34.6l.142-.022c-1.352-11.64-2.992-23.241-4.725-34.827-.883-5.79-1.845-11.568-2.8-17.346-.478-2.889-.94-5.779-1.48-8.659s-1.153-5.752-1.848-8.608a72,72,0,0,0-2.548-8.444,39.94,39.94,0,0,0-1.794-4.035c-.664-1.317-1.434-2.574-2.169-3.834-2.935-5.063-5.632-10.263-8.282-15.471s-5.312-10.41-7.531-15.787c-.529-1.351-1.075-2.7-1.508-4.077a15.965,15.965,0,0,1-.909-4.168,3.608,3.608,0,0,1,.35-1.927,1.726,1.726,0,0,1,1.645-.728,6.65,6.65,0,0,1,2.057.5,14.037,14.037,0,0,1,1.955.95Zm-19.8,118.876a67.535,67.535,0,0,1-7.14-3.2,51.818,51.818,0,0,1-6.518-4.052,18.744,18.744,0,0,1-1.524-1.153l-1.487-1.2c-.922-.877-1.917-1.69-2.784-2.636a66.162,66.162,0,0,1-5.073-5.945,23.914,23.914,0,0,0,3.8,7.048,27.262,27.262,0,0,0,2.677,3.045,32.125,32.125,0,0,0,3.123,2.591,29.433,29.433,0,0,0,7.1,3.838A24.221,24.221,0,0,0,192.353,300.633Zm1.956,11.168a37.252,37.252,0,0,1-7.106-2.1,42.831,42.831,0,0,1-6.468-3.3c-.514-.319-1-.677-1.508-1.012-.251-.169-.509-.329-.756-.506l-.72-.558-1.454-1.106c-.456-.4-.924-.8-1.4-1.189l-.708-.591c-.219-.215-.435-.433-.663-.64l-1.36-1.266c-.9-.858-1.728-1.789-2.688-2.644a35.151,35.151,0,0,0,1.873,3.322l1.132,1.544c.187.261.387.511.583.765l.647.709c.431.475.867.948,1.314,1.411s.96.856,1.443,1.285l.736.629c.254.2.521.381.782.572.531.367,1.05.755,1.6,1.1a25.554,25.554,0,0,0,7.094,3.071A18.134,18.134,0,0,0,194.309,311.8Zm-35.543,2.834c.108,4.4.428,8.764.821,13.124.177,2.182.431,4.355.648,6.532l.768,6.516.883,6.5c.335,2.162.63,4.329,1,6.486.708,4.319,1.492,8.629,2.489,12.912-.105-4.4-.424-8.765-.818-13.124-.176-2.182-.432-4.354-.648-6.532l-.771-6.516-.886-6.5c-.334-2.162-.631-4.329-1.005-6.486C160.544,323.228,159.761,318.919,158.767,314.636Zm187.662-21.827,4.41.892-.043,4.194q-2.255-.766-4.561-1.345C346.314,295.3,346.378,294.053,346.429,292.809Zm-.23,4.352c1.518.331,3.05.612,4.6.82l-.065,6.273q-2.428-1.025-4.921-1.842C345.961,300.664,346.091,298.909,346.2,297.161Zm-.878,10.59q.248-2.352.439-4.712,2.46.745,4.971,1.309l-.05,4.683-.022,4.036a19.745,19.745,0,0,0-3.705-1.36c-.676-.151-1.374-.259-2.043-.432C345.047,310.1,345.2,308.931,345.321,307.751Zm-.856,7.489c.122-1.245.266-2.489.417-3.727.64.223,1.266.518,1.9.763a19.177,19.177,0,0,0,3.878.935l-.05,7.784a28.5,28.5,0,0,0-4.432-1.748c-.676-.187-1.352-.345-2.029-.525.094-1.165.194-2.324.316-3.482Zm-.612,7.5c.086-1.237.173-2.482.266-3.719.626.252,1.237.532,1.863.791a28.165,28.165,0,0,0,4.626,1.331l-.022,3.122c0,1.345-.007,2.683-.014,4.029a22.275,22.275,0,0,0-3.914-1.237c-.727-.137-1.468-.216-2.187-.374-.295-.065-.59-.151-.885-.237.086-1.237.187-2.468.266-3.7Zm-1.129,14.23c.324-3.424.6-6.849.842-10.28.288.065.568.137.849.216.705.209,1.4.5,2.094.734a21.537,21.537,0,0,0,4.065.813c-.014,3.611-.029,7.223-.007,10.827-2.59-.856-5.209-1.619-7.842-2.309Zm-.065.784c0-.05.007-.1.007-.151,2.611.676,5.245,1.281,7.9,1.791v.072c-.007,3.151.014,6.3.043,9.453-2.914-1.029-5.863-1.95-8.827-2.8q.475-4.176.878-8.367Zm-.957,8.993c2.95.842,5.914,1.611,8.906,2.273.014,1.8.029,3.59.043,5.388l-9.683-1.82c.266-1.95.5-3.892.734-5.842Zm-.77-55.049,5.417,1.094c-.165,1.216-.331,2.439-.482,3.655-.705-.173-1.417-.338-2.129-.5-1.094-.209-2.187-.381-3.273-.6.166-1.216.324-2.432.468-3.647Zm-.511,3.914c1.065.288,2.115.626,3.18.921.727.194,1.46.367,2.194.532-.209,1.719-.388,3.432-.561,5.151-.6-.194-1.194-.381-1.8-.554-1.252-.353-2.518-.647-3.763-1.014q.4-2.514.748-5.036Zm-1.727,10.8c.338-1.842.64-3.683.935-5.525,1.223.417,2.417.906,3.626,1.345.633.216,1.273.424,1.914.626-.158,1.612-.309,3.223-.439,4.842-.086,1.151-.151,2.3-.223,3.453q-.8-.248-1.576-.561a41.426,41.426,0,0,0-3.942-1.4l-.8-.216c.173-.856.345-1.712.5-2.568Zm-1.424,7.367c.237-1.367.511-2.727.784-4.093.237.086.475.165.712.245a40.73,40.73,0,0,0,4.05,1.036c.568.115,1.122.259,1.676.424-.079,1.28-.165,2.554-.273,3.827-.094,1.144-.2,2.288-.317,3.432l-.18-.043c-.806-.252-1.59-.561-2.367-.892-1.468-.64-2.957-1.194-4.46-1.712.122-.741.237-1.482.374-2.223Zm-1.18,7.417q.324-2.223.676-4.439c1.475.489,2.957.942,4.46,1.324.82.216,1.633.446,2.424.741.072.029.151.065.23.1-.137,1.259-.273,2.525-.424,3.784-.137,1.194-.259,2.388-.4,3.583-.237-.079-.475-.151-.712-.237-1.388-.511-2.806-.914-4.23-1.288-.827-.194-1.655-.367-2.489-.511.151-1.014.309-2.036.46-3.057Zm-.194-30.517,1.065.216,3.892.791q-.4,1.791-.763,3.59c-1.2-.266-2.388-.59-3.576-.935-.417-.122-.842-.23-1.266-.353.223-1.1.439-2.2.647-3.309Zm-.748,3.8c.424.079.849.173,1.273.252,1.216.223,2.424.468,3.619.777h.007c-.331,1.655-.64,3.309-.942,4.964q-1.619-.518-3.216-1.108c-.547-.209-1.1-.4-1.655-.6.317-1.424.626-2.856.914-4.288Zm.4,30.287c.784.273,1.576.518,2.374.741,1.432.367,2.863.7,4.331.928.259.043.518.094.777.144q-.572,5.1-1.029,10.208c-.518-.13-1.043-.266-1.561-.4-1.763-.41-3.539-.763-5.295-1.194-.4-.1-.806-.216-1.209-.317q.863-5.05,1.612-10.115Zm-3.813-10.079a44.22,44.22,0,0,0,4.64,1.942,1.222,1.222,0,0,0,.151.05c-.266,1.482-.54,2.971-.827,4.453-.2,1.014-.388,2.029-.583,3.043-.446-.072-.892-.13-1.353-.18,1.079-1.46-.669-6.187-2.029-9.309Zm.993-9.489q.723-2.957,1.388-5.921c.547.151,1.094.317,1.647.46,1.108.295,2.209.619,3.295.971-.331,1.863-.655,3.734-.95,5.6-.129.849-.245,1.7-.367,2.561a26.713,26.713,0,0,0-2.856-.554l-.014.036c-.691-.791-1.482-1.676-2.295-2.6.058-.187.1-.374.151-.561Zm1.014,30.827c.058-.3.1-.6.151-.906.4.1.8.194,1.194.3,1.741.482,3.468,1.043,5.2,1.547.547.158,1.1.3,1.655.446-.014.094-.022.187-.029.281q-.367,4.144-.647,8.288c-.5-.137-1.007-.281-1.511-.417-1.878-.489-3.77-.921-5.64-1.424-.59-.166-1.173-.338-1.755-.511q.734-3.8,1.381-7.6Zm-1.432,7.849c.583.158,1.165.317,1.741.489,1.856.561,3.691,1.194,5.539,1.777.547.158,1.093.317,1.633.475q-.194,2.978-.338,5.964L338.9,352.2q-3.993-.755-7.971-1.547.723-3.388,1.381-6.784Zm-1.626-31.906c.079.05.158.094.237.137,3.3,1.784,5.338.655,6.093-.3.36-.446-.633-1.719-2.093-3.388a27.974,27.974,0,0,0,2.727,1.137c-.194,1.4-.4,2.8-.626,4.194-.115.719-.245,1.446-.367,2.173-.014-.007-.022-.007-.029-.014a45.444,45.444,0,0,0-4.9-1.3l-.014.036c-.353-.813-.683-1.525-.921-2.022-.065-.137-.122-.259-.173-.36-.122-.252-.2-.41-.216-.446.094.05.187.108.281.158Zm-2.482-19.021c.324.086.655.173.978.252,1.849.439,3.712.835,5.583,1.2q-.55,2.083-1.072,4.173-2.622-.939-5.273-1.791c-.36-.108-.719-.209-1.072-.317q.442-1.759.856-3.518Zm-1.043,4.216c.345.122.683.237,1.029.353,1.777.568,3.568,1.093,5.367,1.6-.489,1.978-.964,3.957-1.41,5.942-.014.05-.022.108-.036.158a37.039,37.039,0,0,1-3.115-4.05,7.457,7.457,0,0,0-2.288-2.288c.158-.575.309-1.144.453-1.719Zm-.216,32.784c4.518,1.842,1.885-6.763,1.669-7.468a.122.122,0,0,1-.014-.036c.007,0,.007.007.014.014,2.971,2.115,4.5,2.36,5.122,1.576l-.007.036c.432.187.87.353,1.317.518q-.96,5.04-1.82,10.1c-1.108-.295-2.209-.611-3.309-.935-1.2-.367-2.41-.705-3.611-1.05.216-.914.432-1.834.64-2.755Zm-1.058,4.547c.094-.4.187-.806.281-1.216q1.824.442,3.647.856,1.694.378,3.367.8c-.05.324-.115.647-.165.971q-.637,3.777-1.194,7.575-1.64-.5-3.28-1.014c-1.424-.468-2.863-.906-4.295-1.345.561-2.208,1.115-4.41,1.64-6.626Zm2.18-42.316c-1.878-.4-3.77-.77-5.676-1.05.345-1,.691-2,1.036-3.007l12.381,2.539q-.464,1.619-.906,3.237-2.752-.777-5.547-1.446c-.324-.072-.655-.144-.986-.209.216-.942.439-1.885.647-2.835l-.072-.014c-.3.921-.59,1.849-.878,2.784ZM324.1,341.714c1.446.381,2.885.763,4.338,1.122,1.122.288,2.237.583,3.352.885-.331,2.3-.647,4.611-.935,6.921q-1.975-.388-3.935-.784l-4.77-.957q1.014-3.583,1.95-7.187ZM322.35,291.24c1.82.6,3.655,1.129,5.5,1.611q-.529,1.727-1.029,3.453c-1.885-.554-3.784-1.072-5.7-1.511.41-1.187.82-2.367,1.223-3.554Zm-1.266,3.669c1.827.748,3.683,1.432,5.547,2.072-.151.525-.3,1.05-.446,1.576a12.531,12.531,0,0,0-5.878-1.41c.259-.748.518-1.489.777-2.237ZM319.8,324.434c.245,0,.374.007.374.007a29.275,29.275,0,0,0,6.115,5.187c-.23.957-.46,1.914-.683,2.871q-3.054-.863-6.137-1.676c-.424-.1-.856-.209-1.281-.317.547-2.021,1.086-4.05,1.611-6.072Zm-2.18,8.194c.13-.468.252-.942.381-1.41.424.115.849.237,1.273.353q3.086.8,6.187,1.54c-.094.4-.194.806-.288,1.209q-.777,3.3-1.489,6.619c-2.086-.633-4.173-1.259-6.273-1.856-.5-.137-1-.273-1.5-.41C316.487,336.664,317.062,334.65,317.616,332.628Zm-8.331-4.331c1.554-.626,2.842-1.439,4.057-2.05a16.744,16.744,0,0,1,5.762-1.77c-.547,1.95-1.093,3.9-1.626,5.856-2.741-.669-5.5-1.295-8.266-1.842Zm-.108.295c2.683.878,5.4,1.669,8.115,2.432-.129.468-.266.942-.4,1.41q-.809,3.032-1.575,6.079c-2.95-.8-5.914-1.554-8.9-2.23Zm-2.791,7.791c2.9,1.007,5.82,1.935,8.755,2.82q-.96,3.842-1.827,7.7l.072.022q1.2-3.766,2.316-7.554c.5.151.993.3,1.5.453q3.162.9,6.345,1.748-.777,3.647-1.475,7.316l-18.805-3.777Zm40.042-43.575,4.41.892-.043,4.194q-2.255-.766-4.561-1.345c.079-1.245.144-2.5.194-3.741Zm-.23,4.352c1.518.331,3.05.612,4.6.82l-.065,6.273q-2.428-1.025-4.921-1.842c.151-1.748.281-3.5.389-5.252Zm-.878,10.59q.248-2.352.439-4.712,2.46.745,4.971,1.309l-.05,4.683-.022,4.036a19.746,19.746,0,0,0-3.705-1.36c-.676-.151-1.374-.259-2.043-.432.137-1.173.288-2.345.41-3.525Zm-.856,7.489c.122-1.245.266-2.489.417-3.727.64.223,1.266.518,1.9.763a19.175,19.175,0,0,0,3.878.935l-.05,7.784a28.5,28.5,0,0,0-4.432-1.748c-.676-.187-1.353-.345-2.029-.525.094-1.165.194-2.324.317-3.482Zm-.611,7.5c.086-1.237.173-2.482.266-3.719.626.252,1.237.532,1.863.791a28.164,28.164,0,0,0,4.626,1.331l-.022,3.122c0,1.345-.007,2.683-.014,4.029a22.271,22.271,0,0,0-3.914-1.237c-.727-.137-1.468-.216-2.187-.374-.295-.065-.59-.151-.885-.237.086-1.237.187-2.468.266-3.7Zm-1.129,14.23c.324-3.424.6-6.849.842-10.28.288.065.568.137.849.216.705.209,1.4.5,2.094.734a21.537,21.537,0,0,0,4.065.813c-.014,3.611-.029,7.223-.007,10.827-2.59-.856-5.209-1.619-7.842-2.309Zm-.065.784c0-.05.007-.1.007-.151,2.611.676,5.245,1.281,7.9,1.791v.072c-.007,3.151.014,6.3.043,9.453-2.914-1.029-5.863-1.95-8.827-2.8q.475-4.176.878-8.367Zm-.957,8.993c2.95.842,5.914,1.611,8.906,2.273.014,1.8.029,3.59.043,5.388l-9.683-1.82c.266-1.95.5-3.892.734-5.842Zm-.77-55.049,5.417,1.094c-.165,1.216-.331,2.439-.482,3.655-.705-.173-1.417-.338-2.129-.5-1.094-.209-2.187-.381-3.273-.6.166-1.216.324-2.432.468-3.647Zm-.511,3.914c1.065.288,2.115.626,3.18.921.727.194,1.46.367,2.194.532-.209,1.719-.389,3.432-.561,5.151-.6-.194-1.194-.381-1.8-.554-1.252-.353-2.518-.647-3.763-1.014q.4-2.514.748-5.036Zm-1.727,10.8c.338-1.842.64-3.683.935-5.525,1.223.417,2.417.906,3.626,1.345.633.216,1.273.424,1.914.626-.158,1.612-.309,3.223-.439,4.842-.086,1.151-.151,2.3-.223,3.453q-.8-.248-1.576-.561a41.445,41.445,0,0,0-3.942-1.4l-.8-.216c.173-.856.345-1.712.5-2.568Zm-1.424,7.367c.237-1.367.511-2.727.784-4.093.237.086.475.165.712.245a40.738,40.738,0,0,0,4.05,1.036c.568.115,1.122.259,1.676.424-.079,1.28-.165,2.554-.273,3.827-.094,1.144-.2,2.288-.317,3.432l-.18-.043c-.806-.252-1.59-.561-2.367-.892-1.468-.64-2.957-1.194-4.46-1.712.122-.741.237-1.482.374-2.223Zm-1.18,7.417q.324-2.223.676-4.439c1.475.489,2.957.942,4.46,1.324.82.216,1.633.446,2.424.741.072.029.151.065.23.1-.137,1.259-.273,2.525-.424,3.784-.137,1.194-.259,2.388-.4,3.583-.237-.079-.475-.151-.712-.237-1.388-.511-2.806-.914-4.23-1.288-.827-.194-1.655-.367-2.489-.511.151-1.014.309-2.036.46-3.057Zm-.194-30.517,1.065.216,3.892.791q-.4,1.791-.763,3.59c-1.2-.266-2.388-.59-3.576-.935-.417-.122-.842-.23-1.266-.353.223-1.1.439-2.2.648-3.309Zm-.748,3.8c.424.079.849.173,1.273.252,1.216.223,2.424.468,3.619.777h.007c-.331,1.655-.64,3.309-.942,4.964q-1.619-.518-3.216-1.108c-.547-.209-1.1-.4-1.655-.6.317-1.424.626-2.856.914-4.288Zm.4,30.287c.784.273,1.576.518,2.374.741,1.432.367,2.863.7,4.331.928.259.043.518.094.777.144q-.572,5.1-1.029,10.208c-.518-.13-1.043-.266-1.561-.4-1.763-.41-3.539-.763-5.295-1.194-.4-.1-.806-.216-1.209-.317q.863-5.05,1.612-10.115Zm-3.813-10.079a44.22,44.22,0,0,0,4.64,1.942,1.23,1.23,0,0,0,.151.05c-.266,1.482-.54,2.971-.827,4.453-.2,1.014-.388,2.029-.583,3.043-.446-.072-.892-.13-1.353-.18,1.079-1.46-.669-6.187-2.029-9.309Zm.993-9.489q.723-2.957,1.388-5.921c.547.151,1.094.317,1.647.46,1.108.295,2.209.619,3.295.971-.331,1.863-.655,3.734-.95,5.6-.129.849-.245,1.7-.367,2.561a26.713,26.713,0,0,0-2.856-.554l-.014.036c-.691-.791-1.482-1.676-2.295-2.6.058-.187.1-.374.151-.561Zm1.014,30.827c.058-.3.1-.6.151-.906.4.1.8.194,1.194.3,1.741.482,3.468,1.043,5.2,1.547.547.158,1.1.3,1.655.446-.014.094-.022.187-.029.281q-.367,4.144-.648,8.288c-.5-.137-1.007-.281-1.511-.417-1.878-.489-3.77-.921-5.64-1.424-.59-.166-1.173-.338-1.755-.511q.734-3.8,1.381-7.6Zm-1.432,7.849c.583.158,1.165.317,1.741.489,1.856.561,3.691,1.194,5.539,1.777.547.158,1.093.317,1.633.475q-.194,2.978-.338,5.964L338.9,352.2q-3.993-.755-7.971-1.547.723-3.388,1.381-6.784Zm-1.626-31.906c.079.05.158.094.237.137,3.3,1.784,5.338.655,6.093-.3.36-.446-.633-1.719-2.093-3.388a27.982,27.982,0,0,0,2.727,1.137c-.194,1.4-.4,2.8-.626,4.194-.115.719-.245,1.446-.367,2.173-.014-.007-.022-.007-.029-.014a45.443,45.443,0,0,0-4.9-1.3l-.014.036c-.353-.813-.683-1.525-.921-2.022-.065-.137-.122-.259-.173-.36-.122-.252-.2-.41-.216-.446.094.05.187.108.281.158Zm-2.482-19.021c.324.086.655.173.978.252,1.849.439,3.712.835,5.583,1.2q-.55,2.083-1.072,4.173-2.622-.939-5.273-1.791c-.36-.108-.719-.209-1.072-.317q.442-1.759.856-3.518Zm-1.043,4.216c.345.122.683.237,1.029.353,1.777.568,3.568,1.093,5.367,1.6-.489,1.978-.964,3.957-1.41,5.942-.014.05-.022.108-.036.158a37.028,37.028,0,0,1-3.115-4.05,7.457,7.457,0,0,0-2.288-2.288c.158-.575.309-1.144.453-1.719Zm-.216,32.784c4.518,1.842,1.885-6.763,1.669-7.468a.121.121,0,0,1-.014-.036c.007,0,.007.007.014.014,2.971,2.115,4.5,2.36,5.122,1.576l-.007.036c.432.187.87.353,1.317.518q-.96,5.04-1.82,10.1c-1.108-.295-2.209-.611-3.309-.935-1.2-.367-2.41-.705-3.611-1.05.216-.914.432-1.834.64-2.755Zm-1.058,4.547c.094-.4.187-.806.281-1.216q1.824.442,3.647.856,1.694.378,3.367.8c-.05.324-.115.647-.165.971q-.637,3.777-1.194,7.575-1.64-.5-3.281-1.014c-1.424-.468-2.863-.906-4.295-1.345.561-2.208,1.115-4.41,1.64-6.626Zm2.18-42.316c-1.878-.4-3.77-.77-5.676-1.05.345-1,.691-2,1.036-3.007l12.381,2.539q-.464,1.619-.906,3.237-2.752-.777-5.547-1.446c-.324-.072-.655-.144-.986-.209.216-.942.439-1.885.647-2.835l-.072-.014c-.3.921-.59,1.849-.878,2.784ZM324.1,341.714c1.446.381,2.885.763,4.338,1.122,1.122.288,2.237.583,3.352.885-.331,2.3-.647,4.611-.935,6.921q-1.975-.388-3.935-.784l-4.77-.957q1.014-3.583,1.95-7.187ZM322.35,291.24c1.82.6,3.655,1.129,5.5,1.611q-.529,1.727-1.029,3.453c-1.885-.554-3.784-1.072-5.7-1.511.41-1.187.82-2.367,1.223-3.554Zm-1.266,3.669c1.827.748,3.683,1.432,5.547,2.072-.151.525-.3,1.05-.446,1.576a12.531,12.531,0,0,0-5.878-1.41c.259-.748.518-1.489.777-2.237ZM319.8,324.434c.245,0,.374.007.374.007a29.275,29.275,0,0,0,6.115,5.187c-.23.957-.46,1.914-.683,2.871q-3.054-.863-6.137-1.676c-.424-.1-.856-.209-1.281-.317.547-2.021,1.086-4.05,1.612-6.072Zm-2.18,8.194c.13-.468.252-.942.381-1.41.424.115.849.237,1.273.353q3.086.8,6.187,1.54c-.094.4-.194.806-.288,1.209q-.777,3.3-1.489,6.619c-2.086-.633-4.173-1.259-6.273-1.856-.5-.137-1-.273-1.5-.41C316.487,336.664,317.062,334.65,317.616,332.628Zm-8.331-4.331c1.554-.626,2.842-1.439,4.057-2.05a16.744,16.744,0,0,1,5.762-1.77c-.547,1.95-1.093,3.9-1.626,5.856-2.741-.669-5.5-1.295-8.266-1.842Zm-.108.295c2.683.878,5.4,1.669,8.115,2.432-.129.468-.266.942-.4,1.41q-.809,3.032-1.575,6.079c-2.95-.8-5.914-1.554-8.9-2.23Zm-2.791,7.791c2.9,1.007,5.82,1.935,8.755,2.82q-.96,3.842-1.827,7.7l.072.022q1.2-3.766,2.316-7.554c.5.151.993.3,1.5.453q3.162.9,6.345,1.748-.777,3.647-1.475,7.316l-18.805-3.777Zm40.042-43.575,4.41.892-.043,4.194q-2.255-.766-4.561-1.345c.079-1.245.144-2.5.194-3.741Zm-.23,4.352c1.518.331,3.05.612,4.6.82l-.065,6.273q-2.428-1.025-4.921-1.842c.151-1.748.281-3.5.389-5.252Zm-.878,10.59q.248-2.352.439-4.712,2.46.745,4.971,1.309l-.05,4.683-.022,4.036a19.746,19.746,0,0,0-3.705-1.36c-.676-.151-1.374-.259-2.043-.432.137-1.173.288-2.345.41-3.525Zm-.856,7.489c.122-1.245.266-2.489.417-3.727.64.223,1.266.518,1.9.763a19.175,19.175,0,0,0,3.878.935l-.05,7.784a28.5,28.5,0,0,0-4.432-1.748c-.676-.187-1.353-.345-2.029-.525.094-1.165.194-2.324.317-3.482Zm-.611,7.5c.086-1.237.173-2.482.266-3.719.626.252,1.237.532,1.863.791a28.164,28.164,0,0,0,4.626,1.331l-.022,3.122c0,1.345-.007,2.683-.014,4.029a22.271,22.271,0,0,0-3.914-1.237c-.727-.137-1.468-.216-2.187-.374-.295-.065-.59-.151-.885-.237.086-1.237.187-2.468.266-3.7Zm-1.129,14.23c.324-3.424.6-6.849.842-10.28.288.065.568.137.849.216.705.209,1.4.5,2.094.734a21.537,21.537,0,0,0,4.065.813c-.014,3.611-.029,7.223-.007,10.827-2.59-.856-5.209-1.619-7.842-2.309Zm-.065.784c0-.05.007-.1.007-.151,2.611.676,5.245,1.281,7.9,1.791v.072c-.007,3.151.014,6.3.043,9.453-2.914-1.029-5.863-1.95-8.827-2.8q.475-4.176.878-8.367Zm-.957,8.993c2.95.842,5.914,1.611,8.906,2.273.014,1.8.029,3.59.043,5.388l-9.683-1.82c.266-1.95.5-3.892.734-5.842Zm-.77-55.049,5.417,1.094c-.165,1.216-.331,2.439-.482,3.655-.705-.173-1.417-.338-2.129-.5-1.094-.209-2.187-.381-3.273-.6.166-1.216.324-2.432.468-3.647Zm-.511,3.914c1.065.288,2.115.626,3.18.921.727.194,1.46.367,2.194.532-.209,1.719-.389,3.432-.561,5.151-.6-.194-1.194-.381-1.8-.554-1.252-.353-2.518-.647-3.763-1.014q.4-2.514.748-5.036Zm-1.727,10.8c.338-1.842.64-3.683.935-5.525,1.223.417,2.417.906,3.626,1.345.633.216,1.273.424,1.914.626-.158,1.612-.309,3.223-.439,4.842-.086,1.151-.151,2.3-.223,3.453q-.8-.248-1.576-.561a41.445,41.445,0,0,0-3.942-1.4l-.8-.216c.173-.856.345-1.712.5-2.568Zm-1.424,7.367c.237-1.367.511-2.727.784-4.093.237.086.475.165.712.245a40.738,40.738,0,0,0,4.05,1.036c.568.115,1.122.259,1.676.424-.079,1.28-.165,2.554-.273,3.827-.094,1.144-.2,2.288-.317,3.432l-.18-.043c-.806-.252-1.59-.561-2.367-.892-1.468-.64-2.957-1.194-4.46-1.712.122-.741.237-1.482.374-2.223Zm-1.18,7.417q.324-2.223.676-4.439c1.475.489,2.957.942,4.46,1.324.82.216,1.633.446,2.424.741.072.029.151.065.23.1-.137,1.259-.273,2.525-.424,3.784-.137,1.194-.259,2.388-.4,3.583-.237-.079-.475-.151-.712-.237-1.388-.511-2.806-.914-4.23-1.288-.827-.194-1.655-.367-2.489-.511.151-1.014.309-2.036.46-3.057Zm-.194-30.517,1.065.216,3.892.791q-.4,1.791-.763,3.59c-1.2-.266-2.388-.59-3.576-.935-.417-.122-.842-.23-1.266-.353.223-1.1.439-2.2.648-3.309Zm-.748,3.8c.424.079.849.173,1.273.252,1.216.223,2.424.468,3.619.777h.007c-.331,1.655-.64,3.309-.942,4.964q-1.619-.518-3.216-1.108c-.547-.209-1.1-.4-1.655-.6.317-1.424.626-2.856.914-4.288Zm.4,30.287c.784.273,1.576.518,2.374.741,1.432.367,2.863.7,4.331.928.259.043.518.094.777.144q-.572,5.1-1.029,10.208c-.518-.13-1.043-.266-1.561-.4-1.763-.41-3.539-.763-5.295-1.194-.4-.1-.806-.216-1.209-.317q.863-5.05,1.612-10.115Zm-3.813-10.079a44.22,44.22,0,0,0,4.64,1.942,1.23,1.23,0,0,0,.151.05c-.266,1.482-.54,2.971-.827,4.453-.2,1.014-.388,2.029-.583,3.043-.446-.072-.892-.13-1.353-.18,1.079-1.46-.669-6.187-2.029-9.309Zm.993-9.489q.723-2.957,1.388-5.921c.547.151,1.094.317,1.647.46,1.108.295,2.209.619,3.295.971-.331,1.863-.655,3.734-.95,5.6-.129.849-.245,1.7-.367,2.561a26.713,26.713,0,0,0-2.856-.554l-.014.036c-.691-.791-1.482-1.676-2.295-2.6.058-.187.1-.374.151-.561Zm1.014,30.827c.058-.3.1-.6.151-.906.4.1.8.194,1.194.3,1.741.482,3.468,1.043,5.2,1.547.547.158,1.1.3,1.655.446-.014.094-.022.187-.029.281q-.367,4.144-.648,8.288c-.5-.137-1.007-.281-1.511-.417-1.878-.489-3.77-.921-5.64-1.424-.59-.166-1.173-.338-1.755-.511q.734-3.8,1.381-7.6Zm-1.432,7.849c.583.158,1.165.317,1.741.489,1.856.561,3.691,1.194,5.539,1.777.547.158,1.093.317,1.633.475q-.194,2.978-.338,5.964L338.9,352.2q-3.993-.755-7.971-1.547.723-3.388,1.381-6.784Zm-1.626-31.906c.079.05.158.094.237.137,3.3,1.784,5.338.655,6.093-.3.36-.446-.633-1.719-2.093-3.388a27.982,27.982,0,0,0,2.727,1.137c-.194,1.4-.4,2.8-.626,4.194-.115.719-.245,1.446-.367,2.173-.014-.007-.022-.007-.029-.014a45.443,45.443,0,0,0-4.9-1.3l-.014.036c-.353-.813-.683-1.525-.921-2.022-.065-.137-.122-.259-.173-.36-.122-.252-.2-.41-.216-.446.094.05.187.108.281.158Zm-2.482-19.021c.324.086.655.173.978.252,1.849.439,3.712.835,5.583,1.2q-.55,2.083-1.072,4.173-2.622-.939-5.273-1.791c-.36-.108-.719-.209-1.072-.317q.442-1.759.856-3.518Zm-1.043,4.216c.345.122.683.237,1.029.353,1.777.568,3.568,1.093,5.367,1.6-.489,1.978-.964,3.957-1.41,5.942-.014.05-.022.108-.036.158a37.028,37.028,0,0,1-3.115-4.05,7.457,7.457,0,0,0-2.288-2.288c.158-.575.309-1.144.453-1.719Zm-.216,32.784c4.518,1.842,1.885-6.763,1.669-7.468a.121.121,0,0,1-.014-.036c.007,0,.007.007.014.014,2.971,2.115,4.5,2.36,5.122,1.576l-.007.036c.432.187.87.353,1.317.518q-.96,5.04-1.82,10.1c-1.108-.295-2.209-.611-3.309-.935-1.2-.367-2.41-.705-3.611-1.05.216-.914.432-1.834.64-2.755Zm-1.058,4.547c.094-.4.187-.806.281-1.216q1.824.442,3.647.856,1.694.378,3.367.8c-.05.324-.115.647-.165.971q-.637,3.777-1.194,7.575-1.64-.5-3.281-1.014c-1.424-.468-2.863-.906-4.295-1.345.561-2.208,1.115-4.41,1.64-6.626Zm2.18-42.316c-1.878-.4-3.77-.77-5.676-1.05.345-1,.691-2,1.036-3.007l12.381,2.539q-.464,1.619-.906,3.237-2.752-.777-5.547-1.446c-.324-.072-.655-.144-.986-.209.216-.942.439-1.885.647-2.835l-.072-.014c-.3.921-.59,1.849-.878,2.784ZM324.1,341.714c1.446.381,2.885.763,4.338,1.122,1.122.288,2.237.583,3.352.885-.331,2.3-.647,4.611-.935,6.921q-1.975-.388-3.935-.784l-4.77-.957q1.014-3.583,1.95-7.187ZM322.35,291.24c1.82.6,3.655,1.129,5.5,1.611q-.529,1.727-1.029,3.453c-1.885-.554-3.784-1.072-5.7-1.511.41-1.187.82-2.367,1.223-3.554Zm-1.266,3.669c1.827.748,3.683,1.432,5.547,2.072-.151.525-.3,1.05-.446,1.576a12.531,12.531,0,0,0-5.878-1.41c.259-.748.518-1.489.777-2.237ZM319.8,324.434c.245,0,.374.007.374.007a29.275,29.275,0,0,0,6.115,5.187c-.23.957-.46,1.914-.683,2.871q-3.054-.863-6.137-1.676c-.424-.1-.856-.209-1.281-.317.547-2.021,1.086-4.05,1.612-6.072Zm-2.18,8.194c.13-.468.252-.942.381-1.41.424.115.849.237,1.273.353q3.086.8,6.187,1.54c-.094.4-.194.806-.288,1.209q-.777,3.3-1.489,6.619c-2.086-.633-4.173-1.259-6.273-1.856-.5-.137-1-.273-1.5-.41C316.487,336.664,317.062,334.65,317.616,332.628Zm-8.331-4.331c1.554-.626,2.842-1.439,4.057-2.05a16.744,16.744,0,0,1,5.762-1.77c-.547,1.95-1.093,3.9-1.626,5.856-2.741-.669-5.5-1.295-8.266-1.842Zm-.108.295c2.683.878,5.4,1.669,8.115,2.432-.129.468-.266.942-.4,1.41q-.809,3.032-1.575,6.079c-2.95-.8-5.914-1.554-8.9-2.23Zm-2.791,7.791c2.9,1.007,5.82,1.935,8.755,2.82q-.96,3.842-1.827,7.7l.072.022q1.2-3.766,2.316-7.554c.5.151.993.3,1.5.453q3.162.9,6.345,1.748-.777,3.647-1.475,7.316l-18.805-3.777Zm2.216,16.769,16,2.82c5.331.957,10.669,1.863,16.007,2.77l16.014,2.705.223.036.129-.18,22.985-31.683c3.834-5.273,7.64-10.568,11.539-15.806l11.683-15.7.072-.094a12.634,12.634,0,0,0,2.784.295,12.112,12.112,0,0,0,3.072-.36l-49.222,68.747L292.617,353.6v-3.324c5.331.971,10.647,1.95,15.985,2.878Zm46.92-28.172L356,343.038l.3,9.029.353,8.446-.137.18-15.791-2.683c-5.338-.9-10.683-1.8-16.028-2.655l-16.036-2.6c-5.338-.878-10.683-1.712-16.036-2.547l9.23-21.172a12.891,12.891,0,0,0,6.611-.432l-5.806,16.618-.1.288.3.058,24,4.554q6,1.133,11.985,2.338l11.971,2.424.252.05v-.259c.036-5.093.094-10.2.094-15.3.022-5.1-.007-10.2-.029-15.295l-.094-15.252-.151-15.165-13.741-3.086-13.849-3.057-.245-.05-.079.237c-1.094,3.05-2.209,6.093-3.309,9.144-.5-.5-1.489-1.4-2.719-2.46l4.151-9.532,33.971,4.014c-.014,6.021.05,12.043.129,18.057Zm37.812-51.4,4.647,12.259,4.676,12.079-11.367,15.748c-3.82,5.288-7.727,10.511-11.6,15.762L356.68,360.484l-.022-8.424-.1-9.036-.317-18.057-.482-18.05c-.194-6.021-.4-12.036-.683-18.05l29.136-39.834,4.525,12.28Zm-9.9-16.547-25.683,34.5,2.784,57.042,37.258-50.618Zm19.8,40.863-.014-.036-4.633-12.252-4.719-12.223L389.1,261.176,384.277,249h4.237l20.6,48.956a11.792,11.792,0,0,0-3.072-.36,12.4,12.4,0,0,0-2.806.295Zm-96.847,38.489c2.9,1.007,5.82,1.935,8.755,2.82q-.96,3.842-1.827,7.7l.072.022q1.2-3.766,2.316-7.554c.5.151.993.3,1.5.453q3.162.9,6.345,1.748-.777,3.647-1.475,7.316l-18.805-3.777Zm2.791-7.791c2.683.878,5.4,1.669,8.115,2.432-.129.468-.266.942-.4,1.41q-.809,3.032-1.575,6.079c-2.95-.8-5.914-1.554-8.9-2.23Zm.108-.295c1.554-.626,2.842-1.439,4.057-2.05a16.743,16.743,0,0,1,5.762-1.77c-.547,1.95-1.093,3.9-1.626,5.856-2.741-.669-5.5-1.295-8.266-1.842Zm8.331,4.331c.13-.468.252-.942.381-1.41.424.115.849.237,1.273.353q3.086.8,6.187,1.54c-.094.4-.194.806-.288,1.209q-.777,3.3-1.489,6.619c-2.086-.633-4.173-1.259-6.273-1.856-.5-.137-1-.273-1.5-.41C316.487,336.664,317.062,334.65,317.616,332.628Zm2.18-8.194c.245,0,.374.007.374.007a29.273,29.273,0,0,0,6.115,5.187c-.23.957-.46,1.914-.683,2.871q-3.054-.863-6.137-1.676c-.424-.1-.856-.209-1.281-.317.547-2.022,1.086-4.05,1.612-6.072Zm1.288-29.525c1.827.748,3.683,1.432,5.547,2.072-.151.525-.3,1.05-.446,1.576a12.531,12.531,0,0,0-5.878-1.41c.259-.748.518-1.489.777-2.237Zm1.266-3.669c1.82.6,3.655,1.129,5.5,1.611q-.529,1.727-1.029,3.453c-1.885-.554-3.784-1.072-5.7-1.511.41-1.187.82-2.367,1.223-3.554Zm1.748,50.474c1.446.381,2.885.763,4.338,1.122,1.122.288,2.237.583,3.352.885-.331,2.3-.647,4.611-.935,6.921q-1.975-.388-3.935-.784l-4.77-.957q1.014-3.583,1.95-7.187Zm3.971-49.539c-1.878-.4-3.77-.77-5.676-1.05.345-1,.691-2,1.036-3.007l12.381,2.539q-.464,1.619-.906,3.237-2.752-.777-5.547-1.446c-.324-.072-.655-.144-.986-.209.216-.942.439-1.885.647-2.835l-.072-.014c-.3.921-.59,1.849-.878,2.784Zm-2.18,42.316c.094-.4.187-.806.281-1.216q1.824.442,3.647.856,1.694.378,3.367.8c-.05.324-.115.647-.165.971q-.637,3.777-1.194,7.575-1.64-.5-3.281-1.014c-1.424-.468-2.863-.906-4.295-1.345.561-2.209,1.115-4.41,1.64-6.626Zm1.058-4.547c4.518,1.842,1.885-6.763,1.669-7.468a.122.122,0,0,1-.014-.036c.007,0,.007.007.014.014,2.971,2.115,4.5,2.36,5.122,1.576l-.007.036c.432.187.87.353,1.317.518q-.96,5.04-1.82,10.1c-1.108-.295-2.209-.611-3.309-.935-1.2-.367-2.41-.705-3.611-1.05.216-.914.432-1.834.64-2.755Zm.216-32.784c.345.122.683.237,1.029.353,1.777.568,3.568,1.093,5.367,1.6-.489,1.978-.964,3.957-1.41,5.942-.014.05-.022.108-.036.158a37.031,37.031,0,0,1-3.115-4.05,7.457,7.457,0,0,0-2.288-2.288c.158-.575.309-1.144.453-1.719Zm1.043-4.216c.324.086.655.173.978.252,1.849.439,3.712.835,5.583,1.2q-.55,2.083-1.072,4.173-2.622-.939-5.273-1.791c-.36-.108-.719-.209-1.072-.317q.442-1.759.856-3.518Zm2.482,19.021c.079.05.158.094.237.137,3.3,1.784,5.338.655,6.093-.3.36-.446-.633-1.719-2.093-3.388a27.97,27.97,0,0,0,2.727,1.137c-.194,1.4-.4,2.8-.626,4.194-.115.719-.245,1.446-.367,2.173-.014-.007-.022-.007-.029-.014a45.429,45.429,0,0,0-4.9-1.3l-.014.036c-.353-.813-.683-1.525-.921-2.022-.065-.137-.122-.259-.173-.36-.122-.252-.2-.41-.216-.446C330.5,311.859,330.595,311.916,330.688,311.966Zm1.626,31.906c.583.158,1.165.317,1.741.489,1.856.561,3.691,1.194,5.539,1.777.547.158,1.093.317,1.633.475q-.194,2.978-.338,5.964L338.9,352.2q-3.993-.755-7.971-1.547.723-3.388,1.381-6.784Zm1.432-7.849c.058-.3.1-.6.151-.906.4.1.8.194,1.194.3,1.741.482,3.468,1.043,5.2,1.547.547.158,1.1.3,1.655.446-.014.094-.022.187-.029.281q-.367,4.144-.648,8.288c-.5-.137-1.007-.281-1.511-.417-1.878-.489-3.77-.921-5.64-1.424-.59-.166-1.173-.338-1.755-.511Q333.1,339.829,333.746,336.024ZM332.731,305.2q.723-2.957,1.388-5.921c.547.151,1.094.317,1.647.46,1.108.295,2.209.619,3.295.971-.331,1.863-.655,3.734-.95,5.6-.129.849-.245,1.705-.367,2.561a26.705,26.705,0,0,0-2.856-.554l-.014.036c-.691-.791-1.482-1.676-2.295-2.6.058-.187.1-.374.151-.561Zm-.993,9.489a44.227,44.227,0,0,0,4.64,1.942,1.238,1.238,0,0,0,.151.05c-.266,1.482-.54,2.971-.827,4.453-.2,1.014-.388,2.029-.583,3.043-.446-.072-.892-.13-1.353-.18,1.079-1.46-.669-6.187-2.029-9.309Zm3.813,10.079c.784.273,1.576.518,2.374.741,1.432.367,2.863.7,4.331.928.259.043.518.094.777.144q-.572,5.1-1.029,10.209c-.518-.13-1.043-.266-1.561-.4-1.763-.41-3.539-.763-5.295-1.194-.4-.1-.806-.216-1.209-.317q.863-5.05,1.612-10.115Zm-.4-30.287c.424.079.849.173,1.273.252,1.216.223,2.424.468,3.619.777h.007c-.331,1.655-.64,3.309-.942,4.964q-1.619-.518-3.216-1.108c-.547-.209-1.1-.4-1.655-.6.317-1.424.626-2.856.914-4.288Zm.748-3.8,1.065.216,3.892.791q-.4,1.791-.763,3.59c-1.2-.266-2.388-.59-3.576-.935-.417-.122-.842-.23-1.266-.353.223-1.1.439-2.2.648-3.309Zm.194,30.517q.324-2.223.676-4.439c1.475.489,2.957.942,4.46,1.324.82.216,1.633.446,2.424.741.072.029.151.065.23.1-.137,1.259-.273,2.525-.424,3.784-.137,1.194-.259,2.388-.4,3.583-.237-.079-.475-.151-.712-.237-1.388-.511-2.806-.914-4.23-1.288-.827-.194-1.655-.367-2.489-.511.151-1.014.309-2.036.46-3.058Zm1.18-7.417c.237-1.367.511-2.727.784-4.093.237.086.475.165.712.245a40.747,40.747,0,0,0,4.05,1.036c.568.115,1.122.259,1.676.425-.079,1.28-.165,2.554-.273,3.827-.094,1.144-.2,2.288-.317,3.432l-.18-.043c-.806-.252-1.59-.561-2.367-.892-1.468-.64-2.957-1.194-4.46-1.712.122-.741.237-1.482.374-2.223Zm1.424-7.367c.338-1.842.64-3.683.935-5.525,1.223.417,2.417.906,3.626,1.345.633.216,1.273.424,1.914.626-.158,1.612-.309,3.223-.439,4.842-.086,1.151-.151,2.3-.223,3.453q-.8-.248-1.576-.561a41.422,41.422,0,0,0-3.942-1.4l-.8-.216c.173-.856.345-1.712.5-2.568Zm1.727-10.8c1.065.288,2.115.626,3.18.921.727.194,1.46.367,2.194.532-.209,1.719-.389,3.432-.561,5.151-.6-.194-1.194-.381-1.8-.554-1.252-.353-2.518-.647-3.763-1.014q.4-2.514.748-5.036Zm.511-3.914,5.417,1.094c-.165,1.216-.331,2.439-.482,3.655-.705-.173-1.417-.338-2.129-.5-1.094-.209-2.187-.381-3.273-.6.166-1.216.324-2.432.468-3.647Zm.77,55.049c2.95.842,5.914,1.611,8.906,2.273.014,1.8.029,3.59.043,5.388l-9.683-1.82c.266-1.95.5-3.892.734-5.842Zm.957-8.993c0-.05.007-.1.007-.151,2.611.676,5.245,1.281,7.9,1.791v.072c-.007,3.151.014,6.3.043,9.453-2.914-1.029-5.863-1.95-8.827-2.8q.475-4.176.878-8.367Zm.065-.784c.324-3.424.6-6.849.842-10.28.288.065.568.137.849.216.705.209,1.4.5,2.094.734a21.539,21.539,0,0,0,4.065.813c-.014,3.611-.029,7.223-.007,10.827-2.59-.856-5.209-1.619-7.842-2.309Zm1.129-14.23c.086-1.237.173-2.482.266-3.719.626.252,1.237.532,1.863.791a28.161,28.161,0,0,0,4.626,1.331l-.022,3.122c0,1.345-.007,2.683-.014,4.029a22.268,22.268,0,0,0-3.914-1.237c-.727-.137-1.468-.216-2.187-.374-.295-.065-.59-.151-.885-.237.086-1.237.187-2.468.266-3.705Zm.611-7.5c.122-1.245.266-2.489.417-3.727.64.223,1.266.518,1.9.763a19.174,19.174,0,0,0,3.878.935l-.05,7.784a28.5,28.5,0,0,0-4.432-1.748c-.676-.187-1.353-.345-2.029-.525.094-1.165.194-2.324.317-3.482Zm.856-7.489q.248-2.352.439-4.712,2.46.745,4.971,1.309l-.05,4.683-.022,4.036a19.746,19.746,0,0,0-3.705-1.36c-.676-.151-1.374-.259-2.043-.432.137-1.173.288-2.345.41-3.525Zm.878-10.59c1.518.331,3.05.612,4.6.82l-.065,6.273q-2.428-1.025-4.921-1.842c.151-1.748.281-3.5.389-5.252Zm.23-4.352,4.41.892-.043,4.194q-2.255-.766-4.561-1.345c.079-1.245.144-2.5.194-3.741Zm-40.042,43.575c2.9,1.007,5.82,1.935,8.755,2.82q-.96,3.842-1.827,7.7l.072.022q1.2-3.766,2.316-7.554c.5.151.993.3,1.5.453q3.162.9,6.345,1.748-.777,3.647-1.475,7.316l-18.805-3.777Zm2.791-7.791c2.683.878,5.4,1.669,8.115,2.432-.129.468-.266.942-.4,1.41q-.809,3.032-1.575,6.079c-2.95-.8-5.914-1.554-8.9-2.23Zm.108-.295c1.554-.626,2.842-1.439,4.057-2.05a16.742,16.742,0,0,1,5.762-1.77c-.547,1.95-1.093,3.9-1.626,5.856-2.741-.669-5.5-1.295-8.266-1.842Zm8.331,4.331c.13-.468.252-.942.381-1.41.424.115.849.237,1.273.353q3.086.8,6.187,1.54c-.094.4-.194.806-.288,1.209q-.777,3.3-1.489,6.619c-2.086-.633-4.173-1.259-6.273-1.856-.5-.137-1-.273-1.5-.41C316.487,336.664,317.062,334.65,317.616,332.628Zm2.18-8.194c.245,0,.374.007.374.007a29.273,29.273,0,0,0,6.115,5.187c-.23.957-.46,1.914-.683,2.871q-3.054-.863-6.137-1.676c-.424-.1-.856-.209-1.281-.317.547-2.022,1.086-4.05,1.612-6.072Zm1.288-29.525c1.827.748,3.683,1.432,5.547,2.072-.151.525-.3,1.05-.446,1.576a12.531,12.531,0,0,0-5.878-1.41c.259-.748.518-1.489.777-2.237Zm1.266-3.669c1.82.6,3.655,1.129,5.5,1.611q-.529,1.727-1.029,3.453c-1.885-.554-3.784-1.072-5.7-1.511.41-1.187.82-2.367,1.223-3.554Zm1.748,50.474c1.446.381,2.885.763,4.338,1.122,1.122.288,2.237.583,3.352.885-.331,2.3-.647,4.611-.935,6.921q-1.975-.388-3.935-.784l-4.77-.957q1.014-3.583,1.95-7.187Zm3.971-49.539c-1.878-.4-3.77-.77-5.676-1.05.345-1,.691-2,1.036-3.007l12.381,2.539q-.464,1.619-.906,3.237-2.752-.777-5.547-1.446c-.324-.072-.655-.144-.986-.209.216-.942.439-1.885.647-2.835l-.072-.014c-.3.921-.59,1.849-.878,2.784Zm-2.18,42.316c.094-.4.187-.806.281-1.216q1.824.442,3.647.856,1.694.378,3.367.8c-.05.324-.115.647-.165.971q-.637,3.777-1.194,7.575-1.64-.5-3.281-1.014c-1.424-.468-2.863-.906-4.295-1.345.561-2.209,1.115-4.41,1.64-6.626Zm1.058-4.547c4.518,1.842,1.885-6.763,1.669-7.468a.122.122,0,0,1-.014-.036c.007,0,.007.007.014.014,2.971,2.115,4.5,2.36,5.122,1.576l-.007.036c.432.187.87.353,1.317.518q-.96,5.04-1.82,10.1c-1.108-.295-2.209-.611-3.309-.935-1.2-.367-2.41-.705-3.611-1.05.216-.914.432-1.834.64-2.755Zm.216-32.784c.345.122.683.237,1.029.353,1.777.568,3.568,1.093,5.367,1.6-.489,1.978-.964,3.957-1.41,5.942-.014.05-.022.108-.036.158a37.031,37.031,0,0,1-3.115-4.05,7.457,7.457,0,0,0-2.288-2.288c.158-.575.309-1.144.453-1.719Zm1.043-4.216c.324.086.655.173.978.252,1.849.439,3.712.835,5.583,1.2q-.55,2.083-1.072,4.173-2.622-.939-5.273-1.791c-.36-.108-.719-.209-1.072-.317q.442-1.759.856-3.518Zm2.482,19.021c.079.05.158.094.237.137,3.3,1.784,5.338.655,6.093-.3.36-.446-.633-1.719-2.093-3.388a27.97,27.97,0,0,0,2.727,1.137c-.194,1.4-.4,2.8-.626,4.194-.115.719-.245,1.446-.367,2.173-.014-.007-.022-.007-.029-.014a45.429,45.429,0,0,0-4.9-1.3l-.014.036c-.353-.813-.683-1.525-.921-2.022-.065-.137-.122-.259-.173-.36-.122-.252-.2-.41-.216-.446C330.5,311.859,330.595,311.916,330.688,311.966Zm1.626,31.906c.583.158,1.165.317,1.741.489,1.856.561,3.691,1.194,5.539,1.777.547.158,1.093.317,1.633.475q-.194,2.978-.338,5.964L338.9,352.2q-3.993-.755-7.971-1.547.723-3.388,1.381-6.784Zm1.432-7.849c.058-.3.1-.6.151-.906.4.1.8.194,1.194.3,1.741.482,3.468,1.043,5.2,1.547.547.158,1.1.3,1.655.446-.014.094-.022.187-.029.281q-.367,4.144-.648,8.288c-.5-.137-1.007-.281-1.511-.417-1.878-.489-3.77-.921-5.64-1.424-.59-.166-1.173-.338-1.755-.511Q333.1,339.829,333.746,336.024ZM332.731,305.2q.723-2.957,1.388-5.921c.547.151,1.094.317,1.647.46,1.108.295,2.209.619,3.295.971-.331,1.863-.655,3.734-.95,5.6-.129.849-.245,1.705-.367,2.561a26.705,26.705,0,0,0-2.856-.554l-.014.036c-.691-.791-1.482-1.676-2.295-2.6.058-.187.1-.374.151-.561Zm-.993,9.489a44.227,44.227,0,0,0,4.64,1.942,1.238,1.238,0,0,0,.151.05c-.266,1.482-.54,2.971-.827,4.453-.2,1.014-.388,2.029-.583,3.043-.446-.072-.892-.13-1.353-.18,1.079-1.46-.669-6.187-2.029-9.309Zm3.813,10.079c.784.273,1.576.518,2.374.741,1.432.367,2.863.7,4.331.928.259.043.518.094.777.144q-.572,5.1-1.029,10.209c-.518-.13-1.043-.266-1.561-.4-1.763-.41-3.539-.763-5.295-1.194-.4-.1-.806-.216-1.209-.317q.863-5.05,1.612-10.115Zm-.4-30.287c.424.079.849.173,1.273.252,1.216.223,2.424.468,3.619.777h.007c-.331,1.655-.64,3.309-.942,4.964q-1.619-.518-3.216-1.108c-.547-.209-1.1-.4-1.655-.6.317-1.424.626-2.856.914-4.288Zm.748-3.8,1.065.216,3.892.791q-.4,1.791-.763,3.59c-1.2-.266-2.388-.59-3.576-.935-.417-.122-.842-.23-1.266-.353.223-1.1.439-2.2.648-3.309Zm.194,30.517q.324-2.223.676-4.439c1.475.489,2.957.942,4.46,1.324.82.216,1.633.446,2.424.741.072.029.151.065.23.1-.137,1.259-.273,2.525-.424,3.784-.137,1.194-.259,2.388-.4,3.583-.237-.079-.475-.151-.712-.237-1.388-.511-2.806-.914-4.23-1.288-.827-.194-1.655-.367-2.489-.511.151-1.014.309-2.036.46-3.058Zm1.18-7.417c.237-1.367.511-2.727.784-4.093.237.086.475.165.712.245a40.747,40.747,0,0,0,4.05,1.036c.568.115,1.122.259,1.676.425-.079,1.28-.165,2.554-.273,3.827-.094,1.144-.2,2.288-.317,3.432l-.18-.043c-.806-.252-1.59-.561-2.367-.892-1.468-.64-2.957-1.194-4.46-1.712.122-.741.237-1.482.374-2.223Zm1.424-7.367c.338-1.842.64-3.683.935-5.525,1.223.417,2.417.906,3.626,1.345.633.216,1.273.424,1.914.626-.158,1.612-.309,3.223-.439,4.842-.086,1.151-.151,2.3-.223,3.453q-.8-.248-1.576-.561a41.422,41.422,0,0,0-3.942-1.4l-.8-.216c.173-.856.345-1.712.5-2.568Zm1.727-10.8c1.065.288,2.115.626,3.18.921.727.194,1.46.367,2.194.532-.209,1.719-.389,3.432-.561,5.151-.6-.194-1.194-.381-1.8-.554-1.252-.353-2.518-.647-3.763-1.014q.4-2.514.748-5.036Zm.511-3.914,5.417,1.094c-.165,1.216-.331,2.439-.482,3.655-.705-.173-1.417-.338-2.129-.5-1.094-.209-2.187-.381-3.273-.6.166-1.216.324-2.432.468-3.647Zm.77,55.049c2.95.842,5.914,1.611,8.906,2.273.014,1.8.029,3.59.043,5.388l-9.683-1.82c.266-1.95.5-3.892.734-5.842Zm.957-8.993c0-.05.007-.1.007-.151,2.611.676,5.245,1.281,7.9,1.791v.072c-.007,3.151.014,6.3.043,9.453-2.914-1.029-5.863-1.95-8.827-2.8q.475-4.176.878-8.367Zm.065-.784c.324-3.424.6-6.849.842-10.28.288.065.568.137.849.216.705.209,1.4.5,2.094.734a21.539,21.539,0,0,0,4.065.813c-.014,3.611-.029,7.223-.007,10.827-2.59-.856-5.209-1.619-7.842-2.309Zm1.129-14.23c.086-1.237.173-2.482.266-3.719.626.252,1.237.532,1.863.791a28.161,28.161,0,0,0,4.626,1.331l-.022,3.122c0,1.345-.007,2.683-.014,4.029a22.268,22.268,0,0,0-3.914-1.237c-.727-.137-1.468-.216-2.187-.374-.295-.065-.59-.151-.885-.237.086-1.237.187-2.468.266-3.705Zm.611-7.5c.122-1.245.266-2.489.417-3.727.64.223,1.266.518,1.9.763a19.174,19.174,0,0,0,3.878.935l-.05,7.784a28.5,28.5,0,0,0-4.432-1.748c-.676-.187-1.353-.345-2.029-.525.094-1.165.194-2.324.317-3.482Zm.856-7.489q.248-2.352.439-4.712,2.46.745,4.971,1.309l-.05,4.683-.022,4.036a19.746,19.746,0,0,0-3.705-1.36c-.676-.151-1.374-.259-2.043-.432.137-1.173.288-2.345.41-3.525Zm.878-10.59c1.518.331,3.05.612,4.6.82l-.065,6.273q-2.428-1.025-4.921-1.842c.151-1.748.281-3.5.389-5.252Zm.23-4.352,4.41.892-.043,4.194q-2.255-.766-4.561-1.345c.079-1.245.144-2.5.194-3.741Z" transform="translate(-121.932 -134.839)" fill="#5504b0"/>
          <path id="Path_5186" data-name="Path 5186" d="M191.876,271.907l-.035.014h.043Z" transform="translate(70.461 -157.757)" fill="#5504b0"/>
          <path id="Path_5187" data-name="Path 5187" d="M191.927,271.926l-.029.014.008.014Z" transform="translate(70.375 -157.762)" fill="#5504b0"/>
          <path id="Path_5188" data-name="Path 5188" d="M313.9,406.7l-.007.036.014-.036Z" transform="translate(-143.21 -191.34)" fill="#5504b0"/>
          <path id="Path_5189" data-name="Path 5189" d="M313.922,406.788v-.036l-.008.036Z" transform="translate(-143.236 -191.352)" fill="#5504b0"/>
          <path id="Path_5190" data-name="Path 5190" d="M257.582,365.071v.022a.123.123,0,0,1-.014-.036C257.575,365.056,257.575,365.064,257.582,365.071Zm6.259-14.1a.365.365,0,0,1,.05.058c-.022-.007-.036-.022-.058-.029Zm-1.13,15.64h.022c-.007.014-.022.022-.029.036Zm-2.029-9.36a.359.359,0,0,0,.022.05c-.007-.007-.022-.007-.029-.014Zm-3.1,7.82v.022a.121.121,0,0,1-.014-.036c.007,0,.007.007.014.014Zm2.072-10.489c.079.05.158.094.237.137-.036.122-.065.252-.094.374-.014.043-.022.093-.036.137-.065-.137-.122-.259-.173-.36C259.611,354.776,259.632,354.675,259.654,354.582Zm-2.072,10.489v.022a.121.121,0,0,1-.014-.036c.007,0,.007.007.014.014Z" transform="translate(-50.898 -177.455)" fill="#5504b0"/>
          <path id="Path_5191" data-name="Path 5191" d="M386.5,337.031a37.479,37.479,0,0,0-2.263-3.31c-.392-.539-.814-1.052-1.223-1.577a3.6,3.6,0,0,0-2.98-1.473,8.8,8.8,0,0,0-1.051.117c-.656.11-1.315.2-1.968.329a37.047,37.047,0,0,0-3.907.9,37.04,37.04,0,0,0,4.009-.062c.666-.03,1.327-.1,1.99-.151.332-.025.675-.083.932-.077a2.789,2.789,0,0,1,.818.136,2.833,2.833,0,0,1,1.382.942c.453.487.891.987,1.36,1.461a37.446,37.446,0,0,0,2.9,2.766Zm-1.806,10.633a38.964,38.964,0,0,0-1.976-3.58c-.346-.585-.724-1.148-1.086-1.722l-.566-.845-.285-.421a3.358,3.358,0,0,0-.389-.468,3.175,3.175,0,0,0-2.2-.9,3.709,3.709,0,0,0-1.128.205c-.326.093-.65.195-.973.3a38.549,38.549,0,0,0-3.84,1.408,38.518,38.518,0,0,0,4.046-.592,10.443,10.443,0,0,1,1.873-.3,2.188,2.188,0,0,1,1.462.644,2.289,2.289,0,0,1,.269.306l.3.414.594.825c.411.54.807,1.091,1.234,1.619a38.965,38.965,0,0,0,2.665,3.1Zm-15.179-1.251a7.712,7.712,0,0,0,1.008-3.406,5.2,5.2,0,0,0-.226-1.879,7.3,7.3,0,0,1-.273-1.479,7.1,7.1,0,0,1,.025-1.583c.038-.27.1-.542.156-.816a4.063,4.063,0,0,0,.14-.916,9.323,9.323,0,0,0-.417-3.538,4.3,4.3,0,0,0-1.011-1.624,2.531,2.531,0,0,1-.666-1.166,5.218,5.218,0,0,1,.395-2.895c-.052.015.183-.3.341-.546a3.715,3.715,0,0,0,.458-.914,2.7,2.7,0,0,0,.137-1.134,3.25,3.25,0,0,0-.151-.564,3.686,3.686,0,0,0-.267-.486,5.248,5.248,0,0,0-3.2-1.751l-.057.132a6.9,6.9,0,0,1,2.28,2.195,1.2,1.2,0,0,1-.043,1.1,3.8,3.8,0,0,1-.37.58l-.254.326-.158.217a2.4,2.4,0,0,0-.169.347,5.535,5.535,0,0,0-.24,3.8,3.412,3.412,0,0,0,1.219,1.639,3.842,3.842,0,0,1,1.046,1.084,4.692,4.692,0,0,1,.662,3.145,2.565,2.565,0,0,1-.226.752l-.37.814a5.746,5.746,0,0,0-.458,1.8,4.485,4.485,0,0,0,.264,1.889,5.95,5.95,0,0,1,.317,1.49,22.8,22.8,0,0,1-.03,3.34Zm50.869-44.906q-.654-2.461-1.349-4.908l-1.414-4.886c-.971-3.248-1.95-6.493-2.97-9.725l-.175-.554-.623-.018c-2.517-.073-5.033-.1-7.55-.14s-5.033-.063-7.55-.071c-5.033-.044-10.066,0-15.1.033l-7.55.117-7.55.2c-5.033.165-10.066.367-15.1.706,5.033.339,10.066.542,15.1.706l7.55.2,7.55.117c5.033.036,10.066.077,15.1.033,2.517-.008,5.033-.024,7.55-.071s5.033-.067,7.55-.14l-.8-.572c1.157,3.185,2.355,6.356,3.561,9.524l1.851,4.738Q419.4,299.158,420.383,301.508ZM178.03,391.937q34.007.577,68.013.759l17,.131,17,.057,34.007.087,17,.043,17-.039,34.007-.087,17-.05,17-.132,34.006-.285.663-.006-.2-.621-5.357-16.553-5.4-16.541,4.895,16.7,4.936,16.684.462-.627-34.007-.285-17-.132-17-.05-34.007-.087-17-.039-17,.043-34.007.087-17,.057-17,.131Q212.036,391.4,178.03,391.937Z" transform="translate(-178.03 -160.069)" fill="#5504b0"/>
          <path id="Path_5192" data-name="Path 5192" d="M327.279,358.07c-.475.072-.942.151-1.4.245q1.586,9.2,3.266,18.4,2,10.975,4.273,21.9-1.446-11.061-3.165-22.086Q328.826,367.293,327.279,358.07Zm-8.741-47.438q1.446,11.072,3.165,22.086c.094.59.18,1.173.273,1.763q.55-.162,1.122-.324c-.094-.54-.194-1.086-.295-1.626Q320.808,321.557,318.538,310.632Z" transform="translate(-166.203 -167.405)" fill="#5504b0"/>
          <path id="Path_5193" data-name="Path 5193" d="M204.358,216.6c1.435,4.49,2.864,8.981,4.216,13.5q2.078,6.755,3.985,13.557a248.239,248.239,0,0,1,6.4,27.455,63.7,63.7,0,0,1,.8,6.952,18.187,18.187,0,0,1-.646,6.763,5.326,5.326,0,0,1-1.777,2.633,6.235,6.235,0,0,1-3,1.224,38.354,38.354,0,0,1-6.957.465,41.678,41.678,0,0,1-13.658-2.937A81.463,81.463,0,0,1,181.071,280l-.322-.192-.03.377q-.353,4.427-.763,8.853c-.283,2.948-.6,5.894-.924,8.837s-.7,5.879-1.1,8.811-.858,5.86-1.52,8.7l-.171.736.746-.066c3.02-.268,5.974-.728,8.933-1.257s5.888-1.168,8.8-1.893a158.725,158.725,0,0,0,17.191-5.323l.089-.033.086-.061c2.431-1.728,4.9-3.431,7.378-5.086a67.1,67.1,0,0,1,7.623-4.532,8.973,8.973,0,0,1,.958-.375,2.429,2.429,0,0,1,.416-.1c.08-.021.07.006.108-.008s.106.029.158.038a4.886,4.886,0,0,1,.873.392q.461.257.921.552c1.222.79,2.414,1.682,3.584,2.6s2.322,1.86,3.455,2.831l1.691,1.457.825.742c.26.24.562.521.741.721l.236.263.338-.014a12.542,12.542,0,0,1,3.623.4,8.85,8.85,0,0,1,3.252,1.539,6.753,6.753,0,0,1,1.256,1.255c.349.439.721,1.051,1.113,1.569.783,1.064,1.626,2.066,2.484,3.045l2.595,2.892c.43.478.856.958,1.257,1.445a6.451,6.451,0,0,1,.983,1.456c.054.115.009.158.052.072.031-.032,0,.012-.025.035l-.065.077c-.041.053-.1.1-.143.145a2.883,2.883,0,0,1-.682.474,3.6,3.6,0,0,1-1.67.356,7.283,7.283,0,0,1-3.441-1.133l-1.148-.669.6,1.174c.7,1.376,1.361,2.792,1.962,4.223a31.984,31.984,0,0,1,1.55,4.375,8.633,8.633,0,0,1,.324,2.251,1.985,1.985,0,0,1-.25,1.023.942.942,0,0,1-.861.424,5.133,5.133,0,0,1-2.145-.676c-.343-.178-.675-.381-1.012-.574l-.978-.639.009.008-.007-.007-.1.1.007.007,0,0,.005,0,.96.679c.333.207.661.425,1,.619a5.347,5.347,0,0,0,2.258.789,1.561,1.561,0,0,0,.638-.107l.292-.177a2.49,2.49,0,0,0,.223-.253,2.339,2.339,0,0,0,.356-1.2,9.026,9.026,0,0,0-.251-2.384A31.989,31.989,0,0,0,254,325.078c-.573-1.466-1.2-2.9-1.879-4.326l-.548.505A8.078,8.078,0,0,0,255.4,322.6a4.494,4.494,0,0,0,2.1-.4,3.822,3.822,0,0,0,.92-.607c.067-.065.14-.124.2-.2l.095-.106a.721.721,0,0,0,.118-.159,1.03,1.03,0,0,0,.049-.865,4.1,4.1,0,0,0-.515-.979c-.19-.285-.39-.552-.594-.813-.407-.521-.828-1.02-1.251-1.514l-2.54-2.927c-.832-.979-1.64-1.972-2.374-3-.381-.52-.666-1.026-1.107-1.612a7.989,7.989,0,0,0-1.456-1.5,10.127,10.127,0,0,0-3.681-1.82,13.778,13.778,0,0,0-4.054-.507l.574.249c-.316-.363-.568-.589-.852-.865l-.835-.774q-.84-.763-1.694-1.5-1.715-1.476-3.493-2.881c-1.188-.936-2.4-1.848-3.689-2.69q-.486-.315-1.006-.607a6.147,6.147,0,0,0-1.177-.52,1.866,1.866,0,0,0-.84-.079,3.808,3.808,0,0,0-.678.152,10.357,10.357,0,0,0-1.137.438,68.051,68.051,0,0,0-7.846,4.621c-2.519,1.653-4.982,3.37-7.417,5.145l.174-.094a157.335,157.335,0,0,1-16.993,5.423c-2.882.737-5.782,1.406-8.7,1.98s-5.864,1.07-8.792,1.375l.574.67c.631-2.945.993-5.889,1.346-8.839.337-2.949.635-5.9.91-8.853l.756-8.861q.374-4.43.7-8.865l-.352.185a94.818,94.818,0,0,0,12.693,6.293,45.143,45.143,0,0,0,13.813,3.241,38.888,38.888,0,0,0,7.143-.3,7.234,7.234,0,0,0,3.49-1.345,6.416,6.416,0,0,0,2.2-3.073,18.289,18.289,0,0,0,.8-7.209,64.887,64.887,0,0,0-.756-7.1c-.726-4.687-1.781-9.3-2.914-13.888-1.155-4.582-2.4-9.138-3.769-13.655s-2.809-9.01-4.3-13.484c-1.525-4.464-3.067-8.921-4.738-13.333Zm97.732,51.516,15.273,45.6-2.727.914-15.28-45.6Zm12.151,41.172a.81.81,0,1,0-.783-.809.81.81,0,0,0,.783.809Zm-1.173-3.129a.81.81,0,1,0-.782-.809A.81.81,0,0,0,313.069,306.158Zm-1.036-3.108a.81.81,0,1,0-.782-.809A.81.81,0,0,0,312.033,303.05Z" transform="translate(-43.307 -143.966)" fill="#5504b0"/>
          <rect id="Rectangle_1673" data-name="Rectangle 1673" width="61.845" height="2.878" transform="matrix(-0.073, -0.997, 0.997, -0.073, 241.616, 211.043)" fill="#5504b0"/>
          <path id="Path_5194" data-name="Path 5194" d="M207.12,313.051l-6.775,8.066-1.942-5.993,6.786-7.891Z" transform="translate(50.297 -166.558)" fill="#5504b0"/>
          <path id="Path_5195" data-name="Path 5195" d="M210.224,364.6l-6.775,8.066-1.942-5.993,6.786-7.891Z" transform="translate(44.863 -179.401)" fill="#5504b0"/>
          <path id="Path_5196" data-name="Path 5196" d="M209.422,339.531a72.011,72.011,0,0,0-2.252-7.309,71.163,71.163,0,0,0-2.928-7.065,71.16,71.16,0,0,0,2.252,7.309,72.014,72.014,0,0,0,2.928,7.065Zm-1.9,3.387a72,72,0,0,0-2.252-7.309,71.16,71.16,0,0,0-2.928-7.065,71.16,71.16,0,0,0,2.252,7.309A72.018,72.018,0,0,0,207.521,342.919Zm-2.59,2.175a72.018,72.018,0,0,0-2.252-7.309,71.163,71.163,0,0,0-2.928-7.065A71.16,71.16,0,0,0,202,338.029a72,72,0,0,0,2.928,7.065Zm-5.107-.828a72,72,0,0,0-1.492-7.5,71.158,71.158,0,0,0-2.19-7.327,71.164,71.164,0,0,0,1.492,7.5A71.994,71.994,0,0,0,199.823,344.266Zm-4.765-2.749a71.991,71.991,0,0,0-1.65-7.468,71.15,71.15,0,0,0-2.344-7.28,71.164,71.164,0,0,0,1.65,7.468A72.008,72.008,0,0,0,195.059,341.516Zm-3.088,4.964a72.024,72.024,0,0,0-1.147-7.561,71.165,71.165,0,0,0-1.852-7.42,71.151,71.151,0,0,0,1.147,7.561,72.005,72.005,0,0,0,1.852,7.42Z" transform="translate(55.077 -171.024)" fill="#5504b0"/>
        </g>
        <g id="Group_5480" data-name="Group 5480">
          <g id="Path_45473" data-name="Path 45473" transform="translate(1727 8247)" fill="none">
            <path d="M0,0H44L64,34H20Z" stroke="none"/>
            <path d="M 1.7484130859375 1 L 20.57194137573242 33 L 62.2515869140625 33 L 43.42805862426758 1 L 1.7484130859375 1 M 0 0 L 44 0 L 64 34 L 20 34 L 0 0 Z" stroke="none" fill="#5504b0"/>
          </g>
          <g id="Path_45474" data-name="Path 45474" transform="translate(1723 8284)" fill="none">
            <path d="M0,0H44L64,34H20Z" stroke="none"/>
            <path d="M 1.7484130859375 1 L 20.57194137573242 33 L 62.2515869140625 33 L 43.42805862426758 1 L 1.7484130859375 1 M 0 0 L 44 0 L 64 34 L 20 34 L 0 0 Z" stroke="none" fill="#5504b0"/>
          </g>
          <line id="Line_91" data-name="Line 91" y2="30" transform="translate(1727.5 8247.5)" fill="none" stroke="#5504b0" stroke-linecap="round" stroke-width="1"/>
          <line id="Line_92" data-name="Line 92" y2="30" transform="translate(1747.5 8281)" fill="none" stroke="#5504b0" stroke-linecap="round" stroke-width="1"/>
          <line id="Line_93" data-name="Line 93" y2="30" transform="translate(1788.5 8281)" fill="none" stroke="#5504b0" stroke-linecap="round" stroke-width="1"/>
        </g>
      </g>
      <rect id="Rectangle_42068" data-name="Rectangle 42068" width="30" height="24" transform="translate(1754 8283)" fill="#5504b0"/>
    </g>
  </g>
</svg>
