<svg xmlns="http://www.w3.org/2000/svg" width="312.645" height="333.982" viewBox="0 0 312.645 333.982">
  <g id="Group_5486" data-name="Group 5486" transform="translate(-922.806 -7308.26)">
    <g id="Group_5478" data-name="Group 5478" transform="translate(-849 57.26)">
      <g id="Group_5477" data-name="Group 5477" transform="translate(706 -326.397)">
        <path id="Path_45468" data-name="Path 45468" d="M-3612.252,4091.689l.483,5.508,15.39,175.6h296.772V4043.72" transform="translate(4678.058 3638.585)" fill="#fbd206"/>
        <g id="woman-working-at-home" transform="translate(1086.122 7613.555)">
          <path id="Path_45450" data-name="Path 45450" d="M195.593,226.066a19.738,19.738,0,0,1-.5,3.486l135.348,2.74V214.209L194.726,215.67a20.431,20.431,0,0,1,.685,3.455c.145,1.157.228,2.306.259,3.463a33.231,33.231,0,0,1-.076,3.478Zm-14.2-11.858v12.6l13.7,2.74a21.183,21.183,0,0,1-.685-3.455c-.137-1.157-.228-2.306-.259-3.463s0-2.321.084-3.478a20.468,20.468,0,0,1,.495-3.486ZM307.364,87.723l-.444,25.452c-.151,8.419-.276,16.756-.357,25.056s-.155,16.573-.071,24.825.245,16.53.385,24.85l.479-.545q-7.242,1.083-14.5,2.063l-7.258.966-7.265.9c-4.843.6-9.686,1.215-14.537,1.758l-14.549,1.667.82.721c.128-6.93.191-13.859.264-20.789l.142-20.788c.041-6.929.1-13.859.085-20.788.023-6.929-.039-13.859-.066-20.788l-.7,1.06,14.24-6.247c4.75-2.107,9.5-4.185,14.279-6.347Zm.126-.19L278.458,99.161c-4.9,1.947-9.832,3.979-14.763,5.982l-14.8,6.082-.7.287,0,.773c-.028,6.929-.09,13.859-.067,20.788-.011,6.929.044,13.859.085,20.788l.142,20.788c.074,6.93.136,13.859.264,20.788l.015.837.8-.117,14.493-2.1c4.829-.713,9.667-1.359,14.5-2.009l7.256-.979,7.264-.917q7.266-.9,14.544-1.7l.471-.052.008-.493c.14-8.393.3-16.828.385-25.289s0-16.9-.071-25.314-.205-16.789-.357-25.083Z" transform="translate(-62.586 -87.533)" fill="#5504b0"/>
          <path id="Path_45451" data-name="Path 45451" d="M264.141,102.139v76.167L221.4,185.43V120.77Z" transform="translate(-28.067 -90.537)" fill="#5504b0"/>
          <path id="Path_45452" data-name="Path 45452" d="M240.286,212.137c-2.938,0-2.943-4.566,0-4.566S243.229,212.137,240.286,212.137Zm14.86,3.149c-.315,2.1-.48,4.207-.592,6.31s-.154,4.207-.169,6.311l.04,3.155a13.893,13.893,0,0,1,0,1.5,13.639,13.639,0,0,1-.206,1.466,11.769,11.769,0,0,1-2.79,5.376,9.216,9.216,0,0,0,3.936-5.066,10.639,10.639,0,0,0,.5-3.279l.04-3.155c-.015-2.1-.048-4.207-.169-6.311S255.461,217.39,255.146,215.286Zm-13,1.686c-.183,2.146-.217,4.278-.2,6.406,0,1.065.045,2.127.07,3.19.014.531.05,1.062.074,1.593l.04.8.018.4-.016.352a9.9,9.9,0,0,1-1.968,5.5,11.363,11.363,0,0,1-.991,1.139,11.679,11.679,0,0,1-1.189,1c-.826.672-1.655,1.342-2.45,2.071.981-.447,1.928-.954,2.878-1.458a11.488,11.488,0,0,0,1.411-.854,9.976,9.976,0,0,0,1.251-1.133,9.793,9.793,0,0,0,2.578-6.205l.007-.447-.027-.4-.058-.8c-.042-.532-.071-1.065-.123-1.6-.107-1.063-.188-2.128-.324-3.189C242.887,221.2,242.591,219.079,242.146,216.972Z" transform="translate(-31.063 -112.22)" fill="#5504b0"/>
          <rect id="Rectangle_42060" data-name="Rectangle 42060" width="4.567" height="155.595" transform="translate(256.073 142.229)" fill="#5504b0"/>
          <rect id="Rectangle_42061" data-name="Rectangle 42061" width="4.567" height="155.595" transform="translate(187.395 142.229)" fill="#5504b0"/>
          <rect id="Rectangle_42062" data-name="Rectangle 42062" width="4.567" height="155.595" transform="translate(140.636 142.229)" fill="#5504b0"/>
          <path id="Path_45453" data-name="Path 45453" d="M438.808,116.511c-.135,1.368-.19,2.74-.2,4.117,0,.689.013,1.38.065,2.075a8.952,8.952,0,0,0,.341,2.145,39.1,39.1,0,0,1,1.477,3.731,1.846,1.846,0,0,1-.122,1.433,2.4,2.4,0,0,1-1.307.754l-.233.07-.11.132a31.55,31.55,0,0,0-2.172,3.013,15.064,15.064,0,0,0-.915,1.645,5.088,5.088,0,0,0-.339.924,6.787,6.787,0,0,1-.244.845,7.556,7.556,0,0,1-4.8,4.834,4.962,4.962,0,0,1-.852.157l-.429.045c-.144,0-.289-.005-.433-.007l-.923-.011a4.277,4.277,0,0,0-.982.081,5.965,5.965,0,0,0-3.426,1.9,9.017,9.017,0,0,0-1.969,3.373,8.591,8.591,0,0,0-.375,3.963l.559-.9a18.633,18.633,0,0,1-2.533.309,24.386,24.386,0,0,1-2.613-.043,20.276,20.276,0,0,1-2.6-.343l-1.286-.275-1.265-.368c-.426-.114-.827-.3-1.245-.441a10.034,10.034,0,0,1-1.225-.5l-1.211-.554-1.165-.652c-.8-.4-1.491-.978-2.263-1.449-.739-.514-1.417-1.111-2.155-1.65l-.108.108c.616.67,1.227,1.36,1.894,1.993.342.307.688.612,1.041.909a10.238,10.238,0,0,0,1.1.847,20.63,20.63,0,0,0,4.882,2.695,20.223,20.223,0,0,0,5.475,1.288,16.886,16.886,0,0,0,5.689-.366l.694-.174-.135-.727a8.083,8.083,0,0,1,1.733-6.218,5.291,5.291,0,0,1,2.7-1.815,3.465,3.465,0,0,1,.823-.15l.423-.036.479-.03c.16-.012.32-.017.479-.035l.473-.089a5.618,5.618,0,0,0,.923-.253,7.774,7.774,0,0,0,3.112-2.082,11.532,11.532,0,0,0,2.054-3.11c.123-.284.242-.594.343-.882a4.443,4.443,0,0,1,.374-.753,14.457,14.457,0,0,1,1.019-1.448c.735-.939,1.56-1.83,2.36-2.706l-.342.2a3.376,3.376,0,0,0,2.148-1.25,1.9,1.9,0,0,0,.312-.632,2.266,2.266,0,0,0,.123-.664,4.221,4.221,0,0,0-.135-1.212,25.319,25.319,0,0,0-1.681-3.813,9.407,9.407,0,0,1-.439-1.867c-.1-.662-.193-1.332-.27-2.007-.166-1.349-.3-2.709-.443-4.071Z" transform="translate(-349.118 -93.493)" fill="#5504b0"/>
          <path id="Path_45454" data-name="Path 45454" d="M412.85,122.742l.537-.54a7.5,7.5,0,0,0-6.757-1.834l.181.739a6.844,6.844,0,0,1,6.039,1.635Zm-2.563,3.247a1.142,1.142,0,1,1,1.1-1.142A1.142,1.142,0,0,1,410.287,125.989Zm2.831,5.815v-.761c-.276,0-.349-.1-.373-.136a1.436,1.436,0,0,1,0-1.007l-.722-.241a2.12,2.12,0,0,0,.1,1.693A1.147,1.147,0,0,0,413.118,131.8Z" transform="translate(-324.448 -94.249)" fill="#5504b0"/>
          <path id="Path_45455" data-name="Path 45455" d="M456.93,111.665s-9.133,6.932-17.17,5.521c0,0-4.018-5.539-5.114-.963s-1.279,10.146,2.192,9.233c0,0,2.831,10.411-1.918,18.448s-8.95,5.3-9.863,12.6-26.85,7.306-19.727-3.836a77.813,77.813,0,0,0,9.681-24.476c0-.183,5.114-24.293,10.229-27.033S454.647,96.048,456.93,111.665Zm-14.338,47.4s8.585-6.576,7.854-12.421,2.009-13.517,2.009-13.517c-.457,1.735-2.74,6.3-7.489,6.119s-7.124,5.48-6.484,8.768Z" transform="translate(-365.976 -89.925)" fill="#5504b0"/>
          <path id="Path_45456" data-name="Path 45456" d="M423.113,170.574a31.193,31.193,0,0,0-4.487,7.054,56.481,56.481,0,0,0-2.992,7.844,100.793,100.793,0,0,0-3.308,16.427,168.994,168.994,0,0,0-.637,33.392l.007.075.041.046a8.082,8.082,0,0,0,3.994,2.242,8.517,8.517,0,0,1-3.677-2.507l.048.121c0-5.55.116-11.1.388-16.636s.684-11.06,1.33-16.552a129.145,129.145,0,0,1,2.912-16.3,69.14,69.14,0,0,1,2.535-7.87,34.968,34.968,0,0,1,3.848-7.335Zm45,34.02c.517-1.865.986-3.736,1.368-5.643a17.66,17.66,0,0,0,.356-5.921,80.65,80.65,0,0,0-3.477-11.135c-1.365-3.615-2.8-7.2-4.345-10.738s-3.143-7.053-4.915-10.492c1.187,3.682,2.486,7.314,3.812,10.933l4.023,10.829c.688,1.8,1.342,3.6,1.995,5.408.634,1.8,1.295,3.625,1.746,5.42a19.01,19.01,0,0,1,.069,5.591C468.575,200.755,468.3,202.668,468.115,204.594Zm-2.35,26.149.758-.059c-.082-1.044-.143-2.081-.181-3.081l-.761.028C465.619,228.642,465.681,229.689,465.765,230.743Zm-19.109-67.189a13.606,13.606,0,0,1,3.235,2.326c.5.433.935.945,1.4,1.411.423.513.856,1.014,1.265,1.533.381.544.779,1.072,1.146,1.623l1.043,1.692c.607,1.181,1.267,2.331,1.761,3.569.563,1.2.989,2.467,1.458,3.713.263.614.416,1.267.627,1.9l.625,1.908c.328,1.3.683,2.594,1,3.9.262,1.319.512,2.643.741,3.972l.087-.226a38.9,38.9,0,0,1-5.871,4.152,40.141,40.141,0,0,1-6.5,3.018,28.339,28.339,0,0,1-6.867,1.619,17.923,17.923,0,0,1-3.471.007,15.488,15.488,0,0,1-3.344-.742l-.683.077a.4.4,0,0,1,.289-.076c.075,0,.147.06.154.054s.014.018.014.018a.131.131,0,0,0-.016-.033.3.3,0,0,1-.054-.107,3.168,3.168,0,0,1-.2-.784,12.924,12.924,0,0,1-.1-1.934c0-1.334.094-2.686.225-4.055l.1-1.032.024-.258a3.031,3.031,0,0,0,0-.336c-.006-.195-.02-.381-.038-.567a12.394,12.394,0,0,0-.427-2.154,15.329,15.329,0,0,0-1.8-3.909l.066.161c-.457-1.642-.9-3.295-1.319-4.951l-.624-2.486c-.2-.831-.389-1.664-.549-2.5l-.151.017c.035.861.131,1.717.238,2.57s.217,1.707.363,2.553c.282,1.7.586,3.382.92,5.071l.013.066.053.1a14.867,14.867,0,0,1,1.451,3.672,10.987,10.987,0,0,1,.3,1.914c.008.158.014.316.011.466a1.652,1.652,0,0,1-.008.181l-.035.256-.129,1.024a39.746,39.746,0,0,0-.32,4.2,14.383,14.383,0,0,0,.131,2.192,4.6,4.6,0,0,0,.329,1.21,1.582,1.582,0,0,0,.19.346l.131.18a1.879,1.879,0,0,0,.205.191,1.229,1.229,0,0,0,1.4.117l-.682.077a17.031,17.031,0,0,0,3.732.721,19.4,19.4,0,0,0,3.757-.111,21.837,21.837,0,0,0,3.637-.776,26.321,26.321,0,0,0,3.462-1.27,46.151,46.151,0,0,0,6.407-3.511,67.918,67.918,0,0,0,5.919-4.238l.106-.086-.019-.14c-.18-1.344-.337-2.694-.484-4.048-.207-1.345-.463-2.684-.7-4.031-.33-1.325-.622-2.667-1.049-3.97a33.775,33.775,0,0,0-1.506-3.834,27.6,27.6,0,0,0-4.391-6.976c-.458-.516-.947-1.007-1.434-1.493a19.436,19.436,0,0,0-1.589-1.325,12.144,12.144,0,0,0-3.614-1.956Z" transform="translate(-384.596 -102.574)" fill="#5504b0"/>
          <path id="Path_45457" data-name="Path 45457" d="M466.346,248.85s-36.706,11.507-50.413,6.941" transform="translate(-384.799 -120.71)" fill="none"/>
          <path id="Path_45458" data-name="Path 45458" d="M408.845,308.848c-5.784,11.355-12.3,22.284-19.133,33.007,11.172,7.367,17.779,4.711,17.779,4.711,1.088-3.653,28.121-48.952,27.764-65.026s-65.026-32.7-65.026-32.7-20.145,6.317-36.166,7.733a22.626,22.626,0,0,0,9.468,15.724,28.249,28.249,0,0,0,4.041,2.374,32.1,32.1,0,0,0,4.391,1.652,42.3,42.3,0,0,0,9.255,1.6c.784.038,1.568.114,2.352.114l2.359.023c1.575-.053,3.143-.084,4.741-.168,3.181-.145,6.37-.228,9.559-.2a94.427,94.427,0,0,1,19.1,1.75,32.261,32.261,0,0,1,9.125,3.364,14.731,14.731,0,0,1,3.851,3.166,11.027,11.027,0,0,1,1.4,2.123,10.174,10.174,0,0,1,.829,2.413,10.907,10.907,0,0,1,.213,2.527,11.23,11.23,0,0,1-.365,2.5,39.831,39.831,0,0,1-1.537,4.6C411.661,303.125,410.284,306,408.845,308.848Z" transform="translate(-288.677 -120.709)" fill="#5504b0"/>
          <path id="Path_45459" data-name="Path 45459" d="M356.8,280.425c20,0,29.316,2.192,35.892,1.37s5.837,1.827,5.837,1.827c0,7.672-22.155,36.9-22.155,36.9a67.436,67.436,0,0,0,12.786,11.363c3.151-5.518,6.294-11.043,9.315-16.629,3.044-5.571,6.028-11.18,8.767-16.9,1.362-2.862,2.671-5.746,3.828-8.669a38.68,38.68,0,0,0,1.454-4.437,10.135,10.135,0,0,0,.3-2.215,9.315,9.315,0,0,0-.2-2.207c-.586-2.93-2.824-5.236-5.465-6.736a31.036,31.036,0,0,0-8.714-3.135,93.3,93.3,0,0,0-18.783-1.857c-3.166-.046-6.332.015-9.5.137-1.575.061-3.189.1-4.787.122l-2.405-.076c-.807-.015-1.606-.114-2.4-.167a43.556,43.556,0,0,1-9.452-1.849,31.972,31.972,0,0,1-4.475-1.8,27.137,27.137,0,0,1-4.11-2.542,22.614,22.614,0,0,1-9.026-16.317c-5.6.495-10.693.388-14.247-.792h-.008C315.409,278.6,336.795,280.425,356.8,280.425Zm6.447-80.015c.44.885.856,1.785,1.318,2.66.488.861.936,1.748,1.467,2.585a55.124,55.124,0,0,0,3.321,4.944,52.914,52.914,0,0,0,3.9,4.52,34.8,34.8,0,0,0,4.519,3.983l.1.07.147.017q9.475,1.068,18.966,1.994c1.582.16,3.168.276,4.756.4l2.388.165,1.21.057L406,221.8l.569-.031c3.14-.078,6.333-.114,9.5-.155l9.531-.093c.781,0,1.618-.035,2.357-.005a10.823,10.823,0,0,1,2.222.562c1.482.529,2.944,1.146,4.4,1.773l2.19.943c.368.155.736.308,1.116.451l.295.1c.086.036.267.055.351.079a2.741,2.741,0,0,1,.381.24,31.482,31.482,0,0,1,3.387,3.286c1.072,1.163,2.121,2.356,3.086,3.6a9.892,9.892,0,0,1,.664.946c.2.3.307.671.166.82-.113.187-.507.283-.862.3a5.1,5.1,0,0,1-1.121-.053l-.223-.035-.1.237a2.049,2.049,0,0,1-1.573,1.071,5.565,5.565,0,0,1-2.154-.1,11.689,11.689,0,0,1-4.071-1.766c-.626-.412-1.217-.885-1.853-1.345a7.188,7.188,0,0,0-2.158-1.156,5.062,5.062,0,0,0-2.519-.063,21.363,21.363,0,0,0-2.272.661,30.274,30.274,0,0,1-8.767,2.031,14.922,14.922,0,0,1-4.347-.535,14.686,14.686,0,0,1-3.948-1.862l-.232-.146-.252.029c-6.818.774-13.658,1.4-20.49,2.052-6.832.629-13.679,1.175-20.512,1.419-1.707.058-3.415.1-5.108.047-.846-.023-1.689-.069-2.512-.159a5.937,5.937,0,0,1-2.232-.59,13.91,13.91,0,0,1-3.526-3.382,49.5,49.5,0,0,1-2.932-4.163c-1.833-2.88-3.475-5.892-5.058-8.934s-3.091-6.126-4.509-9.257l-.14.058A137.258,137.258,0,0,0,351.6,227.33a46.471,46.471,0,0,0,2.868,4.351,14.911,14.911,0,0,0,3.815,3.768c.208.119.439.218.659.325a7.075,7.075,0,0,0,.689.219,12.324,12.324,0,0,0,1.344.253c.882.114,1.755.179,2.625.22,1.74.085,3.47.082,5.2.058,3.455-.038,6.894-.261,10.329-.483s6.865-.5,10.291-.811c6.855-.6,13.684-1.4,20.516-2.226l-.484-.117a14.852,14.852,0,0,0,9.147,2.5,30.645,30.645,0,0,0,9.075-2.288c1.439-.514,2.846-1.09,4.171-.711,1.328.353,2.486,1.453,3.824,2.269a12.448,12.448,0,0,0,4.381,1.764,6.2,6.2,0,0,0,2.419.041,2.608,2.608,0,0,0,2-1.528l-.323.2a6.273,6.273,0,0,0,1.256.04,1.654,1.654,0,0,0,1.274-.556.89.89,0,0,0,.15-.4,2,2,0,0,0-.03-.387,2.4,2.4,0,0,0-.276-.614,10.3,10.3,0,0,0-.712-1c-1-1.258-2.059-2.443-3.151-3.605a40.925,40.925,0,0,0-3.45-3.343c-.076-.066-.177-.123-.265-.184a.99.99,0,0,0-.383-.16c-.105-.032-.126-.026-.227-.061l-.268-.1c-.362-.141-.725-.3-1.087-.456l-2.175-.97c-1.453-.647-2.912-1.286-4.415-1.845a11.613,11.613,0,0,0-2.37-.669c-.846-.061-1.6-.046-2.407-.075l-9.532-.211c-3.183-.053-6.345-.148-9.558-.07l-.621.028-.524,0-1.17-.067-2.365-.187-4.739-.421c-6.326-.536-12.651-1.148-18.976-1.736l.243.086a34.034,34.034,0,0,1-4.469-3.714,52.086,52.086,0,0,1-3.97-4.328c-1.224-1.531-2.434-3.084-3.5-4.736-1.1-1.633-2.085-3.339-3.05-5.061Z" transform="translate(-288.121 -110.734)" fill="#5504b0"/>
          <path id="Path_45460" data-name="Path 45460" d="M464.738,227.571l3.767.619a6.7,6.7,0,0,1,3.274,1.733l5.874,4.887.472-.6-6.11-4.589a8.781,8.781,0,0,0-1.624-1.058,6.581,6.581,0,0,0-1.855-.565ZM351.376,202.857a15.556,15.556,0,0,0-5.546-2.756,30.272,30.272,0,0,0-6.1-1.187c-1.031-.136-2.067-.145-3.1-.215q-1.553-.024-3.107.007c-1.032.06-2.069.086-3.1.174l-1.544.153-.772.08-.386.04a2.325,2.325,0,0,0-.234.033l-.227.05a6.822,6.822,0,0,0-5,4.561,11.7,11.7,0,0,0,.083,6.589,20.072,20.072,0,0,0,.978,3.038l.28.743.337.711.679,1.418a29.291,29.291,0,0,0,1.5,2.74l.79,1.345c.251.4.5.847.75,1.28a88.835,88.835,0,0,1,5.2,10.968,93.113,93.113,0,0,1,3.786,11.6,100.535,100.535,0,0,1,2.193,12.02,90.221,90.221,0,0,0,2.078,12.154,32.826,32.826,0,0,0,5.2,11.344,31.378,31.378,0,0,0,9.424,8.321,50.062,50.062,0,0,0,11.571,4.766,85.585,85.585,0,0,0,12.2,2.349,152.326,152.326,0,0,0,24.662.509c8.2-.45,16.346-1.351,24.433-2.613l-.025-.227c-8.165.513-16.319.97-24.465,1.055l-3.053.047-3.051-.037-3.049-.045-3.044-.132q-6.087-.251-12.113-.975a97.053,97.053,0,0,1-11.868-2.226,47.829,47.829,0,0,1-11.133-4.335,31.017,31.017,0,0,1-9.051-7.557,33.058,33.058,0,0,1-5.437-10.592,55.247,55.247,0,0,1-1.483-5.887c-.416-1.99-.732-4-1.028-6.025-.616-4.047-1.3-8.1-2.241-12.088a104,104,0,0,0-8.033-23.3c-.245-.462-.486-.915-.76-1.387l-.724-1.32c-.464-.888-1.014-1.738-1.406-2.652l-.638-1.35-.316-.676-.255-.693-.52-1.382a12.588,12.588,0,0,1-.406-1.4,9.834,9.834,0,0,1-.2-5.5,4.989,4.989,0,0,1,3.572-3.438l.146-.038a1.052,1.052,0,0,1,.145-.024l.375-.05.75-.1,1.5-.206c1-.131,2.007-.2,3.012-.3,1.006-.065,2.013-.106,3.021-.144,1.005.01,2.018-.041,3.021.032a33.993,33.993,0,0,1,5.991.725,21.725,21.725,0,0,1,2.9.842,11.782,11.782,0,0,1,2.693,1.334Z" transform="translate(-321.819 -110.394)" fill="#5504b0"/>
          <path id="Path_45461" data-name="Path 45461" d="M483.087,288.991q-10.657.843-21.328.963t-21.287-.686c-3.538-.274-7.067-.679-10.565-1.284a60.91,60.91,0,0,1-10.306-2.626,36.674,36.674,0,0,1-9.4-4.854,20.1,20.1,0,0,1-6.575-8.03l.022.059c-1.36-5.068-2.631-10.174-3.7-15.306-.536-2.565-1.021-5.14-1.387-7.722l-.243-1.936-.175-1.934a32.583,32.583,0,0,0-.6-4.005c-.239-1.329-.65-2.6-1-3.894-.43-1.261-.8-2.547-1.31-3.776-.926-2.5-2.035-4.907-3.161-7.3a137.324,137.324,0,0,0-7.8-13.816l.019.033a15.984,15.984,0,0,1-1.435-3.807,9.908,9.908,0,0,1-.178-4.025,6.089,6.089,0,0,1,1.914-3.47,9.826,9.826,0,0,1,3.635-1.932l-.039-.147a9.6,9.6,0,0,0-3.878,1.749,6.658,6.658,0,0,0-2.3,3.656,10.653,10.653,0,0,0,0,4.348,16.87,16.87,0,0,0,1.359,4.128v0l.018.031a148.9,148.9,0,0,1,7.323,13.9c1.07,2.384,2.143,4.771,3.015,7.225.239.607.449,1.222.65,1.839l.616,1.848c.336,1.248.739,2.486.967,3.751a35.977,35.977,0,0,1,.61,3.792l.211,1.995.278,1.977c.413,2.625.942,5.219,1.521,7.8q1.772,7.731,4.164,15.278l.012.038.01.022a21.193,21.193,0,0,0,7.1,8.1,39.832,39.832,0,0,0,9.575,4.844,93.775,93.775,0,0,0,20.914,4.679,145.6,145.6,0,0,0,21.433.665,178.21,178.21,0,0,0,21.32-2.007Zm-43.362,53.088c2.158-1.545,4.211-3.207,6.225-4.912s3.977-3.465,5.916-5.252c1.921-1.807,3.821-3.637,5.648-5.545a49.715,49.715,0,0,0,5.168-6.027c-1.965,1.767-4.02,3.415-5.988,5.168-1.989,1.727-3.929,3.506-5.866,5.292-1.915,1.807-3.826,3.62-5.68,5.5S441.458,340.069,439.725,342.079Zm37.522-9.263A18.979,18.979,0,0,0,473,338.536a9.191,9.191,0,0,0-.943,3.627,12.194,12.194,0,0,0,.728,3.659,47.525,47.525,0,0,0,2.885,6.489,52.148,52.148,0,0,0,3.687,6.024c-.821-2.214-1.718-4.375-2.612-6.53-.873-2.16-1.785-4.3-2.518-6.47a11.624,11.624,0,0,1-.732-3.178,9.076,9.076,0,0,1,.6-3.175,33.96,33.96,0,0,1,3.148-6.167Z" transform="translate(-374.435 -110.559)" fill="#5504b0"/>
          <path id="Path_45462" data-name="Path 45462" d="M383.5,365.129c.368,7.309,11.46,13.148,11.46,13.148,15.116,22.832,16.3,14.065,16.3,14.065s14.064,15.891,11.507,19.179-9.863,4.018-21.371-8.22-11.873-18.631-13.151-18.448-4.2,3.836-4.2,3.836l-12.421-12.6s10.042-8.784,11.876-11.244" transform="translate(-306.334 -144.565)" fill="#5504b0"/>
          <rect id="Rectangle_42063" data-name="Rectangle 42063" width="4.566" height="111.331" transform="matrix(-0.999, -0.033, 0.033, -0.999, 73.234, 295.888)" fill="#5504b0"/>
          <path id="Path_45463" data-name="Path 45463" d="M428.244,421.018l2.045-14.9a7.652,7.652,0,0,1,2.914-5.039l35.834-27.732-1.863-2.408L431.34,398.671a10.681,10.681,0,0,0-4.068,7.033l-2.045,14.9Z" transform="translate(-394.871 -145.819)" fill="#5504b0"/>
          <path id="Path_45464" data-name="Path 45464" d="M427.957,432.7l1.133-21.376a7.688,7.688,0,0,1,1.469-4.129l23.448-32.126-2.459-1.794L428.1,405.4a10.713,10.713,0,0,0-2.05,5.762l-1.133,21.377Z" transform="translate(-379.595 -146.298)" fill="#5504b0"/>
          <path id="Path_45465" data-name="Path 45465" d="M323.8,398.184l3.04-.161-1.133-21.376a10.713,10.713,0,0,0-2.05-5.763l-23.448-32.126-2.459,1.794L321.2,372.678a7.688,7.688,0,0,1,1.469,4.13Zm59.509-192.722c.4,1.119.845,2.215,1.294,3.311l1.788,3.014,3.432,5.8h1.324l-.206-.343-3.569-6.035-1.788-3.021C384.844,207.273,384.105,206.352,383.314,205.461Zm8.356,3.79.426,3.729.525,4.6h1.149l-.54-4.734-.419-3.729c-.312-1.225-.616-2.451-1-3.661C391.723,206.732,391.693,207.988,391.67,209.251Zm4.711,8.334h-.723l.4-2.824.327-2.268.5-3.562c.342-1.157.677-2.321,1.081-3.47.053,1,.069,1.986.061,2.976v.662l-.145.982-.373,2.572-.708,4.932Zm2.413,0h1.149l.715-4.932.51-3.554c.008-1.21.008-2.42-.061-3.638-.4,1.149-.738,2.314-1.081,3.471l-.5,3.562-.487,3.394Z" transform="translate(-225.75 -111.787)" fill="#5504b0"/>
          <path id="Path_45466" data-name="Path 45466" d="M303.958,209.528v.67l.008,2.831V217.7h1.142v-8.174c-.167-1.164-.335-2.329-.571-3.5-.167.845-.312,1.69-.434,2.527C304.049,208.881,304,209.2,303.958,209.528Zm-3.516.586.4,3.478.464,4.11h1.149l-.32-2.824-.16-1.416-.388-3.478c-.3-1.142-.594-2.283-.959-3.41C300.518,207.754,300.48,208.934,300.442,210.114Z" transform="translate(-131.82 -111.903)" fill="#5504b0"/>
          <path id="Path_45467" data-name="Path 45467" d="M384.254,225.382v4.11c-.2-.023-.4-.038-.594-.061l-1.712-3.843C382.716,225.534,383.485,225.473,384.254,225.382Zm-2.519.274,1.834,3.767c-1.1-.114-2.215-.19-3.318-.236Zm-.244-.038L379.923,229l-1.248-3.265c.936-.015,1.88-.061,2.816-.114Zm-3.212.441,1.286,3.105c-.814-.03-1.621-.046-2.435-.053Zm-1.621-.3c.4-.008.8-.015,1.195-.015l-1.165,2.869-.989-2.869c.32.008.639.008.959.015Zm-1.469.723,1,2.626c-.639.007-1.279.015-1.918.038.32-.89.624-1.773.921-2.664Zm-.533-.753c-.327.906-.639,1.811-.944,2.717-.411-.936-.814-1.865-1.233-2.793.723.038,1.446.061,2.177.076Zm-2.6.35c.381,1.035.776,2.062,1.172,3.1-.875.03-1.75.084-2.618.16.5-1.081.974-2.161,1.446-3.257Zm12.2-5.358v4.658a65.026,65.026,0,0,0-7.6-.381c-.464,0-.929.008-1.393.015a.377.377,0,0,0-.205,0c-.974.015-1.941.053-2.907.106a.276.276,0,0,0-.076-.015.306.306,0,0,0-.114.023c-.967.061-1.933.137-2.9.251v-4.658Zm-1.773,3.4a1.142,1.142,0,1,0-1.1-1.142,1.142,1.142,0,0,0,1.1,1.142Zm-4.11,0a1.142,1.142,0,1,0-1.1-1.142,1.142,1.142,0,0,0,1.1,1.142Zm-3.973-.137a1.142,1.142,0,1,0-1.1-1.142,1.142,1.142,0,0,0,1.1,1.142Zm-3.9.137a1.142,1.142,0,1,0-1.1-1.142,1.142,1.142,0,0,0,1.1,1.142Zm1.225,1.484c-.426,1.24-.837,2.481-1.218,3.737-.48.046-.959.084-1.438.145v-4.11c.883.1,1.766.175,2.656.228Zm10.016.046,1.834,3.767c-1.1-.114-2.215-.19-3.318-.236Zm-.244-.038L379.923,229l-1.248-3.265c.936-.015,1.88-.061,2.816-.114Zm-3.212.441,1.286,3.105c-.814-.03-1.621-.046-2.435-.053Zm-1.621-.3c.4-.008.8-.015,1.195-.015l-1.164,2.869-.989-2.869c.32.008.639.008.959.015Zm-1.469.723,1,2.626c-.639.007-1.279.015-1.918.038C374.588,228.259,374.893,227.376,375.189,226.485Zm-.533-.753c-.327.906-.639,1.811-.944,2.717-.411-.936-.814-1.865-1.233-2.793.723.038,1.446.061,2.177.076Zm-2.6.35c.381,1.035.776,2.062,1.172,3.1-.875.03-1.75.084-2.618.16.5-1.081.974-2.161,1.446-3.257Zm9.681-.426,1.834,3.767c-1.1-.114-2.215-.19-3.318-.236Zm-.244-.038L379.923,229l-1.248-3.265c.936-.015,1.88-.061,2.816-.114Zm-3.212.441,1.286,3.105c-.814-.03-1.621-.046-2.435-.053Zm-1.621-.3c.4-.008.8-.015,1.195-.015l-1.164,2.869-.989-2.869c.32.008.639.008.959.015Zm-1.469.723,1,2.626c-.639.007-1.279.015-1.918.038.32-.89.624-1.773.921-2.664Zm-.533-.753c-.327.906-.639,1.811-.944,2.717-.411-.936-.814-1.865-1.233-2.793.723.038,1.446.061,2.177.076Zm-2.6.35c.381,1.035.776,2.062,1.172,3.1-.875.03-1.75.084-2.618.16.5-1.081.974-2.161,1.446-3.257Zm12.2,7.862v.944a7.6,7.6,0,1,1-15.191,0v-.944a75.991,75.991,0,0,0,15.191,0Zm-10.7-4.133a.367.367,0,0,0,.335.038.463.463,0,0,0,.046-.03c.906.03,1.819.046,2.725.053a68.538,68.538,0,0,0,7.6-.381v4.452a76,76,0,0,0-15.191,0v-4.452C370.562,229.667,372.054,229.758,373.553,229.811Zm8.585,3.082a1.142,1.142,0,1,0-1.1-1.142A1.142,1.142,0,0,0,382.138,232.894Zm-3.493-.069a1.142,1.142,0,1,0-1.1-1.142A1.142,1.142,0,0,0,378.645,232.825Zm-3.836,0a1.142,1.142,0,1,0-1.1-1.142A1.142,1.142,0,0,0,374.809,232.825Zm-3.836-.137a1.142,1.142,0,1,0-1.1-1.142,1.142,1.142,0,0,0,1.1,1.142Zm-.365-3.349c.5-1.081.974-2.161,1.446-3.257.381,1.035.776,2.062,1.172,3.1-.875.03-1.75.084-2.618.16Zm1.872-3.683c.723.038,1.446.061,2.177.076-.327.906-.639,1.811-.944,2.717-.411-.936-.814-1.865-1.233-2.793Zm1.789,3.493c.32-.89.624-1.773.921-2.664l1,2.626c-.639.007-1.279.015-1.918.038Zm1.431-3.4c.32.008.639.008.959.015.4-.008.8-.015,1.195-.015l-1.164,2.869Zm1.431,3.364,1.149-3.052,1.286,3.105c-.814-.03-1.621-.046-2.435-.053Zm1.545-3.379c.936-.015,1.88-.061,2.816-.114L379.923,229Zm3.059-.076,1.834,3.767c-1.1-.114-2.215-.19-3.318-.236Zm-9.681.426c.381,1.035.776,2.062,1.172,3.1-.875.03-1.75.084-2.618.16.5-1.081.974-2.161,1.446-3.257Zm2.6-.35c-.327.906-.639,1.811-.944,2.717-.411-.936-.814-1.865-1.233-2.793.723.038,1.446.061,2.177.076Zm.533.753,1,2.626c-.639.007-1.279.015-1.918.038.32-.89.624-1.773.921-2.664Zm1.469-.723c.4-.008.8-.015,1.195-.015l-1.164,2.869-.989-2.869c.32.008.639.008.959.015Zm1.621.3,1.286,3.105c-.814-.03-1.621-.046-2.435-.053Zm3.212-.441L379.923,229l-1.248-3.265c.936-.015,1.88-.061,2.816-.114Zm.244.038,1.834,3.767c-1.1-.114-2.215-.19-3.318-.236Zm-9.681.426c.381,1.035.776,2.062,1.172,3.1-.875.03-1.75.084-2.618.16C371.11,228.259,371.582,227.178,372.054,226.082Zm2.6-.35c-.327.906-.639,1.811-.944,2.717-.411-.936-.814-1.865-1.233-2.793.723.038,1.446.061,2.177.076Zm.533.753,1,2.626c-.639.007-1.279.015-1.918.038.32-.89.624-1.773.921-2.664Zm1.469-.723c.4-.008.8-.015,1.195-.015l-1.164,2.869-.989-2.869c.32.008.639.008.959.015Zm1.621.3,1.286,3.105c-.814-.03-1.621-.046-2.435-.053Zm3.212-.441L379.923,229l-1.248-3.265c.936-.015,1.88-.061,2.816-.114Zm.244.038,1.834,3.767c-1.1-.114-2.215-.19-3.318-.236ZM306.117,345.412a12.3,12.3,0,0,0-2.638.24,20.15,20.15,0,0,0-2.5.65,19.837,19.837,0,0,0-2.4.96,12.15,12.15,0,0,0-2.264,1.375,12.141,12.141,0,0,0,2.638-.238,19.806,19.806,0,0,0,2.5-.652,20.183,20.183,0,0,0,2.4-.963,12.3,12.3,0,0,0,2.265-1.373Z" transform="translate(-207.686 -114.926)" fill="#5504b0"/>
        </g>
      </g>
      <g id="Rectangle_42064" data-name="Rectangle 42064" transform="translate(1907 7251)" fill="#fff" stroke="#5504b0" stroke-width="1">
        <rect width="49" height="79" rx="8" stroke="none"/>
        <rect x="0.5" y="0.5" width="48" height="78" rx="7.5" fill="none"/>
      </g>
      <rect id="Rectangle_42065" data-name="Rectangle 42065" width="31" height="9" transform="translate(1916 7263)" fill="#5504b0" opacity="0.253"/>
      <rect id="Rectangle_42066" data-name="Rectangle 42066" width="20" height="9" transform="translate(1927 7276)" fill="#5504b0" opacity="0.253"/>
      <rect id="Rectangle_42067" data-name="Rectangle 42067" width="28" height="9" rx="4.5" transform="translate(1918 7314)" fill="#5504b0" opacity="0.335"/>
    </g>
  </g>
</svg>
