<svg xmlns="http://www.w3.org/2000/svg" width="312.645" height="301.017" viewBox="0 0 312.645 301.017">
  <g id="Group_5487" data-name="Group 5487" transform="translate(-1416.128 -7355.262)">
    <g id="Group_5485" data-name="Group 5485" transform="translate(-512 -513.832)">
      <g id="Group_5477" data-name="Group 5477" transform="translate(862.322 258.379)">
        <path id="Path_45468" data-name="Path 45468" d="M-3612.252,4091.689l.483,5.508,15.39,175.6h296.772V4043.72" transform="translate(4678.058 3638.585)" fill="#fbd206"/>
      </g>
      <g id="girl-doing-paiting-on-the-canvas_1_" data-name="girl-doing-paiting-on-the-canvas (1)" transform="translate(1772.083 7796.906)">
        <path id="Path_5156" data-name="Path 5156" d="M389.247,218.682c-9.123,18.5-20.914,31.4-35.365,25.587h3.911l-3.214-16.341c.683-4.587,1.56-9.72,2.667-15.608a43.032,43.032,0,0,0,7.276,3.48,48.375,48.375,0,0,0,16.219,3.451A35.2,35.2,0,0,0,389.247,218.682Zm48.514,43.481c3.027,13.911,5.953,24.731,9.03,30.806a57.148,57.148,0,0,1-3.99,4.127,27.662,27.662,0,0,1-4.436,3.422,15.1,15.1,0,0,1-5.076,2.042,13.052,13.052,0,0,1-2.761.194,16.247,16.247,0,0,1-2.768-.4c-1.51-5.8-1.97-7-2.293-14.026-.309-6.521.848-27.312.848-27.312-1.4-42.633-15.666-56.609-15.666-56.609,12.481-6.643,14.285-16.075,14.285-16.075S433.224,241.329,437.76,262.164Z" transform="translate(-38.772 -29.864)" fill="#5504b0"/>
        <path id="Path_5157" data-name="Path 5157" d="M472.363,329.185a20.079,20.079,0,0,1-3.185,4.9,19.552,19.552,0,0,1-4.493,3.875,16.009,16.009,0,0,1-2.718,1.3,11.884,11.884,0,0,1-2.962.625,10.19,10.19,0,0,1-3-.223,9.81,9.81,0,0,1-2.667-1.064c.46,1.776,1.021,3.983,1.7,6.916,10.626,7.312,24.58-11.057,24.94-11.539C477.266,335.785,474.764,333.93,472.363,329.185Zm-14.975,15.206a1.079,1.079,0,1,1,1.041-1.078A1.079,1.079,0,0,1,457.387,344.391Zm5-.345a1.079,1.079,0,1,1,1.041-1.078A1.079,1.079,0,0,1,462.391,344.046Zm5.521-2.588a1.079,1.079,0,1,1,1.041-1.078,1.079,1.079,0,0,1-1.041,1.078Zm4.141-3.969a1.079,1.079,0,1,1,1.041-1.078A1.079,1.079,0,0,1,472.054,337.489Z" transform="translate(-64.344 -66.079)" fill="#5504b0"/>
        <path id="Path_5158" data-name="Path 5158" d="M453.315,341.848c-.021-.014-.05-.029-.072-.043.021.007.043.007.065.014A.053.053,0,0,1,453.315,341.848Z" transform="translate(-64.32 -69.324)" fill="#5504b0"/>
        <path id="Path_5159" data-name="Path 5159" d="M376.736,75.315a6.62,6.62,0,0,0-2.284,2.753,10.16,10.16,0,0,0-.572,1.694l-.175.9a6.5,6.5,0,0,1-.241.952,8.164,8.164,0,0,1-2.023,3.375,5.673,5.673,0,0,1-1.687,1.2,3.229,3.229,0,0,1-1.114.267,2.11,2.11,0,0,1-1.266-.336.534.534,0,0,1-.231-.307l0-.006a2.844,2.844,0,0,1-.109-.853,4.05,4.05,0,0,1,.082-.77,4.883,4.883,0,0,1,.526-1.4,6.989,6.989,0,0,1,.836-1.172,9.358,9.358,0,0,1,1.008-.972l-.116.131a9.7,9.7,0,0,0,1.166-2.527c.069-.237.1-.417.167-.705a4.2,4.2,0,0,1,.278-.806,7.314,7.314,0,0,1,.83-1.37,7.175,7.175,0,0,1,2.376-2.061,3.74,3.74,0,0,1,3.125-.253l-.134-.01a52.406,52.406,0,0,1,6.792-.782,27.935,27.935,0,0,1,6.873.381,13.557,13.557,0,0,1,3.347,1.1,9.2,9.2,0,0,1,2.91,2.144c.19.241.4.471.572.725s.35.518.488.778c.278.52.557,1.04.783,1.581a22.382,22.382,0,0,1,1.165,3.3,41.537,41.537,0,0,1,.99,13.687,22.938,22.938,0,0,0,.857,6.555,21.752,21.752,0,0,0,1.191,3.112,3.879,3.879,0,0,0,.952,1.288,4.4,4.4,0,0,0,1.455.756.072.072,0,0,1,.047.09.073.073,0,0,1-.083.049,4.272,4.272,0,0,1-1.633-.611,4.317,4.317,0,0,1-1.206-1.3,18.1,18.1,0,0,1-1.517-3.114,20.692,20.692,0,0,1-1.323-6.81c-.031-1.182.02-2.286-.018-3.405-.022-1.118-.055-2.235-.149-3.346a40.447,40.447,0,0,0-1.01-6.569,20.937,20.937,0,0,0-1.009-3.131c-.2-.511-.442-1-.685-1.483a7.829,7.829,0,0,0-.86-1.294,10.657,10.657,0,0,0-5.489-3.159,29.759,29.759,0,0,0-13.343-.077.245.245,0,0,1-.126-.007l-.008,0a3.052,3.052,0,0,0-2.646.37,6.883,6.883,0,0,0-2.606,3.248,3.205,3.205,0,0,0-.165.624c-.036.2-.069.519-.123.767a9.331,9.331,0,0,1-1.184,2.97.419.419,0,0,1-.072.09l-.044.041a11.422,11.422,0,0,0-.856.855,5.715,5.715,0,0,0-.671.956,3.931,3.931,0,0,0-.411,1.032,2.787,2.787,0,0,0-.067.525,1.994,1.994,0,0,0,.033.441l-.232-.312a1.363,1.363,0,0,0,1.2-.025,4.533,4.533,0,0,0,1.372-.9,7.628,7.628,0,0,0,1.929-2.863c.224-.543.343-1.11.536-1.752a8.86,8.86,0,0,1,.791-1.769,6.476,6.476,0,0,1,2.757-2.6.072.072,0,0,1,.069.125Z" transform="translate(-42.153 0)" fill="#5504b0"/>
        <path id="Path_5160" data-name="Path 5160" d="M372.216,85.434a33.618,33.618,0,0,0,.185,6.11,20.777,20.777,0,0,0,.579,2.944c.1.487.288.947.432,1.418.177.458.365.912.575,1.351a11.721,11.721,0,0,0,1.565,2.443,11.244,11.244,0,0,0,2.065,2.018,7.983,7.983,0,0,0,2.508,1.27,6.034,6.034,0,0,0,1.377.234,4.8,4.8,0,0,0,1.342-.081l.082-.018a.521.521,0,0,1,.62.4.55.55,0,0,1,.012.118,29.261,29.261,0,0,1-.3,3.862,11.583,11.583,0,0,1-.438,1.9,3.071,3.071,0,0,1-.453.894.739.739,0,0,1-.448.27.66.66,0,0,1-.455-.183.611.611,0,0,0,.437.082.594.594,0,0,0,.3-.286,2.971,2.971,0,0,0,.254-.87,13.749,13.749,0,0,0,.134-1.868c.023-1.254-.038-2.524-.112-3.77l.714.5a6.337,6.337,0,0,1-3.379.069,8.212,8.212,0,0,1-3.011-1.387,11.073,11.073,0,0,1-2.352-2.255c-.164-.214-.338-.419-.494-.641l-.441-.69a11.793,11.793,0,0,1-.766-1.437,16.876,16.876,0,0,1-1.292-6.215,21.119,21.119,0,0,1,.762-6.181ZM414.037,110.3c1.423.338,2.827.754,4.228,1.174,1.4.438,2.79.877,4.169,1.4l-.045-.013a10.086,10.086,0,0,1,4.564,2.408,15.989,15.989,0,0,1,3.206,4.061,28.407,28.407,0,0,1,3.083,9.793,55.558,55.558,0,0,1,.4,10.224,91.79,91.79,0,0,1-1.061,10.143v0a.705.705,0,0,1-.7.594l-8.818-.042-8.818-.1h-.016a.56.56,0,0,1-.55-.52q-.376-5.488-.466-10.976-.03-2.746.053-5.494a38.064,38.064,0,0,1,.476-5.47,49.648,49.648,0,0,0-.088,5.471q.082,2.735.277,5.465c.228,3.64.534,7.281.881,10.906l-.566-.52,8.818-.1,8.818-.042-.7.6c.488-3.319.9-6.649,1.069-9.99a59.364,59.364,0,0,0-.24-9.993,39.135,39.135,0,0,0-.92-4.889,23.965,23.965,0,0,0-1.749-4.626,15.36,15.36,0,0,0-2.87-3.985,9.6,9.6,0,0,0-4.147-2.528l-.035-.009-.011,0c-1.334-.566-2.713-1.063-4.088-1.553S415.44,110.713,414.037,110.3ZM378.8,75.633a5.366,5.366,0,0,1,3.652,2.816,9.437,9.437,0,0,1,.865,2.211,15.482,15.482,0,0,0,.73,2.062,11.006,11.006,0,0,0,2.41,3.517,4.574,4.574,0,0,0,3.549,1.553l-.313.18a10.4,10.4,0,0,1,1.7-1.472,3.522,3.522,0,0,1,2.22-.752,1.637,1.637,0,0,1,1.086.636,3.349,3.349,0,0,1,.5,1.046,9.127,9.127,0,0,1,.314,2.175,7.507,7.507,0,0,1-.831,4.313,4.031,4.031,0,0,1-4.147,1.864l.645-.342c-.324,1.295-.622,2.618-.866,3.938-.263,1.318-.477,2.643-.624,3.968a27.232,27.232,0,0,0-.16,3.939,6.19,6.19,0,0,0,.929,3.4l-.73-.227c1.174-.27,2.318-.434,3.48-.6,1.16-.144,2.321-.266,3.485-.329a48.507,48.507,0,0,1,6.976.064.072.072,0,0,1,.066.078.073.073,0,0,1-.066.066c-1.154.119-2.3.2-3.448.356-1.145.116-2.285.276-3.42.453s-2.265.367-3.388.587-2.251.464-3.324.735h0a.728.728,0,0,1-.726-.228,5.231,5.231,0,0,1-1.056-2.118,9.838,9.838,0,0,1-.307-2.166,21.815,21.815,0,0,1,.262-4.2,46.381,46.381,0,0,1,1.935-8.026l.009-.028a.5.5,0,0,1,.633-.315h0a3.018,3.018,0,0,0,1.788-.093,3.333,3.333,0,0,0,1.52-1.148,6.12,6.12,0,0,0,.927-3.929,7.351,7.351,0,0,0-.318-2.055c-.207-.639-.627-1.227-1.2-1.229a2.921,2.921,0,0,0-1.68.811,9.761,9.761,0,0,0-1.4,1.476.465.465,0,0,1-.276.172l-.037.008a4.32,4.32,0,0,1-2.549-.254,6.557,6.557,0,0,1-2.06-1.387,10.948,10.948,0,0,1-2.593-4,13.414,13.414,0,0,1-.648-2.268,9.946,9.946,0,0,0-.6-2.083A6.686,6.686,0,0,0,380.574,77a4.839,4.839,0,0,0-1.8-1.226l-.01,0a.072.072,0,0,1,.036-.138Z" transform="translate(-43.288 -0.886)" fill="#5504b0"/>
        <path id="Path_5161" data-name="Path 5161" d="M408.846,134.392a13.927,13.927,0,0,1,.9-3.325,13.032,13.032,0,0,1,1.68-3.045,8.565,8.565,0,0,1,2.595-2.367,5.852,5.852,0,0,1,3.383-.712,7.592,7.592,0,0,0-3.087,1.189A10.173,10.173,0,0,0,412,128.451a18.593,18.593,0,0,0-1.747,2.847C409.751,132.3,409.269,133.327,408.846,134.392Zm-23.881-11.349a9.272,9.272,0,0,1,0,3.6,10.783,10.783,0,0,1-1.182,3.4,29.213,29.213,0,0,1,.475-3.526C384.473,125.365,384.669,124.224,384.966,123.043Zm-32.784,27.176c.123-1.247.326-2.486.567-3.717s.505-2.46.822-3.678a50.126,50.126,0,0,1,2.443-7.156,34.918,34.918,0,0,1,1.682-3.414,26.48,26.48,0,0,1,2.07-3.223,18.8,18.8,0,0,1,5.7-5.225l-.062.039a5.262,5.262,0,0,1,.754-.4c.239-.11.479-.2.718-.294.48-.171.962-.323,1.446-.447a21.554,21.554,0,0,1,2.924-.555c.978-.132,1.957-.2,2.935-.26s1.956-.053,2.931-.041h.018a.557.557,0,0,1,.55.564l0,.037c-.182,2.308-.306,4.644-.363,6.972-.086,2.332-.042,4.663.1,7a51.813,51.813,0,0,1-.813-6.993c-.111-2.349-.14-4.694-.052-7.056l.566.6q-1.433.054-2.858.157c-.947.083-1.893.18-2.825.334a26.409,26.409,0,0,0-2.753.579c-.45.119-.888.264-1.316.42-.21.084-.421.166-.62.26a4.49,4.49,0,0,0-.522.277l-.062.039a18.494,18.494,0,0,0-5.291,4.828,35.274,35.274,0,0,0-3.793,6.287,61.7,61.7,0,0,0-2.8,6.883,74.8,74.8,0,0,0-2.1,7.18Z" transform="translate(-38.335 -12.767)" fill="#5504b0"/>
        <path id="Path_5162" data-name="Path 5162" d="M337.131,114.711a6.871,6.871,0,0,1,1.918,1.879,10.457,10.457,0,0,1,1.193,2.436,15.758,15.758,0,0,1,.652,2.639,17.039,17.039,0,0,1,.225,2.727l-.009-.1,5.88,22.672q.738,2.831,1.515,5.647l.389,1.407.212.619c.094.206.177.413.277.618a17.5,17.5,0,0,0,1.471,2.4,39.019,39.019,0,0,0,3.688,4.4l4.186,4.085-1.042.16,4.623-8.5.356.908-8.3-2.864-.036-.013a.437.437,0,0,1-.16-.1,7.211,7.211,0,0,1-1.67-2.652,9.959,9.959,0,0,1-.611-2.961,14.8,14.8,0,0,1,.967-5.807c.328-.926.732-1.8,1.107-2.673l1.113-2.646c.362-.885.717-1.774,1.053-2.669a19.788,19.788,0,0,0,.892-2.723,35.805,35.805,0,0,1-1.549,5.54c-.6,1.814-1.3,3.635-1.886,5.413a14.338,14.338,0,0,0-.68,5.489,8.891,8.891,0,0,0,.631,2.626,6.22,6.22,0,0,0,1.417,2.141l-.2-.111,8.323,2.8a.637.637,0,0,1,.359.9l0,.007-4.583,8.524a.66.66,0,0,1-.894.269.7.7,0,0,1-.148-.109L353.59,163a37.469,37.469,0,0,1-3.877-4.534,18.864,18.864,0,0,1-1.605-2.582c-.116-.232-.218-.477-.326-.716s-.183-.513-.267-.764l-.391-1.416q-.768-2.836-1.483-5.679c-.969-3.788-1.853-7.6-2.738-11.4q-1.3-5.715-2.5-11.452l0-.012a.351.351,0,0,1-.007-.089,17.358,17.358,0,0,0-.057-2.618,15.278,15.278,0,0,0-.469-2.593,8.247,8.247,0,0,0-2.733-4.433Zm-7.247-2.416a3.338,3.338,0,0,1,3.056-.99,3.847,3.847,0,0,1,1.538.658,4.519,4.519,0,0,1,.619.539,5.433,5.433,0,0,1,.481.655c-.253-.114-.471-.254-.7-.377-.237-.105-.449-.242-.682-.332a5.971,5.971,0,0,0-1.382-.436,4.977,4.977,0,0,0-1.436-.049A7.235,7.235,0,0,0,329.885,112.3Zm5.694,5.867a2.332,2.332,0,0,1,.043,1.472,2.27,2.27,0,0,1-.935,1.26,2.842,2.842,0,0,1-1.49.382,5.274,5.274,0,0,1-.731-.1,5.393,5.393,0,0,1-.682-.255,6.289,6.289,0,0,1,.7-.1l.663-.108a3.88,3.88,0,0,0,1.152-.43,3.313,3.313,0,0,0,1.278-2.126Zm-2.847,7.376a12.459,12.459,0,0,1,1.742.2l.84.154c.271.051.562.1.782.116l.045,0a.293.293,0,0,1,.118.036,4.343,4.343,0,0,1,1.151.925,2.348,2.348,0,0,1,.41.633,1.134,1.134,0,0,1,.086.738,2.134,2.134,0,0,0-.854-.987,10.174,10.174,0,0,0-1.121-.685l.163.04a3.994,3.994,0,0,1-.931-.141c-.289-.068-.567-.166-.844-.259A7.85,7.85,0,0,1,332.732,125.538Z" transform="translate(-32.602 -10.043)" fill="#5504b0"/>
        <path id="Path_5163" data-name="Path 5163" d="M315.11,219.622c-7.525.188-15.05.286-22.575.417l-22.575.252-22.575.12c-7.525.019-15.05.107-22.575.05H224.8a.943.943,0,0,1-.923-.79L221.3,204.047,218.851,188.4l-2.446-15.647-1.225-7.823-1.279-7.814-2.571-15.626-2.687-15.606c-1.8-10.4-3.682-20.791-5.544-31.183a.665.665,0,0,1,.537-.772.68.68,0,0,1,.1-.01h.017l22.6-.556,22.6-.477,22.6-.439,22.6-.389a1.151,1.151,0,0,1,1.149.93l5.336,27.5,5.2,27.531c1.755,9.173,3.411,18.365,5.111,27.549s3.3,18.387,4.957,27.579a.108.108,0,1,1-.212.042c-1.949-9.135-3.965-18.256-5.859-27.4s-3.854-18.278-5.705-27.432l-5.613-27.45-5.481-27.476,1.149.93-22.6.3-22.6.251-22.605.213-22.607.134.651-.782c1.646,10.428,3.272,20.86,4.981,31.278l2.576,15.625,2.692,15.605,1.353,7.8,1.406,7.792,2.817,15.584,2.81,15.585,2.689,15.606-.934-.79c7.525-.057,15.05.031,22.575.05l22.575.12,22.575.252c7.525.131,15.05.229,22.575.417a.108.108,0,0,1,0,.216Z" transform="translate(0 -5.109)" fill="#5504b0"/>
        <path id="Path_5164" data-name="Path 5164" d="M213.575,105.07l39.435-1,19.871-.491,19.932-.438a.715.715,0,0,1,.717.572l0,.009,5.614,27.644,5.512,27.664,11,55.332a1.074,1.074,0,0,1-.844,1.263,1.141,1.141,0,0,1-.212.021l-82.577-.163h-.008a.906.906,0,0,1-.892-.761l-8.883-55.051Zm0,0,9.783,54.9,9.568,54.447-.9-.761,82.577-.163-1.055,1.283L302.771,159.4l-5.378-27.69L292.118,104l.718.581-19.693.167-19.754.114Zm151.378,61.045c1.3-.4,2.6-.679,3.88-.972a34.258,34.258,0,0,0,3.712-.994l-.465.6c.068-.7.152-1.394.244-2.089.112-.693.2-1.389.333-2.08s.268-1.382.424-2.071c.173-.687.339-1.375.575-2.055.092.714.114,1.421.143,2.129.012.706.015,1.411-.007,2.114s-.066,1.4-.1,2.1c-.052.7-.112,1.4-.187,2.1l0,.014a.7.7,0,0,1-.464.585,11.673,11.673,0,0,1-2.029.508,18.99,18.99,0,0,1-2.021.229A20.4,20.4,0,0,1,364.953,166.115Z" transform="translate(-2.696 -7.958)" fill="#5504b0"/>
        <path id="Path_5165" data-name="Path 5165" d="M387.586,193.412a28.62,28.62,0,0,1,2.818-2.95q1.48-1.394,3.032-2.7c1.023-.884,2.086-1.716,3.143-2.557,1.069-.826,2.141-1.644,3.243-2.429l.043-.031a.537.537,0,0,1,.263-.1c1.217-.1,2.431-.179,3.654-.2.61-.02,1.223-.012,1.836,0a10.781,10.781,0,0,1,1.836.177c-.609.059-1.2.193-1.8.3l-1.789.337c-1.192.227-2.388.433-3.579.631l.306-.127c-1.027.875-2.078,1.72-3.132,2.562-1.066.826-2.121,1.665-3.212,2.459s-2.178,1.592-3.291,2.358S388.709,192.645,387.586,193.412Zm2.352,14.582,9.709-6.232c1.6-1.056,3.213-2.095,4.79-3.18l2.366-1.623a25.361,25.361,0,0,0,2.187-1.744,23.391,23.391,0,0,0,6.313-9.12,23,23,0,0,0,1.3-11.189,19.758,19.758,0,0,1-.237,11.558,22.346,22.346,0,0,1-6.418,9.826,26.81,26.81,0,0,1-2.342,1.824c-.8.54-1.6,1.089-2.418,1.6-1.635,1.03-3.274,2.051-4.955,3Q395.216,205.605,389.938,207.995ZM373.02,363.78c-.208.405-.432.8-.622,1.207a12.847,12.847,0,0,0-.476,1.259,8.221,8.221,0,0,0-.39,2.613,7.843,7.843,0,0,0,.491,2.551,7.017,7.017,0,0,0,1.287,2.187l.006.007a.5.5,0,0,1,.056.078,23,23,0,0,1,2.678,6.7,13.6,13.6,0,0,1,.325,3.678,8.832,8.832,0,0,1-1,3.667,7.659,7.659,0,0,1-2.642,2.776,9.936,9.936,0,0,1-3.488,1.4,11.012,11.012,0,0,1-3.716.1,16.583,16.583,0,0,1-1.781-.368c-.561-.133-1.128-.25-1.7-.347a26.99,26.99,0,0,0-13.768.992c-.54.22-1.087.422-1.62.657-.523.256-1.058.488-1.572.762l-1.529.855a17.71,17.71,0,0,1-1.6.819,22.345,22.345,0,0,1-6.919,1.811,26.39,26.39,0,0,1-7.184-.2,19.649,19.649,0,0,1-3.532-.932,8.05,8.05,0,0,1-3.235-2.066,3.473,3.473,0,0,1-.891-2.015,3.1,3.1,0,0,1,.158-1.138,3.684,3.684,0,0,1,.464-.978,9.214,9.214,0,0,1,2.861-2.564,40.427,40.427,0,0,1,6.541-2.986c4.363-1.749,8.808-3.342,12.993-5.317a16.945,16.945,0,0,0,5.516-3.9,25.153,25.153,0,0,0,3.6-5.871l-.029.1c.26-1.343.547-2.682.826-4.022l.856-4.017a.079.079,0,0,1,.156.026l-.511,4.076c-.176,1.358-.346,2.716-.541,4.071a.323.323,0,0,1-.021.076l-.008.02a25.764,25.764,0,0,1-3.42,6.319,18.223,18.223,0,0,1-5.77,4.408c-2.119,1.121-4.291,2.067-6.472,2.972s-4.366,1.781-6.558,2.634a46.3,46.3,0,0,0-6.32,2.784,7.82,7.82,0,0,0-2.414,2.037,2.2,2.2,0,0,0-.3.6,1.6,1.6,0,0,0-.105.592,1.993,1.993,0,0,0,.51,1.149,7.044,7.044,0,0,0,2.632,1.735,18.36,18.36,0,0,0,3.252.974,27.694,27.694,0,0,0,6.874.505,21.175,21.175,0,0,0,6.752-1.437,12.944,12.944,0,0,0,1.558-.752l1.566-.842c.529-.271,1.078-.5,1.616-.751.547-.231,1.108-.427,1.661-.642a30.292,30.292,0,0,1,6.937-1.552,31.108,31.108,0,0,1,7.137.029c.594.068,1.186.158,1.776.265a15.418,15.418,0,0,0,1.691.257,10.949,10.949,0,0,0,3.3-.232,7.933,7.933,0,0,0,5.184-3.541,9.652,9.652,0,0,0,.657-6.416,21.875,21.875,0,0,0-.91-3.3,23.938,23.938,0,0,0-1.36-3.161l.063.085a7.819,7.819,0,0,1-1.357-2.576,7.576,7.576,0,0,1-.356-2.833,8.755,8.755,0,0,1,.637-2.742,10.329,10.329,0,0,1,.6-1.256c.239-.4.51-.772.762-1.156a.079.079,0,0,1,.136.079Zm25.98.946a13.677,13.677,0,0,1,.363,7.688,8.454,8.454,0,0,1-.718,1.869c-.283.55-.541,1.123-.781,1.7a26.008,26.008,0,0,0-1.171,3.542,11.1,11.1,0,0,0,.188,7.06,7.715,7.715,0,0,0,5.429,4.007,11.009,11.009,0,0,0,3.582.207c.3-.032.6-.079.9-.134l.958-.171q.961-.155,1.927-.251a32.439,32.439,0,0,1,7.72.186,30.458,30.458,0,0,1,7.423,2.03c.581.276,1.182.512,1.747.821s1.143.625,1.692.9a16,16,0,0,0,3.5,1.324,20.748,20.748,0,0,0,3.693.631,25.448,25.448,0,0,0,3.744.06,22.166,22.166,0,0,0,7.229-1.458,6.5,6.5,0,0,0,2.766-1.907,1.653,1.653,0,0,0,.341-1.239,2.64,2.64,0,0,0-.692-1.271,10.475,10.475,0,0,0-2.832-2.06c-.544-.28-1.1-.555-1.658-.811-.578-.239-1.135-.487-1.729-.719-4.734-1.892-9.494-3.7-14.127-5.979a34.488,34.488,0,0,1-3.4-1.914,15.331,15.331,0,0,1-2.986-2.59,23.038,23.038,0,0,1-3.753-6.776l-.007-.018a.168.168,0,0,1-.01-.04L417.9,365.9a.079.079,0,0,1,.156-.026l.748,3.465-.017-.058a24.66,24.66,0,0,0,4.048,6.292,20.522,20.522,0,0,0,6.233,3.966c2.291,1.043,4.67,1.935,7.04,2.86s4.758,1.817,7.124,2.766c2.385.977,4.868,1.986,6.82,4.13a4.163,4.163,0,0,1,1.015,2.084,3.2,3.2,0,0,1-.65,2.344,7.843,7.843,0,0,1-3.463,2.359,18.6,18.6,0,0,1-3.836.986,25.891,25.891,0,0,1-11.585-.8,16.676,16.676,0,0,1-3.57-1.548l-1.662-.931c-.548-.312-1.133-.553-1.7-.834a24.4,24.4,0,0,0-7.282-1.97,28.222,28.222,0,0,0-7.531.206c-.62.1-1.236.214-1.848.348l-.914.217c-.324.079-.651.15-.982.2a11.146,11.146,0,0,1-4.022-.045,9.924,9.924,0,0,1-3.756-1.569,7.514,7.514,0,0,1-2.66-3.183,9.464,9.464,0,0,1-.727-4.02,16.168,16.168,0,0,1,.637-3.92,22.908,22.908,0,0,1,1.405-3.649c.282-.586.579-1.161.911-1.728a7.577,7.577,0,0,0,.74-1.655,13.341,13.341,0,0,0,.623-3.656,17.214,17.214,0,0,0-.356-3.759.079.079,0,0,1,.153-.041Z" transform="translate(-30.111 -26.411)" fill="#5504b0"/>
        <path id="Path_5166" data-name="Path 5166" d="M396.932,366.228c3.681,6.6,14.337.8,21.265,2.882.993.3,1.186.208,1.186.208s4.4-12.349,10.284-11.966c0,0,9.673,1.9,11,4.746,0,0-7.7,7.034-7.089,12.544,14.793,1.541,16.847-3.914,16.847-3.914,2.926,5.69-8.454,8.748-16.207,6.4-6.519-1.974-19.2-6.4-19.2-6.4v3.7l-4.694,1.991H396.894l2.048-4.457C395.053,368.831,396.932,366.228,396.932,366.228Zm-75.9,4.5s2.054,5.455,16.848,3.914c.614-5.51-7.089-12.544-7.089-12.544,1.328-2.845,11-4.746,11-4.746,5.88-.384,10.284,11.966,10.284,11.966s.192.091,1.186-.208c6.927-2.081,17.584,3.715,21.265-2.882,0,0,1.879,2.6-2.009,5.732l2.048,4.457H361.138l-4.694-1.992v-3.7s-12.684,4.427-19.2,6.4C329.487,379.476,318.108,376.417,321.033,370.727Zm35.808-253.835c.191-2.217.313-4.409.4-6.6.073-2.191.139-4.378.108-6.566,0-1.093-.013-2.188-.055-3.282l-.043-1.643-.075-1.643c-.084-2.2-.261-4.385-.339-6.616a39.182,39.182,0,0,1,1.456,6.511,49.422,49.422,0,0,1,.494,6.665,48.436,48.436,0,0,1-.431,6.672A30.9,30.9,0,0,1,356.841,116.893Zm14.991-10.62a8.135,8.135,0,0,0,1.411-.935,15.716,15.716,0,0,0,1.24-1.108c.409-.377.784-.793,1.187-1.191s.781-.827,1.224-1.225a7.14,7.14,0,0,1-.785,1.574,8.344,8.344,0,0,1-1.127,1.359,6.392,6.392,0,0,1-1.434,1.058A3.4,3.4,0,0,1,371.832,106.272Zm-8.857-10.458c-.056.38-.138.721-.2,1.053a3.531,3.531,0,0,0-.085.917.764.764,0,0,0,.324.619,4.24,4.24,0,0,0,.913.431,1.6,1.6,0,0,1-1.165.07.709.709,0,0,1-.3-.154.925.925,0,0,1-.256-.252,1.3,1.3,0,0,1-.231-.656,2.2,2.2,0,0,1,.276-1.167A2.5,2.5,0,0,1,362.975,95.814Zm.146,5.694a22.072,22.072,0,0,1,2.291.211,4.774,4.774,0,0,0,1.033.031.885.885,0,0,0,.757-.586,2.079,2.079,0,0,1,.04.318,1.347,1.347,0,0,1-.092.335,2.019,2.019,0,0,1-.231.283c-.094.068-.2.125-.3.186a2.623,2.623,0,0,1-1.278.149,4.367,4.367,0,0,1-1.176-.305A3.6,3.6,0,0,1,363.121,101.508Zm54.737,134.375c-.106,4.491-.234,8.98-.3,13.469-.052,4.482-.185,8.991.008,13.426.376,8.9,3.479,17.385,5.541,26.17,1.081,4.386,2.006,8.8,2.82,13.23s1.551,8.886,2.112,13.366.984,8.985,1.162,13.513a82.725,82.725,0,0,1-.444,13.635l-.006.046a.983.983,0,0,1-.617.788,17.159,17.159,0,0,1-2.619.756c-.854.192-1.709.334-2.564.458-1.711.238-3.423.385-5.133.458a79.528,79.528,0,0,1-10.22-.261c-6.748-.683-13.4-1.366-20.126-1.8q-5.035-.331-10.08-.485c-1.682-.046-3.363-.086-5.046-.1s-3.391-.046-5.079-.167a57.41,57.41,0,0,1-10.042-1.577,59.8,59.8,0,0,1-9.594-3.346.335.335,0,0,1-.2-.325v-.006c.592-9.841.739-19.712.74-29.567-.036-9.856-.235-19.708-.8-29.52l-.23-3.678c-.083-1.225-.22-2.444-.327-3.666-.188-2.45-.538-4.872-.851-7.3-.126-1.222-.4-2.407-.613-3.61-.227-1.2-.432-2.39-.709-3.619a70.979,70.979,0,0,1-1.116-7.39,127.731,127.731,0,0,1-.379-14.863c.112-4.942.334-9.888.882-14.8a.108.108,0,0,1,.215.016c-.2,4.93-.259,9.855-.116,14.78.062,2.46.118,4.931.212,7.385s.3,4.889.625,7.313.757,4.829,1.287,7.209c.287,1.173.526,2.412.778,3.631.235,1.223.54,2.441.69,3.673l.54,3.689c.193,1.23.27,2.466.41,3.7.118,1.234.266,2.467.36,3.7l.262,3.706c.645,9.887.638,19.786.316,29.661-.3,9.878-.869,19.735-1.5,29.592l-.2-.331a53.67,53.67,0,0,0,19.4,4.74c1.677.1,3.334.074,5.028.044s3.376-.033,5.065-.031q5.065.022,10.13.2c3.376.119,6.75.285,10.121.516s6.757.557,10.074.792a87.323,87.323,0,0,0,9.986.1c1.656-.09,3.3-.251,4.928-.5.811-.127,1.618-.271,2.406-.458a15.935,15.935,0,0,0,2.23-.658l-.623.834a80.661,80.661,0,0,0,.275-13.271q-.337-6.666-1.187-13.323c-1.121-8.862-2.684-17.695-4.592-26.426-.969-4.37-2.1-8.7-3.131-13.1-.5-2.2-.975-4.426-1.282-6.683a60.67,60.67,0,0,1-.526-6.8c-.033-4.545.211-9.019.468-13.512.283-4.486.577-8.97.959-13.448a.108.108,0,0,1,.215.012Z" transform="translate(-30.205 -4.719)" fill="#5504b0"/>
        <line id="Line_88" data-name="Line 88" y1="18.529" x2="13.365" transform="translate(298.543 91.771)" fill="none" stroke="#020202" stroke-linecap="round" stroke-linejoin="round" stroke-width="2.903"/>
        <path id="Path_5167" data-name="Path 5167" d="M379.038,209.27a2.644,2.644,0,0,1-.863-2.243,2.142,2.142,0,0,1,1.812-1.467c.791-.072,1.122.431,2.243,1.035,2.257,1.222,3.429.554,4.055,1.553a2.427,2.427,0,0,1-.518,2.933c-.654.525-1.481.359-2.847.086A6.272,6.272,0,0,1,379.038,209.27Z" transform="translate(-45.006 -34.291)" fill="none"/>
        <path id="Path_5168" data-name="Path 5168" d="M360.622,114.111c-13.847.324-38.434,36.436-38.434,36.436l-.043.41-.733,6.578s-.4,2.959,1.136,10.712l-.007.058c.812-.3,1.618-.582,2.408-.848a33.248,33.248,0,0,1,10.87-1.553c4.206-.065,5.337.508,9.176,1.22,4.508.841,12.714,5.21,12.714,5.21a28.432,28.432,0,0,1,2.668-2.262,313.48,313.48,0,0,0,13.517-54.443C368.66,109.963,360.622,114.111,360.622,114.111Zm-16.111,39.2a4.08,4.08,0,0,1-1.344-.518,2.976,2.976,0,0,1-1.021-.985,11.581,11.581,0,0,0,2.5.8,9.185,9.185,0,0,0,1.273.158c.431.043.87.022,1.352.058A3.767,3.767,0,0,1,344.511,153.308ZM204,94.817a13.164,13.164,0,0,1,2.191,1.522,21.8,21.8,0,0,1,1.893,1.8,21.418,21.418,0,0,1,1.667,2.011,12.994,12.994,0,0,1,1.366,2.292,13,13,0,0,1-2.192-1.521,21.422,21.422,0,0,1-1.891-1.8,21.8,21.8,0,0,1-1.665-2.013A13.168,13.168,0,0,1,204,94.817ZM312.141,211.942a13.464,13.464,0,0,1,2.2,1.57,22.316,22.316,0,0,1,1.894,1.845,21.922,21.922,0,0,1,1.666,2.053,13.283,13.283,0,0,1,1.361,2.33,13.288,13.288,0,0,1-2.2-1.568,21.931,21.931,0,0,1-1.892-1.846,22.326,22.326,0,0,1-1.664-2.054A13.464,13.464,0,0,1,312.141,211.942ZM290.363,101.234a9.6,9.6,0,0,1,.512-2.209A15.508,15.508,0,0,1,291.749,97a15.229,15.229,0,0,1,1.148-1.879,9.482,9.482,0,0,1,1.514-1.689,9.487,9.487,0,0,1-.51,2.21,15.225,15.225,0,0,1-.876,2.02,15.5,15.5,0,0,1-1.15,1.878,9.6,9.6,0,0,1-1.512,1.69Zm41.383-5.911a1.2,1.2,0,1,0-1.158-1.2A1.2,1.2,0,0,0,331.746,95.323Zm6.532.416a1.2,1.2,0,1,0-1.158-1.2A1.2,1.2,0,0,0,338.277,95.738Z" transform="translate(-0.233 -5.332)" fill="#5504b0"/>
        <path id="Path_5169" data-name="Path 5169" d="M372.527,90.781a5.036,5.036,0,0,1,4.167.173m4.1.17a4.605,4.605,0,0,1,3.52.146" transform="translate(-43.566 -4.686)" fill="none" stroke="#020202" stroke-linecap="round" stroke-linejoin="round" stroke-width="1.075"/>
        <path id="Path_5170" data-name="Path 5170" d="M380.289,89.617a1.079,1.079,0,1,0-1.042-1.078A1.079,1.079,0,0,0,380.289,89.617Z" transform="translate(-45.294 -3.927)" fill="#5504b0"/>
        <line id="Line_89" data-name="Line 89" y1="2.316" x2="0.146" transform="translate(335.175 74.21)" fill="none" stroke="#b21919" stroke-linecap="round" stroke-linejoin="round" stroke-width="1.936"/>
        <path id="Path_5171" data-name="Path 5171" d="M395.994,205.463a3.969,3.969,0,0,0,2.389-3.311,4.952,4.952,0,0,0-1.777-3.737,7.789,7.789,0,0,0-1.785-1.172c-.642-.338-1.293-.665-1.95-.975q-1.97-.932-4.012-1.683a48.517,48.517,0,0,0-16.937-3.032,31.813,31.813,0,0,0-8.535,1.129,32.668,32.668,0,0,0-4.082,1.47,18.929,18.929,0,0,0-3.791,2.067,8.83,8.83,0,0,0-2.746,3.228,10.789,10.789,0,0,0-1,4.139,8.971,8.971,0,0,0,.773,4.147,8.8,8.8,0,0,0,2.676,3.215,34.348,34.348,0,0,0,7.557,4.137,52.39,52.39,0,0,0,8.23,2.667,47.173,47.173,0,0,0,8.536,1.236,61.385,61.385,0,0,0,8.64-.2,20.687,20.687,0,0,0,8.1-2.14,5.591,5.591,0,0,0,1.481-1.255,4.136,4.136,0,0,0,.831-1.668,1.483,1.483,0,0,0-.465-1.469,4.832,4.832,0,0,0-1.706-.971,20.989,20.989,0,0,0-4.186-.929c-.717-.1-1.44-.13-2.2-.312a1.981,1.981,0,0,1-1.063-.613,2.029,2.029,0,0,1-.452-1.121,2.426,2.426,0,0,1,.172-1.162,1.552,1.552,0,0,1,.8-.868,7.232,7.232,0,0,1,2.166-.527c.736-.078,1.468-.094,2.2-.112A10.1,10.1,0,0,0,395.994,205.463Zm.057.132a9.9,9.9,0,0,1-2.2.22,21.8,21.8,0,0,0-2.176.149,7.04,7.04,0,0,0-2.059.574,1.769,1.769,0,0,0-.3,2.584,1.486,1.486,0,0,0,.836.405c.668.12,1.417.11,2.151.17a22.278,22.278,0,0,1,4.417.69,5.793,5.793,0,0,1,2.142,1.062,2.706,2.706,0,0,1,.8,1.1,2.786,2.786,0,0,1,.126,1.369,5.308,5.308,0,0,1-.981,2.278,6.927,6.927,0,0,1-1.792,1.626,14.445,14.445,0,0,1-4.256,1.722,32.7,32.7,0,0,1-4.419.77,55.844,55.844,0,0,1-8.879.17,50.144,50.144,0,0,1-17.142-4.354,41.873,41.873,0,0,1-3.944-2.027,24.336,24.336,0,0,1-3.66-2.549,9.493,9.493,0,0,1-2.741-3.574,10.355,10.355,0,0,1-.71-4.418,11.253,11.253,0,0,1,1.111-4.31,9.714,9.714,0,0,1,2.863-3.4,20.9,20.9,0,0,1,3.83-2.235,33.4,33.4,0,0,1,4.09-1.7,31.963,31.963,0,0,1,8.741-1.56,39.17,39.17,0,0,1,17.3,3.392q2.026.894,3.964,1.955c.646.353,1.282.72,1.912,1.1a8.227,8.227,0,0,1,1.793,1.339,5.406,5.406,0,0,1,1.714,4.019,4.172,4.172,0,0,1-2.528,3.432Z" transform="translate(-38.093 -30.378)" fill="#5504b0"/>
        <path id="Path_5172" data-name="Path 5172" d="M352.474,180.413c-.654.525-1.481.359-2.847.086a6.272,6.272,0,0,1-3.882-1.9,2.644,2.644,0,0,1-.863-2.243,2.142,2.142,0,0,1,1.812-1.467c.791-.072,1.122.431,2.243,1.035,2.257,1.222,3.429.554,4.055,1.553A2.427,2.427,0,0,1,352.474,180.413Zm-21.522-3.535c2.776,0,2.78-4.314,0-4.314S328.171,176.877,330.952,176.877Zm1.941,6.6c2.776,0,2.78-4.314,0-4.314S330.113,183.477,332.893,183.477Zm7.506,4.012c2.776,0,2.78-4.314,0-4.314S337.618,187.489,340.4,187.489Zm8.8,2.329c2.776,0,2.78-4.314,0-4.314S346.418,189.818,349.2,189.818Zm9.059.388c2.776,0,2.78-4.314,0-4.314S355.477,190.207,358.257,190.207Zm-20.835-18.117c2.776,0,2.78-4.314,0-4.314S334.642,172.089,337.422,172.089Zm9.317-1.035c2.776,0,2.78-4.314,0-4.314S343.959,171.054,346.74,171.054Zm9.447,1.423c2.776,0,2.78-4.314,0-4.314S353.406,172.477,356.186,172.477Zm10.223,4.788c2.776,0,2.78-4.314,0-4.314S363.629,177.266,366.41,177.266ZM296.693,374.016c-3.645-23.84-6.938-47.72-10.252-71.6l-4.81-35.836c-1.607-11.945-3.1-23.9-4.656-35.854L274.664,212.8l-2.231-17.938-4.442-35.879-8.544-71.8,7.876-.253-3.9,71.81-2.12,35.9-1.07,17.948-1.151,17.944c-.782,11.962-1.5,23.926-2.335,35.885l-2.49,35.877c-1.769,23.913-3.516,47.826-5.618,71.722.354-23.985,1.062-47.952,1.749-71.921l1.193-35.944c.4-11.981.9-23.957,1.348-35.936l.69-17.967.772-17.963,1.563-35.925,3.469-71.832,7.876-.253,8.115,71.846,3.888,35.943,1.933,17.973,1.853,17.982c1.221,11.99,2.5,23.972,3.674,35.968l3.52,35.985C292.525,325.975,294.785,349.975,296.693,374.016Z" transform="translate(-11.712 -3.622)" fill="#5504b0"/>
        <rect id="Rectangle_1672" data-name="Rectangle 1672" width="14.494" height="9.426" rx="3.871" transform="translate(244.438 79.325)" fill="#5504b0"/>
        <path id="Path_5173" data-name="Path 5173" d="M358.116,347.045c6.581,1.245,13.193,2.347,19.821,3.237,3.31.465,6.632.85,9.947,1.09.829.06,1.657.12,2.482.13.826.031,1.651.053,2.46.007.4-.023.822,0,1.208-.061l1.157-.16a17.235,17.235,0,0,1,2.63-.3,47.3,47.3,0,0,1,5.123.129c1.689.114,3.366.264,5.04.426q5.016.526,9.972,1.214c3.306.452,6.61.869,9.914,1.133a48.7,48.7,0,0,0,4.954.165,14.391,14.391,0,0,0,4.844-.8l.006,0a.108.108,0,0,1,.1.193,13.35,13.35,0,0,1-4.857,1.588,37.3,37.3,0,0,1-5.089.372,95.8,95.8,0,0,1-10.114-.506c-3.35-.309-6.67-.791-9.979-1.236a74.754,74.754,0,0,0-9.866-.951,15.406,15.406,0,0,0-2.366.188l-1.338.143c-.446.047-.867.014-1.3.025-.867.02-1.716-.031-2.562-.089-.851-.039-1.691-.126-2.531-.215-3.359-.352-6.684-.847-9.992-1.421-6.612-1.179-13.173-2.564-19.7-4.092a.108.108,0,1,1,.046-.211Zm3.665,8.681c2.776,0,2.78-4.314,0-4.314S359,355.726,361.781,355.726Zm7.247,1.553c2.776,0,2.78-4.314,0-4.314S366.247,357.279,369.028,357.279Zm8.11,1.553c2.776,0,2.78-4.314,0-4.314S374.357,358.831,377.137,358.831Zm8.8.69c2.776,0,2.78-4.314,0-4.314S383.157,359.522,385.937,359.522Zm9.663-.345c2.776,0,2.78-4.314,0-4.314S392.819,359.177,395.6,359.177Zm9.663,1.38c2.776,0,2.78-4.314,0-4.314S402.482,360.557,405.262,360.557Zm9.835,1.38c2.776,0,2.78-4.314,0-4.314S412.317,361.937,415.1,361.937Zm9.145-.345c2.776,0,2.78-4.314,0-4.314S421.462,361.592,424.242,361.592Zm9.317-1.035c2.776,0,2.78-4.314,0-4.314S430.779,360.557,433.559,360.557ZM412.566,172.008a1.079,1.079,0,1,0-1.042-1.078A1.079,1.079,0,0,0,412.566,172.008Zm4.486-.086a1.079,1.079,0,1,0-1.042-1.078,1.079,1.079,0,0,0,1.042,1.078Zm4.918,0a1.079,1.079,0,1,0-1.042-1.078,1.079,1.079,0,0,0,1.042,1.078Zm4.429,0a1.079,1.079,0,1,0-1.042-1.078,1.079,1.079,0,0,0,1.042,1.078Z" transform="translate(-39.827 -25.089)" fill="#5504b0"/>
        <line id="Line_90" data-name="Line 90" x1="110.503" transform="translate(216.069 216.708)" fill="none" stroke="#5504b0" stroke-linecap="round" stroke-linejoin="round" stroke-width="7.742"/>
        <path id="Path_5174" data-name="Path 5174" d="M257.782,262.729l.987-.651a9.222,9.222,0,0,1-1.258.015,14.529,14.529,0,0,1-3.5-.727,26.488,26.488,0,0,1-4.156-1.939l.283,1.439a12.646,12.646,0,0,0,3.4,1.859,9.729,9.729,0,0,0,3.78.5Z" transform="translate(-12.025 -48.143)" fill="#5504b0"/>
      </g>
    </g>
  </g>
</svg>
