<svg xmlns="http://www.w3.org/2000/svg" width="312.645" height="232.945" xmlns:v="https://vecta.io/nano"><path d="M0 51.839l.483 5.508 15.39 175.6h296.772V3.87" fill="#fbd206"/><g fill="#5504b0"><path d="M143.056 27.761a13.66 13.66 0 0 0-3.024-1.461c-1.064-.378-2.165-.642-3.284-.789-.566-.066-1.136-.102-1.706-.107-.577.01-1.152.072-1.718.188a5 5 0 0 0-2.974 1.634 7.4 7.4 0 0 1 3.09-.772 16.48 16.48 0 0 1 3.17.162c2.129.257 4.24.752 6.446 1.145zm-3.611 4.695a1.62 1.62 0 0 1 0-3.237 1.62 1.62 0 0 1 0 3.237zm2.271-23.688c.755 3.36 1.586 6.7 2.458 10.025l1.35 4.977.347 1.241c.085.297.081.613-.011.908a2.15 2.15 0 0 1-.486.839l-.233.268a2.74 2.74 0 0 0-.538 1.168c-.162.846.057 1.721.6 2.391.187.227.3.335.448.51.566.635 1.115 1.283 1.664 1.931a39.23 39.23 0 0 1 3.026 4.049 14.46 14.46 0 0 1 1.178 2.157 3.63 3.63 0 0 1 .362 2.1 1.17 1.17 0 0 1-.175.377l-.386.461c-.134.145-.275.279-.412.419a3.9 3.9 0 0 1-.44.335 1.25 1.25 0 0 1-.859.258c-.285-.057-.532-.235-.676-.488l-.032-.056c-.504-.644-1.241-1.065-2.052-1.17a3.46 3.46 0 0 0-1.155.075l-.522.153-.215.059a1.94 1.94 0 0 1-.206.011c-.555.007-.877-.711-.97-1.363a8.07 8.07 0 0 1-.059-2.07 7.14 7.14 0 0 0-.215 2.1 2.92 2.92 0 0 0 .243 1.077c.166.395.523.677.946.746a1.65 1.65 0 0 0 .614-.03l.5-.092a2.8 2.8 0 0 1 .928.036 2.36 2.36 0 0 1 1.441.95l-.032-.056a2.08 2.08 0 0 0 .5.665 1.69 1.69 0 0 0 .769.4 2.19 2.19 0 0 0 1.587-.31 5.41 5.41 0 0 0 1.126-.882l.469-.5a2.33 2.33 0 0 0 .418-.757 3.27 3.27 0 0 0 .078-1.557c-.081-.466-.209-.923-.382-1.363-.333-.833-.738-1.636-1.208-2.4a38.45 38.45 0 0 0-3.088-4.252c-.549-.675-1.124-1.325-1.707-1.967-.132-.149-.323-.347-.408-.453a1.46 1.46 0 0 1-.229-.375 1.49 1.49 0 0 1-.1-.859c.039-.209.126-.405.255-.574l.188-.22a3.43 3.43 0 0 0 .741-1.4 2.9 2.9 0 0 0-.042-1.632l-.387-1.229-1.589-4.9c-1.086-3.257-2.214-6.505-3.422-9.731z"/><path d="M141.719 8.767s-5.885-11.5-40.393-8.159c0 0-9.363.134-8.828 16.318 0 0-7.089-7.758-10.433 2.408s7.891 19.528 10.3 15.114c0 0-1.07 17.12 10.031 5.083 0 0-4.845-11.345 2.682-14.262a3.2 3.2 0 0 1 4.147 1.728 11.77 11.77 0 0 1 .661 4.351c0 6.845-.535 18.883 7.758 29.717 0 0 7.57 9.488 17.275 9.963 2.914.155 5.731-1.073 7.6-3.314 2.992-3.61 6.96-11.089 6.021-24.839 0 0-8.694 1.873-9.1 2.274s-4.28 9.764-7.356 8.828-14.178-6.821-14.178-11.1-.067-19.127 2.408-21.869c0 0 5.35.468 5.751-2.675.321-2.515-1.327-5.8 1.973-8.28a7.29 7.29 0 0 1 5.588-1.29c2.489.418 6.519.9 8.087.006z"/><path d="M106.681 41.269a5.25 5.25 0 0 1-2.493-.074c-.367-.131-.697-.349-.962-.635-.149-.151-.289-.311-.418-.479l-.407-.551a3.77 3.77 0 0 0 .088.7 2.67 2.67 0 0 0 .291.667 2.21 2.21 0 0 0 1.159.967 2.58 2.58 0 0 0 1.49.065 2.7 2.7 0 0 0 1.251-.666zm45.515.863c1.189-.81 2.497-1.43 3.877-1.837 1.372-.415 2.784-.683 4.212-.8 1.421-.111 2.849-.106 4.269.016.709.037 1.411.175 2.115.247l2.1.367-.462-.389a20.73 20.73 0 0 1 .666 3.612c.149 1.239.192 2.492.232 3.747a48.9 48.9 0 0 1-.472 7.553l-.279 1.883-.385 1.866c-.227 1.253-.631 2.462-.953 3.692l-1.217 3.616q-.709 1.772-1.455 3.527l.166-.168c-1.252.455-2.536.82-3.84 1.092s-2.621.469-3.948.585a26.54 26.54 0 0 1-3.964.1c-1.313-.059-2.619-.219-3.907-.477l.387.229c-1.201-1.583-2.262-3.267-3.171-5.034-.94-1.765-1.76-3.59-2.457-5.464a42.9 42.9 0 0 1-1.754-5.729 55.17 55.17 0 0 1-1.064-5.916l-.261.476 5.754-3.469 5.807-3.325zm-.079-.12l-5.955 3.087-6.016 2.951-.275.135.014.341c.059 2.065.293 4.121.7 6.147.817 4.064 2.253 7.979 4.258 11.608.995 1.831 2.15 3.571 3.45 5.2l.156.193.231.037a23.94 23.94 0 0 0 4.141.392 27.71 27.71 0 0 0 4.124-.271 32 32 0 0 0 4.024-.842 30.71 30.71 0 0 0 3.884-1.34l.125-.054.042-.114 1.322-3.607 1.191-3.65.538-1.844.273-.921.237-.931.483-1.863.407-1.883a44.65 44.65 0 0 0 .948-7.675c-.007-.648.015-1.3-.016-1.947s-.066-1.3-.15-1.947c-.124-1.321-.392-2.625-.8-3.888l-.115-.348-.347-.041-2.19-.263c-.736-.03-1.467-.1-2.2-.078a27.7 27.7 0 0 0-4.377.35 25.65 25.65 0 0 0-4.222 1.117 16.28 16.28 0 0 0-3.877 1.954z"/><path d="M164.653 40.62c-.062.021-.088.006-.126.034l-.152.095-.3.19-.6.377-1.211.737-2.442 1.406-5.011 2.478c-1.688.812-3.471 1.406-5.308 1.77a13.51 13.51 0 0 1-5.546-.4l.129.719 4.976-2.632 5.061-2.4a41.57 41.57 0 0 1 5.175-1.988 15.1 15.1 0 0 1 2.683-.557c.453-.049.91-.061 1.365-.036a5.44 5.44 0 0 1 .68.089l.627.118zm.143-.019c-.213-.156-.441-.29-.68-.4a5.88 5.88 0 0 0-.7-.242c-.475-.133-.963-.214-1.456-.242-.979-.054-1.961.009-2.925.189a26.46 26.46 0 0 0-5.532 1.684 45.21 45.21 0 0 0-5.1 2.614 43.59 43.59 0 0 0-4.766 3.158l-.783.594.912.126a25.44 25.44 0 0 0 5.785.09 28.92 28.92 0 0 0 5.687-1.118 23.19 23.19 0 0 0 5.156-2.637l1.179-.836 1.129-.9 1.074-.963.509-.512c.086-.084.164-.177.245-.266l.121-.134c.057-.059.105-.127.142-.2zm4.977 5.68l2.592 2.052c.833.661 1.599 1.402 2.289 2.211a2.42 2.42 0 0 1 .566 1.12.54.54 0 0 1-.028.2l-.113.349c-.083.236-.178.467-.284.693a12.45 12.45 0 0 1-1.707 2.586l-.293.342.219.283 1.489 2.1a8.06 8.06 0 0 1 .3.553 2 2 0 0 1 .1.263c.011.027.017.056.02.085.017 0-.01.073-.019.111-.136.4-.302.789-.494 1.165a7.66 7.66 0 0 1-1.5 2.037c-.553.567-1.289.922-2.077 1l-.193.008-.136.2c-1.026 1.46-1.782 3.093-2.23 4.82-.108.451-.184.909-.227 1.37-.05.645-.006.5-.192.724-.251.21-.535.375-.841.49-.361.151-.732.275-1.111.37-1.619.402-3.263.694-4.921.873l-5.08.544.238.149-.978-1.523-.129.064.626 1.7.049.13.189.019c1.722.167 3.453.225 5.182.174 1.76-.027 3.511-.242 5.225-.642.45-.117.891-.268 1.319-.451a3.71 3.71 0 0 0 1.314-.875c.106-.123.202-.253.29-.39a2.3 2.3 0 0 0 .191-.505 4.44 4.44 0 0 0 .05-.761c.017-.393.061-.784.133-1.17.363-1.61.918-3.17 1.654-4.647l-.328.207a4.18 4.18 0 0 0 2.389-1.487 11.04 11.04 0 0 0 1.478-2.228c.213-.394.398-.802.556-1.221a.72.72 0 0 0 .05-.2c.01-.079.005-.16-.014-.237-.024-.121-.057-.241-.1-.357l-.262-.627c-.359-.819-.772-1.59-1.2-2.37l-.073.624a8.74 8.74 0 0 0 2.2-2.735c.135-.271.253-.551.352-.837l.126-.444c.052-.202.069-.411.051-.619-.111-.678-.433-1.303-.92-1.787a12.47 12.47 0 0 0-2.708-2.127 19.33 19.33 0 0 0-3.007-1.5z"/><path d="M169.402 53.121c.45.237.944.3 1.235.481a2.13 2.13 0 0 1 .408.306l.431.43.9.915a8.17 8.17 0 0 0 1.046.927c-.02-.486-.14-.963-.353-1.4-.201-.442-.478-.846-.818-1.193a3.82 3.82 0 0 0-.577-.482c-.239-.162-.513-.264-.8-.3-.265-.038-.534-.017-.79.061-.234.065-.462.15-.682.255zm1.474 10.752a4.39 4.39 0 0 0 0-1.338 5.3 5.3 0 0 0-.114-.632 2.13 2.13 0 0 0-.287-.712 1.89 1.89 0 0 0-1.328-.855 1.68 1.68 0 0 0-.748.062 3.76 3.76 0 0 0-.635.265c.421.236.885.307 1.143.48.266.159.493.377.664.636.146.2.285.658.51 1.021a4.39 4.39 0 0 0 .8 1.073zm38.46 123.747c.411 1.483.678 3.002.795 4.536a5.3 5.3 0 0 1-.25 2.175 1.11 1.11 0 0 1-1.556.6 7.1 7.1 0 0 1-1.935-1.029c-.617-.444-1.211-.919-1.779-1.423-1.143-1.016-2.22-2.115-3.281-3.228l-.136-.143-.185-.007c-1.3-.029-2.596.148-3.841.524a19.5 19.5 0 0 0-3.544 1.4l-3.275 1.663c-1.078.485-2.22.816-3.391.981-1.17.151-2.355.142-3.522-.026a17.58 17.58 0 0 1-3.484-.818 36.4 36.4 0 0 1-6.577-3.111l-.138-.079h-.131c-2.043-.027-4.086.048-6.121.226a33.4 33.4 0 0 0-6.049 1.027 14.86 14.86 0 0 0-1.469.5l-1.4.64-2.774 1.2q-2.8 1.155-5.631 2.247c-3.785 1.421-7.593 2.784-11.432 4.052s-7.7 2.467-11.58 3.6c-7.756 2.276-15.549 4.413-23.408 6.26-7.866 1.805-15.767 3.471-23.754 4.566h-.031l-.059.014a27.85 27.85 0 0 1-9.377.585c-3.137-.306-6.139-1.428-8.708-3.255a14.66 14.66 0 0 1-3.3-3.335 8.25 8.25 0 0 1-.665-.979c-.2-.341-.421-.671-.607-1.021a20.68 20.68 0 0 1-.988-2.169c-1.154-3.006-1.821-6.178-1.976-9.394l-.144.005a30.48 30.48 0 0 0 1.5 9.62c.269.778.583 1.539.94 2.281.179.371.4.724.592 1.088a8.85 8.85 0 0 0 .658 1.052c.919 1.393 2.055 2.629 3.366 3.662a18.82 18.82 0 0 0 9.169 3.7 27.83 27.83 0 0 0 4.961.224c1.667-.063 3.323-.285 4.948-.663l-.09.018a216.6 216.6 0 0 0 23.9-4.613q11.809-2.92 23.356-6.746l5.754-1.948 5.728-2.019 11.405-4.172 5.674-2.17 2.815-1.162c.48-.2.925-.412 1.383-.575.465-.166.939-.308 1.419-.425 1.95-.442 3.936-.705 5.934-.785a61.14 61.14 0 0 1 6.009-.011l-.269-.081c2.122 1.357 4.389 2.473 6.759 3.327 2.417.917 5.024 1.224 7.588.894 1.28-.198 2.526-.576 3.7-1.122 1.168-.52 2.247-1.177 3.315-1.739 1.061-.564 2.174-1.023 3.324-1.37 1.122-.354 2.289-.55 3.465-.583l-.321-.15c1.113 1.092 2.244 2.169 3.451 3.172.609.504 1.243.975 1.9 1.414a7.6 7.6 0 0 0 2.191 1.056 2.13 2.13 0 0 0 1.335-.039 1.61 1.61 0 0 0 .9-1.011 5.72 5.72 0 0 0 .165-2.413 21.05 21.05 0 0 0-1.086-4.545zm-113.46-10.383l40.534-5.418-.086-.551c-10.229 1.586-40.217 5.378-40.519 5.417z"/><path d="M53.71 198.629a9.38 9.38 0 0 1-1.62-.631 3.43 3.43 0 0 1-1.289-.969.9.9 0 0 1 .152-1.178 4.88 4.88 0 0 1 1.249-.978 19.74 19.74 0 0 1 3.065-1.447l3.246-1.163 6.653-2.039 6.7-2 6.682-2.119 6.618-2.38c2.204-.84 4.356-1.813 6.443-2.913a18.96 18.96 0 0 0 2.986-1.966 5.61 5.61 0 0 0 1.214-1.355 1.96 1.96 0 0 0 .279-.88 1.4 1.4 0 0 0-.245-.853 1.42 1.42 0 0 1-.3 1.55c-.374.419-.813.775-1.3 1.056a20.4 20.4 0 0 1-3.087 1.492c-2.133.868-4.342 1.574-6.55 2.282l-6.671 2.019-6.7 2c-4.454 1.39-8.928 2.756-13.3 4.527a29.02 29.02 0 0 0-6.333 3.318c-.515.377-.964.838-1.327 1.363-.204.302-.323.654-.343 1.018a1.43 1.43 0 0 0 .408 1.017 3.8 3.8 0 0 0 1.631.895 9.54 9.54 0 0 0 1.74.33zm.919 2.616c-1.024.03-2.049-.025-3.064-.164a11.6 11.6 0 0 1-2.92-.741c-.898-.337-1.68-.925-2.254-1.693-.25-.377-.432-.795-.539-1.235a4.89 4.89 0 0 1-.078-1.376l.2-1.517a8.93 8.93 0 0 0 .068-1.645 13 13 0 0 0-.177-1.635l-.4-1.583a27.7 27.7 0 0 0-2.747-5.74c-1.024-1.769-2.2-3.565-2.48-5.258l-.028-.3-.028-.354-.057-.841-.168-1.569-.389-3.089-1.745-12.284-1.849-12.263c-.585-4.092-1.141-8.19-1.563-12.3a184.52 184.52 0 0 1-1.012-24.736 68.71 68.71 0 0 1 1.362-12.166c.464-1.914 1.187-3.878 1.849-5.819l1.044-2.9 1.129-2.856c.359-.96.808-1.877 1.221-2.811s.827-1.867 1.316-2.761l1.412-2.71 1.568-2.618c.5-.89 1.1-1.706 1.673-2.547.587-.828 1.114-1.7 1.75-2.494 1.279-1.578 2.474-3.225 3.9-4.681a80.26 80.26 0 0 1 19.019-15.272 153.81 153.81 0 0 1 22.314-10.573l-.068-.2a121.41 121.41 0 0 0-23.081 9.311 87.24 87.24 0 0 0-10.556 6.754c-1.692 1.242-3.311 2.58-4.851 4.006l-2.321 2.133-2.161 2.3a66.41 66.41 0 0 0-13.024 21.408l-1.1 2.935-.992 2.965c-.61 1.993-1.267 3.938-1.717 6.06-.704 4.132-.996 8.324-.871 12.514.022 4.158.282 8.3.539 12.432q.416 6.2.958 12.386l1.066 12.377q.574 6.186 1.261 12.361l1.632 12.3.425 3.062.182 1.513c.032.259.048.489.059.705l.036.419.05.469a10.31 10.31 0 0 0 1.229 3.166c.527.934 1.087 1.816 1.634 2.689 1.117 1.673 2.056 3.46 2.8 5.329.17.462.286.936.42 1.407a12.93 12.93 0 0 1 .219 1.438 7.69 7.69 0 0 1 .019 1.451l-.049.73c-.022.28-.067.555-.066.839a5.96 5.96 0 0 0 .2 1.7 4.59 4.59 0 0 0 .8 1.543c.731.853 1.692 1.478 2.768 1.8a14.6 14.6 0 0 0 6.263.432zm11.52-115.57c7.429 1.866 13.443 7.303 16.046 14.507.156.439.354.854.475 1.311l.39 1.357.4 1.354.342 1.384.673 2.77.609 2.795 2.276 11.234 1.086 5.635 1.05 5.644 2.116 11.292 4.413 22.574c-.689-7.647-1.655-15.258-2.752-22.85-.532-3.8-1.16-7.583-1.765-11.372l-2.031-11.333-2.407-11.276-.689-2.805c-.232-.935-.507-1.865-.758-2.8l-.385-1.4-.456-1.391-.466-1.387c-.145-.464-.378-.912-.563-1.367l-.589-1.359-.716-1.3c-.473-.868-1.01-1.699-1.606-2.488-1.177-1.582-2.557-3.001-4.105-4.222a21.39 21.39 0 0 0-10.586-4.513zm-12.439 0c-1.498-.162-3.014-.026-4.459.4a15.76 15.76 0 0 0-4.121 1.788 15.27 15.27 0 0 0-3.473 2.858 12.22 12.22 0 0 0-2.393 3.781c1.267-.838 2.353-1.731 3.521-2.514 1.132-.819 2.293-1.561 3.467-2.282s2.377-1.4 3.615-2.056l3.843-1.975zm95.1-14.636c-.31 2.414-.545 4.832-.814 7.249l-.708 7.256-1.186 14.528 1.26-.379-5.506-7.336-5.438-7.383c-1.78-2.483-3.584-4.956-5.153-7.541a42.51 42.51 0 0 1-1.935-4.117c-.589-1.41-1.17-2.826-1.676-4.272a45.31 45.31 0 0 0 1.285 4.421l.758 2.176a18.13 18.13 0 0 0 .9 2.156 88.15 88.15 0 0 0 4.84 7.866c1.731 2.535 3.482 5.054 5.3 7.524l5.513 7.364 1.136 1.467.124-1.847.821-14.553q.173-3.641.295-7.285l.182-7.294z"/><path d="M177.501 118.979a51.2 51.2 0 0 1-9.4-1.682 40.26 40.26 0 0 1-4.437-1.532c-1.443-.577-2.84-1.263-4.178-2.053a34.05 34.05 0 0 1-3.831-2.616 33.7 33.7 0 0 1-3.4-3.185c-2.107-2.382-3.937-4.995-5.454-7.79.768 3.206 2.182 6.222 4.154 8.864 1.008 1.329 2.14 2.559 3.38 3.674 1.263 1.096 2.624 2.073 4.066 2.919 2.892 1.649 6.047 2.784 9.326 3.356a27.01 27.01 0 0 0 9.774.045zm-49.846-49.937q1.42 8.445 3.045 16.842l3.31 16.78 3.418 16.752 1.671 8.381.778 4.2a53.4 53.4 0 0 1 .32 2.11c.108.704.171 1.413.188 2.125.082-1.429.039-2.863-.13-4.284l-.46-4.263q-.555-4.25-1.263-8.473c-.92-5.635-2-11.239-3.113-16.834l-3.625-16.726q-1.912-8.34-4.142-16.61zm-10.054-8.035a25.9 25.9 0 0 0-3.768 2.98 25.08 25.08 0 0 0-3.192 3.639c-.97 1.328-1.744 2.787-2.3 4.334-.521 1.588-.686 3.271-.481 4.929l.392-.462a16.68 16.68 0 0 1-4.439-.089 8.88 8.88 0 0 1-2.128-.6 4.8 4.8 0 0 1-1.762-1.206c-.408-.605-.757-1.248-1.044-1.919a33.71 33.71 0 0 1-.847-2.078l-1.538-4.231c-1.021-2.825-1.914-5.7-2.812-8.556a120.28 120.28 0 0 1-1.288-4.3c-.212-.718-.377-1.437-.548-2.155a11.22 11.22 0 0 1-.295-2.079l-.133.3c.728-.908 1.433-1.821 2.116-2.759.34-.47.661-.954.97-1.449.338-.487.597-1.024.769-1.591l-.141-.03c-.268.494-.596.953-.977 1.367-.367.436-.763.851-1.149 1.274a74.14 74.14 0 0 1-2.375 2.478l-.119.119-.014.178a11.05 11.05 0 0 0 .124 2.417c.117.763.26 1.521.43 2.264.316 1.5.739 2.958 1.156 4.419.88 2.908 1.958 5.745 3.084 8.561.6 1.395 1.181 2.8 1.877 4.153.333.683.695 1.356 1.063 2.026.369.688.802 1.34 1.294 1.947 1.187 1.026 2.646 1.686 4.2 1.9a23.22 23.22 0 0 0 2.27.338c.766.088 1.536.134 2.307.139h.4l-.011-.463a12.06 12.06 0 0 1 .839-4.422 20.5 20.5 0 0 1 2.1-4.072c.852-1.306 1.793-2.551 2.817-3.727a50.8 50.8 0 0 1 3.226-3.463z"/><path d="M122.321 65.644c-.828 1.64-1.51 3.326-2.174 5.017l-1.8 5.137-1.494 5.243a34.01 34.01 0 0 1-2.17 4.976c-.408.784-.866 1.54-1.37 2.266-.113.159-.237.308-.373.448-.1.129-.3.194-.128.132.062-.003.124.011.178.042-.023-.039-.044-.079-.063-.12-.074-.158-.123-.327-.147-.5a5.67 5.67 0 0 1 .32-2.344l.7-2.667c.205-.96.262-1.946.169-2.924-.109-1.019-.506-1.987-1.143-2.79-.14-.202-.3-.389-.477-.559a7.07 7.07 0 0 0-.517-.5 4.73 4.73 0 0 0-1.224-.836 1.77 1.77 0 0 0-1.57-.047c-.434.268-.734.706-.827 1.207l.137.044a1.66 1.66 0 0 1 .877-.826c.367-.064.744.034 1.033.269.659.524 1.214 1.166 1.637 1.893a6.06 6.06 0 0 1 .4 4.753l-.649 2.612a6.77 6.77 0 0 0-.184 3.027 2.98 2.98 0 0 0 .291.784 1.78 1.78 0 0 0 .318.441c.205.208.487.321.779.313a1.25 1.25 0 0 0 .4-.1l.261-.159c.121-.098.232-.207.332-.326a3.85 3.85 0 0 0 .44-.642c.444-.826.819-1.687 1.122-2.574l1.888-5.135 2.188-5.012a53.61 53.61 0 0 0 1.723-5.176 50.78 50.78 0 0 0 1.253-5.327zM92.957 46.917a9.43 9.43 0 0 0-4.056-1.817 2.9 2.9 0 0 0-1.2.107c-.412.133-.769.397-1.017.751a4.04 4.04 0 0 0-.572 2.3 16.71 16.71 0 0 0 .753 4.426c.384 1.434.866 2.831 1.38 4.214 2.144 5.476 4.653 10.802 7.511 15.942a299.87 299.87 0 0 0 4.4 7.621l4.542 7.527c.744 1.266 1.544 2.486 2.174 3.8.645 1.304 1.218 2.643 1.715 4.011a57.77 57.77 0 0 1 2.253 8.438c.578 2.86 1.013 5.751 1.493 8.636l1.271 8.69 2.616 17.367 6.1 34.6.142-.022c-1.352-11.64-2.992-23.241-4.725-34.827l-2.8-17.346-1.48-8.659c-.54-2.88-1.153-5.752-1.848-8.608a72 72 0 0 0-2.548-8.444 39.94 39.94 0 0 0-1.794-4.035c-.664-1.317-1.434-2.574-2.169-3.834-2.935-5.063-5.632-10.263-8.282-15.471s-5.312-10.41-7.531-15.787c-.529-1.351-1.075-2.7-1.508-4.077-.488-1.342-.794-2.744-.909-4.168a3.61 3.61 0 0 1 .35-1.927c.369-.532 1.004-.813 1.645-.728a6.65 6.65 0 0 1 2.057.5c.675.266 1.329.583 1.955.95zm-19.8 118.876c-2.44-.928-4.824-1.996-7.14-3.2a51.82 51.82 0 0 1-6.518-4.052c-.527-.358-1.036-.743-1.524-1.153l-1.487-1.2c-.922-.877-1.917-1.69-2.784-2.636a66.16 66.16 0 0 1-5.073-5.945c.862 2.546 2.146 4.929 3.8 7.048a27.26 27.26 0 0 0 2.677 3.045c.985.929 2.028 1.794 3.123 2.591 2.179 1.599 4.568 2.891 7.1 3.838a24.22 24.22 0 0 0 7.823 1.664zm1.956 11.168a37.25 37.25 0 0 1-7.106-2.1 42.83 42.83 0 0 1-6.468-3.3c-.514-.319-1-.677-1.508-1.012-.251-.169-.509-.329-.756-.506l-.72-.558-1.454-1.106c-.456-.4-.924-.8-1.4-1.189l-.708-.591c-.219-.215-.435-.433-.663-.64l-1.36-1.266c-.9-.858-1.728-1.789-2.688-2.644a35.15 35.15 0 0 0 1.873 3.322l1.132 1.544c.187.261.387.511.583.765l.647.709 1.314 1.411c.447.463.96.856 1.443 1.285l.736.629c.254.2.521.381.782.572.531.367 1.05.755 1.6 1.1 2.195 1.377 4.587 2.413 7.094 3.071 2.477.707 5.076.879 7.624.503zm-35.543 2.834c.108 4.4.428 8.764.821 13.124.177 2.182.431 4.355.648 6.532l.768 6.516.883 6.5 1 6.486c.708 4.319 1.492 8.629 2.489 12.912-.105-4.4-.424-8.765-.818-13.124-.176-2.182-.432-4.354-.648-6.532l-.771-6.516-.886-6.5-1.005-6.486c-.706-4.319-1.489-8.628-2.483-12.911zm187.662-21.827l4.41.892-.043 4.194q-2.255-.766-4.561-1.345l.192-3.74zm-.23 4.352a57.46 57.46 0 0 0 4.6.82l-.065 6.273q-2.428-1.025-4.921-1.842l.385-5.25zm-.878 10.59q.248-2.352.439-4.712 2.46.745 4.971 1.309l-.05 4.683-.022 4.036c-1.186-.576-2.428-1.032-3.705-1.36-.676-.151-1.374-.259-2.043-.432l.408-3.523zm-.856 7.489l.417-3.727c.64.223 1.266.518 1.9.763 1.257.446 2.556.759 3.878.935l-.05 7.784a28.5 28.5 0 0 0-4.432-1.748c-.676-.187-1.352-.345-2.029-.525l.316-3.482zm-.612 7.5l.266-3.719c.626.252 1.237.532 1.863.791 1.501.575 3.049 1.02 4.626 1.331l-.022 3.122-.014 4.029c-1.264-.532-2.574-.946-3.914-1.237-.727-.137-1.468-.216-2.187-.374-.295-.065-.59-.151-.885-.237l.266-3.7zm-1.129 14.23l.842-10.28a16.73 16.73 0 0 1 .849.216c.705.209 1.4.5 2.094.734 1.326.401 2.687.673 4.065.813l-.007 10.827c-2.59-.856-5.209-1.619-7.842-2.309zm-.065.784c0-.05.007-.1.007-.151a127.48 127.48 0 0 0 7.9 1.791v.072l.043 9.453c-2.914-1.029-5.863-1.95-8.827-2.8q.475-4.176.878-8.367zm-.957 8.993c2.95.842 5.914 1.611 8.906 2.273l.043 5.388-9.683-1.82.734-5.842zm-.77-55.049l5.417 1.094-.482 3.655-2.129-.5-3.273-.6.468-3.647zm-.511 3.914c1.065.288 2.115.626 3.18.921.727.194 1.46.367 2.194.532l-.561 5.151-1.8-.554-3.763-1.014q.4-2.514.748-5.036zm-1.727 10.8l.935-5.525c1.223.417 2.417.906 3.626 1.345l1.914.626-.439 4.842-.223 3.453q-.8-.248-1.576-.561c-1.29-.533-2.605-1-3.942-1.4l-.8-.216.5-2.568zm-1.424 7.367c.237-1.367.511-2.727.784-4.093.237.086.475.165.712.245a40.73 40.73 0 0 0 4.05 1.036c.568.115 1.122.259 1.676.424l-.273 3.827-.317 3.432-.18-.043a25.36 25.36 0 0 1-2.367-.892c-1.468-.64-2.957-1.194-4.46-1.712l.374-2.223zm-1.18 7.417q.324-2.223.676-4.439c1.475.489 2.957.942 4.46 1.324.82.216 1.633.446 2.424.741.072.029.151.065.23.1l-.424 3.784-.4 3.583-.712-.237c-1.388-.511-2.806-.914-4.23-1.288a42.72 42.72 0 0 0-2.489-.511l.46-3.057zm-.194-30.517l1.065.216 3.892.791q-.4 1.791-.763 3.59c-1.2-.266-2.388-.59-3.576-.935l-1.266-.353.647-3.309zm-.748 3.8l1.273.252c1.216.223 2.424.468 3.619.777h.007l-.942 4.964q-1.619-.518-3.216-1.108c-.547-.209-1.1-.4-1.655-.6l.914-4.288zm.4 30.287c.784.273 1.576.518 2.374.741 1.432.367 2.863.7 4.331.928.259.043.518.094.777.144q-.572 5.1-1.029 10.208l-1.561-.4-5.295-1.194-1.209-.317q.863-5.05 1.612-10.115zm-3.813-10.079a44.22 44.22 0 0 0 4.64 1.942 1.22 1.22 0 0 0 .151.05l-.827 4.453-.583 3.043a26.11 26.11 0 0 0-1.353-.18c1.079-1.46-.669-6.187-2.029-9.309zm.993-9.489q.723-2.957 1.388-5.921l1.647.46c1.108.295 2.209.619 3.295.971l-.95 5.6-.367 2.561c-.941-.236-1.895-.421-2.856-.554l-.014.036-2.295-2.6c.058-.187.1-.374.151-.561zm1.014 30.827c.058-.3.1-.6.151-.906l1.194.3c1.741.482 3.468 1.043 5.2 1.547.547.158 1.1.3 1.655.446a3.82 3.82 0 0 0-.029.281q-.367 4.144-.647 8.288l-1.511-.417-5.64-1.424-1.755-.511q.734-3.8 1.381-7.6zm-1.432 7.849l1.741.489c1.856.561 3.691 1.194 5.539 1.777l1.633.475q-.194 2.978-.338 5.964l-1.987-.378q-3.993-.755-7.971-1.547.723-3.388 1.381-6.784zm-1.626-31.906c.079.05.158.094.237.137 3.3 1.784 5.338.655 6.093-.3.36-.446-.633-1.719-2.093-3.388.888.427 1.799.806 2.727 1.137l-.626 4.194-.367 2.173c-.014-.007-.022-.007-.029-.014-1.608-.524-3.244-.958-4.9-1.3l-.014.036a61.7 61.7 0 0 0-.921-2.022l-.173-.36-.216-.446c.094.05.187.108.281.158zm-2.482-19.021l.978.252c1.849.439 3.712.835 5.583 1.2q-.55 2.083-1.072 4.173-2.622-.939-5.273-1.791l-1.072-.317q.442-1.759.856-3.518zm-1.043 4.216l1.029.353c1.777.568 3.568 1.093 5.367 1.6l-1.41 5.942c-.014.05-.022.108-.036.158a37.04 37.04 0 0 1-3.115-4.05c-.586-.921-1.367-1.702-2.288-2.288l.453-1.719zm-.216 32.784c4.518 1.842 1.885-6.763 1.669-7.468-.007-.011-.011-.023-.014-.036 2.985 2.129 4.514 2.374 5.136 1.59l-.007.036c.432.187.87.353 1.317.518q-.96 5.04-1.82 10.1l-3.309-.935-3.611-1.05.64-2.755zm-1.058 4.547l.281-1.216q1.824.442 3.647.856 1.694.378 3.367.8c-.05.324-.115.647-.165.971q-.637 3.777-1.194 7.575-1.64-.5-3.28-1.014l-4.295-1.345 1.64-6.626zm2.18-42.316c-1.878-.4-3.77-.77-5.676-1.05l1.036-3.007 12.381 2.539q-.464 1.619-.906 3.237-2.752-.777-5.547-1.446l-.986-.209.647-2.835-.072-.014-.878 2.784zm-3.967 49.537l4.338 1.122 3.352.885-.935 6.921q-1.975-.388-3.935-.784l-4.77-.957q1.014-3.583 1.95-7.187zm-1.75-50.474c1.82.6 3.655 1.129 5.5 1.611q-.529 1.727-1.029 3.453c-1.885-.554-3.784-1.072-5.7-1.511l1.223-3.554zm-1.266 3.669c1.827.748 3.683 1.432 5.547 2.072l-.446 1.576a12.53 12.53 0 0 0-5.878-1.41l.777-2.237zm-1.284 29.525a7.72 7.72 0 0 1 .374.007c1.791 2.001 3.848 3.747 6.115 5.187l-.683 2.871q-3.054-.863-6.137-1.676l-1.281-.317 1.611-6.072zm-2.18 8.194l.381-1.41 1.273.353q3.086.8 6.187 1.54l-.288 1.209q-.777 3.3-1.489 6.619l-6.273-1.856-1.5-.41 1.705-6.045zm-8.331-4.331c1.554-.626 2.842-1.439 4.057-2.05 1.798-.934 3.75-1.533 5.762-1.77l-1.626 5.856c-2.741-.669-5.5-1.295-8.266-1.842zm-.108.295c2.683.878 5.4 1.669 8.115 2.432l-.4 1.41q-.809 3.032-1.575 6.079c-2.95-.8-5.914-1.554-8.9-2.23zm-2.791 7.791a222.33 222.33 0 0 0 8.755 2.82q-.96 3.842-1.827 7.7l.072.022q1.2-3.766 2.316-7.554l1.5.453q3.162.9 6.345 1.748-.777 3.647-1.475 7.316l-18.805-3.777zm40.042-43.575l4.41.892-.043 4.194q-2.255-.766-4.561-1.345l.194-3.741zm-.23 4.352a57.46 57.46 0 0 0 4.6.82l-.065 6.273q-2.428-1.025-4.921-1.842l.389-5.252zm-.878 10.59q.248-2.352.439-4.712 2.46.745 4.971 1.309l-.05 4.683-.022 4.036c-1.186-.576-2.428-1.032-3.705-1.36-.676-.151-1.374-.259-2.043-.432l.41-3.525zm-.856 7.489l.417-3.727c.64.223 1.266.518 1.9.763 1.257.446 2.556.759 3.878.935l-.05 7.784a28.5 28.5 0 0 0-4.432-1.748c-.676-.187-1.353-.345-2.029-.525l.317-3.482zm-.611 7.5l.266-3.719c.626.252 1.237.532 1.863.791 1.501.575 3.049 1.02 4.626 1.331l-.022 3.122-.014 4.029a22.27 22.27 0 0 0-3.914-1.237c-.727-.137-1.468-.216-2.187-.374-.295-.065-.59-.151-.885-.237l.266-3.7zm-1.129 14.23l.842-10.28a16.73 16.73 0 0 1 .849.216c.705.209 1.4.5 2.094.734 1.326.401 2.687.673 4.065.813l-.007 10.827c-2.59-.856-5.209-1.619-7.842-2.309zm-.065.784c0-.05.007-.1.007-.151a127.48 127.48 0 0 0 7.9 1.791v.072l.043 9.453c-2.914-1.029-5.863-1.95-8.827-2.8q.475-4.176.878-8.367zm-.957 8.993c2.95.842 5.914 1.611 8.906 2.273l.043 5.388-9.683-1.82.734-5.842zm-.77-55.049l5.417 1.094-.482 3.655-2.129-.5-3.273-.6.468-3.647zm-.511 3.914c1.065.288 2.115.626 3.18.921.727.194 1.46.367 2.194.532l-.561 5.151-1.8-.554-3.763-1.014q.4-2.514.748-5.036zm-1.727 10.8l.935-5.525c1.223.417 2.417.906 3.626 1.345l1.914.626-.439 4.842-.223 3.453q-.8-.248-1.576-.561c-1.29-.533-2.605-1-3.942-1.4l-.8-.216.5-2.568zm-1.424 7.367c.237-1.367.511-2.727.784-4.093.237.086.475.165.712.245a40.74 40.74 0 0 0 4.05 1.036c.568.115 1.122.259 1.676.424l-.273 3.827-.317 3.432-.18-.043a25.36 25.36 0 0 1-2.367-.892c-1.468-.64-2.957-1.194-4.46-1.712l.374-2.223zm-1.18 7.417q.324-2.223.676-4.439c1.475.489 2.957.942 4.46 1.324.82.216 1.633.446 2.424.741.072.029.151.065.23.1l-.424 3.784-.4 3.583-.712-.237c-1.388-.511-2.806-.914-4.23-1.288a42.72 42.72 0 0 0-2.489-.511l.46-3.057zm-.194-30.517l1.065.216 3.892.791q-.4 1.791-.763 3.59c-1.2-.266-2.388-.59-3.576-.935l-1.266-.353.648-3.309zm-.748 3.8l1.273.252c1.216.223 2.424.468 3.619.777h.007l-.942 4.964q-1.619-.518-3.216-1.108c-.547-.209-1.1-.4-1.655-.6l.914-4.288zm.4 30.287c.784.273 1.576.518 2.374.741 1.432.367 2.863.7 4.331.928.259.043.518.094.777.144q-.572 5.1-1.029 10.208l-1.561-.4-5.295-1.194-1.209-.317q.863-5.05 1.612-10.115zm-3.813-10.079a44.22 44.22 0 0 0 4.64 1.942 1.23 1.23 0 0 0 .151.05l-.827 4.453-.583 3.043a26.11 26.11 0 0 0-1.353-.18c1.079-1.46-.669-6.187-2.029-9.309zm.993-9.489q.723-2.957 1.388-5.921l1.647.46c1.108.295 2.209.619 3.295.971l-.95 5.6-.367 2.561c-.941-.236-1.895-.421-2.856-.554l-.014.036-2.295-2.6c.058-.187.1-.374.151-.561zm1.014 30.827c.058-.3.1-.6.151-.906l1.194.3c1.741.482 3.468 1.043 5.2 1.547.547.158 1.1.3 1.655.446a3.82 3.82 0 0 0-.029.281q-.367 4.144-.648 8.288l-1.511-.417-5.64-1.424-1.755-.511q.734-3.8 1.381-7.6zm-1.432 7.849l1.741.489c1.856.561 3.691 1.194 5.539 1.777l1.633.475q-.194 2.978-.338 5.964l-1.989-.378q-3.993-.755-7.971-1.547.723-3.388 1.381-6.784zm-1.626-31.906c.079.05.158.094.237.137 3.3 1.784 5.338.655 6.093-.3.36-.446-.633-1.719-2.093-3.388a27.98 27.98 0 0 0 2.727 1.137l-.626 4.194-.367 2.173c-.014-.007-.022-.007-.029-.014-1.608-.524-3.244-.958-4.9-1.3l-.014.036a61.7 61.7 0 0 0-.921-2.022l-.173-.36-.216-.446c.094.05.187.108.281.158zm-2.482-19.021l.978.252c1.849.439 3.712.835 5.583 1.2q-.55 2.083-1.072 4.173-2.622-.939-5.273-1.791l-1.072-.317q.442-1.759.856-3.518zm-1.043 4.216l1.029.353c1.777.568 3.568 1.093 5.367 1.6l-1.41 5.942c-.014.05-.022.108-.036.158a37.03 37.03 0 0 1-3.115-4.05c-.586-.921-1.367-1.702-2.288-2.288l.453-1.719zm-.216 32.784c4.518 1.842 1.885-6.763 1.669-7.468-.007-.011-.011-.023-.014-.036 2.985 2.129 4.514 2.374 5.136 1.59l-.007.036c.432.187.87.353 1.317.518q-.96 5.04-1.82 10.1l-3.309-.935-3.611-1.05.64-2.755zm-1.058 4.547l.281-1.216q1.824.442 3.647.856 1.694.378 3.367.8c-.05.324-.115.647-.165.971q-.637 3.777-1.194 7.575-1.64-.5-3.281-1.014l-4.295-1.345 1.64-6.626zm2.18-42.316c-1.878-.4-3.77-.77-5.676-1.05l1.036-3.007 12.381 2.539q-.464 1.619-.906 3.237-2.752-.777-5.547-1.446l-.986-.209.647-2.835-.072-.014-.878 2.784zm-3.969 49.537l4.338 1.122 3.352.885-.935 6.921q-1.975-.388-3.935-.784l-4.77-.957q1.014-3.583 1.95-7.187zm-1.75-50.474c1.82.6 3.655 1.129 5.5 1.611q-.529 1.727-1.029 3.453c-1.885-.554-3.784-1.072-5.7-1.511l1.223-3.554zm-1.266 3.669c1.827.748 3.683 1.432 5.547 2.072l-.446 1.576a12.53 12.53 0 0 0-5.878-1.41l.777-2.237zm-1.284 29.525a7.72 7.72 0 0 1 .374.007c1.791 2.001 3.848 3.747 6.115 5.187l-.683 2.871q-3.054-.863-6.137-1.676l-1.281-.317 1.612-6.072zm-2.18 8.194l.381-1.41 1.273.353q3.086.8 6.187 1.54l-.288 1.209q-.777 3.3-1.489 6.619l-6.273-1.856-1.5-.41 1.705-6.045zm-8.331-4.331c1.554-.626 2.842-1.439 4.057-2.05 1.798-.934 3.75-1.533 5.762-1.77l-1.626 5.856c-2.741-.669-5.5-1.295-8.266-1.842zm-.108.295c2.683.878 5.4 1.669 8.115 2.432l-.4 1.41q-.809 3.032-1.575 6.079c-2.95-.8-5.914-1.554-8.9-2.23zm-2.791 7.791a222.33 222.33 0 0 0 8.755 2.82q-.96 3.842-1.827 7.7l.072.022q1.2-3.766 2.316-7.554l1.5.453q3.162.9 6.345 1.748-.777 3.647-1.475 7.316l-18.805-3.777zm40.042-43.575l4.41.892-.043 4.194q-2.255-.766-4.561-1.345l.194-3.741zm-.23 4.352a57.46 57.46 0 0 0 4.6.82l-.065 6.273q-2.428-1.025-4.921-1.842l.389-5.252zm-.878 10.59q.248-2.352.439-4.712 2.46.745 4.971 1.309l-.05 4.683-.022 4.036c-1.186-.576-2.428-1.032-3.705-1.36-.676-.151-1.374-.259-2.043-.432l.41-3.525zm-.856 7.489l.417-3.727c.64.223 1.266.518 1.9.763 1.257.446 2.556.759 3.878.935l-.05 7.784a28.5 28.5 0 0 0-4.432-1.748c-.676-.187-1.353-.345-2.029-.525l.317-3.482zm-.611 7.5l.266-3.719c.626.252 1.237.532 1.863.791 1.501.575 3.049 1.02 4.626 1.331l-.022 3.122-.014 4.029a22.27 22.27 0 0 0-3.914-1.237c-.727-.137-1.468-.216-2.187-.374-.295-.065-.59-.151-.885-.237l.266-3.7zm-1.129 14.23l.842-10.28a16.73 16.73 0 0 1 .849.216c.705.209 1.4.5 2.094.734 1.326.401 2.687.673 4.065.813l-.007 10.827c-2.59-.856-5.209-1.619-7.842-2.309zm-.065.784c0-.05.007-.1.007-.151a127.48 127.48 0 0 0 7.9 1.791v.072l.043 9.453c-2.914-1.029-5.863-1.95-8.827-2.8q.475-4.176.878-8.367zm-.957 8.993c2.95.842 5.914 1.611 8.906 2.273l.043 5.388-9.683-1.82.734-5.842zm-.77-55.049l5.417 1.094-.482 3.655-2.129-.5-3.273-.6.468-3.647zm-.511 3.914c1.065.288 2.115.626 3.18.921.727.194 1.46.367 2.194.532l-.561 5.151-1.8-.554-3.763-1.014q.4-2.514.748-5.036zm-1.727 10.8l.935-5.525c1.223.417 2.417.906 3.626 1.345l1.914.626-.439 4.842-.223 3.453q-.8-.248-1.576-.561c-1.29-.533-2.605-1-3.942-1.4l-.8-.216.5-2.568zm-1.424 7.367c.237-1.367.511-2.727.784-4.093.237.086.475.165.712.245a40.74 40.74 0 0 0 4.05 1.036c.568.115 1.122.259 1.676.424l-.273 3.827-.317 3.432-.18-.043a25.36 25.36 0 0 1-2.367-.892c-1.468-.64-2.957-1.194-4.46-1.712l.374-2.223zm-1.18 7.417q.324-2.223.676-4.439c1.475.489 2.957.942 4.46 1.324.82.216 1.633.446 2.424.741.072.029.151.065.23.1l-.424 3.784-.4 3.583-.712-.237c-1.388-.511-2.806-.914-4.23-1.288a42.72 42.72 0 0 0-2.489-.511l.46-3.057zm-.194-30.517l1.065.216 3.892.791q-.4 1.791-.763 3.59c-1.2-.266-2.388-.59-3.576-.935l-1.266-.353.648-3.309zm-.748 3.8l1.273.252c1.216.223 2.424.468 3.619.777h.007l-.942 4.964q-1.619-.518-3.216-1.108c-.547-.209-1.1-.4-1.655-.6l.914-4.288zm.4 30.287c.784.273 1.576.518 2.374.741 1.432.367 2.863.7 4.331.928.259.043.518.094.777.144q-.572 5.1-1.029 10.208l-1.561-.4-5.295-1.194-1.209-.317q.863-5.05 1.612-10.115zm-3.813-10.079a44.22 44.22 0 0 0 4.64 1.942 1.23 1.23 0 0 0 .151.05l-.827 4.453-.583 3.043a26.11 26.11 0 0 0-1.353-.18c1.079-1.46-.669-6.187-2.029-9.309zm.993-9.489q.723-2.957 1.388-5.921l1.647.46c1.108.295 2.209.619 3.295.971l-.95 5.6-.367 2.561c-.941-.236-1.895-.421-2.856-.554l-.014.036-2.295-2.6c.058-.187.1-.374.151-.561zm1.014 30.827c.058-.3.1-.6.151-.906l1.194.3c1.741.482 3.468 1.043 5.2 1.547.547.158 1.1.3 1.655.446a3.82 3.82 0 0 0-.029.281q-.367 4.144-.648 8.288l-1.511-.417-5.64-1.424-1.755-.511q.734-3.8 1.381-7.6zm-1.432 7.849l1.741.489c1.856.561 3.691 1.194 5.539 1.777l1.633.475q-.194 2.978-.338 5.964l-1.989-.378q-3.993-.755-7.971-1.547.723-3.388 1.381-6.784zm-1.626-31.906c.079.05.158.094.237.137 3.3 1.784 5.338.655 6.093-.3.36-.446-.633-1.719-2.093-3.388a27.98 27.98 0 0 0 2.727 1.137l-.626 4.194-.367 2.173c-.014-.007-.022-.007-.029-.014-1.608-.524-3.244-.958-4.9-1.3l-.014.036a61.7 61.7 0 0 0-.921-2.022l-.173-.36-.216-.446c.094.05.187.108.281.158zm-2.482-19.021l.978.252c1.849.439 3.712.835 5.583 1.2q-.55 2.083-1.072 4.173-2.622-.939-5.273-1.791l-1.072-.317q.442-1.759.856-3.518zm-1.043 4.216l1.029.353c1.777.568 3.568 1.093 5.367 1.6l-1.41 5.942c-.014.05-.022.108-.036.158a37.03 37.03 0 0 1-3.115-4.05c-.586-.921-1.367-1.702-2.288-2.288l.453-1.719zm-.216 32.784c4.518 1.842 1.885-6.763 1.669-7.468-.007-.011-.011-.023-.014-.036 2.985 2.129 4.514 2.374 5.136 1.59l-.007.036c.432.187.87.353 1.317.518q-.96 5.04-1.82 10.1l-3.309-.935-3.611-1.05.64-2.755zm-1.058 4.547l.281-1.216q1.824.442 3.647.856 1.694.378 3.367.8c-.05.324-.115.647-.165.971q-.637 3.777-1.194 7.575-1.64-.5-3.281-1.014l-4.295-1.345 1.64-6.626zm2.18-42.316c-1.878-.4-3.77-.77-5.676-1.05l1.036-3.007 12.381 2.539q-.464 1.619-.906 3.237-2.752-.777-5.547-1.446l-.986-.209.647-2.835-.072-.014-.878 2.784zm-3.969 49.537l4.338 1.122 3.352.885-.935 6.921q-1.975-.388-3.935-.784l-4.77-.957q1.014-3.583 1.95-7.187zm-1.75-50.474c1.82.6 3.655 1.129 5.5 1.611q-.529 1.727-1.029 3.453c-1.885-.554-3.784-1.072-5.7-1.511l1.223-3.554zm-1.266 3.669c1.827.748 3.683 1.432 5.547 2.072l-.446 1.576a12.53 12.53 0 0 0-5.878-1.41l.777-2.237zm-1.284 29.525a7.72 7.72 0 0 1 .374.007c1.791 2.001 3.848 3.747 6.115 5.187l-.683 2.871q-3.054-.863-6.137-1.676l-1.281-.317 1.612-6.072zm-2.18 8.194l.381-1.41 1.273.353q3.086.8 6.187 1.54l-.288 1.209q-.777 3.3-1.489 6.619l-6.273-1.856-1.5-.41 1.705-6.045zm-8.331-4.331c1.554-.626 2.842-1.439 4.057-2.05 1.798-.934 3.75-1.533 5.762-1.77l-1.626 5.856c-2.741-.669-5.5-1.295-8.266-1.842zm-.108.295c2.683.878 5.4 1.669 8.115 2.432l-.4 1.41q-.809 3.032-1.575 6.079c-2.95-.8-5.914-1.554-8.9-2.23zm-2.791 7.791a222.33 222.33 0 0 0 8.755 2.82q-.96 3.842-1.827 7.7l.072.022q1.2-3.766 2.316-7.554l1.5.453q3.162.9 6.345 1.748-.777 3.647-1.475 7.316l-18.805-3.777zm2.216 16.769l16 2.82 16.007 2.77 16.014 2.705.223.036.129-.18 22.985-31.683 11.539-15.806 11.683-15.7.072-.094c.914.201 1.848.3 2.784.295a12.11 12.11 0 0 0 3.072-.36l-49.222 68.747-67.275-13.102v-3.324l15.985 2.878zm46.92-28.172l.474 18.058.3 9.029.353 8.446-.137.18-15.791-2.683-16.028-2.655-16.036-2.6-16.036-2.547 9.23-21.172a12.89 12.89 0 0 0 6.611-.432l-5.806 16.618-.1.288.3.058 24 4.554q6 1.133 11.985 2.338l11.971 2.424.252.05v-.259l.094-15.3-.029-15.295-.094-15.252-.151-15.165-13.741-3.086-13.849-3.057-.245-.05-.079.237-3.309 9.144c-.5-.5-1.489-1.4-2.719-2.46l4.151-9.532 33.971 4.014.129 18.057zm37.812-51.4l4.647 12.259 4.676 12.079-11.367 15.748-11.6 15.762-23.014 31.056-.022-8.424-.1-9.036-.317-18.057-.482-18.05-.683-18.05 29.136-39.834 4.525 12.28zm-9.9-16.547l-25.683 34.5 2.784 57.042 37.258-50.618zm19.8 40.863l-.014-.036-4.633-12.252-4.719-12.223-4.772-12.209-4.823-12.176h4.237l20.6 48.956a11.79 11.79 0 0 0-3.072-.36 12.4 12.4 0 0 0-2.806.295zm-96.847 38.489a222.33 222.33 0 0 0 8.755 2.82q-.96 3.842-1.827 7.7l.072.022q1.2-3.766 2.316-7.554l1.5.453q3.162.9 6.345 1.748-.777 3.647-1.475 7.316l-18.805-3.777zm2.791-7.791c2.683.878 5.4 1.669 8.115 2.432l-.4 1.41q-.809 3.032-1.575 6.079c-2.95-.8-5.914-1.554-8.9-2.23zm.108-.295c1.554-.626 2.842-1.439 4.057-2.05 1.798-.934 3.75-1.533 5.762-1.77l-1.626 5.856c-2.741-.669-5.5-1.295-8.266-1.842zm8.331 4.331l.381-1.41 1.273.353q3.086.8 6.187 1.54l-.288 1.209q-.777 3.3-1.489 6.619l-6.273-1.856-1.5-.41 1.704-6.047zm2.18-8.194a7.72 7.72 0 0 1 .374.007c1.791 2.001 3.848 3.747 6.115 5.187l-.683 2.871q-3.054-.863-6.137-1.676l-1.281-.317 1.612-6.072zm1.288-29.525c1.827.748 3.683 1.432 5.547 2.072l-.446 1.576a12.53 12.53 0 0 0-5.878-1.41l.777-2.237zm1.266-3.669c1.82.6 3.655 1.129 5.5 1.611q-.529 1.727-1.029 3.453c-1.885-.554-3.784-1.072-5.7-1.511l1.223-3.554zm1.748 50.474l4.338 1.122 3.352.885-.935 6.921q-1.975-.388-3.935-.784l-4.77-.957q1.014-3.583 1.95-7.187zm3.971-49.539c-1.878-.4-3.77-.77-5.676-1.05l1.036-3.007 12.381 2.539q-.464 1.619-.906 3.237-2.752-.777-5.547-1.446l-.986-.209.647-2.835-.072-.014-.878 2.784zm-2.18 42.316l.281-1.216q1.824.442 3.647.856 1.694.378 3.367.8c-.05.324-.115.647-.165.971q-.637 3.777-1.194 7.575-1.64-.5-3.281-1.014l-4.295-1.345 1.64-6.626zm1.058-4.547c4.518 1.842 1.885-6.763 1.669-7.468-.007-.011-.011-.023-.014-.036 2.985 2.129 4.514 2.374 5.136 1.59l-.007.036c.432.187.87.353 1.317.518q-.96 5.04-1.82 10.1l-3.309-.935-3.611-1.05.64-2.755zm.216-32.784l1.029.353c1.777.568 3.568 1.093 5.367 1.6l-1.41 5.942c-.014.05-.022.108-.036.158a37.03 37.03 0 0 1-3.115-4.05c-.586-.921-1.367-1.702-2.288-2.288l.453-1.719zm1.043-4.216l.978.252c1.849.439 3.712.835 5.583 1.2q-.55 2.083-1.072 4.173-2.622-.939-5.273-1.791l-1.072-.317q.442-1.759.856-3.518zm2.482 19.021c.079.05.158.094.237.137 3.3 1.784 5.338.655 6.093-.3.36-.446-.633-1.719-2.093-3.388a27.97 27.97 0 0 0 2.727 1.137l-.626 4.194-.367 2.173c-.014-.007-.022-.007-.029-.014a45.43 45.43 0 0 0-4.9-1.3l-.014.036a61.7 61.7 0 0 0-.921-2.022l-.173-.36-.216-.446c.089.045.184.102.277.152zm1.626 31.906l1.741.489c1.856.561 3.691 1.194 5.539 1.777l1.633.475q-.194 2.978-.338 5.964l-1.994-.378q-3.993-.755-7.971-1.547.723-3.388 1.381-6.784zm1.432-7.849c.058-.3.1-.6.151-.906l1.194.3c1.741.482 3.468 1.043 5.2 1.547.547.158 1.1.3 1.655.446a3.82 3.82 0 0 0-.029.281q-.367 4.144-.648 8.288l-1.511-.417-5.64-1.424-1.755-.511q.732-3.799 1.378-7.604zm-1.02-30.824q.723-2.957 1.388-5.921l1.647.46c1.108.295 2.209.619 3.295.971l-.95 5.6-.367 2.561c-.941-.236-1.895-.421-2.856-.554l-.014.036-2.295-2.6c.058-.187.1-.374.151-.561zm-.993 9.489c1.509.735 3.058 1.383 4.64 1.942a1.24 1.24 0 0 0 .151.05l-.827 4.453-.583 3.043a26.11 26.11 0 0 0-1.353-.18c1.079-1.46-.669-6.187-2.029-9.309zm3.813 10.079c.784.273 1.576.518 2.374.741 1.432.367 2.863.7 4.331.928.259.043.518.094.777.144q-.572 5.1-1.029 10.209l-1.561-.4-5.295-1.194-1.209-.317q.863-5.05 1.612-10.115zm-.4-30.287l1.273.252c1.216.223 2.424.468 3.619.777h.007l-.942 4.964q-1.619-.518-3.216-1.108c-.547-.209-1.1-.4-1.655-.6l.914-4.288zm.748-3.8l1.065.216 3.892.791q-.4 1.791-.763 3.59c-1.2-.266-2.388-.59-3.576-.935l-1.266-.353.648-3.309zm.194 30.517q.324-2.223.676-4.439c1.475.489 2.957.942 4.46 1.324.82.216 1.633.446 2.424.741.072.029.151.065.23.1l-.424 3.784-.4 3.583-.712-.237c-1.388-.511-2.806-.914-4.23-1.288a42.72 42.72 0 0 0-2.489-.511l.46-3.058zm1.18-7.417c.237-1.367.511-2.727.784-4.093.237.086.475.165.712.245 1.331.414 2.683.76 4.05 1.036.568.115 1.122.259 1.676.425l-.273 3.827-.317 3.432-.18-.043a25.36 25.36 0 0 1-2.367-.892c-1.468-.64-2.957-1.194-4.46-1.712l.374-2.223zm1.424-7.367l.935-5.525c1.223.417 2.417.906 3.626 1.345l1.914.626-.439 4.842-.223 3.453q-.8-.248-1.576-.561a41.42 41.42 0 0 0-3.942-1.4l-.8-.216.5-2.568zm1.727-10.8c1.065.288 2.115.626 3.18.921.727.194 1.46.367 2.194.532l-.561 5.151-1.8-.554-3.763-1.014q.4-2.514.748-5.036zm.511-3.914l5.417 1.094-.482 3.655-2.129-.5-3.273-.6.468-3.647zm.77 55.049c2.95.842 5.914 1.611 8.906 2.273l.043 5.388-9.683-1.82.734-5.842zm.957-8.993c0-.05.007-.1.007-.151a127.48 127.48 0 0 0 7.9 1.791v.072l.043 9.453c-2.914-1.029-5.863-1.95-8.827-2.8q.475-4.176.878-8.367zm.065-.784l.842-10.28a16.73 16.73 0 0 1 .849.216c.705.209 1.4.5 2.094.734a21.54 21.54 0 0 0 4.065.813l-.007 10.827c-2.59-.856-5.209-1.619-7.842-2.309zm1.129-14.23l.266-3.719c.626.252 1.237.532 1.863.791a28.16 28.16 0 0 0 4.626 1.331l-.022 3.122-.014 4.029a22.27 22.27 0 0 0-3.914-1.237c-.727-.137-1.468-.216-2.187-.374-.295-.065-.59-.151-.885-.237l.266-3.705zm.611-7.5l.417-3.727c.64.223 1.266.518 1.9.763 1.257.446 2.556.759 3.878.935l-.05 7.784a28.5 28.5 0 0 0-4.432-1.748c-.676-.187-1.353-.345-2.029-.525l.317-3.482zm.856-7.489q.248-2.352.439-4.712 2.46.745 4.971 1.309l-.05 4.683-.022 4.036c-1.186-.576-2.428-1.032-3.705-1.36-.676-.151-1.374-.259-2.043-.432l.41-3.525zm.878-10.59a57.46 57.46 0 0 0 4.6.82l-.065 6.273q-2.428-1.025-4.921-1.842l.389-5.252zm.23-4.352l4.41.892-.043 4.194q-2.255-.766-4.561-1.345l.194-3.741zm-40.042 43.575a222.33 222.33 0 0 0 8.755 2.82q-.96 3.842-1.827 7.7l.072.022q1.2-3.766 2.316-7.554l1.5.453q3.162.9 6.345 1.748-.777 3.647-1.475 7.316l-18.805-3.777zm2.791-7.791c2.683.878 5.4 1.669 8.115 2.432l-.4 1.41q-.809 3.032-1.575 6.079c-2.95-.8-5.914-1.554-8.9-2.23zm.108-.295c1.554-.626 2.842-1.439 4.057-2.05a16.74 16.74 0 0 1 5.762-1.77l-1.626 5.856c-2.741-.669-5.5-1.295-8.266-1.842zm8.331 4.331l.381-1.41 1.273.353q3.086.8 6.187 1.54l-.288 1.209q-.777 3.3-1.489 6.619l-6.273-1.856-1.5-.41 1.706-6.048zm2.18-8.194a7.72 7.72 0 0 1 .374.007c1.791 2.001 3.848 3.747 6.115 5.187l-.683 2.871q-3.054-.863-6.137-1.676l-1.281-.317 1.612-6.072zm1.288-29.525c1.827.748 3.683 1.432 5.547 2.072l-.446 1.576a12.53 12.53 0 0 0-5.878-1.41l.777-2.237zm1.266-3.669c1.82.6 3.655 1.129 5.5 1.611q-.529 1.727-1.029 3.453c-1.885-.554-3.784-1.072-5.7-1.511l1.223-3.554zm1.748 50.474l4.338 1.122 3.352.885-.935 6.921q-1.975-.388-3.935-.784l-4.77-.957q1.014-3.583 1.95-7.187zm3.971-49.539c-1.878-.4-3.77-.77-5.676-1.05l1.036-3.007 12.381 2.539q-.464 1.619-.906 3.237-2.752-.777-5.547-1.446l-.986-.209.647-2.835-.072-.014-.878 2.784zm-2.18 42.316l.281-1.216q1.824.442 3.647.856 1.694.378 3.367.8c-.05.324-.115.647-.165.971q-.637 3.777-1.194 7.575-1.64-.5-3.281-1.014l-4.295-1.345 1.64-6.626zm1.058-4.547c4.518 1.842 1.885-6.763 1.669-7.468-.007-.011-.011-.023-.014-.036 2.985 2.129 4.514 2.374 5.136 1.59l-.007.036c.432.187.87.353 1.317.518q-.96 5.04-1.82 10.1l-3.309-.935-3.611-1.05.64-2.755zm.216-32.784l1.029.353c1.777.568 3.568 1.093 5.367 1.6l-1.41 5.942c-.014.05-.022.108-.036.158a37.03 37.03 0 0 1-3.115-4.05c-.586-.921-1.367-1.702-2.288-2.288l.453-1.719zm1.043-4.216l.978.252c1.849.439 3.712.835 5.583 1.2q-.55 2.083-1.072 4.173-2.622-.939-5.273-1.791l-1.072-.317q.442-1.759.856-3.518zm2.482 19.021c.079.05.158.094.237.137 3.3 1.784 5.338.655 6.093-.3.36-.446-.633-1.719-2.093-3.388a27.97 27.97 0 0 0 2.727 1.137l-.626 4.194-.367 2.173c-.014-.007-.022-.007-.029-.014a45.43 45.43 0 0 0-4.9-1.3l-.014.036a61.7 61.7 0 0 0-.921-2.022l-.173-.36-.216-.446c.091.044.186.101.279.151zm1.626 31.906l1.741.489c1.856.561 3.691 1.194 5.539 1.777l1.633.475q-.194 2.978-.338 5.964l-1.992-.379q-3.993-.755-7.971-1.547.723-3.388 1.381-6.784zm1.432-7.849c.058-.3.1-.6.151-.906l1.194.3c1.741.482 3.468 1.043 5.2 1.547.547.158 1.1.3 1.655.446a3.82 3.82 0 0 0-.029.281q-.367 4.144-.648 8.288l-1.511-.417-5.64-1.424-1.755-.511q.734-3.8 1.38-7.605zm-1.018-30.825q.723-2.957 1.388-5.921l1.647.46c1.108.295 2.209.619 3.295.971l-.95 5.6-.367 2.561c-.941-.236-1.895-.421-2.856-.554l-.014.036-2.295-2.6c.058-.187.1-.374.151-.561zm-.993 9.489c1.509.735 3.058 1.383 4.64 1.942a1.24 1.24 0 0 0 .151.05l-.827 4.453-.583 3.043a26.11 26.11 0 0 0-1.353-.18c1.079-1.46-.669-6.187-2.029-9.309zm3.813 10.079c.784.273 1.576.518 2.374.741 1.432.367 2.863.7 4.331.928.259.043.518.094.777.144q-.572 5.1-1.029 10.209l-1.561-.4-5.295-1.194-1.209-.317q.863-5.05 1.612-10.115zm-.4-30.287l1.273.252c1.216.223 2.424.468 3.619.777h.007l-.942 4.964q-1.619-.518-3.216-1.108c-.547-.209-1.1-.4-1.655-.6l.914-4.288zm.748-3.8l1.065.216 3.892.791q-.4 1.791-.763 3.59c-1.2-.266-2.388-.59-3.576-.935l-1.266-.353.648-3.309zm.194 30.517q.324-2.223.676-4.439c1.475.489 2.957.942 4.46 1.324.82.216 1.633.446 2.424.741.072.029.151.065.23.1l-.424 3.784-.4 3.583-.712-.237c-1.388-.511-2.806-.914-4.23-1.288a42.72 42.72 0 0 0-2.489-.511l.46-3.058zm1.18-7.417c.237-1.367.511-2.727.784-4.093.237.086.475.165.712.245 1.331.414 2.683.76 4.05 1.036.568.115 1.122.259 1.676.425l-.273 3.827-.317 3.432-.18-.043a25.36 25.36 0 0 1-2.367-.892c-1.468-.64-2.957-1.194-4.46-1.712l.374-2.223zm1.424-7.367l.935-5.525c1.223.417 2.417.906 3.626 1.345l1.914.626-.439 4.842-.223 3.453q-.8-.248-1.576-.561a41.42 41.42 0 0 0-3.942-1.4l-.8-.216.5-2.568zm1.727-10.8c1.065.288 2.115.626 3.18.921.727.194 1.46.367 2.194.532l-.561 5.151-1.8-.554-3.763-1.014q.4-2.514.748-5.036zm.511-3.914l5.417 1.094-.482 3.655-2.129-.5-3.273-.6.468-3.647zm.77 55.049c2.95.842 5.914 1.611 8.906 2.273l.043 5.388-9.683-1.82.734-5.842zm.957-8.993c0-.05.007-.1.007-.151a127.48 127.48 0 0 0 7.9 1.791v.072l.043 9.453c-2.914-1.029-5.863-1.95-8.827-2.8q.475-4.176.878-8.367zm.065-.784l.842-10.28a16.73 16.73 0 0 1 .849.216c.705.209 1.4.5 2.094.734a21.54 21.54 0 0 0 4.065.813l-.007 10.827c-2.59-.856-5.209-1.619-7.842-2.309zm1.129-14.23l.266-3.719c.626.252 1.237.532 1.863.791a28.16 28.16 0 0 0 4.626 1.331l-.022 3.122-.014 4.029a22.27 22.27 0 0 0-3.914-1.237c-.727-.137-1.468-.216-2.187-.374-.295-.065-.59-.151-.885-.237l.266-3.705zm.611-7.5l.417-3.727c.64.223 1.266.518 1.9.763 1.257.446 2.556.759 3.878.935l-.05 7.784a28.5 28.5 0 0 0-4.432-1.748c-.676-.187-1.353-.345-2.029-.525l.317-3.482zm.856-7.489q.248-2.352.439-4.712 2.46.745 4.971 1.309l-.05 4.683-.022 4.036c-1.186-.576-2.428-1.032-3.705-1.36-.676-.151-1.374-.259-2.043-.432l.41-3.525zm.878-10.59a57.46 57.46 0 0 0 4.6.82l-.065 6.273q-2.428-1.025-4.921-1.842l.389-5.252zm.23-4.352l4.41.892-.043 4.194q-2.255-.766-4.561-1.345l.194-3.741z"/><path d="M265.07 114.149l-.035.014h.043z"/><path d="M265.035 114.163l-.029.014.008.014zm-91.612 101.196l-.007.036.014-.036z"/><path d="M173.419 215.435v-.036l-.008.036zm35.998-27.82v.022c-.007-.011-.011-.023-.014-.036zm6.259-14.1c.019.018.035.037.05.058-.022-.007-.036-.022-.058-.029zm-1.13 15.64h.022c-.007.014-.022.022-.029.036zm-2.029-9.36a.36.36 0 0 0 .022.05c-.007-.007-.022-.007-.029-.014zm-3.1 7.82v.022c-.007-.011-.011-.023-.014-.036zm2.072-10.489l.237.137-.094.374c-.014.043-.022.093-.036.137l-.173-.36.066-.288zm-2.072 10.489v.022c-.007-.011-.011-.023-.014-.036z"/><path d="M211.203 176.961a37.48 37.48 0 0 0-2.263-3.31l-1.223-1.577a3.6 3.6 0 0 0-2.98-1.473 8.8 8.8 0 0 0-1.051.117l-1.968.329c-1.318.229-2.622.53-3.907.9a37.04 37.04 0 0 0 4.009-.062l1.99-.151.932-.077a2.79 2.79 0 0 1 .818.136c.545.168 1.027.496 1.382.942l1.36 1.461c.917.973 1.885 1.896 2.9 2.766zm-1.806 10.633c-.596-1.227-1.255-2.422-1.976-3.58l-1.086-1.722-.566-.845-.285-.421a3.36 3.36 0 0 0-.389-.468c-.589-.574-1.378-.896-2.2-.9a3.71 3.71 0 0 0-1.128.205l-.973.3a38.55 38.55 0 0 0-3.84 1.408 38.52 38.52 0 0 0 4.046-.592c.614-.157 1.241-.257 1.873-.3a2.19 2.19 0 0 1 1.462.644 2.29 2.29 0 0 1 .269.306l.3.414.594.825 1.234 1.619c.833 1.079 1.723 2.114 2.665 3.1zm-15.179-1.251a7.71 7.71 0 0 0 1.008-3.406 5.2 5.2 0 0 0-.226-1.879 7.3 7.3 0 0 1-.273-1.479 7.1 7.1 0 0 1 .025-1.583l.156-.816c.081-.299.128-.606.14-.916.09-1.195-.052-2.396-.417-3.538a4.3 4.3 0 0 0-1.011-1.624 2.53 2.53 0 0 1-.666-1.166 5.22 5.22 0 0 1 .395-2.895c-.052.015.183-.3.341-.546.194-.282.348-.59.458-.914a2.7 2.7 0 0 0 .137-1.134 3.25 3.25 0 0 0-.151-.564c-.077-.168-.166-.331-.267-.486a5.25 5.25 0 0 0-3.2-1.751l-.057.132a6.9 6.9 0 0 1 2.28 2.195 1.2 1.2 0 0 1-.043 1.1 3.8 3.8 0 0 1-.37.58l-.254.326-.158.217a2.4 2.4 0 0 0-.169.347c-.527 1.198-.612 2.545-.24 3.8a3.41 3.41 0 0 0 1.219 1.639 3.84 3.84 0 0 1 1.046 1.084 4.69 4.69 0 0 1 .662 3.145c-.036.261-.113.514-.226.752l-.37.814c-.249.571-.404 1.179-.458 1.8-.048.641.042 1.286.264 1.889a5.95 5.95 0 0 1 .317 1.49 22.8 22.8 0 0 1-.03 3.34zm50.869-44.906q-.654-2.461-1.349-4.908l-1.414-4.886-2.97-9.725-.175-.554-.623-.018-7.55-.14-7.55-.071c-5.033-.044-10.066 0-15.1.033l-7.55.117-7.55.2-15.1.706c5.033.339 10.066.542 15.1.706l7.55.2 7.55.117 15.1.033 7.55-.071 7.55-.14-.8-.572 3.561 9.524 1.851 4.738q.935 2.362 1.918 4.712zM2.733 231.867q34.007.577 68.013.759l17 .131 17 .057 34.007.087 17 .043 17-.039 34.007-.087 17-.05 17-.132 34.006-.285.663-.006-.2-.621-5.357-16.553-5.4-16.541 4.895 16.7 4.936 16.684.462-.627-34.007-.285-17-.132-17-.05-34.007-.087-17-.039-17 .043-34.007.087-17 .057-17 .131q-34.005.218-68.011.755z"/><path d="M163.809 190.664l-1.4.245q1.586 9.2 3.266 18.4 2 10.975 4.273 21.9-1.446-11.061-3.165-22.086-1.427-9.236-2.974-18.459zm-8.741-47.438q1.446 11.072 3.165 22.086l.273 1.763q.55-.162 1.122-.324l-.295-1.626q-1.995-10.974-4.265-21.899z"/><path d="M163.784 72.633l4.216 13.5q2.078 6.755 3.985 13.557a248.24 248.24 0 0 1 6.4 27.455 63.7 63.7 0 0 1 .8 6.952 18.2 18.2 0 0 1-.646 6.763 5.33 5.33 0 0 1-1.777 2.633c-.875.665-1.91 1.087-3 1.224-2.3.366-4.629.522-6.957.465a41.68 41.68 0 0 1-13.658-2.937c-4.388-1.701-8.621-3.78-12.65-6.212l-.322-.192-.03.377q-.353 4.427-.763 8.853l-.924 8.837a342.32 342.32 0 0 1-1.1 8.811c-.4 2.932-.858 5.86-1.52 8.7l-.171.736.746-.066c3.02-.268 5.974-.728 8.933-1.257a134.07 134.07 0 0 0 8.8-1.893 158.8 158.8 0 0 0 17.191-5.323l.089-.033.086-.061 7.378-5.086a67.1 67.1 0 0 1 7.623-4.532 9.14 9.14 0 0 1 .958-.375 2.43 2.43 0 0 1 .416-.1c.08-.021.07.006.108-.008s.106.029.158.038c.303.102.596.233.873.392q.461.257.921.552c1.222.79 2.414 1.682 3.584 2.6s2.322 1.86 3.455 2.831l1.691 1.457.825.742c.26.24.562.521.741.721l.236.263.338-.014a12.54 12.54 0 0 1 3.623.4 8.85 8.85 0 0 1 3.252 1.539c.472.361.894.783 1.256 1.255.349.439.721 1.051 1.113 1.569.783 1.064 1.626 2.066 2.484 3.045l2.595 2.892c.43.478.856.958 1.257 1.445a6.45 6.45 0 0 1 .983 1.456c.054.115.009.158.052.072.031-.032 0 .012-.025.035l-.065.077c-.041.053-.1.1-.143.145-.203.19-.433.35-.682.474a3.6 3.6 0 0 1-1.67.356 7.29 7.29 0 0 1-3.441-1.133l-1.148-.669.6 1.174c.7 1.376 1.361 2.792 1.962 4.223.622 1.419 1.14 2.881 1.55 4.375.207.733.316 1.49.324 2.251.01.357-.076.711-.25 1.023a.94.94 0 0 1-.861.424c-.756-.064-1.489-.295-2.145-.676-.343-.178-.675-.381-1.012-.574l-.978-.639.009.008-.007-.007-.1.1.007.007h0 .005l.96.679c.333.207.661.425 1 .619.683.43 1.455.7 2.258.789a1.56 1.56 0 0 0 .638-.107l.292-.177a2.49 2.49 0 0 0 .223-.253 2.34 2.34 0 0 0 .356-1.2c.023-.802-.062-1.604-.251-2.384a31.99 31.99 0 0 0-1.412-4.505c-.573-1.466-1.2-2.9-1.879-4.326l-.548.505a8.08 8.08 0 0 0 3.827 1.343c.722.038 1.442-.1 2.1-.4a3.82 3.82 0 0 0 .92-.607c.067-.065.14-.124.2-.2l.095-.106a.72.72 0 0 0 .118-.159 1.03 1.03 0 0 0 .049-.865 4.1 4.1 0 0 0-.515-.979c-.19-.285-.39-.552-.594-.813a43.54 43.54 0 0 0-1.251-1.514l-2.54-2.927c-.832-.979-1.64-1.972-2.374-3-.381-.52-.666-1.026-1.107-1.612a7.99 7.99 0 0 0-1.456-1.5 10.13 10.13 0 0 0-3.681-1.82 13.78 13.78 0 0 0-4.054-.507l.574.249c-.316-.363-.568-.589-.852-.865l-.835-.774q-.84-.763-1.694-1.5-1.715-1.476-3.493-2.881c-1.188-.936-2.4-1.848-3.689-2.69q-.486-.315-1.006-.607a6.18 6.18 0 0 0-1.177-.52 1.87 1.87 0 0 0-.84-.079 3.81 3.81 0 0 0-.678.152 10.5 10.5 0 0 0-1.137.438 68.05 68.05 0 0 0-7.846 4.621c-2.519 1.653-4.982 3.37-7.417 5.145l.174-.094c-5.557 2.128-11.231 3.938-16.993 5.423-2.882.737-5.782 1.406-8.7 1.98s-5.864 1.07-8.792 1.375l.574.67c.631-2.945.993-5.889 1.346-8.839l.91-8.853.756-8.861q.374-4.43.7-8.865l-.352.185a94.82 94.82 0 0 0 12.693 6.293 45.15 45.15 0 0 0 13.813 3.241 38.89 38.89 0 0 0 7.143-.3 7.23 7.23 0 0 0 3.49-1.345c1.025-.78 1.792-1.851 2.2-3.073a18.29 18.29 0 0 0 .8-7.209 64.79 64.79 0 0 0-.756-7.1c-.726-4.687-1.781-9.3-2.914-13.888a299.21 299.21 0 0 0-3.769-13.655l-4.3-13.484-4.738-13.333zm97.732 51.516l15.273 45.6-2.727.914-15.28-45.6zm12.151 41.172a.81.81 0 1 0-.783-.809.81.81 0 0 0 .783.809zm-1.173-3.129a.81.81 0 1 0-.782-.809.81.81 0 0 0 .783.808zm-1.036-3.108a.81.81 0 1 0-.782-.809.81.81 0 0 0 .783.808zm-27.109 51.958l-4.515-61.659 2.869-.21 4.515 61.659zm15.801-64.55l-6.775 8.066-1.942-5.993 6.786-7.891zm-2.33 38.706l-6.775 8.066-1.942-5.993 6.786-7.891zm9.412-16.692a72.01 72.01 0 0 0-2.252-7.309c-.849-2.406-1.826-4.764-2.928-7.065a71.16 71.16 0 0 0 2.252 7.309 72.05 72.05 0 0 0 2.928 7.065zm-1.9 3.387a72 72 0 0 0-2.252-7.309 71.16 71.16 0 0 0-2.928-7.065 71.16 71.16 0 0 0 2.252 7.309 72.02 72.02 0 0 0 2.927 7.066zm-2.59 2.175a72.02 72.02 0 0 0-2.252-7.309c-.849-2.406-1.826-4.764-2.928-7.065a71.16 71.16 0 0 0 2.248 7.31 72 72 0 0 0 2.928 7.065zm-5.107-.828a72 72 0 0 0-1.492-7.5 71.16 71.16 0 0 0-2.19-7.327 71.35 71.35 0 0 0 1.492 7.5 71.87 71.87 0 0 0 2.188 7.328zm-4.765-2.749a71.99 71.99 0 0 0-1.65-7.468 71.15 71.15 0 0 0-2.344-7.28c.416 2.517.967 5.01 1.65 7.468a72.01 72.01 0 0 0 2.343 7.28zm-3.088 4.964c-.248-2.539-.631-5.063-1.147-7.561-.484-2.505-1.102-4.982-1.852-7.42a71.15 71.15 0 0 0 1.147 7.561c.485 2.504 1.104 4.981 1.852 7.42zm-44.52-163.269l18.824 32h41.68l-18.824-32h-41.68m-1.748-1h44l20 34h-44l-20-34zm-2.252 38l18.824 32h41.68l-18.824-32h-41.68m-1.748-1h44l20 34h-44l-20-34z"/></g><path d="M204.014 11.686v30m20 3.5v30m41-30v30" fill="none" stroke="#5504b0" stroke-linecap="round"/><path fill="#5504b0" d="M230.514 47.186h30v24h-30z"/></svg>