<svg xmlns="http://www.w3.org/2000/svg" width="312.645" height="333.982" xmlns:v="https://vecta.io/nano"><path d="M0 152.877l.483 5.508 15.39 175.6h296.772V104.908" fill="#fbd206"/><g fill="#5504b0"><path d="M153.323 174.691a19.74 19.74 0 0 1-.5 3.486l135.348 2.74v-18.083l-135.715 1.461a20.43 20.43 0 0 1 .685 3.455 35.38 35.38 0 0 1 .259 3.463 33.23 33.23 0 0 1-.076 3.478zm-14.2-11.858v12.6l13.7 2.74c-.324-1.131-.553-2.286-.685-3.455l-.259-3.463c-.031-1.157 0-2.321.084-3.478a20.47 20.47 0 0 1 .495-3.486zM265.094 36.348L264.65 61.8l-.357 25.056-.071 24.825.385 24.85.479-.545q-7.242 1.083-14.5 2.063l-7.258.966-7.265.9-14.537 1.758-14.549 1.667.82.721.264-20.789.142-20.788.085-20.788-.066-20.788-.7 1.06 14.24-6.247 14.279-6.347zm.126-.19l-29.032 11.628-14.763 5.982-14.8 6.082-.7.287v.773l-.067 20.788.085 20.788.142 20.788.264 20.788.015.837.8-.117 14.493-2.1 14.5-2.009 7.256-.979 7.264-.917q7.266-.9 14.544-1.7l.471-.052.008-.493.385-25.289-.071-25.314-.357-25.083zm-8.83 11.602v76.167l-42.741 7.124v-64.66z"/><path d="M229.539 136.075c-2.938 0-2.943-4.566 0-4.566s2.943 4.566 0 4.566zm14.86 3.149c-.315 2.1-.48 4.207-.592 6.31l-.169 6.311.04 3.155a13.9 13.9 0 0 1 0 1.5 13.64 13.64 0 0 1-.206 1.466 11.77 11.77 0 0 1-2.79 5.376c1.876-1.163 3.273-2.96 3.936-5.066a10.64 10.64 0 0 0 .5-3.279l.04-3.155-.169-6.311-.59-6.307zm-13 1.686c-.183 2.146-.217 4.278-.2 6.406l.07 3.19.074 1.593.04.8.018.4-.016.352a9.9 9.9 0 0 1-1.968 5.5 11.42 11.42 0 0 1-.991 1.139 11.68 11.68 0 0 1-1.189 1l-2.45 2.071 2.878-1.458a11.49 11.49 0 0 0 1.411-.854 10.03 10.03 0 0 0 1.251-1.133c1.564-1.7 2.477-3.897 2.578-6.205l.007-.447-.027-.4-.058-.8-.123-1.6-.324-3.189-.981-6.365zm44.99 37.477h4.567v155.595h-4.567zm-68.678 0h4.567v155.595h-4.567zm-46.759 0h4.567v155.595h-4.567zM110.006 59.176c-.135 1.368-.19 2.74-.2 4.117l.065 2.075a8.95 8.95 0 0 0 .341 2.145 39.1 39.1 0 0 1 1.477 3.731c.155.475.111.991-.122 1.433a2.4 2.4 0 0 1-1.307.754l-.233.07-.11.132a31.55 31.55 0 0 0-2.172 3.013 15.01 15.01 0 0 0-.915 1.645 5.09 5.09 0 0 0-.339.924c-.063.287-.144.569-.244.845-.742 2.282-2.523 4.076-4.8 4.834a4.96 4.96 0 0 1-.852.157l-.429.045c-.144 0-.289-.005-.433-.007l-.923-.011a4.26 4.26 0 0 0-.982.081 5.97 5.97 0 0 0-3.426 1.9c-.895.967-1.567 2.118-1.969 3.373a8.59 8.59 0 0 0-.375 3.963l.559-.9a18.6 18.6 0 0 1-2.533.309c-.871.032-1.743.018-2.613-.043a20.93 20.93 0 0 1-2.6-.343l-1.286-.275-1.265-.368c-.426-.114-.827-.3-1.245-.441s-.828-.307-1.225-.5l-1.211-.554-1.165-.652c-.8-.4-1.491-.978-2.263-1.449l-2.155-1.65-.108.108 1.894 1.993 1.041.909a10.24 10.24 0 0 0 1.1.847 20.63 20.63 0 0 0 4.882 2.695c1.756.682 3.599 1.116 5.475 1.288 1.903.201 3.827.078 5.689-.366l.694-.174-.135-.727c-.311-2.223.317-4.476 1.733-6.218a5.29 5.29 0 0 1 2.7-1.815 3.49 3.49 0 0 1 .823-.15l.423-.036.479-.03.479-.035.473-.089a5.62 5.62 0 0 0 .923-.253c1.191-.43 2.26-1.145 3.112-2.082a11.53 11.53 0 0 0 2.054-3.11l.343-.882c.101-.262.226-.514.374-.753.31-.503.65-.987 1.019-1.448.735-.939 1.56-1.83 2.36-2.706l-.342.2c.849-.128 1.617-.575 2.148-1.25a1.9 1.9 0 0 0 .312-.632 2.28 2.28 0 0 0 .123-.664 4.22 4.22 0 0 0-.135-1.212 25.32 25.32 0 0 0-1.681-3.813 9.35 9.35 0 0 1-.439-1.867l-.27-2.007-.443-4.071zm-1.288 5.475l.537-.54a7.5 7.5 0 0 0-6.757-1.834l.181.739c2.159-.461 4.407.148 6.039 1.635zm-2.563 3.247a1.14 1.14 0 1 1 1.1-1.142 1.14 1.14 0 0 1-1.1 1.142zm2.831 5.815v-.761c-.276 0-.349-.1-.373-.136a1.43 1.43 0 0 1 0-1.007l-.722-.241a2.12 2.12 0 0 0 .1 1.693c.235.308.609.476.995.448z"/><path d="M111.27 57.898s-9.133 6.932-17.17 5.521c0 0-4.018-5.539-5.114-.963s-1.279 10.146 2.192 9.233c0 0 2.831 10.411-1.918 18.448s-8.95 5.3-9.863 12.6-26.85 7.306-19.727-3.836c4.593-7.55 7.867-15.827 9.681-24.476 0-.183 5.114-24.293 10.229-27.033s29.407-5.111 31.69 10.506zm-14.338 47.4s8.585-6.576 7.854-12.421 2.009-13.517 2.009-13.517c-.457 1.735-2.74 6.3-7.489 6.119s-7.124 5.48-6.484 8.768z"/><path d="M58.833 104.158c-1.805 2.139-3.315 4.512-4.487 7.054a56.48 56.48 0 0 0-2.992 7.844c-1.557 5.374-2.663 10.869-3.308 16.427-1.314 11.082-1.528 22.268-.637 33.392l.007.075.041.046a8.08 8.08 0 0 0 3.994 2.242c-1.426-.495-2.695-1.36-3.677-2.507l.048.121c0-5.55.116-11.1.388-16.636s.684-11.06 1.33-16.552c.621-5.49 1.594-10.935 2.912-16.3a69.14 69.14 0 0 1 2.535-7.87 34.97 34.97 0 0 1 3.848-7.335zm45 34.02c.517-1.865.986-3.736 1.368-5.643a17.66 17.66 0 0 0 .356-5.921 80.65 80.65 0 0 0-3.477-11.135c-1.365-3.615-2.8-7.2-4.345-10.738s-3.143-7.053-4.915-10.492c1.187 3.682 2.486 7.314 3.812 10.933l4.023 10.829 1.995 5.408c.634 1.8 1.295 3.625 1.746 5.42a19.01 19.01 0 0 1 .069 5.591c-.17 1.909-.445 3.822-.63 5.748zm-2.35 26.149l.758-.059c-.082-1.044-.143-2.081-.181-3.081l-.761.028c.04 1.011.102 2.058.186 3.112zM82.374 97.138c1.187.612 2.277 1.396 3.235 2.326.5.433.935.945 1.4 1.411l1.265 1.533 1.146 1.623 1.043 1.692c.607 1.181 1.267 2.331 1.761 3.569.563 1.2.989 2.467 1.458 3.713.263.614.416 1.267.627 1.9l.625 1.908 1 3.9.741 3.972.087-.226a38.9 38.9 0 0 1-5.871 4.152 40.14 40.14 0 0 1-6.5 3.018 28.34 28.34 0 0 1-6.867 1.619c-1.154.115-2.316.117-3.471.007a15.49 15.49 0 0 1-3.344-.742l-.683.077a.4.4 0 0 1 .289-.076c.075 0 .147.06.154.054s.014.018.014.018c-.004-.012-.009-.023-.016-.033a.3.3 0 0 1-.054-.107 3.17 3.17 0 0 1-.2-.784c-.082-.641-.115-1.288-.1-1.934 0-1.334.094-2.686.225-4.055l.1-1.032.024-.258a3.03 3.03 0 0 0 0-.336 8.56 8.56 0 0 0-.038-.567c-.078-.729-.221-1.45-.427-2.154a15.33 15.33 0 0 0-1.8-3.909l.066.161-1.319-4.951-.624-2.486a54.41 54.41 0 0 1-.549-2.5l-.151.017c.035.861.131 1.717.238 2.57s.217 1.707.363 2.553l.92 5.071.013.066.053.1c.645 1.154 1.133 2.389 1.451 3.672.156.628.257 1.268.3 1.914a6.7 6.7 0 0 1 .011.466 1.65 1.65 0 0 1-.008.181l-.035.256-.129 1.024c-.181 1.393-.288 2.795-.32 4.2-.012.733.032 1.466.131 2.192a4.6 4.6 0 0 0 .329 1.21 1.58 1.58 0 0 0 .19.346l.131.18a1.88 1.88 0 0 0 .205.191 1.23 1.23 0 0 0 1.4.117l-.682.077a17.03 17.03 0 0 0 3.732.721 19.4 19.4 0 0 0 3.757-.111c1.232-.155 2.449-.414 3.637-.776a26.32 26.32 0 0 0 3.462-1.27 46.15 46.15 0 0 0 6.407-3.511 67.92 67.92 0 0 0 5.919-4.238l.106-.086-.019-.14-.484-4.048c-.207-1.345-.463-2.684-.7-4.031-.33-1.325-.622-2.667-1.049-3.97s-.926-2.588-1.506-3.834a27.6 27.6 0 0 0-4.391-6.976c-.458-.516-.947-1.007-1.434-1.493-.506-.47-1.036-.912-1.589-1.325-1.085-.853-2.307-1.514-3.614-1.956z"/><path d="M140.484 224.297c-5.784 11.355-12.3 22.284-19.133 33.007 11.172 7.367 17.779 4.711 17.779 4.711 1.088-3.653 28.121-48.952 27.764-65.026s-65.026-32.7-65.026-32.7-20.145 6.317-36.166 7.733c.793 6.344 4.232 12.056 9.468 15.724a28.25 28.25 0 0 0 4.041 2.374 32.1 32.1 0 0 0 4.391 1.652 42.3 42.3 0 0 0 9.255 1.6c.784.038 1.568.114 2.352.114l2.359.023 4.741-.168c3.181-.145 6.37-.228 9.559-.2 6.41-.066 12.809.52 19.1 1.75a32.26 32.26 0 0 1 9.125 3.364 14.73 14.73 0 0 1 3.851 3.166c.547.651 1.017 1.364 1.4 2.123.376.766.655 1.577.829 2.413s.24 1.679.213 2.527a11.23 11.23 0 0 1-.365 2.5 39.83 39.83 0 0 1-1.537 4.6c-1.184 2.99-2.561 5.865-4 8.713z"/><path d="M88.995 205.849c20 0 29.316 2.192 35.892 1.37s5.837 1.827 5.837 1.827c0 7.672-22.155 36.9-22.155 36.9 3.762 4.315 8.059 8.133 12.786 11.363l9.315-16.629c3.044-5.571 6.028-11.18 8.767-16.9 1.362-2.862 2.671-5.746 3.828-8.669a38.68 38.68 0 0 0 1.454-4.437c.181-.725.282-1.468.3-2.215.021-.741-.046-1.482-.2-2.207-.586-2.93-2.824-5.236-5.465-6.736-2.732-1.475-5.669-2.532-8.714-3.135a93.3 93.3 0 0 0-18.783-1.857c-3.166-.046-6.332.015-9.5.137l-4.787.122-2.405-.076c-.807-.015-1.606-.114-2.4-.167-3.209-.265-6.379-.885-9.452-1.849a31.97 31.97 0 0 1-4.475-1.8c-1.443-.723-2.818-1.574-4.11-2.542-5.215-3.888-8.504-9.833-9.026-16.317-5.6.495-10.693.388-14.247-.792h-.008c-3.843 32.784 17.543 34.609 37.548 34.609zm6.447-80.015l1.318 2.66c.488.861.936 1.748 1.467 2.585 1.017 1.707 2.126 3.357 3.321 4.944 1.214 1.579 2.516 3.088 3.9 4.52a34.8 34.8 0 0 0 4.519 3.983l.1.07.147.017q9.475 1.068 18.966 1.994c1.582.16 3.168.276 4.756.4l2.388.165 1.21.057.661-.005.569-.031 9.5-.155 9.531-.093c.781 0 1.618-.035 2.357-.005.758.108 1.503.297 2.222.562 1.482.529 2.944 1.146 4.4 1.773l2.19.943c.368.155.736.308 1.116.451l.295.1c.086.036.267.055.351.079a2.74 2.74 0 0 1 .381.24 31.48 31.48 0 0 1 3.387 3.286c1.072 1.163 2.121 2.356 3.086 3.6a9.89 9.89 0 0 1 .664.946c.2.3.307.671.166.82-.113.187-.507.283-.862.3a5.1 5.1 0 0 1-1.121-.053l-.223-.035-.1.237a2.05 2.05 0 0 1-1.573 1.071c-.718.107-1.449.073-2.154-.1a11.69 11.69 0 0 1-4.071-1.766c-.626-.412-1.217-.885-1.853-1.345a7.19 7.19 0 0 0-2.158-1.156 5.06 5.06 0 0 0-2.519-.063c-.769.178-1.527.399-2.272.661-2.805 1.11-5.76 1.795-8.767 2.031a14.92 14.92 0 0 1-4.347-.535c-1.401-.421-2.732-1.048-3.948-1.862l-.232-.146-.252.029-20.49 2.052c-6.832.629-13.679 1.175-20.512 1.419-1.707.058-3.415.1-5.108.047-.846-.023-1.689-.069-2.512-.159-.775-.049-1.534-.249-2.232-.59a13.91 13.91 0 0 1-3.526-3.382 49.5 49.5 0 0 1-2.932-4.163c-1.833-2.88-3.475-5.892-5.058-8.934a188.71 188.71 0 0 1-4.509-9.257l-.14.058a137.26 137.26 0 0 0 8.856 18.655 46.47 46.47 0 0 0 2.868 4.351 14.91 14.91 0 0 0 3.815 3.768c.208.119.439.218.659.325.226.085.456.158.689.219.443.109.892.194 1.344.253.882.114 1.755.179 2.625.22 1.74.085 3.47.082 5.2.058 3.455-.038 6.894-.261 10.329-.483l10.291-.811c6.855-.6 13.684-1.4 20.516-2.226l-.484-.117a14.85 14.85 0 0 0 9.147 2.5c3.124-.294 6.185-1.065 9.075-2.288 1.439-.514 2.846-1.09 4.171-.711 1.328.353 2.486 1.453 3.824 2.269a12.45 12.45 0 0 0 4.381 1.764 6.2 6.2 0 0 0 2.419.041 2.61 2.61 0 0 0 2-1.528l-.323.2c.416.055.837.069 1.256.04.486.011.952-.193 1.274-.556a.89.89 0 0 0 .15-.4 2 2 0 0 0-.03-.387 2.4 2.4 0 0 0-.276-.614 10.3 10.3 0 0 0-.712-1 57.72 57.72 0 0 0-3.151-3.605c-1.084-1.181-2.236-2.297-3.45-3.343-.076-.066-.177-.123-.265-.184a.99.99 0 0 0-.383-.16c-.105-.032-.126-.026-.227-.061l-.268-.1c-.362-.141-.725-.3-1.087-.456l-2.175-.97c-1.453-.647-2.912-1.286-4.415-1.845-.764-.306-1.559-.531-2.37-.669-.846-.061-1.6-.046-2.407-.075l-9.532-.211c-3.183-.053-6.345-.148-9.558-.07l-.621.028h-.524l-1.17-.067-2.365-.187-4.739-.421-18.976-1.736.243.086c-1.593-1.108-3.088-2.351-4.469-3.714-1.404-1.367-2.729-2.812-3.97-4.328-1.224-1.531-2.434-3.084-3.5-4.736-1.1-1.633-2.085-3.339-3.05-5.061z"/><path d="M163.235 153.335l3.767.619a6.7 6.7 0 0 1 3.274 1.733l5.874 4.887.472-.6-6.11-4.589a8.78 8.78 0 0 0-1.624-1.058 6.58 6.58 0 0 0-1.855-.565zM49.873 128.621c-1.645-1.281-3.531-2.218-5.546-2.756a30.27 30.27 0 0 0-6.1-1.187c-1.031-.136-2.067-.145-3.1-.215q-1.553-.024-3.107.007l-3.1.174-1.544.153-.772.08-.386.04c-.079.007-.157.018-.234.033l-.227.05a6.82 6.82 0 0 0-5 4.561 11.7 11.7 0 0 0 .083 6.589 20.07 20.07 0 0 0 .978 3.038l.28.743.337.711.679 1.418a29.29 29.29 0 0 0 1.5 2.74l.79 1.345.75 1.28c1.981 3.533 3.719 7.198 5.2 10.968 1.514 3.78 2.779 7.655 3.786 11.6.974 3.958 1.706 7.973 2.193 12.02a90.22 90.22 0 0 0 2.078 12.154c.992 4.079 2.757 7.93 5.2 11.344a31.38 31.38 0 0 0 9.424 8.321 50.06 50.06 0 0 0 11.571 4.766c4.004 1.078 8.082 1.863 12.2 2.349 8.193.836 16.441 1.006 24.662.509 8.2-.45 16.346-1.351 24.433-2.613l-.025-.227c-8.165.513-16.319.97-24.465 1.055l-3.053.047-3.051-.037-3.049-.045-3.044-.132q-6.087-.251-12.113-.975c-3.998-.495-7.962-1.238-11.868-2.226a47.83 47.83 0 0 1-11.133-4.335c-3.472-1.917-6.545-4.482-9.051-7.557a33.06 33.06 0 0 1-5.437-10.592c-.602-1.934-1.097-3.899-1.483-5.887-.416-1.99-.732-4-1.028-6.025-.616-4.047-1.3-8.1-2.241-12.088a104 104 0 0 0-8.033-23.3l-.76-1.387-.724-1.32c-.464-.888-1.014-1.738-1.406-2.652l-.638-1.35-.316-.676-.255-.693-.52-1.382a12.59 12.59 0 0 1-.406-1.4c-.589-1.777-.658-3.685-.2-5.5a4.99 4.99 0 0 1 3.572-3.438l.146-.038a1.05 1.05 0 0 1 .145-.024l.375-.05.75-.1 1.5-.206c1-.131 2.007-.2 3.012-.3 1.006-.065 2.013-.106 3.021-.144 1.005.01 2.018-.041 3.021.032 2.015.064 4.019.306 5.991.725.985.213 1.954.494 2.9.842a11.78 11.78 0 0 1 2.693 1.334z"/><path d="M128.968 214.59q-10.657.843-21.328.963-10.671.12-21.287-.686c-3.538-.274-7.067-.679-10.565-1.284a60.91 60.91 0 0 1-10.306-2.626c-3.351-1.155-6.518-2.79-9.4-4.854a20.1 20.1 0 0 1-6.575-8.03l.022.059c-1.36-5.068-2.631-10.174-3.7-15.306-.536-2.565-1.021-5.14-1.387-7.722l-.243-1.936-.175-1.934c-.117-1.346-.317-2.684-.6-4.005-.239-1.329-.65-2.6-1-3.894-.43-1.261-.8-2.547-1.31-3.776-.926-2.5-2.035-4.907-3.161-7.3-2.332-4.752-4.936-9.365-7.8-13.816l.019.033c-.639-1.203-1.121-2.482-1.435-3.807a9.91 9.91 0 0 1-.178-4.025 6.09 6.09 0 0 1 1.914-3.47c1.062-.893 2.301-1.552 3.635-1.932l-.039-.147a9.6 9.6 0 0 0-3.878 1.749 6.66 6.66 0 0 0-2.3 3.656c-.299 1.434-.299 2.914 0 4.348a16.87 16.87 0 0 0 1.359 4.128h0l.018.031a148.9 148.9 0 0 1 7.323 13.9c1.07 2.384 2.143 4.771 3.015 7.225a32.39 32.39 0 0 1 .65 1.839l.616 1.848c.336 1.248.739 2.486.967 3.751.271 1.252.474 2.518.61 3.792l.211 1.995.278 1.977c.413 2.625.942 5.219 1.521 7.8q1.772 7.731 4.164 15.278l.012.038.01.022c1.63 3.266 4.075 6.057 7.1 8.1a39.83 39.83 0 0 0 9.575 4.844c6.77 2.354 13.787 3.924 20.914 4.679a145.6 145.6 0 0 0 21.433.665 178.21 178.21 0 0 0 21.32-2.007zm-43.362 53.088c2.158-1.545 4.211-3.207 6.225-4.912s3.977-3.465 5.916-5.252c1.921-1.807 3.821-3.637 5.648-5.545 1.881-1.868 3.609-3.883 5.168-6.027-1.965 1.767-4.02 3.415-5.988 5.168-1.989 1.727-3.929 3.506-5.866 5.292l-5.68 5.5c-1.854 1.88-3.69 3.766-5.423 5.776zm37.522-9.263a18.98 18.98 0 0 0-4.247 5.72 9.19 9.19 0 0 0-.943 3.627c.054 1.25.299 2.484.728 3.659.798 2.232 1.763 4.401 2.885 6.489a52.15 52.15 0 0 0 3.687 6.024c-.821-2.214-1.718-4.375-2.612-6.53-.873-2.16-1.785-4.3-2.518-6.47-.392-1.02-.639-2.09-.732-3.178.008-1.086.212-2.161.6-3.175a33.96 33.96 0 0 1 3.148-6.167z"/><path d="M97.482 256.722c.368 7.309 11.46 13.148 11.46 13.148 15.116 22.832 16.3 14.065 16.3 14.065s14.064 15.891 11.507 19.179-9.863 4.018-21.371-8.22-11.873-18.631-13.151-18.448-4.2 3.836-4.2 3.836l-12.421-12.6s10.042-8.784 11.876-11.244"/><path d="M93.55 332.046l-4.561-.151 3.674-111.22 4.561.151z"/><path d="M53.689 311.357l2.045-14.9a7.65 7.65 0 0 1 2.914-5.039l35.834-27.732-1.863-2.408-35.834 27.732a10.68 10.68 0 0 0-4.068 7.033l-2.045 14.9z"/><path d="M68.678 322.56l1.133-21.376a7.69 7.69 0 0 1 1.469-4.129l23.448-32.126-2.459-1.794-23.448 32.125c-1.229 1.681-1.941 3.683-2.05 5.762l-1.133 21.377z"/><path d="M118.366 322.555l3.04-.161-1.133-21.376c-.109-2.079-.821-4.082-2.05-5.763l-23.448-32.126-2.459 1.794 23.45 32.126a7.69 7.69 0 0 1 1.469 4.13zm59.509-192.722l1.294 3.311 1.788 3.014 3.432 5.8h1.324l-.206-.343-3.569-6.035-1.788-3.021-2.27-2.727zm8.356 3.79l.426 3.729.525 4.6h1.149l-.54-4.734-.419-3.729-1-3.661-.136 3.794zm4.711 8.334h-.723l.4-2.824.327-2.268.5-3.562 1.081-3.47.061 2.976v.662l-.145.982-.373 2.572-.708 4.932zm2.413 0h1.149l.715-4.932.51-3.554-.061-3.638-1.081 3.471-.5 3.562-.487 3.394z"/><path d="M192.454 133.783v.67l.008 2.831v4.671h1.142v-8.174l-.571-3.5-.434 2.527-.145.975zm-3.516.586l.4 3.478.464 4.11h1.149l-.32-2.824-.16-1.416-.388-3.478-.959-3.41-.186 3.54z"/><path d="M196.884 146.614v4.11l-.594-.061-1.712-3.843 2.306-.206zm-2.519.274l1.834 3.767-3.318-.236zm-.244-.038l-1.568 3.382-1.248-3.265 2.816-.114zm-3.212.441l1.286 3.105-2.435-.053zm-1.621-.3l1.195-.015-1.165 2.869-.989-2.869.959.015zm-1.469.723l1 2.626-1.918.038.921-2.664zm-.533-.753l-.944 2.717-1.233-2.793 2.177.076zm-2.6.35l1.172 3.1-2.618.16 1.446-3.257zm12.2-5.358v4.658c-2.524-.275-5.061-.402-7.6-.381l-1.393.015c-.067-.019-.138-.019-.205 0l-2.907.106c-.025-.009-.05-.014-.076-.015-.039 0-.078.008-.114.023l-2.9.251v-4.658zm-1.773 3.4a1.14 1.14 0 0 0 .864-1.933 1.14 1.14 0 0 0-1.964.791 1.14 1.14 0 0 0 1.1 1.142zm-4.11 0a1.14 1.14 0 0 0 .864-1.933 1.14 1.14 0 0 0-1.964.791 1.14 1.14 0 0 0 1.1 1.142zm-3.973-.137a1.14 1.14 0 0 0 .864-1.933 1.14 1.14 0 0 0-1.964.791 1.14 1.14 0 0 0 1.1 1.142zm-3.9.137a1.14 1.14 0 0 0 .864-1.933 1.14 1.14 0 0 0-1.964.791 1.14 1.14 0 0 0 1.1 1.142zm1.225 1.484l-1.218 3.737-1.438.145v-4.11l2.656.228zm10.016.046l1.834 3.767-3.318-.236zm-.244-.038l-1.574 3.387-1.248-3.265 2.816-.114zm-3.212.441l1.286 3.105-2.435-.053zm-1.621-.3l1.195-.015-1.164 2.869-.989-2.869.959.015zm-1.469.723l1 2.626-1.918.038.912-2.656zm-.533-.753l-.944 2.717-1.233-2.793 2.177.076zm-2.6.35l1.172 3.1-2.618.16 1.446-3.257zm9.681-.426l1.834 3.767-3.318-.236zm-.244-.038l-1.576 3.39-1.248-3.265 2.816-.114zm-3.212.441l1.286 3.105-2.435-.053zm-1.621-.3l1.195-.015-1.164 2.869-.989-2.869.959.015zm-1.469.723l1 2.626-1.918.038.921-2.664zm-.533-.753l-.944 2.717-1.233-2.793 2.177.076zm-2.6.35l1.172 3.1-2.618.16 1.446-3.257zm12.2 7.862v.944a7.6 7.6 0 0 1-11.471 6.799 7.6 7.6 0 0 1-3.72-6.799v-.944a75.99 75.99 0 0 0 15.191 0zm-10.7-4.133c.099.066.224.08.335.038.016-.009.031-.019.046-.03l2.725.053a68.54 68.54 0 0 0 7.6-.381v4.452a76 76 0 0 0-15.191 0v-4.452c1.483.187 2.975.278 4.474.331zm8.585 3.082a1.14 1.14 0 0 0 .864-1.933 1.14 1.14 0 0 0-1.964.791 1.14 1.14 0 0 0 1.089 1.154zm-3.493-.069a1.14 1.14 0 0 0 .864-1.933 1.14 1.14 0 0 0-1.964.791 1.14 1.14 0 0 0 1.089 1.154zm-3.836 0a1.14 1.14 0 0 0 .864-1.933 1.14 1.14 0 0 0-1.964.791 1.14 1.14 0 0 0 1.089 1.154zm-3.836-.137a1.14 1.14 0 0 0 .864-1.933 1.14 1.14 0 0 0-1.964.791 1.14 1.14 0 0 0 1.1 1.142zm-.365-3.349l1.446-3.257 1.172 3.1-2.618.16zm1.872-3.683a67.99 67.99 0 0 0 2.177.076l-.944 2.717-1.233-2.793zm1.789 3.493l.921-2.664 1 2.626-1.918.038zm1.431-3.4l.959.015 1.195-.015-1.164 2.869zm1.431 3.364l1.149-3.052 1.286 3.105-2.435-.053zm1.545-3.379l2.816-.114-1.58 3.392zm3.059-.076l1.834 3.767a54.22 54.22 0 0 0-3.318-.236zm-9.681.426l1.172 3.1-2.618.16 1.446-3.257zm2.6-.35l-.944 2.717-1.233-2.793a67.99 67.99 0 0 0 2.177.076zm.533.753l1 2.626-1.918.038.921-2.664zm1.469-.723l1.195-.015-1.164 2.869-.989-2.869.959.015zm1.621.3l1.286 3.105-2.435-.053zm3.212-.441l-1.577 3.389-1.248-3.265 2.816-.114zm.244.038l1.834 3.767a54.22 54.22 0 0 0-3.318-.236zm-9.681.426l1.172 3.1-2.618.16 1.437-3.253zm2.6-.35l-.944 2.717-1.233-2.793a67.99 67.99 0 0 0 2.177.076zm.533.753l1 2.626-1.918.038.921-2.664zm1.469-.723l1.195-.015-1.164 2.869-.989-2.869.959.015zm1.621.3l1.286 3.105-2.435-.053zm3.212-.441l-1.575 3.386-1.248-3.265 2.816-.114zm.244.038l1.834 3.767a54.22 54.22 0 0 0-3.318-.236zm-75.625 119.76a12.3 12.3 0 0 0-2.638.24 20.15 20.15 0 0 0-2.5.65c-.82.267-1.622.588-2.4.96a12.15 12.15 0 0 0-2.264 1.375 12.14 12.14 0 0 0 2.638-.238c.847-.163 1.682-.38 2.5-.652s1.621-.591 2.4-.963a12.3 12.3 0 0 0 2.265-1.373z"/></g><g fill="#fff" stroke="#5504b0"><rect width="49" height="79" rx="8" stroke="none" x="135.194"/><rect x="135.694" y=".5" width="48" height="78" rx="7.5" fill="none"/></g><g fill="#5504b0"><path opacity=".253" d="M144.194 12h31v9h-31zm11 13h20v9h-20z"/><rect width="28" height="9" rx="4.5" opacity=".335" x="146.194" y="63"/></g></svg>