<svg xmlns="http://www.w3.org/2000/svg" width="312.645" height="304.871" xmlns:v="https://vecta.io/nano"><defs><clipPath id="A"><path fill="none" d="M0 0h44.532v55.569H0z"/></clipPath></defs><path d="M0 123.766l.483 5.508 15.39 175.6h296.772V75.797" fill="#fbd206"/><g fill="#5504b0"><path d="M67.886 262.467l-1.337 3.477a25.35 25.35 0 0 1-6.611-6.492l1.87-6.675a11.34 11.34 0 0 0 .827 3.707 11.54 11.54 0 0 0 .875 1.71 10.95 10.95 0 0 0 1.13 1.575c.914 1.084 2.013 1.997 3.246 2.698z"/><path d="M82.525 264.401l3.731-.756-3.485 6.866a26.02 26.02 0 0 1-16.222-4.567l1.456-3.413a15.1 15.1 0 0 0 3.111 1.337 21.28 21.28 0 0 0 3.779.8c.636.088 1.273.056 1.917.1l1.917.016 3.796-.383zm55.308 3.508l.477 5.927c-5.537.247-10.366.032-10.366.032 0-.5-.421-2.745-1.122-6.118 2.315.31 4.65.438 6.985.382 1.345-.016 2.689-.095 4.026-.223z"/><path d="M137.125 259.897q.346 3.628.652 7.256l-3.994.374-3.469.167-3.492.056c-3.349-16.174-13.055-58.275-13.055-58.275l-27.511 54.17c-1.265.1-2.522.247-3.771.374-1.257.111-2.514.087-3.771.143-.621.016-1.249-.08-1.87-.1-.62-.048-1.249-.04-1.861-.143a21.54 21.54 0 0 1-3.628-.8 15.8 15.8 0 0 1-3.055-1.281l7.51-17.646 9.292-21.743q4.63-10.871 9.483-21.647l4.98-10.716 2.665-5.267c.469-.875.947-1.726 1.464-2.57a14.9 14.9 0 0 1 1.711-2.395 15.12 15.12 0 0 0-1.814 2.331c-.541.827-1.05 1.671-1.543 2.53-.987 1.7-1.909 3.453-2.832 5.2-1.8 3.508-3.5 7.065-5.187 10.629-3.349 7.144-6.508 14.368-9.658 21.592l-9.125 21.823q-3.6 8.879-7.08 17.813c-1.141-.635-2.177-1.443-3.071-2.395-1.705-1.835-2.845-4.122-3.286-6.587v-.016c12.244-42.786 18.7-45.2 21.576-59.628a242.12 242.12 0 0 0 3.827-25.784 4.29 4.29 0 0 0 3.126.915s-.6 3.238 2.522 3.238h4.567s-.6 2.522 2.522 2.4c1.949-.072 3.333-.987 4.94-1.695 2.853-1.254 4.688-4.083 4.67-7.2a19.47 19.47 0 0 0-.127-1.973l2.18-.422c2.776.247 5.609.382 8.441.35a276.48 276.48 0 0 0 4.065 27.821 160.74 160.74 0 0 0 3.326 13.731c.613 2.267 1.464 4.5 2.1 6.738.732 2.22 1.225 4.519 1.782 6.794a279.17 279.17 0 0 1 4.344 27.821c.556 4.662 1.018 9.34 1.455 14.017zm16.349 1.981l-1.44.987a13.26 13.26 0 0 1-1.512.835l-.756.414-.8.326a14.5 14.5 0 0 1-1.6.628l-1.639.533-1.671.438c-.557.159-1.122.255-1.686.374l-1.7.318-2.689.4c-.4-7.12-.979-14.225-1.695-21.321a263.15 263.15 0 0 0-4.185-27.932c-.565-2.291-1.074-4.6-1.83-6.842-.668-2.283-1.5-4.447-2.132-6.723-1.337-4.5-2.427-9.062-3.421-13.652s-1.846-9.213-2.609-13.851q-1.169-6.9-2.045-13.843c3.286-.021 6.566-.3 9.809-.835 2.84-.162 5.381-1.818 6.675-4.352 3.329 33.783 12.088 71.043 16.926 104.098z"/><path d="M138.31 273.836q-.131-2.971-.294-5.951l2.784-.366c2.323-.37 4.596-1 6.778-1.878 2.19-.864 4.193-2.141 5.9-3.763q.489 3.258.907 6.468c.512 3.903-8.445 5.14-16.075 5.49zM109.923 23.963s12.015 12.736 13.937 12.736c0 0-3.124 3.6-3.124 5.527 0 0-12.255-11.054-14.418-15.379z"/><path d="M109.352 162.31l5.136.242h5.128l5.1-.324 5.052-.684h.023.086a7 7 0 0 0 3.365-1.12c1.024-.661 1.879-1.554 2.495-2.606a15.4 15.4 0 0 0 1.924-7.205c.116-2.586-.032-5.178-.442-7.734l-.664-3.874-.624-3.9c-.826-5.2-1.237-10.451-1.841-15.662l-1.966-15.629q-1.955-15.627-4.239-31.192c-.764-5.187-1.564-10.369-2.567-15.508-.482-2.574-1.032-5.134-1.7-7.658a38.16 38.16 0 0 0-.528-1.886c-.174-.631-.393-1.243-.61-1.858a11.01 11.01 0 0 0-1.794-3.436l.1-.108a10.5 10.5 0 0 1 2.1 3.368c.262.608.526 1.217.743 1.84.234.619.462 1.24.654 1.871.8 2.516 1.481 5.066 2.091 7.629 1.182 5.135 2.164 10.309 3.025 15.5 1.708 10.383 2.889 20.836 3.943 31.292.528 5.229.917 10.471 1.358 15.706l.691 7.848c.247 2.609.621 5.206 1.094 7.783.45 2.592 1.1 5.1 1.634 7.709.551 2.611.819 5.274.8 7.942a15.49 15.49 0 0 1-2.045 7.859c-1.488 2.487-4.12 4.066-7.015 4.209l.109-.008a50.97 50.97 0 0 1-5.165.571c-1.728.1-3.458.129-5.184.1s-3.447-.12-5.163-.287c-1.715-.151-3.423-.376-5.121-.642zm-20.189-3.942a93.33 93.33 0 0 1-4.5-1.181c-1.494-.427-2.973-.874-4.444-1.407l-.326-.118.1-.39a32.15 32.15 0 0 0 .571-4.079l.379-4.189.694-8.4c.411-5.6.965-11.2 1.551-16.79 1.254-11.18 1.958-22.4 2.571-33.634q.5-8.421 1.183-16.831c.448-5.608.917-11.215 1.63-16.811q.264-2.1.59-4.2a24.09 24.09 0 0 1 .987-4.2c.932-2.723 2.26-5.294 3.943-7.629a49.54 49.54 0 0 1 12.185-11.727l.086.123c-2.18 1.759-4.234 3.67-6.146 5.718-1.921 2.015-3.657 4.2-5.185 6.527a28 28 0 0 0-3.553 7.4c-.388 1.314-.664 2.659-.826 4.02q-.292 2.069-.526 4.158L88.405 71.48l-1.619 16.785c-1.178 11.184-2.166 22.385-2.666 33.625-.294 5.616-.629 11.231-1.186 16.829l-.85 8.4a118.35 118.35 0 0 1-.537 4.194c-.169 1.427-.437 2.841-.8 4.232l-.23-.508c1.418.571 2.866 1.125 4.313 1.657s2.913 1.028 4.377 1.531z"/><path d="M104.397 33.094l5.047 5.692 5.068 5.643 5.226 5.477a56.46 56.46 0 0 0 5.66 5.034c-2.233-1.239-4.311-2.737-6.193-4.463l-2.793-2.61-2.637-2.761-4.928-5.821-4.45-6.191zm-6.969 13.937a17.37 17.37 0 0 1 4.1-1.286c1.421-.285 2.87-.399 4.318-.34a12.72 12.72 0 0 1 4.278.9c1.356.557 2.534 1.475 3.406 2.653a11.67 11.67 0 0 0-3.672-1.919l-.992-.261-1.013-.174a9.23 9.23 0 0 0-1.021-.127 9.81 9.81 0 0 0-1.03-.069c-1.389-.061-2.781-.024-4.165.111l-4.209.512zm-3.6 93.716l4.639 1.657 4.689 1.332c1.574.368 3.172.628 4.782.778a23.61 23.61 0 0 0 4.874-.162 13.58 13.58 0 0 1-4.9.943 22.47 22.47 0 0 1-4.983-.584c-1.622-.388-3.207-.917-4.738-1.579a24.14 24.14 0 0 1-4.363-2.385zm31.959-56.68a.75.75 0 0 0 .565-1.273.75.75 0 0 0-1.291.522.75.75 0 0 0 .726.751zm2.884 21.867a.75.75 0 0 0 .565-1.273.75.75 0 0 0-1.291.522.75.75 0 0 0 .722.751zm2.643 16.821a.75.75 0 0 0 .565-1.273.75.75 0 0 0-1.291.522.75.75 0 0 0 .722.75zm3.124 20.425a.75.75 0 0 0 .566-1.272.75.75 0 0 0-1.291.521.75.75 0 0 0 .725.751zm-23.864 8.257a25.44 25.44 0 0 1 .5 2.774 14.87 14.87 0 0 1 .116 2.844 5.62 5.62 0 0 1-.258 1.457l-.5 1.313a13.59 13.59 0 0 0-.683 2.621v-.11c.16.881.165 1.788.25 2.684a7.8 7.8 0 0 1-.451 2.742 7.98 7.98 0 0 1-3.473 4.182 10.3 10.3 0 0 1-1.226.592l-1.205.526c-.81.384-1.661.677-2.536.872a5.05 5.05 0 0 1-2.7-.107 1.84 1.84 0 0 1-1.019-.963 2.43 2.43 0 0 1-.136-1.4l.171.216-4.689.092a2.68 2.68 0 0 1-2.3-1.059c-.463-.753-.638-1.647-.492-2.519l.4.471c-.593.033-1.188-.015-1.769-.142-.618-.131-1.192-.417-1.67-.829a3.46 3.46 0 0 1-1-1.617 4.54 4.54 0 0 1-.138-1.867l.3.543c-.561-.223-1.105-.487-1.627-.79a3.6 3.6 0 0 1-1.433-1.407c-.18-.386-.206-.827-.071-1.231.131-.354.345-.672.625-.926.516-.469 1.171-.757 1.865-.822a5.17 5.17 0 0 0 2.886-1.09 3.95 3.95 0 0 0 1.345-2.655v.046l-.071-1.506.063-1.51a11.4 11.4 0 0 1 .683-2.949 7.84 7.84 0 0 1 1.575-2.573 5.95 5.95 0 0 1 2.487-1.636l.03.1a6.05 6.05 0 0 0-2.23 1.788 7.97 7.97 0 0 0-1.303 2.51 11.44 11.44 0 0 0-.472 2.809v1.434l.124 1.434v.034.013a4.8 4.8 0 0 1-1.562 3.413 6.2 6.2 0 0 1-3.441 1.4c-.462.042-.899.23-1.247.538-.149.133-.267.299-.343.484a.58.58 0 0 0 .03.452c.243.408.59.745 1.006.975a11.23 11.23 0 0 0 1.462.748l.357.159-.059.384a3.64 3.64 0 0 0 .08 1.435c.117.458.359.873.7 1.2a4.05 4.05 0 0 0 2.8.852h.48l-.077.476c-.133.679-.034 1.384.281 2 .395.57 1.049.902 1.742.885l2.332.067 2.34.04h.213l-.042.215c-.084.398-.052.811.094 1.191a1.52 1.52 0 0 0 .836.814c.815.251 1.684.268 2.508.049a9.9 9.9 0 0 0 2.4-.963l2.295-1.232c1.391-.954 2.435-2.334 2.974-3.932a7.9 7.9 0 0 0 .413-2.441l-.179-2.577-.009-.06.009-.051a14.21 14.21 0 0 1 .791-2.78c.166-.433.42-.9.573-1.279a5.02 5.02 0 0 0 .3-1.282 18.91 18.91 0 0 0 .08-2.757l-.213-2.787z"/><path d="M86.253 164.045l2.138.063c.694.071 1.396.008 2.067-.185.668-.216 1.277-.584 1.779-1.075l1.585-1.435-1.5 1.526c-.492.539-1.102.957-1.783 1.221-.69.244-1.419.354-2.15.325l-2.138.063zm4.085 3.965l2.244.055a4.36 4.36 0 0 0 2.071-.594c.624-.403 1.175-.91 1.627-1.5l1.506-1.679-1.411 1.76c-.432.63-.97 1.181-1.59 1.628-.653.431-1.403.691-2.182.757l-2.266.07zm7.03 3.251l2.017-.45a4.39 4.39 0 0 0 1.706-1.041 7.55 7.55 0 0 0 1.165-1.691l1.058-1.8-.948 1.861a7.73 7.73 0 0 1-1.093 1.8 4.7 4.7 0 0 1-1.759 1.222c-.7.249-1.35.385-2.027.583zm6.307-23.756a.75.75 0 0 0 .566-1.272.75.75 0 0 0-1.291.521.75.75 0 0 0 .725.751zm12.942-28.674c1.429-.3 2.837-.692 4.215-1.174a11.34 11.34 0 0 0 1.9-.915c.554-.287.972-.781 1.163-1.375l.749-3.953.141 4.031c.1 2.977-.2 5.959-.146 8.935l.383 8.929.072 4.471-.013 1.12a10.48 10.48 0 0 1-.051 1.174 4.4 4.4 0 0 1-1.036 2.268 4.3 4.3 0 0 1-2.1 1.294 12.38 12.38 0 0 1-2.282.333c-.772.053-1.547-.009-2.3-.185-.773-.17-1.441-.651-1.847-1.33l.084-.054c.469.548 1.135.888 1.853.947.713.085 1.435.064 2.143-.061.71-.11 1.411-.268 2.1-.471 1.258-.44 2.158-1.556 2.322-2.879.035-.3.034-.684.042-1.055l.018-1.112.092-4.457.214-8.928-.451-8.92.89.079c-.248.832-.831 1.524-1.608 1.91a9.5 9.5 0 0 1-2.13.855c-1.44.39-2.924.599-4.416.622zm14.392-29.52a8.56 8.56 0 0 1 3.308-3.949 17.48 17.48 0 0 0 2.2-1.156 19.51 19.51 0 0 0 1.919-1.538q.96-.807 1.869-1.663.459-.421.891-.865l.421-.449.456-.485c.706-.662 1.697-.927 2.64-.706a2.62 2.62 0 0 1 1.888 1.722c-.417-.707-1.152-1.169-1.97-1.238a2.4 2.4 0 0 0-2 .771l-.369.476c-.135.184-.275.338-.417.5q-.426.49-.875.952l-1.881 1.745c-.651.576-1.343 1.104-2.07 1.58-.751.424-1.539.777-2.356 1.054a7.08 7.08 0 0 0-1.962 1.382c-.613.575-1.177 1.2-1.686 1.868z"/><path d="M143.623 78.772l.679 4.746a44.94 44.94 0 0 0 1.047 4.632c.408 1.5 1.016 2.938 1.808 4.276.691 1.316 1.925 2.263 3.375 2.588h.026l.037.009c.596.174 1.238.081 1.76-.254.487-.446.797-1.052.875-1.707.098-.718.115-1.444.051-2.166-.041-.737-.188-1.464-.285-2.207a16.31 16.31 0 0 1 .608 2.162 8.31 8.31 0 0 1 .2 2.281 3.24 3.24 0 0 1-.977 2.229 2.52 2.52 0 0 1-1.187.548 3.25 3.25 0 0 1-1.292-.037l.063.013a4.8 4.8 0 0 1-2.415-1.01 7.65 7.65 0 0 1-1.685-1.919 15.96 15.96 0 0 1-1.841-4.571 30.22 30.22 0 0 1-.776-4.791 33.64 33.64 0 0 1-.074-4.825zm-3.564 3.12q0 2.673.264 5.321a35.85 35.85 0 0 0 .866 5.228 19.21 19.21 0 0 0 1.85 4.922 10.1 10.1 0 0 0 3.56 3.825c-1.63-.796-2.985-2.06-3.892-3.63a18.18 18.18 0 0 1-2-5 31.47 31.47 0 0 1-.763-5.317 31.83 31.83 0 0 1 .119-5.351zm2.845 7.912a.75.75 0 1 0-.725-.751.75.75 0 0 0 .725.751zm-9.155 23.224a23.89 23.89 0 0 1 4.233-5.66 21.86 21.86 0 0 1 5.741-4.238l1.647-.723.841-.311.392-.15.392-.166a22.45 22.45 0 0 0 3.034-1.612 12.9 12.9 0 0 0 4.72-4.775l.013-.026a6.5 6.5 0 0 0 .556-1.805 13.57 13.57 0 0 0 .164-1.964 15.49 15.49 0 0 0-.1-1.993l-.31-1.99.306.965.241.986a15.8 15.8 0 0 1 .3 2.018 10.58 10.58 0 0 1-.024 2.06 6.96 6.96 0 0 1-.516 2.067l.013-.026a12.49 12.49 0 0 1-4.84 5.3 21.36 21.36 0 0 1-3.164 1.71l-.42.173-.432.16-.813.291a17.07 17.07 0 0 0-1.581.674c-.523.233-1.016.531-1.526.793l-1.456.926a25.92 25.92 0 0 0-2.737 2.126 31.92 31.92 0 0 0-4.676 5.191z"/><path d="M143.921 83.302a7.12 7.12 0 0 1 .867-1.89 4.88 4.88 0 0 1 1.485-1.494 3.39 3.39 0 0 1 2.079-.511 5.48 5.48 0 0 1 2.063.581h0l.034.022a.66.66 0 0 0 .3.105c.079.005.154-.031.2-.095a1.42 1.42 0 0 0 .221-.719c.03-.612.007-1.226-.069-1.834a23.74 23.74 0 0 1-.009-3.838c.046-.66.162-1.313.347-1.948.057-.179.133-.351.227-.513a.92.92 0 0 1 .645-.479.8.8 0 0 1 .451.089 1.9 1.9 0 0 1 .254.148c.154.104.296.225.424.36a5.96 5.96 0 0 1 1.425 3.747l.187 3.728c.017.135.044.269.079.4 0 .038.065.116-.021.015-.019-.018-.04-.032-.064-.043-.043-.025-.091-.04-.141-.043-.078-.006-.156.013-.223.054-.068.05-.053.045-.053.045.128-.255.242-.517.342-.785a16.92 16.92 0 0 0 .556-1.757c.337-1.16.456-2.373.353-3.577a6.6 6.6 0 0 1-.034-1.989 4.8 4.8 0 0 1 .627-1.928l.171-.225c.073-.071.154-.138.234-.2.099-.058.204-.106.312-.143a1.58 1.58 0 0 1 .361-.009 1.64 1.64 0 0 1 .9.7 8.06 8.06 0 0 1 .913 1.726c.228.612.368 1.254.415 1.906a12.01 12.01 0 0 1 .024.964 5.62 5.62 0 0 1-.116.972l-.735 3.689a.67.67 0 0 0 0 .083c-.013-.009.032 0-.076-.073-.041-.011-.016-.01-.027-.009a.89.89 0 0 0 .169-.071c.129-.073.253-.156.369-.248a4.4 4.4 0 0 0 .653-.637c.386-.477.684-1.019.881-1.6a13.65 13.65 0 0 0 .391-3.7c-.012-1.271.047-2.542.178-3.807a2.9 2.9 0 0 1 .846-1.821 2.3 2.3 0 0 1 1.964-.662 1.64 1.64 0 0 1 .945.6 2.8 2.8 0 0 1 .466.942c.178.631.285 1.28.318 1.935.079 1.277.069 2.558-.031 3.834l-.2 1.911c-.043.338-.11.672-.2 1l-.026.11a.04.04 0 0 0 0-.026c-.005 0-.006-.017-.025-.071-.041-.07-.106-.123-.183-.149-.1-.019-.067 0-.032-.025a1.19 1.19 0 0 0 .137-.073c.451-.327.821-.752 1.084-1.243.257-.512.404-1.071.432-1.643.116-1.217.115-2.476.122-3.735l.047-1.94.017-.142.009-.071.034-.125c.032-.102.075-.201.129-.293l.247-.444a2.74 2.74 0 0 1 .781-.861 1.47 1.47 0 0 1 1.381-.12c.375.164.7.423.943.753a4.68 4.68 0 0 1 .743 1.983c.196 1.279.282 2.573.256 3.867v.945l.008.439a2.83 2.83 0 0 0 .073.4c.146.659.209 1.333.188 2.007a5.23 5.23 0 0 1-.485 2.028 4.04 4.04 0 0 1-1.36 1.607c-1.093.768-2.188 1.359-3.294 1.989l-6.638 3.649-6.606 3.68-3.232 1.954-1.551 1.07-.743.577-.664.659-.08-.061.643-.71.72-.623 1.505-1.162 3.148-2.121 6.486-3.925 6.548-3.793 3.148-1.981c.914-.672 1.448-1.744 1.433-2.879.015-.589-.045-1.177-.176-1.751a3.61 3.61 0 0 1-.095-.535l-.013-.507v-.948c.019-1.23-.067-2.46-.257-3.676-.074-.545-.258-1.069-.54-1.541-.13-.183-.304-.33-.506-.428a.41.41 0 0 0-.423.024c-.193.144-.354.326-.475.535l-.218.38c-.032.056-.107.2-.065.136v-.012l-.006.047-.012.093c-.051.566-.051 1.22-.065 1.843l-.176 3.827a5.02 5.02 0 0 1-.563 1.98 4.35 4.35 0 0 1-1.425 1.542c-.091.054-.186.101-.285.139a.8.8 0 0 1-.489.048.52.52 0 0 1-.359-.286c-.034-.054-.053-.116-.057-.18a1.23 1.23 0 0 1-.007-.144.7.7 0 0 1 .034-.2l.042-.149c.082-.281.146-.567.191-.856l.245-1.847a26.76 26.76 0 0 0 .133-3.728 8.2 8.2 0 0 0-.242-1.8c-.075-.535-.439-.985-.946-1.172a1.79 1.79 0 0 0-1.5.484 2.42 2.42 0 0 0-.748 1.525c-.171 1.241-.258 2.492-.259 3.745a13.88 13.88 0 0 1-.449 3.8 5.5 5.5 0 0 1-.953 1.688 4.77 4.77 0 0 1-.69.691c-.129.106-.266.201-.411.284-.084.048-.173.085-.267.109-.048.009-.097.007-.143-.007-.145-.09-.1-.128-.13-.173a.84.84 0 0 1-.008-.153c.148-1.3.485-2.5.686-3.743a5.26 5.26 0 0 0 .1-.906c.001-.309-.016-.618-.049-.926a6.4 6.4 0 0 0-.451-1.765c-.238-.562-.544-1.092-.91-1.58-.175-.2-.385-.435-.552-.447-.136-.028-.31.1-.449.338-.268.517-.425 1.083-.463 1.664-.06.595-.029 1.195.093 1.78.178 1.31.083 2.643-.279 3.915-.154.628-.343 1.248-.565 1.856-.116.325-.253.642-.412.949a.73.73 0 0 1-.209.222.53.53 0 0 1-.333.085.57.57 0 0 1-.2-.058.72.72 0 0 1-.11-.08.89.89 0 0 1-.23-.4 3.85 3.85 0 0 1-.114-.528c-.144-1.271-.203-2.55-.176-3.829a5.17 5.17 0 0 0-1.147-3.213c-.087-.096-.185-.182-.291-.256a1.09 1.09 0 0 0-.153-.093c-.06-.033-.018 0 0-.016.062-.018-.008 0-.063.1a1.82 1.82 0 0 0-.157.349 8.6 8.6 0 0 0-.335 1.767c-.116 1.238-.148 2.483-.094 3.725a11.09 11.09 0 0 1 0 1.945 1.88 1.88 0 0 1-.4 1.034.79.79 0 0 1-.643.253c-.21-.022-.409-.1-.578-.226l.037.023-.9-.393a4.39 4.39 0 0 0-.949-.207 2.99 2.99 0 0 0-1.874.358 4.59 4.59 0 0 0-1.463 1.331c-.403.547-.728 1.147-.965 1.784z"/><path d="M148.837 79.88l-4.469-6.217 24.057-14.923 8.6 7.03-5.813 3.83-.276-.418 5.244-3.456-7.8-6.372-23.3 14.453 4.155 5.782z"/><path d="M150.256 70.305a15.91 15.91 0 0 1 1.258-2.976c.508-.966 1.12-1.873 1.825-2.706.376-.441.814-.824 1.3-1.139a2.02 2.02 0 0 1 .968-.312c.202-.005.403.038.585.127.158.084.298.198.414.335a2.17 2.17 0 0 1 .692 1.66 1.68 1.68 0 0 1-1.058 1.3 1.67 1.67 0 0 0 .567-1.308c-.1-.442-.364-.83-.739-1.084-.104-.115-.259-.172-.413-.152a1.2 1.2 0 0 0-.511.24c-.394.286-.748.622-1.055 1-.677.759-1.288 1.614-1.917 2.459l-1.916 2.556zm-36.729 139.233l-10.448-36.5.472-.169c1.432 4 10.368 36.209 10.459 36.534zm-52.935 50.82c-.225.994-.515 1.968-.822 2.936s-.665 1.919-1.018 2.873c-.39.939-.776 1.881-1.239 2.791a18.77 18.77 0 0 1-.753 1.337c-.142.215-.295.422-.459.621-.148.217-.371.37-.626.431.457-.215.641-.744.871-1.174a19.32 19.32 0 0 0 .617-1.377l1.123-2.813 1.123-2.82 1.183-2.805zm12.122 8.726c-.203.854-.481 1.689-.831 2.494l-.532 1.189c-.186.389-.4.771-.537 1.191-.027-.449.031-.899.171-1.326a10.71 10.71 0 0 1 .437-1.247 10.55 10.55 0 0 1 1.288-2.301z"/><path d="M100.831 298.435c-.833-1.621-2.262-2.855-3.986-3.445-9.6-3.485-21-18.227-24.13-21.035-3.325-2.975-6.587 2.442-10.907 3.516s-3.787-5.219-7.216-5.951-5.585 13.167-5.585 13.167l-2.164 4.32c2.347 1.806 8.831 4.145 8.831 4.145l2.458-1.44c17.6 11.719 38.275 13.159 38.275 13.159 5.473-1.519 5.473-4.296 4.424-6.436zm-44.918-9.2c-.702-.246-1.386-.544-2.044-.891a15.89 15.89 0 0 1-3.6-2.578c1.361.542 2.687 1.169 3.97 1.878l1.909 1.018a11.38 11.38 0 0 0 1.981.883 4.69 4.69 0 0 1-2.216-.302zm26.437-1.058c-.469.271-.931.477-1.384.7l-1.337.676c-.891.446-1.742.939-2.689 1.432a4.36 4.36 0 0 1 1.01-1.241 6.19 6.19 0 0 1 1.313-.9c.944-.512 2.015-.744 3.087-.668zm-2.7-3.493a20.01 20.01 0 0 0-3.5 1.607c-1.13.621-2.22 1.3-3.429 1.886a8.23 8.23 0 0 1 1.392-1.44c.515-.43 1.069-.81 1.655-1.138s1.213-.589 1.862-.772c.655-.198 1.345-.247 2.021-.143zm-7.741-2.729a14.35 14.35 0 0 1 2.45-.835c.843-.244 1.736-.258 2.586-.04a8.63 8.63 0 0 0-2.411.636c-.772.3-1.535.621-2.3.971-1.536.668-3.047 1.392-4.662 2 1.304-1.115 2.763-2.034 4.332-2.728zm22.316 18.8c-.732-.056-1.472-.088-2.2-.191-1.448-.191-2.9-.366-4.344-.668-5.783-1.083-11.38-2.99-16.62-5.664-1.313-.66-2.593-1.384-3.85-2.14-1.246-.767-2.448-1.604-3.6-2.506 2.483 1.529 5.06 2.898 7.717 4.1 5.293 2.42 10.815 4.302 16.484 5.617 2.824.692 5.7 1.13 8.6 1.583l-2.192-.128zm36.777-26.812c.386 1.455.681 2.933.882 4.425a35.6 35.6 0 0 1 .387 4.495c-.387-1.455-.682-2.932-.882-4.424a36.05 36.05 0 0 1-.387-4.495zm13.854-.66c.332 1.351.552 2.7.8 4.052a52.8 52.8 0 0 0 .381 2.01c.07.33.157.657.26.978.047.159.112.313.194.458a.44.44 0 0 0 .381.263.46.46 0 0 1-.486-.181c-.121-.134-.226-.281-.313-.439a6.06 6.06 0 0 1-.412-.974 14.72 14.72 0 0 1-.5-2.027c-.245-1.366-.345-2.753-.3-4.14z"/><path d="M168.86 289.584q-2.315-.573-4.32-1.146a10.25 10.25 0 0 1-4.423 3.453c.54-.782 1.203-1.47 1.965-2.037a9.05 9.05 0 0 1 2.458-1.416l-5.068-1.567c-.646.889-1.415 1.681-2.283 2.355-.847.702-1.787 1.286-2.792 1.734.656-.881 1.426-1.67 2.291-2.347a11.9 11.9 0 0 1 2.785-1.742c-9.189-3.119-11.838-5.7-12.6-5.824 0 0-3.795 7.94-14.6 1.814.811-.955-4.733 2.681-3.095 8.123.968 3.111.968 6.444 0 9.555h9.141s1.106-6.667 6.54-3.6l4.535 3.6s22.849 1.631 31.775-2.212c-2.599.612-5.262.908-7.932.883-2.665.048-5.33-.048-7.988-.183-2.657-.167-5.306-.366-7.948-.668-2.649-.286-5.283-.613-7.908-1.066l7.956.461 7.948.477 7.94.366c1.321.032 2.649.056 3.97.016 1.325 0 2.649-.096 3.96-.286a6.57 6.57 0 0 0 3.009-2.2s1.622-2.361-15.316-6.543zm-33.557 6.953a10.84 10.84 0 0 1-1.83-.135c-1.211-.178-2.386-.543-3.485-1.082 1.21-.011 2.419.087 3.612.294l1.758.31c.589.1 1.162.223 1.782.286a4.45 4.45 0 0 1-1.838.326zm16.007-9.77a10.01 10.01 0 0 1-2.639 1.417 10.19 10.19 0 0 1 2.172-2.053 10.33 10.33 0 0 1 2.633-1.408c-.613.79-1.343 1.481-2.166 2.05zM109.923 23.963a23.68 23.68 0 0 1 .945-2.414l.5-1.171a4.75 4.75 0 0 0 .358-1.22c.129.434.135.896.016 1.333-.099.431-.238.852-.414 1.258-.346.809-.821 1.556-1.405 2.214z"/><path d="M119.775 16.273s-6.75 4.96-8.361 4.583c0 0-1.491-8.668.331-12.032 1.13-2.086 3.224-10.092 15.359-8.651s12.976 13.216 12.976 13.216a49.12 49.12 0 0 1-3.484.421 49.63 49.63 0 0 1-10.092-.18c0 0-2.764-4.085-5.769-.724-.627 1.011-.96 2.177-.96 3.367z"/><path d="M140.08 13.39l-.732 4.821c-.065.367-.08.74-.046 1.111a4.52 4.52 0 0 0 .5 1.015l1.345 2.031a5.44 5.44 0 0 1 .613 1.178c.051.15.071.309.06.467a1.06 1.06 0 0 1-.2.486 1.55 1.55 0 0 1-.7.468l-.609.189c-.167.038-.361.155-.287.108.017-.026.028-.055.033-.085 0-.044-.007.043-.012.076l-.019.132-.087.334q-.092.31-.2.6c-.577 1.566-1.339 3.059-2.269 4.445a10.35 10.35 0 0 1-3.7 3.492c-1.642.725-3.531.624-5.086-.272a5.57 5.57 0 0 1-1.03-.754l-.942-.808-.469-.4c-.183-.146-.262-.247-.39-.281-.33-.069-.674-.005-.957.179a5.91 5.91 0 0 0-1.771 1.535c-.508.63-.943 1.317-1.295 2.046a8.81 8.81 0 0 1 1.081-2.2 6.26 6.26 0 0 1 1.743-1.8c.395-.282.89-.387 1.366-.289.133.034.257.096.364.182l.26.194.478.365.954.73c1.481 1.233 3.535 1.514 5.293.725a9.65 9.65 0 0 0 3.27-3.2c.894-1.314 1.635-2.726 2.208-4.208q.109-.276.2-.549l.076-.254v-.018c0-.017.005.02.014-.074.01-.132.058-.259.137-.366a.99.99 0 0 1 .435-.323 2.76 2.76 0 0 1 .345-.115l.562-.155a.8.8 0 0 0 .32-.172c.015-.022.026-.046.033-.071-.005-.045-.013-.09-.024-.134a4.91 4.91 0 0 0-.465-1l-1.234-2.113a4.96 4.96 0 0 1-.5-1.2 4.06 4.06 0 0 1 .111-1.313l1.223-4.755zm-20.305 2.884a3.99 3.99 0 0 0 .908 1.987 2.38 2.38 0 0 0 .873.575c.358.136.726.243 1.1.321a4.78 4.78 0 0 1-.6.1c-.207.008-.414-.009-.617-.051a2.09 2.09 0 0 1-1.119-.6c-.58-.628-.789-1.514-.549-2.335z"/><path d="M126.503 13.63l3.228.839 3.188.966 3.152 1.076 3.111 1.2-3.229-.838-3.187-.967-3.152-1.077-3.111-1.199zm8.17 6.037a.75.75 0 0 0 .566-1.272.75.75 0 0 0-1.291.521.75.75 0 0 0 .725.751z"/><path d="M136.115 22.547l1.926-6.487 1.44.427-1.926 6.487zm-11.863 6.222a6.22 6.22 0 0 1-2.236-3.655 5.92 5.92 0 0 1-.054-2.191 6.17 6.17 0 0 1 .7-2.046 12.3 12.3 0 0 0-.309 2.085 7.54 7.54 0 0 0 .155 2.049c.136.676.356 1.333.655 1.955a10.43 10.43 0 0 0 1.089 1.803zm-2.348-13.575a1.18 1.18 0 0 1 .464.39c.062.118.108.234 0 .33s-.364.173-.423.276 0 .22.126.347a.83.83 0 0 1 .254.363.52.52 0 0 1 .049.337c-.1.208-.3.4-.8.557l-.149-.019c-.452-.278-.595-.517-.637-.743a.52.52 0 0 1 .133-.313.84.84 0 0 1 .338-.287c.154-.09.249-.188.209-.3s-.256-.253-.339-.374-.007-.221.083-.32c.157-.133.345-.223.547-.26z"/><path d="M121.536 16.512a17.32 17.32 0 0 0 .1 13.363c1.014 2.106 2.294 4.08 3.463 6.092l1.83 2.948c.31.467.643.917 1 1.349a5.13 5.13 0 0 0 .54.55 1.04 1.04 0 0 0 .432.239l-.309.13a5.08 5.08 0 0 0 .957-1.432 7.6 7.6 0 0 0 .534-1.763 9.72 9.72 0 0 0 .172-1.885l-.02-.964-.084-.97.1-.022a11.84 11.84 0 0 1 .473 1.923c.093.666.12 1.339.082 2.01a7.75 7.75 0 0 1-.426 2.008 5.1 5.1 0 0 1-1.1 1.856l-.124.128h-.185a1.81 1.81 0 0 1-1.151-.428c-.258-.201-.493-.431-.7-.685-.393-.465-.748-.96-1.063-1.481l-1.718-3.1-2.981-6.368a15.24 15.24 0 0 1-2.01-6.807c-.008-1.206.166-2.407.515-3.561.326-1.153.865-2.234 1.589-3.189z"/><path d="M128.987 41.564c.363 4.169.654 8.321.8 12.487.052 2.084.061 4.175.239 6.253.067 1.041.23 2.073.341 3.109.146 1.033.318 2.062.487 3.09.389 2.033.705 4.144 1.14 6.1a7.13 7.13 0 0 0 3.474 4.483 11.91 11.91 0 0 0 5.8 1.278 27.45 27.45 0 0 0 6.1-.973l.029.1a20.9 20.9 0 0 1-6.1 1.65c-2.176.217-4.369-.171-6.338-1.122a7.68 7.68 0 0 1-2.539-2.156 8.38 8.38 0 0 1-1.368-3.014c-.243-1.089-.334-2.092-.481-3.141s-.228-2.082-.324-3.124l-.54-6.248c-.206-2.079-.519-4.149-.735-6.231s-.279-4.174-.3-6.264c-.006-2.092.023-4.184.2-6.274zm9.178-12.539c-1.038.039-2.069-.191-2.992-.667a3.52 3.52 0 0 1-1.228-1 2.1 2.1 0 0 1-.436-1.491 3.38 3.38 0 0 0 1.9 2.049 20.98 20.98 0 0 0 2.756 1.109zM114.92 53.714a1.72 1.72 0 0 1 .414.664 4.83 4.83 0 0 1 .259.715c.156.481.285.971.385 1.467.247.982.358 1.986.543 2.979l.371 3 .266 3.012c.178 2.009.239 4.023.365 6.035l.208 6.041.07 12.084-.043 6.042-.157 6.039-.179 6.038-.271 6.034-.617 12.063-1.26 24.12-.006.11-.094.043a19.76 19.76 0 0 1-6.32 1.7 16.78 16.78 0 0 1-6.525-.622 8.97 8.97 0 0 1-1.555-.554 9.76 9.76 0 0 1-1.5-.7l-1.433-.83c-.451-.315-.877-.667-1.317-1l-.655-.506c-.209-.179-.393-.385-.591-.576l-1.167-1.17c-.733-.818-1.368-1.719-2.056-2.577l-.063-.079-.005-.131-.572-23.255-.025-23.264q.149-11.633.83-23.255c.246-3.872.541-7.742 1.007-11.6a70.42 70.42 0 0 1 .938-5.751 27.48 27.48 0 0 1 .729-2.825 7.52 7.52 0 0 1 1.3-2.611l.073.068a7.41 7.41 0 0 0-1.185 2.6 27.21 27.21 0 0 0-.633 2.823c-.34 1.9-.563 3.824-.759 5.748-.4 3.848-.626 7.715-.806 11.581-.352 7.736-.417 15.484-.48 23.23l.039 23.243.336 23.243-.068-.21c.654.839 1.256 1.727 1.953 2.531l1.109 1.148c.188.188.363.391.561.567l.623.5c.418.327.824.674 1.253.985l1.366.82a9.31 9.31 0 0 0 1.432.693c.478.232.977.42 1.49.559a16.31 16.31 0 0 0 6.317.71c2.138-.164 4.233-.691 6.194-1.56l-.1.153 1.179-24.119.359-12.068.289-12.067.256-24.132-.086-6.031-.243-6.024-.177-3.009-.267-3c-.15-.99-.227-2-.438-2.976a13.02 13.02 0 0 0-.331-1.464 4.74 4.74 0 0 0-.23-.71l-.143-.343c-.057-.1-.124-.194-.2-.281zm5.3 77.151c.304.011.584-.164.708-.442s.066-.603-.145-.822-.534-.287-.816-.173-.466.388-.466.692c0 .402.319.731.72.745zm148.871-21.651h-59.4c-2.12-.002-3.838-1.72-3.84-3.84V3.84c.003-2.119 1.721-3.837 3.84-3.839h59.4c2.119.002 3.837 1.72 3.84 3.839v101.535c-.003 2.119-1.721 3.837-3.84 3.839zm-59.4-105.926a.55.55 0 0 0-.549.548v101.539a.55.55 0 0 0 .549.549h59.4a.55.55 0 0 0 .549-.549V3.84a.55.55 0 0 0-.549-.548z"/><path d="M252.031 4.666h-25.277a1.37 1.37 0 0 1-1.219-2.068 1.37 1.37 0 0 1 1.219-.675h25.277a1.37 1.37 0 0 1 1.219 2.068 1.37 1.37 0 0 1-1.219.675zm10.45 71.674h-46.177V19.122h46.177zm-44.531-1.645h42.888V20.766H217.95zm-11.862-6.472a2.67 2.67 0 0 1 .663.8 2.67 2.67 0 0 1 .686-.781 1.96 1.96 0 0 1 1.233-.346 2.14 2.14 0 0 1 1.449.581c.382.355.596.854.592 1.375a4.55 4.55 0 0 1-1.266 2.729 27.41 27.41 0 0 1-2.67 2.622l-.113.1-.11-.1a27.4 27.4 0 0 1-2.594-2.7 4.55 4.55 0 0 1-1.188-2.764c.01-.521.239-1.013.63-1.357a2.14 2.14 0 0 1 1.465-.54c.439-.013.869.121 1.223.381zm1.411 14.211h63.787v2.194h-63.787zm0 5.824h63.787v2.194h-63.787z"/><circle cx="220.501" cy="98.166" r="3.554"/><circle cx="233.095" cy="98.166" r="3.554"/></g><g transform="translate(217.127 19.945)" clip-path="url(#A)" fill="#5504b0"><path d="M-.474 59.735c.992-.827 1.813-1.839 2.418-2.98a26.39 26.39 0 0 0 1.615-3.509c.927-2.413 1.6-4.91 2.339-7.407l.3-.936a4.25 4.25 0 0 1 .179-.47l.247-.478c.385-.572.869-1.071 1.429-1.472a16.5 16.5 0 0 1 3.483-1.9c1.21-.51 2.451-.93 3.685-1.336l.911-.308a1.22 1.22 0 0 0 .646-.389 2.92 2.92 0 0 0 .474-1.607v-.019c.006-.159.118-.294.273-.331l1.567-.366.783-.183.2-.046c.067-.016-.025 0-.036.019s-.03.03-.028.025a.71.71 0 0 0 .061-.235c.041-.505.032-1.013-.026-1.516l-.186-1.563.31.266a9.08 9.08 0 0 1-2.975-.552 3.88 3.88 0 0 1-2.231-2.071c-.359-.955-.474-1.984-.336-2.995.08-.989.335-1.957.383-2.9a11.72 11.72 0 0 1 .476-2.928c.267-.935.472-1.887.613-2.85a16.84 16.84 0 0 1 1.751-5.62l.126.208a5.62 5.62 0 0 1-2.246-.379 1.79 1.79 0 0 1-.887-.8c-.18-.381-.206-.816-.073-1.216.022-.069.089-.114.161-.108h.008a2.59 2.59 0 0 0 2-1.1c.544-.657 1.144-1.267 1.792-1.822a6.6 6.6 0 0 1 2.351-1.106 13.89 13.89 0 0 1 2.531-.457c1.732-.202 3.488.026 5.11.666a8.79 8.79 0 0 1 2.2 1.439c.342.302.64.651.884 1.037a2.58 2.58 0 0 1 .3.667 1.81 1.81 0 0 1 .067.385 1.21 1.21 0 0 1-.047.464l-.145-.443a15.4 15.4 0 0 1 2.647 2.334c.821.874 1.472 1.894 1.917 3.008.113.285.2.579.261.879a4.47 4.47 0 0 1 .127.918c.018.311.007.622-.033.931-.03.309-.12.6-.179.9-.341 1.139-.839 2.225-1.48 3.226-1.257 1.956-2.71 3.78-4.337 5.442l-.3.312-.153.154-.077.077-.039.057a1.93 1.93 0 0 0-.281.622c-.142.529-.239 1.069-.289 1.614-.111 1.123-.157 2.252-.137 3.38l-.415-.4 1.708.014a.4.4 0 0 1 .4.391v.009a9.31 9.31 0 0 0 .669 3.094c.189.491.431.961.721 1.4.324.431.675.84 1.051 1.226 1.526 1.574 3.224 3.017 4.857 4.524l2.419 2.312 2.252 2.458c.399.399.765.83 1.092 1.29A3.97 3.97 0 0 1 45 52.276a12.03 12.03 0 0 1-.124 3.344c-.003.023-.023.039-.046.036s-.039-.023-.036-.046a11.91 11.91 0 0 0-.007-3.3 3.71 3.71 0 0 0-.636-1.468 9.85 9.85 0 0 0-1.109-1.205l-2.322-2.386-2.461-2.224-4.99-4.452a13.3 13.3 0 0 1-1.137-1.284c-.333-.481-.611-.998-.83-1.54a10.01 10.01 0 0 1-.781-3.375l.4.4-1.708.014a.41.41 0 0 1-.415-.4c-.025-1.165.017-2.329.128-3.489.053-.597.158-1.188.313-1.767.085-.334.234-.648.44-.925a1.34 1.34 0 0 1 .165-.19l.149-.151.3-.306a33.46 33.46 0 0 0 4.2-5.311 12.21 12.21 0 0 0 1.408-2.992 4.84 4.84 0 0 0-.122-3.117 8.81 8.81 0 0 0-1.736-2.771 14.69 14.69 0 0 0-2.478-2.23l-.145-.443c.007-.054.009-.108.006-.162a1.06 1.06 0 0 0-.04-.235 1.89 1.89 0 0 0-.209-.485 4.14 4.14 0 0 0-.735-.887 8.13 8.13 0 0 0-1.986-1.35 10.23 10.23 0 0 0-4.791-.708 13.35 13.35 0 0 0-2.441.377 6.1 6.1 0 0 0-2.213.969 14.69 14.69 0 0 0-1.779 1.736 5.04 5.04 0 0 1-1 .844 2.2 2.2 0 0 1-1.309.323l.168-.107a1.32 1.32 0 0 0 .04.956 1.47 1.47 0 0 0 .734.666c.673.264 1.393.389 2.116.368.038 0 .075.016.101.043s.041.064.041.102c-.001.022-.006.043-.016.063-.439.867-.815 1.764-1.126 2.684-.323.916-.53 1.869-.614 2.837-.2 1.973-1.037 3.82-1.024 5.746-.035 1.018-.257 1.964-.309 2.929-.105.939.025 1.888.376 2.765a3.36 3.36 0 0 0 1.995 1.744c.896.298 1.836.445 2.78.435h.008c.149.008.273.118.3.265l.234 1.606c.07.556.082 1.117.037 1.675a1.26 1.26 0 0 1-.165.525.58.58 0 0 1-.162.171.73.73 0 0 1-.221.09l-.193.047-.772.188-1.544.375.274-.35a3.58 3.58 0 0 1-.619 2.066c-.127.164-.284.303-.463.409-.162.091-.332.165-.509.221l-.936.306-3.646 1.278c-1.186.457-2.313 1.054-3.356 1.78a5.16 5.16 0 0 0-1.284 1.285 9.24 9.24 0 0 0-.689 1.731l-2.538 7.375c-.499 1.208-1.09 2.376-1.77 3.492a9.63 9.63 0 0 1-2.593 2.913c-.009.006-.02.009-.031.007s-.021-.009-.027-.018c-.011-.017-.008-.039.006-.053z"/><path d="M20.053 16.883c.343-.225.725-.381 1.127-.461a4.07 4.07 0 0 1 1.229-.073 3.45 3.45 0 0 1 1.195.332 2.75 2.75 0 0 1 .965.751 10.43 10.43 0 0 0-1.1-.38 6.23 6.23 0 0 0-1.1-.2 12.57 12.57 0 0 0-2.316.031zm-5.126 2.159a2.57 2.57 0 0 1 1.4-.44 1.97 1.97 0 0 1 1.408.44l-1.392.068c-.473.026-.947.003-1.415-.068zm7.383 2.5a.76.76 0 0 0 .723-.453c.126-.285.068-.616-.148-.84a.76.76 0 0 0-.834-.177c-.288.117-.477.396-.477.707.001.411.327.748.738.761zm-5.98.427a.76.76 0 0 0 .723-.453c.126-.285.068-.616-.148-.84a.76.76 0 0 0-.834-.177c-.288.117-.477.396-.477.707 0 .411.327.749.738.762zm.606 5.976a4.89 4.89 0 0 0 1.281-.113c.201-.048.398-.108.591-.181l.647-.239a1.63 1.63 0 0 1-1.122.915 1.43 1.43 0 0 1-1.4-.382zm13.075.962a22.49 22.49 0 0 1-3.643 2.223c-1.265.649-2.642 1.05-4.058 1.181a11.01 11.01 0 0 0 3.941-1.407 22.16 22.16 0 0 0 3.435-2.389l.008-.006c.107-.091.268-.077.359.03s.077.268-.03.359zm-11.789-8.128a2.49 2.49 0 0 1-.052 1.539c-.088.254-.213.494-.369.713-.157.18-.304.37-.438.568-.226.366-.279.789.052 1.015a2.41 2.41 0 0 0 1.356.254 2.42 2.42 0 0 1-.742.212 1.4 1.4 0 0 1-.819-.126c-.294-.147-.488-.438-.51-.766a1.5 1.5 0 0 1 .228-.852 4.9 4.9 0 0 1 .493-.6 3.3 3.3 0 0 0 .385-.573 3.99 3.99 0 0 0 .417-1.385zm14.227 5.01c.741-1.4.418-1.9-.375-3.424s-4.088 1.647-4.088 1.647v-5.493c1.525-.917 1.647-4.209 0-5.979s-10.007.61-10.007.61h0c-3.9 0-3.048-2.194-3.048-2.194 1.829.12 2.563-2.2 4.516-3.3s6.954-1.829 9.882 0 2.442 3.172 2.442 3.172 4.76 3.176 4.76 7.078c0 2.39-2.056 5.419-3.876 7.633m9.122 22.512c-2.441-2.8-8.419-7.2-9.642-9.4-.826.989-1.71 1.926-2.605 2.84s-1.821 1.8-2.758 2.681a.41.41 0 0 1-.58-.023c-.059-.06-.096-.138-.105-.222v-.006a87.33 87.33 0 0 1-.457-4.127c-.117-1.381-.2-2.769-.2-4.162l-5.556 7.412-2.026-6.294-.228.193s0 1.516-.82 2.1a5.73 5.73 0 0 1-1.745 3.36 5.68 5.68 0 0 1 1.745-3.36c-.05.036-.103.067-.158.094-.978.492-8.788 2.318-10.005 5.491S3.587 56.835-.447 59.762l29.77-2.728a34.58 34.58 0 0 1 2.113-2.922 27.93 27.93 0 0 1 2.752-3.015l-3.829 5.843 14.472-1.329c.603-4.875-.615-4.752-3.055-7.557zm-32.74-1.469c-.3.89-.662 1.756-1.03 2.617-.386.855-.784 1.7-1.235 2.529-.441.838-.948 1.638-1.516 2.395a51.88 51.88 0 0 1 1.991-5.257c.381-.849.773-1.7 1.2-2.535.416-.845.879-1.666 1.388-2.459a21.21 21.21 0 0 1-.8 2.711zm4.947 8.3a.76.76 0 1 1 .735-.761.76.76 0 0 1-.735.761zm3.079-7.505a.76.76 0 1 1 .738-.761.76.76 0 0 1-.738.766zm13.852-13h-1.7l-3.788 1.253c.351 1.346.621 2.711.861 4.075a93.72 93.72 0 0 1 .509 3.337c.755-.685 1.522-1.364 2.307-2.014.984-.825 1.979-1.633 3.033-2.377a9.74 9.74 0 0 1-1.218-4.274z"/></g></svg>