<svg xmlns="http://www.w3.org/2000/svg" xmlns:xlink="http://www.w3.org/1999/xlink" width="312.645" height="304.871" viewBox="0 0 312.645 304.871">
  <defs>
    <clipPath id="clip-path">
      <rect id="Rectangle_42072" data-name="Rectangle 42072" width="44.532" height="55.569" transform="translate(0 0)" fill="none"/>
    </clipPath>
  </defs>
  <g id="Group_5495" data-name="Group 5495" transform="translate(-922.806 -7906.055)">
    <g id="Group_5493" data-name="Group 5493">
      <g id="Group_5485" data-name="Group 5485" transform="translate(-1005.322 41.168)">
        <g id="Group_5477" data-name="Group 5477" transform="translate(862.322 258.379)">
          <path id="Path_45468" data-name="Path 45468" d="M-3612.252,4091.689l.483,5.508,15.39,175.6h296.772V4043.72" transform="translate(4678.058 3638.585)" fill="#fbd206"/>
        </g>
      </g>
      <g id="man-listening-music" transform="translate(705.986 7822.661)">
        <path id="Path_45479" data-name="Path 45479" d="M288.071,410.815c-.445,1.162-.891,2.315-1.337,3.477a25.35,25.35,0,0,1-6.611-6.492c.636-2.331,1.257-4.551,1.87-6.675a11.339,11.339,0,0,0,.827,3.707,11.538,11.538,0,0,0,.875,1.71,10.952,10.952,0,0,0,1.13,1.575A12.007,12.007,0,0,0,288.071,410.815Z" transform="translate(-3.365 -64.954)" fill="#5504b0"/>
        <path id="Path_45480" data-name="Path 45480" d="M304.409,415.255c1.249-.247,2.5-.477,3.731-.756l-3.485,6.866a26.022,26.022,0,0,1-16.222-4.567l1.456-3.413A15.1,15.1,0,0,0,293,414.722a21.28,21.28,0,0,0,3.779.8c.636.088,1.273.056,1.917.1.636.008,1.281.072,1.917.016C301.879,415.5,303.152,415.446,304.409,415.255Zm55.308,3.508c.167,1.973.318,3.954.477,5.927-5.537.247-10.366.032-10.366.032,0-.5-.421-2.745-1.122-6.118a44.605,44.605,0,0,0,6.985.382C357.036,418.97,358.38,418.891,359.717,418.763Z" transform="translate(-5.064 -67.46)" fill="#5504b0"/>
        <path id="Path_45481" data-name="Path 45481" d="M357.79,385.077q.346,3.628.652,7.256c-1.329.151-2.657.27-3.994.374-1.154.1-2.315.143-3.469.167-1.162.056-2.323.056-3.492.056-3.349-16.174-13.055-58.275-13.055-58.275l-27.511,54.17c-1.265.1-2.522.247-3.771.374-1.257.111-2.514.087-3.771.143-.621.016-1.249-.08-1.87-.1-.62-.048-1.249-.04-1.861-.143a21.542,21.542,0,0,1-3.628-.8,15.8,15.8,0,0,1-3.055-1.281l7.51-17.646c3.087-7.255,6.142-14.519,9.292-21.743q4.63-10.871,9.483-21.647c1.615-3.6,3.262-7.176,4.98-10.716.867-1.766,1.734-3.54,2.665-5.267.469-.875.947-1.726,1.464-2.57a14.9,14.9,0,0,1,1.711-2.395,15.122,15.122,0,0,0-1.814,2.331c-.541.827-1.05,1.671-1.543,2.53-.987,1.7-1.909,3.453-2.832,5.2-1.8,3.508-3.5,7.065-5.187,10.629-3.349,7.144-6.508,14.368-9.658,21.592-3.087,7.256-6.15,14.519-9.125,21.823q-3.6,8.879-7.08,17.813a12.636,12.636,0,0,1-3.071-2.395,13.054,13.054,0,0,1-3.286-6.587v-.016c12.244-42.786,18.7-45.2,21.576-59.628a242.121,242.121,0,0,0,3.827-25.784,4.287,4.287,0,0,0,3.126.915s-.6,3.238,2.522,3.238h4.567s-.6,2.522,2.522,2.4c1.949-.072,3.333-.987,4.94-1.695a7.814,7.814,0,0,0,4.67-7.2,19.469,19.469,0,0,0-.127-1.973l2.18-.422c2.776.247,5.609.382,8.441.35a276.479,276.479,0,0,0,4.065,27.821c.907,4.614,2.013,9.2,3.326,13.731.613,2.267,1.464,4.5,2.1,6.738.732,2.22,1.225,4.519,1.782,6.794a279.316,279.316,0,0,1,4.344,27.821C356.891,375.722,357.353,380.4,357.79,385.077Z" transform="translate(-3.845 -41.786)" fill="#5504b0"/>
        <path id="Path_45482" data-name="Path 45482" d="M389.108,385.815c-.485.326-.963.652-1.44.987a13.261,13.261,0,0,1-1.512.835c-.255.135-.5.286-.756.414l-.8.326a14.5,14.5,0,0,1-1.6.628c-.549.175-1.1.35-1.639.533l-1.671.438c-.557.159-1.122.255-1.686.374s-1.13.247-1.7.318c-.891.159-1.79.286-2.689.4-.4-7.12-.979-14.225-1.695-21.321a263.164,263.164,0,0,0-4.185-27.932c-.565-2.291-1.074-4.6-1.83-6.842-.668-2.283-1.5-4.447-2.132-6.723-1.337-4.5-2.427-9.062-3.421-13.652s-1.846-9.213-2.609-13.851q-1.169-6.9-2.045-13.843a62.773,62.773,0,0,0,9.809-.835,8.006,8.006,0,0,0,6.675-4.352C375.511,315.5,384.27,352.76,389.108,385.815Z" transform="translate(-18.814 -40.543)" fill="#5504b0"/>
        <path id="Path_45483" data-name="Path 45483" d="M370.413,363.387q-.131-2.971-.294-5.951c.931-.1,1.862-.207,2.784-.366a31.406,31.406,0,0,0,6.778-1.878,18.333,18.333,0,0,0,5.9-3.763q.489,3.258.907,6.468C387,361.8,378.043,363.037,370.413,363.387ZM342.026,113.514s12.015,12.736,13.937,12.736c0,0-3.124,3.6-3.124,5.527,0,0-12.255-11.054-14.418-15.379Z" transform="translate(-15.283 -6.157)" fill="#5504b0"/>
        <path id="Path_45484" data-name="Path 45484" d="M334.666,252.586c1.715.093,3.423.211,5.136.242s3.421.04,5.128,0,3.409-.15,5.1-.324,3.381-.379,5.052-.684l.023,0,.086,0a7,7,0,0,0,3.365-1.12,7.785,7.785,0,0,0,2.495-2.606,15.4,15.4,0,0,0,1.924-7.205,38.084,38.084,0,0,0-.442-7.734c-.192-1.284-.441-2.572-.664-3.874l-.624-3.9c-.826-5.2-1.237-10.451-1.841-15.662s-1.315-10.421-1.966-15.629q-1.955-15.627-4.239-31.192c-.764-5.187-1.564-10.369-2.567-15.508-.482-2.574-1.032-5.134-1.7-7.658-.161-.634-.335-1.262-.528-1.886-.174-.631-.393-1.243-.61-1.858A11.008,11.008,0,0,0,346,132.552l.1-.108a10.5,10.5,0,0,1,2.1,3.368c.262.608.526,1.217.743,1.84.234.619.462,1.24.654,1.871.8,2.516,1.481,5.066,2.091,7.629,1.182,5.135,2.164,10.309,3.025,15.5,1.708,10.383,2.889,20.836,3.943,31.292.528,5.229.917,10.471,1.358,15.706l.691,7.848c.247,2.609.621,5.206,1.094,7.783.45,2.592,1.1,5.1,1.634,7.709a37.206,37.206,0,0,1,.8,7.942,15.489,15.489,0,0,1-2.045,7.859A8.675,8.675,0,0,1,355.173,253l.109-.008a50.971,50.971,0,0,1-5.165.571c-1.728.1-3.458.129-5.184.1s-3.447-.12-5.163-.287c-1.715-.151-3.423-.376-5.121-.642Zm-20.189-3.942c-1.509-.351-3.006-.754-4.5-1.181s-2.973-.874-4.444-1.407l-.326-.118.1-.39a32.149,32.149,0,0,0,.571-4.079l.379-4.189.694-8.4c.411-5.6.965-11.2,1.551-16.79,1.254-11.18,1.958-22.4,2.571-33.634q.5-8.421,1.183-16.831c.448-5.608.917-11.215,1.63-16.811q.264-2.1.59-4.2a24.088,24.088,0,0,1,.987-4.2,29.247,29.247,0,0,1,3.943-7.629,49.54,49.54,0,0,1,12.185-11.727l.086.123a59.675,59.675,0,0,0-6.146,5.718,46.284,46.284,0,0,0-5.185,6.527,28,28,0,0,0-3.553,7.4,24.355,24.355,0,0,0-.826,4.02q-.292,2.069-.526,4.158c-.616,5.569-1.168,11.161-1.722,16.752L312.1,178.541c-1.178,11.184-2.166,22.385-2.666,33.625-.294,5.616-.629,11.231-1.186,16.829l-.85,8.4c-.149,1.4-.338,2.8-.537,4.194a31.314,31.314,0,0,1-.8,4.232l-.23-.508c1.418.571,2.866,1.125,4.313,1.657s2.913,1.028,4.377,1.531Z" transform="translate(-8.494 -6.882)" fill="#5504b0"/>
        <path id="Path_45485" data-name="Path 45485" d="M330.469,124.992l5.047,5.692c1.679,1.894,3.352,3.789,5.068,5.643,1.7,1.87,3.434,3.7,5.226,5.477a56.461,56.461,0,0,0,5.66,5.034,32.485,32.485,0,0,1-6.193-4.463c-.974-.826-1.869-1.732-2.793-2.61-.888-.912-1.78-1.821-2.637-2.761-1.714-1.881-3.365-3.816-4.928-5.821S331.851,127.127,330.469,124.992ZM323.5,138.929a17.368,17.368,0,0,1,4.1-1.286,18.156,18.156,0,0,1,4.318-.34,12.722,12.722,0,0,1,4.278.9,8.037,8.037,0,0,1,3.406,2.653,11.669,11.669,0,0,0-3.672-1.919c-.334-.082-.665-.167-.992-.261-.333-.074-.677-.115-1.013-.174a9.231,9.231,0,0,0-1.021-.127,9.81,9.81,0,0,0-1.03-.069,29.586,29.586,0,0,0-4.165.111C326.313,138.54,324.915,138.713,323.5,138.929Zm-3.6,93.716c1.547.592,3.09,1.143,4.639,1.657,1.553.5,3.108.975,4.689,1.332a35.344,35.344,0,0,0,4.782.778,23.612,23.612,0,0,0,4.874-.162,13.58,13.58,0,0,1-4.9.943,22.468,22.468,0,0,1-4.983-.584,28.833,28.833,0,0,1-4.738-1.579A24.142,24.142,0,0,1,319.9,232.645Zm31.959-56.68a.751.751,0,1,0-.726-.751.751.751,0,0,0,.726.751Zm2.884,21.867a.751.751,0,1,0-.726-.751A.751.751,0,0,0,354.739,197.832Zm2.643,16.821a.751.751,0,1,0-.726-.751A.751.751,0,0,0,357.382,214.652Zm3.124,20.425a.751.751,0,1,0-.725-.751.751.751,0,0,0,.725.751Zm-23.864,8.257a25.438,25.438,0,0,1,.5,2.774,14.872,14.872,0,0,1,.116,2.844,5.618,5.618,0,0,1-.258,1.457c-.173.5-.353.862-.5,1.313a13.59,13.59,0,0,0-.683,2.621v-.11c.16.881.165,1.788.25,2.684a7.8,7.8,0,0,1-.451,2.742,7.979,7.979,0,0,1-3.473,4.182,10.3,10.3,0,0,1-1.226.592l-1.205.526a12.047,12.047,0,0,1-2.536.872,5.049,5.049,0,0,1-2.7-.107,1.839,1.839,0,0,1-1.019-.963,2.428,2.428,0,0,1-.136-1.4l.171.216c-1.564,0-3.113.075-4.689.092a2.679,2.679,0,0,1-2.3-1.059,3.653,3.653,0,0,1-.492-2.519l.4.471a6.575,6.575,0,0,1-1.769-.142,3.753,3.753,0,0,1-1.67-.829,3.462,3.462,0,0,1-1-1.617,4.539,4.539,0,0,1-.138-1.867l.3.543a12.174,12.174,0,0,1-1.627-.79,3.6,3.6,0,0,1-1.433-1.407,1.664,1.664,0,0,1-.071-1.231,2.357,2.357,0,0,1,.625-.926,3.223,3.223,0,0,1,1.865-.822,5.17,5.17,0,0,0,2.886-1.09,3.949,3.949,0,0,0,1.345-2.655l0,.046-.071-1.506c.016-.5.03-1.008.063-1.51a11.4,11.4,0,0,1,.683-2.949,7.839,7.839,0,0,1,1.575-2.573,5.949,5.949,0,0,1,2.487-1.636l.03.1a6.05,6.05,0,0,0-2.23,1.788A7.969,7.969,0,0,0,316.962,242a11.441,11.441,0,0,0-.472,2.809c-.012.478-.006.957,0,1.434l.124,1.434,0,.034v.013a4.8,4.8,0,0,1-1.562,3.413,6.2,6.2,0,0,1-3.441,1.4,2.177,2.177,0,0,0-1.247.538,1.327,1.327,0,0,0-.343.484.582.582,0,0,0,.03.452,2.685,2.685,0,0,0,1.006.975,11.232,11.232,0,0,0,1.462.748l.357.159-.059.384a3.639,3.639,0,0,0,.08,1.435,2.525,2.525,0,0,0,.7,1.2,4.05,4.05,0,0,0,2.8.852l.48,0-.077.476a3.094,3.094,0,0,0,.281,2,2.057,2.057,0,0,0,1.742.885c.763.035,1.556.044,2.332.067s1.56.036,2.34.04h.213l-.042.215a2.105,2.105,0,0,0,.094,1.191,1.519,1.519,0,0,0,.836.814,4.546,4.546,0,0,0,2.508.049,9.9,9.9,0,0,0,2.4-.963c.77-.427,1.608-.77,2.295-1.232a7.786,7.786,0,0,0,2.974-3.932,7.9,7.9,0,0,0,.413-2.441c-.064-.857-.044-1.72-.179-2.577l-.009-.06.009-.051a14.212,14.212,0,0,1,.791-2.78c.166-.433.42-.9.573-1.279a5.022,5.022,0,0,0,.3-1.282,18.91,18.91,0,0,0,.08-2.757c-.033-.928-.113-1.859-.213-2.787Z" transform="translate(-9.252 -8.504)" fill="#5504b0"/>
        <path id="Path_45486" data-name="Path 45486" d="M313.2,267.591l2.138.063a5.457,5.457,0,0,0,2.067-.185,4.546,4.546,0,0,0,1.779-1.075l1.585-1.435-1.5,1.526a4.734,4.734,0,0,1-1.783,1.221,5.767,5.767,0,0,1-2.15.325l-2.138.063Zm4.085,3.965,2.244.055a4.361,4.361,0,0,0,2.071-.594,6.474,6.474,0,0,0,1.627-1.5l1.506-1.679-1.411,1.76a6.647,6.647,0,0,1-1.59,1.628,4.674,4.674,0,0,1-2.182.757l-2.266.07Zm7.03,3.251c.669-.152,1.39-.265,2.017-.45a4.388,4.388,0,0,0,1.706-1.041,7.552,7.552,0,0,0,1.165-1.691l1.058-1.8-.948,1.861a7.729,7.729,0,0,1-1.093,1.8,4.7,4.7,0,0,1-1.759,1.222c-.7.249-1.35.385-2.027.583Zm6.307-23.756a.751.751,0,1,0-.725-.751.751.751,0,0,0,.725.751Zm12.942-28.674a33.794,33.794,0,0,0,4.215-1.174,11.342,11.342,0,0,0,1.9-.915,2.367,2.367,0,0,0,1.163-1.375l.749-3.953.141,4.031c.1,2.977-.2,5.959-.146,8.935.025,2.976.317,5.95.383,8.929l.072,4.471-.013,1.12a10.48,10.48,0,0,1-.051,1.174,4.4,4.4,0,0,1-1.036,2.268,4.3,4.3,0,0,1-2.1,1.294,12.381,12.381,0,0,1-2.282.333,7.784,7.784,0,0,1-2.3-.185,2.873,2.873,0,0,1-1.847-1.33l.084-.054a2.733,2.733,0,0,0,1.853.947,7.346,7.346,0,0,0,2.143-.061,16.194,16.194,0,0,0,2.1-.471,3.506,3.506,0,0,0,2.322-2.879c.035-.3.034-.684.042-1.055l.018-1.112.092-4.457c.045-2.974.271-5.952.214-8.928-.026-2.976-.435-5.946-.451-8.92l.89.079a3.134,3.134,0,0,1-1.608,1.91,9.5,9.5,0,0,1-2.13.855,17.957,17.957,0,0,1-4.416.622Zm14.392-29.52a8.558,8.558,0,0,1,3.308-3.949,17.482,17.482,0,0,0,2.2-1.156,19.508,19.508,0,0,0,1.919-1.538q.96-.807,1.869-1.663.459-.421.891-.865l.421-.449c.129-.145.274-.305.456-.485a2.894,2.894,0,0,1,2.64-.706,2.62,2.62,0,0,1,1.888,1.722,2.535,2.535,0,0,0-1.97-1.238,2.4,2.4,0,0,0-2,.771c-.107.128-.234.292-.369.476s-.275.338-.417.5q-.426.49-.875.952c-.6.61-1.239,1.183-1.881,1.745a18.027,18.027,0,0,1-2.07,1.58,13.784,13.784,0,0,1-2.356,1.054,7.08,7.08,0,0,0-1.962,1.382,15.156,15.156,0,0,0-1.686,1.868Z" transform="translate(-10.127 -20.152)" fill="#5504b0"/>
        <path id="Path_45487" data-name="Path 45487" d="M384.35,182.407c.172,1.6.407,3.178.679,4.746a44.942,44.942,0,0,0,1.047,4.632,17.307,17.307,0,0,0,1.808,4.276,5.063,5.063,0,0,0,3.375,2.588l.026,0,.037.009a2.145,2.145,0,0,0,1.76-.254,2.757,2.757,0,0,0,.875-1.707,9.735,9.735,0,0,0,.051-2.166c-.041-.737-.188-1.464-.285-2.207a16.31,16.31,0,0,1,.608,2.162,8.31,8.31,0,0,1,.2,2.281,3.24,3.24,0,0,1-.977,2.229,2.52,2.52,0,0,1-1.187.548,3.248,3.248,0,0,1-1.292-.037l.063.013a4.8,4.8,0,0,1-2.415-1.01,7.65,7.65,0,0,1-1.685-1.919,15.962,15.962,0,0,1-1.841-4.571,30.213,30.213,0,0,1-.776-4.791,33.554,33.554,0,0,1-.074-4.825Zm-3.564,3.12q0,2.673.264,5.321a35.851,35.851,0,0,0,.866,5.228,19.224,19.224,0,0,0,1.85,4.922,10.1,10.1,0,0,0,3.56,3.825,9.113,9.113,0,0,1-3.892-3.63,18.178,18.178,0,0,1-2-5,31.493,31.493,0,0,1-.763-5.317,31.83,31.83,0,0,1,.119-5.351Z" transform="translate(-23.907 -20.241)" fill="#5504b0"/>
        <path id="Path_45488" data-name="Path 45488" d="M382.055,195.711a.751.751,0,1,0-.725-.751A.751.751,0,0,0,382.055,195.711ZM372.9,218.935a23.894,23.894,0,0,1,4.233-5.66,21.865,21.865,0,0,1,5.741-4.238,17.953,17.953,0,0,1,1.647-.723l.841-.311.392-.15.392-.166a22.448,22.448,0,0,0,3.034-1.612A12.9,12.9,0,0,0,393.9,201.3l.013-.026a6.5,6.5,0,0,0,.556-1.805,13.571,13.571,0,0,0,.164-1.964,15.489,15.489,0,0,0-.1-1.993c-.079-.664-.185-1.326-.31-1.99l.306.965c.084.327.169.655.241.986a15.8,15.8,0,0,1,.3,2.018,10.623,10.623,0,0,1-.024,2.06,6.961,6.961,0,0,1-.516,2.067l.013-.026a12.493,12.493,0,0,1-4.84,5.3,21.313,21.313,0,0,1-3.164,1.71l-.42.173-.432.16-.813.291a17.069,17.069,0,0,0-1.581.674c-.523.233-1.016.531-1.526.793-.487.3-.983.6-1.456.926a25.876,25.876,0,0,0-2.737,2.126,31.943,31.943,0,0,0-4.676,5.191Z" transform="translate(-22.331 -22.513)" fill="#5504b0"/>
        <path id="Path_45489" data-name="Path 45489" d="M385.686,183.459a7.122,7.122,0,0,1,.867-1.89,4.879,4.879,0,0,1,1.485-1.494,3.391,3.391,0,0,1,2.079-.511,5.482,5.482,0,0,1,2.063.581h0l.034.022a.659.659,0,0,0,.3.105.227.227,0,0,0,.2-.095,1.42,1.42,0,0,0,.221-.719,10.624,10.624,0,0,0-.069-1.834,23.738,23.738,0,0,1-.009-3.838,9.267,9.267,0,0,1,.347-1.948,2.585,2.585,0,0,1,.227-.513.922.922,0,0,1,.645-.479.8.8,0,0,1,.451.089,1.9,1.9,0,0,1,.254.148,2.586,2.586,0,0,1,.424.36,5.961,5.961,0,0,1,1.425,3.747c.024,1.278.044,2.529.187,3.728a3.063,3.063,0,0,0,.079.4c0,.038.065.116-.021.015a.232.232,0,0,0-.064-.043.328.328,0,0,0-.141-.043.366.366,0,0,0-.223.054c-.068.05-.053.045-.053.045a8.094,8.094,0,0,0,.342-.785,16.92,16.92,0,0,0,.556-1.757,9.826,9.826,0,0,0,.353-3.577,6.6,6.6,0,0,1-.034-1.989,4.8,4.8,0,0,1,.627-1.928l.171-.225c.073-.071.154-.138.234-.2a1.726,1.726,0,0,1,.312-.143,1.581,1.581,0,0,1,.361-.009,1.639,1.639,0,0,1,.9.7,8.06,8.06,0,0,1,.913,1.726,6.865,6.865,0,0,1,.415,1.906c.025.324.025.647.024.964a5.618,5.618,0,0,1-.116.972c-.221,1.244-.58,2.487-.735,3.689a.671.671,0,0,0,0,.083c-.013-.009.032,0-.076-.073-.041-.011-.016-.01-.027-.009a.892.892,0,0,0,.169-.071,2.757,2.757,0,0,0,.369-.248,4.4,4.4,0,0,0,.653-.637,5.185,5.185,0,0,0,.881-1.6,13.649,13.649,0,0,0,.391-3.7,33.875,33.875,0,0,1,.178-3.807,2.9,2.9,0,0,1,.846-1.821,2.3,2.3,0,0,1,1.964-.662,1.642,1.642,0,0,1,.945.6,2.8,2.8,0,0,1,.466.942,8.786,8.786,0,0,1,.318,1.935,27.443,27.443,0,0,1-.031,3.834c-.049.637-.109,1.272-.2,1.911a7.255,7.255,0,0,1-.2,1l-.026.11a.04.04,0,0,0,0-.026c-.005,0-.006-.017-.025-.071a.338.338,0,0,0-.183-.149c-.1-.019-.067,0-.032-.025a1.191,1.191,0,0,0,.137-.073,3.686,3.686,0,0,0,1.084-1.243,4.106,4.106,0,0,0,.432-1.643c.116-1.217.115-2.476.122-3.735.008-.638-.006-1.249.047-1.94l.017-.142.009-.071.034-.125a1.393,1.393,0,0,1,.129-.293c.072-.14.155-.294.247-.444a2.738,2.738,0,0,1,.781-.861,1.47,1.47,0,0,1,1.381-.12,2.327,2.327,0,0,1,.943.753,4.68,4.68,0,0,1,.743,1.983,22.486,22.486,0,0,1,.256,3.867l0,.945.008.439a2.831,2.831,0,0,0,.073.4,8.083,8.083,0,0,1,.188,2.007,5.231,5.231,0,0,1-.485,2.028,4.041,4.041,0,0,1-1.36,1.607c-1.093.768-2.188,1.359-3.294,1.989l-6.638,3.649c-2.215,1.207-4.431,2.409-6.606,3.68-1.084.641-2.17,1.277-3.232,1.954-.517.354-1.053.689-1.551,1.07l-.743.577-.664.659-.08-.061.643-.71.72-.623c.483-.412,1-.776,1.505-1.162,1.034-.731,2.079-1.446,3.148-2.121,2.137-1.353,4.308-2.646,6.486-3.925l6.548-3.793c1.075-.637,2.181-1.294,3.148-1.981a3.517,3.517,0,0,0,1.433-2.879,7.065,7.065,0,0,0-.176-1.751,3.611,3.611,0,0,1-.095-.535c-.01-.187-.013-.347-.013-.507l0-.948a21.574,21.574,0,0,0-.257-3.676,4.074,4.074,0,0,0-.54-1.541,1.344,1.344,0,0,0-.506-.428.411.411,0,0,0-.423.024,1.784,1.784,0,0,0-.475.535c-.075.118-.143.24-.218.38-.032.056-.107.2-.065.136v-.012l-.006.047-.012.093c-.051.566-.051,1.22-.065,1.843-.024,1.263-.036,2.532-.176,3.827a5.022,5.022,0,0,1-.563,1.98,4.352,4.352,0,0,1-1.425,1.542,1.913,1.913,0,0,1-.285.139.8.8,0,0,1-.489.048.522.522,0,0,1-.359-.286.382.382,0,0,1-.057-.18,1.229,1.229,0,0,1-.007-.144.7.7,0,0,1,.034-.2l.042-.149a6.866,6.866,0,0,0,.191-.856c.1-.607.18-1.227.245-1.847a26.762,26.762,0,0,0,.133-3.728,8.2,8.2,0,0,0-.242-1.8,1.467,1.467,0,0,0-.946-1.172,1.792,1.792,0,0,0-1.5.484,2.421,2.421,0,0,0-.748,1.525,27.584,27.584,0,0,0-.259,3.745,13.881,13.881,0,0,1-.449,3.8,5.5,5.5,0,0,1-.953,1.688,4.769,4.769,0,0,1-.69.691,3.043,3.043,0,0,1-.411.284,1.063,1.063,0,0,1-.267.109.307.307,0,0,1-.143-.007c-.145-.09-.1-.128-.13-.173a.841.841,0,0,1-.008-.153c.148-1.3.485-2.5.686-3.743a5.262,5.262,0,0,0,.1-.906,8.493,8.493,0,0,0-.049-.926,6.4,6.4,0,0,0-.451-1.765,7.545,7.545,0,0,0-.91-1.58c-.175-.2-.385-.435-.552-.447-.136-.028-.31.1-.449.338a4.213,4.213,0,0,0-.463,1.664,5.863,5.863,0,0,0,.093,1.78,9.576,9.576,0,0,1-.279,3.915,17.763,17.763,0,0,1-.565,1.856,7.563,7.563,0,0,1-.412.949.729.729,0,0,1-.209.222.532.532,0,0,1-.333.085.571.571,0,0,1-.2-.058.72.72,0,0,1-.11-.08.892.892,0,0,1-.23-.4,3.848,3.848,0,0,1-.114-.528,28.633,28.633,0,0,1-.176-3.829,5.17,5.17,0,0,0-1.147-3.213,1.775,1.775,0,0,0-.291-.256,1.088,1.088,0,0,0-.153-.093c-.06-.033-.018,0,0-.016.062-.018-.008,0-.063.1a1.821,1.821,0,0,0-.157.349,8.6,8.6,0,0,0-.335,1.767,27.244,27.244,0,0,0-.094,3.725,11.092,11.092,0,0,1,0,1.945,1.882,1.882,0,0,1-.4,1.034.789.789,0,0,1-.643.253,1.166,1.166,0,0,1-.578-.226l.037.023c-.3-.128-.595-.289-.9-.393a4.392,4.392,0,0,0-.949-.207,2.989,2.989,0,0,0-1.874.358,4.589,4.589,0,0,0-1.463,1.331,7.325,7.325,0,0,0-.965,1.784Z" transform="translate(-24.945 -16.763)" fill="#5504b0"/>
        <path id="Path_45490" data-name="Path 45490" d="M390.717,178.368l-4.469-6.217,24.057-14.923,8.6,7.03-5.813,3.83-.276-.418,5.244-3.456-7.8-6.372-23.3,14.453,4.155,5.782Z" transform="translate(-25.06 -15.094)" fill="#5504b0"/>
        <path id="Path_45491" data-name="Path 45491" d="M369.346,169.932a15.908,15.908,0,0,1,1.258-2.976,14.935,14.935,0,0,1,1.825-2.706,5.984,5.984,0,0,1,1.3-1.139,2.022,2.022,0,0,1,.968-.312,1.265,1.265,0,0,1,.585.127,1.417,1.417,0,0,1,.414.335,2.17,2.17,0,0,1,.692,1.66,1.679,1.679,0,0,1-1.058,1.3,1.671,1.671,0,0,0,.567-1.308,1.784,1.784,0,0,0-.739-1.084.474.474,0,0,0-.413-.152,1.2,1.2,0,0,0-.511.24,5.594,5.594,0,0,0-1.055,1c-.677.759-1.288,1.614-1.917,2.459S370.021,169.085,369.346,169.932ZM332.617,309.165c-.09-.325-9.022-32.515-10.448-36.5l.472-.169c1.432,4,10.368,36.209,10.459,36.534Zm-52.935,50.82c-.225.994-.515,1.968-.822,2.936s-.665,1.919-1.018,2.873c-.39.939-.776,1.881-1.239,2.791-.234.453-.48.9-.753,1.337a7.425,7.425,0,0,1-.459.621,1.054,1.054,0,0,1-.626.431c.457-.215.641-.744.871-1.174.224-.449.428-.91.617-1.377.385-.932.771-1.865,1.123-2.813l1.123-2.82C278.881,361.852,279.262,360.913,279.682,359.985Zm12.122,8.726a14.863,14.863,0,0,1-.831,2.494c-.172.4-.346.8-.532,1.189s-.4.771-.537,1.191a3.573,3.573,0,0,1,.171-1.326,10.71,10.71,0,0,1,.437-1.247A10.548,10.548,0,0,1,291.8,368.711Z" transform="translate(-2.27 -16.233)" fill="#5504b0"/>
        <path id="Path_45492" data-name="Path 45492" d="M317.651,451.592a7.045,7.045,0,0,0-3.986-3.445c-9.6-3.485-21-18.227-24.13-21.035-3.325-2.975-6.587,2.442-10.907,3.516s-3.787-5.219-7.216-5.951-5.585,13.167-5.585,13.167l-2.164,4.32c2.347,1.806,8.831,4.145,8.831,4.145l2.458-1.44c17.6,11.719,38.275,13.159,38.275,13.159C318.7,456.509,318.7,453.732,317.651,451.592Zm-44.918-9.2a15.134,15.134,0,0,1-2.044-.891,15.888,15.888,0,0,1-3.6-2.578,34.907,34.907,0,0,1,3.97,1.878l1.909,1.018a11.378,11.378,0,0,0,1.981.883A4.69,4.69,0,0,1,272.733,442.4Zm26.437-1.058c-.469.271-.931.477-1.384.7s-.9.445-1.337.676c-.891.446-1.742.939-2.689,1.432a4.36,4.36,0,0,1,1.01-1.241,6.192,6.192,0,0,1,1.313-.9,5.633,5.633,0,0,1,3.087-.668Zm-2.7-3.493a20.008,20.008,0,0,0-3.5,1.607c-1.13.621-2.22,1.3-3.429,1.886a8.232,8.232,0,0,1,1.392-1.44,10.887,10.887,0,0,1,1.655-1.138,8.505,8.505,0,0,1,1.862-.772,4.576,4.576,0,0,1,2.021-.143Zm-7.741-2.729a14.351,14.351,0,0,1,2.45-.835,4.917,4.917,0,0,1,2.586-.04,8.628,8.628,0,0,0-2.411.636c-.772.3-1.535.621-2.3.971-1.536.668-3.047,1.392-4.662,2A17.626,17.626,0,0,1,288.724,435.116Zm22.316,18.8c-.732-.056-1.472-.088-2.2-.191-1.448-.191-2.9-.366-4.344-.668a61.457,61.457,0,0,1-16.62-5.664c-1.313-.66-2.593-1.384-3.85-2.14a38.847,38.847,0,0,1-3.6-2.506,68.885,68.885,0,0,0,7.717,4.1,86.817,86.817,0,0,0,16.484,5.617c2.824.692,5.7,1.13,8.6,1.583C312.5,454.011,311.764,453.963,311.04,453.915ZM347.822,427.1a36.035,36.035,0,0,1,.882,4.425,35.6,35.6,0,0,1,.387,4.495,35.625,35.625,0,0,1-.882-4.424,36.052,36.052,0,0,1-.387-4.495Zm13.854-.66c.332,1.351.552,2.7.8,4.052.115.674.241,1.346.381,2.01a9.875,9.875,0,0,0,.26.978,2.235,2.235,0,0,0,.194.458.438.438,0,0,0,.381.263.46.46,0,0,1-.486-.181,2.393,2.393,0,0,1-.313-.439,6.059,6.059,0,0,1-.412-.974,14.718,14.718,0,0,1-.5-2.027,19.777,19.777,0,0,1-.3-4.14Z" transform="translate(0 -69.763)" fill="#5504b0"/>
        <path id="Path_45493" data-name="Path 45493" d="M401.889,377.9q-2.315-.573-4.32-1.146a10.251,10.251,0,0,1-4.423,3.453,8.713,8.713,0,0,1,1.965-2.037,9.051,9.051,0,0,1,2.458-1.416c-1.885-.533-3.564-1.058-5.068-1.567a11.676,11.676,0,0,1-2.283,2.355,12.086,12.086,0,0,1-2.792,1.734,12.333,12.333,0,0,1,2.291-2.347,11.9,11.9,0,0,1,2.785-1.742c-9.189-3.119-11.838-5.7-12.6-5.824,0,0-3.795,7.94-14.6,1.814.811-.955-4.733,2.681-3.095,8.123a16.075,16.075,0,0,1,0,9.555h9.141s1.106-6.667,6.54-3.6l4.535,3.6s22.849,1.631,31.775-2.212a33.226,33.226,0,0,1-7.932.883c-2.665.048-5.33-.048-7.988-.183-2.657-.167-5.306-.366-7.948-.668-2.649-.286-5.283-.613-7.908-1.066,2.657.127,5.307.3,7.956.461l7.948.477c2.649.151,5.29.27,7.94.366,1.321.032,2.649.056,3.97.016a27.566,27.566,0,0,0,3.96-.286,6.571,6.571,0,0,0,3.009-2.2S418.827,382.082,401.889,377.9Zm-33.557,6.953a10.841,10.841,0,0,1-1.83-.135,11.815,11.815,0,0,1-3.485-1.082,20.056,20.056,0,0,1,3.612.294c.589.1,1.169.191,1.758.31.589.1,1.162.223,1.782.286a4.45,4.45,0,0,1-1.838.326Zm16.007-9.77A10.008,10.008,0,0,1,381.7,376.5a10.188,10.188,0,0,1,2.172-2.053,10.33,10.33,0,0,1,2.633-1.408A9.776,9.776,0,0,1,384.339,375.089ZM342.952,112.279a23.681,23.681,0,0,1,.945-2.414l.5-1.171a4.751,4.751,0,0,0,.358-1.22,2.434,2.434,0,0,1,.016,1.333,7.194,7.194,0,0,1-.414,1.258A8.174,8.174,0,0,1,342.952,112.279Z" transform="translate(-16.209 -4.922)" fill="#5504b0"/>
        <path id="Path_45494" data-name="Path 45494" d="M353.04,99.667s-6.75,4.96-8.361,4.583c0,0-1.491-8.668.331-12.032,1.13-2.086,3.224-10.092,15.359-8.651s12.976,13.216,12.976,13.216c-1.106.174-2.269.318-3.484.421a49.629,49.629,0,0,1-10.092-.18S357.005,92.939,354,96.3A6.385,6.385,0,0,0,353.04,99.667Z" transform="translate(-16.445 0)" fill="#5504b0"/>
        <path id="Path_45495" data-name="Path 45495" d="M375.616,100.224c-.247,1.611-.552,3.215-.732,4.821a4.193,4.193,0,0,0-.046,1.111,4.519,4.519,0,0,0,.5,1.015c.416.678.9,1.332,1.345,2.031a5.44,5.44,0,0,1,.613,1.178,1.194,1.194,0,0,1,.06.467,1.061,1.061,0,0,1-.2.486,1.548,1.548,0,0,1-.7.468c-.222.081-.428.133-.609.189-.167.038-.361.155-.287.108a.214.214,0,0,0,.033-.085c0-.044-.007.043-.012.076l-.019.132c-.029.121-.056.229-.087.334q-.092.31-.2.6a21.055,21.055,0,0,1-2.269,4.445,10.349,10.349,0,0,1-3.7,3.492,5.633,5.633,0,0,1-5.086-.272,5.57,5.57,0,0,1-1.03-.754l-.942-.808-.469-.4c-.183-.146-.262-.247-.39-.281a1.273,1.273,0,0,0-.957.179,5.908,5.908,0,0,0-1.771,1.535,10.634,10.634,0,0,0-1.295,2.046,8.808,8.808,0,0,1,1.081-2.2,6.261,6.261,0,0,1,1.743-1.8,1.743,1.743,0,0,1,1.366-.289.964.964,0,0,1,.364.182c.121.084.171.128.26.194l.478.365.954.73a5.044,5.044,0,0,0,5.293.725,9.652,9.652,0,0,0,3.27-3.2,20.833,20.833,0,0,0,2.208-4.208q.109-.276.2-.549l.076-.254,0-.018c0-.017.005.02.014-.074a.705.705,0,0,1,.137-.366.99.99,0,0,1,.435-.323,2.759,2.759,0,0,1,.345-.115c.21-.058.4-.1.562-.155a.8.8,0,0,0,.32-.172.236.236,0,0,0,.033-.071.874.874,0,0,0-.024-.134,4.909,4.909,0,0,0-.465-1c-.391-.695-.839-1.381-1.234-2.113a4.959,4.959,0,0,1-.5-1.2,4.058,4.058,0,0,1,.111-1.313C374.749,103.364,375.149,101.788,375.616,100.224Zm-20.305,2.884a3.988,3.988,0,0,0,.908,1.987,2.38,2.38,0,0,0,.873.575,7.325,7.325,0,0,0,1.1.321,4.779,4.779,0,0,1-.6.1,2.574,2.574,0,0,1-.617-.051,2.091,2.091,0,0,1-1.119-.6,2.434,2.434,0,0,1-.549-2.335Z" transform="translate(-18.716 -3.44)" fill="#5504b0"/>
        <path id="Path_45496" data-name="Path 45496" d="M363.793,100.526c1.088.242,2.16.537,3.228.839s2.125.645,3.188.966c1.051.359,2.108.7,3.152,1.076s2.086.765,3.111,1.2c-1.088-.242-2.16-.536-3.229-.838s-2.125-.645-3.187-.967c-1.05-.36-2.108-.7-3.152-1.077S364.818,100.965,363.793,100.526Zm8.17,6.037a.751.751,0,1,0-.725-.751.751.751,0,0,0,.725.751Z" transform="translate(-20.47 -3.502)" fill="#5504b0"/>
        <rect id="Rectangle_42069" data-name="Rectangle 42069" width="6.767" height="1.502" transform="translate(352.935 105.941) rotate(-73.468)" fill="#5504b0"/>
        <path id="Path_45497" data-name="Path 45497" d="M360.071,116.062a6.22,6.22,0,0,1-2.236-3.655,5.922,5.922,0,0,1-.054-2.191,6.185,6.185,0,0,1,.7-2.046,12.3,12.3,0,0,0-.309,2.085,7.542,7.542,0,0,0,.155,2.049,8.264,8.264,0,0,0,.655,1.955A10.456,10.456,0,0,0,360.071,116.062Zm-2.348-13.575a1.175,1.175,0,0,1,.464.39c.062.118.108.234,0,.33s-.364.173-.423.276,0,.22.126.347a.835.835,0,0,1,.254.363.521.521,0,0,1,.049.337c-.1.208-.3.4-.8.557l-.149-.019c-.452-.278-.595-.517-.637-.743a.522.522,0,0,1,.133-.313.835.835,0,0,1,.338-.287c.154-.09.249-.188.209-.3s-.256-.253-.339-.374-.007-.221.083-.32a1.176,1.176,0,0,1,.547-.26Z" transform="translate(-18.999 -3.899)" fill="#5504b0"/>
        <path id="Path_45498" data-name="Path 45498" d="M356.987,104.135a17.318,17.318,0,0,0,.1,13.363c1.014,2.106,2.294,4.08,3.463,6.092.595,1,1.183,2,1.83,2.948a16.085,16.085,0,0,0,1,1.349,5.131,5.131,0,0,0,.54.55,1.042,1.042,0,0,0,.432.239l-.309.13a5.079,5.079,0,0,0,.957-1.432,7.6,7.6,0,0,0,.534-1.763,9.72,9.72,0,0,0,.172-1.885c0-.319-.014-.64-.02-.964l-.084-.97.1-.022a11.841,11.841,0,0,1,.473,1.923,10.314,10.314,0,0,1,.082,2.01,7.75,7.75,0,0,1-.426,2.008,5.1,5.1,0,0,1-1.1,1.856l-.124.128-.185,0a1.811,1.811,0,0,1-1.151-.428,4.365,4.365,0,0,1-.7-.685,11.615,11.615,0,0,1-1.063-1.481c-.622-1.018-1.192-2.049-1.718-3.1-1.066-2.1-1.9-4.3-2.981-6.368a15.242,15.242,0,0,1-2.01-6.807,12.035,12.035,0,0,1,.515-3.561,9.615,9.615,0,0,1,1.589-3.189Z" transform="translate(-18.631 -4.229)" fill="#5504b0"/>
        <path id="Path_45499" data-name="Path 45499" d="M357.237,131.605c.363,4.169.654,8.321.8,12.487.052,2.084.061,4.175.239,6.253.067,1.041.23,2.073.341,3.109.146,1.033.318,2.062.487,3.09.389,2.033.705,4.144,1.14,6.1a7.129,7.129,0,0,0,3.474,4.483,11.909,11.909,0,0,0,5.8,1.278,27.449,27.449,0,0,0,6.1-.973l.029.1a20.9,20.9,0,0,1-6.1,1.65,11.863,11.863,0,0,1-6.338-1.122,7.684,7.684,0,0,1-2.539-2.156,8.38,8.38,0,0,1-1.368-3.014c-.243-1.089-.334-2.092-.481-3.141s-.228-2.082-.324-3.124c-.162-2.088-.334-4.169-.54-6.248s-.519-4.149-.735-6.231-.279-4.174-.3-6.264c-.006-2.092.023-4.184.2-6.274Zm9.178-12.539a6.036,6.036,0,0,1-2.992-.667,3.519,3.519,0,0,1-1.228-1,2.1,2.1,0,0,1-.436-1.491,3.376,3.376,0,0,0,1.9,2.049A21.035,21.035,0,0,0,366.415,119.066ZM343.17,143.755a1.72,1.72,0,0,1,.414.664,4.832,4.832,0,0,1,.259.715,13.155,13.155,0,0,1,.385,1.467c.247.982.358,1.986.543,2.979l.371,3,.266,3.012c.178,2.009.239,4.023.365,6.035l.208,6.041c.056,4.028.118,8.057.07,12.084l-.043,6.042-.157,6.039c-.061,2.013-.093,4.026-.179,6.038l-.271,6.034c-.167,4.023-.388,8.043-.617,12.063l-1.26,24.12-.006.11-.094.043a19.759,19.759,0,0,1-6.32,1.7,16.779,16.779,0,0,1-6.525-.622,8.971,8.971,0,0,1-1.555-.554,9.761,9.761,0,0,1-1.5-.7l-1.433-.83c-.451-.315-.877-.667-1.317-1l-.655-.506c-.209-.179-.393-.385-.591-.576l-1.167-1.17c-.733-.818-1.368-1.719-2.056-2.577l-.063-.079-.005-.131c-.3-7.751-.446-15.5-.572-23.255s-.1-15.509-.025-23.264q.149-11.633.83-23.255c.246-3.872.541-7.742,1.007-11.6.24-1.927.539-3.848.938-5.751a27.584,27.584,0,0,1,.729-2.825,7.521,7.521,0,0,1,1.3-2.611l.073.068a7.411,7.411,0,0,0-1.185,2.6,27.306,27.306,0,0,0-.633,2.823c-.34,1.9-.563,3.824-.759,5.748-.4,3.848-.626,7.715-.806,11.581-.352,7.736-.417,15.484-.48,23.23s0,15.495.039,23.243.193,15.5.336,23.243l-.068-.21c.654.839,1.256,1.727,1.953,2.531l1.109,1.148c.188.188.363.391.561.567l.623.5c.418.327.824.674,1.253.985l1.366.82a9.266,9.266,0,0,0,1.432.693,8.513,8.513,0,0,0,1.49.559,16.308,16.308,0,0,0,6.317.71,18.833,18.833,0,0,0,6.194-1.56l-.1.153c.46-8.036.923-16.073,1.179-24.119.142-4.022.275-8.044.359-12.068l.289-12.067c.187-8.044.322-16.089.256-24.132l-.086-6.031c-.085-2.007-.106-4.02-.243-6.024l-.177-3.009-.267-3c-.15-.99-.227-2-.438-2.976a13.02,13.02,0,0,0-.331-1.464,4.738,4.738,0,0,0-.23-.71l-.143-.343a1.764,1.764,0,0,0-.2-.281Z" transform="translate(-11.43 -6.647)" fill="#5504b0"/>
      </g>
      <g id="woman-looking-at-dating-app" transform="translate(763.526 7954.326)">
        <path id="Path_45517" data-name="Path 45517" d="M279.5,164.946a.746.746,0,1,0-.72-.745A.746.746,0,0,0,279.5,164.946Z" transform="translate(0 -82.352)" fill="#5504b0"/>
        <path id="Path_45518" data-name="Path 45518" d="M429.9,156.626H370.5a3.844,3.844,0,0,1-3.84-3.84V51.252a3.844,3.844,0,0,1,3.84-3.839h59.4a3.844,3.844,0,0,1,3.84,3.839V152.787A3.844,3.844,0,0,1,429.9,156.626ZM370.5,50.7a.549.549,0,0,0-.549.548V152.787a.55.55,0,0,0,.549.549h59.4a.55.55,0,0,0,.549-.549V51.252a.549.549,0,0,0-.549-.548Z" transform="translate(-1.529 -95.683)" fill="#5504b0"/>
        <path id="Path_45519" data-name="Path 45519" d="M419.493,53.3H394.216a1.372,1.372,0,1,1,0-2.743h25.277a1.372,1.372,0,1,1,0,2.743Zm10.45,71.674H383.766V67.756h46.177Zm-44.531-1.645H428.3V69.4H385.412Z" transform="translate(-8.182 -96.905)" fill="#5504b0"/>
        <path id="Path_45520" data-name="Path 45520" d="M418.372,63.136a2.671,2.671,0,0,1,.663.8,2.672,2.672,0,0,1,.686-.781,1.963,1.963,0,0,1,1.233-.346,2.141,2.141,0,0,1,1.449.581,1.857,1.857,0,0,1,.592,1.375,4.552,4.552,0,0,1-1.266,2.729,27.41,27.41,0,0,1-2.67,2.622l-.113.1-.11-.1a27.4,27.4,0,0,1-2.594-2.7,4.552,4.552,0,0,1-1.188-2.764,1.857,1.857,0,0,1,.63-1.357,2.14,2.14,0,0,1,1.465-.54,1.963,1.963,0,0,1,1.223.381Z" transform="translate(-53.004 -43.184)" fill="#5504b0"/>
        <rect id="Rectangle_42070" data-name="Rectangle 42070" width="63.787" height="2.194" transform="translate(366.779 34.163)" fill="#5504b0"/>
        <rect id="Rectangle_42071" data-name="Rectangle 42071" width="63.787" height="2.194" transform="translate(366.779 39.987)" fill="#5504b0"/>
        <circle id="Ellipse_222" data-name="Ellipse 222" cx="3.554" cy="3.554" r="3.554" transform="translate(376.227 46.341)" fill="#5504b0"/>
        <circle id="Ellipse_223" data-name="Ellipse 223" cx="3.554" cy="3.554" r="3.554" transform="translate(388.821 46.341)" fill="#5504b0"/>
        <g id="Group_5491" data-name="Group 5491" transform="translate(376.407 -28.326)" clip-path="url(#clip-path)">
          <path id="Path_45521" data-name="Path 45521" d="M384.325,143.754a9.955,9.955,0,0,0,2.418-2.98,26.391,26.391,0,0,0,1.615-3.509c.927-2.413,1.6-4.91,2.339-7.407.1-.312.188-.625.3-.936a4.249,4.249,0,0,1,.179-.47l.247-.478a5.777,5.777,0,0,1,1.429-1.472,16.5,16.5,0,0,1,3.483-1.9c1.21-.51,2.451-.93,3.685-1.336l.911-.308a1.219,1.219,0,0,0,.646-.389,2.919,2.919,0,0,0,.474-1.607v-.019a.355.355,0,0,1,.273-.331l1.567-.366.783-.183.2-.046c.067-.016-.025,0-.036.019s-.03.03-.028.025a.712.712,0,0,0,.061-.235,7.707,7.707,0,0,0-.026-1.516c-.044-.52-.108-1.048-.186-1.563l.31.266a9.079,9.079,0,0,1-2.975-.552,3.882,3.882,0,0,1-2.231-2.071,6.154,6.154,0,0,1-.336-2.995c.08-.989.335-1.957.383-2.9a11.72,11.72,0,0,1,.476-2.928,21.887,21.887,0,0,0,.613-2.85,16.84,16.84,0,0,1,1.751-5.62l.126.208a5.618,5.618,0,0,1-2.246-.379,1.791,1.791,0,0,1-.887-.8,1.634,1.634,0,0,1-.073-1.216.156.156,0,0,1,.161-.108h.008a2.589,2.589,0,0,0,2-1.1,14.957,14.957,0,0,1,1.792-1.822,6.6,6.6,0,0,1,2.351-1.106,13.888,13.888,0,0,1,2.531-.457,10.583,10.583,0,0,1,5.11.666,8.788,8.788,0,0,1,2.2,1.439,4.847,4.847,0,0,1,.884,1.037,2.579,2.579,0,0,1,.3.667,1.808,1.808,0,0,1,.067.385,1.208,1.208,0,0,1-.047.464l-.145-.443a15.4,15.4,0,0,1,2.647,2.334,9.594,9.594,0,0,1,1.917,3.008,5.164,5.164,0,0,1,.261.879,4.47,4.47,0,0,1,.127.918,4.984,4.984,0,0,1-.033.931c-.03.309-.12.6-.179.9a12.755,12.755,0,0,1-1.48,3.226,34.276,34.276,0,0,1-4.337,5.442l-.3.312-.153.154-.077.077-.039.057a1.929,1.929,0,0,0-.281.622,9.677,9.677,0,0,0-.289,1.614,29.045,29.045,0,0,0-.137,3.38l-.415-.4,1.708.014a.4.4,0,0,1,.4.391v.009a9.31,9.31,0,0,0,.669,3.094,7.277,7.277,0,0,0,.721,1.4,12.685,12.685,0,0,0,1.051,1.226c1.526,1.574,3.224,3.017,4.857,4.524.82.752,1.638,1.51,2.419,2.312s1.471,1.67,2.252,2.458a10.125,10.125,0,0,1,1.092,1.29,3.968,3.968,0,0,1,.616,1.591,12.031,12.031,0,0,1-.124,3.344.041.041,0,1,1-.082-.01,11.911,11.911,0,0,0-.007-3.3,3.709,3.709,0,0,0-.636-1.468,9.852,9.852,0,0,0-1.109-1.205c-.815-.758-1.538-1.629-2.322-2.386s-1.624-1.5-2.461-2.224c-1.677-1.452-3.4-2.86-4.99-4.452a13.3,13.3,0,0,1-1.137-1.284,7.926,7.926,0,0,1-.83-1.54,10.01,10.01,0,0,1-.781-3.375l.4.4-1.708.014a.411.411,0,0,1-.415-.4,29.836,29.836,0,0,1,.128-3.489,10.434,10.434,0,0,1,.313-1.767,2.643,2.643,0,0,1,.44-.925,1.339,1.339,0,0,1,.165-.19l.149-.151.3-.306a33.46,33.46,0,0,0,4.2-5.311,12.209,12.209,0,0,0,1.408-2.992,4.839,4.839,0,0,0-.122-3.117,8.809,8.809,0,0,0-1.736-2.771,14.692,14.692,0,0,0-2.478-2.23l-.145-.443a.844.844,0,0,0,.006-.162,1.061,1.061,0,0,0-.04-.235,1.892,1.892,0,0,0-.209-.485,4.142,4.142,0,0,0-.735-.887,8.131,8.131,0,0,0-1.986-1.35,10.228,10.228,0,0,0-4.791-.708,13.35,13.35,0,0,0-2.441.377,6.1,6.1,0,0,0-2.213.969,14.691,14.691,0,0,0-1.779,1.736,5.042,5.042,0,0,1-1,.844,2.2,2.2,0,0,1-1.309.323l.168-.107a1.32,1.32,0,0,0,.04.956,1.469,1.469,0,0,0,.734.666,5.356,5.356,0,0,0,2.116.368.143.143,0,0,1,.142.145.153.153,0,0,1-.016.063,20.273,20.273,0,0,0-1.126,2.684,11.523,11.523,0,0,0-.614,2.837c-.2,1.973-1.037,3.82-1.024,5.746-.035,1.018-.257,1.964-.309,2.929a5.726,5.726,0,0,0,.376,2.765,3.359,3.359,0,0,0,1.995,1.744,8.507,8.507,0,0,0,2.78.435h.008a.323.323,0,0,1,.3.265c.1.536.174,1.066.234,1.606a8.173,8.173,0,0,1,.037,1.675,1.259,1.259,0,0,1-.165.525.582.582,0,0,1-.162.171.731.731,0,0,1-.221.09l-.193.047-.772.188-1.544.375.274-.35a3.582,3.582,0,0,1-.619,2.066,1.654,1.654,0,0,1-.463.409,2.765,2.765,0,0,1-.509.221l-.936.306c-1.235.392-2.459.793-3.646,1.278a15.866,15.866,0,0,0-3.356,1.78,5.16,5.16,0,0,0-1.284,1.285,9.241,9.241,0,0,0-.689,1.731c-.8,2.458-1.54,4.964-2.538,7.375a25.186,25.186,0,0,1-1.77,3.492,9.631,9.631,0,0,1-2.593,2.913.041.041,0,0,1-.058-.011A.042.042,0,0,1,384.325,143.754Z" transform="translate(-384.799 -84.019)" fill="#5504b0"/>
          <path id="Path_45522" data-name="Path 45522" d="M414.668,107.332a3.193,3.193,0,0,1,1.127-.461,4.071,4.071,0,0,1,1.229-.073,3.451,3.451,0,0,1,1.195.332,2.75,2.75,0,0,1,.965.751,10.434,10.434,0,0,0-1.1-.38,6.228,6.228,0,0,0-1.1-.2A12.571,12.571,0,0,0,414.668,107.332Zm-5.126,2.159a2.572,2.572,0,0,1,1.4-.44,1.972,1.972,0,0,1,1.408.44l-1.392.068A6.956,6.956,0,0,1,409.543,109.491Zm7.383,2.5a.763.763,0,1,0-.737-.763A.763.763,0,0,0,416.926,111.989Zm-5.98.427a.763.763,0,1,0-.737-.763A.763.763,0,0,0,410.946,112.417Zm.606,5.976a4.889,4.889,0,0,0,1.281-.113,4.967,4.967,0,0,0,.591-.181c.2-.072.4-.164.647-.239a1.629,1.629,0,0,1-1.122.915,1.433,1.433,0,0,1-1.4-.382Zm13.075.962a22.491,22.491,0,0,1-3.643,2.223,11.133,11.133,0,0,1-4.058,1.181,11.008,11.008,0,0,0,3.941-1.407,22.158,22.158,0,0,0,3.435-2.389l.008-.006a.254.254,0,0,1,.329.389Zm-11.789-8.128a2.491,2.491,0,0,1-.052,1.539,2.823,2.823,0,0,1-.369.713,5.876,5.876,0,0,0-.438.568c-.226.366-.279.789.052,1.015a2.411,2.411,0,0,0,1.356.254,2.422,2.422,0,0,1-.742.212,1.4,1.4,0,0,1-.819-.126.926.926,0,0,1-.51-.766,1.5,1.5,0,0,1,.228-.852,4.9,4.9,0,0,1,.493-.6,3.343,3.343,0,0,0,.385-.573A3.992,3.992,0,0,0,412.838,111.227Z" transform="translate(-394.615 -90.449)" fill="#5504b0"/>
          <path id="Path_45523" data-name="Path 45523" d="M417.273,110.007c.741-1.4.418-1.9-.375-3.424s-4.088,1.647-4.088,1.647v-5.493c1.525-.917,1.647-4.209,0-5.979s-10.007.61-10.007.61l0,0c-3.9,0-3.048-2.194-3.048-2.194,1.829.12,2.563-2.2,4.516-3.3s6.954-1.829,9.882,0,2.442,3.172,2.442,3.172,4.76,3.176,4.76,7.078c0,2.39-2.056,5.419-3.876,7.633m9.122,22.512c-2.441-2.8-8.419-7.2-9.642-9.4-.826.989-1.71,1.926-2.605,2.84s-1.821,1.8-2.758,2.681a.408.408,0,0,1-.58-.023.376.376,0,0,1-.105-.222v-.006c-.182-1.37-.34-2.746-.457-4.127s-.2-2.769-.2-4.162l-5.556,7.412-2.026-6.294-.228.193s0,1.516-.82,2.1a5.725,5.725,0,0,1-1.745,3.36,5.68,5.68,0,0,1,1.745-3.36,1.035,1.035,0,0,1-.158.094c-.978.492-8.788,2.318-10.005,5.491s-3.05,12.207-7.084,15.134l29.77-2.728a34.625,34.625,0,0,1,2.113-2.922,27.928,27.928,0,0,1,2.752-3.015c-1.271,1.979-2.588,3.887-3.829,5.843l14.472-1.329C430.258,134.954,429.04,135.077,426.6,132.272ZM393.861,130.8c-.3.89-.662,1.756-1.03,2.617-.386.855-.784,1.7-1.235,2.529a17.717,17.717,0,0,1-1.516,2.395,51.946,51.946,0,0,1,1.991-5.257c.381-.849.773-1.7,1.2-2.535a24.924,24.924,0,0,1,1.388-2.459,21.211,21.211,0,0,1-.8,2.711Zm4.947,8.3a.762.762,0,1,1,.735-.761.762.762,0,0,1-.735.761Zm3.079-7.505a.761.761,0,1,1,.738-.761A.761.761,0,0,1,401.887,131.6Zm13.852-13h-1.7l-3.788,1.253c.351,1.346.621,2.711.861,4.075.193,1.112.357,2.225.509,3.337.755-.685,1.522-1.364,2.307-2.014.984-.825,1.979-1.633,3.033-2.377a9.739,9.739,0,0,1-1.218-4.274Z" transform="translate(-384.824 -84.218)" fill="#5504b0"/>
        </g>
      </g>
    </g>
  </g>
</svg>
