<svg xmlns="http://www.w3.org/2000/svg" width="505.235" height="354.229" viewBox="0 0 505.235 354.229">
  <g id="Group_5490" data-name="Group 5490" transform="translate(-848.991 -8060.864)">
    <g id="Group_5489" data-name="Group 5489" transform="translate(848.991 8060.864)">
      <g id="Group_5488" data-name="Group 5488" transform="translate(138.453 32.509)">
        <g id="Background_Complete" data-name="Background Complete" transform="translate(14.832 0.54)">
          <g id="Group_6" data-name="Group 6" transform="translate(207.446)">
            <path id="Path_1" data-name="Path 1" d="M437.172,245.272H309.549V57.942H437.172Zm-124.19-3.433H433.739V61.375H312.982Z" transform="translate(-301.108 -57.271)" fill="#ebebeb"/>
            <rect id="Rectangle_1" data-name="Rectangle 1" width="3.433" height="181.283" transform="translate(70.485 5.001)" fill="#ebebeb"/>
            <g id="Group_5" data-name="Group 5">
              <g id="Group_1" data-name="Group 1" transform="translate(5.328 7.611)">
                <rect id="Rectangle_2" data-name="Rectangle 2" width="133.849" height="4.781" fill="#ebebeb"/>
                <rect id="Rectangle_3" data-name="Rectangle 3" width="133.849" height="4.781" transform="translate(0 5.378)" fill="#ebebeb"/>
                <rect id="Rectangle_4" data-name="Rectangle 4" width="133.849" height="4.781" transform="translate(0 10.757)" fill="#ebebeb"/>
                <rect id="Rectangle_5" data-name="Rectangle 5" width="133.849" height="4.781" transform="translate(0 16.135)" fill="#ebebeb"/>
                <rect id="Rectangle_6" data-name="Rectangle 6" width="133.849" height="4.781" transform="translate(0 21.514)" fill="#ebebeb"/>
                <rect id="Rectangle_7" data-name="Rectangle 7" width="133.849" height="4.781" transform="translate(0 26.892)" fill="#ebebeb"/>
                <rect id="Rectangle_8" data-name="Rectangle 8" width="133.849" height="4.781" transform="translate(0 32.27)" fill="#ebebeb"/>
                <rect id="Rectangle_9" data-name="Rectangle 9" width="133.849" height="4.781" transform="translate(0 37.649)" fill="#ebebeb"/>
                <rect id="Rectangle_10" data-name="Rectangle 10" width="133.849" height="4.781" transform="translate(0 43.027)" fill="#ebebeb"/>
              </g>
              <g id="Group_4" data-name="Group 4" transform="translate(127.029 6.642)">
                <g id="Group_2" data-name="Group 2">
                  <rect id="Rectangle_11" data-name="Rectangle 11" width="0.858" height="110.195" transform="translate(1.092)" fill="#263238"/>
                  <path id="Path_2" data-name="Path 2" d="M450.762,197.221h-3.047l.764-4.377H450Z" transform="translate(-447.715 -83.029)" fill="#263238"/>
                </g>
                <g id="Group_3" data-name="Group 3" transform="translate(3.091)">
                  <rect id="Rectangle_12" data-name="Rectangle 12" width="0.858" height="150.831" transform="translate(1.095)" fill="#263238"/>
                  <path id="Path_3" data-name="Path 3" d="M454.364,243.657h-3.047l.764-4.377H453.6Z" transform="translate(-451.317 -89.609)" fill="#263238"/>
                </g>
              </g>
              <rect id="Rectangle_13" data-name="Rectangle 13" width="144.504" height="10.002" fill="#dbdbdb"/>
            </g>
          </g>
          <g id="Group_7" data-name="Group 7" transform="translate(0 67.011)">
            <path id="Path_4" data-name="Path 4" d="M64.862,166.4c0-.718.1-2.632.1-3.444,0-3.492-1.245-5.072-4.5-5.167a2.3,2.3,0,1,1,0-4.593c3.253-.143,4.5-1.675,4.5-5.215,0-.813-.1-2.727-.1-3.444,0-4.641,1.961-7.607,9.377-9.234a2.067,2.067,0,0,1,1.292,3.923c-4.64,1.435-5.311,2.918-5.311,6.171,0,.957.1,2.535.1,3.541,0,3.732-1.818,5.55-4.976,6.555,3.206,1.052,4.976,2.822,4.976,6.554,0,1-.1,2.583-.1,3.54,0,3.253.671,4.736,5.311,6.171a2.067,2.067,0,0,1-1.292,3.923C66.823,174.057,64.862,171.09,64.862,166.4Z" transform="translate(-58.021 -135.235)" fill="#ebebeb"/>
            <path id="Path_5" data-name="Path 5" d="M96.672,144.538c0,.718-.1,2.632-.1,3.444,0,3.54,1.292,5.072,4.546,5.215a2.3,2.3,0,1,1,0,4.593c-3.254.1-4.546,1.675-4.546,5.167,0,.813.1,2.727.1,3.444,0,4.689-1.961,7.655-9.376,9.282a2.059,2.059,0,0,1-1.245-3.923c4.594-1.435,5.263-2.918,5.263-6.171,0-.958-.1-2.536-.1-3.54,0-3.732,1.818-5.55,4.976-6.554-3.207-1.053-4.976-2.823-4.976-6.555,0-1.005.1-2.583.1-3.541,0-3.253-.67-4.736-5.263-6.171A2.059,2.059,0,0,1,87.3,135.3C94.71,136.931,96.672,139.9,96.672,144.538Z" transform="translate(-61.796 -135.235)" fill="#ebebeb"/>
          </g>
          <g id="Group_8" data-name="Group 8" transform="translate(116.157 5.306)">
            <path id="Path_6" data-name="Path 6" d="M210.721,89.438a2.806,2.806,0,0,1-1.959,4.81,2.975,2.975,0,0,1-2.049-.8L194.2,80.754c-.134-.045-.178-.134-.223-.267a.624.624,0,0,0-.134-.09,1.177,1.177,0,0,1-.133-.355.241.241,0,0,1-.134-.179c-.044-.089-.044-.223-.088-.267,0-.134-.089-.179-.089-.223v-.312c0-.089-.044-.133-.044-.268,0-.044.044-.178.044-.222V78.26c0-.089.089-.134.089-.179.045-.133.045-.222.088-.355,0-.045.045-.045.045-.089a3.286,3.286,0,0,1,.221-.4.087.087,0,0,1,.089-.089.841.841,0,0,1,.268-.312l12.513-12.692a2.907,2.907,0,0,1,4.007,0,2.823,2.823,0,0,1,0,4.008L200.167,78.794Z" transform="translate(-193.355 -63.343)" fill="#ebebeb"/>
            <path id="Path_7" data-name="Path 7" d="M226.785,90.875l10.909-25.963a2.473,2.473,0,0,1,3.252-1.291,2.4,2.4,0,0,1,1.246,3.162L231.283,92.79a2.47,2.47,0,0,1-2.272,1.469,2.113,2.113,0,0,1-.889-.179A2.4,2.4,0,0,1,226.785,90.875Z" transform="translate(-198.064 -63.354)" fill="#ebebeb"/>
            <path id="Path_8" data-name="Path 8" d="M266.955,80.4a.043.043,0,0,1-.044.045,2.052,2.052,0,0,1-.311.312L254.087,93.446a2.906,2.906,0,0,1-4.008,0,2.824,2.824,0,0,1,0-4.008l10.555-10.644L250.078,68.152a2.824,2.824,0,0,1,0-4.008,2.908,2.908,0,0,1,4.008,0L266.6,76.835a2.088,2.088,0,0,1,.311.312c.044,0,.044.089.044.089a3.685,3.685,0,0,1,.223.4c0,.044.046.044.046.089a1.97,1.97,0,0,0,.134.4c0,.045.044.045.044.134v.312c0,.045.044.179.044.222s-.044.179-.044.223v.356c0,.045-.044.045-.044.089a3.6,3.6,0,0,0-.134.4c0,.045-.046.045-.046.134C267.134,80.086,267.045,80.22,266.955,80.4Z" transform="translate(-201.274 -63.343)" fill="#ebebeb"/>
          </g>
        </g>
        <g id="Chair" transform="translate(238.761 180.43)">
          <g id="Group_9" data-name="Group 9">
            <path id="Path_10" data-name="Path 10" d="M422.877,387.324H318.92L339.648,266.75h77.736Z" transform="translate(-318.92 -266.75)" fill="#dbdbdb"/>
            <path id="Path_11" data-name="Path 11" d="M437.691,387.324h-9.115L423.46,266.75H432.2Z" transform="translate(-333.733 -266.75)" fill="#a6a6a6"/>
          </g>
        </g>
        <g id="Table" transform="translate(0 310.794)">
          <line id="Line_1" data-name="Line 1" x2="359.214" fill="none" stroke="#263238" stroke-miterlimit="10" stroke-width="1"/>
        </g>
        <g id="Screens" transform="translate(11.747 0)">
          <g id="Group_15" data-name="Group 15" transform="translate(0)">
            <g id="Group_12" data-name="Group 12">
              <g id="Group_10" data-name="Group 10">
                <rect id="Rectangle_14" data-name="Rectangle 14" width="85.298" height="54.412" transform="translate(0.539 0.54)" fill="#fff"/>
                <path id="Path_12" data-name="Path 12" d="M140.8,112.023H54.427V56.532H140.8Zm-85.3-1.078h84.221V57.611H55.505Z" transform="translate(-54.427 -56.532)" fill="#ebebeb"/>
              </g>
              <g id="Group_11" data-name="Group 11">
                <rect id="Rectangle_15" data-name="Rectangle 15" width="85.298" height="10.29" transform="translate(0.539 0.54)" fill="#ffc727"/>
                <path id="Path_13" data-name="Path 13" d="M140.8,67.9H54.427V56.532H140.8Zm-85.3-1.079h84.221V57.611H55.505Z" transform="translate(-54.427 -56.532)" fill="#ebebeb"/>
              </g>
            </g>
            <g id="Group_13" data-name="Group 13" transform="translate(5.019 3.17)">
              <path id="Path_14" data-name="Path 14" d="M65.454,62.814a2.589,2.589,0,1,1-2.589-2.589A2.59,2.59,0,0,1,65.454,62.814Z" transform="translate(-60.275 -60.225)" fill="#a6a6a6"/>
              <path id="Path_15" data-name="Path 15" d="M77.776,62.814a2.59,2.59,0,1,1-2.59-2.589A2.59,2.59,0,0,1,77.776,62.814Z" transform="translate(-62.021 -60.225)" fill="#ebebeb"/>
              <path id="Path_16" data-name="Path 16" d="M90.1,62.814a2.59,2.59,0,1,1-2.59-2.589A2.59,2.59,0,0,1,90.1,62.814Z" transform="translate(-63.767 -60.225)" fill="#fff"/>
            </g>
            <g id="Group_14" data-name="Group 14" transform="translate(15.261 20.858)">
              <path id="Path_17" data-name="Path 17" d="M72.208,91.151A10.521,10.521,0,0,1,82.726,80.834a10.723,10.723,0,0,1,6.621,2.235,1.7,1.7,0,0,1,.286,2.293,1.679,1.679,0,0,1-2.293.315A7.144,7.144,0,0,0,82.726,84.1a7.584,7.584,0,0,0-5.158,2.062,7.069,7.069,0,0,0-2.093,4.987,6.97,6.97,0,0,0,2.093,4.988A7.585,7.585,0,0,0,82.726,98.2a7.2,7.2,0,0,0,4.614-1.577,1.738,1.738,0,0,1,2.293.316,1.692,1.692,0,0,1-.286,2.293,10.723,10.723,0,0,1-6.621,2.235A10.483,10.483,0,0,1,72.208,91.151Z" transform="translate(-72.208 -80.834)" fill="#ebebeb"/>
              <path id="Path_18" data-name="Path 18" d="M98.2,96.482a1.494,1.494,0,0,1,2.092-.2,9.342,9.342,0,0,0,5.473,2.206,6.175,6.175,0,0,0,3.583-1.06,2.578,2.578,0,0,0,1.233-2.063,1.629,1.629,0,0,0-.258-.917,2.688,2.688,0,0,0-.859-.86,11.476,11.476,0,0,0-3.926-1.348h-.058a15.479,15.479,0,0,1-3.7-1.118,6.167,6.167,0,0,1-2.665-2.235,4.393,4.393,0,0,1-.659-2.35,5.294,5.294,0,0,1,2.293-4.184,8.469,8.469,0,0,1,4.958-1.519,11.234,11.234,0,0,1,6.248,2.293,1.477,1.477,0,0,1,.4,2.035,1.449,1.449,0,0,1-2.036.43,8.313,8.313,0,0,0-4.613-1.834,5.477,5.477,0,0,0-3.211.974,2.284,2.284,0,0,0-1.088,1.806,1.388,1.388,0,0,0,.2.8,2.76,2.76,0,0,0,.774.746,9.866,9.866,0,0,0,3.582,1.261h.057a16.883,16.883,0,0,1,3.956,1.2,6.691,6.691,0,0,1,2.865,2.379,4.637,4.637,0,0,1,.689,2.436,5.548,5.548,0,0,1-2.465,4.443,8.966,8.966,0,0,1-5.3,1.633,12.358,12.358,0,0,1-7.337-2.866A1.525,1.525,0,0,1,98.2,96.482Z" transform="translate(-75.847 -80.834)" fill="#ebebeb"/>
              <path id="Path_19" data-name="Path 19" d="M120.137,96.482a1.494,1.494,0,0,1,2.092-.2,9.342,9.342,0,0,0,5.473,2.206,6.175,6.175,0,0,0,3.583-1.06,2.578,2.578,0,0,0,1.233-2.063,1.629,1.629,0,0,0-.258-.917,2.688,2.688,0,0,0-.859-.86,11.476,11.476,0,0,0-3.926-1.348h-.058a15.479,15.479,0,0,1-3.7-1.118,6.167,6.167,0,0,1-2.665-2.235,4.393,4.393,0,0,1-.659-2.35,5.294,5.294,0,0,1,2.293-4.184,8.469,8.469,0,0,1,4.958-1.519,11.233,11.233,0,0,1,6.248,2.293,1.477,1.477,0,0,1,.4,2.035,1.449,1.449,0,0,1-2.036.43,8.313,8.313,0,0,0-4.613-1.834,5.477,5.477,0,0,0-3.211.974,2.284,2.284,0,0,0-1.088,1.806,1.388,1.388,0,0,0,.2.8,2.748,2.748,0,0,0,.774.746,9.865,9.865,0,0,0,3.582,1.261h.057a16.883,16.883,0,0,1,3.956,1.2,6.691,6.691,0,0,1,2.865,2.379,4.638,4.638,0,0,1,.689,2.436A5.548,5.548,0,0,1,133,99.807a8.966,8.966,0,0,1-5.3,1.633,12.358,12.358,0,0,1-7.337-2.866A1.524,1.524,0,0,1,120.137,96.482Z" transform="translate(-78.955 -80.834)" fill="#ebebeb"/>
            </g>
          </g>
          <g id="Group_21" data-name="Group 21" transform="translate(140.888 155.681)">
            <g id="Group_18" data-name="Group 18">
              <g id="Group_16" data-name="Group 16">
                <rect id="Rectangle_16" data-name="Rectangle 16" width="85.298" height="54.412" transform="translate(0.539 0.539)" fill="#fff"/>
                <path id="Path_20" data-name="Path 20" d="M304.951,293.4H218.575v-55.49h86.376Zm-85.3-1.079h84.22V238.993h-84.22Z" transform="translate(-218.575 -237.915)" fill="#ebebeb"/>
              </g>
              <g id="Group_17" data-name="Group 17">
                <rect id="Rectangle_17" data-name="Rectangle 17" width="85.298" height="10.29" transform="translate(0.539 0.539)" fill="#ffc727"/>
                <path id="Path_21" data-name="Path 21" d="M304.951,249.282H218.575V237.915h86.376Zm-85.3-1.078h84.22v-9.211h-84.22Z" transform="translate(-218.575 -237.915)" fill="#ebebeb"/>
              </g>
            </g>
            <g id="Group_19" data-name="Group 19" transform="translate(5.018 3.169)">
              <path id="Path_22" data-name="Path 22" d="M229.6,244.2a2.59,2.59,0,1,1-2.59-2.59A2.589,2.589,0,0,1,229.6,244.2Z" transform="translate(-224.422 -241.607)" fill="#a6a6a6"/>
              <path id="Path_23" data-name="Path 23" d="M241.923,244.2a2.59,2.59,0,1,1-2.59-2.59A2.589,2.589,0,0,1,241.923,244.2Z" transform="translate(-226.168 -241.607)" fill="#ebebeb"/>
              <path id="Path_24" data-name="Path 24" d="M254.244,244.2a2.59,2.59,0,1,1-2.59-2.59A2.589,2.589,0,0,1,254.244,244.2Z" transform="translate(-227.914 -241.607)" fill="#fff"/>
            </g>
            <g id="Group_20" data-name="Group 20" transform="translate(16.465 20.858)">
              <path id="Path_25" data-name="Path 25" d="M237.758,272.534a10.521,10.521,0,0,1,10.518-10.318,10.726,10.726,0,0,1,6.621,2.236,1.645,1.645,0,0,1-2.007,2.608,7.142,7.142,0,0,0-4.614-1.576,7.585,7.585,0,0,0-5.158,2.063,7.069,7.069,0,0,0-2.093,4.987,6.968,6.968,0,0,0,2.093,4.987,7.585,7.585,0,0,0,5.158,2.063,7.2,7.2,0,0,0,4.614-1.576,1.738,1.738,0,0,1,2.293.315,1.692,1.692,0,0,1-.287,2.293,10.726,10.726,0,0,1-6.621,2.236A10.483,10.483,0,0,1,237.758,272.534Z" transform="translate(-237.758 -262.216)" fill="#ebebeb"/>
              <path id="Path_26" data-name="Path 26" d="M268.846,274.893h-4.07a1.572,1.572,0,0,1-1.576-1.577,1.59,1.59,0,0,1,1.576-1.576h4.07v-3.984a1.615,1.615,0,0,1,1.633-1.633,1.632,1.632,0,0,1,1.633,1.633v3.984h4.07a1.59,1.59,0,0,1,1.576,1.576,1.572,1.572,0,0,1-1.576,1.577h-4.07v3.983a1.632,1.632,0,0,1-1.633,1.633,1.615,1.615,0,0,1-1.633-1.633Z" transform="translate(-241.363 -262.77)" fill="#ebebeb"/>
              <path id="Path_27" data-name="Path 27" d="M289.547,274.893h-4.069a1.572,1.572,0,0,1-1.577-1.577,1.59,1.59,0,0,1,1.577-1.576h4.069v-3.984a1.614,1.614,0,0,1,1.633-1.633,1.633,1.633,0,0,1,1.634,1.633v3.984h4.069a1.591,1.591,0,0,1,1.577,1.576,1.573,1.573,0,0,1-1.577,1.577h-4.069v3.983a1.633,1.633,0,0,1-1.634,1.633,1.615,1.615,0,0,1-1.633-1.633Z" transform="translate(-244.296 -262.77)" fill="#ebebeb"/>
            </g>
          </g>
          <g id="Group_28" data-name="Group 28" transform="translate(44.147 51.132)">
            <g id="Group_24" data-name="Group 24">
              <g id="Group_22" data-name="Group 22">
                <rect id="Rectangle_18" data-name="Rectangle 18" width="142.254" height="116.826" transform="translate(0.539 0.539)" fill="#fff"/>
                <path id="Path_28" data-name="Path 28" d="M249.194,234.011H105.862v-117.9H249.194ZM106.94,232.932H248.116V117.185H106.94Z" transform="translate(-105.862 -116.106)" fill="#ebebeb"/>
              </g>
              <g id="Group_23" data-name="Group 23">
                <rect id="Rectangle_19" data-name="Rectangle 19" width="142.254" height="10.29" transform="translate(0.539 0.539)" fill="#ffc727"/>
                <path id="Path_29" data-name="Path 29" d="M249.194,127.474H105.862V116.106H249.194ZM106.94,126.4H248.116v-9.211H106.94Z" transform="translate(-105.862 -116.106)" fill="#ebebeb"/>
              </g>
            </g>
            <g id="Group_25" data-name="Group 25" transform="translate(5.018 3.169)">
              <path id="Path_30" data-name="Path 30" d="M116.889,122.388a2.59,2.59,0,1,1-2.59-2.59A2.59,2.59,0,0,1,116.889,122.388Z" transform="translate(-111.709 -119.798)" fill="#a6a6a6"/>
              <path id="Path_31" data-name="Path 31" d="M129.21,122.388a2.59,2.59,0,1,1-2.59-2.59A2.59,2.59,0,0,1,129.21,122.388Z" transform="translate(-113.455 -119.798)" fill="#ebebeb"/>
              <path id="Path_32" data-name="Path 32" d="M141.531,122.388a2.59,2.59,0,1,1-2.589-2.59A2.59,2.59,0,0,1,141.531,122.388Z" transform="translate(-115.201 -119.798)" fill="#fff"/>
            </g>
            <g id="Group_27" data-name="Group 27" transform="translate(11.578 21.582)">
              <rect id="Rectangle_20" data-name="Rectangle 20" width="5.502" height="2.01" transform="translate(0 9.718)" fill="#ebebeb"/>
              <rect id="Rectangle_21" data-name="Rectangle 21" width="63.107" height="2.01" transform="translate(9.511 9.718)" fill="#ebebeb"/>
              <rect id="Rectangle_22" data-name="Rectangle 22" width="10.45" height="2.01" transform="translate(75.998 9.718)" fill="#ffc727"/>
              <rect id="Rectangle_23" data-name="Rectangle 23" width="10.45" height="2.009" transform="translate(99.899 36.609)" fill="#ebebeb"/>
              <rect id="Rectangle_24" data-name="Rectangle 24" width="18.064" height="2.01" transform="translate(88.72 9.718)" fill="#a6a6a6"/>
              <rect id="Rectangle_25" data-name="Rectangle 25" width="5.501" height="2.01" transform="translate(5.502 15.096)" fill="#ebebeb"/>
              <rect id="Rectangle_26" data-name="Rectangle 26" width="41.415" height="2.01" transform="translate(14.874 15.096)" fill="#a6a6a6"/>
              <rect id="Rectangle_27" data-name="Rectangle 27" width="24.249" height="2.009" transform="translate(73.169 36.609)" fill="#a6a6a6"/>
              <rect id="Rectangle_28" data-name="Rectangle 28" width="39.557" height="2.009" transform="translate(9.511 31.23)" fill="#a6a6a6"/>
              <rect id="Rectangle_29" data-name="Rectangle 29" width="27.751" height="2.01" transform="translate(14.874 20.474)" fill="#ffc727"/>
              <rect id="Rectangle_30" data-name="Rectangle 30" width="10.585" height="2.009" transform="translate(82.986 25.852)" fill="#a6a6a6"/>
              <rect id="Rectangle_31" data-name="Rectangle 31" width="44.316" height="2.01" transform="translate(45.704 20.474)" fill="#a6a6a6"/>
              <rect id="Rectangle_32" data-name="Rectangle 32" width="52.899" height="2.009" transform="translate(9.511 36.609)" fill="#ffc727"/>
              <rect id="Rectangle_33" data-name="Rectangle 33" width="28.668" height="2.01" transform="translate(87.555 15.096)" fill="#ffc727"/>
              <rect id="Rectangle_34" data-name="Rectangle 34" width="26.394" height="2.01" transform="translate(58.889 15.096)" fill="#ebebeb"/>
              <rect id="Rectangle_35" data-name="Rectangle 35" width="17.811" height="2.01" transform="translate(92.103 20.474)" fill="#ebebeb"/>
              <rect id="Rectangle_36" data-name="Rectangle 36" width="5.501" height="2.01" transform="translate(5.502 20.474)" fill="#ebebeb"/>
              <rect id="Rectangle_37" data-name="Rectangle 37" width="5.502" height="2.009" transform="translate(0 25.852)" fill="#a6a6a6"/>
              <rect id="Rectangle_38" data-name="Rectangle 38" width="32.514" height="2.009" transform="translate(9.511 25.852)" fill="#ebebeb"/>
              <rect id="Rectangle_39" data-name="Rectangle 39" width="32.514" height="2.01" transform="translate(14.874 41.987)" fill="#ebebeb"/>
              <rect id="Rectangle_40" data-name="Rectangle 40" width="24.719" height="2.01" transform="translate(75.501 47.365)" fill="#ffc727"/>
              <rect id="Rectangle_41" data-name="Rectangle 41" width="32.605" height="2.01" transform="translate(50.027 41.987)" fill="#ffc727"/>
              <rect id="Rectangle_42" data-name="Rectangle 42" width="28.382" height="2.01" transform="translate(44.277 47.365)" fill="#ebebeb"/>
              <rect id="Rectangle_43" data-name="Rectangle 43" width="9.414" height="2.01" transform="translate(14.874 47.365)" fill="#a6a6a6"/>
              <rect id="Rectangle_44" data-name="Rectangle 44" width="35.141" height="2.009" transform="translate(51.307 31.23)" fill="#ebebeb"/>
              <rect id="Rectangle_45" data-name="Rectangle 45" width="22.359" height="2.009" transform="translate(88.72 31.23)" fill="#ffc727"/>
              <rect id="Rectangle_46" data-name="Rectangle 46" width="35.099" height="2.009" transform="translate(45.33 25.852)" fill="#ffc727"/>
              <rect id="Rectangle_47" data-name="Rectangle 47" width="5.502" height="2.009" transform="translate(0 31.23)" fill="#ebebeb"/>
              <rect id="Rectangle_48" data-name="Rectangle 48" width="5.502" height="2.009" transform="translate(0 36.609)" fill="#ebebeb"/>
              <rect id="Rectangle_49" data-name="Rectangle 49" width="5.501" height="2.01" transform="translate(5.502 41.987)" fill="#a6a6a6"/>
              <rect id="Rectangle_50" data-name="Rectangle 50" width="5.501" height="2.01" transform="translate(5.502 47.365)" fill="#ebebeb"/>
              <rect id="Rectangle_51" data-name="Rectangle 51" width="5.502" height="2.01" transform="translate(0 51.869)" fill="#ebebeb"/>
              <rect id="Rectangle_52" data-name="Rectangle 52" width="63.107" height="2.01" transform="translate(9.511 51.869)" fill="#ebebeb"/>
              <rect id="Rectangle_53" data-name="Rectangle 53" width="5.501" height="2.01" transform="translate(5.502 57.247)" fill="#ebebeb"/>
              <rect id="Rectangle_54" data-name="Rectangle 54" width="41.415" height="2.01" transform="translate(14.874 57.247)" fill="#a6a6a6"/>
              <rect id="Rectangle_55" data-name="Rectangle 55" width="39.557" height="2.009" transform="translate(9.511 73.382)" fill="#a6a6a6"/>
              <rect id="Rectangle_56" data-name="Rectangle 56" width="27.751" height="2.01" transform="translate(14.874 62.625)" fill="#ffc727"/>
              <rect id="Rectangle_57" data-name="Rectangle 57" width="44.316" height="2.01" transform="translate(45.704 62.625)" fill="#a6a6a6"/>
              <rect id="Rectangle_58" data-name="Rectangle 58" width="52.899" height="2.009" transform="translate(9.511 78.76)" fill="#ffc727"/>
              <rect id="Rectangle_59" data-name="Rectangle 59" width="28.668" height="2.01" transform="translate(87.555 57.247)" fill="#ffc727"/>
              <rect id="Rectangle_60" data-name="Rectangle 60" width="26.394" height="2.01" transform="translate(58.889 57.247)" fill="#ebebeb"/>
              <rect id="Rectangle_61" data-name="Rectangle 61" width="17.811" height="2.01" transform="translate(92.103 62.625)" fill="#ebebeb"/>
              <rect id="Rectangle_62" data-name="Rectangle 62" width="5.501" height="2.01" transform="translate(5.502 62.625)" fill="#ebebeb"/>
              <rect id="Rectangle_63" data-name="Rectangle 63" width="5.502" height="2.009" transform="translate(0 68.004)" fill="#a6a6a6"/>
              <rect id="Rectangle_64" data-name="Rectangle 64" width="32.514" height="2.009" transform="translate(9.511 68.004)" fill="#ebebeb"/>
              <rect id="Rectangle_65" data-name="Rectangle 65" width="35.141" height="2.009" transform="translate(51.307 73.382)" fill="#ebebeb"/>
              <rect id="Rectangle_66" data-name="Rectangle 66" width="35.099" height="2.009" transform="translate(45.33 68.004)" fill="#ffc727"/>
              <rect id="Rectangle_67" data-name="Rectangle 67" width="5.502" height="2.009" transform="translate(0 73.382)" fill="#ebebeb"/>
              <g id="Group_26" data-name="Group 26" transform="translate(0.453)">
                <path id="Path_33" data-name="Path 33" d="M122.824,145.676a.475.475,0,0,1-.331.815.505.505,0,0,1-.348-.136l-2.122-2.153c-.023-.008-.03-.022-.038-.045a.094.094,0,0,0-.023-.015.23.23,0,0,1-.022-.061.04.04,0,0,1-.023-.03c-.007-.015-.007-.038-.015-.046s-.015-.03-.015-.038v-.052c0-.015-.008-.022-.008-.046,0-.008.008-.031.008-.038v-.052c0-.015.015-.023.015-.031s.008-.038.015-.061c0-.007.008-.007.008-.015a.669.669,0,0,1,.038-.068.015.015,0,0,1,.015-.015.137.137,0,0,1,.045-.052l2.122-2.153a.492.492,0,0,1,.679,0,.477.477,0,0,1,0,.68l-1.789,1.8Z" transform="translate(-119.879 -141.251)" fill="#ffc727"/>
                <path id="Path_34" data-name="Path 34" d="M125.546,145.92l1.85-4.4a.418.418,0,0,1,.551-.219.406.406,0,0,1,.211.536l-1.85,4.411a.42.42,0,0,1-.385.249.365.365,0,0,1-.151-.03A.408.408,0,0,1,125.546,145.92Z" transform="translate(-120.677 -141.253)" fill="#ffc727"/>
                <path id="Path_35" data-name="Path 35" d="M132.356,144.143a.007.007,0,0,1-.008.007.345.345,0,0,1-.053.053l-2.122,2.153a.493.493,0,0,1-.679,0,.477.477,0,0,1,0-.68l1.789-1.805-1.789-1.8a.477.477,0,0,1,0-.68.492.492,0,0,1,.679,0l2.122,2.153a.341.341,0,0,1,.053.052c.008,0,.008.015.008.015.015.03.029.046.038.068s.008.008.008.015a.285.285,0,0,0,.022.069c0,.008.007.008.007.023v.052c0,.007.009.03.009.038s-.009.03-.009.038v.06c0,.008-.007.008-.007.015a.452.452,0,0,0-.022.068c0,.008-.008.008-.008.022S132.371,144.113,132.356,144.143Z" transform="translate(-121.221 -141.251)" fill="#ffc727"/>
              </g>
            </g>
          </g>
          <g id="Group_30" data-name="Group 30" transform="translate(145.053 35.288)">
            <rect id="Rectangle_68" data-name="Rectangle 68" width="58.11" height="21.513" fill="#6300b7"/>
            <g id="Group_29" data-name="Group 29" transform="translate(8.385 4.789)">
              <path id="Path_36" data-name="Path 36" d="M233.2,113.657v-9.542a.877.877,0,0,1,.889-.889.89.89,0,0,1,.905.889V108h4.189v-3.881a.877.877,0,0,1,.89-.889.89.89,0,0,1,.906.889v9.542a.891.891,0,0,1-.906.89.878.878,0,0,1-.89-.89v-3.881h-4.189v3.881a.891.891,0,0,1-.905.89A.877.877,0,0,1,233.2,113.657Z" transform="translate(-233.197 -103.226)" fill="#fff"/>
              <path id="Path_37" data-name="Path 37" d="M253.334,105.022h-2.572v8.635a.889.889,0,1,1-1.778,0v-8.635h-2.555a.9.9,0,0,1-.89-.906.877.877,0,0,1,.89-.889h6.905a.887.887,0,0,1,.889.889A.912.912,0,0,1,253.334,105.022Z" transform="translate(-234.946 -103.226)" fill="#fff"/>
              <path id="Path_38" data-name="Path 38" d="M268.5,104.115v9.542a.913.913,0,0,1-.905.89.888.888,0,0,1-.89-.89v-6.808l-2.329,3.234a.885.885,0,0,1-.728.372h-.033a.912.912,0,0,1-.743-.372l-2.313-3.234v6.808a.9.9,0,0,1-1.8,0v-9.542a.9.9,0,0,1,.89-.889h.048a.876.876,0,0,1,.712.372l3.219,4.464,3.218-4.464a.883.883,0,0,1,.727-.372h.017A.923.923,0,0,1,268.5,104.115Z" transform="translate(-236.82 -103.226)" fill="#fff"/>
              <path id="Path_39" data-name="Path 39" d="M274.67,113.657v-9.542a.887.887,0,0,1,.889-.889.9.9,0,0,1,.905.889v8.636h4.383a.9.9,0,0,1,0,1.8h-5.289A.887.887,0,0,1,274.67,113.657Z" transform="translate(-239.074 -103.226)" fill="#fff"/>
            </g>
          </g>
          <g id="Group_32" data-name="Group 32" transform="translate(0 117.487)">
            <rect id="Rectangle_69" data-name="Rectangle 69" width="47.887" height="21.513" fill="#6300b7"/>
            <g id="Group_31" data-name="Group 31" transform="translate(10.462 4.789)">
              <path id="Path_40" data-name="Path 40" d="M70.4,205.917H68.412v3.509a.9.9,0,0,1-1.8,0v-9.542a.887.887,0,0,1,.891-.889H70.4a3.461,3.461,0,1,1,0,6.922Zm-1.988-1.8H70.4a1.666,1.666,0,1,0,0-3.331H68.412Z" transform="translate(-66.616 -198.995)" fill="#fff"/>
              <path id="Path_41" data-name="Path 41" d="M77.6,209.426v-9.542a.877.877,0,0,1,.889-.889.891.891,0,0,1,.906.889v3.882h4.188v-3.882a.878.878,0,0,1,.891-.889.891.891,0,0,1,.906.889v9.542a.891.891,0,0,1-.906.89.878.878,0,0,1-.891-.89v-3.881H79.4v3.881a.891.891,0,0,1-.906.89A.877.877,0,0,1,77.6,209.426Z" transform="translate(-68.173 -198.995)" fill="#fff"/>
              <path id="Path_42" data-name="Path 42" d="M94.747,205.917h-1.99v3.509a.9.9,0,0,1-1.794,0v-9.542a.886.886,0,0,1,.888-.889h2.9a3.461,3.461,0,1,1,0,6.922Zm-1.99-1.8h1.99a1.666,1.666,0,1,0,0-3.331h-1.99Z" transform="translate(-70.066 -198.995)" fill="#fff"/>
            </g>
          </g>
          <g id="Group_34" data-name="Group 34" transform="translate(173.873 92.284)">
            <path id="Path_43" data-name="Path 43" d="M273.073,188.708l3.634,8.774-3.629,1.5-3.653-8.833-6,4.653V170.087l17.3,17.479Z" transform="translate(-257.915 -164.907)" fill="#263238"/>
            <g id="Group_33" data-name="Group 33">
              <path id="Path_44" data-name="Path 44" d="M263.392,166.537a3.264,3.264,0,0,1-.22-1.243,3.231,3.231,0,0,1,.22-1.242,3.246,3.246,0,0,1,.22,1.242A3.282,3.282,0,0,1,263.392,166.537Z" transform="translate(-257.879 -164.052)" fill="#263238"/>
              <path id="Path_45" data-name="Path 45" d="M260.644,167.69a3.628,3.628,0,0,1-1.758-1.757,3.249,3.249,0,0,1,1.034.724A3.283,3.283,0,0,1,260.644,167.69Z" transform="translate(-257.271 -164.319)" fill="#263238"/>
              <path id="Path_46" data-name="Path 46" d="M259.491,170.438a3.284,3.284,0,0,1-1.243.22,3.251,3.251,0,0,1-1.243-.22,3.625,3.625,0,0,1,2.486,0Z" transform="translate(-257.005 -164.926)" fill="#263238"/>
              <path id="Path_47" data-name="Path 47" d="M260.644,172.968A3.3,3.3,0,0,1,259.92,174a3.247,3.247,0,0,1-1.034.723,3.629,3.629,0,0,1,1.758-1.757Z" transform="translate(-257.271 -165.315)" fill="#263238"/>
              <path id="Path_48" data-name="Path 48" d="M266.954,170.438a3.287,3.287,0,0,1,1.243-.22,3.252,3.252,0,0,1,1.243.22,3.251,3.251,0,0,1-1.243.22A3.286,3.286,0,0,1,266.954,170.438Z" transform="translate(-258.415 -164.926)" fill="#263238"/>
              <path id="Path_49" data-name="Path 49" d="M265.921,167.69a3.284,3.284,0,0,1,.724-1.033,3.249,3.249,0,0,1,1.034-.724,3.628,3.628,0,0,1-1.758,1.757Z" transform="translate(-258.268 -164.319)" fill="#263238"/>
            </g>
          </g>
        </g>
        <g id="Character" transform="translate(97.105 116.03)">
          <g id="Group_68" data-name="Group 68">
            <g id="Group_67" data-name="Group 67">
              <g id="Group_39" data-name="Group 39" transform="translate(0 70.54)">
                <g id="Group_37" data-name="Group 37" transform="translate(0 0.783)">
                  <path id="Path_50" data-name="Path 50" d="M323.116,288.213c-6.617,28.818-20.012,65.305-30.362,72.664-8.349,5.939-52.142,16.4-54.583,16.662-6.046.61-17.986-42.1-11.718-43.833,7.9-2.187,45.427-3.354,47.563-5.546,2.215-2.293,15.873-20.788,31.337-42.215C316.024,271.141,327.222,270.332,323.116,288.213Z" transform="translate(-163.911 -274.816)" fill="#dd6a57"/>
                  <g id="Group_36" data-name="Group 36" transform="translate(0 58.891)">
                    <path id="Path_51" data-name="Path 51" d="M232.991,384.917c-.72.365-10.946,5.508-17.269,7.34-4.717,1.367-18.4,4.94-20.424-.1-1.383-3.438,6.418-6.486,11.886-8.764,2.88-1.2,6.43-4.216,5.581-6.067-1.484-3.238-8.9.014-13.776,2.848-9.429,5.479-21.991,15.341-27.751,10.557-2.175-1.808.353-5.1,4.052-8.331-6,3.764-12.4,6.85-14.9,4.937-1.433-1.089-1.5-2.585-.7-4.293-1.853.6-3.491.485-4.632-.723-1.952-2.041-1-5.055,1.135-8.144a2.326,2.326,0,0,1-1.772-1.164c-4.131-6.3,16.545-24.384,23.7-26.076,21.039-5,43.421-3.178,43.421-3.178C229.8,350.357,233.007,384.9,232.991,384.917Z" transform="translate(-153.877 -343.429)" fill="#dd6a57"/>
                    <g id="Group_35" data-name="Group 35" transform="translate(2.14 5.385)">
                      <path id="Path_52" data-name="Path 52" d="M205.48,369.2a35.708,35.708,0,0,0-14.033,5.4c-5.333,3.52-8.871,7.641-13.347,11.79-.118.109.048.3.166.186,2.133-1.973,10.968-9.388,13.251-11.074a34.007,34.007,0,0,1,13.982-6.219C205.554,369.276,205.535,369.192,205.48,369.2Z" transform="translate(-159.444 -352.466)" fill="#263238"/>
                      <path id="Path_53" data-name="Path 53" d="M199.116,358.8c-5.529,1.511-11.195,3.04-16.327,5.655-5.616,2.862-10.011,7.528-14.334,12.019q-3.892,4.045-7.6,8.26c-.1.118.055.3.167.185q6.578-6.957,13.568-13.513a44.979,44.979,0,0,1,14.891-9.385c3.165-1.206,6.415-2.167,9.66-3.125C199.2,358.879,199.179,358.782,199.116,358.8Z" transform="translate(-157.001 -350.992)" fill="#263238"/>
                      <path id="Path_54" data-name="Path 54" d="M192.579,349.7c-5.372,1.1-10.059,2.046-14.817,4.925-6.3,3.812-12.378,10.234-14.51,12.51-2.357,2.515-4.626,5.106-6.857,7.732-.091.106.093.267.187.161a178.36,178.36,0,0,1,16.389-16.23,35.464,35.464,0,0,1,9.163-5.959,63.956,63.956,0,0,1,10.452-3.1A.018.018,0,0,0,192.579,349.7Z" transform="translate(-156.37 -349.703)" fill="#263238"/>
                    </g>
                  </g>
                </g>
                <g id="Group_38" data-name="Group 38" transform="translate(110.428)">
                  <path id="Path_55" data-name="Path 55" d="M282.536,323.83l40.366-1.713s7.33-20,10.026-37.758S320.5,272.978,305.513,292.1,282.536,323.83,282.536,323.83Z" transform="translate(-282.536 -273.904)" fill="#ffc727"/>
                  <path id="Path_56" data-name="Path 56" d="M297.926,313.456c.275-.076.549-.109.823-.166a1.644,1.644,0,0,1,2,1.6,1.288,1.288,0,0,0,.589,1.105,1.513,1.513,0,0,0,.678.228c.275.056.549.089.823.166-.274.076-.548.11-.823.167a1.608,1.608,0,0,1-.918-.088,1.7,1.7,0,0,1-1.028-1.566,1.269,1.269,0,0,0-.625-1.072,1.608,1.608,0,0,0-.693-.209C298.475,313.565,298.2,313.532,297.926,313.456Zm28.4-24.521a1.614,1.614,0,0,1,.693.209,1.268,1.268,0,0,1,.625,1.072,1.694,1.694,0,0,0,1.028,1.566,1.609,1.609,0,0,0,.918.088c.275-.057.548-.09.823-.167-.275-.077-.548-.111-.823-.166a1.511,1.511,0,0,1-.678-.228,1.288,1.288,0,0,1-.589-1.105,1.645,1.645,0,0,0-2-1.6c-.275.056-.548.089-.823.166C325.777,288.845,326.051,288.879,326.325,288.935Zm1.024,15.726a1.606,1.606,0,0,1-.638.342,1.269,1.269,0,0,1-1.2-.316,1.693,1.693,0,0,0-1.835-.38,1.613,1.613,0,0,0-.711.586c-.155.233-.324.451-.464.7.249-.139.466-.31.7-.464a1.5,1.5,0,0,1,.641-.318,1.288,1.288,0,0,1,1.2.365,1.644,1.644,0,0,0,2.543-.28c.154-.233.325-.451.465-.7C327.8,304.336,327.584,304.506,327.349,304.66Zm-10.966-18.347a1.688,1.688,0,0,1-.644.343,1.291,1.291,0,0,1-1.2-.318,2.247,2.247,0,0,0-.215-.189c-.163.163-.318.326-.472.5a1.079,1.079,0,0,1,.223.18,1.675,1.675,0,0,0,1.854.326,1.647,1.647,0,0,0,.687-.609c.154-.232.326-.446.463-.7C316.829,285.987,316.615,286.159,316.383,286.313Zm-4.565,15.116a1.615,1.615,0,0,1-.209.693,1.269,1.269,0,0,1-1.072.625,1.694,1.694,0,0,0-1.566,1.028,1.61,1.61,0,0,0-.088.917c.057.275.089.548.167.823.077-.275.11-.548.167-.823a1.491,1.491,0,0,1,.228-.678,1.287,1.287,0,0,1,1.105-.589,1.645,1.645,0,0,0,1.6-2c-.057-.275-.089-.548-.166-.823C311.907,300.881,311.873,301.155,311.818,301.43ZM323.374,316.8a1.614,1.614,0,0,1-.21.693,1.271,1.271,0,0,1-1.072.625,1.693,1.693,0,0,0-1.566,1.028,1.608,1.608,0,0,0-.088.918c.057.274.089.548.167.823.077-.275.11-.549.167-.823a1.491,1.491,0,0,1,.228-.678,1.286,1.286,0,0,1,1.106-.589,1.643,1.643,0,0,0,1.6-2c-.056-.275-.088-.549-.166-.823C323.462,316.253,323.43,316.527,323.374,316.8Z" transform="translate(-284.717 -275.596)" fill="#fff"/>
                  <path id="Path_57" data-name="Path 57" d="M325.612,319.858c-8.73-.222-17.488.165-26.215.724q-3.7.238-7.4.649c-.069.008-.077.11,0,.11,4.362.02,8.723-.139,13.086-.273s8.753-.3,13.123-.561c2.468-.145,4.934-.287,7.4-.483C325.712,320.016,325.721,319.861,325.612,319.858Z" transform="translate(-283.87 -280.406)" fill="#263238"/>
                </g>
              </g>
              <g id="Group_40" data-name="Group 40" transform="translate(121.751 64.402)">
                <path id="Path_58" data-name="Path 58" d="M295.729,387.325H398.756c1.136-2.082-15.75-92.328-50.5-117.739-7.709-5.638-21.385-2.012-25.189,3.47C303.952,300.609,295.729,387.325,295.729,387.325Z" transform="translate(-295.729 -266.753)" fill="#ffe76f"/>
                <path id="Path_59" data-name="Path 59" d="M339.52,311.244c.274-.076.548-.109.822-.166a1.644,1.644,0,0,1,2,1.6,1.291,1.291,0,0,0,.589,1.105,1.516,1.516,0,0,0,.679.228c.274.056.548.089.822.167-.274.076-.548.11-.822.167a1.609,1.609,0,0,1-.918-.088,1.7,1.7,0,0,1-1.029-1.566,1.27,1.27,0,0,0-.624-1.072,1.617,1.617,0,0,0-.693-.209C340.069,311.354,339.794,311.321,339.52,311.244Zm16.005,54.475a1.6,1.6,0,0,1,.693.209,1.268,1.268,0,0,1,.625,1.072,1.7,1.7,0,0,0,1.029,1.566,1.614,1.614,0,0,0,.917.089c.275-.057.549-.09.823-.167-.274-.076-.548-.11-.823-.166a1.5,1.5,0,0,1-.678-.228,1.286,1.286,0,0,1-.588-1.105,1.645,1.645,0,0,0-2-1.6c-.274.056-.548.089-.823.166C354.977,365.631,355.252,365.663,355.526,365.72Zm18.9-51.374a1.59,1.59,0,0,1,.693.209,1.269,1.269,0,0,1,.625,1.072,1.692,1.692,0,0,0,1.028,1.566,1.609,1.609,0,0,0,.918.088c.274-.057.548-.089.823-.166-.275-.077-.549-.11-.823-.166a1.492,1.492,0,0,1-.678-.228,1.286,1.286,0,0,1-.589-1.105,1.643,1.643,0,0,0-2-1.6c-.275.056-.549.089-.823.166C373.875,314.256,374.15,314.289,374.425,314.345Zm-48.315-27.622a1.616,1.616,0,0,1,.693.209,1.268,1.268,0,0,1,.625,1.072,1.694,1.694,0,0,0,1.028,1.566,1.608,1.608,0,0,0,.917.088c.275-.057.548-.09.823-.166-.275-.077-.548-.111-.823-.166a1.512,1.512,0,0,1-.678-.228,1.287,1.287,0,0,1-.589-1.105,1.645,1.645,0,0,0-2-1.6c-.275.056-.548.089-.823.166C325.561,286.634,325.835,286.668,326.109,286.724Zm29.739-.622a1.591,1.591,0,0,1,.693.209,1.267,1.267,0,0,1,.625,1.071,1.7,1.7,0,0,0,1.028,1.567,1.616,1.616,0,0,0,.918.088c.275-.056.548-.089.823-.167-.275-.077-.548-.11-.823-.166a1.493,1.493,0,0,1-.678-.228,1.285,1.285,0,0,1-.589-1.105,1.645,1.645,0,0,0-2-1.6c-.275.056-.548.089-.823.166C355.3,286.012,355.574,286.045,355.848,286.1Zm-37.039,48.032a1.614,1.614,0,0,1,.693.209,1.271,1.271,0,0,1,.625,1.072,1.693,1.693,0,0,0,1.028,1.566,1.609,1.609,0,0,0,.918.088c.275-.057.548-.09.823-.167-.275-.077-.548-.111-.823-.167a1.513,1.513,0,0,1-.678-.228,1.287,1.287,0,0,1-.589-1.106,1.645,1.645,0,0,0-2-1.6c-.275.056-.548.089-.823.166C318.261,334.044,318.535,334.078,318.809,334.134ZM351.24,383.9a1.6,1.6,0,0,1,.693.209,1.269,1.269,0,0,1,.626,1.072,1.693,1.693,0,0,0,1.028,1.566,1.607,1.607,0,0,0,.917.088c.274-.056.548-.089.822-.166-.274-.077-.548-.111-.822-.167a1.5,1.5,0,0,1-.679-.228,1.286,1.286,0,0,1-.588-1.1,1.645,1.645,0,0,0-2-1.6c-.274.056-.549.089-.822.166C350.692,383.806,350.966,383.839,351.24,383.9Zm-15.968-26.739a1.614,1.614,0,0,1,.693.209,1.271,1.271,0,0,1,.625,1.072A1.692,1.692,0,0,0,337.618,360a1.608,1.608,0,0,0,.918.088c.275-.057.548-.089.823-.167-.275-.077-.548-.111-.823-.167a1.508,1.508,0,0,1-.679-.228,1.289,1.289,0,0,1-.588-1.105,1.645,1.645,0,0,0-2-1.6c-.275.057-.549.089-.823.166C334.723,357.068,335,357.1,335.272,357.157Zm-36.564,27.41a1.517,1.517,0,0,1-.678-.232,1.256,1.256,0,0,1-.584-1.107,1.671,1.671,0,0,0-.978-1.485c-.026.223-.051.429-.069.635a1.186,1.186,0,0,1,.361.867,1.7,1.7,0,0,0,1.03,1.562,1.567,1.567,0,0,0,.918.094c.275-.06.549-.094.824-.172C299.258,384.652,298.983,384.618,298.709,384.566Zm7.023-22.551a1.6,1.6,0,0,1,.693.21,1.268,1.268,0,0,1,.625,1.072,1.7,1.7,0,0,0,1.029,1.566,1.6,1.6,0,0,0,.918.088c.274-.056.548-.089.822-.167-.274-.076-.548-.11-.822-.166a1.507,1.507,0,0,1-.679-.229,1.286,1.286,0,0,1-.588-1.1,1.645,1.645,0,0,0-2-1.6c-.274.056-.548.089-.823.166C305.184,361.926,305.459,361.96,305.732,362.015Zm43.138-27.227a1.614,1.614,0,0,1,.693.209,1.27,1.27,0,0,1,.625,1.072,1.693,1.693,0,0,0,1.028,1.566,1.609,1.609,0,0,0,.917.088c.275-.057.548-.09.823-.167-.275-.077-.548-.111-.823-.167a1.5,1.5,0,0,1-.678-.229,1.285,1.285,0,0,1-.589-1.1,1.645,1.645,0,0,0-2-1.6c-.275.056-.549.089-.823.166C348.321,334.7,348.6,334.733,348.87,334.788Zm37.776,36.61a1.609,1.609,0,0,1,.693.209,1.269,1.269,0,0,1,.625,1.072,1.7,1.7,0,0,0,1.029,1.566,1.606,1.606,0,0,0,.917.088c.275-.057.549-.09.823-.166-.274-.077-.548-.111-.823-.167a1.506,1.506,0,0,1-.678-.229,1.287,1.287,0,0,1-.589-1.1,1.645,1.645,0,0,0-2-1.6c-.274.057-.548.089-.823.166C386.1,371.309,386.373,371.343,386.647,371.4Zm-15-22.348a1.615,1.615,0,0,1,.694.209,1.269,1.269,0,0,1,.624,1.072A1.7,1.7,0,0,0,374,351.9a1.608,1.608,0,0,0,.918.088c.274-.056.548-.089.823-.166-.275-.077-.549-.111-.823-.167a1.51,1.51,0,0,1-.679-.229,1.286,1.286,0,0,1-.588-1.1,1.645,1.645,0,0,0-2-1.6c-.274.056-.548.089-.822.166C371.1,348.961,371.377,348.994,371.651,349.05Zm-44.517-46.6a1.607,1.607,0,0,1-.638.342,1.269,1.269,0,0,1-1.2-.316,1.693,1.693,0,0,0-1.835-.38,1.613,1.613,0,0,0-.711.586c-.154.233-.324.451-.464.7.249-.139.466-.31.7-.464a1.5,1.5,0,0,1,.641-.318,1.287,1.287,0,0,1,1.2.365,1.644,1.644,0,0,0,2.543-.28c.155-.233.325-.451.465-.7C327.585,302.125,327.367,302.295,327.133,302.449Zm44.389,31.94a1.607,1.607,0,0,1-.638.342,1.271,1.271,0,0,1-1.2-.317,1.694,1.694,0,0,0-1.835-.38,1.616,1.616,0,0,0-.712.586c-.154.234-.324.451-.463.7.248-.14.465-.311.7-.464a1.5,1.5,0,0,1,.641-.318,1.286,1.286,0,0,1,1.2.366,1.645,1.645,0,0,0,2.544-.281c.154-.233.324-.451.464-.7C371.973,334.065,371.756,334.235,371.523,334.389Zm-27.7-59.467a1.605,1.605,0,0,1-.638.342,1.268,1.268,0,0,1-1.2-.316,1.692,1.692,0,0,0-1.834-.38,1.6,1.6,0,0,0-.712.586c-.154.233-.324.451-.464.7.249-.139.466-.31.7-.464a1.5,1.5,0,0,1,.641-.318,1.287,1.287,0,0,1,1.2.365,1.643,1.643,0,0,0,2.543-.28c.154-.234.325-.451.465-.7C344.273,274.6,344.055,274.768,343.821,274.922Zm-.545,17.614a1.591,1.591,0,0,1-.209.693,1.27,1.27,0,0,1-1.072.625,1.694,1.694,0,0,0-1.566,1.028,1.615,1.615,0,0,0-.088.918c.056.274.089.548.167.823.077-.275.11-.549.166-.823a1.491,1.491,0,0,1,.228-.678,1.285,1.285,0,0,1,1.105-.589,1.645,1.645,0,0,0,1.6-2c-.056-.275-.089-.549-.166-.823C343.365,291.987,343.333,292.261,343.276,292.536ZM336.738,340.8a1.614,1.614,0,0,1-.209.693,1.269,1.269,0,0,1-1.072.625,1.692,1.692,0,0,0-1.566,1.028,1.609,1.609,0,0,0-.088.918c.057.275.089.548.167.823.077-.275.111-.548.166-.823a1.511,1.511,0,0,1,.228-.678,1.287,1.287,0,0,1,1.105-.589,1.645,1.645,0,0,0,1.6-2c-.057-.275-.089-.548-.166-.823C336.827,340.249,336.794,340.523,336.738,340.8Zm34.248-42.044a.7.7,0,0,1-.137.009,1.691,1.691,0,0,0-1.571,1.03,1.627,1.627,0,0,0-.086.918c.052.275.086.549.163.824.077-.275.112-.549.172-.824a1.475,1.475,0,0,1,.223-.678,1.3,1.3,0,0,1,1.107-.592,1.319,1.319,0,0,0,.446-.077C371.2,299.157,371.089,298.96,370.986,298.754Zm-.236,77.953a1.617,1.617,0,0,1-.209.694,1.271,1.271,0,0,1-1.072.625,1.692,1.692,0,0,0-1.566,1.028,1.608,1.608,0,0,0-.088.918c.057.274.09.548.167.823.077-.275.111-.549.167-.823a1.519,1.519,0,0,1,.228-.679,1.289,1.289,0,0,1,1.105-.588,1.645,1.645,0,0,0,1.6-2c-.057-.274-.089-.548-.166-.822C370.839,376.158,370.806,376.433,370.75,376.707Zm14.733-43.75a.255.255,0,0,1-.034.069,1.25,1.25,0,0,1-1.073.627,1.7,1.7,0,0,0-1.562,1.03,1.567,1.567,0,0,0-.094.918c.06.275.094.549.172.824.077-.275.112-.549.163-.824a1.514,1.514,0,0,1,.232-.678,1.283,1.283,0,0,1,1.107-.592,1.7,1.7,0,0,0,1.322-.678v-.009C385.637,333.42,385.56,333.189,385.483,332.957Zm-75.349,9.567a1.614,1.614,0,0,1-.209.693,1.271,1.271,0,0,1-1.072.625,1.693,1.693,0,0,0-1.566,1.028,1.609,1.609,0,0,0-.088.918c.057.274.09.548.166.823.077-.275.111-.549.167-.823a1.513,1.513,0,0,1,.228-.678,1.287,1.287,0,0,1,1.105-.589,1.645,1.645,0,0,0,1.6-2c-.056-.275-.089-.549-.166-.823C310.223,341.975,310.189,342.25,310.134,342.524Zm1.81-43.247c-.146.481-.292.953-.438,1.433a1.574,1.574,0,0,0,.369-.575A1.748,1.748,0,0,0,311.944,299.277ZM327.4,271.069a1.6,1.6,0,0,1-.21.693,1.267,1.267,0,0,1-1.071.625,1.692,1.692,0,0,0-1.566,1.028,1.61,1.61,0,0,0-.088.918c.057.275.089.549.167.823.077-.275.11-.548.166-.823a1.491,1.491,0,0,1,.228-.678,1.285,1.285,0,0,1,1.105-.589,1.645,1.645,0,0,0,1.6-2c-.056-.275-.088-.548-.166-.823C327.487,270.521,327.454,270.795,327.4,271.069Zm-4.241,43.522a1.615,1.615,0,0,1-.209.693,1.272,1.272,0,0,1-1.072.625,1.692,1.692,0,0,0-1.566,1.028,1.609,1.609,0,0,0-.088.918c.057.274.089.548.167.823.077-.275.11-.549.167-.823a1.491,1.491,0,0,1,.228-.678,1.286,1.286,0,0,1,1.105-.589,1.643,1.643,0,0,0,1.6-2c-.056-.275-.088-.549-.166-.823C323.246,314.042,323.213,314.316,323.158,314.591Zm38.079,5.85a1.613,1.613,0,0,1-.209.693,1.271,1.271,0,0,1-1.072.625,1.693,1.693,0,0,0-1.566,1.028,1.609,1.609,0,0,0-.088.917c.057.275.089.548.167.823.077-.275.11-.549.166-.823a1.5,1.5,0,0,1,.228-.678,1.286,1.286,0,0,1,1.105-.589,1.643,1.643,0,0,0,1.6-2c-.056-.275-.088-.549-.165-.823C361.325,319.892,361.293,320.166,361.237,320.441Zm-35.195,48.871a1.61,1.61,0,0,1-.209.693,1.269,1.269,0,0,1-1.072.625,1.7,1.7,0,0,0-1.566,1.028,1.608,1.608,0,0,0-.088.917c.057.275.09.549.167.823.077-.274.111-.548.166-.823a1.517,1.517,0,0,1,.228-.678,1.29,1.29,0,0,1,1.106-.589,1.644,1.644,0,0,0,1.6-2c-.056-.274-.089-.548-.166-.823C326.131,368.763,326.1,369.038,326.042,369.312Zm29.533-63.973a1.592,1.592,0,0,1,.639-.342,1.267,1.267,0,0,1,1.2.316,1.694,1.694,0,0,0,1.835.38,1.616,1.616,0,0,0,.712-.586c.154-.233.324-.451.463-.7-.248.139-.465.31-.7.464a1.5,1.5,0,0,1-.641.318,1.285,1.285,0,0,1-1.2-.365,1.644,1.644,0,0,0-2.544.28c-.155.233-.324.451-.464.7C355.125,305.663,355.342,305.493,355.576,305.338Zm-22.214,20.12a1.609,1.609,0,0,1,.638-.342,1.271,1.271,0,0,1,1.2.317,1.694,1.694,0,0,0,1.835.38,1.608,1.608,0,0,0,.711-.586c.154-.234.325-.451.464-.7-.248.139-.466.31-.7.463a1.49,1.49,0,0,1-.641.318,1.287,1.287,0,0,1-1.2-.366,1.644,1.644,0,0,0-2.543.281c-.155.234-.324.451-.464.7C332.911,325.783,333.128,325.613,333.362,325.459ZM318.313,355.1a1.616,1.616,0,0,1,.638-.342,1.269,1.269,0,0,1,1.2.317,1.7,1.7,0,0,0,1.835.38,1.6,1.6,0,0,0,.711-.587c.154-.233.325-.451.464-.7-.248.14-.466.311-.7.464a1.5,1.5,0,0,1-.641.318,1.286,1.286,0,0,1-1.2-.366,1.645,1.645,0,0,0-2.544.281c-.154.234-.324.451-.464.7C317.863,355.425,318.08,355.254,318.313,355.1Zm6.505,30.8a1.615,1.615,0,0,1,.638-.342,1.271,1.271,0,0,1,1.2.316,1.7,1.7,0,0,0,1.835.381,1.613,1.613,0,0,0,.711-.586c.154-.234.325-.451.464-.7-.248.14-.466.311-.7.464a1.5,1.5,0,0,1-.641.318,1.286,1.286,0,0,1-1.2-.366,1.646,1.646,0,0,0-2.544.28c-.155.234-.324.451-.464.7C324.368,386.225,324.585,386.054,324.818,385.9Zm29.119-33.847a1.6,1.6,0,0,1,.639-.342,1.267,1.267,0,0,1,1.2.316,1.7,1.7,0,0,0,1.835.381,1.611,1.611,0,0,0,.711-.587c.154-.233.324-.451.464-.7-.248.14-.465.31-.7.464a1.5,1.5,0,0,1-.641.318,1.287,1.287,0,0,1-1.2-.366,1.645,1.645,0,0,0-2.543.28c-.154.234-.325.451-.465.7C353.487,352.378,353.7,352.207,353.938,352.052Zm20.044,12.268a1.593,1.593,0,0,1,.638-.342,1.268,1.268,0,0,1,1.2.316,1.694,1.694,0,0,0,1.835.38,1.612,1.612,0,0,0,.711-.586c.154-.233.325-.452.464-.7-.248.139-.466.31-.7.464a1.5,1.5,0,0,1-.641.318,1.288,1.288,0,0,1-1.2-.365,1.645,1.645,0,0,0-2.543.28c-.155.233-.325.451-.464.7C373.531,364.644,373.748,364.474,373.982,364.32Zm-33.715,9.312a1.608,1.608,0,0,1,.638-.342,1.269,1.269,0,0,1,1.2.316,1.693,1.693,0,0,0,1.835.38,1.613,1.613,0,0,0,.711-.586c.154-.233.324-.451.464-.7-.249.139-.466.31-.7.464a1.493,1.493,0,0,1-.641.318,1.288,1.288,0,0,1-1.2-.365,1.645,1.645,0,0,0-2.543.28c-.154.233-.325.451-.465.7C339.815,373.957,340.032,373.786,340.267,373.632ZM383.75,385.9a1.615,1.615,0,0,1,.638-.342,1.269,1.269,0,0,1,1.2.317,1.693,1.693,0,0,0,1.834.38,1.611,1.611,0,0,0,.712-.586c.154-.234.324-.451.464-.7-.249.14-.466.311-.7.464a1.5,1.5,0,0,1-.641.318,1.288,1.288,0,0,1-1.2-.366,1.644,1.644,0,0,0-2.543.281c-.155.233-.325.451-.465.7C383.3,386.225,383.516,386.054,383.75,385.9Zm7.758-33.339a1.258,1.258,0,0,1-.541-.326,1.647,1.647,0,0,0-2.54.283c-.154.232-.326.446-.464.7.249-.137.464-.309.7-.464a1.723,1.723,0,0,1,.635-.343,1.285,1.285,0,0,1,1.2.318,1.7,1.7,0,0,0,1.193.506ZM309.24,377.874a1.61,1.61,0,0,1,.639-.342,1.269,1.269,0,0,1,1.2.316,1.692,1.692,0,0,0,1.834.38,1.606,1.606,0,0,0,.712-.586c.154-.233.324-.451.464-.7-.249.139-.466.31-.7.464a1.5,1.5,0,0,1-.641.318,1.286,1.286,0,0,1-1.2-.365,1.645,1.645,0,0,0-2.543.28c-.154.233-.325.451-.465.7C308.79,378.2,309.007,378.029,309.24,377.874Zm-2.483-51.718a1.609,1.609,0,0,1,.639-.342,1.267,1.267,0,0,1,1.2.316,1.693,1.693,0,0,0,1.835.38,1.61,1.61,0,0,0,.712-.586c.154-.233.324-.451.463-.7-.248.14-.465.31-.7.464a1.486,1.486,0,0,1-.641.318,1.286,1.286,0,0,1-1.2-.365,1.645,1.645,0,0,0-2.543.28c-.155.233-.325.451-.465.7C306.306,326.482,306.524,326.311,306.757,326.157Z" transform="translate(-295.824 -267.248)" fill="#fff"/>
                <path id="Path_60" data-name="Path 60" d="M312.7,302.046q-1.421,5.138-2.747,10.292c.116-1.5.279-3,.472-4.487.011-.088-.124-.126-.142-.034a32.265,32.265,0,0,0-.615,5.621c-1.057,4.146-2.059,8.3-2.981,12.486-1.765,8.016-3.334,16.088-4.634,24.187-.733,4.567-1.3,9.165-2.082,13.722-.015.085.119.118.135.033.717-4.043,1.669-8.065,2.549-12.077q1.313-5.981,2.552-11.977c1.665-8.036,3.426-16.053,5.083-24.091.932-4.528,1.8-9.069,2.736-13.6A.167.167,0,0,0,312.7,302.046Z" transform="translate(-296.329 -271.737)" fill="#263238"/>
              </g>
              <g id="Group_56" data-name="Group 56" transform="translate(108.276)">
                <path id="Path_61" data-name="Path 61" d="M306.8,238.185c1.142,6.25-2.377,12.129-7.86,13.131s-10.855-3.252-12-9.5,2.378-12.129,7.86-13.131S305.655,231.935,306.8,238.185Z" transform="translate(-280.977 -196.935)" fill="#455a64"/>
                <path id="Path_62" data-name="Path 62" d="M310.257,237.781c1.271,6.953-2.643,13.493-8.744,14.608s-12.075-3.618-13.346-10.571,2.644-13.494,8.744-14.609S308.986,230.828,310.257,237.781Z" transform="translate(-281.148 -196.724)" fill="#c7c7c7"/>
                <g id="Group_42" data-name="Group 42" transform="translate(31.516 46.349)">
                  <g id="Group_41" data-name="Group 41" transform="translate(0.002)">
                    <path id="Path_63" data-name="Path 63" d="M331.736,289.48c6.214-.036,14.122-11.463,16.341-19.707.149-.566-6.764-20.021-7.733-24.018-.195-.822-23.594,12.172-23.594,12.172s4.5,7.782,6.145,14.761C323.026,273.274,325.73,289.511,331.736,289.48Z" transform="translate(-316.75 -245.718)" fill="#dd6a57"/>
                  </g>
                  <path id="Path_64" data-name="Path 64" d="M325.76,274.2a14.132,14.132,0,0,1-2.481.455c-.1-.489-.189-.9-.249-1.219a.093.093,0,0,0-.009-.043.505.505,0,0,0-.017-.112c-.026-.12-.043-.249-.077-.378a.253.253,0,0,0-.017-.077l-.026-.1a41.6,41.6,0,0,0-1.408-4.6,72.865,72.865,0,0,0-3.828-8.506q-.18-.348-.335-.618c-.309-.575-.506-.927-.549-1.013-.017-.009-.017-.017-.017-.017h.009c.051-.034.266-.155.618-.352.223-.12.5-.275.824-.455a.045.045,0,0,0,.034-.017l.549-.3c.215-.12.438-.24.678-.378.2-.1.412-.223.627-.343.034-.017.077-.043.12-.069.258-.137.532-.283.815-.446.06-.034.129-.069.189-.1.266-.146.541-.292.815-.446.137-.077.283-.154.429-.232.429-.232.867-.472,1.322-.721.335-.18.67-.36,1.013-.549.283-.154.575-.309.858-.464.961-.523,1.948-1.056,2.935-1.579.318-.172.635-.343.944-.515,1.159-.618,2.3-1.219,3.39-1.785.249-.129.489-.258.729-.378.163-.086.326-.172.481-.249.2-.1.386-.2.575-.3.429-.223.841-.429,1.236-.627l.755-.378c.369-.189.712-.352,1.038-.506.163-.086.326-.154.472-.223.446-.215.833-.386,1.15-.515.077-.034.146-.06.206-.086v.009C339.853,252.731,339.313,270.575,325.76,274.2Z" transform="translate(-316.748 -245.751)" fill="#263238"/>
                </g>
                <g id="Group_55" data-name="Group 55">
                  <g id="Group_43" data-name="Group 43" transform="translate(10.519 7.871)">
                    <path id="Path_65" data-name="Path 65" d="M329.856,209.287c5.54,7.8,9.313,34.393,5,42.04-6.248,11.085-20.639,16.743-31.109,8.281-10.149-8.2-14.452-42.951-9.251-50.328C302.162,198.414,321.671,197.772,329.856,209.287Z" transform="translate(-292.284 -200.889)" fill="#dd6a57"/>
                  </g>
                  <g id="Group_49" data-name="Group 49" transform="translate(12.001 30.954)">
                    <g id="Group_44" data-name="Group 44" transform="translate(16.244 6.638)">
                      <path id="Path_66" data-name="Path 66" d="M312.946,238.022c0-.07.152.064.16.138.206,1.8.745,3.824,2.452,4.18.052.011.061.1,0,.1C313.54,242.455,312.852,239.759,312.946,238.022Z" transform="translate(-312.937 -235.868)" fill="#263238"/>
                      <path id="Path_67" data-name="Path 67" d="M314.27,235.566c2.848-.641,3.921,5.1,1.283,5.695C312.957,241.845,311.884,236.1,314.27,235.566Z" transform="translate(-312.938 -235.516)" fill="#263238"/>
                    </g>
                    <g id="Group_45" data-name="Group 45" transform="translate(2.729 9.326)">
                      <path id="Path_68" data-name="Path 68" d="M301.379,240.475c-.026-.066-.124.11-.107.182.389,1.768.536,3.858-.962,4.75-.046.027-.025.117.033.1C302.255,244.86,302.032,242.086,301.379,240.475Z" transform="translate(-297.629 -238.904)" fill="#263238"/>
                      <path id="Path_69" data-name="Path 69" d="M299.005,238.657c-2.9.318-2.052,6.1.635,5.8C302.286,244.17,301.437,238.39,299.005,238.657Z" transform="translate(-297.191 -238.648)" fill="#263238"/>
                    </g>
                    <path id="Path_70" data-name="Path 70" d="M315.729,231.421a22.7,22.7,0,0,1-2.37-.368,3.88,3.88,0,0,1-2.346-.835,1.236,1.236,0,0,1-.08-1.506,3.065,3.065,0,0,1,2.978-.878,4.5,4.5,0,0,1,2.906,1.437A1.318,1.318,0,0,1,315.729,231.421Z" transform="translate(-296.378 -227.783)" fill="#263238"/>
                    <path id="Path_71" data-name="Path 71" d="M295.794,235.051a22.649,22.649,0,0,0,2.172-1.019,3.876,3.876,0,0,0,2.016-1.461,1.235,1.235,0,0,0-.347-1.469,3.064,3.064,0,0,0-3.1-.006,4.5,4.5,0,0,0-2.386,2.2A1.318,1.318,0,0,0,295.794,235.051Z" transform="translate(-294.011 -228.192)" fill="#263238"/>
                    <path id="Path_72" data-name="Path 72" d="M318.448,256.762c-.349.5-.666,1.149-1.3,1.324a4.778,4.778,0,0,1-2-.09.063.063,0,0,0-.06.106,2.434,2.434,0,0,0,2.438.543,1.925,1.925,0,0,0,1.1-1.834C318.641,256.7,318.5,256.69,318.448,256.762Z" transform="translate(-296.995 -231.883)" fill="#263238"/>
                    <g id="Group_47" data-name="Group 47" transform="translate(6.914 2.056)">
                      <g id="Group_46" data-name="Group 46">
                        <path id="Path_73" data-name="Path 73" d="M313.739,248.026a6.156,6.156,0,0,1-3.538,3.45,7.744,7.744,0,0,1-2.16.507,2.252,2.252,0,0,1-.425.03c-.133.009-.252.015-.4.013a.45.45,0,0,1-.431-.331l0-.014a.878.878,0,0,1-.017-.185l0-.014-.026-.156c-.293-1.363-.549-3.47-.549-3.47-.454.344-2.79,1.969-2.884,1.245-.754-5.988-1.592-12.648-1.077-18.767a.168.168,0,0,1,.333-.015c.953,5.727.891,11.583,1.756,17.35a10.789,10.789,0,0,1,2.7-1.4c.205.02.423,4.082.6,4.683a.228.228,0,0,0,.024.063c2.356-.136,3.96-1.155,5.905-3.118C313.657,247.771,313.82,247.865,313.739,248.026Z" transform="translate(-302.067 -230.178)" fill="#263238"/>
                      </g>
                    </g>
                    <g id="Group_48" data-name="Group 48" transform="translate(13.567 19.86)">
                      <path id="Path_74" data-name="Path 74" d="M309.818,254.078a7.312,7.312,0,0,0,3.293,1.692,3.291,3.291,0,0,0,1.986-.245c1.35-.639,1.142-1.949.673-3.015a7.883,7.883,0,0,0-.955-1.589A9.464,9.464,0,0,1,309.818,254.078Z" transform="translate(-309.818 -250.921)" fill="#263238"/>
                      <path id="Path_75" data-name="Path 75" d="M313.653,256.032a3.291,3.291,0,0,0,1.986-.245c1.35-.639,1.142-1.949.673-3.015C314.82,253.212,313.506,254.528,313.653,256.032Z" transform="translate(-310.36 -251.183)" fill="#ff99ba"/>
                    </g>
                  </g>
                  <g id="Group_51" data-name="Group 51">
                    <path id="Path_76" data-name="Path 76" d="M334.049,220.931c1.768,2.242,5.636,7.609,6.948,7.677-1.356-8.658-3.568-16.221-7.017-20.241a17.832,17.832,0,0,0-5.066-4.092C329.407,206.554,332.175,218.584,334.049,220.931Z" transform="translate(-286.956 -193.497)" fill="#263238" opacity="0.2"/>
                    <g id="Group_50" data-name="Group 50">
                      <path id="Path_77" data-name="Path 77" d="M304.808,216.886a8.615,8.615,0,0,0,8.138,2.02,8.784,8.784,0,0,0,6.132-5.963.069.069,0,0,1,.134.033,8.7,8.7,0,0,1-6.068,6.6,8.868,8.868,0,0,1-8.482-2.537C304.57,216.941,304.707,216.792,304.808,216.886Z" transform="translate(-283.515 -194.718)" fill="#263238"/>
                      <path id="Path_78" data-name="Path 78" d="M310.837,191.775c4.969-.45,9.828,1.781,12.02,4.953a9.656,9.656,0,0,1,1.639,6.148c0,.088-.183.089-.185,0a10.6,10.6,0,0,0-6.041-8.961,13.668,13.668,0,0,0-12.172-.09,8.649,8.649,0,0,0-4.2,4.224c-.076.19-.461.115-.4-.077C302.495,194.728,306.341,192.182,310.837,191.775Z" transform="translate(-283.07 -191.718)" fill="#263238"/>
                      <path id="Path_79" data-name="Path 79" d="M280.219,206.633a11,11,0,0,1,4-6.4c2.829-2.225,6.3-2.335,9.749-2.372a.073.073,0,0,1,0,.145c-2.937.042-5.914.257-8.431,1.923a10.814,10.814,0,0,0-4.381,5.789,10.538,10.538,0,0,0,5.8,12.518,10.7,10.7,0,0,0,8.486-.091c.1-.046.2.1.1.154a10.763,10.763,0,0,1-15.322-11.666Z" transform="translate(-280.029 -192.588)" fill="#263238"/>
                      <path id="Path_80" data-name="Path 80" d="M331.212,213.958s3.668-9.41-.865-14.08c-2.569-2.647-9.918-1.4-9.918-1.4a13.427,13.427,0,0,0-9.171-4.655c-6.356-.69-13.289,3.787-13.289,3.787s-6.273-2.675-11.409,1.118c-7.162,5.287-4.831,16.868,3.338,19.72,5.735,2,12.539-3.664,12.539-3.664.72.013,8.488,3.534,13.212-3.582,0,0,4.922,3.438,8.6.192A6.5,6.5,0,0,0,331.212,213.958Z" transform="translate(-280.348 -192.006)" fill="#263238"/>
                    </g>
                  </g>
                  <g id="Group_52" data-name="Group 52" transform="translate(8.624 32.071)">
                    <path id="Path_81" data-name="Path 81" d="M315.984,244.557a7.754,7.754,0,0,1-8.2-7.257h0a7.748,7.748,0,1,1,8.2,7.258Zm-7.169-7.32a6.706,6.706,0,1,0,4.648-6.8A6.718,6.718,0,0,0,308.815,237.237Z" transform="translate(-292.583 -229.083)" fill="#ffc727"/>
                    <path id="Path_82" data-name="Path 82" d="M297.419,248.2c-3.119.61-6.324-2.3-7.146-6.492a9.25,9.25,0,0,1,.564-5.628,4.825,4.825,0,0,1,8.106-1.587,9.24,9.24,0,0,1,2.647,5c.776,3.965-.857,7.677-3.679,8.581A4.478,4.478,0,0,1,297.419,248.2Zm-5.642-11.684a8.22,8.22,0,0,0-.487,4.994c.712,3.629,3.372,6.175,5.932,5.673s4.063-3.862,3.353-7.493a8.227,8.227,0,0,0-2.336-4.44,4.129,4.129,0,0,0-3.6-1.233,3.2,3.2,0,0,0-.38.1A4.268,4.268,0,0,0,291.776,236.514Z" transform="translate(-290.076 -229.626)" fill="#ffc727"/>
                    <path id="Path_83" data-name="Path 83" d="M307.419,239.35l.5-.906c-1.341-.742-4.262-1.522-5.729.828l.878.548C304.379,237.714,307.3,239.284,307.419,239.35Z" transform="translate(-291.793 -230.304)" fill="#ffc727"/>
                    <path id="Path_84" data-name="Path 84" d="M344.772,233.469l.811-.644c-.3-.378-3-3.693-5.34-3.617-2.188.077-15.557,4.021-16.125,4.189l.294.993c3.832-1.136,14.174-4.093,15.864-4.147C341.822,230.193,344.045,232.555,344.772,233.469Z" transform="translate(-294.9 -229.101)" fill="#ffc727"/>
                  </g>
                  <g id="Group_53" data-name="Group 53" transform="translate(49.542 29.379)">
                    <path id="Path_85" data-name="Path 85" d="M337.75,235.055s3.167-9.935,7.5-9.053,3.725,14.045-.118,17.016a4.629,4.629,0,0,1-6.662-.533Z" transform="translate(-337.75 -225.947)" fill="#dd6a57"/>
                    <path id="Path_86" data-name="Path 86" d="M345.424,230.4c.068-.027.112.066.059.109-2.664,2.183-3.389,5.509-3.6,8.788.556-1.409,1.6-2.412,3.444-1.8.1.033.059.18-.032.189a2.848,2.848,0,0,0-2.7,1.88,13.757,13.757,0,0,0-.68,2.867c-.058.317-.6.324-.59-.022,0-.025,0-.051,0-.078C340.045,238.469,341.374,232.091,345.424,230.4Z" transform="translate(-338.19 -226.578)" fill="#263238"/>
                  </g>
                  <g id="Group_54" data-name="Group 54" transform="translate(17.619 0.925)">
                    <path id="Path_87" data-name="Path 87" d="M337.271,222.836s-.617-13.889-5.5-21.042c-5.44-7.963-20.459-13.3-31.21-4.319,0,0,15.61-4.055,25.827,5.535,4.7,4.411,6.325,20.707,6.325,20.707Z" transform="translate(-300.557 -192.796)" fill="#c7c7c7"/>
                    <ellipse id="Ellipse_2" data-name="Ellipse 2" cx="11.228" cy="12.798" rx="11.228" ry="12.798" transform="translate(23.288 25.715) rotate(-5.792)" fill="#c7c7c7"/>
                    <path id="Path_88" data-name="Path 88" d="M332.927,234.677c.641,6.321,5.657,10.99,11.2,10.427s9.522-6.143,8.881-12.464-5.657-10.99-11.2-10.427S332.286,228.355,332.927,234.677Z" transform="translate(-305.134 -196.958)" fill="#455a64"/>
                  </g>
                </g>
              </g>
              <g id="Group_66" data-name="Group 66" transform="translate(65.979 68.371)">
                <g id="Group_63" data-name="Group 63" transform="translate(0 0.283)">
                  <path id="Path_89" data-name="Path 89" d="M362.116,279.2c16.635,17.817,56.206,84.676,43.377,97.005-12.921,12.416-84.03-4.267-104.029-13.795-5.949-2.834,16.658-39.925,23.65-40.792,5.821-.721,35.584,12.893,36.445,11.18.972-1.934-5.788-14.353-12.947-40.21C340.355,262.778,354.768,271.334,362.116,279.2Z" transform="translate(-240.629 -271.707)" fill="#dd6a57"/>
                  <g id="Group_62" data-name="Group 62" transform="translate(0.422 26.608)">
                    <path id="Path_90" data-name="Path 90" d="M287.992,314.044c-14.459-2.015-18.48-.312-29.781-8.492-7.415-5.368-14.025-2.936-9.794,5.593,6.92,13.95,25.029,20.466,31.958,20.917Z" transform="translate(-233.487 -302.707)" fill="#dd6a57"/>
                    <g id="Group_57" data-name="Group 57" transform="translate(0 10.863)">
                      <path id="Path_91" data-name="Path 91" d="M324.153,329.756s-16.247-9.022-31.443-12.693c-10.509-2.538-33.988-5.511-56.451,17.654-5.328,5.495-9.024,17.1,2.938,11.289,8.5-4.129,12.637-9.315,18.017-10.817,0,0-2.948,15.323,2.765,20.446a141.3,141.3,0,0,0,15.883,12.323,29.7,29.7,0,0,0,2.572-2.766s5.788,4.282,16.685,3.244Z" transform="translate(-231.241 -315.363)" fill="#dd6a57"/>
                    </g>
                    <g id="Group_61" data-name="Group 61" transform="translate(12.641 11.742)">
                      <path id="Path_92" data-name="Path 92" d="M284.38,316.388c-5.025,2.62-15.58,8.351-22.584,16.042-7.78,8.543-20.464,27.1-14.1,32.775,4.667,4.164,10.133-2.494,10.133-2.494s-3.626,8.773,1.413,11.613c4.592,2.586,8.512-2.818,8.512-2.818s-1.285,5.7,3.618,7.34c5.9,1.972,7.623-10.3,15.321-13.462C288.425,364.674,284.38,316.388,284.38,316.388Z" transform="translate(-245.969 -316.388)" fill="#dd6a57"/>
                      <g id="Group_60" data-name="Group 60" transform="translate(11.775 22.746)">
                        <g id="Group_58" data-name="Group 58">
                          <path id="Path_93" data-name="Path 93" d="M274.138,342.9c-4.322,3.238-12.248,13.112-14.441,23.339-.049.232.1.393.189.191a113.428,113.428,0,0,1,14.333-23.457C274.259,342.924,274.186,342.864,274.138,342.9Z" transform="translate(-259.688 -342.889)" fill="#263238"/>
                        </g>
                        <g id="Group_59" data-name="Group 59" transform="translate(9.817 8.101)">
                          <path id="Path_94" data-name="Path 94" d="M284.155,352.342c-3.441,3.177-11.157,13.719-13.023,24.159-.042.233.118.385.2.18a121.523,121.523,0,0,1,12.908-24.27C284.277,352.359,284.2,352.3,284.155,352.342Z" transform="translate(-271.125 -352.328)" fill="#263238"/>
                        </g>
                      </g>
                    </g>
                  </g>
                  <path id="Path_95" data-name="Path 95" d="M257.14,338.351c-4.711,1.387-7.776,3.7-11.754,6.46a64.793,64.793,0,0,1-6.07,3.844c-1.92,1.038-4.751,2.607-6.8.981-1.137-.9-1.121-2.551-.868-3.849a10.4,10.4,0,0,1,1.707-4.07c.044-.062-.063-.14-.107-.079a13.98,13.98,0,0,0-1.949,3.483,6.279,6.279,0,0,0-.426,3.678c.693,2.6,3.757,2.94,5.927,2.226a20.548,20.548,0,0,0,3.709-1.8c1.142-.655,2.252-1.365,3.344-2.1,2.24-1.513,4.39-3.154,6.612-4.693a61.4,61.4,0,0,1,6.741-3.926C257.3,338.461,257.234,338.324,257.14,338.351Z" transform="translate(-230.749 -281.15)" fill="#263238"/>
                  <path id="Path_96" data-name="Path 96" d="M249.339,354.93c1.219-2.686,7.822-13.877,9.964-16.467a.067.067,0,0,0-.1-.093c-3.673,3.482-9.575,12.729-10.951,15.692-1.359,2.928-2.925,6.67-2.925,9.934,0,4.923,3.265,5.856,4.473,6.1a6.381,6.381,0,0,0,4.189-.686,12.848,12.848,0,0,0,3.8-3.569c.052-.067-.039-.159-.1-.093-1.705,1.939-4.54,3.854-7.216,3.5a4.473,4.473,0,0,1-3.044-1.643,5.793,5.793,0,0,1-.787-3.965A26.9,26.9,0,0,1,249.339,354.93Z" transform="translate(-232.815 -281.15)" fill="#263238"/>
                  <path id="Path_97" data-name="Path 97" d="M269.267,379.048c-.685.586-2.1,2.628-4.34,3.064a5.074,5.074,0,0,1-4.618-1.031,6.4,6.4,0,0,1-1.772-4.478,41.274,41.274,0,0,1,1.031-6.2c.026-.1-.095-.139-.124-.049a22.837,22.837,0,0,0-1.479,6.666,6.707,6.707,0,0,0,1.885,4.908A5.033,5.033,0,0,0,265,383c.877-.328,3.648-2.1,4.453-3.855C269.473,379.108,269.3,379.023,269.267,379.048Z" transform="translate(-234.605 -285.679)" fill="#263238"/>
                  <path id="Path_98" data-name="Path 98" d="M289.769,372.442a11.938,11.938,0,0,0-2.086,1.76c-.691.664-1.359,1.357-2.009,2.061a27.889,27.889,0,0,0-3.406,4.667c-.995,1.67-1.911,3.531-3.533,4.692a4.609,4.609,0,0,1-5.389.134,4.507,4.507,0,0,1-1.683-2.5,8.774,8.774,0,0,1-.314-3.359.067.067,0,1,0-.132-.015,15.543,15.543,0,0,0-.242,3.051,5.37,5.37,0,0,0,.966,2.593,5.138,5.138,0,0,0,5.026,1.878,7.566,7.566,0,0,0,4.682-3.6c1.245-1.862,2.268-3.848,3.6-5.658.7-.953,1.385-1.914,2.152-2.813.8-.937,1.753-1.776,2.486-2.759A.091.091,0,0,0,289.769,372.442Z" transform="translate(-236.445 -285.979)" fill="#263238"/>
                  <path id="Path_99" data-name="Path 99" d="M298.256,377.065a42.313,42.313,0,0,1-7.929-1.645c-.082-.027-.2.205-.123.247a18.742,18.742,0,0,0,3.909,1.291,14.01,14.01,0,0,0,4.122.251C298.312,377.2,298.346,377.073,298.256,377.065Z" transform="translate(-239.17 -286.403)" fill="#263238"/>
                  <path id="Path_100" data-name="Path 100" d="M397.194,355.531a104.165,104.165,0,0,0-13.089-7.479,101.2,101.2,0,0,0-13.892-5.382c-2.706-.859-5.444-1.583-8.183-2.329a.067.067,0,0,0-.033.131,130.077,130.077,0,0,1,14.03,5.268q6.84,2.95,13.56,6.144c2.536,1.207,5.015,2.533,7.509,3.824A.1.1,0,0,0,397.194,355.531Z" transform="translate(-249.34 -281.432)" fill="#263238"/>
                </g>
                <g id="Group_65" data-name="Group 65" transform="translate(104.437)">
                  <path id="Path_101" data-name="Path 101" d="M403.548,321.178l-40.38-1.336s-7.516-19.931-10.378-37.662,11.662-12.318,26.824,6.664S403.548,321.178,403.548,321.178Z" transform="translate(-352.428 -271.377)" fill="#ffc727"/>
                  <path id="Path_102" data-name="Path 102" d="M369.379,305.7a1.558,1.558,0,0,1-.644.317,1.279,1.279,0,0,1-1.193-.369,1.678,1.678,0,0,0-1.854-.318,1.661,1.661,0,0,0-.7.6c-.154.232-.326.446-.464.7.249-.137.464-.309.7-.463a1.6,1.6,0,0,1,.635-.343,1.29,1.29,0,0,1,1.2.318,1.691,1.691,0,0,0,1.828.386,1.63,1.63,0,0,0,.713-.592c.154-.232.326-.446.463-.7C369.826,305.372,369.611,305.544,369.379,305.7Zm12.737-7.424c-.06-.275-.094-.549-.172-.824-.077.275-.112.549-.163.824a1.617,1.617,0,0,1-.206.687,1.272,1.272,0,0,1-1.073.627,1.691,1.691,0,0,0-1.571,1.03,1.628,1.628,0,0,0-.086.918c.052.275.086.549.163.824.077-.275.112-.549.172-.824a1.476,1.476,0,0,1,.223-.678,1.3,1.3,0,0,1,1.107-.592,1.656,1.656,0,0,0,1.605-1.991Zm-14.188-22.2a1.61,1.61,0,0,0,.026.292c.06.266.086.541.163.815.077-.275.112-.549.172-.815v-.017C368.169,276.242,368.049,276.156,367.929,276.07Zm28.787,33.585a1.147,1.147,0,0,1-.8-.352,1.7,1.7,0,0,0-1.837-.378,1.612,1.612,0,0,0-.712.584c-.154.24-.326.455-.463.7.249-.137.463-.309.7-.464a1.346,1.346,0,0,1,.635-.318,1.29,1.29,0,0,1,1.2.36,1.693,1.693,0,0,0,1.657.4Q396.922,309.939,396.716,309.655ZM368.77,289.528a1.623,1.623,0,0,1-.687-.223,1.3,1.3,0,0,1-.584-1.107,1.684,1.684,0,0,0-1.082-1.545,1.7,1.7,0,0,0-.918-.06c-.275.06-.549.094-.824.172.275.069.549.1.824.163a1.657,1.657,0,0,1,.7.206,1.292,1.292,0,0,1,.627,1.073,1.7,1.7,0,0,0,1.03,1.571,1.626,1.626,0,0,0,.918.086c.266-.06.541-.086.815-.163C369.311,289.623,369.036,289.588,368.77,289.528Zm18.574,28.247a1.479,1.479,0,0,1-.678-.232,1.282,1.282,0,0,1-.592-1.107,1.64,1.64,0,0,0-1.991-1.6c-.275.06-.549.086-.824.163.275.077.549.112.824.172a1.505,1.505,0,0,1,.687.206,1.25,1.25,0,0,1,.626,1.073,1.688,1.688,0,0,0,1.03,1.562,1.559,1.559,0,0,0,.918.094c.275-.06.549-.094.824-.172C387.893,317.861,387.618,317.826,387.344,317.775Z" transform="translate(-354.143 -272.042)" fill="#fff"/>
                  <g id="Group_64" data-name="Group 64" transform="translate(3.473 26.382)">
                    <path id="Path_103" data-name="Path 103" d="M365.4,324.061c-.217,0-1.639-.25-1.645-.25-.1-.53-2.4-8.86-3.01-10.673-1.233-3.693-2.684-7.326-4.083-10.959a.1.1,0,0,0-.186.057c.911,3.125,1.766,6.272,2.7,9.391-.282-.442-.561-.887-.828-1.339-.547-.925-1.024-1.887-1.535-2.832-.046-.084-.179-.021-.152.069a15.925,15.925,0,0,0,1.78,3.715,13.364,13.364,0,0,0,1.05,1.426c.08.259.155.52.236.779.573,1.823,3.53,10.842,3.682,10.852.036,0,1.5.034,1.947.038C365.474,324.335,365.515,324.062,365.4,324.061Z" transform="translate(-356.475 -302.114)" fill="#263238"/>
                    <path id="Path_104" data-name="Path 104" d="M398.81,320.189c-8.708-.651-17.475-.694-26.219-.563q-3.71.055-7.417.286c-.069,0-.082.106-.009.11,4.356.233,8.72.288,13.084.368s8.757.126,13.135.084c2.472-.024,4.942-.045,7.414-.12C398.9,320.351,398.919,320.2,398.81,320.189Z" transform="translate(-357.699 -304.587)" fill="#263238"/>
                  </g>
                </g>
              </g>
            </g>
          </g>
        </g>
        <g id="Devices" transform="translate(11.765 197.058)">
          <g id="Group_85" data-name="Group 85" transform="translate(0)">
            <g id="Group_79" data-name="Group 79" transform="translate(95.06 100.741)">
              <g id="Group_78" data-name="Group 78" transform="translate(1.509 0)">
                <g id="Group_69" data-name="Group 69" transform="translate(63.96 2.128)">
                  <rect id="Rectangle_70" data-name="Rectangle 70" width="6.165" height="4.025" transform="translate(6.165 4.025) rotate(180)" fill="#455a64"/>
                </g>
                <g id="Group_70" data-name="Group 70" transform="translate(55.965 1.862)">
                  <rect id="Rectangle_71" data-name="Rectangle 71" width="6.165" height="4.025" transform="translate(6.165 4.025) rotate(180)" fill="#455a64"/>
                </g>
                <g id="Group_71" data-name="Group 71" transform="translate(47.97 1.596)">
                  <rect id="Rectangle_72" data-name="Rectangle 72" width="6.165" height="4.025" transform="translate(6.165 4.025) rotate(180)" fill="#455a64"/>
                </g>
                <g id="Group_72" data-name="Group 72" transform="translate(39.975 1.33)">
                  <rect id="Rectangle_73" data-name="Rectangle 73" width="6.165" height="4.025" transform="translate(6.165 4.025) rotate(180)" fill="#455a64"/>
                </g>
                <g id="Group_73" data-name="Group 73" transform="translate(31.98 1.064)">
                  <rect id="Rectangle_74" data-name="Rectangle 74" width="6.165" height="4.025" transform="translate(6.165 4.025) rotate(180)" fill="#455a64"/>
                </g>
                <g id="Group_74" data-name="Group 74" transform="translate(23.985 0.798)">
                  <rect id="Rectangle_75" data-name="Rectangle 75" width="6.165" height="4.025" transform="translate(6.165 4.025) rotate(180)" fill="#455a64"/>
                </g>
                <g id="Group_75" data-name="Group 75" transform="translate(15.99 0.532)">
                  <rect id="Rectangle_76" data-name="Rectangle 76" width="6.165" height="4.025" transform="translate(6.165 4.025) rotate(180)" fill="#455a64"/>
                </g>
                <g id="Group_76" data-name="Group 76" transform="translate(7.995 0.266)">
                  <rect id="Rectangle_77" data-name="Rectangle 77" width="6.165" height="4.025" transform="translate(6.165 4.025) rotate(180)" fill="#455a64"/>
                </g>
                <g id="Group_77" data-name="Group 77" transform="translate(0)">
                  <rect id="Rectangle_78" data-name="Rectangle 78" width="6.165" height="4.025" transform="translate(6.165 4.025) rotate(180)" fill="#455a64"/>
                </g>
              </g>
              <path id="Path_105" data-name="Path 105" d="M165.2,412.217h73.144v-4.9L165.2,405.28Z" transform="translate(-165.202 -403.749)" fill="#37474f"/>
            </g>
            <g id="Group_82" data-name="Group 82">
              <g id="Group_80" data-name="Group 80">
                <path id="Path_106" data-name="Path 106" d="M78.855,376.018H199.6l-19.2-89.9H59.652Z" transform="translate(-55.186 -286.123)" fill="#455a64"/>
                <path id="Path_107" data-name="Path 107" d="M73.651,376.018H194.4l-19.2-89.9H54.448Z" transform="translate(-54.448 -286.123)" fill="#1e1c1b"/>
                <path id="Path_108" data-name="Path 108" d="M123.8,331.189a9.085,9.085,0,0,0,8.648,7.466,6.214,6.214,0,0,0,6.284-7.466,9.084,9.084,0,0,0-8.648-7.465A6.213,6.213,0,0,0,123.8,331.189Z" transform="translate(-64.263 -291.451)" fill="#263238"/>
              </g>
              <g id="Group_81" data-name="Group 81" transform="translate(31.959 62.994)">
                <path id="Path_109" data-name="Path 109" d="M116.61,417.134H176v-4.612L116.61,410.6Z" transform="translate(-95.215 -366.755)" fill="#455a64"/>
                <path id="Path_110" data-name="Path 110" d="M97.8,409.889h31.886l19.2-50.372H117Z" transform="translate(-92.55 -359.517)" fill="#455a64"/>
                <path id="Path_111" data-name="Path 111" d="M91.683,409.889h31.886l19.2-50.372H110.886Z" transform="translate(-91.683 -359.517)" fill="#263238"/>
              </g>
            </g>
            <g id="Group_84" data-name="Group 84" transform="translate(169.6 93.026)">
              <path id="Path_112" data-name="Path 112" d="M252.91,416.079h61.228c5.226,0-2.335-14.879-21.405-20.586S246.895,410.5,252.91,416.079Z" transform="translate(-252.048 -394.507)" fill="#37474f"/>
              <g id="Group_83" data-name="Group 83" transform="translate(0.862 5.29)">
                <path id="Path_113" data-name="Path 113" d="M279.32,416.952s-1.1-11.506-10.451-16.282" transform="translate(-255.293 -400.67)" fill="none" stroke="#263238" stroke-miterlimit="10" stroke-width="1"/>
                <path id="Path_114" data-name="Path 114" d="M269.823,403.146s-15.8,6.354-16.771,14.157" transform="translate(-253.052 -401.021)" fill="none" stroke="#263238" stroke-miterlimit="10" stroke-width="1"/>
              </g>
            </g>
          </g>
        </g>
        <g id="Coffee" transform="translate(262.401 264.42)">
          <g id="Group_86" data-name="Group 86">
            <path id="Path_115" data-name="Path 115" d="M381.638,378.132,378,423.823H352.867l-3.634-45.691Z" transform="translate(-346.855 -366.523)" fill="#ffc727"/>
            <rect id="Rectangle_79" data-name="Rectangle 79" width="36.947" height="6.661" transform="translate(0 7.484)" fill="#455a64"/>
            <path id="Path_117" data-name="Path 117" d="M381.3,372.09H349.413l1.863-7.484h28.156Z" transform="translate(-346.881 -364.607)" fill="#37474f"/>
            <path id="Path_118" data-name="Path 118" d="M375.4,403.444c0,5.932-3.907,10.741-8.726,10.741s-8.727-4.808-8.727-10.741S361.85,392.7,366.67,392.7,375.4,397.512,375.4,403.444Z" transform="translate(-348.09 -368.588)" fill="#fff"/>
          </g>
        </g>
      </g>
      <path id="Path_45477" data-name="Path 45477" d="M28.451,0,0,45.454l25.8-1.189V58.277L54.458,11,28.451,14.432Z" transform="translate(50.469 0) rotate(60)" fill="#6300b7"/>
      <path id="Path_45478" data-name="Path 45478" d="M32.507,0,0,51.935l29.484-1.358V66.587l32.739-54.02L32.507,16.49Z" transform="translate(84.235 76.3) rotate(60)" fill="#fff"/>
    </g>
  </g>
</svg>
