<svg xmlns="http://www.w3.org/2000/svg" width="312.645" height="253.177" viewBox="0 0 312.645 253.177">
  <g id="Group_5494" data-name="Group 5494" transform="translate(-1416.128 -7963.8)">
    <g id="Group_5492" data-name="Group 5492" transform="translate(-512 41.168)">
      <g id="Group_5477" data-name="Group 5477" transform="translate(862.322 258.379)">
        <path id="Path_45468" data-name="Path 45468" d="M-3612.252,4091.689l.483,5.508,15.39,175.6h296.772V4043.72" transform="translate(4678.058 3638.585)" fill="#fbd206"/>
      </g>
    </g>
    <g id="man-exploring-globe" transform="translate(1226.742 7814.868)">
      <path id="Path_45524" data-name="Path 45524" d="M380.924,212.136s-2.568-1.541-4.964,1.2c0,0-4.28-6.081-22.425-.815,0,0,2.4,4.581,4.108,4.581s-3.253,7.874-7.874,7.532c0,0-7.874,11.469-1.883,22.6,5.905,10.967,10.148,14.451,16,7.337a4.441,4.441,0,0,1,.6-.606c1.685-1.389,9.142-7.165,11.785-2.858a4.2,4.2,0,0,1,.448,3.173c-1.206,5.053-6.848,23.663-23.187,16.235,0,0-19.042-7.141-14.55-24.057a21.127,21.127,0,0,1,2.073-4.919,13.217,13.217,0,0,0,.979-10.419,10.443,10.443,0,0,0-4.369-5.927c-2.063-1.287-4.782-1.862-6.841,1.736a9.951,9.951,0,0,0-1.3,4.911c0,1.577.289,3.51,1.588,4.438l-1.588,3.081a21.067,21.067,0,0,0-3.282-4.839,14.389,14.389,0,0,1-4.025-8.216c-.582-4.923.119-12.274,5.985-20.84,0,0,7.874-15.749,22.6-15.407S378.185,194.333,380.924,212.136Z" fill="#5504b0"/>
      <path id="Path_45525" data-name="Path 45525" d="M356.274,232.678a27.536,27.536,0,0,1,7.8-.643,19.621,19.621,0,0,1,3.907.593,7.9,7.9,0,0,1,3.526,1.762,11.975,11.975,0,0,0-3.679-1.036c-1.258-.181-2.528-.313-3.809-.37C361.461,232.825,358.888,232.813,356.274,232.678Zm24.65-.244a7.015,7.015,0,0,0-2.544,1.4,3.239,3.239,0,0,0-1.175,2.367,7.432,7.432,0,0,0,.721,2.688l1.12,2.752a16.633,16.633,0,0,1,1.432,5.9,4.462,4.462,0,0,1-.291,1.571,3.119,3.119,0,0,1-.971,1.291,4.682,4.682,0,0,1-2.942.7,4.888,4.888,0,0,0,2.643-1.057,3.108,3.108,0,0,0,.818-2.5,11.393,11.393,0,0,0-.576-2.8c-.288-.927-.632-1.845-1-2.76s-.732-1.838-1.075-2.782c-.164-.477-.33-.952-.459-1.454a4.062,4.062,0,0,1-.16-1.606,3.675,3.675,0,0,1,1.624-2.674,6.4,6.4,0,0,1,2.832-1.038Z" fill="#5504b0"/>
      <path id="Path_45526" data-name="Path 45526" d="M380.924,212.136q.481,2.878.715,5.787.268,2.9.331,5.826c.03,1.948,0,3.9-.151,5.851a16.707,16.707,0,0,1-1.313,5.782.264.264,0,0,1-.043.063,23.5,23.5,0,0,0-1.689,2.037,8.3,8.3,0,0,0-.692,1.124,1.989,1.989,0,0,0-.254,1.266,1.938,1.938,0,0,1,.07-1.342,8.555,8.555,0,0,1,.573-1.241,15.327,15.327,0,0,1,1.544-2.245l-.043.062a11.247,11.247,0,0,0,.658-2.72c.148-.939.208-1.9.279-2.853.113-1.918.133-3.847.144-5.777C381.053,219.895,380.968,216.024,380.924,212.136Zm-10.271,33.552a6.73,6.73,0,0,0-.436,1.157,2.483,2.483,0,0,0-.071,1.136,1.9,1.9,0,0,0,.471,1.008,6.287,6.287,0,0,0,.892.848,5.766,5.766,0,0,1-.61-.219,3.315,3.315,0,0,1-.545-.376,2.055,2.055,0,0,1-.676-1.183,2.47,2.47,0,0,1,.2-1.337A2.822,2.822,0,0,1,370.653,245.688Zm-39.543-9.415a9.136,9.136,0,0,1,1.4,2.465,6.75,6.75,0,0,1,.388,1.409,3.853,3.853,0,0,1,.05.765l0,.2.012.107a.372.372,0,0,0,.044.2,1.377,1.377,0,0,0,.727.69,5.8,5.8,0,0,0,1.194.452,11.443,11.443,0,0,0,2.694.391,5.664,5.664,0,0,1-2.831.339,5.032,5.032,0,0,1-1.451-.372,2.211,2.211,0,0,1-1.227-1.177,1.2,1.2,0,0,1-.088-.475l0-.24.007-.15a4.215,4.215,0,0,0-.014-.621,9.452,9.452,0,0,0-.2-1.3C331.608,238.071,331.353,237.186,331.11,236.273Zm-1.588,3.081a18.9,18.9,0,0,1-1.605,3.984,19.714,19.714,0,0,1-2.413,3.589,13.718,13.718,0,0,1-3.281,2.869,8.4,8.4,0,0,1-4.127,1.255,11.942,11.942,0,0,0,3.713-1.871,18.454,18.454,0,0,0,2.972-2.869,33.07,33.07,0,0,0,2.5-3.351C328.048,241.785,328.81,240.595,329.521,239.354Zm12.544,40.057a15.23,15.23,0,0,0,3.048-1.784,26.028,26.028,0,0,0,2.658-2.278c.86-.794,1.631-1.682,2.431-2.55l1.166-1.346c.38-.459.758-.922,1.176-1.365-.238.555-.516,1.092-.792,1.631-.313.515-.621,1.038-.965,1.537a18.885,18.885,0,0,1-2.357,2.778,14.945,14.945,0,0,1-2.915,2.214A8.324,8.324,0,0,1,342.065,279.411Z" fill="#5504b0"/>
      <path id="Path_45527" data-name="Path 45527" d="M324.94,246.618a13.882,13.882,0,0,0-3.119-3.3,1.953,1.953,0,0,0-1.881-.4,2.818,2.818,0,0,0-1.146,1.63,12.23,12.23,0,0,0-.5,2.177c-.051.368-.1.751-.129,1.1,0,.337.031.733.065,1.1a25.853,25.853,0,0,0,.836,4.464,32.479,32.479,0,0,0,3.476,8.466,38.783,38.783,0,0,0,5.606,7.287c1.078,1.091,2.2,2.141,3.337,3.165,1.182.975,2.31,2.022,3.54,2.917.593.479,1.247.868,1.867,1.307.656.377,1.286.805,1.969,1.126a18.1,18.1,0,0,0,4.181,1.638,12.263,12.263,0,0,0,8.682-.911,17.231,17.231,0,0,0,6.565-6.176.048.048,0,0,1,.064-.02.052.052,0,0,1,.021.064,16.174,16.174,0,0,1-6.3,6.789,12.431,12.431,0,0,1-4.507,1.511,13.231,13.231,0,0,1-4.757-.3,17.277,17.277,0,0,1-4.414-1.716c-.707-.351-1.35-.806-2.021-1.212-.63-.464-1.3-.882-1.894-1.385-1.253-.941-2.349-2.04-3.509-3.073-.591-.5-1.092-1.1-1.635-1.657-.523-.573-1.089-1.1-1.575-1.711a59.456,59.456,0,0,1-5.5-7.47,36.906,36.906,0,0,1-3.952-8.421,21.974,21.974,0,0,1-.91-4.607c-.026-.4-.05-.774-.041-1.209.045-.412.1-.795.164-1.189a12.938,12.938,0,0,1,.592-2.309,3.248,3.248,0,0,1,1.58-1.952,1.926,1.926,0,0,1,1.333-.027,3.644,3.644,0,0,1,1.088.6,12.222,12.222,0,0,1,2.911,3.653.047.047,0,0,1-.018.065A.05.05,0,0,1,324.94,246.618ZM280.87,259.554a7.364,7.364,0,0,1,3.28,1.961,10.113,10.113,0,0,1,2.188,3.2,10.462,10.462,0,0,1,.858,3.767,10.665,10.665,0,0,1-.1,1.912,10.446,10.446,0,0,1-.5,1.843c-.222-.618-.322-1.216-.485-1.8s-.28-1.157-.474-1.709a26.573,26.573,0,0,0-1.138-3.217,23.093,23.093,0,0,0-1.572-3.011,28.969,28.969,0,0,0-2.062-2.947Zm4.362,23.966c.385,4.439.573,8.877.692,13.315s.145,8.874.136,13.311c-.046,4.436-.117,8.873-.3,13.308s-.421,8.871-.866,13.3c-.388-4.439-.577-8.877-.695-13.315s-.145-8.874-.133-13.311c.048-4.436.12-8.873.308-13.308S284.79,287.954,285.232,283.52Zm91.549-29.326q5.494,3.437,10.786,7.16,2.649,1.859,5.254,3.785l2.585,1.974a11.211,11.211,0,0,1,1.277,1.118l.614.641.517.656a48.754,48.754,0,0,1,3.658,5.435q1.657,2.8,3.225,5.628,3.1,5.691,6.383,11.254,1.642,2.784,3.348,5.531l1.7,2.746a14.379,14.379,0,0,0,1.786,2.509c.725.711,1.587,1.415,2.338,2.3a5.475,5.475,0,0,1,1.513,3.416,5.1,5.1,0,0,1-1.6,3.451,16.99,16.99,0,0,1-1.289,1.175c-.4.324-.794.665-1.176,1.016-.77.707-1.478,1.449-2.2,2.248s-1.492,1.6-2.262,2.373a52.38,52.38,0,0,1-4.944,4.352,28.225,28.225,0,0,1-5.744,3.443,13.391,13.391,0,0,1-3.352.928,7.811,7.811,0,0,1-3.609-.314.782.782,0,0,1-.443-.344l-.007-.011c-.751-1.244-1.572-2.483-2.4-3.7s-1.7-2.409-2.609-3.569a40.043,40.043,0,0,0-2.921-3.3,10,10,0,0,0-3.57-2.469l-.007,0a.1.1,0,0,1,.053-.192,9.685,9.685,0,0,1,4,2.125,29.823,29.823,0,0,1,3.295,3.107,61.406,61.406,0,0,1,5.624,7.07l-.449-.355a8.35,8.35,0,0,0,5.6-.814A26.272,26.272,0,0,0,407,321.26a57.123,57.123,0,0,0,4.78-4.155c.767-.733,1.525-1.477,2.259-2.245s1.545-1.58,2.383-2.308c.421-.366.852-.722,1.3-1.062.4-.337.787-.625,1.125-.968a3.567,3.567,0,0,0,1.2-2.2,3.9,3.9,0,0,0-1-2.391c-.613-.788-1.386-1.5-2.137-2.359a7.966,7.966,0,0,1-.555-.7l-.434-.733-.78-1.431-1.525-2.855q-1.509-2.861-3.083-5.682c-2.1-3.758-4.322-7.454-6.725-11.029-2.382-3.57-4.8-7.184-7.378-10.482l-.488-.61-.509-.52a9.515,9.515,0,0,0-1.131-1.03l-2.514-2-5.076-3.986q-5.087-3.981-10.044-8.154a.1.1,0,0,1,.118-.162Z" fill="#5504b0"/>
      <path id="Path_45528" data-name="Path 45528" d="M390.168,286.487c-1.751,6.578-3.4,13.173-4.784,19.794a77.371,77.371,0,0,0-1.485,9.952c-.095,1.609-.1,3.385-.246,5.107a29.646,29.646,0,0,1-.878,5.2,27.727,27.727,0,0,1-4.961,9.24c-1.029,1.372-2.119,2.7-3.14,4.032-.491.662-.989,1.319-1.43,2.027-.473.683-.9,1.4-1.326,2.123a84.163,84.163,0,0,0-4.484,9.058c-1.384,3.094-2.577,6.274-3.744,9.473a83.212,83.212,0,0,1,6.863-19.289,34.668,34.668,0,0,1,2.719-4.445c1.008-1.394,2.041-2.725,3.015-4.1A26.325,26.325,0,0,0,380.85,326a27.689,27.689,0,0,0,.859-4.835c.159-1.666.154-3.293.307-5.076a67.553,67.553,0,0,1,1.851-10.153,158.237,158.237,0,0,1,6.3-19.452Zm75.444,89.083a1.5,1.5,0,0,1,0-3l34.918-.046h0a1.5,1.5,0,0,1,0,3l-34.918.046Z" fill="#5504b0"/>
      <rect id="Rectangle_42073" data-name="Rectangle 42073" width="44.029" height="3" transform="matrix(1, -0.009, 0.009, 1, 199.455, 374.993)" fill="#5504b0"/>
      <path id="Path_45529" data-name="Path 45529" d="M365.518,239.069a1.427,1.427,0,1,0-1.378-1.427A1.427,1.427,0,0,0,365.518,239.069Zm37.754,147.883a46.136,46.136,0,0,0,16.691,7.068,38.068,38.068,0,0,0,9.011.645,39.613,39.613,0,0,0,8.892-1.509,55.41,55.41,0,0,0,16.158-7.983,28.233,28.233,0,0,0,3.487-2.777,37.249,37.249,0,0,0,3.062-3.275,41.141,41.141,0,0,0,4.922-7.474l-.1.4v-.031a.879.879,0,0,1,.094-.381,42.277,42.277,0,0,0,2.877-7.224,38.141,38.141,0,0,0,1.408-7.672l0-.055.006-.035c.014-.051,0-.027.014.066l-.008-.157a36.34,36.34,0,0,0-2.168-15.494,37.2,37.2,0,0,0-8.53-13.146,38.965,38.965,0,0,0-55.846,1.052,39.518,39.518,0,0,0-8.176,13.192,41.031,41.031,0,0,0-2.491,15.5.1.1,0,0,1-.1.106.106.106,0,0,1-.106-.094,37.933,37.933,0,0,1,1.5-15.922,38.564,38.564,0,0,1,7.981-14.05,39.1,39.1,0,0,1,13.071-9.658,39.309,39.309,0,0,1,44.909,9.158,41.694,41.694,0,0,1,8.371,13.644,42.829,42.829,0,0,1,2.677,15.812l-.008-.157a.928.928,0,0,1-.006.366l.01-.089a38.907,38.907,0,0,1-1.058,8.019,36.851,36.851,0,0,1-2.716,7.644l.095-.4v.01a.85.85,0,0,1-.087.387l-.009.018a37.65,37.65,0,0,1-5.153,7.829,39.04,39.04,0,0,1-3.248,3.388,31.843,31.843,0,0,1-3.73,2.879,54.507,54.507,0,0,1-16.754,7.918,38.7,38.7,0,0,1-18.449.451,45.17,45.17,0,0,1-16.621-7.8.1.1,0,0,1,.117-.169Z" fill="#5504b0"/>
      <path id="Path_45530" data-name="Path 45530" d="M412.093,320.882c-.274.736-.505,1.481-.737,2.223s-.451,1.486-.651,2.235c-.222.74-.4,1.494-.579,2.249l-.579,2.243.029-.188a.758.758,0,0,1-.049.249.773.773,0,0,1-.163.261.782.782,0,0,1-.555.241l.729-.555c-.421,2.172-.941,4.309-1.385,6.467-.406,2.166-.814,4.334-1.157,6.515s-.71,4.362-1.009,6.561c-.341,2.194-.662,4.4-1.044,6.607a56.2,56.2,0,0,1-.2-6.714,65.231,65.231,0,0,1,.46-6.707c.279-2.225.617-4.447,1.106-6.64.223-1.1.522-2.187.829-3.269s.593-2.168.928-3.239l.729-.555a.763.763,0,0,0-.541.236.754.754,0,0,0-.159.255.732.732,0,0,0-.047.241l.029-.188c.553-1.48,1.063-2.965,1.718-4.4a25.735,25.735,0,0,1,2.3-4.127Zm38.815,0a40.838,40.838,0,0,1,3.361,7.391c.484,1.272.828,2.583,1.245,3.878.371,1.306.679,2.628,1.019,3.944a102.353,102.353,0,0,1,2.279,16.109,130.477,130.477,0,0,1,.013,16.248c-.166,2.7-.469,5.392-.727,8.081-.415,2.675-.774,5.352-1.251,8.009.044-2.707.216-5.393.312-8.082l.168-8.061c-.014-1.343-.021-2.684-.011-4.025l.007-2.011-.072-2.009-.106-4.017-.248-4.008a146.731,146.731,0,0,0-1.827-15.937l-.772-3.938c-.309-1.3-.558-2.621-.925-3.908a51.5,51.5,0,0,0-2.465-7.666Zm-20.285,52.83a9.108,9.108,0,0,0,1.56-2.1c-.01.9-.03,1.79-.05,2.69q-.2,9.75-.75,19.5-.555-9.75-.75-19.5C430.633,374.1,430.623,373.912,430.623,373.712Zm.27-6.43s.66-.79,1.38-1.83c-.01,1.01-.02,2.03-.04,3.04a3.914,3.914,0,0,0-1.34-1.21Zm1.45-13.45v1.92l-.03,4.71a8.261,8.261,0,0,0-1.86.37c-.01-1.7-.02-3.39-.03-5.08v-1.92c.04-12.69.22-25.37.96-38.06C432.113,328.462,432.3,341.142,432.343,353.832Z" fill="#5504b0"/>
      <path id="Path_45531" data-name="Path 45531" d="M395.917,338.536a81.408,81.408,0,0,1,17.336-5.482,95.377,95.377,0,0,1,18.147-1.927c3.05-.091,6.1.154,9.139.324,1.516.169,3.026.389,4.538.582.755.106,1.513.184,2.264.314l2.237.48a75.148,75.148,0,0,1,17.264,5.711q-2.191-.624-4.347-1.3l-2.158-.663c-.722-.21-1.469-.336-2.2-.508l-4.387-1.021c-1.473-.282-2.96-.495-4.437-.746l-2.216-.363c-.742-.1-1.49-.157-2.234-.237-1.491-.144-2.977-.316-4.468-.438-2.992-.11-5.978-.338-8.973-.217a122.031,122.031,0,0,0-17.9,1.477l-4.44.769c-1.469.31-2.949.587-4.415.927C401.715,336.845,398.809,337.645,395.917,338.536Zm34.576,38.415,9.2-1.187c3.043-.429,6.078-.885,9.1-1.432,3.021-.519,6.029-1.131,9.032-1.775,1.487-.374,2.988-.712,4.5-1.045l1.138-.234,1.118-.291c.748-.191,1.506-.368,2.272-.537q-1.033.534-2.092,1.038a21.546,21.546,0,0,1-2.15.922c-1.456.548-2.92,1.089-4.4,1.595a72.5,72.5,0,0,1-9.084,2.217A65.241,65.241,0,0,1,430.493,376.952Zm-38.12-22.16q2.955-.18,5.91-.3a13.322,13.322,0,0,0-1.58.53C395.253,354.952,393.813,354.872,392.373,354.792Zm78.02,0q-9.75.555-19.5.75c-6.19.14-12.37.19-18.55.21h-1.92c-.78,0-1.55-.01-2.33-.01.08-.83-.33-1.38-1.49-1.44a4.345,4.345,0,0,0-2.82.94c-.18.14-.38.29-.61.46q-9.1-.06-18.2-.35a1.623,1.623,0,0,0-.62-1.1c8.69-.3,17.38-.39,26.07-.42h1.92c6.18.02,12.36.07,18.55.21Q460.643,354.222,470.393,354.792Z" fill="#5504b0"/>
      <path id="Path_45532" data-name="Path 45532" d="M408.813,329.622a.01.01,0,0,1-.01.01,25.8,25.8,0,0,0-2.15,5.51c-.01.02-.01.05-.02.07-.75,2.89-.38,3.42-1.37,6.27-.56,1.61-1.06,2.54-.78,3.87a15.3,15.3,0,0,0,1.01,2.43c.12.25.24.52.38.82.69,1.52.86,1.88.71,2.34-.19.56-.63.63-1.44,1.12a5.868,5.868,0,0,0-.81.57,8.883,8.883,0,0,0-1.32,1.22,16.831,16.831,0,0,0-8.55,2.23c-.62.35-1.29.7-2.01,1.07h-.01c-.03-.43-.04-.86-.06-1.29-.01-.36-.01-.71-.01-1.07a38.884,38.884,0,0,1,3.54-16.26l.01-.01h.01a37.829,37.829,0,0,1,3.36-5.91c4.35-4.24,9.04-6.44,10.6-6.43a.659.659,0,0,1,.47.14C410.713,326.672,409.873,327.632,408.813,329.622Zm61.58,25.17c0,.33,0,.66-.02.99,0,.28-.02.55-.03.83,0,.05-.01.1-.01.15a8.464,8.464,0,0,1-.05.87,38.618,38.618,0,0,1-3.89,14.37.355.355,0,0,1-.09.04v.01a2.682,2.682,0,0,1-.83.24,2.387,2.387,0,0,1-1.86-.62c-.01-.01-.02-.03-.04-.04-.81-.89-.16-2.13-.42-3.99-.22-1.54-1.03-2.63-2.64-4.8a21.972,21.972,0,0,0-2.34-2.8c-.59-.57-1.14-.92-1.53-.76-.49.22-.64,1.26-.46,2.02.27,1.14,1.19,1.24,1.39,2.16.27,1.21-.96,2.61-2.01,3.25a4.091,4.091,0,0,1-4.02.31c-1.44-.84-1.4-2.63-2.17-2.63-.61.01-1.15,1.13-1.24,2.01a2.8,2.8,0,0,0,1.39,2.79c.99.42,1.63-.45,2.79,0a2.087,2.087,0,0,1,1.39,1.55c.05.95-1.25,1.69-2.94,2.63-1.93,1.07-2.53,1.02-4.8,2.17-.22.11-.42.21-.61.31a11.8,11.8,0,0,0-2.48,1.54c-1.56,1.28-1.41,1.85-2.94,3.1a7.623,7.623,0,0,1-3.56,1.86c-1.21.2-1.46-.17-3.56-.31a13.98,13.98,0,0,0-1.43-.03,26.474,26.474,0,0,0-2.75.18,21.958,21.958,0,0,0-3.17.55c5.36-2.73,6.07-6.86,3.84-7.84,0,0,6.34-4.81,1.59-7.62,0,0,7.68-9.14-.99-6.28a8.81,8.81,0,0,0-2.04,1.01c-.27.17-.58.38-.93.6l-1.03-2.62v-.01c2.03-2.76,3.39-5.55.7-5.68a4.345,4.345,0,0,0-2.82.94c-.62.47-1.51,1.13-2.63,1.89l-2.27-2.34a6.475,6.475,0,0,1-.93-2.78,7.859,7.859,0,0,1,2.32-5.88,10.987,10.987,0,0,1,5.26-3.1,10.314,10.314,0,0,1,4.96-.62c.28.05.58.11.89.19.98.23,1.99.57,2.51.74a9.492,9.492,0,0,0,2.79.78c1.26.06,1.61-.32,2.16,0,.69.38.58,1.18,1.09,3.09.51,1.89.93,3.49,2.01,3.87.81.28,1.25-.38,2.17,0,.6.25.6.61,1.54,1.55.83.82,1.25,1.23,1.86,1.39a2.936,2.936,0,0,0,3.1-1.24c.12-.21.34-.65.15-2.47-.23-2.3-.34-3.45-1.08-4.18-.9-.89-1.6-.24-3.72-.93-2.43-.79-2.25-1.89-4.95-2.94-1.81-.7-2.29-.37-3.71-1.24-1.15-.7-2.61-2-2.33-2.79.31-.84,2.31-.19,3.1-1.39.62-.93-.24-1.84.46-3.1.41-.72,1.26-1.41,1.86-1.23.66.19.41,1.26,1.24,2.63a6.117,6.117,0,0,0,3.25,2.47c1.01.37,2.26.83,3.25.16.88-.59,1.37-1.94.93-2.63-.57-.89-2.3-.13-2.79-.93a1.53,1.53,0,0,1,.01-1.21,2.8,2.8,0,0,1,1.85-1.89c.51-.08,1.03.11,4.03,2.63.16.14.32.27.46.39l.01.01c1.59,1.35,1.88,1.65,2.47,1.62a1.821,1.821,0,0,0,.57-.13,2.982,2.982,0,0,0,.86-.55,7.5,7.5,0,0,0,1.66-2.42c.51-1.18.31-1.66.62-1.86.72-.46,3.29,1.08,5.99,3.85a36.709,36.709,0,0,1,2.04,3.88,38.739,38.739,0,0,1,3.46,13.52c.03.45.05.91.07,1.37S470.393,354.332,470.393,354.792ZM356.274,148.932a62.038,62.038,0,0,1,1.289,6.9c.33,2.308.544,4.625.735,6.944.154,2.321.282,4.644.3,6.976a61.349,61.349,0,0,1-.265,7.017,61.357,61.357,0,0,1-1.292-6.9c-.33-2.308-.543-4.625-.732-6.944-.151-2.321-.28-4.645-.292-6.976A62.042,62.042,0,0,1,356.274,148.932Zm14.419,29.76a66.777,66.777,0,0,1,1.985-7.01c.754-2.3,1.617-4.555,2.5-6.8.918-2.233,1.86-4.458,2.909-6.638a66.018,66.018,0,0,1,3.43-6.428,66.026,66.026,0,0,1-1.982,7.012c-.755,2.3-1.617,4.555-2.5,6.8-.921,2.233-1.862,4.457-2.912,6.637a66.762,66.762,0,0,1-3.427,6.43Zm-36.33-24.48a56.826,56.826,0,0,1,3.373,5.81c1.033,1.976,1.958,4,2.863,6.032.871,2.047,1.718,4.1,2.459,6.207A56.2,56.2,0,0,1,345,178.692a56.191,56.191,0,0,1-3.375-5.809c-1.032-1.977-1.958-4-2.86-6.033-.868-2.048-1.716-4.1-2.456-6.208a56.818,56.818,0,0,1-1.947-6.43ZM241.228,316.785a18.189,18.189,0,0,0-2.724-.476,2.9,2.9,0,0,0-1.292.129c-.393.142-.269.574-.052.95a9.943,9.943,0,0,0,1.807,2.013c.674.62,1.389,1.211,2.115,1.765a.31.31,0,0,1,.058.434.318.318,0,0,1-.287.119,9.334,9.334,0,0,1-5.108-2.245,7.718,7.718,0,0,1-1.779-2.235,4.974,4.974,0,0,1-.5-1.406,2.053,2.053,0,0,1,.017-.863,1.245,1.245,0,0,1,.262-.491c.038-.069.074-.093.131-.2.835-1.519,1.547-3.236,2.271-4.883l2.128-5.011c.714-1.675,1.436-3.329,2.048-5.024.629-1.695,1.141-3.411,1.732-5.144l1.735-5.181c.59-1.722,1.313-3.4,1.962-5.1a101.111,101.111,0,0,1,9.926-19.417,45.221,45.221,0,0,1,7.1-8.344c.34-.309.672-.627,1.02-.928l1.091-.849a22.717,22.717,0,0,1,2.269-1.588,16.413,16.413,0,0,1,5.169-2.225l-.1.024a41.621,41.621,0,0,1,9.6-1.669c3.22-.262,6.446-.345,9.665-.349s6.438.064,9.652.188c3.215.152,6.422.345,9.633.607l-.337.114a35.69,35.69,0,0,0,3.427-4.08l1.605-2.177a6.82,6.82,0,0,1,1.978-2,7.63,7.63,0,0,1,5.423-.82,13.416,13.416,0,0,1,5.05,2.027.056.056,0,0,1,.016.077.06.06,0,0,1-.078.015,13.183,13.183,0,0,0-5.041-1.75,7.405,7.405,0,0,0-5.041.945,6.173,6.173,0,0,0-1.746,1.894l-1.541,2.243a32.326,32.326,0,0,1-3.447,4.3.4.4,0,0,1-.307.116l-.03,0c-3.194-.2-6.4-.323-9.6-.409-3.2-.1-6.407-.154-9.608-.139s-6.4.14-9.582.34a40.734,40.734,0,0,0-9.351,1.505l-.068.017-.035.007a16.753,16.753,0,0,0-4.818,2.007,21.849,21.849,0,0,0-2.231,1.481l-1.081.8c-.346.284-.678.588-1.018.882a23.275,23.275,0,0,0-1.973,1.837c-.618.654-1.278,1.272-1.865,1.957-1.148,1.392-2.35,2.745-3.359,4.251a81.734,81.734,0,0,0-9.945,19.269c-.592,1.715-1.256,3.4-1.787,5.138l-1.562,5.211c-.533,1.723-.985,3.514-1.621,5.229-.605,1.731-1.322,3.416-2.016,5.092s-1.434,3.343-2.17,5.009c-.761,1.667-1.455,3.311-2.392,4.967a2.7,2.7,0,0,1-.26.356c.006.056-.041.019-.042.109a1.258,1.258,0,0,0,0,.487,4.164,4.164,0,0,0,.4,1.154,7.51,7.51,0,0,0,1.557,2.042,8.627,8.627,0,0,0,4.655,2.21l-.229.553c-.732-.595-1.432-1.21-2.1-1.868a10.018,10.018,0,0,1-1.788-2.214,1.823,1.823,0,0,1-.218-.748.73.73,0,0,1,.482-.685,3.1,3.1,0,0,1,1.454-.087,18.343,18.343,0,0,1,2.73.622.056.056,0,0,1,.038.069.057.057,0,0,1-.067.039Z" fill="#5504b0"/>
      <path id="Path_45533" data-name="Path 45533" d="M432.19,365.395a16.544,16.544,0,0,0,1.176-2.043,6.019,6.019,0,0,0,.4-1.086,1.769,1.769,0,0,0,.018-1.065.888.888,0,0,0-.794-.512,3.864,3.864,0,0,0-1.119.036,12.04,12.04,0,0,0-2.233.633,10.37,10.37,0,0,0-2.024,1.14c-.659.443-1.333.868-2.014,1.282s-1.375.812-2.093,1.176a9.387,9.387,0,0,1-2.307.894.359.359,0,0,1-.334-.6l.017-.018a56.278,56.278,0,0,0,4.653-5.514l-.089.27v-.01a.435.435,0,0,1,.081-.258l.007-.01c.444-.624.867-1.261,1.24-1.914a6.3,6.3,0,0,0,.8-1.979c.094-.682-.125-.889-.817-.987a3.536,3.536,0,0,0-1.959.4,5.169,5.169,0,0,0-.885.589c-.312.245-.63.475-.948.7-.64.452-1.262.927-1.917,1.361-1.3.878-2.632,1.712-4,2.483a39.6,39.6,0,0,1-8.7,3.716,23.789,23.789,0,0,1-4.737.8,16.2,16.2,0,0,1-4.856-.482.744.744,0,0,1-.392-1.179l.012-.015,3.8-4.756,1.865-2.341a.925.925,0,0,0,.129-.8.847.847,0,0,0-.189-.34,1.293,1.293,0,0,0-.174-.151.822.822,0,0,0-.167-.1,1.091,1.091,0,0,0-.463-.078c-.2-.009-.478,0-.708,0-.483.012-.965.047-1.444.1a13.926,13.926,0,0,0-2.827.623c-.459.161-.909.3-1.376.475-.445.176-.882.377-1.311.6l-2.679,1.443a.765.765,0,0,1-.358.092h-.031l.375-.09c-5.042,2.519-10.13,4.742-14.928,7.516l-1.806,1.052a19.568,19.568,0,0,1-6.121,2.308,21.432,21.432,0,0,1-4.342.421c-1.479-.011-2.859-.186-4.248-.288l-16.7-1.4-16.695-1.466c-11.13-.963-22.261-1.943-33.4-2.8l-4.175-.274c-.7-.047-1.386-.07-2.072-.09a2.5,2.5,0,0,1-1.191-.278,2.747,2.747,0,0,1-.881-.806,10.492,10.492,0,0,1-1.467-4.067,37.342,37.342,0,0,1-.5-4.2,123.045,123.045,0,0,1,.3-16.8l.219.321c-3.845-1.182-7.686-2.4-11.42-3.905a118.539,118.539,0,0,1-11-4.972c-3.579-1.845-7.067-3.865-10.527-5.892-3.462-2.006-6.954-4.017-10.748-5.051l.658-.5q.011,16.6.7,33.19c.24,5.526.547,11.049,1,16.554.1,1.378.236,2.751.364,4.125s.264,2.747.43,4.114.281,2.751.534,4.045a22.046,22.046,0,0,0,1.087,3.838,24.2,24.2,0,0,0,10.2,11.932,28.268,28.268,0,0,0,7.368,3.116,30.627,30.627,0,0,0,3.943.777c1.339.165,2.735.275,4.1.415l4.116.395,4.127.267c2.749.214,5.506.274,8.26.385s5.512.075,8.268.122c2.755-.068,5.514-.058,8.267-.206a231.518,231.518,0,0,0,32.848-3.7c5.414-1,10.86-2.151,16.339-3.062,5.478-.928,10.968-1.706,16.461-2.451,10.984-1.5,21.988-2.781,32.974-4.152,5.488-.7,10.987-1.392,16.414-2.365l2.019-.408c.675-.133,1.3-.353,1.957-.523.626-.246,1.247-.518,1.861-.8a14.813,14.813,0,0,0,1.738-1.035,8.187,8.187,0,0,0,2.66-2.919,3.365,3.365,0,0,0,.393-1.846,1.742,1.742,0,0,0-.987-1.415.25.25,0,0,1-.067-.409l.016-.015a21.453,21.453,0,0,0,1.713-1.579,7.6,7.6,0,0,0,1.3-1.907,2.844,2.844,0,0,0,.179-2.177,3.414,3.414,0,0,0-1.511-1.649.13.13,0,0,1-.044-.178l.011-.015,1.4-1.8.005-.006a.1.1,0,1,1,.159.12l-1.363,1.856-.034-.193a3.7,3.7,0,0,1,1.676,1.757,3.188,3.188,0,0,1-.129,2.441,8,8,0,0,1-1.312,2.045,21.611,21.611,0,0,1-1.739,1.685l-.052-.424a2.273,2.273,0,0,1,1.331,1.8,3.923,3.923,0,0,1-.393,2.172,8.816,8.816,0,0,1-2.789,3.234,15.546,15.546,0,0,1-1.8,1.134c-.634.312-1.279.613-1.932.888-.678.2-1.359.451-2.04.6l-2.043.464c-5.46,1.077-10.945,1.86-16.429,2.659l-32.9,4.616c-5.475.8-10.944,1.636-16.378,2.616-2.722.458-5.425,1.045-8.133,1.57-2.705.559-5.425,1.138-8.157,1.646a233.568,233.568,0,0,1-33.126,3.809,221.687,221.687,0,0,1-33.33-1.008c-1.389-.151-2.754-.265-4.162-.447a32.643,32.643,0,0,1-4.2-.853,30.237,30.237,0,0,1-7.862-3.382,26.087,26.087,0,0,1-10.912-12.941A23.88,23.88,0,0,1,243,379.1c-.267-1.427-.382-2.812-.529-4.191s-.277-2.768-.38-4.153-.233-2.769-.313-4.154c-.384-5.54-.62-11.082-.789-16.625q-.5-16.629-.272-33.255v-.01a.515.515,0,0,1,.522-.509.538.538,0,0,1,.136.02c3.972,1.145,7.482,3.249,10.922,5.3,3.444,2.07,6.866,4.15,10.42,6a117.828,117.828,0,0,0,10.913,5c3.706,1.52,7.523,2.747,11.346,3.944a.314.314,0,0,1,.219.321,114.479,114.479,0,0,0-.216,16.691,36.663,36.663,0,0,0,.521,4.114,9.906,9.906,0,0,0,1.356,3.75,2.01,2.01,0,0,0,.646.594,1.668,1.668,0,0,0,.825.178c.711.015,1.419.034,2.114.076l4.189.234c11.159.665,22.3,1.451,33.452,2.234l16.718,1.2,16.709,1.311c1.4.1,2.8.261,4.111.26a19.661,19.661,0,0,0,3.983-.407,19.259,19.259,0,0,0,3.8-1.21,18.4,18.4,0,0,0,1.784-.9l1.821-1.045c4.9-2.791,10.086-5.017,15.051-7.459l.012-.006a.831.831,0,0,1,.364-.084h.01l-.379.092,2.69-1.426c.475-.241.962-.461,1.462-.655.484-.179,1-.34,1.5-.509a15.526,15.526,0,0,1,3.112-.662c.529-.058,1.061-.093,1.592-.1.277,0,.5-.007.814.007a2.663,2.663,0,0,1,1.02.213,2.4,2.4,0,0,1,.489.287,2.841,2.841,0,0,1,.392.355,2.422,2.422,0,0,1,.534.983,2.506,2.506,0,0,1-.364,2.1l-1.941,2.41-3.831,4.735-.38-1.193a15.338,15.338,0,0,0,4.379.489,22.4,22.4,0,0,0,4.451-.684,38.334,38.334,0,0,0,8.462-3.462c1.35-.732,2.669-1.53,3.957-2.369.648-.414,1.269-.873,1.906-1.308.318-.219.633-.44.936-.67a6.3,6.3,0,0,1,1.065-.68,4.582,4.582,0,0,1,2.557-.468,2.05,2.05,0,0,1,1.368.657,1.847,1.847,0,0,1,.315,1.507,7.144,7.144,0,0,1-.958,2.31,21.779,21.779,0,0,1-1.338,1.968l.088-.268v.023a.428.428,0,0,1-.089.257,57.04,57.04,0,0,1-4.867,5.486l-.317-.615a16.417,16.417,0,0,0,4.209-1.878c.683-.392,1.36-.8,2.027-1.221a10.876,10.876,0,0,1,2.141-1.134,12.439,12.439,0,0,1,2.35-.6,4.235,4.235,0,0,1,1.248,0,1.258,1.258,0,0,1,1.058.773,2.074,2.074,0,0,1-.044,1.273,6.31,6.31,0,0,1-.457,1.126,16.764,16.764,0,0,1-1.261,2.035.1.1,0,1,1-.165-.113Z" fill="#5504b0"/>
      <path id="Path_45534" data-name="Path 45534" d="M421.457,365.95c-1.509.884-3.031,1.7-4.6,2.448a26.09,26.09,0,0,1-4.842,1.848,25.828,25.828,0,0,0,4.576-2.336c1.455-.9,2.877-1.872,4.241-2.882l.008-.006a.557.557,0,1,1,.613.928Zm9.766,1.784c-2.585,1.758-5.2,3.444-7.886,5.035-1.344.79-2.7,1.565-4.1,2.257a22.932,22.932,0,0,1-2.134.96,7.7,7.7,0,0,1-1.11.371,4.475,4.475,0,0,1-1.151.178,4.432,4.432,0,0,0,1.132-.245,7.609,7.609,0,0,0,1.076-.432,22.74,22.74,0,0,0,2.057-1.077c1.346-.767,2.644-1.618,3.931-2.482,2.567-1.737,5.076-3.574,7.525-5.462l.005,0a.556.556,0,1,1,.68.881Zm-1.562,7.6a26.817,26.817,0,0,1-3.169,1.994,31.722,31.722,0,0,1-3.347,1.584,30.291,30.291,0,0,1-7.084,1.948,30.01,30.01,0,0,0,6.855-2.455,31.041,31.041,0,0,0,3.15-1.794,26.029,26.029,0,0,0,2.881-2.129l.018-.015a.557.557,0,1,1,.729.842Zm-27.049-41.8a.5.5,0,0,1-.417-.224l-4.317-6.521a.5.5,0,1,1,.834-.553l4.317,6.521a.5.5,0,0,1-.141.693.5.5,0,0,1-.276.083Zm22.229-16.3a.5.5,0,0,1-.417-.224l-4.318-6.521a.5.5,0,1,1,.834-.553l4.318,6.521a.5.5,0,0,1-.417.776Z" fill="#5504b0"/>
    </g>
  </g>
</svg>
