<svg xmlns="http://www.w3.org/2000/svg" width="312.645" height="253.177" xmlns:v="https://vecta.io/nano"><path d="M0 66.021l.483 5.508 15.39 175.6h296.772V18.052" fill="#fbd206"/><g fill="#5504b0"><path d="M191.538 63.204s-2.568-1.541-4.964 1.2c0 0-4.28-6.081-22.425-.815 0 0 2.4 4.581 4.108 4.581s-3.253 7.874-7.874 7.532c0 0-7.874 11.469-1.883 22.6 5.905 10.967 10.148 14.451 16 7.337a4.44 4.44 0 0 1 .6-.606c1.685-1.389 9.142-7.165 11.785-2.858a4.2 4.2 0 0 1 .448 3.173c-1.206 5.053-6.848 23.663-23.187 16.235 0 0-19.042-7.141-14.55-24.057.48-1.721 1.177-3.374 2.073-4.919 1.746-3.19 2.1-6.959.979-10.419-.688-2.441-2.241-4.547-4.369-5.927-2.063-1.287-4.782-1.862-6.841 1.736a9.95 9.95 0 0 0-1.3 4.911c0 1.577.289 3.51 1.588 4.438l-1.588 3.081c-.864-1.758-1.968-3.386-3.282-4.839a14.39 14.39 0 0 1-4.025-8.216c-.582-4.923.119-12.274 5.985-20.84 0 0 7.874-15.749 22.6-15.407s27.383 4.276 30.122 22.079z"/><path d="M166.888 83.746c2.556-.585 5.183-.801 7.8-.643a19.62 19.62 0 0 1 3.907.593 7.9 7.9 0 0 1 3.526 1.762c-1.163-.54-2.405-.89-3.679-1.036l-3.809-.37-7.745-.306zm24.65-.244c-.936.284-1.803.761-2.544 1.4a3.24 3.24 0 0 0-1.175 2.367 7.43 7.43 0 0 0 .721 2.688l1.12 2.752c.835 1.862 1.321 3.862 1.432 5.9a4.46 4.46 0 0 1-.291 1.571 3.12 3.12 0 0 1-.971 1.291 4.68 4.68 0 0 1-2.942.7 4.89 4.89 0 0 0 2.643-1.057 3.11 3.11 0 0 0 .818-2.5c-.074-.954-.267-1.895-.576-2.8l-1-2.76-1.075-2.782-.459-1.454a4.06 4.06 0 0 1-.16-1.606c.116-1.089.711-2.069 1.624-2.674a6.4 6.4 0 0 1 2.832-1.038z"/><path d="M191.538 63.204q.481 2.878.715 5.787.268 2.9.331 5.826l-.151 5.851c-.089 1.99-.534 3.948-1.313 5.782-.011.023-.026.044-.043.063a23.5 23.5 0 0 0-1.689 2.037 8.3 8.3 0 0 0-.692 1.124 1.99 1.99 0 0 0-.254 1.266 1.94 1.94 0 0 1 .07-1.342c.158-.428.349-.843.573-1.241.447-.793.964-1.544 1.544-2.245l-.043.062c.332-.876.553-1.789.658-2.72.148-.939.208-1.9.279-2.853l.144-5.777-.129-11.62zm-10.271 33.552a6.73 6.73 0 0 0-.436 1.157c-.111.368-.136.757-.071 1.136a1.9 1.9 0 0 0 .471 1.008c.269.311.568.595.892.848-.207-.062-.411-.135-.61-.219-.194-.107-.376-.233-.545-.376-.353-.306-.592-.723-.676-1.183a2.47 2.47 0 0 1 .2-1.337 2.82 2.82 0 0 1 .775-1.034zm-39.543-9.415c.592.744 1.064 1.575 1.4 2.465a6.75 6.75 0 0 1 .388 1.409c.042.253.059.509.05.765v.2l.012.107c-.004.069.011.139.044.2.147.313.407.559.727.69a5.8 5.8 0 0 0 1.194.452c.879.237 1.784.368 2.694.391-.899.353-1.874.469-2.831.339a5.03 5.03 0 0 1-1.451-.372 2.21 2.21 0 0 1-1.227-1.177 1.2 1.2 0 0 1-.088-.475v-.24l.007-.15c.011-.207.006-.415-.014-.621a9.45 9.45 0 0 0-.2-1.3l-.705-2.683zm-1.588 3.081a18.9 18.9 0 0 1-1.605 3.984c-.67 1.281-1.479 2.485-2.413 3.589a13.72 13.72 0 0 1-3.281 2.869 8.4 8.4 0 0 1-4.127 1.255 11.94 11.94 0 0 0 3.713-1.871c1.095-.842 2.092-1.804 2.972-2.869a33.07 33.07 0 0 0 2.5-3.351l2.24-3.606zm12.544 40.057a15.23 15.23 0 0 0 3.048-1.784 26.03 26.03 0 0 0 2.658-2.278c.86-.794 1.631-1.682 2.431-2.55l1.166-1.346 1.176-1.365-.792 1.631-.965 1.537c-.694 1-1.484 1.93-2.357 2.778-.877.855-1.856 1.598-2.915 2.214-1.05.638-2.229 1.035-3.451 1.163z"/><path d="M135.554 97.686a13.88 13.88 0 0 0-3.119-3.3c-.513-.454-1.227-.606-1.881-.4a2.82 2.82 0 0 0-1.146 1.63 12.23 12.23 0 0 0-.5 2.177l-.129 1.1a12.58 12.58 0 0 0 .065 1.1c.147 1.51.427 3.003.836 4.464a32.48 32.48 0 0 0 3.476 8.466c1.573 2.643 3.455 5.089 5.606 7.287l3.337 3.165 3.54 2.917c.593.479 1.247.868 1.867 1.307l1.969 1.126a18.1 18.1 0 0 0 4.181 1.638c2.908.772 5.998.447 8.682-.911a17.23 17.23 0 0 0 6.565-6.176c.012-.023.041-.032.064-.02s.031.04.021.064c-1.393 2.829-3.583 5.189-6.3 6.789a12.43 12.43 0 0 1-4.507 1.511 13.23 13.23 0 0 1-4.757-.3c-1.543-.367-3.028-.944-4.414-1.716-.707-.351-1.35-.806-2.021-1.212l-1.894-1.385c-1.253-.941-2.349-2.04-3.509-3.073-.591-.5-1.092-1.1-1.635-1.657l-1.575-1.711c-2.025-2.343-3.864-4.841-5.5-7.47-1.667-2.629-2.995-5.459-3.952-8.421-.467-1.499-.772-3.043-.91-4.607l-.041-1.209.164-1.189a12.94 12.94 0 0 1 .592-2.309 3.25 3.25 0 0 1 1.58-1.952c.427-.167.9-.177 1.333-.027.394.136.762.339 1.088.6a12.22 12.22 0 0 1 2.911 3.653c.006.011.008.024.005.036s-.012.023-.023.029a.05.05 0 0 1-.069-.014zm-44.07 12.936c1.247.354 2.378 1.03 3.28 1.961.929.916 1.672 2.002 2.188 3.2a10.46 10.46 0 0 1 .858 3.767c.024.639-.009 1.279-.1 1.912-.11.628-.277 1.245-.5 1.843-.222-.618-.322-1.216-.485-1.8l-.474-1.709c-.31-1.096-.69-2.17-1.138-3.217-.449-1.041-.975-2.047-1.572-3.011a28.97 28.97 0 0 0-2.062-2.947zm4.362 23.966c.385 4.439.573 8.877.692 13.315s.145 8.874.136 13.311l-.3 13.308c-.183 4.435-.421 8.871-.866 13.3-.388-4.439-.577-8.877-.695-13.315s-.145-8.874-.133-13.311l.308-13.308c.188-4.435.416-8.866.858-13.3zm91.549-29.326q5.494 3.437 10.786 7.16 2.649 1.859 5.254 3.785l2.585 1.974a11.21 11.21 0 0 1 1.277 1.118l.614.641.517.656c1.34 1.728 2.562 3.543 3.658 5.435q1.657 2.8 3.225 5.628 3.1 5.691 6.383 11.254 1.642 2.784 3.348 5.531l1.7 2.746a14.38 14.38 0 0 0 1.786 2.509c.725.711 1.587 1.415 2.338 2.3.889.926 1.425 2.135 1.513 3.416a5.1 5.1 0 0 1-1.6 3.451 16.99 16.99 0 0 1-1.289 1.175 25.01 25.01 0 0 0-1.176 1.016c-.77.707-1.478 1.449-2.2 2.248a68.01 68.01 0 0 1-2.262 2.373 52.38 52.38 0 0 1-4.944 4.352c-1.771 1.372-3.699 2.527-5.744 3.443a13.39 13.39 0 0 1-3.352.928 7.81 7.81 0 0 1-3.609-.314.78.78 0 0 1-.443-.344l-.007-.011c-.751-1.244-1.572-2.483-2.4-3.7s-1.7-2.409-2.609-3.569c-.912-1.153-1.887-2.254-2.921-3.3a10 10 0 0 0-3.57-2.469h-.007a.1.1 0 0 1 .053-.192c1.483.382 2.853 1.11 4 2.125 1.175.951 2.277 1.989 3.295 3.107 2.046 2.215 3.925 4.578 5.624 7.07l-.449-.355a8.35 8.35 0 0 0 5.6-.814 26.27 26.27 0 0 0 5.245-3.307c1.669-1.296 3.265-2.683 4.78-4.155a70.32 70.32 0 0 0 2.259-2.245c.734-.768 1.545-1.58 2.383-2.308.421-.366.852-.722 1.3-1.062.4-.337.787-.625 1.125-.968.653-.564 1.079-1.346 1.2-2.2a3.9 3.9 0 0 0-1-2.391c-.613-.788-1.386-1.5-2.137-2.359-.198-.223-.383-.456-.555-.7l-.434-.733-.78-1.431-1.525-2.855q-1.509-2.861-3.083-5.682c-2.1-3.758-4.322-7.454-6.725-11.029-2.382-3.57-4.8-7.184-7.378-10.482l-.488-.61-.509-.52c-.349-.373-.727-.718-1.131-1.03l-2.514-2-5.076-3.986q-5.087-3.981-10.044-8.154a.1.1 0 1 1 .118-.162z"/><path d="M200.782 137.555c-1.751 6.578-3.4 13.173-4.784 19.794a77.37 77.37 0 0 0-1.485 9.952c-.095 1.609-.1 3.385-.246 5.107-.138 1.756-.431 3.496-.878 5.2a27.73 27.73 0 0 1-4.961 9.24c-1.029 1.372-2.119 2.7-3.14 4.032-.491.662-.989 1.319-1.43 2.027-.473.683-.9 1.4-1.326 2.123a84.21 84.21 0 0 0-4.484 9.058c-1.384 3.094-2.577 6.274-3.744 9.473a83.21 83.21 0 0 1 6.863-19.289 34.67 34.67 0 0 1 2.719-4.445l3.015-4.1a26.32 26.32 0 0 0 4.563-8.659 27.69 27.69 0 0 0 .859-4.835c.159-1.666.154-3.293.307-5.076.357-3.427.976-6.821 1.851-10.153a158.17 158.17 0 0 1 6.3-19.452zm75.444 89.083a1.5 1.5 0 1 1 0-3l34.918-.046h0a1.5 1.5 0 1 1 0 3l-34.918.046zm-266.157-.577l44.029-.396.027 3-44.029.396z"/><path d="M176.132 90.137c.581.02 1.116-.315 1.353-.846s.127-1.153-.277-1.571-1.021-.55-1.561-.332-.892.741-.893 1.322c0 .769.609 1.401 1.378 1.427zm37.754 147.883c5.042 3.436 10.715 5.839 16.691 7.068a38.07 38.07 0 0 0 9.011.645c3.012-.163 5.995-.669 8.892-1.509a55.41 55.41 0 0 0 16.158-7.983c1.234-.832 2.4-1.761 3.487-2.777a37.25 37.25 0 0 0 3.062-3.275 41.14 41.14 0 0 0 4.922-7.474l-.1.4v-.031a.88.88 0 0 1 .094-.381c1.179-2.315 2.142-4.733 2.877-7.224a38.14 38.14 0 0 0 1.408-7.672v-.055l.006-.035c.014-.051 0-.027.014.066l-.008-.157a36.34 36.34 0 0 0-2.168-15.494 37.2 37.2 0 0 0-8.53-13.146c-7.476-7.4-17.627-11.463-28.145-11.265s-20.508 4.641-27.701 12.317a39.52 39.52 0 0 0-8.176 13.192 41.03 41.03 0 0 0-2.491 15.5.1.1 0 0 1-.1.106c-.054 0-.1-.04-.106-.094-.637-5.354-.126-10.782 1.5-15.922 1.638-5.194 4.358-9.983 7.981-14.05a39.1 39.1 0 0 1 13.071-9.658 39.31 39.31 0 0 1 44.909 9.158c3.645 3.965 6.488 8.598 8.371 13.644a42.83 42.83 0 0 1 2.677 15.812l-.008-.157a.93.93 0 0 1-.006.366l.01-.089c-.073 2.702-.428 5.39-1.058 8.019a36.85 36.85 0 0 1-2.716 7.644l.095-.4v.01a.85.85 0 0 1-.087.387l-.009.018a37.65 37.65 0 0 1-5.153 7.829 39.04 39.04 0 0 1-3.248 3.388c-1.171 1.05-2.417 2.013-3.73 2.879-5.092 3.576-10.758 6.254-16.754 7.918a38.7 38.7 0 0 1-18.449.451 45.17 45.17 0 0 1-16.621-7.8c-.047-.032-.058-.096-.026-.143s.096-.058.143-.026z"/><path d="M222.707 171.95l-.737 2.223-.651 2.235-.579 2.249-.579 2.243.029-.188a.76.76 0 0 1-.049.249c-.036.097-.092.186-.163.261a.78.78 0 0 1-.555.241l.729-.555-1.385 6.467-1.157 6.515-1.009 6.561-1.044 6.607a56.2 56.2 0 0 1-.2-6.714 65.23 65.23 0 0 1 .46-6.707l1.106-6.64.829-3.269.928-3.239.729-.555c-.205.003-.4.088-.541.236-.07.073-.124.16-.159.255a.73.73 0 0 0-.047.241l.029-.188 1.718-4.4c.638-1.443 1.408-2.825 2.3-4.127zm38.815 0a40.84 40.84 0 0 1 3.361 7.391c.484 1.272.828 2.583 1.245 3.878l1.019 3.944c1.186 5.301 1.948 10.687 2.279 16.109.342 5.41.346 10.837.013 16.248-.166 2.7-.469 5.392-.727 8.081l-1.251 8.009c.044-2.707.216-5.393.312-8.082l.168-8.061-.011-4.025.007-2.011-.072-2.009-.106-4.017-.248-4.008a146.73 146.73 0 0 0-1.827-15.937l-.772-3.938c-.309-1.3-.558-2.621-.925-3.908a51.5 51.5 0 0 0-2.465-7.666zm-20.285 52.83a9.11 9.11 0 0 0 1.56-2.1l-.05 2.69q-.2 9.75-.75 19.5-.555-9.75-.75-19.5c0-.202-.01-.39-.01-.59zm.27-6.43s.66-.79 1.38-1.83l-.04 3.04c-.346-.502-.805-.917-1.34-1.21zm1.45-13.45v1.92l-.03 4.71a8.26 8.26 0 0 0-1.86.37l-.03-5.08v-1.92c.04-12.69.22-25.37.96-38.06.73 12.69.917 25.37.96 38.06z"/><path d="M206.531 189.604a81.41 81.41 0 0 1 17.336-5.482c5.974-1.221 12.05-1.866 18.147-1.927 3.05-.091 6.1.154 9.139.324 1.516.169 3.026.389 4.538.582.755.106 1.513.184 2.264.314l2.237.48a75.15 75.15 0 0 1 17.264 5.711q-2.191-.624-4.347-1.3l-2.158-.663c-.722-.21-1.469-.336-2.2-.508l-4.387-1.021c-1.473-.282-2.96-.495-4.437-.746l-2.216-.363c-.742-.1-1.49-.157-2.234-.237l-4.468-.438c-2.992-.11-5.978-.338-8.973-.217a122.03 122.03 0 0 0-17.9 1.477l-4.44.769-4.415.927c-2.952.627-5.858 1.427-8.75 2.318zm34.576 38.415l9.2-1.187c3.043-.429 6.078-.885 9.1-1.432 3.021-.519 6.029-1.131 9.032-1.775 1.487-.374 2.988-.712 4.5-1.045l1.138-.234 1.118-.291a71.11 71.11 0 0 1 2.272-.537q-1.033.534-2.092 1.038c-.699.346-1.417.654-2.15.922l-4.4 1.595a72.5 72.5 0 0 1-9.084 2.217 65.24 65.24 0 0 1-18.634.73zm-38.12-22.16q2.955-.18 5.91-.3a13.32 13.32 0 0 0-1.58.53l-4.33-.229zm78.02 0q-9.75.555-19.5.75l-18.55.21h-1.92c-.78 0-1.55-.01-2.33-.01.08-.83-.33-1.38-1.49-1.44-1.021-.028-2.02.305-2.82.94l-.61.46q-9.1-.06-18.2-.35c-.05-.435-.273-.832-.62-1.1 8.69-.3 17.38-.39 26.07-.42h1.92l18.55.21q9.75.181 19.5.751z"/><path d="M219.427 180.69c-.936 1.758-1.657 3.607-2.16 5.52-.01.02-.01.05-.02.07-.75 2.89-.38 3.42-1.37 6.27-.56 1.61-1.06 2.54-.78 3.87a15.3 15.3 0 0 0 1.01 2.43l.38.82c.69 1.52.86 1.88.71 2.34-.19.56-.63.63-1.44 1.12a5.87 5.87 0 0 0-.81.57c-.48.361-.922.77-1.32 1.22a16.83 16.83 0 0 0-8.55 2.23l-2.01 1.07h-.01l-.06-1.29-.01-1.07c-.007-5.612 1.2-11.159 3.54-16.26l.01-.01h.01a37.83 37.83 0 0 1 3.36-5.91c4.35-4.24 9.04-6.44 10.6-6.43a.66.66 0 0 1 .47.14c.35.35-.49 1.31-1.55 3.3zm61.58 25.17c0 .33 0 .66-.02.99 0 .28-.02.55-.03.83 0 .05-.01.1-.01.15-.002.291-.018.581-.05.87a38.62 38.62 0 0 1-3.89 14.37c-.028.017-.058.031-.09.04v.01a2.68 2.68 0 0 1-.83.24c-.68.069-1.357-.156-1.86-.62-.01-.01-.02-.03-.04-.04-.81-.89-.16-2.13-.42-3.99-.22-1.54-1.03-2.63-2.64-4.8a21.97 21.97 0 0 0-2.34-2.8c-.59-.57-1.14-.92-1.53-.76-.49.22-.64 1.26-.46 2.02.27 1.14 1.19 1.24 1.39 2.16.27 1.21-.96 2.61-2.01 3.25a4.09 4.09 0 0 1-4.02.31c-1.44-.84-1.4-2.63-2.17-2.63-.61.01-1.15 1.13-1.24 2.01a2.8 2.8 0 0 0 1.39 2.79c.99.42 1.63-.45 2.79 0 .706.232 1.236.823 1.39 1.55.05.95-1.25 1.69-2.94 2.63-1.93 1.07-2.53 1.02-4.8 2.17l-.61.31a11.8 11.8 0 0 0-2.48 1.54c-1.56 1.28-1.41 1.85-2.94 3.1-.999.927-2.228 1.569-3.56 1.86-1.21.2-1.46-.17-3.56-.31a13.98 13.98 0 0 0-1.43-.03c-.919.012-1.837.072-2.75.18a21.96 21.96 0 0 0-3.17.55c5.36-2.73 6.07-6.86 3.84-7.84 0 0 6.34-4.81 1.59-7.62 0 0 7.68-9.14-.99-6.28a8.81 8.81 0 0 0-2.04 1.01l-.93.6-1.03-2.62v-.01c2.03-2.76 3.39-5.55.7-5.68-1.021-.028-2.02.305-2.82.94-.62.47-1.51 1.13-2.63 1.89l-2.27-2.34c-.518-.843-.837-1.794-.93-2.78a7.86 7.86 0 0 1 2.32-5.88c1.425-1.51 3.249-2.584 5.26-3.1 1.577-.61 3.281-.823 4.96-.62.28.05.58.11.89.19.98.23 1.99.57 2.51.74a9.49 9.49 0 0 0 2.79.78c1.26.06 1.61-.32 2.16 0 .69.38.58 1.18 1.09 3.09.51 1.89.93 3.49 2.01 3.87.81.28 1.25-.38 2.17 0 .6.25.6.61 1.54 1.55.83.82 1.25 1.23 1.86 1.39 1.191.272 2.425-.222 3.1-1.24.12-.21.34-.65.15-2.47-.23-2.3-.34-3.45-1.08-4.18-.9-.89-1.6-.24-3.72-.93-2.43-.79-2.25-1.89-4.95-2.94-1.81-.7-2.29-.37-3.71-1.24-1.15-.7-2.61-2-2.33-2.79.31-.84 2.31-.19 3.1-1.39.62-.93-.24-1.84.46-3.1.41-.72 1.26-1.41 1.86-1.23.66.19.41 1.26 1.24 2.63.769 1.171 1.916 2.043 3.25 2.47 1.01.37 2.26.83 3.25.16.88-.59 1.37-1.94.93-2.63-.57-.89-2.3-.13-2.79-.93a1.53 1.53 0 0 1 .01-1.21 2.8 2.8 0 0 1 1.85-1.89c.51-.08 1.03.11 4.03 2.63.16.14.32.27.46.39l.01.01c1.59 1.35 1.88 1.65 2.47 1.62a1.82 1.82 0 0 0 .57-.13 2.98 2.98 0 0 0 .86-.55 7.5 7.5 0 0 0 1.66-2.42c.51-1.18.31-1.66.62-1.86.72-.46 3.29 1.08 5.99 3.85a36.71 36.71 0 0 1 2.04 3.88 38.74 38.74 0 0 1 3.46 13.52c.03.45.05.91.07 1.37s.02.91.02 1.37zM166.888 0a62.04 62.04 0 0 1 1.289 6.9c.33 2.308.544 4.625.735 6.944.154 2.321.282 4.644.3 6.976a61.35 61.35 0 0 1-.265 7.017c-.562-2.273-.993-4.577-1.292-6.9-.33-2.308-.543-4.625-.732-6.944-.151-2.321-.28-4.645-.292-6.976A62.04 62.04 0 0 1 166.888 0zm14.419 29.76c.534-2.371 1.196-4.711 1.985-7.01.754-2.3 1.617-4.555 2.5-6.8.918-2.233 1.86-4.458 2.909-6.638a66.02 66.02 0 0 1 3.43-6.428c-.531 2.372-1.193 4.713-1.982 7.012-.755 2.3-1.617 4.555-2.5 6.8-.921 2.233-1.862 4.457-2.912 6.637a66.76 66.76 0 0 1-3.427 6.43zm-36.33-24.48c1.238 1.868 2.364 3.809 3.373 5.81 1.033 1.976 1.958 4 2.863 6.032.871 2.047 1.718 4.1 2.459 6.207a56.2 56.2 0 0 1 1.942 6.431 56.19 56.19 0 0 1-3.375-5.809c-1.032-1.977-1.958-4-2.86-6.033-.868-2.048-1.716-4.1-2.456-6.208a56.82 56.82 0 0 1-1.947-6.43zM51.842 167.853a18.19 18.19 0 0 0-2.724-.476 2.9 2.9 0 0 0-1.292.129c-.393.142-.269.574-.052.95.508.75 1.116 1.427 1.807 2.013.674.62 1.389 1.211 2.115 1.765a.31.31 0 0 1 .058.434c-.068.087-.177.132-.287.119-1.892-.21-3.674-.993-5.108-2.245a7.72 7.72 0 0 1-1.779-2.235c-.236-.441-.405-.915-.5-1.406-.056-.286-.05-.58.017-.863.049-.181.139-.349.262-.491.038-.069.074-.093.131-.2.835-1.519 1.547-3.236 2.271-4.883l2.128-5.011c.714-1.675 1.436-3.329 2.048-5.024.629-1.695 1.141-3.411 1.732-5.144l1.735-5.181c.59-1.722 1.313-3.4 1.962-5.1a101.11 101.11 0 0 1 9.926-19.417 45.22 45.22 0 0 1 7.1-8.344l1.02-.928 1.091-.849c.723-.575 1.481-1.105 2.269-1.588 1.582-1.034 3.331-1.786 5.169-2.225l-.1.024a41.62 41.62 0 0 1 9.6-1.669c3.22-.262 6.446-.345 9.665-.349s6.438.064 9.652.188c3.215.152 6.422.345 9.633.607l-.337.114a35.69 35.69 0 0 0 3.427-4.08l1.605-2.177a6.82 6.82 0 0 1 1.978-2 7.63 7.63 0 0 1 5.423-.82c1.804.324 3.523 1.013 5.05 2.027.025.017.033.051.016.077a.06.06 0 0 1-.078.015c-1.543-.921-3.259-1.516-5.041-1.75-1.739-.296-3.527.04-5.041.945-.709.502-1.304 1.147-1.746 1.894l-1.541 2.243c-1.025 1.529-2.178 2.967-3.447 4.3a.4.4 0 0 1-.307.116h-.03c-3.194-.2-6.4-.323-9.6-.409-3.2-.1-6.407-.154-9.608-.139s-6.4.14-9.582.34c-3.165.136-6.303.641-9.351 1.505l-.068.017-.035.007c-1.701.413-3.327 1.09-4.818 2.007a21.85 21.85 0 0 0-2.231 1.481l-1.081.8c-.346.284-.678.588-1.018.882-.693.574-1.351 1.187-1.973 1.837s-1.278 1.272-1.865 1.957c-1.148 1.392-2.35 2.745-3.359 4.251-4.156 5.953-7.501 12.433-9.945 19.269-.592 1.715-1.256 3.4-1.787 5.138l-1.562 5.211c-.533 1.723-.985 3.514-1.621 5.229-.605 1.731-1.322 3.416-2.016 5.092s-1.434 3.343-2.17 5.009c-.761 1.667-1.455 3.311-2.392 4.967a2.7 2.7 0 0 1-.26.356c.006.056-.041.019-.042.109a1.26 1.26 0 0 0 0 .487c.076.402.211.791.4 1.154a7.51 7.51 0 0 0 1.557 2.042c1.29 1.194 2.914 1.965 4.655 2.21l-.229.553c-.732-.595-1.432-1.21-2.1-1.868a10.02 10.02 0 0 1-1.788-2.214c-.126-.231-.2-.486-.218-.748a.73.73 0 0 1 .482-.685 3.1 3.1 0 0 1 1.454-.087c.925.137 1.837.345 2.73.622.029.009.046.039.038.069s-.038.046-.067.039z"/><path d="M242.804 216.463c.44-.652.833-1.335 1.176-2.043a6.02 6.02 0 0 0 .4-1.086 1.77 1.77 0 0 0 .018-1.065.89.89 0 0 0-.794-.512c-.373-.042-.75-.03-1.119.036a12.04 12.04 0 0 0-2.233.633 10.37 10.37 0 0 0-2.024 1.14l-2.014 1.282-2.093 1.176c-.726.398-1.502.699-2.307.894a.36.36 0 0 1-.334-.6l.017-.018a56.28 56.28 0 0 0 4.653-5.514l-.089.27v-.01c-.001-.092.027-.183.081-.258l.007-.01 1.24-1.914a6.3 6.3 0 0 0 .8-1.979c.094-.682-.125-.889-.817-.987-.678-.058-1.358.081-1.959.4a5.17 5.17 0 0 0-.885.589l-.948.7-1.917 1.361-4 2.483a39.6 39.6 0 0 1-8.7 3.716 23.79 23.79 0 0 1-4.737.8 16.2 16.2 0 0 1-4.856-.482c-.242-.065-.435-.247-.514-.484s-.033-.499.122-.695l.012-.015 3.8-4.756 1.865-2.341c.164-.233.211-.528.129-.8-.036-.126-.1-.243-.189-.34-.053-.055-.112-.106-.174-.151a.82.82 0 0 0-.167-.1 1.09 1.09 0 0 0-.463-.078c-.2-.009-.478 0-.708 0l-1.444.1c-.961.109-1.909.318-2.827.623l-1.376.475c-.445.176-.882.377-1.311.6l-2.679 1.443c-.11.059-.233.091-.358.092h-.031l.375-.09c-5.042 2.519-10.13 4.742-14.928 7.516l-1.806 1.052a19.57 19.57 0 0 1-6.121 2.308 21.43 21.43 0 0 1-4.342.421c-1.479-.011-2.859-.186-4.248-.288l-16.7-1.4-16.695-1.466-33.4-2.8-4.175-.274a54.38 54.38 0 0 0-2.072-.09 2.5 2.5 0 0 1-1.191-.278c-.349-.201-.65-.476-.881-.806a10.49 10.49 0 0 1-1.467-4.067 37.34 37.34 0 0 1-.5-4.2c-.283-5.6-.183-11.213.3-16.8l.219.321c-3.845-1.182-7.686-2.4-11.42-3.905a118.54 118.54 0 0 1-11-4.972c-3.579-1.845-7.067-3.865-10.527-5.892-3.462-2.006-6.954-4.017-10.748-5.051l.658-.5q.011 16.6.7 33.19c.24 5.526.547 11.049 1 16.554l.364 4.125.43 4.114c.166 1.367.281 2.751.534 4.045.246 1.31.609 2.594 1.087 3.838a24.2 24.2 0 0 0 10.2 11.932 28.27 28.27 0 0 0 7.368 3.116c1.296.345 2.613.605 3.943.777 1.339.165 2.735.275 4.1.415l4.116.395 4.127.267c2.749.214 5.506.274 8.26.385s5.512.075 8.268.122l8.267-.206a231.52 231.52 0 0 0 32.848-3.7l16.339-3.062c5.478-.928 10.968-1.706 16.461-2.451l32.974-4.152c5.488-.7 10.987-1.392 16.414-2.365l2.019-.408c.675-.133 1.3-.353 1.957-.523a36.18 36.18 0 0 0 1.861-.8c.602-.305 1.183-.651 1.738-1.035 1.112-.741 2.025-1.744 2.66-2.919.304-.565.441-1.206.393-1.846a1.74 1.74 0 0 0-.987-1.415.25.25 0 0 1-.067-.409l.016-.015c.599-.495 1.171-1.022 1.713-1.579a7.6 7.6 0 0 0 1.3-1.907c.347-.673.411-1.456.179-2.177-.304-.704-.836-1.285-1.511-1.649a.13.13 0 0 1-.044-.178l.011-.015 1.4-1.8.005-.006a.1.1 0 0 1 .178.017.1.1 0 0 1-.019.103l-1.363 1.856-.034-.193a3.7 3.7 0 0 1 1.676 1.757 3.19 3.19 0 0 1-.129 2.441 8 8 0 0 1-1.312 2.045 21.61 21.61 0 0 1-1.739 1.685l-.052-.424c.729.325 1.234 1.008 1.331 1.8.08.747-.057 1.501-.393 2.172-.651 1.29-1.608 2.401-2.789 3.234-.573.419-1.175.798-1.8 1.134-.634.312-1.279.613-1.932.888-.678.2-1.359.451-2.04.6l-2.043.464c-5.46 1.077-10.945 1.86-16.429 2.659l-32.9 4.616-16.378 2.616c-2.722.458-5.425 1.045-8.133 1.57l-8.157 1.646a233.57 233.57 0 0 1-33.126 3.809c-11.12.501-22.261.164-33.33-1.008l-4.162-.447c-1.417-.192-2.82-.477-4.2-.853-2.768-.749-5.415-1.888-7.862-3.382-4.975-2.981-8.814-7.534-10.912-12.941a23.88 23.88 0 0 1-1.168-4.131c-.267-1.427-.382-2.812-.529-4.191s-.277-2.768-.38-4.153l-.313-4.154c-.384-5.54-.62-11.082-.789-16.625q-.5-16.629-.272-33.255v-.01c.002-.137.058-.267.155-.363s.23-.148.367-.146a.54.54 0 0 1 .136.02c3.972 1.145 7.482 3.249 10.922 5.3 3.444 2.07 6.866 4.15 10.42 6a117.83 117.83 0 0 0 10.913 5c3.706 1.52 7.523 2.747 11.346 3.944.138.044.229.176.219.321a114.48 114.48 0 0 0-.216 16.691c.096 1.38.27 2.754.521 4.114.193 1.329.654 2.605 1.356 3.75a2.01 2.01 0 0 0 .646.594 1.67 1.67 0 0 0 .825.178l2.114.076 4.189.234 33.452 2.234 16.718 1.2 16.709 1.311c1.4.1 2.8.261 4.111.26a19.66 19.66 0 0 0 3.983-.407 19.26 19.26 0 0 0 3.8-1.21 18.4 18.4 0 0 0 1.784-.9l1.821-1.045c4.9-2.791 10.086-5.017 15.051-7.459l.012-.006a.83.83 0 0 1 .364-.084h.01l-.379.092 2.69-1.426c.475-.241.962-.461 1.462-.655.484-.179 1-.34 1.5-.509 1.012-.327 2.055-.548 3.112-.662a16.63 16.63 0 0 1 1.592-.1c.277 0 .5-.007.814.007.351.003.697.076 1.02.213a2.4 2.4 0 0 1 .489.287 2.84 2.84 0 0 1 .392.355 2.42 2.42 0 0 1 .534.983c.197.719.064 1.489-.364 2.1l-1.941 2.41-3.831 4.735-.38-1.193a15.34 15.34 0 0 0 4.379.489 22.4 22.4 0 0 0 4.451-.684c2.949-.812 5.79-1.975 8.462-3.462a57.36 57.36 0 0 0 3.957-2.369c.648-.414 1.269-.873 1.906-1.308a24.99 24.99 0 0 0 .936-.67 6.3 6.3 0 0 1 1.065-.68 4.58 4.58 0 0 1 2.557-.468 2.05 2.05 0 0 1 1.368.657c.319.433.434.983.315 1.507-.181.82-.505 1.602-.958 2.31a21.78 21.78 0 0 1-1.338 1.968l.088-.268v.023a.43.43 0 0 1-.089.257 57.04 57.04 0 0 1-4.867 5.486l-.317-.615c1.484-.425 2.901-1.057 4.209-1.878a56.4 56.4 0 0 0 2.027-1.221c.669-.457 1.387-.837 2.141-1.134a12.44 12.44 0 0 1 2.35-.6c.414-.062.834-.062 1.248 0a1.26 1.26 0 0 1 1.058.773c.119.418.104.864-.044 1.273a6.31 6.31 0 0 1-.457 1.126c-.371.708-.793 1.388-1.261 2.035a.1.1 0 0 1-.174-.013.1.1 0 0 1 .009-.1z"/><path d="M232.071 217.018l-4.6 2.448a26.09 26.09 0 0 1-4.842 1.848 25.83 25.83 0 0 0 4.576-2.336l4.241-2.882.008-.006c.166-.124.386-.145.572-.056s.309.274.317.48-.098.401-.277.504zm9.766 1.784l-7.886 5.035-4.1 2.257a22.93 22.93 0 0 1-2.134.96 7.7 7.7 0 0 1-1.11.371c-.374.109-.761.169-1.151.178a4.43 4.43 0 0 0 1.132-.245 7.61 7.61 0 0 0 1.076-.432 22.74 22.74 0 0 0 2.057-1.077l3.931-2.482 7.525-5.462h.005c.243-.188.593-.143.78.101s.143.593-.101.78zm-1.562 7.6c-1.009.738-2.068 1.404-3.169 1.994a31.72 31.72 0 0 1-3.347 1.584 30.29 30.29 0 0 1-7.084 1.948 30.01 30.01 0 0 0 6.855-2.455 31.04 31.04 0 0 0 3.15-1.794 26.03 26.03 0 0 0 2.881-2.129l.018-.015c.15-.135.361-.179.552-.115s.332.228.369.426-.037.401-.192.53zm-27.049-41.8a.5.5 0 0 1-.417-.224l-4.317-6.521a.5.5 0 1 1 .834-.553l4.317 6.521a.5.5 0 0 1-.141.693.5.5 0 0 1-.276.083zm22.229-16.3a.5.5 0 0 1-.417-.224l-4.318-6.521a.5.5 0 0 1 .834-.553l4.318 6.521a.5.5 0 0 1-.417.776z"/></g></svg>