<svg xmlns="http://www.w3.org/2000/svg" xmlns:xlink="http://www.w3.org/1999/xlink" width="505.235" height="354.229" xmlns:v="https://vecta.io/nano"><style><![CDATA[.B{fill:#ebebeb}.C{fill:#ffc727}.D{fill:#263238}.E{fill:#a6a6a6}.F{fill:#fff}.G{fill:#455a64}.H{fill:#dd6a57}.I{fill:#6300b7}.J{fill:#37474f}.K{stroke-miterlimit:10}]]></style><g class="B"><path d="M496.795 221.05H369.172V33.72h127.623zm-124.19-3.433h120.757V37.153H372.605z"/><path d="M431.216 38.05h3.433v181.283h-3.433z"/><use xlink:href="#B"/><use xlink:href="#B" y="5.378"/><use xlink:href="#B" y="10.757"/><use xlink:href="#B" y="16.135"/><use xlink:href="#B" y="21.514"/><use xlink:href="#B" y="26.892"/><use xlink:href="#B" y="32.27"/><use xlink:href="#B" y="37.649"/><use xlink:href="#B" y="43.027"/></g><g class="D"><path d="M488.852 39.691h.858v110.195h-.858z"/><path d="M490.807 153.883h-3.047l.764-4.377h1.521zm1.139-114.192h.858v150.831h-.858z"/><path d="M493.898 193.739h-3.047l.764-4.377h1.519z"/></g><path fill="#dbdbdb" d="M360.731 33.049h144.504v10.002H360.731z"/><path d="M160.126 131.225l.1-3.444c0-3.492-1.245-5.072-4.5-5.167a2.3 2.3 0 1 1 0-4.593c3.253-.143 4.5-1.675 4.5-5.215l-.1-3.444c0-4.641 1.961-7.607 9.377-9.234 1.066-.301 2.18.29 2.526 1.342a2.07 2.07 0 0 1-1.234 2.581c-4.64 1.435-5.311 2.918-5.311 6.171 0 .957.1 2.535.1 3.541 0 3.732-1.818 5.55-4.976 6.555 3.206 1.052 4.976 2.822 4.976 6.554 0 1-.1 2.583-.1 3.54 0 3.253.671 4.736 5.311 6.171a2.07 2.07 0 0 1 1.234 2.581c-.346 1.052-1.46 1.644-2.526 1.342-7.416-1.624-9.377-4.591-9.377-9.281zm28.035-21.862l-.1 3.444c0 3.54 1.292 5.072 4.546 5.215a2.3 2.3 0 1 1 0 4.593c-3.254.1-4.546 1.675-4.546 5.167l.1 3.444c0 4.689-1.961 7.655-9.376 9.282a2.06 2.06 0 0 1-1.245-3.923c4.594-1.435 5.263-2.918 5.263-6.171 0-.958-.1-2.536-.1-3.54 0-3.732 1.818-5.55 4.976-6.554-3.207-1.053-4.976-2.823-4.976-6.555 0-1.005.1-2.583.1-3.541 0-3.253-.67-4.736-5.263-6.171a2.061 2.061 0 1 1 1.249-3.928c7.41 1.631 9.372 4.6 9.372 9.238zm98.647-44.913c.814.797 1.064 2.007.635 3.062s-1.455 1.746-2.594 1.748c-.76.005-1.493-.281-2.049-.8l-12.513-12.694c-.134-.045-.178-.134-.223-.267a.63.63 0 0 0-.134-.09 1.18 1.18 0 0 1-.133-.355.24.24 0 0 1-.134-.179c-.044-.089-.044-.223-.088-.267 0-.134-.089-.179-.089-.223v-.312c0-.089-.044-.133-.044-.268 0-.044.044-.178.044-.222v-.311c0-.089.089-.134.089-.179.045-.133.045-.222.088-.355 0-.045.045-.045.045-.089.064-.138.138-.272.221-.4-.001-.024.009-.047.025-.064s.04-.026.064-.025a.84.84 0 0 1 .268-.312l12.513-12.692a2.91 2.91 0 0 1 4.007 0c.534.53.835 1.251.835 2.004a2.82 2.82 0 0 1-.835 2.004l-10.552 10.642zm11.355 1.426l10.909-25.963c.26-.603.749-1.077 1.358-1.319s1.291-.232 1.894.028a2.4 2.4 0 0 1 1.246 3.162l-10.909 26.007a2.47 2.47 0 0 1-2.272 1.469c-.306.005-.609-.056-.889-.179a2.4 2.4 0 0 1-1.337-3.205zm36.96-10.464c.001.012-.004.024-.012.032s-.02.013-.032.013a2.05 2.05 0 0 1-.311.312l-12.513 12.689c-1.122 1.069-2.886 1.069-4.008 0-.534-.53-.834-1.252-.834-2.004s.3-1.474.834-2.004l10.555-10.644-10.556-10.642c-.534-.53-.834-1.252-.834-2.004s.3-1.474.834-2.004a2.91 2.91 0 0 1 4.008 0l12.514 12.691a2.09 2.09 0 0 1 .311.312c.044 0 .044.089.044.089a3.64 3.64 0 0 1 .223.4c0 .044.046.044.046.089a1.97 1.97 0 0 0 .134.4c0 .045.044.045.044.134v.312c0 .045.044.179.044.222s-.044.179-.044.223v.356c0 .045-.044.045-.044.089a3.6 3.6 0 0 0-.134.4c0 .045-.046.045-.046.134-.044.091-.133.225-.223.405z" class="B"/><path d="M481.171 333.513H377.214l20.728-120.574h77.736z" fill="#dbdbdb"/><path d="M481.172 333.513h-9.115l-5.116-120.574h8.74z" class="E"/><path fill="none" stroke="#263238" d="M138.453 343.303h359.214" class="K"/><path d="M150.739 33.049h85.298v54.412h-85.298z" class="F"/><path d="M236.573 88H150.2V32.509h86.373zm-85.3-1.078h84.221V33.588h-84.216z" class="B"/><path d="M150.739 33.049h85.298v10.29h-85.298z" class="C"/><path d="M236.573 43.877H150.2V32.509h86.373zm-85.3-1.079h84.221v-9.21h-84.216z" class="B"/><path d="M160.398 38.268a2.59 2.59 0 0 1-4.42 1.831 2.59 2.59 0 0 1 1.831-4.42 2.59 2.59 0 0 1 2.589 2.589z" class="E"/><use xlink:href="#C" class="B"/><use xlink:href="#C" x="10.578" class="F"/><path d="M165.461 63.684c.111-5.73 4.787-10.316 10.518-10.317 2.395-.015 4.725.772 6.621 2.235a1.7 1.7 0 0 1 .286 2.293 1.68 1.68 0 0 1-2.293.315 7.14 7.14 0 0 0-4.614-1.577c-1.918.01-3.761.747-5.158 2.062a7.07 7.07 0 0 0-2.093 4.987 6.97 6.97 0 0 0 2.093 4.988 7.59 7.59 0 0 0 5.158 2.063 7.2 7.2 0 0 0 4.614-1.577 1.74 1.74 0 0 1 2.293.316 1.69 1.69 0 0 1-.286 2.293c-1.896 1.463-4.226 2.25-6.621 2.235-5.739.02-10.427-4.578-10.518-10.316zm22.353 5.331c.525-.629 1.458-.718 2.092-.2a9.34 9.34 0 0 0 5.473 2.206c1.275.025 2.527-.345 3.583-1.06a2.58 2.58 0 0 0 1.233-2.063 1.63 1.63 0 0 0-.258-.917 2.69 2.69 0 0 0-.859-.86 11.48 11.48 0 0 0-3.926-1.348h-.058a15.48 15.48 0 0 1-3.7-1.118 6.17 6.17 0 0 1-2.665-2.235 4.39 4.39 0 0 1-.659-2.35c.057-1.68.908-3.232 2.293-4.184a8.47 8.47 0 0 1 4.958-1.519c2.266.116 4.445.915 6.248 2.293a1.48 1.48 0 0 1 .4 2.035 1.45 1.45 0 0 1-2.036.43 8.31 8.31 0 0 0-4.613-1.834c-1.146-.019-2.269.321-3.211.974-.635.389-1.042 1.063-1.088 1.806a1.39 1.39 0 0 0 .2.8 2.76 2.76 0 0 0 .774.746c1.101.648 2.318 1.077 3.582 1.261h.057c1.363.236 2.691.639 3.956 1.2a6.69 6.69 0 0 1 2.865 2.379c.451.732.69 1.576.689 2.436a5.55 5.55 0 0 1-2.465 4.443 8.97 8.97 0 0 1-5.3 1.633 12.36 12.36 0 0 1-7.337-2.866c-.62-.524-.72-1.442-.228-2.088zm18.829 0c.525-.629 1.458-.718 2.092-.2a9.34 9.34 0 0 0 5.473 2.206c1.275.025 2.527-.345 3.583-1.06a2.58 2.58 0 0 0 1.233-2.063 1.63 1.63 0 0 0-.258-.917 2.69 2.69 0 0 0-.859-.86 11.48 11.48 0 0 0-3.926-1.348h-.058a15.48 15.48 0 0 1-3.7-1.118 6.17 6.17 0 0 1-2.665-2.235 4.39 4.39 0 0 1-.659-2.35c.057-1.68.908-3.232 2.293-4.184a8.47 8.47 0 0 1 4.958-1.519c2.266.116 4.445.915 6.248 2.293a1.48 1.48 0 0 1 .4 2.035 1.45 1.45 0 0 1-2.036.43 8.31 8.31 0 0 0-4.613-1.834c-1.146-.019-2.269.321-3.211.974-.635.389-1.042 1.063-1.088 1.806a1.39 1.39 0 0 0 .2.8 2.75 2.75 0 0 0 .774.746c1.101.648 2.318 1.077 3.582 1.261h.057c1.363.236 2.691.639 3.956 1.2a6.69 6.69 0 0 1 2.865 2.379 4.64 4.64 0 0 1 .689 2.436 5.55 5.55 0 0 1-2.467 4.447 8.97 8.97 0 0 1-5.3 1.633 12.36 12.36 0 0 1-7.337-2.866c-.622-.525-.721-1.446-.226-2.092z" class="B"/><path d="M291.627 188.729h85.298v54.412h-85.298z" class="F"/><path d="M377.464 243.675h-86.376v-55.49h86.376zm-85.3-1.079h84.22v-53.328h-84.22z" class="B"/><path d="M291.627 188.729h85.298v10.29h-85.298z" class="C"/><path d="M377.464 199.557h-86.376V188.19h86.376zm-85.3-1.078h84.22v-9.211h-84.22z" class="B"/><path d="M301.284 193.952a2.59 2.59 0 0 1-5.18 0 2.59 2.59 0 0 1 4.422-1.832 2.59 2.59 0 0 1 .758 1.832z" class="E"/><use xlink:href="#D" class="B"/><use xlink:href="#D" x="10.575" class="F"/><path d="M307.553 219.366c.111-5.73 4.787-10.317 10.518-10.318a10.72 10.72 0 0 1 6.621 2.236c.72.554.855 1.587.3 2.307s-1.587.855-2.307.301a7.14 7.14 0 0 0-4.614-1.576 7.59 7.59 0 0 0-5.158 2.063 7.07 7.07 0 0 0-2.093 4.987 6.97 6.97 0 0 0 2.093 4.987 7.59 7.59 0 0 0 5.158 2.063 7.2 7.2 0 0 0 4.614-1.576 1.74 1.74 0 0 1 2.293.315 1.69 1.69 0 0 1-.287 2.293 10.72 10.72 0 0 1-6.621 2.236c-5.739.019-10.427-4.58-10.517-10.318zm27.483 1.805h-4.07a1.57 1.57 0 0 1-1.576-1.577 1.59 1.59 0 0 1 1.576-1.576h4.07v-3.984c-.005-.435.166-.853.473-1.16s.726-.478 1.16-.473a1.63 1.63 0 0 1 1.633 1.633v3.984h4.07a1.59 1.59 0 0 1 1.576 1.576 1.57 1.57 0 0 1-1.576 1.577h-4.07v3.983a1.63 1.63 0 0 1-1.633 1.633c-.435.005-.853-.166-1.16-.473s-.478-.726-.473-1.16zm17.768 0h-4.069a1.57 1.57 0 0 1-1.577-1.577 1.59 1.59 0 0 1 1.577-1.576h4.069v-3.984a1.61 1.61 0 0 1 .473-1.16 1.62 1.62 0 0 1 1.16-.473c.433 0 .849.172 1.155.478s.479.722.479 1.155v3.984h4.069a1.59 1.59 0 0 1 1.577 1.576 1.57 1.57 0 0 1-.461 1.116c-.296.296-.698.462-1.116.461h-4.069v3.983a1.63 1.63 0 0 1-.479 1.155c-.307.306-.722.478-1.155.478s-.853-.166-1.16-.473-.478-.726-.473-1.16z" class="B"/><path d="M194.886 84.18H337.14v116.826H194.886z" class="F"/><path d="M337.679 201.546H194.347v-117.9h143.332zm-142.254-1.079h141.176V84.72H195.425z" class="B"/><path d="M194.886 84.18H337.14v10.29H194.886z" class="C"/><path d="M337.679 95.009H194.347V83.641h143.332zm-142.254-1.074h141.176v-9.211H195.425z" class="B"/><path d="M204.545 89.4a2.59 2.59 0 1 1-5.18 0 2.59 2.59 0 0 1 4.421-1.831 2.59 2.59 0 0 1 .759 1.831z" class="E"/><path d="M215.12 89.4a2.59 2.59 0 1 1-5.18 0 2.59 2.59 0 0 1 4.421-1.831 2.59 2.59 0 0 1 .759 1.831z" class="B"/><path d="M225.695 89.4a2.59 2.59 0 0 1-4.422 1.831 2.59 2.59 0 0 1 1.833-4.421 2.59 2.59 0 0 1 2.589 2.59z" class="F"/><path d="M205.925 114.941h5.502v2.01h-5.502zm9.511 0h63.107v2.01h-63.107z" class="B"/><path d="M281.923 114.941h10.45v2.01h-10.45z" class="C"/><path d="M305.824 141.832h10.45v2.009h-10.45z" class="B"/><path d="M294.645 114.941h18.064v2.01h-18.064z" class="E"/><path d="M211.427 120.319h5.501v2.01h-5.501z" class="B"/><path d="M220.799 120.319h41.415v2.01h-41.415zm58.295 21.513h24.249v2.009h-24.249zm-63.658-5.379h39.557v2.009h-39.557z" class="E"/><path d="M220.799 125.697h27.751v2.01h-27.751z" class="C"/><path d="M288.911 131.075h10.585v2.009h-10.585zm-37.282-5.378h44.316v2.01h-44.316z" class="E"/><path d="M215.436 141.832h52.899v2.009h-52.899zm78.044-21.513h28.668v2.01H293.48z" class="C"/><path d="M264.814 120.319h26.394v2.01h-26.394zm33.214 5.378h17.811v2.01h-17.811zm-86.601 0h5.501v2.01h-5.501z" class="B"/><path d="M205.925 131.075h5.502v2.009h-5.502z" class="E"/><path d="M215.436 131.075h32.514v2.009h-32.514zm5.363 16.135h32.514v2.01h-32.514z" class="B"/><path d="M281.426 152.588h24.719v2.01h-24.719zm-25.474-5.378h32.605v2.01h-32.605z" class="C"/><path d="M250.202 152.588h28.382v2.01h-28.382z" class="B"/><path d="M220.799 152.588h9.414v2.01h-9.414z" class="E"/><path d="M257.232 136.453h35.141v2.009h-35.141z" class="B"/><path d="M294.645 136.453h22.359v2.009h-22.359zm-43.39-5.378h35.099v2.009h-35.099z" class="C"/><path d="M205.925 136.453h5.502v2.009h-5.502zm0 5.379h5.502v2.009h-5.502z" class="B"/><path d="M211.427 147.21h5.501v2.01h-5.501z" class="E"/><path d="M211.427 152.588h5.501v2.01h-5.501zm-5.502 4.504h5.502v2.01h-5.502zm9.511 0h63.107v2.01h-63.107zm-4.009 5.378h5.501v2.01h-5.501z" class="B"/><path d="M220.799 162.47h41.415v2.01h-41.415zm-5.363 16.135h39.557v2.009h-39.557z" class="E"/><path d="M220.799 167.848h27.751v2.01h-27.751z" class="C"/><path d="M251.629 167.848h44.316v2.01h-44.316z" class="E"/><path d="M215.436 183.983h52.899v2.009h-52.899zm78.044-21.513h28.668v2.01H293.48z" class="C"/><path d="M264.814 162.47h26.394v2.01h-26.394zm33.214 5.378h17.811v2.01h-17.811zm-86.601 0h5.501v2.01h-5.501z" class="B"/><path d="M205.925 173.227h5.502v2.009h-5.502z" class="E"/><path d="M215.436 173.227h32.514v2.009h-32.514zm41.796 5.378h35.141v2.009h-35.141z" class="B"/><path d="M251.255 173.227h35.099v2.009h-35.099z" class="C"/><path d="M205.925 178.605h5.502v2.009h-5.502z" class="B"/><path d="M209.323 109.648c.138.135.181.34.108.519s-.246.296-.439.296c-.129.001-.254-.048-.348-.136l-2.122-2.153c-.023-.008-.03-.022-.038-.045-.007-.006-.015-.011-.023-.015a.23.23 0 0 1-.022-.061.04.04 0 0 1-.023-.03c-.007-.015-.007-.038-.015-.046s-.015-.03-.015-.038v-.052c0-.015-.008-.022-.008-.046 0-.008.008-.031.008-.038v-.052c0-.015.015-.023.015-.031s.008-.038.015-.061l.046-.083c0-.008.007-.015.015-.015.01-.021.026-.039.045-.052l2.122-2.153a.49.49 0 0 1 .679 0c.091.09.142.212.142.34s-.051.25-.142.34l-1.789 1.8zm1.924.242l1.85-4.4a.42.42 0 0 1 .551-.219c.099.043.177.123.217.224s.037.213-.006.312l-1.85 4.411a.42.42 0 0 1-.385.249c-.052.001-.103-.009-.151-.03a.41.41 0 0 1-.226-.547zm6.266-1.775a.48.48 0 0 1-.061.06l-2.122 2.153c-.19.181-.489.181-.679 0-.091-.09-.142-.212-.142-.34s.051-.25.142-.34l1.789-1.805-1.789-1.8c-.091-.09-.142-.212-.142-.34s.051-.25.142-.34a.49.49 0 0 1 .679 0l2.122 2.153a.34.34 0 0 1 .053.052l.046.083c.009.022.008.008.008.015.004.024.012.047.022.069 0 .008.007.008.007.023v.052c0 .007.009.03.009.038s-.009.03-.009.038v.06c-.016.037-.023.06-.029.083 0 .008-.008.008-.008.022s-.023.034-.038.064z" class="C"/><path d="M295.253 67.797h58.11V89.31h-58.11z" class="I"/><path d="M303.641 83.017v-9.542c-.003-.237.089-.465.257-.632a.88.88 0 0 1 .632-.257.89.89 0 0 1 .905.889v3.885h4.189v-3.881a.88.88 0 0 1 .257-.633c.168-.168.396-.26.633-.256a.89.89 0 0 1 .906.889v9.542a.89.89 0 0 1-.906.89.88.88 0 0 1-.89-.89V79.14h-4.189v3.881a.89.89 0 0 1-.905.89c-.238.003-.466-.09-.634-.259s-.26-.398-.255-.635zm18.385-8.635h-2.572v8.635a.89.89 0 0 1-1.334.77.89.89 0 0 1-.444-.77v-8.635h-2.555a.9.9 0 0 1-.89-.906.88.88 0 0 1 .257-.633c.168-.168.396-.26.633-.256h6.905c.236-.001.462.093.629.26a.89.89 0 0 1 .26.629.91.91 0 0 1-.889.906zm13.292-.907v9.542c-.012.492-.413.886-.905.89a.89.89 0 0 1-.89-.89v-6.808l-2.329 3.234c-.167.235-.439.374-.728.372h-.033a.91.91 0 0 1-.743-.372l-2.313-3.234v6.808a.9.9 0 1 1-1.8 0v-9.542a.9.9 0 0 1 .89-.889h.048c.284.001.549.14.712.372l3.219 4.464 3.218-4.464c.167-.235.438-.374.727-.372h.017c.492.007.892.398.91.889zm3.916 9.542v-9.542c-.001-.236.093-.462.26-.629a.89.89 0 0 1 .629-.26.9.9 0 0 1 .905.889v8.636h4.383a.9.9 0 0 1 0 1.8h-5.289c-.237 0-.464-.094-.63-.262a.89.89 0 0 1-.258-.632z" class="F"/><path d="M150.2 149.996h47.887v21.513H150.2z" class="I"/><path d="M164.446 161.707h-1.988v3.509a.9.9 0 1 1-1.8 0v-9.542c-.001-.236.093-.463.26-.63s.394-.26.631-.259h2.897a3.46 3.46 0 1 1 0 6.922zm-1.988-1.8h1.988c.605.015 1.17-.299 1.477-.821s.307-1.168 0-1.69-.872-.836-1.477-.821h-1.988zm7.631 5.309v-9.542c-.003-.237.089-.465.257-.632a.88.88 0 0 1 .632-.257.89.89 0 0 1 .906.889v3.882h4.188v-3.882a.88.88 0 0 1 .891-.889.89.89 0 0 1 .906.889v9.542a.89.89 0 0 1-.906.89.88.88 0 0 1-.891-.89v-3.881h-4.183v3.881a.89.89 0 0 1-.906.89.88.88 0 0 1-.636-.255c-.169-.167-.262-.397-.258-.635zm15.254-3.509h-1.99v3.509a.9.9 0 0 1-1.794 0v-9.542c-.001-.236.092-.462.259-.629a.89.89 0 0 1 .629-.26h2.9a3.46 3.46 0 1 1 0 6.922zm-1.99-1.8h1.99c.605.015 1.17-.299 1.477-.821s.307-1.168 0-1.69-.872-.836-1.477-.821h-1.99z" class="F"/><path d="M339.231 148.594l3.634 8.774-3.629 1.5-3.653-8.833-6 4.653v-24.715l17.3 17.479zm-9.645-21.316a3.26 3.26 0 0 1-.22-1.243 3.23 3.23 0 0 1 .22-1.242 3.24 3.24 0 0 1 .22 1.242 3.28 3.28 0 0 1-.22 1.243zm-2.14.886a3.63 3.63 0 0 1-1.758-1.757 3.25 3.25 0 0 1 1.034.724 3.27 3.27 0 0 1 .724 1.033zm-.887 2.141c-.396.153-.818.228-1.243.22a3.25 3.25 0 0 1-1.243-.22c.803-.293 1.683-.293 2.486 0zm.887 2.141a3.3 3.3 0 0 1-.724 1.032c-.294.306-.645.552-1.034.723a3.63 3.63 0 0 1 1.758-1.757zm5.166-2.141c.396-.153.818-.228 1.243-.22a3.25 3.25 0 0 1 1.243.22 3.25 3.25 0 0 1-1.243.22c-.425.008-.847-.067-1.243-.22zm-.886-2.141a3.27 3.27 0 0 1 .724-1.033 3.25 3.25 0 0 1 1.034-.724 3.63 3.63 0 0 1-1.758 1.757z" class="D"/><g class="H"><path d="M394.763 233.259c-6.617 28.818-20.012 65.305-30.362 72.664-8.349 5.939-52.142 16.4-54.583 16.662-6.046.61-17.986-42.1-11.718-43.833 7.9-2.187 45.427-3.354 47.563-5.546 2.215-2.293 15.873-20.788 31.337-42.215 10.671-14.804 21.869-15.613 17.763 2.268z"/><path d="M314.672 320.241c-.72.365-10.946 5.508-17.269 7.34-4.717 1.367-18.4 4.94-20.424-.1-1.383-3.438 6.418-6.486 11.886-8.764 2.88-1.2 6.43-4.216 5.581-6.067-1.484-3.238-8.9.014-13.776 2.848-9.429 5.479-21.991 15.341-27.751 10.557-2.175-1.808.353-5.1 4.052-8.331-6 3.764-12.4 6.85-14.9 4.937-1.433-1.089-1.5-2.585-.7-4.293-1.853.6-3.491.485-4.632-.723-1.952-2.041-1-5.055 1.135-8.144-.743-.081-1.403-.514-1.772-1.164-4.131-6.3 16.545-24.384 23.7-26.076 21.039-5 43.421-3.178 43.421-3.178 8.258 6.598 11.465 41.141 11.449 41.158z"/></g><path d="M283.734 300.872a35.71 35.71 0 0 0-14.033 5.4c-5.333 3.52-8.871 7.641-13.347 11.79-.118.109.048.3.166.186 2.133-1.973 10.968-9.388 13.251-11.074 4.128-3.108 8.909-5.235 13.982-6.219.055-.007.036-.091-.019-.083zm-3.921-8.926c-5.529 1.511-11.195 3.04-16.327 5.655-5.616 2.862-10.011 7.528-14.334 12.019q-3.892 4.045-7.6 8.26c-.1.118.055.3.167.185q6.578-6.957 13.568-13.513a44.98 44.98 0 0 1 14.891-9.385c3.165-1.206 6.415-2.167 9.66-3.125.059-.017.038-.114-.025-.096zm-5.906-7.811c-5.372 1.1-10.059 2.046-14.817 4.925-6.3 3.812-12.378 10.234-14.51 12.51-2.357 2.515-4.626 5.106-6.857 7.732-.091.106.093.267.187.161a178.36 178.36 0 0 1 16.389-16.23c2.728-2.448 5.819-4.458 9.163-5.959 3.389-1.329 6.886-2.366 10.452-3.1.011-.002.018-.012.016-.023s-.012-.018-.023-.016z" class="D"/><path d="M345.986 269.005l40.366-1.713s7.33-20 10.026-37.758-12.428-11.381-27.415 7.741-22.977 31.73-22.977 31.73z" class="C"/><path d="M359.195 256.939c.275-.076.549-.109.823-.166.486-.108.994.01 1.383.321s.615.781.617 1.279a1.29 1.29 0 0 0 .589 1.105c.205.129.437.207.678.228l.823.166c-.274.076-.548.11-.823.167a1.61 1.61 0 0 1-.918-.088 1.7 1.7 0 0 1-1.028-1.566 1.27 1.27 0 0 0-.625-1.072 1.61 1.61 0 0 0-.693-.209l-.826-.165zm28.4-24.521c.244.016.481.088.693.209a1.27 1.27 0 0 1 .625 1.072c-.003.681.402 1.298 1.028 1.566a1.61 1.61 0 0 0 .918.088l.823-.167c-.275-.077-.548-.111-.823-.166a1.51 1.51 0 0 1-.678-.228 1.29 1.29 0 0 1-.589-1.105c-.002-.498-.229-.967-.617-1.278s-.897-.429-1.383-.322l-.823.166c.277.075.551.109.825.165zm1.024 15.726c-.184.161-.402.278-.638.342a1.27 1.27 0 0 1-1.2-.316c-.479-.484-1.203-.634-1.835-.38-.289.122-.536.326-.711.586l-.464.7c.249-.139.466-.31.7-.464a1.5 1.5 0 0 1 .641-.318 1.29 1.29 0 0 1 1.2.365c.353.35.845.522 1.338.468s.937-.329 1.205-.748l.465-.7c-.251.14-.467.31-.702.464zm-10.966-18.347a1.69 1.69 0 0 1-.644.343 1.29 1.29 0 0 1-1.2-.318c-.068-.068-.139-.131-.215-.189l-.472.5a1.08 1.08 0 0 1 .223.18c.493.479 1.228.608 1.854.326.282-.134.52-.345.687-.609l.463-.7c-.251.14-.465.312-.697.466zm-4.565 15.116c-.016.244-.088.481-.209.693a1.27 1.27 0 0 1-1.072.625c-.681-.003-1.298.402-1.566 1.028a1.61 1.61 0 0 0-.088.917l.167.823c.077-.275.11-.548.167-.823a1.49 1.49 0 0 1 .228-.678c.242-.374.66-.597 1.105-.589.498-.002.967-.229 1.278-.617s.429-.897.322-1.383l-.166-.823c-.078.278-.112.552-.167.827zm11.555 15.37c-.017.244-.088.481-.21.693a1.27 1.27 0 0 1-1.072.625c-.681-.004-1.298.401-1.566 1.028a1.61 1.61 0 0 0-.088.918l.167.823c.077-.275.11-.549.167-.823a1.49 1.49 0 0 1 .228-.678c.242-.375.66-.598 1.106-.589.498-.001.968-.228 1.279-.617s.429-.897.321-1.383l-.166-.823c-.078.279-.11.553-.166.826z" class="F"/><path d="M387.728 258.531c-8.73-.222-17.488.165-26.215.724q-3.7.238-7.4.649c-.069.008-.077.11 0 .11 4.362.02 8.723-.139 13.086-.273l13.123-.561 7.4-.483c.106-.008.115-.163.006-.166z" class="D"/><path d="M357.309 333.513h103.027c1.136-2.082-15.75-92.328-50.5-117.739-7.709-5.638-21.385-2.012-25.189 3.47-19.115 27.553-27.338 114.269-27.338 114.269z" fill="#ffe76f"/><path d="M401.005 256.937c.274-.076.548-.109.822-.166.486-.108.994.01 1.383.321s.615.781.617 1.279a1.29 1.29 0 0 0 .589 1.105c.205.129.438.207.679.228l.822.167c-.274.076-.548.11-.822.167a1.61 1.61 0 0 1-.918-.088 1.7 1.7 0 0 1-1.029-1.566 1.27 1.27 0 0 0-.624-1.072c-.212-.121-.449-.193-.693-.209l-.826-.166zm16.005 54.475a1.6 1.6 0 0 1 .693.209 1.27 1.27 0 0 1 .625 1.072 1.7 1.7 0 0 0 1.029 1.566c.291.118.609.149.917.089l.823-.167c-.274-.076-.548-.11-.823-.166a1.5 1.5 0 0 1-.678-.228c-.374-.242-.597-.66-.588-1.105-.002-.498-.229-.967-.617-1.278s-.897-.429-1.383-.322l-.823.166c.277.076.552.108.826.165zm18.9-51.374a1.59 1.59 0 0 1 .693.209 1.27 1.27 0 0 1 .625 1.072 1.69 1.69 0 0 0 1.028 1.566 1.61 1.61 0 0 0 .918.088l.823-.166c-.275-.077-.549-.11-.823-.166a1.49 1.49 0 0 1-.678-.228c-.375-.241-.597-.66-.589-1.105-.001-.498-.228-.968-.617-1.279s-.897-.429-1.383-.321l-.823.166c.276.075.551.108.826.164zm-48.315-27.622c.244.016.481.088.693.209a1.27 1.27 0 0 1 .625 1.072c-.003.681.402 1.298 1.028 1.566a1.61 1.61 0 0 0 .917.088l.823-.166c-.275-.077-.548-.111-.823-.166a1.51 1.51 0 0 1-.678-.228c-.374-.242-.597-.66-.589-1.105-.002-.498-.229-.967-.617-1.278s-.897-.429-1.383-.322l-.823.166c.278.075.552.109.826.165zm29.739-.622a1.59 1.59 0 0 1 .693.209c.381.224.618.629.625 1.071a1.7 1.7 0 0 0 1.028 1.567c.291.118.61.148.918.088l.823-.167c-.275-.077-.548-.11-.823-.166-.241-.02-.474-.098-.678-.228-.375-.241-.598-.659-.589-1.105-.002-.498-.229-.967-.617-1.278s-.897-.429-1.383-.322l-.823.166c.277.076.551.109.825.164zm-37.039 48.032c.244.016.481.088.693.209a1.27 1.27 0 0 1 .625 1.072c-.004.681.401 1.298 1.028 1.566a1.61 1.61 0 0 0 .918.088l.823-.167c-.275-.077-.548-.111-.823-.167-.241-.021-.473-.099-.678-.228-.375-.242-.598-.66-.589-1.106-.002-.498-.229-.967-.617-1.278s-.897-.429-1.383-.322l-.823.166c.277.078.551.112.825.168zm32.43 49.767a1.6 1.6 0 0 1 .693.209 1.27 1.27 0 0 1 .626 1.072c-.004.681.401 1.298 1.028 1.566.291.118.609.149.917.088l.822-.166c-.274-.077-.548-.111-.822-.167a1.5 1.5 0 0 1-.679-.228c-.373-.241-.595-.656-.588-1.1-.002-.498-.229-.967-.617-1.278s-.897-.429-1.383-.322l-.822.166.825.16zm-15.968-26.739c.244.016.481.088.693.209a1.27 1.27 0 0 1 .625 1.072 1.69 1.69 0 0 0 1.028 1.558 1.61 1.61 0 0 0 .918.088l.823-.167c-.275-.077-.548-.111-.823-.167a1.51 1.51 0 0 1-.679-.228 1.29 1.29 0 0 1-.588-1.105c-.002-.498-.229-.967-.617-1.278s-.897-.429-1.383-.322l-.823.166c.277.081.554.113.826.17zm-36.564 27.41c-.241-.022-.474-.102-.678-.232-.378-.239-.6-.66-.584-1.107a1.67 1.67 0 0 0-.978-1.485l-.069.635c.235.227.365.541.361.867a1.7 1.7 0 0 0 1.03 1.562c.29.123.61.156.918.094l.824-.172c-.274-.081-.549-.115-.823-.167zm7.023-22.551a1.6 1.6 0 0 1 .693.21 1.27 1.27 0 0 1 .625 1.072 1.7 1.7 0 0 0 1.029 1.566 1.6 1.6 0 0 0 .918.088l.822-.167c-.274-.076-.548-.11-.822-.166-.241-.021-.474-.099-.679-.229-.373-.241-.595-.656-.588-1.1-.002-.498-.229-.967-.617-1.278s-.897-.429-1.383-.322l-.823.166.826.155zm43.138-27.227c.244.016.481.088.693.209a1.27 1.27 0 0 1 .625 1.072c-.004.681.401 1.298 1.028 1.566a1.61 1.61 0 0 0 .917.088l.823-.167c-.275-.077-.548-.111-.823-.167a1.5 1.5 0 0 1-.678-.229c-.373-.24-.596-.656-.589-1.1-.002-.498-.229-.967-.617-1.278s-.897-.429-1.383-.322l-.823.166c.279.069.558.102.828.157zm37.776 36.61a1.61 1.61 0 0 1 .693.209 1.27 1.27 0 0 1 .625 1.072 1.7 1.7 0 0 0 1.029 1.566c.291.118.609.149.917.088l.823-.166c-.274-.077-.548-.111-.823-.167-.241-.021-.474-.099-.678-.229-.373-.241-.595-.656-.589-1.1-.002-.498-.229-.967-.617-1.278s-.897-.429-1.383-.322l-.823.166.828.158zm-15-22.348c.244.016.481.088.694.209a1.27 1.27 0 0 1 .624 1.072 1.7 1.7 0 0 0 1.037 1.564 1.61 1.61 0 0 0 .918.088l.823-.166c-.275-.077-.549-.111-.823-.167a1.51 1.51 0 0 1-.679-.229c-.373-.241-.595-.656-.588-1.1-.002-.498-.229-.967-.617-1.278s-.897-.429-1.383-.322l-.822.166c.271.069.548.102.822.158zm-44.517-46.6c-.184.161-.402.278-.638.342a1.27 1.27 0 0 1-1.2-.316c-.479-.484-1.203-.634-1.835-.38-.289.122-.536.326-.711.586l-.464.7c.249-.139.466-.31.7-.464a1.5 1.5 0 0 1 .641-.318c.436-.095.89.043 1.2.365.353.35.845.522 1.338.468s.937-.329 1.205-.748l.465-.7c-.244.135-.462.305-.696.459zm44.389 31.94c-.184.161-.402.278-.638.342a1.27 1.27 0 0 1-1.2-.317c-.48-.484-1.203-.634-1.835-.38-.289.122-.537.326-.712.586l-.463.7c.248-.14.465-.311.7-.464a1.5 1.5 0 0 1 .641-.318c.436-.095.891.044 1.2.366.353.35.845.522 1.339.467s.937-.33 1.205-.748l.464-.7c-.245.136-.462.306-.695.46zm-27.7-59.467c-.184.161-.402.278-.638.342a1.27 1.27 0 0 1-1.2-.316 1.69 1.69 0 0 0-1.834-.38 1.6 1.6 0 0 0-.712.586l-.464.7c.249-.139.466-.31.7-.464a1.5 1.5 0 0 1 .641-.318c.436-.095.89.043 1.2.365.352.35.844.523 1.338.468s.937-.329 1.205-.748l.465-.7c-.245.137-.463.305-.697.459zm-.545 17.614a1.59 1.59 0 0 1-.209.693 1.27 1.27 0 0 1-1.072.625c-.681-.003-1.298.402-1.566 1.028-.118.291-.149.61-.088.918l.167.823c.077-.275.11-.549.166-.823a1.49 1.49 0 0 1 .228-.678c.241-.375.659-.598 1.105-.589.498-.002.967-.229 1.278-.617s.429-.897.322-1.383l-.166-.823c-.072.271-.104.545-.161.82zm-6.534 48.258c-.016.244-.088.481-.209.693a1.27 1.27 0 0 1-1.072.625 1.69 1.69 0 0 0-1.566 1.028 1.61 1.61 0 0 0-.088.918l.167.823c.077-.275.111-.548.166-.823a1.51 1.51 0 0 1 .228-.678c.242-.374.66-.597 1.105-.589.498-.002.967-.229 1.278-.617s.429-.897.322-1.383l-.166-.823c-.076.275-.109.549-.165.826zm34.248-42.044a.7.7 0 0 1-.137.009 1.69 1.69 0 0 0-1.571 1.03c-.117.291-.146.61-.086.918l.163.824c.077-.275.112-.549.172-.824.018-.241.094-.474.223-.678a1.3 1.3 0 0 1 1.107-.592 1.32 1.32 0 0 0 .446-.077l-.317-.612zm-.236 77.953c-.016.244-.088.481-.209.694a1.27 1.27 0 0 1-1.072.625 1.69 1.69 0 0 0-1.566 1.028 1.61 1.61 0 0 0-.088.918l.167.823c.077-.275.111-.549.167-.823a1.52 1.52 0 0 1 .228-.679 1.29 1.29 0 0 1 1.105-.588c.498-.002.967-.229 1.278-.617s.429-.897.322-1.383l-.166-.822c-.077.273-.11.548-.166.822zm14.733-43.75c-.008.025-.019.048-.034.069a1.25 1.25 0 0 1-1.073.627 1.7 1.7 0 0 0-1.562 1.03c-.123.29-.156.61-.094.918l.172.824c.077-.275.112-.549.163-.824.022-.241.102-.474.232-.678.241-.377.66-.601 1.107-.592a1.7 1.7 0 0 0 1.322-.678v-.009l-.233-.689zm-75.349 9.567c-.016.244-.088.481-.209.693a1.27 1.27 0 0 1-1.072.625c-.681-.004-1.298.401-1.566 1.028a1.61 1.61 0 0 0-.088.918l.166.823c.077-.275.111-.549.167-.823.021-.241.099-.473.228-.678.242-.374.66-.597 1.105-.589.498-.002.967-.229 1.278-.617s.429-.897.322-1.383l-.166-.823c-.076.275-.11.55-.165.824zm1.81-43.247l-.438 1.433c.164-.162.29-.359.369-.575a1.75 1.75 0 0 0 .069-.86zm15.456-28.21a1.6 1.6 0 0 1-.21.693c-.224.381-.629.618-1.071.625a1.69 1.69 0 0 0-1.566 1.028 1.61 1.61 0 0 0-.088.918l.167.823c.077-.275.11-.548.166-.823a1.49 1.49 0 0 1 .228-.678c.241-.375.659-.598 1.105-.589.498-.002.967-.229 1.278-.617s.429-.897.322-1.383l-.166-.823c-.078.278-.111.552-.165.826zm-4.241 43.522c-.016.244-.088.481-.209.693a1.27 1.27 0 0 1-1.072.625 1.69 1.69 0 0 0-1.566 1.028 1.61 1.61 0 0 0-.088.918l.167.823c.077-.275.11-.549.167-.823a1.49 1.49 0 0 1 .228-.678c.241-.375.66-.597 1.105-.589.498-.001.968-.228 1.279-.617s.429-.897.321-1.383l-.166-.823c-.079.277-.112.551-.167.826zm38.079 5.85c-.016.244-.088.481-.209.693a1.27 1.27 0 0 1-1.072.625c-.681-.004-1.298.401-1.566 1.028a1.61 1.61 0 0 0-.088.917l.167.823c.077-.275.11-.549.166-.823a1.5 1.5 0 0 1 .228-.678c.241-.375.66-.597 1.105-.589.498-.001.968-.228 1.279-.617s.429-.897.321-1.383l-.165-.823c-.079.278-.111.552-.167.827zm-35.195 48.871a1.61 1.61 0 0 1-.209.693 1.27 1.27 0 0 1-1.072.625 1.7 1.7 0 0 0-1.566 1.028 1.61 1.61 0 0 0-.088.917l.167.823c.077-.274.111-.548.166-.823.021-.241.099-.473.228-.678a1.29 1.29 0 0 1 1.106-.589c.498-.002.968-.228 1.279-.617s.429-.897.321-1.383l-.166-.823c-.078.278-.109.553-.167.827zm29.533-63.973a1.59 1.59 0 0 1 .639-.342c.428-.111.882.009 1.2.316.48.484 1.203.634 1.835.38.289-.122.537-.326.712-.586l.463-.7c-.248.139-.465.31-.7.464a1.5 1.5 0 0 1-.641.318c-.436.095-.891-.043-1.2-.365-.353-.351-.845-.523-1.339-.468s-.937.329-1.205.748l-.464.7c.249-.141.466-.311.7-.466zm-22.214 20.12a1.61 1.61 0 0 1 .638-.342 1.27 1.27 0 0 1 1.2.317c.48.484 1.203.634 1.835.38a1.61 1.61 0 0 0 .711-.586l.464-.7c-.248.139-.466.31-.7.463a1.49 1.49 0 0 1-.641.318c-.436.094-.891-.044-1.2-.366-.353-.35-.845-.522-1.339-.467s-.937.33-1.204.748l-.464.7c.249-.141.466-.311.7-.465zm-15.049 29.641c.184-.161.402-.278.638-.342a1.27 1.27 0 0 1 1.2.317 1.7 1.7 0 0 0 1.835.38 1.6 1.6 0 0 0 .711-.587l.464-.7c-.248.14-.466.311-.7.464a1.5 1.5 0 0 1-.641.318c-.436.095-.891-.044-1.2-.366-.353-.35-.845-.522-1.339-.467s-.937.33-1.205.748l-.464.7c.251-.14.468-.311.701-.465zm6.505 30.8c.184-.161.402-.278.638-.342a1.27 1.27 0 0 1 1.2.316 1.7 1.7 0 0 0 1.835.381c.289-.122.536-.326.711-.586l.464-.7c-.248.14-.466.311-.7.464a1.5 1.5 0 0 1-.641.318c-.436.095-.891-.044-1.2-.366-.353-.35-.845-.521-1.339-.467s-.937.329-1.205.747l-.464.7c.251-.14.468-.311.701-.465zm29.119-33.847a1.6 1.6 0 0 1 .639-.342c.428-.111.882.009 1.2.316a1.7 1.7 0 0 0 1.835.381 1.61 1.61 0 0 0 .711-.587l.464-.7c-.248.14-.465.31-.7.464a1.5 1.5 0 0 1-.641.318c-.436.094-.891-.044-1.2-.366-.353-.35-.845-.521-1.338-.467s-.936.329-1.205.747l-.465.7c.25-.139.463-.31.701-.465zm20.044 12.268c.184-.161.402-.278.638-.342a1.27 1.27 0 0 1 1.2.316c.48.484 1.203.634 1.835.38a1.61 1.61 0 0 0 .711-.586l.464-.7c-.248.139-.466.31-.7.464a1.5 1.5 0 0 1-.641.318 1.29 1.29 0 0 1-1.2-.365c-.353-.35-.845-.521-1.338-.467s-.936.329-1.205.747l-.464.7c.25-.142.467-.312.701-.466zm-33.715 9.312a1.61 1.61 0 0 1 .638-.342 1.27 1.27 0 0 1 1.2.316c.479.484 1.203.634 1.835.38.289-.122.536-.326.711-.586l.464-.7c-.249.139-.466.31-.7.464-.185.156-.405.266-.641.318a1.29 1.29 0 0 1-1.2-.365c-.353-.35-.845-.521-1.338-.467s-.936.329-1.205.747l-.465.7c.25-.141.467-.312.702-.466zm43.484 12.267c.184-.161.402-.278.638-.342a1.27 1.27 0 0 1 1.2.317c.479.484 1.202.634 1.834.38a1.61 1.61 0 0 0 .712-.586l.464-.7c-.249.14-.466.311-.7.464a1.5 1.5 0 0 1-.641.318 1.29 1.29 0 0 1-1.2-.366c-.353-.35-.845-.522-1.339-.467s-.937.33-1.204.748l-.465.7c.251-.141.467-.312.701-.466zm7.758-33.339a1.26 1.26 0 0 1-.541-.326c-.353-.348-.845-.518-1.337-.463s-.934.329-1.203.746l-.464.7c.249-.137.464-.309.7-.464.185-.158.401-.275.635-.343.428-.107.881.013 1.2.318a1.7 1.7 0 0 0 1.193.506zm-82.268 25.313a1.61 1.61 0 0 1 .639-.342 1.27 1.27 0 0 1 1.2.316 1.69 1.69 0 0 0 1.834.38c.29-.122.537-.325.712-.586l.464-.7c-.249.139-.466.31-.7.464a1.5 1.5 0 0 1-.641.318c-.436.095-.89-.043-1.2-.365-.353-.35-.845-.521-1.338-.467s-.936.329-1.205.747l-.465.7c.25-.139.467-.31.7-.465zm-2.483-51.718a1.61 1.61 0 0 1 .639-.342c.428-.111.882.009 1.2.316.479.484 1.203.634 1.835.38a1.61 1.61 0 0 0 .712-.586l.463-.7c-.248.14-.465.31-.7.464-.185.157-.405.266-.641.318-.436.095-.89-.043-1.2-.365-.353-.35-.845-.521-1.338-.467s-.936.329-1.205.747l-.465.7c.249-.139.467-.31.7-.464z" class="F"/><path d="M373.68 243.25q-1.421 5.138-2.747 10.292l.472-4.487c.011-.088-.124-.126-.142-.034-.369 1.852-.575 3.733-.615 5.621-1.057 4.146-2.059 8.3-2.981 12.486-1.765 8.016-3.334 16.088-4.634 24.187l-2.082 13.722c-.015.085.119.118.135.033.717-4.043 1.669-8.065 2.549-12.077q1.313-5.981 2.552-11.977l5.083-24.091 2.736-13.6c.021-.09-.035-.18-.126-.2s-.18.035-.2.126z" class="D"/><path d="M369.657 189.789c1.142 6.25-2.377 12.129-7.86 13.131s-10.855-3.252-12-9.5 2.378-12.129 7.86-13.131 10.855 3.25 12 9.5z" class="G"/><path d="M372.943 189.596c1.271 6.953-2.643 13.493-8.744 14.608s-12.075-3.618-13.346-10.571 2.644-13.494 8.744-14.609 12.075 3.619 13.346 10.572z" fill="#c7c7c7"/><path d="M390.338 238.65c6.214-.036 14.122-11.463 16.341-19.707.149-.566-6.764-20.021-7.733-24.018-.195-.822-23.594 12.172-23.594 12.172s4.5 7.782 6.145 14.761c.131.586 2.835 16.823 8.841 16.792z" class="H"/><path d="M384.362 223.337a14.13 14.13 0 0 1-2.481.455l-.249-1.219c0-.015-.003-.03-.009-.043-.001-.038-.007-.075-.017-.112l-.077-.378c-.002-.026-.007-.052-.017-.077l-.026-.1a41.6 41.6 0 0 0-1.408-4.6c-1.093-2.914-2.372-5.755-3.828-8.506q-.18-.348-.335-.618l-.549-1.013c-.017-.009-.017-.017-.017-.017h.009a19.99 19.99 0 0 1 .618-.352l.824-.455c.013 0 .026-.007.034-.017l.549-.3.678-.378.627-.343a1.92 1.92 0 0 0 .12-.069l.815-.446.189-.1.815-.446.429-.232 1.322-.721 1.013-.549.858-.464 2.935-1.579.944-.515 3.39-1.785.729-.378.481-.249.575-.3 1.236-.627.755-.378 1.038-.506.472-.223 1.15-.515.206-.086v.009c.295 6.763-.245 24.607-13.798 28.232z" class="D"/><path d="M391.925 164.808c5.54 7.8 9.313 34.393 5 42.04-6.248 11.085-20.639 16.743-31.109 8.281-10.149-8.2-14.452-42.951-9.251-50.328 7.666-10.866 27.175-11.508 35.36.007z" class="H"/><g class="D"><path d="M372.088 188.285c0-.07.152.064.16.138.206 1.8.745 3.824 2.452 4.18.052.011.061.1 0 .1-2.018.015-2.706-2.681-2.612-4.418z"/><path d="M373.411 186.181c2.848-.641 3.921 5.1 1.283 5.695-2.596.584-3.669-5.161-1.283-5.695zm-11.097 4.209c-.026-.066-.124.11-.107.182.389 1.768.536 3.858-.962 4.75-.046.027-.025.117.033.1 1.912-.647 1.689-3.421 1.036-5.032z"/><path d="M360.378 188.828c-2.9.318-2.052 6.1.635 5.8 2.646-.287 1.797-6.067-.635-5.8zm14.808-5.697a22.7 22.7 0 0 1-2.37-.368 3.88 3.88 0 0 1-2.346-.835c-.365-.426-.398-1.044-.08-1.506.76-.811 1.9-1.147 2.978-.878a4.5 4.5 0 0 1 2.906 1.437 1.32 1.32 0 0 1-1.088 2.15zm-17.568 3.221a22.65 22.65 0 0 0 2.172-1.019 3.88 3.88 0 0 0 2.016-1.461c.232-.512.089-1.115-.347-1.469-.956-.563-2.142-.565-3.1-.006a4.5 4.5 0 0 0-2.386 2.2 1.32 1.32 0 0 0 1.645 1.755zm19.67 18.02c-.349.5-.666 1.149-1.3 1.324a4.78 4.78 0 0 1-2-.09c-.028-.007-.057.005-.071.03s-.01.056.011.076c.651.616 1.587.825 2.438.543.704-.333 1.138-1.056 1.1-1.834.015-.111-.126-.121-.178-.049zm-2.867-4.975c-.646 1.594-1.929 2.845-3.538 3.45a7.72 7.72 0 0 1-2.16.507 2.25 2.25 0 0 1-.425.03l-.4.013a.45.45 0 0 1-.431-.331v-.014a.88.88 0 0 1-.017-.185v-.014l-.026-.156c-.293-1.363-.549-3.47-.549-3.47-.454.344-2.79 1.969-2.884 1.245-.754-5.988-1.592-12.648-1.077-18.767.007-.084.075-.15.16-.154s.159.056.173.139c.953 5.727.891 11.583 1.756 17.35a10.79 10.79 0 0 1 2.7-1.4c.205.02.423 4.082.6 4.683a.24.24 0 0 0 .024.063c2.356-.136 3.96-1.155 5.905-3.118.107-.126.27-.032.189.129z"/><path d="M369.402 202.51a7.31 7.31 0 0 0 3.293 1.692 3.29 3.29 0 0 0 1.986-.245c1.35-.639 1.142-1.949.673-3.015-.255-.565-.575-1.099-.955-1.589-1.286 1.559-3.037 2.665-4.997 3.157z"/></g><path d="M372.695 204.202a3.29 3.29 0 0 0 1.986-.245c1.35-.639 1.142-1.949.673-3.015-1.492.44-2.806 1.756-2.659 3.26z" fill="#ff99ba"/><g class="D"><path d="M390.927 175.973c1.768 2.242 5.636 7.609 6.948 7.677-1.356-8.658-3.568-16.221-7.017-20.241a17.83 17.83 0 0 0-5.066-4.092c.493 2.279 3.261 14.309 5.135 16.656z" opacity=".2"/><path d="M365.127 170.707c2.18 2.037 5.259 2.801 8.138 2.02 2.939-.791 5.259-3.047 6.132-5.963.009-.037.046-.06.084-.051s.06.046.05.083a8.7 8.7 0 0 1-6.068 6.6 8.87 8.87 0 0 1-8.482-2.537c-.092-.098.045-.247.146-.153zm6.474-22.111c4.969-.45 9.828 1.781 12.02 4.953 1.225 1.805 1.803 3.972 1.639 6.148 0 .088-.183.089-.185 0a10.6 10.6 0 0 0-6.041-8.961 13.67 13.67 0 0 0-12.172-.09 8.65 8.65 0 0 0-4.2 4.224c-.076.19-.461.115-.4-.077.997-3.244 4.843-5.79 9.339-6.197zm-27.577 13.988a11 11 0 0 1 4-6.4c2.829-2.225 6.3-2.335 9.749-2.372.037.004.064.035.064.072s-.028.068-.064.072c-2.937.042-5.914.257-8.431 1.923-2.084 1.367-3.631 3.412-4.381 5.789a10.54 10.54 0 0 0 5.8 12.518 10.7 10.7 0 0 0 8.486-.091c.1-.046.2.1.1.154-3.66 1.799-8.023 1.375-11.268-1.096a10.76 10.76 0 0 1-4.054-10.57z"/><path d="M394.698 170.491s3.668-9.41-.865-14.08c-2.569-2.647-9.918-1.4-9.918-1.4-2.318-2.707-5.617-4.382-9.171-4.655-6.356-.69-13.289 3.787-13.289 3.787s-6.273-2.675-11.409 1.118c-7.162 5.287-4.831 16.868 3.338 19.72 5.735 2 12.539-3.664 12.539-3.664.72.013 8.488 3.534 13.212-3.582 0 0 4.922 3.438 8.6.192a6.5 6.5 0 0 0 6.963 2.564z"/></g><g class="C"><path d="M375.859 196.084c-4.266.254-7.934-2.992-8.2-7.257h0a7.75 7.75 0 1 1 8.2 7.258zm-7.169-7.32c.177 2.859 2.15 5.29 4.911 6.051s5.702-.316 7.318-2.681 1.552-5.495-.16-7.792-4.694-3.252-7.422-2.379a6.72 6.72 0 0 0-4.648 6.8zm-8.889 10.42c-3.119.61-6.324-2.3-7.146-6.492a9.25 9.25 0 0 1 .564-5.628c.58-1.587 1.947-2.756 3.605-3.08a4.83 4.83 0 0 1 4.501 1.493 9.24 9.24 0 0 1 2.647 5c.776 3.965-.857 7.677-3.679 8.581a4.48 4.48 0 0 1-.492.126zm-5.642-11.684a8.22 8.22 0 0 0-.487 4.994c.712 3.629 3.372 6.175 5.932 5.673s4.063-3.862 3.353-7.493c-.297-1.687-1.114-3.239-2.336-4.44a4.13 4.13 0 0 0-3.6-1.233 3.2 3.2 0 0 0-.38.1 4.27 4.27 0 0 0-2.483 2.397z"/><path d="M368.084 189.656l.5-.906c-1.341-.742-4.262-1.522-5.729.828l.878.548c1.311-2.106 4.232-.536 4.351-.47zm34.246-4.678l.811-.644c-.3-.378-3-3.693-5.34-3.617-2.188.077-15.557 4.021-16.125 4.189l.294.993c3.832-1.136 14.174-4.093 15.864-4.147 1.546-.05 3.769 2.312 4.496 3.226z"/></g><path d="M393.376 187.026s3.167-9.935 7.5-9.053 3.725 14.045-.118 17.016a4.63 4.63 0 0 1-6.662-.533z" class="H"/><path d="M400.61 181.74c.068-.027.112.066.059.109-2.664 2.183-3.389 5.509-3.6 8.788.556-1.409 1.6-2.412 3.444-1.8.1.033.059.18-.032.189a2.85 2.85 0 0 0-2.7 1.88c-.329.929-.557 1.89-.68 2.867-.058.317-.6.324-.59-.022v-.078c-1.28-3.864.049-10.242 4.099-11.933z" class="D"/><g fill="#c7c7c7"><path d="M398.167 179.504s-.617-13.889-5.5-21.042c-5.44-7.963-20.459-13.3-31.21-4.319 0 0 15.61-4.055 25.827 5.535 4.7 4.411 6.325 20.707 6.325 20.707z"/><ellipse cx="11.228" cy="12.798" rx="11.228" ry="12.798" transform="matrix(.994895 -.100917 .100917 .994895 384.741 175.179)"/></g><path d="M389.246 187.183c.641 6.321 5.657 10.99 11.2 10.427s9.522-6.143 8.881-12.464-5.657-10.99-11.2-10.427-9.522 6.142-8.881 12.464z" class="G"/><g class="H"><path d="M423.024 224.686c16.635 17.817 56.206 84.676 43.377 97.005-12.921 12.416-84.03-4.267-104.029-13.795-5.949-2.834 16.658-39.925 23.65-40.792 5.821-.721 35.584 12.893 36.445 11.18.972-1.934-5.788-14.353-12.947-40.21-8.257-29.81 6.156-21.254 13.504-13.388zm-66.56 30.452c-14.459-2.015-18.48-.312-29.781-8.492-7.415-5.368-14.025-2.936-9.794 5.593 6.92 13.95 25.029 20.466 31.958 20.917z"/><path d="M394.871 269.057s-16.247-9.022-31.443-12.693c-10.509-2.538-33.988-5.511-56.451 17.654-5.328 5.495-9.024 17.1 2.938 11.289 8.5-4.129 12.637-9.315 18.017-10.817 0 0-2.948 15.323 2.765 20.446a141.3 141.3 0 0 0 15.883 12.323 29.7 29.7 0 0 0 2.572-2.766c0 0 5.788 4.282 16.685 3.244z"/><path d="M353.011 255.543c-5.025 2.62-15.58 8.351-22.584 16.042-7.78 8.543-20.464 27.1-14.1 32.775 4.667 4.164 10.133-2.494 10.133-2.494s-3.626 8.773 1.413 11.613c4.592 2.586 8.512-2.818 8.512-2.818s-1.285 5.7 3.618 7.34c5.9 1.972 7.623-10.3 15.321-13.462 1.732-.71-2.313-48.996-2.313-48.996z"/></g><g class="D"><path d="M340.825 278.3c-4.322 3.238-12.248 13.112-14.441 23.339-.049.232.1.393.189.191a113.43 113.43 0 0 1 14.333-23.457c.04-.049-.033-.109-.081-.073zm8.397 8.104c-3.441 3.177-11.157 13.719-13.023 24.159-.042.233.118.385.2.18a121.53 121.53 0 0 1 12.908-24.27c.037-.052-.04-.111-.085-.069zm-21.294-12.01c-4.711 1.387-7.776 3.7-11.754 6.46-1.951 1.393-3.977 2.676-6.07 3.844-1.92 1.038-4.751 2.607-6.8.981-1.137-.9-1.121-2.551-.868-3.849a10.4 10.4 0 0 1 1.707-4.07c.044-.062-.063-.14-.107-.079a13.98 13.98 0 0 0-1.949 3.483 6.28 6.28 0 0 0-.426 3.678c.693 2.6 3.757 2.94 5.927 2.226a20.55 20.55 0 0 0 3.709-1.8 55.11 55.11 0 0 0 3.344-2.1c2.24-1.513 4.39-3.154 6.612-4.693a61.4 61.4 0 0 1 6.741-3.926c.094-.045.028-.182-.066-.155z"/><path d="M318.061 290.973c1.219-2.686 7.822-13.877 9.964-16.467.026-.028.024-.071-.004-.096s-.071-.024-.096.004c-3.673 3.482-9.575 12.729-10.951 15.692-1.359 2.928-2.925 6.67-2.925 9.934 0 4.923 3.265 5.856 4.473 6.1a6.38 6.38 0 0 0 4.189-.686 12.85 12.85 0 0 0 3.8-3.569c.052-.067-.039-.159-.1-.093-1.705 1.939-4.54 3.854-7.216 3.5-1.194-.117-2.291-.709-3.044-1.643-.73-1.184-1.009-2.592-.787-3.965a26.9 26.9 0 0 1 2.697-8.71z"/><path d="M336.199 310.562c-.685.586-2.1 2.628-4.34 3.064-1.615.439-3.343.053-4.618-1.031a6.4 6.4 0 0 1-1.772-4.478c.186-2.09.53-4.163 1.031-6.2.026-.1-.095-.139-.124-.049-.824 2.135-1.323 4.382-1.479 6.666-.066 1.824.615 3.597 1.885 4.908 1.378 1.297 3.368 1.712 5.15 1.072.877-.328 3.648-2.1 4.453-3.855.02-.037-.153-.122-.186-.097z"/><path d="M354.861 303.656a11.94 11.94 0 0 0-2.086 1.76l-2.009 2.061a27.89 27.89 0 0 0-3.406 4.667c-.995 1.67-1.911 3.531-3.533 4.692a4.61 4.61 0 0 1-5.389.134c-.831-.616-1.425-1.498-1.683-2.5-.321-1.089-.428-2.23-.314-3.359.006-.025-.003-.052-.023-.068s-.048-.02-.072-.008-.038.035-.038.061c-.181 1.007-.262 2.029-.242 3.051a5.37 5.37 0 0 0 .966 2.593 5.14 5.14 0 0 0 5.026 1.878c1.984-.516 3.673-1.815 4.682-3.6l3.6-5.658 2.152-2.813 2.486-2.759c.024-.035.021-.081-.007-.113s-.074-.039-.111-.019z"/><path d="M360.623 307.855a42.3 42.3 0 0 1-7.929-1.645c-.082-.027-.2.205-.123.247a18.74 18.74 0 0 0 3.909 1.291 14.01 14.01 0 0 0 4.122.251c.077-.009.111-.136.021-.144zm88.768-16.563c-4.177-2.806-8.551-5.305-13.089-7.479a101.2 101.2 0 0 0-13.892-5.382c-2.706-.859-5.444-1.583-8.183-2.329-.036-.009-.073.013-.082.049s.013.073.049.082a130.17 130.17 0 0 1 14.03 5.268q6.84 2.95 13.56 6.144c2.536 1.207 5.015 2.533 7.509 3.824.049.027.11.009.137-.039s.009-.11-.039-.138z"/></g><path d="M457.094 266.711l-40.38-1.336s-7.516-19.931-10.378-37.662 11.662-12.318 26.824 6.664 23.934 32.334 23.934 32.334z" class="C"/><path d="M421.21 250.568a1.56 1.56 0 0 1-.644.317 1.28 1.28 0 0 1-1.193-.369 1.68 1.68 0 0 0-1.854-.318 1.66 1.66 0 0 0-.7.6l-.464.7c.249-.137.464-.309.7-.463a1.6 1.6 0 0 1 .635-.343 1.29 1.29 0 0 1 1.2.318 1.69 1.69 0 0 0 1.828.386 1.63 1.63 0 0 0 .713-.592l.463-.7c-.237.136-.452.308-.684.464zm12.737-7.424l-.172-.824c-.077.275-.112.549-.163.824-.016.242-.087.476-.206.687a1.27 1.27 0 0 1-1.073.627 1.69 1.69 0 0 0-1.571 1.03 1.63 1.63 0 0 0-.086.918l.163.824c.077-.275.112-.549.172-.824.018-.241.094-.474.223-.678a1.3 1.3 0 0 1 1.107-.592c.495-.005.962-.231 1.273-.617s.433-.89.332-1.374zm-14.188-22.2a1.61 1.61 0 0 0 .026.292l.163.815c.077-.275.112-.549.172-.815v-.017c-.12-.109-.24-.195-.36-.281zm28.787 33.585c-.303-.007-.59-.134-.8-.352a1.7 1.7 0 0 0-1.837-.378 1.61 1.61 0 0 0-.712.584l-.463.7c.249-.137.463-.309.7-.464.179-.161.399-.271.635-.318a1.29 1.29 0 0 1 1.2.36c.44.422 1.073.575 1.657.4q-.173-.254-.379-.538zm-27.945-20.133c-.243-.022-.478-.098-.687-.223a1.3 1.3 0 0 1-.584-1.107c-.011-.688-.44-1.299-1.082-1.545a1.7 1.7 0 0 0-.918-.06l-.824.172c.275.069.549.1.824.163.246.016.485.086.7.206a1.29 1.29 0 0 1 .627 1.073 1.7 1.7 0 0 0 1.03 1.571c.291.117.61.147.918.086l.815-.163c-.278-.078-.553-.113-.819-.173zm18.574 28.247a1.48 1.48 0 0 1-.678-.232 1.28 1.28 0 0 1-.592-1.107 1.64 1.64 0 0 0-1.991-1.6l-.824.163c.275.077.549.112.824.172.242.012.478.083.687.206a1.25 1.25 0 0 1 .626 1.073 1.69 1.69 0 0 0 1.03 1.562 1.56 1.56 0 0 0 .918.094l.824-.172c-.275-.073-.55-.108-.824-.159z" class="F"/><path d="M418.372 265.239c-.217 0-1.639-.25-1.645-.25-.1-.53-2.4-8.86-3.01-10.673-1.233-3.693-2.684-7.326-4.083-10.959a.1.1 0 0 0-.186.057l2.7 9.391-.828-1.339c-.547-.925-1.024-1.887-1.535-2.832-.046-.084-.179-.021-.152.069.43 1.31 1.028 2.559 1.78 3.715.318.498.669.974 1.05 1.426l.236.779c.573 1.823 3.53 10.842 3.682 10.852.036 0 1.5.034 1.947.038.118 0 .159-.273.044-.274zm32.186-6.345c-8.708-.651-17.475-.694-26.219-.563q-3.71.055-7.417.286c-.069 0-.082.106-.009.11 4.356.233 8.72.288 13.084.368l13.135.084 7.414-.12c.102-.003.121-.154.012-.165z" class="D"/><path d="M316.912 336.461h-6.165v-4.025h6.165zm-7.995-.266h-6.165v-4.025h6.165zm-7.995-.266h-6.165v-4.025h6.165zm-7.995-.266h-6.165v-4.025h6.165zm-7.995-.266h-6.165v-4.025h6.165zm-7.995-.266h-6.165v-4.025h6.165zm-7.995-.266h-6.165v-4.025h6.165zm-7.995-.266h-6.165v-4.025h6.165zm-7.995-.266h-6.165v-4.025h6.165z" class="G"/><path d="M245.276 338.776h73.144v-4.9l-73.144-2.037z" class="J"/><path d="M173.887 319.462h120.745l-19.2-89.9H154.684z" class="G"/><path d="M169.421 319.462H290.17l-19.2-89.9H150.218z" fill="#1e1c1b"/><path d="M209.755 269.305c.761 4.217 4.365 7.328 8.648 7.466 1.902.061 3.727-.753 4.952-2.209s1.716-3.393 1.332-5.257c-.761-4.216-4.366-7.328-8.648-7.465-1.902-.061-3.727.753-4.952 2.209s-1.716 3.393-1.332 5.256z" class="D"/><g class="G"><path d="M203.572 342.94h59.39v-4.612l-59.39-1.922z"/><path d="M187.427 342.933h31.886l19.2-50.372h-31.886z"/></g><path d="M182.177 342.933h31.886l19.2-50.372H201.38z" class="D"/><path d="M320.68 344.165h61.228c5.226 0-2.335-14.879-21.405-20.586s-45.838 15.007-39.823 20.586z" class="J"/><path d="M344.707 344.165s-1.1-11.506-10.451-16.282m3.195 2.125s-15.8 6.354-16.771 14.157" fill="none" stroke="#263238" class="K"/><path d="M435.637 308.538l-3.638 45.691h-25.133l-3.634-45.691z" class="C"/><path d="M400.854 304.413h36.947v6.661h-36.947z" class="G"/><path d="M435.273 304.412h-31.887l1.863-7.484h28.156z" class="J"/><path d="M428.164 331.785c0 5.932-3.907 10.741-8.726 10.741s-8.727-4.808-8.727-10.741 3.903-10.744 8.723-10.744 8.73 4.812 8.73 10.744z" class="F"/><path d="M64.695 24.639l-53.59-1.912 13.93 21.749L12.9 51.482l55.272 1.18-15.976-20.807z" class="I"/><path d="M100.489 104.452l-61.231-2.184 15.918 24.855-13.865 8.005 63.152 1.343-18.255-23.773z" class="F"/><defs ><path id="B" d="M366.059 40.66h133.849v4.781H366.059z"/><path id="C" d="M170.974 38.268a2.59 2.59 0 0 1-4.421 1.833 2.59 2.59 0 0 1 1.831-4.422 2.59 2.59 0 0 1 2.59 2.589z"/><path id="D" d="M311.861 193.952a2.59 2.59 0 1 1-5.18 0 2.59 2.59 0 0 1 4.422-1.832 2.59 2.59 0 0 1 .758 1.832z"/></defs></svg>