<svg xmlns="http://www.w3.org/2000/svg" width="312.645" height="254.682" viewBox="0 0 312.645 254.682">
  <g id="Group_5497" data-name="Group 5497" transform="translate(-922.806 -7976.103)">
    <g id="Group_5496" data-name="Group 5496">
      <g id="Group_5485" data-name="Group 5485" transform="translate(-1005.322 48.223)">
        <g id="Group_5477" data-name="Group 5477" transform="translate(862.322 258.379)">
          <path id="Path_45468" data-name="Path 45468" d="M-3612.252,4091.689l.483,5.508,15.39,175.6h296.772V4043.72" transform="translate(4678.058 3638.585)" fill="#fbd206"/>
        </g>
      </g>
      <g id="female-worker-giving-a-presentation-on-sales-analysis_1_" data-name="female-worker-giving-a-presentation-on-sales-analysis (1)" transform="translate(822.884 7916.773)">
        <path id="Path_45535" data-name="Path 45535" d="M226.493,317.126V332.2h8.621v-4.9s2.407-.638,6.258,2.606,18.28,8.162,21.415,2.3v0c-2.633,1.227-9.221,0-9.221,0a23.146,23.146,0,0,1-8.985-4.9,15.475,15.475,0,0,0-9.467-3.72c-5.346-.862-7.661-3.72-8.625-6.446m-16.2-179.59a15.021,15.021,0,0,0-1.861,7.132,31.888,31.888,0,0,0,.689,7.409,19.407,19.407,0,0,1-.334,7.66,29.255,29.255,0,0,1-2.724,7.131l-.235-.5a106.521,106.521,0,0,0,11.43,1.918c1.924.2,3.85.369,5.78.473s3.861.143,5.792.13a69.924,69.924,0,0,0,11.486-.917,30.925,30.925,0,0,0,5.507-1.467,15.345,15.345,0,0,0,4.8-2.81l-.18.352a17.448,17.448,0,0,0-.157-3.2c-.148-1.065-.342-2.233-.391-3.362a27.212,27.212,0,0,1,.5-6.785c.1-.552.265-1.128.325-1.61a13.605,13.605,0,0,0,.062-1.62c-.018-1.1-.116-2.209-.228-3.315-.232-2.214-.537-4.427-.882-6.634a.053.053,0,0,1,.043-.061.054.054,0,0,1,.061.04c.522,2.176.981,4.368,1.322,6.586.167,1.11.321,2.223.395,3.356a14.28,14.28,0,0,1,.016,1.728c-.063.63-.2,1.135-.284,1.684a26.272,26.272,0,0,0-.288,6.561c.048.545.1,1.089.181,1.631l.258,1.656c.079.564.143,1.131.184,1.7a11.492,11.492,0,0,1,.012,1.775.524.524,0,0,1-.17.344l-.009.009a15.716,15.716,0,0,1-5.18,3,31.943,31.943,0,0,1-5.725,1.426,46.539,46.539,0,0,1-5.829.575q-2.92.132-5.836.008c-1.942-.078-3.88-.186-5.812-.364s-3.863-.341-5.788-.572-3.85-.455-5.771-.71-3.842-.517-5.762-.852a.338.338,0,0,1-.248-.477l.013-.027a34.7,34.7,0,0,0,2.412-7.012,28.645,28.645,0,0,0,.551-3.65c.027-.306.023-.612.036-.919a7.5,7.5,0,0,0,0-.918l-.046-.916-.124-.906c-.078-.6-.193-1.25-.287-1.872s-.145-1.266-.2-1.9a25.918,25.918,0,0,1,.041-3.82,17.189,17.189,0,0,1,.706-3.749,10.864,10.864,0,0,1,1.675-3.409.053.053,0,0,1,.087.06Z" transform="translate(-26.75 -31.995)" fill="#5504b0"/>
        <path id="Path_45536" data-name="Path 45536" d="M240.61,153.9l2.167,10.026,2.112,10.037-.349-.26c3.527-.353,7.053-.727,10.582-1.056l-.371.406c-.083-3.163-.373-6.365-.688-9.541q-.244-2.385-.527-4.767c-.191-1.582-.366-3.2-.447-4.811-.166-3.223-.082-6.437-.058-9.634a85.512,85.512,0,0,0-.351-9.548,51.579,51.579,0,0,0-1.866-9.349,12.464,12.464,0,0,0-2.179-4.143,14.647,14.647,0,0,0-3.515-3.143,26.047,26.047,0,0,0-8.843-3.432,42.633,42.633,0,0,0-9.509-.82l.144-.08a11.67,11.67,0,0,1-3.258,2.977A7.933,7.933,0,0,1,219.41,118a8.385,8.385,0,0,1-4.246-1.287,15.212,15.212,0,0,1-3.393-2.843l.147.09a27.867,27.867,0,0,0-5.942-.689,23.071,23.071,0,0,0-5.921.665,15.78,15.78,0,0,0-5.344,2.449,14.317,14.317,0,0,0-2.168,1.973,14.676,14.676,0,0,0-1.7,2.392c-.119.215-.248.423-.358.642l-.313.668c-.216.435-.4.916-.594,1.379q-.587,1.4-1.134,2.805c-.738,1.876-1.433,3.769-2.044,5.683a38.055,38.055,0,0,0-2.158,11.725c-.009,1,.074,1.962.1,3.021.017,1.031,0,2.048-.033,3.065q-.1,3.048-.289,6.083-.367,6.073-.956,12.128c-.216,2.019-.433,4.033-.751,6.055-.08.5-.166,1.012-.292,1.532s-.261.978-.382,1.471c-.248.973-.479,1.952-.663,2.931-.045.245-.088.489-.124.731a5.162,5.162,0,0,0-.067.674.129.129,0,0,0,0,.015c0,.009,0,0-.008-.03a.423.423,0,0,0-.05-.1.448.448,0,0,0-.344-.177l.065,0,.19.009.377.017.754.028c1.005.031,2.011.041,3.013.018s2-.078,2.986-.2a11.1,11.1,0,0,0,1.441-.264,2.7,2.7,0,0,0,1.173-.548l-.091.223c.129-2.047.32-4.077.549-6.108s.513-4.053.857-6.068.775-4.015,1.319-5.986a23.168,23.168,0,0,1,2.243-5.695l.091.054a22.99,22.99,0,0,0-2.057,5.714c-.483,1.973-.85,3.975-1.135,5.987s-.543,4.03-.726,6.055-.336,4.056-.422,6.08l-.006.136-.085.087a3.275,3.275,0,0,1-1.51.793,11.839,11.839,0,0,1-1.537.315,28.681,28.681,0,0,1-3.067.248c-1.021.036-2.04.039-3.059.02l-.764-.019-.382-.013-.189-.007h-.029a.493.493,0,0,1-.38-.2.507.507,0,0,1-.068-.144.658.658,0,0,1-.024-.123c0-.033-.006-.058-.006-.079a5.528,5.528,0,0,1,.065-.836c.035-.259.076-.513.12-.767.177-1.013.4-2.008.639-3,.114-.491.262-1,.363-1.472s.185-.957.257-1.453c.286-1.982.479-4,.668-6.006.37-4.023.684-8.056.913-12.09q.179-3.026.272-6.05c.027-1.006.044-2.014.024-3.007-.023-.965-.114-2.023-.107-3.047a38.631,38.631,0,0,1,2.284-12.05c.634-1.938,1.348-3.844,2.105-5.729q.561-1.417,1.162-2.817c.2-.468.381-.934.617-1.405l.337-.7c.119-.231.257-.454.385-.681a14.412,14.412,0,0,1,4.184-4.6,16.619,16.619,0,0,1,5.668-2.5,23.815,23.815,0,0,1,6.124-.6,28.458,28.458,0,0,1,6.088.8l.086.021.061.069a14.719,14.719,0,0,0,3.221,2.789,7.879,7.879,0,0,0,3.973,1.279,7.5,7.5,0,0,0,4.03-1.106,11.225,11.225,0,0,0,3.158-2.846l.059-.078.085,0a43.492,43.492,0,0,1,9.592.877,26.4,26.4,0,0,1,8.994,3.413,15.833,15.833,0,0,1,3.653,3.191,12.971,12.971,0,0,1,2.351,4.262,51.9,51.9,0,0,1,2.076,9.43,75.425,75.425,0,0,1,.505,9.637c0,3.208-.068,6.4.116,9.579s.636,6.344.911,9.543c.291,3.2.559,6.385.619,9.627l.007.372-.378.034c-3.53.32-7.065.595-10.6.891l-.3.025-.054-.285-1.9-10.079-1.845-10.09Z" transform="translate(-16.309 -21.799)" fill="#5504b0"/>
        <path id="Path_45537" data-name="Path 45537" d="M178.531,228.52c-.045,1.565-.126,3.127-.192,4.691s-.169,3.124-.251,4.686-.167,3.124-.283,4.684l-.32,4.681,0,.052-.039.108c-.154.426-.348.832-.472,1.271-.107.445-.268.871-.332,1.33a21.123,21.123,0,0,0-.383,2.744,42.914,42.914,0,0,0-.051,5.6,52.394,52.394,0,0,0,.605,5.6c.082.462.163.925.266,1.38a4.19,4.19,0,0,0,.439,1.277,3.338,3.338,0,0,0,2.116,1.524l.087.019.039.078.2.4c.074.128.159.249.237.375a2.345,2.345,0,0,0,.62.593,1.4,1.4,0,0,0,.792.212,1.594,1.594,0,0,0,.784-.243l.143-.091.1.136a1.121,1.121,0,0,0,.684.391,3.09,3.09,0,0,0,.873.063l-.015,0a.8.8,0,0,0,.444-.268,1.467,1.467,0,0,0,.244-.525,4.413,4.413,0,0,0,.112-1.255,15.28,15.28,0,0,0-.369-2.577,40.485,40.485,0,0,0-1.484-5.031l-.02-.055v-.063a4.519,4.519,0,0,1,.1-1.07,2.034,2.034,0,0,1,.579-1.045,1.8,1.8,0,0,1,1.155-.437,3.139,3.139,0,0,1,1.116.167,3.585,3.585,0,0,1,1.764,1.318,3.912,3.912,0,0,1,.514.977l.346.912c.233.6.472,1.206.751,1.762s.631,1.1.974,1.221a.825.825,0,0,0,.6-.044c.082-.028.076-.031.076-.031a.061.061,0,0,0,.02-.03.752.752,0,0,0,.06-.263,5.637,5.637,0,0,0-.29-1.739c-.177-.6-.4-1.208-.632-1.806s-.487-1.162-.759-1.814a6.512,6.512,0,0,1-.415-2.1c-.015-.357.007-.715-.009-.988a7.108,7.108,0,0,0-.086-.9,20.969,20.969,0,0,0-3.039-6.947l-.108-.174.024-.171c.458-3.291.875-6.588,1.366-9.875.472-3.289.959-6.577,1.49-9.859l.105.013c-.271,3.314-.587,6.622-.918,9.929-.311,3.309-.7,6.609-1.043,9.914l-.084-.345a25.7,25.7,0,0,1,2,3.477,15.8,15.8,0,0,1,1.325,3.848,8.242,8.242,0,0,1,.1,1.057c.015.381-.006.679.007.977a5.383,5.383,0,0,0,.337,1.739,29.482,29.482,0,0,1,1.377,3.732,6.464,6.464,0,0,1,.295,2.129,1.721,1.721,0,0,1-.2.677,1.071,1.071,0,0,1-.294.342,1.141,1.141,0,0,1-.363.183,1.84,1.84,0,0,1-1.316.018,2.268,2.268,0,0,1-.955-.807,6.308,6.308,0,0,1-.534-.926c-.3-.62-.533-1.242-.762-1.864l-.327-.935a2.987,2.987,0,0,0-.376-.768,2.711,2.711,0,0,0-1.3-1.036,1.553,1.553,0,0,0-1.469.065,2.084,2.084,0,0,0-.493,1.517l-.02-.117a43.8,43.8,0,0,1,1.3,5.168,15.7,15.7,0,0,1,.282,2.666,5.075,5.075,0,0,1-.149,1.367,1.829,1.829,0,0,1-.323.658,1.168,1.168,0,0,1-.671.39l-.008,0h-.008a3.429,3.429,0,0,1-.985-.084,1.45,1.45,0,0,1-.885-.545l.238.045a1.909,1.909,0,0,1-.967.292,1.8,1.8,0,0,1-.969-.265,2.663,2.663,0,0,1-.719-.672c-.087-.135-.181-.268-.262-.405l-.22-.425.126.1a3.793,3.793,0,0,1-2.4-1.652,4.955,4.955,0,0,1-.532-1.374c-.127-.462-.23-.927-.335-1.392a51.815,51.815,0,0,1-.866-5.641,34.142,34.142,0,0,1-.125-5.731,16.04,16.04,0,0,1,1.311-5.659l-.042.159.4-4.675c.125-1.559.287-3.115.439-4.672s.3-3.114.47-4.669.334-3.111.53-4.665Z" transform="translate(-14.401 -68.824)" fill="#5504b0"/>
        <path id="Path_45538" data-name="Path 45538" d="M182.441,278.029a29.358,29.358,0,0,0,1.914,6.123,13.99,13.99,0,0,1,1.065,3.071,12.37,12.37,0,0,1,.279,3.273l-.527-.06a11.968,11.968,0,0,0-.143-3.137,13.645,13.645,0,0,0-.919-3.043,29.487,29.487,0,0,1-1.67-6.227Z" transform="translate(-17.346 -89.57)" fill="#5504b0"/>
        <path id="Path_45539" data-name="Path 45539" d="M179.9,284.073l1.863,7.407-.518.112Z" transform="translate(-16.308 -92.045)" fill="#5504b0"/>
        <path id="Path_45540" data-name="Path 45540" d="M298.684,215.23c.021,1.815,0,3.628,0,5.441l-.056,5.439c-.033,3.626-.137,7.249-.181,10.873-.06,3.623-.192,7.245-.284,10.864-.019.9-.033,1.809-.027,2.71.005.448.008.905.047,1.334a2.839,2.839,0,0,0,.455,1.159c.88,1.558,2.04,2.971,2.926,4.587l.134.244h-.28l-1.8,0,.152-.216c.588,1.635,1.135,3.28,1.6,4.957a22.277,22.277,0,0,1,.588,2.56,5.4,5.4,0,0,1,.056.679,1.3,1.3,0,0,1-.181.783.541.541,0,0,1-.256.176,1.066,1.066,0,0,1-.158.031h-.086a2.887,2.887,0,0,1-.349-.016,2.469,2.469,0,0,1-.705-.166,4.688,4.688,0,0,1-1.973-1.9,17.906,17.906,0,0,1-1.243-2.338c-.718-1.6-1.3-3.246-1.858-4.895l.459.32-4.7.26-.523.029,0-.536-.112-20.793c-.01-3.466-.087-6.929-.16-10.392q-.066-2.6-.21-5.188c-.046-.864-.1-1.727-.193-2.586a14.773,14.773,0,0,0-.423-2.546l.1-.037a13.244,13.244,0,0,1,.607,2.545c.142.859.254,1.723.353,2.586.195,1.728.328,3.461.453,5.194.252,3.466.364,6.936.488,10.405.1,3.47.17,6.94.177,10.41.023,3.471-.029,6.939-.073,10.411l-.526-.507,4.708-.172.357-.013.1.333c.5,1.647,1.046,3.282,1.691,4.866a17.224,17.224,0,0,0,1.1,2.293,4.11,4.11,0,0,0,1.624,1.733,1.911,1.911,0,0,0,.549.149,2.371,2.371,0,0,0,.3.024l.076,0c0-.005,0-.006,0,0s-.005-.007.009,0a.955.955,0,0,0,.092-.467,4.953,4.953,0,0,0-.029-.616,18.657,18.657,0,0,0-.5-2.517c-.44-1.666-.965-3.317-1.528-4.949l-.075-.215h.226l1.8,0-.147.243c-.866-1.565-2.061-2.946-3.03-4.508q-.182-.295-.346-.607a2.529,2.529,0,0,1-.149-.333,2.055,2.055,0,0,1-.079-.389c-.063-.472-.084-.922-.11-1.38-.046-.911-.072-1.82-.091-2.728q-.123-5.448.041-10.887c.125-3.625.223-7.25.41-10.873l.286-5.433c.123-1.81.224-3.621.373-5.429Z" transform="translate(-61.126 -63.849)" fill="#5504b0"/>
        <path id="Path_45541" data-name="Path 45541" d="M305.788,285.318l-.877-2.893,1.3,2.731Z" transform="translate(-67.505 -91.37)" fill="#5504b0"/>
        <path id="Path_45542" data-name="Path 45542" d="M298.856,284.856l-.719-3.775,1.724,3.435Z" transform="translate(-64.73 -90.82)" fill="#5504b0"/>
        <path id="Path_45543" data-name="Path 45543" d="M236.658,244.244s-3.316,64.73-10.054,81.277a203.375,203.375,0,0,1-69.8,6.324q6.82-41.341,13.64-82.677a3.6,3.6,0,0,0,1.6.812c1.178,2.594,2.886,1.406,2.886,1.406.43.647,1.714.541,1.714.541,2.568-.435-.748-9.953-.748-9.953,0-1.947.987-2.271,1.979-2.106a3.2,3.2,0,0,1,2.44,2.127c1.284,3.618,1.947,4.78,3.39,4.2,1.125-.456-.249-4.016-1.167-6.106a6.157,6.157,0,0,1-.472-2.748c.138-3.5-3.284-8.5-3.284-8.5l2.409-19.789s.8-17.359,4.653-23.847c0,0,34.659,7.136,45.249-2.594l4.011,20.112C236.981,207.8,236.658,244.244,236.658,244.244Z" transform="translate(-6.848 -50.487)" fill="#5504b0"/>
        <path id="Path_45544" data-name="Path 45544" d="M301.908,287c1.045-.068,2.091-.112,3.137-.167l.784-.032c.138,0,.246-.016.408-.011a1.038,1.038,0,0,1,.438.131,1.063,1.063,0,0,1,.524.732c.039.319.019.539.032.814.024,2.093.045,4.187.046,6.28l-.01,1.57-.005.785-.005.393,0,.2a1.264,1.264,0,0,1-.028.237,1.108,1.108,0,0,1-.568.735,1.074,1.074,0,0,1-.457.117l-.4-.005-1.57-.032q-3.14-.071-6.28-.056h-.026l-.025-.017a8.526,8.526,0,0,0-2.293-1.185,1.428,1.428,0,0,0-1.162.028,1.193,1.193,0,0,0-.3,1.075l.036.454-.307-.343c-.369-.412-.757-.814-1.159-1.193a6.088,6.088,0,0,0-1.279-.983.611.611,0,0,0-.285-.077c-.041.006-.045.009-.075.116-.013.09-.02.254-.029.39l-.026.416a3.262,3.262,0,0,0,.21,1.541,9.782,9.782,0,0,0,1.931,2.61,1.06,1.06,0,0,0,1.2.366c.384-.14.5-.642.453-1.156l-.055-.643.508.41a4.841,4.841,0,0,0,1.421.832.993.993,0,0,0,.671.02.767.767,0,0,0,.361-.506l.214-.656.286.615a12.244,12.244,0,0,0,1.534,2.56,3.62,3.62,0,0,0,1.075.942,1.082,1.082,0,0,0,1.226-.1,2.932,2.932,0,0,0,.84-1.149,4.843,4.843,0,0,0,.293-1.45,8.967,8.967,0,0,0-.384-3l.05-.018a9.1,9.1,0,0,1,.575,3.021,5.11,5.11,0,0,1-.248,1.55,3.26,3.26,0,0,1-.9,1.331,1.472,1.472,0,0,1-.788.353,1.62,1.62,0,0,1-.85-.162,4.023,4.023,0,0,1-1.244-1.024,12.2,12.2,0,0,1-1.669-2.64l.5-.041a1.292,1.292,0,0,1-.655.86,1.507,1.507,0,0,1-1.053.008,5.331,5.331,0,0,1-1.616-.927l.453-.233a2.4,2.4,0,0,1-.088.942,1.249,1.249,0,0,1-.7.775,1.593,1.593,0,0,1-1.814-.51,10.2,10.2,0,0,1-1.994-2.8,3.647,3.647,0,0,1-.215-1.758l.04-.421c.015-.142.018-.259.05-.445a.747.747,0,0,1,.133-.283.492.492,0,0,1,.325-.165.973.973,0,0,1,.516.131,6.368,6.368,0,0,1,1.346,1.095c.4.4.778.818,1.142,1.252l-.271.111a2.465,2.465,0,0,1,.053-.7,1.025,1.025,0,0,1,.4-.62,1.124,1.124,0,0,1,.707-.16,2.679,2.679,0,0,1,.67.139A9.48,9.48,0,0,1,298,298.523l-.051-.017q3.14.02,6.28-.056l1.57-.032.384-.01a.7.7,0,0,0,.294-.088.709.709,0,0,0,.343-.483l-.013-3.1c0-2.093.022-4.187.046-6.28,0-.248.022-.554,0-.755a.731.731,0,0,0-.342-.517,1.134,1.134,0,0,0-.681-.108h-.785c-1.047-.011-2.094-.011-3.141-.035Z" transform="translate(-61.614 -93.156)" fill="#5504b0"/>
        <path id="Path_45545" data-name="Path 45545" d="M273.485,207.3a2.563,2.563,0,0,1,.783.932,2.533,2.533,0,0,1,.313,1.177,2.535,2.535,0,0,1-.783-.932A2.563,2.563,0,0,1,273.485,207.3Zm3.958,0a2.436,2.436,0,0,1,.278,1.153,2.41,2.41,0,0,1-.252,1.159,2.41,2.41,0,0,1-.279-1.153,2.437,2.437,0,0,1,.252-1.159ZM251.5,93.758a9.237,9.237,0,0,1-.291-2.312,3.064,3.064,0,0,1,.238-1.212.9.9,0,0,1,.191-.293.812.812,0,0,1,.294-.234,1.349,1.349,0,0,1,.69-.13c.8.021,1.536.1,2.282.071a6.531,6.531,0,0,0,2.126-.369,3.9,3.9,0,0,0,1.653-1.179,4.127,4.127,0,0,0,.518-.892,4.912,4.912,0,0,0,.335-1,16.88,16.88,0,0,0,.3-2.205l.245-2.285a31.986,31.986,0,0,0,.088-9.108,17.993,17.993,0,0,0-1.32-4.351,19.938,19.938,0,0,0-2.418-3.828l.571-.089a39.7,39.7,0,0,1-1.551,3.9,33.824,33.824,0,0,1-1.958,3.732,18.45,18.45,0,0,1-2.589,3.41,7.429,7.429,0,0,1-1.789,1.344,4.089,4.089,0,0,1-2.323.5.572.572,0,0,1-.432-.283l0-.005a12.321,12.321,0,0,0-2.552-3.316,2.087,2.087,0,0,0-.773-.422.721.721,0,0,0-.647.131,3.447,3.447,0,0,0-.881,1.7,7.46,7.46,0,0,0-.239,1.029,6.051,6.051,0,0,0-.108,1.045,5.5,5.5,0,0,0,.354,2.051,4.963,4.963,0,0,0,2.991,2.868l-.012.105a4.307,4.307,0,0,1-2.034-.966,5.313,5.313,0,0,1-1.435-1.79,6.112,6.112,0,0,1-.557-2.254,6.772,6.772,0,0,1,.036-1.162,6.622,6.622,0,0,1,.2-1.139,5.721,5.721,0,0,1,.358-1.125,2.966,2.966,0,0,1,.735-1.071,1.69,1.69,0,0,1,1.43-.37,3.024,3.024,0,0,1,1.192.56,8.458,8.458,0,0,1,1.647,1.68,17.774,17.774,0,0,1,1.28,1.9l-.435-.289a4.4,4.4,0,0,0,3.218-1.517,17.43,17.43,0,0,0,2.506-3.149c.735-1.148,1.4-2.351,2.022-3.575s1.2-2.483,1.726-3.746l.012-.029a.32.32,0,0,1,.559-.059,21.6,21.6,0,0,1,2.257,4.072,22.987,22.987,0,0,1,1.285,4.45,39.119,39.119,0,0,1,.434,9.236c-.038.769-.1,1.535-.155,2.3a15.252,15.252,0,0,1-.313,2.348,5.816,5.816,0,0,1-.412,1.165,5.037,5.037,0,0,1-.656,1.076,4.613,4.613,0,0,1-2.083,1.395,10.581,10.581,0,0,1-4.708.088.82.82,0,0,0-.429.032.337.337,0,0,0-.159.108.526.526,0,0,0-.137.173,2.67,2.67,0,0,0-.3,1.006,11.1,11.1,0,0,0,.028,2.267Z" transform="translate(-41.106 -1.866)" fill="#5504b0"/>
        <path id="Path_45546" data-name="Path 45546" d="M199.419,85.24c-5.789-2.749-9.187-16.069-2.554-22.883s18.72,0,18.72,0-4.707,12.978-9.841,12.437c0,0-4.065-7.354-5.669-2.055s2.353,7.354,3.316,7.462Zm-57.128,227.49a2.071,2.071,0,0,1-1.613-.62c-1.573-1.734.483-6.471.571-6.671.152-.334,3.71-8.148,4.829-9.925,1.1-1.752,6.707-13.9,6.764-14.018l.407.188c-.231.5-5.674,12.293-6.792,14.069-1.1,1.751-4.762,9.788-4.8,9.869-.019.044-2.027,4.668-.648,6.188.522.574,1.512.627,2.941.158,6.166-2.026,6.423-5.122,6.425-5.153l0-.065.038-.054c.629-.87,6.189-8.511,7.818-9a10.6,10.6,0,0,0,2.872-1.777,40.8,40.8,0,0,1,3.5-2.419c2.35-1.425,2.139-5.469,1.969-8.717-.052-1-.1-1.951-.071-2.734l.447.018c-.029.762.02,1.7.071,2.692.176,3.368.4,7.56-2.184,9.124a40.028,40.028,0,0,0-3.458,2.393,10.818,10.818,0,0,1-3.011,1.847c-1.248.378-5.837,6.425-7.55,8.79-.061.51-.678,3.5-6.726,5.484A5.891,5.891,0,0,1,142.291,312.731Z" transform="translate(0)" fill="#5504b0"/>
        <path id="Path_45547" data-name="Path 45547" d="M140.462,461s.985,6.009,7.4,1.788a24.5,24.5,0,0,0,7.506-7.658,18.751,18.751,0,0,1,5.022-5.566c1.251-.9,2.554-1.562,3.518-1.38v2.758l5.937-2.788s1.626-7.422-2.958-11.483l.14.149c.088,2.89-.117,5.91-2.156,7.146-3.209,1.947-4.814,3.731-6.418,4.218s-7.7,8.922-7.7,8.922-.16,3.244-6.579,5.353c-2.192.72-3.186.173-3.545-.861m91.944-10.35a35.1,35.1,0,0,1-5.645-.547,23.592,23.592,0,0,1-9.094-4.957,15.348,15.348,0,0,0-9.315-3.663h0c-3.485-.559-6.044-1.993-7.643-4.265a11.65,11.65,0,0,1-1.719-8.133l.441.082a11.4,11.4,0,0,0,1.647,7.8c1.527,2.168,3.986,3.538,7.309,4.074a15.72,15.72,0,0,1,9.581,3.774,23.1,23.1,0,0,0,8.888,4.852c2.436.454,8.989,1.215,9.9-.713.359-.755-.018-2.334-3.845-5.576l-.045-.038-.02-.056c-.064-.173-1.628-4.233-7.17-4.233h-.086l-.064-.058c-.359-.326-8.807-8.032-9.815-13.25l.44-.085c.935,4.842,8.824,12.217,9.613,12.945a7.852,7.852,0,0,1,7.48,4.468c3.262,2.771,4.543,4.758,3.918,6.074C236.773,450.914,234.715,451.245,232.574,451.245Z" transform="translate(-0.153 -150.276)" fill="#5504b0"/>
        <path id="Path_45548" data-name="Path 45548" d="M258.542,303.958a23.146,23.146,0,0,0,8.986,4.9,11.678,11.678,0,0,1,6.258-6.677s-1.6-4.38-7.381-4.38a10.767,10.767,0,0,0-7.862,6.154Zm-15.8-209.221c4.326,0,4.333-6.722,0-6.722S238.4,94.737,242.737,94.737Zm11.793-4.821q.7.3,1.387.539a4.542,4.542,0,0,0,1.383.27,1.3,1.3,0,0,0,1.126-.524,3.67,3.67,0,0,0,.517-1.339,2.5,2.5,0,0,1-.222,1.528,1.441,1.441,0,0,1-.6.595,1.835,1.835,0,0,1-.818.188,3.586,3.586,0,0,1-1.518-.4A5,5,0,0,1,254.531,89.916Zm-3.637-8.972a6.949,6.949,0,0,1,2.747-.468,5.989,5.989,0,0,1,1.4.206,3.508,3.508,0,0,1,1.256.636,9.676,9.676,0,0,0-2.667-.395C252.729,80.895,251.827,80.937,250.894,80.944Zm9.948.725a3.962,3.962,0,0,0-1.156-.055,2.188,2.188,0,0,0-1.042.333,1.624,1.624,0,0,0-.38.341.836.836,0,0,0-.137.439,2.013,2.013,0,0,0,.319.99,7.553,7.553,0,0,0,.651.941,3.494,3.494,0,0,1,.556,1.1,1.946,1.946,0,0,1,.064.638,1.183,1.183,0,0,1-.245.6,1.727,1.727,0,0,1-1.09.506,1.793,1.793,0,0,0,.912-.636,1.1,1.1,0,0,0,.03-1.008,3.808,3.808,0,0,0-.565-.951,7.273,7.273,0,0,1-.7-.978,2.354,2.354,0,0,1-.352-1.232,1.245,1.245,0,0,1,.247-.653,1.627,1.627,0,0,1,.521-.4,2.792,2.792,0,0,1,2.369.02Zm-4.76,4.569c-.075.366-.1.636.011.788a1.216,1.216,0,0,0,.259.273,4.691,4.691,0,0,1,.386.319,1.059,1.059,0,0,1-.542-.006.857.857,0,0,1-.486-.354.678.678,0,0,1-.031-.637A.748.748,0,0,1,256.082,86.239Zm-1.9-2.41a.673.673,0,1,0-.649-.672A.673.673,0,0,0,254.183,83.829Z" transform="translate(-40.711 -8.659)" fill="#5504b0"/>
        <path id="Path_45549" data-name="Path 45549" d="M245.992,76.107a.673.673,0,1,0-.649-.672A.673.673,0,0,0,245.992,76.107Zm-20.467,7.941a3,3,0,0,0,.916,1.714c-1.974,6.494-3.824,6.93-3.824,6.93l-16.773,1.844c10.986-17.718,2.416-16.343,7.388-26.566s11.411-5.555,11.411-5.555l2.885,17.871a2.806,2.806,0,0,0-.5.226,3.055,3.055,0,0,0-1.312,1.533A3.627,3.627,0,0,0,225.526,84.048Z" transform="translate(-26.931 -0.829)" fill="#5504b0"/>
        <path id="Path_45550" data-name="Path 45550" d="M241.6,94.431c-.4,1.856-.8,3.417-1.2,4.729a4.387,4.387,0,0,1-.481-1.771,4.014,4.014,0,0,1,.283-1.737,3.131,3.131,0,0,1,1.03-1.375,3.065,3.065,0,0,1,.317-.209Z" transform="translate(-40.88 -14.228)" fill="#5504b0"/>
        <path id="Path_45551" data-name="Path 45551" d="M201.664,80.859c.615.461,1.216.867,1.813,1.281s1.2.806,1.81,1.193c.3.2.6.4.911.591.295.214.616.385.914.6a20.568,20.568,0,0,1,1.827,1.307,8.686,8.686,0,0,1-2.207-.572,11.5,11.5,0,0,1-2.023-1.04,10.33,10.33,0,0,1-1.766-1.454A5.719,5.719,0,0,1,201.664,80.859ZM147.216,296.291s5.455-1.622,12.034,2.271l-7.7,8.922a7.089,7.089,0,0,0-9.146-1.3ZM386.9,160.743c-10.753.343-21.68.626-32.69.869s-22.1.443-33.257.594c-5.565.1-11.165.116-16.753.171l-8.389.068-8.4.007c-5.6.021-11.213-.061-16.81-.113-5.6-.093-11.2-.184-16.776-.32l-1.456-.036.03-1.39.531-24.347c.09-4.058.116-8.116.177-12.173s.045-8.116.07-12.173q.017-12.173-.116-24.347c-.095-8.116-.268-16.231-.4-24.347l-.018-1.139,1.18-.023c11.077-.218,22.155-.458,33.232-.61l33.232-.291,16.616-.124,8.308-.062,8.308-.012c5.539,0,11.077-.03,16.616.005l16.616.1,2.164.013-.01,2.141c-.037,8.244-.181,16.481-.283,24.7l-.471,24.57-.591,24.316Zm-.3-.3-.659-24.746-.591-24.377L384.883,87.2c-.1-8.009-.246-16-.283-23.99l2.154,2.154-16.616.1c-5.539.035-11.077,0-16.616.005l-8.308-.012-8.308-.062-16.616-.124-33.232-.291c-11.077-.152-22.155-.392-33.232-.61l1.162-1.162c-.13,8.116-.3,16.231-.4,24.347s-.131,16.231-.116,24.347c.025,4.058.021,8.116.07,12.173s.087,8.116.177,12.173l.531,24.347-1.426-1.426c5.5-.136,10.981-.227,16.456-.32,5.48-.051,10.944-.134,16.422-.113l8.212.007,8.227.068c5.49.055,10.967.074,16.479.171q16.512.221,33.208.594C363.975,159.817,375.2,160.1,386.6,160.443Z" transform="translate(-0.948 -0.657)" fill="#5504b0"/>
        <path id="Path_45552" data-name="Path 45552" d="M347.03,137.716c4.186-.344,8.371-.523,12.557-.646,2.093-.077,4.186-.094,6.278-.139l6.278-.046,6.278.044c2.093.046,4.186.061,6.278.138,4.186.122,8.371.3,12.557.648-4.186.346-8.371.526-12.557.648-2.093.077-4.186.092-6.278.138l-6.278.044-6.278-.046c-2.093-.045-4.186-.062-6.278-.139C355.4,138.24,351.215,138.06,347.03,137.716Z" transform="translate(-84.755 -31.764)" fill="#5504b0"/>
        <path id="Path_45553" data-name="Path 45553" d="M353.487,80.475c.344,3.26.523,6.52.646,9.78.077,1.63.094,3.26.139,4.89l.046,4.89-.044,4.89c-.046,1.63-.061,3.26-.138,4.89-.122,3.26-.3,6.52-.648,9.78-.346-3.26-.526-6.52-.648-9.78-.077-1.63-.092-3.26-.138-4.89l-.044-4.89.046-4.89c.045-1.63.062-3.26.139-4.89C352.963,87,353.143,83.735,353.487,80.475Zm13.549,34.377c-1.448.088-2.964.164-4.508.224s-3.119.1-4.689.114l-.364,0,0-.371c-.013-1.268,0-2.536.049-3.8l.149-3.8c.036-1.268.058-2.536.033-3.8,0-1.268-.047-2.536-.09-3.8l-.007-.218.235-.01q2.292-.094,4.584-.139l4.584-.066.429-.006,0,.439c.011,1.293.018,2.592-.007,3.885s-.051,2.583-.092,3.861C367.275,109.917,367.154,112.43,367.036,114.852Zm-.059-.059c-.118-2.649-.239-5.207-.305-7.716-.041-1.258-.079-2.506-.092-3.746s-.018-2.479-.007-3.722l.433.433-4.584-.066q-2.292-.046-4.584-.139l.227-.227c-.043,1.268-.085,2.536-.09,3.8-.025,1.268,0,2.536.033,3.8l.149,3.8c.051,1.268.062,2.536.049,3.8l-.368-.368c1.486.014,2.963.041,4.479.114S365.37,114.705,366.978,114.793Z" transform="translate(-87.059 -8.66)" fill="#5504b0"/>
        <path id="Path_45554" data-name="Path 45554" d="M385.869,122.69c-1.47.063-2.979.141-4.524.188s-3.1.107-4.674.124l-.337,0,0-.345c-.023-1.887-.042-3.773-.021-5.66s.1-3.773.15-5.66q.1-2.83.082-5.66l-.027-2.83-.069-2.83-.005-.221.233-.007c1.528-.042,3.056-.091,4.584-.113s3.056-.047,4.584-.063l.4,0,0,.408c.02,1.91.043,3.828.033,5.743s-.028,3.83-.077,5.726-.075,3.8-.142,5.659Zm-.059-.059-.187-5.778c-.068-1.911-.094-3.783-.142-5.662s-.066-3.735-.077-5.595.013-3.714.033-5.577l.4.4c-1.528-.016-3.056-.029-4.584-.063s-3.056-.071-4.584-.113l.227-.227-.069,2.83-.027,2.83q-.018,2.83.082,5.66c.051,1.887.129,3.773.15,5.66s0,3.773-.021,5.66l-.341-.341c1.487.017,2.978.07,4.494.124s3.059.125,4.645.188Z" transform="translate(-96.743 -16.498)" fill="#5504b0"/>
        <path id="Path_45555" data-name="Path 45555" d="M401.4,120.383c-1.475.058-2.986.13-4.528.176s-3.1.108-4.669.122l-.322,0-.005-.33c-.033-2.165-.053-4.329-.042-6.494s.088-4.329.143-6.494.107-4.329.1-6.494l-.026-3.247-.072-3.247,0-.221.232-.006c3.056-.083,6.112-.145,9.168-.167l.392,0,0,.4c.015,2.187.053,4.384.041,6.577s-.03,4.385-.068,6.563-.076,4.352-.144,6.493Zm-.059-.059-.193-6.616c-.068-2.188-.093-4.337-.144-6.495s-.071-4.291-.069-6.425.026-4.268.041-6.411l.394.394c-3.056-.022-6.112-.084-9.168-.167l.227-.227-.072,3.247-.026,3.247c-.01,2.165.029,4.329.1,6.494s.132,4.329.143,6.494-.009,4.329-.042,6.494l-.327-.327c1.488.014,2.984.079,4.5.122Z" transform="translate(-103.102 -14.191)" fill="#5504b0"/>
        <path id="Path_45556" data-name="Path 45556" d="M414.534,122.69c-1.47.063-2.979.141-4.524.188s-3.1.107-4.674.124l-.337,0,0-.345c-.023-1.887-.042-3.773-.021-5.66s.1-3.773.15-5.66q.1-2.83.082-5.66l-.027-2.83-.069-2.83L405.1,99.8l.233-.007c1.528-.042,3.056-.091,4.584-.113s3.056-.047,4.584-.063l.4,0,0,.408c.02,1.91.043,3.828.033,5.743s-.028,3.83-.077,5.726-.075,3.8-.142,5.659Zm-.059-.059-.187-5.778c-.068-1.911-.094-3.783-.142-5.662s-.066-3.735-.077-5.595.013-3.714.033-5.577l.4.4c-1.528-.016-3.056-.029-4.584-.063s-3.056-.071-4.584-.113l.227-.227-.069,2.83-.027,2.83q-.018,2.83.082,5.66c.051,1.887.129,3.773.15,5.66s0,3.773-.021,5.66l-.341-.341c1.487.017,2.978.07,4.494.124S412.889,122.568,414.475,122.631ZM401.517,163.4c1.74-4.7,3.58-9.352,5.444-14l2.837-6.951.177-.434a2.978,2.978,0,0,1,.276-.5,2.377,2.377,0,0,1,.853-.779,2.663,2.663,0,0,1,2.238-.153,2.718,2.718,0,0,1,.955.651,3.567,3.567,0,0,1,.564.917l.81,1.693c2.139,4.525,4.2,9.087,6.378,13.6l.822,1.687a4.288,4.288,0,0,0,.436.788,1.722,1.722,0,0,0,.665.533,1.954,1.954,0,0,0,1.663.011,1.774,1.774,0,0,0,.666-.519,2.239,2.239,0,0,0,.236-.355l.211-.419c1.137-2.229,2.211-4.49,3.319-6.735q3.273-6.758,6.637-13.47l1.683-3.355.841-1.678.421-.839c.079-.149.12-.258.231-.441a2.612,2.612,0,0,1,.346-.484,2.7,2.7,0,0,1,4.191.254,3.511,3.511,0,0,1,.287.5l.2.426.394.852.785,1.7c4.14,9.113,8.214,18.257,12.082,27.5l-.1.047c-4.515-8.941-8.824-17.976-13.067-27.042l-.787-1.7-.392-.853-.2-.426a2.244,2.244,0,0,0-.177-.312,1.541,1.541,0,0,0-2.35-.156,1.447,1.447,0,0,0-.2.275c-.059.081-.141.261-.21.387l-.433.832-.867,1.665-1.734,3.329q-3.46,6.662-7.03,13.269c-1.17,2.212-2.373,4.408-3.514,6.635l-.217.417a2.618,2.618,0,0,1-.287.422,2.148,2.148,0,0,1-.807.613,2.312,2.312,0,0,1-1.967-.037,2.735,2.735,0,0,1-1.261-1.479l-.837-1.68c-2.248-4.471-4.606-8.889-6.89-13.343l-.849-1.674a2.806,2.806,0,0,0-.418-.673,1.725,1.725,0,0,0-.584-.395,1.662,1.662,0,0,0-1.387.1,1.5,1.5,0,0,0-.522.469,1.977,1.977,0,0,0-.182.314l-.184.431-2.952,6.9c-2,4.59-4.016,9.17-6.135,13.709Z" transform="translate(-107.071 -16.498)" fill="#5504b0"/>
        <path id="Path_45557" data-name="Path 45557" d="M381.366,185.366c1.74-4.7,3.58-9.352,5.444-14l2.837-6.951.177-.434a2.976,2.976,0,0,1,.276-.5,2.377,2.377,0,0,1,.853-.779,2.663,2.663,0,0,1,2.238-.154,2.718,2.718,0,0,1,.955.651,3.567,3.567,0,0,1,.564.917l.81,1.693c2.139,4.525,4.2,9.087,6.378,13.6l.822,1.687a4.292,4.292,0,0,0,.436.788,1.721,1.721,0,0,0,.664.533,1.954,1.954,0,0,0,1.663.011,1.773,1.773,0,0,0,.666-.519,2.233,2.233,0,0,0,.236-.355l.211-.419c1.137-2.229,2.211-4.49,3.319-6.735q3.273-6.758,6.637-13.47l1.683-3.355.842-1.678.421-.839c.079-.149.12-.258.231-.441a2.6,2.6,0,0,1,.346-.484,2.7,2.7,0,0,1,4.191.254,3.51,3.51,0,0,1,.287.5l.2.426.394.852.785,1.7c4.14,9.113,8.214,18.257,12.082,27.5l-.1.047c-4.515-8.941-8.824-17.976-13.066-27.042l-.787-1.7-.392-.853-.2-.426a2.23,2.23,0,0,0-.177-.312,1.541,1.541,0,0,0-2.35-.156,1.444,1.444,0,0,0-.2.275c-.059.081-.141.261-.21.387l-.433.832-.867,1.665-1.734,3.329q-3.46,6.662-7.03,13.269c-1.17,2.212-2.373,4.408-3.514,6.635l-.217.417a2.618,2.618,0,0,1-.287.422,2.149,2.149,0,0,1-.807.613,2.312,2.312,0,0,1-1.967-.037,2.735,2.735,0,0,1-1.261-1.479l-.837-1.68c-2.248-4.471-4.606-8.889-6.89-13.343l-.849-1.674a2.8,2.8,0,0,0-.418-.673,1.726,1.726,0,0,0-.584-.395,1.661,1.661,0,0,0-1.387.1,1.5,1.5,0,0,0-.522.469,1.982,1.982,0,0,0-.182.314l-.185.431-2.952,6.9c-2,4.59-4.016,9.17-6.135,13.709Z" transform="translate(-98.817 -38.467)" fill="#5504b0"/>
        <path id="Path_45558" data-name="Path 45558" d="M426.749,155.206a2.115,2.115,0,0,1-3.781-.028l-3.976-8.073-4.141,8.1a2.115,2.115,0,0,1-3.781-.028l-4.265-8.66-5.2,12.441h44.642L436.089,136.93ZM455.083,106.1l2.353,16.592c-.034.006-.074.006-.107.011-.238.023-.481.04-.719.051-.023,0-.045.006-.073.006a17.042,17.042,0,0,1-16.643-10.607.443.443,0,0,0-.028-.079c-.085-.215-.17-.436-.249-.656-.034-.1-.062-.2-.1-.3-.057-.158-.107-.311-.153-.475-.079-.266-.158-.532-.221-.8-.079-.305-.141-.611-.2-.916-.011-.068-.017-.136-.034-.2-.04-.243-.079-.492-.113-.735-.011-.062-.017-.124-.023-.187-.028-.255-.057-.509-.074-.769a1.114,1.114,0,0,1-.011-.141c-.017-.277-.034-.554-.034-.832a.348.348,0,0,1-.006-.074,17.062,17.062,0,0,1,.854-5.555c.011-.034.028-.068.04-.107.085-.243.17-.487.266-.73.023-.062.051-.124.074-.187.085-.221.181-.436.277-.645.034-.074.062-.147.1-.215q.153-.331.322-.645c.028-.062.057-.119.085-.175.147-.266.294-.532.453-.792.023-.04.051-.079.074-.119.136-.215.272-.43.413-.639.057-.079.113-.153.164-.232.028-.034.051-.074.079-.107Zm.492-1.228L442.626,94.827a17,17,0,0,1,23.262-2.693Zm4.181,17.413c-.356.085-.713.164-1.069.221l-2.348-16.564,10.534-13.006c.17.147.339.3.5.458.034.028.068.062.1.09.317.305.622.617.916.95a16.885,16.885,0,0,1,1.652,2.184c0,.006.006.006.006.011a16.7,16.7,0,0,1,1.267,2.4.267.267,0,0,0,.017.04c.164.385.317.781.453,1.188.023.068.045.136.068.209.13.4.255.8.356,1.211a17.025,17.025,0,0,1-12.451,20.609Z" transform="translate(-107.107 -12.038)" fill="#5504b0"/>
        <path id="Path_45559" data-name="Path 45559" d="M469.738,98.176l.311-.4c-.1.136-.2.266-.3.407Zm.775-1,.017.011c-.136.158-.272.322-.4.486Zm14.912,27.861.306-.034-.39.057v-.011A.434.434,0,0,1,485.426,125.036Zm.611-.079h.034l-.339.045C485.833,124.99,485.935,124.973,486.037,124.956Zm.554-.1.006.023-.526.074v-.006C486.246,124.922,486.421,124.894,486.591,124.86ZM493.8,94.481l.492.4-.006.006c-.164-.13-.328-.26-.5-.39Zm.984.8-.011.011c-.153-.136-.305-.266-.464-.4Z" transform="translate(-135.011 -14.397)" fill="#5504b0"/>
        <rect id="Rectangle_42074" data-name="Rectangle 42074" width="15.404" height="0.58" transform="translate(312.516 75.34)" fill="#5504b0"/>
        <path id="Path_45560" data-name="Path 45560" d="M454.494,99.949l-7.108-8.875H432.121v-.58h15.543l7.281,9.093Z" transform="translate(-119.605 -12.764)" fill="#5504b0"/>
        <rect id="Rectangle_42075" data-name="Rectangle 42075" width="15.404" height="0.58" transform="translate(312.516 80.121)" fill="#5504b0"/>
        <rect id="Rectangle_42076" data-name="Rectangle 42076" width="15.405" height="0.58" transform="translate(362.379 118.78)" fill="#5504b0"/>
        <path id="Path_45561" data-name="Path 45561" d="M526.827,150.391H511.283L504,141.3l.452-.363,7.108,8.876h15.265Z" transform="translate(-149.044 -33.423)" fill="#5504b0"/>
        <rect id="Rectangle_42077" data-name="Rectangle 42077" width="15.405" height="0.58" transform="translate(362.379 113.998)" fill="#5504b0"/>
      </g>
    </g>
  </g>
</svg>
