<svg xmlns="http://www.w3.org/2000/svg" width="312.645" height="254.682" xmlns:v="https://vecta.io/nano"><path d="M0 60.773l.483 5.508 15.39 175.6h296.772V12.804" fill="#fbd206"/><g fill="#5504b0"><path d="M99.821 225.801v15.074h8.621v-4.9s2.407-.638 6.258 2.606 18.28 8.162 21.415 2.3h0c-2.633 1.227-9.221 0-9.221 0-3.323-.942-6.393-2.617-8.985-4.9-2.646-2.271-5.982-3.582-9.467-3.72-5.346-.862-7.661-3.72-8.625-6.446m-16.2-179.59a15.02 15.02 0 0 0-1.861 7.132 31.89 31.89 0 0 0 .689 7.409c.399 2.55.286 5.154-.334 7.66-.593 2.486-1.508 4.883-2.724 7.131l-.235-.5a106.52 106.52 0 0 0 11.43 1.918 116.59 116.59 0 0 0 5.78.473c1.93.104 3.861.143 5.792.13 3.847.011 7.689-.296 11.486-.917 1.877-.318 3.72-.81 5.507-1.467 1.758-.636 3.385-1.589 4.8-2.81l-.18.352a17.45 17.45 0 0 0-.157-3.2c-.148-1.065-.342-2.233-.391-3.362a27.21 27.21 0 0 1 .5-6.785c.1-.552.265-1.128.325-1.61.053-.538.074-1.079.062-1.62-.018-1.1-.116-2.209-.228-3.315-.232-2.214-.537-4.427-.882-6.634-.005-.029.014-.056.043-.061s.054.013.061.04c.522 2.176.981 4.368 1.322 6.586.167 1.11.321 2.223.395 3.356a14.28 14.28 0 0 1 .016 1.728c-.063.63-.2 1.135-.284 1.684a26.27 26.27 0 0 0-.288 6.561 27.1 27.1 0 0 0 .181 1.631l.258 1.656c.079.564.143 1.131.184 1.7a11.49 11.49 0 0 1 .012 1.775c-.011.132-.072.255-.17.344l-.009.009c-1.519 1.323-3.277 2.341-5.18 3-1.86.651-3.777 1.128-5.725 1.426a46.54 46.54 0 0 1-5.829.575q-2.92.132-5.836.008c-1.942-.078-3.88-.186-5.812-.364l-5.788-.572-5.771-.71-5.762-.852c-.104-.018-.193-.084-.242-.177s-.051-.204-.006-.3l.013-.027a34.7 34.7 0 0 0 2.412-7.012c.262-1.204.446-2.423.551-3.65.027-.306.023-.612.036-.919a7.5 7.5 0 0 0 0-.918l-.046-.916-.124-.906c-.078-.6-.193-1.25-.287-1.872s-.145-1.266-.2-1.9a25.92 25.92 0 0 1 .041-3.82 17.19 17.19 0 0 1 .706-3.749c.354-1.226.921-2.38 1.675-3.409.017-.022.048-.026.071-.01s.03.046.016.07z"/><path d="M124.379 72.771l2.167 10.026 2.112 10.037-.349-.26 10.582-1.056-.371.406-.688-9.541q-.244-2.385-.527-4.767l-.447-4.811-.058-9.634a85.51 85.51 0 0 0-.351-9.548 51.58 51.58 0 0 0-1.866-9.349c-.458-1.506-1.198-2.912-2.179-4.143-.994-1.231-2.181-2.292-3.515-3.143-2.713-1.676-5.71-2.839-8.843-3.432-3.129-.628-6.319-.903-9.509-.82l.144-.08a11.67 11.67 0 0 1-3.258 2.977c-1.269.806-2.741 1.236-4.244 1.238-1.505-.04-2.972-.485-4.246-1.287a15.21 15.21 0 0 1-3.393-2.843l.147.09c-1.95-.442-3.942-.673-5.942-.689a23.07 23.07 0 0 0-5.921.665 15.78 15.78 0 0 0-5.344 2.449c-.788.582-1.515 1.243-2.168 1.973-.645.739-1.215 1.54-1.7 2.392l-.358.642-.313.668c-.216.435-.4.916-.594 1.379q-.587 1.4-1.134 2.805l-2.044 5.683c-1.331 3.771-2.059 7.728-2.158 11.725-.009 1 .074 1.962.1 3.021a62.46 62.46 0 0 1-.033 3.065q-.1 3.048-.289 6.083-.367 6.073-.956 12.128c-.216 2.019-.433 4.033-.751 6.055-.08.5-.166 1.012-.292 1.532s-.261.978-.382 1.471c-.248.973-.479 1.952-.663 2.931l-.124.731a5.16 5.16 0 0 0-.067.674c0 .024 0 .015-.008-.015-.012-.035-.029-.069-.05-.1a.45.45 0 0 0-.344-.177h.065l.19.009.377.017.754.028a56.07 56.07 0 0 0 3.013.018c1.002-.023 2-.078 2.986-.2a11.1 11.1 0 0 0 1.441-.264 2.7 2.7 0 0 0 1.173-.548l-.091.223c.129-2.047.32-4.077.549-6.108a107.84 107.84 0 0 1 .857-6.068c.344-2.015.775-4.015 1.319-5.986a23.17 23.17 0 0 1 2.243-5.695l.091.054a22.99 22.99 0 0 0-2.057 5.714c-.483 1.973-.85 3.975-1.135 5.987s-.543 4.03-.726 6.055-.336 4.056-.422 6.08l-.006.136-.085.087c-.424.393-.945.667-1.51.793a11.84 11.84 0 0 1-1.537.315 28.68 28.68 0 0 1-3.067.248 56.74 56.74 0 0 1-3.059.02l-.764-.019-.382-.013-.189-.007h-.029c-.151-.005-.291-.079-.38-.2-.03-.044-.053-.093-.068-.144a.66.66 0 0 1-.024-.123c0-.033-.006-.058-.006-.079a5.53 5.53 0 0 1 .065-.836 20.79 20.79 0 0 1 .12-.767 48.25 48.25 0 0 1 .639-3l.363-1.472c.101-.472.185-.957.257-1.453.286-1.982.479-4 .668-6.006.37-4.023.684-8.056.913-12.09q.179-3.026.272-6.05c.027-1.006.044-2.014.024-3.007-.023-.965-.114-2.023-.107-3.047a38.63 38.63 0 0 1 2.284-12.05c.634-1.938 1.348-3.844 2.105-5.729q.561-1.417 1.162-2.817c.2-.468.381-.934.617-1.405l.337-.7c.119-.231.257-.454.385-.681a14.41 14.41 0 0 1 4.184-4.6 16.62 16.62 0 0 1 5.668-2.5c2.007-.464 4.065-.666 6.124-.6a28.46 28.46 0 0 1 6.088.8l.086.021.061.069a14.72 14.72 0 0 0 3.221 2.789 7.88 7.88 0 0 0 3.973 1.279 7.5 7.5 0 0 0 4.03-1.106c1.224-.739 2.296-1.705 3.158-2.846l.059-.078h.085a43.49 43.49 0 0 1 9.592.877 26.4 26.4 0 0 1 8.994 3.413c1.374.87 2.606 1.946 3.653 3.191a12.97 12.97 0 0 1 2.351 4.262 51.9 51.9 0 0 1 2.076 9.43c.374 3.198.543 6.417.505 9.637 0 3.208-.068 6.4.116 9.579s.636 6.344.911 9.543c.291 3.2.559 6.385.619 9.627l.007.372-.378.034-10.6.891-.3.025-.054-.285-1.9-10.079-1.845-10.09z"/><path d="M64.208 100.366l-.192 4.691-.251 4.686-.283 4.684-.32 4.681v.052l-.039.108-.472 1.271c-.107.445-.268.871-.332 1.33-.188.905-.316 1.822-.383 2.744-.139 1.864-.156 3.734-.051 5.6.101 1.876.303 3.746.605 5.6l.266 1.38a4.19 4.19 0 0 0 .439 1.277 3.34 3.34 0 0 0 2.116 1.524l.087.019.039.078.2.4.237.375c.168.234.379.435.62.593a1.4 1.4 0 0 0 .792.212c.278-.011.548-.095.784-.243l.143-.091.1.136a1.12 1.12 0 0 0 .684.391 3.09 3.09 0 0 0 .873.063h-.015a.8.8 0 0 0 .444-.268c.115-.157.198-.336.244-.525.097-.411.135-.833.112-1.255a15.28 15.28 0 0 0-.369-2.577c-.385-1.707-.881-3.388-1.484-5.031l-.02-.055v-.063a4.52 4.52 0 0 1 .1-1.07c.084-.398.286-.762.579-1.045a1.8 1.8 0 0 1 1.155-.437 3.14 3.14 0 0 1 1.116.167c.712.243 1.329.704 1.764 1.318a3.91 3.91 0 0 1 .514.977l.346.912.751 1.762c.279.556.631 1.1.974 1.221.198.061.413.046.6-.044.082-.028.076-.031.076-.031.01-.008.017-.018.02-.03a.75.75 0 0 0 .06-.263c-.005-.591-.103-1.178-.29-1.739l-.632-1.806-.759-1.814a6.51 6.51 0 0 1-.415-2.1l-.009-.988a7.11 7.11 0 0 0-.086-.9 20.97 20.97 0 0 0-3.039-6.947l-.108-.174.024-.171 1.366-9.875 1.49-9.859.105.013-.918 9.929-1.043 9.914-.084-.345a25.7 25.7 0 0 1 2 3.477 15.8 15.8 0 0 1 1.325 3.848 8.24 8.24 0 0 1 .1 1.057l.007.977c.016.594.129 1.182.337 1.739a29.48 29.48 0 0 1 1.377 3.732c.216.688.316 1.408.295 2.129a1.72 1.72 0 0 1-.2.677 1.07 1.07 0 0 1-.294.342 1.14 1.14 0 0 1-.363.183 1.84 1.84 0 0 1-1.316.018 2.27 2.27 0 0 1-.955-.807 6.31 6.31 0 0 1-.534-.926c-.3-.62-.533-1.242-.762-1.864l-.327-.935c-.088-.273-.214-.531-.376-.768a2.71 2.71 0 0 0-1.3-1.036c-.47-.226-1.021-.202-1.469.065-.359.42-.536.966-.493 1.517l-.02-.117a43.8 43.8 0 0 1 1.3 5.168 15.7 15.7 0 0 1 .282 2.666c.013.46-.038.92-.149 1.367a1.83 1.83 0 0 1-.323.658 1.17 1.17 0 0 1-.671.39h-.008-.008a3.43 3.43 0 0 1-.985-.084 1.45 1.45 0 0 1-.885-.545l.238.045a1.91 1.91 0 0 1-.967.292 1.8 1.8 0 0 1-.969-.265c-.279-.177-.523-.405-.719-.672l-.262-.405-.22-.425.126.1c-.988-.209-1.852-.804-2.4-1.652-.245-.429-.424-.892-.532-1.374l-.335-1.392c-.392-1.863-.681-3.746-.866-5.641a34.14 34.14 0 0 1-.125-5.731 16.04 16.04 0 0 1 1.311-5.659l-.042.159.4-4.675.439-4.672.47-4.669.53-4.665z"/><path d="M65.173 129.129a29.36 29.36 0 0 0 1.914 6.123 13.99 13.99 0 0 1 1.065 3.071 12.37 12.37 0 0 1 .279 3.273l-.527-.06a11.97 11.97 0 0 0-.143-3.137c-.187-1.047-.495-2.068-.919-3.043a29.44 29.44 0 0 1-1.67-6.227zm-1.503 3.569l1.863 7.407-.518.112zm73.966-40.647v5.441l-.056 5.439-.181 10.873-.284 10.864-.027 2.71.047 1.334a2.84 2.84 0 0 0 .455 1.159c.88 1.558 2.04 2.971 2.926 4.587l.134.244h-.28-1.8l.152-.216 1.6 4.957a22.22 22.22 0 0 1 .588 2.56 5.4 5.4 0 0 1 .056.679 1.3 1.3 0 0 1-.181.783.54.54 0 0 1-.256.176c-.052.014-.105.025-.158.031h-.086a2.9 2.9 0 0 1-.349-.016 2.47 2.47 0 0 1-.705-.166 4.69 4.69 0 0 1-1.973-1.9 17.98 17.98 0 0 1-1.243-2.338c-.718-1.6-1.3-3.246-1.858-4.895l.459.32-4.7.26-.523.029v-.536l-.112-20.793-.16-10.392q-.066-2.6-.21-5.188l-.193-2.586a14.74 14.74 0 0 0-.423-2.546l.1-.037c.286.826.489 1.679.607 2.545l.353 2.586.453 5.194c.252 3.466.364 6.936.488 10.405l.177 10.41-.073 10.411-.526-.507 4.708-.172.357-.013.1.333c.5 1.647 1.046 3.282 1.691 4.866a17.24 17.24 0 0 0 1.1 2.293 4.11 4.11 0 0 0 1.624 1.733 1.91 1.91 0 0 0 .549.149 2.37 2.37 0 0 0 .3.024h.076a.87.87 0 0 0 .101-.467 5.07 5.07 0 0 0-.029-.616 18.77 18.77 0 0 0-.5-2.517 70.13 70.13 0 0 0-1.528-4.949l-.075-.215h.226 1.8l-.147.243c-.866-1.565-2.061-2.946-3.03-4.508q-.182-.295-.346-.607a2.53 2.53 0 0 1-.149-.333c-.039-.127-.065-.257-.079-.389-.063-.472-.084-.922-.11-1.38-.046-.911-.072-1.82-.091-2.728q-.123-5.448.041-10.887l.41-10.873.286-5.433.373-5.429z"/><path d="M138.361 134.618l-.877-2.893 1.3 2.731zm-4.157.088l-.719-3.775 1.724 3.435zm-4.316-.279s-3.316 64.73-10.054 81.277c-22.725 6.131-46.343 8.271-69.8 6.324q6.82-41.341 13.64-82.677a3.6 3.6 0 0 0 1.6.812c1.178 2.594 2.886 1.406 2.886 1.406.43.647 1.714.541 1.714.541 2.568-.435-.748-9.953-.748-9.953 0-1.947.987-2.271 1.979-2.106a3.2 3.2 0 0 1 2.44 2.127c1.284 3.618 1.947 4.78 3.39 4.2 1.125-.456-.249-4.016-1.167-6.106a6.16 6.16 0 0 1-.472-2.748c.138-3.5-3.284-8.5-3.284-8.5l2.409-19.789s.8-17.359 4.653-23.847c0 0 34.659 7.136 45.249-2.594l4.011 20.112c1.877 5.077 1.554 41.521 1.554 41.521z"/><path d="M140.372 134.514l3.137-.167.784-.032.408-.011a1.04 1.04 0 0 1 .438.131c.274.154.466.422.524.732.039.319.019.539.032.814l.046 6.28-.01 1.57-.005.785-.005.393v.2c-.002.08-.011.159-.028.237a1.11 1.11 0 0 1-.568.735c-.142.072-.298.112-.457.117l-.4-.005-1.57-.032q-3.14-.071-6.28-.056h-.026l-.025-.017c-.7-.509-1.473-.909-2.293-1.185a1.43 1.43 0 0 0-1.162.028c-.272.287-.384.689-.3 1.075l.036.454-.307-.343-1.159-1.193a6.09 6.09 0 0 0-1.279-.983.61.61 0 0 0-.285-.077c-.041.006-.045.009-.075.116-.013.09-.02.254-.029.39l-.026.416a3.26 3.26 0 0 0 .21 1.541 9.78 9.78 0 0 0 1.931 2.61 1.06 1.06 0 0 0 1.2.366c.384-.14.5-.642.453-1.156l-.055-.643.508.41a4.84 4.84 0 0 0 1.421.832c.215.084.452.091.671.02.186-.11.317-.294.361-.506l.214-.656.286.615c.405.913.92 1.772 1.534 2.56a3.62 3.62 0 0 0 1.075.942 1.08 1.08 0 0 0 1.226-.1 2.93 2.93 0 0 0 .84-1.149c.171-.465.27-.955.293-1.45.043-1.015-.087-2.029-.384-3l.05-.018a9.1 9.1 0 0 1 .575 3.021 5.11 5.11 0 0 1-.248 1.55 3.26 3.26 0 0 1-.9 1.331 1.47 1.47 0 0 1-.788.353 1.62 1.62 0 0 1-.85-.162c-.479-.254-.903-.602-1.244-1.024a12.2 12.2 0 0 1-1.669-2.64l.5-.041a1.29 1.29 0 0 1-.655.86c-.339.129-.712.132-1.053.008a5.33 5.33 0 0 1-1.616-.927l.453-.233a2.4 2.4 0 0 1-.088.942 1.25 1.25 0 0 1-.7.775c-.651.244-1.385.038-1.814-.51a10.2 10.2 0 0 1-1.994-2.8c-.215-.559-.289-1.163-.215-1.758l.04-.421.05-.445c.024-.103.069-.199.133-.283a.49.49 0 0 1 .325-.165c.181-.005.36.04.516.131a6.37 6.37 0 0 1 1.346 1.095l1.142 1.252-.271.111c-.016-.235.002-.47.053-.7.052-.249.194-.47.4-.62.212-.13.46-.186.707-.16a2.68 2.68 0 0 1 .67.139 9.48 9.48 0 0 1 2.337 1.254l-.051-.017q3.14.02 6.28-.056l1.57-.032.384-.01a.7.7 0 0 0 .294-.088.71.71 0 0 0 .343-.483l-.013-3.1.046-6.28v-.755a.73.73 0 0 0-.342-.517c-.21-.106-.448-.144-.681-.108h-.785l-3.141-.035z"/><path d="M132.457 146.104c.332.243.601.563.783.932.199.361.306.765.313 1.177-.333-.242-.602-.562-.783-.932-.197-.361-.305-.765-.313-1.177zm3.958 0c.186.356.282.752.278 1.153a2.41 2.41 0 0 1-.252 1.159 2.41 2.41 0 0 1-.279-1.153c-.013-.401.074-.799.252-1.159zM110.472 32.562c-.194-.755-.292-1.532-.291-2.312-.004-.416.077-.828.238-1.212a.9.9 0 0 1 .191-.293.81.81 0 0 1 .294-.234 1.35 1.35 0 0 1 .69-.13l2.282.071a6.53 6.53 0 0 0 2.126-.369 3.9 3.9 0 0 0 1.653-1.179c.209-.275.383-.574.518-.892a4.91 4.91 0 0 0 .335-1 16.88 16.88 0 0 0 .3-2.205l.245-2.285c.464-3.016.493-6.083.088-9.108-.254-1.5-.698-2.962-1.32-4.351a19.94 19.94 0 0 0-2.418-3.828l.571-.089a39.7 39.7 0 0 1-1.551 3.9c-.574 1.283-1.228 2.53-1.958 3.732a18.45 18.45 0 0 1-2.589 3.41 7.43 7.43 0 0 1-1.789 1.344 4.09 4.09 0 0 1-2.323.5.57.57 0 0 1-.432-.283v-.005a12.32 12.32 0 0 0-2.552-3.316c-.225-.194-.488-.338-.773-.422a.72.72 0 0 0-.647.131c-.448.472-.754 1.062-.881 1.7a7.46 7.46 0 0 0-.239 1.029 6.05 6.05 0 0 0-.108 1.045 5.5 5.5 0 0 0 .354 2.051c.531 1.346 1.623 2.394 2.991 2.868l-.012.105c-.752-.136-1.454-.469-2.034-.966-.603-.485-1.093-1.096-1.435-1.79a6.11 6.11 0 0 1-.557-2.254 6.77 6.77 0 0 1 .036-1.162 6.62 6.62 0 0 1 .2-1.139 5.72 5.72 0 0 1 .358-1.125c.163-.407.414-.773.735-1.071a1.69 1.69 0 0 1 1.43-.37c.434.097.841.288 1.192.56a8.46 8.46 0 0 1 1.647 1.68c.467.605.895 1.24 1.28 1.9l-.435-.289a4.4 4.4 0 0 0 3.218-1.517 17.43 17.43 0 0 0 2.506-3.149 41.44 41.44 0 0 0 2.022-3.575l1.726-3.746.012-.029a.32.32 0 0 1 .559-.059 21.6 21.6 0 0 1 2.257 4.072c.577 1.436 1.008 2.927 1.285 4.45a39.12 39.12 0 0 1 .434 9.236l-.155 2.3a15.25 15.25 0 0 1-.313 2.348c-.096.402-.234.792-.412 1.165-.173.385-.393.746-.656 1.076-.552.648-1.273 1.131-2.083 1.395a10.58 10.58 0 0 1-4.708.088.82.82 0 0 0-.429.032c-.062.02-.118.057-.159.108-.057.047-.104.106-.137.173a2.67 2.67 0 0 0-.3 1.006 11.1 11.1 0 0 0 .028 2.267z"/><path d="M99.497 25.91c-5.789-2.749-9.187-16.069-2.554-22.883s18.72 0 18.72 0-4.707 12.978-9.841 12.437c0 0-4.065-7.354-5.669-2.055s2.353 7.354 3.316 7.462zM42.369 253.4a2.07 2.07 0 0 1-1.613-.62c-1.573-1.734.483-6.471.571-6.671.152-.334 3.71-8.148 4.829-9.925 1.1-1.752 6.707-13.9 6.764-14.018l.407.188c-.231.5-5.674 12.293-6.792 14.069-1.1 1.751-4.762 9.788-4.8 9.869-.019.044-2.027 4.668-.648 6.188.522.574 1.512.627 2.941.158 6.166-2.026 6.423-5.122 6.425-5.153v-.065l.038-.054c.629-.87 6.189-8.511 7.818-9a10.6 10.6 0 0 0 2.872-1.777 40.8 40.8 0 0 1 3.5-2.419c2.35-1.425 2.139-5.469 1.969-8.717-.052-1-.1-1.951-.071-2.734l.447.018c-.029.762.02 1.7.071 2.692.176 3.368.4 7.56-2.184 9.124a40.03 40.03 0 0 0-3.458 2.393 10.82 10.82 0 0 1-3.011 1.847c-1.248.378-5.837 6.425-7.55 8.79-.061.51-.678 3.5-6.726 5.484a5.89 5.89 0 0 1-1.799.334z"/><path d="M40.387 251.394s.985 6.009 7.4 1.788a24.5 24.5 0 0 0 7.506-7.658 18.75 18.75 0 0 1 5.022-5.566c1.251-.9 2.554-1.562 3.518-1.38v2.758l5.937-2.788s1.626-7.422-2.958-11.483l.14.149c.088 2.89-.117 5.91-2.156 7.146-3.209 1.947-4.814 3.731-6.418 4.218s-7.7 8.922-7.7 8.922-.16 3.244-6.579 5.353c-2.192.72-3.186.173-3.545-.861m91.944-10.35a35.1 35.1 0 0 1-5.645-.547 23.59 23.59 0 0 1-9.094-4.957 15.35 15.35 0 0 0-9.315-3.663h0c-3.485-.559-6.044-1.993-7.643-4.265a11.65 11.65 0 0 1-1.719-8.133l.441.082a11.4 11.4 0 0 0 1.647 7.8c1.527 2.168 3.986 3.538 7.309 4.074a15.72 15.72 0 0 1 9.581 3.774 23.1 23.1 0 0 0 8.888 4.852c2.436.454 8.989 1.215 9.9-.713.359-.755-.018-2.334-3.845-5.576l-.045-.038-.02-.056c-.064-.173-1.628-4.233-7.17-4.233h-.086l-.064-.058c-.359-.326-8.807-8.032-9.815-13.25l.44-.085c.935 4.842 8.824 12.217 9.613 12.945a7.85 7.85 0 0 1 7.48 4.468c3.262 2.771 4.543 4.758 3.918 6.074-.556 1.171-2.614 1.502-4.755 1.502z"/><path d="M117.909 235.969c2.592 2.283 5.663 3.958 8.986 4.9a11.68 11.68 0 0 1 6.258-6.677s-1.6-4.38-7.381-4.38c-3.471.639-6.408 2.938-7.862 6.154zm-15.8-209.221c4.326 0 4.333-6.722 0-6.722s-4.342 6.722-.005 6.722zm11.793-4.821q.7.3 1.387.539a4.54 4.54 0 0 0 1.383.27 1.3 1.3 0 0 0 1.126-.524 3.67 3.67 0 0 0 .517-1.339 2.5 2.5 0 0 1-.222 1.528 1.44 1.44 0 0 1-.6.595c-.254.125-.534.189-.818.188-.529-.02-1.048-.156-1.518-.4a5 5 0 0 1-1.259-.857zm-3.637-8.972a6.95 6.95 0 0 1 2.747-.468 5.99 5.99 0 0 1 1.4.206 3.51 3.51 0 0 1 1.256.636c-.866-.255-1.764-.388-2.667-.395-.905-.028-1.807.014-2.74.021zm9.948.725a3.96 3.96 0 0 0-1.156-.055 2.19 2.19 0 0 0-1.042.333c-.144.093-.272.208-.38.341-.086.131-.133.283-.137.439.018.352.128.694.319.99.193.33.411.644.651.941.249.331.437.703.556 1.1.056.208.078.423.064.638-.024.219-.109.427-.245.6-.291.294-.678.473-1.09.506.364-.11.683-.333.912-.636a1.1 1.1 0 0 0 .03-1.008 3.81 3.81 0 0 0-.565-.951c-.26-.306-.494-.633-.7-.978-.229-.37-.351-.797-.352-1.232.018-.237.104-.463.247-.653.145-.167.322-.303.521-.4a2.79 2.79 0 0 1 2.369.02zm-4.76 4.569c-.075.366-.1.636.011.788.072.104.159.196.259.273a4.69 4.69 0 0 1 .386.319 1.06 1.06 0 0 1-.542-.006c-.199-.055-.372-.181-.486-.354a.68.68 0 0 1-.031-.637.75.75 0 0 1 .399-.382zm-1.9-2.41c.274.01.527-.148.639-.399s.06-.544-.131-.741-.482-.259-.736-.156-.421.35-.421.624c0 .361.285.659.646.673z"/><path d="M119.139 15.948c.274.01.527-.148.639-.399s.06-.544-.131-.741-.482-.259-.736-.156-.421.35-.421.624c0 .362.287.659.649.672zm-20.467 7.941a3 3 0 0 0 .916 1.714c-1.974 6.494-3.824 6.93-3.824 6.93l-16.773 1.844c10.986-17.718 2.416-16.343 7.388-26.566S97.79 2.256 97.79 2.256l2.885 17.871c-.174.059-.341.135-.5.226-.598.348-1.061.888-1.312 1.533-.251.636-.317 1.331-.19 2.003z"/><path d="M100.798 20.873l-1.2 4.729c-.283-.55-.447-1.153-.481-1.771-.035-.593.061-1.186.283-1.737a3.13 3.13 0 0 1 1.03-1.375c.101-.076.207-.146.317-.209z"/><path d="M100.794 20.872l1.813 1.281 1.81 1.193.911.591.914.6a20.57 20.57 0 0 1 1.827 1.307c-.758-.093-1.5-.285-2.207-.572a11.5 11.5 0 0 1-2.023-1.04 10.33 10.33 0 0 1-1.766-1.454 5.72 5.72 0 0 1-1.279-1.906zM46.346 236.304s5.455-1.622 12.034 2.271l-7.7 8.922a7.09 7.09 0 0 0-9.146-1.3zM286.03 100.756l-32.69.869-33.257.594-16.753.171-8.389.068-8.4.007c-5.6.021-11.213-.061-16.81-.113l-16.776-.32-1.456-.036.03-1.39.531-24.347.177-12.173.07-12.173q.017-12.173-.116-24.347l-.4-24.347-.018-1.139 1.18-.023 33.232-.61 33.232-.291 16.616-.124 8.308-.062 8.308-.012 16.616.005 16.616.1 2.164.013-.01 2.141-.283 24.7-.471 24.57-.591 24.316zm-.3-.3l-.659-24.746-.591-24.377-.467-24.12-.283-23.99 2.154 2.154-16.616.1-16.616.005-8.308-.012-8.308-.062-16.616-.124-33.232-.291-33.232-.61 1.162-1.162-.4 24.347-.116 24.347.07 12.173.177 12.173.531 24.347-1.426-1.426 16.456-.32 16.422-.113 8.212.007 8.227.068 16.479.171q16.512.221 33.208.594l33.772.867zM162.353 46.622c4.186-.344 8.371-.523 12.557-.646 2.093-.077 4.186-.094 6.278-.139l6.278-.046 6.278.044 6.278.138c4.186.122 8.371.3 12.557.648-4.186.346-8.371.526-12.557.648-2.093.077-4.186.092-6.278.138l-6.278.044-6.278-.046-6.278-.139c-4.187-.12-8.372-.3-12.557-.644z"/><path d="M166.506 12.485l.646 9.78.139 4.89.046 4.89-.044 4.89-.138 4.89-.648 9.78-.648-9.78-.138-4.89-.044-4.89.046-4.89.139-4.89.644-9.78zm13.549 34.377l-4.508.224-4.689.114h-.364v-.371l.049-3.8.149-3.8.033-3.8-.09-3.8-.007-.218.235-.01q2.292-.094 4.584-.139l4.584-.066.429-.006v.439l-.007 3.885-.092 3.861-.306 7.487zm-.059-.059l-.305-7.716-.092-3.746-.007-3.722.433.433-4.584-.066q-2.292-.046-4.584-.139l.227-.227-.09 3.8.033 3.8.149 3.8.049 3.8-.368-.368 4.479.114 4.661.237z"/><path d="M189.204 46.862l-4.524.188-4.674.124h-.337v-.345l-.021-5.66.15-5.66q.1-2.83.082-5.66l-.027-2.83-.069-2.83-.005-.221.233-.007 4.584-.113 4.584-.063h.4v.408l.033 5.743-.077 5.726-.142 5.659zm-.059-.059l-.187-5.778-.142-5.662-.077-5.595.033-5.577.4.4-4.584-.063-4.584-.113.227-.227-.069 2.83-.027 2.83q-.018 2.83.082 5.66l.15 5.66-.021 5.66-.341-.341 4.494.124 4.645.188z"/><path d="M198.376 46.862l-4.528.176-4.669.122h-.322l-.005-.33-.042-6.494.143-6.494.1-6.494-.026-3.247-.072-3.247v-.221l.232-.006 9.168-.167h.392v.4l.041 6.577L198.72 34l-.144 6.493zm-.059-.059l-.193-6.616-.144-6.495-.069-6.425.041-6.411.394.394-9.168-.167.227-.227-.072 3.247-.026 3.247.1 6.494.143 6.494-.042 6.494-.327-.327 4.5.122z"/><path d="M207.541 46.862l-4.524.188-4.674.124h-.337v-.345l-.021-5.66.15-5.66q.1-2.83.082-5.66l-.027-2.83-.069-2.83-.014-.217.233-.007 4.584-.113 4.584-.063h.4v.408l.033 5.743-.077 5.726-.142 5.659zm-.059-.059l-.187-5.778-.142-5.662-.077-5.595.033-5.577.4.4-4.584-.063-4.584-.113.227-.227-.069 2.83-.027 2.83q-.018 2.83.082 5.66l.15 5.66-.021 5.66-.341-.341 4.494.124 4.646.192zm-12.958 40.769c1.74-4.7 3.58-9.352 5.444-14l2.837-6.951.177-.434a2.98 2.98 0 0 1 .276-.5c.216-.326.509-.593.853-.779.687-.378 1.506-.434 2.238-.153a2.72 2.72 0 0 1 .955.651c.233.275.423.585.564.917l.81 1.693 6.378 13.6.822 1.687a4.29 4.29 0 0 0 .436.788 1.72 1.72 0 0 0 .665.533c.525.251 1.135.255 1.663.011.261-.117.489-.295.666-.519a2.24 2.24 0 0 0 .236-.355l.211-.419 3.319-6.735q3.273-6.758 6.637-13.47l1.683-3.355.841-1.678.421-.839c.079-.149.12-.258.231-.441a2.61 2.61 0 0 1 .346-.484 2.7 2.7 0 0 1 4.191.254 3.51 3.51 0 0 1 .287.5l.2.426.394.852.785 1.7 12.082 27.5-.1.047c-4.515-8.941-8.824-17.976-13.067-27.042l-.787-1.7-.392-.853-.2-.426c-.051-.109-.11-.213-.177-.312a1.54 1.54 0 0 0-2.35-.156c-.077.083-.144.176-.2.275-.059.081-.141.261-.21.387l-.433.832-.867 1.665-1.734 3.329q-3.46 6.662-7.03 13.269l-3.514 6.635-.217.417a2.62 2.62 0 0 1-.287.422 2.15 2.15 0 0 1-.807.613 2.31 2.31 0 0 1-1.967-.037c-.587-.322-1.036-.848-1.261-1.479l-.837-1.68-6.89-13.343-.849-1.674c-.107-.243-.248-.47-.418-.673-.165-.17-.364-.305-.584-.395a1.66 1.66 0 0 0-1.387.1 1.5 1.5 0 0 0-.522.469c-.07.099-.131.204-.182.314l-.184.431-2.952 6.9-6.135 13.709z"/><path d="M182.627 87.569c1.74-4.7 3.58-9.352 5.444-14l2.837-6.951.177-.434c.076-.175.168-.343.276-.5.216-.326.509-.593.853-.779.687-.378 1.506-.435 2.238-.154a2.72 2.72 0 0 1 .955.651c.233.275.423.585.564.917l.81 1.693 6.378 13.6.822 1.687a4.29 4.29 0 0 0 .436.788 1.72 1.72 0 0 0 .664.533c.525.251 1.135.255 1.663.011.261-.117.489-.295.666-.519.09-.111.169-.229.236-.355l.211-.419 3.319-6.735q3.273-6.758 6.637-13.47l1.683-3.355.842-1.678.421-.839c.079-.149.12-.258.231-.441a2.6 2.6 0 0 1 .346-.484 2.7 2.7 0 0 1 4.191.254 3.51 3.51 0 0 1 .287.5l.2.426.394.852.785 1.7 12.082 27.5-.1.047c-4.515-8.941-8.824-17.976-13.066-27.042l-.787-1.7-.392-.853-.2-.426a2.23 2.23 0 0 0-.177-.312 1.54 1.54 0 0 0-2.35-.156c-.077.083-.144.176-.2.275-.059.081-.141.261-.21.387l-.433.832-.867 1.665-1.734 3.329q-3.46 6.662-7.03 13.269l-3.514 6.635-.217.417a2.62 2.62 0 0 1-.287.422 2.15 2.15 0 0 1-.807.613 2.31 2.31 0 0 1-1.967-.037c-.587-.322-1.036-.848-1.261-1.479l-.837-1.68-6.89-13.343-.849-1.674a2.8 2.8 0 0 0-.418-.673c-.165-.17-.364-.305-.584-.395a1.66 1.66 0 0 0-1.387.1 1.5 1.5 0 0 0-.522.469 1.98 1.98 0 0 0-.182.314l-.185.431-2.952 6.9-6.135 13.709z"/><path d="M219.72 83.838c-.364.713-1.099 1.159-1.899 1.153s-1.528-.463-1.882-1.181l-3.976-8.073-4.141 8.1c-.364.713-1.099 1.159-1.899 1.153s-1.528-.463-1.882-1.181l-4.265-8.66-5.2 12.441h44.642L229.06 65.562zm28.334-49.106l2.353 16.592c-.034.006-.074.006-.107.011l-.719.051c-.023 0-.045.006-.073.006-7.239.363-13.915-3.892-16.643-10.607-.007-.027-.016-.054-.028-.079l-.249-.656c-.034-.1-.062-.2-.1-.3-.057-.158-.107-.311-.153-.475-.079-.266-.158-.532-.221-.8a15 15 0 0 1-.2-.916c-.011-.068-.017-.136-.034-.2l-.113-.735a2.33 2.33 0 0 1-.023-.187l-.074-.769c-.007-.047-.01-.094-.011-.141-.017-.277-.034-.554-.034-.832-.005-.024-.007-.049-.006-.074a17.06 17.06 0 0 1 .854-5.555c.011-.034.028-.068.04-.107l.266-.73c.023-.062.051-.124.074-.187a11.07 11.07 0 0 1 .277-.645c.034-.074.062-.147.1-.215q.153-.331.322-.645c.028-.062.057-.119.085-.175.147-.266.294-.532.453-.792.023-.04.051-.079.074-.119l.413-.639c.057-.079.113-.153.164-.232.028-.034.051-.074.079-.107zm.492-1.228l-12.949-10.045c5.801-6.946 16.027-8.13 23.262-2.693zm4.181 17.413a14.49 14.49 0 0 1-1.069.221l-2.348-16.564 10.534-13.006c.17.147.339.3.5.458.034.028.068.062.1.09.317.305.622.617.916.95.609.682 1.161 1.412 1.652 2.184s.916 1.578 1.273 2.411c.005.014.01.027.017.04.164.385.317.781.453 1.188l.068.209a17.18 17.18 0 0 1 .356 1.211c1.082 4.384.378 9.018-1.957 12.883s-6.11 6.644-10.494 7.726z"/><path d="M234.805 24.449l.311-.4-.3.407zm.775-1l.017.011-.4.486zm14.912 27.861l.306-.034-.39.057v-.011c.028-.007.056-.011.085-.013zm.611-.079h.034l-.339.045.306-.047zm.554-.1l.006.023-.526.074v-.006l.521-.089zm7.21-30.377l.492.4-.006.006-.5-.39zm.984.8l-.011.011-.464-.4zm-47.257-5.544h15.404v.58h-15.404zm22.373 11.845l-7.108-8.875h-15.265v-.58h15.543l7.281 9.093zm-22.373-7.064h15.404v.58h-15.404zm49.863 38.659h15.405v.58h-15.405zm15.404-1.812h-15.544l-7.283-9.091.452-.363 7.108 8.876h15.265zm-15.404-2.97h15.405v.58h-15.405z"/></g></svg>