<svg xmlns="http://www.w3.org/2000/svg" width="429.429" height="457.845" stroke="#263238" stroke-linejoin="round" xmlns:v="https://vecta.io/nano"><path d="M275.488 58.572H141.343a16.06 16.06 0 0 0-16.052 16.514l4.789 169.006-5.257 37.334h167.421l-7.885-37.331 7.173-168.78a16.06 16.06 0 0 0-16.044-16.743z" fill="#fff"/><path d="M269.37 68.754H147.483c-8.222 0-14.819 7.089-14.588 15.676l4.353 160.427-4.773 35.436h152.121l-7.165-35.436 6.518-160.212c.353-8.666-6.274-15.891-14.579-15.891z" fill="#263238"/><g fill="#fff"><path d="M124.068 200.999l-8.542 77.538h7.228l8.542-77.538zm168.218 0l8.542 77.538H293.6l-8.542-77.538z"/><path d="M117.835 186.401h20.351c.627 0 1.136.509 1.136 1.136v13.564c0 .627-.509 1.136-1.136 1.136h-20.351c-.628 0-1.136-.508-1.137-1.136v-13.563c0-.628.509-1.137 1.137-1.137z"/></g><path d="M136.335 186.402h-16.649a2.99 2.99 0 0 0-2.988 2.986v8.989h22.625v-8.989a2.99 2.99 0 0 0-2.988-2.986z" fill="#fbd206"/><path d="M278.625 186.401h20.352c.302 0 .591.12.804.333s.333.502.333.804v13.563c0 .627-.509 1.136-1.136 1.136h-20.353c-.627 0-1.136-.509-1.136-1.136v-13.564c0-.627.509-1.136 1.136-1.136z" fill="#fff"/><path d="M297.127 186.402h-16.651a2.99 2.99 0 0 0-2.988 2.986v8.989h22.63v-8.989c0-.793-.316-1.553-.877-2.113s-1.322-.874-2.114-.873z" fill="#fbd206"/><path d="M205.674 394.845s-65.053 32.855-66.367 40.083 0 16.427 0 16.427l2.3-2.3 6.24-14.784 58.482-27.6z" fill="#fff"/><circle cx="143.907" cy="448.726" fill="#263238" r="7.228"/><path d="M224.731 394.845s65.053 32.855 66.367 40.083 0 16.427 0 16.427l-2.3-2.3-6.242-14.784-58.482-27.6z" fill="#fff"/><circle cx="286.498" cy="448.726" fill="#263238" r="7.228"/><path fill="#fff" d="M208.96 287.737h10.514v114.335H208.96z"/><path fill="#263238" d="M199.104 298.907h30.884v21.027h-30.884z"/><path d="M300.3 277.778c-25.551-2.342-109.975-8.8-185.783-.045a3.3 3.3 0 0 0-1.59 5.909c8.711 6.708 31.394 18.007 87.118 21.18 59.594 3.391 90.023-12.519 101.89-21.1a3.29 3.29 0 0 0-1.635-5.944z" fill="#fff"/><path d="M112.863 283.589l.266.205h188.693l.126-.092a3.29 3.29 0 0 0-1.653-5.924c-25.556-2.345-109.97-8.8-185.773-.047a3.3 3.3 0 0 0-1.659 5.858z" fill="#fbd206"/><path fill="#263238" d="M202.389 384.33h24.313v25.627h-24.313z"/><path fill="#fff" d="M211.917 397.144h3.614v58.81h-3.614z"/><path fill="#263238" d="M210.516 440.617h6.367v15.403h-6.367z"/><g fill="#fff"><path d="M287.221 170.529H139.407v-5.18h147.814z"/><rect width="175.78" height="152.079" rx="3.753" x="119.562" y=".5"/></g><path fill="#263238" d="M193.271 83.559h28.363v86.86h-28.363z"/><g fill="#fff"><path d="M22.773 184.696l11.2 28.826c3.971 8.177 5.522 22.079 4.466 31.11l-26.269 208.2c-.143 1.143.211 2.292.973 3.155s1.858 1.358 3.009 1.358h0a4.01 4.01 0 0 0 3.943-3.27l50.163-266.6H51.875l-3.23 15.334a2.59 2.59 0 0 1-5 .252l-6.214-19.526zm382.482 0l-11.197 28.826c-3.971 8.177-5.522 22.079-4.466 31.11l26.268 208.2c.143 1.143-.211 2.292-.973 3.155s-1.858 1.358-3.009 1.358h0a4.01 4.01 0 0 1-3.943-3.27l-50.163-266.6h18.383l3.228 15.334a2.59 2.59 0 0 0 5 .252l6.214-19.526z"/><path d="M.5 170.294h428.429v17.085H.5z"/></g></svg>