<svg xmlns="http://www.w3.org/2000/svg" width="429.429" height="457.845" viewBox="0 0 429.429 457.845">
  <g id="Group_5517" data-name="Group 5517" transform="translate(-731.5 -12183.655)">
    <g id="Group_5516" data-name="Group 5516" transform="translate(843.104 12242.227)">
      <g id="Group_63" data-name="Group 63" transform="translate(13.219 0)">
        <path id="Path_70" data-name="Path 70" d="M509.452,279.446H375.307a16.058,16.058,0,0,0-16.052,16.514l4.789,169.006L358.787,502.3H526.208l-7.885-37.331,7.173-168.78A16.058,16.058,0,0,0,509.452,279.446Z" transform="translate(-358.787 -279.446)" fill="#fff" stroke="#263238" stroke-linecap="round" stroke-linejoin="round" stroke-width="1"/>
        <path id="Path_71" data-name="Path 71" d="M498.595,283.32H376.708c-8.222,0-14.819,7.089-14.588,15.676l4.353,160.427L361.7,494.859H513.821l-7.165-35.436,6.518-160.212C513.527,290.545,506.9,283.32,498.595,283.32Z" transform="translate(-354.048 -273.138)" fill="#263238" stroke="#263238" stroke-linecap="round" stroke-linejoin="round" stroke-width="1"/>
      </g>
      <path id="Path_72" data-name="Path 72" d="M363.792,333.634l-8.542,77.538h7.228l8.542-77.538Z" transform="translate(-351.328 -191.207)" fill="#fff" stroke="#263238" stroke-linecap="round" stroke-linejoin="round" stroke-width="1"/>
      <path id="Path_73" data-name="Path 73" d="M426.978,333.634l8.542,77.538h-7.228l-8.542-77.538Z" transform="translate(-246.296 -191.207)" fill="#fff" stroke="#263238" stroke-linecap="round" stroke-linejoin="round" stroke-width="1"/>
      <g id="Group_64" data-name="Group 64" transform="translate(5.094 127.829)">
        <path id="Rectangle_22" data-name="Rectangle 22" d="M1.137,0H21.488a1.136,1.136,0,0,1,1.136,1.136V14.7a1.136,1.136,0,0,1-1.136,1.136H1.137A1.137,1.137,0,0,1,0,14.7V1.137A1.137,1.137,0,0,1,1.137,0Z" transform="translate(0)" fill="#fff" stroke="#263238" stroke-linecap="round" stroke-linejoin="round" stroke-width="1"/>
        <path id="Path_74" data-name="Path 74" d="M375.333,328.08H358.684a2.988,2.988,0,0,0-2.988,2.986v8.989h22.625v-8.989A2.988,2.988,0,0,0,375.333,328.08Z" transform="translate(-355.696 -328.079)" fill="#fbd206" stroke="#263238" stroke-linecap="round" stroke-linejoin="round" stroke-width="1"/>
      </g>
      <g id="Group_65" data-name="Group 65" transform="translate(165.884 127.829)">
        <path id="Rectangle_23" data-name="Rectangle 23" d="M1.136,0H21.488a1.137,1.137,0,0,1,1.137,1.137V14.7a1.136,1.136,0,0,1-1.136,1.136H1.136A1.136,1.136,0,0,1,0,14.7V1.136A1.136,1.136,0,0,1,1.136,0Z" transform="translate(0.001)" fill="#fff" stroke="#263238" stroke-linecap="round" stroke-linejoin="round" stroke-width="1"/>
        <path id="Path_75" data-name="Path 75" d="M436.509,328.08H419.858a2.988,2.988,0,0,0-2.988,2.986v8.989H439.5v-8.989A2.987,2.987,0,0,0,436.509,328.08Z" transform="translate(-416.87 -328.079)" fill="#fbd206" stroke="#263238" stroke-linecap="round" stroke-linejoin="round" stroke-width="1"/>
      </g>
      <g id="Group_69" data-name="Group 69" transform="translate(0 214.708)">
        <g id="Group_66" data-name="Group 66" transform="translate(25.075 121.565)">
          <path id="Path_76" data-name="Path 76" d="M431.027,407.384s-65.053,32.855-66.367,40.083,0,16.427,0,16.427l2.3-2.3L373.2,446.81l58.482-27.6Z" transform="translate(-362.032 -407.384)" fill="#fff" stroke="#263238" stroke-linecap="round" stroke-linejoin="round" stroke-width="1"/>
          <ellipse id="Ellipse_4" data-name="Ellipse 4" cx="7.228" cy="7.228" rx="7.228" ry="7.228" transform="translate(0 46.653)" fill="#263238" stroke="#263238" stroke-linecap="round" stroke-linejoin="round" stroke-width="1"/>
        </g>
        <g id="Group_67" data-name="Group 67" transform="translate(112.47 121.565)">
          <path id="Path_77" data-name="Path 77" d="M397.205,407.384s65.053,32.855,66.367,40.083,0,16.427,0,16.427l-2.3-2.3L455.03,446.81l-58.482-27.6Z" transform="translate(-396.548 -407.384)" fill="#fff" stroke="#263238" stroke-linecap="round" stroke-linejoin="round" stroke-width="1"/>
          <ellipse id="Ellipse_5" data-name="Ellipse 5" cx="7.228" cy="7.228" rx="7.228" ry="7.228" transform="translate(55.196 46.653)" fill="#263238" stroke="#263238" stroke-linecap="round" stroke-linejoin="round" stroke-width="1"/>
        </g>
        <rect id="Rectangle_24" data-name="Rectangle 24" width="10.514" height="114.335" transform="translate(97.356 14.457)" fill="#fff" stroke="#263238" stroke-linecap="round" stroke-linejoin="round" stroke-width="1"/>
        <rect id="Rectangle_25" data-name="Rectangle 25" width="30.884" height="21.027" transform="translate(87.5 25.627)" fill="#263238" stroke="#263238" stroke-linecap="round" stroke-linejoin="round" stroke-width="1"/>
        <g id="Group_68" data-name="Group 68">
          <path id="Path_78" data-name="Path 78" d="M542.445,365.631c-25.551-2.342-109.975-8.8-185.783-.045a3.3,3.3,0,0,0-1.59,5.909c8.711,6.708,31.394,18.007,87.118,21.18,59.594,3.391,90.023-12.519,101.89-21.1A3.289,3.289,0,0,0,542.445,365.631Z" transform="translate(-353.749 -361.133)" fill="#fff" stroke="#263238" stroke-linecap="round" stroke-linejoin="round" stroke-width="1"/>
          <path id="Path_79" data-name="Path 79" d="M355.017,371.443l.266.205H543.976l.126-.092a3.289,3.289,0,0,0-1.653-5.924c-25.556-2.345-109.97-8.8-185.773-.047A3.3,3.3,0,0,0,355.017,371.443Z" transform="translate(-353.758 -361.134)" fill="#fbd206" stroke="#263238" stroke-linecap="round" stroke-linejoin="round" stroke-width="1"/>
        </g>
        <rect id="Rectangle_26" data-name="Rectangle 26" width="24.313" height="25.627" transform="translate(90.785 111.05)" fill="#263238" stroke="#263238" stroke-linecap="round" stroke-linejoin="round" stroke-width="1"/>
        <rect id="Rectangle_27" data-name="Rectangle 27" width="3.614" height="58.81" transform="translate(100.313 123.864)" fill="#fff" stroke="#263238" stroke-linecap="round" stroke-linejoin="round" stroke-width="1"/>
        <rect id="Rectangle_28" data-name="Rectangle 28" width="6.367" height="15.403" transform="translate(98.912 167.337)" fill="#263238" stroke="#263238" stroke-linecap="round" stroke-linejoin="round" stroke-width="1"/>
      </g>
    </g>
    <g id="Devices" transform="translate(851.062 12184.155)">
      <g id="Group_95" data-name="Group 95" transform="translate(0 0)">
        <rect id="Rectangle_34" data-name="Rectangle 34" width="147.814" height="5.18" transform="translate(167.659 170.029) rotate(180)" fill="#fff" stroke="#263238" stroke-linecap="round" stroke-linejoin="round" stroke-width="1"/>
        <g id="Group_94" data-name="Group 94">
          <rect id="Rectangle_35" data-name="Rectangle 35" width="175.78" height="152.079" rx="3.753" fill="#fff" stroke="#263238" stroke-linecap="round" stroke-linejoin="round" stroke-width="1"/>
          <rect id="Rectangle_36" data-name="Rectangle 36" width="28.363" height="86.86" transform="translate(73.709 83.059)" fill="#263238" stroke="#263238" stroke-linecap="round" stroke-linejoin="round" stroke-width="1"/>
        </g>
      </g>
    </g>
    <g id="Group_5515" data-name="Group 5515" transform="translate(732 12353.949)">
      <path id="Path_136" data-name="Path 136" d="M247.563,329.174,258.763,358c3.971,8.177,5.522,22.079,4.466,31.11L236.96,597.31a4.013,4.013,0,0,0,3.982,4.513h0a4.011,4.011,0,0,0,3.943-3.27l50.163-266.6H276.665l-3.23,15.334a2.589,2.589,0,0,1-5,.252l-6.214-19.526Z" transform="translate(-225.29 -314.772)" fill="#fff" stroke="#263238" stroke-linecap="round" stroke-linejoin="round" stroke-width="1"/>
      <path id="Path_137" data-name="Path 137" d="M575.91,329.174,564.713,358c-3.971,8.177-5.522,22.079-4.466,31.11l26.268,208.2a4.013,4.013,0,0,1-3.982,4.513h0a4.009,4.009,0,0,1-3.943-3.27l-50.163-266.6h18.383l3.228,15.334a2.591,2.591,0,0,0,5,.252l6.214-19.526Z" transform="translate(-171.155 -314.772)" fill="#fff" stroke="#263238" stroke-linecap="round" stroke-linejoin="round" stroke-width="1"/>
      <rect id="Rectangle_39" data-name="Rectangle 39" width="428.429" height="17.085" transform="translate(0 0)" fill="#fff" stroke="#263238" stroke-linecap="round" stroke-linejoin="round" stroke-width="1"/>
    </g>
  </g>
</svg>
