<svg xmlns="http://www.w3.org/2000/svg" xmlns:xlink="http://www.w3.org/1999/xlink" width="522.404" height="428.01" xmlns:v="https://vecta.io/nano"><style><![CDATA[.B{fill:#fff}.C{fill:#ebebeb}.D{fill:#263238}.E{fill:#dbdbdb}.F{fill:#1e1c1b}.G{fill:#535353}.H{fill:#f7a9a0}.I{fill:#a6a6a6}.J{fill:#ffc727}.K{fill:#c7c7c7}.L{stroke-miterlimit:10}.M{fill:#fbd206}.N{stroke-width:.5}.O{fill:#37474f}]]></style><path d="M203.506 52.299l-42.21-.028 11.559 16.728-9.353 5.846 43.513-.598-13.14-15.929zm28.21-37.363l-33.197-.022 9.093 13.155-7.356 4.597 34.219-.469-10.336-12.526z" class="M"/><path d="M468.647 150.61h-1.225v-.817h.408v-.408h.817zm-2.861.001h-1.632v-.817h1.632zm-3.265 0h-1.632v-.817h1.632zm-3.264 0h-1.633v-.817h1.633zm-3.265 0h-1.633v-.817h1.633zm-3.265 0h-1.632v-.817h1.632zm-3.265 0h-1.626v-.817h1.632zm-3.264 0h-1.633v-.817h1.633zm-3.265 0h-1.627v-.817h1.633zm-3.265 0h-1.632v-.817h1.632zm-3.265 0h-1.632v-.817h1.632zm-3.264 0h-1.633v-.817h1.633zm-3.265 0h-1.632v-.817h1.644zm-3.265 0h-1.623v-.817h1.632zm-3.265 0h-1.632v-.817h1.632zm-3.264 0h-1.624v-.817h1.63zm-3.265 0h-1.632v-.817h1.632zm-3.265 0h-1.633v-.817h1.633zm-3.255-.001h-1.225v-1.225h.817v.408h.408zm-.409-2.858h-.817v-1.631h.817zm0-3.264h-.817v-1.632h.817zm0-3.265h-.817v-1.636h.817zm0-3.265h-.817v-1.63h.817zm0-3.265h-.817v-1.63h.817zm0-3.264h-.817v-1.63h.817zm0-3.265h-.817v-1.63h.817zm0-3.265h-.817v-1.63h.817zm0-3.265h-.817v-1.629h.817zm0-3.265h-.817v-1.628h.817zm0-3.265h-.817v-1.627h.817zm0-3.264h-.817v-1.628h.817zm0-3.265h-.817v-1.628h.817zm0-3.265h-.817v-1.623h.817zm0-3.265h-.817v-1.627h.817zm0-3.265h-.817v-1.625h.817zm0-3.265h-.817v-1.628h.817zm0-3.257h-.817v-1.23h1.225v.817h-.408zm55.9-.408h-1.632v-.817h1.632zm-3.265 0h-1.632v-.817h1.632zm-3.264 0h-1.633v-.817h1.633zm-3.265 0h-1.633v-.817h1.633zm-3.265 0h-1.632v-.817h1.632zm-3.265 0h-1.626v-.817h1.632zm-3.264 0h-1.633v-.817h1.633zm-3.265 0h-1.632v-.817h1.632zm-3.265 0h-1.632v-.817h1.632zm-3.264 0h-1.633v-.817h1.633zm-3.265 0h-1.633v-.817h1.633zm-3.265 0h-1.632v-.817h1.644zm-3.265 0h-1.623v-.817h1.632zm-3.264 0h-1.633v-.817h1.633zm-3.265 0h-1.624v-.817h1.63zm-3.265 0h-1.632v-.817h1.632zm-3.265 0h-1.633v-.817h1.633zm55.097.408h-.812v-.408h-.408v-.822h1.225zm-.004 55.495h-.817v-1.632h.817zm0-3.265h-.817v-1.632h.817zm0-3.265h-.817v-1.631h.817zm0-3.265h-.817v-1.63h.817zm0-3.264h-.817v-1.631h.817zm0-3.265h-.817v-1.63h.817zm0-3.265h-.817v-1.63h.817zm0-3.265h-.817v-1.63h.817zm0-3.265h-.817v-1.628h.817zm0-3.265h-.817v-1.628h.817zm0-3.264h-.817v-1.628h.817zm0-3.265h-.817v-1.628h.817zm0-3.265h-.817v-1.628h.817zm0-3.265h-.817v-1.623h.817zm0-3.265h-.817v-1.626h.817zm0-3.265h-.817v-1.625h.817zm0-3.264h-.817v-1.629h.817z" class="C"/><path d="M405.816 146.541h7.323v7.322h-7.323z" class="B"/><path d="M413.548 154.271h-8.14v-8.138h8.14zm-7.323-.817h6.506v-6.5h-6.506z" class="C"/><path d="M405.847 117.16h7.323v7.323h-7.323z" class="B"/><path d="M413.548 124.892h-8.14v-8.14h8.14zm-7.323-.817h6.506v-6.506h-6.506z" class="C"/><path d="M405.847 87.78h7.323v7.323h-7.323z" class="B"/><path d="M413.548 95.511h-8.14v-8.139h8.14zm-7.323-.817h6.506v-6.505h-6.506z" class="C"/><path d="M464.609 146.541h7.323v7.322h-7.323z" class="B"/><path d="M472.309 154.271h-8.144v-8.138h8.14zm-7.323-.817h6.506v-6.5h-6.506z" class="C"/><path d="M464.609 117.16h7.323v7.323h-7.323z" class="B"/><path d="M472.309 124.892h-8.144v-8.14h8.14zm-7.323-.817h6.506v-6.506h-6.506z" class="C"/><path d="M464.609 87.78h7.323v7.323h-7.323z" class="B"/><path d="M472.309 95.511h-8.144v-8.139h8.14zm-7.323-.817h6.506v-6.505h-6.506z" class="C"/><path d="M435.228 87.78h7.322v7.323h-7.322z" class="B"/><path d="M442.928 95.511h-8.139v-8.139h8.139zm-7.322-.817h6.505v-6.505h-6.505z" class="C"/><path d="M435.197 146.541h7.322v7.322h-7.322z" class="B"/><path d="M442.928 154.271h-8.139v-8.138h8.139zm-7.322-.817h6.505v-6.5h-6.505zM153.248 421.777h-1.225v-.817h.408v-.408h.817zm-2.858.001h-1.631v-.817h1.632zm-3.265 0h-1.632v-.817h1.632zm-3.264 0h-1.632v-.817h1.633zm-3.265 0h-1.633v-.817h1.633zm-3.265 0h-1.632v-.817h1.632zm-3.265 0h-1.632v-.817h1.632zm-3.264 0h-1.633v-.817h1.633zm-3.265 0h-1.633v-.817h1.633zm-3.265 0h-1.632v-.817h1.632zm-3.265 0h-1.628v-.817h1.632zm-3.264 0h-1.633v-.817h1.639zm-3.265 0h-1.629v-.817h1.632zm-3.265 0h-1.633v-.817h1.633zm-3.265 0h-1.632v-.817h1.633zm-3.264 0h-1.633v-.817h1.633zm-3.265 0h-1.632v-.817h1.632zm-3.265 0h-1.632v-.817h1.632zm-3.259-.001H93.67v-1.225h.817v.408h.408zm-.405-2.857h-.817v-1.632h.817zm0-3.265h-.817v-1.632h.817zm0-3.265h-.817v-1.632h.817zm0-3.264h-.817v-1.633h.817zm0-3.265h-.817v-1.632h.817zm0-3.264h-.817v-1.633h.817zm0-3.265h-.817v-1.633h.817zm0-3.265h-.817v-1.632h.817zm0-3.265h-.817v-1.632h.817zm0-3.264h-.817v-1.63h.817zm0-3.265h-.817v-1.625h.817zm0-3.264h-.817v-1.633h.817zm0-3.265h-.817v-1.633h.817zm0-3.265h-.817v-1.631h.817zm0-3.265h-.817v-1.632h.817zm0-3.264h-.817v-1.633h.817zm0-3.265h-.817v-1.632h.817zm0-3.26h-.817V362.2h1.225v.817h-.408zm55.9-.408h-1.631v-.817h1.632zm-3.265 0h-1.632v-.817h1.632zm-3.264 0h-1.632v-.817h1.633zm-3.265 0h-1.632v-.817h1.632zm-3.265 0h-1.632v-.817h1.632zm-3.265 0h-1.632v-.817h1.632zm-3.264 0h-1.633v-.817h1.633zm-3.265 0h-1.632v-.817h1.632zm-3.265 0h-1.632v-.817h1.632zm-3.264 0h-1.629v-.817h1.633zm-3.265 0h-1.633v-.817h1.639zm-3.265 0h-1.629v-.817h1.632zm-3.265 0h-1.633v-.817h1.633zm-3.265 0h-1.633v-.817h1.634zm-3.265 0h-1.633v-.817h1.633zm-3.265 0h-1.632v-.817h1.632zm-3.265 0h-1.632v-.817h1.632zm55.095.408h-.817v-.408h-.408v-.817h1.225zm-.001 55.495h-.817v-1.632h.817zm0-3.265h-.817v-1.632h.817zm0-3.265h-.817v-1.632h.817zm0-3.264h-.817v-1.633h.817zm0-3.265h-.817v-1.633h.817zm0-3.265h-.817v-1.633h.817zm0-3.265h-.817v-1.632h.817zm0-3.265h-.817v-1.632h.817zm0-3.264h-.817v-1.633h.817zm0-3.265h-.817v-1.629h.817zm0-3.265h-.817v-1.624h.817zm0-3.265h-.817v-1.633h.817zm0-3.265h-.817v-1.632h.817zm0-3.265h-.817v-1.629h.817zm0-3.264h-.817v-1.633h.817zm0-3.265h-.817v-1.633h.817zm0-3.265h-.817v-1.633h.817z" class="C"/><path d="M90.417 417.708h7.323v7.322h-7.323z" class="B"/><path d="M98.149 425.439h-8.138V417.3h8.14zm-7.323-.817h6.506v-6.505h-6.506z" class="C"/><path d="M90.448 388.328h7.323v7.323h-7.323z" class="B"/><path d="M98.149 396.059h-8.138v-8.14h8.14zm-7.323-.817h6.506v-6.506h-6.506z" class="C"/><path d="M90.448 358.948h7.323v7.322h-7.323z" class="B"/><path d="M98.149 366.678h-8.138v-8.139h8.14zm-7.323-.817h6.506v-6.505h-6.506z" class="C"/><path d="M149.209 417.708h7.323v7.322h-7.323z" class="B"/><path d="M156.91 425.439h-8.14V417.3h8.14zm-7.323-.817h6.506v-6.505h-6.506z" class="C"/><path d="M149.209 388.328h7.323v7.323h-7.323z" class="B"/><path d="M156.91 396.059h-8.14v-8.14h8.14zm-7.323-.817h6.506v-6.506h-6.506z" class="C"/><path d="M149.209 358.948h7.323v7.322h-7.323z" class="B"/><path d="M156.91 366.678h-8.14v-8.139h8.14zm-7.323-.817h6.506v-6.505h-6.506z" class="C"/><path d="M119.828 358.948h7.322v7.322h-7.322z" class="B"/><path d="M127.528 366.678h-8.139v-8.139h8.139zm-7.322-.817h6.505v-6.505h-6.505z" class="C"/><path d="M119.797 417.708h7.322v7.322h-7.322z" class="B"/><path d="M127.528 425.439h-8.139V417.3h8.139zm-7.322-.817h6.505v-6.505h-6.505zm340.757-279.153h61.441v21.626h-61.441z" class="C"/><path d="M460.963 135.749h61.441v9.72h-61.441z" class="E"/><g class="B"><path d="M466.756 142.395l-3.279-3.279.308-.307 3.279 3.279z"/><path d="M463.785 142.395l-.308-.306 3.279-3.279.308.307z"/><use xlink:href="#B"/><use xlink:href="#C"/><use xlink:href="#B" x="2.146"/><path d="M517.671 140.61l1.946-1.946.307.307-1.946 1.946zm-50.142 10.812h9.293v9.293h-9.293z"/></g><path d="M480.534 151.422h9.293v9.293h-9.293z" class="E"/><path d="M493.539 151.422h9.293v9.293h-9.293z" class="K"/><path d="M506.544 151.422h9.293v9.293h-9.293z" class="I"/><path d="M434.551 374.362h61.441v49.871h-61.441z" class="C"/><path d="M434.551 364.642h61.441v9.72h-61.441z" class="E"/><g class="B"><path d="M440.346 371.288l-3.279-3.279.308-.307 3.278 3.279z"/><path d="M437.374 371.288l-.308-.307 3.279-3.279.308.307z"/><use xlink:href="#B" x="-26.412" y="228.893"/><use xlink:href="#C" x="-26.412" y="228.893"/><use xlink:href="#B" x="-24.266" y="228.893"/><path d="M491.259 369.503l1.946-1.946.307.307-1.946 1.946z"/></g><path d="M441.211 380.315h9.293v9.293h-9.293zm16.595 3.502h31.527v2.29h-31.527z" class="E"/><path d="M441.211 394.425h9.293v9.293h-9.293zm16.595 3.502h31.527v2.29h-31.527z" class="K"/><path d="M441.211 408.536h9.293v9.293h-9.293zm16.595 3.502h31.527v2.29h-31.527z" class="I"/><path d="M0 232.674h94.111v88.694H0z" class="C"/><path d="M0 222.954h94.111v9.72H0z" class="E"/><g class="B"><path d="M5.793 229.6l-3.279-3.279.308-.307 3.278 3.279z"/><path d="M2.823 229.6l-.308-.307 3.279-3.279.308.307z"/><use xlink:href="#B" x="-428.293" y="87.205"/><use xlink:href="#C" x="-428.293" y="87.205"/><use xlink:href="#B" x="-426.147" y="87.205"/><path d="M89.378 227.815l1.945-1.947.307.307-1.945 1.947z"/></g><path d="M2.125 241.517h89.862m-89.862 8.872h89.862m-89.862 8.872h89.862m-89.862 8.873h89.862m-89.862 8.872h89.862m-89.862 8.872h89.862m-89.862 8.873h89.862m-89.862 8.872h89.862m-89.862 8.873h89.862" fill="none" stroke="#dbdbdb" class="L N"/><path d="M8.643 235.798h5.251l-2.628 2.626zm9.597.226h42.37v2.173H18.24zm-9.597 52.978h5.251l-2.628 2.626zm9.597.226h42.37v2.173H18.24zm1.312-40.65v-5.251l2.625 2.626zm6.318-3.712h42.37v2.173H25.87zm-6.318 12.585V252.2l2.625 2.626zm6.318-3.712h24.147v2.173H25.87zm-6.318 12.584v-5.251l2.625 2.626zm6.318-3.712h33.2v2.173h-33.2zm-6.318 12.584v-5.251l2.625 2.625zm6.318-3.712h42.37v2.173H25.87zm-6.318 12.585v-5.251l2.625 2.625zm6.318-3.712h28.493v2.173H25.87zm-6.318 21.461v-5.251l2.625 2.625zm6.318-3.716h13.554v2.173H25.87zm-6.318 12.584v-5.251l2.625 2.625zm6.318-3.712h28.493v2.173H25.87zm-6.318 12.584v-5.251l2.625 2.626zm6.318-3.712h42.37v2.173H25.87z" class="E"/><path stroke="#263238" stroke-width=".25" d="M79.665 113.332H442.74v314.552H79.665z" class="B L"/><path d="M79.665 101.294H442.74v12.038H79.665z" class="D"/><path d="M88.656 107.313a2.5 2.5 0 1 1-5 0 2.5 2.5 0 1 1 5 0z" class="K"/><path d="M98.873 107.313a2.5 2.5 0 1 1-5 0 2.5 2.5 0 1 1 5 0z" class="B"/><path d="M109.09 107.313a2.5 2.5 0 1 1-5 0 2.5 2.5 0 1 1 5 0z" class="J"/><path d="M279.617 347.929l-11.663 30.017c-2.259 5.725-4.137 10.784-4.865 13.492-.007.013-.011.029-.011.044-.239.615-.333 1.277-.275 1.935a.2.2 0 0 0 .02.049c1.248 1.826 46.471 21.213 48.275 21.357s2.36-4.987 1.206-7.139-15.152-17.322-15.152-17.322l11.364-30.093z" class="E"/><path d="M262.805 393.416c0 .024.007.04.016.047 1.253 1.831 46.475 21.218 48.274 21.364s2.363-4.991 1.2-7.145c-.632-1.167-4.992-6.117-8.876-10.429 3.644 4.212 11.879 16.931-37.592-13.824-1.274 3.377-2.26 6.216-2.747 8.007-.006.013-.009.028-.009.043a4.26 4.26 0 0 0-.266 1.937zm8.889-25.095l29.462 11.426s18.316-42.838 25.317-62.536c3.247-9.138-8.751-60.9-11.726-70.525a113.35 113.35 0 0 0-5.86-13.934l-31.9-2.449s21.566 68.162 19.449 74.726c-2.581 8.002-24.742 63.292-24.742 63.292z" class="K"/><g class="E"><path d="M298.685 231.968l-4.443 58.382c-5.211-21.979-17.258-60.048-17.258-60.048z"/><use xlink:href="#D"/><path d="M231.015 285.967l-20.838-19.633c-4.747-3.916-11.537-9.986-12.682-9.99-2.123.624-35.018 37.969-35.713 39.64s4.015 3.785 6.419 3.351 21.154-9.068 21.154-9.068l21.932 19.458z"/></g><path d="M168.197 299.339c1.215-.225 6.5-2.489 11.492-4.7-5.83 1.468-17.295 1.98 29.63-29.017-4.669-3.893-10.741-9.266-11.822-9.269-2.124.622-35.025 37.961-35.713 39.638-.704 1.663 4.009 3.778 6.413 3.348zm136.489-66.894s1.038 10.135-1.652 18.061c-1.958 5.792-3.908 10.864-4.849 11.336-1.066.529-6.2 2.373-7.925 2.944 0 0-14.388 47.323-24.573 60.36-3.26 4.173-21.411 8.588-28.568 4.21-17.788-10.882-33.663-26.579-33.663-26.579l17.9-25.907 22.331 18.722s14.652-34.644 15.56-42.373c.74-6.289 5.715-17.929 9.7-23.4z" class="K"/><g class="E"><use xlink:href="#E"/><use xlink:href="#F"/><use xlink:href="#G"/><use xlink:href="#H"/><path d="M294.901 195.383c6.183 1.939 32.625 3.676 39.7-3.43 7.2-7.244 9.775-32.909 10.316-36.136 1.268-7.557-21.409-5.474-21.809-3.392-1.424 7.4-1.647 26.383-4.517 27.75-6.033 2.874-12.073 3.97-21.967 7.127-6.904 2.202-8.551 5.939-1.723 8.081z"/><path d="M344.549 157.206c.734-2.474 3.211-14.238 3.145-17.622s-.962-13.111-3.56-13.324-2.562 2.656-2.562 2.656-1.029-4.048-3.663-4.023-2.433 4.486-2.433 4.486-1.36-4.08-3.985-3.867-1.673 4.664-1.673 4.664-1.069-3.787-3.158-2.7c-2.514 1.305.247 8.065.039 11.808-.047.85-2.18 17.157-2.18 17.157z"/></g><path d="M329.744 129.791c2.018 4.976 2.04 7.5 1.105 12.705-.019.1.129.152.158.047 1.38-5.012 1.808-8.185-1.027-12.863-.139-.227-.332-.125-.236.111zm5.564-.806c1.645 5.352 1.693 8.092 1.115 13.614-.008.078.123.1.138.022 1.021-5.369 1.376-8.545-.969-13.676-.107-.232-.359-.204-.284.04zm6.225.211c1.219 5.3 1.4 8.3.151 13.586a.1.1 0 0 0 .192.058 18.03 18.03 0 0 0-.178-13.664c-.121-.317-.242-.313-.165.02z" class="I"/><path d="M323.86 159.75c-1.77-2.714-3.337-5.555-4.688-8.5-1.05-2.839-1.067-14.859 1.529-15.011 3.352-.2 4.729 6.742 4.959 10.228 0 0 7.753-.459 9.818 4.306s-11.618 8.977-11.618 8.977z" class="E"/><path d="M321.644 136.488c3.185 2.027 3.193 6.622 3.669 9.987a.31.31 0 0 0 .445.251c3.262.024 7.857 1.01 9.8 3.85.023.035.069.046.105.025s.05-.066.032-.103c-1.674-3.33-6.109-4.666-9.684-4.464-.435-3.458-.644-8.067-4.352-9.577-.008-.001-.016.003-.019.01s-.002.016.004.021z" class="I"/><path d="M321.996 157.414s-1.575 20.6-3.245 21.735c-2.775 1.891-19.586 6.834-25.528 8.92s-9.593 6.546 5.96 9.864c15.016 3.2 31.048 4.034 38.341.116 8.89-4.777 14.557-27.417 14.557-27.417z" class="K"/><path d="M349.136 175.739c-12.034-5.869-24.883-10.675-27.128-11.641-.106-.046-.14.147-.033.193 2.1.894 16.832 7.793 27.124 11.661.119.041.152-.159.037-.213z" class="I"/><path d="M288.445 193.337c.965 1.562 4.1 3.182 10.733 4.593 15.023 3.2 31.051 4.038 38.342.115a12.04 12.04 0 0 0 2.752-2.111z" opacity=".1"/><g class="E"><path d="M298.861 167.155c-2.849 11.671-20.492 24.1-38.363 22.274-15.128-1.543-27.735-18.373-25.991-29.82a17.28 17.28 0 0 1 22.2-14.418c9.084 2.989 12 11.281 19.052 12.181 3.375.43 8.685-1.793 13.7-1.373 5.599.466 10.863 5.171 9.402 11.156z"/><path d="M285.114 156.166a36.51 36.51 0 0 1-6.082.832 14.34 14.34 0 0 1-6.115-.945c-.958-.442-1.834-1.041-2.594-1.773l-2.238-2.111a59.46 59.46 0 0 0-4.529-4.063 23.44 23.44 0 0 0-5.091-3.2 14.62 14.62 0 0 0-11.687-.167 25.76 25.76 0 0 0-5.332 2.933 23.72 23.72 0 0 1 5.19-3.273 15.28 15.28 0 0 1 6.021-1.375 14.63 14.63 0 0 1 6.082 1.25c1.895.848 3.672 1.936 5.288 3.239 1.587 1.305 3.104 2.693 4.544 4.159l2.193 2.116c.71.691 1.519 1.271 2.4 1.723a13.87 13.87 0 0 0 5.861 1.105 42.14 42.14 0 0 0 6.089-.45zm12.973 13.354a42.95 42.95 0 0 1-7.292 10.929 35.25 35.25 0 0 1-10.5 7.973 27.22 27.22 0 0 1-6.285 2.132 15.36 15.36 0 0 1-1.635.3 16.23 16.23 0 0 1-1.648.2l-1.657.116-1.66-.02a34.13 34.13 0 0 1-12.754-3.092l3.118 1.023 3.178.778a31.06 31.06 0 0 0 6.469.707 28.02 28.02 0 0 0 12.547-2.828 35.87 35.87 0 0 0 10.406-7.686c1.513-1.569 2.915-3.242 4.195-5.006 1.303-1.755 2.479-3.602 3.518-5.526zm-15.997 26.938c-8.464 13.984-21.633 34.821-30.23 35.213-7.771.354-20.6-5.522-34.579-11.816-2.776-1.25 7.407-21.569 10.228-19.943 5.563 3.2 18.219 11.21 21.922 11.556 1.589.149 18.391-14.023 27.929-20.93 8.383-6.074 6.376 3.198 4.73 5.92z"/><path d="M219.051 220.631c-2.565-.279-14.372-2.538-17.469-3.907s-11.721-5.954-10.914-8.431 3.44-1.338 3.44-1.338-3.336-2.512-2.3-4.932 5.077-.511 5.077-.511-3.238-2.83-2.027-5.17 4.947.26 4.947.26-3.08-2.45-1.272-3.958c2.174-1.814 7.343 3.344 10.875 4.6.8.285 16.667 4.618 16.667 4.618z"/></g><path d="M199.486 196.384c3.81 3.784 6.131 4.78 11.292 5.928.1.022.091.177-.017.163-5.155-.664-8.248-1.494-11.467-5.917-.159-.215.012-.354.192-.174zm-2.893 4.82c4.3 3.585 6.809 4.688 12.126 6.287.075.023.045.153-.033.136-5.346-1.133-8.413-2.032-12.239-6.178-.174-.187-.05-.408.146-.245zm-2.212 5.823c4.415 3.17 7.112 4.5 12.473 5.388.055.006.095.055.09.111s-.055.095-.111.089a18.03 18.03 0 0 1-12.534-5.442c-.245-.235-.196-.346.082-.146z" class="I"/><path d="M229.389 202.531a65.88 65.88 0 0 0-6.028-7.607c-2.213-2.065-13.293-6.725-14.436-4.389-1.475 3.016 4.392 6.966 7.518 8.526 0 0-3.419 6.973.178 10.72s12.768-7.25 12.768-7.25z" class="E"/><path d="M208.792 191.492c.639 3.721 4.874 5.5 7.794 7.243a.31.31 0 0 1 .059.507c-1.237 3.019-2.1 7.637-.236 10.53a.08.08 0 1 1-.125.1c-2.425-2.83-1.943-7.437-.376-10.657-3.022-1.737-7.191-3.711-7.153-7.714-.002-.01.004-.021.014-.023s.021.004.023.014z" class="I"/><path d="M230.999 200.754s16.958 10.167 18.877 9.534c3.189-1.053 23.053-17.409 28.323-20.857s7.418.712 4.589 6.3c-7.439 14.686-19.725 37.741-31.636 40.857-6.412 1.678-29.791-5.351-29.791-5.351z" class="K"/><path d="M273.576 212.57a16.12 16.12 0 0 0 .733-1.527l.84-1.578q.833-1.523 1.651-3.055l3.446-6.014c.016-.03.057 0 .044.027l-3.072 6.246-.075.133.755-.852q.779-.885 1.553-1.773c.031-.036.093.014.065.053l-1.462 1.83-.814.88-.4.393q-.635 1.139-1.275 2.275l-.9 1.538c-.3.509-.727.96-.981 1.491-.033.075-.155.003-.108-.067zm-37.85-7.251c-4.323 11.858-7.543 24.321-8.226 26.515-.033.1.156.109.188 0 .63-2.056 5.649-16.529 8.246-26.515.031-.113-.169-.113-.208 0z" class="I"/><path d="M280.28 331.206l-19.569 25.576c-3.765 4.868-6.979 9.2-8.432 11.6-.011.011-.019.025-.023.04a4.3 4.3 0 0 0-.8 1.781.2.2 0 0 0 0 .052c.69 2.1 38.716 33.326 40.408 33.968s3.657-4.131 3.149-6.52-9.722-20.858-9.722-20.858l19.3-25.733z" class="H"/><path d="M266.546 349.157l25.544 18.617s27.383-30.864 34.384-50.562c3.247-9.138-8.751-60.9-11.726-70.525-1.641-4.77-3.599-9.425-5.86-13.934l-31.9-2.449s21.566 68.162 19.449 74.726c-2.581 8.002-29.891 44.127-29.891 44.127z" class="G"/><path d="M298.686 231.969l-4.443 58.382c-5.211-21.979-17.258-60.048-17.258-60.048z" fill="#414648"/><use xlink:href="#D" y="0.001" class="O"/><path d="M251.455 370.203v.05c.692 2.108 38.718 33.333 40.4 33.974s3.661-4.134 3.149-6.526c-.282-1.3-3.089-7.267-5.618-12.49 2.325 5.061 6.688 19.571-32.248-23.754-2.165 2.888-3.9 5.34-4.869 6.924-.011.015-.02.022-.021.038-.399.525-.67 1.136-.793 1.784z" class="F"/><path d="M245.398 275.506l-17.22-22.872c-4.017-4.662-9.683-11.793-10.811-11.989-2.2.256-40.932 31.5-41.9 33.034s3.318 4.409 5.76 4.388 22.383-5.363 22.383-5.363l18.328 22.885z" class="H"/><path d="M181.225 278.062c1.235-.017 6.826-1.354 12.121-2.691-5.994.461-17.381-.973 34.108-23.591-3.943-4.625-9.02-10.949-10.084-11.133-2.2.254-40.937 31.495-41.9 33.03-.976 1.528 3.311 4.409 5.755 4.385z" class="F"/><path d="M304.687 232.445s1.038 10.135-1.652 18.061c-1.958 5.792-3.908 10.864-4.849 11.336-1.066.529-6.2 2.373-7.925 2.944 0 0-11.237 38.127-20.489 50.509-3.169 4.241-17.536 8.428-24.529 3.792-16.4-10.873-36.063-39.43-36.063-39.43l23.687-20.8 20.227 24.869s5.246-22.784 6.154-30.513c.74-6.289 5.715-17.929 9.7-23.4z" class="G"/><g class="O"><use xlink:href="#E" x="0.001"/><use xlink:href="#F" x="0.001"/><use xlink:href="#G" x="0.001"/><use xlink:href="#H" x="0.001"/></g><path d="M298.589 162.346c2.151 11.819-8.9 30.354-25.964 35.968-14.445 4.753-32.815-5.484-35.883-16.648a17.28 17.28 0 0 1 14.408-22.212c9.514-.969 15.552 5.417 22.36 3.366 3.258-.981 7.2-5.175 11.953-6.834 5.299-1.851 12.024.301 13.126 6.36z" class="F"/><path d="M281.56 157.913a36.34 36.34 0 0 1-5.216 3.237 14.34 14.34 0 0 1-5.97 1.628 9.46 9.46 0 0 1-3.091-.562l-2.9-1.017a59.07 59.07 0 0 0-5.791-1.866c-1.94-.537-3.94-.823-5.953-.849a14.61 14.61 0 0 0-10.741 4.608 25.75 25.75 0 0 0-3.675 4.85 23.74 23.74 0 0 1 3.408-5.1 15.29 15.29 0 0 1 4.94-3.709 14.64 14.64 0 0 1 6.064-1.335 24.22 24.22 0 0 1 6.149.8 57.99 57.99 0 0 1 5.836 1.953l2.865 1.039c.931.344 1.909.546 2.9.6a13.87 13.87 0 0 0 5.8-1.378 42.18 42.18 0 0 0 5.375-2.899zm17.286 6.909a42.9 42.9 0 0 1-2.208 12.951 35.22 35.22 0 0 1-6.345 11.56 27.21 27.21 0 0 1-4.871 4.507 15.52 15.52 0 0 1-1.373.936c-.459.31-.934.596-1.422.858l-1.467.78-1.523.658a34.13 34.13 0 0 1-12.908 2.371l3.265-.337 3.219-.584a31.01 31.01 0 0 0 6.2-1.989 28.02 28.02 0 0 0 10.307-7.694 35.89 35.89 0 0 0 6.374-11.259 46.89 46.89 0 0 0 1.792-6.279c.475-2.134.796-4.299.96-6.479z" class="D"/><g class="H"><path d="M294.881 194.863c5.534 3.372 30.779 11.43 39.352 6.235 8.738-5.293 17.417-29.583 18.72-32.584 3.051-7.029-19.458-10.472-20.349-8.547-3.165 6.839-7.955 25.209-11.07 25.845-6.548 1.335-12.674.943-23.038 1.623-7.228.473-9.725 3.705-3.615 7.428z"/><path d="M352.266 169.777c1.308-2.224 6.547-13.044 7.3-16.346s2.225-12.954-.247-13.791-3.127 1.96-3.127 1.96-.024-4.176-2.586-4.787-3.442 3.767-3.442 3.767-.336-4.286-2.936-4.713-2.747 4.124-2.747 4.124-.125-3.934-2.414-3.385c-2.754.662-1.7 7.887-2.806 11.47-.251.813-6.251 16.126-6.251 16.126z"/></g><path d="M344.502 139.6c.76 5.315.172 7.773-1.989 12.6-.042.094.089.178.142.083 2.546-4.531 3.727-7.508 2.1-12.732-.077-.257-.289-.204-.253.049zm5.595.558c.307 5.59-.307 8.261-2.2 13.481-.026.074.1.127.129.055 2.284-4.965 3.394-7.962 2.354-13.507-.045-.251-.297-.284-.283-.029zm5.991 1.704c-.094 5.434-.64 8.391-3.127 13.222a.1.1 0 0 0 .172.1c2.745-3.852 3.865-8.629 3.12-13.3-.041-.339-.16-.364-.165-.022z" class="D"/><path d="M331.574 167.258c-1.063-3.061-1.898-6.195-2.5-9.379-.334-3.008 2.545-14.679 5.1-14.2 3.3.618 2.966 7.683 2.349 11.122 0 0 7.635 1.423 8.492 6.545s-13.441 5.912-13.441 5.912z" class="H"/><path d="M335.024 144.145c2.6 2.734 1.5 7.2 1.154 10.577a.31.31 0 0 0 .372.35c3.16.81 7.383 2.873 8.587 6.1.015.037.056.056.094.045s.063-.048.057-.087c-.822-3.635-4.8-6-8.324-6.666.412-3.461 1.319-7.984-1.915-10.343-.019-.016-.042.007-.025.024z" class="D"/><path d="M330.327 164.537s-6.492 19.612-8.386 20.313c-3.149 1.166-20.656 1.913-26.925 2.506s-10.887 4.042 3.407 11.01c13.8 6.727 29.162 11.4 37.183 9.35 9.779-2.494 20.735-23.1 20.735-23.1z" class="M"/><path d="M352.252 188.863c-10.266-8.6-21.579-16.356-23.523-17.835-.092-.069-.172.109-.079.18 1.826 1.375 14.457 11.618 23.515 17.853.105.071.186-.116.087-.198z" class="D"/><path d="M289.109 191.322c.56 1.748 3.208 4.076 9.31 7.044 13.809 6.728 29.163 11.4 37.185 9.351 1.121-.306 2.193-.773 3.18-1.386z" opacity=".1"/><path d="M309.119 232.77l-40.531-2.957s5.017-27.9 12.362-38.817c3.342-4.967 8.4-4.574 12.2-2.338.947.559 12.411 11.65 14.026 16.087 1.428 3.92-1.135 8.941-1.135 8.941z" class="M"/><path d="M292.233 213.104a35.57 35.57 0 0 1 5.269-.061l2.6.3 1.3.157a5.63 5.63 0 0 0 1.362.016c.015 0 .029.011.031.026s-.006.03-.02.036a9.47 9.47 0 0 1-1.275.2 9.01 9.01 0 0 1-1.251-.015l-2.65-.227-5.356-.283c-.089-.004-.089-.143-.01-.149zm-3.993 2.28a38.6 38.6 0 0 1 4.241-.96l2.158-.249 1.038-.065 1.145-.009c.039 0 .051.058.01.062-.359.033-.712.126-1.068.18l-1.072.16-2.146.326-4.287.673c-.077.016-.09-.097-.019-.118z" class="D"/><g class="H"><path d="M284.109 196.981c-10.8 12.268-27.45 30.447-35.982 29.312-7.711-1.026-19.3-9.079-31.944-17.745-2.512-1.722 11.1-19.919 13.594-17.82 4.908 4.138 15.949 14.254 19.533 15.25 1.537.427 20.581-10.55 31.19-15.662 9.325-4.491 5.71 4.279 3.609 6.665z"/><path d="M217.789 209.628c-2.476-.729-13.7-5.041-16.5-6.936s-10.484-7.932-9.251-10.228 3.622-.708 3.622-.708-2.839-3.063-1.387-5.261 5.087.394 5.087.394-2.685-3.358-1.081-5.447 4.824 1.13 4.824 1.13-2.6-2.956-.552-4.121c2.461-1.4 6.637 4.589 9.891 6.449.739.422 15.588 7.492 15.588 7.492z"/></g><path d="M202.819 182.303c3.081 4.4 5.19 5.789 10.065 7.832.1.039.058.19-.046.158-4.957-1.565-7.854-2.929-10.24-7.851-.117-.242.074-.349.221-.139zm-3.701 4.233c3.6 4.289 5.873 5.818 10.823 8.333.07.036.017.158-.056.127-5.062-2.06-7.921-3.487-10.954-8.244-.138-.215.023-.412.187-.216zm-3.205 5.341c3.784 3.9 6.2 5.685 11.323 7.509a.1.1 0 0 1-.056.192c-4.638-.934-8.724-3.654-11.374-7.574-.199-.274-.131-.368.107-.127z" class="D"/><path d="M231.165 193.641a65.88 65.88 0 0 0-4.589-8.553c-1.812-2.424-11.894-8.97-13.432-6.873-1.986 2.708 3.09 7.633 5.891 9.721 0 0-4.6 6.259-1.72 10.582s13.85-4.877 13.85-4.877z" class="H"/><path d="M212.843 179.138c-.029 3.775 3.825 6.278 6.391 8.506a.31.31 0 0 1-.032.51c-1.752 2.752-3.422 7.145-2.095 10.322.02.038.005.086-.033.106s-.086.005-.106-.033c-1.887-3.215-.6-7.664 1.513-10.556-2.667-2.244-6.421-4.924-5.675-8.858.001-.01.01-.018.02-.017s.018.01.017.02z" class="D"/><path d="M233.063 192.177s14.891 13.005 16.891 12.721c3.325-.472 25.769-13.057 31.565-15.519s7.174 2.013 3.4 7.011c-9.919 13.138-26.089 33.658-38.363 34.619-6.608.518-28.375-10.535-28.375-10.535z" class="M"/><path d="M272.879 211.335a15.91 15.91 0 0 0 .992-1.374l1.106-1.4q1.089-1.353 2.165-2.715l4.455-5.311c.022-.025.057.009.039.035l-4.128 5.6-.1.118.894-.7 1.843-1.471c.037-.029.088.03.054.064l-1.763 1.543-.957.723-.458.317q-.827 1.008-1.658 2.014-.571.686-1.161 1.354c-.39.443-.885.816-1.229 1.294-.046.063-.153-.03-.094-.091zm-35.971-13.83c-6.352 10.907-11.724 22.6-12.786 24.642-.05.1.135.136.185.038.983-1.912 8.483-15.269 12.8-24.639.054-.107-.137-.145-.199-.041z" class="D"/><path d="M284.361 188.51c.292.733 4.66 5.123 8.109 4.439 1.123-.225.171-6.409.171-6.409l.034-.473.471-6.617-8.243-3.7-1.183-.475v4.083.323.369 1.027l.02.792.025.82c.065 1.952.265 3.897.596 5.821z" class="H"/><path d="M283.721 179.361c1.854 3.442 5.129 5.895 8.954 6.706l.471-6.617-8.243-3.7-1.183-.475.001 4.086z" class="D"/><path d="M300.705 166.12c5.057 10.486-.653 14.7-2.916 15.786-2.054.987-9.173 4.089-15.286-5.819s-2.835-15.574 1.743-18.08 11.403-2.374 16.459 8.113z" class="H"/><g class="D"><path d="M298.352 165.023a7.66 7.66 0 0 1-.785.176 1.3 1.3 0 0 1-.835.025c-.166-.089-.251-.278-.208-.461a1.03 1.03 0 0 1 .822-.638c.36-.104.746-.071 1.083.093a.44.44 0 0 1-.077.805zm-7.276 3.285a7.94 7.94 0 0 0 .648-.477c.247-.186.461-.309.567-.613.043-.183-.043-.372-.21-.46-.351-.124-.742-.047-1.021.2a1.51 1.51 0 0 0-.64.878.44.44 0 0 0 .656.472zm2.863 1.836c-.018-.024-.039.06-.024.09.368.7.671 1.569.14 2.118-.016.017 0 .052.025.038.734-.493.321-1.639-.141-2.246z"/><path d="M292.943 169.707c-1.19.468-.167 2.814.936 2.38 1.084-.427.061-2.772-.936-2.38z"/><path d="M292.536 170.032c-.147.221-.245.544-.481.675-.274.154-.6 0-.886-.153-.03-.016-.042.013-.029.045.189.452.564.838 1.074.694.466-.131.609-.666.524-1.167-.016-.092-.143-.184-.202-.094zm5.375-1.802c-.007-.03.072.01.083.04.288.739.743 1.536 1.506 1.5.024 0 .037.037.011.043-.853.227-1.444-.838-1.6-1.583z"/><path d="M298.236 167.19c1.134-.59 2.231 1.723 1.179 2.269-1.033.537-2.13-1.774-1.179-2.269z"/><path d="M298.787 167.117c.241.036.527.173.752.084.261-.1.329-.443.377-.759 0-.033.033-.022.047.008.222.436.294.966-.09 1.252-.351.261-.815.016-1.129-.373-.057-.076-.05-.23.043-.212zm-2.329 9.027c.232.156.511.227.789.2.273-.111.52-.279.724-.492.009-.009.022-.011.033-.005s.016.018.014.031a1.07 1.07 0 0 1-.786.762c-.339.038-.668-.133-.833-.432-.028-.042.023-.08.059-.064zm2.265-2.439a3.23 3.23 0 0 1-.676 1.491 1.46 1.46 0 0 1-.755.461c-.644.149-.931-.362-1.062-.86a3.5 3.5 0 0 1-.1-.813 4.18 4.18 0 0 0 2.593-.279z"/></g><path d="M298.044 175.196a1.46 1.46 0 0 1-.755.461c-.644.149-.931-.362-1.062-.86a1.5 1.5 0 0 1 1.817.399z" fill="#ff9bbc"/><path d="M298.303 172.17l.865 1.522c.021.047-.091.126-.26.213-.007.007-.01.012-.02.01a2.65 2.65 0 0 1-2.758.155c-.018-.017-.023-.043-.013-.066s.033-.036.057-.034a4 4 0 0 0 2.5-.363c-.027-.157-1.146-1.7-1.067-1.74.411-.143.84-.23 1.274-.259l-4.085-6.23c-.042-.078.063-.154.118-.093a40.32 40.32 0 0 1 4.684 6.523c.171.268-1.052.357-1.295.362zm-15.42 4.241c1.168-.58 2.889-5.2.527-11.03 0 0 1.759 5.38 1.691 6.307s.957-2.6-.882-7.323a20.54 20.54 0 0 0 5.844.45c2.467-.318 3.806-.911 3.9-1.138s-3.587.129-4.894-.51c0 0 7.02.236 9.811-.706.323-.109-2.1-5.641-7.44-6.594s-10.635 3.746-11.684 6.22c0 0-1.623.92-2.379 5.017-.817 4.407 4.248 9.931 5.506 9.307z" class="D"/><path d="M284.348 179.963a2.44 2.44 0 0 0 .554-.061 1.78 1.78 0 0 0 .518-.181 1.62 1.62 0 0 0 .55-.441c.119-.143.217-.302.291-.473a2.26 2.26 0 0 0 .18-.769l-1.705-2.679s-3.668-2.494-4.884-1.063 2.43 5.682 4.496 5.667z" class="H"/><path d="M280.926 175.486c-.012.005-.019.017-.016.03s.013.022.025.022c1.4.14 2.675.867 3.51 2-.247-.2-.569-.282-.882-.224s-.584.249-.743.524c-.024.036.027.076.06.055a1.21 1.21 0 0 1 1.4-.078 5.8 5.8 0 0 1 .979.782c.1.091.284-.048.192-.163l-.022-.025c-.587-1.632-2.704-3.419-4.503-2.923z" class="D"/><path d="M284.325 179.448a.54.54 0 1 0 .169-.744.54.54 0 0 0-.169.744zm-1.325-.369a.381.381 0 1 0-.05-.288.38.38 0 0 0 .05.288z" class="B"/><path d="M276.898 191.605s11.6 8.575 17.273 6.674 1.954-11.016 1.954-11.016a34.7 34.7 0 0 0-7.695-.419c-5.835.244-11.532 4.761-11.532 4.761z" class="H"/><g fill="none" stroke="#ffc727" class="L N"><path d="M210.847 260.317l47.506 47.853 19.666-63.366 27.431 2.346 8.5 62.576-41.085 61.862m20.863-125.441l-2.74-53.412m-75.938 2.923l33.806 23.354 31.548-25.077 19.4-2.2 32.282 4.565 12.831-40.484"/><path d="M290.988 192.734l-1.604-26.045"/></g><path d="M214.088 193.523l2.196 1.394-1.394 2.196-2.196-1.394zm-4.138 64.299l1.944 1.728-1.728 1.944-1.944-1.728zm48.295 48.512l1.946 1.727-1.727 1.946-1.946-1.727zm13.958 64.028l2.094 1.543-1.543 2.094-2.094-1.543zm41.468-62.378l2.094 1.543-1.543 2.094-2.094-1.543zm-9.483-62.238l2.582.311-.311 2.582-2.582-.311zm-27.305-2.389l2.582.311-.311 2.582-2.582-.311zm15.749 1.343l2.582.311-.311 2.582-2.582-.311zm-3.09-53.211l2.593-.213.213 2.593-2.593.213zm-1.56-25.567l2.592-.213.213 2.592-2.592.213zm10.14 24.863l2.592-.213.213 2.592-2.592.213zm32.668 4.009l2.563.445-.445 2.563-2.563-.445zm13.135-40.066l2.471.812-.812 2.471-2.471-.812zm-65.036 37.636l2.593-.213.213 2.593-2.593.213zm-31.871 26.261l2.01-1.65 1.65 2.01-2.01 1.65z" class="J"/><g stroke="#ffc727" class="L N"><path fill="none" d="M161.714 124.893H360.69V414.84H161.714z"/><path d="M159.242 122.421h4.945v4.945h-4.945zm198.976 0h4.945v4.945h-4.945zm-99.488 0h4.945v4.945h-4.945zm-99.488 289.947h4.945v4.945h-4.945zm198.976 0h4.945v4.945h-4.945zM159.242 267.395h4.945v4.945h-4.945zm198.976 0h4.945v4.945h-4.945zM258.73 412.368h4.945v4.945h-4.945z" class="B"/></g><path d="M16.186 323.255h204.935v60.098H16.186z" class="G"/><path d="M16.186 313.535h204.935v9.72H16.186z" class="J"/><g class="D"><path d="M21.978 320.18l-3.279-3.279.308-.307 3.278 3.279z"/><path d="M19.009 320.18l-.308-.306 3.279-3.279.308.307z"/><use xlink:href="#B" x="-301.283" y="177.785"/><use xlink:href="#C" x="-301.283" y="177.785"/><use xlink:href="#B" x="-299.137" y="177.785"/><path d="M216.388 318.395l1.945-1.947.307.307-1.945 1.947z"/></g><g class="F"><path d="M18.023 323.255h201.262v12.125H18.023z"/><use xlink:href="#I"/><use xlink:href="#J"/><use xlink:href="#J" x="2.506"/><path d="M62.6 332.124h.189v3.255H62.6z"/><use xlink:href="#J" x="7.519"/><use xlink:href="#I" x="12.532"/><use xlink:href="#J" x="12.532"/><use xlink:href="#J" x="15.039"/><use xlink:href="#J" x="17.545"/><use xlink:href="#J" x="20.052"/><use xlink:href="#I" x="25.064"/><use xlink:href="#J" x="25.065"/><use xlink:href="#J" x="27.571"/><use xlink:href="#J" x="30.078"/><use xlink:href="#J" x="32.584"/><use xlink:href="#I" x="37.597"/><use xlink:href="#J" x="37.597"/><use xlink:href="#J" x="40.103"/><use xlink:href="#J" x="42.61"/><use xlink:href="#J" x="45.116"/><use xlink:href="#I" x="50.129"/><use xlink:href="#J" x="50.129"/><use xlink:href="#J" x="52.636"/><use xlink:href="#J" x="55.142"/><use xlink:href="#J" x="57.649"/><use xlink:href="#I" x="62.661"/><use xlink:href="#J" x="62.662"/><use xlink:href="#J" x="65.168"/><use xlink:href="#J" x="67.674"/><use xlink:href="#J" x="70.181"/><use xlink:href="#I" x="75.194"/><use xlink:href="#J" x="75.194"/><use xlink:href="#J" x="77.7"/><use xlink:href="#J" x="80.207"/><use xlink:href="#J" x="82.713"/><use xlink:href="#I" x="87.726"/><use xlink:href="#J" x="87.726"/><use xlink:href="#J" x="90.233"/><use xlink:href="#J" x="92.739"/><use xlink:href="#J" x="95.246"/><use xlink:href="#I" x="100.258"/><use xlink:href="#J" x="100.259"/><use xlink:href="#J" x="102.765"/><use xlink:href="#J" x="105.271"/><use xlink:href="#J" x="107.778"/><use xlink:href="#I" x="112.791"/><use xlink:href="#J" x="112.791"/><use xlink:href="#J" x="115.297"/><use xlink:href="#J" x="117.804"/><use xlink:href="#J" x="120.31"/><use xlink:href="#I" x="125.323"/><use xlink:href="#J" x="125.323"/><use xlink:href="#J" x="127.83"/><use xlink:href="#J" x="130.336"/><use xlink:href="#J" x="132.843"/><use xlink:href="#I" x="137.855"/><use xlink:href="#J" x="137.855"/><use xlink:href="#J" x="140.362"/><use xlink:href="#J" x="142.868"/><use xlink:href="#J" x="145.375"/><use xlink:href="#I" x="150.388"/><use xlink:href="#J" x="150.388"/><use xlink:href="#J" x="152.894"/><use xlink:href="#J" x="155.401"/><use xlink:href="#J" x="157.907"/></g><g class="J"><path opacity=".5" d="M57.587 335.38h67.438v5.774H57.587zm41.447 11.547h39.807v5.774H99.034zm39.806 11.548h31.164v5.774H138.84zm38.604 11.53h13.436v5.774h-13.436z"/><path d="M190.88 375.779h28.405v5.774H190.88zm-83.172-23.078h13.816v5.774h-13.816zm37.44 11.547h32.297v5.774h-32.297zm-80.749-23.094h43.245v5.774H64.399z"/></g><g class="B"><use xlink:href="#K"/><use xlink:href="#K" x="11.898"/><use xlink:href="#K" x="23.794"/><use xlink:href="#K" x="35.692"/><use xlink:href="#K" x="47.59"/><use xlink:href="#K" x="75.014" y="23.095"/><use xlink:href="#K" x="86.911" y="23.095"/><use xlink:href="#K" x="98.808" y="23.095"/><use xlink:href="#K" x="81.888" y="28.868"/><use xlink:href="#K" x="93.785" y="28.868"/><path d="M174.264 367.135a1.07 1.07 0 1 1-2.142.003 1.07 1.07 0 0 1 1.827-.762 1.07 1.07 0 0 1 .315.759z"/><use xlink:href="#L"/><use xlink:href="#L" x="11.898"/><use xlink:href="#L" x="23.795"/><circle cx="114.616" cy="355.588" r="1.071"/><use xlink:href="#K" x="116.652" y="34.625"/><circle cx="107.04" cy="349.814" r="1.071"/><circle cx="118.937" cy="349.814" r="1.071"/><use xlink:href="#K" x="63.323" y="11.547"/><use xlink:href="#K" x="6.614" y="5.774"/><use xlink:href="#K" x="18.511" y="5.774"/><use xlink:href="#K" x="30.408" y="5.774"/></g><use xlink:href="#M" class="G"/><use xlink:href="#M" y="5.774" class="F"/><use xlink:href="#M" y="11.547" class="G"/><use xlink:href="#M" y="17.321" class="F"/><use xlink:href="#M" y="23.095" class="G"/><use xlink:href="#M" y="28.868" class="F"/><use xlink:href="#M" y="34.642" class="G"/><use xlink:href="#M" y="40.416" class="F"/><g fill="none" class="L"><path d="M57.587 341.154h161.698m-161.698 5.773h161.698m-161.698 5.774h161.698m-161.698 5.774h161.698m-161.698 5.773h161.698m-161.698 5.774h161.698m-161.698 5.774h161.698M57.587 381.57h161.698" stroke-width=".25" stroke="#37474f"/><path stroke="#fff" d="M98.97 320.26v61.31" class="N"/></g><path d="M100.731 317.575v3.885l-1.761 1.484-1.762-1.484v-3.885z" class="B"/><path d="M45.829 155.545h149.396v21.626H45.829z" class="G"/><path d="M45.829 145.825h149.396v9.72H45.829z" class="J"/><g class="D"><path d="M51.622 152.471l-3.279-3.279.308-.307 3.278 3.279z"/><path d="M48.651 152.471l-.308-.306 3.279-3.279.308.307z"/><use xlink:href="#B" x="-327.179" y="10.076"/><use xlink:href="#C" x="-327.179" y="10.076"/><use xlink:href="#B" x="-325.033" y="10.076"/><path d="M190.492 150.685l1.945-1.946.307.307-1.945 1.946z"/></g><g class="B"><path d="M115.203 171.683v-10.648l10.648 5.324zm30.108-.001v-10.648l10.648 5.324zm-2.2-10.648h.93v10.648h-.93zm-47.369 0v10.648l-10.648-5.324zm2.2 10.648h-.93v-10.648h.93zm-29.257-10.648v10.648l-10.648-5.324z"/><path d="M58.039 171.682h-.93v-10.648h.93zm114.329 0v-10.648l10.648 5.324z"/><path d="M183.016 161.034h.93v10.648h-.93z"/></g><path d="M330.983 347.844h157.563v21.626H330.983z" class="F"/><path d="M330.983 338.124h157.563v9.72H330.983z" class="J"/><g class="D"><path d="M336.775 344.77l-3.279-3.279.308-.307 3.278 3.279z"/><path d="M333.805 344.77l-.308-.306 3.279-3.279.308.307zm147.862-1.786l.306-.306 1.946 1.946-.306.306z"/><use xlink:href="#C" x="-33.858" y="202.375"/><use xlink:href="#B" x="-31.712" y="202.375"/><path d="M483.813 342.985l1.945-1.947.306.306-1.945 1.947z"/></g><path d="M336.681 351.352h15.142v15.142h-15.142z" class="O"/><g class="C"><path d="M344.648 360.318l1.446 3.491-1.444.6-1.454-3.515-2.386 1.852v-9.835l6.885 6.955zm71.019-2.603a16.5 16.5 0 0 1 6.556-3.467l2.119 2.119a16.5 16.5 0 0 1-3.467 6.556c-3.391-.958-6.171 1.707-6.171 1.707l-.22-.219 4.311-4.312a.94.94 0 0 0 1.159-1.459.94.94 0 0 0-1.459 1.159l-4.312 4.312-.219-.22s2.665-2.784 1.703-6.176z"/><path d="M424.589 357.131l-3.13-3.13 1.317-1.317 3.13 3.13zm18.898-4.223v2.72h-.907c-.185.011-.349-.118-.381-.3l-.079-.652h-2.338v8.158l.461.08c.111.015.191.048.238.048a.56.56 0 0 1 .1.015.47.47 0 0 1 .413.494v.938h-4.548v-.936a.46.46 0 0 1 .4-.494.62.62 0 0 1 .1-.015c.047 0 .127-.032.239-.048l.461-.08v-8.174h-2.338l-.079.668a.35.35 0 0 1-.366.3h-.922v-2.72h9.558zm10.977 7.49c-1.74-.29-1.985 1.544-2.012 2.26a2.02 2.02 0 0 1-1.406 1.544s2.7.744 4.052-.634c.534-.424.786-1.11.652-1.779s-.63-1.206-1.286-1.391z"/><path d="M460.842 353.855l-4.786 7.118a1.88 1.88 0 0 0-1.353-1.035 2.62 2.62 0 0 0-.305-.026l5.268-7z"/></g><path fill="none" stroke="#ebebeb" d="M394.902 353.466h10.938v10.938h-10.938z" class="L"/><g class="C"><path d="M476.041 355.065c0 1.034-.838 1.873-1.873 1.873s-1.873-.838-1.873-1.872.838-1.873 1.872-1.874 1.873.838 1.874 1.873z"/><path d="M473.451 354.747h1.426v6.222h-1.426z"/><path d="M479.088 359.997l1.753 2.4h-13.353l1.753-2.4zm-11.6 2.95h13.353v1.08h-13.353zm-99.915-1.933a3.74 3.74 0 0 1-1.4 2.948 3.63 3.63 0 0 1-1.887.686 3.52 3.52 0 0 1-2.344-.482 3.98 3.98 0 0 1-1.127-1.086l-1.756-2.581-.433-.67a.8.8 0 0 1 .1-.98c.255-.269.663-.324.98-.131a2 2 0 0 1 .425.482l.776 1.094c.008.008.016.008.041.016v-5.578a.65.65 0 0 1 1.176-.392.7.7 0 0 1 .131.441v3.185a.7.7 0 0 0 0 .131c.018.109.114.188.224.186s.203-.084.217-.194v-4.214c-.017-.353.249-.657.602-.685s.665.228.705.579v4.214c-.003.041.003.083.016.122a.23.23 0 0 0 .245.18c.111-.013.199-.101.212-.212.004-.038.004-.076 0-.114v-3.635a.65.65 0 0 1 .327-.621.64.64 0 0 1 .956.555v1.715l.008 2.54c-.002.09.031.177.09.245.08.042.172.057.261.041.094-.027.158-.114.155-.212v-2.957c-.013-.238.104-.464.306-.591a.65.65 0 0 1 .665-.017c.208.116.337.336.336.574v.7 2.932l-.007 1.785zm12.35.44c-2.36-.001-4.273-1.914-4.272-4.274s1.914-4.273 4.274-4.272 4.273 1.914 4.272 4.274a4.28 4.28 0 0 1-4.274 4.272zm0-6.968c-1.487.003-2.691 1.21-2.69 2.697s1.206 2.692 2.693 2.693 2.694-1.203 2.697-2.69a2.7 2.7 0 0 0-2.7-2.7z"/><path d="M381.432 360.31l1.116-1.116 4.096 4.096-1.116 1.116z"/></g><path d="M405.457 204.019h100.761v105.58H405.457z" class="F"/><path d="M405.457 204.019h100.761v9.72H405.457z" class="J"/><g class="D"><path d="M411.25 210.665l-3.279-3.279.308-.307 3.278 3.279z"/><path d="M408.28 210.665l-.308-.306 3.279-3.279.308.307z"/><use xlink:href="#B" x="-16.186" y="68.27"/><use xlink:href="#C" x="-16.186" y="68.27"/><use xlink:href="#B" x="-14.04" y="68.27"/><path d="M501.485 208.88l1.946-1.946.307.307-1.946 1.946z"/></g><path d="M409.924 218.875h91.827v17.311h-91.827z" class="G"/><path d="M413.999 222.052h10.889v10.889h-10.889z" class="J"/><path d="M431.074 222.052h.903v10.889h-.903z" class="D"/><path d="M439.856 226.037h52.782v2.988h-52.782z" class="F"/><path d="M413.999 239.363h10.889v10.889h-10.889z" class="E"/><path d="M431.074 239.363h.903v10.889h-.903z" class="O"/><path d="M439.856 243.348h52.782v2.988h-52.782zm-29.932 10.149h91.827v17.311h-91.827z" class="G"/><path d="M413.999 256.673h10.889v10.889h-10.889z" class="J"/><path d="M431.074 256.673h.903v10.889h-.903z" class="D"/><path d="M439.856 260.659h52.782v2.988h-52.782z" class="F"/><path d="M409.924 288.119h91.827v17.311h-91.827z" class="G"/><path d="M413.999 291.296h10.889v10.889h-10.889z" class="I"/><path d="M431.074 291.296h.903v10.889h-.903z" class="D"/><path d="M439.856 295.281h52.782v2.988h-52.782z" class="F"/><path d="M339.641 211.801l3.13 7.559-3.126 1.294-3.148-7.61-5.167 4.009v-21.295l14.906 15.059z" stroke="#263238" stroke-width=".75" class="B L"/><defs ><path id="B" d="M515.525 140.609l.307-.307 1.946 1.946-.307.307z"/><path id="C" d="M515.525 140.609l1.946-1.946.306.306-1.946 1.946z"/><path id="D" d="M315.205 250.127a15.19 15.19 0 0 0-1.947-.457l-1.55-.417a5.91 5.91 0 0 1-2.735-1.672c-.863-1.196-1.467-2.558-1.774-4q-.383-1.307-.787-2.6-.194-.628-.394-1.253l-.486-1.5c-.016-.074-.1-.034-.078.035.1.339.145.726.219 1.082l.26 1.261.486 2.242c.249 1.342.617 2.66 1.1 3.937.744 1.823 2.399 3.115 4.348 3.394a14.91 14.91 0 0 0 1.469.18 7.24 7.24 0 0 0 1.856.02c.083-.022.112-.214.013-.252z"/><path id="E" d="M269.759 248.627c.943-.04 1.917.091 2.86.141l2.289.06a9.83 9.83 0 0 0 4.233-.81 9.46 9.46 0 0 0 3.351-3.378q.816-1.163 1.658-2.307l.82-1.107c.359-.421.693-.864 1-1.324.039-.068.149 0 .1.057a9.9 9.9 0 0 0-.536.993l-.631 1.155-1.156 2.047c-.649 1.264-1.447 2.445-2.376 3.519-1.807 1.862-4.4 2.215-6.881 2.008l-2.123-.267c-.894-.103-1.778-.284-2.64-.541-.061-.016-.101-.075-.093-.137s.062-.109.125-.109z"/><path id="F" d="M299.504 261.406a66.4 66.4 0 0 0-10.967 3.644c-.062.02-.096.086-.077.149s.086.096.149.077c3.68-1.1 7.421-2.128 11.036-3.429a.23.23 0 0 0-.141-.44z"/><path id="G" d="M303.335 237.518c0-.123-.205-.174-.22-.043-.452 3.912-1.099 7.798-1.941 11.645-.372 1.787-2.979 11.6-6.025 10.508-.51-.182-.719-.729-.71-1.529a12.66 12.66 0 0 1 .77-3.013c.589-2.048 1.11-4.112 1.534-6.2a57.68 57.68 0 0 0 1.237-11.819.1.1 0 1 0-.2-.012c-.537 5.459-1.485 10.87-2.837 16.186-.692 2.55-2.451 6.307.217 7.02 2.718.727 5.263-5.612 5.808-7.364a60.18 60.18 0 0 0 2.367-15.379z"/><path id="H" d="M295.196 259.907c-.357.641-.672 1.305-.943 1.987a4.73 4.73 0 0 0-.489 1.666c0 .112.145.139.212.071a6.01 6.01 0 0 0 .919-1.57l.932-1.839c.087-.174.016-.386-.158-.473s-.386-.016-.473.158z"/><path id="I" d="M67.613 330.616h.189v4.763h-.189z"/><path id="J" d="M57.587 332.124h.189v3.255h-.189z"/><path id="K" d="M68.582 338.267a1.07 1.07 0 1 1-2.142 0 1.07 1.07 0 0 1 1.828-.757 1.07 1.07 0 0 1 .314.757z"/><path id="L" d="M194.256 378.665a1.07 1.07 0 0 1-1.828.759 1.07 1.07 0 0 1 .757-1.829 1.07 1.07 0 0 1 1.071 1.07z"/><path id="M" d="M18.023 335.38h39.564v5.774H18.023z"/></defs></svg>