<svg xmlns="http://www.w3.org/2000/svg" width="312.645" height="229.798" viewBox="0 0 312.645 229.798">
  <g id="Group_5504" data-name="Group 5504" transform="translate(-988 -8656.266)">
    <g id="Group_5503" data-name="Group 5503">
      <g id="Group_5501" data-name="Group 5501" transform="translate(65 25)">
        <g id="Group_5496" data-name="Group 5496" transform="translate(0.194 642.359)">
          <g id="Group_5485" data-name="Group 5485" transform="translate(-1005.322 48.223)">
            <g id="Group_5477" data-name="Group 5477" transform="translate(862.322 258.379)">
              <path id="Path_45468" data-name="Path 45468" d="M-3612.252,4091.689l.483,5.508,15.39,175.6h296.772V4043.72" transform="translate(4678.058 3638.585)" fill="#fbd206"/>
            </g>
          </g>
        </g>
        <g id="man-playing-video-game" transform="translate(777.523 8509.417)">
          <path id="Path_45564" data-name="Path 45564" d="M373.276,231.761c-.911-1.883-2.546-1.68-4.541-5.664-1.913-4.022-.746-5.182-1.657-7.064-.6-1.205-3.366-2.658-9.52-.911-3.509.994-8.638,2.719-8.488,4.5.181,2.214,2.289,1.966,4.812,3.261,2.553,1.326,3.4,2.139,4.843,5.1a9.812,9.812,0,0,1,1.318,4.421c.648,2.282,2.38,7.125,4.933,5.249a92.747,92.747,0,0,0,8.488-8A2.157,2.157,0,0,0,373.276,231.761Zm-9.986-5.852a2.555,2.555,0,1,1,1.175-3.419,2.555,2.555,0,0,1-1.175,3.419Zm2.214,7.456a1.282,1.282,0,1,1,.587-1.71,1.282,1.282,0,0,1-.587,1.71Zm3.412,1.175a1.272,1.272,0,1,1,.655-.73,1.277,1.277,0,0,1-.655.73Z" transform="translate(-47.79 -22.846)" fill="#5504b0" fill-rule="evenodd"/>
          <path id="Path_45565" data-name="Path 45565" d="M272.786,154.212a21.992,21.992,0,0,1,1.545,3.173,18.013,18.013,0,0,1,.982,3.432,8.726,8.726,0,0,1,.115,1.848l-.025.416a2.119,2.119,0,0,0,.016.351,2.541,2.541,0,0,0,.177.7,4.775,4.775,0,0,0,2.174,2.27l.036.018a.254.254,0,0,1,.133.283,3.815,3.815,0,0,1-.36.923,2.986,2.986,0,0,1-.595.777,2.24,2.24,0,0,1-.833.519,3.036,3.036,0,0,1-.956.174l.183-.212a46.933,46.933,0,0,1,.5,4.814,13.731,13.731,0,0,1-.116,2.464,5.82,5.82,0,0,1-.863,2.473,4.448,4.448,0,0,1-2.238,1.535,12.346,12.346,0,0,1-2.454.554,22.747,22.747,0,0,1-4.9.022l.472-.281a6.985,6.985,0,0,0-.446,1.216,4.657,4.657,0,0,0-.165,1.293,3.3,3.3,0,0,0,.292,1.251,3.122,3.122,0,0,0,.865,1.018l.005,0a.059.059,0,0,1-.065.1,2.991,2.991,0,0,1-1.144-.91,3.239,3.239,0,0,1-.574-1.4,5.362,5.362,0,0,1-.011-1.505,6.066,6.066,0,0,1,.363-1.471.438.438,0,0,1,.407-.281h.066a32.484,32.484,0,0,0,4.663-.306,13.616,13.616,0,0,0,2.211-.495,3.334,3.334,0,0,0,1.719-1.019,5.328,5.328,0,0,0,.792-1.98,18.436,18.436,0,0,0,.322-2.3,23.349,23.349,0,0,0-.071-4.74.19.19,0,0,1,.165-.211h.018a2.241,2.241,0,0,0,.827-.145,1.864,1.864,0,0,0,.689-.456,2.488,2.488,0,0,0,.455-.7,2.73,2.73,0,0,0,.21-.8l.169.3a5.49,5.49,0,0,1-1.617-.913,4.776,4.776,0,0,1-1.242-1.462,3.356,3.356,0,0,1-.315-.972,3.147,3.147,0,0,1-.032-.52l.021-.457a9.173,9.173,0,0,0-.062-1.635,46.615,46.615,0,0,0-1.622-6.7.06.06,0,0,1,.038-.076A.062.062,0,0,1,272.786,154.212Z" transform="translate(-26.912 -7.262)" fill="#5504b0"/>
          <path id="Path_45566" data-name="Path 45566" d="M258.1,176.782c-2.357,1.928-8.676,1.5-8.676,1.5-4.21-2.418-5.287-7.027-5.521-8.458-.369.67-1.3.949-1.868,1.823-1.6,2.463-5.069,4.391-6.748,4.172-4.1-.527-6.168-7.147-5.889-11.779.429-7.072.324-10.921,8.887-15.635a18.272,18.272,0,0,1,4.511-1.8c-.806,3.254-.8,8.3-.512,12.833h.1a5.071,5.071,0,1,0,2.282-.151,63.437,63.437,0,0,1,.317-13.06c.316-.03.633-.045.941-.053a13.665,13.665,0,0,1,2.99.249,15.684,15.684,0,0,1,8.654,5.189s-1.22,1.348-3,3.11a70.32,70.32,0,0,1-6.274,5.656s2.681,8.269,11.169,8.269C259.669,171.088,259.767,175.426,258.1,176.782ZM200.02,199.809s12.566-16.85,22.419-17.564l35.71,1.365a19.241,19.241,0,0,1,17.306,12.539l8.041,21.695a5.433,5.433,0,0,0,4.669,3.528c7.029.553,22.814,1.641,29.054.82,0,0,1.392,8.246-.75,10.71l-39.2,4.177s-16.386-37.591-20.348-38.555C256.924,198.524,210.8,197.667,200.02,199.809Z" transform="translate(-10.996 -5.284)" fill="#5504b0"/>
          <path id="Path_45567" data-name="Path 45567" d="M189.024,217.425l-9.862.219a6.939,6.939,0,0,0-4.5,1.378,6.637,6.637,0,0,0-2.475,3.936,22.379,22.379,0,0,0-.235,2.418c-.076.823-.161,1.644-.263,2.463-.2,1.637-.447,3.267-.711,4.893q-.807,4.877-1.824,9.712a.394.394,0,0,1-.094.184l-.006.006-6.535,7.17a.455.455,0,0,1-.046.044l-.005,0a21.1,21.1,0,0,0-2.778,2.689,13.8,13.8,0,0,0-2.12,3.172,12.1,12.1,0,0,0-.86,7.449l2.574,15.614q1.3,7.805,2.684,15.595c.924,5.193,1.851,10.385,2.863,15.56s2.075,10.341,3.329,15.459c.64,2.554,1.3,5.108,2.173,7.583.225.615.453,1.23.725,1.82a6.683,6.683,0,0,0,.969,1.63,1.254,1.254,0,0,0,.32.244c.136.049.3.082.446.124a8.329,8.329,0,0,0,.949.183c.64.118,1.3.171,1.95.26,5.239.537,10.511.849,15.778,1.112s10.54.489,15.813.681q15.819.545,31.645.886l15.825.311,7.911.106,3.953.03c1.307-.007,2.658.037,3.894-.075a63.905,63.905,0,0,0,7.641-1.68c2.538-.683,5.06-1.433,7.569-2.226q7.526-2.379,14.857-5.317a127.079,127.079,0,0,0,14.268-6.646,54.149,54.149,0,0,0,6.578-4.225,18.559,18.559,0,0,0,5.148-5.568l-.059.2q1.222-10.733,1.97-21.539c.481-7.2.788-14.405.731-21.612q-.029-5.405-.457-10.792c-.042-.9-.188-1.788-.283-2.682-.113-.891-.2-1.788-.334-2.676l-.5-2.646c-.09-.428-.148-.913-.265-1.293a2.53,2.53,0,0,0-1.694-1.621,3.537,3.537,0,0,0-1.258-.088l-2.707.092-5.413.184-10.827.368a.059.059,0,1,1-.005-.119l10.817-.6,5.408-.3,2.7-.149a3.94,3.94,0,0,1,1.429.083,3.089,3.089,0,0,1,2.088,1.958c.151.483.195.9.3,1.354l.532,2.672c.147.895.243,1.8.367,2.694.106.9.263,1.8.316,2.7q.492,5.411.582,10.842c.139,7.236-.088,14.469-.489,21.689s-.983,14.426-1.816,21.62l0,.014a.518.518,0,0,1-.058.184,19.643,19.643,0,0,1-5.483,6,55.321,55.321,0,0,1-6.72,4.337,125.062,125.062,0,0,1-14.4,6.732q-7.386,2.922-14.972,5.274c-2.527.785-5.067,1.527-7.628,2.2a64.513,64.513,0,0,1-7.818,1.672c-1.394.117-2.687.058-4.017.061l-3.961-.063-7.916-.192L238.9,340.7q-15.824-.527-31.641-1.235-7.909-.333-15.815-.748c-5.269-.311-10.542-.544-15.8-1.067-.658-.086-1.315-.135-1.974-.252a8.692,8.692,0,0,1-.993-.187c-.169-.048-.333-.079-.505-.141a1.648,1.648,0,0,1-.469-.344,7.017,7.017,0,0,1-1.062-1.748c-.284-.607-.518-1.229-.75-1.851-.894-2.5-1.61-5.046-2.284-7.6-1.33-5.116-2.471-10.274-3.554-15.442-2.173-10.336-4.043-20.729-5.815-31.136-.891-5.2-1.705-10.419-2.521-15.634a13.09,13.09,0,0,1,.982-8.012,14.747,14.747,0,0,1,2.278-3.377,22.032,22.032,0,0,1,2.916-2.792l-.051.047,6.6-7.109-.1.19q1.073-4.8,1.946-9.65c.284-1.616.548-3.235.771-4.858.113-.812.208-1.624.293-2.437l.1-1.22a8.292,8.292,0,0,1,.176-1.263,7.143,7.143,0,0,1,2.754-4.178,7.341,7.341,0,0,1,4.77-1.356l9.864,0a.059.059,0,0,1,0,.119Z" transform="translate(0 -22.84)" fill="#5504b0"/>
          <path id="Path_45568" data-name="Path 45568" d="M183.145,224.878l7.015-.145,7.015-.083,14.03-.069,14.029.068,7.015.084,7.015.145-7.015.146-7.015.083-14.029.069-14.03-.069-7.015-.084Z" transform="translate(-6.83 -24.64)" fill="#5504b0"/>
          <path id="Path_45569" data-name="Path 45569" d="M270.746,245.637l6.753-.846,6.759-.788,13.526-1.5,13.537-1.393,13.544-1.331c-2.243.339-4.492.641-6.74.948l-6.754.837c-4.5.544-9.015,1.025-13.524,1.53-4.514.455-9.025.936-13.542,1.358l-6.777.623ZM237.9,211.224c1.417,2.321,2.776,4.673,4.126,7.03s2.657,4.738,3.988,7.106c1.289,2.391,2.6,4.77,3.867,7.173s2.526,4.811,3.726,7.25c-1.417-2.32-2.776-4.673-4.127-7.029s-2.658-4.738-3.987-7.107c-1.287-2.392-2.6-4.77-3.866-7.173S239.1,213.663,237.9,211.224Zm0-3.427a25.606,25.606,0,0,1,3.834-1.568,25.308,25.308,0,0,1,4.019-1,25.305,25.305,0,0,1-3.834,1.568A25.6,25.6,0,0,1,237.9,207.8ZM169.218,228.93c-.079,1.047-.222,2.081-.374,3.114s-.338,2.059-.53,3.083-.413,2.044-.665,3.057-.5,2.027-.822,3.026c.078-1.047.221-2.081.373-3.114s.338-2.059.531-3.083.414-2.044.666-3.057S168.9,229.93,169.218,228.93Zm-11.832,13.343a29.021,29.021,0,0,1,5.739-1.082,10.127,10.127,0,0,1,2.934.156,3.522,3.522,0,0,1,1.369.61,2.188,2.188,0,0,1,.8,1.286c.85,3.821,1.488,7.654,2.18,11.49,1.341,7.674,2.555,15.368,3.734,23.068,1.128,7.708,2.223,15.421,3.126,23.16.445,3.87.861,7.744,1.177,11.628.149,1.943.274,3.888.338,5.836.022.974.058,1.948.02,2.923-.009.487-.023.974-.08,1.459a8.316,8.316,0,0,1-.237,1.44,8.3,8.3,0,0,0,.2-1.443c.044-.484.046-.971.043-1.457.013-.972-.047-1.945-.093-2.915-.113-1.942-.286-3.881-.483-5.816-.376-3.873-.841-7.738-1.341-11.6q-1.495-11.581-3.259-23.127c-1.129-7.7-2.351-15.394-3.6-23.08-.635-3.837-1.23-7.7-2.011-11.492a1.908,1.908,0,0,0-.674-1.161,3.292,3.292,0,0,0-1.264-.6,9.958,9.958,0,0,0-2.873-.222A28.954,28.954,0,0,0,157.386,242.273Zm109.071,85.2c.247-.014.389-.251.5-.442a3.937,3.937,0,0,0,.265-.645,12.275,12.275,0,0,0,.344-1.354c.184-.914.318-1.837.433-2.762.228-1.85.384-3.709.517-5.569.261-3.72.419-7.447.542-11.175.265-7.455.384-14.915.421-22.374s-.009-14.92-.187-22.376c-.115-3.72-.172-7.471-.555-11.147a8.113,8.113,0,0,0-2.179-4.842,6.808,6.808,0,0,0-4.855-1.93,7.263,7.263,0,0,0-4.855,2.009,7.653,7.653,0,0,0-2.341,4.751,73.559,73.559,0,0,0-.648,11.121c.016,7.468-.153,14.927-.218,22.387s-.091,14.921.154,22.375c.113,3.727.29,7.454.672,11.162a55.78,55.78,0,0,0,.808,5.53,11.47,11.47,0,0,0,2.046,5.135,11.5,11.5,0,0,1-2.117-5.12,55.875,55.875,0,0,1-.881-5.529c-.43-3.71-.656-7.439-.818-11.168-.287-7.461-.295-14.927-.259-22.389s.167-14.925.117-22.38a74.047,74.047,0,0,1,.6-11.206,8.22,8.22,0,0,1,2.488-5.084,7.824,7.824,0,0,1,5.238-2.188,7.386,7.386,0,0,1,5.264,2.12,8.663,8.663,0,0,1,2.318,5.177c.214,1.879.274,3.739.354,5.607s.118,3.732.156,5.6c.145,7.464.153,14.927.088,22.39s-.218,14.925-.527,22.383c-.172,3.728-.379,7.455-.687,11.175-.157,1.859-.338,3.717-.59,5.567-.128.924-.273,1.847-.469,2.76a12.25,12.25,0,0,1-.362,1.352,3.95,3.95,0,0,1-.274.644C266.851,327.225,266.7,327.462,266.456,327.472Zm-11.133,0c.607,2.783,1.175,5.57,1.807,8.344.6,2.78,1.21,5.556,1.875,8.318s1.333,5.521,2.122,8.238c.394,1.358.8,2.712,1.276,4.027.238.657.5,1.3.788,1.921a8.561,8.561,0,0,0,.476.874,2.313,2.313,0,0,0,.53.635c.037.024.063.033.082.047,0-.01.012.01,0,0-.022.02.02-.011.088-.07a2.732,2.732,0,0,0,.4-.743,15.553,15.553,0,0,0,.537-1.982c.345-1.36.572-2.755.812-4.143.476-2.783.725-5.607.971-8.43.229-2.826.362-5.663.429-8.5.1-2.84.1-5.684.09-8.531.284,2.835.4,5.683.493,8.533q.077,4.276-.1,8.557a82,82,0,0,1-.771,8.545c-.079.713-.238,1.416-.355,2.124s-.273,1.411-.438,2.113a16.309,16.309,0,0,1-.569,2.136,3.715,3.715,0,0,1-.621,1.119,2.213,2.213,0,0,1-.326.276A1.207,1.207,0,0,1,263.9,361a1.815,1.815,0,0,1-.387-.2,3.334,3.334,0,0,1-.847-.978,9.682,9.682,0,0,1-.539-1c-.313-.672-.578-1.35-.819-2.031-.481-1.364-.9-2.737-1.266-4.119-.731-2.767-1.381-5.545-1.93-8.343s-1.077-5.6-1.554-8.4C256.121,333.111,255.667,330.3,255.324,327.472Zm-68.269-3.227c-.343,2.828-.8,5.639-1.237,8.453q-.718,4.211-1.554,8.4c-.549,2.8-1.2,5.577-1.93,8.343-.371,1.383-.785,2.756-1.266,4.119-.242.681-.506,1.359-.819,2.031a9.762,9.762,0,0,1-.539,1,3.339,3.339,0,0,1-.847.978,1.808,1.808,0,0,1-.387.2,1.207,1.207,0,0,1-1.014-.127,2.216,2.216,0,0,1-.326-.276,3.716,3.716,0,0,1-.621-1.119,16.292,16.292,0,0,1-.569-2.136c-.165-.7-.324-1.4-.438-2.113s-.276-1.411-.355-2.124a82,82,0,0,1-.771-8.545q-.179-4.281-.1-8.558c.095-2.849.209-5.7.493-8.533-.014,2.848-.012,5.691.091,8.531.067,2.84.2,5.677.429,8.5.247,2.823.5,5.647.971,8.43.24,1.389.467,2.783.812,4.143a15.57,15.57,0,0,0,.537,1.982,2.728,2.728,0,0,0,.4.743c.068.059.11.09.088.069-.013.012-.006-.008,0,0,.019-.014.045-.022.082-.047a2.313,2.313,0,0,0,.529-.635,8.573,8.573,0,0,0,.476-.874c.292-.616.551-1.263.788-1.921.478-1.316.882-2.67,1.276-4.027.789-2.717,1.445-5.48,2.122-8.238s1.278-5.538,1.875-8.318C185.88,329.816,186.448,327.028,187.055,324.246Zm131.058-14.165,1.389,6c.449,2,.908,4,1.41,5.979s1,3.967,1.622,5.891a14.487,14.487,0,0,0,1.095,2.71,1.956,1.956,0,0,0,.167.223c.049.061.1.069.025.045a.3.3,0,0,0-.168.011c-.039.007-.063.04-.055.027a.92.92,0,0,0,.093-.162,6.122,6.122,0,0,0,.339-1.334c.169-.972.251-1.982.332-3s.165-2.038.233-3.057c.169-2.038.245-4.08.36-6.121q.144-3.063.122-6.132c.019-2.047-.042-4.093-.211-6.139a65.562,65.562,0,0,1,1,12.289c.02,2.059-.051,4.117-.15,6.172-.044,1.028-.124,2.054-.2,3.08s-.144,2.061-.319,3.112a7.006,7.006,0,0,1-.446,1.632,1.817,1.817,0,0,1-.319.483,1.056,1.056,0,0,1-.365.247.873.873,0,0,1-.545.028,1.243,1.243,0,0,1-.593-.391,3.082,3.082,0,0,1-.291-.393,14.184,14.184,0,0,1-1.182-2.992c-.577-2-1.048-4-1.438-6.024s-.759-4.042-1.09-6.069C318.639,314.154,318.325,312.125,318.112,310.081ZM242.651,163.673a4.341,4.341,0,0,1,2.2-.755,3.435,3.435,0,0,1,1.19.112,1.881,1.881,0,0,1,1.005.643,4.169,4.169,0,0,0-1.085-.185,8.37,8.37,0,0,0-1.071.024C244.163,163.551,243.439,163.658,242.651,163.673Zm3.32,3.141a.893.893,0,1,0-.862-.892A.893.893,0,0,0,245.971,166.814Zm-21.927,9.607a19.407,19.407,0,0,1,.085,2.883,20.7,20.7,0,0,1-.3,2.877,11.284,11.284,0,0,1-.84,2.8,4.515,4.515,0,0,1-.83,1.236,1.641,1.641,0,0,1-1.358.5,1.619,1.619,0,0,0,1.14-.7,4.261,4.261,0,0,0,.625-1.219,17.547,17.547,0,0,0,.677-2.724c.173-.928.294-1.868.43-2.81Zm102.1,42.8a1.157,1.157,0,0,1,1.464-.388,1.224,1.224,0,0,1,.593.613,2.332,2.332,0,0,1,.145.828,5.122,5.122,0,0,1-1.029,3.073l-.055-.365a3.526,3.526,0,0,1,1,1.206,3.682,3.682,0,0,1,.4,1.509,4.372,4.372,0,0,1-.244,1.527c-.082.243-.2.469-.3.7l-.375.654.025-.246a7.919,7.919,0,0,1,.4,1.784,2.9,2.9,0,0,1-.326,1.859l.034-.126a5.81,5.81,0,0,1-.187,1.271,5.682,5.682,0,0,1-.447,1.185,4.886,4.886,0,0,1-1.651,1.851,5.692,5.692,0,0,0,.82-.909,4.705,4.705,0,0,0,.577-1.06,5.741,5.741,0,0,0,.445-2.324.222.222,0,0,1,.025-.109l.009-.016a2.77,2.77,0,0,0,.185-1.568,7.41,7.41,0,0,0-.4-1.642.284.284,0,0,1,.017-.232l.008-.014.334-.611c.083-.214.187-.422.254-.638a4.4,4.4,0,0,0,.229-1.322,3.125,3.125,0,0,0-.309-1.281,3.046,3.046,0,0,0-.81-1.032l-.015-.012a.253.253,0,0,1-.04-.354,4.917,4.917,0,0,0,1.1-2.762,2.478,2.478,0,0,0-.067-.729,1,1,0,0,0-.43-.544A1.1,1.1,0,0,0,326.146,219.218Zm-19.152,9.5a4.447,4.447,0,0,0,1.883-1.53,3.2,3.2,0,0,0,.466-1.07,3.642,3.642,0,0,0,.092-.578c.028-.2.044-.435.082-.648a6.688,6.688,0,0,1,.929-2.444,5.836,5.836,0,0,1,.812-1.031,3.121,3.121,0,0,1,.513-.427,1.16,1.16,0,0,1,.669-.247h.01a.112.112,0,0,1,.108.095c.058.375.125.749.168,1.133-.148-.354-.271-.718-.4-1.081l.118.095a2.042,2.042,0,0,0-.867.718,7.2,7.2,0,0,0-.668,1.014,8,8,0,0,0-.813,2.277c-.04.2-.054.39-.088.6a3.723,3.723,0,0,1-.142.663,3.2,3.2,0,0,1-.635,1.188,3.765,3.765,0,0,1-2.23,1.269Zm12.231.786a5.074,5.074,0,0,1,.735.749,3.352,3.352,0,0,0,.693.679.749.749,0,0,1-.628.064,1.191,1.191,0,0,1-.519-.359A1.281,1.281,0,0,1,319.225,229.5Zm2.642,2.785c.251.355.4.636.57.905s.333.508.573.88a1.117,1.117,0,0,1-1.081-.571,1.217,1.217,0,0,1-.061-1.214Z" transform="translate(-0.471 -9.415)" fill="#5504b0"/>
          <path id="Path_45570" data-name="Path 45570" d="M375.211,248.72l5.711-6.417a.3.3,0,1,1,.445.4l-.014.015Zm2.963,1.785,2.919-2.731a.3.3,0,1,1,.408.436.326.326,0,0,1-.035.028Zm1.25,2.249a2.371,2.371,0,0,1,.836-.909,2.346,2.346,0,0,1,1.164-.412,2.344,2.344,0,0,1-.836.909A2.371,2.371,0,0,1,379.423,252.754Zm2.21-2.254c.035-.138.16-.12.231-.109l.179.084c.11.065.2.144.305.216.191.156.366.324.548.489.338.348.678.7.992,1.065.649.721,1.254,1.475,1.864,2.226,1.2,1.515,2.352,3.068,3.488,4.629,2.3,3.108,4.423,6.33,6.589,9.524,1.079,1.6,2.122,3.223,3.157,4.851s2.065,3.258,3.069,4.906c2.029,3.28,3.993,6.6,6.07,9.851,2.032,3.278,4.155,6.5,6.231,9.751q1.575,2.429,3.089,4.9c.482.843,1,1.659,1.434,2.539a13.945,13.945,0,0,1,.641,1.329c.1.23.2.454.29.689l.218.736a3.785,3.785,0,0,1,.138.777,3.3,3.3,0,0,1,.037.4l-.034.414a2.787,2.787,0,0,1-.175.8,4.111,4.111,0,0,1-.311.729,9.725,9.725,0,0,1-1.784,2.455,39.362,39.362,0,0,1-4.517,3.743c-3.138,2.291-6.382,4.4-9.727,6.36l.294-.649c.248,1.374.448,2.736.588,4.126.063.7.123,1.392.124,2.108a9.245,9.245,0,0,1-.048,1.1,3.153,3.153,0,0,1-.341,1.232,1.047,1.047,0,0,1-.435.37,2.247,2.247,0,0,1-.32.129,5.188,5.188,0,0,1-.56.142c-.361.073-.712.122-1.062.165-.7.083-1.39.138-2.08.182-1.381.087-2.757.134-4.132.167-2.75.075-5.5.033-8.243,0s-5.489-.152-8.232-.261a.06.06,0,0,1-.057-.062.06.06,0,0,1,.059-.057l8.226-.24c2.74-.076,5.479-.205,8.212-.331,1.366-.07,2.73-.154,4.085-.278.677-.062,1.351-.134,2.013-.232.329-.05.657-.106.966-.177a4.122,4.122,0,0,0,.433-.122,1.113,1.113,0,0,0,.154-.066c.051-.015.031-.047-.034.058a2.647,2.647,0,0,0,.161-.748,8.119,8.119,0,0,0,.035-.958c0-.656-.065-1.328-.13-2-.142-1.339-.349-2.691-.6-4.015a.622.622,0,0,1,.287-.645l.007,0c3.276-1.988,6.544-4.03,9.674-6.233a38.59,38.59,0,0,0,4.441-3.56,8.615,8.615,0,0,0,1.661-2.158,3.174,3.174,0,0,0,.335-2.457,24.826,24.826,0,0,0-2.291-5.16c-.931-1.68-1.909-3.34-2.9-4.994q-3.007-4.937-6.184-9.773c-2.091-3.24-4.3-6.407-6.433-9.618q-1.628-2.391-3.2-4.814c-1.052-1.615-2.141-3.2-3.169-4.834l-3.16-4.839-3.2-4.811c-1.063-1.607-2.161-3.187-3.27-4.759-.557-.783-1.111-1.572-1.705-2.325-.287-.387-.6-.746-.907-1.116-.161-.173-.32-.354-.49-.518-.088-.074-.174-.16-.266-.225l-.141-.084-.071-.009a.06.06,0,1,1-.119-.01Z" transform="translate(-54.244 -28.991)" fill="#5504b0"/>
          <path id="Path_45571" data-name="Path 45571" d="M383.781,331.328c3.117,4.373,5.922,8.926,8.652,13.525l2.008,3.473.475.846a.325.325,0,0,0-.155-.139c-.077-.026-.035-.018-.061-.026s-.041,0-.006,0a.8.8,0,0,0,.162-.016,3.962,3.962,0,0,0,.433-.1c.606-.169,1.233-.4,1.854-.62,2.478-.945,4.958-1.964,7.457-2.939a66.1,66.1,0,0,1-7.105,3.8,17.611,17.611,0,0,1-1.912.761,5.037,5.037,0,0,1-.539.144,1.818,1.818,0,0,1-.335.043.83.83,0,0,1-.254-.02.529.529,0,0,1-.179-.058.821.821,0,0,1-.255-.215l-.547-.879-2.063-3.442C388.714,340.842,386.092,336.176,383.781,331.328Zm8.062,46.437a8.736,8.736,0,0,1,2.35,3.555c-2.726.851-12.924,1.152-13.722-4.572a21,21,0,0,1,0-5.1c1.378.5,2.719,1.062,4.052,1.642a39.414,39.414,0,0,1,3.864,1.943A18.445,18.445,0,0,1,391.843,377.765Z" transform="translate(-55.504 -50.992)" fill="#5504b0"/>
          <path id="Path_45572" data-name="Path 45572" d="M398.263,329.787h-.008c-.58.173-1.152.286-1.725.452-.557.188-1.13.316-1.672.535a15.541,15.541,0,0,0-5.89,3.57,12.5,12.5,0,0,0-2.146,2.772c3.351.158,6.372.015,7.863-.73C397.533,334.961,404.092,332.814,398.263,329.787Zm-6.944,1.8a13.213,13.213,0,0,1,3.367-1.378,18.05,18.05,0,0,1,1.777-.339c.6-.038,1.19-.075,1.792-.083a36.35,36.35,0,0,0-7.14-2.493c-16.561-4.376-24.567-18.685-24.567-18.685H349.565c.61,7.577-.573,12.8-1,17.254a23.993,23.993,0,0,1,4.27,1.092,24.509,24.509,0,0,1,4.022,1.845,14.657,14.657,0,0,1,3.5,2.772,7.233,7.233,0,0,1,1.928,3.961c2.726-.858,8.924-.407,12.977.279a99.861,99.861,0,0,0,11.561,1.3,8.268,8.268,0,0,1,1.717-3.163A11.468,11.468,0,0,1,391.319,331.587Zm-40.187-14.618a15.15,15.15,0,0,1-.377-3.57,15.547,15.547,0,0,1,.377-3.57,15.146,15.146,0,0,1,.377,3.57A14.772,14.772,0,0,1,351.132,316.968Zm2.109,1.416a17.11,17.11,0,0,1,0-7.14A17.11,17.11,0,0,1,353.24,318.384Zm2.184-.761a14.775,14.775,0,0,1-.377-3.57,15.152,15.152,0,0,1,.377-3.57,17.108,17.108,0,0,1,0,7.14Zm2.779.761a17.109,17.109,0,0,1,0-7.14,17.109,17.109,0,0,1,0,7.14Zm2.244-1.416a17.11,17.11,0,0,1,0-7.14A17.109,17.109,0,0,1,360.448,316.968Zm2.787.655a14.773,14.773,0,0,1-.377-3.57,15.545,15.545,0,0,1,.377-3.57,15.546,15.546,0,0,1,.377,3.57,15.146,15.146,0,0,1-.377,3.57Zm2.674,0a17.46,17.46,0,0,1,0-7.14,17.109,17.109,0,0,1,0,7.14Zm28.19-5.746a18.569,18.569,0,0,0-4.142-.075,38.964,38.964,0,0,0-4.142.6c-1.378.286-2.742.587-4.119.956a20.421,20.421,0,0,0,2.832,4.037c3.818,4.09,11.734-1.823,13.413-4.022a8.545,8.545,0,0,0-3.841-1.5ZM423.245,288.8c-.354.467-.753.874-1.107,1.318-.339.467-.723.889-1.032,1.363a16.757,16.757,0,0,0-.9,1.423,14.61,14.61,0,0,0-.776,1.484,15.259,15.259,0,0,0-.994,3.193,12.124,12.124,0,0,0-.165,3.389,7.911,7.911,0,0,1-.414-3.464,11.018,11.018,0,0,1,.889-3.419,12.635,12.635,0,0,1,1.905-2.967,14.706,14.706,0,0,1,1.22-1.25c.452-.369.911-.731,1.378-1.069a35.648,35.648,0,0,0-7.042,2c-15.56,5.754-29.87-1.13-29.87-1.13l-13.459,9.452c4.707,5.671,6.68,10.461,8.812,14.234h.008a21.949,21.949,0,0,1,3.984-1.521,22.761,22.761,0,0,1,4.218-.783,14.111,14.111,0,0,1,4.316.249,6.965,6.965,0,0,1,3.728,2.071c1.687-2.192,6.846-5.287,10.446-7,4.556-2.169,14-7.192,15.7-10.356,1.461-2.711,5.468-8.066-.843-7.223Zm-46.77,13.466a14.6,14.6,0,0,1-1.679-3.05,14.183,14.183,0,0,1,2.3,2.613,13.932,13.932,0,0,1,1.68,3.05,14.779,14.779,0,0,1-2.3-2.613Zm2.463-.053a14.442,14.442,0,0,1-1.679-3.05,14.766,14.766,0,0,1,2.3,2.614,14.529,14.529,0,0,1,1.679,3.043,13.908,13.908,0,0,1-2.3-2.606Zm1.3-1.815a14.8,14.8,0,0,1-1.679-3.05,14.477,14.477,0,0,1,2.3,2.613,14.188,14.188,0,0,1,1.68,3.043,14.194,14.194,0,0,1-2.3-2.606Zm2.621-.949a14.2,14.2,0,0,1-1.672-3.043,16.187,16.187,0,0,1,3.969,5.656A14.515,14.515,0,0,1,382.861,299.45Zm1-2.372a13.876,13.876,0,0,1-1.68-3.043,16.188,16.188,0,0,1,3.969,5.656,14.182,14.182,0,0,1-2.29-2.613Zm2.568-1.032A14.2,14.2,0,0,1,384.752,293a16.08,16.08,0,0,1,3.976,5.656,13.725,13.725,0,0,1-2.3-2.613Zm2.124-1.491a13.879,13.879,0,0,1-1.68-3.043,14.442,14.442,0,0,1,2.29,2.613,13.908,13.908,0,0,1,1.679,3.043,13.94,13.94,0,0,1-2.29-2.613ZM256.447,169.6a5.374,5.374,0,0,1-1.868-10.416c-.24-3.917-.333-9.233.532-12.727a.3.3,0,1,1,.577.143c-.846,3.417-.753,8.657-.517,12.53a.3.3,0,0,1-.1.518,4.773,4.773,0,1,0,2.148-.143.3.3,0,0,1-.248-.274,63.759,63.759,0,0,1,.321-13.135.3.3,0,1,1,.584.113,62.559,62.559,0,0,0-.326,12.753,5.377,5.377,0,0,1-1.1,10.638Z" transform="translate(-23.597 -5.205)" fill="#5504b0"/>
          <path id="Path_45573" data-name="Path 45573" d="M256.724,142.016a.3.3,0,0,1-.072-.009.3.3,0,0,1-.217-.36c.463-1.878,1.136-3.009,2.056-3.458,2.093-1.014,3.713,1.707,4.405,2.871.072.12.132.221.179.3a.3.3,0,0,1,.068.189.3.3,0,0,1-.3.3h-2.862a.3.3,0,0,1-.252-.138,1.471,1.471,0,0,1-.163-.31c-.033-.081-.057-.14-.106-.247a.119.119,0,0,0-.118-.067.115.115,0,0,0-.1.095l-.042.22a.3.3,0,0,1-.346.24.3.3,0,0,1-.24-.346l.042-.22a.713.713,0,0,1,1.349-.168c.054.118.08.182.1.231s.033.081.05.115h2.16c-.642-1.076-2.019-3.273-3.564-2.523-.741.36-1.326,1.392-1.739,3.065A.3.3,0,0,1,256.724,142.016Zm102.8-15.638v69.831h88.388V126.378Zm83.915,64.905H364V131.311h79.441Z" transform="translate(-24.92 -0.398)" fill="#5504b0"/>
          <path id="Path_45577" data-name="Path 45577" d="M410.581,137.884l-6,.128.166-.166c.053,4.007.124,8.014.133,12.022s.056,8.014.023,12.022c0,4.007-.09,8.014-.135,12.022s-.077,8.014-.064,12.022l-.123-.123c5.938,0,11.876-.112,17.814-.158,5.938-.076,11.876-.082,17.814-.116a.4.4,0,0,1,.4.392v0l0,3.855a.394.394,0,0,1-.393.394h0l-8.907-.016-8.907-.088-8.907-.1c-2.969-.018-5.938-.107-8.907-.157a.038.038,0,0,1,0-.075c2.969-.051,5.938-.139,8.907-.157l8.907-.1,8.907-.088,8.907-.016-.394.394,0-3.855.4.4c-5.938-.033-11.876-.04-17.814-.116-5.938-.046-11.876-.155-17.814-.158a.122.122,0,0,1-.123-.122h0q.021-6.011-.064-12.022c-.044-4.007-.131-8.014-.135-12.022-.033-4.007,0-8.014.023-12.022s.079-8.014.133-12.022v-.006a.162.162,0,0,1,.164-.16h0l6,.128a.038.038,0,0,1,0,.075Z" transform="translate(-61.412 -3.188)" fill="#5504b0"/>
          <path id="Path_45578" data-name="Path 45578" d="M411.3,146.44a1.13,1.13,0,1,0-1.091-1.13A1.13,1.13,0,0,0,411.3,146.44Zm18.563,6.737C429.252,153.2,430.469,153.2,429.86,153.177ZM411.3,181.425a1.13,1.13,0,1,0-1.091-1.13A1.13,1.13,0,0,0,411.3,181.425Zm4,0a1.13,1.13,0,1,0-1.091-1.13A1.13,1.13,0,0,0,415.295,181.425Zm-13.708-33.271a1.13,1.13,0,1,0-1.091-1.13A1.13,1.13,0,0,0,401.587,148.154Zm38.055,37.27a1.13,1.13,0,1,0-1.091-1.13A1.13,1.13,0,0,0,439.642,185.423ZM418.151,141.74a12.949,12.949,0,0,1,.376,3.284,12.8,12.8,0,0,1-.376,3.284,12.805,12.805,0,0,1-.376-3.284A12.954,12.954,0,0,1,418.151,141.74Z" transform="translate(-60.486 -4.19)" fill="#5504b0"/>
          <path id="Path_45580" data-name="Path 45580" d="M375.177,207.547a38.364,38.364,0,0,1,9.034-1.4,22.274,22.274,0,0,1,4.593.307,11.733,11.733,0,0,1,4.348,1.633,7.441,7.441,0,0,1,2.895,3.681c.5,1.486.887,2.924,1.357,4.382q1.359,4.357,2.867,8.665c2.033,5.732,4.173,11.431,6.724,16.938a87.919,87.919,0,0,0,4.192,8.054,36.517,36.517,0,0,0,5.365,7.186,12.363,12.363,0,0,0,3.5,2.552,5.549,5.549,0,0,0,4.063.325,8.25,8.25,0,0,0,3.652-2.135,13.851,13.851,0,0,0,2.525-3.566A29.053,29.053,0,0,0,431.924,250c.412-1.445.793-2.9,1.068-4.389.578-2.965.966-5.976,1.258-9,.572-6.048.76-12.14.888-18.228.162-6.09.187-12.186.323-18.28.207,12.185.585,24.383-.3,36.587a79.954,79.954,0,0,1-1.16,9.116c-.271,1.513-.651,3.009-1.066,4.5a30.088,30.088,0,0,1-1.671,4.349,14.938,14.938,0,0,1-2.714,3.871,9.38,9.38,0,0,1-4.129,2.441,6.32,6.32,0,0,1-2.457.276,7.448,7.448,0,0,1-2.382-.633,13.4,13.4,0,0,1-3.867-2.77,37.6,37.6,0,0,1-5.506-7.454,89,89,0,0,1-4.2-8.181,170.164,170.164,0,0,1-6.6-17.1q-1.437-4.348-2.721-8.742c-.439-1.45-.821-2.964-1.269-4.373a6.874,6.874,0,0,0-2.594-3.428,11.229,11.229,0,0,0-4.108-1.673,21.908,21.908,0,0,0-4.5-.432,36.005,36.005,0,0,0-4.543.3,40.251,40.251,0,0,0-4.495.793Z" transform="translate(-54.235 -4.294)" fill="#5504b0"/>
          <rect id="Rectangle_42078" data-name="Rectangle 42078" width="19.92" height="7.511" transform="translate(368.84 195.811)" fill="#5504b0"/>
          <path id="Path_45581" data-name="Path 45581" d="M523.874,253.105c0,.5-.008.994-.015,1.491h-1.476c-.008-.5-.015-.994-.015-1.491,0-1.567.06-3.126.166-4.692a38.481,38.481,0,0,1,.588-4.7,35.771,35.771,0,0,1,.587,4.7C523.822,249.98,523.882,251.539,523.874,253.105Zm-14.106,12.961c-.015,1.612-.053,3.223-.166,4.835a41.044,41.044,0,0,1-.587,4.843,39.455,39.455,0,0,1-.588-4.843c-.12-1.612-.151-3.223-.166-4.835.007-.414.007-.836.015-1.25h1.476C509.761,265.231,509.761,265.653,509.768,266.067Zm7.607-5.483c-.008,1.408-.023,2.824-.053,4.233h-1.4c-.03-1.408-.045-2.824-.053-4.233.015-2,.03-3.992.106-5.987h1.3C517.345,256.592,517.36,258.588,517.375,260.584Zm-17.081,0c-.008,1.408-.023,2.824-.053,4.233h-1.4c-.03-1.408-.045-2.824-.053-4.233.015-2,.03-3.992.106-5.987h1.3C500.263,256.592,500.279,258.588,500.294,260.584Zm-5.98,5.483c-.015,1.612-.053,3.223-.166,4.835a41.057,41.057,0,0,1-.587,4.843,39.5,39.5,0,0,1-.587-4.843c-.12-1.612-.151-3.223-.166-4.835.008-.414.008-.836.015-1.25H494.3C494.306,265.231,494.306,265.653,494.314,266.067Zm31.993,0c-.015,1.612-.053,3.223-.166,4.835a41.1,41.1,0,0,1-.587,4.843,39.515,39.515,0,0,1-.588-4.843c-.12-1.612-.151-3.223-.166-4.835.007-.414.007-.836.015-1.25h1.476C526.3,265.231,526.3,265.653,526.307,266.067ZM509.3,252.992q0,.8-.023,1.6h-1.461q-.023-.8-.023-1.6c-.008-1.559.053-3.126.166-4.692a36.845,36.845,0,0,1,.587-4.692,36.846,36.846,0,0,1,.588,4.692C509.241,249.867,509.3,251.433,509.3,252.992Z" transform="translate(-83.274 -29.337)" fill="#5504b0"/>
          <path id="Path_45582" data-name="Path 45582" d="M444.533,225.259c3.142-.312,6.284-.475,9.425-.585s6.284-.152,9.426-.167c3.142.013,6.284.045,9.425.165s6.284.274,9.425.588c-3.142.314-6.284.477-9.425.588s-6.284.152-9.425.165c-3.142-.015-6.284-.047-9.426-.167S447.675,225.571,444.533,225.259Zm34.689,10.22c-3.142.312-6.284.475-9.425.586s-6.284.152-9.425.167c-3.142-.013-6.284-.045-9.426-.165s-6.284-.274-9.425-.588c3.142-.314,6.284-.477,9.425-.588s6.284-.152,9.426-.165c3.142.015,6.284.047,9.425.167S476.081,235.168,479.222,235.479ZM325.27,134.263c0,.5-.008.994-.015,1.491h-1.476c-.008-.5-.015-.994-.015-1.491,0-1.566.06-3.126.166-4.692a38.48,38.48,0,0,1,.587-4.7,35.776,35.776,0,0,1,.587,4.7C325.218,131.138,325.278,132.7,325.27,134.263Zm-14.106,12.962c-.015,1.612-.053,3.223-.166,4.835a41.025,41.025,0,0,1-.587,4.843,39.473,39.473,0,0,1-.587-4.843c-.12-1.612-.151-3.223-.166-4.835.007-.414.007-.836.015-1.25h1.476C311.157,146.389,311.157,146.811,311.164,147.225Zm7.607-5.483c-.008,1.408-.023,2.824-.053,4.233h-1.4c-.03-1.408-.045-2.824-.053-4.233.015-2,.03-3.992.106-5.988h1.3C318.741,137.75,318.756,139.746,318.771,141.742Zm-17.081,0c-.008,1.408-.023,2.824-.053,4.233h-1.4c-.03-1.408-.045-2.824-.053-4.233.015-2,.03-3.992.106-5.988h1.3C301.659,137.75,301.674,139.746,301.69,141.742Zm-5.98,5.483c-.015,1.612-.053,3.223-.166,4.835a41.025,41.025,0,0,1-.587,4.843,39.509,39.509,0,0,1-.587-4.843c-.12-1.612-.151-3.223-.166-4.835.008-.414.008-.836.015-1.25h1.476C295.7,146.389,295.7,146.811,295.71,147.225Zm31.993,0c-.015,1.612-.053,3.223-.166,4.835a41.058,41.058,0,0,1-.587,4.843,39.5,39.5,0,0,1-.587-4.843c-.12-1.612-.151-3.223-.166-4.835.008-.414.008-.836.015-1.25h1.476C327.7,146.389,327.7,146.811,327.7,147.225ZM310.7,134.15q0,.8-.023,1.6h-1.461q-.023-.8-.023-1.6c-.008-1.559.053-3.126.166-4.692a36.834,36.834,0,0,1,.587-4.692,36.834,36.834,0,0,1,.587,4.692C310.637,131.025,310.7,132.591,310.7,134.15Z" transform="translate(-34.246 0)" fill="#5504b0"/>
          <path id="Path_45583" data-name="Path 45583" d="M294.216,139.11c3.142-.312,6.284-.475,9.425-.585s6.284-.152,9.426-.167c3.142.013,6.284.045,9.425.165s6.284.274,9.425.588c-3.142.313-6.284.477-9.425.588s-6.284.152-9.425.165c-3.142-.015-6.284-.047-9.426-.167S297.358,139.421,294.216,139.11Zm34.689,10.22c-3.142.312-6.284.475-9.425.586s-6.284.152-9.425.167c-3.142-.013-6.284-.045-9.426-.165s-6.284-.274-9.425-.588c3.142-.314,6.284-.477,9.425-.588s6.284-.152,9.426-.165c3.142.015,6.284.047,9.425.167S325.764,149.018,328.905,149.33Z" transform="translate(-33.506 -3.355)" fill="#5504b0"/>
        </g>
      </g>
      <g id="Group_5502" data-name="Group 5502" transform="translate(1208.664 8673.476)">
        <path id="Path_147" data-name="Path 147" d="M313.348,228.569l8.557,8.619,3.542-11.413,4.941.423,1.53,11.271-7.4,11.142" transform="translate(-312.875 -209.55)" fill="none" stroke="#5504b0" stroke-miterlimit="10" stroke-width="1"/>
        <line id="Line_10" data-name="Line 10" x1="0.494" y1="9.62" transform="translate(14.907 6.846)" fill="none" stroke="#5504b0" stroke-miterlimit="10" stroke-width="1"/>
        <path id="Path_148" data-name="Path 148" d="M318.494,124l6.089,4.206,5.682-4.517,3.494-.4,5.815.822,2.311-7.292" transform="translate(-317.264 -116.627)" fill="none" stroke="#5504b0" stroke-miterlimit="10" stroke-width="1"/>
        <line id="Line_11" data-name="Line 11" x1="0.289" y1="4.691" transform="translate(14.618 2.154)" fill="none" stroke="#5504b0" stroke-miterlimit="10" stroke-width="0.5"/>
        <rect id="Rectangle_57" data-name="Rectangle 57" width="0.468" height="0.468" transform="translate(1.056 6.988) rotate(32.408)" fill="#ffc727" stroke="#5504b0" stroke-width="1"/>
        <rect id="Rectangle_58" data-name="Rectangle 58" width="0.468" height="0.468" transform="translate(0.311 18.569) rotate(41.626)" fill="#ffc727" stroke="#5504b0" stroke-width="1"/>
        <rect id="Rectangle_59" data-name="Rectangle 59" width="0.468" height="0.468" transform="matrix(0.748, 0.664, -0.664, 0.748, 9.01, 27.307)" fill="#ffc727" stroke="#5504b0" stroke-width="1"/>
        <rect id="Rectangle_60" data-name="Rectangle 60" width="0.468" height="0.468" transform="translate(11.524 38.839) rotate(36.389)" fill="#ffc727" stroke="#5504b0" stroke-width="1"/>
        <rect id="Rectangle_61" data-name="Rectangle 61" width="0.468" height="0.468" transform="translate(18.993 27.604) rotate(36.389)" fill="#ffc727" stroke="#5504b0" stroke-width="1"/>
        <rect id="Rectangle_62" data-name="Rectangle 62" width="0.468" height="0.468" transform="translate(17.285 16.394) rotate(6.858)" fill="#ffc727" stroke="#5504b0" stroke-width="1"/>
        <rect id="Rectangle_63" data-name="Rectangle 63" width="0.468" height="0.468" transform="translate(12.367 15.964) rotate(6.858)" fill="#ffc727" stroke="#5504b0" stroke-width="1"/>
        <rect id="Rectangle_64" data-name="Rectangle 64" width="0.468" height="0.468" transform="translate(15.203 16.206) rotate(6.858)" fill="#ffc727" stroke="#5504b0" stroke-width="1"/>
        <rect id="Rectangle_65" data-name="Rectangle 65" width="0.468" height="0.468" transform="matrix(0.997, -0.082, 0.082, 0.997, 14.647, 6.621)" fill="#ffc727" stroke="#5504b0" stroke-width="1"/>
        <rect id="Rectangle_66" data-name="Rectangle 66" width="0.468" height="0.468" transform="translate(14.366 2.016) rotate(-4.693)" fill="#ffc727" stroke="#5504b0" stroke-width="1"/>
        <rect id="Rectangle_67" data-name="Rectangle 67" width="0.468" height="0.468" transform="translate(16.192 6.494) rotate(-4.693)" fill="#ffc727" stroke="#5504b0" stroke-width="1"/>
        <rect id="Rectangle_68" data-name="Rectangle 68" width="0.468" height="0.468" transform="translate(22.076 7.217) rotate(9.852)" fill="#ffc727" stroke="#5504b0" stroke-width="1"/>
        <rect id="Rectangle_69" data-name="Rectangle 69" width="0.468" height="0.468" transform="translate(24.442 0) rotate(18.185)" fill="#ffc727" stroke="#5504b0" stroke-width="1"/>
        <rect id="Rectangle_70" data-name="Rectangle 70" width="0.468" height="0.468" transform="matrix(0.997, -0.082, 0.082, 0.997, 12.728, 6.779)" fill="#ffc727" stroke="#5504b0" stroke-width="1"/>
        <rect id="Rectangle_71" data-name="Rectangle 71" width="0.468" height="0.468" transform="translate(6.988 11.509) rotate(-39.387)" fill="#ffc727" stroke="#5504b0" stroke-width="1"/>
      </g>
    </g>
  </g>
</svg>
