<svg xmlns="http://www.w3.org/2000/svg" width="312.645" height="229.798" xmlns:v="https://vecta.io/nano"><path d="M0 47.969l.483 5.508 15.39 175.6h296.772V0" fill="#fbd206"/><g fill="#5504b0"><path d="M180.009 87.066c-.911-1.883-2.546-1.68-4.541-5.664-1.913-4.022-.746-5.182-1.657-7.064-.6-1.205-3.366-2.658-9.52-.911-3.509.994-8.638 2.719-8.488 4.5.181 2.214 2.289 1.966 4.812 3.261 2.553 1.326 3.4 2.139 4.843 5.1a9.81 9.81 0 0 1 1.318 4.421c.648 2.282 2.38 7.125 4.933 5.249 2.994-2.486 5.829-5.158 8.488-8 .002-.307-.063-.611-.188-.892zm-9.986-5.852c-1.268.618-2.797.092-3.416-1.175s-.093-2.797 1.174-3.417 2.797-.094 3.417 1.173c.298.609.342 1.312.121 1.953s-.687 1.169-1.296 1.466zm2.214 7.456a1.28 1.28 0 0 1-1.779-1.566 1.28 1.28 0 0 1 2.366-.144 1.28 1.28 0 0 1-.587 1.71zm3.412 1.175a1.27 1.27 0 0 1-1.493-1.998 1.27 1.27 0 0 1 2.148 1.268c-.112.321-.348.584-.655.73z" fill-rule="evenodd"/><path d="M100.397 25.101a21.99 21.99 0 0 1 1.545 3.173c.44 1.109.769 2.258.982 3.432.104.61.142 1.23.115 1.848l-.025.416a2.12 2.12 0 0 0 .016.351 2.54 2.54 0 0 0 .177.7c.448.98 1.214 1.78 2.174 2.27l.036.018c.104.053.159.169.133.283-.079.322-.2.632-.36.923-.154.29-.355.552-.595.777a2.24 2.24 0 0 1-.833.519c-.307.109-.63.168-.956.174l.183-.212c.249 1.595.416 3.202.5 4.814a13.73 13.73 0 0 1-.116 2.464 5.82 5.82 0 0 1-.863 2.473 4.45 4.45 0 0 1-2.238 1.535c-.797.268-1.619.453-2.454.554-1.628.184-3.271.191-4.9.022l.472-.281c-.186.391-.335.798-.446 1.216s-.171.856-.165 1.293a3.3 3.3 0 0 0 .292 1.251 3.12 3.12 0 0 0 .865 1.018h.005c.028.018.035.055.017.083s-.055.035-.083.017a2.99 2.99 0 0 1-1.144-.91 3.24 3.24 0 0 1-.574-1.4 5.36 5.36 0 0 1-.011-1.505c.059-.504.181-.998.363-1.471a.44.44 0 0 1 .407-.281h.066c1.56.01 3.118-.092 4.663-.306.749-.103 1.489-.269 2.211-.495.664-.156 1.264-.512 1.719-1.019a5.33 5.33 0 0 0 .792-1.98c.156-.759.263-1.527.322-2.3a23.35 23.35 0 0 0-.071-4.74.19.19 0 0 1 .165-.211h.018a2.24 2.24 0 0 0 .827-.145c.261-.099.496-.254.689-.456a2.49 2.49 0 0 0 .455-.7 2.73 2.73 0 0 0 .21-.8l.169.3a5.49 5.49 0 0 1-1.617-.913c-.509-.398-.931-.896-1.242-1.462-.154-.306-.26-.634-.315-.972-.025-.172-.036-.346-.032-.52l.021-.457c.028-.546.007-1.093-.062-1.635-.375-2.27-.917-4.51-1.622-6.7a.06.06 0 0 1 .038-.076c.028-.012.06-.002.076.023z"/><path d="M101.627 49.649c-2.357 1.928-8.676 1.5-8.676 1.5-4.21-2.418-5.287-7.027-5.521-8.458-.369.67-1.3.949-1.868 1.823-1.6 2.463-5.069 4.391-6.748 4.172-4.1-.527-6.168-7.147-5.889-11.779.429-7.072.324-10.921 8.887-15.635a18.27 18.27 0 0 1 4.511-1.8c-.806 3.254-.8 8.3-.512 12.833h.1a5.07 5.07 0 0 0 1.802 9.914 5.07 5.07 0 0 0 .48-10.065c-.344-4.353-.238-8.729.317-13.06.316-.03.633-.045.941-.053 1.003-.027 2.005.057 2.99.249 3.378.729 6.42 2.553 8.654 5.189 0 0-1.22 1.348-3 3.11a70.32 70.32 0 0 1-6.274 5.656c0 0 2.681 8.269 11.169 8.269.206 2.441.304 6.779-1.363 8.135zm-58.08 23.027s12.566-16.85 22.419-17.564l35.71 1.365a19.24 19.24 0 0 1 17.306 12.539l8.041 21.695c.736 1.985 2.558 3.362 4.669 3.528 7.029.553 22.814 1.641 29.054.82 0 0 1.392 8.246-.75 10.71l-39.2 4.177s-16.386-37.591-20.348-38.555c.003 0-46.121-.857-56.901 1.285z"/><path d="M43.547 72.736l-9.862.219a6.94 6.94 0 0 0-4.5 1.378c-1.273.971-2.152 2.368-2.475 3.936a22.38 22.38 0 0 0-.235 2.418l-.263 2.463-.711 4.893q-.807 4.877-1.824 9.712a.39.39 0 0 1-.094.184l-.006.006-6.535 7.17c-.014.016-.03.03-.046.044h-.005a21.1 21.1 0 0 0-2.778 2.689 13.8 13.8 0 0 0-2.12 3.172 12.1 12.1 0 0 0-.86 7.449l2.574 15.614q1.3 7.805 2.684 15.595l2.863 15.56c1.012 5.175 2.075 10.341 3.329 15.459.64 2.554 1.3 5.108 2.173 7.583.225.615.453 1.23.725 1.82.244.587.57 1.135.969 1.63a1.27 1.27 0 0 0 .32.244c.136.049.3.082.446.124a8.33 8.33 0 0 0 .949.183c.64.118 1.3.171 1.95.26 5.239.537 10.511.849 15.778 1.112l15.813.681q15.819.545 31.645.886l15.825.311 7.911.106 3.953.03c1.307-.007 2.658.037 3.894-.075 2.579-.403 5.131-.964 7.641-1.68 2.538-.683 5.06-1.433 7.569-2.226q7.526-2.379 14.857-5.317a127.08 127.08 0 0 0 14.268-6.646 54.15 54.15 0 0 0 6.578-4.225 18.56 18.56 0 0 0 5.148-5.568l-.059.2q1.222-10.733 1.97-21.539c.481-7.2.788-14.405.731-21.612q-.029-5.405-.457-10.792c-.042-.9-.188-1.788-.283-2.682l-.334-2.676-.5-2.646c-.09-.428-.148-.913-.265-1.293a2.53 2.53 0 0 0-1.694-1.621c-.411-.104-.837-.134-1.258-.088l-2.707.092-5.413.184-10.827.368c-.033.001-.061-.024-.062-.057s.024-.061.057-.062l10.817-.6 5.408-.3 2.7-.149a3.94 3.94 0 0 1 1.429.083 3.09 3.09 0 0 1 2.088 1.958c.151.483.195.9.3 1.354l.532 2.672c.147.895.243 1.8.367 2.694.106.9.263 1.8.316 2.7q.492 5.411.582 10.842c.139 7.236-.088 14.469-.489 21.689s-.983 14.426-1.816 21.62v.014a.52.52 0 0 1-.058.184c-1.389 2.36-3.257 4.404-5.483 6a55.32 55.32 0 0 1-6.72 4.337 125.06 125.06 0 0 1-14.4 6.732q-7.386 2.922-14.972 5.274a179.53 179.53 0 0 1-7.628 2.2 64.57 64.57 0 0 1-7.818 1.672c-1.394.117-2.687.058-4.017.061l-3.961-.063-7.916-.192-15.832-.477q-15.824-.527-31.641-1.235-7.909-.333-15.815-.748c-5.269-.311-10.542-.544-15.8-1.067-.658-.086-1.315-.135-1.974-.252a8.69 8.69 0 0 1-.993-.187c-.169-.048-.333-.079-.505-.141a1.65 1.65 0 0 1-.469-.344c-.437-.528-.795-1.117-1.062-1.748-.284-.607-.518-1.229-.75-1.851-.894-2.5-1.61-5.046-2.284-7.6-1.33-5.116-2.471-10.274-3.554-15.442-2.173-10.336-4.043-20.729-5.815-31.136l-2.521-15.634a13.09 13.09 0 0 1 .982-8.012c.599-1.226 1.366-2.362 2.278-3.377a22.03 22.03 0 0 1 2.916-2.792l-.051.047 6.6-7.109-.1.19q1.073-4.8 1.946-9.65c.284-1.616.548-3.235.771-4.858.113-.812.208-1.624.293-2.437l.1-1.22a8.29 8.29 0 0 1 .176-1.263 7.14 7.14 0 0 1 2.754-4.178 7.34 7.34 0 0 1 4.77-1.356h9.864c.033 0 .059.027.059.06s-.027.059-.059.059zm-12.709 5.653l7.015-.145 7.015-.083 14.03-.069 14.029.068 7.015.084 7.015.145-7.015.146-7.015.083-14.029.069-14.03-.069-7.015-.084z"/><path d="M124.798 114.373l6.753-.846 6.759-.788 13.526-1.5 13.537-1.393 13.544-1.331-6.74.948-6.754.837-13.524 1.53-13.542 1.358-6.777.623zM91.952 79.96l4.126 7.03 3.988 7.106 3.867 7.173 3.726 7.25-4.127-7.029-3.987-7.107-3.866-7.173-3.727-7.25zm0-3.427c1.234-.625 2.516-1.15 3.834-1.568a25.31 25.31 0 0 1 4.019-1c-1.233.627-2.515 1.151-3.834 1.568a25.6 25.6 0 0 1-4.019 1.003zM23.27 97.666l-.374 3.114a79.67 79.67 0 0 1-.53 3.083l-.665 3.057s-.5 2.027-.822 3.026l.373-3.114s.338-2.059.531-3.083.414-2.044.666-3.057.503-2.026.821-3.026zm-11.832 13.343a29.02 29.02 0 0 1 5.739-1.082c.98-.091 1.969-.038 2.934.156a3.52 3.52 0 0 1 1.369.61 2.19 2.19 0 0 1 .8 1.286c.85 3.821 1.488 7.654 2.18 11.49l3.734 23.068 3.126 23.16 1.177 11.628c.149 1.943.274 3.888.338 5.836.022.974.058 1.948.02 2.923-.009.487-.023.974-.08 1.459-.037.486-.116.968-.237 1.44a8.3 8.3 0 0 0 .2-1.443c.044-.484.046-.971.043-1.457.013-.972-.047-1.945-.093-2.915-.113-1.942-.286-3.881-.483-5.816-.376-3.873-.841-7.738-1.341-11.6q-1.495-11.581-3.259-23.127l-3.6-23.08-2.011-11.492a1.91 1.91 0 0 0-.674-1.161 3.29 3.29 0 0 0-1.264-.6 9.96 9.96 0 0 0-2.873-.222c-1.942.119-3.866.434-5.745.939zm109.071 85.2c.247-.014.389-.251.5-.442.107-.207.196-.423.265-.645.14-.444.255-.897.344-1.354.184-.914.318-1.837.433-2.762.228-1.85.384-3.709.517-5.569.261-3.72.419-7.447.542-11.175.265-7.455.384-14.915.421-22.374l-.187-22.376c-.115-3.72-.172-7.471-.555-11.147-.163-1.813-.93-3.518-2.179-4.842a6.81 6.81 0 0 0-4.855-1.93c-1.812.04-3.544.757-4.855 2.009-1.321 1.255-2.151 2.939-2.341 4.751a73.56 73.56 0 0 0-.648 11.121l-.218 22.387c-.065 7.46-.091 14.921.154 22.375.113 3.727.29 7.454.672 11.162a55.78 55.78 0 0 0 .808 5.53 11.47 11.47 0 0 0 2.046 5.135 11.5 11.5 0 0 1-2.117-5.12c-.386-1.827-.68-3.672-.881-5.529-.43-3.71-.656-7.439-.818-11.168-.287-7.461-.295-14.927-.259-22.389l.117-22.38c-.084-3.745.117-7.491.6-11.206a8.22 8.22 0 0 1 2.488-5.084c1.411-1.359 3.28-2.14 5.238-2.188 1.967-.023 3.862.741 5.264 2.12 1.332 1.417 2.148 3.24 2.318 5.177.214 1.879.274 3.739.354 5.607l.156 5.6c.145 7.464.153 14.927.088 22.39l-.527 22.383-.687 11.175c-.157 1.859-.338 3.717-.59 5.567a37.94 37.94 0 0 1-.469 2.76 12.25 12.25 0 0 1-.362 1.352 3.95 3.95 0 0 1-.274.644c-.109.187-.26.424-.504.434zm-11.133 0l1.807 8.344 1.875 8.318c.665 2.762 1.333 5.521 2.122 8.238.394 1.358.8 2.712 1.276 4.027.238.657.5 1.3.788 1.921a8.56 8.56 0 0 0 .476.874c.137.242.317.457.53.635.037.024.063.033.082.047-.022.02.02-.011.088-.07a2.73 2.73 0 0 0 .4-.743c.222-.648.402-1.31.537-1.982.345-1.36.572-2.755.812-4.143.476-2.783.725-5.607.971-8.43.229-2.826.362-5.663.429-8.5.1-2.84.1-5.684.09-8.531.284 2.835.4 5.683.493 8.533q.077 4.276-.1 8.557a82 82 0 0 1-.771 8.545c-.079.713-.238 1.416-.355 2.124a32.2 32.2 0 0 1-.438 2.113 16.31 16.31 0 0 1-.569 2.136c-.141.406-.351.785-.621 1.119-.1.102-.209.195-.326.276-.305.19-.679.233-1.02.119-.137-.051-.266-.118-.387-.2-.343-.268-.631-.6-.847-.978a9.68 9.68 0 0 1-.539-1c-.313-.672-.578-1.35-.819-2.031-.481-1.364-.9-2.737-1.266-4.119a132.66 132.66 0 0 1-1.93-8.343l-1.554-8.4-1.234-8.457zm-68.269-3.227c-.343 2.828-.8 5.639-1.237 8.453q-.718 4.211-1.554 8.4c-.549 2.8-1.2 5.577-1.93 8.343-.371 1.383-.785 2.756-1.266 4.119-.242.681-.506 1.359-.819 2.031a9.76 9.76 0 0 1-.539 1 3.34 3.34 0 0 1-.847.978 1.81 1.81 0 0 1-.387.2c-.34.11-.711.063-1.014-.127-.117-.081-.226-.174-.326-.276-.27-.334-.48-.713-.621-1.119a16.29 16.29 0 0 1-.569-2.136c-.165-.7-.324-1.4-.438-2.113s-.276-1.411-.355-2.124a82 82 0 0 1-.771-8.545q-.179-4.281-.1-8.558c.095-2.849.209-5.7.493-8.533-.014 2.848-.012 5.691.091 8.531.067 2.84.2 5.677.429 8.5.247 2.823.5 5.647.971 8.43.24 1.389.467 2.783.812 4.143a15.57 15.57 0 0 0 .537 1.982 2.73 2.73 0 0 0 .4.743c.068.059.11.09.088.069.019-.014.045-.022.082-.047.213-.178.392-.393.529-.635.175-.282.334-.574.476-.874.292-.616.551-1.263.788-1.921.478-1.316.882-2.67 1.276-4.027.789-2.717 1.445-5.48 2.122-8.238s1.278-5.538 1.875-8.318l1.804-8.331zm131.058-14.165l1.389 6 1.41 5.979c.502 1.979 1 3.967 1.622 5.891.273.938.64 1.846 1.095 2.71.05.078.106.153.167.223.049.061.1.069.025.045a.3.3 0 0 0-.168.011c-.039.007-.063.04-.055.027a.92.92 0 0 0 .093-.162 6.12 6.12 0 0 0 .339-1.334c.169-.972.251-1.982.332-3l.233-3.057c.169-2.038.245-4.08.36-6.121q.144-3.063.122-6.132c.019-2.047-.042-4.093-.211-6.139a65.56 65.56 0 0 1 1 12.289c.02 2.059-.051 4.117-.15 6.172-.044 1.028-.124 2.054-.2 3.08s-.144 2.061-.319 3.112c-.082.56-.232 1.108-.446 1.632-.08.177-.188.34-.319.483-.103.107-.227.191-.365.247-.174.067-.365.077-.545.028-.231-.07-.438-.206-.593-.391a3.08 3.08 0 0 1-.291-.393c-.506-.949-.903-1.953-1.182-2.992-.577-2-1.048-4-1.438-6.024l-1.09-6.069-.816-6.115zM96.703 32.409a4.34 4.34 0 0 1 2.2-.755c.4-.032.803.005 1.19.112a1.88 1.88 0 0 1 1.005.643 4.17 4.17 0 0 0-1.085-.185 8.37 8.37 0 0 0-1.071.024c-.727.039-1.451.146-2.239.161zm3.32 3.141c.364.013.699-.197.847-.529s.079-.722-.174-.984-.64-.344-.977-.207-.558.464-.558.828c0 .481.381.875.862.892zm-21.927 9.607c.1.958.128 1.921.085 2.883a20.7 20.7 0 0 1-.3 2.877c-.157.966-.44 1.907-.84 2.8-.206.455-.487.873-.83 1.236a1.64 1.64 0 0 1-1.358.5 1.62 1.62 0 0 0 1.14-.7 4.26 4.26 0 0 0 .625-1.219c.298-.888.524-1.799.677-2.724.173-.928.294-1.868.43-2.81zm102.1 42.8c.324-.475.947-.64 1.464-.388.265.127.475.344.593.613a2.33 2.33 0 0 1 .145.828 5.12 5.12 0 0 1-1.029 3.073l-.055-.365c.42.322.761.734 1 1.206a3.68 3.68 0 0 1 .4 1.509 4.37 4.37 0 0 1-.244 1.527c-.082.243-.2.469-.3.7l-.375.654.025-.246a7.92 7.92 0 0 1 .4 1.784 2.9 2.9 0 0 1-.326 1.859l.034-.126a5.81 5.81 0 0 1-.187 1.271 5.68 5.68 0 0 1-.447 1.185c-.382.749-.951 1.386-1.651 1.851a5.69 5.69 0 0 0 .82-.909c.237-.327.431-.683.577-1.06a5.74 5.74 0 0 0 .445-2.324c-.001-.038.008-.075.025-.109l.009-.016a2.77 2.77 0 0 0 .185-1.568 7.41 7.41 0 0 0-.4-1.642c-.028-.076-.022-.161.017-.232l.008-.014.334-.611c.083-.214.187-.422.254-.638a4.4 4.4 0 0 0 .229-1.322c-.011-.444-.116-.881-.309-1.281s-.468-.751-.81-1.032l-.015-.012c-.108-.087-.126-.245-.04-.354.643-.785 1.027-1.75 1.1-2.762a2.48 2.48 0 0 0-.067-.729 1 1 0 0 0-.43-.544 1.1 1.1 0 0 0-1.377.221zm-19.152 9.5c.757-.326 1.409-.855 1.883-1.53a3.2 3.2 0 0 0 .466-1.07 3.64 3.64 0 0 0 .092-.578c.028-.2.044-.435.082-.648a6.69 6.69 0 0 1 .929-2.444c.231-.373.503-.719.812-1.031a3.12 3.12 0 0 1 .513-.427 1.16 1.16 0 0 1 .669-.247h.01c.054.001.1.041.108.095.058.375.125.749.168 1.133-.148-.354-.271-.718-.4-1.081l.118.095a2.04 2.04 0 0 0-.867.718 7.2 7.2 0 0 0-.668 1.014 8 8 0 0 0-.813 2.277c-.04.2-.054.39-.088.6-.027.225-.075.447-.142.663a3.2 3.2 0 0 1-.635 1.188c-.572.671-1.361 1.12-2.23 1.269zm12.231.786c.27.224.517.475.735.749a3.35 3.35 0 0 0 .693.679.75.75 0 0 1-.628.064 1.19 1.19 0 0 1-.519-.359 1.28 1.28 0 0 1-.279-1.14zm2.642 2.785c.251.355.4.636.57.905l.573.88c-.442.041-.866-.183-1.081-.571-.235-.365-.259-.827-.061-1.214z"/><path d="M175.49 97.88l5.711-6.417a.3.3 0 0 1 .525.098.3.3 0 0 1-.08.302l-.014.015zm2.963 1.785l2.919-2.731a.3.3 0 0 1 .52.14.3.3 0 0 1-.112.296c-.011.01-.023.019-.035.028zm1.25 2.249a2.37 2.37 0 0 1 .836-.909c.344-.239.746-.381 1.164-.412-.192.372-.481.686-.836.909a2.37 2.37 0 0 1-1.165.412zm2.21-2.254c.035-.138.16-.12.231-.109l.179.084c.11.065.2.144.305.216l.548.489.992 1.065 1.864 2.226 3.488 4.629c2.3 3.108 4.423 6.33 6.589 9.524 1.079 1.6 2.122 3.223 3.157 4.851l3.069 4.906 6.07 9.851 6.231 9.751q1.575 2.429 3.089 4.9c.482.843 1 1.659 1.434 2.539.237.431.451.875.641 1.329.1.23.2.454.29.689l.218.736c.073.253.119.514.138.777a3.3 3.3 0 0 1 .037.4l-.034.414c-.019.274-.078.543-.175.8a4.11 4.11 0 0 1-.311.729c-.463.907-1.065 1.735-1.784 2.455a39.36 39.36 0 0 1-4.517 3.743c-3.138 2.291-6.382 4.4-9.727 6.36l.294-.649c.248 1.374.448 2.736.588 4.126.063.7.123 1.392.124 2.108.006.367-.01.735-.048 1.1-.028.43-.144.849-.341 1.232-.108.161-.259.289-.435.37-.103.051-.21.094-.32.129a5.19 5.19 0 0 1-.56.142c-.361.073-.712.122-1.062.165-.7.083-1.39.138-2.08.182-1.381.087-2.757.134-4.132.167-2.75.075-5.5.033-8.243 0s-5.489-.152-8.232-.261a.06.06 0 0 1-.057-.062.06.06 0 0 1 .059-.057l8.226-.24 8.212-.331c1.366-.07 2.73-.154 4.085-.278.677-.062 1.351-.134 2.013-.232.329-.05.657-.106.966-.177a4.12 4.12 0 0 0 .433-.122c.053-.018.104-.04.154-.066.051-.015.031-.047-.034.058.09-.24.144-.492.161-.748a8.12 8.12 0 0 0 .035-.958c0-.656-.065-1.328-.13-2a49.95 49.95 0 0 0-.6-4.015.62.62 0 0 1 .287-.645h.007c3.276-1.988 6.544-4.03 9.674-6.233a38.59 38.59 0 0 0 4.441-3.56c.665-.627 1.225-1.355 1.661-2.158.44-.74.561-1.626.335-2.457-.565-1.802-1.334-3.533-2.291-5.16-.931-1.68-1.909-3.34-2.9-4.994q-3.007-4.937-6.184-9.773c-2.091-3.24-4.3-6.407-6.433-9.618q-1.628-2.391-3.2-4.814l-3.169-4.834-3.16-4.839-3.2-4.811a192.51 192.51 0 0 0-3.27-4.759c-.557-.783-1.111-1.572-1.705-2.325-.287-.387-.6-.746-.907-1.116-.161-.173-.32-.354-.49-.518-.088-.074-.174-.16-.266-.225l-.141-.084-.071-.009a.06.06 0 0 1-.096.049.06.06 0 0 1-.023-.059z"/><path d="M182.8 158.487c3.117 4.373 5.922 8.926 8.652 13.525l2.008 3.473.475.846c-.035-.062-.089-.111-.155-.139-.077-.026-.035-.018-.061-.026s-.041 0-.006 0a.8.8 0 0 0 .162-.016 3.96 3.96 0 0 0 .433-.1c.606-.169 1.233-.4 1.854-.62l7.457-2.939a66.1 66.1 0 0 1-7.105 3.8 17.61 17.61 0 0 1-1.912.761c-.177.058-.357.106-.539.144a1.82 1.82 0 0 1-.335.043.83.83 0 0 1-.254-.02.53.53 0 0 1-.179-.058.82.82 0 0 1-.255-.215l-.547-.879-2.063-3.442c-2.697-4.624-5.319-9.29-7.63-14.138zm8.062 46.437c1.065.973 1.872 2.194 2.35 3.555-2.726.851-12.924 1.152-13.722-4.572a21 21 0 0 1 0-5.1c1.378.5 2.719 1.062 4.052 1.642 1.323.576 2.613 1.225 3.864 1.943 1.246.707 2.406 1.557 3.456 2.532z"/><path d="M229.189 202.733h-.008l-1.725.452-1.672.535a15.54 15.54 0 0 0-5.89 3.57 12.5 12.5 0 0 0-2.146 2.772c3.351.158 6.372.015 7.863-.73 2.848-1.425 9.407-3.572 3.578-6.599zm-6.944 1.8c1.053-.612 2.186-1.076 3.367-1.378l1.777-.339 1.792-.083a36.35 36.35 0 0 0-7.14-2.493c-16.561-4.376-24.567-18.685-24.567-18.685h-16.983c.61 7.577-.573 12.8-1 17.254 1.454.232 2.883.598 4.27 1.092a24.51 24.51 0 0 1 4.022 1.845c1.301.74 2.482 1.675 3.5 2.772 1.039 1.088 1.713 2.472 1.928 3.961 2.726-.858 8.924-.407 12.977.279a99.86 99.86 0 0 0 11.561 1.3 8.27 8.27 0 0 1 1.717-3.163 11.47 11.47 0 0 1 2.779-2.362zm-40.187-14.618a15.15 15.15 0 0 1-.377-3.57c-.013-1.201.114-2.399.377-3.57.267 1.171.393 2.369.377 3.57a14.77 14.77 0 0 1-.377 3.569zm2.109 1.416a17.11 17.11 0 0 1 0-7.14 17.11 17.11 0 0 1-.001 7.139zm2.184-.761c-.27-1.17-.397-2.369-.377-3.57a15.15 15.15 0 0 1 .377-3.57 17.11 17.11 0 0 1 0 7.14zm2.779.761a17.11 17.11 0 0 1 0-7.14 17.11 17.11 0 0 1 0 7.14zm2.244-1.416a17.11 17.11 0 0 1 0-7.14 17.11 17.11 0 0 1 0 7.139zm2.787.655c-.27-1.17-.397-2.369-.377-3.57-.013-1.201.114-2.399.377-3.57.263 1.171.39 2.369.377 3.57.016 1.201-.11 2.399-.377 3.57zm2.674 0a17.46 17.46 0 0 1 0-7.14 17.11 17.11 0 0 1 0 7.14zm28.19-5.746a18.57 18.57 0 0 0-4.142-.075c-1.39.126-2.773.326-4.142.6-1.378.286-2.742.587-4.119.956a20.42 20.42 0 0 0 2.832 4.037c3.818 4.09 11.734-1.823 13.413-4.022-1.139-.806-2.457-1.321-3.841-1.5zm29.146-23.078c-.354.467-.753.874-1.107 1.318-.339.467-.723.889-1.032 1.363-.324.459-.624.934-.9 1.423a14.61 14.61 0 0 0-.776 1.484 15.26 15.26 0 0 0-.994 3.193c-.214 1.116-.269 2.257-.165 3.389a7.91 7.91 0 0 1-.414-3.464 11.02 11.02 0 0 1 .889-3.419c.493-1.073 1.134-2.072 1.905-2.967.382-.44.789-.858 1.22-1.25.452-.369.911-.731 1.378-1.069a35.65 35.65 0 0 0-7.042 2c-15.56 5.754-29.87-1.13-29.87-1.13l-13.459 9.452c4.707 5.671 6.68 10.461 8.812 14.234h.008a21.95 21.95 0 0 1 3.984-1.521 22.76 22.76 0 0 1 4.218-.783 14.11 14.11 0 0 1 4.316.249c1.429.284 2.732 1.008 3.728 2.071 1.687-2.192 6.846-5.287 10.446-7 4.556-2.169 14-7.192 15.7-10.356 1.461-2.711 5.468-8.066-.843-7.223zm-46.77 13.466a14.6 14.6 0 0 1-1.679-3.05c.871.773 1.644 1.651 2.3 2.613a13.93 13.93 0 0 1 1.68 3.05 14.78 14.78 0 0 1-2.3-2.613zm2.463-.053a14.44 14.44 0 0 1-1.679-3.05c.867.778 1.639 1.655 2.3 2.614a14.53 14.53 0 0 1 1.679 3.043 13.91 13.91 0 0 1-2.3-2.606zm1.3-1.815a14.8 14.8 0 0 1-1.679-3.05c.869.775 1.641 1.653 2.3 2.613a14.19 14.19 0 0 1 1.68 3.043c-.871-.771-1.643-1.646-2.3-2.606zm2.621-.949a14.2 14.2 0 0 1-1.672-3.043c1.715 1.578 3.069 3.507 3.969 5.656-.867-.776-1.637-1.653-2.295-2.612zm1-2.372c-.685-.94-1.25-1.962-1.68-3.043a16.19 16.19 0 0 1 3.969 5.656 14.18 14.18 0 0 1-2.29-2.613zm2.568-1.032a14.2 14.2 0 0 1-1.675-3.045 16.08 16.08 0 0 1 3.976 5.656c-.874-.77-1.647-1.648-2.3-2.613zm2.124-1.491a13.88 13.88 0 0 1-1.68-3.043 14.44 14.44 0 0 1 2.29 2.613 13.91 13.91 0 0 1 1.679 3.043 13.94 13.94 0 0 1-2.29-2.613zM87.373 42.546c-2.605.004-4.838-1.861-5.298-4.425s.986-5.089 3.43-5.991c-.24-3.917-.333-9.233.532-12.727a.3.3 0 0 1 .516-.174.3.3 0 0 1 .061.317c-.846 3.417-.753 8.657-.517 12.53a.3.3 0 0 1-.1.518c-2.322.703-3.748 3.037-3.313 5.424s2.592 4.068 5.013 3.907 4.336-2.113 4.451-4.537-1.607-4.548-4.003-4.937a.3.3 0 0 1-.248-.274 63.76 63.76 0 0 1 .321-13.135.3.3 0 0 1 .506-.2.3.3 0 0 1 .078.313 62.56 62.56 0 0 0-.326 12.753 5.38 5.38 0 0 1-1.1 10.638z"/><path d="M86.327 19.769a.3.3 0 0 1-.289-.369c.463-1.878 1.136-3.009 2.056-3.458 2.093-1.014 3.713 1.707 4.405 2.871l.179.3a.3.3 0 0 1-.232.489h-2.862a.3.3 0 0 1-.252-.138 1.47 1.47 0 0 1-.163-.31l-.106-.247c-.021-.045-.069-.071-.118-.067s-.091.045-.1.095l-.042.22a.3.3 0 0 1-.346.24.3.3 0 0 1-.24-.346l.042-.22c.057-.306.305-.539.613-.578a.71.71 0 0 1 .736.41l.1.231.05.115h2.16c-.642-1.076-2.019-3.273-3.564-2.523-.741.36-1.326 1.392-1.739 3.065a.3.3 0 0 1-.288.22zm102.8-15.638v69.831h88.388V4.131zm83.915 64.905h-79.439V9.064h79.441zm-69.35-56.189l-6 .128.166-.166.133 12.022.023 12.022-.135 12.022-.064 12.022-.123-.123 17.814-.158 17.814-.116a.4.4 0 0 1 .4.392h0v3.855c0 .217-.176.393-.393.394h0l-8.907-.016-8.907-.088-8.907-.1-8.907-.157c-.018-.003-.032-.019-.032-.037s.013-.034.032-.037l8.907-.157 8.907-.1 8.907-.088 8.907-.016-.394.394v-3.855l.4.4-17.814-.116-17.814-.158c-.033 0-.064-.012-.087-.035s-.036-.054-.036-.087h0q.021-6.011-.064-12.022l-.135-12.022.023-12.022.133-12.022v-.006c.001-.043.018-.084.049-.114a.16.16 0 0 1 .115-.046h0l6 .128c.018.003.032.019.032.037s-.013.034-.032.037zm1.645 7.554a1.13 1.13 0 1 0-1.091-1.13 1.13 1.13 0 0 0 1.091 1.13zm18.563 6.737c-.611.023.606.023-.003 0zm-18.563 28.248a1.13 1.13 0 1 0-1.091-1.13 1.13 1.13 0 0 0 1.091 1.13zm4 0a1.13 1.13 0 1 0-1.091-1.13 1.13 1.13 0 0 0 1.086 1.13zm-13.708-33.271a1.13 1.13 0 1 0-1.091-1.13 1.13 1.13 0 0 0 1.086 1.13zm38.055 37.27a1.13 1.13 0 1 0-1.091-1.13 1.13 1.13 0 0 0 1.086 1.129zm-21.496-43.684a12.95 12.95 0 0 1 .376 3.284 12.8 12.8 0 0 1-.376 3.284c-.267-1.074-.393-2.178-.376-3.284-.015-1.106.111-2.21.376-3.284z"/><path d="M175.465 81.404c2.945-.825 5.978-1.295 9.034-1.4 1.537-.057 3.077.046 4.593.307 1.544.249 3.022.804 4.348 1.633a7.44 7.44 0 0 1 2.895 3.681l1.357 4.382q1.359 4.357 2.867 8.665c2.033 5.732 4.173 11.431 6.724 16.938a87.92 87.92 0 0 0 4.192 8.054c1.486 2.607 3.288 5.02 5.365 7.186 1.007 1.05 2.192 1.914 3.5 2.552a5.55 5.55 0 0 0 4.063.325 8.25 8.25 0 0 0 3.652-2.135 13.85 13.85 0 0 0 2.525-3.566c.65-1.346 1.196-2.739 1.632-4.169.412-1.445.793-2.9 1.068-4.389.578-2.965.966-5.976 1.258-9 .572-6.048.76-12.14.888-18.228l.323-18.28c.207 12.185.585 24.383-.3 36.587-.212 3.058-.599 6.102-1.16 9.116-.271 1.513-.651 3.009-1.066 4.5a30.09 30.09 0 0 1-1.671 4.349 14.94 14.94 0 0 1-2.714 3.871 9.38 9.38 0 0 1-4.129 2.441 6.32 6.32 0 0 1-2.457.276 7.45 7.45 0 0 1-2.382-.633 13.4 13.4 0 0 1-3.867-2.77 37.6 37.6 0 0 1-5.506-7.454 89 89 0 0 1-4.2-8.181c-2.506-5.577-4.709-11.286-6.6-17.1q-1.437-4.348-2.721-8.742l-1.269-4.373c-.476-1.391-1.385-2.592-2.594-3.428a11.23 11.23 0 0 0-4.108-1.673 21.91 21.91 0 0 0-4.5-.432c-1.519.004-3.037.104-4.543.3a40.25 40.25 0 0 0-4.495.793z"/><path d="M223.363 73.962h19.92v7.511h-19.92zm71.76 27.957l-.015 1.491h-1.476l-.015-1.491.166-4.692a38.48 38.48 0 0 1 .588-4.7 35.77 35.77 0 0 1 .587 4.7l.165 4.692zm-14.106 12.961l-.166 4.835c-.099 1.625-.295 3.242-.587 4.843-.296-1.601-.492-3.218-.588-4.843l-.166-4.835.015-1.25h1.476l.016 1.251zm7.607-5.483l-.053 4.233h-1.4l-.053-4.233.106-5.987h1.3l.1 5.988zm-17.081 0l-.053 4.233h-1.4l-.053-4.233.106-5.987h1.3l.1 5.988zm-5.98 5.483l-.166 4.835c-.1 1.625-.296 3.242-.587 4.843a39.5 39.5 0 0 1-.587-4.843l-.166-4.835.015-1.25h1.477l.014 1.251zm31.993 0l-.166 4.835a41.1 41.1 0 0 1-.587 4.843c-.296-1.601-.492-3.218-.588-4.843l-.166-4.835.015-1.25h1.476l.016 1.251zm-17.007-13.074q0 .8-.023 1.6h-1.461q-.023-.8-.023-1.6l.166-4.692c.095-1.575.291-3.142.587-4.692.296 1.55.493 3.117.588 4.692l.166 4.692z"/><path d="M264.81 103.41l9.425-.585 9.426-.167 9.425.165 9.425.588-9.425.588-9.425.165-9.426-.167-9.425-.587zm34.689 10.22l-9.425.586-9.425.167-9.426-.165-9.425-.588 9.425-.588 9.426-.165 9.425.167 9.425.586zM145.547 12.414l-.015 1.491h-1.476l-.015-1.491.166-4.692a38.48 38.48 0 0 1 .587-4.7c.299 1.552.495 3.122.587 4.7l.166 4.692zm-14.106 12.962l-.166 4.835c-.099 1.625-.295 3.242-.587 4.843-.295-1.601-.491-3.218-.587-4.843l-.166-4.835.015-1.25h1.476l.015 1.25zm7.607-5.483l-.053 4.233h-1.4l-.053-4.233.106-5.988h1.3l.1 5.988zm-17.081 0l-.053 4.233h-1.4l-.053-4.233.106-5.988h1.3l.1 5.988zm-5.98 5.483l-.166 4.835c-.099 1.625-.295 3.242-.587 4.843a39.51 39.51 0 0 1-.587-4.843l-.166-4.835.015-1.25h1.476l.015 1.25zm31.993 0l-.166 4.835a41.06 41.06 0 0 1-.587 4.843 39.5 39.5 0 0 1-.587-4.843l-.166-4.835.015-1.25h1.476l.012 1.25zm-17.003-13.075q0 .8-.023 1.6h-1.461q-.023-.8-.023-1.6l.166-4.692c.095-1.575.291-3.142.587-4.692.296 1.55.492 3.117.587 4.692l.167 4.692z"/><path d="M115.233 13.906l9.425-.585 9.426-.167 9.425.165 9.425.588-9.425.588-9.425.165-9.426-.167-9.425-.587zm34.689 10.22l-9.425.586-9.425.167-9.426-.165-9.425-.588 9.425-.588 9.426-.165 9.425.167 9.425.586z"/></g><g fill="none" stroke="#5504b0" stroke-miterlimit="10"><path d="M221.137 36.229l8.557 8.619 3.542-11.413 4.941.423 1.53 11.271-7.4 11.142m3.758-22.595l-.494-9.62m-13.677.527l6.089 4.206 5.682-4.517 3.494-.4 5.815.822 2.311-7.292"/><path stroke-width=".5" d="M235.571 24.055l-.289-4.691"/></g><path stroke="#5504b0" d="M221.72 24.198l.395.251-.251.395-.395-.251zm-.745 11.581l.35.311-.311.35-.35-.311zm8.699 8.738l.35.311-.311.35-.35-.311zm2.514 11.532l.377.278-.278.377-.377-.278zm7.469-11.235l.377.278-.278.377-.377-.278zm-1.708-11.21l.465.056-.056.465-.465-.056zm-4.918-.43l.465.056-.056.465-.465-.056zm2.836.242l.465.056-.056.465-.465-.056zm-.556-9.585l.467-.038.038.467-.467.038zm-.281-4.605l.466-.038.038.466-.466.038zm1.826 4.478l.466-.038.038.466-.466.038zm5.884.723l.461.08-.08.461-.461-.08zm2.366-7.217l.445.146-.146.445-.445-.146zm-11.714 6.779l.467-.038.038.467-.467.038zm-5.74 4.73l.362-.297.297.362-.362.297z" fill="#ffc727"/></svg>