<svg xmlns="http://www.w3.org/2000/svg" width="24" height="24" fill="none" xmlns:v="https://vecta.io/nano"><path d="M12.926 22.5c.18.289.383.555.609.797l.726.703H1.5V0h13.066L21 6.434v5.789a6.72 6.72 0 0 0-1.5-.34V7.5h-6v-6H3v21h9.926zM15 2.566V6h3.434L15 2.566zm-1.5 11.695l-.293.352-.281.387H6v-1.5h7.5v.762zM6 18v-1.5h6v.703a1.91 1.91 0 0 1-.047.387l-.07.41H6zm10.5-7.5V12H6v-1.5h10.5zm6 8.25c0 .242-.023.48-.07.715l1.453.598-.574 1.395-1.453-.609c-.273.398-.609.734-1.008 1.008l.609 1.453-1.395.574-.598-1.453c-.234.047-.473.07-.715.07s-.48-.023-.715-.07l-.598 1.453-1.395-.574.609-1.453c-.398-.273-.734-.609-1.008-1.008l-1.453.609-.574-1.395 1.453-.598c-.047-.234-.07-.473-.07-.715s.023-.48.07-.715l-1.453-.598.574-1.395 1.453.609a5.18 5.18 0 0 1 .457-.551 3.11 3.11 0 0 1 .551-.457l-.609-1.453 1.395-.574.598 1.453c.234-.047.473-.07.715-.07s.48.023.715.07l.598-1.453 1.395.574-.609 1.453c.398.273.734.609 1.008 1.008l1.453-.609.574 1.395-1.453.598c.047.234.07.473.07.715zm-1.5 0c0-.312-.059-.605-.176-.879a2.26 2.26 0 0 0-1.195-1.195c-.273-.117-.566-.176-.879-.176s-.605.059-.879.176a2.26 2.26 0 0 0-1.195 1.195c-.117.273-.176.566-.176.879s.059.605.176.879a2.26 2.26 0 0 0 1.195 1.195c.273.117.566.176.879.176s.605-.059.879-.176a2.26 2.26 0 0 0 1.195-1.195c.117-.273.176-.566.176-.879z" fill="#000"/></svg>