<svg xmlns="http://www.w3.org/2000/svg" width="24" height="24" fill="none" xmlns:v="https://vecta.io/nano"><path d="M9.525 17.541c-.506 1.537-1.725 2.662-3.516 3.262-.805.266-1.646.411-2.494.431a.75.75 0 0 1-.75-.75c.02-.848.165-1.688.431-2.494.6-1.791 1.725-3.009 3.263-3.516a.75.75 0 0 1 .604.001.75.75 0 0 1 .408.446.75.75 0 0 1-.054.602.75.75 0 0 1-.48.367c-1.847.619-2.419 2.616-2.597 3.769 1.153-.178 3.15-.75 3.769-2.597a.75.75 0 0 1 .927-.409.75.75 0 0 1 .489.887h0zm9.366-7.134l-.834.844v5.747a1.52 1.52 0 0 1-.441 1.059l-3.038 3.028c-.138.141-.303.253-.485.329s-.378.114-.575.112a1.38 1.38 0 0 1-.431-.066 1.5 1.5 0 0 1-1.041-1.144l-.741-3.703-3.919-3.919-3.703-.741a1.5 1.5 0 0 1-1.144-1.041 1.49 1.49 0 0 1 .375-1.491l3.028-3.038a1.52 1.52 0 0 1 1.059-.441h5.747l.844-.834c2.681-2.681 5.428-2.606 6.487-2.447a1.47 1.47 0 0 1 1.256 1.256c.159 1.059.234 3.806-2.447 6.487h0zm-14.916.075l3.534.703 3.741-3.741H7.003l-3.028 3.037zM8.822 12L12 15.178l5.831-5.831c.731-.731 2.4-2.7 2.025-5.203-2.503-.375-4.472 1.294-5.203 2.025L8.822 12zm7.734.75l-3.741 3.741.703 3.534 3.038-3.028V12.75z" fill="#000"/></svg>