<svg width="24" height="24" viewBox="0 0 24 24" fill="none" xmlns="http://www.w3.org/2000/svg">
<path d="M18.364 18.3639C19.6227 17.1052 20.4798 15.5016 20.8271 13.7558C21.1743 12.0099 20.9961 10.2004 20.3149 8.55582C19.6337 6.91129 18.4802 5.50569 17.0001 4.51677C15.5201 3.52784 13.78 3 12 3C10.22 3 8.47992 3.52784 6.99988 4.51677C5.51984 5.50569 4.36629 6.91129 3.6851 8.55582C3.00391 10.2004 2.82567 12.0099 3.17293 13.7558C3.52019 15.5016 4.37734 17.1052 5.636 18.3639" stroke="black" stroke-width="2" stroke-linecap="round" stroke-linejoin="round"/>
<path d="M11.766 22H12.234C12.7216 22.0001 13.1924 21.8221 13.5579 21.4995C13.9234 21.1768 14.1585 20.7318 14.219 20.248L14.719 16.248C14.7542 15.9666 14.7291 15.6809 14.6454 15.4099C14.5617 15.1389 14.4213 14.8888 14.2336 14.6762C14.0459 14.4636 13.8151 14.2934 13.5566 14.1768C13.298 14.0602 13.0176 13.9999 12.734 14H11.266C10.9824 13.9999 10.702 14.0602 10.4434 14.1768C10.1849 14.2934 9.9541 14.4636 9.76638 14.6762C9.57865 14.8888 9.43829 15.1389 9.3546 15.4099C9.27092 15.6809 9.24583 15.9666 9.281 16.248L9.781 20.248C9.84146 20.7318 10.0766 21.1768 10.4421 21.4995C10.8076 21.8221 11.2784 22.0001 11.766 22V22Z" stroke="black" stroke-width="2" stroke-linecap="round" stroke-linejoin="round"/>
<path d="M12 11C13.1046 11 14 10.1046 14 9C14 7.89543 13.1046 7 12 7C10.8954 7 10 7.89543 10 9C10 10.1046 10.8954 11 12 11Z" stroke="black" stroke-width="2" stroke-linecap="round" stroke-linejoin="round"/>
</svg>
