<svg xmlns="http://www.w3.org/2000/svg" width="24" height="24" fill="none" xmlns:v="https://vecta.io/nano"><path d="M11.709 9.589c-.439.069-.87.024-1.241-.134L8.791 10.55m2.918-.961l-3.021.789m3.021-.789a2.23 2.23 0 0 1-.351 1.005c-.277.443-.751.961-1.566 1.718m1.918-2.723l-1.918 2.723m-1-1.762l-.103-.171m.103.171l-.103-.171m.103.171a1.37 1.37 0 0 1-1.12.137m1.017-.309a1.17 1.17 0 0 1-.959.117m-.058.191l.058-.191m-.058.191c-.375-.11-.724-.365-1.012-.659s-.532-.644-.691-.96h0c-.203-.405-.203-.767-.104-1.056.094-.276.275-.475.43-.582m1.376 3.257l.058-.191m0 0L6.295 7.43m0 0A14.83 14.83 0 0 0 9.11 4.152L8.9 3.374c-.084-.356-.158-.759-.158-1.076h0a.5.5 0 0 1 .278-.447h.001 0c.083-.041.176-.057.269-.048s.18.043.254.099l.008.006h0c.036.027.39.29.91.554.552.28 1.267.548 1.971.548.694 0 2.184.12 3.507 1.032 1.335.921 2.464 2.627 2.464 5.724M6.295 7.43l3.378-4.257.264.948c.013.039.018.08.014.121s-.016.081-.035.117c-.042.078-1.076 1.926-3.136 3.705-.091.067-.293.255-.096.648.243.486.752 1.076 1.214 1.211a.58.58 0 0 0 .485-.056l1.868-1.23m8.153 1.13c.001.139-.007 3.102-1.225 6.445l-.188-.069m1.413-6.377h-.2m.2-.001h-.2m-1.213 6.376l.189.066a.5.5 0 0 1-.1.169c-.044.049-.098.089-.157.117a.5.5 0 0 1-.384.018.5.5 0 0 1-.283-.26.5.5 0 0 1-.014-.383c1.16-3.184 1.165-6.082 1.165-6.101 0-2.641-.885-4.065-1.923-4.838-1.049-.781-2.292-.923-3.051-.923-.957 0-1.873-.364-2.523-.706l.217.757c.021.065.029.133.023.201a.5.5 0 0 1-.059.195m6.9 11.689c-.013.037-.033.072-.06.101s-.058.053-.094.07-.074.027-.114.029-.079-.004-.116-.018-.071-.034-.1-.061-.053-.059-.069-.095a.3.3 0 0 1-.008-.23l1.775-6.172m-1.213 6.376c1.208-3.315 1.214-6.254 1.213-6.376m-8.113-5.313l-.176-.095.176.095zm0 0c-.051.093-1.098 1.962-3.181 3.761l-.006.005-.006.005c-.032.023-.068.057-.086.107-.015.043-.029.131.05.29.112.225.288.477.49.688s.419.367.601.42l.007.002h0c.052.017.108.023.163.017s.108-.025.155-.054l.002-.001h0l1.851-1.218.019-.013m0 0l.115.163m-.115-.163l.115.163m-.115-.163l.322 4.579m-.207-4.416a.3.3 0 0 1 .17-.055c.061 0 .121.018.171.052m2.711-.215c.242-.353.763-1.258.376-2.059l-1.778 3.198c-.074.871-.472 1.503-1.986 2.91-1.456 1.351-2.319 3.126-2.311 4.748.004.789.219.946.626 1.244l.497.397c.055.05.127.078.201.078h8.365a.3.3 0 0 0 .299-.299.3.3 0 0 0-.299-.299H9.061c-.186-.184-.343-.274-.469-.346-.245-.141-.373-.215-.376-.778m5.1-8.794c-.193.282-.476.515-.802.691m.802-.691l.165.113m-.165-.113l.165.113m-.967.578c.009.034.014.051.014.069 0 1.344-.451 2.11-2.192 3.727m2.179-3.795l.037.069.058.107.119-.067m-.214-.109l.195-.046.003.01v.001l.006.021a.35.35 0 0 1 .011.083v.04m-2.392 3.687c-1.314 1.221-2.127 2.872-2.119 4.307m2.119-4.307l.136.146m-.136-.146l.136.147c-1.284 1.193-2.063 2.793-2.055 4.159m-.2.001l.2-.001m-.2.001l.2-.001m1.376-4.89c-1.487 1.38-2.383 3.205-2.375 4.896h0c.003.559.108.863.347 1.109.103.106.228.197.356.291l.02.015.466.373a.5.5 0 0 0 .336.131h8.365a.5.5 0 0 0 .499-.499.5.5 0 0 0-.499-.499H9.141a2.15 2.15 0 0 0-.338-.255l-.113-.067-.035-.02-.1-.064c-.044-.033-.072-.065-.094-.127-.025-.072-.044-.188-.045-.393l1.376-4.89zm-1.376 4.89l2.055-4.159m0 0c.873-.81 1.439-1.422 1.786-2.011s.466-1.141.47-1.823m0 0c.299-.179.564-.409.754-.687m0 0a3.44 3.44 0 0 0 .45-.916c.12-.398.164-.881-.059-1.343h0c-.028-.059-.068-.112-.117-.155a.5.5 0 0 0-.361-.125.5.5 0 0 0-.343.166.5.5 0 0 0-.125.361.5.5 0 0 0 .049.188l.18-.087-.18.087c.062.127.078.305.028.527s-.164.473-.343.734h0c-.188.274-.537.508-.937.611-.408.104-.768.051-1.004-.11l-.113.165m0 0c.296.203.72.253 1.166.139l-1.166-.139zM8.942 2.298c0 .586.278 1.534.386 1.88l-.386-1.88zm10.059 18.523a.5.5 0 0 0-.499-.499H7.747a.5.5 0 0 0-.499.499.5.5 0 0 0 .499.499h10.755a.5.5 0 0 0 .499-.499z" fill="#000" stroke="#000" stroke-width=".4"/></svg>