<svg xmlns="http://www.w3.org/2000/svg" width="24" height="24" fill="none" xmlns:v="https://vecta.io/nano"><mask id="A" maskUnits="userSpaceOnUse" x=".004" y="13.52" width="24" height="10" fill="#000"><path fill="#fff" d="M.004 13.52h24v10h-24z"/><path d="M14.184 18H12l-4.5-2.48-5.495 2.021 1.501 2.972 3.536-1.477C10.35 21.012 12.364 22 13.083 22s3.692-1.334 8.918-4"/></mask><path d="M14.184 19.3a1.3 1.3 0 1 0 0-2.6v2.6zM12 18l-.627 1.139A1.3 1.3 0 0 0 12 19.3V18zm-4.5-2.48l.627-1.138a1.3 1.3 0 0 0-1.076-.082l.449 1.22zm-5.495 2.021l-.449-1.22a1.3 1.3 0 0 0-.712 1.806l1.16-.586zm1.501 2.972l-1.16.586a1.3 1.3 0 0 0 1.661.613l-.501-1.2zm3.536-1.477l.666-1.116a1.3 1.3 0 0 0-1.167-.084l.501 1.2zm15.549.122a1.3 1.3 0 1 0-1.182-2.316l1.182 2.316zM14.184 16.7H12v2.6h2.184v-2.6zm-1.556.162l-4.5-2.48-1.255 2.277 4.5 2.48 1.255-2.277zM7.051 14.3l-5.495 2.021.897 2.44 5.496-2.021-.897-2.44zM.844 18.127l1.501 2.972 2.321-1.172-1.501-2.972-2.321 1.172zm3.162 3.585l3.536-1.476-1.002-2.399-3.536 1.477 1.002 2.399zm2.369-1.56l4.085 2.274 1.398.611c.369.133.807.263 1.224.263v-2.6c.057 0-.026.006-.34-.108-.28-.101-.656-.264-1.137-.5-.96-.471-2.256-1.191-3.898-2.172l-1.333 2.232zm6.707 3.147c.44 0 .965-.169 1.403-.327l1.897-.787 6.208-3.028-1.182-2.316-6.09 2.972-1.716.713-.52.173v2.6z" fill="#000" mask="url(#A)"/><path d="M14.47 14.144h.026a.65.65 0 0 0 .65-.65h0v-1.908c.498-.226 1.093-.542 1.496-.944L16.2 10.2l.441.441a5.15 5.15 0 0 0 1.116-5.612A5.15 5.15 0 0 0 13 1.85a5.15 5.15 0 0 0-4.758 3.179 5.15 5.15 0 0 0 1.116 5.612l.457-.457-.457.457c.402.402.996.719 1.494.945l-.002 1.906a.65.65 0 0 0 .65.651h2.97z" stroke="#000" stroke-width="1.3" stroke-linejoin="round"/><mask id="B" maskUnits="userSpaceOnUse" x="4.5" y="1" width="17" height="11" fill="#000"><path fill="#fff" d="M4.5 1h17v11h-17z"/><path d="M6 10.5l.5-.5zm14 0l-.5-.5zm-12.5-8L7 2zm11 0L19 2zm2 3.5H20zM6 6h-.5z"/></mask><path d="M5.505 10.005a.7.7 0 1 0 .99.99l-.99-.99zm1.49.49a.7.7 0 1 0-.99-.99l.99.99zm12.51.5a.7.7 0 1 0 .99-.99l-.99.99zm.49-1.49a.7.7 0 1 0-.99.99l.99-.99zm-12.99-6.51a.7.7 0 0 0 .99-.99l-.99.99zm.49-1.49a.7.7 0 0 0-.99.99l.99-.99zm10.51.5a.7.7 0 1 0 .99.99l-.99-.99zm1.49.49a.7.7 0 1 0-.99-.99l.99.99zM20.5 6.7a.7.7 0 1 0 0-1.4v1.4zM20 5.3a.7.7 0 1 0 0 1.4V5.3zM6 6.7a.7.7 0 1 0 0-1.4v1.4zm-.5-1.4a.7.7 0 1 0 0 1.4V5.3zm.995 5.695l.5-.5-.99-.99-.5.5.99.99zm14-.99l-.5-.5-.99.99.5.5.99-.99zm-12.5-8l-.5-.5-.99.99.5.5.99-.99zm11 .99l.5-.5-.99-.99-.5.5.99.99zM20.5 5.3H20v1.4h.5V5.3zM6 5.3h-.5v1.4H6V5.3z" fill="#000" mask="url(#B)"/></svg>