<svg xmlns="http://www.w3.org/2000/svg" width="24" height="24" fill="none" xmlns:v="https://vecta.io/nano"><path d="M11.984 3.588a2.67 2.67 0 0 1 1.89.783c.501.501.783 1.181.783 1.89s-.282 1.388-.783 1.89a2.67 2.67 0 0 1-1.89.783c-.709 0-1.389-.282-1.89-.783s-.783-1.181-.783-1.89.282-1.389.783-1.89 1.181-.783 1.89-.783v.001zm0 1.2a1.47 1.47 0 0 0-1.472 1.472 1.47 1.47 0 0 0 1.472 1.472c.391 0 .765-.155 1.042-.431s.431-.651.431-1.042-.155-.765-.431-1.042-.651-.431-1.042-.431v.001zM3.619 13.8a.6.6 0 0 1-.6.6.6.6 0 0 1-.6-.6v-2.983a1.2 1.2 0 0 1 1.06-1.192l.14-.008h3.308c-.175.301-.281.637-.312.984l-.01.216H3.618V13.8h.001zm17.369.6a.6.6 0 0 0 .6-.6v-2.983l-.008-.139a1.2 1.2 0 0 0-1.192-1.061h-3.341c.175.304.288.652.314 1.021l.006.18h3.02V13.8a.6.6 0 0 0 .6.6h0zm-6.019-4.783a1.2 1.2 0 0 1 1.192 1.061l.007.139V13.8a.6.6 0 0 1-.6.6.6.6 0 0 1-.6-.6v-2.983H9.006V13.8a.6.6 0 0 1-.6.6.6.6 0 0 1-.6-.6v-2.983a1.2 1.2 0 0 1 1.06-1.192l.14-.008h5.962.001zm5.297-2.98c0-.609-.242-1.193-.672-1.624s-1.015-.673-1.624-.673-1.193.242-1.624.673-.673 1.015-.673 1.624.242 1.193.673 1.624 1.015.673 1.624.673 1.193-.242 1.624-.673.672-1.015.672-1.624h0zm-3.392 0c0-.291.116-.57.321-.775s.484-.321.775-.321.57.115.775.321.321.484.321.775-.116.57-.321.775-.484.321-.775.321-.57-.115-.775-.321-.321-.484-.321-.775zM6.019 4.341c.609 0 1.193.242 1.624.673s.673 1.015.673 1.624-.242 1.193-.673 1.624-1.015.673-1.624.673-1.193-.242-1.624-.673-.673-1.015-.673-1.624.242-1.193.673-1.624 1.015-.673 1.624-.673h0zm0 1.2c-.291 0-.57.115-.775.321s-.321.484-.321.775.115.57.321.775.484.321.775.321.57-.115.775-.321.321-.484.321-.775-.115-.57-.321-.775-.484-.321-.775-.321h0zM3 15.6a.6.6 0 0 0-.6.6v1.2a3 3 0 0 0 3 3h13.2a3 3 0 0 0 3-3v-1.2a.6.6 0 0 0-.6-.6H3zm.6 1.8v-.6h16.8v.6a1.8 1.8 0 0 1-1.8 1.8H5.4a1.8 1.8 0 0 1-1.8-1.8z" fill="#000"/></svg>