<svg xmlns="http://www.w3.org/2000/svg" width="24" height="24" fill="none" xmlns:v="https://vecta.io/nano"><path d="M12 2a9.63 9.63 0 0 0-7.07 2.93A9.63 9.63 0 0 0 2 12a9.63 9.63 0 0 0 2.93 7.07A9.63 9.63 0 0 0 12 22a9.63 9.63 0 0 0 7.07-2.93A9.63 9.63 0 0 0 22 12a9.63 9.63 0 0 0-2.93-7.07A9.63 9.63 0 0 0 12 2zm0 18.32a8.01 8.01 0 0 1-5.879-2.441A8.01 8.01 0 0 1 3.68 12a8.01 8.01 0 0 1 2.441-5.879A8.01 8.01 0 0 1 12 3.68a8.01 8.01 0 0 1 5.879 2.441A8.01 8.01 0 0 1 20.32 12a8.01 8.01 0 0 1-2.441 5.879A8.01 8.01 0 0 1 12 20.32zM12 6.18c-1.615 0-2.988.566-4.121 1.699S6.18 10.385 6.18 12s.566 2.988 1.699 4.121S10.385 17.82 12 17.82s2.988-.566 4.121-1.699S17.82 13.615 17.82 12s-.566-2.988-1.699-4.121S13.615 6.18 12 6.18zm0 10c-1.172 0-2.161-.404-2.969-1.211S7.82 13.172 7.82 12s.404-2.161 1.211-2.969S10.828 7.82 12 7.82s2.162.404 2.969 1.211S16.18 10.828 16.18 12s-.404 2.162-1.211 2.969S13.172 16.18 12 16.18zM13.68 12a1.62 1.62 0 0 1-.488 1.191A1.62 1.62 0 0 1 12 13.68a1.62 1.62 0 0 1-1.191-.488A1.62 1.62 0 0 1 10.32 12a1.62 1.62 0 0 1 .488-1.191A1.62 1.62 0 0 1 12 10.32a1.62 1.62 0 0 1 1.191.488A1.62 1.62 0 0 1 13.68 12z" fill="#000"/></svg>