<svg xmlns="http://www.w3.org/2000/svg" width="32" height="32" fill="none" xmlns:v="https://vecta.io/nano"><path d="M25.394 24c.597-1.434.758-3.012.46-4.536s-1.038-2.927-2.13-4.031a3.92 3.92 0 0 0-1.085-4.414l2.776-2.776a2 2 0 0 0 0-2.829l-2.828-2.828a2 2 0 0 0-2.829 0L6.586 15.757c-.375.375-.585.884-.585 1.414s.21 1.039.585 1.415l2.828 2.828a2 2 0 0 0 2.829 0l4.775-4.775c.677.783 1.636 1.268 2.668 1.348s2.054-.248 2.845-.916c.822.941 1.327 2.116 1.443 3.36s-.163 2.493-.797 3.569H16v4H4v2h24v-6h-2.606zm-14.566-4L8 17.171l1.879-1.878 2.828 2.828L10.828 20zM16 14a3.98 3.98 0 0 0 .076.752l-1.955 1.955-2.828-2.828 9.88-9.88L24 6.827l-3.249 3.25c-.579-.115-1.175-.1-1.747.045a3.98 3.98 0 0 0-2.629 2.171A3.98 3.98 0 0 0 16 14zm4 2a2 2 0 0 1-1.848-1.235 2 2 0 0 1 .434-2.18 2 2 0 0 1 2.18-.434A2 2 0 0 1 22 14a2 2 0 0 1-2 2h0zm6 12h-8v-2h8v2z" fill="#000"/></svg>