<svg xmlns="http://www.w3.org/2000/svg" width="20" height="20" fill="none" xmlns:v="https://vecta.io/nano"><path d="M5.439.9c.885-.002 1.738.325 2.39.914s1.056 1.4 1.13 2.27a3.44 3.44 0 0 1-.73 2.424c-.526.667-1.28 1.121-2.119 1.28v2.112h6.18c.428 0 .839-.168 1.141-.466s.472-.701.472-1.122v-.525c-.838-.16-1.59-.615-2.114-1.281a3.44 3.44 0 0 1-.728-2.421c.074-.869.476-1.678 1.127-2.268s1.502-.917 2.386-.917 1.735.327 2.386.917 1.053 1.399 1.127 2.268a3.44 3.44 0 0 1-.728 2.422c-.525.666-1.277 1.121-2.114 1.281v.525a2.89 2.89 0 0 1-.866 2.06c-.554.546-1.306.853-2.089.853H6.11v.988c.838.16 1.59.615 2.114 1.281a3.44 3.44 0 0 1 .728 2.422c-.074.869-.477 1.678-1.127 2.268s-1.502.917-2.386.917-1.735-.327-2.386-.917S2 16.784 1.926 15.916a3.44 3.44 0 0 1 .728-2.421c.525-.666 1.276-1.121 2.114-1.281V7.789c-.841-.157-1.596-.611-2.123-1.278a3.44 3.44 0 0 1-.732-2.427c.074-.871.479-1.682 1.132-2.272S4.553.897 5.439.9zm0 0V1 .9zM3.895 5.895c-.409-.403-.639-.95-.639-1.52s.23-1.116.639-1.52a2.2 2.2 0 0 1 1.545-.63 2.2 2.2 0 0 1 1.545.63c.409.403.639.95.639 1.52s-.23 1.117-.639 1.52a2.2 2.2 0 0 1-1.545.63 2.2 2.2 0 0 1-1.545-.63zm0 11.251c-.409-.403-.639-.95-.639-1.52s.23-1.117.639-1.52a2.2 2.2 0 0 1 1.545-.63 2.2 2.2 0 0 1 1.545.63c.409.403.639.95.639 1.52s-.23 1.117-.639 1.52a2.2 2.2 0 0 1-1.545.63 2.2 2.2 0 0 1-1.545-.63zM16.119 5.895a2.2 2.2 0 0 1-3.089 0c-.409-.403-.639-.95-.639-1.52s.23-1.116.639-1.52a2.2 2.2 0 0 1 3.089 0c.409.403.639.95.639 1.52s-.23 1.117-.639 1.52z" fill="#000" stroke="#000" stroke-width=".2"/></svg>