<svg width="24" height="24" viewBox="0 0 24 24" fill="none" xmlns="http://www.w3.org/2000/svg">
<path d="M20 10.9998C19.7554 9.24019 18.939 7.60977 17.6766 6.3597C16.4143 5.10963 14.776 4.30926 13.014 4.08185C11.4405 3.87709 9.84148 4.1393 8.41577 4.83589C6.99006 5.53247 5.80051 6.63272 4.995 7.99985M4 12.9998C4.23142 14.6651 4.97527 16.2171 6.12841 17.4406C7.28155 18.664 8.78683 19.4984 10.4355 19.8279C12.0841 20.1573 13.7945 19.9657 15.3293 19.2794C16.8641 18.5931 18.1473 17.4462 19.001 15.9978" stroke="black" stroke-width="2" stroke-linecap="round" stroke-linejoin="round"/>
<path d="M19 17C19.5523 17 20 16.5523 20 16C20 15.4477 19.5523 15 19 15C18.4477 15 18 15.4477 18 16C18 16.5523 18.4477 17 19 17Z" stroke="black" stroke-width="2" stroke-linecap="round" stroke-linejoin="round"/>
<path d="M5 9C5.55228 9 6 8.55228 6 8C6 7.44772 5.55228 7 5 7C4.44772 7 4 7.44772 4 8C4 8.55228 4.44772 9 5 9Z" stroke="black" stroke-width="2" stroke-linecap="round" stroke-linejoin="round"/>
<path d="M12 15C13.6569 15 15 13.6569 15 12C15 10.3431 13.6569 9 12 9C10.3431 9 9 10.3431 9 12C9 13.6569 10.3431 15 12 15Z" stroke="black" stroke-width="2" stroke-linecap="round" stroke-linejoin="round"/>
</svg>
