<svg xmlns="http://www.w3.org/2000/svg" width="20" height="20" fill="none" xmlns:v="https://vecta.io/nano"><path d="M3.75 1.654a.67.67 0 0 1 .183-.462A.61.61 0 0 1 4.375 1h3.75a.61.61 0 0 1 .442.192.67.67 0 0 1 .183.462v3.923a.67.67 0 0 1-.183.462.61.61 0 0 1-.442.192h-3.75a.61.61 0 0 1-.442-.192.67.67 0 0 1-.183-.462V1.654zM11.875 1a.61.61 0 0 0-.442.192.67.67 0 0 0-.183.462v3.923a.67.67 0 0 0 .183.462.61.61 0 0 0 .442.192h3.75a.61.61 0 0 0 .442-.192.67.67 0 0 0 .183-.462V1.654a.67.67 0 0 0-.183-.462.61.61 0 0 0-.442-.192h-3.75zm.625 3.923V2.308H15v2.615h-2.5zM5 14.077c.332 0 .649-.138.884-.383a1.34 1.34 0 0 0 .366-.925 1.34 1.34 0 0 0-.366-.925c-.234-.245-.552-.383-.884-.383s-.649.138-.884.383a1.34 1.34 0 0 0-.366.925 1.34 1.34 0 0 0 .366.925c.234.245.552.383.884.383zm6.25-1.308a1.34 1.34 0 0 1-.366.925c-.234.245-.552.383-.884.383s-.649-.138-.884-.383a1.34 1.34 0 0 1-.366-.925 1.34 1.34 0 0 1 .366-.925c.234-.245.552-.383.884-.383s.649.138.884.383a1.34 1.34 0 0 1 .366.925zM15 14.077c.332 0 .649-.138.884-.383a1.34 1.34 0 0 0 .366-.925 1.34 1.34 0 0 0-.366-.925c-.234-.245-.552-.383-.884-.383s-.649.138-.884.383a1.34 1.34 0 0 0-.366.925 1.34 1.34 0 0 0 .366.925c.234.245.552.383.884.383zM0 12.769c0-1.387.527-2.718 1.464-3.699A4.89 4.89 0 0 1 5 7.538h10a4.89 4.89 0 0 1 3.535 1.532c.938.981 1.465 2.311 1.465 3.699s-.527 2.718-1.465 3.699A4.89 4.89 0 0 1 15 18H5a4.89 4.89 0 0 1-3.536-1.532C.527 15.487 0 14.157 0 12.769zm5-3.923c-.995 0-1.948.413-2.652 1.149S1.25 11.729 1.25 12.769s.395 2.038 1.098 2.774S4.005 16.692 5 16.692h10c.995 0 1.948-.413 2.652-1.149s1.098-1.734 1.098-2.774-.395-2.038-1.098-2.774S15.995 8.846 15 8.846H5z" fill="#000"/></svg>