<svg xmlns="http://www.w3.org/2000/svg" width="24" height="24" fill="none" xmlns:v="https://vecta.io/nano"><path d="M2 5.571A3.57 3.57 0 0 1 5.571 2h12.854a3.57 3.57 0 0 1 3.571 3.571v.714H22v1.429h-.004v10.714A3.57 3.57 0 0 1 18.425 22H5.571A3.57 3.57 0 0 1 2 18.429V5.571zm18.567.714v-.714c0-.568-.226-1.113-.627-1.515a2.14 2.14 0 0 0-1.515-.628H5.571a2.14 2.14 0 0 0-1.515.628c-.402.402-.627.947-.627 1.515v.714h17.139zM3.428 7.714v10.714c0 .568.226 1.113.627 1.515a2.14 2.14 0 0 0 1.515.628h12.854a2.14 2.14 0 0 0 1.515-.628c.402-.402.627-.947.627-1.515V7.714H3.428zm2.147 1.429c-.189 0-.371.075-.505.209s-.209.316-.209.505v5.714c0 .189.075.371.209.505s.316.209.505.209h5.713c.189 0 .371-.075.505-.209s.209-.316.209-.505V9.857c0-.189-.075-.371-.209-.505s-.316-.209-.505-.209H5.575zm4.999 1.429v4.286H6.289v-4.286h4.285z" fill="#000"/></svg>