<svg width="24" height="24" viewBox="0 0 24 24" fill="none" xmlns="http://www.w3.org/2000/svg">
<path d="M11.3284 9.20722L9.20711 11.3285C8.81658 11.7191 8.81658 12.3522 9.20711 12.7428L11.3284 14.8641C11.719 15.2546 12.3521 15.2546 12.7426 14.8641L14.864 12.7428C15.2545 12.3522 15.2545 11.7191 14.864 11.3285L12.7426 9.20722C12.3521 8.81669 11.719 8.81669 11.3284 9.20722Z" stroke="black" stroke-width="2" stroke-linecap="round" stroke-linejoin="round"/>
<path d="M20.06 8C18.5875 5.0365 15.53 3 11.9955 3C8.462 3 5.4725 5.0365 4 8M4 4V8M7.39 8H4M4 16C5.4725 18.9635 8.5305 21 12.0645 21C15.598 21 18.5875 18.9635 20.06 16M20.06 20V16M16.67 16H20.06" stroke="black" stroke-width="2" stroke-linecap="round"/>
</svg>
