<svg xmlns="http://www.w3.org/2000/svg" width="24" height="24" fill="none" xmlns:v="https://vecta.io/nano"><path d="M6.375 14.25c-.668 0-1.32.198-1.875.569s-.988.898-1.243 1.515-.322 1.295-.192 1.95.452 1.256.924 1.728 1.073.793 1.728.924 1.333.063 1.95-.192 1.144-.688 1.515-1.243.569-1.208.569-1.875c0-.895-.356-1.754-.989-2.386s-1.491-.989-2.386-.989zm0 5.25c-.371 0-.733-.11-1.042-.316s-.549-.499-.691-.841-.179-.72-.107-1.083.251-.698.513-.96.596-.441.96-.513.741-.035 1.083.107.635.382.841.691.316.671.316 1.042c-.002.497-.201.972-.552 1.323s-.827.549-1.323.552h0zM3.216 9.966l1.35-1.341-1.35-1.341a.76.76 0 0 1 .05-1.019.76.76 0 0 1 1.019-.05l1.341 1.35 1.341-1.35a.76.76 0 0 1 1.019.05.76.76 0 0 1 .05 1.019l-1.35 1.341 1.35 1.341a.76.76 0 0 1 0 1.069.77.77 0 0 1-1.069 0l-1.341-1.35-1.341 1.35a.77.77 0 0 1-1.069 0 .76.76 0 0 1 0-1.069h0zm17.569 9a.76.76 0 0 1 0 1.069.77.77 0 0 1-1.069 0l-1.341-1.35-1.341 1.35a.77.77 0 0 1-1.069 0 .76.76 0 0 1 0-1.069l1.35-1.341-1.35-1.341a.76.76 0 0 1 .05-1.019.76.76 0 0 1 1.019-.05l1.341 1.35 1.341-1.35a.76.76 0 0 1 1.019.05.76.76 0 0 1 .05 1.019l-1.35 1.341 1.35 1.341zm-4.238-8.391c-.581 2.1-2.372 3.909-4.369 4.406L12 15a.75.75 0 0 1-.731-.572.76.76 0 0 1 .553-.909c1.463-.366 2.841-1.772 3.281-3.338.291-1.078.3-2.719-1.387-4.397l-.216-.225V7.5a.75.75 0 0 1-.75.75.75.75 0 0 1-.75-.75V3.75a.75.75 0 0 1 .75-.75h3.75a.75.75 0 0 1 .75.75.75.75 0 0 1-.75.75h-1.941l.225.216c1.706 1.716 2.334 3.797 1.763 5.859h0z" fill="#000"/></svg>