<svg xmlns="http://www.w3.org/2000/svg" width="24" height="24" fill="none" xmlns:v="https://vecta.io/nano"><g clip-path="url(#A)" stroke="#000" stroke-linejoin="round"><path d="M16.892.4H7.108C6.154.4 5.4 1.184 5.4 2.128v19.744c0 .944.754 1.728 1.708 1.728h9.784c.954 0 1.708-.784 1.708-1.728V2.128C18.6 1.184 17.846.4 16.892.4z" stroke-width="1.2"/><path d="M6.584 19.371h10.832m0-14.742H6.584m5.416 0v14.742m3.708-3.121h1.708m-3.708-8.5H12m2.708 1V11m0 2v2.25m-1-8.5h2v2h-2v-2zm0 4.25h2v2h-2v-2zm0 4.25h2v2h-2v-2z" stroke-linecap="round"/></g><defs><clipPath id="A"><path fill="#fff" d="M0 0h24v24H0z"/></clipPath></defs></svg>