<svg width="24" height="24" viewBox="0 0 24 24" fill="none" xmlns="http://www.w3.org/2000/svg">
<g clip-path="url(#clip0_9507_2400)">
<path d="M16.8921 0.4H7.10788C6.15441 0.4 5.4 1.18407 5.4 2.12821V21.8718C5.4 22.8159 6.15441 23.6 7.10788 23.6H16.8921C17.8456 23.6 18.6 22.8159 18.6 21.8718V2.12821C18.6 1.18407 17.8456 0.4 16.8921 0.4Z" stroke="black" stroke-width="1.2" stroke-linecap="round" stroke-linejoin="round"/>
<path d="M6.58401 19.3709H17.416M17.416 4.62891H6.58401M12 4.62891V19.3709M15.708 16.2499H17.416M13.708 7.74991H12M14.708 8.74991V10.9999M14.708 12.9999V15.2499M13.708 6.74991H15.708V8.74991H13.708V6.74991ZM13.708 10.9999H15.708V12.9999H13.708V10.9999ZM13.708 15.2499H15.708V17.2499H13.708V15.2499Z" stroke="black" stroke-linecap="round" stroke-linejoin="round"/>
</g>
<defs>
<clipPath id="clip0_9507_2400">
<rect width="24" height="24" fill="white"/>
</clipPath>
</defs>
</svg>
