<svg xmlns="http://www.w3.org/2000/svg" width="802.439" height="595.688" viewBox="0 0 802.439 595.688">
  <g id="Group_5523" data-name="Group 5523" transform="translate(-1325.642 -10621.912)">
    <g id="Group_5514" data-name="Group 5514" transform="translate(555.63 1209)">
      <g id="man-writing-book-on-deskook" transform="translate(620.106 9313.82)">
        <path id="Path_45616" data-name="Path 45616" d="M527.9,431.62c-.341,0-.682-.02-1.023-.04,1-5.9,2.045-11.81,3.429-17.745,1.323,5.714,2.346,11.389,3.308,17.084a26.028,26.028,0,0,1-5.714.7Zm6.456,3.649c-.04,3.409-.04,6.818-.04,10.226,0,3.729.02,7.479,0,11.209V563.839c-1.223,7.159-2.406,14.3-4.01,21.435-1.6-7.138-2.787-14.276-4.01-21.435V446c0-3.569,0-7.159-.04-10.728.141-.8.26-1.584.4-2.386a26.7,26.7,0,0,0,7.259-.141C534.075,433.585,534.215,434.427,534.355,435.269ZM398.266,254.084s.421.742,1.243,1.905l-.04.04-5.9,6.316c-2.406,1.7-4.812,3.409-7.4,4.933,1.364-2.667,2.908-5.173,4.431-7.7l4.471-4.752C397.023,254.425,398.266,254.084,398.266,254.084Zm35.231-37.3c-1.383,2.647-2.927,5.173-4.451,7.68l-5.915,6.316-1.083,1.143a33.113,33.113,0,0,0-4.412-1.143l2.567-2.747,5.915-6.316C428.524,220.037,430.93,218.353,433.5,216.789Z" transform="translate(237.486 81.629)" fill="#fbd206"/>
        <path id="Path_45617" data-name="Path 45617" d="M735.134,242.238a4.606,4.606,0,0,1,1.393-1.766,3.381,3.381,0,0,1,1.542-.644,3.265,3.265,0,0,1,1.654.2,4.472,4.472,0,0,1,1.8,1.324h.005l.025.037-.025.037h0a4.474,4.474,0,0,1-1.4,1.747,3.264,3.264,0,0,1-1.544.625,3.373,3.373,0,0,1-1.656-.22A4.607,4.607,0,0,1,735.134,242.238Zm-81.678,10.851-43.875,5.423q-21.939,2.694-43.894,5.241c-29.277,3.364-58.532,6.926-87.83,10.1l-87.868,9.745-87.918,9.284h-.011a1.787,1.787,0,0,1-.721-.075c-12.535-4.062-25.083-8.082-37.583-12.253l-37.533-12.408q-18.779-6.165-37.5-12.523L151.29,242.91,189.148,254.3q18.928,5.7,37.8,11.58l37.761,11.7c12.6,3.864,25.149,7.878,37.712,11.85l-.731-.074,87.87-9.73,87.919-9.268c29.3-3.167,58.638-5.943,87.958-8.917q21.988-2.239,44-4.265Z" transform="translate(1.392 104.757)" fill="#fbd206"/>
        <path id="Path_45618" data-name="Path 45618" d="M151.287,250.668c12.423,4.325,24.769,8.855,37.151,13.288l37.022,13.625,18.5,6.834,18.443,6.988,36.887,13.975-.942-.113c17.579-2.375,35.193-4.474,52.794-6.68l52.815-6.517,52.861-6.16c17.636-1.934,35.261-3.946,52.916-5.724-17.534,2.722-35.1,5.213-52.653,7.78l-52.709,7.345-52.755,6.987c-17.589,2.3-35.165,4.7-52.776,6.825l-.022,0a1.935,1.935,0,0,1-.921-.116L261.133,294.72l-18.384-7.143-18.325-7.3-36.634-14.637C175.622,260.654,163.415,255.764,151.287,250.668Z" transform="translate(1.389 115.683)" fill="#fbd206"/>
        <path id="Path_45619" data-name="Path 45619" d="M224.218,471.968q-.565-25.85-.364-51.681c.078-17.223.391-34.44.749-51.656.433-17.215.916-34.428,1.634-51.635q.99-25.814,2.759-51.609.572,25.849.37,51.681c-.08,17.222-.393,34.439-.756,51.656-.438,17.214-.921,34.427-1.639,51.635Q225.977,446.172,224.218,471.968Z" transform="translate(74.276 130.478)" fill="#fbd206"/>
        <path id="Path_45620" data-name="Path 45620" d="M544.876,210.264a24.1,24.1,0,0,1-6.7-4.466,30.757,30.757,0,0,1-5.013-6.423,42.005,42.005,0,0,1-3.343-7.443,44.457,44.457,0,0,1-1.89-8.026,1.218,1.218,0,0,1,.009-.375l.043-.225a40.368,40.368,0,0,0,.948-8.534,38.052,38.052,0,0,0-.9-8.5,43.432,43.432,0,0,0-6.8-15.5l.22.232a58.593,58.593,0,0,0-11.5-8.568,42.724,42.724,0,0,0-13.6-4.7,45.86,45.86,0,0,0-28.275,5.554,56.66,56.66,0,0,0-6.227,3.871c-.993.709-1.966,1.443-2.9,2.207-.44.363-.992.815-1.286,1.121-.373.4-.755.871-1.123,1.326a39.994,39.994,0,0,0-6.382,12.717,51.067,51.067,0,0,0-2.117,14.055,65.3,65.3,0,0,0,1.709,14.185,2.653,2.653,0,0,1,.018,1.01c-.455,2.507-.944,4.96-1.5,7.438a69.086,69.086,0,0,1-2.011,7.466c-.378,1.146-1.278,3.148-1.076,2.732-.084-.143.047.233.753.726a10.807,10.807,0,0,0,5.324,1.571l.191-.007a2.579,2.579,0,0,1,2.172,1.056c2.81,3.89,5.781,7.726,8.73,11.525a108.413,108.413,0,0,0,9.333,10.717c.413.376.825.729,1.228,1.037.191.135.394.279.56.378l.223.124c.067.036.051.011.077.04.079.044-.175-.043-.244.028-.061.037.2-.041.282-.055a7.811,7.811,0,0,0,.776-.206c.528-.147,1.074-.34,1.615-.523a43.716,43.716,0,0,0,6.361-2.942,29.08,29.08,0,0,0,10.467-9.107l.065-.1a.767.767,0,0,1,1.059-.23l.083.062a29.289,29.289,0,0,1,3.339,3.32,13.258,13.258,0,0,1,1.386,1.919,6.256,6.256,0,0,1,.883,2.24.249.249,0,0,1-.484.112l0-.015a9.146,9.146,0,0,0-2.593-3.489,28.011,28.011,0,0,0-3.5-2.769l1.207-.269a29.258,29.258,0,0,1-10.293,10.947,46.992,46.992,0,0,1-6.615,3.689c-.595.251-1.174.517-1.808.732-.3.116-.626.224-.97.32a3.925,3.925,0,0,1-.6.153,3.407,3.407,0,0,1-1.148-.015,6.82,6.82,0,0,1-2.386-1.069c-.59-.395-1.124-.8-1.637-1.217a95.039,95.039,0,0,1-10.376-10.758c-3.217-3.723-6.22-7.564-9.22-11.473l2.362,1.048a13.808,13.808,0,0,1-4.665-.506,13.638,13.638,0,0,1-4.187-1.871,7.757,7.757,0,0,1-2.018-1.943,5.352,5.352,0,0,1-1.035-3.361,4.933,4.933,0,0,1,.351-1.717l.282-.708.152-.34c.207-.436.4-.991.593-1.521a134.016,134.016,0,0,0,3.657-14.09l.018,1.009a69.951,69.951,0,0,1-1.406-15.387,49.847,49.847,0,0,1,3.015-15.187c.438-1.217,1-2.391,1.512-3.573.622-1.138,1.143-2.32,1.847-3.408a38.046,38.046,0,0,1,4.559-6.259c.447-.481.88-.95,1.385-1.427a19.394,19.394,0,0,1,1.6-1.231c1.04-.74,2.1-1.434,3.175-2.1,2.149-1.337,4.391-2.5,6.651-3.608a57.267,57.267,0,0,1,29.328-6,45.989,45.989,0,0,1,14.817,3.8,51.553,51.553,0,0,1,12.923,8.344,1.7,1.7,0,0,1,.2.21l.017.022a37.67,37.67,0,0,1,4.9,8.267,41.113,41.113,0,0,1,2.824,9.063,37.317,37.317,0,0,1,.73,9.472,42.468,42.468,0,0,1-1.473,9.355l.052-.6a41.47,41.47,0,0,0,1.251,7.419,42.342,42.342,0,0,0,2.515,7.184,31.1,31.1,0,0,0,4.013,6.465,26.159,26.159,0,0,0,5.739,5.134l.015.011a.249.249,0,0,1-.246.431Z" transform="translate(291.455 0)" fill="#fbd206"/>
        <path id="Path_45621" data-name="Path 45621" d="M451.711,179.758a2.485,2.485,0,0,1-2.145-1.224L442.7,166.887a2.489,2.489,0,1,1,4.286-2.53L453.852,176a2.488,2.488,0,0,1-2.141,3.754Z" transform="translate(293.951 27.697)" fill="#fbd206"/>
        <path id="Path_45622" data-name="Path 45622" d="M444.968,179.578a1.245,1.245,0,0,1-.713-2.266c3.611-2.518,35.486-24.553,42.265-24.281a1.245,1.245,0,0,1,1.187,1.3,1.262,1.262,0,0,1-1.3,1.187c-.03,0-.063,0-.1,0-4.7,0-27.354,14.576-40.633,23.837a1.242,1.242,0,0,1-.711.225Z" transform="translate(295.331 17.542)" fill="#fbd206"/>
        <path id="Path_45623" data-name="Path 45623" d="M566.944,159.9a8.089,8.089,0,0,1,1.692-5.144,3.943,3.943,0,0,1,2.748-1.364l.8-.013c.256.029.5.1.746.157a5.086,5.086,0,0,1,1.4.491,12.63,12.63,0,0,1,2.436,1.467c.688.608,1.414,1.16,2.074,1.825a17.212,17.212,0,0,1,3.22,4.592,17.836,17.836,0,0,1,1.262,10.913,13.49,13.49,0,0,1-2.085,5.115,5.511,5.511,0,0,1-2.128,1.878,2.17,2.17,0,0,1-2.611-.5,1.962,1.962,0,0,0,2.275-.1,4.932,4.932,0,0,0,1.416-1.905,14.464,14.464,0,0,0,1.212-4.773,18.706,18.706,0,0,0-1.595-9.571,15.763,15.763,0,0,0-2.672-4.028c-.532-.615-1.169-1.168-1.75-1.761a15.706,15.706,0,0,0-1.926-1.419,3.266,3.266,0,0,0-3.985-.121A9.1,9.1,0,0,0,566.944,159.9Zm-30.23,45.973a37.921,37.921,0,0,0,5.646-1.064,13.047,13.047,0,0,0,2.457-.961c.845-.384,1.633-.924,2.665-1.447a5.426,5.426,0,0,1-1.48,2.986,6.421,6.421,0,0,1-2.929,1.8,7.212,7.212,0,0,1-3.394.161,5.7,5.7,0,0,1-2.965-1.479Zm-7.682-35.294a6.782,6.782,0,0,1,1.561-4.694,9.618,9.618,0,0,1,4.143-2.99,12.937,12.937,0,0,1,4.924-.788,22.849,22.849,0,0,1,2.422.312,17.988,17.988,0,0,1,2.314.765,20.2,20.2,0,0,1-2.346.457c-.763.139-1.508.305-2.247.4a27.137,27.137,0,0,0-4.174,1.172,12.646,12.646,0,0,0-6.6,5.363Zm10.438,10.636a2.8,2.8,0,1,0-2.7-2.8A2.8,2.8,0,0,0,539.469,181.213Zm56.443,70.964a32.617,32.617,0,0,0-9.552-5.528,50.66,50.66,0,0,0-10.609-2.713,82.394,82.394,0,0,0-11.011-.906l-5.588.026c-1.867.085-3.74.178-5.647.163,1.815-.529,3.663-.95,5.518-1.378,1.872-.284,3.757-.571,5.654-.752a50.39,50.39,0,0,1,11.458.39,37.471,37.471,0,0,1,11.012,3.4A22.464,22.464,0,0,1,595.912,252.178Zm-139.657,102.1a55.3,55.3,0,0,1,4.217-10.184,62.082,62.082,0,0,1,5.943-9.339,43.032,43.032,0,0,1,7.793-7.964,22.972,22.972,0,0,1,10.012-4.726,35.114,35.114,0,0,0-8.751,6.2,65.435,65.435,0,0,0-7.085,8.006C463.967,341.925,460.189,348.079,456.255,354.274ZM544.4,392.54a8.755,8.755,0,0,0,3.429.174,15.271,15.271,0,0,0,3.331-.756l1.589-.628c.522-.223,1.01-.532,1.514-.793a21.7,21.7,0,0,0,2.869-1.846,49.64,49.64,0,0,0,9.635-9.675c1.333-1.867,2.687-3.719,3.961-5.625,1.195-1.965,2.479-3.869,3.6-5.878l3.337-6.046,3.039-6.214c4.018-8.351,7.947-16.793,12.1-25.1l6.218-12.47c2.154-4.116,4.231-8.268,6.451-12.348-1.715,4.331-3.574,8.59-5.356,12.886l-5.589,12.763c-3.747,8.5-7.6,16.928-11.579,25.338a112.533,112.533,0,0,1-14.7,23.889A50.366,50.366,0,0,1,557.8,389.7a22.659,22.659,0,0,1-3.129,1.676c-.547.23-1.071.5-1.632.694l-1.7.518a11.722,11.722,0,0,1-6.948-.046Zm-2.3-56.093a1.225,1.225,0,0,1-.438-.08l-11.139-4.183a1.245,1.245,0,1,1,.875-2.33l11.139,4.183a1.245,1.245,0,0,1-.438,2.41Zm-91.483-3.1a17.692,17.692,0,0,1-8.282.547,23.084,23.084,0,0,1-7.925-3.022,34.146,34.146,0,0,1-6.613-5.255,40.138,40.138,0,0,1-5.25-6.692l2.531,1.051a55.341,55.341,0,0,1-15.743,1.7,26.674,26.674,0,0,1-7.976-1.354,7.818,7.818,0,0,1-3.517-2.425,5.873,5.873,0,0,1-1.079-1.948,5.2,5.2,0,0,1,0-2.283,8.158,8.158,0,0,1,2.108-3.634A22.3,22.3,0,0,1,401.8,307.3a59.479,59.479,0,0,1,6.457-4.522,111.463,111.463,0,0,1,13.819-7.266c2.4-.984,4.651-2.133,7.411-2.98a29.872,29.872,0,0,1,8.288-1.294,30.191,30.191,0,0,1,8.218,1.1,40.219,40.219,0,0,1,7.674,2.769,57.186,57.186,0,0,1,13.183,8.906A63.281,63.281,0,0,1,477.27,315.7a.25.25,0,0,1-.368.332l-.012-.01a94.171,94.171,0,0,0-25.221-16.37,36.165,36.165,0,0,0-6.9-2.156,27.936,27.936,0,0,0-7.014-.963,25.747,25.747,0,0,0-6.946.731c-2.2.531-4.624,1.576-7.02,2.423-4.76,1.816-9.554,3.542-14.2,5.576a54.474,54.474,0,0,0-6.665,3.549,20,20,0,0,0-2.873,2.316A6.555,6.555,0,0,0,398.231,314a2.914,2.914,0,0,0,.836,2.886,5.269,5.269,0,0,0,2.871,1.664,21.024,21.024,0,0,0,7.287.192,144.584,144.584,0,0,0,14.669-3.074,2.355,2.355,0,0,1,2.531,1.051,42.892,42.892,0,0,0,4.461,6.026,37,37,0,0,0,5.481,5.2,24.6,24.6,0,0,0,6.554,3.643,21.418,21.418,0,0,0,7.607,1.264.252.252,0,0,1,.258.246.258.258,0,0,1-.173.245ZM492.7,508.367l5.589,13.654a.35.35,0,0,1-.443.463l-.021-.008a33.951,33.951,0,0,0-8.737-2.13,28.252,28.252,0,0,0-8.884.663,34.252,34.252,0,0,0-15.228,9.046,68.805,68.805,0,0,0-10.906,14.322,97.6,97.6,0,0,0-7.716,16.324l0,.013a1.01,1.01,0,0,1-1.893.023L433.6,532.7l-10.668-28.1,1.981-.478,3.818,38.863c1.234,12.958,2.577,25.9,3.928,38.85a.408.408,0,0,1-.051.247,23.719,23.719,0,0,1-12.559,9.791,54.832,54.832,0,0,1-15.77,2.948,113.264,113.264,0,0,1-16.031-.372,136.242,136.242,0,0,1-15.873-2.379.631.631,0,0,1-.492-.519l0-.017q-4.573-29.483-7.678-59.156c-2.013-19.786-3.548-39.635-4.062-59.553-.041-4.982-.088-9.966-.016-14.95l.25-7.48.138-3.74.307-3.738.631-7.474L362.585,428a61.855,61.855,0,0,1,1.633-7.369c.318-1.219.6-2.45.949-3.66l1.329-3.555,1.348-3.546c.558-1.137,1.172-2.25,1.756-3.375.606-1.114,1.151-2.261,1.808-3.344l2.19-3.122a45.322,45.322,0,0,1,4.916-5.817,33.171,33.171,0,0,1,2.855-2.528,22.647,22.647,0,0,1,3.021-2.321l3.2-2.073,3.413-1.7a31.527,31.527,0,0,1,3.528-1.419,27.137,27.137,0,0,1,3.627-1.129,44.216,44.216,0,0,1,15.078-1.439l-.816.464a33.822,33.822,0,0,1,3.918-6.442,34.863,34.863,0,0,1,5.332-5.3,42.711,42.711,0,0,1,13.236-6.8,67.294,67.294,0,0,1,14.549-2.78,81.787,81.787,0,0,1,14.767.045.124.124,0,0,1,.112.136.129.129,0,0,1-.138.112,81.406,81.406,0,0,0-14.673.382,66.448,66.448,0,0,0-14.267,3.157,41.814,41.814,0,0,0-12.745,6.8,33.463,33.463,0,0,0-5.019,5.148,32.285,32.285,0,0,0-3.629,6.181.8.8,0,0,1-.771.467l-.045,0a43.5,43.5,0,0,0-27.487,7.863,47.919,47.919,0,0,0-16.734,23.259l-1.275,3.427c-.336,1.173-.6,2.37-.908,3.553a59.582,59.582,0,0,0-1.569,7.171l-1.089,7.291-.6,7.377-.294,3.689-.127,3.706-.228,7.415c-.066,4.947.021,9.9.037,14.853.365,19.818,1.791,39.628,3.619,59.391q2.69,29.652,6.78,59.172l-.494-.535a135.188,135.188,0,0,0,15.674,2.6,100.754,100.754,0,0,0,15.882.537,54.041,54.041,0,0,0,15.544-2.807,22.258,22.258,0,0,0,12.123-9.456l-.051.246c-1.434-12.937-2.876-25.873-4.425-38.8l-4.552-38.783a1.026,1.026,0,0,1,1.976-.491l0,.012L435.693,531.9l10.646,28.113-1.9.035a99.406,99.406,0,0,1,8.011-16.637,68.594,68.594,0,0,1,11.434-14.5,35.643,35.643,0,0,1,16.028-9.111,27.966,27.966,0,0,1,9.276-.445,34.8,34.8,0,0,1,8.9,2.463l-.464.455-5.162-13.821a.124.124,0,0,1,.232-.091Z" transform="translate(211.267 17.892)" fill="#fbd206"/>
        <path id="Path_45624" data-name="Path 45624" d="M397.674,357.06l2.216,20.507L386.177,299.8l14.98,66.348Z" transform="translate(237.488 165.063)" fill="#fbd206"/>
        <path id="Path_45625" data-name="Path 45625" d="M499.5,280.529c-27.67,0-108.635-10.576-112.493-11.083a1.244,1.244,0,0,1,.323-2.467c1.059.137,106.178,13.862,119.266,10.582a1.244,1.244,0,1,1,.607,2.412A36.4,36.4,0,0,1,499.5,280.529Z" transform="translate(237.238 132.067)" fill="#fbd206"/>
        <path id="Path_45626" data-name="Path 45626" d="M740.06,206.456s-89.59-20.894-111.687,86.021c-22.1,106.894-27.731,99.134-27.731,99.134-40.323,58.45-118.965,22.6-136.811,13.395A11.364,11.364,0,0,0,451,406.389c-4.792,4.391-4.05,11.49-4.05,11.49l.341,8.041a9.015,9.015,0,0,0,3.449,6.677c29.075,23.1,80.828,27.892,127.668,25.446,2.687-.141,5.374-.3,8.021-.5,40.484-2.827,75.995-10.768,87.945-16.342,26.869-12.552,34.629-7.178,76.436-117.682C792.635,213.032,740.06,206.456,740.06,206.456Zm17.826,29.456-.02-.02a61.081,61.081,0,0,0-38.5-6.737C706.374,231.34,695,238.939,686.3,248.7a104.136,104.136,0,0,0-11.67,15.961,149.676,149.676,0,0,0-9.184,17.726,288.612,288.612,0,0,0-13.134,37.957c-1.7,6.5-3.489,13.014-5.013,19.59-.8,3.289-1.744,6.537-2.586,9.805s-1.745,6.517-2.667,9.765a323.833,323.833,0,0,1-12.653,38.6c-1.263,3.148-2.787,6.2-4.251,9.264-1.644,3.008-3.148,6.055-5.013,8.923A87.226,87.226,0,0,1,607.6,432.617a44.218,44.218,0,0,1-17.344,11.168,27.055,27.055,0,0,1-4.23,1,26.7,26.7,0,0,1-7.259.14,21.691,21.691,0,0,1-8.582-2.968.2.2,0,0,1-.06-.281.193.193,0,0,1,.241-.08l.02.02a22.03,22.03,0,0,0,8.6,2.005c.341.021.682.04,1.023.04a26.03,26.03,0,0,0,5.714-.7,32.743,32.743,0,0,0,3.85-1.163,43.783,43.783,0,0,0,15.8-11.349,94.06,94.06,0,0,0,11.71-15.981c1.765-2.828,3.269-5.815,4.873-8.723,1.424-3.028,3.068-5.935,4.391-9a275.477,275.477,0,0,0,14.437-37.6c2.005-6.437,3.549-12.993,5.133-19.53,1.524-6.577,2.787-13.174,4.271-19.791a227.209,227.209,0,0,1,11.79-38.92,121.68,121.68,0,0,1,21.154-35.07,66.39,66.39,0,0,1,16.121-13.074,54.863,54.863,0,0,1,19.651-6.717,58.668,58.668,0,0,1,39.18,9.5.2.2,0,0,1,.06.281.219.219,0,0,1-.261.08ZM669.836,595.99a10.417,10.417,0,0,1-1.872,5.749,20.479,20.479,0,0,1-4.15,4.4,50.3,50.3,0,0,1-10.3,6.252,121.461,121.461,0,0,1-22.811,7.771,186.505,186.505,0,0,1-47.847,4.973,258.228,258.228,0,0,1-47.695-5.713,134.464,134.464,0,0,1-23.041-6.853,50.129,50.129,0,0,1-10.675-5.86,20.32,20.32,0,0,1-4.467-4.45,11.407,11.407,0,0,1-2.213-6.268,11.616,11.616,0,0,1,1.952-6.442,20.954,20.954,0,0,1,4.337-4.766,45.358,45.358,0,0,1,10.616-6.405,114.68,114.68,0,0,1,23.182-7.32,228.089,228.089,0,0,1,48-4.793,203.444,203.444,0,0,1,47.862,5.482,123.378,123.378,0,0,1,22.813,7.808,50.181,50.181,0,0,1,10.3,6.268,20.405,20.405,0,0,1,4.145,4.412,10.419,10.419,0,0,1,1.86,5.757Zm-.5,0c-.07-3.971-2.89-7.269-5.967-9.592a42.473,42.473,0,0,0-10.389-5.576,114.818,114.818,0,0,0-22.92-5.868,303.868,303.868,0,0,0-47.2-3.382,260.307,260.307,0,0,0-47.063,4.071A124.319,124.319,0,0,0,513.245,582a47.423,47.423,0,0,0-10.07,5.438c-2.987,2.189-5.559,5.151-5.683,8.553-.1,3.413,2.362,6.651,5.291,9.044a42.228,42.228,0,0,0,10.012,5.984,106.315,106.315,0,0,0,22.692,6.823,175.562,175.562,0,0,0,23.616,2.795c7.914.485,15.845.531,23.755.356a353.106,353.106,0,0,0,47.219-3.89A116.621,116.621,0,0,0,653,611.2a42.384,42.384,0,0,0,10.39-5.59C666.464,603.275,669.278,599.961,669.338,595.99ZM453.627,535.472a29.214,29.214,0,0,1,2.875,7.618c.692,2.628,1.222,5.288,1.677,7.959.889,5.344,1.612,10.713,2.114,16.1.236,2.722.5,5.33.63,8.144a22.056,22.056,0,0,1-1.423,8.331,18.11,18.11,0,0,1-1.983,3.8,31.035,31.035,0,0,1-2.681,3.252,27.844,27.844,0,0,1-6.594,5.146,38.736,38.736,0,0,1-15.768,4.65,37.176,37.176,0,0,1-8.208-.193,24.555,24.555,0,0,1-4.039-.839c-1.311-.4-2.572-.863-3.849-1.326-10.218-3.712-19.51-9.361-29.56-13.218-9.983-3.977-20.285-7.33-30.179-11.838a75.044,75.044,0,0,1-14.307-8.089,33.563,33.563,0,0,1-6.042-5.832,8.716,8.716,0,0,1-1.886-4.3,7.486,7.486,0,0,1,.057-2.441,9.35,9.35,0,0,1,.821-2.238,14.928,14.928,0,0,1,6.508-5.855,25.581,25.581,0,0,1,8.093-2.466,31.17,31.17,0,0,1,4.206-.272c1.4.057,2.838.164,4.116.267,2.629.222,5.311.221,7.986.184,10.726-.215,21.484-1.254,32.211-2.4a.124.124,0,0,1,.139.108.127.127,0,0,1-.1.138,258.629,258.629,0,0,1-32.186,4.1c-2.716.114-5.438.193-8.194.039-1.414-.076-2.667-.127-3.967-.149a28.841,28.841,0,0,0-3.856.359,24.842,24.842,0,0,0-7.275,2.36,12.454,12.454,0,0,0-5.324,4.811,5.394,5.394,0,0,0,.742,6.12,33.844,33.844,0,0,0,5.541,5.416,72.727,72.727,0,0,0,13.7,8.014c9.7,4.581,19.847,8.258,29.732,12.71,4.953,2.188,9.763,4.682,14.574,7.125a104.25,104.25,0,0,0,14.74,6.534,31.186,31.186,0,0,0,7.716,1.96,36.014,36.014,0,0,0,7.947-.169,37.62,37.62,0,0,0,14.858-5.057,27.955,27.955,0,0,0,6.033-4.881,20.37,20.37,0,0,0,4.246-6.336,19.948,19.948,0,0,0,1.407-7.505c-.075-2.578-.3-5.347-.486-8-.417-5.365-.811-10.736-1.5-16.069a58.337,58.337,0,0,0-3.475-15.642l-.006-.013a.124.124,0,0,1,.22-.115Z" transform="translate(185.375 69.585)" fill="#fff"/>
        <path id="Path_45627" data-name="Path 45627" d="M393.089,373.186a71.2,71.2,0,0,0,1.26,8.558,42.565,42.565,0,0,0,2.441,8.129,14.212,14.212,0,0,0,4.763,6.327,7.722,7.722,0,0,0,3.492,1.264,10.837,10.837,0,0,0,3.843-.4,24.992,24.992,0,0,0,7.385-3.6,27.151,27.151,0,0,0,6.172-5.56,26.388,26.388,0,0,0,5.874-15.637,23.622,23.622,0,0,1-4.328,16.811,28.727,28.727,0,0,1-14.467,10.392,13.262,13.262,0,0,1-4.746.411,9.731,9.731,0,0,1-4.552-1.739,15.484,15.484,0,0,1-5.235-7.553A43.293,43.293,0,0,1,393.089,373.186Zm-42.946,15.7a9.311,9.311,0,0,1-.666-5.006,10.912,10.912,0,0,1,1.828-4.873,11.026,11.026,0,0,1,3.855-3.485,11.605,11.605,0,0,1,2.351-.989,13.81,13.81,0,0,1,2.49-.394c-.646.577-1.324.995-1.946,1.488-.595.529-1.25.935-1.779,1.484-.271.266-.549.516-.831.755l-.742.822a12.051,12.051,0,0,0-1.34,1.715,21.6,21.6,0,0,0-3.22,8.483Zm13.439,0a8.545,8.545,0,0,1-.62-4.936,13.337,13.337,0,0,1,1.674-4.763,15.36,15.36,0,0,1,3.234-3.8,18.685,18.685,0,0,1,2.007-1.44,17.091,17.091,0,0,1,2.247-1.032,23.133,23.133,0,0,1-1.442,1.951l-1.4,1.856a43.361,43.361,0,0,0-2.5,3.728A25.215,25.215,0,0,0,363.581,388.89Z" transform="translate(200.504 237.906)" fill="#fbd206"/>
        <path id="Path_45628" data-name="Path 45628" d="M403.312,467.553A72.578,72.578,0,0,1,389.9,461.63c-7.267-4.156-19.959-11.3-23.543-12.692-11.3-4.43-24.709-9.008-29.541-16.425-8.234-12.641,0-19.171,0-19.171C339.416,427.249,355.7,435.051,379,444.01s26.181,13.19,42.108,18.366c8.461,2.762,27.649,1.12,36.682-12.1a17.351,17.351,0,0,0,1.643-2.986l1.655-12.987C473.311,482.792,421.23,473.351,403.312,467.553ZM476.6,430.319a12.484,12.484,0,0,1-8.607-11.776,17.635,17.635,0,0,1,11.352-17.538c12.613-5.311,18.586-20.735,20.834-28.37A63.179,63.179,0,0,1,508.8,354.43c6.279-9.051,16.133-18.1,28.156-11.638a19.794,19.794,0,0,1,8.9,10.716c3.011,8.076,7.838,16.052-5.228,33.82a87.5,87.5,0,0,1-6.855,8.116,43.53,43.53,0,0,0-8.737,14.073C523.218,414.593,505.451,439.5,476.6,430.319Z" transform="translate(184.192 206.081)" fill="#fbd206"/>
        <path id="Path_45629" data-name="Path 45629" d="M663.171,461.595a50.456,50.456,0,0,1-.027,19.506,61.574,61.574,0,0,1-6.627,18.5,86.971,86.971,0,0,1-5.234,8.236,17.382,17.382,0,0,0-1.981,4.144,14.333,14.333,0,0,0-.505,4.577,26.423,26.423,0,0,0,1.675,9.3,9.175,9.175,0,0,0,6.717,6.14,7.842,7.842,0,0,1-4.468-1.863,12.27,12.27,0,0,1-2.939-3.966,25.924,25.924,0,0,1-2.351-9.563,17.564,17.564,0,0,1,.287-5.054,18.121,18.121,0,0,1,1.844-4.74c1.706-2.9,3.394-5.459,4.83-8.345a76.728,76.728,0,0,0,6.671-17.813,71.722,71.722,0,0,0,2.107-19.065Zm40.729-25.8a10,10,0,0,1,3.428.849,14.312,14.312,0,0,1,3.01,1.724,12.018,12.018,0,0,1,2.488,2.5,6.392,6.392,0,0,1,1.351,3.341c-.979-.746-1.856-1.338-2.728-1.971l-2.608-1.879a27.672,27.672,0,0,1-4.941-4.56ZM671.764,273a.292.292,0,0,1-.26.321l-80.025,11.229-78.2,10.627L513.8,381.2l.241,43.933.12,43.933a3.027,3.027,0,0,1-2.587,3.008h-.02L405.261,487.63,298.908,502.809h-.02a2.818,2.818,0,0,1-1.685-.281l-73.128-36.474-73.027-36.674h-.02a2.039,2.039,0,0,1-1.123-1.845l1.123-91.194c.421-30.418.461-60.816.722-91.214a.935.935,0,0,1,.842-.923l59.493-6.3,2.466-.26.541-.06c-.321.762-.642,1.524-.942,2.306l-1.745.181-58.791,5.9c.02,30.137-.181,60.255,0,90.372l.4,89.931,72.366,35.13,72.566,35.491,105.411-15.54,103.726-14.918.12-41.306.261-43.933.541-87.866v-.02a2.1,2.1,0,0,1,1.845-2.085l80.266-9.4,80.326-9.083a.292.292,0,0,1,.32.26Z" transform="translate(0 102.536)" fill="#fbd206"/>
        <path id="Path_45630" data-name="Path 45630" d="M184.721,259.995c.28.722.581,1.444.862,2.146-1.083.1-2.165.221-3.248.321.421-.782.842-1.564,1.243-2.346Zm1.524-.161c1.784-.18,3.569-.361,5.354-.561-.321.782-.642,1.584-.962,2.366-1.123.1-2.246.221-3.368.341C186.927,261.258,186.586,260.556,186.245,259.834Zm7.2.2.521,1.263c-.361.04-.722.08-1.062.12Zm6.878-1.7h.2l-.9,2.427c-1.243.12-2.486.24-3.709.361l-.822-2.225C196.832,258.712,198.576,258.511,200.321,258.33Zm1.283,1,.421,1.183c-.28.04-.581.06-.862.08Zm7.579-1.343-.822,1.925-5.053.482-.7-2.105C204.793,258.23,207,258.13,209.184,257.99Zm.6.2.622,1.524-1.263.12Zm507.663-18.507a.294.294,0,0,1-.341.22L666.3,229.176q-25.265-5.354-50.469-10.848l-61.7,6.917-61.939,6.637L430.231,238.5l-61.979,6.276c-20.673,2.105-41.346,4.03-62.019,5.975l-62.04,5.795q-14.317,1.324-28.613,2.687c-1.544.14-3.088.28-4.632.441l-.642-1.765c1.845-.14,3.69-.3,5.554-.541-1.1-.14-2.226-.26-3.329-.381,1.163-.12,2.306-.26,3.449-.381q13.956-1.564,27.892-3.148l61.919-6.958c20.633-2.346,41.266-4.672,61.919-6.8l61.979-6.517,62-6.156,62-6.136,62.019-5.835h.04a1.87,1.87,0,0,1,.481.04q25.295,5.9,50.53,12.011l50.469,12.211a.29.29,0,0,1,.221.361ZM296.067,432.658v70.3l157.685-20.312V414.552Zm89.59,30.037c-11.63,0-11.61-18.046,0-18.046,11.63,0,11.61,18.046,0,18.046Zm-89.59-112.95v70.3l157.685-20.312V331.639Zm89.59,30.037c-11.63,0-11.61-18.046,0-18.046,11.63,0,11.61,18.046,0,18.046Z" transform="translate(32.597 79.889)" fill="#fff"/>
        <path id="Path_45631" data-name="Path 45631" d="M479.565,277.371l.024,0c3.309-.846,6.645-1.541,9.966-2.315,3.331-.72,6.664-1.427,10.006-2.084a.878.878,0,0,1,.526.058l.047.021c7,3.086,13.943,6.313,20.851,9.6,6.9,3.308,13.769,6.678,20.572,10.187l.055.028a.858.858,0,0,1,.369,1.155.867.867,0,0,1-.685.461c-2.855.258-5.707.553-8.57.753s-5.718.46-8.589.6c2.812-.6,5.638-1.084,8.458-1.614s5.651-.982,8.477-1.462l-.261,1.644c-7.017-3.061-13.967-6.261-20.888-9.522-6.912-3.281-13.795-6.624-20.61-10.108l.571.079c-3.37.5-6.747.941-10.128,1.375-3.389.379-6.765.838-10.167,1.145h0Zm-14.509,26.181h-.025l-16.716,2.679c-5.57.908-11.159,1.667-16.738,2.507-5.583.8-11.157,1.68-16.749,2.423l-16.767,2.277a1.192,1.192,0,0,1-.532-.055c-6.739-2.32-13.5-4.56-20.212-6.971l-20.157-7.129a1.094,1.094,0,0,1-.675-1.392,1.105,1.105,0,0,1,.849-.719c9.026-1.541,18.091-2.852,27.139-4.268s18.12-2.682,27.2-3.912c-8.972,1.856-17.952,3.668-26.954,5.346s-17.99,3.445-27.015,4.99l.175-2.111,20.234,6.907c6.757,2.268,13.454,4.706,20.179,7.065l-.531-.055,16.792-2.095c5.595-.714,11.207-1.294,16.81-1.948,5.608-.617,11.205-1.316,16.822-1.865,5.614-.572,11.222-1.181,16.845-1.677h0Zm-65.129-35.583c-6.035,1.753-12.1,3.352-18.155,5.017-1.517.4-3.021.856-4.551,1.2l-4.6.962-9.19,1.987-4.595.994a12.6,12.6,0,0,1-5.124.307,9.1,9.1,0,0,1-4.842-2.355,6.637,6.637,0,0,1-1.9-5.241,14.911,14.911,0,0,1,4.444-9.067,18.36,18.36,0,0,1,4.015-3.026,22.047,22.047,0,0,1,2.233-1.083q1.05-.447,2.071-.956a30.994,30.994,0,0,0,13.332-11.817,23.57,23.57,0,0,0,2.927-8.393c.392-2.905.4-6.132.554-9.243l1.534-37.577.028.316a4.5,4.5,0,0,0-.627-1.157,7.521,7.521,0,0,0-1.043-1.156,17.391,17.391,0,0,0-2.723-1.838,24.531,24.531,0,0,0-6.55-2.34,50.36,50.36,0,0,0-7.14-.864c-2.415-.135-4.841-.119-7.28-.079,2.41-.33,4.829-.695,7.28-.8a51.583,51.583,0,0,1,7.4.111,26.543,26.543,0,0,1,7.373,1.8,11.235,11.235,0,0,1,3.337,2.169,8.229,8.229,0,0,1,2.41,3.626.718.718,0,0,1,.031.239l0,.078-1.534,37.579c-.165,3.146-.143,6.206-.581,9.518a26.068,26.068,0,0,1-3.232,9.26,33.457,33.457,0,0,1-14.382,12.8q-1.083.54-2.2,1.014a19.509,19.509,0,0,0-1.994.966,15.875,15.875,0,0,0-3.47,2.613,12.53,12.53,0,0,0-3.722,7.454,4.108,4.108,0,0,0,1.166,3.327,6.667,6.667,0,0,0,3.5,1.669,10.107,10.107,0,0,0,4.192-.285l4.6-.994,9.19-1.987,4.588-1.025c1.534-.32,3.092-.528,4.639-.789C387.522,269.916,393.708,268.865,399.928,267.969Z" transform="translate(198.054 46.33)" fill="#fbd206"/>
        <path id="Path_45632" data-name="Path 45632" d="M382.358,173.02c2.667,3.028,5.133,6.236,8.4,9.344l-34.95,43.291c-.6-41.205-29.255-43.291-29.255-43.291l47.1-17.926a54.749,54.749,0,0,1,4.672,4.17C379.731,170.033,381.035,171.517,382.358,173.02Z" transform="translate(177.559 29.01)" fill="#fbd206"/>
        <path id="Path_45633" data-name="Path 45633" d="M405.761,188.657H390.822a18.748,18.748,0,0,0-1.784-6.4,23.82,23.82,0,0,0-3.589-5.575,19.975,19.975,0,0,0-5.173-4.311,12.015,12.015,0,0,0-6.557-1.644l6.657-12.553Zm-49.882,43.3a37.067,37.067,0,0,1-12.269-6.5,44.841,44.841,0,0,1-9.633-10.233,26,26,0,0,1-1.865-3.006c-.555-1.042-1.2-2.036-1.675-3.115a42.657,42.657,0,0,1-2.421-6.627,38.929,38.929,0,0,1-1.4-13.818,108.216,108.216,0,0,0,4.357,12.782,61.138,61.138,0,0,0,6.313,11.518,68.537,68.537,0,0,0,8.39,10.162,92.842,92.842,0,0,0,10.206,8.841Z" transform="translate(177.497 22.717)" fill="#fbd206"/>
        <path id="Path_45634" data-name="Path 45634" d="M387.474,199.273c14.412,0,14.436-22.4,0-22.4C373.062,176.875,373.039,199.273,387.474,199.273Zm-104.6,91.4,36.848-6.383c12.551-2.136,25.261-4.329,37.94-5.97l.041-.005a.9.9,0,0,1,.545.1l14.742,7.948c4.9,2.676,9.851,5.256,14.8,7.843,4.928,2.623,9.933,5.095,14.907,7.628s10,4.959,15,7.444a.673.673,0,0,1-.177,1.265l-.025,0c-12.578,2.274-25.164,4.494-37.772,6.581-12.6,2.124-25.2,4.256-37.835,6.188l-.012,0a1.286,1.286,0,0,1-.806-.139c-9.956-5.343-19.817-10.925-29.575-16.4C301.805,301.256,292.269,295.852,282.877,290.675Zm.246.042c10.169,5.271,20.193,10.314,30.064,15.236,9.8,4.971,19.5,9.836,29.107,14.94l-.818-.137c12.6-2.12,25.237-4.04,37.871-5.967,12.627-1.964,25.276-3.8,37.933-5.573l-.2,1.27c-4.931-2.616-9.828-5.3-14.787-7.861s-9.88-5.2-14.882-7.677c-4.984-2.513-9.964-5.035-14.993-7.461l-15.046-7.356.584.1c-12.257,2.166-24.484,3.781-36.87,5.452l-18.777,2.454Z" transform="translate(133.656 41.51)" fill="#fbd206"/>
        <path id="Path_45635" data-name="Path 45635" d="M406.942,240.713a81.8,81.8,0,0,1,8.188-1.39c2.606.415,5.224.746,7.836,1.123l15.679,2.2,15.678,2.2,7.839,1.1c2.508,1.115,5.019,2.209,7.494,3.563-2.752.622-5.467.983-8.185,1.366l-7.839-1.1-15.679-2.2-15.678-2.2c-2.615-.355-5.223-.757-7.843-1.074A81.833,81.833,0,0,1,406.942,240.713Zm-203.7,6.055,36.848-6.383c12.551-2.136,25.261-4.329,37.94-5.97l.041-.005a.9.9,0,0,1,.545.1l14.742,7.948c4.9,2.676,9.851,5.256,14.8,7.843,4.928,2.623,9.934,5.095,14.907,7.627s10,4.959,15,7.444a.674.674,0,0,1-.177,1.266l-.025,0c-12.578,2.274-25.164,4.494-37.772,6.581-12.6,2.124-25.2,4.256-37.835,6.188l-.012,0a1.287,1.287,0,0,1-.806-.139c-9.956-5.343-19.816-10.925-29.575-16.4C222.173,257.349,212.637,251.944,203.245,246.768Zm.246.042c10.169,5.271,20.193,10.314,30.064,15.236,9.8,4.971,19.5,9.836,29.107,14.94l-.818-.137c12.6-2.12,25.237-4.04,37.87-5.967,12.628-1.964,25.276-3.8,37.934-5.573l-.2,1.27c-4.931-2.616-9.828-5.3-14.787-7.861s-9.88-5.2-14.882-7.677c-4.984-2.513-9.964-5.035-14.993-7.461l-15.046-7.356.585.1c-12.258,2.166-24.484,3.781-36.87,5.452l-18.777,2.454Z" transform="translate(53.615 99.334)" fill="#fbd206"/>
        <path id="Path_45636" data-name="Path 45636" d="M248.748,299.341q6.776-1.385,13.576-2.612c4.538-.79,9.063-1.657,13.611-2.382,9.092-1.47,18.169-3.039,27.3-4.231l.048-.006a.937.937,0,0,1,.574.107l14.695,8.042c4.9,2.685,9.848,5.261,14.8,7.828,4.982,2.518,9.964,5.035,15,7.453l15.066,7.32a.979.979,0,0,1-.255,1.844l-.039.007-18.889,3.269c-6.3,1.079-12.6,2.145-18.909,3.144-6.314.983-12.626,1.968-18.955,2.856s-12.646,1.846-18.987,2.657l-.044.005a.705.705,0,0,1-.438-.086q-8.079-4.572-16.074-9.3a.125.125,0,0,1,.117-.22q8.387,3.992,16.677,8.171l-.481-.08c6.276-1.213,12.575-2.29,18.865-3.416s12.593-2.175,18.9-3.217c6.307-1.024,12.624-1.982,18.944-2.928l18.964-2.8-.295,1.85L347.8,314.629c-4.9-2.684-9.845-5.268-14.792-7.853-4.973-2.535-9.951-5.06-14.985-7.477l-15.094-7.264.621.1c-9.074,1.587-18.206,2.8-27.323,4.106-4.557.665-9.135,1.187-13.7,1.787q-6.855.864-13.737,1.557a.125.125,0,0,1-.038-.246ZM556.312,178.929c-1.043,2.948-2.226,5.835-3.409,8.723l-4.712,7.94-9.043,15.279h-3.489l.541-.9,9.4-15.9,4.712-7.96C552.281,183.7,554.226,181.275,556.312,178.929ZM534.3,188.914l-1.123,9.826-1.383,12.131h-3.028l1.424-12.472,1.1-9.825c.822-3.228,1.624-6.457,2.626-9.645C534.155,182.277,534.235,185.586,534.3,188.914Zm-12.412,21.957h1.9l-1.063-7.439-.862-5.975-1.323-9.384c-.9-3.048-1.785-6.116-2.847-9.143-.14,2.627-.181,5.233-.16,7.84v1.744l.381,2.587.983,6.777,1.865,12.993Zm-6.356,0H512.5l-1.885-12.993-1.343-9.364c-.021-3.188-.021-6.376.16-9.585,1.063,3.028,1.945,6.1,2.848,9.144l1.323,9.384,1.283,8.943Z" transform="translate(99.252 43.574)" fill="#fbd206"/>
        <path id="Path_45637" data-name="Path 45637" d="M553.035,188.742v1.764l-.02,7.459v12.312h-3.008V188.742c.441-3.068.882-6.136,1.5-9.224.441,2.226.822,4.451,1.143,6.657C552.794,187.038,552.915,187.88,553.035,188.742Zm9.264,1.544-1.043,9.164-1.223,10.828H557l.843-7.439.421-3.73,1.023-9.164c.782-3.008,1.564-6.015,2.527-8.983C562.1,184.07,562.2,187.178,562.3,190.286Zm-20.934,32.263v10.828c.522-.06,1.043-.1,1.564-.161l4.512-10.126C545.415,222.95,543.39,222.79,541.365,222.549Zm6.637.722-4.832,9.925c2.908-.3,5.835-.5,8.743-.622Zm.642-.1,4.131,8.9,3.288-8.6c-2.466-.04-4.953-.161-7.419-.3Zm8.462,1.163-3.389,8.181c2.145-.08,4.271-.12,6.417-.14Zm4.271-.782c-1.043-.02-2.105-.04-3.148-.04l3.068,7.559,2.607-7.559c-.842.02-1.684.02-2.527.04Zm3.87,1.9-2.627,6.918c1.685.02,3.369.04,5.053.1-.842-2.346-1.644-4.672-2.426-7.018Zm1.4-1.985c.862,2.386,1.685,4.772,2.486,7.158,1.083-2.466,2.146-4.913,3.249-7.359-1.905.1-3.81.16-5.735.2Zm6.857.922c-1,2.727-2.045,5.434-3.088,8.161,2.306.08,4.611.221,6.9.421-1.324-2.848-2.567-5.695-3.81-8.582Zm-32.143-14.116v12.271a171.3,171.3,0,0,1,20.011-1c1.223,0,2.447.02,3.669.04a.993.993,0,0,1,.541,0c2.567.04,5.113.141,7.66.281a.732.732,0,0,1,.2-.04.807.807,0,0,1,.3.06c2.547.16,5.093.361,7.639.661V210.278Zm4.672,8.963a3.01,3.01,0,1,1,2.9-3.008,3.009,3.009,0,0,1-2.9,3.008Zm10.828,0a3.01,3.01,0,1,1,2.9-3.008,3.009,3.009,0,0,1-2.9,3.008Zm10.467-.361a3.01,3.01,0,1,1,2.9-3.008,3.009,3.009,0,0,1-2.9,3.008Zm10.286.361a3.01,3.01,0,1,1,2.9-3.008,3.009,3.009,0,0,1-2.9,3.008Zm-3.228,3.91c1.122,3.268,2.205,6.537,3.208,9.846,1.263.12,2.526.22,3.789.381V222.55c-2.326.26-4.652.461-7,.6Zm-26.388.12L543.17,233.2c2.908-.3,5.835-.5,8.743-.622Zm.642-.1,4.131,8.9,3.288-8.6c-2.466-.041-4.953-.161-7.419-.3Zm8.462,1.163-3.389,8.181c2.145-.08,4.271-.12,6.417-.14Zm4.271-.782c-1.043-.02-2.105-.04-3.148-.04l3.068,7.559,2.607-7.559c-.843.019-1.685.019-2.527.039Zm3.87,1.9-2.627,6.918c1.685.02,3.369.04,5.053.1-.842-2.347-1.645-4.672-2.426-7.019Zm1.4-1.985c.862,2.386,1.685,4.772,2.486,7.158,1.083-2.466,2.146-4.913,3.249-7.359-1.906.1-3.81.16-5.735.2Zm6.857.922c-1,2.727-2.045,5.434-3.088,8.161,2.306.08,4.611.221,6.9.421-1.324-2.848-2.567-5.7-3.81-8.582ZM548,223.272,543.17,233.2c2.908-.3,5.835-.5,8.743-.622Zm.642-.1,4.131,8.9,3.288-8.6c-2.467-.041-4.953-.161-7.419-.3Zm8.462,1.163-3.389,8.181c2.145-.08,4.271-.12,6.417-.14Zm4.271-.782c-1.043-.02-2.105-.04-3.148-.04l3.068,7.559,2.607-7.559c-.843.019-1.685.019-2.527.039Zm3.87,1.9-2.627,6.918c1.685.02,3.369.04,5.053.1-.842-2.347-1.645-4.673-2.426-7.019Zm1.4-1.985c.862,2.386,1.685,4.772,2.486,7.158,1.083-2.466,2.146-4.913,3.249-7.359-1.906.1-3.811.16-5.735.2Zm6.857.922c-1,2.727-2.045,5.434-3.088,8.161,2.306.08,4.611.221,6.9.421-1.324-2.848-2.567-5.7-3.811-8.583Zm-32.143,20.713v2.486a20.011,20.011,0,0,0,40.023,0v-2.486a200.213,200.213,0,0,1-40.023,0Zm28.192-10.888a.966.966,0,0,1-.882.1,1.218,1.218,0,0,1-.12-.08c-2.386.08-4.792.12-7.179.141a180.548,180.548,0,0,1-20.011-1v11.73a200.223,200.223,0,0,1,40.023,0V233.377c-3.95.461-7.88.7-11.831.842Zm-22.618,8.121a3.01,3.01,0,1,1,2.9-3.008,3.009,3.009,0,0,1-2.9,3.008Zm9.2-.181a3.01,3.01,0,1,1,2.9-3.008,3.009,3.009,0,0,1-2.9,3.008Zm10.106,0a3.01,3.01,0,1,1,2.9-3.008,3.009,3.009,0,0,1-2.9,3.008Zm10.106-.361a3.01,3.01,0,1,1,2.9-3.008,3.009,3.009,0,0,1-2.9,3.008Zm.962-8.823c-1.324-2.847-2.567-5.694-3.81-8.582-1,2.727-2.045,5.434-3.088,8.161,2.305.079,4.611.22,6.9.42Zm-4.933-9.7c-1.905.1-3.81.161-5.735.2.862,2.386,1.685,4.772,2.486,7.158,1.083-2.467,2.145-4.913,3.248-7.36Zm-4.712,9.2c-.842-2.346-1.644-4.672-2.426-7.018l-2.627,6.918c1.684.019,3.368.039,5.053.1Zm-3.769-8.963c-.842.02-1.685.02-2.527.04-1.043-.02-2.105-.04-3.148-.04l3.068,7.559Zm-3.77,8.863-3.028-8.041-3.389,8.181c2.145-.081,4.27-.121,6.416-.141Zm-4.07-8.9c-2.466-.04-4.953-.161-7.419-.3l4.131,8.9Zm-8.061-.2L543.17,233.2c2.908-.3,5.835-.5,8.743-.622Zm25.505,1.123c-1,2.727-2.045,5.434-3.088,8.161,2.306.08,4.611.221,6.9.421-1.324-2.848-2.567-5.7-3.811-8.582Zm-6.857-.922c.862,2.386,1.685,4.772,2.486,7.158,1.083-2.466,2.146-4.913,3.249-7.359-1.906.1-3.811.16-5.735.2Zm-1.4,1.985-2.627,6.918c1.685.02,3.369.04,5.053.1-.842-2.347-1.645-4.672-2.427-7.019Zm-3.87-1.9c-1.043-.02-2.105-.04-3.148-.04l3.068,7.559,2.607-7.559c-.843.019-1.685.019-2.527.039Zm-4.271.782-3.389,8.181c2.145-.08,4.271-.12,6.417-.14Zm-8.462-1.163,4.131,8.9,3.288-8.6c-2.467-.041-4.953-.161-7.419-.3Zm-.642.1L543.17,233.2c2.908-.3,5.835-.5,8.743-.622Zm25.505,1.123c-1,2.727-2.045,5.434-3.088,8.161,2.306.08,4.611.221,6.9.421-1.324-2.848-2.567-5.695-3.81-8.582Zm-6.857-.922c.862,2.386,1.685,4.772,2.486,7.158,1.083-2.466,2.146-4.913,3.249-7.359-1.906.1-3.811.16-5.735.2Zm-1.4,1.985-2.627,6.918c1.685.02,3.369.04,5.053.1-.842-2.346-1.645-4.672-2.426-7.018Zm-3.87-1.9c-1.043-.02-2.105-.04-3.148-.04l3.068,7.559,2.607-7.559c-.843.02-1.685.02-2.527.04Zm-4.271.782-3.389,8.181c2.145-.08,4.271-.12,6.417-.14Zm-8.462-1.163,4.131,8.9,3.288-8.6c-2.467-.041-4.953-.161-7.419-.3Zm-.642.1L543.17,233.2c2.908-.3,5.835-.5,8.743-.622ZM215.646,552.231c.372,4.951.562,9.9.824,14.854s.4,9.9.575,14.854c.113,4.951.3,9.9.35,14.854s.19,9.9.191,14.854l-1.427-1.871,13.953,3.765-1-.015,13.9-3.3-1.467,1.865c.121-9.19.289-18.379.58-27.569.175-4.595.3-9.19.565-13.784.24-4.595.429-9.19.775-13.784.346,4.594.535,9.189.775,13.784.26,4.595.39,9.19.565,13.784.291,9.19.459,18.379.58,27.569a1.888,1.888,0,0,1-1.431,1.857l-.036.008L230.056,617.4a1.987,1.987,0,0,1-1-.015l-13.924-3.87a1.953,1.953,0,0,1-1.428-1.872c0-4.951.128-9.9.191-14.854s.237-9.9.35-14.854c.179-4.952.3-9.9.575-14.854S215.275,557.182,215.646,552.231Z" transform="translate(64.13 44.167)" fill="#fbd206"/>
        <path id="Path_45638" data-name="Path 45638" d="M293.438,403.042c.983,9.789,1.212,19.579,1.257,29.368-.03,9.79-.25,19.58-1.23,29.37-.989-9.789-1.217-19.579-1.257-29.369C292.244,422.621,292.464,412.831,293.438,403.042ZM152.111,332.417c.393,4.951.585,9.9.865,14.854.253,4.951.426,9.9.577,14.854.287,9.9.484,19.806.515,29.708l-1.44-1.887c4.655,1.244,9.31,2.483,13.944,3.8l-.986-.014c4.637-1.089,9.264-2.222,13.917-3.244l-1.409,1.792c.08-3.973.1-7.945.23-11.918s.189-7.945.363-11.918c.139-3.973.3-7.945.538-11.918.213-3.973.4-7.945.714-11.918.314,3.973.5,7.945.714,11.918.233,3.973.4,7.945.538,11.918.173,3.973.24,7.945.363,11.918s.15,7.945.23,11.918a1.8,1.8,0,0,1-1.333,1.773l-.076.02c-4.6,1.224-9.235,2.338-13.856,3.495a1.905,1.905,0,0,1-.945,0l-.042-.011c-4.659-1.226-9.3-2.532-13.935-3.833l-.017,0a1.952,1.952,0,0,1-1.423-1.883c.031-9.9.228-19.805.515-29.708.151-4.951.324-9.9.577-14.854C151.527,342.32,151.718,337.368,152.111,332.417Z" transform="translate(0.251 197.853)" fill="#fbd206"/>
        <path id="Path_45639" data-name="Path 45639" d="M158.686,334.659c.983,9.789,1.212,19.579,1.257,29.368-.031,9.79-.251,19.58-1.231,29.37-.989-9.789-1.217-19.579-1.257-29.368C157.491,354.239,157.712,344.449,158.686,334.659Zm317.575,40.428c.335,4.4.524,8.8.754,13.205.252,4.4.393,8.8.556,13.205.294,8.8.469,17.607.585,26.411l-1.045-1.694,12.584,6.216-1.416-.141c4.914-1.4,9.864-2.667,14.794-4.007l-1.429,1.873c0-4.858.121-9.715.188-14.573s.234-9.715.349-14.573c.175-4.857.3-9.715.576-14.572s.455-9.715.829-14.573c.375,4.857.565,9.715.829,14.573s.4,9.715.576,14.572c.115,4.858.3,9.715.349,14.573s.187,9.715.188,14.573a1.95,1.95,0,0,1-1.429,1.873c-4.925,1.359-9.831,2.789-14.771,4.091l-.031.008a1.952,1.952,0,0,1-1.385-.149l-12.5-6.378-.033-.017a1.858,1.858,0,0,1-1.012-1.677c.117-8.8.291-17.607.585-26.411.164-4.4.3-8.8.556-13.205C475.738,383.891,475.926,379.49,476.261,375.088Z" transform="translate(7.589 200.106)" fill="#fbd206"/>
        <path id="Path_45640" data-name="Path 45640" d="M463.068,526.877c.792,10.141.83,20.269.683,30.393-.221,10.123-.632,20.242-1.8,30.347-.8-10.141-.835-20.269-.683-30.393C461.492,547.1,461.9,536.982,463.068,526.877ZM611.1,425.93a16.969,16.969,0,0,1-5.767-1.369A38.423,38.423,0,0,1,591.054,414.5a41.664,41.664,0,0,1,5.3,2.475c1.708.891,3.345,1.878,4.992,2.837,1.619,1.01,3.253,1.978,4.853,3.018C607.824,423.846,609.4,424.91,611.1,425.93ZM201.18,190.444a38.664,38.664,0,0,0,5.775,7.319,13.5,13.5,0,0,1-6.477-1.4,9.173,9.173,0,0,1-3.549-3.248,9.375,9.375,0,0,1-1.363-4.632,13.33,13.33,0,0,1,1.523-6.437,37.919,37.919,0,0,0,4.091,8.4Zm7.319.883a13.211,13.211,0,0,1-1.544,6.437,37.9,37.9,0,0,0-4.09-8.4,39.287,39.287,0,0,0-5.775-7.319,13.225,13.225,0,0,1,6.457,1.424,9.34,9.34,0,0,1,3.569,3.229A9.123,9.123,0,0,1,208.5,191.327Zm-12.673,18.247a37.979,37.979,0,0,0,5.8,7.319,13.445,13.445,0,0,1-6.477-1.4,9.243,9.243,0,0,1-3.569-3.248,9.379,9.379,0,0,1-1.363-4.632,13.331,13.331,0,0,1,1.524-6.436,38.819,38.819,0,0,0,4.091,8.4Zm7.319.882a13.378,13.378,0,0,1-1.523,6.437,39.817,39.817,0,0,0-4.09-8.4,39.417,39.417,0,0,0-5.8-7.319,13.166,13.166,0,0,1,6.457,1.424,8.957,8.957,0,0,1,4.953,7.86Zm-13.354,20.172a38.616,38.616,0,0,0,5.795,7.319,13.194,13.194,0,0,1-6.477-1.424,9.041,9.041,0,0,1-3.569-3.228,9.375,9.375,0,0,1-1.364-4.632,13.282,13.282,0,0,1,1.524-6.437,38.815,38.815,0,0,0,4.091,8.4Z" transform="translate(34.445 46.696)" fill="#fbd206"/>
        <path id="Path_45641" data-name="Path 45641" d="M198.587,211.347a13.4,13.4,0,0,1-1.524,6.457,38.862,38.862,0,0,0-4.11-8.4,39.3,39.3,0,0,0-5.775-7.319,13.165,13.165,0,0,1,6.457,1.424,9.334,9.334,0,0,1,3.569,3.229A9.109,9.109,0,0,1,198.587,211.347ZM188.32,232.9a38.891,38.891,0,0,0,5.795,7.339,13.2,13.2,0,0,1-6.477-1.424,9.053,9.053,0,0,1-4.933-7.86,13.514,13.514,0,0,1,1.524-6.437A39.607,39.607,0,0,0,188.32,232.9Z" transform="translate(32.968 66.839)" fill="#fbd206"/>
        <path id="Path_45642" data-name="Path 45642" d="M194.874,249.4a13.167,13.167,0,0,1-1.524,6.457,43.193,43.193,0,0,0-9.885-15.72,13.166,13.166,0,0,1,6.457,1.424,9.044,9.044,0,0,1,3.569,3.228,8.86,8.86,0,0,1,1.383,4.611Zm-8.2,12.819a13.35,13.35,0,0,1,6.461,1.421,9.236,9.236,0,0,1,3.571,3.237,9.089,9.089,0,0,1,1.382,4.613,13.253,13.253,0,0,1-1.535,6.446,13.253,13.253,0,0,1-6.475-1.412,9.089,9.089,0,0,1-3.557-3.246,9.234,9.234,0,0,1-1.368-4.622A13.343,13.343,0,0,1,186.675,262.223Zm28.631-70.406a60.81,60.81,0,0,0-7.74,4.371,15.48,15.48,0,0,1,2.306-5.975,8.551,8.551,0,0,1,3.229-2.888,7.765,7.765,0,0,1,4.09-.762,24.316,24.316,0,0,1,6.056,1.4Z" transform="translate(33.733 51.219)" fill="#fbd206"/>
        <path id="Path_45643" data-name="Path 45643" d="M212.776,193.906a8.6,8.6,0,0,1-8.582,4.291,11.507,11.507,0,0,1-5.975-2.727,20.638,20.638,0,0,0,4.451-.9,32.68,32.68,0,0,0,4.191-1.664,25.016,25.016,0,0,0,3.87-2.366,12.692,12.692,0,0,0,3.168-3.288,9.233,9.233,0,0,1-1.123,6.657Zm-9.945,15.239c-3.309,1.2-6.677,2.266-10.066,3.689a18.511,18.511,0,0,1,4.05-5.734,12.578,12.578,0,0,1,4.331-2.667,11.356,11.356,0,0,1,4.772-.642,43.753,43.753,0,0,1,6.618,1.183,58.783,58.783,0,0,1-9.705,4.171Z" transform="translate(43.081 51.937)" fill="#fbd206"/>
        <path id="Path_45644" data-name="Path 45644" d="M212.16,203.307a11.555,11.555,0,0,1-11.048,4.03,12.439,12.439,0,0,1-6.457-3.389,23.582,23.582,0,0,0,5.454-.421,32.419,32.419,0,0,0,5.273-1.383,24.984,24.984,0,0,0,4.973-2.346,13.354,13.354,0,0,0,4.071-3.71A9.442,9.442,0,0,1,212.16,203.307Zm-11.209,12.552c-3.308,1.2-6.677,2.266-10.066,3.69a18.214,18.214,0,0,1,4.07-5.735,12.332,12.332,0,0,1,4.311-2.667,11.356,11.356,0,0,1,4.772-.642,43.747,43.747,0,0,1,6.617,1.183,58.723,58.723,0,0,1-9.7,4.17Z" transform="translate(41.191 60.823)" fill="#fbd206"/>
        <path id="Path_45645" data-name="Path 45645" d="M210.129,211.087a11.553,11.553,0,0,1-11.048,4.03,12.441,12.441,0,0,1-6.457-3.388,23.584,23.584,0,0,0,5.454-.421,32.384,32.384,0,0,0,5.273-1.384,24.968,24.968,0,0,0,4.973-2.346,13.344,13.344,0,0,0,4.071-3.709A9.439,9.439,0,0,1,210.129,211.087Zm-10.607,16.061c-3.348,1.524-6.857,2.767-10.366,4.331a19.723,19.723,0,0,1,4.07-5.935,14.538,14.538,0,0,1,4.271-2.987,12.831,12.831,0,0,1,4.632-1.083c1.724-.161,3.488.18,6.6-.241a16.742,16.742,0,0,1-4.311,3.449,41.316,41.316,0,0,1-4.893,2.466Z" transform="translate(39.452 68.643)" fill="#fbd206"/>
        <path id="Path_45646" data-name="Path 45646" d="M209.347,251.985a10.813,10.813,0,0,1-.14,2.125,10.559,10.559,0,0,1-1.544,3.629,12.144,12.144,0,0,1-5.253,4.391,12.332,12.332,0,0,1-6.317.983,12.63,12.63,0,0,1-6.9-3.068,23.7,23.7,0,0,0,5.715-.7,30.152,30.152,0,0,0,5.474-1.8,20.644,20.644,0,0,0,4.993-3.027,9.837,9.837,0,0,0,3.389-4.712,8.586,8.586,0,0,1,.381,1.083A9.812,9.812,0,0,1,209.347,251.985Zm-20.232,30.9a19.515,19.515,0,0,1,1.429-6.424,10.482,10.482,0,0,1,2.418-3.581,7.959,7.959,0,0,1,3.3-1.808,20.083,20.083,0,0,0,5.569-1.922,8.608,8.608,0,0,1,.83.7,9.083,9.083,0,0,1,.656.837,8.028,8.028,0,0,1,.789,1.855,8.49,8.49,0,0,1,.072,3.708,9.9,9.9,0,0,1-3.072,5.479,9.648,9.648,0,0,1-5.173,2.463,10.836,10.836,0,0,1-6.82-1.31Zm19.39-98.152a44.5,44.5,0,0,0-2.366,9.925,13.914,13.914,0,0,1-2.807-6.336,11.042,11.042,0,0,1,.421-5.234,10.673,10.673,0,0,1,2.888-4.391,14.064,14.064,0,0,1,6.115-3.249,45.074,45.074,0,0,0-4.251,9.284Z" transform="translate(39.412 40.076)" fill="#fbd206"/>
        <path id="Path_45647" data-name="Path 45647" d="M206.608,187.018a10.738,10.738,0,0,1-2.907,4.372,13.9,13.9,0,0,1-6.1,3.268,47.234,47.234,0,0,0,4.251-9.284,44.769,44.769,0,0,0,2.366-9.926,13.984,13.984,0,0,1,2.828,6.337,10.8,10.8,0,0,1-.442,5.233Z" transform="translate(47.946 40.076)" fill="#fbd206"/>
        <path id="Path_45648" data-name="Path 45648" d="M185.066,226.4a38.766,38.766,0,0,1,5.787,7.326,38.3,38.3,0,0,1,4.091,8.392,38.313,38.313,0,0,1-5.787-7.326,38.724,38.724,0,0,1-4.09-8.392Zm8.118,9.519c2.442-2.249,4.952-4.18,7.242-6.317a28.357,28.357,0,0,0,3.211-3.335,11.959,11.959,0,0,0,2.266-4.084,7.26,7.26,0,0,1-.956,4.941,15.043,15.043,0,0,1-3.163,3.953A22.574,22.574,0,0,1,197.755,234,18.288,18.288,0,0,1,193.184,235.914Z" transform="translate(35.342 87.047)" fill="#fbd206"/>
        <path id="Path_45649" data-name="Path 45649" d="M189.233,251.053c.321.622.622,1.263.923,1.885.341.722.682,1.424,1.023,2.146.6,1.263,1.2,2.506,1.784,3.77.521-1.383,1.063-2.747,1.584-4.111.321-.782.642-1.584.962-2.366.12-.341.261-.662.4-1C193.685,251.314,191.458,251.214,189.233,251.053Zm8.642,3.349-.521-1.263-.541,1.383c-.782,1.986-1.565,3.97-2.387,5.935,1.965-.08,3.931-.14,5.9-.16Zm6.357-2.968c-.963,0-1.925.021-2.907.04-.842-.02-1.684-.02-2.547-.04L199,252l.822,2.225,1.784,4.752,1.925-5.113.9-2.427Zm1.7,2.186-.421-1.183-.441,1.263-2.266,6.617c1.865.02,3.73.06,5.614.14Zm.581-2.225.7,2.105,2.105,6.356,2.948-6.838.822-1.925c-2.186.141-4.391.241-6.577.3Zm7.8,1.424-.622-1.524-.642,1.644-2.948,7.6c2.526.141,5.073.361,7.62.722Zm-25.085-1.765c.321.622.622,1.263.923,1.885.341.722.682,1.424,1.023,2.146.6,1.264,1.2,2.506,1.784,3.77.521-1.383,1.063-2.747,1.584-4.111.321-.782.642-1.584.962-2.366.12-.341.261-.662.4-1-2.225-.06-4.451-.161-6.677-.321Zm8.642,3.349-.521-1.263-.541,1.383c-.782,1.986-1.565,3.97-2.387,5.935,1.965-.08,3.931-.14,5.9-.16Zm6.357-2.968c-.963,0-1.925.021-2.907.04-.842-.02-1.684-.02-2.547-.04L199,252l.822,2.225,1.784,4.752,1.925-5.113.9-2.427Zm1.7,2.186-.421-1.183-.441,1.263-2.266,6.617c1.865.02,3.73.06,5.614.14Zm.581-2.225.7,2.105,2.105,6.356,2.948-6.838.822-1.925c-2.185.141-4.391.241-6.577.3Zm7.8,1.424-.622-1.524-.642,1.644-2.948,7.6c2.526.14,5.073.361,7.62.722Zm-26.147-.883c-.221.421-.461.863-.682,1.284l1.143-.12c-.16-.381-.3-.782-.461-1.163Zm1.062-.882c.321.622.622,1.263.923,1.885.341.722.682,1.424,1.023,2.146,1.123-.12,2.246-.24,3.368-.341.321-.782.642-1.584.962-2.366.12-.341.261-.662.4-1-2.225-.06-4.451-.161-6.677-.321Zm8.121,2.085-.541,1.383c.341-.04.7-.08,1.062-.12Zm3.97-1.664c-.842-.02-1.684-.02-2.547-.04L199,252c1.745-.181,3.489-.381,5.234-.562-.963,0-1.925.02-2.907.04Zm-22.879-29.555,4.451,28.553c1.685-.22,3.369-.381,5.033-.521a.592.592,0,0,1,.541-.08l.04.04c2.847-.2,5.675-.341,8.5-.4a1.172,1.172,0,0,1,.642,0c1.223-.02,2.446-.04,3.67-.04,5.053.021,10.085.14,15.118.622,1.1.12,2.226.241,3.329.381l.12-.762,4.311-27.791Zm7.078,26.889a3.01,3.01,0,1,1,2.9-3.008,3.01,3.01,0,0,1-2.9,3.008Zm10.828,0a3.01,3.01,0,1,1,2.9-3.008,3.01,3.01,0,0,1-2.9,3.008Zm10.466-.361a3.01,3.01,0,1,1,2.9-3.008,3.01,3.01,0,0,1-2.9,3.008Zm10.287.361A3.01,3.01,0,1,1,220,245.8a3.01,3.01,0,0,1-2.9,3.008Zm-2.787,4.01-.622-1.524-.642,1.644-2.948,7.6c2.526.141,5.073.361,7.62.722Zm-7.8-1.424.7,2.105,2.105,6.356,2.948-6.838.822-1.925c-2.185.141-4.391.241-6.577.3Zm-.581,2.225-.421-1.183-.441,1.263-2.266,6.617c1.865.02,3.73.06,5.614.14Zm-1.7-2.186c-.963,0-1.925.021-2.907.04-.842-.02-1.684-.02-2.547-.04L199,252l.822,2.225,1.784,4.752,1.925-5.113.9-2.427Zm-6.357,2.968-.521-1.263-.541,1.383c-.782,1.986-1.565,3.97-2.387,5.935,1.965-.08,3.931-.14,5.9-.16Zm-8.642-3.349c.321.622.622,1.263.923,1.885.341.722.682,1.424,1.023,2.146.6,1.264,1.2,2.506,1.784,3.77.521-1.383,1.063-2.747,1.584-4.111.321-.782.642-1.584.962-2.366.12-.341.261-.662.4-1-2.225-.06-4.451-.161-6.677-.321Zm25.085,1.765-.622-1.524-.642,1.644-2.948,7.6c2.526.141,5.073.361,7.62.722Zm-7.8-1.424.7,2.105,2.105,6.356,2.948-6.838.822-1.925c-2.186.141-4.391.241-6.577.3Zm-.581,2.225-.421-1.183-.441,1.263-2.266,6.617c1.865.02,3.73.06,5.614.14Zm-1.7-2.186c-.963,0-1.925.021-2.907.04-.842-.02-1.684-.02-2.547-.04L199,252l.822,2.225,1.784,4.752,1.925-5.113.9-2.427Zm-6.357,2.968-.521-1.263-.541,1.383c-.782,1.986-1.565,3.97-2.387,5.935,1.965-.08,3.931-.14,5.9-.16Zm-8.642-3.349c.321.622.622,1.263.923,1.885.341.722.682,1.424,1.023,2.146.6,1.263,1.2,2.506,1.784,3.77.521-1.383,1.063-2.747,1.584-4.111.321-.782.642-1.584.962-2.366.12-.341.261-.662.4-1-2.225-.06-4.452-.161-6.677-.321Zm15,.381c-1.745.181-3.489.381-5.234.562l.822,2.225c1.223-.12,2.466-.241,3.709-.361l.9-2.427Zm1.283,1-.441,1.263c.28-.02.581-.04.862-.08Zm1-1.042.7,2.105,5.053-.482.822-1.925c-2.186.141-4.391.241-6.577.3Zm7.179-.1-.642,1.644,1.263-.12Zm.521-.281.642,1.765,3.067,8.482v.02a.44.44,0,0,1,.161.02l1.4-8.963.281-1.865c-1.865.241-3.71.4-5.554.541Zm3.69,10.307c0,.02,0,.06-.04.06a.1.1,0,0,1-.12-.04,128.938,128.938,0,0,1-16.422.963c-2.587-.02-5.173-.08-7.76-.2a.9.9,0,0,1-.9.1,1.679,1.679,0,0,1-.241-.161c-2.607-.16-5.233-.381-7.84-.742l1.343,8.622h30.819l1.343-8.622a.549.549,0,0,0-.18.02Zm-25.546,7.84a3.009,3.009,0,1,1,2.91-3.008,3.009,3.009,0,0,1-2.91,3.008Zm10.106,0a3.009,3.009,0,1,1,2.91-3.008A3.009,3.009,0,0,1,202.467,269.16Zm10.106-.361a3.009,3.009,0,1,1,2.91-3.008,3.009,3.009,0,0,1-2.91,3.008Zm1.745-15.981-.622-1.524-.642,1.644-2.948,7.6c2.526.141,5.073.361,7.62.722Zm-7.8-1.424.7,2.105,2.105,6.356,2.948-6.838.822-1.925c-2.186.141-4.391.241-6.577.3Zm-.581,2.225-.421-1.183-.441,1.263-2.266,6.617c1.865.02,3.73.06,5.614.14Zm-1.7-2.186c-.963,0-1.925.021-2.907.04-.842-.02-1.684-.02-2.547-.04L199,252l.822,2.225,1.784,4.752,1.925-5.113.9-2.427Zm-6.357,2.968-.521-1.263-.541,1.383c-.782,1.986-1.565,3.97-2.387,5.935,1.965-.08,3.931-.14,5.9-.16Zm-8.642-3.349c.321.622.622,1.263.923,1.885.341.722.682,1.424,1.023,2.146.6,1.264,1.2,2.506,1.784,3.77.521-1.383,1.063-2.747,1.584-4.111.321-.782.642-1.584.962-2.366.12-.341.261-.662.4-1-2.225-.06-4.451-.161-6.677-.321Zm.261,4.191c-.28-.7-.581-1.424-.862-2.146-.161-.381-.3-.782-.461-1.163-.221.421-.461.863-.682,1.284-.4.782-.822,1.564-1.243,2.346q-.933,1.775-1.925,3.549a.075.075,0,0,1-.061.02l.321,2.166c2.366-.341,4.752-.541,7.118-.7-.722-1.784-1.464-3.569-2.206-5.353Zm1.685-.161c.6,1.264,1.2,2.506,1.784,3.77.521-1.383,1.063-2.747,1.584-4.111-1.123.1-2.245.221-3.368.341Zm6.7-.681c-.361.04-.722.08-1.062.12-.782,1.986-1.565,3.97-2.387,5.935,1.965-.08,3.931-.14,5.9-.16Zm1.945-.181,1.784,4.752,1.925-5.113c-1.243.12-2.486.24-3.709.361Zm6.115-.6c-.28.04-.581.06-.862.08l-2.266,6.617c1.865.02,3.73.06,5.614.14Zm1.284-.12,2.105,6.356,2.948-6.838Zm7.1-.682-1.263.12-2.948,7.6c2.526.141,5.073.361,7.62.722ZM182.9,250.471l.5,3.188.321,2.166.482,3.028c.421-1.083.842-2.146,1.263-3.208.3-.782.622-1.544.942-2.306.321-.8.642-1.6.983-2.407C185.884,250.813,184.4,250.652,182.9,250.471Z" transform="translate(28.687 86.786)" fill="#fbd206"/>
        <path id="Path_45650" data-name="Path 45650" d="M194.165,285.312a12.582,12.582,0,0,1-3.589-5.578c-.315-1.071-.724-2.131-.965-3.225l-.678-3.3a77.8,77.8,0,0,1-.505-13.4c.079-4.48.749-8.893,1.267-13.325.812-4.375,1.438-8.8,2.5-13.12,1-4.337,1.993-8.673,3.253-12.935,1.214-4.276,2.379-8.562,3.875-12.747,1.446-4.2,2.744-8.443,4.352-12.58,1.627-4.131,3.172-8.287,4.867-12.384-2.359,8.56-5.09,16.976-7.386,25.518l-1.786,6.383-1.644,6.417c-.531,2.142-1.172,4.258-1.65,6.41l-1.451,6.453c-1.1,4.277-1.723,8.637-2.609,12.954-.65,4.347-1.334,8.7-1.685,13.073a78.234,78.234,0,0,0-.193,13.137l.39,3.257c.144,1.085.453,2.132.673,3.209a13.433,13.433,0,0,0,2.965,5.78Z" transform="translate(38.629 47.386)" fill="#fbd206"/>
        <path id="Path_45651" data-name="Path 45651" d="M181.389,240.559l-.04-.22-.06.18c-.02.04,0,.08.04.12.04.02.06,0,.08-.02Z" transform="translate(31.538 105.3)" fill="#fbd206"/>
        <path id="Path_45652" data-name="Path 45652" d="M216.723,313.242a184.743,184.743,0,0,1,19.983-4.327,182.626,182.626,0,0,1,20.31-2.35,182.6,182.6,0,0,1-19.982,4.328,184.613,184.613,0,0,1-20.31,2.35Zm79.588-.879a184.528,184.528,0,0,1,19.982-4.327,182.489,182.489,0,0,1,20.31-2.35,182.462,182.462,0,0,1-19.982,4.327,184.741,184.741,0,0,1-20.31,2.35Zm81.61-14.143a184.633,184.633,0,0,1,19.982-4.327,182.475,182.475,0,0,1,20.31-2.35,182.434,182.434,0,0,1-19.982,4.327,184.709,184.709,0,0,1-20.31,2.35Zm340.8,126.705a45.855,45.855,0,0,1-10.916-10.4,99.057,99.057,0,0,1-8.4-12.56c-2.492-4.379-4.745-8.886-6.821-13.469s-4.017-9.206-5.747-14l1.905,1.19A70.413,70.413,0,0,1,658.8,373.1a104.623,104.623,0,0,1-14.064-5.243,129.965,129.965,0,0,1-13.291-6.845,184.078,184.078,0,0,1-24.342-17.1,230.966,230.966,0,0,1-21.627-20.35l-.033-.035a1.384,1.384,0,0,1,.021-1.9c2.92-3.02,5.943-5.826,9.077-8.558,3.117-2.738,6.407-5.278,9.767-7.719a68.938,68.938,0,0,1,10.685-6.456,28.816,28.816,0,0,1,12.141-3.348.764.764,0,0,1,.243.04c3.983,1.379,8,2.657,12,3.99l12.007,3.96c7.993,2.676,16.038,5.194,24.068,7.759l-1.545.839,10.531-44.091q5.327-22.03,10.852-44.008l-.047.232a17.436,17.436,0,0,1,1.179-3.657c.458-1.094,1-2.115,1.542-3.139a49.435,49.435,0,0,1,3.782-5.671,74.472,74.472,0,0,1,9.089-9.81A132.122,132.122,0,0,1,732.084,186.4a107.08,107.08,0,0,1,11.774-6.115,108.617,108.617,0,0,1,12.479-4.511,94.623,94.623,0,0,1,26.18-3.893,92.334,92.334,0,0,1,26.19,3.508,76.18,76.18,0,0,1,12.406,4.748c.986.515,1.945,1.087,2.917,1.628l1.452.823,1.382.946c.915.639,1.85,1.245,2.743,1.911l2.569,2.151a44.4,44.4,0,0,1,13.688,22.417,67.968,67.968,0,0,1,.717,26,.249.249,0,0,1-.283.209.253.253,0,0,1-.211-.267,69.669,69.669,0,0,0-2.2-25.39,42.439,42.439,0,0,0-13.76-20.553l-2.474-1.907c-.861-.587-1.763-1.118-2.64-1.679l-1.323-.832-1.4-.714c-.934-.469-1.85-.969-2.794-1.415a74.425,74.425,0,0,0-11.858-4.182,87.975,87.975,0,0,0-25.03-2.715,89.227,89.227,0,0,0-12.539,1.275A93.578,93.578,0,0,0,757.8,180.7,103.506,103.506,0,0,0,746,185.12a117.485,117.485,0,0,0-11.176,5.833A138.622,138.622,0,0,0,714.3,205.813a69.512,69.512,0,0,0-8.616,9.03,44.615,44.615,0,0,0-3.469,5.038c-.476.879-.962,1.755-1.349,2.649a14.731,14.731,0,0,0-.883,2.465l-.048.233q-5.755,21.92-11.7,43.792l-12.016,43.709-.01.038a1.183,1.183,0,0,1-1.454.827l-.081-.025c-7.947-2.81-15.879-5.668-23.863-8.368l-11.958-4.1c-3.991-1.355-7.963-2.764-11.969-4.073l.241.039a27.365,27.365,0,0,0-11.429,3.287,65.214,65.214,0,0,0-10.267,6.538,109.775,109.775,0,0,0-9.319,7.928c-2.962,2.8-5.861,5.719-8.544,8.728l-.012-1.933a229.875,229.875,0,0,0,22.04,19.164,224.829,224.829,0,0,0,24.089,16.378c4.189,2.433,8.457,4.72,12.849,6.722a100.34,100.34,0,0,0,13.47,5.177,69.1,69.1,0,0,0,28.255,3.159l.07-.007a1.735,1.735,0,0,1,1.836,1.2c1.49,4.667,3.248,9.343,5.118,13.924s3.927,9.111,6.213,13.5a99.225,99.225,0,0,0,7.522,12.789,49.507,49.507,0,0,0,9.982,10.9.249.249,0,0,1,.055.348.255.255,0,0,1-.335.064Z" transform="translate(67.161 36.481)" fill="#fbd206"/>
      </g>
      <path id="Path_45653" data-name="Path 45653" d="M1162.089,1131.385l-30.192,48.236,27.385-1.261v14.869l30.407-50.173-27.6,3.645Z" transform="translate(575.308 11039.827) rotate(-120)" fill="#fbd206"/>
    </g>
    <g id="Path_45654" data-name="Path 45654" transform="translate(1501 10629)" fill="none">
      <path d="M13,0H96a13,13,0,0,1,13,13V68A13,13,0,0,1,96,81H13A13,13,0,0,1,0,68V46.486s-7-3.733-7-7.272,7-6.883,7-6.883V13A13,13,0,0,1,13,0Z" stroke="none"/>
      <path d="M 13 1 C 9.794677734375 1 6.781211853027344 2.248214721679688 4.514724731445312 4.514724731445312 C 2.248214721679688 6.781211853027344 1 9.794677734375 1 13 L 1 32.96172332763672 L 0.4311065673828125 33.23353958129883 C 0.4144439697265625 33.24149322509766 -1.254249572753906 34.04361724853516 -2.91009521484375 35.2533073425293 C -4.90264892578125 36.708984375 -6 38.11578369140625 -6 39.21453857421875 C -6 40.32321548461914 -4.900108337402344 41.80072402954102 -2.902923583984375 43.37489318847656 C -1.241813659667969 44.68416976928711 0.4540023803710938 45.59523010253906 0.4705657958984375 45.60407638549805 L 1 45.88643264770508 L 1 68 C 1 71.205322265625 2.248214721679688 74.21878814697266 4.514724731445312 76.48527526855469 C 6.781211853027344 78.75178527832031 9.794677734375 80 13 80 L 96 80 C 99.205322265625 80 102.2187881469727 78.75178527832031 104.4852752685547 76.48527526855469 C 106.7517852783203 74.21878814697266 108 71.205322265625 108 68 L 108 13 C 108 9.794677734375 106.7517852783203 6.781211853027344 104.4852752685547 4.514724731445312 C 102.2187881469727 2.248214721679688 99.205322265625 1 96 1 L 13 1 M 13 0 L 96 0 C 103.1797103881836 0 109 5.820289611816406 109 13 L 109 68 C 109 75.17971038818359 103.1797103881836 81 96 81 L 13 81 C 5.820289611816406 81 0 75.17971038818359 0 68 L 0 46.48644638061523 C 0 46.48644638061523 -7 42.75333786010742 -7 39.21453857421875 C -7 35.67573928833008 0 32.33123016357422 0 32.33123016357422 L 0 13 C 0 5.820289611816406 5.820289611816406 0 13 0 Z" stroke="none" fill="#fff"/>
    </g>
    <line id="Line_94" data-name="Line 94" x2="35" transform="translate(1530.5 10688.5)" fill="none" stroke="#707070" stroke-width="2"/>
  </g>
</svg>
