<svg xmlns="http://www.w3.org/2000/svg" width="802.439" height="595.688" xmlns:v="https://vecta.io/nano"><g fill="#fbd206"><path d="M615.48 414.157c-.341 0-.682-.02-1.023-.04 1-5.9 2.045-11.81 3.429-17.745 1.323 5.714 2.346 11.389 3.308 17.084a26.03 26.03 0 0 1-5.714.7zm6.456 3.649l-.04 10.226v11.209 107.135c-1.223 7.159-2.406 14.3-4.01 21.435-1.6-7.138-2.787-14.276-4.01-21.435V428.537l-.04-10.728.4-2.386a26.7 26.7 0 0 0 7.259-.141l.44 2.524zm-136.09-181.185s.421.742 1.243 1.905l-.04.04-5.9 6.316c-2.406 1.7-4.812 3.409-7.4 4.933 1.364-2.667 2.908-5.173 4.431-7.7l4.471-4.752c1.952-.401 3.195-.742 3.195-.742zm35.231-37.3c-1.383 2.647-2.927 5.173-4.451 7.68l-5.915 6.316-1.083 1.143a33.08 33.08 0 0 0-4.412-1.143l2.567-2.747 5.915-6.316c2.406-1.68 4.812-3.364 7.382-4.928zm65.543 48.582c.311-.695.79-1.301 1.393-1.766a3.38 3.38 0 0 1 1.542-.644c.559-.077 1.129-.009 1.654.2a4.47 4.47 0 0 1 1.8 1.324h.005l.025.037-.025.037h0a4.47 4.47 0 0 1-1.4 1.747c-.452.338-.984.554-1.544.625s-1.131-.009-1.656-.22a4.61 4.61 0 0 1-1.794-1.34zm-81.678 10.851l-43.875 5.423q-21.939 2.694-43.894 5.241l-87.83 10.1-87.868 9.745-87.918 9.284h-.011a1.78 1.78 0 0 1-.721-.075l-37.583-12.253-37.533-12.408q-18.779-6.165-37.5-12.523L2.776 248.575l37.858 11.39q18.928 5.7 37.8 11.58l37.761 11.7 37.712 11.85-.731-.074 87.87-9.73 87.919-9.268 87.958-8.917q21.988-2.239 44-4.265zM2.77 267.259l37.151 13.288 37.022 13.625 18.5 6.834 18.443 6.988 36.887 13.975-.942-.113 52.794-6.68 52.815-6.517 52.861-6.16 52.916-5.724-52.653 7.78-52.709 7.345-52.755 6.987-52.776 6.825h-.022a1.93 1.93 0 0 1-.921-.116l-36.765-14.285-18.384-7.143-18.325-7.3-36.634-14.637L2.77 267.259z"/><path d="M148.588 503.354q-.565-25.85-.364-51.681l.749-51.656 1.634-51.635q.99-25.814 2.759-51.609.572 25.849.37 51.681l-.756 51.656-1.639 51.635q-.994 25.813-2.753 51.609zm537.837-392.182a24.1 24.1 0 0 1-6.7-4.466 30.77 30.77 0 0 1-5.013-6.423 42.01 42.01 0 0 1-3.343-7.443 44.48 44.48 0 0 1-1.89-8.026 1.22 1.22 0 0 1 .009-.375l.043-.225a40.37 40.37 0 0 0 .948-8.534 38.05 38.05 0 0 0-.9-8.5 43.43 43.43 0 0 0-6.8-15.5l.22.232c-3.468-3.316-7.33-6.194-11.5-8.568-4.235-2.324-8.834-3.913-13.6-4.7a45.86 45.86 0 0 0-28.275 5.554 56.66 56.66 0 0 0-6.227 3.871 55.7 55.7 0 0 0-2.9 2.207c-.44.363-.992.815-1.286 1.121-.373.4-.755.871-1.123 1.326a40 40 0 0 0-6.382 12.717c-1.357 4.563-2.07 9.294-2.117 14.055a65.3 65.3 0 0 0 1.709 14.185 2.64 2.64 0 0 1 .018 1.01c-.455 2.507-.944 4.96-1.5 7.438-.53 2.524-1.202 5.017-2.011 7.466-.378 1.146-1.278 3.148-1.076 2.732-.084-.143.047.233.753.726a10.81 10.81 0 0 0 5.324 1.571l.191-.007a2.58 2.58 0 0 1 2.172 1.056c2.81 3.89 5.781 7.726 8.73 11.525a108.3 108.3 0 0 0 9.333 10.717c.413.376.825.729 1.228 1.037.191.135.394.279.56.378l.223.124c.067.036.051.011.077.04.079.044-.175-.043-.244.028-.061.037.2-.041.282-.055a7.81 7.81 0 0 0 .776-.206c.528-.147 1.074-.34 1.615-.523a43.74 43.74 0 0 0 6.361-2.942 29.08 29.08 0 0 0 10.467-9.107l.065-.1c.229-.356.703-.459 1.059-.23l.083.062a29.29 29.29 0 0 1 3.339 3.32 13.26 13.26 0 0 1 1.386 1.919c.437.682.736 1.443.883 2.24a.25.25 0 0 1-.19.282.25.25 0 0 1-.294-.17v-.015a9.15 9.15 0 0 0-2.593-3.489 28.01 28.01 0 0 0-3.5-2.769l1.207-.269a29.26 29.26 0 0 1-10.293 10.947 46.99 46.99 0 0 1-6.615 3.689c-.595.251-1.174.517-1.808.732a10.61 10.61 0 0 1-.97.32 3.88 3.88 0 0 1-.6.153c-.381.06-.769.055-1.148-.015a6.82 6.82 0 0 1-2.386-1.069c-.59-.395-1.124-.8-1.637-1.217a95.04 95.04 0 0 1-10.376-10.758c-3.217-3.723-6.22-7.564-9.22-11.473l2.362 1.048a13.81 13.81 0 0 1-4.665-.506 13.64 13.64 0 0 1-4.187-1.871c-.785-.52-1.469-1.178-2.018-1.943a5.35 5.35 0 0 1-1.035-3.361 4.93 4.93 0 0 1 .351-1.717l.282-.708.152-.34c.207-.436.4-.991.593-1.521a134.18 134.18 0 0 0 3.657-14.09l.018 1.009a69.95 69.95 0 0 1-1.406-15.387 49.85 49.85 0 0 1 3.015-15.187c.438-1.217 1-2.391 1.512-3.573.622-1.138 1.143-2.32 1.847-3.408 1.303-2.236 2.83-4.333 4.559-6.259.447-.481.88-.95 1.385-1.427a19.42 19.42 0 0 1 1.6-1.231c1.04-.74 2.1-1.434 3.175-2.1 2.149-1.337 4.391-2.5 6.651-3.608 9.071-4.565 19.193-6.636 29.328-6a45.99 45.99 0 0 1 14.817 3.8c4.701 2.119 9.057 4.932 12.923 8.344a1.7 1.7 0 0 1 .2.21l.017.022a37.67 37.67 0 0 1 4.9 8.267 41.11 41.11 0 0 1 2.824 9.063c.646 3.113.891 6.296.73 9.472a42.47 42.47 0 0 1-1.473 9.355l.052-.6a41.47 41.47 0 0 0 1.251 7.419 42.34 42.34 0 0 0 2.515 7.184 31.1 31.1 0 0 0 4.013 6.465 26.16 26.16 0 0 0 5.739 5.134l.015.011a.25.25 0 0 1 .075.329.25.25 0 0 1-.321.102z"/><path d="M595.756 108.363c-.881.001-1.698-.464-2.145-1.224l-6.866-11.647a2.49 2.49 0 0 1 2.11-3.797 2.49 2.49 0 0 1 2.176 1.267l6.866 11.643a2.49 2.49 0 0 1-2.141 3.754z"/><path d="M590.393 98.028c-.544 0-1.025-.353-1.188-.871s.029-1.083.475-1.395c3.611-2.518 35.486-24.553 42.265-24.281.687.031 1.218.613 1.187 1.3a1.26 1.26 0 0 1-1.3 1.187h-.1c-4.7 0-27.354 14.576-40.633 23.837a1.24 1.24 0 0 1-.711.225z"/><path d="M628.305 78.7a8.09 8.09 0 0 1 1.692-5.144c.694-.807 1.685-1.299 2.748-1.364l.8-.013c.256.029.5.1.746.157.488.094.96.26 1.4.491a12.63 12.63 0 0 1 2.436 1.467l2.074 1.825a17.21 17.21 0 0 1 3.22 4.592c1.558 3.414 2 7.233 1.262 10.913a13.49 13.49 0 0 1-2.085 5.115 5.51 5.51 0 0 1-2.128 1.878 2.17 2.17 0 0 1-2.611-.5 1.96 1.96 0 0 0 2.275-.1 4.93 4.93 0 0 0 1.416-1.905c.674-1.51 1.084-3.124 1.212-4.773.319-3.275-.231-6.576-1.595-9.571-.678-1.472-1.58-2.831-2.672-4.028-.532-.615-1.169-1.168-1.75-1.761-.605-.521-1.249-.996-1.926-1.419-1.147-.94-2.783-.99-3.985-.121a9.1 9.1 0 0 0-2.529 4.261zm-30.23 45.973a37.92 37.92 0 0 0 5.646-1.064c.849-.236 1.673-.558 2.457-.961.845-.384 1.633-.924 2.665-1.447-.168 1.126-.686 2.171-1.48 2.986a6.42 6.42 0 0 1-2.929 1.8 7.21 7.21 0 0 1-3.394.161 5.7 5.7 0 0 1-2.965-1.479zm-7.682-35.294a6.78 6.78 0 0 1 1.561-4.694 9.62 9.62 0 0 1 4.143-2.99c1.575-.58 3.247-.847 4.924-.788a22.85 22.85 0 0 1 2.422.312 17.99 17.99 0 0 1 2.314.765 20.2 20.2 0 0 1-2.346.457c-.763.139-1.508.305-2.247.4-1.42.279-2.816.671-4.174 1.172-2.753.972-5.085 2.867-6.6 5.363zm10.438 10.636a2.8 2.8 0 0 0 2.116-4.742 2.8 2.8 0 0 0-4.816 1.942 2.8 2.8 0 0 0 2.699 2.798zm56.443 70.964c-2.847-2.372-6.077-4.241-9.552-5.528a50.66 50.66 0 0 0-10.609-2.713c-3.646-.548-7.325-.851-11.011-.906l-5.588.026c-1.867.085-3.74.178-5.647.163 1.815-.529 3.663-.95 5.518-1.378 1.872-.284 3.757-.571 5.654-.752a50.39 50.39 0 0 1 11.458.39 37.47 37.47 0 0 1 11.012 3.4c3.5 1.638 6.519 4.151 8.764 7.297zm-139.657 102.1a55.3 55.3 0 0 1 4.217-10.184 62.08 62.08 0 0 1 5.943-9.339 43.03 43.03 0 0 1 7.793-7.964 22.97 22.97 0 0 1 10.012-4.726c-3.217 1.606-6.169 3.697-8.751 6.2-2.576 2.471-4.946 5.149-7.085 8.006-4.418 5.653-8.196 11.807-12.13 18.002zm88.144 38.261c1.12.284 2.286.343 3.429.174a15.27 15.27 0 0 0 3.331-.756l1.589-.628c.522-.223 1.01-.532 1.514-.793a21.7 21.7 0 0 0 2.869-1.846 49.64 49.64 0 0 0 9.635-9.675l3.961-5.625c1.195-1.965 2.479-3.869 3.6-5.878l3.337-6.046 3.039-6.214 12.1-25.1 6.218-12.47 6.451-12.348c-1.715 4.331-3.574 8.59-5.356 12.886l-5.589 12.763-11.579 25.338c-3.885 8.545-8.823 16.57-14.7 23.889-3.02 3.638-6.538 6.832-10.449 9.489a22.66 22.66 0 0 1-3.129 1.676c-.547.23-1.071.5-1.632.694l-1.7.518a11.72 11.72 0 0 1-6.948-.046zm-2.3-56.093c-.15 0-.298-.027-.438-.08l-11.139-4.183c-.429-.147-.745-.515-.824-.962s.092-.901.445-1.186.834-.354 1.253-.182l11.139 4.183c.563.212.893.796.786 1.388s-.623 1.022-1.224 1.022zm-91.483-3.1a17.69 17.69 0 0 1-8.282.547c-2.806-.509-5.493-1.534-7.925-3.022-2.413-1.471-4.635-3.236-6.613-5.255a40.14 40.14 0 0 1-5.25-6.692l2.531 1.051a55.34 55.34 0 0 1-15.743 1.7c-2.712-.043-5.402-.5-7.976-1.354a7.82 7.82 0 0 1-3.517-2.425c-.481-.575-.847-1.236-1.079-1.948a5.2 5.2 0 0 1 0-2.283 8.16 8.16 0 0 1 2.108-3.634 22.3 22.3 0 0 1 2.929-2.732 59.48 59.48 0 0 1 6.457-4.522c4.431-2.742 9.048-5.17 13.819-7.266 2.4-.984 4.651-2.133 7.411-2.98a29.87 29.87 0 0 1 8.288-1.294 30.19 30.19 0 0 1 8.218 1.1 40.22 40.22 0 0 1 7.674 2.769c4.788 2.34 9.225 5.338 13.183 8.906a63.28 63.28 0 0 1 10.42 11.687.25.25 0 0 1-.368.332l-.012-.01a94.17 94.17 0 0 0-25.221-16.37c-2.222-.947-4.534-1.67-6.9-2.156-2.288-.617-4.645-.941-7.014-.963-2.338-.073-4.675.173-6.946.731-2.2.531-4.624 1.576-7.02 2.423-4.76 1.816-9.554 3.542-14.2 5.576-2.301 1.027-4.528 2.213-6.665 3.549a20 20 0 0 0-2.873 2.316c-.849.781-1.477 1.771-1.82 2.872-.277 1.043.045 2.153.836 2.886a5.27 5.27 0 0 0 2.871 1.664c2.399.488 4.865.553 7.287.192 4.94-.77 9.836-1.796 14.669-3.074.982-.227 1.999.195 2.531 1.051a42.89 42.89 0 0 0 4.461 6.026 37 37 0 0 0 5.481 5.2 24.6 24.6 0 0 0 6.554 3.643 21.42 21.42 0 0 0 7.607 1.264c.067-.002.132.023.18.07s.076.11.078.176c.001.11-.069.209-.173.245zm42.083 175.02l5.589 13.654a.35.35 0 0 1-.443.463l-.021-.008a33.95 33.95 0 0 0-8.737-2.13 28.25 28.25 0 0 0-8.884.663 34.25 34.25 0 0 0-15.228 9.046c-4.247 4.276-7.914 9.091-10.906 14.322a97.6 97.6 0 0 0-7.716 16.324v.013a1.01 1.01 0 0 1-1.893.023L494.961 451.5l-10.668-28.1 1.981-.478 3.818 38.863 3.928 38.85a.41.41 0 0 1-.051.247 23.72 23.72 0 0 1-12.559 9.791 54.83 54.83 0 0 1-15.77 2.948c-5.346.255-10.703.131-16.031-.372a136.24 136.24 0 0 1-15.873-2.379.63.63 0 0 1-.492-.519v-.017q-4.573-29.483-7.678-59.156c-2.013-19.786-3.548-39.635-4.062-59.553l-.016-14.95.25-7.48.138-3.74.307-3.738.631-7.474 1.132-7.443c.394-2.487.939-4.948 1.633-7.369l.949-3.66 1.329-3.555 1.348-3.546c.558-1.137 1.172-2.25 1.756-3.375.606-1.114 1.151-2.261 1.808-3.344l2.19-3.122a45.32 45.32 0 0 1 4.916-5.817 33.17 33.17 0 0 1 2.855-2.528c.94-.857 1.951-1.634 3.021-2.321l3.2-2.073 3.413-1.7c1.146-.544 2.325-1.017 3.528-1.419 1.181-.461 2.393-.838 3.627-1.129 4.906-1.343 10.007-1.83 15.078-1.439l-.816.464a33.82 33.82 0 0 1 3.918-6.442c1.581-1.954 3.369-3.731 5.332-5.3a42.71 42.71 0 0 1 13.236-6.8c4.733-1.459 9.612-2.392 14.549-2.78 4.914-.43 9.856-.415 14.767.045.033.003.063.019.084.045s.031.058.028.091c-.009.068-.07.117-.138.112-4.893-.315-9.803-.187-14.673.382a66.45 66.45 0 0 0-14.267 3.157c-4.611 1.51-8.923 3.811-12.745 6.8-1.853 1.531-3.536 3.257-5.019 5.148-1.435 1.919-2.652 3.992-3.629 6.181a.8.8 0 0 1-.771.467h-.045a43.5 43.5 0 0 0-27.487 7.863 47.92 47.92 0 0 0-16.734 23.259l-1.275 3.427c-.336 1.173-.6 2.37-.908 3.553a59.58 59.58 0 0 0-1.569 7.171l-1.089 7.291-.6 7.377-.294 3.689-.127 3.706-.228 7.415c-.066 4.947.021 9.9.037 14.853.365 19.818 1.791 39.628 3.619 59.391q2.69 29.652 6.78 59.172l-.494-.535a135.19 135.19 0 0 0 15.674 2.6c5.272.597 10.582.776 15.882.537a54.04 54.04 0 0 0 15.544-2.807 22.26 22.26 0 0 0 12.123-9.456l-.051.246-4.425-38.8-4.552-38.783c-.061-.514.269-.993.771-1.117s1.018.144 1.205.626v.012l10.844 28.037 10.646 28.113-1.9.035c2.148-5.782 4.83-11.352 8.011-16.637 3.14-5.327 6.987-10.204 11.434-14.5 4.451-4.39 9.979-7.532 16.028-9.111 3.046-.664 6.181-.815 9.276-.445a34.8 34.8 0 0 1 8.9 2.463l-.464.455-5.162-13.821c-.025-.064.006-.136.071-.161s.136.006.161.07z"/><path d="M485.256 423.031l2.216 20.507-13.713-77.767 14.98 66.348zm101.576-109.527c-27.67 0-108.635-10.576-112.493-11.083-.681-.089-1.161-.714-1.072-1.395s.714-1.161 1.395-1.072c1.059.137 106.178 13.862 119.266 10.582.435-.121.902.003 1.22.325s.435.79.308 1.224-.48.764-.921.863a36.4 36.4 0 0 1-7.703.556z"/></g><path d="M775.529 176.949s-89.59-20.894-111.687 86.021c-22.1 106.894-27.731 99.134-27.731 99.134-40.323 58.45-118.965 22.6-136.811 13.395-4.149-2.248-9.256-1.697-12.831 1.383-4.792 4.391-4.05 11.49-4.05 11.49l.341 8.041c.123 2.622 1.382 5.059 3.449 6.677 29.075 23.1 80.828 27.892 127.668 25.446l8.021-.5c40.484-2.827 75.995-10.768 87.945-16.342 26.869-12.552 34.629-7.178 76.436-117.682 41.825-110.487-10.75-117.063-10.75-117.063zm17.826 29.456l-.02-.02a61.08 61.08 0 0 0-38.5-6.737c-12.992 2.185-24.366 9.784-33.066 19.545-4.387 4.938-8.295 10.283-11.67 15.961-3.452 5.698-6.521 11.62-9.184 17.726a288.61 288.61 0 0 0-13.134 37.957l-5.013 19.59c-.8 3.289-1.744 6.537-2.586 9.805l-2.667 9.765c-3.406 13.119-7.632 26.011-12.653 38.6-1.263 3.148-2.787 6.2-4.251 9.264-1.644 3.008-3.148 6.055-5.013 8.923-3.517 5.917-7.723 11.397-12.529 16.326a44.22 44.22 0 0 1-17.344 11.168c-1.381.446-2.795.781-4.23 1a26.7 26.7 0 0 1-7.259.14 21.69 21.69 0 0 1-8.582-2.968.2.2 0 0 1-.06-.281c.049-.083.152-.117.241-.08l.02.02a22.03 22.03 0 0 0 8.6 2.005c.341.021.682.04 1.023.04a26.03 26.03 0 0 0 5.714-.7c1.306-.308 2.592-.697 3.85-1.163 6.051-2.55 11.451-6.429 15.8-11.349a94.06 94.06 0 0 0 11.71-15.981c1.765-2.828 3.269-5.815 4.873-8.723 1.424-3.028 3.068-5.935 4.391-9 5.723-12.164 10.549-24.731 14.437-37.6 2.005-6.437 3.549-12.993 5.133-19.53 1.524-6.577 2.787-13.174 4.271-19.791a227.21 227.21 0 0 1 11.79-38.92 121.68 121.68 0 0 1 21.154-35.07 66.39 66.39 0 0 1 16.121-13.074c6.063-3.47 12.733-5.749 19.651-6.717a58.67 58.67 0 0 1 39.18 9.5.2.2 0 0 1 .06.281.22.22 0 0 1-.261.08zm-88.05 360.078c-.042 2.059-.693 4.06-1.872 5.749a20.48 20.48 0 0 1-4.15 4.4 50.3 50.3 0 0 1-10.3 6.252 121.46 121.46 0 0 1-22.811 7.771c-15.667 3.716-31.75 5.388-47.847 4.973a258.23 258.23 0 0 1-47.695-5.713c-7.87-1.592-15.581-3.885-23.041-6.853a50.13 50.13 0 0 1-10.675-5.86 20.32 20.32 0 0 1-4.467-4.45c-1.344-1.823-2.114-4.005-2.213-6.268.001-2.293.68-4.534 1.952-6.442 1.191-1.803 2.654-3.41 4.337-4.766a45.36 45.36 0 0 1 10.616-6.405 114.68 114.68 0 0 1 23.182-7.32 228.09 228.09 0 0 1 48-4.793c16.115-.075 32.181 1.766 47.862 5.482a123.38 123.38 0 0 1 22.813 7.808 50.18 50.18 0 0 1 10.3 6.268c1.593 1.256 2.99 2.743 4.145 4.412a10.42 10.42 0 0 1 1.86 5.757zm-.5 0c-.07-3.971-2.89-7.269-5.967-9.592-3.187-2.333-6.684-4.209-10.389-5.576a114.82 114.82 0 0 0-22.92-5.868 303.87 303.87 0 0 0-47.2-3.382c-15.779-.072-31.531 1.29-47.063 4.071a124.32 124.32 0 0 0-22.552 6.357c-3.564 1.4-6.945 3.225-10.07 5.438-2.987 2.189-5.559 5.151-5.683 8.553-.1 3.413 2.362 6.651 5.291 9.044a42.23 42.23 0 0 0 10.012 5.984c7.286 3.113 14.897 5.401 22.692 6.823a175.56 175.56 0 0 0 23.616 2.795c7.914.485 15.845.531 23.755.356 15.809-.238 31.584-1.538 47.219-3.89a116.62 116.62 0 0 0 22.923-5.903c3.707-1.37 7.204-3.251 10.39-5.59 3.074-2.335 5.888-5.649 5.948-9.62zm-215.709-60.518c1.309 2.393 2.277 4.957 2.875 7.618.692 2.628 1.222 5.288 1.677 7.959.889 5.344 1.612 10.713 2.114 16.1.236 2.722.5 5.33.63 8.144.067 2.843-.416 5.672-1.423 8.331a18.11 18.11 0 0 1-1.983 3.8c-.819 1.143-1.715 2.23-2.681 3.252-1.926 2.038-4.149 3.772-6.594 5.146-4.863 2.66-10.24 4.246-15.768 4.65-2.735.239-5.488.174-8.208-.193-1.367-.166-2.719-.447-4.039-.839-1.311-.4-2.572-.863-3.849-1.326-10.218-3.712-19.51-9.361-29.56-13.218-9.983-3.977-20.285-7.33-30.179-11.838-5.051-2.164-9.849-4.877-14.307-8.089-2.25-1.683-4.28-3.643-6.042-5.832-1.01-1.234-1.663-2.721-1.886-4.3-.115-.811-.095-1.636.057-2.441a9.35 9.35 0 0 1 .821-2.238 14.93 14.93 0 0 1 6.508-5.855 25.58 25.58 0 0 1 8.093-2.466 31.17 31.17 0 0 1 4.206-.272c1.4.057 2.838.164 4.116.267 2.629.222 5.311.221 7.986.184 10.726-.215 21.484-1.254 32.211-2.4.033-.004.066.005.092.025s.043.05.047.083c.007.065-.036.125-.1.138a258.63 258.63 0 0 1-32.186 4.1c-2.716.114-5.438.193-8.194.039a105.69 105.69 0 0 0-3.967-.149 28.84 28.84 0 0 0-3.856.359 24.84 24.84 0 0 0-7.275 2.36c-2.208 1.047-4.06 2.72-5.324 4.811-1.058 1.994-.762 4.436.742 6.12 1.634 2.012 3.493 3.829 5.541 5.416 4.261 3.163 8.855 5.85 13.7 8.014 9.7 4.581 19.847 8.258 29.732 12.71 4.953 2.188 9.763 4.682 14.574 7.125a104.25 104.25 0 0 0 14.74 6.534c2.478.98 5.071 1.639 7.716 1.96 2.647.237 5.312.18 7.947-.169a37.62 37.62 0 0 0 14.858-5.057c2.228-1.339 4.259-2.981 6.033-4.881a20.37 20.37 0 0 0 4.246-6.336 19.95 19.95 0 0 0 1.407-7.505c-.075-2.578-.3-5.347-.486-8-.417-5.365-.811-10.736-1.5-16.069-.433-5.349-1.603-10.613-3.475-15.642l-.006-.013c-.032-.061-.008-.136.053-.167s.136-.008.167.052z" fill="#fff"/><g fill="#fbd206"><path d="M443.687 512a71.2 71.2 0 0 0 1.26 8.558c.541 2.784 1.359 5.507 2.441 8.129a14.21 14.21 0 0 0 4.763 6.327 7.72 7.72 0 0 0 3.492 1.264c1.295.098 2.596-.038 3.843-.4a24.99 24.99 0 0 0 7.385-3.6 27.15 27.15 0 0 0 6.172-5.56 26.39 26.39 0 0 0 5.874-15.637 23.62 23.62 0 0 1-4.328 16.811c-3.599 4.909-8.665 8.548-14.467 10.392a13.26 13.26 0 0 1-4.746.411 9.73 9.73 0 0 1-4.552-1.739c-2.469-1.93-4.295-4.564-5.235-7.553A43.28 43.28 0 0 1 443.687 512zm-42.946 15.7a9.31 9.31 0 0 1-.666-5.006 10.91 10.91 0 0 1 1.828-4.873 11.03 11.03 0 0 1 3.855-3.485c.745-.415 1.533-.747 2.351-.989a13.81 13.81 0 0 1 2.49-.394c-.646.577-1.324.995-1.946 1.488-.595.529-1.25.935-1.779 1.484a15.35 15.35 0 0 1-.831.755l-.742.822a12.05 12.05 0 0 0-1.34 1.715 21.6 21.6 0 0 0-3.22 8.483zm13.439 0c-.692-1.547-.907-3.266-.62-4.936.25-1.68.818-3.296 1.674-4.763a15.36 15.36 0 0 1 3.234-3.8c.637-.524 1.307-1.005 2.007-1.44a17.09 17.09 0 0 1 2.247-1.032 23.26 23.26 0 0 1-1.442 1.951l-1.4 1.856a43.36 43.36 0 0 0-2.5 3.728c-1.566 2.598-2.65 5.457-3.201 8.44zm23.418 46.842a72.58 72.58 0 0 1-13.412-5.923c-7.267-4.156-19.959-11.3-23.543-12.692-11.3-4.43-24.709-9.008-29.541-16.425-8.234-12.641 0-19.171 0-19.171 2.6 13.907 18.884 21.709 42.184 30.668s26.181 13.19 42.108 18.366c8.461 2.762 27.649 1.12 36.682-12.1a17.35 17.35 0 0 0 1.643-2.986l1.655-12.987c12.223 48.489-39.858 39.048-57.776 33.25zm73.288-37.234c-5.102-1.667-8.568-6.409-8.607-11.776-.459-7.699 4.14-14.804 11.352-17.538 12.613-5.311 18.586-20.735 20.834-28.37a63.18 63.18 0 0 1 8.621-18.205c6.279-9.051 16.133-18.1 28.156-11.638 4.167 2.376 7.33 6.184 8.9 10.716 3.011 8.076 7.838 16.052-5.228 33.82a87.5 87.5 0 0 1-6.855 8.116 43.53 43.53 0 0 0-8.737 14.073c-1.818 5.076-19.585 29.983-48.436 20.802z"/><path d="M513.265 465.039c1.26 6.442 1.251 13.068-.027 19.506-1.204 6.482-3.442 12.728-6.627 18.5a86.97 86.97 0 0 1-5.234 8.236 17.38 17.38 0 0 0-1.981 4.144c-.414 1.488-.584 3.034-.505 4.577-.005 3.175.562 6.326 1.675 9.3.995 3.091 3.549 5.426 6.717 6.14a7.84 7.84 0 0 1-4.468-1.863 12.27 12.27 0 0 1-2.939-3.966c-1.387-3.008-2.186-6.254-2.351-9.563-.149-1.69-.052-3.392.287-5.054a18.12 18.12 0 0 1 1.844-4.74c1.706-2.9 3.394-5.459 4.83-8.345a76.73 76.73 0 0 0 6.671-17.813 71.72 71.72 0 0 0 2.107-19.065zm40.729-25.8a10 10 0 0 1 3.428.849 14.31 14.31 0 0 1 3.01 1.724 12.02 12.02 0 0 1 2.488 2.5 6.39 6.39 0 0 1 1.351 3.341c-.979-.746-1.856-1.338-2.728-1.971l-2.608-1.879a27.67 27.67 0 0 1-4.941-4.56zm-32.136-162.795c.008.077-.015.154-.063.214s-.119.099-.197.107l-80.025 11.229-78.2 10.627.521 86.023.241 43.933.12 43.933c.007 1.507-1.096 2.789-2.587 3.008h-.02l-106.293 15.556-106.353 15.179h-.02a2.82 2.82 0 0 1-1.685-.281l-73.128-36.474-73.027-36.674h-.02a2.04 2.04 0 0 1-1.123-1.845l1.123-91.194.722-91.214c.004-.478.367-.876.842-.923l59.493-6.3 2.466-.26.541-.06-.942 2.306-1.745.181-58.791 5.9v90.372l.4 89.931 72.366 35.13 72.566 35.491 105.411-15.54 103.726-14.918.12-41.306.261-43.933.541-87.866v-.02a2.1 2.1 0 0 1 1.845-2.085l80.266-9.4 80.326-9.083c.16-.016.303.1.32.26z"/></g><path d="M67.412 240.792l.862 2.146-3.248.321 1.243-2.346zm1.524-.161l5.354-.561-.962 2.366-3.368.341-1.024-2.146zm7.2.2l.521 1.263-1.062.12zm6.878-1.7h.2l-.9 2.427-3.709.361-.822-2.225 5.229-.567zm1.283 1l.421 1.183-.862.08zm7.579-1.343l-.822 1.925-5.053.482-.7-2.105 6.574-.303zm.6.2l.622 1.524-1.263.12zm507.663-18.507c-.037.153-.187.249-.341.22l-50.807-10.728q-25.265-5.354-50.469-10.848l-61.7 6.917-61.939 6.637-61.961 6.618-61.979 6.276-62.019 5.975-62.04 5.795q-14.317 1.324-28.613 2.687l-4.632.441-.642-1.765 5.554-.541-3.329-.381 3.449-.381q13.956-1.564 27.892-3.148l61.919-6.958 61.919-6.8 61.979-6.517 62-6.156 62-6.136 62.019-5.835h.04a1.87 1.87 0 0 1 .481.04q25.295 5.9 50.53 12.011l50.469 12.211a.29.29 0 0 1 .221.361zM178.758 413.455v70.3l157.685-20.312v-68.094zm89.59 30.037c-11.63 0-11.61-18.046 0-18.046 11.63 0 11.61 18.046 0 18.046zm-89.59-112.95v70.3l157.685-20.312v-68.094zm89.59 30.037c-11.63 0-11.61-18.046 0-18.046 11.63 0 11.61 18.046 0 18.046z" fill="#fff"/><g fill="#fbd206"><path d="M527.713 224.609h.024c3.309-.846 6.645-1.541 9.966-2.315l10.006-2.084a.88.88 0 0 1 .526.058l.047.021c7 3.086 13.943 6.313 20.851 9.6l20.572 10.187.055.028a.86.86 0 0 1 .369 1.155c-.136.26-.393.433-.685.461l-8.57.753-8.589.6c2.812-.6 5.638-1.084 8.458-1.614l8.477-1.462-.261 1.644c-7.017-3.061-13.967-6.261-20.888-9.522l-20.61-10.108.571.079-10.128 1.375-10.167 1.145h0zm-14.509 26.181h-.025l-16.716 2.679-16.738 2.507-16.749 2.423-16.767 2.277a1.19 1.19 0 0 1-.532-.055l-20.212-6.971-20.157-7.129c-.571-.198-.873-.821-.675-1.392.133-.375.457-.65.849-.719l27.139-4.268 27.2-3.912-26.954 5.346-27.015 4.99.175-2.111 20.234 6.907 20.179 7.065-.531-.055 16.792-2.095 16.81-1.948 16.822-1.865 16.845-1.677h0zm-65.129-35.583l-18.155 5.017c-1.517.4-3.021.856-4.551 1.2l-4.6.962-9.19 1.987-4.595.994a12.6 12.6 0 0 1-5.124.307 9.1 9.1 0 0 1-4.842-2.355c-1.372-1.383-2.067-3.3-1.9-5.241a14.91 14.91 0 0 1 4.444-9.067 18.36 18.36 0 0 1 4.015-3.026c.723-.403 1.469-.764 2.233-1.083q1.05-.447 2.071-.956c5.505-2.549 10.14-6.658 13.332-11.817a23.57 23.57 0 0 0 2.927-8.393c.392-2.905.4-6.132.554-9.243l1.534-37.577.028.316a4.5 4.5 0 0 0-.627-1.157 7.52 7.52 0 0 0-1.043-1.156 17.39 17.39 0 0 0-2.723-1.838 24.53 24.53 0 0 0-6.55-2.34 50.36 50.36 0 0 0-7.14-.864c-2.415-.135-4.841-.119-7.28-.079 2.41-.33 4.829-.695 7.28-.8 2.466-.14 4.939-.103 7.4.111 2.531.244 5.014.85 7.373 1.8 1.233.519 2.363 1.253 3.337 2.169a8.23 8.23 0 0 1 2.41 3.626.72.72 0 0 1 .031.239v.078L427.19 174.6c-.165 3.146-.143 6.206-.581 9.518a26.07 26.07 0 0 1-3.232 9.26c-3.436 5.584-8.437 10.035-14.382 12.8q-1.083.54-2.2 1.014a19.51 19.51 0 0 0-1.994.966c-1.271.708-2.439 1.587-3.47 2.613a12.53 12.53 0 0 0-3.722 7.454 4.11 4.11 0 0 0 1.166 3.327c.976.891 2.194 1.472 3.5 1.669 1.402.2 2.83.103 4.192-.285l4.6-.994 9.19-1.987 4.588-1.025c1.534-.32 3.092-.528 4.639-.789l18.592-2.934z"/><path d="M410.011 102.938c2.667 3.028 5.133 6.236 8.4 9.344l-34.95 43.291c-.6-41.205-29.255-43.291-29.255-43.291l47.1-17.926a54.75 54.75 0 0 1 4.672 4.17c1.406 1.425 2.71 2.909 4.033 4.412z"/><path d="M433.352 112.282h-14.939a18.75 18.75 0 0 0-1.784-6.4 23.82 23.82 0 0 0-3.589-5.575c-1.468-1.719-3.217-3.177-5.173-4.311-1.983-1.164-4.259-1.735-6.557-1.644l6.657-12.553zm-49.882 43.3c-4.463-1.375-8.625-3.58-12.269-6.5a44.84 44.84 0 0 1-9.633-10.233 26 26 0 0 1-1.865-3.006c-.555-1.042-1.2-2.036-1.675-3.115-.989-2.138-1.798-4.355-2.421-6.627a38.93 38.93 0 0 1-1.4-13.818c1.185 4.347 2.64 8.616 4.357 12.782a61.14 61.14 0 0 0 6.313 11.518c2.464 3.649 5.273 7.052 8.39 10.162a92.84 92.84 0 0 0 10.206 8.841z"/><path d="M371.224 141.691c14.412 0 14.436-22.4 0-22.4-14.412.002-14.435 22.4 0 22.4zm-104.6 91.4l36.848-6.383 37.94-5.97.041-.005a.9.9 0 0 1 .545.1l14.742 7.948 14.8 7.843c4.928 2.623 9.933 5.095 14.907 7.628l15 7.444c.26.129.408.409.368.696s-.26.516-.545.569h-.025l-37.772 6.581-37.835 6.188h-.012a1.28 1.28 0 0 1-.806-.139l-29.575-16.4-28.618-16.098zm.246.042l30.064 15.236 29.107 14.94-.818-.137 37.871-5.967 37.933-5.573-.2 1.27-14.787-7.861-14.882-7.677-14.993-7.461-15.046-7.356.584.1c-12.257 2.166-24.484 3.781-36.87 5.452l-18.777 2.454zm43.781 7.822a81.8 81.8 0 0 1 8.188-1.39l7.836 1.123 15.679 2.2 15.678 2.2 7.839 1.1 7.494 3.563c-2.752.622-5.467.983-8.185 1.366l-7.839-1.1-15.679-2.2-15.678-2.2-7.843-1.074c-2.556-1.068-5.056-2.266-7.49-3.588zm-203.7 6.055l36.848-6.383 37.94-5.97.041-.005a.9.9 0 0 1 .545.1l14.742 7.948 14.8 7.843c4.928 2.623 9.934 5.095 14.907 7.627l15 7.444c.259.129.407.41.367.697s-.259.516-.544.569h-.025l-37.772 6.581-37.835 6.188h-.012a1.28 1.28 0 0 1-.806-.139l-29.575-16.4-28.618-16.1zm.246.042l30.064 15.236 29.107 14.94-.818-.137 37.87-5.967 37.934-5.573-.2 1.27-14.787-7.861-14.882-7.677-14.993-7.461-15.046-7.356.585.1c-12.258 2.166-24.484 3.781-36.87 5.452l-18.777 2.454z"/><path d="M198.094 243.823q6.776-1.385 13.576-2.612l13.611-2.382 27.3-4.231.048-.006c.198-.026.399.011.574.107l14.695 8.042 14.8 7.828 15 7.453 15.066 7.32a.98.98 0 0 1-.255 1.844l-.039.007-18.889 3.269-18.909 3.144-18.955 2.856-18.987 2.657-.044.005c-.151.02-.305-.011-.438-.086q-8.079-4.572-16.074-9.3c-.055-.035-.073-.106-.043-.164s.1-.082.16-.056q8.387 3.992 16.677 8.171l-.481-.08 18.865-3.416 18.9-3.217 18.944-2.928 18.964-2.8-.295 1.85-14.719-7.987-14.792-7.853-14.985-7.477-15.094-7.264.621.1c-9.074 1.587-18.206 2.8-27.323 4.106-4.557.665-9.135 1.187-13.7 1.787q-6.855.864-13.737 1.557c-.064.004-.121-.042-.131-.106s.03-.125.093-.14zm307.564-120.412c-1.043 2.948-2.226 5.835-3.409 8.723l-4.712 7.94-9.043 15.279h-3.489l.541-.9 9.4-15.9 4.712-7.96c1.969-2.411 3.914-4.836 6-7.182zm-22.012 9.985l-1.123 9.826-1.383 12.131h-3.028l1.424-12.472 1.1-9.825c.822-3.228 1.624-6.457 2.626-9.645.239 3.348.319 6.657.384 9.985zm-12.412 21.957h1.9l-1.063-7.439-.862-5.975-1.323-9.384c-.9-3.048-1.785-6.116-2.847-9.143a127.69 127.69 0 0 0-.16 7.84v1.744l.381 2.587.983 6.777 1.865 12.993zm-6.356 0h-3.032l-1.885-12.993-1.343-9.364c-.021-3.188-.021-6.376.16-9.585 1.063 3.028 1.945 6.1 2.848 9.144l1.323 9.384 1.283 8.943z"/><path d="M467.259 133.817v1.764l-.02 7.459v12.312h-3.008v-21.535l1.5-9.224 1.143 6.657.385 2.567zm9.264 1.544l-1.043 9.164-1.223 10.828h-3.033l.843-7.439.421-3.73 1.023-9.164 2.527-8.983.486 9.324zm-20.934 32.263v10.828l1.564-.161 4.512-10.126-6.076-.541zm6.637.722l-4.832 9.925 8.743-.622zm.642-.1l4.131 8.9 3.288-8.6-7.419-.3zm8.462 1.163l-3.389 8.181 6.417-.14zm4.271-.782l-3.148-.04 3.068 7.559 2.607-7.559-2.527.04zm3.87 1.9l-2.627 6.918 5.053.1-2.426-7.018zm1.4-1.985l2.486 7.158 3.249-7.359-5.735.2zm6.857.922l-3.088 8.161 6.9.421-3.81-8.582zm-32.143-14.116v12.271a171.3 171.3 0 0 1 20.011-1l3.669.04c.177-.05.364-.05.541 0a194.57 194.57 0 0 1 7.66.281.73.73 0 0 1 .2-.04c.103.001.205.021.3.06l7.639.661v-12.268zm4.672 8.963a3.01 3.01 0 0 1-2.277-5.097 3.01 3.01 0 0 1 5.177 2.089 3.01 3.01 0 0 1-2.9 3.008zm10.828 0a3.01 3.01 0 0 1-2.277-5.097 3.01 3.01 0 0 1 5.177 2.089 3.01 3.01 0 0 1-2.9 3.008zm10.467-.361a3.01 3.01 0 0 1-2.277-5.097 3.01 3.01 0 0 1 5.177 2.089 3.01 3.01 0 0 1-2.9 3.008zm10.286.361a3.01 3.01 0 0 1-2.277-5.097 3.01 3.01 0 0 1 5.177 2.089 3.01 3.01 0 0 1-2.9 3.008zm-3.228 3.91c1.122 3.268 2.205 6.537 3.208 9.846l3.789.381v-10.823c-2.326.26-4.652.461-7 .6zm-26.388.12l-4.828 9.934c2.908-.3 5.835-.5 8.743-.622zm.642-.1l4.131 8.9 3.288-8.6c-2.466-.041-4.953-.161-7.419-.3zm8.462 1.163l-3.389 8.181c2.145-.08 4.271-.12 6.417-.14zm4.271-.782l-3.148-.04 3.068 7.559 2.607-7.559-2.527.039zm3.87 1.9l-2.627 6.918 5.053.1-2.426-7.019zm1.4-1.985l2.486 7.158 3.249-7.359c-1.906.1-3.81.16-5.735.2zm6.857.922l-3.088 8.161a131.87 131.87 0 0 1 6.9.421c-1.324-2.848-2.567-5.7-3.81-8.582zm-25.5-1.112l-4.83 9.928c2.908-.3 5.835-.5 8.743-.622zm.642-.1l4.131 8.9 3.288-8.6c-2.467-.041-4.953-.161-7.419-.3zm8.462 1.163l-3.389 8.181c2.145-.08 4.271-.12 6.417-.14zm4.271-.782l-3.148-.04 3.068 7.559 2.607-7.559-2.527.039zm3.87 1.9l-2.627 6.918 5.053.1-2.426-7.019zm1.4-1.985l2.486 7.158 3.249-7.359c-1.906.1-3.811.16-5.735.2zm6.857.922l-3.088 8.161a131.87 131.87 0 0 1 6.9.421c-1.324-2.848-2.567-5.7-3.811-8.583zm-32.143 20.713v2.486c0 11.052 8.959 20.012 20.012 20.012s20.012-8.959 20.012-20.012v-2.486c-13.308 1.337-26.715 1.337-40.023 0zm28.192-10.888c-.26.174-.589.212-.882.1a1.22 1.22 0 0 1-.12-.08l-7.179.141a180.55 180.55 0 0 1-20.011-1v11.73c13.308-1.337 26.715-1.337 40.023 0v-11.729c-3.95.461-7.88.7-11.831.842zm-22.618 8.121a3.01 3.01 0 0 1-2.277-5.097 3.01 3.01 0 0 1 5.177 2.089 3.01 3.01 0 0 1-2.9 3.008zm9.2-.181a3.01 3.01 0 0 1-2.277-5.097 3.01 3.01 0 0 1 5.177 2.089 3.01 3.01 0 0 1-2.9 3.008zm10.106 0a3.01 3.01 0 0 1-2.277-5.097 3.01 3.01 0 0 1 5.177 2.089 3.01 3.01 0 0 1-2.9 3.008zm10.106-.361a3.01 3.01 0 0 1-2.277-5.097 3.01 3.01 0 0 1 5.177 2.089 3.01 3.01 0 0 1-2.9 3.008zm.962-8.823c-1.324-2.847-2.567-5.694-3.81-8.582l-3.088 8.161c2.305.079 4.611.22 6.9.42zm-4.933-9.7a178.03 178.03 0 0 1-5.735.2l2.486 7.158 3.248-7.36zm-4.712 9.2l-2.426-7.018-2.627 6.918 5.053.1zm-3.769-8.963l-2.527.04-3.148-.04 3.068 7.559zm-3.77 8.863l-3.028-8.041-3.389 8.181a225.04 225.04 0 0 1 6.416-.141zm-4.07-8.9c-2.466-.04-4.953-.161-7.419-.3l4.131 8.9zm-8.061-.2l-4.822 9.929c2.908-.3 5.835-.5 8.743-.622zm25.505 1.123l-3.088 8.161a131.87 131.87 0 0 1 6.9.421c-1.324-2.848-2.567-5.7-3.811-8.582zm-6.857-.922l2.486 7.158 3.249-7.359c-1.906.1-3.811.16-5.735.2zm-1.4 1.985l-2.627 6.918 5.053.1-2.427-7.019zm-3.87-1.9l-3.148-.04 3.068 7.559 2.607-7.559-2.527.039zm-4.271.782l-3.389 8.181c2.145-.08 4.271-.12 6.417-.14zm-8.462-1.163l4.131 8.9 3.288-8.6c-2.467-.041-4.953-.161-7.419-.3zm-.642.1l-4.825 9.924c2.908-.3 5.835-.5 8.743-.622zm25.505 1.123l-3.088 8.161a131.87 131.87 0 0 1 6.9.421c-1.324-2.848-2.567-5.695-3.81-8.582zm-6.857-.922l2.486 7.158 3.249-7.359c-1.906.1-3.811.16-5.735.2zm-1.4 1.985l-2.627 6.918 5.053.1-2.426-7.018zm-3.87-1.9l-3.148-.04 3.068 7.559 2.607-7.559-2.527.04zm-4.271.782l-3.389 8.181c2.145-.08 4.271-.12 6.417-.14zm-8.462-1.163l4.131 8.9 3.288-8.6c-2.467-.041-4.953-.161-7.419-.3zm-.642.1l-4.828 9.919c2.908-.3 5.835-.5 8.743-.622zM129.87 497.306c.372 4.951.562 9.9.824 14.854l.575 14.854.35 14.854.191 14.854-1.427-1.871 13.953 3.765-1-.015 13.9-3.3-1.467 1.865.58-27.569.565-13.784.775-13.784c.346 4.594.535 9.189.775 13.784.26 4.595.39 9.19.565 13.784l.58 27.569a1.89 1.89 0 0 1-1.431 1.857l-.036.008-13.862 3.444c-.329.08-.673.075-1-.015l-13.924-3.87c-.841-.235-1.424-.999-1.428-1.872l.191-14.854.35-14.854.575-14.854.826-14.85z"/><path d="M143.783 501.803c.983 9.789 1.212 19.579 1.257 29.368-.03 9.79-.25 19.58-1.23 29.37-.989-9.789-1.217-19.579-1.257-29.369.036-9.79.256-19.58 1.23-29.369zM2.456 431.178c.393 4.951.585 9.9.865 14.854l.577 14.854.515 29.708-1.44-1.887 13.944 3.8-.986-.014 13.917-3.244-1.409 1.792.23-11.918.363-11.918.538-11.918.714-11.918c.314 3.973.5 7.945.714 11.918l.538 11.918.363 11.918.23 11.918a1.8 1.8 0 0 1-1.333 1.773l-.076.02-13.856 3.495c-.31.079-.635.079-.945 0l-.042-.011-13.935-3.833h-.017a1.95 1.95 0 0 1-1.423-1.883c.031-9.9.228-19.805.515-29.708l.577-14.854.862-14.862z"/><path d="M16.369 435.673c.983 9.789 1.212 19.579 1.257 29.368-.031 9.79-.251 19.58-1.231 29.37-.989-9.789-1.217-19.579-1.257-29.368.036-9.79.257-19.58 1.231-29.37zm317.575 40.428c.335 4.4.524 8.8.754 13.205l.556 13.205.585 26.411-1.045-1.694 12.584 6.216-1.416-.141 14.794-4.007-1.429 1.873.188-14.573.349-14.573.576-14.572.829-14.573c.375 4.857.565 9.715.829 14.573l.576 14.572.349 14.573.188 14.573a1.95 1.95 0 0 1-1.429 1.873l-14.771 4.091-.031.008a1.95 1.95 0 0 1-1.385-.149l-12.5-6.378-.033-.017a1.86 1.86 0 0 1-1.012-1.677l.585-26.411.556-13.205.753-13.202z"/><path d="M347.607 474.481c.792 10.141.83 20.269.683 30.393-.221 10.123-.632 20.242-1.8 30.347-.8-10.141-.835-20.269-.683-30.393.224-10.124.632-20.242 1.8-30.347zm148.032-100.947a16.97 16.97 0 0 1-5.767-1.369c-5.469-2.213-10.355-5.656-14.279-10.061 1.822.7 3.593 1.527 5.3 2.475 1.708.891 3.345 1.878 4.992 2.837l4.853 3.018 4.901 3.1zM85.719 138.048c1.623 2.664 3.562 5.121 5.775 7.319a13.5 13.5 0 0 1-6.477-1.4c-1.451-.748-2.676-1.869-3.549-3.248-.851-1.399-1.321-2.995-1.363-4.632a13.33 13.33 0 0 1 1.523-6.437 37.92 37.92 0 0 0 4.091 8.4zm7.319.883a13.21 13.21 0 0 1-1.544 6.437 37.9 37.9 0 0 0-4.09-8.4c-1.628-2.66-3.566-5.117-5.775-7.319 2.238-.08 4.46.41 6.457 1.424a9.34 9.34 0 0 1 3.569 3.229c.869 1.391 1.347 2.99 1.384 4.629zm-12.673 18.247a37.98 37.98 0 0 0 5.8 7.319c-2.242.081-4.469-.4-6.477-1.4-1.456-.748-2.688-1.868-3.569-3.248a9.38 9.38 0 0 1-1.363-4.632 13.33 13.33 0 0 1 1.524-6.436 38.82 38.82 0 0 0 4.091 8.4zm7.319.882a13.38 13.38 0 0 1-1.523 6.437c-1.029-2.951-2.402-5.77-4.09-8.4-1.636-2.661-3.583-5.118-5.8-7.319 2.238-.082 4.461.408 6.457 1.424 2.987 1.492 4.896 4.522 4.953 7.86zM74.33 178.232c1.629 2.665 3.574 5.123 5.795 7.319-2.245.085-4.474-.406-6.477-1.424a9.04 9.04 0 0 1-3.569-3.228c-.851-1.398-1.322-2.995-1.364-4.632a13.28 13.28 0 0 1 1.524-6.437c1.02 2.955 2.394 5.775 4.091 8.4z"/><path d="M81.649 179.094a13.4 13.4 0 0 1-1.524 6.457 38.86 38.86 0 0 0-4.11-8.4 39.3 39.3 0 0 0-5.775-7.319c2.238-.082 4.461.408 6.457 1.424 1.451.746 2.682 1.859 3.569 3.229a9.11 9.11 0 0 1 1.383 4.609zm-10.267 21.553a38.89 38.89 0 0 0 5.795 7.339 13.2 13.2 0 0 1-6.477-1.424c-2.964-1.514-4.859-4.532-4.933-7.86-.033-2.239.491-4.451 1.524-6.437 1.029 2.945 2.402 5.759 4.091 8.382z"/><path d="M78.701 201.527c.051 2.247-.473 4.47-1.524 6.457-2.116-5.895-5.489-11.259-9.885-15.72 2.238-.082 4.461.408 6.457 1.424 1.459.734 2.693 1.849 3.569 3.228a8.86 8.86 0 0 1 1.383 4.611zm-8.2 12.819a13.35 13.35 0 0 1 6.461 1.421c1.456.744 2.688 1.861 3.571 3.237a9.09 9.09 0 0 1 1.382 4.613c.042 2.244-.486 4.462-1.535 6.446-2.243.085-4.471-.401-6.475-1.412a9.09 9.09 0 0 1-3.557-3.246c-.857-1.392-1.329-2.987-1.368-4.622-.04-2.238.483-4.45 1.522-6.433zm28.631-70.406a60.81 60.81 0 0 0-7.74 4.371 15.48 15.48 0 0 1 2.306-5.975 8.55 8.55 0 0 1 3.229-2.888c1.269-.621 2.683-.885 4.09-.762 2.07.206 4.106.676 6.056 1.4z"/><path d="M105.951 146.751a8.6 8.6 0 0 1-8.582 4.291c-2.214-.309-4.291-1.257-5.975-2.727a20.64 20.64 0 0 0 4.451-.9 32.68 32.68 0 0 0 4.191-1.664c1.359-.67 2.654-1.462 3.87-2.366a12.69 12.69 0 0 0 3.168-3.288c.479 2.281.078 4.659-1.123 6.657zm-9.945 15.239c-3.309 1.2-6.677 2.266-10.066 3.689a18.51 18.51 0 0 1 4.05-5.734 12.58 12.58 0 0 1 4.331-2.667c1.526-.553 3.154-.772 4.772-.642 2.233.224 4.446.62 6.618 1.183-3.103 1.679-6.351 3.075-9.705 4.171z"/><path d="M103.445 165.038c-2.673 3.257-6.906 4.801-11.048 4.03a12.44 12.44 0 0 1-6.457-3.389 23.58 23.58 0 0 0 5.454-.421 32.42 32.42 0 0 0 5.273-1.383c1.739-.597 3.407-1.383 4.973-2.346 1.6-.94 2.987-2.204 4.071-3.71a9.44 9.44 0 0 1-2.266 7.219zM92.236 177.59c-3.308 1.2-6.677 2.266-10.066 3.69.971-2.158 2.354-4.106 4.07-5.735a12.33 12.33 0 0 1 4.311-2.667c1.526-.553 3.154-.772 4.772-.642 2.233.224 4.445.62 6.617 1.183-3.102 1.678-6.348 3.074-9.7 4.17z"/><path d="M99.675 180.638c-2.672 3.257-6.906 4.802-11.048 4.03a12.44 12.44 0 0 1-6.457-3.388c1.828.072 3.658-.07 5.454-.421 1.793-.312 3.557-.775 5.273-1.384a24.97 24.97 0 0 0 4.973-2.346c1.6-.94 2.987-2.203 4.071-3.709a9.44 9.44 0 0 1-2.266 7.218zm-10.607 16.061c-3.348 1.524-6.857 2.767-10.366 4.331.981-2.211 2.361-4.223 4.07-5.935a14.54 14.54 0 0 1 4.271-2.987 12.83 12.83 0 0 1 4.632-1.083c1.724-.161 3.488.18 6.6-.241a16.74 16.74 0 0 1-4.311 3.449c-1.575.929-3.209 1.753-4.893 2.466z"/><path d="M98.853 192.969c.023.711-.024 1.423-.14 2.125a10.56 10.56 0 0 1-1.544 3.629c-1.294 1.937-3.117 3.461-5.253 4.391a12.33 12.33 0 0 1-6.317.983 12.63 12.63 0 0 1-6.9-3.068 23.7 23.7 0 0 0 5.715-.7 30.15 30.15 0 0 0 5.474-1.8c1.799-.767 3.48-1.787 4.993-3.027 1.578-1.194 2.759-2.836 3.389-4.712.151.352.278.714.381 1.083a9.81 9.81 0 0 1 .202 1.096zm-20.232 30.9c.109-2.207.592-4.379 1.429-6.424a10.48 10.48 0 0 1 2.418-3.581 7.96 7.96 0 0 1 3.3-1.808c1.941-.363 3.817-1.011 5.569-1.922a8.61 8.61 0 0 1 .83.7c.235.266.454.545.656.837a8.03 8.03 0 0 1 .789 1.855 8.49 8.49 0 0 1 .072 3.708 9.9 9.9 0 0 1-3.072 5.479 9.65 9.65 0 0 1-5.173 2.463c-2.355.323-4.752-.137-6.82-1.31zm19.39-98.152a44.5 44.5 0 0 0-2.366 9.925c-1.455-1.841-2.421-4.021-2.807-6.336a11.04 11.04 0 0 1 .421-5.234c.582-1.682 1.574-3.191 2.888-4.391 1.736-1.576 3.838-2.693 6.115-3.249-1.764 2.924-3.19 6.038-4.251 9.284z"/><path d="M104.648 128.002a10.74 10.74 0 0 1-2.907 4.372 13.9 13.9 0 0 1-6.1 3.268 47.24 47.24 0 0 0 4.251-9.284 44.77 44.77 0 0 0 2.366-9.926c1.46 1.841 2.433 4.021 2.828 6.337a10.8 10.8 0 0 1-.442 5.233zm-34.146 86.353c2.217 2.2 4.16 4.66 5.787 7.326a38.3 38.3 0 0 1 4.091 8.392 38.32 38.32 0 0 1-5.787-7.326c-1.697-2.622-3.07-5.44-4.09-8.392zm8.118 9.519l7.242-6.317c1.159-1.022 2.233-2.138 3.211-3.335a11.96 11.96 0 0 0 2.266-4.084 7.26 7.26 0 0 1-.956 4.941 15.04 15.04 0 0 1-3.163 3.953 22.56 22.56 0 0 1-4.029 2.923 18.29 18.29 0 0 1-4.571 1.914z"/><path d="M68.014 238.747l.923 1.885 1.023 2.146 1.784 3.77 1.584-4.111.962-2.366.4-1-6.676-.324zm8.642 3.349l-.521-1.263-.541 1.383-2.387 5.935 5.9-.16zm6.357-2.968l-2.907.04-2.547-.04.222.566.822 2.225 1.784 4.752 1.925-5.113.9-2.427zm1.7 2.186l-.421-1.183-.441 1.263-2.266 6.617 5.614.14zm.581-2.225l.7 2.105 2.105 6.356 2.948-6.838.822-1.925-6.577.3zm7.8 1.424l-.622-1.524-.642 1.644-2.948 7.6 7.62.722zm-25.085-1.765l.923 1.885 1.023 2.146 1.784 3.77 1.584-4.111.962-2.366.4-1-6.677-.321zm8.642 3.349l-.521-1.263-.541 1.383-2.387 5.935 5.9-.16zm6.357-2.968l-2.907.04-2.547-.04.227.565.822 2.225 1.784 4.752 1.925-5.113.9-2.427zm1.7 2.186l-.421-1.183-.441 1.263-2.266 6.617 5.614.14zm.581-2.225l.7 2.105 2.105 6.356 2.948-6.838.822-1.925-6.577.3zm7.8 1.424l-.622-1.524-.642 1.644-2.948 7.6 7.62.722zm-26.147-.883l-.682 1.284 1.143-.12-.461-1.163zm1.062-.882l.923 1.885 1.023 2.146 3.368-.341.962-2.366.4-1-6.677-.321zm8.121 2.085l-.541 1.383 1.062-.12zm3.97-1.664l-2.547-.04.233.564 5.234-.562-2.907.04zm-22.879-29.555l4.451 28.553 5.033-.521a.59.59 0 0 1 .541-.08l.04.04 8.5-.4a1.17 1.17 0 0 1 .642 0l3.67-.04c5.053.021 10.085.14 15.118.622l3.329.381.12-.762 4.311-27.791zm7.078 26.889a3.01 3.01 0 0 1-2.277-5.097 3.01 3.01 0 0 1 5.177 2.089 3.01 3.01 0 0 1-2.9 3.008zm10.828 0a3.01 3.01 0 0 1-2.277-5.097 3.01 3.01 0 0 1 5.177 2.089 3.01 3.01 0 0 1-2.9 3.008zm10.466-.361a3.01 3.01 0 0 1-2.277-5.097 3.01 3.01 0 0 1 5.177 2.089 3.01 3.01 0 0 1-2.9 3.008zm10.287.361a3.01 3.01 0 0 1-2.269-5.099 3.01 3.01 0 0 1 5.175 2.089 3.01 3.01 0 0 1-2.9 3.008zm-2.787 4.01l-.622-1.524-.642 1.644-2.948 7.6c2.526.141 5.073.361 7.62.722zm-7.8-1.424l.7 2.105 2.105 6.356 2.948-6.838.822-1.925c-2.185.141-4.391.241-6.577.3zm-.581 2.225l-.421-1.183-.441 1.263-2.266 6.617 5.614.14zm-1.7-2.186l-2.907.04-2.547-.04.228.565.822 2.225 1.784 4.752 1.925-5.113.9-2.427zm-6.357 2.968l-.521-1.263-.541 1.383-2.387 5.935 5.9-.16zm-8.642-3.349c.321.622.622 1.263.923 1.885l1.023 2.146 1.784 3.77 1.584-4.111.962-2.366c.12-.341.261-.662.4-1-2.225-.06-4.451-.161-6.677-.321zm25.085 1.765l-.622-1.524-.642 1.644-2.948 7.6c2.526.141 5.073.361 7.62.722zm-7.8-1.424l.7 2.105 2.105 6.356 2.948-6.838.822-1.925c-2.186.141-4.391.241-6.577.3zm-.581 2.225l-.421-1.183-.441 1.263-2.266 6.617 5.614.14zm-1.7-2.186l-2.907.04-2.547-.04.223.566.822 2.225 1.784 4.752 1.925-5.113.9-2.427zm-6.357 2.968l-.521-1.263-.541 1.383-2.387 5.935 5.9-.16zm-8.642-3.349c.321.622.622 1.263.923 1.885l1.023 2.146 1.784 3.77 1.584-4.111.962-2.366c.12-.341.261-.662.4-1-2.225-.06-4.452-.161-6.677-.321zm15 .381l-5.234.562.822 2.225 3.709-.361.9-2.427zm1.283 1l-.441 1.263c.28-.02.581-.04.862-.08zm1-1.042l.7 2.105 5.053-.482.822-1.925c-2.186.141-4.391.241-6.577.3zm7.179-.1l-.642 1.644 1.263-.12zm.521-.281l.642 1.765 3.067 8.482v.02a.44.44 0 0 1 .161.02l1.4-8.963.281-1.865c-1.865.241-3.71.4-5.554.541zm3.69 10.307c0 .02 0 .06-.04.06a.1.1 0 0 1-.12-.04 128.94 128.94 0 0 1-16.422.963c-2.587-.02-5.173-.08-7.76-.2a.9.9 0 0 1-.9.1 1.68 1.68 0 0 1-.241-.161c-2.607-.16-5.233-.381-7.84-.742l1.343 8.622h30.819l1.343-8.622a.55.55 0 0 0-.18.02zm-25.546 7.84a3.01 3.01 0 0 1-2.262-5.1 3.01 3.01 0 0 1 5.172 2.092 3.01 3.01 0 0 1-2.91 3.008zm10.106 0a3.01 3.01 0 0 1-2.262-5.1 3.01 3.01 0 0 1 5.172 2.092 3.01 3.01 0 0 1-2.908 3.01zm10.106-.361a3.01 3.01 0 0 1-2.262-5.1 3.01 3.01 0 0 1 5.172 2.092 3.01 3.01 0 0 1-2.91 3.008zm1.745-15.981l-.622-1.524-.642 1.644-2.948 7.6c2.526.141 5.073.361 7.62.722zm-7.8-1.424l.7 2.105 2.105 6.356 2.948-6.838.822-1.925c-2.186.141-4.391.241-6.577.3zm-.581 2.225l-.421-1.183-.441 1.263-2.266 6.617 5.614.14zm-1.7-2.186l-2.907.04-2.547-.04.219.569.822 2.225 1.784 4.752 1.925-5.113.9-2.427zm-6.357 2.968l-.521-1.263-.541 1.383-2.387 5.935 5.9-.16zm-8.642-3.349c.321.622.622 1.263.923 1.885l1.023 2.146 1.784 3.77 1.584-4.111.962-2.366c.12-.341.261-.662.4-1-2.225-.06-4.451-.161-6.677-.321zm.261 4.191l-.862-2.146c-.161-.381-.3-.782-.461-1.163l-.682 1.284-1.243 2.346q-.933 1.775-1.925 3.549c-.016.015-.039.023-.061.02l.321 2.166c2.366-.341 4.752-.541 7.118-.7l-2.206-5.353zm1.685-.161l1.784 3.77 1.584-4.111-3.368.341zm6.7-.681l-1.062.12-2.387 5.935 5.9-.16zm1.945-.181l1.784 4.752 1.925-5.113-3.709.361zm6.115-.6c-.28.04-.581.06-.862.08l-2.266 6.617 5.614.14zm1.284-.12l2.105 6.356 2.948-6.838zm7.1-.682l-1.263.12-2.948 7.6c2.526.141 5.073.361 7.62.722zm-31.426-2.345l.5 3.188.321 2.166.482 3.028 1.263-3.208c.3-.782.622-1.544.942-2.306l.983-2.407c-1.507-.119-2.991-.28-4.491-.461z"/><path d="M82.888 233.606a12.58 12.58 0 0 1-3.589-5.578l-.965-3.225-.678-3.3a77.8 77.8 0 0 1-.505-13.4c.079-4.48.749-8.893 1.267-13.325.812-4.375 1.438-8.8 2.5-13.12 1-4.337 1.993-8.673 3.253-12.935 1.214-4.276 2.379-8.562 3.875-12.747 1.446-4.2 2.744-8.443 4.352-12.58l4.867-12.384-7.386 25.518-1.786 6.383-1.644 6.417c-.531 2.142-1.172 4.258-1.65 6.41l-1.451 6.453c-1.1 4.277-1.723 8.637-2.609 12.954-.65 4.347-1.334 8.7-1.685 13.073a78.2 78.2 0 0 0-.193 13.137l.39 3.257c.144 1.085.453 2.132.673 3.209a13.44 13.44 0 0 0 2.965 5.78zm-19.867 13.161l-.04-.22-.06.18c-.02.04 0 .08.04.12.04.02.06 0 .08-.02zm70.957 3.864c6.576-1.81 13.247-3.255 19.983-4.327 6.721-1.162 13.501-1.947 20.31-2.35a182.6 182.6 0 0 1-19.982 4.328 184.69 184.69 0 0 1-20.31 2.35zm79.588-.879a184.53 184.53 0 0 1 19.982-4.327 182.49 182.49 0 0 1 20.31-2.35 182.46 182.46 0 0 1-19.982 4.327 184.74 184.74 0 0 1-20.31 2.35zm81.61-14.143c6.576-1.81 13.247-3.255 19.982-4.327 6.721-1.162 13.501-1.947 20.31-2.35a182.48 182.48 0 0 1-19.982 4.327 184.71 184.71 0 0 1-20.31 2.35zm340.8 126.705a45.86 45.86 0 0 1-10.916-10.4 99.06 99.06 0 0 1-8.4-12.56c-2.492-4.379-4.745-8.886-6.821-13.469s-4.017-9.206-5.747-14l1.905 1.19c-10.05 1.303-20.264.421-29.942-2.586-4.807-1.409-9.508-3.161-14.064-5.243a129.94 129.94 0 0 1-13.291-6.845 184.08 184.08 0 0 1-24.342-17.1 230.95 230.95 0 0 1-21.627-20.35l-.033-.035c-.498-.539-.488-1.372.021-1.9 2.92-3.02 5.943-5.826 9.077-8.558 3.117-2.738 6.407-5.278 9.767-7.719a68.94 68.94 0 0 1 10.685-6.456 28.81 28.81 0 0 1 12.141-3.348.77.77 0 0 1 .243.04l12 3.99 12.007 3.96 24.068 7.759-1.545.839 10.531-44.091q5.327-22.03 10.852-44.008l-.047.232a17.4 17.4 0 0 1 1.179-3.657c.458-1.094 1-2.115 1.542-3.139 1.129-1.975 2.392-3.87 3.782-5.671a74.47 74.47 0 0 1 9.089-9.81 132.12 132.12 0 0 1 21.249-15.59 107.08 107.08 0 0 1 11.774-6.115 108.54 108.54 0 0 1 12.479-4.511c8.501-2.518 17.314-3.828 26.18-3.893 8.853-.092 17.673 1.089 26.19 3.508a76.18 76.18 0 0 1 12.406 4.748c.986.515 1.945 1.087 2.917 1.628l1.452.823 1.382.946c.915.639 1.85 1.245 2.743 1.911l2.569 2.151a44.4 44.4 0 0 1 13.688 22.417 67.97 67.97 0 0 1 .717 26 .25.25 0 0 1-.283.209c-.129-.021-.22-.137-.211-.267a69.67 69.67 0 0 0-2.2-25.39 42.44 42.44 0 0 0-13.76-20.553l-2.474-1.907c-.861-.587-1.763-1.118-2.64-1.679l-1.323-.832-1.4-.714-2.794-1.415a74.42 74.42 0 0 0-11.858-4.182 87.98 87.98 0 0 0-25.03-2.715 89.25 89.25 0 0 0-12.539 1.275 93.58 93.58 0 0 0-12.269 2.857 103.41 103.41 0 0 0-11.8 4.42c-3.827 1.743-7.558 3.69-11.176 5.833a138.62 138.62 0 0 0-20.524 14.86 69.51 69.51 0 0 0-8.616 9.03c-1.27 1.598-2.429 3.281-3.469 5.038-.476.879-.962 1.755-1.349 2.649a14.73 14.73 0 0 0-.883 2.465l-.048.233q-5.755 21.92-11.7 43.792l-12.016 43.709-.01.038c-.173.63-.824 1-1.454.827l-.081-.025-23.863-8.368-11.958-4.1-11.969-4.073.241.039c-4.005.245-7.906 1.367-11.429 3.287a65.14 65.14 0 0 0-10.267 6.538 109.8 109.8 0 0 0-9.319 7.928c-2.962 2.8-5.861 5.719-8.544 8.728l-.012-1.933a229.84 229.84 0 0 0 22.04 19.164 224.83 224.83 0 0 0 24.089 16.378c4.189 2.433 8.457 4.72 12.849 6.722a100.34 100.34 0 0 0 13.47 5.177 69.1 69.1 0 0 0 28.255 3.159l.07-.007c.819-.087 1.587.415 1.836 1.2 1.49 4.667 3.248 9.343 5.118 13.924s3.927 9.111 6.213 13.5c2.185 4.445 4.699 8.72 7.522 12.789a49.5 49.5 0 0 0 9.982 10.9.25.25 0 0 1 .055.348c-.079.104-.223.131-.335.064zM204.059 54.824l56.87 2.029-14.785-23.086 12.877-7.434-58.655-1.247 16.957 22.08z"/></g><path d="M188.358 8.088a11.92 11.92 0 0 0-8.485 3.515 11.92 11.92 0 0 0-3.515 8.485V40.05l-.569.272c-.017.008-1.685.81-3.341 2.02-1.993 1.456-3.09 2.862-3.09 3.961 0 1.109 1.1 2.586 3.097 4.16a26.02 26.02 0 0 0 3.373 2.229l.529.282v22.114a11.92 11.92 0 0 0 12 12h83a11.92 11.92 0 0 0 12-12v-55a11.92 11.92 0 0 0-3.515-8.485 11.92 11.92 0 0 0-8.485-3.515h-83m0-1h83c7.18 0 13 5.82 13 13v55c0 7.18-5.82 13-13 13h-83c-7.18 0-13-5.82-13-13V53.574s-7-3.733-7-7.272 7-6.883 7-6.883V20.088c0-7.18 5.82-13 13-13z" fill="#fff"/><path fill="none" stroke="#707070" stroke-width="2" d="M204.858 66.588h35"/></svg>