<svg xmlns="http://www.w3.org/2000/svg" viewBox="0 0 400.79 388.9" fill="#fbd349" xmlns:v="https://vecta.io/nano"><path d="M333.15 42.35c.67-7.82-1.88-17.58-5.67-23.68-5.45-8.79-15.02-11.69-24.82-12.62-19.53-1.85-41.96 9.2-39.29 30.33-54.85-2.47-110.2-1.85-164.76-1.51-.21 0-.35.11-.55.13-45.95-.39-80.15 17.16-91.01 63.9-7.62 32.74-4.81 69.9-5.52 103.31-.67 31.56-3.17 63.47.16 94.94 5.81 54.93 48.54 68.02 96.98 69.91l217.44 5.76c33.18.77 62.19-8.4 71.76-43.78 9.05-33.45 8.2-69.69 9.07-104.11.83-32.71 2.42-65.54 1.74-98.26-1.01-48.77-23.44-75.57-65.54-84.32zm-48.7-18.28c6.39-3.46 14.47-2.93 21.38-1.9 10.06 1.5 10.26 9.84 11.47 17.81-.44-.04-.84-.11-1.28-.15-12.72-1.13-25.51-1.96-38.31-2.67.71-5.27 1.3-10.14 6.73-13.08zM32.57 75.81C46.08 53.8 74.69 48.75 98.36 47.77c.03 0 .04.02.08.02l170.66 5.63c48.51 2.86 102.33-3.7 112.63 57.37 2.85 16.89 3.78 34.71 3.72 52.84l-75.24-2.08c-17.64-47.07-64.97-75.09-117.22-70.26-42.63 3.95-74.78 30.27-90.19 65.27l-84.39-1.62.21-6.53c.96-24.59.67-50.95 13.96-72.6zm339.7 185.17c-5.94-13.78-19.27-26.93-28.17-38.69-6.53-8.63-13.17-17.12-20.07-25.47-2.29-2.78-4.66-6.26-7.45-9.03-.46-3.73-1.05-7.39-1.84-10.96l14.01.3c6.62 14.8 17.86 28.88 27.33 41.25 8.05 10.52 15.98 22.92 24.69 33.39l-.57 9.84-7.94-.63zM16.46 224.24c2.45 3.32 5.06 6.51 7.32 9.62 3.6 4.96 7 10.57 10.62 15.91l-18.59-.48.38-12.41.28-12.63zm25.4 25.73c-3.33-5.8-7.93-11.21-11.61-16.23-4.22-5.77-8.59-12.62-13.59-18.42l.42-18.44c6.13 7.97 13.54 15.29 19.85 22.64 7.78 9.06 14.9 21.4 23.41 30.92l-18.48-.48zm27.02.7c-5.25-11.22-16.06-21.17-23.68-30-8.77-10.14-17.65-22.01-27.92-31.3l.7-21.58c.36.03.73.04 1.09.07 8.87 14.22 20.65 26.71 31.52 39.39l37.36 43.92-19.07-.5zm27.15.71c-11.07-14.41-23.75-27.66-35.96-41.05-12.58-13.79-24.18-28.78-37.17-42.23l22.36 1.26c5.11 10.23 16.18 19.85 23.02 27.97 7.22 8.58 16.12 23.08 26.26 29.41 1.24 8.73 3.25 17.01 6.02 24.75l-4.52-.12zm-2.57-59.23c-2.71-3.97-5.88-7.72-8.1-10.84-2.16-3.03-4.74-7.19-7.79-10.63l19.92.68c-1.94 6.74-3.29 13.68-4.03 20.79zm-23.03-21.73c3.42 5.69 9.18 11.13 12.6 16.16 3.01 4.42 5.89 10.76 9.79 15.24-.11 4.71.08 9.45.53 14.23-6.1-8.05-14.97-15.82-20.56-22.15-6.19-7.01-12.76-17.15-20.44-24.22l18.08.73zm36.14 50.39c-.01-.07-.06-.1-.07-.17-1.98-57.46 30.33-103.79 88.5-112.9 56.23-8.81 96.95 32.96 106 85.16 10.07 58.09-42.65 102.21-95 110.08-55.72 8.39-88.28-32.76-99.43-82.18zm203.48 20.82c2.67 3.93 5.58 7.74 8.13 11.76.75 1.18 1.71 3.11 2.84 5.08l-18.47-.6c2.94-5.18 5.37-10.64 7.5-16.23zm18.28 17.09c-2.46-3.25-4.62-6.73-6.88-10.11-2.65-3.97-5.64-8.54-9.78-11.13 1.85-5.53 3.15-11.27 4.15-17.1 3.29 5.81 7.5 11.29 11.07 16.66 4.78 7.21 9.18 15.2 14.58 22.15l-13.14-.48zm19.94.82c-4.01-7.81-9.69-14.94-14.62-22.1-5.18-7.49-10.19-16.36-16.85-22.95.65-5.58.73-11.28.52-17.03 6.09 8.88 14.79 17.68 20 24.62 8.93 11.87 17.16 27.05 27.49 38.31l-16.53-.85zm33.35-20.49c-4.6-5.91-10.09-11.39-14.1-16.21-12.04-14.47-22.05-30.92-33.84-45.6l23.23.31c2.99 8.7 8.7 16.86 13.33 24.56 3.69 6.15 7.71 13.76 12.56 20.26l-1.17 16.69zm-5.15-36.13c-5.12-7.94-9.27-17.42-14.86-25.36 7.89 0 15.77-.16 23.62-.47-.33 11.82-1 23.69-1.78 35.48-2.46-3.23-4.91-6.43-6.98-9.64zm-16.99 144.9c-11.58 11.22-31.34 9.75-46.05 9.41l-172.17-4.09c-45.61-2.26-108.57 6.9-122.55-49.25-3.3-13.26-3.64-27.28-3.33-41.22 30.55 2.53 61.29 3.09 91.92 4.08 18.93 35.33 55.28 55.89 100.62 51.97 34.5-2.98 64.74-20.7 84.71-46.25l86.97 2.39c-.91 24.93-1.87 55.26-20.13 72.95zm-116.96-147.9c-3.89-50.02-81.68-38.72-74.31 10.81 0 .07-.02.12-.01.19 5.43 50.02 77.94 35.53 74.32-11zm-11.49-57.55c18.6-4.88 46.04 20.89 42.11 39.61-.22 1.07-1.56.99-2.2.44-7.7-6.75-11.67-16.42-19.24-23.46-6.46-6.01-14.56-9.73-20.94-15.8-.28-.27-.06-.71.27-.79zM215.1 269.21c2.77-3.12 5.85-3.7 9.56-5.22 1.26-.51 6.64-2.39 7.02.35.54 3.82-3.71 5.25-6.66 6.08-3.5.98-6.16 1.01-9.65.17-.66-.16-.63-.98-.27-1.38zm-79.4-73.94c.19-.38.84-.31.99.06 7.15 17.26 4.86 35.58 18.73 50.64 14.63 15.89 33.02 19.2 53.32 23.14.88.18 1.53 1.59.41 2-20.31 7.53-44.45.3-58.5-16.25-12.18-14.33-24.33-41.12-14.95-59.59zm218.23 136.74c-12.62 3.92-23.89 8.98-37.21 10.72-13.35 1.74-26.98-.12-40.26 1.82-.62.09-.86 1.07-.19 1.29 22.52 7.27 61.72 6.27 78.95-12.12.83-.88-.34-2-1.29-1.7zm-86.91 9.62c-3.62.04-6.23.02-9.23 2.04-.3.2-.25.62 0 .84 2.33 2.03 4.37 2.67 7.58 2.54 2.35-.09 4.88-.22 5.55-2.84.5-1.99-2.67-2.59-3.89-2.58zM42.37 97.8c13.3-10.64 23.74-20.22 40.89-24.4 13.96-3.4 28.32-3.28 42.03-7.9.9-.3.63-1.6-.21-1.75-28.68-5.09-74.92-.54-83.63 33.5-.13.5.55.84.92.54zm97.18-31.2c3.65.07 6.71-.07 9.86-2.1.57-.37.36-1.23-.18-1.49-3.21-1.48-6.13-1.61-9.61-1.47-2.5.1-5.91.16-7.3 2.66-.06.12-.03.29.05.39 1.67 2.06 4.8 1.96 7.19 2zm255.09 276.34c-9.11 23.45-26.59 34.41-50.76 38.64-19.06 3.34-38.69-.79-57.45 2.42-.33.06-.46.56-.1.69 20.05 6.86 48.12 4.33 68.33-.51 20.92-5 39.02-18.4 41.45-40.82.1-.85-1.14-1.25-1.47-.42zm4.81-24.14c-1.49 5.3-3.71 11.36-2.65 16.94.08.43.69.7.98.27 3.27-4.85 3.37-11.62 2.61-17.2-.08-.58-.81-.5-.95 0zM1.7 84.26c6.68-18.87 13.79-34.43 32.27-44.2 16.22-8.58 35.4-9.28 52.94-13.54.48-.12.6-.94.01-.95C49.17 24.8 3.09 39.84.69 83.97c-.03.56.8.89 1.01.29zm109.62-58.6c.34-.16.33-.75-.1-.78-5.31-.45-11.3-1.18-16.38.71-.3.11-.14.51.13.51 5.29-.06 11.37 1.98 16.34-.43zm223.33-12.79c4.82 6.36 5.65 14.46 9.1 21.45.18.37.78.35.82-.1 1.85-16.25-12.92-37.25-30.78-33.85-.3.06-.44.54-.09.64 8.49 2.55 15.36 4.47 20.95 11.86zM46.87 367.69c-14.16-4.91-25.01-14.14-36.86-22.79-.2-.15-.44.1-.3.3 16.6 24.58 52.6 35.11 80.79 31.49.52-.07.56-.9.01-.95-14.96-1.32-29.37-3.09-43.64-8.04z"/></svg>