<svg xmlns="http://www.w3.org/2000/svg" viewBox="0 0 424.86 542.37" fill="#fbd349" xmlns:v="https://vecta.io/nano"><path d="M402.43 518.78c29.79-22.6 29.69-66.93.98-89.66 3.29-8.29 5.12-17.16 4.88-26.57-.51-19.95-19.15-38.6-30.22-53.34-18.26-24.32-32.92-44.43-62.65-54.21-.52-.17-.98-.14-1.47-.2-6.38-10.71-16.12-20.31-23.42-29.62l-42.66-54.39-78.55-101.55L128 54.19c-5.82-7.85-14.41-27.66-24.67-30.09L8.51 1.63C3.54.45-.06 5.23 0 9.64c.31 21.79 3.06 43.7 4.93 65.38l2.72 30.76c1.1 12.23 15.41 24.7 22.37 34.22l172 231.15c.09.13.22.16.32.27 2.17 2.72 4.43 5.15 6.76 7.4-4.58 38.18 37.94 76.75 60.8 103.09 13.66 15.74 34.27 17.54 53.64 12.97 15.07 29.23 50.58 45.39 78.89 23.9zm-15.3-130.05c-14.2 21.66-25.86 40.05-48.42 55.78-21.27 14.82-39.05 21.82-63.96 20.11l-12.61-13.83c44.76 6.95 103.99-44.09 107.77-87.54 5.95 8.32 11.63 16.9 17.21 25.48zM164.41 127.14l114.17 146.7c18.43 23.48 37.54 42.13 24.86 73.7-.05.13-.12.23-.17.36-35.93-49.68-74.16-97.68-111.9-145.98-30.86-39.5-60.19-82.23-94.13-119.29 6.29-9.17 10.63-19.19 12.03-29.09l55.15 73.6zm-73.36-36.5c25.65 41.81 60.62 79.93 90.67 118.27l116.72 148.08c-5.83 9.05-13.87 15.84-22.97 20.07-25.86-43.78-62.49-83.37-93.73-123.23L68.32 109.87c8.42-5.05 16.22-11.68 22.73-19.23zM19.62 73.58l-2.18-23.33c11.05-3.68 27.4-12.63 26.35-25.12l32.64 7.74c8.67 2.05 14.75 2.61 19.93 5.81-2.23 40.45-34.25 66.37-74.04 65.22l-2.69-30.31zm35.64 76.02c-4.88-6.65-16.99-18.9-25.09-29.89 9.77 1.06 19.95-1.05 29.66-5.39 36.05 49.86 74.41 98.03 112.28 146.5 30.92 39.58 60.31 82.4 94.34 119.51-19.01 5.13-40.28.19-53.93-16.62-.03-.04-.03-.09-.06-.13-51.15-72.23-104.85-142.62-157.2-213.98zm256.98 212.18c10.43-14 12.38-31.91 8.77-48.44 7.75 5.06 14.84 10.88 21.42 17.26-10.42 25.48-17.71 45.55-41.57 63.58-11.95 9.04-25.84 14.23-40.45 16.84-10.05 1.79-19.64-.58-29.35-1.28-3.56-6.71-6.09-13.49-7.15-20.16 29.7 15.62 65.71 2.55 88.33-27.8zM238.7 422.2c22.55 4.83 51.79-8.51 68.19-19.69 19.44-13.24 41.4-41.85 39.87-67.56 6.8 7.07 13.07 14.7 19.01 22.66-11.62 23.23-21.61 43.03-42.95 60.11-23.07 18.46-46.19 15.84-71.61 20.7-4.4-5.21-8.68-10.66-12.53-16.22zm46.76 52.65c15.98 1.22 35.12-9.72 47.19-16.93 23.44-14.02 51.68-36.09 57.23-64.45 13.82 26.64-17.91 57.05-37.09 70.72-19.27 13.72-47.13 24.34-67.32 10.67zm111.62-33.2c16.02 20.84 17.39 44.82-3.83 64.48-20.22 18.75-41.28.58-54.49-16.16 4.89-2.02 9.55-4.34 13.78-6.85 17.09-10.14 33.9-24.22 44.53-41.47zm-10.37 42.09c-4.42 5.58-11.33 7.89-16.12 13.01-.74.79-.16 2.32.93 2.4 13.57.98 31.44-18.2 24.83-31.71-.29-.59-1.13-.7-1.43-.04-2.56 5.74-4.24 11.34-8.21 16.35zM322.6 286.49c28.31 14.66 46.36 34.96 66.59 59.2.51.61 1.34-.04.97-.7-12.5-23.03-38-58.43-67.46-59.13-.36-.01-.37.5-.1.64zm76.59 72.32c1.84 1.97 3.49 4.18 5.24 6.23.37.44 1.32.25 1.17-.45-1.01-4.73-4.88-9.95-9.65-11.53-.45-.14-1.12.26-.84.79 1.01 1.93 2.61 3.38 4.08 4.95zm-16.45 179.3c-25 6.16-40.71-11.65-58.5-25.15-.43-.33-.92.19-.65.62 12.13 20.35 36.68 35.09 59.75 26.1 1.04-.4.43-1.83-.59-1.58zm24.25-8.35c.33-.42-.11-.99-.6-.83-3.16 1.04-6.14 2.61-9.18 3.96-2.77 1.23-5.61 2.16-8.23 3.72-.32.19-.15.68.18.73 5.93 1.01 14.18-2.98 17.83-7.59zm-231-179.04l-69.55-93.12c-22.58-29.82-43.43-63.05-69.32-90.11-.32-.34-.97.13-.75.54 16.95 31.58 42.27 60.04 63.84 88.54 24.32 32.11 48.74 64.13 74.92 94.76.44.51 1.26-.06.86-.62zM118.92 26.43c15.91 12.61 26.91 31.29 39.86 46.71.44.53 1.21-.04.86-.62C136.64 34.59 107.9 1.76 59.93 0c-.45-.02-.74.64-.24.82 20.28 7.28 42.08 12.01 59.24 25.61z"/></svg>