<?xml version="1.0" encoding="UTF-8"?>
<svg id="Layer_2" data-name="Layer 2" xmlns="http://www.w3.org/2000/svg" viewBox="0 0 370.4 77.25">
  <defs>
    <style>
      .cls-1 {
        fill: #fbd349;
      }
    </style>
  </defs>
  <g id="Layer_2-2" data-name="Layer 2">
    <g>
      <rect class="cls-1" x="-21.34" y="34.62" width="80.07" height="8" transform="translate(-24.12 41.5) rotate(-68.01)"/>
      <rect class="cls-1" x="20.29" y="34.62" width="80.07" height="8" transform="translate(1.92 80.1) rotate(-68.01)"/>
      <rect class="cls-1" x="61.91" y="34.62" width="80.07" height="8" transform="translate(27.97 118.7) rotate(-68.01)"/>
      <rect class="cls-1" x="103.54" y="34.62" width="80.07" height="8" transform="translate(54.01 157.29) rotate(-68.01)"/>
      <rect class="cls-1" x="145.16" y="34.62" width="80.07" height="8" transform="translate(80.05 195.89) rotate(-68.01)"/>
      <rect class="cls-1" x="186.79" y="34.62" width="80.07" height="8" transform="translate(106.09 234.49) rotate(-68.01)"/>
      <rect class="cls-1" x="228.41" y="34.62" width="80.07" height="8" transform="translate(132.13 273.09) rotate(-68.01)"/>
      <rect class="cls-1" x="270.04" y="34.62" width="80.07" height="8" transform="translate(158.17 311.68) rotate(-68.01)"/>
      <rect class="cls-1" x="311.66" y="34.62" width="80.07" height="8" transform="translate(184.21 350.28) rotate(-68.01)"/>
    </g>
  </g>
</svg>