<svg xmlns="http://www.w3.org/2000/svg" width="467.255" height="439.286" viewBox="0 0 467.255 439.286">
  <g id="bald-man-listening-to-gramophone" transform="translate(-157.031 -103.254)">
    <path id="Path_22682" data-name="Path 22682" d="M399.082,429.158a3.15,3.15,0,0,0-2.117-.963,3.262,3.262,0,0,0-2,.88,22.31,22.31,0,0,0-3.412,4.446c-1.106,1.664-2.235,3.353-3.507,5.029a17.2,17.2,0,0,1-4.886,4.375,12.677,12.677,0,0,1-5.207,1.51c.3.036.606.071.9.1,1.094.071,2.188.083,3.282.131s2.176-.048,3.269-.059c.535-.024,1.129.012,1.6-.059.524-.083,1.058-.178,1.581-.309a23.353,23.353,0,0,0,3.1-.939,19.823,19.823,0,0,0,9.963-7.894v-.012c.262-.464.523-.939.749-1.451a16.19,16.19,0,0,0-3.329-4.779Zm2.52,6.4a17.571,17.571,0,0,1-3.852,5.029,21.047,21.047,0,0,1-5.706,3.567,20.287,20.287,0,0,1-3.2,1.094,15.984,15.984,0,0,1-1.664.369c-.618.1-1.129.071-1.7.119a60.1,60.1,0,0,1-6.706-.012,44.286,44.286,0,0,1-13.054-2.877,31.279,31.279,0,0,1-11.2-7.121,29.6,29.6,0,0,0,5.492,3.65,37.222,37.222,0,0,0,5.505,2.425,51.911,51.911,0,0,0,11.069.3,12.3,12.3,0,0,0,9.035-5.469c1.213-1.486,2.342-3.151,3.555-4.779.63-.82,1.213-1.6,1.914-2.437a11.018,11.018,0,0,1,2.461-2.271,5.219,5.219,0,0,1,3.626-.951,4.8,4.8,0,0,1,3.008,1.95,12.862,12.862,0,0,1,2.235,5.79,22.224,22.224,0,0,0,1.129-2.853s4.316-11.318-18.571-24.277a14.911,14.911,0,0,1-.773-4.47c.1-6.8-8.215-11.021-10.189-10.034a19.263,19.263,0,0,1-7.2,2.913c-.369-.333-.737-.666-1.082-.987a35.461,35.461,0,0,1-4.149,2.723c-1.391.808-2.77,1.557-4.137,2.295s-2.711,1.462-4.007,2.259a13.735,13.735,0,0,0-3.662,2.937,6.882,6.882,0,0,1,2.093-4.791,15.041,15.041,0,0,1,4.1-3.127,21.43,21.43,0,0,1,4.708-1.819,15.923,15.923,0,0,1,5.053-.475,19.076,19.076,0,0,1-4.244-5.255c-1.772-3.721-5.9-5.231-9.166-5.445-1.688-2.128-4.708-3.733-9.06,2.164-2.842,3.852-5.16,5.516-6.919,6.123l-.071.036a18.68,18.68,0,0,1-8.964-3.781s-7.775-7.74-9.915,4.042c-.844,4.708-2.2,7.229-3.507,8.548a8.452,8.452,0,0,0,.606,12.84c.179.131.369.262.559.4,8.822,6.289,23.017,7.633,34.538,18.143a57.125,57.125,0,0,0,5.136,4.149,49.932,49.932,0,0,0,9.119,14.933,59.384,59.384,0,0,0,10.474,5.552,12.337,12.337,0,0,0,10.522-.916c1.747-.808,3.5-1.807,5.3-2.734.927-.452,1.795-.9,2.782-1.343a11.384,11.384,0,0,1,3.222-.951,5.131,5.131,0,0,1,3.662.749,4.868,4.868,0,0,1,1.855,3.079,12.63,12.63,0,0,1-.571,6.206,24.366,24.366,0,0,0,2.295-2.081S410.352,452.187,401.6,435.555Zm-40.838-29.413a12.886,12.886,0,0,1,3.65-3.436,14.772,14.772,0,0,1,4.565-1.95,13.039,13.039,0,0,1,3.531-.321c-.452-.333-.915-.642-1.355-.987a20.738,20.738,0,0,1-3.721-3.709c1.379,1.082,2.829,2.009,4.268,2.948s2.913,1.819,4.4,2.7c2.948,1.783,5.944,3.483,8.869,5.4-.844-.262-1.677-.571-2.5-.892-2.425,2.235-4.922,3.935-7.276,5.778-1.213.951-2.449,1.878-3.555,2.913a23.619,23.619,0,0,0-3.246,3.543,8.237,8.237,0,0,1,1.355-5.077,14.48,14.48,0,0,1,3.578-3.828,18.38,18.38,0,0,1,4.458-2.52,15.483,15.483,0,0,1,4.161-1.034,53.084,53.084,0,0,1-6.468-3.258c-.737-.452-1.475-.915-2.2-1.4-1.177.713-2.319,1.355-3.424,2.009-1.308.749-2.556,1.5-3.781,2.283s-2.389,1.617-3.555,2.509c-1.213.868-2.259,1.914-3.614,2.96a9.723,9.723,0,0,1,1.855-4.625Zm-20.473,5.921a51.835,51.835,0,0,1-4.708-3.436,49.5,49.5,0,0,1-4.268-3.947,29.705,29.705,0,0,1-3.721-4.637,29.8,29.8,0,0,1,5.255,2.758,51.914,51.914,0,0,1,4.708,3.436,53.6,53.6,0,0,1,4.268,3.959,29.6,29.6,0,0,1,3.721,4.625,31.041,31.041,0,0,1-5.255-2.758Zm58.458,41.124a3.3,3.3,0,0,0-2.187-.1,22.371,22.371,0,0,0-5.029,2.485c-1.724,1-3.484,2.021-5.362,2.96a17.311,17.311,0,0,1-6.313,1.783,12.964,12.964,0,0,1-6.444-1.427,13.621,13.621,0,0,1-1.843-.987c8.679,6.254,19.807,10.617,29.52,2.853a16.513,16.513,0,0,0-.868-5.778,3.223,3.223,0,0,0-1.475-1.8Z" transform="translate(43 77.622)" fill="#5504b0"/>
    <path id="Path_22683" data-name="Path 22683" d="M444.6,401.486l-6.765,66.031-3.817-46.533C437.694,414.445,441.225,407.906,444.6,401.486Zm-180.558-.357c-.321-6.23-.559-12.448-.8-18.678-.357-12.448-.618-24.907-.868-37.355l-.641-37.331-.131-4.649a35.633,35.633,0,0,0-.333-4.458,27.031,27.031,0,0,0-2.663-8.322A27.716,27.716,0,0,0,246.341,278.2c-.666-.3-1.332-.618-2-.9l-2.068-.761-2.1-.583-2.283-.535-9.1-2.128-18.178-4.268c-.785-.19-1.451-.333-2.331-.571a13,13,0,0,1-2.472-.963,13.529,13.529,0,0,1-4.161-3.258,13.353,13.353,0,0,1-2.568-4.589,11.873,11.873,0,0,1-.356-1.272l-.25-1.153-.487-2.283q-1.962-9.131-3.816-18.285c-4.958-24.408-10.331-48.733-14.35-73.331q2.122,9.1,4.161,18.2c1.391,6.075,2.913,12.115,4.364,18.166l8.488,36.38c1.427,6.063,2.842,12.127,4.2,18.2l.523,2.271.25,1.129c.1.321.167.654.285.963a10.2,10.2,0,0,0,5.2,5.9,9.67,9.67,0,0,0,1.879.7c.63.166,1.486.345,2.211.511L229.59,269.9l6.111,1.4-15.777-50.481c-28.153-42.23-7.87-60.812-7.87-60.812s-45.9-1.617-55.022,6.872c0,0,17.917,185.777,18.7,195.3,0,0,73.26,43.49,89.822,57.578C264.663,413.589,264.365,407.347,264.044,401.129Zm-94.47-216.676v-.024l-.238-3.555a.359.359,0,0,1,.333-.38.364.364,0,0,1,.38.309l.44,3.543a.461.461,0,1,1-.915.107Zm.511,7.121c-.012-.012-.012-.012-.012-.024L169.812,188a.556.556,0,0,1,1.106-.107l.416,3.543a.646.646,0,0,1-.559.7.628.628,0,0,1-.69-.559Zm.511,7.086-.262-3.555a.7.7,0,0,1,1.4-.131l.416,3.543a.787.787,0,0,1-.69.868.776.776,0,0,1-.856-.69.044.044,0,0,1-.012-.036Zm.535,7.122-.273-3.555a.854.854,0,1,1,1.7-.166l.4,3.543a.913.913,0,0,1-.808,1.011.9.9,0,0,1-1.011-.808.036.036,0,0,0-.012-.024Zm.583,7.11-.286-3.555a.945.945,0,0,1,.88-1.034.955.955,0,0,1,1.034.856l.38,3.543a1.01,1.01,0,0,1-.892,1.106,1,1,0,0,1-1.106-.892.037.037,0,0,1-.012-.024Zm.3,3.555a1.051,1.051,0,1,1,2.092-.2l.381,3.543a1.1,1.1,0,1,1-2.187.238V220Zm.583,7.11a1.14,1.14,0,1,1,2.27-.214l.381,3.543a1.19,1.19,0,1,1-2.366.25v-.024Zm.606,7.11a1.206,1.206,0,1,1,2.4-.226l.356,3.543a1.23,1.23,0,0,1-1.094,1.355,1.248,1.248,0,0,1-1.356-1.106v-.012Zm.63,7.1a1.247,1.247,0,1,1,2.485-.226l.356,3.543a1.273,1.273,0,1,1-2.532.262v-.024Zm.654,7.11a1.266,1.266,0,1,1,2.521-.238l.333,3.543a1.269,1.269,0,0,1-1.141,1.391,1.282,1.282,0,0,1-1.379-1.141Zm1.022,10.652-.345-3.555a1.264,1.264,0,0,1,1.13-1.379,1.25,1.25,0,0,1,1.379,1.129v.012l.322,3.555a1.236,1.236,0,0,1-1.13,1.355A1.257,1.257,0,0,1,175.507,255.525Zm.369,3.543a1.219,1.219,0,1,1,2.425-.25c0,.012.012.012.012.024l.309,3.555a1.2,1.2,0,1,1-2.39.226Zm.725,7.1a1.164,1.164,0,0,1,1.047-1.284,1.18,1.18,0,0,1,1.283,1.046v.024l.309,3.543a1.147,1.147,0,1,1-2.283.226Zm.713,7.1a1.123,1.123,0,1,1,2.235-.226v.012l.309,3.555a1.093,1.093,0,1,1-2.176.214ZM178.42,283.9l-.381-3.543a1.07,1.07,0,0,1,2.128-.226v.024l.3,3.555a1.027,1.027,0,1,1-2.045.19Zm.761,7.1-.381-3.543a.981.981,0,1,1,1.95-.214v.024l.3,3.555a.937.937,0,1,1-1.866.178Zm.784,7.086-.4-3.543a.891.891,0,1,1,1.771-.2v.035l.273,3.555a.824.824,0,0,1-1.641.155Zm.809,7.1-.4-3.555a.753.753,0,1,1,1.5-.166v.036l.273,3.555a.687.687,0,0,1-1.367.131Zm.8,7.086-.392-3.543a.619.619,0,0,1,.547-.69.634.634,0,0,1,.69.547v.024l.273,3.555a.56.56,0,0,1-.511.606.567.567,0,0,1-.606-.5Zm.8,7.086-.392-3.543a.5.5,0,1,1,.987-.107v.012l.286,3.555a.442.442,0,0,1-.4.476.431.431,0,0,1-.475-.392Zm.713,7.1-.357-3.543a.418.418,0,1,1,.833-.083l.321,3.555a.4.4,0,0,1-.369.428.389.389,0,0,1-.428-.357Zm.713,7.1-.357-3.543a.377.377,0,0,1,.749-.083v.012l.32,3.555a.358.358,0,0,1-.333.38.347.347,0,0,1-.38-.321Zm.642,7.11-.321-3.555a.37.37,0,1,1,.737-.071l.357,3.555a.378.378,0,0,1-.345.416.388.388,0,0,1-.428-.345Zm.582,7.122v-.012l-.285-3.555a.427.427,0,0,1,.392-.464.441.441,0,0,1,.463.38l.381,3.543a.48.48,0,0,1-.428.523.469.469,0,0,1-.523-.416Zm1.225,7.68a.627.627,0,0,1-.69-.547.043.043,0,0,1-.012-.036l-.261-3.555a.55.55,0,0,1,1.094-.107l.4,3.555a.623.623,0,0,1-.535.69Zm6.563,3.448a.766.766,0,0,1-1.047.309c0-.012-.012-.012-.024-.024l-3.055-1.843a.7.7,0,1,1,.7-1.2l3.127,1.724a.761.761,0,0,1,.3,1.034Zm6.3,3.638a.9.9,0,0,1-1.236.357.043.043,0,0,1-.024-.012l-3.055-1.843a.841.841,0,0,1,.832-1.462l3.127,1.724a.906.906,0,0,1,.356,1.236Zm6.266,3.626a1.029,1.029,0,0,1-1.391.392l-.012-.012-3.079-1.819a.983.983,0,0,1,.987-1.7l3.1,1.748a1.022,1.022,0,0,1,.392,1.391Zm6.206,3.591a1.057,1.057,0,0,1-1.451.392h-.012l-3.079-1.8a1.052,1.052,0,1,1,1.058-1.819l3.091,1.771a1.068,1.068,0,0,1,.392,1.45Zm6.158,3.567a1.063,1.063,0,0,1-1.438.38l-3.091-1.76a1.073,1.073,0,1,1,1.058-1.867l.012.012,3.08,1.8a1.063,1.063,0,0,1,.38,1.438Zm6.147,3.555a1.023,1.023,0,0,1-1.379.369l-3.1-1.771a1.033,1.033,0,0,1,1.023-1.8h.012l3.079,1.807a1.024,1.024,0,0,1,.369,1.391Zm6.1,3.531a.943.943,0,0,1-1.272.345l-3.1-1.748a.987.987,0,1,1,.963-1.724l.012.012,3.08,1.819a.943.943,0,0,1,.32,1.3Zm6.1,3.519a.851.851,0,0,1-1.141.309l-3.127-1.736a.912.912,0,0,1-.345-1.236.9.9,0,0,1,1.236-.345.037.037,0,0,1,.024.012l3.056,1.831a.851.851,0,0,1,.3,1.165Zm6.051,3.5a.71.71,0,0,1-.951.261l-3.127-1.724a.782.782,0,1,1,.761-1.367c.012,0,.012.012.024.012l3.056,1.843a.7.7,0,0,1,.237.975Zm6.063,3.507a.584.584,0,0,1-.773.2l-3.115-1.724a.644.644,0,1,1,.618-1.13c.012,0,.012.012.024.012l3.055,1.843a.579.579,0,0,1,.19.8Zm6,3.46a.379.379,0,0,1-.487.131l-3.151-1.688a.5.5,0,0,1-.19-.654.485.485,0,0,1,.642-.19.037.037,0,0,0,.024.012l3.044,1.878a.378.378,0,0,1,.118.511Zm5.968,3.436a.12.12,0,0,1-.154.048l-3.163-1.664a.259.259,0,0,1-.107-.357.266.266,0,0,1,.345-.107c.012.012.012.012.024.012l3.02,1.9a.13.13,0,0,1,.035.166Zm6.61-50.968c-.558.285-1.13.583-1.664.916l.012-2.711q.09-11.734.048-23.481c1.974,1.783,13.2,11.081,41.743,20.283-3.817.333-7.633.63-11.45.915-1.355.083-2.746.2-4.054.226-1.308.071-2.77-.012-4.137-.012a72.873,72.873,0,0,0-8.358.547,44.464,44.464,0,0,0-8.227,1.748c-.666.214-1.332.452-1.985.69C268.063,346.286,267.409,346.535,266.779,346.868Z" transform="translate(0 15.794)" fill="#5504b0"/>
    <path id="Path_22684" data-name="Path 22684" d="M241.461,338.815l.107-30.59a33.428,33.428,0,0,1,5.932-1.6,71.143,71.143,0,0,1,8.085-1c1.355-.131,2.723-.143,4.078-.238l4.09-.083c1.379-.024,2.687.012,4.137-.059,1.45-.036,2.806-.155,4.2-.25,5.183-.4,10.344-.88,15.491-1.379a158.521,158.521,0,0,0,8.846,29.473c-1,.155-2.01.321-3.008.487-3.031.5-6.063,1.023-9.107,1.593-1.522.285-3.031.583-4.577.939a17.1,17.1,0,0,0-2.5.725c-.725.309-1.379.583-2.093.844a65.17,65.17,0,0,1-17.346,4.018c-1.5.107-2.984.214-4.482.238-1.486,0-2.972-.036-4.458-.178a21.308,21.308,0,0,1-4.351-.82,7.66,7.66,0,0,1-1.974-.915A3.064,3.064,0,0,1,241.461,338.815Z" transform="translate(23.546 55.876)" fill="#5504b0"/>
    <path id="Path_22685" data-name="Path 22685" d="M321.592,380.847a463.31,463.31,0,0,1-79.572,2.473c-.286-3.1-.369-6.218-.428-9.333s-.131-6.218-.142-9.333c-.048-6.218-.024-12.448.012-18.666l.012-2.889a3.3,3.3,0,0,0,.641,1.022,7.629,7.629,0,0,0,1.926,1.51,17.745,17.745,0,0,0,4.482,1.724,28.748,28.748,0,0,0,4.7.808,37.146,37.146,0,0,0,4.743.19,47.733,47.733,0,0,0,18.44-4.042c.713-.321,1.462-.7,2.128-1.022a14.6,14.6,0,0,1,1.926-.559c1.451-.357,2.949-.666,4.447-.963,3-.606,6-1.153,9.024-1.712,1.2-.226,2.4-.44,3.614-.642a165.8,165.8,0,0,0,15.36,27.915C315.707,371.443,318.667,376.115,321.592,380.847Zm17.013-90.3s16.847,4.03,32.16,7.264l-30.293,2.58C339.794,296.839,339.164,293.522,338.6,290.55Zm9.821,40.137c11.948-2.057,23.9-4.018,35.809-6.277a179.89,179.89,0,0,0-8.262,43.252l-2.271.737a154.779,154.779,0,0,1-16.859,5.647c-.487-1.474-.951-2.877-1.4-4.173-.2-.571-.416-1.272-.654-2.116-.071-.214-.131-.44-.19-.666-.19-.678-.392-1.427-.594-2.247-.143-.523-.273-1.058-.416-1.629-.083-.333-.167-.666-.25-1.023-.154-.618-.309-1.26-.475-1.938-.084-.345-.167-.69-.238-1.058q-.374-1.534-.749-3.21c-.25-1.118-.511-2.271-.785-3.472-1.105-5.029-2.33-10.748-3.567-16.74-.3-1.474-.606-2.96-.915-4.458a2.753,2.753,0,0,0-.059-.309Z" transform="translate(23.535 52.234)" fill="#5504b0"/>
    <path id="Path_22686" data-name="Path 22686" d="M372.457,300.142s-5.029,7.882-9.868,22.66l-36.047,4.779c-.654.1-1.308.178-1.962.273-.381-1.867-.773-3.757-1.153-5.647-.606-3.044-1.213-6.087-1.807-9.071-.154-.808-.321-1.617-.475-2.425-.035-.178-.071-.369-.107-.547l-.286-1.462c-.107-.487-.2-.975-.285-1.45-.107-.487-.19-.963-.286-1.439-.285-1.439-.558-2.841-.82-4.221-.107-.559-.214-1.118-.321-1.664,10.023-1.189,20.057-2.366,30.079-3.7C359.533,298.418,369.235,300.225,372.457,300.142Z" transform="translate(45.181 53.818)" fill="#5504b0"/>
    <path id="Path_22687" data-name="Path 22687" d="M253.238,364.016l-8.492,82.871L237.6,359.75" transform="translate(22.469 71.532)" fill="#5504b0"/>
    <path id="Path_22688" data-name="Path 22688" d="M184.773,325.936l-8.482,58.572-4.64-66.442" transform="translate(4.077 59.907)" fill="#5504b0"/>
    <path id="Path_22689" data-name="Path 22689" d="M273.237,137.869c-2.5-.285-14.909,8.132-14.909,8.132s-3.424,1.141-7.276-3.852a46.119,46.119,0,0,1-5.992-10.843s-1.712-9.987-1.854-11.7-3.995-4.851-3.995-2.568,1.712,20.259,3.139,22.969,4.565,10.985,12.412,15.408,16.407-1,19.545-8.56S275.734,138.154,273.237,137.869Zm-.38,7.454a7.258,7.258,0,0,1-.5,1.011,3.123,3.123,0,0,1-1.95,1.355,3.216,3.216,0,0,1-2.318-.523,3.91,3.91,0,0,1-1.45-1.629,6.109,6.109,0,0,0,3.543.975,3.043,3.043,0,0,0,1.474-.785c.226-.2.44-.452.689-.69a8.562,8.562,0,0,1,.714-.785,8.515,8.515,0,0,1-.2,1.07Z" transform="translate(22.919 3.621)" fill="#5504b0"/>
    <path id="Path_22690" data-name="Path 22690" d="M240.805,119.01a10.733,10.733,0,0,0-2.619-.015,4.006,4.006,0,0,0-2.215.85,2.649,2.649,0,0,0-.8,2.019,9.21,9.21,0,0,0,.063,1.206c.084.42.142.845.245,1.259a17.249,17.249,0,0,0,1.79,4.781,12.7,12.7,0,0,0,1.468,2.1,4.107,4.107,0,0,0,2.068,1.483,2.255,2.255,0,0,1-1.316-.313,6.6,6.6,0,0,1-1.155-.749,10.239,10.239,0,0,1-1.848-2.029,14.05,14.05,0,0,1-2.167-5.022c-.1-.447-.155-.9-.234-1.353a8.128,8.128,0,0,1-.033-1.443,3.5,3.5,0,0,1,1.341-2.664,4.324,4.324,0,0,1,2.771-.707A8.358,8.358,0,0,1,240.805,119.01Z" transform="translate(21.475 4.224)" fill="#5504b0"/>
    <path id="Path_22691" data-name="Path 22691" d="M261.01,159.424a9.6,9.6,0,0,1-1.946,2.82,11.638,11.638,0,0,1-2.7,2.044,13.038,13.038,0,0,1-3.021,1.181c-1.164-.04-2.332.036-3.474-.1a18.689,18.689,0,0,1-3.413-.629,16.111,16.111,0,0,1-6.076-3.07,20.22,20.22,0,0,1-4.522-5.171,24.68,24.68,0,0,1-1.6-3.106,20.262,20.262,0,0,1-.879-2.348,3.682,3.682,0,0,0,.593-.521,7.348,7.348,0,0,0,.851-1.291,20.834,20.834,0,0,0,1.079-2.567A50.274,50.274,0,0,0,237.4,141.5a91.1,91.1,0,0,0,1.877-10.484c-1.056,3.387-2.1,6.764-3.225,10.093-.578,1.658-1.169,3.308-1.842,4.894a19.164,19.164,0,0,1-1.127,2.249,5.458,5.458,0,0,1-.635.9,1.151,1.151,0,0,1-.239.2.216.216,0,0,1,.2.006l-1.371,1.215a23.85,23.85,0,0,0,2.84,7.137,20.165,20.165,0,0,0,5.071,5.805,19.691,19.691,0,0,0,3.3,2.075,18.629,18.629,0,0,0,3.685,1.235,19.351,19.351,0,0,0,3.812.528,27.131,27.131,0,0,0,3.055-.114l1.581-.3a13.137,13.137,0,0,0,2.734-1.43,11.616,11.616,0,0,0,2.748-2.568,9.592,9.592,0,0,0,1.7-3.3,11.292,11.292,0,0,0,.459-3.6,12.771,12.771,0,0,1-1.01,3.386Zm-3.259-36.609,22.113,1.141s1.569,9.273-3.709,7.989a9.989,9.989,0,0,1-4.565-6.572h-3.317s-1.23,10.388-5.885,8.195-4.637-10.308-4.637-10.754m.357-1.659a6.8,6.8,0,0,1,2.154-1.149,8.5,8.5,0,0,1,2.422-.455,6.873,6.873,0,0,1,2.481.381,4.315,4.315,0,0,1,1.986,1.49,11.872,11.872,0,0,0-2.222-.593,14.647,14.647,0,0,0-2.207-.091c-.743.008-1.492.1-2.256.169Zm12.733.749a4.716,4.716,0,0,1,1.755-1.058,6.155,6.155,0,0,1,2.043-.358,5.1,5.1,0,0,1,2.061.448,3.664,3.664,0,0,1,1.583,1.343,16.944,16.944,0,0,0-1.865-.459,11.348,11.348,0,0,0-1.788-.143C273.423,121.664,272.213,121.815,270.841,121.906Z" transform="translate(20.638 4.545)" fill="#5504b0"/>
    <path id="Path_22692" data-name="Path 22692" d="M256.387,127.581a1.784,1.784,0,1,0-1.722-1.783A1.784,1.784,0,0,0,256.387,127.581Zm12.359.268a1.784,1.784,0,1,0-1.723-1.783,1.784,1.784,0,0,0,1.723,1.783Zm-1.462,4.78a3.166,3.166,0,0,1-.236,1.7,3.3,3.3,0,0,1-1.111,1.43,2.48,2.48,0,0,1-3.361-.489,8.582,8.582,0,0,0,1.537-.03,2.537,2.537,0,0,0,1.147-.457A12.631,12.631,0,0,0,267.283,132.628Z" transform="translate(27.228 5.79)" fill="#5504b0"/>
    <path id="Path_22693" data-name="Path 22693" d="M247.114,122.964a36.343,36.343,0,0,1,1.248-10.067,22.483,22.483,0,0,1,1.924-4.777,10.429,10.429,0,0,1,3.567-3.844,7.7,7.7,0,0,1,2.519-.9,23.1,23.1,0,0,1,2.579-.125c1.7.027,3.388.069,5.071.235a35.344,35.344,0,0,1,9.9,2.2,17.38,17.38,0,0,1,4.43,2.626,12.66,12.66,0,0,1,3.247,4.077,25.754,25.754,0,0,1,1.665,4.884,24.06,24.06,0,0,1,.839,5.109,6.421,6.421,0,0,1-.125,1.408,7.684,7.684,0,0,0-.116,1.125c-.015.808.017,1.636.059,2.465.089,1.66.262,3.327.473,4.985.11.829.216,1.659.349,2.479.068.405.139.828.238,1.2l.037.138c.014.042,0,0-.014.018-.061-.018.064.088.122.172a.768.768,0,0,1,.1.193,4.857,4.857,0,0,1,.218.639c.448,1.654.7,3.315.981,4.979a.06.06,0,0,1-.048.069.06.06,0,0,1-.068-.044c-.436-1.621-.9-3.255-1.437-4.817a4.373,4.373,0,0,0-.225-.541c-.015-.024-.051-.109-.047-.082-.006,0,.047.028-.059-.085a1.064,1.064,0,0,1-.16-.261l-.057-.163c-.15-.435-.244-.84-.345-1.258-.193-.83-.369-1.659-.506-2.494-.285-1.669-.532-3.343-.7-5.038a25.22,25.22,0,0,1-.135-2.576,8.527,8.527,0,0,1,.124-1.384,5.318,5.318,0,0,0,.068-1.1,26.259,26.259,0,0,0-.774-4.836,24.726,24.726,0,0,0-1.466-4.687l-.55-1.072-.694-.988a6.146,6.146,0,0,0-.771-.932,8.235,8.235,0,0,0-.85-.869,18.18,18.18,0,0,0-4.074-2.741,26.321,26.321,0,0,0-9.663-2.386,33.863,33.863,0,0,0-5.014.016,23.673,23.673,0,0,0-2.448.28,7.365,7.365,0,0,0-2.16.92,9,9,0,0,0-1.783,1.556,16.63,16.63,0,0,0-1.4,1.972,21.51,21.51,0,0,0-1.954,4.517,51.31,51.31,0,0,0-2,9.807.059.059,0,0,1-.064.055A.062.062,0,0,1,247.114,122.964Zm-47.062,56.9a14.561,14.561,0,0,1,5.542-3.455,18.075,18.075,0,0,1,6.536-1.056,20.54,20.54,0,0,1,6.47,1.337,26.193,26.193,0,0,1,2.981,1.377c.93.576,1.843,1.172,2.725,1.8-1.02-.394-1.977-.881-2.975-1.27l-1.511-.534a11.31,11.31,0,0,0-1.514-.489l-1.532-.412c-.509-.139-1.037-.188-1.553-.287a21.855,21.855,0,0,0-3.125-.331,21.585,21.585,0,0,0-6.221.749,20.363,20.363,0,0,0-5.824,2.575Zm76.043-20.247a28.349,28.349,0,0,1,15.255.635,29.408,29.408,0,0,1,7.049,3.293,31.1,31.1,0,0,1,5.838,5.091,62.91,62.91,0,0,1,8.446,12.7A61.735,61.735,0,0,1,318.1,195.6a1.07,1.07,0,0,1-.515,1.18l-.033.018-7.623,4.288q-3.835,2.1-7.728,4.092l-.044.023a1.188,1.188,0,0,1-1.6-.52l-.043-.093q-1.977-4.89-3.806-9.843l-1.793-4.968c-.561-1.671-1.151-3.331-1.673-5.019a.119.119,0,0,1,.219-.093c.857,1.545,1.647,3.12,2.465,4.682l2.345,4.733q2.309,4.748,4.469,9.56l-1.684-.591q3.806-2.154,7.679-4.183l7.785-3.987-.548,1.2a76.292,76.292,0,0,0-4.13-14.354,32.794,32.794,0,0,0-8.6-12.094,40.075,40.075,0,0,0-5.964-4.306,35.859,35.859,0,0,0-6.578-3.175,38.651,38.651,0,0,0-14.566-2.3h-.011a.119.119,0,0,1-.034-.234Zm-51.79,129.421c-2.042-4.4-3.842-8.886-5.542-13.407s-3.28-9.083-4.8-13.664c-1.482-4.594-2.923-9.2-4.22-13.853s-2.53-9.325-3.506-14.076c1.92,4.453,3.632,8.969,5.273,13.508s3.192,9.1,4.711,13.681c1.477,4.591,2.947,9.183,4.3,13.816C221.882,279.669,223.193,284.315,224.305,289.035Zm37.193,8.154c4.542,1.082,9.987,2.069,15.789,2.96a68.514,68.514,0,0,1-11.247-.571,11.924,11.924,0,0,0-3.543-.1,7.358,7.358,0,0,0-3.127,1.213,12.231,12.231,0,0,0-4.2,5.683,33.792,33.792,0,0,0-1.9,7.359,69.042,69.042,0,0,0-.737,7.7,120.452,120.452,0,0,0,.428,15.622.121.121,0,0,1-.238.036,92.335,92.335,0,0,1-1.605-15.67,45.308,45.308,0,0,1,2.093-15.812,14.23,14.23,0,0,1,4.8-6.884,9.777,9.777,0,0,1,3.483-1.546Z" transform="translate(11.997)" fill="#5504b0"/>
    <path id="Path_22694" data-name="Path 22694" d="M314.951,250.216a24.268,24.268,0,0,1-4.911,6.254,51.106,51.106,0,0,1-5.552,4.577c-.4-.071-.82-.131-1.237-.2.06-.036.107-.071.167-.107a53.174,53.174,0,0,0,6.1-4.815,21.068,21.068,0,0,0,4.613-5.814c-2.069-2.342-4.031-4.767-5.909-7.276a47.685,47.685,0,0,1-5.1-8.287c-.356-.725-.618-1.581-.915-2.283-.285-.725-.547-1.439-.892-2.164-.63-1.45-1.284-2.9-1.95-4.339l-4.018-8.691c-2.675-5.79-5.421-11.556-8.06-17.382-2.675-5.8-5.338-11.616-7.882-17.489a.109.109,0,0,1,.059-.155.13.13,0,0,1,.154.048c3.15,5.564,6.146,11.223,9.083,16.906,2.96,5.671,5.79,11.4,8.56,17.18,1.392,2.889,2.711,5.8,4,8.738.618,1.486,1.272,2.948,1.831,4.47.3.737.558,1.534.808,2.318.273.785.452,1.474.761,2.2a45.935,45.935,0,0,0,4.506,8.275,77.831,77.831,0,0,0,5.73,7.621l.012.012a.389.389,0,0,1,.048.4Z" transform="translate(34.123 21.971)" fill="#5504b0"/>
    <path id="Path_22695" data-name="Path 22695" d="M242.451,200.646q6.051,11.931,11.962,23.93l2.949,6a29.424,29.424,0,0,0,3.476,5.511,29.053,29.053,0,0,0,10.1,8,28.566,28.566,0,0,0,6.105,2.128c2.163.48,4.344.94,6.522,1.385q6.539,1.334,13.112,2.526c8.768,1.57,17.528,3.153,26.326,4.621l6.592,1.075,3.275.553a22.8,22.8,0,0,0,3.2.247,22.294,22.294,0,0,0,3.208-.21c1.092-.136,2.225-.334,3.35-.422a39.535,39.535,0,0,1,6.807-.155,18.844,18.844,0,0,1,6.74,1.55c.136.064.272.144.409.219s.3.191.394.258l.681.466,1.379.92c.927.607,1.867,1.2,2.812,1.777,3.787,2.316,7.695,4.451,11.679,6.429l1.516.757a4.427,4.427,0,0,1,1.378,1.222,3.866,3.866,0,0,1,.719,1.715,5.365,5.365,0,0,1-.116,1.816,4.538,4.538,0,0,1-.766,1.663,4.016,4.016,0,0,1-1.434,1.149,6.92,6.92,0,0,1-3.458.565c-.287-.022-.576-.039-.858-.083l-.427-.059a2.943,2.943,0,0,1-.465-.131,11.279,11.279,0,0,1-1.56-.753c-.985-.556-1.934-1.15-2.876-1.754l-1.4-.924a3.955,3.955,0,0,0-1.376-.674,2.73,2.73,0,0,0-2.694.752,4.175,4.175,0,0,0-.978,2.815,5.5,5.5,0,0,0,.766,2.965,1.965,1.965,0,0,0,1.014.881,5.38,5.38,0,0,0,1.526.13,22.853,22.853,0,0,0,3.252-.393,103.323,103.323,0,0,0,12.82-3.525l.023-.008a.446.446,0,0,1,.174-.02,2.841,2.841,0,0,1,1.826.683,2.552,2.552,0,0,1,.682,1.849,6.38,6.38,0,0,1-.251,1.718,10.085,10.085,0,0,1-.583,1.579l-.379-.873a3.971,3.971,0,0,1,1.835,1.125,3.784,3.784,0,0,1,.831,2,6.291,6.291,0,0,1-.1,2.015,9.465,9.465,0,0,1-.581,1.885l-.343-.932a2.369,2.369,0,0,1,1.261,1.232,2.745,2.745,0,0,1,.079,1.689,8.9,8.9,0,0,1-1.166,2.513l-.158.262c-.041.062-.107.205-.072.123a.606.606,0,0,0,.03-.2l0-.058a.775.775,0,0,0-.059-.231.738.738,0,0,0-.418-.388.662.662,0,0,0-.43-.025l-.045.012c.005,0-.074.033,0,0a1.27,1.27,0,0,1,.174-.054,1.244,1.244,0,0,1,.371-.028,1.056,1.056,0,0,1,.649.411,2.091,2.091,0,0,1,.171.366,5.118,5.118,0,0,1,.079,1.542,26.041,26.041,0,0,1-.336,2.615.763.763,0,0,1-.071.21,17.928,17.928,0,0,1-4.268,5.326,19.247,19.247,0,0,1-5.859,3.5,12.363,12.363,0,0,1-6.938.6,15.983,15.983,0,0,1-6.158-3.128,76.3,76.3,0,0,1-9.585-9.118c-1.484-1.61-2.926-3.253-4.363-4.887l-2.152-2.432c-.358-.406-.72-.783-1.077-1.161a12.549,12.549,0,0,0-1.117-1,22.869,22.869,0,0,0-11.27-4.817,24.166,24.166,0,0,0-3.106-.249c-1-.029-2.212-.025-3.279-.075-2.2-.083-4.375-.213-6.552-.378-8.706-.635-17.38-1.495-26.042-2.515-8.658-1.045-17.309-2.225-25.886-3.987a93.479,93.479,0,0,1-12.762-3.389,20.919,20.919,0,0,1-3.1-1.441c-.481-.3-.976-.593-1.442-.911l-1.363-1a52.912,52.912,0,0,1-4.92-4.477,153.031,153.031,0,0,1-15.961-20.8c-4.785-7.292-9.224-14.794-13.4-22.435a.119.119,0,0,1,.047-.161.121.121,0,0,1,.16.045c4.436,7.482,9.186,14.778,14.153,21.9A153.814,153.814,0,0,0,241.333,259.8c3.065,2.974,6.3,5.906,10.236,7.209a91.723,91.723,0,0,0,12.5,3.106c4.249.805,8.537,1.457,12.831,2.07s8.6,1.176,12.911,1.672c8.626.987,17.279,1.815,25.935,2.417,2.163.149,4.327.279,6.479.389,1.106.06,2.075.062,3.245.1a26.6,26.6,0,0,1,3.392.3,25.258,25.258,0,0,1,12.392,5.431,14.865,14.865,0,0,1,1.3,1.188c.387.416.774.828,1.132,1.241l2.152,2.475c1.422,1.646,2.837,3.286,4.288,4.888a78.261,78.261,0,0,0,9.206,8.959,14.057,14.057,0,0,0,5.317,2.845,10.435,10.435,0,0,0,5.893-.44,17.431,17.431,0,0,0,5.332-3.079,16.358,16.358,0,0,0,3.961-4.7l-.071.21c.158-.8.295-1.632.37-2.424a4.671,4.671,0,0,0,.007-.993.1.1,0,0,0,.042.076.56.56,0,0,0,.4.239.415.415,0,0,0,.215,0,.4.4,0,0,0,.1-.04c.051-.029-.052.022-.071.027l-.119.042a.907.907,0,0,1-.51-.021.828.828,0,0,1-.441-.42.814.814,0,0,1-.068-.248l0-.078a.981.981,0,0,1,.045-.28,2.17,2.17,0,0,1,.224-.439l.177-.279a7.638,7.638,0,0,0,1.035-2.052c.156-.7.056-1.02-.505-1.307l-.022-.012a.707.707,0,0,1-.32-.921,8.219,8.219,0,0,0,.52-1.57,4.974,4.974,0,0,0,.126-1.594,2.473,2.473,0,0,0-.5-1.318,2.727,2.727,0,0,0-1.213-.761l-.041-.016a.627.627,0,0,1-.357-.812l.019-.044a7.016,7.016,0,0,0,.766-2.733,1.425,1.425,0,0,0-.315-1.047,1.769,1.769,0,0,0-1.059-.379l.2-.028a111.879,111.879,0,0,1-13.017,3.326,23.645,23.645,0,0,1-3.384.381,6.1,6.1,0,0,1-1.789-.178,2.774,2.774,0,0,1-1.467-1.239,6.288,6.288,0,0,1-.871-3.424,4.946,4.946,0,0,1,1.216-3.336,3.5,3.5,0,0,1,3.442-.945,4.707,4.707,0,0,1,1.606.791l1.383.926c.927.608,1.865,1.2,2.831,1.727a10.69,10.69,0,0,0,1.454.687,2.282,2.282,0,0,0,.338.095l.4.051c.269.04.538.052.806.071a6.171,6.171,0,0,0,3.064-.515,3.222,3.222,0,0,0,1.749-2.288,4.6,4.6,0,0,0,.088-1.5,3.014,3.014,0,0,0-.576-1.331,3.564,3.564,0,0,0-1.115-.969l-1.482-.721c-4.01-1.97-7.982-4.022-11.865-6.252-.968-.563-1.932-1.134-2.885-1.725l-1.425-.9-.711-.461c-.135-.088-.211-.137-.31-.193s-.214-.116-.332-.167a17.609,17.609,0,0,0-6.256-1.256,38.026,38.026,0,0,0-6.541.308c-1.1.112-2.158.326-3.274.493a24.039,24.039,0,0,1-3.453.31,24.623,24.623,0,0,1-3.465-.184l-3.332-.48-6.616-1.022c-8.8-1.415-17.614-2.858-26.372-4.58q-6.574-1.268-13.128-2.658c-2.185-.467-4.362-.948-6.546-1.455a30.4,30.4,0,0,1-6.476-2.325,29.925,29.925,0,0,1-10.513-8.682,30.889,30.889,0,0,1-3.512-5.861l-2.81-6.069q-5.589-12.152-11.075-24.353a.119.119,0,0,1,.214-.1Z" transform="translate(14.959 27.143)" fill="#5504b0"/>
    <path id="Path_22696" data-name="Path 22696" d="M291.657,175.618c1.768,2.926,3.484,5.881,5.214,8.828s3.43,5.911,5.126,8.876q5.108,8.886,10.113,17.829l-.055-.09c5.854,8.274,11.776,16.506,17.572,24.819,2.9,4.156,5.82,8.3,8.831,12.364a70.672,70.672,0,0,0,4.7,5.872l.318.307.28.21c.276.137.552.255.843.369.573.232,1.166.432,1.76.626,1.193.379,2.412.685,3.638.963a69.616,69.616,0,0,0,15.064,1.306,61.189,61.189,0,0,1,7.625.693,53.8,53.8,0,0,1,7.5,1.608,28.479,28.479,0,0,1,13.358,7.689,17.781,17.781,0,0,1,2.335,3.246,9.086,9.086,0,0,1,1.069,4.058,8.538,8.538,0,0,1-.966,4.163,3.038,3.038,0,0,1-.392.564,1.622,1.622,0,0,1-1.006.573,1.409,1.409,0,0,1-.811-.14,1.871,1.871,0,0,1-.459-.35,3.057,3.057,0,0,1-.435-.623,9.864,9.864,0,0,1-.694-2.036l2.027-.026a18,18,0,0,1-.471,1.846,7.6,7.6,0,0,1-.839,1.9,3.126,3.126,0,0,1-.451.538,1.817,1.817,0,0,1-.992.474,1.674,1.674,0,0,1-1.174-.325,2.406,2.406,0,0,1-.547-.56,7.2,7.2,0,0,1-.9-1.918l2.121-.1a13.759,13.759,0,0,1-.821,2.5,7,7,0,0,1-.7,1.243,3.038,3.038,0,0,1-1.457,1.156,2.205,2.205,0,0,1-1.207.062,2.738,2.738,0,0,1-.939-.437,4.76,4.76,0,0,1-1.09-1.129,13.664,13.664,0,0,1-1.276-2.3l2.238-.438a10.061,10.061,0,0,1-.411,2.612,3.783,3.783,0,0,1-.8,1.464,2.185,2.185,0,0,1-1.033.641,2.251,2.251,0,0,1-1.236-.022,3.818,3.818,0,0,1-1.428-.87,8.7,8.7,0,0,1-.919-.978,21.048,21.048,0,0,1-1.423-2.017,1.055,1.055,0,0,1-.1-.193l-.01-.028a8.437,8.437,0,0,0-.8-1.777,5.866,5.866,0,0,0-2.729-2.284c-.5-.2-1.289-.4-1.979-.605l1.437-1.871a18.81,18.81,0,0,1,2.084,4.84,6.032,6.032,0,0,1,.178,1.529,3.012,3.012,0,0,1-.69,1.947,2.755,2.755,0,0,1-1.955.886,5.527,5.527,0,0,1-1.569-.147,18.151,18.151,0,0,1-2.5-.831c-.778-.3-1.538-.619-2.3-.937q-2.27-.972-4.5-2c-5.945-2.743-11.751-5.718-17.551-8.715-2.835-1.342-5.925-2.654-8.84-4.058q-4.427-2.091-8.813-4.267c-2.923-1.454-5.83-2.944-8.675-4.556-1.424-.8-2.838-1.625-4.219-2.508-.688-.446-1.372-.9-2.023-1.4a6.963,6.963,0,0,1-1.773-1.752.118.118,0,0,1,.2-.132l.012.017a6.782,6.782,0,0,0,1.8,1.537c.672.446,1.374.852,2.075,1.256,1.412.8,2.861,1.532,4.318,2.25,2.92,1.425,5.876,2.783,8.842,4.119,5.959,2.68,11.9,5.109,17.989,7.735q8.763,4.287,17.658,8.275,2.219.994,4.454,1.921c.745.3,1.491.6,2.236.881a16.206,16.206,0,0,0,2.14.7,2.318,2.318,0,0,0,1.087.045,2.358,2.358,0,0,0-.06-1.215,16.566,16.566,0,0,0-1.777-4.1l-.025-.043a1.258,1.258,0,0,1,1.462-1.828c.715.221,1.367.36,2.231.7a8.309,8.309,0,0,1,2.216,1.342,8.215,8.215,0,0,1,1.68,1.969,10.857,10.857,0,0,1,.992,2.241l-.107-.221a18.724,18.724,0,0,0,1.215,1.779,6.348,6.348,0,0,0,.65.717,1.767,1.767,0,0,0,.506.366c.016-.009-.017,0-.1.011s-.1.067-.071.032a1.59,1.59,0,0,0,.28-.562,7.893,7.893,0,0,0,.328-1.941v-.031a1.168,1.168,0,0,1,2.236-.407,11.534,11.534,0,0,0,1.008,1.9,2.638,2.638,0,0,0,.544.608c.181.114.124.075.1.084a.927.927,0,0,0,.363-.343,4.829,4.829,0,0,0,.482-.834,11.7,11.7,0,0,0,.7-2.042l.007-.029a1.1,1.1,0,0,1,2.114-.074,5.473,5.473,0,0,0,.569,1.317c.042.069.087.1.061.085a.581.581,0,0,0-.346-.066c-.186.035-.209.077-.209.077a1.184,1.184,0,0,0,.118-.146,6.2,6.2,0,0,0,.609-1.351,16.2,16.2,0,0,0,.451-1.6l.008-.032a1.035,1.035,0,0,1,2.019.007,8.312,8.312,0,0,0,.476,1.574l.1.164a.3.3,0,0,0-.091-.055.6.6,0,0,0-.351-.059c-.245.038-.266.146-.223.078a1.132,1.132,0,0,0,.151-.214,6.673,6.673,0,0,0,.8-3.155,7.255,7.255,0,0,0-.774-3.252,16.985,16.985,0,0,0-2-2.986,26.8,26.8,0,0,0-12.436-7.705,54.322,54.322,0,0,0-14.818-2.579,83.575,83.575,0,0,1-15.2-1.322c-1.253-.252-2.5-.534-3.736-.893-.616-.184-1.231-.375-1.839-.6-.3-.109-.612-.237-.91-.368a5.452,5.452,0,0,1-.5-.328l-.381-.338a70.92,70.92,0,0,1-5.046-5.8c-3.192-3.961-6.271-8-9.337-12.046-6.113-8.11-11.906-16.442-17.661-24.8l-.007-.01-.049-.08q-4.852-9.026-9.575-18.123c-1.585-3.027-3.178-6.049-4.718-9.1s-3.117-6.082-4.63-9.148a.119.119,0,0,1,.208-.114Zm46.548,116.046A15.715,15.715,0,0,0,343.084,293a14.648,14.648,0,0,0,5-.274,14.331,14.331,0,0,0,4.578-1.889,16.792,16.792,0,0,0,2.011-1.446c.634-.529,1.2-1.143,1.8-1.706l.061-.057a.594.594,0,0,1,.812.868l-.024.021c-.671.564-1.3,1.17-2,1.689a17.744,17.744,0,0,1-2.211,1.4,15.464,15.464,0,0,1-10.062,1.685,15.858,15.858,0,0,1-4.837-1.626Zm0,5.136a15.053,15.053,0,0,0,5.059,2.317,12.971,12.971,0,0,0,5.487.224,8.655,8.655,0,0,0,1.335-.312,6.343,6.343,0,0,0,1.3-.437c.419-.183.846-.343,1.255-.543l1.179-.7a6.741,6.741,0,0,0,1.125-.776l1.081-.84c.677-.613,1.31-1.281,1.965-1.914l.055-.053a.594.594,0,0,1,.826.855l-.022.02c-.725.634-1.422,1.294-2.166,1.9l-1.185.825a7.322,7.322,0,0,1-1.227.754l-1.28.666c-.442.188-.9.335-1.353.5a6.868,6.868,0,0,1-1.386.388,9.193,9.193,0,0,1-1.415.252,13.417,13.417,0,0,1-5.65-.526,15.2,15.2,0,0,1-4.98-2.6Zm0,5.564a15.718,15.718,0,0,0,5.07,2.134,12.9,12.9,0,0,0,5.423.1,7.3,7.3,0,0,0,1.31-.335,6.8,6.8,0,0,0,1.268-.461l1.223-.569,1.135-.734.565-.365.515-.44,1.027-.875c.644-.63,1.229-1.324,1.845-1.977l.056-.059a.594.594,0,1,1,.865.815l-.021.021c-.687.66-1.339,1.351-2.052,1.976l-1.135.868-.566.432-.62.357-1.239.708-1.326.534a7.366,7.366,0,0,1-1.361.415,7.814,7.814,0,0,1-1.393.277,13.344,13.344,0,0,1-5.593-.395,15.863,15.863,0,0,1-5-2.422Z" transform="translate(37.483 20.165)" fill="#5504b0"/>
    <path id="Path_22697" data-name="Path 22697" d="M348.976,248.787,357.5,254.3a.6.6,0,1,1-.647,1,.678.678,0,0,1-.056-.041Zm8.173,0a22.263,22.263,0,0,1,4.466.761,12.221,12.221,0,0,1,4.158,1.93,6.019,6.019,0,0,1,1.58,1.772,3.969,3.969,0,0,1,.48,1.121,9.342,9.342,0,0,1,.28,1.125l.963,4.419a.595.595,0,1,1-1.162.253l-.007-.038-.671-4.473a8.56,8.56,0,0,0-.194-1.083,3.242,3.242,0,0,0-.343-.972,5.348,5.348,0,0,0-1.3-1.664,11.794,11.794,0,0,0-3.871-2.106,22.121,22.121,0,0,0-4.376-1.045Zm6.955-2.354,5.768,3.845a15.205,15.205,0,0,1,2.681,2.3,7.416,7.416,0,0,1,1.759,3.183.322.322,0,0,1,.009.064v.034l.113,3.312a.595.595,0,1,1-1.189.041c0-.013,0-.028,0-.041l.113-3.312.01.1A6.578,6.578,0,0,0,372,253.039a14.61,14.61,0,0,0-2.416-2.368Zm4.868,0,4.791,3.394c.79.584,1.61,1.069,2.408,1.736a4.161,4.161,0,0,1,1.462,2.8v.042l.117,2.942a.595.595,0,0,1-1.189.047c0-.015,0-.032,0-.047l.117-2.942,0,.041a3.293,3.293,0,0,0-1-2.357c-.654-.647-1.478-1.236-2.211-1.877Z" transform="translate(53.53 39.93)" fill="#5504b0"/>
    <path id="Path_22698" data-name="Path 22698" d="M317.461,303.024c9.545,1.585,18.995,3.542,28.441,5.485,4.723.972,9.425,2.031,14.122,3.111q3.526.8,7.07,1.482c1.181.2,2.367.459,3.552.573l1.78.208,1.741.009-.214.649a15.123,15.123,0,0,1-4.011-11.184,17.668,17.668,0,0,1,1.566-5.9c.4-.943.961-1.794,1.44-2.7l1.762-2.493-.049.065a24.938,24.938,0,0,0,3.269-11.974c0-.491.029-1.1.059-1.7a13.6,13.6,0,0,1,.223-1.762c.1-.582.276-1.14.414-1.711.192-.547.366-1.105.581-1.641a33.048,33.048,0,0,1,3.244-5.965l1.858-2.716a22.115,22.115,0,0,0,1.6-2.6c.095-.205.14-.361.223-.566l.232-.811c.159-.543.338-1.083.524-1.622a26.185,26.185,0,0,1,1.364-3.162,16.149,16.149,0,0,1,4.424-5.408,12.63,12.63,0,0,1,6.541-2.527l-.075,1.784-8.652-2.082c-1.444-.338-2.877-.727-4.316-1.088s-2.876-.735-4.309-1.126a.119.119,0,0,1,.047-.233c1.472.2,2.94.414,4.407.637s2.938.425,4.4.675l8.78,1.445a.9.9,0,0,1-.019,1.777l-.055.008a10.831,10.831,0,0,0-5.418,2.412,14.128,14.128,0,0,0-3.626,4.808,23.76,23.76,0,0,0-1.17,2.879c-.16.5-.314,1-.452,1.507l-.2.77c-.1.308-.218.677-.348.969a19.755,19.755,0,0,1-1.8,2.992l-1.852,2.689c-2.395,3.547-4.471,7.23-4.393,11.428a24.486,24.486,0,0,1-1.185,6.71,23.55,23.55,0,0,1-2.927,6.164l-.035.047-.014.018-1.819,2.235c-.5.812-1.092,1.582-1.517,2.436a16.563,16.563,0,0,0-1.786,5.413,13.216,13.216,0,0,0,3.6,10.551l.037.038a.36.36,0,0,1-.251.611l-1.879.033-1.824-.131c-1.221-.077-2.413-.26-3.626-.366-2.408-.286-4.811-.605-7.2-.974q-7.191-1.037-14.269-2.628c-9.437-2.093-18.812-4.446-28.055-7.321a.119.119,0,0,1,.055-.231Z" transform="translate(44.702 39.649)" fill="#5504b0"/>
    <path id="Path_22699" data-name="Path 22699" d="M380.473,450.873l-6.012-19.412c-2.008-6.464-4.065-12.921-6.322-19.276-.539-1.571-1.088-3.28-1.516-4.917-.453-1.635-.87-3.3-1.281-4.938-.8-3.331-1.594-6.585-2.325-9.916-1.464-6.617-2.911-13.251-4.207-19.894l-.015-.093-1.623-8.195-1.524-8.308L352.685,339.3l-2.932-16.625a35.168,35.168,0,0,0-2.524-7.939,31.24,31.24,0,0,0-4.49-7,27.623,27.623,0,0,0-6.216-5.469,19.7,19.7,0,0,0-7.7-2.762,25.006,25.006,0,0,0-15.724,3.733,28.113,28.113,0,0,0-10.778,12.021,30.278,30.278,0,0,0-2.742,15.913,151.642,151.642,0,0,0,6.463,32.791,162.324,162.324,0,0,0,13.053,30.8c2.65,4.93,5.621,9.649,8.7,14.354,2.988,4.787,6.059,9.528,8.942,14.368L345.346,438c1.44,2.414,2.9,4.818,4.422,7.175a41.53,41.53,0,0,0,5.052,6.691l.006.006a.119.119,0,0,1-.163.172,41.8,41.8,0,0,1-5.415-6.514c-1.642-2.3-3.214-4.636-4.768-6.987-3.08-4.719-6.061-9.5-9.093-14.234l-9.245-14.083c-3.176-4.65-6.3-9.406-9.081-14.341a154.217,154.217,0,0,1-19.681-64.584,31.772,31.772,0,0,1,3.213-16.9,29.132,29.132,0,0,1,19.778-15.577,23.257,23.257,0,0,1,8.6-.37,21.6,21.6,0,0,1,8.015,3.063,28.437,28.437,0,0,1,6.359,5.7,32.252,32.252,0,0,1,4.534,7.209,35.931,35.931,0,0,1,2.681,8.08l1.583,8.3c.526,2.764,1.124,5.514,1.682,8.272l6.994,33.123-.014-.093,2.132,9.933L365,391.983c.682,3.295,1.453,6.633,2.2,9.9.393,1.652.78,3.278,1.212,4.913.412,1.644.88,3.169,1.419,4.808,2.109,6.471,3.959,12.991,5.785,19.521,1.784,6.541,3.5,13.1,5.091,19.688a.119.119,0,0,1-.229.062Zm4.438-.976c-.194-6.106-.187-12.225.169-18.327.333-6.1.839-12.2,1.747-18.254.93-6.047,2.184-12.038,3.445-18.012s2.487-11.952,3.871-17.91a153.506,153.506,0,0,1,5.121-17.645c1.047-2.886,2.176-5.746,3.424-8.564a71.362,71.362,0,0,1,4.235-8.268c.214-.345.4-.65.667-1.038l.687-.933,1.4-1.83q1.412-1.818,2.868-3.6c1.966-2.356,3.981-4.675,6.11-6.892a76.545,76.545,0,0,1,6.744-6.3,33.14,33.14,0,0,1,3.746-2.724,17.118,17.118,0,0,1,4.179-1.993.119.119,0,0,1,.148.081.123.123,0,0,1-.067.143,28.271,28.271,0,0,0-7.177,5.425c-2.174,2.094-4.16,4.38-6.135,6.669-1.947,2.316-3.858,4.665-5.693,7.076q-1.393,1.793-2.746,3.618l-1.336,1.833-.658.916c-.167.238-.382.582-.569.885a113.072,113.072,0,0,0-7.779,16.276c-1.106,2.817-2.179,5.654-3.152,8.528q-1.518,4.291-2.845,8.659a141.377,141.377,0,0,0-4.25,17.746c-1.011,6.006-1.623,12.07-2.245,18.115-1.407,12.077-2.463,24.176-3.67,36.334a.119.119,0,0,1-.238-.007Zm81.681-111.216q-6.425,16.376-13.783,32.368c-4.872,10.671-10.048,21.2-15.441,31.623q-2.026,3.906-4.16,7.755l-4.229,7.718-4.271,7.694c-1.448,2.551-2.938,5.079-4.444,7.6-6,10.087-12.375,19.951-19.2,29.485,6.057-10.042,11.885-20.2,17.6-30.412l4.235-7.689L427,417.065c2.734-5.174,5.6-10.273,8.256-15.49,5.421-10.373,10.675-20.832,15.881-31.321Zm-32.841-62.392a70.854,70.854,0,0,1,17.321,3.8,46.575,46.575,0,0,1,15.359,8.7,29.137,29.137,0,0,1,9.186,14.865,28.277,28.277,0,0,1-1.463,17.236,27.115,27.115,0,0,0-8.5-31.2A45.11,45.11,0,0,0,450.5,281.78a68.956,68.956,0,0,0-16.86-3.115l-.062,0a1.189,1.189,0,0,1,.133-2.375ZM242.416,143.771a278.457,278.457,0,0,0-26.986,13.583,74.066,74.066,0,0,0-12.153,8.606,17.4,17.4,0,0,0-4.348,5.574l-.305.786-.279.912-.558,1.82c-.379,1.2-.749,2.407-1.087,3.608a34.982,34.982,0,0,0-1.3,14.766c.191,1.234.462,2.459.7,3.688l1.036,3.616a70.327,70.327,0,0,0,2.855,6.97c4.271,9.128,10.267,17.306,16.249,25.381l-1.3-.293,18.088-10.033,9.077-4.956c3.023-1.656,6.083-3.246,9.122-4.872l-.561,1.488c-1.285-3.486-2.558-7-3.893-10.476s-2.714-6.944-4.123-10.393-2.853-6.885-4.446-10.246c-.789-1.684-1.6-3.356-2.509-4.976a17.49,17.49,0,0,0-3.219-4.465l-.011-.009a.119.119,0,0,1,.149-.184,16.386,16.386,0,0,1,3.68,4.293c1.034,1.574,2,3.191,2.9,4.839,1.79,3.3,3.439,6.67,5.033,10.062s3.055,6.842,4.513,10.291,2.885,6.907,4.208,10.423a1.206,1.206,0,0,1-.549,1.482l-.012.007c-3.024,1.655-6.028,3.347-9.068,4.972l-9.114,4.888-18.292,9.655-.024.013a1,1,0,0,1-1.281-.306,154.774,154.774,0,0,1-15.371-26.236,71.058,71.058,0,0,1-2.775-7.093l-1.082-3.661-.778-3.745a38.284,38.284,0,0,1,.619-15.268c.282-1.248.593-2.478.91-3.7l.46-1.83.229-.913.324-1a13.25,13.25,0,0,1,2.038-3.521,21.952,21.952,0,0,1,2.67-2.9,47.568,47.568,0,0,1,6.088-4.764c2.128-1.426,4.3-2.773,6.53-4a147.615,147.615,0,0,1,13.693-6.671q6.969-3.042,14.19-5.428a.119.119,0,0,1,.15.076A.122.122,0,0,1,242.416,143.771Z" transform="translate(10.335 11.236)" fill="#5504b0"/>
    <path id="Path_22700" data-name="Path 22700" d="M322.374,229.131a382.55,382.55,0,0,1-14.8-59.111s.786-15.61-26.983-15.847c0,0,11.03,12.518,13.984,27.467l18.588,33.942Z" transform="translate(34.459 14.201)" fill="#5504b0"/>
    <path id="Path_22701" data-name="Path 22701" d="M234.466,117.753a98.918,98.918,0,0,1,11.308,2.206,97.753,97.753,0,0,1,11.021,3.359,97.753,97.753,0,0,1-11.308-2.206,98.925,98.925,0,0,1-11.021-3.359Z" transform="translate(21.595 4.044)" fill="#5504b0"/>
    <path id="Path_22702" data-name="Path 22702" d="M353.6,316.952c-.167.036-.345.059-.511.1v-.024Z" transform="translate(54.678 59.597)" fill="#5504b0"/>
    <path id="Path_22703" data-name="Path 22703" d="M494.855,303.058c12.928-.9,25.849-1.9,38.648-3.654a131.012,131.012,0,0,0,18.907-3.671,30.592,30.592,0,0,0,4.37-1.648,7.79,7.79,0,0,0,1.77-1.138,1.953,1.953,0,0,0,.454-.591c.045-.168.1-.258.017-.427a3.321,3.321,0,0,0-1.258-1.226,14.131,14.131,0,0,0-2.008-1.026,38.234,38.234,0,0,0-4.479-1.509,149.462,149.462,0,0,0-18.946-3.693q-4.8-.675-9.629-1.2c-3.219-.334-6.445-.6-9.672-.846-12.912-1-25.878-1.213-38.823-1.06-12.947.2-25.884.679-38.787,1.528-6.451.432-12.891.986-19.3,1.725-6.4.764-12.817,1.558-19.075,2.917a43.5,43.5,0,0,0-8.99,2.765,7.479,7.479,0,0,0-1.749,1.114,1.68,1.68,0,0,0-.439.55c-.071.142-.027.186-.008.317a3.16,3.16,0,0,0,1.162,1.147,13.569,13.569,0,0,0,1.974,1.028,53.174,53.174,0,0,0,9.1,2.7c3.134.69,6.31,1.245,9.5,1.741q9.566,1.466,19.24,2.4c6.441.625,12.894,1.2,19.361,1.626l-.01.238a347.422,347.422,0,0,1-38.855-2.423c-3.226-.428-6.448-.917-9.658-1.55a55.062,55.062,0,0,1-9.568-2.617,15.772,15.772,0,0,1-2.353-1.167,5,5,0,0,1-2.134-2.312,3.414,3.414,0,0,1-.176-1.033,2.94,2.94,0,0,1,.224-1.015,3.961,3.961,0,0,1,1.009-1.377,9.7,9.7,0,0,1,2.315-1.519,45.472,45.472,0,0,1,9.529-3c12.822-2.76,25.81-3.718,38.771-4.479,12.969-.713,25.956-.856,38.927-.6,12.972.232,25.928.784,38.875,1.54,3.237.194,6.471.438,9.705.694,3.236.239,6.47.518,9.7.855a142.463,142.463,0,0,1,19.3,3.106,40.13,40.13,0,0,1,4.742,1.543,16.089,16.089,0,0,1,2.326,1.162,5.1,5.1,0,0,1,2.091,2.193,2.918,2.918,0,0,1,.195.972,3.421,3.421,0,0,1-.192.967,3.913,3.913,0,0,1-.952,1.362,9.69,9.69,0,0,1-2.275,1.525A28.463,28.463,0,0,1,553,297.735a132.654,132.654,0,0,1-19.269,3.479,352.819,352.819,0,0,1-38.87,2.082ZM417.723,443.164c8.7-.738,17.406-1.124,26.108-1.386,4.352-.164,8.7-.2,13.054-.3l13.054-.1,13.054.094c4.351.1,8.7.131,13.054.3,8.7.261,17.405.649,26.108,1.392-8.7.742-17.406,1.13-26.108,1.392-4.352.166-8.7.2-13.054.3l-13.054.094-13.054-.1c-4.351-.1-8.7-.133-13.054-.3C435.128,444.288,426.426,443.9,417.723,443.164Z" transform="translate(63.14 49.278)" fill="#5504b0"/>
    <path id="Path_22704" data-name="Path 22704" d="M442.46,244.833a75.621,75.621,0,0,1,13.741-4.012,93.723,93.723,0,0,1,14.28-1.731l3.611-.094c1.2-.014,2.409.062,3.615.089a70.462,70.462,0,0,1,7.225.561c1.208.093,2.395.343,3.589.544l3.582.63c1.182.273,2.352.6,3.525.915,1.165.343,2.362.573,3.5,1.011,1.147.4,2.286.828,3.42,1.264l1.7.647c.567.215,1.1.515,1.653.768,1.1.521,2.179,1.078,3.264,1.619.543.279,1.081.528,1.626.832s1.088.646,1.616.991a24.189,24.189,0,0,1,9.3,11.576,15.755,15.755,0,0,1,.74,7.465,15.493,15.493,0,0,1-2.855,6.843,28.867,28.867,0,0,1-11.678,8.5l.522-.776c.026,1.866.084,3.732.156,5.6l-.963-.994a18.932,18.932,0,0,0,7.641-2.2,19.337,19.337,0,0,0,6.079-5.053,26.838,26.838,0,0,0,3.861-6.919,28.488,28.488,0,0,0,1.71-7.711,20.438,20.438,0,0,0-.872-7.622,18.017,18.017,0,0,0-1.494-3.5,13.647,13.647,0,0,0-2.118-2.955,41.225,41.225,0,0,0-6.264-5,68.106,68.106,0,0,0-7.071-4.212c-2.43-1.245-5.01-2.444-7.6-3.745s-5.166-2.723-7.666-4.285a64.4,64.4,0,0,1-13.34-11.5,82.411,82.411,0,0,1-9.984-14.243l-2.056-3.8-1.831-3.9c-1.256-2.579-2.251-5.277-3.326-7.921l.432-.2c5.567,9.933,11.732,19.544,19.592,27.4a65.673,65.673,0,0,0,13.009,10.112c2.369,1.4,4.821,2.672,7.347,3.869s5.157,2.317,7.779,3.707a54.728,54.728,0,0,1,14.472,10.434,18.283,18.283,0,0,1,2.74,4.042,22.6,22.6,0,0,1,1.724,4.4,24.752,24.752,0,0,1,.785,9.279,30.845,30.845,0,0,1-2.383,8.813,28.156,28.156,0,0,1-4.987,7.61,22.347,22.347,0,0,1-7.418,5.228,21.739,21.739,0,0,1-4.29,1.4,18.7,18.7,0,0,1-4.532.459l-1-.025.037-.97c.071-1.866.13-3.732.156-5.6l.008-.562.514-.214a31.1,31.1,0,0,0,6.153-3.155,18.677,18.677,0,0,0,4.958-4.658,12.612,12.612,0,0,0,1.295-12.643,21.069,21.069,0,0,0-9.086-9.425c-.484-.266-.972-.521-1.47-.756s-1.062-.442-1.59-.664c-1.066-.441-2.137-.866-3.19-1.327-.533-.216-1.046-.478-1.594-.656l-1.642-.537c-1.1-.353-2.186-.717-3.268-1.1a96.084,96.084,0,0,0-27.312-4.183,126.129,126.129,0,0,0-27.917,2.692Z" transform="translate(79.601 24.837)" fill="#5504b0"/>
    <path id="Path_22705" data-name="Path 22705" d="M440.207,252.1c1.574-5.7,3.472-11.274,5.485-16.8.976-2.774,2.07-5.5,3.108-8.246l3.292-8.169,3.469-8.1c1.219-2.672,2.376-5.371,3.657-8.017,2.5-5.321,5.109-10.593,8.05-15.728-1.57,5.706-3.467,11.276-5.48,16.8-.974,2.774-2.072,5.5-3.108,8.246l-3.3,8.167-3.473,8.094c-1.217,2.673-2.378,5.37-3.657,8.017C445.754,241.687,443.143,246.96,440.207,252.1Zm34.112,37.12a6.86,6.86,0,0,1,1.011,3.555,6.652,6.652,0,0,1-.987,3.555,8.066,8.066,0,0,1-2.5,2.532,13.893,13.893,0,0,1-6.087,2.176,10.016,10.016,0,0,1-3.353-.166,7.072,7.072,0,0,1-3.139-1.605,7.368,7.368,0,0,1-2.283-6.491,9.629,9.629,0,0,1,3.067-5.707,8.953,8.953,0,0,1,5.707-2.152,9.629,9.629,0,0,1,3.067.44,11.605,11.605,0,0,1,3,1.355A7.864,7.864,0,0,1,474.318,289.217Z" transform="translate(78.972 23.368)" fill="#5504b0"/>
    <path id="Path_22706" data-name="Path 22706" d="M512.949,255.475h-80.2a2.377,2.377,0,0,0-2.378,2.378v32.909a2.369,2.369,0,0,0,2.378,2.378h80.2a2.377,2.377,0,0,0,2.378-2.378V257.853a2.385,2.385,0,0,0-2.378-2.378Zm-32.385,25.906a8.593,8.593,0,0,1-3.365,2.77,8.705,8.705,0,0,1-4.339.773,11.342,11.342,0,0,1-7.3-3.935,13.09,13.09,0,0,1-3.436-7.3,10.045,10.045,0,0,1,2.651-8.1,10.8,10.8,0,0,1,8.085-3.567,10.412,10.412,0,0,1,4.4,1.058,9.148,9.148,0,0,1,3.329,2.865,13.255,13.255,0,0,1,2.2,7.74,13.469,13.469,0,0,1-2.223,7.692Zm-38.132,11.761c.285.971.473,1.943.713,2.914q.312,1.457.535,2.914a7.024,7.024,0,0,1,.357,2.914,5.607,5.607,0,0,1-.529,1.457,5.188,5.188,0,0,1-1.076,1.457h-.357A5.184,5.184,0,0,1,441,303.342a5.6,5.6,0,0,1-.529-1.457,7.032,7.032,0,0,1,.357-2.914q.223-1.457.535-2.914c.24-.971.429-1.943.713-2.914Zm61.181,0c.285.971.473,1.943.713,2.914q.313,1.457.535,2.914a7.028,7.028,0,0,1,.357,2.914,5.6,5.6,0,0,1-.529,1.457,5.184,5.184,0,0,1-1.076,1.457h-.357a5.183,5.183,0,0,1-1.076-1.457,5.606,5.606,0,0,1-.529-1.457,7.031,7.031,0,0,1,.357-2.914q.223-1.457.535-2.914c.24-.971.429-1.943.713-2.914ZM414.742,278.8a36.808,36.808,0,0,1,3.852-.846c1.284-.2,2.568-.392,3.852-.526l-1.372,1.372a83.108,83.108,0,0,1-.025-16.264l.026-.268a1.255,1.255,0,0,1,1.371-1.129c1.32.127,2.639.325,3.959.526a37.422,37.422,0,0,1,3.959.871,37.413,37.413,0,0,1-3.959.871c-1.32.2-2.639.4-3.959.526l1.4-1.4a83.1,83.1,0,0,1-.025,16.264l-.027.275a1.224,1.224,0,0,1-1.338,1.1h-.007c-1.284-.134-2.568-.324-3.852-.526A36.8,36.8,0,0,1,414.742,278.8Z" transform="translate(71.871 42.452)" fill="#5504b0"/>
    <path id="Path_22707" data-name="Path 22707" d="M462.934,249.641c.286,1.676.475,3.352.717,5.029q.314,2.514.538,5.029a20.543,20.543,0,0,1,.36,5.029,14.728,14.728,0,0,1-.527,2.515,10.337,10.337,0,0,1-1.074,2.515h-.357a10.347,10.347,0,0,1-1.078-2.514,14.759,14.759,0,0,1-.531-2.514,20.529,20.529,0,0,1,.353-5.029q.221-2.515.531-5.029c.239-1.677.426-3.353.71-5.03Zm-13.721-17.12a30.968,30.968,0,0,1,7.077-2.39,43.939,43.939,0,0,1,7.427-1.01,45.287,45.287,0,0,1,7.489.239c1.243.116,2.471.355,3.7.553,1.22.257,2.429.564,3.625.9-2.483-.2-4.931-.473-7.393-.537-2.456-.11-4.912-.073-7.36.036s-4.887.384-7.321.718c-1.219.159-2.427.392-3.634.642C451.611,231.9,450.413,232.192,449.213,232.521Zm12.626-28.248c1.242,2.06,2.568,4.046,3.914,6.009,1.366,1.95,2.782,3.857,4.289,5.686a64.663,64.663,0,0,0,4.782,5.255,60.143,60.143,0,0,0,5.418,4.664,29.466,29.466,0,0,1-6.042-3.977,40.367,40.367,0,0,1-5.077-5.188,44.833,44.833,0,0,1-7.285-12.449Zm-5.564,13.7a82.23,82.23,0,0,1,9.772,3.847,81.284,81.284,0,0,1,9.275,4.927,81.265,81.265,0,0,1-9.772-3.847A82.24,82.24,0,0,1,456.275,217.969Z" transform="translate(81.484 28.172)" fill="#5504b0"/>
    <path id="Path_22708" data-name="Path 22708" d="M432.26,438.133c28.962-77.718,3.507-133.644.309-140.123,8.275.333,17.061.511,26.18.511,7.775,0,15.313-.131,22.494-.38-3.448,7.074-28.391,62.774.38,139.993Z" transform="translate(76.756 54.314)" fill="#5504b0"/>
    <path id="Path_22709" data-name="Path 22709" d="M341.819,200.144c4.106.62,8.149,1.467,12.171,2.393s8.014,1.958,12,3.029c3.97,1.115,7.931,2.258,11.856,3.535s7.835,2.606,11.679,4.178c-4.107-.617-8.15-1.463-12.172-2.389s-8.014-1.958-11.994-3.033c-3.969-1.117-7.93-2.261-11.855-3.538S345.663,201.712,341.819,200.144ZM413.11,160.3c4.3,3.492,8.443,7.152,12.526,10.871s8.089,7.517,12.066,11.345c3.946,3.86,7.872,7.741,11.7,11.721s7.62,8,11.236,12.2c-4.305-3.49-8.446-7.149-12.528-10.869s-8.088-7.518-12.063-11.348c-3.944-3.862-7.87-7.743-11.7-11.724S416.728,164.5,413.11,160.3Zm-26.4,79.056c4.751.484,9.455,1.2,14.143,1.991s9.352,1.7,14.009,2.637c4.647.986,9.289,2,13.9,3.151s9.215,2.354,13.766,3.8c-4.752-.481-9.456-1.193-14.143-1.987s-9.352-1.7-14.008-2.641c-4.647-.988-9.288-2-13.9-3.154S391.263,240.807,386.712,239.359ZM365.669,160.3q8.4,6.092,16.517,12.533c5.43,4.269,10.771,8.644,16.095,13.041,5.3,4.431,10.572,8.884,15.76,13.444q7.814,6.8,15.333,13.957-8.406-6.089-16.52-12.53c-5.43-4.269-10.771-8.645-16.093-13.043-5.293-4.433-10.57-8.886-15.757-13.447Q373.192,167.456,365.669,160.3Zm.949,84.98c-1.122,1.193-3.069,2.17-4.184,1.128s-.274-3.06.847-4.251a4.038,4.038,0,0,1,3.4-1.518l-2.892-8.4a1.378,1.378,0,0,1,.373-1.463l4.105-3.77a.393.393,0,1,1,.532.578l-4.11,3.77a.6.6,0,0,0-.157.629c3.365,9.815,3.2,9.215,3.191,9.37.595.964.164,2.575-1.1,3.928Zm62.839-15.076c-1.574.453-3.746.3-4.173-1.167s1.328-2.771,2.9-3.222a4.038,4.038,0,0,1,3.7.43l1.806-8.7a1.378,1.378,0,0,1,1.068-1.067l5.455-1.144a.393.393,0,0,1,.162.769l-5.46,1.141a.6.6,0,0,0-.456.46c-2.121,10.157-1.956,9.558-2.044,9.685C432.432,228.526,431.238,229.691,429.458,230.207Z" transform="translate(43.975 3.972)" fill="#5504b0"/>
  </g>
</svg>
