<svg xmlns="http://www.w3.org/2000/svg" width="467.255" height="439.286" fill="#5504b0" xmlns:v="https://vecta.io/nano"><path d="M285.051 403.526a3.15 3.15 0 0 0-2.117-.963 3.26 3.26 0 0 0-2 .88 22.31 22.31 0 0 0-3.412 4.446l-3.507 5.029a17.2 17.2 0 0 1-4.886 4.375c-1.606.873-3.383 1.388-5.207 1.51l.9.1 3.282.131c1.094.048 2.176-.048 3.269-.059l1.6-.059 1.581-.309c1.054-.241 2.09-.555 3.1-.939a19.82 19.82 0 0 0 9.963-7.894v-.012l.749-1.451a16.19 16.19 0 0 0-3.329-4.779zm2.52 6.4a17.57 17.57 0 0 1-3.852 5.029 21.04 21.04 0 0 1-5.706 3.567c-1.034.453-2.105.819-3.2 1.094-.548.153-1.103.276-1.664.369-.618.1-1.129.071-1.7.119a60.1 60.1 0 0 1-6.706-.012c-4.472-.293-8.873-1.263-13.054-2.877a31.28 31.28 0 0 1-11.2-7.121 29.6 29.6 0 0 0 5.492 3.65 37.22 37.22 0 0 0 5.505 2.425 51.91 51.91 0 0 0 11.069.3A12.3 12.3 0 0 0 271.59 411c1.213-1.486 2.342-3.151 3.555-4.779.63-.82 1.213-1.6 1.914-2.437a11.02 11.02 0 0 1 2.461-2.271 5.22 5.22 0 0 1 3.626-.951 4.8 4.8 0 0 1 3.008 1.95 12.86 12.86 0 0 1 2.235 5.79c.442-.924.819-1.877 1.129-2.853 0 0 4.316-11.318-18.571-24.277a14.91 14.91 0 0 1-.773-4.47c.1-6.8-8.215-11.021-10.189-10.034-2.177 1.45-4.627 2.441-7.2 2.913l-1.082-.987a35.46 35.46 0 0 1-4.149 2.723c-1.391.808-2.77 1.557-4.137 2.295s-2.711 1.462-4.007 2.259a13.74 13.74 0 0 0-3.662 2.937 6.88 6.88 0 0 1 2.093-4.791 15.04 15.04 0 0 1 4.1-3.127 21.43 21.43 0 0 1 4.708-1.819 15.93 15.93 0 0 1 5.053-.475 19.08 19.08 0 0 1-4.244-5.255c-1.772-3.721-5.9-5.231-9.166-5.445-1.688-2.128-4.708-3.733-9.06 2.164-2.842 3.852-5.16 5.516-6.919 6.123l-.071.036a18.68 18.68 0 0 1-8.964-3.781s-7.775-7.74-9.915 4.042c-.844 4.708-2.2 7.229-3.507 8.548a8.45 8.45 0 0 0 .606 12.84l.559.4c8.822 6.289 23.017 7.633 34.538 18.143a57.13 57.13 0 0 0 5.136 4.149 49.93 49.93 0 0 0 9.119 14.933 59.41 59.41 0 0 0 10.474 5.552 12.34 12.34 0 0 0 10.522-.916c1.747-.808 3.5-1.807 5.3-2.734.927-.452 1.795-.9 2.782-1.343 1.021-.475 2.107-.795 3.222-.951a5.13 5.13 0 0 1 3.662.749 4.87 4.87 0 0 1 1.855 3.079 12.63 12.63 0 0 1-.571 6.206c.808-.644 1.575-1.339 2.295-2.081 0 0 6.966-6.499-1.786-23.131zm-40.838-29.413a12.88 12.88 0 0 1 3.65-3.436 14.77 14.77 0 0 1 4.565-1.95 13.04 13.04 0 0 1 3.531-.321c-.452-.333-.915-.642-1.355-.987a20.74 20.74 0 0 1-3.721-3.709c1.379 1.082 2.829 2.009 4.268 2.948s2.913 1.819 4.4 2.7c2.948 1.783 5.944 3.483 8.869 5.4-.844-.262-1.677-.571-2.5-.892-2.425 2.235-4.922 3.935-7.276 5.778-1.213.951-2.449 1.878-3.555 2.913a23.62 23.62 0 0 0-3.246 3.543c-.115-1.795.361-3.578 1.355-5.077a14.48 14.48 0 0 1 3.578-3.828 18.38 18.38 0 0 1 4.458-2.52 15.48 15.48 0 0 1 4.161-1.034 52.96 52.96 0 0 1-6.468-3.258c-.737-.452-1.475-.915-2.2-1.4l-3.424 2.009a90.31 90.31 0 0 0-3.781 2.283 51.3 51.3 0 0 0-3.555 2.509c-1.213.868-2.259 1.914-3.614 2.96.206-1.677.845-3.271 1.855-4.625zm-20.473 5.921c-1.633-1.056-3.204-2.203-4.708-3.436a49.5 49.5 0 0 1-4.268-3.947c-1.392-1.417-2.639-2.971-3.721-4.637a29.8 29.8 0 0 1 5.255 2.758 51.88 51.88 0 0 1 4.708 3.436 53.6 53.6 0 0 1 4.268 3.959 29.6 29.6 0 0 1 3.721 4.625 31.04 31.04 0 0 1-5.255-2.758zm58.458 41.124a3.3 3.3 0 0 0-2.187-.1 22.37 22.37 0 0 0-5.029 2.485c-1.724 1-3.484 2.021-5.362 2.96a17.31 17.31 0 0 1-6.313 1.783c-2.235.088-4.455-.403-6.444-1.427a13.62 13.62 0 0 1-1.843-.987c8.679 6.254 19.807 10.617 29.52 2.853.056-1.962-.238-3.919-.868-5.778a3.22 3.22 0 0 0-1.475-1.8zm2.851-113.532l-6.765 66.031-3.817-46.533c3.676-6.539 7.207-13.078 10.582-19.498zm-180.558-.357l-.8-18.678-.868-37.355-.641-37.331-.131-4.649a35.75 35.75 0 0 0-.333-4.458 27.03 27.03 0 0 0-2.663-8.322A27.72 27.72 0 0 0 89.31 190.74l-2-.9-2.068-.761-2.1-.583-2.283-.535-9.1-2.128-18.178-4.268c-.785-.19-1.451-.333-2.331-.571a13 13 0 0 1-2.472-.963 13.53 13.53 0 0 1-4.161-3.258 13.34 13.34 0 0 1-2.568-4.589c-.142-.417-.261-.842-.356-1.272l-.25-1.153-.487-2.283q-1.962-9.131-3.816-18.285c-4.958-24.408-10.331-48.733-14.35-73.331q2.122 9.1 4.161 18.2l4.364 18.166 8.488 36.38 4.2 18.2.523 2.271.25 1.129c.1.321.167.654.285.963a10.2 10.2 0 0 0 5.2 5.9 9.67 9.67 0 0 0 1.879.7c.63.166 1.486.345 2.211.511l18.208 4.16 6.111 1.4-15.777-50.481c-28.153-42.23-7.87-60.812-7.87-60.812S9.123 70.93.001 79.419l18.7 195.3s73.26 43.49 89.822 57.578c-.891-6.168-1.189-12.41-1.51-18.628zM12.541 96.993v-.024l-.238-3.555a.36.36 0 0 1 .333-.38c.187-.01.352.123.38.309l.44 3.543a.46.46 0 0 1-.644.493.46.46 0 0 1-.271-.386zm.511 7.121c-.012-.012-.012-.012-.012-.024l-.259-3.55c-.017-.298.204-.557.502-.585s.564.183.604.478l.416 3.543c.032.346-.215.655-.559.7a.63.63 0 0 1-.69-.559zm.511 7.086l-.262-3.555c-.036-.387.248-.729.635-.766a.7.7 0 0 1 .765.635l.416 3.543a.79.79 0 0 1-.69.868.78.78 0 0 1-.856-.69c-.009-.01-.014-.023-.012-.036zm.535 7.122l-.273-3.555c-.046-.469.298-.887.767-.933s.887.298.933.767l.4 3.543a.91.91 0 0 1-.194.673.92.92 0 0 1-.614.338.9.9 0 0 1-1.011-.808c-.001-.009-.005-.018-.012-.024zm.583 7.11l-.286-3.555a.94.94 0 0 1 .221-.703.95.95 0 0 1 .659-.331c.521-.046.982.336 1.034.856l.38 3.543a1.01 1.01 0 0 1-.892 1.106 1 1 0 0 1-1.106-.892c-.007-.006-.011-.015-.012-.024zm.3 3.555a1.05 1.05 0 0 1 1.487-1.075 1.05 1.05 0 0 1 .605.875l.381 3.543a1.1 1.1 0 1 1-2.187.238v-.028zm.583 7.11a1.14 1.14 0 1 1 2.27-.214l.381 3.543a1.19 1.19 0 1 1-2.366.25v-.024zm.606 7.11c-.056-.437.131-.87.487-1.129s.826-.303 1.224-.115.663.578.689 1.018l.356 3.543a1.23 1.23 0 0 1-1.094 1.355 1.25 1.25 0 0 1-1.356-1.106v-.012zm.63 7.1a1.25 1.25 0 0 1 1.13-1.356 1.25 1.25 0 0 1 1.356 1.13l.356 3.543c.056.457-.139.909-.51 1.182a1.27 1.27 0 0 1-2.021-.92v-.024zm.654 7.11c-.066-.696.445-1.314 1.141-1.379s1.314.445 1.379 1.141l.333 3.543a1.27 1.27 0 0 1-1.141 1.391 1.28 1.28 0 0 1-1.379-1.141zm1.022 10.652l-.345-3.555c-.067-.692.438-1.308 1.13-1.379a1.25 1.25 0 0 1 1.379 1.129v.012l.322 3.555c.033.33-.068.66-.281.915s-.519.414-.849.44c-.682.058-1.284-.441-1.356-1.121zm.369 3.543a1.22 1.22 0 0 1 1.713-1.249 1.22 1.22 0 0 1 .712.999c0 .012.012.012.012.024l.309 3.555a1.2 1.2 0 1 1-2.39.226zm.725 7.1c-.033-.31.058-.62.255-.861s.482-.394.792-.423a1.18 1.18 0 0 1 1.283 1.046v.024l.309 3.543a1.15 1.15 0 0 1-1.028 1.255 1.15 1.15 0 0 1-1.255-1.029zm.713 7.1c-.04-.399.135-.79.461-1.024s.752-.278 1.118-.113.616.512.657.911v.012l.309 3.555c.059.601-.38 1.136-.981 1.195s-1.136-.38-1.195-.981zm1.106 10.628l-.381-3.543a1.07 1.07 0 0 1 2.128-.226v.024l.3 3.555c.039.368-.123.729-.424.944a1.03 1.03 0 0 1-1.622-.754zm.761 7.1l-.381-3.543a.98.98 0 0 1 1.373-1.02.98.98 0 0 1 .577.806v.024l.3 3.555a.94.94 0 0 1-.844 1.022.94.94 0 0 1-1.022-.844zm.784 7.086l-.4-3.543a.891.891 0 1 1 1.771-.2v.035l.273 3.555c.043.453-.29.855-.743.898s-.855-.29-.898-.743zm.809 7.1l-.4-3.555c-.046-.414.253-.787.667-.833s.787.253.833.667v.036l.273 3.555c.023.37-.251.692-.62.727a.69.69 0 0 1-.747-.596zm.8 7.086l-.392-3.543a.62.62 0 0 1 .547-.69c.34-.033.645.209.69.547v.024l.273 3.555a.56.56 0 0 1-.511.606.57.57 0 0 1-.606-.5zm.8 7.086l-.392-3.543a.5.5 0 1 1 .987-.107v.012l.286 3.555a.44.44 0 0 1-.4.476.43.43 0 0 1-.475-.392zm.713 7.1l-.357-3.543a.42.42 0 0 1 .589-.423.42.42 0 0 1 .244.34l.321 3.555a.4.4 0 0 1-.369.428.39.39 0 0 1-.428-.357zm.713 7.1l-.357-3.543c-.016-.203.132-.381.334-.404s.386.12.415.321v.012l.32 3.555c.013.197-.136.367-.333.38a.35.35 0 0 1-.258-.08.34.34 0 0 1-.122-.241zm.642 7.11l-.321-3.555a.37.37 0 1 1 .737-.071l.357 3.555c.011.101-.02.202-.085.281s-.159.127-.26.135-.205-.019-.286-.084-.132-.159-.142-.261zm.582 7.122v-.012l-.285-3.555c-.01-.114.025-.227.099-.314a.43.43 0 0 1 .293-.15.44.44 0 0 1 .463.38l.381 3.543a.48.48 0 0 1-.428.523.47.47 0 0 1-.523-.416zm1.225 7.68c-.341.037-.648-.207-.69-.547-.009-.009-.014-.023-.012-.036l-.261-3.555a.55.55 0 0 1 1.094-.107l.4 3.555c.04.337-.198.644-.535.69zm6.563 3.448c-.097.181-.262.316-.459.374s-.409.035-.588-.065c0-.012-.012-.012-.024-.024l-3.055-1.843a.7.7 0 1 1 .7-1.2l3.127 1.724a.76.76 0 0 1 .3 1.034zm6.3 3.638a.9.9 0 0 1-1.236.357c-.009-.001-.017-.006-.024-.012l-3.055-1.843a.841.841 0 1 1 .832-1.462l3.127 1.724a.9.9 0 0 1 .435.544.91.91 0 0 1-.079.692zm6.266 3.626a1.03 1.03 0 0 1-1.391.392l-.012-.012-3.079-1.819c-.46-.277-.613-.871-.343-1.336s.862-.626 1.33-.364l3.1 1.748a1.02 1.02 0 0 1 .392 1.391zm6.206 3.591c-.139.246-.371.425-.644.499s-.563.035-.807-.107h-.012l-3.079-1.8a1.05 1.05 0 0 1 1.058-1.819l3.091 1.771a1.07 1.07 0 0 1 .392 1.45zm6.158 3.567c-.296.497-.935.666-1.438.38l-3.091-1.76a1.07 1.07 0 0 1-.551-.926c-.004-.385.199-.743.531-.938a1.07 1.07 0 0 1 1.078-.003l.012.012 3.08 1.8c.497.296.666.935.38 1.438zm6.147 3.555c-.284.476-.895.64-1.379.369l-3.1-1.771c-.497-.282-.671-.914-.388-1.411s.914-.671 1.411-.389h.012l3.079 1.807c.483.285.647.904.369 1.391zm6.1 3.531c-.26.441-.825.595-1.272.345l-3.1-1.748c-.308-.172-.501-.495-.506-.848a.99.99 0 0 1 .482-.862c.303-.181.679-.186.987-.014l.012.012 3.08 1.819a.94.94 0 0 1 .431.583c.06.244.02.502-.111.717zm6.1 3.519a.85.85 0 0 1-1.141.309l-3.127-1.736a.91.91 0 0 1-.345-1.236.9.9 0 0 1 1.236-.345c.009.001.018.005.024.012l3.056 1.831a.85.85 0 0 1 .3 1.165zm6.051 3.5a.71.71 0 0 1-.951.261l-3.127-1.724a.782.782 0 1 1 .761-1.367c.012 0 .012.012.024.012l3.056 1.843a.7.7 0 0 1 .237.975zm6.063 3.507c-.165.26-.503.347-.773.2l-3.115-1.724c-.204-.109-.334-.32-.34-.551s.113-.448.311-.568.445-.124.647-.011c.012 0 .012.012.024.012l3.055 1.843a.58.58 0 0 1 .19.8zm6 3.46a.38.38 0 0 1-.487.131l-3.151-1.688a.5.5 0 0 1-.19-.654c.129-.225.412-.308.642-.19.006.007.015.011.024.012l3.044 1.878a.38.38 0 0 1 .118.511zm5.968 3.436a.12.12 0 0 1-.154.048l-3.163-1.664a.26.26 0 0 1-.107-.357c.069-.12.22-.167.345-.107.012.012.012.012.024.012l3.02 1.9a.13.13 0 0 1 .035.166zm6.61-50.968c-.558.285-1.13.583-1.664.916l.012-2.711q.09-11.734.048-23.481c1.974 1.783 13.2 11.081 41.743 20.283l-11.45.915c-1.355.083-2.746.2-4.054.226-1.308.071-2.77-.012-4.137-.012a72.98 72.98 0 0 0-8.358.547c-2.791.321-5.546.907-8.227 1.748-.666.214-1.332.452-1.985.69-.646.285-1.3.534-1.93.867zm-1.774 32.017l.107-30.59a33.43 33.43 0 0 1 5.932-1.6c2.674-.487 5.373-.821 8.085-1l4.078-.238 4.09-.083 4.137-.059 4.2-.25 15.491-1.379a158.52 158.52 0 0 0 8.846 29.473l-3.008.487-9.107 1.593a112.43 112.43 0 0 0-4.577.939 17.1 17.1 0 0 0-2.5.725l-2.093.844a65.17 65.17 0 0 1-17.346 4.018l-4.482.238c-1.486 0-2.972-.036-4.458-.178a21.31 21.31 0 0 1-4.351-.82 7.66 7.66 0 0 1-1.974-.915c-.458-.299-.827-.715-1.07-1.205zm80.12 38.39a463.31 463.31 0 0 1-79.572 2.473l-.428-9.333-.142-9.333.012-18.666.012-2.889a3.3 3.3 0 0 0 .641 1.022 7.63 7.63 0 0 0 1.926 1.51c1.409.775 2.917 1.355 4.482 1.724a28.75 28.75 0 0 0 4.7.808 37.19 37.19 0 0 0 4.743.19c6.354-.106 12.624-1.481 18.44-4.042.713-.321 1.462-.7 2.128-1.022a14.6 14.6 0 0 1 1.926-.559c1.451-.357 2.949-.666 4.447-.963l9.024-1.712 3.614-.642a165.8 165.8 0 0 0 15.36 27.915c2.802 4.115 5.762 8.787 8.687 13.519zm17.013-90.3l32.16 7.264-30.293 2.58-1.872-9.841zm9.821 40.137l35.809-6.277a179.89 179.89 0 0 0-8.262 43.252l-2.271.737a154.78 154.78 0 0 1-16.859 5.647l-1.4-4.173c-.2-.571-.416-1.272-.654-2.116-.071-.214-.131-.44-.19-.666-.19-.678-.392-1.427-.594-2.247-.143-.523-.273-1.058-.416-1.629l-.25-1.023-.475-1.938c-.084-.345-.167-.69-.238-1.058q-.374-1.534-.749-3.21l-.785-3.472-3.567-16.74-.915-4.458c-.014-.104-.033-.207-.059-.309z"/><path d="M260.607 250.706s-5.029 7.882-9.868 22.66l-36.047 4.779-1.962.273-1.153-5.647-1.807-9.071-.475-2.425-.107-.547-.286-1.462a37.77 37.77 0 0 1-.285-1.45l-.286-1.439-.82-4.221-.321-1.664 30.079-3.7c10.414 2.19 20.116 3.997 23.338 3.914zm-141.931 81.588l-8.492 82.871-7.146-87.137m-71.219-45.439l-8.482 58.572-4.64-66.442M139.125 38.236c-2.5-.285-14.909 8.132-14.909 8.132s-3.424 1.141-7.276-3.852a46.12 46.12 0 0 1-5.992-10.843l-1.854-11.7c-.142-1.713-3.995-4.851-3.995-2.568s1.712 20.259 3.139 22.969 4.565 10.985 12.412 15.408 16.407-1 19.545-8.56 1.427-8.701-1.07-8.986zm-.38 7.454a7.26 7.26 0 0 1-.5 1.011 3.12 3.12 0 0 1-1.95 1.355c-.811.128-1.64-.059-2.318-.523a3.91 3.91 0 0 1-1.45-1.629 6.11 6.11 0 0 0 3.543.975c.555-.119 1.065-.391 1.474-.785.226-.2.44-.452.689-.69a8.56 8.56 0 0 1 .714-.785c-.044.361-.111.718-.2 1.07z"/><path d="M105.249 19.98c-.869-.112-1.749-.117-2.619-.015-.807.053-1.579.35-2.215.85a2.65 2.65 0 0 0-.8 2.019 9.21 9.21 0 0 0 .063 1.206l.245 1.259a17.25 17.25 0 0 0 1.79 4.781 12.7 12.7 0 0 0 1.468 2.1c.515.701 1.239 1.22 2.068 1.483-.46.033-.92-.076-1.316-.313a6.6 6.6 0 0 1-1.155-.749 10.24 10.24 0 0 1-1.848-2.029 14.05 14.05 0 0 1-2.167-5.022l-.234-1.353a8.13 8.13 0 0 1-.033-1.443 3.5 3.5 0 0 1 1.341-2.664c.817-.543 1.794-.792 2.771-.707a8.36 8.36 0 0 1 2.641.597z"/><path d="M124.617 60.715a9.6 9.6 0 0 1-1.946 2.82 11.64 11.64 0 0 1-2.7 2.044 13.04 13.04 0 0 1-3.021 1.181c-1.164-.04-2.332.036-3.474-.1a18.69 18.69 0 0 1-3.413-.629 16.11 16.11 0 0 1-6.076-3.07 20.22 20.22 0 0 1-4.522-5.171 24.68 24.68 0 0 1-1.6-3.106 20.26 20.26 0 0 1-.879-2.348 3.68 3.68 0 0 0 .593-.521 7.35 7.35 0 0 0 .851-1.291c.417-.831.777-1.688 1.079-2.567.591-1.694 1.091-3.419 1.498-5.166a91.1 91.1 0 0 0 1.877-10.484L99.659 42.4l-1.842 4.894c-.326.774-.702 1.525-1.127 2.249a5.46 5.46 0 0 1-.635.9 1.15 1.15 0 0 1-.239.2c.064-.031.138-.029.2.006l-1.371 1.215a23.85 23.85 0 0 0 2.84 7.137c1.301 2.243 3.023 4.214 5.071 5.805a19.69 19.69 0 0 0 3.3 2.075 18.63 18.63 0 0 0 3.685 1.235 19.35 19.35 0 0 0 3.812.528 27.13 27.13 0 0 0 3.055-.114l1.581-.3c.964-.368 1.882-.848 2.734-1.43 1.049-.701 1.978-1.568 2.748-2.568a9.59 9.59 0 0 0 1.7-3.3 11.29 11.29 0 0 0 .459-3.6 12.77 12.77 0 0 1-1.01 3.386zm-3.259-36.609l22.113 1.141s1.569 9.273-3.709 7.989a9.99 9.99 0 0 1-4.565-6.572h-3.317s-1.23 10.388-5.885 8.195-4.637-10.308-4.637-10.754m.357-1.659a6.8 6.8 0 0 1 2.154-1.149 8.5 8.5 0 0 1 2.422-.455c.843-.026 1.684.103 2.481.381.794.291 1.484.809 1.986 1.49a11.87 11.87 0 0 0-2.222-.593c-.732-.086-1.47-.116-2.207-.091-.743.008-1.492.1-2.256.169zm12.733.749c.5-.477 1.1-.838 1.755-1.058.656-.234 1.347-.355 2.043-.358a5.1 5.1 0 0 1 2.061.448c.646.286 1.196.752 1.583 1.343-.612-.188-1.235-.341-1.865-.459a11.35 11.35 0 0 0-1.788-.143c-1.207-.013-2.417.138-3.789.229z"/><path d="M126.584 30.117c.727.025 1.396-.393 1.692-1.057s.159-1.442-.347-1.965-1.277-.687-1.952-.415-1.116.927-1.116 1.654c0 .961.761 1.75 1.722 1.783zm12.359.268c.727.025 1.396-.394 1.691-1.058s.158-1.442-.347-1.964-1.277-.687-1.951-.414-1.115.927-1.115 1.654c0 .962.762 1.75 1.723 1.783zm-1.462 4.78c.079.578-.002 1.166-.236 1.7a3.3 3.3 0 0 1-1.111 1.43 2.48 2.48 0 0 1-3.361-.489 8.58 8.58 0 0 0 1.537-.03c.414-.056.808-.213 1.147-.457a12.63 12.63 0 0 0 2.023-2.155z"/><path d="M102.08 19.71c-.057-3.398.363-6.786 1.248-10.067.456-1.661 1.102-3.264 1.924-4.777a10.43 10.43 0 0 1 3.567-3.844 7.7 7.7 0 0 1 2.519-.9 23.1 23.1 0 0 1 2.579-.125c1.7.027 3.388.069 5.071.235 3.389.254 6.723.995 9.9 2.2a17.38 17.38 0 0 1 4.43 2.626 12.66 12.66 0 0 1 3.247 4.077c.717 1.568 1.275 3.204 1.665 4.884a24.06 24.06 0 0 1 .839 5.109 6.42 6.42 0 0 1-.125 1.408c-.066.372-.105.748-.116 1.125a35.89 35.89 0 0 0 .059 2.465c.089 1.66.262 3.327.473 4.985l.349 2.479c.068.405.139.828.238 1.2l.037.138c.014.042 0 0-.014.018-.061-.018.064.088.122.172a.77.77 0 0 1 .1.193c.087.208.16.421.218.639.448 1.654.7 3.315.981 4.979a.06.06 0 0 1-.048.069.06.06 0 0 1-.068-.044c-.436-1.621-.9-3.255-1.437-4.817-.063-.185-.138-.366-.225-.541-.015-.024-.051-.109-.047-.082-.006 0 .047.028-.059-.085-.066-.079-.12-.167-.16-.261l-.057-.163c-.15-.435-.244-.84-.345-1.258-.193-.83-.369-1.659-.506-2.494-.285-1.669-.532-3.343-.7-5.038a25.22 25.22 0 0 1-.135-2.576c.004-.464.045-.927.124-1.384a5.32 5.32 0 0 0 .068-1.1 26.26 26.26 0 0 0-.774-4.836c-.332-1.607-.823-3.177-1.466-4.687l-.55-1.072-.694-.988c-.226-.335-.484-.647-.771-.932-.262-.31-.546-.601-.85-.869a18.18 18.18 0 0 0-4.074-2.741 26.32 26.32 0 0 0-9.663-2.386c-1.669-.119-3.345-.113-5.014.016-.82.051-1.637.144-2.448.28-.765.189-1.494.5-2.16.92a9 9 0 0 0-1.783 1.556 16.63 16.63 0 0 0-1.4 1.972 21.51 21.51 0 0 0-1.954 4.517 51.31 51.31 0 0 0-2 9.807c-.001.016-.008.031-.02.041s-.028.015-.044.014c-.028-.005-.049-.029-.051-.057zm-47.062 56.9a14.56 14.56 0 0 1 5.542-3.455c2.095-.751 4.311-1.109 6.536-1.056a20.54 20.54 0 0 1 6.47 1.337c1.021.396 2.017.856 2.981 1.377.93.576 1.843 1.172 2.725 1.8-1.02-.394-1.977-.881-2.975-1.27l-1.511-.534a11.31 11.31 0 0 0-1.514-.489l-1.532-.412c-.509-.139-1.037-.188-1.553-.287-1.032-.185-2.077-.296-3.125-.331-2.099-.054-4.195.198-6.221.749-2.064.548-4.03 1.417-5.824 2.575zm76.043-20.247a28.35 28.35 0 0 1 15.255.635 29.41 29.41 0 0 1 7.049 3.293 31.1 31.1 0 0 1 5.838 5.091 62.91 62.91 0 0 1 8.446 12.7c2.389 4.512 4.208 9.304 5.417 14.264a1.07 1.07 0 0 1-.515 1.18l-.033.018-7.623 4.288q-3.835 2.1-7.728 4.092l-.044.023a1.19 1.19 0 0 1-1.6-.52l-.043-.093q-1.977-4.89-3.806-9.843l-1.793-4.968-1.673-5.019c-.024-.06.005-.128.064-.153s.128.002.155.06c.857 1.545 1.647 3.12 2.465 4.682l2.345 4.733q2.309 4.748 4.469 9.56l-1.684-.591q3.806-2.154 7.679-4.183l7.785-3.987-.548 1.2a76.29 76.29 0 0 0-4.13-14.354c-1.905-4.636-4.847-8.773-8.6-12.094-1.852-1.615-3.848-3.057-5.964-4.306a35.86 35.86 0 0 0-6.578-3.175 38.65 38.65 0 0 0-14.566-2.3h-.011c-.06.002-.113-.042-.121-.102s.029-.117.087-.132zm-51.79 129.421c-2.042-4.4-3.842-8.886-5.542-13.407s-3.28-9.083-4.8-13.664c-1.482-4.594-2.923-9.2-4.22-13.853s-2.53-9.325-3.506-14.076c1.92 4.453 3.632 8.969 5.273 13.508s3.192 9.1 4.711 13.681l4.3 13.816c1.361 4.626 2.672 9.272 3.784 13.992zm37.193 8.154c4.542 1.082 9.987 2.069 15.789 2.96-3.758.119-7.52-.072-11.247-.571-1.169-.21-2.364-.243-3.543-.1a7.36 7.36 0 0 0-3.127 1.213 12.23 12.23 0 0 0-4.2 5.683 33.79 33.79 0 0 0-1.9 7.359 69.04 69.04 0 0 0-.737 7.7 120.45 120.45 0 0 0 .428 15.622c.003.062-.041.116-.103.125s-.12-.029-.135-.089c-.98-5.168-1.517-10.41-1.605-15.67a45.31 45.31 0 0 1 2.093-15.812 14.23 14.23 0 0 1 4.8-6.884c1.048-.739 2.232-1.264 3.483-1.546z"/><path d="M192.043 168.933a24.27 24.27 0 0 1-4.911 6.254c-1.741 1.654-3.596 3.184-5.552 4.577l-1.237-.2.167-.107c2.148-1.454 4.187-3.063 6.1-4.815a21.07 21.07 0 0 0 4.613-5.814l-5.909-7.276c-1.978-2.581-3.687-5.358-5.1-8.287-.356-.725-.618-1.581-.915-2.283l-.892-2.164-1.95-4.339-4.018-8.691-8.06-17.382-7.882-17.489c-.015-.028-.018-.061-.006-.091s.035-.053.065-.064a.13.13 0 0 1 .154.048c3.15 5.564 6.146 11.223 9.083 16.906 2.96 5.671 5.79 11.4 8.56 17.18 1.392 2.889 2.711 5.8 4 8.738.618 1.486 1.272 2.948 1.831 4.47.3.737.558 1.534.808 2.318.273.785.452 1.474.761 2.2 1.214 2.905 2.724 5.678 4.506 8.275a77.83 77.83 0 0 0 5.73 7.621l.012.012a.39.39 0 0 1 .048.4z"/><path d="M100.379 124.535q6.051 11.931 11.962 23.93l2.949 6c.951 1.96 2.117 3.808 3.476 5.511 2.725 3.389 6.177 6.123 10.1 8 1.948.938 3.996 1.652 6.105 2.128l6.522 1.385q6.539 1.334 13.112 2.526l26.326 4.621 6.592 1.075 3.275.553a22.8 22.8 0 0 0 3.2.247c1.073.007 2.145-.063 3.208-.21 1.092-.136 2.225-.334 3.35-.422 2.26-.247 4.538-.299 6.807-.155 2.323.096 4.608.622 6.74 1.55.136.064.272.144.409.219a4.37 4.37 0 0 1 .394.258l.681.466 1.379.92a105.46 105.46 0 0 0 2.812 1.777c3.787 2.316 7.695 4.451 11.679 6.429l1.516.757c.54.306 1.009.723 1.378 1.222.376.505.622 1.093.719 1.715.065.608.026 1.222-.116 1.816a4.54 4.54 0 0 1-.766 1.663c-.383.489-.874.882-1.434 1.149a6.92 6.92 0 0 1-3.458.565c-.287-.022-.576-.039-.858-.083l-.427-.059c-.158-.031-.314-.075-.465-.131a11.28 11.28 0 0 1-1.56-.753c-.985-.556-1.934-1.15-2.876-1.754l-1.4-.924c-.41-.312-.878-.541-1.376-.674a2.73 2.73 0 0 0-2.694.752c-.661.786-1.009 1.788-.978 2.815a5.5 5.5 0 0 0 .766 2.965c.224.404.583.716 1.014.881a5.38 5.38 0 0 0 1.526.13c1.092-.053 2.179-.184 3.252-.393 4.345-.899 8.627-2.076 12.82-3.525l.023-.008c.056-.018.115-.025.174-.02a2.84 2.84 0 0 1 1.826.683 2.55 2.55 0 0 1 .682 1.849 6.38 6.38 0 0 1-.251 1.718c-.15.542-.345 1.07-.583 1.579l-.379-.873a3.97 3.97 0 0 1 1.835 1.125c.466.571.755 1.267.831 2a6.29 6.29 0 0 1-.1 2.015c-.127.647-.322 1.279-.581 1.885l-.343-.932a2.37 2.37 0 0 1 1.261 1.232c.203.541.231 1.132.079 1.689a8.9 8.9 0 0 1-1.166 2.513l-.158.262c-.041.062-.107.205-.072.123.021-.065.031-.132.03-.2v-.058c-.008-.08-.028-.158-.059-.231a.74.74 0 0 0-.418-.388.66.66 0 0 0-.43-.025l-.045.012c.005 0-.074.033 0 0a1.27 1.27 0 0 1 .174-.054c.122-.028.247-.037.371-.028.26.051.492.197.649.411a2.09 2.09 0 0 1 .171.366 5.12 5.12 0 0 1 .079 1.542 26.04 26.04 0 0 1-.336 2.615c-.013.073-.037.144-.071.21a17.93 17.93 0 0 1-4.268 5.326c-1.729 1.506-3.713 2.692-5.859 3.5-2.207.861-4.616 1.069-6.938.6-2.256-.581-4.358-1.649-6.158-3.128a76.3 76.3 0 0 1-9.585-9.118c-1.484-1.61-2.926-3.253-4.363-4.887l-2.152-2.432c-.358-.406-.72-.783-1.077-1.161a12.55 12.55 0 0 0-1.117-1 22.87 22.87 0 0 0-11.27-4.817c-1.029-.15-2.066-.233-3.106-.249l-3.279-.075a172.6 172.6 0 0 1-6.552-.378c-8.706-.635-17.38-1.495-26.042-2.515-8.658-1.045-17.309-2.225-25.886-3.987a93.48 93.48 0 0 1-12.762-3.389 20.92 20.92 0 0 1-3.1-1.441c-.481-.3-.976-.593-1.442-.911l-1.363-1a52.91 52.91 0 0 1-4.92-4.477 153.03 153.03 0 0 1-15.961-20.8c-4.785-7.292-9.224-14.794-13.4-22.435-.031-.057-.01-.129.047-.161s.127-.01.16.045c4.436 7.482 9.186 14.778 14.153 21.9 4.845 7.176 10.287 13.93 16.268 20.19 3.065 2.974 6.3 5.906 10.236 7.209 4.089 1.327 8.266 2.365 12.5 3.106 4.249.805 8.537 1.457 12.831 2.07l12.911 1.672c8.626.987 17.279 1.815 25.935 2.417l6.479.389c1.106.06 2.075.062 3.245.1a26.6 26.6 0 0 1 3.392.3 25.26 25.26 0 0 1 12.392 5.431c.456.37.891.767 1.3 1.188l1.132 1.241 2.152 2.475 4.288 4.888a78.26 78.26 0 0 0 9.206 8.959c1.546 1.322 3.36 2.292 5.317 2.845 1.966.424 4.012.271 5.893-.44a17.43 17.43 0 0 0 5.332-3.079 16.36 16.36 0 0 0 3.961-4.7l-.071.21c.158-.8.295-1.632.37-2.424a4.67 4.67 0 0 0 .007-.993.1.1 0 0 0 .042.076.56.56 0 0 0 .4.239c.07.019.145.019.215 0a.4.4 0 0 0 .1-.04c.051-.029-.052.022-.071.027l-.119.042c-.169.042-.346.035-.51-.021a.83.83 0 0 1-.441-.42c-.036-.079-.059-.162-.068-.248v-.078a.98.98 0 0 1 .045-.28 2.17 2.17 0 0 1 .224-.439l.177-.279a7.64 7.64 0 0 0 1.035-2.052c.156-.7.056-1.02-.505-1.307l-.022-.012c-.335-.173-.476-.578-.32-.921a8.22 8.22 0 0 0 .52-1.57c.128-.521.17-1.059.126-1.594-.035-.479-.209-.936-.5-1.318-.329-.357-.748-.62-1.213-.761l-.041-.016c-.155-.06-.28-.18-.347-.332s-.071-.325-.01-.48l.019-.044c.439-.849.7-1.779.766-2.733.038-.377-.075-.754-.315-1.047a1.77 1.77 0 0 0-1.059-.379l.2-.028a111.88 111.88 0 0 1-13.017 3.326c-1.117.208-2.248.335-3.384.381a6.1 6.1 0 0 1-1.789-.178c-.621-.225-1.141-.665-1.467-1.239a6.29 6.29 0 0 1-.871-3.424c-.022-1.224.412-2.413 1.216-3.336a3.5 3.5 0 0 1 3.442-.945c.581.158 1.126.427 1.606.791l1.383.926c.927.608 1.865 1.2 2.831 1.727a10.69 10.69 0 0 0 1.454.687 2.28 2.28 0 0 0 .338.095l.4.051c.269.04.538.052.806.071a6.17 6.17 0 0 0 3.064-.515 3.22 3.22 0 0 0 1.749-2.288 4.6 4.6 0 0 0 .088-1.5c-.081-.484-.279-.941-.576-1.331-.3-.397-.68-.727-1.115-.969l-1.482-.721c-4.01-1.97-7.982-4.022-11.865-6.252l-2.885-1.725-1.425-.9-.711-.461a5.41 5.41 0 0 0-.31-.193 3.54 3.54 0 0 0-.332-.167 17.61 17.61 0 0 0-6.256-1.256c-2.185-.086-4.374.017-6.541.308-1.1.112-2.158.326-3.274.493a24.04 24.04 0 0 1-3.453.31c-1.158.02-2.316-.041-3.465-.184l-3.332-.48-6.616-1.022-26.372-4.58q-6.574-1.268-13.128-2.658l-6.546-1.455a30.4 30.4 0 0 1-6.476-2.325c-4.126-2.046-7.723-5.018-10.513-8.682a30.89 30.89 0 0 1-3.512-5.861l-2.81-6.069q-5.589-12.152-11.075-24.353c-.019-.057.008-.119.063-.145s.119-.006.151.045z"/><path d="M172.109 92.529l5.214 8.828 5.126 8.876q5.108 8.886 10.113 17.829l-.055-.09 17.572 24.819 8.831 12.364a70.67 70.67 0 0 0 4.7 5.872l.318.307.28.21.843.369 1.76.626 3.638.963c4.959.981 10.01 1.419 15.064 1.306a61.19 61.19 0 0 1 7.625.693 53.8 53.8 0 0 1 7.5 1.608 28.48 28.48 0 0 1 13.358 7.689 17.78 17.78 0 0 1 2.335 3.246c.668 1.251 1.034 2.64 1.069 4.058a8.54 8.54 0 0 1-.966 4.163 3.04 3.04 0 0 1-.392.564 1.62 1.62 0 0 1-1.006.573 1.41 1.41 0 0 1-.811-.14 1.87 1.87 0 0 1-.459-.35c-.17-.189-.316-.398-.435-.623-.305-.651-.538-1.334-.694-2.036l2.027-.026a18 18 0 0 1-.471 1.846 7.6 7.6 0 0 1-.839 1.9c-.13.196-.281.376-.451.538-.274.257-.62.422-.992.474-.418.043-.837-.073-1.174-.325-.212-.156-.396-.345-.547-.56a7.2 7.2 0 0 1-.9-1.918l2.121-.1a13.76 13.76 0 0 1-.821 2.5 7 7 0 0 1-.7 1.243 3.04 3.04 0 0 1-1.457 1.156c-.389.133-.807.154-1.207.062a2.74 2.74 0 0 1-.939-.437 4.76 4.76 0 0 1-1.09-1.129c-.498-.724-.926-1.494-1.276-2.3l2.238-.438a10.06 10.06 0 0 1-.411 2.612c-.154.541-.428 1.042-.8 1.464-.277.307-.635.529-1.033.641a2.25 2.25 0 0 1-1.236-.022 3.82 3.82 0 0 1-1.428-.87 8.7 8.7 0 0 1-.919-.978 21.05 21.05 0 0 1-1.423-2.017c-.04-.061-.073-.125-.1-.193l-.01-.028c-.197-.621-.466-1.218-.8-1.777-.651-1.026-1.605-1.824-2.729-2.284-.5-.2-1.289-.4-1.979-.605l1.437-1.871a18.81 18.81 0 0 1 2.084 4.84 6.03 6.03 0 0 1 .178 1.529 3.01 3.01 0 0 1-.69 1.947c-.505.547-1.21.867-1.955.886-.527.026-1.056-.023-1.569-.147a18.15 18.15 0 0 1-2.5-.831c-.778-.3-1.538-.619-2.3-.937q-2.27-.972-4.5-2c-5.945-2.743-11.751-5.718-17.551-8.715l-8.84-4.058q-4.427-2.091-8.813-4.267c-2.923-1.454-5.83-2.944-8.675-4.556-1.424-.8-2.838-1.625-4.219-2.508-.688-.446-1.372-.9-2.023-1.4-.692-.473-1.292-1.066-1.773-1.752a.12.12 0 0 1 .034-.166.12.12 0 0 1 .166.034l.012.017a6.78 6.78 0 0 0 1.8 1.537c.672.446 1.374.852 2.075 1.256 1.412.8 2.861 1.532 4.318 2.25 2.92 1.425 5.876 2.783 8.842 4.119 5.959 2.68 11.9 5.109 17.989 7.735q8.763 4.287 17.658 8.275 2.219.994 4.454 1.921l2.236.881c.696.283 1.411.517 2.14.7a2.32 2.32 0 0 0 1.087.045 2.36 2.36 0 0 0-.06-1.215c-.404-1.441-1.002-2.82-1.777-4.1l-.025-.043a1.26 1.26 0 0 1 1.462-1.828c.715.221 1.367.36 2.231.7a8.31 8.31 0 0 1 2.216 1.342c.661.563 1.228 1.228 1.68 1.969.414.707.747 1.459.992 2.241l-.107-.221c.371.616.776 1.21 1.215 1.779a6.35 6.35 0 0 0 .65.717c.146.151.317.275.506.366.016-.009-.017 0-.1.011s-.1.067-.071.032a1.59 1.59 0 0 0 .28-.562c.19-.631.3-1.283.328-1.941v-.031a1.17 1.17 0 0 1 2.236-.407c.276.663.614 1.299 1.008 1.9a2.64 2.64 0 0 0 .544.608c.181.114.124.075.1.084.15-.079.276-.198.363-.343a4.83 4.83 0 0 0 .482-.834 11.7 11.7 0 0 0 .7-2.042l.007-.029a1.1 1.1 0 0 1 2.114-.074c.131.462.322.905.569 1.317.042.069.087.1.061.085a.58.58 0 0 0-.346-.066c-.186.035-.209.077-.209.077.043-.045.083-.094.118-.146a6.2 6.2 0 0 0 .609-1.351 16.2 16.2 0 0 0 .451-1.6l.008-.032c.108-.471.529-.805 1.012-.803s.902.338 1.007.81a8.31 8.31 0 0 0 .476 1.574l.1.164a.3.3 0 0 0-.091-.055.6.6 0 0 0-.351-.059c-.245.038-.266.146-.223.078a1.13 1.13 0 0 0 .151-.214c.523-.97.798-2.053.8-3.155-.001-1.129-.266-2.243-.774-3.252-.559-1.063-1.23-2.064-2-2.986a26.8 26.8 0 0 0-12.436-7.705 54.32 54.32 0 0 0-14.818-2.579c-5.096.024-10.184-.419-15.2-1.322-1.253-.252-2.5-.534-3.736-.893-.616-.184-1.231-.375-1.839-.6-.3-.109-.612-.237-.91-.368a5.45 5.45 0 0 1-.5-.328l-.381-.338a70.92 70.92 0 0 1-5.046-5.8c-3.192-3.961-6.271-8-9.337-12.046-6.113-8.11-11.906-16.442-17.661-24.8l-.007-.01-.049-.08q-4.852-9.026-9.575-18.123l-4.718-9.1-4.63-9.148c-.025-.057-.003-.123.052-.153s.122-.013.156.039zm46.548 116.046c1.544.706 3.191 1.157 4.879 1.336a14.65 14.65 0 0 0 5-.274 14.33 14.33 0 0 0 4.578-1.889 16.79 16.79 0 0 0 2.011-1.446c.634-.529 1.2-1.143 1.8-1.706l.061-.057c.24-.224.616-.212.84.028s.212.616-.028.84l-.024.021c-.671.564-1.3 1.17-2 1.689s-1.441.988-2.211 1.4c-3.067 1.684-6.614 2.278-10.062 1.685a15.86 15.86 0 0 1-4.837-1.626zm0 5.136c1.528 1.08 3.243 1.866 5.059 2.317a12.97 12.97 0 0 0 5.487.224c.453-.069.899-.173 1.335-.312.448-.098.884-.245 1.3-.437.419-.183.846-.343 1.255-.543l1.179-.7a6.74 6.74 0 0 0 1.125-.776l1.081-.84c.677-.613 1.31-1.281 1.965-1.914l.055-.053c.236-.228.612-.222.841.014s.222.612-.014.841l-.022.02c-.725.634-1.422 1.294-2.166 1.9l-1.185.825a7.32 7.32 0 0 1-1.227.754l-1.28.666c-.442.188-.9.335-1.353.5a6.87 6.87 0 0 1-1.386.388c-.464.121-.937.205-1.415.252-1.899.229-3.826.05-5.65-.526a15.2 15.2 0 0 1-4.98-2.6zm0 5.564a15.72 15.72 0 0 0 5.07 2.134 12.9 12.9 0 0 0 5.423.1 7.3 7.3 0 0 0 1.31-.335 6.8 6.8 0 0 0 1.268-.461l1.223-.569 1.135-.734.565-.365.515-.44 1.027-.875c.644-.63 1.229-1.324 1.845-1.977l.056-.059c.225-.239.601-.25.84-.025s.25.601.025.84l-.021.021c-.687.66-1.339 1.351-2.052 1.976l-1.135.868-.566.432-.62.357-1.239.708-1.326.534c-.439.182-.895.321-1.361.415-.455.134-.921.227-1.393.277-1.871.266-3.778.131-5.593-.395-1.796-.507-3.489-1.327-5-2.422z"/><path d="M245.475 185.463l8.524 5.513a.6.6 0 1 1-.647 1 .68.68 0 0 1-.056-.041zm8.173 0a22.24 22.24 0 0 1 4.466.761 12.22 12.22 0 0 1 4.158 1.93 6.02 6.02 0 0 1 1.58 1.772 3.97 3.97 0 0 1 .48 1.121 9.34 9.34 0 0 1 .28 1.125l.963 4.419c.054.211-.012.434-.171.583a.59.59 0 0 1-.593.129.6.6 0 0 1-.398-.459l-.007-.038-.671-4.473a8.56 8.56 0 0 0-.194-1.083 3.24 3.24 0 0 0-.343-.972 5.35 5.35 0 0 0-1.3-1.664 11.81 11.81 0 0 0-3.871-2.106 22.12 22.12 0 0 0-4.376-1.045zm6.955-2.354l5.768 3.845a15.21 15.21 0 0 1 2.681 2.3 7.42 7.42 0 0 1 1.759 3.183.34.34 0 0 1 .009.064v.034l.113 3.312c.012.215-.093.42-.275.536s-.413.124-.602.021a.6.6 0 0 1-.312-.516v-.041l.113-3.312.01.1a6.58 6.58 0 0 0-1.368-2.92 14.61 14.61 0 0 0-2.416-2.368zm4.868 0l4.791 3.394 2.408 1.736a4.16 4.16 0 0 1 1.462 2.8v.042l.117 2.942c.009.326-.245.599-.571.612s-.601-.239-.618-.565v-.047l.117-2.942v.041c-.002-.888-.362-1.738-1-2.357-.654-.647-1.478-1.236-2.211-1.877zm-60.339 56.31c9.545 1.585 18.995 3.542 28.441 5.485l14.122 3.111q3.526.8 7.07 1.482c1.181.2 2.367.459 3.552.573l1.78.208 1.741.009-.214.649a15.12 15.12 0 0 1-4.011-11.184 17.67 17.67 0 0 1 1.566-5.9c.4-.943.961-1.794 1.44-2.7l1.762-2.493-.049.065a24.94 24.94 0 0 0 3.269-11.974 36.73 36.73 0 0 1 .059-1.7 13.6 13.6 0 0 1 .223-1.762c.1-.582.276-1.14.414-1.711.192-.547.366-1.105.581-1.641a33.05 33.05 0 0 1 3.244-5.965l1.858-2.716c.593-.829 1.127-1.698 1.6-2.6.095-.205.14-.361.223-.566l.232-.811a35.98 35.98 0 0 1 .524-1.622 26.14 26.14 0 0 1 1.364-3.162 16.15 16.15 0 0 1 4.424-5.408 12.63 12.63 0 0 1 6.541-2.527l-.075 1.784-8.652-2.082c-1.444-.338-2.877-.727-4.316-1.088l-4.309-1.126c-.061-.016-.1-.077-.087-.139s.072-.104.134-.094l4.407.637 4.4.675 8.78 1.445a.9.9 0 0 1-.019 1.777l-.055.008a10.83 10.83 0 0 0-5.418 2.412 14.13 14.13 0 0 0-3.626 4.808 23.76 23.76 0 0 0-1.17 2.879 35.75 35.75 0 0 0-.452 1.507l-.2.77c-.1.308-.218.677-.348.969a19.77 19.77 0 0 1-1.8 2.992l-1.852 2.689c-2.395 3.547-4.471 7.23-4.393 11.428a24.47 24.47 0 0 1-1.185 6.71 23.55 23.55 0 0 1-2.927 6.164l-.035.047-.014.018-1.819 2.235c-.5.812-1.092 1.582-1.517 2.436-.904 1.688-1.508 3.519-1.786 5.413-.415 3.876.903 7.737 3.6 10.551l.037.038a.36.36 0 0 1-.251.611l-1.879.033-1.824-.131c-1.221-.077-2.413-.26-3.626-.366-2.408-.286-4.811-.605-7.2-.974q-7.191-1.037-14.269-2.628c-9.437-2.093-18.812-4.446-28.055-7.321-.06-.019-.095-.08-.08-.141a.12.12 0 0 1 .135-.09z"/><path d="M233.777 358.855l-6.012-19.412c-2.008-6.464-4.065-12.921-6.322-19.276-.539-1.571-1.088-3.28-1.516-4.917-.453-1.635-.87-3.3-1.281-4.938l-2.325-9.916-4.207-19.894-.015-.093-1.623-8.195-1.524-8.308-2.963-16.624-2.932-16.625a35.17 35.17 0 0 0-2.524-7.939 31.24 31.24 0 0 0-4.49-7 27.6 27.6 0 0 0-6.216-5.469 19.7 19.7 0 0 0-7.7-2.762 25.01 25.01 0 0 0-15.724 3.733 28.11 28.11 0 0 0-10.778 12.021 30.28 30.28 0 0 0-2.742 15.913 151.64 151.64 0 0 0 6.463 32.791 162.35 162.35 0 0 0 13.053 30.8c2.65 4.93 5.621 9.649 8.7 14.354l8.942 14.368 8.609 14.515 4.422 7.175a41.53 41.53 0 0 0 5.052 6.691l.006.006a.12.12 0 0 1-.003.16.12.12 0 0 1-.16.012 41.8 41.8 0 0 1-5.415-6.514c-1.642-2.3-3.214-4.636-4.768-6.987l-9.093-14.234-9.245-14.083c-3.176-4.65-6.3-9.406-9.081-14.341-11.25-19.81-17.972-41.867-19.681-64.584a31.77 31.77 0 0 1 3.213-16.9 29.13 29.13 0 0 1 19.778-15.577c2.819-.657 5.735-.783 8.6-.37a21.6 21.6 0 0 1 8.015 3.063 28.46 28.46 0 0 1 6.359 5.7 32.25 32.25 0 0 1 4.534 7.209 35.93 35.93 0 0 1 2.681 8.08l1.583 8.3 1.682 8.272 6.994 33.123-.014-.093 2.132 9.933 2.063 9.942 2.2 9.9 1.212 4.913c.412 1.644.88 3.169 1.419 4.808 2.109 6.471 3.959 12.991 5.785 19.521l5.091 19.688a.12.12 0 0 1-.086.137c-.06.016-.122-.016-.143-.075zm4.438-.976c-.194-6.106-.187-12.225.169-18.327.333-6.1.839-12.2 1.747-18.254.93-6.047 2.184-12.038 3.445-18.012l3.871-17.91a153.4 153.4 0 0 1 5.121-17.645c1.047-2.886 2.176-5.746 3.424-8.564a71.36 71.36 0 0 1 4.235-8.268c.214-.345.4-.65.667-1.038l.687-.933 1.4-1.83q1.412-1.818 2.868-3.6c1.966-2.356 3.981-4.675 6.11-6.892 2.119-2.234 4.371-4.338 6.744-6.3a33.14 33.14 0 0 1 3.746-2.724 17.12 17.12 0 0 1 4.179-1.993c.03-.009.063-.005.091.01s.048.041.057.071c.015.058-.013.118-.067.143a28.27 28.27 0 0 0-7.177 5.425c-2.174 2.094-4.16 4.38-6.135 6.669-1.947 2.316-3.858 4.665-5.693 7.076q-1.393 1.793-2.746 3.618l-1.336 1.833-.658.916a20.09 20.09 0 0 0-.569.885 113.07 113.07 0 0 0-7.779 16.276c-1.106 2.817-2.179 5.654-3.152 8.528q-1.518 4.291-2.845 8.659a141.43 141.43 0 0 0-4.25 17.746c-1.011 6.006-1.623 12.07-2.245 18.115-1.407 12.077-2.463 24.176-3.67 36.334-.002.066-.057.117-.123.115s-.117-.057-.115-.123zm81.681-111.216q-6.425 16.376-13.783 32.368c-4.872 10.671-10.048 21.2-15.441 31.623q-2.026 3.906-4.16 7.755l-4.229 7.718-4.271 7.694-4.444 7.6c-6 10.087-12.375 19.951-19.2 29.485 6.057-10.042 11.885-20.2 17.6-30.412l4.235-7.689 4.101-7.758 8.256-15.49 15.881-31.321zm-32.841-62.392c5.91.536 11.729 1.813 17.321 3.8a46.56 46.56 0 0 1 15.359 8.7c4.511 3.898 7.717 9.087 9.186 14.865 1.325 5.757.813 11.785-1.463 17.236 4.357-11.137.903-23.812-8.5-31.2a45.11 45.11 0 0 0-15.154-7.91 68.95 68.95 0 0 0-16.86-3.115h-.062a1.19 1.19 0 0 1-1.121-1.254 1.19 1.19 0 0 1 1.254-1.121zM95.72 51.753a278.34 278.34 0 0 0-26.986 13.583 74.05 74.05 0 0 0-12.153 8.606 17.4 17.4 0 0 0-4.348 5.574l-.305.786-.279.912-.558 1.82-1.087 3.608a34.98 34.98 0 0 0-1.3 14.766c.191 1.234.462 2.459.7 3.688l1.036 3.616a70.33 70.33 0 0 0 2.855 6.97c4.271 9.128 10.267 17.306 16.249 25.381l-1.3-.293 18.088-10.033 9.077-4.956 9.122-4.872-.561 1.488-3.893-10.476-4.123-10.393c-1.409-3.449-2.853-6.885-4.446-10.246-.789-1.684-1.6-3.356-2.509-4.976a17.49 17.49 0 0 0-3.219-4.465l-.011-.009a.12.12 0 0 1-.009-.159.12.12 0 0 1 .158-.025c1.466 1.207 2.711 2.66 3.68 4.293 1.034 1.574 2 3.191 2.9 4.839 1.79 3.3 3.439 6.67 5.033 10.062s3.055 6.842 4.513 10.291 2.885 6.907 4.208 10.423c.211.562-.023 1.193-.549 1.482l-.012.007-9.068 4.972-9.114 4.888-18.292 9.655-.024.013a1 1 0 0 1-1.281-.306c-5.972-8.22-11.121-17.007-15.371-26.236a71.06 71.06 0 0 1-2.775-7.093l-1.082-3.661-.778-3.745c-.822-5.079-.611-10.272.619-15.268.282-1.248.593-2.478.91-3.7l.46-1.83.229-.913.324-1a13.25 13.25 0 0 1 2.038-3.521 21.95 21.95 0 0 1 2.67-2.9 47.57 47.57 0 0 1 6.088-4.764c2.128-1.426 4.3-2.773 6.53-4 4.446-2.458 9.017-4.684 13.693-6.671q6.969-3.042 14.19-5.428a.12.12 0 0 1 .15.076c.012.062-.026.123-.087.14zm104.082 88.325a382.55 382.55 0 0 1-14.8-59.111s.786-15.61-26.983-15.847c0 0 11.03 12.518 13.984 27.467l18.588 33.942zM99.03 18.543a98.92 98.92 0 0 1 11.308 2.206 97.77 97.77 0 0 1 11.021 3.359c-3.809-.512-7.585-1.249-11.308-2.206a98.94 98.94 0 0 1-11.021-3.359z"/><path d="M251.247 273.295l-.511.1v-.024zm149.717-24.213c12.928-.9 25.849-1.9 38.648-3.654a131.01 131.01 0 0 0 18.907-3.671 30.59 30.59 0 0 0 4.37-1.648 7.79 7.79 0 0 0 1.77-1.138c.188-.166.342-.367.454-.591.045-.168.1-.258.017-.427a3.32 3.32 0 0 0-1.258-1.226 14.13 14.13 0 0 0-2.008-1.026 38.14 38.14 0 0 0-4.479-1.509 149.46 149.46 0 0 0-18.946-3.693q-4.8-.675-9.629-1.2a355.61 355.61 0 0 0-9.672-.846c-12.912-1-25.878-1.213-38.823-1.06-12.947.2-25.884.679-38.787 1.528-6.451.432-12.891.986-19.3 1.725-6.4.764-12.817 1.558-19.075 2.917a43.5 43.5 0 0 0-8.99 2.765 7.48 7.48 0 0 0-1.749 1.114 1.68 1.68 0 0 0-.439.55c-.071.142-.027.186-.008.317a3.16 3.16 0 0 0 1.162 1.147 13.57 13.57 0 0 0 1.974 1.028c2.947 1.169 5.992 2.073 9.1 2.7 3.134.69 6.31 1.245 9.5 1.741q9.566 1.466 19.24 2.4l19.361 1.626-.01.238a347.42 347.42 0 0 1-38.855-2.423c-3.226-.428-6.448-.917-9.658-1.55a55.06 55.06 0 0 1-9.568-2.617 15.77 15.77 0 0 1-2.353-1.167 5 5 0 0 1-2.134-2.312c-.111-.333-.171-.682-.176-1.033a2.94 2.94 0 0 1 .224-1.015 3.96 3.96 0 0 1 1.009-1.377 9.7 9.7 0 0 1 2.315-1.519 45.47 45.47 0 0 1 9.529-3c12.822-2.76 25.81-3.718 38.771-4.479 12.969-.713 25.956-.856 38.927-.6 12.972.232 25.928.784 38.875 1.54l9.705.694 9.7.855a142.44 142.44 0 0 1 19.3 3.106 40.13 40.13 0 0 1 4.742 1.543 16.09 16.09 0 0 1 2.326 1.162 5.1 5.1 0 0 1 2.091 2.193 2.92 2.92 0 0 1 .195.972 3.42 3.42 0 0 1-.192.967c-.216.517-.541.981-.952 1.362a9.69 9.69 0 0 1-2.275 1.525 28.46 28.46 0 0 1-4.731 1.743 132.58 132.58 0 0 1-19.269 3.479 352.82 352.82 0 0 1-38.87 2.082zm-77.132 140.106c8.7-.738 17.406-1.124 26.108-1.386 4.352-.164 8.7-.2 13.054-.3l13.054-.1 13.054.094 13.054.3c8.7.261 17.405.649 26.108 1.392-8.7.742-17.406 1.13-26.108 1.392-4.352.166-8.7.2-13.054.3l-13.054.094-13.054-.1-13.054-.3c-8.703-.262-17.405-.65-26.108-1.386zm41.198-222.772a75.62 75.62 0 0 1 13.741-4.012 93.69 93.69 0 0 1 14.28-1.731l3.611-.094c1.2-.014 2.409.062 3.615.089a70.46 70.46 0 0 1 7.225.561c1.208.093 2.395.343 3.589.544l3.582.63c1.182.273 2.352.6 3.525.915 1.165.343 2.362.573 3.5 1.011 1.147.4 2.286.828 3.42 1.264l1.7.647c.567.215 1.1.515 1.653.768 1.1.521 2.179 1.078 3.264 1.619.543.279 1.081.528 1.626.832s1.088.646 1.616.991a24.19 24.19 0 0 1 9.3 11.576c.844 2.392 1.098 4.953.74 7.465a15.49 15.49 0 0 1-2.855 6.843c-3.109 3.777-7.128 6.702-11.678 8.5l.522-.776.156 5.6-.963-.994a18.93 18.93 0 0 0 7.641-2.2 19.34 19.34 0 0 0 6.079-5.053 26.84 26.84 0 0 0 3.861-6.919 28.49 28.49 0 0 0 1.71-7.711 20.44 20.44 0 0 0-.872-7.622c-.373-1.216-.874-2.389-1.494-3.5a13.63 13.63 0 0 0-2.118-2.955 41.26 41.26 0 0 0-6.264-5c-2.27-1.545-4.631-2.952-7.071-4.212-2.43-1.245-5.01-2.444-7.6-3.745s-5.166-2.723-7.666-4.285a64.4 64.4 0 0 1-13.34-11.5 82.41 82.41 0 0 1-9.984-14.243l-2.056-3.8-1.831-3.9c-1.256-2.579-2.251-5.277-3.326-7.921l.432-.2c5.567 9.933 11.732 19.544 19.592 27.4 3.895 3.903 8.265 7.301 13.009 10.112 2.369 1.4 4.821 2.672 7.347 3.869s5.157 2.317 7.779 3.707a54.73 54.73 0 0 1 14.472 10.434c1.09 1.219 2.012 2.578 2.74 4.042a22.6 22.6 0 0 1 1.724 4.4 24.75 24.75 0 0 1 .785 9.279 30.85 30.85 0 0 1-2.383 8.813 28.17 28.17 0 0 1-4.987 7.61c-2.089 2.232-4.614 4.011-7.418 5.228a21.74 21.74 0 0 1-4.29 1.4 18.7 18.7 0 0 1-4.532.459l-1-.025.037-.97.156-5.6.008-.562.514-.214a31.1 31.1 0 0 0 6.153-3.155 18.68 18.68 0 0 0 4.958-4.658 12.61 12.61 0 0 0 1.295-12.643 21.07 21.07 0 0 0-9.086-9.425c-.484-.266-.972-.521-1.47-.756s-1.062-.442-1.59-.664l-3.19-1.327c-.533-.216-1.046-.478-1.594-.656l-1.642-.537-3.268-1.1c-8.855-2.703-18.054-4.112-27.312-4.183a126.13 126.13 0 0 0-27.917 2.692z"/><path d="M362.148 172.214c1.574-5.7 3.472-11.274 5.485-16.8.976-2.774 2.07-5.5 3.108-8.246l3.292-8.169 3.469-8.1 3.657-8.017c2.5-5.321 5.109-10.593 8.05-15.728-1.57 5.706-3.467 11.276-5.48 16.8-.974 2.774-2.072 5.5-3.108 8.246l-3.3 8.167-3.473 8.094-3.657 8.017c-2.496 5.323-5.107 10.596-8.043 15.736zm34.112 37.12a6.86 6.86 0 0 1 1.011 3.555 6.65 6.65 0 0 1-.987 3.555c-.634 1.02-1.489 1.885-2.5 2.532-1.83 1.194-3.915 1.939-6.087 2.176-1.119.134-2.253.078-3.353-.166a7.07 7.07 0 0 1-3.139-1.605 7.37 7.37 0 0 1-2.283-6.491 9.63 9.63 0 0 1 3.067-5.707 8.95 8.95 0 0 1 5.707-2.152 9.63 9.63 0 0 1 3.067.44 11.62 11.62 0 0 1 3 1.355c1.011.635 1.865 1.491 2.496 2.505zm31.529-14.661h-80.2a2.38 2.38 0 0 0-2.378 2.378v32.909a2.37 2.37 0 0 0 2.378 2.378h80.2a2.38 2.38 0 0 0 2.378-2.378v-32.909c-.004-1.312-1.066-2.374-2.378-2.378zm-32.385 25.906c-.865 1.197-2.024 2.151-3.365 2.77a8.7 8.7 0 0 1-4.339.773 11.34 11.34 0 0 1-7.3-3.935 13.09 13.09 0 0 1-3.436-7.3c-.362-2.96.609-5.927 2.651-8.1a10.8 10.8 0 0 1 8.085-3.567 10.41 10.41 0 0 1 4.4 1.058 9.15 9.15 0 0 1 3.329 2.865c1.518 2.29 2.286 4.994 2.2 7.74a13.47 13.47 0 0 1-2.223 7.692zm-38.132 11.761l.713 2.914q.312 1.457.535 2.914c.323.935.445 1.928.357 2.914-.108.508-.286.998-.529 1.457a5.19 5.19 0 0 1-1.076 1.457h-.357a5.18 5.18 0 0 1-1.075-1.456 5.6 5.6 0 0 1-.529-1.457 7.03 7.03 0 0 1 .357-2.914q.223-1.457.535-2.914l.713-2.914zm61.181 0l.713 2.914q.313 1.457.535 2.914a7.03 7.03 0 0 1 .357 2.914 5.6 5.6 0 0 1-.529 1.457 5.19 5.19 0 0 1-1.076 1.457h-.357a5.19 5.19 0 0 1-1.076-1.457c-.243-.459-.421-.949-.529-1.457a7.03 7.03 0 0 1 .357-2.914q.223-1.457.535-2.914l.713-2.914zm-88.871-14.342a36.81 36.81 0 0 1 3.852-.846l3.852-.526-1.372 1.372a83.11 83.11 0 0 1-.025-16.264l.026-.268c.032-.332.194-.637.451-.849a1.25 1.25 0 0 1 .92-.28l3.959.526a37.42 37.42 0 0 1 3.959.871 37.46 37.46 0 0 1-3.959.871l-3.959.526 1.4-1.4a83.1 83.1 0 0 1-.025 16.264l-.027.275a1.22 1.22 0 0 1-.441.827 1.23 1.23 0 0 1-.897.273h-.007l-3.852-.526a36.8 36.8 0 0 1-3.855-.846z"/><path d="M387.387 174.559l.717 5.029q.314 2.514.538 5.029a20.54 20.54 0 0 1 .36 5.029 14.73 14.73 0 0 1-.527 2.515 10.33 10.33 0 0 1-1.074 2.515h-.357c-.469-.787-.832-1.632-1.078-2.514a14.76 14.76 0 0 1-.531-2.514 20.53 20.53 0 0 1 .353-5.029q.221-2.515.531-5.029l.71-5.03zm-13.721-17.12a30.97 30.97 0 0 1 7.077-2.39 43.94 43.94 0 0 1 7.427-1.01c2.499-.127 5.004-.047 7.489.239 1.243.116 2.471.355 3.7.553l3.625.9-7.393-.537c-2.456-.11-4.912-.073-7.36.036s-4.887.384-7.321.718l-3.634.642-3.61.849zm12.626-28.248l3.914 6.009 4.289 5.686a64.64 64.64 0 0 0 4.782 5.255c1.712 1.661 3.521 3.218 5.418 4.664-2.17-1.072-4.199-2.408-6.042-3.977a40.21 40.21 0 0 1-5.077-5.188c-3.084-3.729-5.544-7.933-7.285-12.449zm-5.564 13.7a82.23 82.23 0 0 1 9.772 3.847c3.195 1.441 6.293 3.086 9.275 4.927-3.337-1.07-6.601-2.355-9.772-3.847a82.24 82.24 0 0 1-9.275-4.931zm-28.743 246.302c28.962-77.718 3.507-133.644.309-140.123a653.8 653.8 0 0 0 26.18.511c7.775 0 15.313-.131 22.494-.38-3.448 7.074-28.391 62.774.38 139.993zM228.763 100.862c4.106.62 8.149 1.467 12.171 2.393s8.014 1.958 12 3.029c3.97 1.115 7.931 2.258 11.856 3.535s7.835 2.606 11.679 4.178c-4.107-.617-8.15-1.463-12.172-2.389s-8.014-1.958-11.994-3.033c-3.969-1.117-7.93-2.261-11.855-3.538s-7.841-2.607-11.685-4.175zm71.291-39.844c4.3 3.492 8.443 7.152 12.526 10.871s8.089 7.517 12.066 11.345l11.7 11.721c3.828 3.98 7.62 8 11.236 12.2-4.305-3.49-8.446-7.149-12.528-10.869s-8.088-7.518-12.063-11.348l-11.7-11.724c-3.83-3.981-7.619-7.996-11.237-12.196zm-26.4 79.056c4.751.484 9.455 1.2 14.143 1.991s9.352 1.7 14.009 2.637l13.9 3.151c4.611 1.151 9.215 2.354 13.766 3.8-4.752-.481-9.456-1.193-14.143-1.987s-9.352-1.7-14.008-2.641l-13.9-3.154c-4.612-1.154-9.214-2.346-13.765-3.794zm-21.041-79.056q8.4 6.092 16.517 12.533c5.43 4.269 10.771 8.644 16.095 13.041l15.76 13.444q7.814 6.8 15.333 13.957-8.406-6.089-16.52-12.53c-5.43-4.269-10.771-8.645-16.093-13.043l-15.757-13.447q-7.812-6.799-15.335-13.955zm.949 84.98c-1.122 1.193-3.069 2.17-4.184 1.128s-.274-3.06.847-4.251a4.04 4.04 0 0 1 3.4-1.518l-2.892-8.4a1.38 1.38 0 0 1 .373-1.463l4.105-3.77a.39.39 0 0 1 .389-.096c.138.042.241.154.271.295s-.019.286-.128.38l-4.11 3.77a.6.6 0 0 0-.157.629l3.191 9.37c.595.964.164 2.575-1.1 3.928zm62.839-15.076c-1.574.453-3.746.3-4.173-1.167s1.328-2.771 2.9-3.222a4.04 4.04 0 0 1 3.7.43l1.806-8.7a1.38 1.38 0 0 1 1.068-1.067l5.455-1.144c.21-.04.415.095.459.305s-.088.416-.297.464l-5.46 1.141a.6.6 0 0 0-.456.46l-2.044 9.685c.017 1.137-1.177 2.302-2.957 2.818z"/></svg>