<svg xmlns="http://www.w3.org/2000/svg" width="317.98" height="439.286" viewBox="0 0 317.98 439.286">
  <g id="girl-doing-paiting-on-the-canvas" transform="translate(-203.089 -72.188)">
    <path id="Path_22710" data-name="Path 22710" d="M405.491,232.622c-13.314,27-30.521,45.828-51.609,37.34h5.708l-4.69-23.848c1-6.694,2.277-14.185,3.892-22.778a62.8,62.8,0,0,0,10.618,5.078,70.6,70.6,0,0,0,23.669,5.036A51.371,51.371,0,0,0,405.491,232.622Zm70.8,63.454c4.417,20.3,8.687,36.092,13.178,44.957a83.406,83.406,0,0,1-5.823,6.022,40.375,40.375,0,0,1-6.473,4.994,22.038,22.038,0,0,1-7.407,2.98,19.05,19.05,0,0,1-4.029.283,23.718,23.718,0,0,1-4.039-.577c-2.2-8.467-2.875-10.219-3.347-20.469-.451-9.516,1.238-39.858,1.238-39.858-2.046-62.216-22.862-82.612-22.862-82.612,18.214-9.694,20.847-23.46,20.847-23.46S469.669,265.671,476.289,296.076Z" transform="translate(12.684 9.77)" fill="#5504b0"/>
    <path id="Path_22711" data-name="Path 22711" d="M481.1,329.185a29.306,29.306,0,0,1-4.648,7.155A28.533,28.533,0,0,1,469.9,342a23.354,23.354,0,0,1-3.966,1.9,17.342,17.342,0,0,1-4.323.913,14.876,14.876,0,0,1-4.375-.325,14.317,14.317,0,0,1-3.892-1.553c.671,2.591,1.49,5.812,2.487,10.093,15.507,10.67,35.871-16.136,36.4-16.839C488.256,338.817,484.605,336.11,481.1,329.185Zm-21.854,22.19a1.575,1.575,0,1,1,1.519-1.574,1.575,1.575,0,0,1-1.519,1.574Zm7.3-.5a1.575,1.575,0,1,1,1.519-1.574A1.575,1.575,0,0,1,466.549,350.872Zm8.058-3.777a1.575,1.575,0,1,1,1.519-1.574,1.575,1.575,0,0,1-1.519,1.574Zm6.043-5.791a1.575,1.575,0,1,1,1.519-1.574,1.575,1.575,0,0,1-1.519,1.574Z" transform="translate(21.05 21.617)" fill="#5504b0"/>
    <path id="Path_22712" data-name="Path 22712" d="M453.348,341.868c-.031-.021-.073-.042-.1-.063.031.011.063.011.094.021A.079.079,0,0,1,453.348,341.868Z" transform="translate(21.042 22.679)" fill="#5504b0"/>
    <path id="Path_22713" data-name="Path 22713" d="M381.194,76.751a9.66,9.66,0,0,0-3.333,4.017,14.832,14.832,0,0,0-.835,2.471l-.256,1.311a9.481,9.481,0,0,1-.351,1.389,11.914,11.914,0,0,1-2.953,4.925A8.278,8.278,0,0,1,371,92.609a4.712,4.712,0,0,1-1.626.39,3.079,3.079,0,0,1-1.847-.49.779.779,0,0,1-.336-.447l0-.009a4.149,4.149,0,0,1-.16-1.245,5.911,5.911,0,0,1,.119-1.124,7.125,7.125,0,0,1,.767-2.036,10.2,10.2,0,0,1,1.22-1.711,13.656,13.656,0,0,1,1.471-1.419l-.17.191a14.16,14.16,0,0,0,1.7-3.687c.1-.346.143-.608.244-1.029a6.131,6.131,0,0,1,.405-1.177,10.675,10.675,0,0,1,1.211-2,10.471,10.471,0,0,1,3.467-3.007,5.458,5.458,0,0,1,4.56-.369l-.2-.015a76.474,76.474,0,0,1,9.912-1.142,40.766,40.766,0,0,1,10.029.557,19.784,19.784,0,0,1,4.885,1.6,13.423,13.423,0,0,1,4.246,3.128c.278.352.581.687.835,1.057.236.377.51.756.712,1.136.405.759.813,1.518,1.143,2.308a32.657,32.657,0,0,1,1.7,4.82,60.615,60.615,0,0,1,1.445,19.974,33.475,33.475,0,0,0,1.251,9.565,31.738,31.738,0,0,0,1.738,4.542,5.661,5.661,0,0,0,1.389,1.88,6.415,6.415,0,0,0,2.124,1.1.105.105,0,0,1,.069.132.107.107,0,0,1-.12.072,6.234,6.234,0,0,1-2.382-.891,6.3,6.3,0,0,1-1.76-1.9,26.413,26.413,0,0,1-2.213-4.544,30.2,30.2,0,0,1-1.931-9.938c-.045-1.724.028-3.336-.026-4.969-.032-1.631-.081-3.261-.217-4.882a59.029,59.029,0,0,0-1.474-9.586,30.552,30.552,0,0,0-1.472-4.569c-.287-.746-.645-1.453-1-2.164a11.425,11.425,0,0,0-1.255-1.888,15.552,15.552,0,0,0-8.01-4.61,43.429,43.429,0,0,0-19.471-.112.358.358,0,0,1-.184-.011l-.012,0a4.454,4.454,0,0,0-3.862.539,10.045,10.045,0,0,0-3.8,4.74,4.673,4.673,0,0,0-.241.911c-.052.293-.1.757-.18,1.119a13.616,13.616,0,0,1-1.728,4.335.61.61,0,0,1-.105.131l-.065.06a16.682,16.682,0,0,0-1.25,1.248,8.339,8.339,0,0,0-.979,1.395,5.737,5.737,0,0,0-.6,1.507,4.071,4.071,0,0,0-.1.766,2.909,2.909,0,0,0,.048.643l-.339-.456a1.988,1.988,0,0,0,1.746-.036,6.615,6.615,0,0,0,2-1.314,11.132,11.132,0,0,0,2.816-4.177c.326-.792.5-1.62.782-2.557a12.93,12.93,0,0,1,1.154-2.582,9.45,9.45,0,0,1,4.024-3.794.1.1,0,0,1,.1.182Z" transform="translate(13.79)" fill="#5504b0"/>
    <path id="Path_22714" data-name="Path 22714" d="M372.569,89.937a49.054,49.054,0,0,0,.271,8.917,30.316,30.316,0,0,0,.845,4.3c.15.711.42,1.382.631,2.069.258.668.533,1.331.839,1.971a17.1,17.1,0,0,0,2.284,3.565,16.408,16.408,0,0,0,3.013,2.945,11.649,11.649,0,0,0,3.661,1.853,8.805,8.805,0,0,0,2.01.341,7,7,0,0,0,1.958-.118l.119-.026a.76.76,0,0,1,.905.58.8.8,0,0,1,.018.172,42.71,42.71,0,0,1-.44,5.637,16.907,16.907,0,0,1-.639,2.779,4.482,4.482,0,0,1-.661,1.3,1.079,1.079,0,0,1-.654.394.964.964,0,0,1-.664-.268.891.891,0,0,0,.637.12.867.867,0,0,0,.435-.418,4.338,4.338,0,0,0,.371-1.27,20.069,20.069,0,0,0,.2-2.726c.034-1.83-.055-3.684-.164-5.5l1.042.726a9.248,9.248,0,0,1-4.932.1,11.983,11.983,0,0,1-4.395-2.025,16.161,16.161,0,0,1-3.432-3.291c-.24-.312-.493-.611-.721-.935l-.644-1.007a17.2,17.2,0,0,1-1.118-2.1,24.626,24.626,0,0,1-1.885-9.069,30.819,30.819,0,0,1,1.113-9.021ZM433.6,126.226c2.077.494,4.126,1.1,6.171,1.713,2.039.639,4.071,1.28,6.083,2.043l-.066-.019a14.72,14.72,0,0,1,6.661,3.514,23.334,23.334,0,0,1,4.679,5.926,41.454,41.454,0,0,1,4.5,14.291,81.081,81.081,0,0,1,.587,14.92,133.967,133.967,0,0,1-1.548,14.8v.007a1.029,1.029,0,0,1-1.021.867l-12.868-.061-12.868-.144h-.024a.817.817,0,0,1-.8-.758q-.549-8.009-.681-16.018-.044-4.008.078-8.018a55.543,55.543,0,0,1,.695-7.982,72.449,72.449,0,0,0-.128,7.984q.12,3.991.4,7.976c.332,5.312.779,10.625,1.285,15.916l-.827-.758,12.868-.144,12.868-.061-1.022.874c.713-4.844,1.309-9.7,1.559-14.579a86.622,86.622,0,0,0-.35-14.584,57.1,57.1,0,0,0-1.343-7.135,34.972,34.972,0,0,0-2.552-6.752,22.415,22.415,0,0,0-4.188-5.816,14.012,14.012,0,0,0-6.051-3.69l-.051-.013-.016-.005c-1.947-.827-3.96-1.551-5.965-2.266S435.647,126.827,433.6,126.226ZM382.182,75.634a7.83,7.83,0,0,1,5.33,4.11,13.771,13.771,0,0,1,1.262,3.227,22.591,22.591,0,0,0,1.066,3.009,16.062,16.062,0,0,0,3.517,5.132,6.676,6.676,0,0,0,5.178,2.267l-.457.262a15.183,15.183,0,0,1,2.487-2.148,5.139,5.139,0,0,1,3.239-1.1,2.389,2.389,0,0,1,1.585.927,4.888,4.888,0,0,1,.734,1.526,13.321,13.321,0,0,1,.458,3.174,10.955,10.955,0,0,1-1.213,6.295,5.883,5.883,0,0,1-6.052,2.72l.941-.5c-.472,1.89-.907,3.821-1.263,5.747-.383,1.924-.7,3.858-.911,5.791a39.728,39.728,0,0,0-.234,5.749,9.033,9.033,0,0,0,1.356,4.957l-1.065-.331c1.713-.394,3.382-.633,5.078-.869,1.693-.21,3.387-.387,5.086-.48a70.791,70.791,0,0,1,10.18.094.105.105,0,0,1,.1.114.107.107,0,0,1-.1.1c-1.684.174-3.362.3-5.032.52-1.672.169-3.335.4-4.991.661s-3.305.535-4.944.856c-1.634.3-3.285.677-4.851,1.073h-.005a1.063,1.063,0,0,1-1.06-.332,7.632,7.632,0,0,1-1.541-3.09,14.353,14.353,0,0,1-.449-3.161,31.839,31.839,0,0,1,.382-6.123,67.685,67.685,0,0,1,2.823-11.712l.014-.041a.729.729,0,0,1,.923-.46l0,0a4.4,4.4,0,0,0,2.609-.135,4.864,4.864,0,0,0,2.218-1.676,8.931,8.931,0,0,0,1.353-5.734,10.725,10.725,0,0,0-.463-3c-.3-.933-.914-1.79-1.746-1.793a4.263,4.263,0,0,0-2.452,1.184,14.245,14.245,0,0,0-2.043,2.154.678.678,0,0,1-.4.251l-.054.011a6.3,6.3,0,0,1-3.719-.37,9.569,9.569,0,0,1-3.006-2.025,15.977,15.977,0,0,1-3.784-5.841,19.574,19.574,0,0,1-.946-3.309,14.515,14.515,0,0,0-.876-3.04,9.756,9.756,0,0,0-1.68-2.645,7.062,7.062,0,0,0-2.623-1.789l-.015-.005a.1.1,0,0,1,.053-.2Z" transform="translate(14.161 0.29)" fill="#5504b0"/>
    <path id="Path_22715" data-name="Path 22715" d="M434.875,140.157a20.326,20.326,0,0,1,1.313-4.853,19.018,19.018,0,0,1,2.452-4.444,12.5,12.5,0,0,1,3.786-3.455,8.54,8.54,0,0,1,4.937-1.04,11.079,11.079,0,0,0-4.505,1.735,14.846,14.846,0,0,0-3.378,3.387,27.134,27.134,0,0,0-2.549,4.154C436.195,137.106,435.491,138.6,434.875,140.157ZM400.024,123.6a13.53,13.53,0,0,1-.006,5.259,15.734,15.734,0,0,1-1.725,4.96,42.63,42.63,0,0,1,.693-5.146C399.3,126.984,399.591,125.319,400.024,123.6Zm-47.842,39.659c.18-1.82.475-3.628.828-5.424s.738-3.591,1.2-5.367a73.16,73.16,0,0,1,3.565-10.443,50.972,50.972,0,0,1,2.455-4.983,38.653,38.653,0,0,1,3.021-4.7,27.433,27.433,0,0,1,8.315-7.624l-.09.057a7.681,7.681,0,0,1,1.1-.588c.349-.16.7-.294,1.048-.428.7-.249,1.4-.472,2.111-.652a31.462,31.462,0,0,1,4.266-.809c1.427-.192,2.856-.3,4.284-.38s2.854-.077,4.278-.06h.026a.813.813,0,0,1,.8.823l0,.054c-.266,3.369-.446,6.777-.53,10.175-.126,3.4-.062,6.805.149,10.22a75.609,75.609,0,0,1-1.186-10.206c-.161-3.429-.2-6.85-.076-10.3l.826.877q-2.092.079-4.17.229c-1.383.121-2.763.263-4.123.487a38.536,38.536,0,0,0-4.018.845c-.657.174-1.3.385-1.92.613-.307.122-.614.243-.9.38a6.555,6.555,0,0,0-.762.4c-.027.018-.063.041-.09.057a26.989,26.989,0,0,0-7.721,7.045,51.478,51.478,0,0,0-5.535,9.175,90.025,90.025,0,0,0-4.081,10.045q-1.794,5.159-3.065,10.479Z" transform="translate(12.541 4.177)" fill="#5504b0"/>
    <path id="Path_22716" data-name="Path 22716" d="M340.46,116.3a10.028,10.028,0,0,1,2.8,2.742A15.261,15.261,0,0,1,345,122.6a23,23,0,0,1,.952,3.851,24.871,24.871,0,0,1,.329,3.979l-.013-.148,8.581,33.085q1.077,4.131,2.21,8.241l.568,2.053.31.9c.137.3.258.6.4.9a25.545,25.545,0,0,0,2.147,3.5,56.945,56.945,0,0,0,5.382,6.415l6.109,5.962-1.521.233,6.746-12.408.519,1.325-12.115-4.18-.053-.018a.638.638,0,0,1-.234-.144,10.523,10.523,0,0,1-2.437-3.871,14.532,14.532,0,0,1-.892-4.321,21.6,21.6,0,0,1,1.411-8.475c.479-1.352,1.068-2.62,1.616-3.9l1.624-3.861c.529-1.292,1.046-2.589,1.536-3.9a28.878,28.878,0,0,0,1.3-3.974,52.253,52.253,0,0,1-2.26,8.085c-.869,2.647-1.9,5.3-2.753,7.9a20.926,20.926,0,0,0-.993,8.01,12.976,12.976,0,0,0,.921,3.832,9.077,9.077,0,0,0,2.068,3.124l-.286-.162,12.146,4.087a.93.93,0,0,1,.524,1.316l-.005.01-6.688,12.44a.963.963,0,0,1-1.3.392,1.026,1.026,0,0,1-.217-.159l-6.155-5.952a54.679,54.679,0,0,1-5.657-6.617,27.526,27.526,0,0,1-2.342-3.768c-.169-.339-.318-.7-.476-1.045-.14-.363-.267-.749-.389-1.115l-.571-2.067q-1.12-4.138-2.164-8.287c-1.414-5.528-2.7-11.084-4-16.638q-1.9-8.341-3.654-16.712l0-.018a.514.514,0,0,1-.01-.13,25.329,25.329,0,0,0-.083-3.821,22.3,22.3,0,0,0-.684-3.784,12.035,12.035,0,0,0-3.988-6.47Zm-10.576-3.525a4.871,4.871,0,0,1,4.459-1.444,5.613,5.613,0,0,1,2.244.96,6.593,6.593,0,0,1,.9.787,7.928,7.928,0,0,1,.7.956c-.369-.167-.688-.371-1.019-.55-.346-.154-.656-.354-1-.484a8.715,8.715,0,0,0-2.016-.637,7.263,7.263,0,0,0-2.1-.071,10.558,10.558,0,0,0-2.182.482Zm8.309,8.561a3.4,3.4,0,0,1,.062,2.148,3.313,3.313,0,0,1-1.365,1.839,4.147,4.147,0,0,1-2.175.558,7.7,7.7,0,0,1-1.067-.144,7.868,7.868,0,0,1-1-.372,9.182,9.182,0,0,1,1.027-.142l.967-.158a5.662,5.662,0,0,0,1.681-.627A4.835,4.835,0,0,0,338.194,121.339ZM334.039,132.1a18.185,18.185,0,0,1,2.542.287l1.226.225c.4.075.82.143,1.141.17l.066.005a.428.428,0,0,1,.173.053,6.338,6.338,0,0,1,1.68,1.35,3.425,3.425,0,0,1,.6.924,1.654,1.654,0,0,1,.126,1.077,3.115,3.115,0,0,0-1.247-1.441,14.855,14.855,0,0,0-1.636-1l.238.059a5.829,5.829,0,0,1-1.358-.206c-.422-.1-.827-.242-1.232-.378A11.456,11.456,0,0,1,334.039,132.1Z" transform="translate(10.665 3.285)" fill="#5504b0"/>
    <path id="Path_22717" data-name="Path 22717" d="M366.566,278.217c-10.981.275-21.963.417-32.944.609l-32.944.368-32.944.175c-10.981.028-21.963.157-32.944.073h-.016a1.377,1.377,0,0,1-1.347-1.152l-3.756-22.8-3.58-22.832-3.569-22.834-1.788-11.416L218.867,187l-3.752-22.8-3.921-22.774c-2.625-15.181-5.373-30.341-8.09-45.507a.97.97,0,0,1,.784-1.126.994.994,0,0,1,.142-.015h.025l32.981-.812,32.983-.7L303,92.627l32.985-.568a1.679,1.679,0,0,1,1.676,1.357l7.787,40.139,7.593,40.177c2.56,13.386,4.978,26.8,7.459,40.2,2.5,13.4,4.817,26.833,7.234,40.247a.157.157,0,0,1-.309.061c-2.844-13.331-5.786-26.642-8.551-39.988-2.78-13.343-5.625-26.674-8.326-40.032l-8.191-40.059-8-40.1,1.676,1.357-32.987.44-32.988.366-32.989.311-32.991.2.95-1.141c2.4,15.219,4.775,30.442,7.269,45.645l3.759,22.8,3.928,22.773,1.974,11.385,2.052,11.372,4.111,22.742,4.1,22.744,3.924,22.774-1.363-1.152c10.981-.083,21.963.045,32.944.073l32.944.175,32.944.368c10.981.191,21.963.334,32.944.609a.157.157,0,0,1,0,.315Z" transform="translate(0 1.671)" fill="#5504b0"/>
    <path id="Path_22718" data-name="Path 22718" d="M213.575,105.956l57.55-1.462,29-.716,29.088-.639a1.044,1.044,0,0,1,1.046.835l0,.014,8.193,40.342L346.5,184.7l16.055,80.748a1.567,1.567,0,0,1-1.231,1.843,1.665,1.665,0,0,1-.309.03L240.5,267.084h-.012a1.322,1.322,0,0,1-1.3-1.111l-12.963-80.339Zm0,0,14.277,80.117,13.963,79.456-1.314-1.111,120.508-.237-1.54,1.873-15.728-80.813-7.848-40.409-7.7-40.439,1.048.849-28.738.244-28.828.166Zm220.912,89.086c1.9-.577,3.791-.991,5.662-1.419a49.991,49.991,0,0,0,5.417-1.451l-.679.874c.1-1.018.221-2.034.356-3.049.163-1.012.29-2.027.487-3.035.177-1.01.391-2.017.619-3.022.252-1,.494-2.006.839-3,.134,1.042.167,2.074.209,3.107.018,1.03.022,2.059-.011,3.084-.013,1.027-.1,2.047-.143,3.071-.075,1.021-.163,2.04-.274,3.057l0,.021a1.023,1.023,0,0,1-.677.854,17.034,17.034,0,0,1-2.962.741,27.711,27.711,0,0,1-2.949.334A29.77,29.77,0,0,1,434.487,195.042Z" transform="translate(0.882 2.603)" fill="#5504b0"/>
    <path id="Path_22719" data-name="Path 22719" d="M418.541,201.913a41.766,41.766,0,0,1,4.112-4.305q2.16-2.034,4.425-3.937c1.493-1.29,3.045-2.5,4.586-3.731,1.559-1.2,3.125-2.4,4.733-3.545l.063-.045a.784.784,0,0,1,.384-.141c1.776-.152,3.548-.262,5.333-.3.891-.028,1.785-.018,2.679,0a15.732,15.732,0,0,1,2.68.259c-.889.086-1.753.281-2.625.44l-2.611.492c-1.739.332-3.485.632-5.223.921l.447-.186c-1.5,1.277-3.033,2.51-4.57,3.739-1.555,1.206-3.1,2.43-4.688,3.588q-2.366,1.765-4.8,3.441C421.85,199.745,420.179,200.794,418.541,201.913Zm3.433,21.28,14.168-9.1c2.338-1.541,4.688-3.057,6.99-4.64l3.452-2.369a37.007,37.007,0,0,0,3.192-2.546,34.137,34.137,0,0,0,9.212-13.309,33.572,33.572,0,0,0,1.893-16.328,28.834,28.834,0,0,1-.346,16.866,32.611,32.611,0,0,1-9.366,14.339,39.118,39.118,0,0,1-3.418,2.661c-1.171.789-2.334,1.589-3.528,2.34-2.387,1.5-4.778,2.994-7.23,4.378C432.114,218.3,427.106,220.881,421.973,223.194Zm-24.69,227.345c-.3.592-.63,1.167-.908,1.762a18.748,18.748,0,0,0-.694,1.837,11.994,11.994,0,0,0-.569,3.813,11.446,11.446,0,0,0,.717,3.722,10.241,10.241,0,0,0,1.878,3.192l.009.01a.737.737,0,0,1,.082.113,33.569,33.569,0,0,1,3.908,9.78,19.848,19.848,0,0,1,.474,5.368,12.889,12.889,0,0,1-1.457,5.352,11.177,11.177,0,0,1-3.856,4.052,14.5,14.5,0,0,1-5.091,2.038,16.071,16.071,0,0,1-5.424.143,24.208,24.208,0,0,1-2.6-.537c-.819-.194-1.646-.365-2.479-.507a39.388,39.388,0,0,0-20.092,1.448c-.788.322-1.586.616-2.364.959-.764.373-1.544.713-2.293,1.112l-2.231,1.247a25.864,25.864,0,0,1-2.334,1.2,32.608,32.608,0,0,1-10.1,2.643,38.511,38.511,0,0,1-10.484-.293,28.67,28.67,0,0,1-5.155-1.36,11.748,11.748,0,0,1-4.722-3.015,5.069,5.069,0,0,1-1.3-2.941,4.521,4.521,0,0,1,.23-1.661,5.376,5.376,0,0,1,.677-1.427,13.446,13.446,0,0,1,4.174-3.742,59,59,0,0,1,9.546-4.358c6.367-2.552,12.854-4.877,18.961-7.759a24.728,24.728,0,0,0,8.05-5.692,36.7,36.7,0,0,0,5.256-8.568l-.042.14c.379-1.96.8-3.914,1.205-5.87l1.25-5.863a.115.115,0,0,1,.227.038l-.746,5.948c-.257,1.981-.5,3.964-.79,5.94a.471.471,0,0,1-.03.112l-.012.029a37.6,37.6,0,0,1-4.991,9.221,26.6,26.6,0,0,1-8.42,6.433c-3.092,1.635-6.262,3.017-9.445,4.338s-6.372,2.6-9.571,3.844a67.566,67.566,0,0,0-9.223,4.063,11.412,11.412,0,0,0-3.522,2.972,3.216,3.216,0,0,0-.442.876,2.339,2.339,0,0,0-.153.864,2.909,2.909,0,0,0,.744,1.676,10.279,10.279,0,0,0,3.841,2.533,26.793,26.793,0,0,0,4.746,1.422,40.416,40.416,0,0,0,10.031.737,30.9,30.9,0,0,0,9.854-2.1,18.9,18.9,0,0,0,2.273-1.1l2.285-1.229c.771-.4,1.573-.729,2.358-1.1.8-.337,1.617-.623,2.424-.937A44.205,44.205,0,0,1,371.07,489.2a45.4,45.4,0,0,1,10.416.042c.867.1,1.731.231,2.592.386a22.52,22.52,0,0,0,2.467.375,15.977,15.977,0,0,0,4.821-.338,11.577,11.577,0,0,0,7.565-5.167c1.526-2.716,1.55-6.136.959-9.364a31.917,31.917,0,0,0-1.328-4.818,34.919,34.919,0,0,0-1.985-4.613l.091.123a11.409,11.409,0,0,1-1.98-3.759,11.055,11.055,0,0,1-.52-4.134,12.777,12.777,0,0,1,.929-4,15.077,15.077,0,0,1,.883-1.833c.349-.578.744-1.127,1.111-1.687a.115.115,0,0,1,.2.115Zm37.913,1.38a19.958,19.958,0,0,1,.529,11.219,12.335,12.335,0,0,1-1.047,2.728c-.413.8-.79,1.639-1.139,2.48a37.961,37.961,0,0,0-1.709,5.169c-.853,3.471-1.106,7.209.275,10.3,1.381,3.078,4.549,5.055,7.922,5.848a16.069,16.069,0,0,0,5.227.3c.439-.047.876-.116,1.312-.2l1.4-.249q1.4-.226,2.813-.366a47.335,47.335,0,0,1,11.266.271,44.448,44.448,0,0,1,10.833,2.963c.848.4,1.726.747,2.55,1.2s1.669.912,2.47,1.317a23.343,23.343,0,0,0,5.1,1.933,30.279,30.279,0,0,0,5.389.921,37.141,37.141,0,0,0,5.463.087,32.348,32.348,0,0,0,10.55-2.128,9.48,9.48,0,0,0,4.036-2.783,2.413,2.413,0,0,0,.5-1.808,3.853,3.853,0,0,0-1.009-1.855,15.287,15.287,0,0,0-4.133-3.006c-.793-.409-1.6-.809-2.42-1.183-.843-.349-1.656-.711-2.523-1.05-6.908-2.76-13.855-5.4-20.617-8.726a50.34,50.34,0,0,1-4.956-2.794,22.372,22.372,0,0,1-4.358-3.78,33.62,33.62,0,0,1-5.477-9.888l-.01-.026a.245.245,0,0,1-.015-.058l-.63-5.134a.115.115,0,0,1,.227-.038l1.091,5.056-.025-.084c1.68,3.3,3.385,6.629,5.907,9.183a29.95,29.95,0,0,0,9.1,5.788c3.343,1.522,6.816,2.824,10.274,4.173s6.943,2.652,10.4,4.036c3.48,1.426,7.1,2.9,9.953,6.027a6.076,6.076,0,0,1,1.481,3.041,4.672,4.672,0,0,1-.948,3.42,11.445,11.445,0,0,1-5.054,3.442,27.138,27.138,0,0,1-5.6,1.438,37.783,37.783,0,0,1-16.906-1.174,24.337,24.337,0,0,1-5.209-2.26l-2.426-1.359c-.8-.456-1.653-.807-2.477-1.217a35.613,35.613,0,0,0-10.627-2.875,41.183,41.183,0,0,0-10.99.3c-.9.144-1.8.312-2.7.508l-1.334.316c-.473.116-.95.219-1.432.3a16.267,16.267,0,0,1-5.869-.065,14.481,14.481,0,0,1-5.482-2.29,10.966,10.966,0,0,1-3.882-4.645,13.811,13.811,0,0,1-1.061-5.867,23.6,23.6,0,0,1,.929-5.72,33.428,33.428,0,0,1,2.051-5.325c.412-.856.845-1.694,1.33-2.521a11.055,11.055,0,0,0,1.08-2.415,19.468,19.468,0,0,0,.91-5.335,25.123,25.123,0,0,0-.519-5.485.116.116,0,0,1,.223-.06Z" transform="translate(9.851 8.64)" fill="#5504b0"/>
    <path id="Path_22720" data-name="Path 22720" d="M432.012,492.862c5.372,9.626,20.923,1.169,31.032,4.205,1.45.435,1.731.3,1.731.3s6.428-18.022,15.008-17.462c0,0,14.116,2.774,16.054,6.926,0,0-11.242,10.265-10.345,18.306,21.588,2.248,24.586-5.712,24.586-5.712,4.269,8.3-12.338,12.767-23.651,9.342-9.514-2.88-28.025-9.342-28.025-9.342v5.4l-6.851,2.906h-19.6l2.989-6.5C429.27,496.66,432.012,492.862,432.012,492.862Zm-110.763,6.566s3,7.961,24.586,5.712c.9-8.041-10.346-18.306-10.346-18.306,1.938-4.152,16.054-6.926,16.054-6.926,8.58-.56,15.008,17.462,15.008,17.462s.281.132,1.731-.3c10.109-3.037,25.661,5.421,31.032-4.205,0,0,2.742,3.8-2.932,8.365l2.988,6.5h-19.6l-6.85-2.906v-5.4s-18.511,6.461-28.025,9.342C333.587,512.194,316.98,507.731,321.249,499.428ZM373.5,129c.279-3.236.457-6.434.59-9.633.106-3.2.2-6.389.157-9.582-.006-1.6-.018-3.193-.081-4.789l-.063-2.4-.11-2.4c-.122-3.2-.381-6.4-.494-9.655a57.184,57.184,0,0,1,2.124,9.5,72.118,72.118,0,0,1,.72,9.726,70.695,70.695,0,0,1-.629,9.737A45.089,45.089,0,0,1,373.5,129Zm21.877-15.5a11.874,11.874,0,0,0,2.059-1.364,22.932,22.932,0,0,0,1.81-1.617c.6-.55,1.144-1.157,1.733-1.739.57-.6,1.14-1.207,1.786-1.787a10.422,10.422,0,0,1-1.146,2.3,12.178,12.178,0,0,1-1.645,1.983,9.329,9.329,0,0,1-2.092,1.545A4.957,4.957,0,0,1,395.382,113.5ZM382.456,98.236c-.082.554-.2,1.052-.3,1.536a5.154,5.154,0,0,0-.125,1.338,1.114,1.114,0,0,0,.473.9,6.186,6.186,0,0,0,1.332.629,2.328,2.328,0,0,1-1.7.1,1.034,1.034,0,0,1-.44-.225,1.349,1.349,0,0,1-.373-.367,1.9,1.9,0,0,1-.337-.957,3.213,3.213,0,0,1,.4-1.7A3.648,3.648,0,0,1,382.456,98.236Zm.214,8.309a32.213,32.213,0,0,1,3.343.307,6.967,6.967,0,0,0,1.508.045,1.292,1.292,0,0,0,1.1-.856,3.036,3.036,0,0,1,.059.463,1.967,1.967,0,0,1-.135.489,2.947,2.947,0,0,1-.337.413c-.138.1-.291.182-.445.271a3.827,3.827,0,0,1-1.865.217,6.373,6.373,0,0,1-1.716-.445A5.254,5.254,0,0,1,382.67,106.545Zm79.88,196.1c-.155,6.554-.341,13.105-.44,19.656-.075,6.541-.27,13.12.012,19.594.549,12.989,5.077,25.37,8.086,38.191,1.578,6.4,2.927,12.835,4.115,19.308s2.263,12.967,3.082,19.506,1.436,13.112,1.7,19.72a120.725,120.725,0,0,1-.648,19.9l-.009.067a1.434,1.434,0,0,1-.9,1.15,25.041,25.041,0,0,1-3.822,1.1c-1.247.28-2.494.488-3.742.669-2.5.348-5,.562-7.491.669a116.057,116.057,0,0,1-14.915-.381c-9.847-1-19.554-1.994-29.371-2.627q-7.347-.483-14.71-.708c-2.454-.067-4.908-.126-7.364-.149s-4.949-.067-7.412-.243a83.781,83.781,0,0,1-14.655-2.3,87.268,87.268,0,0,1-14-4.883.488.488,0,0,1-.289-.474V450.4c.864-14.361,1.079-28.767,1.079-43.149-.052-14.383-.342-28.76-1.174-43.08l-.335-5.368c-.121-1.788-.321-3.566-.477-5.35-.275-3.576-.785-7.11-1.242-10.654-.184-1.783-.589-3.513-.895-5.268-.331-1.753-.63-3.488-1.035-5.281a103.573,103.573,0,0,1-1.628-10.785,186.39,186.39,0,0,1-.553-21.69c.164-7.212.488-14.431,1.287-21.6a.157.157,0,0,1,.314.024c-.295,7.194-.378,14.382-.169,21.57.091,3.591.172,7.2.309,10.778s.443,7.135.911,10.672,1.1,7.046,1.878,10.521c.419,1.712.767,3.52,1.135,5.3.343,1.785.789,3.562,1.006,5.36l.788,5.384c.281,1.794.393,3.6.6,5.4.173,1.8.389,3.6.525,5.4l.382,5.409c.942,14.428.932,28.875.462,43.286-.443,14.416-1.269,28.8-2.182,43.185l-.288-.483a78.322,78.322,0,0,0,28.318,6.917c2.447.143,4.866.108,7.338.064s4.927-.048,7.391-.045q7.392.032,14.783.291c4.926.174,9.851.416,14.77.753,4.9.319,9.861.812,14.7,1.155a127.436,127.436,0,0,0,14.573.144c2.417-.131,4.821-.366,7.192-.724,1.183-.185,2.361-.4,3.511-.668a23.253,23.253,0,0,0,3.254-.96l-.909,1.217a117.706,117.706,0,0,0,.4-19.367q-.492-9.729-1.732-19.443c-1.635-12.933-3.917-25.823-6.7-38.564-1.414-6.378-3.067-12.7-4.57-19.114-.736-3.212-1.423-6.459-1.871-9.752a88.519,88.519,0,0,1-.768-9.918c-.049-6.633.309-13.161.683-19.718.413-6.547.842-13.09,1.4-19.625a.157.157,0,0,1,.314.017Z" transform="translate(9.881 1.544)" fill="#5504b0"/>
    <line id="Line_1" data-name="Line 1" y1="27.04" x2="19.504" transform="translate(342.389 100.766)" fill="none" stroke="#020202" stroke-linecap="round" stroke-linejoin="round" stroke-width="2.903"/>
    <path id="Path_22721" data-name="Path 22721" d="M379.457,210.977c-.609-.724-1.605-1.91-1.259-3.273a3.126,3.126,0,0,1,2.644-2.14c1.154-.1,1.637.63,3.273,1.511,3.294,1.784,5,.808,5.917,2.266a3.542,3.542,0,0,1-.755,4.281c-.955.766-2.161.525-4.155.126a9.154,9.154,0,0,1-5.666-2.77Z" transform="translate(14.723 11.218)" fill="none"/>
    <path id="Path_22722" data-name="Path 22722" d="M432.566,123.842c-20.207.472-56.089,53.172-56.089,53.172l-.063.6-1.07,9.6s-.579,4.318,1.658,15.633l-.01.084c1.186-.441,2.361-.85,3.515-1.238a48.522,48.522,0,0,1,15.863-2.266c6.138-.094,7.789.741,13.391,1.78,6.578,1.227,18.554,7.6,18.554,7.6a41.5,41.5,0,0,1,3.894-3.3,457.474,457.474,0,0,0,19.725-79.451C444.3,117.789,432.566,123.842,432.566,123.842Zm-23.512,57.2a5.956,5.956,0,0,1-1.962-.755,4.344,4.344,0,0,1-1.49-1.437,16.9,16.9,0,0,0,3.651,1.165,13.406,13.406,0,0,0,1.857.231c.63.063,1.269.031,1.972.084a5.5,5.5,0,0,1-4.029.713ZM204,95.685a19.21,19.21,0,0,1,3.2,2.222,31.808,31.808,0,0,1,2.762,2.628,31.248,31.248,0,0,1,2.432,2.935,18.962,18.962,0,0,1,1.993,3.345,18.969,18.969,0,0,1-3.2-2.22,31.26,31.26,0,0,1-2.76-2.63,31.816,31.816,0,0,1-2.43-2.937A19.216,19.216,0,0,1,204,95.685Zm157.82,170.926a19.648,19.648,0,0,1,3.2,2.29,32.572,32.572,0,0,1,2.763,2.692,31.993,31.993,0,0,1,2.431,3,19.385,19.385,0,0,1,1.987,3.4A19.392,19.392,0,0,1,369,275.7a32.027,32.027,0,0,1-2.761-2.694,32.586,32.586,0,0,1-2.429-3A19.65,19.65,0,0,1,361.816,266.611ZM330.034,105.05a14.015,14.015,0,0,1,.747-3.223,22.625,22.625,0,0,1,1.276-2.949,22.22,22.22,0,0,1,1.675-2.742,13.839,13.839,0,0,1,2.209-2.465A13.843,13.843,0,0,1,335.2,96.9a22.212,22.212,0,0,1-1.278,2.948,22.625,22.625,0,0,1-1.678,2.74,14.017,14.017,0,0,1-2.206,2.466Zm60.392-8.626a1.75,1.75,0,1,0-1.689-1.749A1.75,1.75,0,0,0,390.426,96.424Zm9.532.607a1.75,1.75,0,1,0-1.689-1.749,1.75,1.75,0,0,0,1.689,1.749Z" transform="translate(0.076 1.744)" fill="#5504b0"/>
    <path id="Path_22723" data-name="Path 22723" d="M372.527,90.951a7.35,7.35,0,0,1,6.081.253m5.976.249a6.721,6.721,0,0,1,5.138.214" transform="translate(14.252 1.533)" fill="none" stroke="#020202" stroke-linecap="round" stroke-linejoin="round" stroke-width="1.075"/>
    <path id="Path_22724" data-name="Path 22724" d="M380.767,90.608a1.575,1.575,0,1,0-1.52-1.574A1.575,1.575,0,0,0,380.767,90.608Z" transform="translate(14.817 1.285)" fill="#5504b0"/>
    <line id="Line_2" data-name="Line 2" y1="3.38" x2="0.214" transform="translate(395.848 75.139)" fill="none" stroke="#b21919" stroke-linecap="round" stroke-linejoin="round" stroke-width="1.936"/>
    <path id="Path_22725" data-name="Path 22725" d="M416.551,212.413a5.793,5.793,0,0,0,3.486-4.832,7.226,7.226,0,0,0-2.593-5.453,11.366,11.366,0,0,0-2.6-1.71c-.937-.494-1.887-.971-2.845-1.423q-2.875-1.361-5.855-2.457a70.8,70.8,0,0,0-24.717-4.425,46.426,46.426,0,0,0-12.455,1.647,47.682,47.682,0,0,0-5.956,2.145,27.625,27.625,0,0,0-5.533,3.017,12.886,12.886,0,0,0-4.008,4.711,15.745,15.745,0,0,0-1.465,6.04,13.092,13.092,0,0,0,1.127,6.052,12.835,12.835,0,0,0,3.905,4.692,50.122,50.122,0,0,0,11.028,6.037,76.455,76.455,0,0,0,12.01,3.893,68.842,68.842,0,0,0,12.458,1.8,89.577,89.577,0,0,0,12.609-.29c4.132-.425,8.378-1.157,11.819-3.123a8.16,8.16,0,0,0,2.161-1.832,6.035,6.035,0,0,0,1.213-2.435,2.165,2.165,0,0,0-.679-2.144,7.053,7.053,0,0,0-2.49-1.417,30.631,30.631,0,0,0-6.108-1.355c-1.046-.153-2.1-.19-3.217-.456a2.892,2.892,0,0,1-1.551-.894,2.961,2.961,0,0,1-.659-1.637,3.54,3.54,0,0,1,.25-1.7,2.266,2.266,0,0,1,1.161-1.267,10.555,10.555,0,0,1,3.161-.769c1.075-.113,2.142-.137,3.209-.163a14.74,14.74,0,0,0,3.139-.26Zm.083.193a14.438,14.438,0,0,1-3.214.321,31.822,31.822,0,0,0-3.176.218,10.274,10.274,0,0,0-3,.837,2.582,2.582,0,0,0-.443,3.771,2.169,2.169,0,0,0,1.22.591c.975.175,2.068.16,3.139.249A32.513,32.513,0,0,1,417.6,219.6a8.455,8.455,0,0,1,3.125,1.55,3.95,3.95,0,0,1,1.169,1.607,4.066,4.066,0,0,1,.184,2,7.746,7.746,0,0,1-1.432,3.324,10.108,10.108,0,0,1-2.615,2.373,21.08,21.08,0,0,1-6.211,2.513,47.723,47.723,0,0,1-6.449,1.124,81.49,81.49,0,0,1-12.958.247A73.178,73.178,0,0,1,367.4,227.98a61.1,61.1,0,0,1-5.755-2.959,35.515,35.515,0,0,1-5.341-3.72,13.854,13.854,0,0,1-4-5.216,15.111,15.111,0,0,1-1.036-6.448,16.42,16.42,0,0,1,1.621-6.29,14.176,14.176,0,0,1,4.178-4.968,30.5,30.5,0,0,1,5.589-3.261,48.738,48.738,0,0,1,5.968-2.475,46.644,46.644,0,0,1,12.756-2.277,57.162,57.162,0,0,1,25.251,4.949q2.957,1.3,5.784,2.853c.943.515,1.87,1.051,2.79,1.607a12.005,12.005,0,0,1,2.617,1.953,7.889,7.889,0,0,1,2.5,5.865,6.089,6.089,0,0,1-3.689,5.009Z" transform="translate(12.462 9.938)" fill="#5504b0"/>
    <path id="Path_22726" data-name="Path 22726" d="M400.169,223.654c-.955.766-2.161.525-4.155.126a9.154,9.154,0,0,1-5.666-2.77c-.608-.724-1.605-1.91-1.259-3.273a3.126,3.126,0,0,1,2.644-2.14c1.154-.1,1.637.63,3.273,1.511,3.294,1.784,5,.808,5.917,2.266A3.542,3.542,0,0,1,400.169,223.654Zm-31.408-5.159c4.051,0,4.057-6.3,0-6.3S364.7,218.495,368.76,218.495Zm2.833,9.631c4.051,0,4.057-6.3,0-6.3S367.536,228.126,371.593,228.126Zm10.953,5.854c4.051,0,4.057-6.3,0-6.3S378.489,233.98,382.546,233.98Zm12.842,3.4c4.051,0,4.057-6.3,0-6.3S391.331,237.38,395.388,237.38Zm13.22.567c4.051,0,4.057-6.3,0-6.3S404.55,237.946,408.608,237.946ZM378.2,211.507c4.051,0,4.057-6.3,0-6.3S374.145,211.507,378.2,211.507ZM391.8,210c4.051,0,4.057-6.3,0-6.3S387.743,210,391.8,210Zm13.786,2.077c4.051,0,4.057-6.3,0-6.3S401.529,212.074,405.586,212.074Zm14.919,6.988c4.051,0,4.057-6.3,0-6.3S416.448,219.061,420.505,219.061ZM318.765,506.187C313.446,471.4,308.64,436.547,303.8,401.7l-7.019-52.3c-2.345-17.432-4.524-34.882-6.794-52.323l-3.373-26.164-3.256-26.178-6.482-52.359L264.409,87.6l11.494-.369-5.687,104.8-3.094,52.385-1.561,26.192-1.68,26.186c-1.141,17.456-2.193,34.917-3.408,52.369l-3.634,52.357c-2.581,34.9-5.131,69.8-8.2,104.667.516-35,1.55-69.979,2.552-104.957l1.741-52.454c.577-17.485,1.317-34.962,1.967-52.443l1.007-26.22,1.126-26.214,2.281-52.427,5.063-104.828,11.494-.369,11.843,104.848,5.674,52.453,2.822,26.228,2.7,26.242c1.782,17.5,3.654,34.983,5.362,52.489l5.137,52.515C312.682,436.078,315.98,471.1,318.765,506.187Z" transform="translate(3.832 1.185)" fill="#5504b0"/>
    <rect id="Rectangle_21026" data-name="Rectangle 21026" width="21.151" height="13.755" rx="3.871" transform="translate(263.431 82.603)" fill="#5504b0"/>
    <path id="Path_22727" data-name="Path 22727" d="M358.176,428.476c9.6,1.817,19.253,3.425,28.926,4.724,4.831.678,9.678,1.24,14.516,1.59,1.21.088,2.419.175,3.621.19,1.206.045,2.409.078,3.589.011.586-.033,1.2-.006,1.763-.089l1.688-.233a25.152,25.152,0,0,1,3.838-.433,69.036,69.036,0,0,1,7.476.189c2.464.166,4.913.386,7.355.622q7.32.768,14.552,1.771c4.825.659,9.646,1.269,14.468,1.653a71.074,71.074,0,0,0,7.229.24,21,21,0,0,0,7.07-1.165l.009,0a.158.158,0,0,1,.139.281,19.483,19.483,0,0,1-7.088,2.318,54.423,54.423,0,0,1-7.426.542,139.808,139.808,0,0,1-14.76-.739c-4.889-.452-9.734-1.154-14.563-1.8a109.084,109.084,0,0,0-14.4-1.387,22.477,22.477,0,0,0-3.453.274l-1.952.209c-.65.069-1.265.021-1.9.036-1.265.03-2.5-.045-3.739-.13-1.242-.057-2.468-.184-3.693-.313-4.9-.514-9.754-1.237-14.582-2.073-9.649-1.721-19.224-3.742-28.752-5.972a.157.157,0,0,1,.066-.308Zm5.348,12.668c4.051,0,4.057-6.3,0-6.3S359.467,441.145,363.524,441.145Zm10.576,2.266c4.051,0,4.057-6.3,0-6.3S370.043,443.411,374.1,443.411Zm11.835,2.266c4.051,0,4.057-6.3,0-6.3S381.877,445.677,385.935,445.677Zm12.842,1.007c4.051,0,4.057-6.3,0-6.3S394.719,446.684,398.776,446.684Zm14.1-.5c4.051,0,4.057-6.3,0-6.3S408.82,446.181,412.877,446.181Zm14.1,2.014c4.051,0,4.057-6.3,0-6.3S422.921,448.2,426.978,448.2Zm14.353,2.014c4.051,0,4.057-6.3,0-6.3S437.274,450.21,441.331,450.21Zm13.346-.5c4.051,0,4.057-6.3,0-6.3S450.619,449.706,454.676,449.706Zm13.6-1.511c4.051,0,4.057-6.3,0-6.3S464.217,448.2,468.274,448.2ZM437.638,173.039a1.575,1.575,0,1,0-1.52-1.574A1.575,1.575,0,0,0,437.638,173.039Zm6.547-.126a1.575,1.575,0,1,0-1.52-1.574,1.575,1.575,0,0,0,1.52,1.574Zm7.176,0a1.575,1.575,0,1,0-1.52-1.574,1.575,1.575,0,0,0,1.52,1.574Zm6.463,0a1.575,1.575,0,1,0-1.52-1.574,1.575,1.575,0,0,0,1.52,1.574Z" transform="translate(13.029 8.208)" fill="#5504b0"/>
    <line id="Line_3" data-name="Line 3" x1="161.262" transform="translate(222.032 283.092)" fill="none" stroke="#5504b0" stroke-linecap="round" stroke-linejoin="round" stroke-width="7.742"/>
    <path id="Path_22728" data-name="Path 22728" d="M261.423,264.246l1.44-.95a13.462,13.462,0,0,1-1.836.022,21.2,21.2,0,0,1-5.105-1.061,38.655,38.655,0,0,1-6.065-2.829l.413,2.1a18.454,18.454,0,0,0,4.966,2.712,14.2,14.2,0,0,0,5.517.727Z" transform="translate(3.934 15.75)" fill="#5504b0"/>
  </g>
</svg>
