<svg xmlns="http://www.w3.org/2000/svg" width="317.98" height="439.286" xmlns:v="https://vecta.io/nano"><style><![CDATA[.B{fill:#5504b0}.C{stroke-linecap:round}.D{stroke-linejoin:round}]]></style><g class="B"><path d="M215.086 170.204c-13.314 27-30.521 45.828-51.609 37.34h5.708l-4.69-23.848c1-6.694 2.277-14.185 3.892-22.778a62.8 62.8 0 0 0 10.618 5.078 70.6 70.6 0 0 0 23.669 5.036 51.37 51.37 0 0 0 12.412-.828zm70.8 63.454c4.417 20.3 8.687 36.092 13.178 44.957-1.839 2.104-3.782 4.113-5.823 6.022-1.983 1.879-4.152 3.553-6.473 4.994a22.04 22.04 0 0 1-7.407 2.98 19.05 19.05 0 0 1-4.029.283 23.72 23.72 0 0 1-4.039-.577c-2.2-8.467-2.875-10.219-3.347-20.469-.451-9.516 1.238-39.858 1.238-39.858-2.046-62.216-22.862-82.612-22.862-82.612 18.214-9.694 20.847-23.46 20.847-23.46s12.095 77.335 18.715 107.74z"/><path d="M299.061 278.614c-1.192 2.599-2.758 5.01-4.648 7.155-1.883 2.209-4.093 4.118-6.552 5.66-1.259.757-2.587 1.393-3.966 1.9a17.34 17.34 0 0 1-4.323.913c-1.466.108-2.941-.001-4.375-.325-1.366-.324-2.678-.847-3.892-1.553l2.487 10.093c15.507 10.67 35.871-16.136 36.4-16.839-3.975 2.628-7.626-.079-11.131-7.004zm-21.854 22.19c-.642.023-1.233-.346-1.495-.933s-.141-1.273.305-1.735 1.128-.607 1.723-.367.985.818.985 1.46c0 .848-.671 1.544-1.519 1.574zm7.3-.5c-.642.023-1.233-.346-1.495-.933s-.141-1.273.305-1.735 1.128-.607 1.723-.367.985.818.985 1.46c-.002.846-.671 1.539-1.516 1.571zm8.058-3.777c-.642.023-1.233-.346-1.495-.933s-.141-1.273.305-1.735 1.128-.607 1.723-.367.985.818.985 1.46c0 .848-.671 1.544-1.519 1.574zm6.043-5.791c-.642.023-1.233-.346-1.495-.933s-.141-1.273.305-1.735 1.128-.607 1.723-.367.985.818.985 1.46c0 .848-.671 1.544-1.519 1.574z"/><path d="M271.301 292.359l-.1-.063c.031.011.063.011.094.021.006.013.008.028.006.042zM191.895 4.563a9.66 9.66 0 0 0-3.333 4.017 14.83 14.83 0 0 0-.835 2.471l-.256 1.311a9.48 9.48 0 0 1-.351 1.389 11.91 11.91 0 0 1-2.953 4.925 8.28 8.28 0 0 1-2.466 1.745 4.71 4.71 0 0 1-1.626.39 3.08 3.08 0 0 1-1.847-.49.78.78 0 0 1-.336-.447v-.009a4.15 4.15 0 0 1-.16-1.245 5.91 5.91 0 0 1 .119-1.124c.15-.714.409-1.401.767-2.036a10.2 10.2 0 0 1 1.22-1.711c.454-.509.946-.983 1.471-1.419l-.17.191a14.16 14.16 0 0 0 1.7-3.687l.244-1.029a6.13 6.13 0 0 1 .405-1.177c.329-.709.735-1.38 1.211-2a10.47 10.47 0 0 1 3.467-3.007 5.46 5.46 0 0 1 4.56-.369l-.2-.015c3.276-.596 6.587-.978 9.912-1.142 3.353-.228 6.722-.041 10.029.557a19.78 19.78 0 0 1 4.885 1.6 13.44 13.44 0 0 1 4.246 3.128c.278.352.581.687.835 1.057.236.377.51.756.712 1.136.405.759.813 1.518 1.143 2.308a32.63 32.63 0 0 1 1.7 4.82c1.586 6.532 2.074 13.282 1.445 19.974a33.46 33.46 0 0 0 1.251 9.565 31.74 31.74 0 0 0 1.738 4.542 5.66 5.66 0 0 0 1.389 1.88 6.4 6.4 0 0 0 2.124 1.1c.027.008.049.027.062.052s.015.054.007.08c-.017.05-.068.081-.12.072a6.22 6.22 0 0 1-2.382-.891 6.3 6.3 0 0 1-1.76-1.9 26.43 26.43 0 0 1-2.213-4.544 30.2 30.2 0 0 1-1.931-9.938c-.045-1.724.028-3.336-.026-4.969-.032-1.631-.081-3.261-.217-4.882a59.03 59.03 0 0 0-1.474-9.586 30.55 30.55 0 0 0-1.472-4.569c-.287-.746-.645-1.453-1-2.164-.355-.669-.775-1.302-1.255-1.888a15.55 15.55 0 0 0-8.01-4.61 43.43 43.43 0 0 0-19.471-.112.36.36 0 0 1-.184-.011h-.012c-1.302-.423-2.726-.225-3.862.539-1.726 1.15-3.053 2.806-3.8 4.74-.111.295-.192.6-.241.911-.052.293-.1.757-.18 1.119-.322 1.534-.907 3-1.728 4.335a.61.61 0 0 1-.105.131l-.065.06a16.68 16.68 0 0 0-1.25 1.248 8.34 8.34 0 0 0-.979 1.395 5.76 5.76 0 0 0-.6 1.507 4.07 4.07 0 0 0-.1.766 2.91 2.91 0 0 0 .048.643l-.339-.456a1.99 1.99 0 0 0 1.746-.036c.741-.313 1.419-.758 2-1.314a11.13 11.13 0 0 0 2.816-4.177c.326-.792.5-1.62.782-2.557a12.93 12.93 0 0 1 1.154-2.582 9.45 9.45 0 0 1 4.024-3.794c.05-.028.113-.009.141.041s.009.113-.041.141z"/><path d="M183.641 18.039c-.181 2.974-.09 5.959.271 8.917.178 1.452.46 2.889.845 4.3.15.711.42 1.382.631 2.069l.839 1.971a17.1 17.1 0 0 0 2.284 3.565 16.41 16.41 0 0 0 3.013 2.945 11.65 11.65 0 0 0 3.661 1.853c.655.191 1.329.306 2.01.341a7 7 0 0 0 1.958-.118l.119-.026a.76.76 0 0 1 .905.58.8.8 0 0 1 .018.172 42.71 42.71 0 0 1-.44 5.637c-.134.943-.348 1.872-.639 2.779a4.48 4.48 0 0 1-.661 1.3 1.08 1.08 0 0 1-.654.394c-.248-.001-.485-.097-.664-.268a.89.89 0 0 0 .637.12c.19-.083.345-.231.435-.418a4.34 4.34 0 0 0 .371-1.27 20.07 20.07 0 0 0 .2-2.726l-.164-5.5 1.042.726a9.25 9.25 0 0 1-4.932.1c-1.587-.369-3.083-1.058-4.395-2.025a16.16 16.16 0 0 1-3.432-3.291l-.721-.935-.644-1.007a17.2 17.2 0 0 1-1.118-2.1c-1.196-2.877-1.836-5.954-1.885-9.069a30.82 30.82 0 0 1 1.113-9.021zm61.031 36.289l6.171 1.713 6.083 2.043-.066-.019a14.72 14.72 0 0 1 6.661 3.514c1.871 1.708 3.451 3.71 4.679 5.926 2.356 4.451 3.88 9.294 4.5 14.291a81.08 81.08 0 0 1 .587 14.92c-.241 4.958-.758 9.899-1.548 14.8v.007a1.03 1.03 0 0 1-1.021.867l-12.868-.061-12.868-.144h-.024c-.423-.008-.77-.336-.8-.758q-.549-8.009-.681-16.018-.044-4.008.078-8.018c.039-2.674.271-5.342.695-7.982a72.45 72.45 0 0 0-.128 7.984q.12 3.991.4 7.976c.332 5.312.779 10.625 1.285 15.916l-.827-.758 12.868-.144 12.868-.061-1.022.874c.713-4.844 1.309-9.7 1.559-14.579a86.62 86.62 0 0 0-.35-14.584 57.1 57.1 0 0 0-1.343-7.135 34.97 34.97 0 0 0-2.552-6.752c-1.075-2.151-2.489-4.115-4.188-5.816a14.01 14.01 0 0 0-6.051-3.69l-.051-.013-.016-.005c-1.947-.827-3.96-1.551-5.965-2.266s-4.018-1.427-6.065-2.028zM193.254 3.736a7.83 7.83 0 0 1 5.33 4.11 13.77 13.77 0 0 1 1.262 3.227 22.59 22.59 0 0 0 1.066 3.009 16.06 16.06 0 0 0 3.517 5.132c1.305 1.485 3.201 2.315 5.178 2.267l-.457.262c.749-.804 1.583-1.524 2.487-2.148a5.14 5.14 0 0 1 3.239-1.1 2.39 2.39 0 0 1 1.585.927 4.89 4.89 0 0 1 .734 1.526 13.32 13.32 0 0 1 .458 3.174c.232 2.172-.19 4.365-1.213 6.295-1.265 2.066-3.667 3.146-6.052 2.72l.941-.5c-.472 1.89-.907 3.821-1.263 5.747a66.9 66.9 0 0 0-.911 5.791 39.73 39.73 0 0 0-.234 5.749c-.037 1.749.434 3.471 1.356 4.957l-1.065-.331c1.713-.394 3.382-.633 5.078-.869 1.693-.21 3.387-.387 5.086-.48a70.79 70.79 0 0 1 10.18.094c.029.001.055.014.074.036s.028.05.026.078c-.003.054-.046.097-.1.1l-5.032.52a90.57 90.57 0 0 0-4.991.661l-4.944.856c-1.634.3-3.285.677-4.851 1.073h-.005c-.388.097-.797-.031-1.06-.332a7.63 7.63 0 0 1-1.541-3.09c-.267-1.034-.417-2.094-.449-3.161a31.84 31.84 0 0 1 .382-6.123c.591-3.98 1.536-7.9 2.823-11.712l.014-.041a.73.73 0 0 1 .923-.46h0a4.4 4.4 0 0 0 2.609-.135c.887-.331 1.657-.913 2.218-1.676a8.93 8.93 0 0 0 1.353-5.734c-.011-1.017-.167-2.027-.463-3-.3-.933-.914-1.79-1.746-1.793-.925.116-1.786.532-2.452 1.184-.754.645-1.439 1.367-2.043 2.154a.68.68 0 0 1-.4.251l-.054.011a6.3 6.3 0 0 1-3.719-.37 9.57 9.57 0 0 1-3.006-2.025c-1.675-1.645-2.967-3.64-3.784-5.841-.412-1.073-.728-2.18-.946-3.309-.18-1.042-.474-2.062-.876-3.04-.414-.966-.981-1.86-1.68-2.645a7.06 7.06 0 0 0-2.623-1.789l-.015-.005c-.055-.015-.088-.071-.074-.126s.071-.088.127-.073z"/><path d="M244.327 72.146c.235-1.666.676-3.296 1.313-4.853a19.02 19.02 0 0 1 2.452-4.444 12.5 12.5 0 0 1 3.786-3.455 8.54 8.54 0 0 1 4.937-1.04 11.08 11.08 0 0 0-4.505 1.735c-1.302.939-2.442 2.083-3.378 3.387-.973 1.305-1.826 2.696-2.549 4.154l-2.056 4.516zm-34.851-16.557a13.53 13.53 0 0 1-.006 5.259c-.293 1.738-.876 3.415-1.725 4.96a42.63 42.63 0 0 1 .693-5.146l1.038-5.073zm-47.842 39.659c.18-1.82.475-3.628.828-5.424l1.2-5.367a73.16 73.16 0 0 1 3.565-10.443 50.97 50.97 0 0 1 2.455-4.983c.892-1.637 1.902-3.208 3.021-4.7 2.214-3.09 5.045-5.686 8.315-7.624l-.09.057a7.68 7.68 0 0 1 1.1-.588c.349-.16.7-.294 1.048-.428.7-.249 1.4-.472 2.111-.652a31.46 31.46 0 0 1 4.266-.809c1.427-.192 2.856-.3 4.284-.38s2.854-.077 4.278-.06h.026c.448.007.806.375.8.823v.054c-.266 3.369-.446 6.777-.53 10.175-.126 3.4-.062 6.805.149 10.22a75.61 75.61 0 0 1-1.186-10.206c-.161-3.429-.2-6.85-.076-10.3l.826.877q-2.092.079-4.17.229c-1.383.121-2.763.263-4.123.487-1.353.21-2.695.492-4.018.845a21.61 21.61 0 0 0-1.92.613c-.307.122-.614.243-.9.38-.262.116-.517.25-.762.4a2.24 2.24 0 0 1-.09.057 26.99 26.99 0 0 0-7.721 7.045 51.48 51.48 0 0 0-5.535 9.175c-1.561 3.263-2.924 6.618-4.081 10.045q-1.794 5.159-3.065 10.479z"/><path d="M148.036 47.397a10.03 10.03 0 0 1 2.8 2.742 15.26 15.26 0 0 1 1.74 3.558 23 23 0 0 1 .952 3.851 24.87 24.87 0 0 1 .329 3.979l-.013-.148 8.581 33.085q1.077 4.131 2.21 8.241l.568 2.053.31.9.4.9c.621 1.222 1.339 2.393 2.147 3.5 1.634 2.268 3.433 4.412 5.382 6.415l6.109 5.962-1.521.233 6.746-12.408.519 1.325-12.115-4.18-.053-.018a.64.64 0 0 1-.234-.144c-1.086-1.096-1.918-2.418-2.437-3.871a14.53 14.53 0 0 1-.892-4.321 21.6 21.6 0 0 1 1.411-8.475c.479-1.352 1.068-2.62 1.616-3.9l1.624-3.861 1.536-3.9a28.88 28.88 0 0 0 1.3-3.974c-.535 2.751-1.291 5.455-2.26 8.085l-2.753 7.9c-.848 2.58-1.185 5.301-.993 8.01.11 1.317.421 2.609.921 3.832.465 1.174 1.169 2.238 2.068 3.124l-.286-.162 12.146 4.087a.93.93 0 0 1 .524 1.316l-.005.01-6.688 12.44c-.252.466-.833.641-1.3.392-.079-.043-.152-.097-.217-.159l-6.155-5.952a54.68 54.68 0 0 1-5.657-6.617c-.881-1.191-1.664-2.451-2.342-3.768l-.476-1.045-.389-1.115-.571-2.067q-1.12-4.138-2.164-8.287l-4-16.638q-1.9-8.341-3.654-16.712v-.018c-.009-.043-.012-.086-.01-.13a25.33 25.33 0 0 0-.083-3.821 22.3 22.3 0 0 0-.684-3.784c-.596-2.531-1.995-4.801-3.988-6.47zm-10.576-3.525a4.87 4.87 0 0 1 4.459-1.444c.809.152 1.575.479 2.244.96.323.235.624.498.9.787a7.93 7.93 0 0 1 .7.956c-.369-.167-.688-.371-1.019-.55l-1-.484c-.644-.293-1.321-.507-2.016-.637s-1.4-.149-2.1-.071a10.56 10.56 0 0 0-2.182.482zm8.309 8.561a3.4 3.4 0 0 1 .062 2.148c-.222.756-.706 1.408-1.365 1.839-.66.382-1.412.576-2.175.558a7.7 7.7 0 0 1-1.067-.144 7.87 7.87 0 0 1-1-.372 9.18 9.18 0 0 1 1.027-.142l.967-.158a5.66 5.66 0 0 0 1.681-.627c1.001-.752 1.672-1.863 1.871-3.099zm-4.154 10.764c.853.036 1.702.132 2.542.287l1.226.225 1.141.17.066.005a.43.43 0 0 1 .173.053 6.34 6.34 0 0 1 1.68 1.35c.249.274.451.586.6.924.162.335.206.714.126 1.077-.255-.599-.691-1.103-1.247-1.441-.523-.368-1.07-.702-1.636-1l.238.059a5.83 5.83 0 0 1-1.358-.206c-.422-.1-.827-.242-1.232-.378-.813-.287-1.591-.664-2.319-1.125z"/><path d="M163.477 207.7l-32.944.609-32.944.368-32.944.175-32.944.073h-.016a1.38 1.38 0 0 1-1.347-1.152l-3.756-22.8-3.58-22.832-3.569-22.834-1.788-11.416-1.867-11.408-3.752-22.8-3.921-22.774-8.09-45.507a.97.97 0 0 1 .784-1.126 1.12 1.12 0 0 1 .142-.015h.025l32.981-.812 32.983-.7 32.981-.639 32.985-.568a1.68 1.68 0 0 1 1.676 1.357l7.787 40.139 7.593 40.177 7.459 40.2 7.234 40.247c.017.085-.039.168-.124.185s-.168-.039-.185-.124l-8.551-39.988-8.326-40.032-8.191-40.059-8-40.1 1.676 1.357-32.987.44-32.988.366-32.989.311-32.991.2.95-1.141 7.269 45.645 3.759 22.8 3.928 22.773 1.974 11.385 2.052 11.372 4.111 22.742 4.1 22.744 3.924 22.774-1.363-1.152 32.944.073 32.944.175 32.944.368 32.944.609c.087 0 .157.071.157.157s-.071.158-.157.158zM11.368 36.371l57.55-1.462 29-.716 29.088-.639c.505-.011.945.34 1.046.835v.014l8.193 40.342 8.048 40.37 16.055 80.748c.081.408-.003.831-.234 1.176s-.59.585-.997.667a1.6 1.6 0 0 1-.309.03l-120.515-.237h-.012a1.32 1.32 0 0 1-1.3-1.111l-12.963-80.339zm0 0l14.277 80.117 13.963 79.456-1.314-1.111 120.508-.237-1.54 1.873-15.728-80.813-7.848-40.409-7.7-40.439 1.048.849-28.738.244-28.828.166zm220.912 89.086l5.662-1.419a49.99 49.99 0 0 0 5.417-1.451l-.679.874.356-3.049.487-3.035.619-3.022.839-3c.134 1.042.167 2.074.209 3.107l-.011 3.084-.143 3.071-.274 3.057v.021c-.043.391-.306.723-.677.854a17.05 17.05 0 0 1-2.962.741 27.71 27.71 0 0 1-2.949.334 29.77 29.77 0 0 1-5.894-.167z"/><path d="M225.303 138.365c1.267-1.531 2.641-2.97 4.112-4.305q2.16-2.034 4.425-3.937l4.586-3.731 4.733-3.545.063-.045c.113-.08.246-.129.384-.141l5.333-.3h2.679a15.73 15.73 0 0 1 2.68.259c-.889.086-1.753.281-2.625.44l-2.611.492-5.223.921.447-.186-4.57 3.739-4.688 3.588q-2.366 1.765-4.8 3.441l-4.925 3.31zm3.433 21.28l14.168-9.1 6.99-4.64 3.452-2.369c1.11-.789 2.176-1.639 3.192-2.546 4.093-3.634 7.253-8.198 9.212-13.309a33.57 33.57 0 0 0 1.893-16.328c1.569 5.531 1.448 11.404-.346 16.866a32.61 32.61 0 0 1-9.366 14.339 39.12 39.12 0 0 1-3.418 2.661l-3.528 2.34c-2.387 1.5-4.778 2.994-7.23 4.378-4.879 2.815-9.887 5.396-15.02 7.709zm-24.69 227.345c-.3.592-.63 1.167-.908 1.762a18.75 18.75 0 0 0-.694 1.837c-.394 1.232-.586 2.52-.569 3.813.03 1.272.273 2.53.717 3.722a10.24 10.24 0 0 0 1.878 3.192l.009.01c.031.035.058.073.082.113a33.57 33.57 0 0 1 3.908 9.78 19.85 19.85 0 0 1 .474 5.368 12.89 12.89 0 0 1-1.457 5.352c-.921 1.656-2.248 3.05-3.856 4.052a14.5 14.5 0 0 1-5.091 2.038 16.07 16.07 0 0 1-5.424.143 24.21 24.21 0 0 1-2.6-.537c-.819-.194-1.646-.365-2.479-.507a39.39 39.39 0 0 0-20.092 1.448c-.788.322-1.586.616-2.364.959-.764.373-1.544.713-2.293 1.112l-2.231 1.247c-.757.439-1.536.84-2.334 1.2a32.61 32.61 0 0 1-10.1 2.643 38.51 38.51 0 0 1-10.484-.293 28.67 28.67 0 0 1-5.155-1.36 11.75 11.75 0 0 1-4.722-3.015 5.07 5.07 0 0 1-1.3-2.941 4.52 4.52 0 0 1 .23-1.661c.154-.506.382-.987.677-1.427 1.113-1.527 2.535-2.802 4.174-3.742a59 59 0 0 1 9.546-4.358c6.367-2.552 12.854-4.877 18.961-7.759a24.73 24.73 0 0 0 8.05-5.692 36.7 36.7 0 0 0 5.256-8.568l-.042.14 1.205-5.87 1.25-5.863c.01-.063.07-.105.132-.094s.105.07.094.132l-.746 5.948-.79 5.94a.47.47 0 0 1-.03.112l-.012.029a37.6 37.6 0 0 1-4.991 9.221 26.6 26.6 0 0 1-8.42 6.433c-3.092 1.635-6.262 3.017-9.445 4.338l-9.571 3.844c-3.171 1.123-6.254 2.481-9.223 4.063a11.41 11.41 0 0 0-3.522 2.972c-.191.268-.34.563-.442.876a2.34 2.34 0 0 0-.153.864 2.91 2.91 0 0 0 .744 1.676 10.28 10.28 0 0 0 3.841 2.533c1.535.62 3.123 1.096 4.746 1.422 3.3.662 6.67.91 10.031.737a30.9 30.9 0 0 0 9.854-2.1 18.9 18.9 0 0 0 2.273-1.1l2.285-1.229c.771-.4 1.573-.729 2.358-1.1.8-.337 1.617-.623 2.424-.937 3.275-1.147 6.674-1.904 10.126-2.256a45.4 45.4 0 0 1 10.416.042c.867.1 1.731.231 2.592.386a22.52 22.52 0 0 0 2.467.375c1.615.132 3.24.018 4.821-.338 3.125-.609 5.861-2.478 7.565-5.167 1.526-2.716 1.55-6.136.959-9.364-.316-1.638-.76-3.249-1.328-4.818a34.92 34.92 0 0 0-1.985-4.613l.091.123a11.41 11.41 0 0 1-1.98-3.759c-.434-1.333-.61-2.735-.52-4.134.092-1.375.406-2.725.929-4 .253-.63.548-1.243.883-1.833.349-.578.744-1.127 1.111-1.687.032-.055.102-.074.157-.042s.074.102.043.157zm37.913 1.38a19.96 19.96 0 0 1 .529 11.219c-.24.948-.591 1.863-1.047 2.728-.413.8-.79 1.639-1.139 2.48a37.96 37.96 0 0 0-1.709 5.169c-.853 3.471-1.106 7.209.275 10.3 1.381 3.078 4.549 5.055 7.922 5.848a16.07 16.07 0 0 0 5.227.3c.439-.047.876-.116 1.312-.2l1.4-.249q1.4-.226 2.813-.366c3.753-.359 7.535-.268 11.266.271a44.45 44.45 0 0 1 10.833 2.963c.848.4 1.726.747 2.55 1.2l2.47 1.317c1.619.841 3.33 1.49 5.1 1.933a30.28 30.28 0 0 0 5.389.921 37.14 37.14 0 0 0 5.463.087 32.35 32.35 0 0 0 10.55-2.128 9.48 9.48 0 0 0 4.036-2.783c.404-.511.584-1.163.5-1.808-.157-.7-.506-1.343-1.009-1.855-1.199-1.227-2.596-2.243-4.133-3.006-.793-.409-1.6-.809-2.42-1.183l-2.523-1.05c-6.908-2.76-13.855-5.4-20.617-8.726a50.34 50.34 0 0 1-4.956-2.794 22.37 22.37 0 0 1-4.358-3.78 33.62 33.62 0 0 1-5.477-9.888l-.01-.026c-.007-.019-.012-.038-.015-.058l-.63-5.134c-.01-.063.032-.122.094-.132s.122.032.132.094l1.091 5.056-.025-.084c1.68 3.3 3.385 6.629 5.907 9.183a29.95 29.95 0 0 0 9.1 5.788c3.343 1.522 6.816 2.824 10.274 4.173l10.4 4.036c3.48 1.426 7.1 2.9 9.953 6.027.772.853 1.285 1.908 1.481 3.041a4.67 4.67 0 0 1-.948 3.42c-1.341 1.584-3.088 2.774-5.054 3.442a27.14 27.14 0 0 1-5.6 1.438c-5.652.894-11.432.492-16.906-1.174-1.819-.548-3.567-1.306-5.209-2.26l-2.426-1.359c-.8-.456-1.653-.807-2.477-1.217-3.372-1.503-6.957-2.473-10.627-2.875-3.66-.392-7.357-.291-10.99.3-.9.144-1.8.312-2.7.508l-1.334.316a19.77 19.77 0 0 1-1.432.3c-1.944.334-3.933.312-5.869-.065a14.48 14.48 0 0 1-5.482-2.29c-1.704-1.153-3.049-2.763-3.882-4.645a13.81 13.81 0 0 1-1.061-5.867 23.6 23.6 0 0 1 .929-5.72 33.43 33.43 0 0 1 2.051-5.325 34.69 34.69 0 0 1 1.33-2.521c.455-.759.818-1.57 1.08-2.415a19.47 19.47 0 0 0 .91-5.335c.029-1.842-.145-3.681-.519-5.485-.01-.059.027-.116.084-.131s.118.015.139.071z"/><path d="M238.804 422.218c5.372 9.626 20.923 1.169 31.032 4.205 1.45.435 1.731.3 1.731.3s6.428-18.022 15.008-17.462c0 0 14.116 2.774 16.054 6.926 0 0-11.242 10.265-10.345 18.306 21.588 2.248 24.586-5.712 24.586-5.712 4.269 8.3-12.338 12.767-23.651 9.342-9.514-2.88-28.025-9.342-28.025-9.342v5.4l-6.851 2.906h-19.6l2.989-6.5c-5.67-4.571-2.928-8.369-2.928-8.369zm-110.763 6.566s3 7.961 24.586 5.712c.9-8.041-10.346-18.306-10.346-18.306 1.938-4.152 16.054-6.926 16.054-6.926 8.58-.56 15.008 17.462 15.008 17.462s.281.132 1.731-.3c10.109-3.037 25.661 5.421 31.032-4.205 0 0 2.742 3.8-2.932 8.365l2.988 6.5h-19.6l-6.85-2.906v-5.4l-28.025 9.342c-11.308 3.428-27.915-1.035-23.646-9.338zm52.251-370.428c.279-3.236.457-6.434.59-9.633.106-3.2.2-6.389.157-9.582l-.081-4.789-.063-2.4-.11-2.4-.494-9.655c.977 3.101 1.687 6.279 2.124 9.5a72.12 72.12 0 0 1 .72 9.726c.015 3.256-.195 6.51-.629 9.737a45.09 45.09 0 0 1-2.214 9.496zm21.877-15.5c.732-.382 1.422-.839 2.059-1.364a22.93 22.93 0 0 0 1.81-1.617c.6-.55 1.144-1.157 1.733-1.739.57-.6 1.14-1.207 1.786-1.787a10.42 10.42 0 0 1-1.146 2.3 12.18 12.18 0 0 1-1.645 1.983 9.33 9.33 0 0 1-2.092 1.545c-.758.444-1.621.678-2.5.679zm-12.921-15.264c-.082.554-.2 1.052-.3 1.536-.1.439-.142.888-.125 1.338.004.359.18.694.473.9.417.262.865.473 1.332.629a2.33 2.33 0 0 1-1.7.1c-.163-.038-.314-.116-.44-.225a1.35 1.35 0 0 1-.373-.367 1.9 1.9 0 0 1-.337-.957c-.026-.593.112-1.181.4-1.7a3.65 3.65 0 0 1 1.07-1.254zm.214 8.309c1.119.044 2.235.147 3.343.307.5.07 1.005.085 1.508.045a1.29 1.29 0 0 0 1.1-.856c.032.153.051.307.059.463-.024.168-.069.333-.135.489-.1.148-.212.286-.337.413-.138.1-.291.182-.445.271-.594.226-1.235.301-1.865.217-.59-.068-1.168-.217-1.716-.445-.551-.214-1.062-.52-1.512-.904zm79.88 196.1l-.44 19.656c-.075 6.541-.27 13.12.012 19.594.549 12.989 5.077 25.37 8.086 38.191 1.578 6.4 2.927 12.835 4.115 19.308s2.263 12.967 3.082 19.506 1.436 13.112 1.7 19.72c.332 6.64.116 13.296-.648 19.9l-.009.067c-.068.519-.413.96-.9 1.15a25.04 25.04 0 0 1-3.822 1.1c-1.247.28-2.494.488-3.742.669-2.5.348-5 .562-7.491.669-4.975.193-9.957.066-14.915-.381l-29.371-2.627q-7.347-.483-14.71-.708l-7.364-.149c-2.456-.023-4.949-.067-7.412-.243a83.78 83.78 0 0 1-14.655-2.3 87.27 87.27 0 0 1-14-4.883.49.49 0 0 1-.289-.474v-.01c.864-14.361 1.079-28.767 1.079-43.149-.052-14.383-.342-28.76-1.174-43.08l-.335-5.368c-.121-1.788-.321-3.566-.477-5.35-.275-3.576-.785-7.11-1.242-10.654-.184-1.783-.589-3.513-.895-5.268l-1.035-5.281c-.732-3.564-1.275-7.164-1.628-10.785a186.39 186.39 0 0 1-.553-21.69c.164-7.212.488-14.431 1.287-21.6.007-.087.082-.152.169-.145s.152.082.145.169c-.295 7.194-.378 14.382-.169 21.57l.309 10.778a114.8 114.8 0 0 0 .911 10.672c.468 3.537 1.1 7.046 1.878 10.521.419 1.712.767 3.52 1.135 5.3.343 1.785.789 3.562 1.006 5.36l.788 5.384c.281 1.794.393 3.6.6 5.4l.525 5.4.382 5.409c.942 14.428.932 28.875.462 43.286-.443 14.416-1.269 28.8-2.182 43.185l-.288-.483a78.32 78.32 0 0 0 28.318 6.917c2.447.143 4.866.108 7.338.064l7.391-.045q7.392.032 14.783.291c4.926.174 9.851.416 14.77.753l14.7 1.155c4.851.326 9.717.374 14.573.144 2.417-.131 4.821-.366 7.192-.724 1.183-.185 2.361-.4 3.511-.668 1.107-.24 2.194-.561 3.254-.96l-.909 1.217c.665-6.434.799-12.911.4-19.367q-.492-9.729-1.732-19.443c-1.635-12.933-3.917-25.823-6.7-38.564-1.414-6.378-3.067-12.7-4.57-19.114-.736-3.212-1.423-6.459-1.871-9.752a88.52 88.52 0 0 1-.768-9.918c-.049-6.633.309-13.161.683-19.718l1.4-19.625c.005-.087.079-.153.166-.148s.153.079.148.165z"/></g><path fill="none" stroke="#020202" stroke-width="2.903" d="M139.3 55.618l19.504-27.04" class="C D"/><path d="M229.553 53.398c-20.207.472-56.089 53.172-56.089 53.172l-.063.6-1.07 9.6s-.579 4.318 1.658 15.633l-.01.084a117.61 117.61 0 0 1 3.515-1.238 48.52 48.52 0 0 1 15.863-2.266c6.138-.094 7.789.741 13.391 1.78 6.578 1.227 18.554 7.6 18.554 7.6a41.5 41.5 0 0 1 3.894-3.3c8.936-25.841 15.538-52.431 19.725-79.451-7.634-8.267-19.368-2.214-19.368-2.214zm-23.512 57.2c-.694-.133-1.358-.389-1.962-.755-.605-.352-1.116-.845-1.49-1.437a16.9 16.9 0 0 0 3.651 1.165c.613.12 1.233.197 1.857.231.63.063 1.269.031 1.972.084a5.5 5.5 0 0 1-4.029.713zM.987 25.241a19.21 19.21 0 0 1 3.2 2.222 31.81 31.81 0 0 1 2.762 2.628 31.25 31.25 0 0 1 2.432 2.935 18.96 18.96 0 0 1 1.993 3.345 18.97 18.97 0 0 1-3.2-2.22 31.26 31.26 0 0 1-2.76-2.63c-.868-.93-1.679-1.91-2.43-2.937-.777-1.044-1.446-2.164-1.997-3.343zm157.82 170.926a19.65 19.65 0 0 1 3.2 2.29 32.57 32.57 0 0 1 2.763 2.692c.87.95 1.682 1.952 2.431 3 .776 1.063 1.442 2.202 1.987 3.4a19.39 19.39 0 0 1-3.201-2.293c-.974-.842-1.896-1.741-2.761-2.694s-1.679-1.953-2.429-3a19.65 19.65 0 0 1-1.994-3.395zM127.021 34.606c.121-1.1.372-2.182.747-3.223.355-1.012.781-1.997 1.276-2.949a22.22 22.22 0 0 1 1.675-2.742 13.84 13.84 0 0 1 2.209-2.465c-.117 1.102-.366 2.186-.741 3.229a22.21 22.21 0 0 1-1.278 2.948c-.494.952-1.054 1.868-1.678 2.74-.635.906-1.376 1.734-2.206 2.466zm60.392-8.626a1.75 1.75 0 0 0 1.32-2.965 1.75 1.75 0 0 0-3.009 1.216 1.75 1.75 0 0 0 1.689 1.749zm9.532.607a1.75 1.75 0 0 0 1.32-2.965 1.75 1.75 0 0 0-3.009 1.216 1.75 1.75 0 0 0 1.689 1.749z" class="B"/><path d="M183.69 20.296a7.35 7.35 0 0 1 6.081.253m5.976.249a6.72 6.72 0 0 1 5.138.214" fill="none" stroke="#020202" stroke-width="1.075" class="C D"/><path d="M192.495 19.705c.642.022 1.233-.347 1.494-.933s.14-1.273-.306-1.735-1.128-.607-1.723-.366-.985.818-.985 1.46c0 .848.672 1.544 1.52 1.574z" class="B"/><path fill="none" stroke="#b21919" stroke-width="1.936" d="M192.759 6.331l.214-3.38" class="C D"/><g class="B"><path d="M225.924 150.163a5.79 5.79 0 0 0 3.486-4.832c-.027-2.109-.974-4.101-2.593-5.453a11.34 11.34 0 0 0-2.6-1.71l-2.845-1.423q-2.875-1.361-5.855-2.457a70.8 70.8 0 0 0-24.717-4.425c-4.207-.018-8.397.536-12.455 1.647a47.68 47.68 0 0 0-5.956 2.145c-1.953.791-3.81 1.804-5.533 3.017a12.89 12.89 0 0 0-4.008 4.711c-.885 1.896-1.383 3.949-1.465 6.04a13.09 13.09 0 0 0 1.127 6.052c.905 1.855 2.245 3.465 3.905 4.692a50.12 50.12 0 0 0 11.028 6.037 76.36 76.36 0 0 0 12.01 3.893 68.84 68.84 0 0 0 12.458 1.8 89.5 89.5 0 0 0 12.609-.29c4.132-.425 8.378-1.157 11.819-3.123a8.16 8.16 0 0 0 2.161-1.832c.584-.709.999-1.542 1.213-2.435.192-.785-.07-1.612-.679-2.144-.724-.638-1.572-1.12-2.49-1.417a30.63 30.63 0 0 0-6.108-1.355c-1.046-.153-2.1-.19-3.217-.456a2.89 2.89 0 0 1-1.551-.894 2.96 2.96 0 0 1-.659-1.637 3.54 3.54 0 0 1 .25-1.7 2.27 2.27 0 0 1 1.161-1.267 10.55 10.55 0 0 1 3.161-.769c1.075-.113 2.142-.137 3.209-.163a14.74 14.74 0 0 0 3.139-.26zm.083.193a14.44 14.44 0 0 1-3.214.321 31.82 31.82 0 0 0-3.176.218 10.27 10.27 0 0 0-3 .837 2.58 2.58 0 0 0-.443 3.771 2.17 2.17 0 0 0 1.22.591c.975.175 2.068.16 3.139.249a32.48 32.48 0 0 1 6.44 1.007c1.138.294 2.202.822 3.125 1.55a3.95 3.95 0 0 1 1.169 1.607 4.06 4.06 0 0 1 .184 2 7.74 7.74 0 0 1-1.432 3.324 10.11 10.11 0 0 1-2.615 2.373 21.08 21.08 0 0 1-6.211 2.513c-2.121.522-4.276.897-6.449 1.124a81.49 81.49 0 0 1-12.958.247 73.18 73.18 0 0 1-25.013-6.358 61.1 61.1 0 0 1-5.755-2.959 35.55 35.55 0 0 1-5.341-3.72 13.87 13.87 0 0 1-4-5.216 15.11 15.11 0 0 1-1.036-6.448 16.42 16.42 0 0 1 1.621-6.29c.99-1.957 2.42-3.657 4.178-4.968a30.5 30.5 0 0 1 5.589-3.261 48.74 48.74 0 0 1 5.968-2.475 46.64 46.64 0 0 1 12.756-2.277 57.16 57.16 0 0 1 25.251 4.949q2.957 1.3 5.784 2.853a73.52 73.52 0 0 1 2.79 1.607c.957.529 1.838 1.186 2.617 1.953a7.89 7.89 0 0 1 2.5 5.865 6.09 6.09 0 0 1-3.689 5.009zm-25.095 2.295c-.955.766-2.161.525-4.155.126-2.157-.223-4.165-1.205-5.666-2.77-.608-.724-1.605-1.91-1.259-3.273.382-1.172 1.418-2.011 2.644-2.14 1.154-.1 1.637.63 3.273 1.511 3.294 1.784 5 .808 5.917 2.266a3.54 3.54 0 0 1-.754 4.28zm-31.408-5.159c4.051 0 4.057-6.3 0-6.3s-4.061 6.3-.001 6.3zm2.833 9.631c4.051 0 4.057-6.3 0-6.3s-4.058 6.3-.001 6.3zm10.953 5.854c4.051 0 4.057-6.3 0-6.3s-4.058 6.3-.001 6.3zm12.842 3.4c4.051 0 4.057-6.3 0-6.3s-4.058 6.3-.001 6.3zm13.22.567c4.051 0 4.057-6.3 0-6.3s-4.059 6.299-.001 6.299zm-30.409-26.44c4.051 0 4.057-6.3 0-6.3s-4.055 6.3 0 6.3zm13.6-1.507c4.051 0 4.057-6.3 0-6.3s-4.057 6.3 0 6.3zm13.786 2.077c4.051 0 4.057-6.3 0-6.3s-4.057 6.297 0 6.297zm14.919 6.988c4.051 0 4.057-6.3 0-6.3s-4.057 6.296 0 6.296zm-101.74 287.122l-14.965-104.487-7.019-52.3-6.794-52.323-3.373-26.164-3.256-26.178-6.482-52.359L65.152 16.597l11.494-.369-5.687 104.8-3.094 52.385-1.561 26.192-1.68 26.186-3.408 52.369-3.634 52.357-8.2 104.667 2.552-104.957 1.741-52.454 1.967-52.443 1.007-26.22 1.126-26.214 2.281-52.427 5.063-104.828 11.494-.369L88.456 120.12l5.674 52.453 2.822 26.228 2.7 26.242 5.362 52.489 5.137 52.515 9.357 105.137z"/><rect width="21.151" height="13.755" rx="3.871" x="60.342" y="10.415"/><path d="M168.116 364.496c9.6 1.817 19.253 3.425 28.926 4.724 4.831.678 9.678 1.24 14.516 1.59 1.21.088 2.419.175 3.621.19 1.206.045 2.409.078 3.589.011.586-.033 1.2-.006 1.763-.089l1.688-.233a25.15 25.15 0 0 1 3.838-.433c2.494-.072 4.989-.009 7.476.189a253.64 253.64 0 0 1 7.355.622q7.32.768 14.552 1.771c4.825.659 9.646 1.269 14.468 1.653 2.404.203 4.817.283 7.229.24a21 21 0 0 0 7.07-1.165h.009c.075-.026.158.008.193.079s.012.158-.054.202c-2.191 1.222-4.598 2.009-7.088 2.318-2.46.35-4.941.531-7.426.542a139.81 139.81 0 0 1-14.76-.739c-4.889-.452-9.734-1.154-14.563-1.8-4.764-.78-9.575-1.244-14.4-1.387-1.156.002-2.311.094-3.453.274l-1.952.209c-.65.069-1.265.021-1.9.036-1.265.03-2.5-.045-3.739-.13-1.242-.057-2.468-.184-3.693-.313-4.9-.514-9.754-1.237-14.582-2.073-9.649-1.721-19.224-3.742-28.752-5.972-.085-.018-.139-.102-.121-.187s.102-.139.187-.121zm5.348 12.668c4.051 0 4.057-6.3 0-6.3s-4.057 6.301 0 6.301zm10.576 2.266c4.051 0 4.057-6.3 0-6.3s-4.057 6.301 0 6.301zm11.835 2.266c4.051 0 4.057-6.3 0-6.3s-4.058 6.301 0 6.301zm12.842 1.007c4.051 0 4.057-6.3 0-6.3s-4.058 6.301-.001 6.301zm14.1-.5c4.051 0 4.057-6.3 0-6.3s-4.057 6.298 0 6.298zm14.1 2.014c4.051 0 4.057-6.3 0-6.3s-4.056 6.303.001 6.303zm14.353 2.014c4.051 0 4.057-6.3 0-6.3s-4.056 6.299.001 6.299zm13.346-.5c4.051 0 4.057-6.3 0-6.3s-4.057 6.295 0 6.295zm13.6-1.511c4.051 0 4.057-6.3 0-6.3s-4.059 6.3-.002 6.3zm-30.638-275.161c.642.022 1.233-.347 1.494-.933s.14-1.273-.306-1.735-1.128-.607-1.723-.366-.985.818-.985 1.46c0 .848.672 1.544 1.52 1.574zm6.547-.126c.642.022 1.233-.347 1.494-.933s.14-1.273-.306-1.735-1.128-.607-1.723-.366-.985.818-.985 1.46c0 .848.672 1.544 1.52 1.574zm7.176 0c.642.022 1.233-.347 1.494-.933s.14-1.273-.306-1.735-1.128-.607-1.723-.366-.985.818-.985 1.46c0 .848.672 1.544 1.52 1.574zm6.463 0c.642.022 1.233-.347 1.494-.933s.14-1.273-.306-1.735-1.128-.607-1.723-.366-.985.818-.985 1.46c0 .848.672 1.544 1.52 1.574z"/></g><path fill="none" stroke="#5504b0" stroke-width="7.742" d="M180.205 210.904H18.943" class="C D"/><path d="M62.268 207.808l1.44-.95a13.46 13.46 0 0 1-1.836.022 21.2 21.2 0 0 1-5.105-1.061c-2.1-.766-4.129-1.712-6.065-2.829l.413 2.1c1.506 1.154 3.181 2.069 4.966 2.712a14.2 14.2 0 0 0 5.517.727z" class="B"/></svg>