<svg xmlns="http://www.w3.org/2000/svg" xmlns:xlink="http://www.w3.org/1999/xlink" width="2669" height="1256" xmlns:v="https://vecta.io/nano"><defs><clipPath id="A"><path transform="translate(0 .098)" fill="#fbd206" d="M0 0h2669v1256H0z"/></clipPath><clipPath id="B"><path fill="none" d="M0 0h2704.153v1311.436H0z"/></clipPath><path id="C" d="M423.737 114.081l-86.396 86.269 57.857 10.579-7.176 31.082 87.783-90.213-59.456-5.702z"/></defs><path fill="#fbd206" d="M0 0h2669v1256H0z"/><g transform="translate(0 -.098)" opacity=".239" clip-path="url(#A)"><g transform="translate(-17.577 -36.426)" clip-path="url(#B)" fill="#fff"><path d="M117.737 114.081L31.341 200.35l57.857 10.579-7.176 31.082 87.783-90.213-59.456-5.702z"/><circle cx="238.812" cy="47" r="38"/><use xlink:href="#C"/><circle cx="544.812" cy="47" r="38"/><path d="M729.737 114.081l-86.396 86.269 57.857 10.579-7.176 31.082 87.783-90.213-59.456-5.702z"/><circle cx="850.812" cy="47" r="38"/><path d="M1035.737 114.081l-86.396 86.269 57.857 10.579-7.176 31.082 87.783-90.213-59.456-5.702z"/><circle cx="1156.812" cy="47" r="38"/><path d="M1341.738 114.081l-86.396 86.269 57.857 10.579-7.176 31.082 87.783-90.213-59.456-5.702z"/><circle cx="1462.813" cy="47" r="38"/><path d="M1647.738 114.081l-86.396 86.269 57.857 10.579-7.176 31.082 87.783-90.213-59.456-5.702z"/><circle cx="1768.813" cy="47" r="38"/><path d="M1953.738 114.081l-86.396 86.269 57.857 10.579-7.176 31.082 87.783-90.213-59.456-5.702z"/><circle cx="2074.813" cy="47" r="38"/><path d="M2259.738 114.081l-86.396 86.269 57.857 10.579-7.176 31.082 87.783-90.213-59.456-5.702z"/><circle cx="2380.813" cy="47" r="38"/><path d="M2565.738 114.081l-86.396 86.269 57.857 10.579-7.176 31.082 87.783-90.213-59.456-5.702z"/><circle cx="2686.813" cy="47" r="38"/><path d="M117.737 417.081L31.341 503.35l57.857 10.579-7.176 31.082 87.783-90.213-59.456-5.702z"/><circle cx="238.812" cy="350" r="38"/><path d="M423.737 417.081l-86.396 86.269 57.857 10.579-7.176 31.082 87.783-90.213-59.456-5.702z"/><circle cx="544.812" cy="350" r="38"/><path d="M729.737 417.081l-86.396 86.269 57.857 10.579-7.176 31.082 87.783-90.213-59.456-5.702z"/><circle cx="850.812" cy="350" r="38"/><path d="M1035.737 417.081l-86.396 86.269 57.857 10.579-7.176 31.082 87.783-90.213-59.456-5.702z"/><circle cx="1156.812" cy="350" r="38"/><path d="M1341.738 417.081l-86.396 86.269 57.857 10.579-7.176 31.082 87.783-90.213-59.456-5.702z"/><circle cx="1462.813" cy="350" r="38"/><path d="M1647.738 417.081l-86.396 86.269 57.857 10.579-7.176 31.082 87.783-90.213-59.456-5.702z"/><circle cx="1768.813" cy="350" r="38"/><path d="M1953.738 417.081l-86.396 86.269 57.857 10.579-7.176 31.082 87.783-90.213-59.456-5.702z"/><circle cx="2074.813" cy="350" r="38"/><path d="M2259.738 417.081l-86.396 86.269 57.857 10.579-7.176 31.082 87.783-90.213-59.456-5.702z"/><circle cx="2380.813" cy="350" r="38"/><path d="M2565.738 417.081l-86.396 86.269 57.857 10.579-7.176 31.082 87.783-90.213-59.456-5.702z"/><circle cx="2686.813" cy="350" r="38"/><path d="M117.737 720.081L31.341 806.35l57.857 10.579-7.176 31.082 87.783-90.213-59.456-5.702z"/><circle cx="238.812" cy="653" r="38"/><path d="M423.737 720.081l-86.396 86.269 57.857 10.579-7.176 31.082 87.783-90.213-59.456-5.702z"/><circle cx="544.812" cy="653" r="38"/><path d="M729.737 720.081l-86.396 86.269 57.857 10.579-7.176 31.082 87.783-90.213-59.456-5.702z"/><circle cx="850.812" cy="653" r="38"/><path d="M1035.737 720.081l-86.396 86.269 57.857 10.579-7.176 31.082 87.783-90.213-59.456-5.702z"/><circle cx="1156.812" cy="653" r="38"/><path d="M1341.738 720.081l-86.396 86.269 57.857 10.579-7.176 31.082 87.783-90.213-59.456-5.702z"/><circle cx="1462.813" cy="653" r="38"/><path d="M1647.738 720.081l-86.396 86.269 57.857 10.579-7.176 31.082 87.783-90.213-59.456-5.702z"/><circle cx="1768.813" cy="653" r="38"/><path d="M1953.738 720.081l-86.396 86.269 57.857 10.579-7.176 31.082 87.783-90.213-59.456-5.702z"/><circle cx="2074.813" cy="653" r="38"/><path d="M2259.738 720.081l-86.396 86.269 57.857 10.579-7.176 31.082 87.783-90.213-59.456-5.702z"/><circle cx="2380.813" cy="653" r="38"/><path d="M2565.738 720.081l-86.396 86.269 57.857 10.579-7.176 31.082 87.783-90.213-59.456-5.702z"/><circle cx="2686.813" cy="653" r="38"/><path d="M117.737 1023.081l-86.396 86.269 57.857 10.579-7.176 31.082 87.783-90.213-59.456-5.702z"/><circle cx="238.812" cy="956" r="38"/><path d="M423.737 1023.081l-86.396 86.269 57.857 10.579-7.176 31.082 87.783-90.213-59.456-5.702z"/><circle cx="544.812" cy="956" r="38"/><path d="M729.737 1023.081l-86.396 86.269 57.857 10.579-7.176 31.082 87.783-90.213-59.456-5.702z"/><circle cx="850.812" cy="956" r="38"/><path d="M1035.737 1023.081l-86.396 86.269 57.857 10.579-7.176 31.082 87.783-90.213-59.456-5.702z"/><circle cx="1156.812" cy="956" r="38"/><path d="M1341.738 1023.081l-86.396 86.269 57.857 10.579-7.176 31.082 87.783-90.213-59.456-5.702z"/><circle cx="1462.813" cy="956" r="38"/><path d="M1647.738 1023.081l-86.396 86.269 57.857 10.579-7.176 31.082 87.783-90.213-59.456-5.702z"/><circle cx="1768.813" cy="956" r="38"/><path d="M1953.738 1023.081l-86.396 86.269 57.857 10.579-7.176 31.082 87.783-90.213-59.456-5.702z"/><circle cx="2074.813" cy="956" r="38"/><path d="M2259.738 1023.081l-86.396 86.269 57.857 10.579-7.176 31.082 87.783-90.213-59.456-5.702z"/><circle cx="2380.813" cy="956" r="38"/><path d="M2565.738 1023.081l-86.396 86.269 57.857 10.579-7.176 31.082 87.783-90.213-59.456-5.702z"/><circle cx="2686.813" cy="956" r="38"/><path d="M117.737 1326.081l-86.396 86.269 57.857 10.579-7.176 31.082 87.783-90.213-59.456-5.702z"/><circle cx="238.812" cy="1259" r="38"/><path d="M423.737 1326.081l-86.396 86.269 57.857 10.579-7.176 31.082 87.783-90.213-59.456-5.702z"/><circle cx="544.812" cy="1259" r="38"/><path d="M729.737 1326.081l-86.396 86.269 57.857 10.579-7.176 31.082 87.783-90.213-59.456-5.702z"/><circle cx="850.812" cy="1259" r="38"/><path d="M1035.737 1326.081l-86.396 86.269 57.857 10.579-7.176 31.082 87.783-90.213-59.456-5.702z"/><circle cx="1156.812" cy="1259" r="38"/><path d="M1341.738 1326.081l-86.396 86.269 57.857 10.579-7.176 31.082 87.783-90.213-59.456-5.702z"/><circle cx="1462.813" cy="1259" r="38"/><path d="M1647.738 1326.081l-86.396 86.269 57.857 10.579-7.176 31.082 87.783-90.213-59.456-5.702z"/><circle cx="1768.813" cy="1259" r="38"/><path d="M1953.738 1326.081l-86.396 86.269 57.857 10.579-7.176 31.082 87.783-90.213-59.456-5.702z"/><circle cx="2074.813" cy="1259" r="38"/><path d="M2259.738 1326.081l-86.396 86.269 57.857 10.579-7.176 31.082 87.783-90.213-59.456-5.702z"/><circle cx="2380.813" cy="1259" r="38"/><path d="M2565.738 1326.081l-86.396 86.269 57.857 10.579-7.176 31.082 87.783-90.213-59.456-5.702z"/><circle cx="2686.813" cy="1259" r="38"/></g></g></svg>