<svg xmlns="http://www.w3.org/2000/svg" width="391.632" height="529.06" xmlns:v="https://vecta.io/nano"><g fill="#5504b0"><path d="M189.99 393.167s6.477-38.372 0-49.938-5.088-37.905-5.088-37.905 3.7-8.788 0-54.277c-3.565-43.916-21.141-65.4-22.345-66.838-.013 0-.037-.025-.049-.037-.006-.014-.015-.026-.025-.037a22.88 22.88 0 0 1-2.074 1.177c-7.325 3.626-18.3 4.707-29.646 4.535l-65.941 94.96c-.344 24.312 1.229 43.35 2.2 45.489 2.311 5.088 0 34.193 0 34.193s-7.4 28.675-2.311 51.327-5.555 54.98-5.555 54.98c33.3 28.663 59.648 11.554 67.969 7.387 3.86-1.93 6.035-1.463 7.24-.418 3.431 3.113 7.583 5.323 12.082 6.428 31.674 6.944 58.345-11.086 58.345-11.086zM66.909 471.096c-.752.027-1.445-.405-1.751-1.092s-.165-1.491.357-2.033 1.321-.711 2.018-.43 1.154.958 1.154 1.711c0 .993-.786 1.808-1.779 1.844zm7.965 4.425c-.752.026-1.444-.406-1.75-1.093s-.165-1.491.358-2.032 1.321-.711 2.018-.429 1.154.958 1.154 1.711c0 .994-.787 1.809-1.78 1.844zm7.965 4.425c-.752.027-1.445-.405-1.751-1.092s-.165-1.491.357-2.033 1.321-.711 2.018-.43 1.154.958 1.154 1.711c-.003.992-.789 1.804-1.78 1.839zm10.177 3.1c-.752.028-1.445-.404-1.752-1.091s-.166-1.491.356-2.033 1.321-.712 2.019-.431 1.155.958 1.155 1.711c0 .993-.785 1.807-1.777 1.844zm11.5-.442c-.752.027-1.445-.405-1.752-1.092s-.166-1.491.357-2.033 1.321-.712 2.019-.43 1.155.958 1.155 1.711c-.004.989-.788 1.799-1.776 1.836zm11.5-3.54c-.752.027-1.445-.405-1.752-1.092s-.166-1.491.357-2.033 1.321-.712 2.019-.43 1.155.958 1.155 1.711c-.003.988-.784 1.797-1.771 1.837zm10.177-4.867c-.752.027-1.445-.405-1.751-1.092s-.165-1.491.357-2.033 1.321-.711 2.018-.43 1.154.958 1.154 1.711c0 .993-.786 1.808-1.779 1.844zm11.062.443c-.752.027-1.445-.405-1.752-1.092s-.166-1.491.357-2.033 1.321-.712 2.019-.43 1.155.958 1.155 1.711c-.004.987-.785 1.796-1.771 1.836zm9.734 5.31c-.752.027-1.445-.405-1.751-1.092s-.165-1.491.357-2.033 1.321-.711 2.018-.43 1.154.958 1.154 1.711c-.005.987-.786 1.796-1.772 1.835zm11.062 2.212c-.752.027-1.445-.405-1.752-1.092s-.166-1.491.357-2.033 1.321-.712 2.019-.43 1.155.958 1.155 1.711c0 .993-.786 1.808-1.778 1.844zm11.062 0c-.752.027-1.445-.405-1.752-1.092s-.166-1.491.357-2.033 1.321-.712 2.019-.43 1.155.958 1.155 1.711c0 .993-.786 1.808-1.778 1.844zm12.389-1.77c-.752.027-1.445-.405-1.752-1.092s-.166-1.491.357-2.033 1.321-.712 2.019-.43 1.155.958 1.155 1.711c0 .993-.786 1.808-1.778 1.844zm10.177-4.425c-.752.028-1.445-.404-1.752-1.091s-.166-1.491.356-2.033 1.321-.712 2.019-.431 1.155.958 1.155 1.711c0 .993-.785 1.807-1.777 1.844zm8.407-5.31c-.752.027-1.445-.405-1.752-1.092s-.166-1.491.357-2.033 1.321-.712 2.019-.43 1.155.958 1.155 1.711c0 .993-.786 1.808-1.778 1.844zm-122.1-321.814a25.51 25.51 0 0 1-.418-6.7 33.23 33.23 0 0 1 .369-3.491c.009-.095.026-.19.049-.283a23.65 23.65 0 0 1-4.474-.639c-1.775-.399-3.492-1.018-5.113-1.844l-6.01 9.943 2.286 3.134c2.974-.885 5.051-1.4 5.051-1.4s1.512 5.076 8.272 6.662c-.624-1.739-.628-3.641-.012-5.383zm-11.529-2.077c-.752.027-1.445-.405-1.751-1.092s-.165-1.491.357-2.033 1.321-.711 2.018-.43 1.154.958 1.154 1.711c0 .993-.786 1.808-1.779 1.844zm7.522 1.991c-.752.027-1.445-.405-1.751-1.092s-.165-1.491.357-2.033 1.321-.711 2.018-.43 1.154.958 1.154 1.711c0 .993-.786 1.808-1.779 1.844z"/><path d="M96.603 119.006c2.839.502 5.624 1.267 8.321 2.286-8.874 6.994-23.856 23.685-23.856 23.685-1.286.879-2.3 2.101-2.926 3.527.271-2.1.553-4.154.922-6.195.221-1.106.406-2.225.664-3.331a33.3 33.3 0 0 1 .934-3.22l1.942-6.613c.621-2.23 1.129-4.491 1.524-6.772a56.3 56.3 0 0 0-2.95 6.293c-.885 2.139-1.647 4.314-2.36 6.527-.246.9-.541 1.795-.738 2.753a23.56 23.56 0 0 0-4.277-1.413 20.8 20.8 0 0 0-5.4-.651s-1.155-22.185 15.02-35.361c0 0 6-7.387 25.11-10.386-.855.257-7.8 3.084-11.93 28.871z"/></g><path d="M143.53 120.162l-.559-.019" fill="none" stroke="#020202" stroke-linecap="round" stroke-linejoin="round" stroke-width=".758"/><g fill="#5504b0"><path d="M20.67 91.038a20.63 20.63 0 0 0-4.053-2.381l-4.329-1.863-8.834-3.285.225.04a8.43 8.43 0 0 0-1.375.158c-.4.1-.778.29-.791.416a1.01 1.01 0 0 0 .2.737 4.75 4.75 0 0 0 .788.989l4.613 4.014 9.17 8.087c.337.298.42.791.201 1.184s-.683.579-1.114.448l-.069-.022a8.89 8.89 0 0 0-3.9-.193c-1.325.2-2.763.716-3.021 1.473-.334.73.355 2.1 1.179 3.157a19.68 19.68 0 0 0 2.966 3.02l.007.006a.85.85 0 0 1 .109 1.2c-.084.1-.19.181-.31.234-.723.297-1.422.647-2.093 1.048-.6.387-1.188.914-1.163 1.275-.057.343.41.929 1.038 1.336a9.62 9.62 0 0 0 2.082 1.035.64.64 0 0 1 .115 1.149l-.856.525a1.8 1.8 0 0 0-.6.6 1.97 1.97 0 0 0-.2 1.636c.18.565.593 1.025 1.134 1.266.653.249 1.321.456 2 .621a9.86 9.86 0 0 0 4.188.277c.689-.118 1.323-.452 1.811-.953.468-.543.775-1.207.885-1.916-.039.741-.285 1.456-.711 2.064-.476.601-1.138 1.027-1.882 1.21a10.4 10.4 0 0 1-4.445.062 17.03 17.03 0 0 1-2.2-.5 2.99 2.99 0 0 1-1.776-1.786 3.07 3.07 0 0 1 .195-2.562c.215-.387.514-.72.875-.976l.97-.66.115 1.148c-.859-.257-1.684-.619-2.454-1.078a5 5 0 0 1-1.129-.92c-.194-.204-.349-.441-.458-.7-.141-.284-.21-.598-.2-.915s.08-.622.208-.909a4.5 4.5 0 0 1 .454-.689c.324-.365.69-.69 1.09-.968.748-.485 1.535-.908 2.352-1.263l-.194 1.439c-1.228-.955-2.348-2.041-3.339-3.239a9.41 9.41 0 0 1-1.312-2.08c-.486-.879-.556-1.928-.193-2.863s1.124-1.662 2.076-1.982c.757-.327 1.552-.557 2.367-.684a10.19 10.19 0 0 1 4.9.276l-.983 1.61-9.089-8.216-4.516-4.137a6.14 6.14 0 0 1-1.047-1.446 3.01 3.01 0 0 1-.321-.954c-.076-.418-.005-.848.2-1.22.414-.592 1.061-.979 1.778-1.063a9.63 9.63 0 0 1 1.668-.116h.013a.57.57 0 0 1 .212.04l8.713 3.784a81.39 81.39 0 0 1 4.207 2.212c1.4.75 2.693 1.683 3.846 2.775z"/><path d="M12 113.748l6.567.213c1.056.024 2.11-.084 3.139-.323a2.71 2.71 0 0 0 1.28-.7c.348-.397.513-.921.456-1.446.248.552.222 1.188-.07 1.718a2.9 2.9 0 0 1-1.411 1.132c-1.082.405-2.231.601-3.386.579a18.97 18.97 0 0 1-6.577-1.176zm0-6.068l4.131.513a25.14 25.14 0 0 0 4.073.1c1.308-.03 2.584-.417 3.688-1.119a4.52 4.52 0 0 0 1.631-3.478 5.42 5.42 0 0 1-.007 2.137c-.18.739-.577 1.407-1.141 1.917-1.167.932-2.607 1.459-4.1 1.5-2.843.123-5.675-.414-8.275-1.57zm29.506-16.088c.024-.66-.7-.723-.611-1.225.262-.076 1.32-.632 1.574-.729l1.509-.616 1.509-.616.754-.308a13.32 13.32 0 0 1 1.3 1.03 13.29 13.29 0 0 1-.209 1.645l-.754.308-1.509.616-1.509.616a41.4 41.4 0 0 0-1.452.745c-.414-.295-.125-1.011-.602-1.466zm-13.861 5.045a17.53 17.53 0 0 0 6.985-2.565c-1.298.869-2.415 1.982-3.289 3.277l-6.757 2.705-6.16 2.515-6.147 2.5-3.061 1.27c-1.194.025-3.708.9-4.965.762.8-.978 3-2.642 3.861-3.454l3.073-1.245 6.16-2.515 7.493-3.061h.012c.935-.009 1.868-.072 2.795-.189z"/><path d="M42.466 89.641l-.355 3.416-.508.2c-.206-.918-.609-1.78-1.181-2.527a2.17 2.17 0 0 0-.166-.19zm-27.692 29.973c4.212 1.14 7.907 3.686 10.473 7.216a21.08 21.08 0 0 1 1.681 2.815c.471 1 .863 1.982 1.279 2.966l2.475 5.9 9.621 23.707 2.333 5.955 1.166 2.978a28.89 28.89 0 0 0 1.25 2.84 31.71 31.71 0 0 0 7.481 9.847c3.114 2.771 7.1 4.366 11.266 4.508 2.098.06 4.194-.201 6.213-.775 1.015-.249 1.971-.696 2.812-1.317.841-.629 1.59-1.4 2.381-2.117-.725.783-1.39 1.616-2.2 2.343-.833.71-1.799 1.246-2.842 1.578a21.31 21.31 0 0 1-6.369 1.232c-4.444.036-8.76-1.486-12.2-4.3a31.47 31.47 0 0 1-8.167-10.164 26.78 26.78 0 0 1-1.359-3l-1.187-2.969-2.372-5.938-9.2-23.867-2.23-5.995-1.132-2.957a22.08 22.08 0 0 0-1.476-2.739 19.4 19.4 0 0 0-9.7-7.747zm144.59 61.401c-7.561 2.726-16.73 3.8-26.005 3.939 0 0 14.065-28.465 13.407-31.447 0 0 2.739 15.724 12.6 27.508m-81.371-32.18l.147-.332-.086.627a2.45 2.45 0 0 1-.061-.295z"/><path d="M84.027 166.775l5.513.871c.878.12 1.748.164 2.647.2l2.857-.01a5.82 5.82 0 0 1-2.66 1.5c-.999.281-2.045.356-3.074.219-1.017-.121-2.005-.421-2.918-.887-.925-.442-1.734-1.092-2.365-1.9zm37.626 0l5.513.871c.878.12 1.748.164 2.647.2l2.857-.01a5.82 5.82 0 0 1-2.66 1.5c-.999.281-2.045.356-3.074.219a8.67 8.67 0 0 1-2.918-.887 6.63 6.63 0 0 1-2.365-1.9zm14.667-68.216a17.91 17.91 0 0 1-6.9 6.882 7.16 7.16 0 0 1-4.995.6c-1.682-.458-3.152-1.487-4.158-2.91a8.56 8.56 0 0 1-1.6-4.805c-.041-1.683.219-3.36.769-4.952.561-1.638 1.732-2.996 3.27-3.79a7.6 7.6 0 0 1 4.9-.606l-.148.055 2.092-2.42-1.855 2.606a.14.14 0 0 1-.127.057h-.021a7.73 7.73 0 0 0-4.554.854 6.24 6.24 0 0 0-2.784 3.534 13.3 13.3 0 0 0-.637 4.629 8.26 8.26 0 0 0 1.455 4.3c.864 1.269 2.143 2.199 3.617 2.629a6.9 6.9 0 0 0 4.491-.415c2.914-1.248 5.16-3.747 7.185-6.248z"/><path d="M198.584 147.411c.191 2.668.038 5.345-.031 8.015l-.408 8.013a36.13 36.13 0 0 1-4.671 15.356 23.38 23.38 0 0 1-5.218 6.249c-2.122 1.771-4.618 3.039-7.3 3.708-2.677.655-5.455.797-8.185.418a27.07 27.07 0 0 1-7.9-2.263c-.027-.013-.053-.028-.077-.046l-1.4-1.072-.7-.537-.35-.269-.175-.135-.087-.067s-.05-.041-.023-.015c.033.029.07.053.111.069l-.192-.138c-3.58-3.205-6.567-7.017-8.824-11.259a70.6 70.6 0 0 1-5.469-13.211 132.15 132.15 0 0 1-5.066-27.992q-.288-3.546-.429-7.1c-.1-2.39-.1-4.7-.372-6.985a22.34 22.34 0 0 0-1.642-6.55c-.38-.976-1.003-1.84-1.809-2.509a11.03 11.03 0 0 1-2.446-2.981 8.79 8.79 0 0 1-1.117-3.742c-.068-1.306.126-2.612.571-3.842.228-.581.518-1.2.765-1.713a14.7 14.7 0 0 0 .678-1.529 10.42 10.42 0 0 0 .7-3.168 6.55 6.55 0 0 0-.1-1.534c-.102-.453-.299-.878-.578-1.249a3.55 3.55 0 0 0-2.406-1.357l-7.028-.719h-.045a.69.69 0 0 1-.367-.151 1.95 1.95 0 0 1-.78-1.38c-.033-.508.123-1.011.437-1.412a4.43 4.43 0 0 1 .8-.808c.275-.211.565-.4.868-.567l.4-.107a.82.82 0 0 0-.818.818l.277-.613.6-.584.589-.727 1.183-1.458a6.14 6.14 0 0 1 5.777-2.171l1.9.257 1.9.261a5.07 5.07 0 0 1 2.106.759 1.62 1.62 0 0 1 .537.679 1.42 1.42 0 0 1 .023.981 2.37 2.37 0 0 1-.841 1.1c-.347.252-.746.423-1.167.5-.382.062-.772.062-1.154 0-1.216-.176-2.441-.28-3.669-.312-1.197.015-2.386.194-3.534.534-.583.171-1.153.382-1.708.63l-1.65.729.323-.552a.66.66 0 0 1-.647.646l.425-.166c-.486.468-1.069.822-1.707 1.039-.464.145-.969.063-1.362-.223a1.95 1.95 0 0 1-.643-1.054 3.85 3.85 0 0 1-.1-1.055 9.05 9.05 0 0 1 .163-.953c.161-.583.362-1.154.6-1.71a31.65 31.65 0 0 1 3.6-5.993c.7-.939 1.462-1.83 2.281-2.667.43-.437.907-.825 1.422-1.158l.435-.236.381-.172.774-.358a71.8 71.8 0 0 0 3.062-1.509 18.08 18.08 0 0 1 3.166-1.5c2.305-.702 4.792-.481 6.937.615 1.015.572 1.977 1.232 2.877 1.971a21.46 21.46 0 0 1 2.549 2.354 12.64 12.64 0 0 1 2.006 2.84 6.57 6.57 0 0 1 .8 3.373l-.572 6.854.335-6.859a6.44 6.44 0 0 0-.863-3.212c-.545-.989-1.224-1.897-2.017-2.7a23.04 23.04 0 0 0-5.383-4.075 8.6 8.6 0 0 0-6.428-.411c-1.043.41-2.044.92-2.989 1.522a73.08 73.08 0 0 1-3.061 1.608l-.779.376-.4.187-.315.182a7.44 7.44 0 0 0-1.215 1.029c-.77.814-1.485 1.677-2.14 2.586a30.59 30.59 0 0 0-3.376 5.814c-.471.898-.665 1.915-.559 2.923.031.151.105.29.213.4.035.03.092.045.275 0a3.53 3.53 0 0 0 1.176-.779l.425-.166c-.167 0-.327.066-.444.184s-.184.278-.184.444l.323-.552 1.787-.829c.59-.273 1.198-.507 1.82-.7 1.264-.396 2.576-.615 3.9-.652.659-.019 1.318.007 1.974.077l1.878.183c.24.041.484.041.724 0a1.38 1.38 0 0 0 .551-.243.97.97 0 0 0 .3-.37c0-.03-.008.027.006.059s.015.006-.056-.038a9.8 9.8 0 0 0-3.284-.662l-1.849-.222c-.547-.093-1.106-.09-1.652.01a4.5 4.5 0 0 0-2.688 1.6l-1.187 1.479-.6.743-.745.744.276-.613a.85.85 0 0 1-.837.837l.4-.107c-.228.126-.446.269-.652.428-.177.14-.338.301-.478.478-.105.149-.132.25-.119.275-.024.012.076.146.091.16l-.412-.156 7.055.685c1.423.156 2.722.882 3.6 2.013a5.01 5.01 0 0 1 .9 1.932 8.16 8.16 0 0 1 .144 1.987 12.17 12.17 0 0 1-.8 3.717c-.216.583-.465 1.153-.746 1.708a22.58 22.58 0 0 0-.671 1.517 7.2 7.2 0 0 0 .458 6.084c.53.929 1.217 1.758 2.031 2.451.27.2.521.423.75.669.228.251.437.519.626.8a11.19 11.19 0 0 1 .941 1.678c.972 2.262 1.592 4.659 1.838 7.109.312 2.4.294 4.821.38 7.142q.122 3.516.388 7.026a130.4 130.4 0 0 0 4.85 27.633c2.721 8.9 6.761 17.608 13.69 23.931l-.191-.138c.069.039.135.084.195.136l.061.051.081.064.162.128.324.256.649.512 1.3 1.027-.077-.046c4.692 2.317 10.021 3.01 15.15 1.971a17.2 17.2 0 0 0 6.919-3.383c2.024-1.665 3.751-3.66 5.111-5.9 2.75-4.545 4.443-9.65 4.954-14.938.251-2.647.43-5.32.618-7.982.167-2.675.412-5.345.312-8.012z"/><path d="M157.384 116.644a59.5 59.5 0 0 1-1.971-7.854 63.06 63.06 0 0 1-.919-8.07 68.83 68.83 0 0 1 .044-8.13l.469-8.054c.025-.424.368-.76.792-.776h.014c2.548-.105 5.101-.061 7.644.133 2.558.198 5.094.613 7.581 1.24a31.3 31.3 0 0 1 7.2 2.767 16.94 16.94 0 0 1 5.968 4.979l-.05-.068a46.7 46.7 0 0 1 5.638 8.644 55.55 55.55 0 0 1 3.7 9.6c.921 3.312 1.613 6.684 2.071 10.091a66.04 66.04 0 0 1 .58 10.336l-.143-.485 9.165 11.849.029.037a.7.7 0 0 1 .145.387 3.55 3.55 0 0 1-.825 2.443c-.451.601-1 1.121-1.624 1.54a6.6 6.6 0 0 1-4.28 1.127c-.746-.065-1.475-.252-2.161-.552-.71-.31-1.2-.614-1.761-.858-1.089-.504-2.236-.874-3.415-1.1-1.108-.223-2.252-.188-3.344.1-.491.144-.944.394-1.326.734a19.18 19.18 0 0 1-1.662 1.192c-2.214 1.424-4.451 2.7-6.721 3.964l-.012.007a.97.97 0 0 1-1.271-.3l-5.613-8.329-5.587-8.347c-.9-1.4-1.951-2.654-2.863-4.141a36.9 36.9 0 0 1-2.345-4.517c-1.326-3.096-2.379-6.302-3.146-9.581v-.008-.018-.009a.1.1 0 0 1 .193 0v.009-.026c1.014 3.177 2.272 6.271 3.763 9.255a35.91 35.91 0 0 0 2.487 4.277c.9 1.331 2.062 2.6 3.045 3.977l5.853 8.163 5.827 8.181-1.282-.3c2.212-1.275 4.439-2.584 6.541-3.977.52-.345 1.051-.7 1.479-1.055a5.61 5.61 0 0 1 2.034-1.115 9.39 9.39 0 0 1 4.31-.158c1.354.259 2.668.696 3.908 1.3.613.281 1.227.657 1.7.865.492.228 1.019.373 1.559.43 1.077.108 2.157-.16 3.059-.758.453-.293.854-.659 1.187-1.083.27-.31.444-.692.5-1.1l.174.424-8.865-12.075v-.007a.72.72 0 0 1-.138-.479 63.38 63.38 0 0 0-.137-10.121 60.63 60.63 0 0 0-1.735-10.021c-.851-3.289-2.055-6.476-3.59-9.507l-1.231-2.213c-.426-.732-.939-1.41-1.4-2.116l-.713-1.049c-.249-.341-.535-.654-.805-.979l-1.637-1.931-.05-.068a16.17 16.17 0 0 0-5.766-4.324c-2.229-1.055-4.575-1.84-6.989-2.34a53.8 53.8 0 0 0-7.337-1.08c-2.477-.176-4.967-.252-7.46-.185l.807-.776-.63 8.042c-.223 2.671-.374 5.319-.348 7.991s.203 5.337.514 7.989a74.17 74.17 0 0 0 1.363 7.92.1.1 0 0 1-.073.115.1.1 0 0 1-.113-.064z"/><path d="M204.444 143.391l-9.022-11.959a37.8 37.8 0 0 0-6.047.221 46.64 46.64 0 0 0-5.814 1.254c-3.867 1.188-7.663 2.596-11.369 4.216a23.11 23.11 0 0 1 5.052-3.65c1.837-1.012 3.778-1.824 5.789-2.421a23.82 23.82 0 0 1 6.256-.9 15.52 15.52 0 0 1 6.133 1.278c0 0 1.733-23.414-11.615-38.311 0 0-3.97-6.539-18.609-8.2l-7.718 31.7v.012c.627 2.256 1.378 4.476 2.249 6.649a37.1 37.1 0 0 0 4.83 8.874c.442.565.9 1.131 1.315 1.733l11.861 17.121a88.86 88.86 0 0 0 8.333-5.187c1.733-1.5 5.544-1.733 10.165.811.727.404 1.523.667 2.348.774 3.503.41 6.048-2.589 5.863-4.015zm-24.705 3.371c-.752.027-1.445-.405-1.751-1.092s-.165-1.491.357-2.033 1.321-.711 2.018-.43 1.154.958 1.154 1.711c0 .993-.786 1.808-1.779 1.844zm8.407-3.54c-.752.027-1.445-.405-1.751-1.092s-.165-1.491.357-2.033 1.321-.711 2.018-.43 1.154.958 1.154 1.711c0 .993-.786 1.808-1.779 1.844zm8.85 1.327c-.752.027-1.445-.405-1.751-1.092s-.165-1.491.357-2.033 1.321-.711 2.018-.43 1.154.958 1.154 1.711c0 .993-.786 1.808-1.779 1.844z"/><path d="M177.741 151.009c.793.608 1.5 1.322 2.1 2.122a16.1 16.1 0 0 1 1.591 2.441 14.13 14.13 0 0 1 1.13 2.71 5.71 5.71 0 0 1 .264 3.027c-.511-.876-1.118-1.58-1.626-2.392a26.96 26.96 0 0 1-1.466-2.438 22.4 22.4 0 0 1-1.194-2.608 13.1 13.1 0 0 1-.8-2.861zM137.828 67.85a9.01 9.01 0 0 1-1.426-3.925c-.147-1.443.154-2.896.862-4.161 1.494-2.583 4.323-4.094 7.3-3.9 2.972.152 5.641 1.869 7.013 4.51a6.28 6.28 0 0 1-.335 4.247l-1.562 3.869 1.171-3.988c.487-1.241.534-2.611.134-3.882-.645-1.152-1.581-2.113-2.715-2.788a8.08 8.08 0 0 0-3.751-1.136c-2.694-.207-5.279 1.101-6.707 3.395-1.35 2.413-1.345 5.355.013 7.763zm-14.433 37.267l.714 6.684v.031c.029.202-.056.404-.221.525s-.383.14-.567.052-.304-.272-.312-.476v-.044-6.773c0-.102.08-.187.182-.192s.191.07.201.172zm1.708 13.324l1.184 6.6.007.038a1.1 1.1 0 1 1-2.166.39c0-.026-.009-.054-.011-.08l-.715-6.74c-.047-.457.275-.871.73-.937s.881.239.965.692zm2.547 13.16l1.55 6.515.011.046c.178.779-.305 1.555-1.082 1.74s-1.558-.292-1.749-1.067l-.015-.068-1.251-6.67a1.29 1.29 0 0 1 1.003-1.485 1.29 1.29 0 0 1 1.522.945zm3.259 12.984l1.891 6.413.015.05c.254.874-.247 1.789-1.12 2.047s-1.79-.24-2.051-1.112l-.012-.041-1.751-6.559c-.234-.832.25-1.697 1.082-1.931s1.697.25 1.931 1.082zm3.954 12.772l2.234 6.3.018.053c.316.898-.156 1.882-1.054 2.198s-1.882-.156-2.197-1.054l-2.235-6.417c-.313-.888.154-1.861 1.041-2.173s1.861.154 2.173 1.041zm4.613 12.544l2.51 6.2.019.049c.306.784-.066 1.668-.84 1.998s-1.669-.014-2.023-.777l-2.779-6.2a1.68 1.68 0 1 1 3.067-1.377l.022.052zm5.155 12.346l2.852 6.063.017.036a1.15 1.15 0 0 1-2.05 1.041l-3.254-5.954c-.248-.426-.245-.954.008-1.377s.715-.676 1.208-.66.938.298 1.163.737q.019.034.035.069zm5.908 12.035l3.274 5.857.013.023c.147.229.158.52.028.76s-.38.389-.653.39-.524-.146-.656-.385l-3.638-5.708a.94.94 0 1 1 1.589-1.011l.026.043zm6.816 11.561l3.805 5.535.012.017c.125.171.148.396.06.588s-.274.322-.485.338-.414-.083-.531-.259l-3.9-5.52c-.181-.282-.108-.657.166-.85s.651-.137.857.127h0zm7.858 10.892l4.281 5.176.015.019a.68.68 0 0 1-.405 1.12.68.68 0 0 1-.644-.252l-.01-.012-4.193-5.306c-.211-.26-.171-.642.09-.853s.642-.171.852.09zm8.79 10.151l4.7 4.786.025.025a.99.99 0 0 1-.43 1.7.99.99 0 0 1-.976-.318l-.034-.036-4.5-5.064a.82.82 0 0 1 1.194-1.119zm9.581 9.385l5.038 4.408.036.032c.568.497.626 1.361.129 1.929s-1.361.626-1.929.129l-.058-.054-4.842-4.758a1.17 1.17 0 0 1-.033-1.626 1.17 1.17 0 0 1 1.623-.094zm10.2 8.67l5.286 4.089.045.035a1.65 1.65 0 0 1 .295 2.312 1.65 1.65 0 0 1-2.312.295l-.049-.039-5.211-4.358a1.52 1.52 0 0 1 .379-2.632 1.52 1.52 0 0 1 1.521.263zm10.7 8.007l5.519 3.761.051.034a1.83 1.83 0 1 1-2.062 3.026l-.033-.023-5.534-3.95c-.528-.353-.825-.965-.775-1.598s.438-1.191 1.015-1.458 1.253-.2 1.768.173zm11.16 7.335l5.754 3.388.055.032c.926.561 1.228 1.761.679 2.694s-1.746 1.25-2.685.713l-.037-.022-5.786-3.578c-.582-.351-.933-.986-.92-1.666s.387-1.301.983-1.63 1.321-.315 1.903.036zm11.612 6.593l5.927 3.076.056.029c1.008.523 1.401 1.764.878 2.772s-1.764 1.401-2.772.878h0l-6.031-3.149c-.651-.337-1.072-.996-1.103-1.729s.33-1.426.949-1.818 1.401-.424 2.049-.083zm11.945 5.975l6.077 2.78.053.024a2 2 0 0 1 .357 3.446 2 2 0 0 1-1.989.206l-6.233-2.719a2.06 2.06 0 1 1 1.648-3.777l.024.011zm12.23 5.386l6.214 2.473.047.019a1.84 1.84 0 0 1 .53 3.168 1.84 1.84 0 0 1-1.841.272L250 281.845a1.94 1.94 0 0 1-.609-3.332 1.94 1.94 0 0 1 1.937-.315l.045.017zm12.494 4.791l6.332 2.189.038.013c.549.165.967.614 1.091 1.174s-.063 1.143-.491 1.526-1.028.504-1.571.317l-6.5-1.939a1.73 1.73 0 0 1-.72-2.934 1.73 1.73 0 0 1 1.709-.383l.065.021zm12.719 4.234l6.426 1.945.028.008c.629.188.994.843.823 1.477s-.814 1.017-1.452.865l-6.6-1.549a1.43 1.43 0 0 1-1.042-1.712 1.43 1.43 0 0 1 1.695-1.068l.083.022zm12.9 3.74l6.511 1.682h.016c.389.106.626.498.54.891s-.466.649-.864.582l-6.654-1.212a1 1 0 0 1-.575-1.634 1 1 0 0 1 .944-.332l.057.013zm13.057 3.272l5.359 1.227c.104.022.171.124.149.228a.2.2 0 0 1-.213.151l-5.465-.7c-.254-.032-.433-.264-.401-.518s.264-.433.518-.401l.044.008zM111.309 485.179c-.098.976-.015 1.961.247 2.906.2.986.486 1.96.771 2.929l2.026 5.734c.798 1.966 1.322 4.034 1.555 6.143a13.92 13.92 0 0 1-.916 6.47.98.98 0 0 1-.2.306l-.03.03-.012.013.235-.351-.2.479c-.157.383-.526.636-.94.643h-.072l.986-.615c-.36.76-.795 1.482-1.3 2.155-.256.339-.531.664-.824.972a7.9 7.9 0 0 1-1.016.915l.508-.912-.26 7.211-.308 7.209a1.31 1.31 0 0 1-1.292 1.232c-4.263.036-8.565.021-12.847-.095l-12.852-.292h-.043a.66.66 0 0 1-.641-.64l-.137-4.941-.194-4.938.61.415-3.475 1.133.054-.022a103.53 103.53 0 0 1-10.215 4.124 106.74 106.74 0 0 1-10.561 3.175c-3.586.914-7.236 1.558-10.919 1.926-3.716.363-7.458.363-11.174 0l.155.009h-.041a.81.81 0 0 1-.138-.011 44.79 44.79 0 0 1-5.892-1.163 16.52 16.52 0 0 1-2.941-.947 8.17 8.17 0 0 1-2.911-1.946 3.64 3.64 0 0 1-.608-.9 9.93 9.93 0 0 1-.233-.542 4.86 4.86 0 0 1-.113-.6 4.06 4.06 0 0 1 .381-2.221 8.62 8.62 0 0 1 2.233-2.689 27.03 27.03 0 0 1 5.149-3.325 47.39 47.39 0 0 1 11.2-4.128c1.973-.46 3.818-.766 5.667-1.229 1.834-.435 3.724-.921 5.469-1.472l.454-.08c-.181-.007-.361.033-.522.118l.6-.141h.025l-.426.07a56.87 56.87 0 0 0 8.343-3.381 36.19 36.19 0 0 0 7.375-5.022 22.33 22.33 0 0 0 5.323-7.114 17.49 17.49 0 0 0 1.645-8.78v-.02c-.007-.076.046-.143.121-.155s.146.037.163.111a17.34 17.34 0 0 1-.847 9.284 22.8 22.8 0 0 1-5.131 7.954 33.42 33.42 0 0 1-7.53 5.762 59.3 59.3 0 0 1-8.6 3.893 1.07 1.07 0 0 1-.351.068h-.1l.6-.141c-.211.101-.44.159-.674.168l.454-.079a69.34 69.34 0 0 1-5.675 1.76c-1.9.511-3.866.881-5.653 1.334a50.8 50.8 0 0 0-10.5 3.94c-1.631.813-3.18 1.781-4.626 2.889-.612.457-1.131 1.027-1.528 1.68-.212.549-.209.647.119 1.115a5.62 5.62 0 0 0 1.873 1.246c.823.371 1.679.664 2.557.874a42.17 42.17 0 0 0 5.458 1.2l-.167-.011h.054c.038.001.076.004.114.009 3.546.471 7.129.605 10.7.4 3.607-.171 7.197-.595 10.744-1.27a89.57 89.57 0 0 0 10.56-2.636 91.36 91.36 0 0 0 10.164-3.913h.006l.048-.019 3.459-1.179a.46.46 0 0 1 .586.288.5.5 0 0 1 .024.127l.352 4.93.409 4.926-.683-.641 12.853-.517c4.286-.189 8.552-.279 12.858-.327l-1.292 1.232.378-7.206.426-7.2v-.026a1.18 1.18 0 0 1 .506-.886c.248-.182.482-.382.7-.6a9.07 9.07 0 0 0 .681-.75c.43-.535.805-1.112 1.12-1.722l.02-.038a1.07 1.07 0 0 1 .966-.577h.012l-1 .643.184-.409.021-.046c.052-.115.125-.218.215-.306l.013-.012-.229.336a12.18 12.18 0 0 0 1.091-5.5c-.104-1.965-.479-3.906-1.113-5.769-.628-1.958-1.12-3.961-1.555-5.977-.2-1.014-.4-2.026-.507-3.059a14.34 14.34 0 0 1-.089-1.559c-.029-.544.054-1.089.243-1.6.028-.065.1-.098.167-.077s.107.09.093.159z"/><path d="M78.204 487.05a44.62 44.62 0 0 0 8.054 3c2.723.74 5.524 1.159 8.344 1.249a33.57 33.57 0 0 0 8.39-.672c1.399-.267 2.781-.612 4.141-1.035 1.387-.378 2.693-.981 4.11-1.4a33.76 33.76 0 0 1-3.76 2.278 25.2 25.2 0 0 1-4.127 1.615 25.98 25.98 0 0 1-4.359.956c-.736.13-1.488.106-2.232.165l-1.119.058-1.119-.042a27.48 27.48 0 0 1-8.724-1.747 24.02 24.02 0 0 1-7.599-4.425zm19.165 39.963l1.7.445-14.5.127-.546-9.868-3.467 1.156s-20.486 10-39.968 8.573l-2.553-.254h-.012l-3.8-.648c-1.206-.254-2.394-.588-3.556-1a14.57 14.57 0 0 1-.7-.267 10.35 10.35 0 0 1-1.181-.559c-5.016-2.718-.66-6.274 4.394-8.966 4.177-2.195 8.646-3.782 13.272-4.712a81.6 81.6 0 0 0 8.293-2.134c.331-.1.648-.2.966-.318.027-.003.053-.011.076-.025h.025c6.525.295 12.391 4.067 15.367 9.881 17.527-7.607 23.775-4.28 25.159-3.226-1.832.995-3.457 2.332-4.788 3.937-1.215 1.804-.946 4.222.635 5.715a7.01 7.01 0 0 0 1.677 1.041 19.32 19.32 0 0 0 3.5 1.1zm13.666-16.84l2.743-.787a9.73 9.73 0 0 1-2.819 3.556l-.7 14.415-5.359.051-3.81-.6-1.728-.368-1.7-.483a18.02 18.02 0 0 1-3.3-1.1 5.28 5.28 0 0 1-1.359-.851 3.27 3.27 0 0 1-.8-1.257c-.337-.964-.19-2.032.394-2.87a18.96 18.96 0 0 1 5.359-4.293 50.86 50.86 0 0 1 6.338-3.162 46.66 46.66 0 0 1 6.744-2.248z"/><path d="M115.022 503.798a12.75 12.75 0 0 1-1.029 5.131l-.012.013c-3.414.573-6.775 1.431-10.046 2.565a39.66 39.66 0 0 0-6.566 3.086c-.114.064-.229.14-.343.2 4.293-7.506 17.247-15.952 17.247-15.952.038.152.089.3.127.457a20.29 20.29 0 0 1 .343 1.537l.216 1.626.038.47z"/><path d="M143.586 482.937c.517 2.676.364 5.438-.446 8.04a19.65 19.65 0 0 1-1.523 3.805c-.663 1.201-1.431 2.341-2.294 3.407-.413.548-.853 1.075-1.319 1.579l-1.471 1.434a27.97 27.97 0 0 1-3.171 2.6l-.824.614-.877.522-1.764 1.031a28.49 28.49 0 0 1-3.638 1.829 66.14 66.14 0 0 1-7.6 2.836l-7.8 1.895c-5.084 1.038-9.973 2.872-14.486 5.432a13.78 13.78 0 0 0-2.972 2.267c-.824.885-1.262 1.885-.6 2.739a6.86 6.86 0 0 0 3.007 1.979 25.38 25.38 0 0 0 3.735 1.132 48.75 48.75 0 0 0 15.685.708c5.227-.626 10.381-1.755 15.391-3.371 4.998-1.562 9.881-3.473 14.612-5.719.045-.022.091-.041.138-.058l.022-.008 3.445-1.192a1.34 1.34 0 0 1 1.775 1.17v.037l.663 9.86-1.473-1.38q6.424-.148 12.848-.2l12.85-.032-1.447 1.391.471-7.2.492-7.2c.024-.364.207-.699.5-.916l.014-.01a8.88 8.88 0 0 0 2.116-2.37 11.49 11.49 0 0 0 1.294-3.085 14.61 14.61 0 0 0-.03-6.9l-.459-1.729-.539-1.779c-.344-1.193-.655-2.4-.945-3.605s-.532-2.432-.71-3.668a16.34 16.34 0 0 1-.172-1.871 4.72 4.72 0 0 1 .227-1.928c.029-.066.104-.099.172-.075s.107.095.09.165l-.018.064a4.88 4.88 0 0 0 .019 1.733c.083.6.214 1.195.346 1.788.28 1.186.636 2.357 1.013 3.52s.807 2.312 1.237 3.459l.647 1.723.609 1.811c.786 2.501.962 5.155.512 7.738a12.09 12.09 0 0 1-1.365 3.78 10.9 10.9 0 0 1-2.688 3.195l.514-.925-.2 7.212-.225 7.211c-.034.768-.66 1.377-1.429 1.391h-.019l-12.848.2q-6.424.07-12.85.032h-.037a1.45 1.45 0 0 1-1.436-1.38l-.443-9.872 1.777 1.207-3.47 1.115.16-.065c-9.833 4.349-20.336 6.989-31.057 7.808-5.342.466-10.722.171-15.981-.876a33.51 33.51 0 0 1-3.907-1.057 8.29 8.29 0 0 1-3.629-2.224 3.09 3.09 0 0 1-.57-1.107c-.102-.421-.109-.859-.023-1.284.182-.76.544-1.465 1.057-2.054.92-1.062 1.982-1.992 3.157-2.763 4.531-3.024 9.566-5.213 14.867-6.464l7.656-1.859a67.39 67.39 0 0 0 7.341-2.6 26.59 26.59 0 0 0 3.52-1.621l1.7-.919c.282-.155.573-.3.849-.465l.791-.548c1.093-.675 2.134-1.429 3.116-2.257l1.457-1.258a18.71 18.71 0 0 0 1.314-1.4 20.65 20.65 0 0 0 4.052-6.488 17.23 17.23 0 0 0 1.216-7.626v-.016c-.007-.076.046-.143.121-.155s.146.037.163.111z"/><path d="M143.445 487.05c2.582 1.257 5.279 2.261 8.054 3 2.723.74 5.524 1.159 8.344 1.249 2.814.129 5.633-.097 8.39-.672a37.8 37.8 0 0 0 4.14-1.035c1.387-.378 2.693-.981 4.11-1.4a33.75 33.75 0 0 1-3.76 2.278c-1.326.659-2.707 1.199-4.127 1.615a25.97 25.97 0 0 1-4.359.956c-.736.13-1.488.106-2.232.165l-1.119.058-1.119-.042a27.48 27.48 0 0 1-8.724-1.747 24.02 24.02 0 0 1-7.598-4.425zm-23.334 21.461a18.27 18.27 0 0 1 16.311 9.926c20.311-8.813 25.474-2.955 25.474-2.955 3.866-7.666 17.613-16.639 17.613-16.639v.005c2.839 9.857-3.306 14.1-3.306 14.1l-.704 14.413-25.688.221-.553-9.87-3.466 1.155s-25.233 12.316-46.325 7.669c-12.525-2.765-7.338-7.436-1.045-10.791a49.26 49.26 0 0 1 13.274-4.707 78.35 78.35 0 0 0 9.341-2.483h.012m6.454-429.886q1.547-1.269 3.19-2.38l.822-.555a5.75 5.75 0 0 1 .947-.5 5.64 5.64 0 0 1 2.1-.4c2.65-.023 5.298.138 7.925.481-2.627.343-5.275.504-7.925.481-.605-.014-1.208.083-1.779.286a11.87 11.87 0 0 0-1.7.844q-1.739.952-3.576 1.744zm10.112-9.844c.823-.104 1.653-.148 2.483-.131.412 0 .821.027 1.231.041.445.029.885.114 1.309.251a5.56 5.56 0 0 1 1.189.587c.338.232.686.449 1.015.7a16.8 16.8 0 0 1 1.921 1.579 16.81 16.81 0 0 1-2.3-.933c-.375-.171-.732-.373-1.1-.559a5.3 5.3 0 0 0-1.03-.458c-.353-.125-.719-.212-1.091-.258-.405-.066-.812-.116-1.215-.2a17.01 17.01 0 0 1-2.409-.614zm-6.616 4.586a20.83 20.83 0 0 1 2.534-1.08 18.32 18.32 0 0 1 2.674-.793 5.49 5.49 0 0 1 1.482.01c.479.094.9.175 1.353.289a20.58 20.58 0 0 1 2.638.794c-.918.044-1.838.027-2.754-.052a10.68 10.68 0 0 0-2.584-.088 11.57 11.57 0 0 0-1.273.28c-.446.095-.887.205-1.337.282a20.83 20.83 0 0 1-2.731.358zm184.125 258.253c-.394-2.367-.509-4.772-.344-7.166.051-.912.162-1.819.332-2.716l-22.308-3.1-11.173-1.7-11.16-1.881-.025 12.4 45.563 7.71a19.25 19.25 0 0 1-.885-3.552zm-7.2-35.976l-37.453 19.423 11.271 1.008 11.246 1.192 22.16 2.63 10.165-5.26 10.484-5.3 10.521-5.2 10.607-5.027zm-10.865 14.86c.336.524.755.989 1.241 1.377 1.05.842 2.229 1.51 3.49 1.979 2.625 1.009 5.4 1.575 8.211 1.672a24.88 24.88 0 0 0 8.444-1.045 12.7 12.7 0 0 0 3.81-1.942 6.8 6.8 0 0 0 1.45-1.573c.284-.46.48-.969.578-1.5a4 4 0 0 1-.553 1.524c-.385.611-.871 1.152-1.438 1.6a13.55 13.55 0 0 1-3.761 2.139 26.1 26.1 0 0 1-8.53 1.721 25.65 25.65 0 0 1-8.751-1.094c-1.467-.468-2.846-1.178-4.08-2.1a7.51 7.51 0 0 1-1.647-1.807c-1.033-1.516-1.033-3.511 0-5.027.447-.691 1.008-1.302 1.659-1.807 1.226-.926 2.602-1.633 4.068-2.09a25.35 25.35 0 0 1 8.751-1.094c2.919.088 5.802.665 8.53 1.708a13.55 13.55 0 0 1 3.761 2.139c.567.451 1.053.996 1.438 1.61a3.87 3.87 0 0 1 .553 1.512 4.47 4.47 0 0 0-.578-1.5 7.06 7.06 0 0 0-1.45-1.573 12.69 12.69 0 0 0-3.81-1.942c-2.733-.837-5.59-1.19-8.444-1.045a25 25 0 0 0-8.211 1.671 12.31 12.31 0 0 0-3.49 1.979c-.486.388-.905.853-1.241 1.377a2.86 2.86 0 0 0 0 3.134zm49.68-5.555l-10.276 5.666-10.336 5.58-10.386 5.457c-.037.025-.086.037-.123.061a18.68 18.68 0 0 1 .591 2.68c.392 2.367.508 4.772.344 7.166a17.48 17.48 0 0 1-.541 3.614l40.917-18.031v-18.032c-3.368 2-6.8 3.9-10.189 5.838z"/><path d="M311.621 295.686c-.402-1.272-.711-2.572-.922-3.889-.028-.161.009-.326.103-.459s.237-.224.397-.252l.039-.006.154-.017c3.072-.327 6.168-.358 9.246-.092l.134.011c.392.033.683.378.65.77h0c-.122 1.629-.384 3.245-.784 4.829a28.35 28.35 0 0 1-.784-4.829l.784.784a48.12 48.12 0 0 1-9.246-.092l.691-.733c-.056 1.333-.209 2.66-.46 3.97zm25.89 1.515a27.16 27.16 0 0 1-.922-3.889c-.028-.161.009-.326.103-.459s.237-.224.397-.252l.039-.006.154-.017c3.072-.327 6.168-.358 9.246-.092l.134.011c.392.033.683.378.65.77h0a28.34 28.34 0 0 1-.784 4.829 28.36 28.36 0 0 1-.784-4.829l.784.784a48.13 48.13 0 0 1-9.246-.092l.691-.733a27.2 27.2 0 0 1-.462 3.979zm-67.047 20.82c-5.1.849-10.166 1.87-15.168 3.074a77.15 77.15 0 0 0-14.507 4.786c-2.21.908-4.171 2.332-5.72 4.152a3.47 3.47 0 0 0-.691 2.719 6.2 6.2 0 0 0 1.534 2.769 17.87 17.87 0 0 0 5.78 4.236c2.286 1.043 4.653 1.901 7.076 2.565 4.939 1.383 9.96 2.459 15.032 3.222q7.631 1.225 15.369 1.819a287.94 287.94 0 0 0 30.976.486q15.485-.58 30.9-1.888c5.135-.445 10.259-.994 15.358-1.675s10.182-1.438 15.192-2.464c2.506-.5 4.994-1.064 7.427-1.756 2.397-.637 4.723-1.513 6.944-2.616.977-.467 1.842-1.137 2.539-1.966a1.82 1.82 0 0 0 .288-.522 5.34 5.34 0 0 0 .174-.758c.071-.261.105-.53.1-.8.017-.266.021-.533.01-.8a8.37 8.37 0 0 0-3.457-5.61c-3.835-3.021-8.752-4.864-13.628-6.326a118.11 118.11 0 0 0-15.079-3.334c-.038-.005-.072-.025-.096-.055s-.033-.069-.028-.107c.012-.074.076-.127.151-.125 2.594.142 5.173.424 7.746.792s5.141.8 7.679 1.417a63.15 63.15 0 0 1 7.538 2.24c2.537.894 4.932 2.148 7.113 3.723 1.139.842 2.139 1.857 2.964 3.008.873 1.226 1.426 2.65 1.607 4.144a8.82 8.82 0 0 1-.068 2.252 7.6 7.6 0 0 1-.229 1.134 4.37 4.37 0 0 1-.577 1.2 9.98 9.98 0 0 1-3.384 2.926 35.1 35.1 0 0 1-7.474 3.031c-2.531.762-5.082 1.381-7.64 1.933-10.224 1.962-20.566 3.241-30.96 3.829-10.355.721-20.733.928-31.1.76s-20.715-.533-31.054-1.133c-10.333-.642-20.722-1.229-30.962-3.653-2.591-.612-5.119-1.47-7.548-2.56a20.81 20.81 0 0 1-3.577-2.084 19.3 19.3 0 0 1-3.046-2.81 8.63 8.63 0 0 1-2.063-4c-.259-1.624.161-3.283 1.162-4.587a16.88 16.88 0 0 1 6.782-4.759c4.873-1.955 9.945-3.374 15.125-4.232 2.554-.494 5.13-.849 7.706-1.162s5.156-.578 7.748-.717c.08-.004.148.057.152.137.003.072-.047.135-.117.149zM107.124 91.877c.087-2.5.415-4.846.674-7.21.146-1.178.249-2.353.38-3.536l.286-3.622a13.84 13.84 0 0 1 .916 7.339 21.35 21.35 0 0 1-.767 3.625c-.346 1.195-.847 2.339-1.489 3.404z"/><path d="M128.29 75.49a16.86 16.86 0 0 1-18.371 4.384 15.66 15.66 0 0 1-7.587-6.514 14.59 14.59 0 0 1-1.12-2.286l-.4-1.151-.426-1.193a16.31 16.31 0 0 1-.5-5 65.83 65.83 0 0 1 3.945-19.223 67.84 67.84 0 0 1 4.688-8.682 49.4 49.4 0 0 1 5.97-7.886c.158-.169.395-.239.62-.186s.404.224.469.446l.006.021a61.53 61.53 0 0 0 2.937 7.922 49.23 49.23 0 0 0 4 7.414 24.99 24.99 0 0 0 5.584 6.115c2.172 1.692 4.868 2.57 7.62 2.482l-.346.18c.733-.845 1.595-1.567 2.556-2.14.505-.298 1.065-.489 1.646-.564.62-.076 1.244.099 1.734.485a5.12 5.12 0 0 1 1.512 2.945 19.34 19.34 0 0 1 .383 3.19c.002.038-.027.07-.065.072a.07.07 0 0 1-.072-.061c-.12-1.049-.327-2.086-.619-3.1a4.7 4.7 0 0 0-1.513-2.535 2.29 2.29 0 0 0-2.595.261 9.67 9.67 0 0 0-2.208 2.062.48.48 0 0 1-.328.179h-.019a12.71 12.71 0 0 1-8.423-2.42 23.78 23.78 0 0 1-6.018-6.357 46.63 46.63 0 0 1-4.148-7.624c-1.142-2.656-2.099-5.387-2.864-8.175l1.094.281c-2.243 2.328-4.268 4.857-6.05 7.555a63.43 63.43 0 0 0-5 8.331c-2.484 6.03-3.747 12.493-3.718 19.015-.009 1.588.225 3.168.693 4.686.128.367.281.709.454 1.093l.457 1.145c.294.727.65 1.426 1.066 2.091a15.87 15.87 0 0 0 3.062 3.56 13.97 13.97 0 0 0 3.951 2.517c2.96 1.183 6.199 1.48 9.325.855 3.176-.629 6.121-2.111 8.519-4.287.028-.028.072-.028.1 0s.028.072 0 .1z"/><path d="M102.491 49.37a31.6 31.6 0 0 1-.161-7.056 26.28 26.28 0 0 1 1.484-6.979c.771-2.36 2.29-4.405 4.326-5.826a7.18 7.18 0 0 1 3.523-1.077 9.93 9.93 0 0 1 3.5.665 11.97 11.97 0 0 0-3.436.008c-1.083.196-2.106.641-2.988 1.3a11.8 11.8 0 0 0-3.639 5.423c-.778 2.15-1.35 4.369-1.709 6.627l-.9 6.915zm6.111 2.6a2.07 2.07 0 1 0-2-2.07 2.07 2.07 0 0 0 2 2.07zm12.335 2.378a2.07 2.07 0 1 0-2-2.07 2.07 2.07 0 0 0 2 2.07zm-16.537-10.2a4.38 4.38 0 0 1 2.013-.847 6.32 6.32 0 0 1 2.191 0 5.72 5.72 0 0 1 3.688 2.193c-.741-.12-1.38-.311-2.027-.449l-1.9-.386c-.627-.13-1.264-.2-1.915-.283zm15.647 2.661a3.67 3.67 0 0 1 1.7-.753 5.27 5.27 0 0 1 1.854-.021 4.53 4.53 0 0 1 3.107 1.908c-.65-.054-1.193-.182-1.741-.271l-1.592-.276-3.328-.587zm-11.236 8.449a6.43 6.43 0 0 0 2.8 2.068 15.69 15.69 0 0 0 1.658.556 18 18 0 0 1 1.867.55 4.8 4.8 0 0 1-1.979.521 5.07 5.07 0 0 1-2.069-.352 4.01 4.01 0 0 1-1.717-1.32 2.71 2.71 0 0 1-.56-2.023zm4.183 15.738a4.14 4.14 0 0 0 3.333-.846 4.53 4.53 0 0 0 1.48-3c.118-1.084-.175-2.172-.819-3.051a4.23 4.23 0 0 0-5.483-.929c-.897.618-1.532 1.547-1.781 2.607-.296 1.118-.153 2.306.4 3.322.637 1.017 1.684 1.707 2.87 1.893zm0 0a4.68 4.68 0 0 1-3.029-1.793 5.08 5.08 0 0 1-.923-3.545 5.2 5.2 0 0 1 1.741-3.436 4.94 4.94 0 0 1 7.2 1.224 5.2 5.2 0 0 1 .506 3.816 5.09 5.09 0 0 1-2.041 3.04 4.67 4.67 0 0 1-3.45.694zm3.254-26.132a2.07 2.07 0 1 0-2-2.07 2.07 2.07 0 0 0 2 2.07zM87.144 98.495a57.7 57.7 0 0 1 .668-14.377l1.517-7.042.684-3.528.665-3.536 1.562-7.033.95-3.477 1.1-3.431a89.17 89.17 0 0 1 5.766-13.195c.009-.016.024-.028.041-.034s.037-.003.053.006c.03.017.043.052.033.084l-4.5 13.606c-1.555 4.5-2.887 9.075-4.278 13.649a63.63 63.63 0 0 0-1.644 6.973c-.224 1.174-.33 2.368-.466 3.554s-.242 2.377-.353 3.564l-1.667 14.215c-.001.018-.009.035-.023.048s-.032.018-.05.017c-.031-.006-.054-.032-.058-.063zm27.939-71.772a10.67 10.67 0 0 0-2.067-3.405 3.99 3.99 0 0 0-3.275-1.383c-1.251.192-2.43.712-3.414 1.508-1.051.809-2.037 1.7-2.948 2.665-1.9 1.942-3.622 4.05-5.144 6.3-.791 1.114-1.4 2.342-2.083 3.52A32.35 32.35 0 0 0 94.36 39.6c-2.196 4.952-3.78 10.153-4.716 15.489a44.33 44.33 0 0 0-.021 16.132v.008a.07.07 0 0 1-.049.077c-.033.01-.068-.006-.082-.038-1.8-5.276-2.247-10.919-1.3-16.412a49.11 49.11 0 0 1 5.491-15.588c.647-1.216 1.322-2.412 2.048-3.579s1.381-2.373 2.129-3.523a57.07 57.07 0 0 1 4.672-6.834 17.15 17.15 0 0 1 3.082-2.882 7.66 7.66 0 0 1 4.073-1.583c1.536-.004 2.98.733 3.878 1.98.842 1.135 1.407 2.451 1.652 3.843.004.018 0 .037-.011.052s-.026.026-.044.029c-.034.005-.067-.015-.079-.047z"/><path d="M113.391 23.289a14.01 14.01 0 0 1 .229-3.54 11.17 11.17 0 0 1 1.167-3.4 8.12 8.12 0 0 1 2.4-2.762 8.39 8.39 0 0 1 3.422-1.4 16.27 16.27 0 0 1 7.18.759 33.9 33.9 0 0 1 6.544 2.837 40.73 40.73 0 0 1 10.94 8.97c6.215 7.15 10.73 15.614 13.209 24.758 1.288 4.594 1.843 9.364 1.642 14.131a37.71 37.71 0 0 0 .286 13.746c.528 2.222 1.488 4.318 2.824 6.17a12.05 12.05 0 0 0 5.383 4.157h.008c.034.013.052.049.042.084s-.046.056-.081.048c-2.332-.619-4.416-1.944-5.965-3.795a16.59 16.59 0 0 1-3.359-6.351c-1.418-4.628-1.141-9.584-.592-14.185a45.62 45.62 0 0 0-1.32-13.726 63.75 63.75 0 0 0-4.589-13.162 46.51 46.51 0 0 0-7.886-11.5 43.58 43.58 0 0 0-11.1-8.3 44.99 44.99 0 0 0-6.339-2.75 15.22 15.22 0 0 0-6.668-.859c-1.097.137-2.152.51-3.09 1.095a7.33 7.33 0 0 0-2.29 2.393 13.9 13.9 0 0 0-1.861 6.581c0 .018-.007.036-.02.049s-.03.021-.048.021c-.036-.002-.066-.029-.07-.065zm4.503-3.36c1.938.147 3.815.748 5.478 1.755a17.17 17.17 0 0 1 4.453 3.773 19.82 19.82 0 0 1 2.932 5.022c.351.897.649 1.814.892 2.746l.47 2.831-1.111-2.614-1.228-2.51a25.33 25.33 0 0 0-1.411-2.375 23.65 23.65 0 0 0-1.607-2.222 22.92 22.92 0 0 0-3.973-3.751 19.53 19.53 0 0 0-4.895-2.655zM92.849 91.872c.875-2.75 1.994-5.332 3.063-7.929l1.582-3.885a20.2 20.2 0 0 0 1.2-4.024 9.45 9.45 0 0 1-.173 4.334 26.1 26.1 0 0 1-1.34 4.106 30.57 30.57 0 0 1-4.332 7.398zm15.575-5.864c1.178 1.999 2.639 3.818 4.337 5.4.835.697 1.795 1.228 2.828 1.566a12.7 12.7 0 0 0 3.451.486 6.19 6.19 0 0 1-3.7.732 7 7 0 0 1-3.594-1.558 9.58 9.58 0 0 1-2.335-3.036 9.03 9.03 0 0 1-.985-3.593z"/><path d="M126.33 105.931a204.25 204.25 0 0 0-38.4 32.511q-4.282 4.618-8.258 9.5c-1.238 1.367-1.2 3.345-.9 5.37s.72 4.131.941 6.268a36.51 36.51 0 0 1 .143 6.463c-.183 2.15-.541 4.281-1.071 6.372-.953 4.093-2.117 8.138-2.982 12.256a391.74 391.74 0 0 0-7.922 49.864c-.851 8.381-1.4 16.791-1.8 25.2s-.67 16.838-.653 25.238l-1.322-.479q12.2-15.129 23.742-30.8c7.656-10.461 15.217-20.995 22.353-31.814 7.155-10.8 14.077-21.767 20.34-33.108 3.15-5.656 6.152-11.405 8.876-17.279a157.43 157.43 0 0 0 7.262-18.02.1.1 0 0 1 .184.056c-3.576 12.511-9.066 24.4-15.094 35.907-6.108 11.486-12.813 22.646-19.944 33.516-7.163 10.849-14.577 21.534-22.4 31.912-7.808 10.389-15.77 20.658-24.17 30.587l-.013.015a.74.74 0 0 1-.829.215c-.294-.111-.487-.395-.481-.709.325-16.9 1.6-33.723 3.312-50.5.394-4.2.966-8.377 1.4-12.572l1.657-12.542 1.918-12.509c.647-4.171 1.465-8.312 2.278-12.456.378-2.078.848-4.137 1.319-6.2l1.416-6.178a38 38 0 0 0 .976-6.088 34.83 34.83 0 0 0-.185-6.159c-.223-2.057-.666-4.084-.949-6.231a12.71 12.71 0 0 1-.094-3.367 7.86 7.86 0 0 1 .448-1.746 5.82 5.82 0 0 1 .969-1.534q4.05-4.886 8.415-9.5a186.75 186.75 0 0 1 18.611-17.216 165.92 165.92 0 0 1 20.81-14.411.1.1 0 0 1 .1.164zm31.146 10.7v-.01h0c.419-2.705.956-5.375 1.506-8.041l1.761-7.961 1.887-7.918 1.859-7.888.295.7a27.94 27.94 0 0 0-4.093-2.565 13.88 13.88 0 0 0-2.238-.927 6.94 6.94 0 0 0-2.41-.35h0a8.66 8.66 0 0 1 4.992.455 22.15 22.15 0 0 1 4.586 2.214.66.66 0 0 1 .3.639l-.008.059c-.35 2.755-.878 5.415-1.46 8.086s-1.238 5.311-1.93 7.946c-.716 2.629-1.478 5.245-2.307 7.841s-1.725 5.173-2.739 7.715h0zm35.426 63.179q1.589 22.094 3.41 44.146l4.159 44.047 2.536 21.961q1.329 10.971 3.066 21.876c1.123 7.273 2.387 14.524 3.965 21.7a145.9 145.9 0 0 0 5.9 21.144l.017.044c.059.155.07.325.03.486a82.2 82.2 0 0 1-3.024 9.674 55.26 55.26 0 0 1-4.406 9.118c-1.686 2.968-3.997 5.534-6.773 7.52a10.28 10.28 0 0 1-4.77 1.707 10.47 10.47 0 0 1-4.927-.865c3.142 1.208 6.685.702 9.363-1.337a22.75 22.75 0 0 0 6.178-7.569 60.74 60.74 0 0 0 3.914-9.1 80.72 80.72 0 0 0 2.679-9.533l.047.53c-5.588-13.875-8.418-28.516-10.926-43.081-2.415-14.6-4.2-29.289-5.641-44s-2.545-29.442-3.3-44.2c-.828-14.739-1.366-29.503-1.497-44.271zM301.45 348.646s-4.043 133.917-66.456 168.128c0 5.968 34.342 10.806 76.705 10.806s76.705-4.838 76.705-10.806c0 0-69.155-18.785-64.07-168.479m-129.106 31.944c.752.026 1.443-.407 1.749-1.094s.163-1.491-.359-2.032-1.321-.71-2.018-.428-1.154.959-1.154 1.71c0 .994.788 1.81 1.782 1.844zm6.785-5.31c.752.026 1.444-.407 1.75-1.094s.164-1.491-.359-2.032-1.321-.711-2.018-.429-1.154.958-1.154 1.711c0 .994.787 1.809 1.78 1.844zm4.72-6.49c.752.026 1.444-.407 1.75-1.094s.164-1.491-.359-2.032-1.321-.711-2.018-.429-1.154.958-1.154 1.711c0 .994.787 1.809 1.78 1.844zm2.95-8.555c.752.026 1.444-.407 1.75-1.094s.164-1.491-.359-2.032-1.321-.711-2.018-.429-1.154.958-1.154 1.711c-.001.994.787 1.81 1.78 1.845zm55.014-35.988c.752.026 1.444-.407 1.75-1.094s.164-1.491-.359-2.032-1.321-.711-2.018-.429-1.154.958-1.154 1.711c0 .994.787 1.81 1.781 1.844zm-11.357 3.1c.752.026 1.444-.407 1.75-1.094s.164-1.491-.359-2.032-1.321-.711-2.018-.429-1.154.958-1.154 1.711c.001.993.788 1.807 1.78 1.842zm-11.353 4.865c.752.026 1.444-.407 1.75-1.094s.164-1.491-.359-2.032-1.321-.711-2.018-.429-1.154.958-1.154 1.711c0 .994.787 1.81 1.781 1.844zm4.425 6.785c.752.026 1.444-.407 1.75-1.094s.164-1.491-.359-2.032-1.321-.711-2.018-.429-1.154.958-1.154 1.711c0 .994.787 1.81 1.781 1.844zm12.979 4.425c.752.026 1.444-.407 1.75-1.094s.164-1.491-.359-2.032-1.321-.711-2.018-.429-1.154.958-1.154 1.711c0 .994.787 1.81 1.781 1.844zm15.044 2.36c.752.026 1.444-.407 1.75-1.094s.164-1.491-.359-2.032-1.321-.711-2.018-.429-1.154.958-1.154 1.711c0 .994.787 1.81 1.781 1.844zm15.339.737c.752.026 1.443-.407 1.749-1.094s.163-1.491-.359-2.032-1.321-.71-2.018-.428-1.154.959-1.154 1.71c0 .993.786 1.808 1.778 1.844zm15.339.295c.752.026 1.444-.407 1.75-1.094s.164-1.491-.359-2.032-1.321-.711-2.018-.429-1.154.958-1.154 1.711c0 .993.785 1.807 1.777 1.844zm16.224-1.032c.752.026 1.444-.407 1.75-1.094s.164-1.491-.359-2.032-1.321-.711-2.018-.429-1.154.958-1.154 1.711c0 .993.785 1.807 1.777 1.844zm15.487-1.18c.752.026 1.444-.407 1.75-1.094s.164-1.491-.359-2.032-1.321-.711-2.018-.429-1.154.958-1.154 1.711c0 .993.785 1.807 1.777 1.844zm16.372-1.032c.752.026 1.443-.407 1.749-1.094s.163-1.491-.359-2.032-1.321-.71-2.018-.428-1.154.959-1.154 1.71c0 .991.783 1.804 1.773 1.843zm15.782-2.95c.752.026 1.444-.407 1.75-1.094s.164-1.491-.359-2.032-1.321-.711-2.018-.429-1.154.958-1.154 1.711c0 .992.785 1.806 1.776 1.843zm12.832-3.54c.752.026 1.444-.407 1.75-1.094s.164-1.491-.359-2.032-1.321-.711-2.018-.429-1.154.958-1.154 1.711c0 .992.785 1.806 1.776 1.843zm-.443-7.08c.752.026 1.444-.407 1.75-1.094s.164-1.491-.359-2.032-1.321-.711-2.018-.429-1.154.958-1.154 1.711c0 .994.787 1.81 1.781 1.844zm-9.587-4.13c.752.026 1.444-.407 1.75-1.094s.164-1.491-.359-2.032-1.321-.711-2.018-.429-1.154.958-1.154 1.711c0 .992.784 1.807 1.776 1.844zm-14.012-3.835c.752.026 1.444-.407 1.75-1.094s.164-1.491-.359-2.032-1.321-.711-2.018-.429-1.154.958-1.154 1.711c0 .992.784 1.807 1.776 1.844zM59.157 6.489c2.677 3.9 5.075 7.933 7.479 11.966l3.537 6.088 3.489 6.135a55.01 55.01 0 0 1-4.3-5.625c-1.335-1.945-2.579-3.948-3.783-5.973a107.13 107.13 0 0 1-6.422-12.591zm18.858-6.49a110.24 110.24 0 0 1 4.245 11.617c1.25 3.932 2.276 7.932 3.072 11.981-1.634-3.789-3.051-7.667-4.245-11.616A110.28 110.28 0 0 1 78.015 0zm-30.474 19.93a100.09 100.09 0 0 1 8.988 7.616c2.882 2.673 5.602 5.515 8.146 8.511-3.145-2.358-6.146-4.901-8.988-7.616-2.88-2.675-5.6-5.516-8.146-8.511zm22.192 138.366c-3.2-3.426-6.266-6.974-9.312-10.542q-4.514-5.4-8.764-11.021c-2.869-3.743-5.519-7.65-7.936-11.7a42.02 42.02 0 0 1-3.18-6.426 14.68 14.68 0 0 1-.921-3.639 15.16 15.16 0 0 1-.019-1.858l.042-1.764c.004-.172.056-.339.15-.482l.032-.048a8.41 8.41 0 0 0 .971-3.13 33.64 33.64 0 0 0 .308-3.627c.066-2.466-.003-4.933-.207-7.391v-.011c-.004-.051-.004-.102 0-.153a9.84 9.84 0 0 0-.14-2.911 6.57 6.57 0 0 0-.435-1.34 4.9 4.9 0 0 0-.682-1.1l-.049-.054a7.05 7.05 0 0 0-3.755-2.173 15.33 15.33 0 0 0-4.637-.385 18.21 18.21 0 0 0-4.644.943 12.11 12.11 0 0 0-4.093 2.242c-.253.278-.554.527-.775.826a8.2 8.2 0 0 0-.6.945 1.77 1.77 0 0 0-.073 1.832 3.06 3.06 0 0 0 1.867.942c.784.158 1.585.223 2.384.193a17.78 17.78 0 0 0 9.364-2.4 17.26 17.26 0 0 1-9.352 3.058 10.81 10.81 0 0 1-2.536-.059 3.86 3.86 0 0 1-2.483-1.156 2.18 2.18 0 0 1-.467-1.472c.028-.477.145-.944.344-1.378a9.34 9.34 0 0 1 .678-1.164 11.85 11.85 0 0 1 .875-1 13.27 13.27 0 0 1 4.414-2.644 19.6 19.6 0 0 1 4.967-1.2c1.726-.193 3.472-.1 5.168.273a8.73 8.73 0 0 1 4.683 2.649l-.049-.053a6.26 6.26 0 0 1 1.054 1.581 8.31 8.31 0 0 1 .587 1.692 11.12 11.12 0 0 1 .226 3.466v-.164a69.26 69.26 0 0 1 .261 7.622 35.45 35.45 0 0 1-.306 3.857c-.143 1.403-.594 2.756-1.321 3.964l.181-.53-.053 1.748a13.39 13.39 0 0 0 0 1.652 12.93 12.93 0 0 0 .79 3.152 45.53 45.53 0 0 0 2.977 6.186c2.274 4.035 4.895 7.9 7.546 11.743s5.476 7.574 8.31 11.3c2.808 3.755 5.726 7.417 8.61 11.109z"/><path d="M35.054 93.807a20.35 20.35 0 0 0-2.748 3.487 13.7 13.7 0 0 0-1.574 3.863 14.09 14.09 0 0 0-.349 4.168 24.75 24.75 0 0 0 .734 4.4 9.3 9.3 0 0 1-2.218-4.156 9.9 9.9 0 0 1-.04-4.857c.375-1.604 1.149-3.088 2.25-4.314a8.75 8.75 0 0 1 3.945-2.591z"/></g></svg>