<svg xmlns="http://www.w3.org/2000/svg" width="391.632" height="529.06" viewBox="0 0 391.632 529.06">
  <g id="indian-wife-talking-on-the-telephone" transform="translate(-196.021 -67.294)">
    <path id="Path_22646" data-name="Path 22646" d="M373.434,431.571s6.477-38.372,0-49.938-5.088-37.905-5.088-37.905,3.7-8.788,0-54.277c-3.565-43.916-21.141-65.4-22.345-66.838-.013,0-.037-.025-.049-.037a.143.143,0,0,0-.025-.037.012.012,0,0,0-.009,0,.012.012,0,0,0,0,.009c-.652.418-1.34.8-2.065,1.168-7.325,3.626-18.3,4.707-29.646,4.535l-65.941,94.96c-.344,24.312,1.229,43.35,2.2,45.489,2.311,5.088,0,34.193,0,34.193s-7.4,28.675-2.311,51.327S242.6,509.2,242.6,509.2c33.3,28.663,59.648,11.554,67.969,7.387,3.86-1.93,6.035-1.463,7.24-.418a27.875,27.875,0,0,0,12.082,6.428c31.674,6.944,58.345-11.086,58.345-11.086ZM250.353,509.5a1.845,1.845,0,1,1,1.779-1.844A1.845,1.845,0,0,1,250.353,509.5Zm7.965,4.425a1.845,1.845,0,1,1,1.78-1.844,1.845,1.845,0,0,1-1.78,1.844Zm7.965,4.425a1.845,1.845,0,1,1,1.779-1.844A1.845,1.845,0,0,1,266.282,518.345Zm10.177,3.1a1.845,1.845,0,1,1,1.777-1.844,1.845,1.845,0,0,1-1.777,1.844Zm11.5-.442a1.845,1.845,0,1,1,1.778-1.844A1.845,1.845,0,0,1,287.962,521Zm11.5-3.54a1.845,1.845,0,1,1,1.778-1.844A1.845,1.845,0,0,1,299.467,517.461Zm10.177-4.867a1.845,1.845,0,1,1,1.779-1.844,1.845,1.845,0,0,1-1.779,1.844Zm11.062.443a1.845,1.845,0,1,1,1.778-1.844A1.845,1.845,0,0,1,320.706,513.036Zm9.734,5.31a1.845,1.845,0,1,1,1.779-1.844A1.845,1.845,0,0,1,330.44,518.345Zm11.062,2.212a1.845,1.845,0,1,1,1.778-1.844,1.845,1.845,0,0,1-1.778,1.844Zm11.062,0a1.845,1.845,0,1,1,1.778-1.844,1.845,1.845,0,0,1-1.778,1.844Zm12.389-1.77a1.845,1.845,0,1,1,1.778-1.844,1.845,1.845,0,0,1-1.778,1.844Zm10.177-4.425a1.845,1.845,0,1,1,1.777-1.844,1.845,1.845,0,0,1-1.777,1.844Zm8.407-5.31a1.845,1.845,0,1,1,1.778-1.844,1.845,1.845,0,0,1-1.778,1.844Zm-122.1-321.814a25.511,25.511,0,0,1-.418-6.7,33.232,33.232,0,0,1,.369-3.491,1.887,1.887,0,0,1,.049-.283,23.649,23.649,0,0,1-4.474-.639,21.787,21.787,0,0,1-5.113-1.844l-6.01,9.943,2.286,3.134c2.974-.885,5.051-1.4,5.051-1.4s1.512,5.076,8.272,6.662a8.023,8.023,0,0,1-.012-5.383Zm-11.529-2.077a1.845,1.845,0,1,1,1.779-1.844,1.845,1.845,0,0,1-1.779,1.844Zm7.522,1.991a1.845,1.845,0,1,1,1.779-1.844,1.845,1.845,0,0,1-1.779,1.844Z" transform="translate(12.577 28.89)" fill="#5504b0"/>
    <path id="Path_22647" data-name="Path 22647" d="M257.519,175.91a4.192,4.192,0,0,0-.086.418" transform="translate(16.583 29.329)" fill="none"/>
    <path id="Path_22648" data-name="Path 22648" d="M278.083,167.136a46.453,46.453,0,0,1,8.321,2.286c-8.874,6.994-23.856,23.685-23.856,23.685a8.326,8.326,0,0,0-2.926,3.527c.271-2.1.553-4.154.922-6.195.221-1.106.406-2.225.664-3.331a33.3,33.3,0,0,1,.934-3.22c.664-2.188,1.352-4.376,1.942-6.613a69.377,69.377,0,0,0,1.524-6.772,56.3,56.3,0,0,0-2.95,6.293c-.885,2.139-1.647,4.314-2.36,6.527-.246.9-.541,1.795-.738,2.753a23.561,23.561,0,0,0-4.277-1.413,20.8,20.8,0,0,0-5.4-.651s-1.155-22.185,15.02-35.361c0,0,6-7.387,25.11-10.386C289.158,138.522,282.213,141.349,278.083,167.136Z" transform="translate(14.541 19.164)" fill="#5504b0"/>
    <path id="Path_22649" data-name="Path 22649" d="M309.153,161.912c-.183-.01-.376-.019-.559-.019" transform="translate(30.398 25.544)" fill="none" stroke="#020202" stroke-linecap="round" stroke-linejoin="round" stroke-width="0.758"/>
    <path id="Path_22650" data-name="Path 22650" d="M216.691,140.849a20.629,20.629,0,0,0-4.053-2.381c-1.422-.667-2.871-1.278-4.329-1.863-2.928-1.141-5.863-2.285-8.834-3.285l.225.04a8.432,8.432,0,0,0-1.375.158c-.4.1-.778.29-.791.416a1.01,1.01,0,0,0,.2.737,4.749,4.749,0,0,0,.788.989l4.613,4.014c3.085,2.665,6.112,5.393,9.17,8.087a.957.957,0,0,1-.913,1.632l-.069-.022a8.888,8.888,0,0,0-3.9-.193c-1.325.2-2.763.716-3.021,1.473-.334.73.355,2.1,1.179,3.157a19.681,19.681,0,0,0,2.966,3.02l.007.006a.852.852,0,0,1,.109,1.2.865.865,0,0,1-.31.234,15.737,15.737,0,0,0-2.093,1.048c-.6.387-1.188.914-1.163,1.275-.057.343.41.929,1.038,1.336a9.618,9.618,0,0,0,2.082,1.035.641.641,0,0,1,.115,1.149l-.856.525a1.8,1.8,0,0,0-.6.6,1.971,1.971,0,0,0-.2,1.636,2.075,2.075,0,0,0,1.134,1.266,16.743,16.743,0,0,0,2,.621,9.861,9.861,0,0,0,4.188.277,3.306,3.306,0,0,0,1.811-.953,3.837,3.837,0,0,0,.885-1.916,3.953,3.953,0,0,1-.711,2.064,3.455,3.455,0,0,1-1.882,1.21,10.4,10.4,0,0,1-4.445.062,17.028,17.028,0,0,1-2.2-.5,2.991,2.991,0,0,1-1.776-1.786,3.071,3.071,0,0,1,.195-2.562,2.965,2.965,0,0,1,.875-.976l.97-.66.115,1.148a10.856,10.856,0,0,1-2.454-1.078,5,5,0,0,1-1.129-.92,2.333,2.333,0,0,1-.458-.7,1.917,1.917,0,0,1-.2-.915,2.417,2.417,0,0,1,.208-.909,4.5,4.5,0,0,1,.454-.689,6.163,6.163,0,0,1,1.09-.968,16.157,16.157,0,0,1,2.352-1.263l-.194,1.439a21.306,21.306,0,0,1-3.339-3.239,9.411,9.411,0,0,1-1.312-2.08,3.384,3.384,0,0,1,1.883-4.845,9.754,9.754,0,0,1,2.367-.684,10.191,10.191,0,0,1,4.9.276l-.983,1.61c-3.028-2.741-6.088-5.447-9.089-8.216l-4.516-4.137a6.141,6.141,0,0,1-1.047-1.446,3.011,3.011,0,0,1-.321-.954,1.845,1.845,0,0,1,.2-1.22,2.527,2.527,0,0,1,1.778-1.063,9.632,9.632,0,0,1,1.668-.116h.013a.568.568,0,0,1,.212.04c2.947,1.179,5.867,2.388,8.713,3.784,1.42.7,2.828,1.429,4.207,2.212a17.857,17.857,0,0,1,3.846,2.775Z" transform="translate(0 17.483)" fill="#5504b0"/>
    <path id="Path_22651" data-name="Path 22651" d="M207.117,162.311c2.233.042,4.41.231,6.567.213a12.624,12.624,0,0,0,3.139-.323,2.71,2.71,0,0,0,1.28-.7,1.885,1.885,0,0,0,.456-1.446,1.926,1.926,0,0,1-.07,1.718,2.9,2.9,0,0,1-1.411,1.132,9.154,9.154,0,0,1-3.386.579,18.972,18.972,0,0,1-6.577-1.176Zm0-6.068c1.387.211,2.764.376,4.131.513a25.139,25.139,0,0,0,4.073.1,7.175,7.175,0,0,0,3.688-1.119,4.521,4.521,0,0,0,1.631-3.478,5.418,5.418,0,0,1-.007,2.137,3.793,3.793,0,0,1-1.141,1.917,6.873,6.873,0,0,1-4.1,1.5A18.407,18.407,0,0,1,207.117,156.243Zm29.506-16.088c.024-.66-.7-.723-.611-1.225.262-.076,1.32-.632,1.574-.729l1.509-.616,1.509-.616.754-.308a13.318,13.318,0,0,1,1.3,1.03,13.289,13.289,0,0,1-.209,1.645l-.754.308-1.509.616-1.509.616c-.249.109-1.211.616-1.452.745C236.811,141.326,237.1,140.61,236.623,140.155ZM222.762,145.2a17.53,17.53,0,0,0,6.985-2.565,12.074,12.074,0,0,0-3.289,3.277l-6.757,2.705-6.16,2.515-6.147,2.5c-1.016.432-2.058.826-3.061,1.27-1.194.025-3.708.9-4.965.762.8-.978,3-2.642,3.861-3.454,1.028-.394,2.045-.838,3.073-1.245l6.16-2.515,7.493-3.061h.012A24.074,24.074,0,0,0,222.762,145.2Z" transform="translate(0.904 18.731)" fill="#5504b0"/>
    <path id="Path_22652" data-name="Path 22652" d="M235.346,137.876l-.355,3.416-.508.2a6.485,6.485,0,0,0-1.181-2.527,2.171,2.171,0,0,0-.166-.19Zm-27.692,29.973a19.127,19.127,0,0,1,10.473,7.216,21.078,21.078,0,0,1,1.681,2.815c.471,1,.863,1.982,1.279,2.966l2.475,5.9c3.3,7.865,6.461,15.786,9.621,23.707l2.333,5.955,1.166,2.978a28.888,28.888,0,0,0,1.25,2.84,31.709,31.709,0,0,0,7.481,9.847,17.865,17.865,0,0,0,11.266,4.508,20.585,20.585,0,0,0,6.213-.775,7.907,7.907,0,0,0,2.812-1.317c.841-.629,1.59-1.4,2.381-2.117-.725.783-1.39,1.616-2.2,2.343a8.235,8.235,0,0,1-2.842,1.578,21.308,21.308,0,0,1-6.369,1.232,19.023,19.023,0,0,1-12.2-4.3,31.471,31.471,0,0,1-8.167-10.164,26.645,26.645,0,0,1-1.359-3l-1.187-2.969-2.372-5.938c-3.114-7.937-6.227-15.874-9.2-23.867l-2.23-5.995c-.373-1-.736-2.014-1.132-2.957a22.078,22.078,0,0,0-1.476-2.739,19.4,19.4,0,0,0-9.7-7.747Z" transform="translate(3.141 19.059)" fill="#5504b0"/>
    <path id="Path_22653" data-name="Path 22653" d="M257.519,175.91a4.192,4.192,0,0,0-.086.418" transform="translate(16.583 29.329)" fill="none"/>
    <path id="Path_22654" data-name="Path 22654" d="M327.031,215.671c-7.561,2.726-16.73,3.8-26.005,3.939,0,0,14.065-28.465,13.407-31.447,0,0,2.739,15.724,12.6,27.508" transform="translate(28.354 32.638)" fill="#5504b0"/>
    <path id="Path_22655" data-name="Path 22655" d="M257.433,184.555c.049-.111.086-.221.147-.332-.037.209-.061.418-.086.627A2.449,2.449,0,0,1,257.433,184.555Z" transform="translate(16.583 31.574)" fill="#5504b0"/>
    <path id="Path_22656" data-name="Path 22656" d="M257.519,175.91a4.192,4.192,0,0,0-.086.418" transform="translate(16.583 29.329)" fill="none"/>
    <path id="Path_22657" data-name="Path 22657" d="M262.183,215.653c2.018.3,3.747.676,5.513.871.878.12,1.748.164,2.647.2s1.808-.035,2.857-.01a5.818,5.818,0,0,1-2.66,1.5,7.625,7.625,0,0,1-3.074.219,8.673,8.673,0,0,1-2.918-.887,6.627,6.627,0,0,1-2.365-1.9Zm37.626,0c2.018.3,3.747.676,5.513.871.878.12,1.748.164,2.647.2s1.808-.035,2.857-.01a5.818,5.818,0,0,1-2.66,1.5,7.625,7.625,0,0,1-3.074.219,8.672,8.672,0,0,1-2.918-.887,6.628,6.628,0,0,1-2.365-1.9Zm14.667-68.216a17.908,17.908,0,0,1-6.9,6.882,7.161,7.161,0,0,1-4.995.6,7.506,7.506,0,0,1-4.158-2.91,8.558,8.558,0,0,1-1.6-4.805,14.115,14.115,0,0,1,.769-4.952,6.713,6.713,0,0,1,3.27-3.79,7.6,7.6,0,0,1,4.9-.606l-.148.055c.691-.812,1.383-1.622,2.092-2.42-.607.877-1.23,1.743-1.855,2.606a.14.14,0,0,1-.127.057l-.021,0a7.73,7.73,0,0,0-4.554.854,6.239,6.239,0,0,0-2.784,3.534,13.3,13.3,0,0,0-.637,4.629,8.262,8.262,0,0,0,1.455,4.3A6.617,6.617,0,0,0,302.8,154.1a6.9,6.9,0,0,0,4.491-.415C310.205,152.437,312.451,149.938,314.476,147.437Z" transform="translate(17.865 18.416)" fill="#5504b0"/>
    <path id="Path_22658" data-name="Path 22658" d="M367.952,200.633c.191,2.668.038,5.345-.031,8.015-.108,2.673-.226,5.335-.408,8.013a36.128,36.128,0,0,1-4.671,15.356,23.38,23.38,0,0,1-5.218,6.249,18.317,18.317,0,0,1-7.3,3.708,21.823,21.823,0,0,1-8.185.418,27.068,27.068,0,0,1-7.9-2.263.456.456,0,0,1-.077-.046l-1.4-1.072-.7-.537-.35-.269-.175-.135-.087-.067s-.05-.041-.023-.015a.378.378,0,0,0,.111.069l-.192-.138a40.885,40.885,0,0,1-8.824-11.259,70.6,70.6,0,0,1-5.469-13.211,132.152,132.152,0,0,1-5.066-27.992q-.288-3.546-.429-7.1c-.1-2.39-.1-4.7-.372-6.985a22.339,22.339,0,0,0-1.642-6.55,6.175,6.175,0,0,0-1.809-2.509,11.03,11.03,0,0,1-2.446-2.981,8.79,8.79,0,0,1-1.117-3.742,9.785,9.785,0,0,1,.571-3.842c.228-.581.518-1.2.765-1.713a14.7,14.7,0,0,0,.678-1.529,10.421,10.421,0,0,0,.7-3.168,6.55,6.55,0,0,0-.1-1.534,3.264,3.264,0,0,0-.578-1.249,3.552,3.552,0,0,0-2.406-1.357l-7.028-.719-.045,0a.692.692,0,0,1-.367-.151,1.948,1.948,0,0,1-.78-1.38,2.073,2.073,0,0,1,.437-1.412,4.43,4.43,0,0,1,.8-.808,6.827,6.827,0,0,1,.868-.567l.4-.107a.819.819,0,0,0-.818.818l.277-.613.6-.584.589-.727,1.183-1.458a6.14,6.14,0,0,1,5.777-2.171l1.9.257,1.9.261a5.072,5.072,0,0,1,2.106.759,1.619,1.619,0,0,1,.537.679,1.42,1.42,0,0,1,.023.981,2.369,2.369,0,0,1-.841,1.1,2.866,2.866,0,0,1-1.167.5,3.623,3.623,0,0,1-1.154,0,31.145,31.145,0,0,0-3.669-.312,13.006,13.006,0,0,0-3.534.534,13.506,13.506,0,0,0-1.708.63l-1.65.729.323-.552a.66.66,0,0,1-.647.646l.425-.166a4.587,4.587,0,0,1-1.707,1.039,1.536,1.536,0,0,1-1.362-.223,1.949,1.949,0,0,1-.643-1.054,3.848,3.848,0,0,1-.1-1.055,9.051,9.051,0,0,1,.163-.953,13.385,13.385,0,0,1,.6-1.71,31.651,31.651,0,0,1,3.6-5.993,26.233,26.233,0,0,1,2.281-2.667,8.335,8.335,0,0,1,1.422-1.158l.435-.236.381-.172.774-.358c1.032-.48,2.055-.981,3.062-1.509a18.078,18.078,0,0,1,3.166-1.5,9.294,9.294,0,0,1,6.937.615,20.007,20.007,0,0,1,2.877,1.971,21.459,21.459,0,0,1,2.549,2.354,12.638,12.638,0,0,1,2.006,2.84,6.568,6.568,0,0,1,.8,3.373l-.572,6.854.335-6.859a6.44,6.44,0,0,0-.863-3.212,12.257,12.257,0,0,0-2.017-2.7,23.04,23.04,0,0,0-5.383-4.075,8.6,8.6,0,0,0-6.428-.411,17.436,17.436,0,0,0-2.989,1.522c-1.008.562-2.029,1.095-3.061,1.608l-.779.376-.4.187-.315.182a7.44,7.44,0,0,0-1.215,1.029,25.245,25.245,0,0,0-2.14,2.586,30.592,30.592,0,0,0-3.376,5.814,5.133,5.133,0,0,0-.559,2.923.794.794,0,0,0,.213.4c.035.03.092.045.275,0a3.532,3.532,0,0,0,1.176-.779l.425-.166a.627.627,0,0,0-.628.628l.323-.552,1.787-.829a14.653,14.653,0,0,1,1.82-.7,14.385,14.385,0,0,1,3.9-.652,14.665,14.665,0,0,1,1.974.077l1.878.183a2.123,2.123,0,0,0,.724,0,1.38,1.38,0,0,0,.551-.243.968.968,0,0,0,.3-.37c0-.03-.008.027.006.059s.015.006-.056-.038a9.8,9.8,0,0,0-3.284-.662l-1.849-.222a4.746,4.746,0,0,0-1.652.01,4.5,4.5,0,0,0-2.688,1.6l-1.187,1.479-.6.743-.745.744.276-.613a.852.852,0,0,1-.837.837l.4-.107a5.183,5.183,0,0,0-.652.428,2.913,2.913,0,0,0-.478.478c-.105.149-.132.25-.119.275-.024.012.076.146.091.16l-.412-.156,7.055.685a5.287,5.287,0,0,1,3.6,2.013,5.012,5.012,0,0,1,.9,1.932,8.161,8.161,0,0,1,.144,1.987,12.171,12.171,0,0,1-.8,3.717,16.463,16.463,0,0,1-.746,1.708c-.263.55-.467,1-.671,1.517a7.2,7.2,0,0,0,.458,6.084,9.213,9.213,0,0,0,2.031,2.451,5.474,5.474,0,0,1,.75.669,7.063,7.063,0,0,1,.626.8,11.191,11.191,0,0,1,.941,1.678,24.133,24.133,0,0,1,1.838,7.109c.312,2.4.294,4.821.38,7.142q.122,3.516.388,7.026a130.4,130.4,0,0,0,4.85,27.633c2.721,8.9,6.761,17.608,13.69,23.931l-.191-.138a1.226,1.226,0,0,1,.195.136l.061.051.081.064.162.128.324.256.649.512,1.3,1.027-.077-.046a23.627,23.627,0,0,0,15.15,1.971,17.2,17.2,0,0,0,6.919-3.383,23.286,23.286,0,0,0,5.111-5.9,35.434,35.434,0,0,0,4.954-14.938c.251-2.647.43-5.32.618-7.982C367.807,205.97,368.052,203.3,367.952,200.633Z" transform="translate(26.653 14.072)" fill="#5504b0"/>
    <path id="Path_22659" data-name="Path 22659" d="M320.578,166.141a59.5,59.5,0,0,1-1.971-7.854,63.061,63.061,0,0,1-.919-8.07,68.832,68.832,0,0,1,.044-8.13l.469-8.054a.825.825,0,0,1,.792-.776h.014a65.243,65.243,0,0,1,7.644.133,45.364,45.364,0,0,1,7.581,1.24,31.3,31.3,0,0,1,7.2,2.767,16.938,16.938,0,0,1,5.968,4.979l-.05-.068a46.7,46.7,0,0,1,5.638,8.644,55.55,55.55,0,0,1,3.7,9.6,74.847,74.847,0,0,1,2.071,10.091,66.042,66.042,0,0,1,.58,10.336l-.143-.485,9.165,11.849.029.037a.7.7,0,0,1,.145.387,3.551,3.551,0,0,1-.825,2.443,6.715,6.715,0,0,1-1.624,1.54,6.6,6.6,0,0,1-4.28,1.127,6.885,6.885,0,0,1-2.161-.552c-.71-.31-1.2-.614-1.761-.858a14.733,14.733,0,0,0-3.415-1.1,7.394,7.394,0,0,0-3.344.1,3.464,3.464,0,0,0-1.326.734,19.182,19.182,0,0,1-1.662,1.192c-2.214,1.424-4.451,2.7-6.721,3.964l-.012.007a.969.969,0,0,1-1.271-.3l-5.613-8.329-5.587-8.347c-.9-1.4-1.951-2.654-2.863-4.141a36.9,36.9,0,0,1-2.345-4.517,57.757,57.757,0,0,1-3.146-9.581l0-.008,0-.018v-.009a.1.1,0,0,1,.193,0v.009l0-.026a64.823,64.823,0,0,0,3.763,9.255,35.908,35.908,0,0,0,2.487,4.277c.9,1.331,2.062,2.6,3.045,3.977l5.853,8.163,5.827,8.181-1.282-.3c2.212-1.275,4.439-2.584,6.541-3.977.52-.345,1.051-.7,1.479-1.055a5.608,5.608,0,0,1,2.034-1.115,9.39,9.39,0,0,1,4.31-.158,15.614,15.614,0,0,1,3.908,1.3c.613.281,1.227.657,1.7.865a4.934,4.934,0,0,0,1.559.43,4.684,4.684,0,0,0,3.059-.758,4.876,4.876,0,0,0,1.187-1.083,2.107,2.107,0,0,0,.5-1.1l.174.424-8.865-12.075,0-.007a.721.721,0,0,1-.138-.479,63.382,63.382,0,0,0-.137-10.121,60.63,60.63,0,0,0-1.735-10.021,47.193,47.193,0,0,0-3.59-9.507L351.22,149c-.426-.732-.939-1.41-1.4-2.116l-.713-1.049c-.249-.341-.535-.654-.805-.979l-1.637-1.931-.05-.068a16.168,16.168,0,0,0-5.766-4.324,31.067,31.067,0,0,0-6.989-2.34,53.8,53.8,0,0,0-7.337-1.08c-2.477-.176-4.967-.252-7.46-.185l.807-.776-.63,8.042c-.223,2.671-.374,5.319-.348,7.991a76.064,76.064,0,0,0,.514,7.989,74.168,74.168,0,0,0,1.363,7.92.1.1,0,0,1-.073.115.1.1,0,0,1-.113-.064Z" transform="translate(32.827 17.797)" fill="#5504b0"/>
    <path id="Path_22660" data-name="Path 22660" d="M366.982,192.629,357.96,180.67a37.8,37.8,0,0,0-6.047.221,46.641,46.641,0,0,0-5.814,1.254,106.426,106.426,0,0,0-11.369,4.216,23.109,23.109,0,0,1,5.052-3.65,29.245,29.245,0,0,1,5.789-2.421,23.818,23.818,0,0,1,6.256-.9,15.522,15.522,0,0,1,6.133,1.278s1.733-23.414-11.615-38.311c0,0-3.97-6.539-18.609-8.2l-7.718,31.7v.012a63.886,63.886,0,0,0,2.249,6.649,37.1,37.1,0,0,0,4.83,8.874c.442.565.9,1.131,1.315,1.733l11.861,17.121a88.858,88.858,0,0,0,8.333-5.187c1.733-1.5,5.544-1.733,10.165.811a6.576,6.576,0,0,0,2.348.774C364.622,197.054,367.167,194.055,366.982,192.629ZM342.277,196a1.845,1.845,0,1,1,1.779-1.844A1.845,1.845,0,0,1,342.277,196Zm8.407-3.54a1.845,1.845,0,1,1,1.779-1.844,1.845,1.845,0,0,1-1.779,1.844Zm8.85,1.327a1.845,1.845,0,1,1,1.779-1.844,1.845,1.845,0,0,1-1.779,1.844Z" transform="translate(33.483 18.056)" fill="#5504b0"/>
    <path id="Path_22661" data-name="Path 22661" d="M368.419,206.43a10.974,10.974,0,0,1,2.1,2.122,16.1,16.1,0,0,1,1.591,2.441,14.129,14.129,0,0,1,1.13,2.71,5.711,5.711,0,0,1,.264,3.027c-.511-.876-1.118-1.58-1.626-2.392a26.96,26.96,0,0,1-1.466-2.438,22.4,22.4,0,0,1-1.194-2.608,13.1,13.1,0,0,1-.8-2.861Zm-39.913-83.159a9.01,9.01,0,0,1-1.426-3.925,7.053,7.053,0,0,1,.862-4.161,7.843,7.843,0,0,1,7.3-3.9,8.386,8.386,0,0,1,7.013,4.51,6.279,6.279,0,0,1-.335,4.247c-.478,1.315-1.007,2.594-1.562,3.869.377-1.337.832-2.652,1.171-3.988a5.833,5.833,0,0,0,.134-3.882,7.515,7.515,0,0,0-2.715-2.788,8.078,8.078,0,0,0-3.751-1.136,7.246,7.246,0,0,0-6.707,3.395,7.925,7.925,0,0,0,.013,7.763Zm-14.433,37.267c.259,2.237.507,4.463.714,6.684l0,.031a.553.553,0,1,1-1.1.1l0-.044c-.03-2.265-.02-4.525,0-6.773a.192.192,0,0,1,.383-.02Zm1.708,13.324c.42,2.2.788,4.4,1.184,6.6l.007.038a1.1,1.1,0,1,1-2.166.39c0-.026-.009-.054-.011-.08-.237-2.249-.5-4.493-.715-6.74a.857.857,0,0,1,1.695-.245Zm2.547,13.16,1.55,6.515.011.046a1.455,1.455,0,0,1-2.831.673c-.005-.021-.011-.047-.015-.068l-1.251-6.67a1.292,1.292,0,0,1,2.525-.54Zm3.259,12.984,1.891,6.413.015.05a1.653,1.653,0,0,1-3.171.935l-.012-.041-1.751-6.559a1.565,1.565,0,1,1,3.013-.849Zm3.954,12.772c.76,2.1,1.512,4.192,2.234,6.3l.018.053a1.723,1.723,0,1,1-3.252,1.143c-.767-2.131-1.505-4.273-2.235-6.417a1.7,1.7,0,1,1,3.215-1.132Zm4.613,12.544c.835,2.065,1.693,4.121,2.51,6.2l.019.049a1.557,1.557,0,0,1-2.863,1.221c-.946-2.056-1.851-4.132-2.779-6.2a1.681,1.681,0,0,1,3.067-1.377l.022.052Zm5.155,12.346,2.852,6.063.017.036a1.15,1.15,0,0,1-2.05,1.041l-3.254-5.954a1.356,1.356,0,1,1,2.379-1.3q.019.034.035.069Zm5.908,12.035c1.092,1.949,2.16,3.916,3.274,5.857l.013.023a.746.746,0,1,1-1.28.765c-1.19-1.914-2.426-3.8-3.638-5.708a.941.941,0,1,1,1.589-1.011l.026.043Zm6.816,11.561,3.805,5.535.012.017a.583.583,0,1,1-.956.667l-3.9-5.52a.627.627,0,0,1,1.023-.723l0,0Zm7.858,10.892,4.281,5.176.015.019a.681.681,0,1,1-1.049.868l-.01-.012-4.193-5.306a.606.606,0,0,1,.942-.763Zm8.79,10.151,4.7,4.786.025.025A.988.988,0,1,1,368,288.5l-.034-.036-4.5-5.064a.819.819,0,0,1,1.194-1.119Zm9.581,9.385L379.3,296.1l.036.032a1.367,1.367,0,1,1-1.8,2.058l-.058-.054-4.842-4.758a1.172,1.172,0,0,1,1.59-1.72Zm10.2,8.67,5.286,4.089.045.035a1.648,1.648,0,1,1-2.017,2.607l-.049-.039-5.211-4.358a1.519,1.519,0,1,1,1.9-2.369Zm10.7,8.007,5.519,3.761.051.034a1.831,1.831,0,0,1-2.062,3.026l-.033-.023-5.534-3.95a1.757,1.757,0,1,1,2.008-2.883Zm11.16,7.335,5.754,3.388.055.032a1.977,1.977,0,0,1-2.006,3.407l-.037-.022-5.786-3.578a1.9,1.9,0,1,1,1.965-3.26Zm11.612,6.593,5.927,3.076.056.029a2.056,2.056,0,0,1-1.894,3.65l0,0-6.031-3.149a2.047,2.047,0,1,1,1.895-3.629Zm11.945,5.975,6.077,2.78.053.024a2,2,0,1,1-1.632,3.652l-6.233-2.719a2.06,2.06,0,0,1,1.648-3.777l.024.011Zm12.23,5.386,6.214,2.473.047.019a1.841,1.841,0,1,1-1.311,3.44l-6.381-2.324a1.941,1.941,0,1,1,1.328-3.647l.045.017Zm12.494,4.791,6.332,2.189.038.013a1.585,1.585,0,1,1-.971,3.017l-6.5-1.939a1.731,1.731,0,1,1,.989-3.317l.065.021Zm12.719,4.234,6.426,1.945.028.008a1.213,1.213,0,0,1-.629,2.342l-6.6-1.549a1.428,1.428,0,0,1,.653-2.78l.083.022Zm12.9,3.74c2.172.548,4.344,1.1,6.511,1.682l.016,0a.755.755,0,0,1-.324,1.473c-2.222-.378-4.437-.8-6.654-1.212a1,1,0,1,1,.369-1.966l.057.013Zm13.057,3.272,5.359,1.227a.193.193,0,0,1,.149.228.2.2,0,0,1-.213.151l-5.465-.7a.463.463,0,1,1,.117-.919l.044.008ZM301.987,540.6a7.914,7.914,0,0,0,.247,2.906c.2.986.486,1.96.771,2.929.589,1.937,1.32,3.834,2.026,5.734a23.066,23.066,0,0,1,1.555,6.143,13.921,13.921,0,0,1-.916,6.47.979.979,0,0,1-.2.306l-.03.03-.012.013.235-.351-.2.479a1.036,1.036,0,0,1-.94.643h-.072l.986-.615a12.514,12.514,0,0,1-1.3,2.155,11.376,11.376,0,0,1-.824.972,7.9,7.9,0,0,1-1.016.915l.508-.912c-.065,2.4-.164,4.808-.26,7.211s-.171,4.808-.308,7.209a1.31,1.31,0,0,1-1.292,1.232c-4.263.036-8.565.021-12.847-.095l-12.852-.292h-.043a.658.658,0,0,1-.641-.64c-.039-1.647-.069-3.3-.137-4.941s-.1-3.294-.194-4.938l.61.415-3.475,1.133.054-.022a103.528,103.528,0,0,1-10.215,4.124,106.739,106.739,0,0,1-10.561,3.175,73.933,73.933,0,0,1-10.919,1.926,57.464,57.464,0,0,1-11.174,0l.155.009h-.041a.809.809,0,0,1-.138-.011,44.789,44.789,0,0,1-5.892-1.163,16.519,16.519,0,0,1-2.941-.947,8.168,8.168,0,0,1-2.911-1.946,3.638,3.638,0,0,1-.608-.9c-.083-.178-.161-.36-.233-.542a4.861,4.861,0,0,1-.113-.6,4.059,4.059,0,0,1,.381-2.221,8.622,8.622,0,0,1,2.233-2.689,27.031,27.031,0,0,1,5.149-3.325,47.388,47.388,0,0,1,11.2-4.128c1.973-.46,3.818-.766,5.667-1.229,1.834-.435,3.724-.921,5.469-1.472l.454-.08a1.027,1.027,0,0,0-.522.118l.6-.141h.025l-.426.07a56.871,56.871,0,0,0,8.343-3.381,36.19,36.19,0,0,0,7.375-5.022A22.332,22.332,0,0,0,267.1,547.2a17.49,17.49,0,0,0,1.645-8.78V538.4a.144.144,0,0,1,.284-.044,17.342,17.342,0,0,1-.847,9.284,22.8,22.8,0,0,1-5.131,7.954,33.422,33.422,0,0,1-7.53,5.762,59.3,59.3,0,0,1-8.6,3.893,1.07,1.07,0,0,1-.351.068h-.1l.6-.141a1.716,1.716,0,0,1-.674.168l.454-.079c-1.922.685-3.757,1.254-5.675,1.76-1.9.511-3.866.881-5.653,1.334a50.8,50.8,0,0,0-10.5,3.94,28.567,28.567,0,0,0-4.626,2.889,5.956,5.956,0,0,0-1.528,1.68c-.212.549-.209.647.119,1.115a5.619,5.619,0,0,0,1.873,1.246,14.285,14.285,0,0,0,2.557.874,42.171,42.171,0,0,0,5.458,1.2l-.167-.011h.054a.947.947,0,0,1,.114.009,56.637,56.637,0,0,0,10.7.4,76.887,76.887,0,0,0,10.744-1.27,89.568,89.568,0,0,0,10.56-2.636,91.359,91.359,0,0,0,10.164-3.913l.006,0,.048-.019,3.459-1.179a.462.462,0,0,1,.586.288.5.5,0,0,1,.024.127c.092,1.645.235,3.286.352,4.93s.266,3.285.409,4.926l-.683-.641,12.853-.517c4.286-.189,8.552-.279,12.858-.327l-1.292,1.232c.093-2.4.253-4.8.378-7.206s.262-4.8.426-7.2l0-.026a1.18,1.18,0,0,1,.506-.886,6.025,6.025,0,0,0,.7-.6,9.07,9.07,0,0,0,.681-.75,10.283,10.283,0,0,0,1.12-1.722l.02-.038a1.069,1.069,0,0,1,.966-.577h.012l-1,.643.184-.409.021-.046a1.007,1.007,0,0,1,.215-.306l.013-.012-.229.336a12.182,12.182,0,0,0,1.091-5.5,21.405,21.405,0,0,0-1.113-5.769c-.628-1.958-1.12-3.961-1.555-5.977-.2-1.014-.4-2.026-.507-3.059a14.342,14.342,0,0,1-.089-1.559,4.006,4.006,0,0,1,.243-1.6.137.137,0,0,1,.26.082Z" transform="translate(5.343 11.873)" fill="#5504b0"/>
    <path id="Path_22662" data-name="Path 22662" d="M268.577,450.79a44.618,44.618,0,0,0,8.054,3,36.246,36.246,0,0,0,8.344,1.249,33.568,33.568,0,0,0,8.39-.672,37.805,37.805,0,0,0,4.141-1.035c1.387-.378,2.693-.981,4.11-1.4a33.758,33.758,0,0,1-3.76,2.278,25.2,25.2,0,0,1-4.127,1.615,25.979,25.979,0,0,1-4.359.956c-.736.13-1.488.106-2.232.165l-1.119.058-1.119-.042a27.479,27.479,0,0,1-8.724-1.747A24.018,24.018,0,0,1,268.577,450.79Zm19.165,39.963,1.7.445-14.5.127-.546-9.868-3.467,1.156s-20.486,10-39.968,8.573c-.851-.063-1.7-.152-2.553-.254h-.012c-1.27-.152-2.54-.368-3.8-.648a27.847,27.847,0,0,1-3.556-1c-.254-.089-.482-.178-.7-.267a10.351,10.351,0,0,1-1.181-.559c-5.016-2.718-.66-6.274,4.394-8.966a49.514,49.514,0,0,1,13.272-4.712,81.6,81.6,0,0,0,8.293-2.134c.331-.1.648-.2.966-.318a.182.182,0,0,0,.076-.025h.025a18.187,18.187,0,0,1,15.367,9.881c17.527-7.607,23.775-4.28,25.159-3.226a16.365,16.365,0,0,0-4.788,3.937,4.446,4.446,0,0,0,.635,5.715,7.011,7.011,0,0,0,1.677,1.041,19.324,19.324,0,0,0,3.5,1.1Z" transform="translate(5.648 103.554)" fill="#5504b0"/>
    <path id="Path_22663" data-name="Path 22663" d="M287.491,469.164c.914-.267,1.829-.521,2.743-.787a9.731,9.731,0,0,1-2.819,3.556l-.7,14.415-5.359.051c-1.27-.152-2.553-.356-3.81-.6-.584-.114-1.156-.229-1.728-.368l-1.7-.483a18.02,18.02,0,0,1-3.3-1.1,5.28,5.28,0,0,1-1.359-.851,3.271,3.271,0,0,1-.8-1.257,3.185,3.185,0,0,1,.394-2.87,18.965,18.965,0,0,1,5.359-4.293,50.859,50.859,0,0,1,6.338-3.162,46.662,46.662,0,0,1,6.744-2.248Z" transform="translate(19.565 108.303)" fill="#5504b0"/>
    <path id="Path_22664" data-name="Path 22664" d="M290.414,465.03a12.751,12.751,0,0,1-1.029,5.131l-.012.013a62.017,62.017,0,0,0-10.046,2.565,39.658,39.658,0,0,0-6.566,3.086c-.114.064-.229.14-.343.2,4.293-7.506,17.247-15.952,17.247-15.952.038.152.089.3.127.457.139.533.254,1.041.343,1.537l.216,1.626c.012.165.025.317.038.47Z" transform="translate(20.629 106.062)" fill="#5504b0"/>
    <path id="Path_22665" data-name="Path 22665" d="M320.228,447.575a16.505,16.505,0,0,1-.446,8.04,19.652,19.652,0,0,1-1.523,3.805,23.294,23.294,0,0,1-2.294,3.407,20.446,20.446,0,0,1-1.319,1.579l-1.471,1.434a27.968,27.968,0,0,1-3.171,2.6l-.824.614c-.287.184-.585.347-.877.522l-1.764,1.031a28.488,28.488,0,0,1-3.638,1.829,66.14,66.14,0,0,1-7.6,2.836c-2.578.7-5.266,1.325-7.8,1.895a49.387,49.387,0,0,0-14.486,5.432,13.782,13.782,0,0,0-2.972,2.267c-.824.885-1.262,1.885-.6,2.739a6.861,6.861,0,0,0,3.007,1.979,25.379,25.379,0,0,0,3.735,1.132,48.748,48.748,0,0,0,15.685.708,81.894,81.894,0,0,0,15.391-3.371,112.033,112.033,0,0,0,14.612-5.719,1.325,1.325,0,0,1,.138-.058l.022-.008,3.445-1.192a1.341,1.341,0,0,1,1.775,1.17l0,.037.663,9.86-1.473-1.38q6.424-.148,12.848-.2c4.283-.065,8.566-.021,12.85-.032l-1.447,1.391c.125-2.4.315-4.8.471-7.2l.492-7.2a1.243,1.243,0,0,1,.5-.916l.014-.01a8.882,8.882,0,0,0,2.116-2.37,11.488,11.488,0,0,0,1.294-3.085,14.611,14.611,0,0,0-.03-6.9l-.459-1.729-.539-1.779c-.344-1.193-.655-2.4-.945-3.605s-.532-2.432-.71-3.668a16.34,16.34,0,0,1-.172-1.871,4.718,4.718,0,0,1,.227-1.928.139.139,0,0,1,.262.09l-.018.064a4.881,4.881,0,0,0,.019,1.733c.083.6.214,1.195.346,1.788.28,1.186.636,2.357,1.013,3.52s.807,2.312,1.237,3.459l.647,1.723.609,1.811a16.414,16.414,0,0,1,.512,7.738,12.09,12.09,0,0,1-1.365,3.78,10.9,10.9,0,0,1-2.688,3.195l.514-.925-.2,7.212c-.076,2.4-.118,4.809-.225,7.211a1.456,1.456,0,0,1-1.429,1.391h-.019c-4.283.064-8.565.185-12.848.2q-6.424.07-12.85.032h-.037a1.448,1.448,0,0,1-1.436-1.38l-.443-9.872,1.777,1.207-3.47,1.115.16-.065a94.607,94.607,0,0,1-31.057,7.808,56.653,56.653,0,0,1-15.981-.876,33.509,33.509,0,0,1-3.907-1.057,8.29,8.29,0,0,1-3.629-2.224,3.088,3.088,0,0,1-.57-1.107,2.957,2.957,0,0,1-.023-1.284,4.846,4.846,0,0,1,1.057-2.054,15.253,15.253,0,0,1,3.157-2.763,45.676,45.676,0,0,1,14.867-6.464c2.635-.6,5.1-1.238,7.656-1.859a67.388,67.388,0,0,0,7.341-2.6,26.588,26.588,0,0,0,3.52-1.621l1.7-.919c.282-.155.573-.3.849-.465l.791-.548a26.074,26.074,0,0,0,3.116-2.257l1.457-1.258a18.71,18.71,0,0,0,1.314-1.4,20.652,20.652,0,0,0,4.052-6.488,17.231,17.231,0,0,0,1.216-7.626v-.016a.144.144,0,0,1,.284-.044Z" transform="translate(19.379 102.656)" fill="#5504b0"/>
    <path id="Path_22666" data-name="Path 22666" d="M319.946,539.739a44.625,44.625,0,0,0,8.054,3,36.253,36.253,0,0,0,8.344,1.249,33.565,33.565,0,0,0,8.39-.672,37.8,37.8,0,0,0,4.14-1.035c1.387-.378,2.693-.981,4.11-1.4a33.752,33.752,0,0,1-3.76,2.278,25.185,25.185,0,0,1-4.127,1.615,25.971,25.971,0,0,1-4.359.956c-.736.13-1.488.106-2.232.165l-1.119.058-1.119-.042a27.482,27.482,0,0,1-8.724-1.747A24.018,24.018,0,0,1,319.946,539.739ZM296.612,561.2a18.267,18.267,0,0,1,16.311,9.926c20.311-8.813,25.474-2.955,25.474-2.955,3.866-7.666,17.613-16.639,17.613-16.639v.005c2.839,9.857-3.306,14.1-3.306,14.1L352,580.05l-25.688.221-.553-9.87-3.466,1.155s-25.233,12.316-46.325,7.669c-12.525-2.765-7.338-7.436-1.045-10.791a49.261,49.261,0,0,1,13.274-4.707,78.35,78.35,0,0,0,9.341-2.483h.012m6.454-429.886q1.547-1.269,3.19-2.38l.822-.555a5.749,5.749,0,0,1,.947-.5,5.639,5.639,0,0,1,2.1-.4,57.334,57.334,0,0,1,7.925.481,57.356,57.356,0,0,1-7.925.481,4.966,4.966,0,0,0-1.779.286,11.872,11.872,0,0,0-1.7.844Q305.845,130.567,304.008,131.359Zm10.112-9.844a17.014,17.014,0,0,1,2.483-.131c.412,0,.821.027,1.231.041a5.406,5.406,0,0,1,1.309.251,5.559,5.559,0,0,1,1.189.587c.338.232.686.449,1.015.7a16.8,16.8,0,0,1,1.921,1.579,16.811,16.811,0,0,1-2.3-.933c-.375-.171-.732-.373-1.1-.559a5.3,5.3,0,0,0-1.03-.458,5.177,5.177,0,0,0-1.091-.258c-.405-.066-.812-.116-1.215-.2a17.012,17.012,0,0,1-2.409-.614ZM307.5,126.1a20.828,20.828,0,0,1,2.534-1.08,18.322,18.322,0,0,1,2.674-.793,5.488,5.488,0,0,1,1.482.01c.479.094.9.175,1.353.289a20.582,20.582,0,0,1,2.638.794,20.585,20.585,0,0,1-2.754-.052,10.678,10.678,0,0,0-2.584-.088,11.57,11.57,0,0,0-1.273.28c-.446.095-.887.205-1.337.282a20.828,20.828,0,0,1-2.731.358ZM491.625,384.353a30.766,30.766,0,0,1-.344-7.166,20.714,20.714,0,0,1,.332-2.716c-7.436-.983-14.872-1.966-22.308-3.1l-11.173-1.7c-3.724-.627-7.448-1.192-11.16-1.881l-.025,12.4L492.51,387.9a19.252,19.252,0,0,1-.885-3.552Zm-7.2-35.976L446.972,367.8c3.761.283,7.51.676,11.271,1.008L469.489,370c7.4.774,14.786,1.708,22.16,2.63l10.165-5.26c3.491-1.77,6.969-3.577,10.484-5.3l10.521-5.2c3.54-1.672,7.042-3.4,10.607-5.027Zm-10.865,14.86a5.683,5.683,0,0,0,1.241,1.377,12.613,12.613,0,0,0,3.49,1.979,25.324,25.324,0,0,0,8.211,1.672,24.878,24.878,0,0,0,8.444-1.045,12.7,12.7,0,0,0,3.81-1.942,6.8,6.8,0,0,0,1.45-1.573,4.376,4.376,0,0,0,.578-1.5,4,4,0,0,1-.553,1.524,6.354,6.354,0,0,1-1.438,1.6,13.548,13.548,0,0,1-3.761,2.139,26.1,26.1,0,0,1-8.53,1.721,25.65,25.65,0,0,1-8.751-1.094,13.857,13.857,0,0,1-4.08-2.1,7.51,7.51,0,0,1-1.647-1.807,4.465,4.465,0,0,1,0-5.027,7.315,7.315,0,0,1,1.659-1.807,13.335,13.335,0,0,1,4.068-2.09,25.351,25.351,0,0,1,8.751-1.094,26.087,26.087,0,0,1,8.53,1.708,13.55,13.55,0,0,1,3.761,2.139,6.405,6.405,0,0,1,1.438,1.61,3.872,3.872,0,0,1,.553,1.512,4.472,4.472,0,0,0-.578-1.5,7.061,7.061,0,0,0-1.45-1.573,12.689,12.689,0,0,0-3.81-1.942,24.576,24.576,0,0,0-8.444-1.045,25,25,0,0,0-8.211,1.671,12.308,12.308,0,0,0-3.49,1.979,5.686,5.686,0,0,0-1.241,1.377,2.86,2.86,0,0,0,0,3.134Zm49.68-5.555-10.276,5.666c-3.429,1.905-6.9,3.712-10.336,5.58l-10.386,5.457c-.037.025-.086.037-.123.061a18.68,18.68,0,0,1,.591,2.68,30.945,30.945,0,0,1,.344,7.166,17.48,17.48,0,0,1-.541,3.614l40.917-18.031V351.843c-3.368,2-6.8,3.9-10.189,5.838Z" transform="translate(19.52 14.605)" fill="#5504b0"/>
    <path id="Path_22667" data-name="Path 22667" d="M484.866,346.5a27.175,27.175,0,0,1-.922-3.889.614.614,0,0,1,.5-.711l.039-.006.154-.017a48.126,48.126,0,0,1,9.246-.092l.134.011a.713.713,0,0,1,.65.77v0a28.334,28.334,0,0,1-.784,4.829,28.349,28.349,0,0,1-.784-4.829l.784.784a48.118,48.118,0,0,1-9.246-.092l.691-.733a27.185,27.185,0,0,1-.46,3.97Zm25.89,1.515a27.159,27.159,0,0,1-.922-3.889.614.614,0,0,1,.5-.711l.039-.006.154-.017a48.136,48.136,0,0,1,9.246-.092l.134.011a.713.713,0,0,1,.65.77v0a28.342,28.342,0,0,1-.784,4.829,28.36,28.36,0,0,1-.784-4.829l.784.784a48.128,48.128,0,0,1-9.246-.092l.691-.733A27.2,27.2,0,0,1,510.756,348.019Zm-67.047,20.82c-5.1.849-10.166,1.87-15.168,3.074a77.149,77.149,0,0,0-14.507,4.786,14.993,14.993,0,0,0-5.72,4.152,3.472,3.472,0,0,0-.691,2.719,6.2,6.2,0,0,0,1.534,2.769,17.869,17.869,0,0,0,5.78,4.236,46.993,46.993,0,0,0,7.076,2.565,124.305,124.305,0,0,0,15.032,3.222q7.631,1.225,15.369,1.819a287.939,287.939,0,0,0,30.976.486q15.485-.58,30.9-1.888c5.135-.445,10.259-.994,15.358-1.675s10.182-1.438,15.192-2.464c2.506-.5,4.994-1.064,7.427-1.756a36.985,36.985,0,0,0,6.944-2.616,7.594,7.594,0,0,0,2.539-1.966,1.818,1.818,0,0,0,.288-.522,5.342,5.342,0,0,0,.174-.758,2.855,2.855,0,0,0,.1-.8,7.665,7.665,0,0,0,.01-.8,8.371,8.371,0,0,0-3.457-5.61c-3.835-3.021-8.752-4.864-13.628-6.326a118.112,118.112,0,0,0-15.079-3.334.144.144,0,0,1-.124-.162.148.148,0,0,1,.151-.125c2.594.142,5.173.424,7.746.792s5.141.8,7.679,1.417a63.152,63.152,0,0,1,7.538,2.24,28.106,28.106,0,0,1,7.113,3.723,13.543,13.543,0,0,1,2.964,3.008,9.014,9.014,0,0,1,1.607,4.144,8.82,8.82,0,0,1-.068,2.252,7.6,7.6,0,0,1-.229,1.134,4.371,4.371,0,0,1-.577,1.2,9.981,9.981,0,0,1-3.384,2.926,35.1,35.1,0,0,1-7.474,3.031c-2.531.762-5.082,1.381-7.64,1.933A234.487,234.487,0,0,1,514.5,399.49c-10.355.721-20.733.928-31.1.76s-20.715-.533-31.054-1.133c-10.333-.642-20.722-1.229-30.962-3.653a42.035,42.035,0,0,1-7.548-2.56,20.808,20.808,0,0,1-3.577-2.084,19.3,19.3,0,0,1-3.046-2.81,8.631,8.631,0,0,1-2.063-4,5.985,5.985,0,0,1,1.162-4.587,16.879,16.879,0,0,1,6.782-4.759,72.406,72.406,0,0,1,15.125-4.232c2.554-.494,5.13-.849,7.706-1.162s5.156-.578,7.748-.717a.145.145,0,0,1,.152.137A.146.146,0,0,1,443.708,368.839ZM280.369,142.691c.087-2.5.415-4.846.674-7.21.146-1.178.249-2.353.38-3.536l.286-3.622a13.842,13.842,0,0,1,.916,7.339,21.35,21.35,0,0,1-.767,3.625A14.293,14.293,0,0,1,280.369,142.691Z" transform="translate(22.776 16.48)" fill="#5504b0"/>
    <path id="Path_22668" data-name="Path 22668" d="M303.078,136.887a16.86,16.86,0,0,1-18.371,4.384,15.662,15.662,0,0,1-7.587-6.514,14.589,14.589,0,0,1-1.12-2.286l-.4-1.151c-.145-.368-.306-.781-.426-1.193a16.308,16.308,0,0,1-.5-5,65.83,65.83,0,0,1,3.945-19.223,67.839,67.839,0,0,1,4.688-8.682,49.4,49.4,0,0,1,5.97-7.886.645.645,0,0,1,1.089.26l.006.021a61.529,61.529,0,0,0,2.937,7.922,49.232,49.232,0,0,0,4,7.414,24.988,24.988,0,0,0,5.584,6.115,11.786,11.786,0,0,0,7.62,2.482l-.346.18a10.494,10.494,0,0,1,2.556-2.14,4.327,4.327,0,0,1,1.646-.564,2.343,2.343,0,0,1,1.734.485,5.118,5.118,0,0,1,1.512,2.945,19.342,19.342,0,0,1,.383,3.19.069.069,0,0,1-.065.072.07.07,0,0,1-.072-.061,19.085,19.085,0,0,0-.619-3.1,4.7,4.7,0,0,0-1.513-2.535,2.29,2.29,0,0,0-2.595.261,9.672,9.672,0,0,0-2.208,2.062.482.482,0,0,1-.328.179l-.019,0a12.709,12.709,0,0,1-8.423-2.42,23.782,23.782,0,0,1-6.018-6.357,46.631,46.631,0,0,1-4.148-7.624,62.783,62.783,0,0,1-2.864-8.175l1.094.281a52.967,52.967,0,0,0-6.05,7.555,63.43,63.43,0,0,0-5,8.331,49.343,49.343,0,0,0-3.718,19.015,15.583,15.583,0,0,0,.693,4.686c.128.367.281.709.454,1.093l.457,1.145a13.436,13.436,0,0,0,1.066,2.091,15.871,15.871,0,0,0,3.062,3.56,13.971,13.971,0,0,0,3.951,2.517,16.445,16.445,0,0,0,9.325.855,17.825,17.825,0,0,0,8.519-4.287.069.069,0,0,1,.1.1Z" transform="translate(21.233 5.897)" fill="#5504b0"/>
    <path id="Path_22669" data-name="Path 22669" d="M276.782,110.619a31.547,31.547,0,0,1-.161-7.056,26.279,26.279,0,0,1,1.484-6.979,11.434,11.434,0,0,1,4.326-5.826,7.176,7.176,0,0,1,3.523-1.077,9.929,9.929,0,0,1,3.5.665,11.971,11.971,0,0,0-3.436.008,7.113,7.113,0,0,0-2.988,1.3,11.8,11.8,0,0,0-3.639,5.423,36.174,36.174,0,0,0-1.709,6.627C277.3,105.975,277,108.281,276.782,110.619Zm6.111,2.6a2.071,2.071,0,1,0-2-2.07,2.071,2.071,0,0,0,2,2.07Zm12.335,2.378a2.071,2.071,0,1,0-2-2.07,2.071,2.071,0,0,0,2,2.07Z" transform="translate(21.73 6.045)" fill="#5504b0"/>
    <path id="Path_22670" data-name="Path 22670" d="M278.224,102.256a4.384,4.384,0,0,1,2.013-.847,6.32,6.32,0,0,1,2.191,0,5.719,5.719,0,0,1,3.688,2.193c-.741-.12-1.38-.311-2.027-.449s-1.266-.281-1.9-.386c-.627-.13-1.264-.2-1.915-.283Zm15.647,2.661a3.674,3.674,0,0,1,1.7-.753,5.27,5.27,0,0,1,1.854-.021,4.534,4.534,0,0,1,3.107,1.908c-.65-.054-1.193-.182-1.741-.271s-1.064-.2-1.592-.276C296.146,105.307,295.106,105.188,293.871,104.917Zm-11.236,8.449a6.429,6.429,0,0,0,2.8,2.068,15.689,15.689,0,0,0,1.658.556,18,18,0,0,1,1.867.55,4.8,4.8,0,0,1-1.979.521,5.072,5.072,0,0,1-2.069-.352,4.012,4.012,0,0,1-1.717-1.32A2.706,2.706,0,0,1,282.635,113.366Zm4.183,15.738a4.143,4.143,0,0,0,3.333-.846,4.528,4.528,0,0,0,1.48-3,4.364,4.364,0,0,0-.819-3.051,4.231,4.231,0,0,0-5.483-.929,4.384,4.384,0,0,0-1.781,2.607,4.524,4.524,0,0,0,.4,3.322A4.143,4.143,0,0,0,286.818,129.1Zm0,0a4.679,4.679,0,0,1-3.029-1.793,5.078,5.078,0,0,1-.923-3.545,5.2,5.2,0,0,1,1.741-3.436,4.939,4.939,0,0,1,7.2,1.224,5.2,5.2,0,0,1,.506,3.816,5.089,5.089,0,0,1-2.041,3.04,4.672,4.672,0,0,1-3.45.694Z" transform="translate(22.197 9.186)" fill="#5504b0"/>
    <path id="Path_22671" data-name="Path 22671" d="M287.978,103.5a2.071,2.071,0,1,0-2-2.07A2.071,2.071,0,0,0,287.978,103.5Z" transform="translate(24.291 8.658)" fill="#5504b0"/>
    <path id="Path_22672" data-name="Path 22672" d="M264.675,156.681a57.7,57.7,0,0,1,.668-14.377c.42-2.368,1.025-4.7,1.517-7.042.262-1.169.459-2.351.684-3.528.263-1.169.441-2.356.665-3.536.441-2.359.927-4.716,1.562-7.033l.95-3.477c.327-1.156.733-2.289,1.1-3.431a89.169,89.169,0,0,1,5.766-13.195.069.069,0,0,1,.094-.028.071.071,0,0,1,.033.084c-1.459,4.579-3.087,9.053-4.5,13.606-1.555,4.5-2.887,9.075-4.278,13.649a63.632,63.632,0,0,0-1.644,6.973c-.224,1.174-.33,2.368-.466,3.554s-.242,2.377-.353,3.564c-.54,4.737-1.169,9.446-1.667,14.215a.069.069,0,0,1-.073.065A.073.073,0,0,1,264.675,156.681Z" transform="translate(18.49 9.108)" fill="#5504b0"/>
    <path id="Path_22673" data-name="Path 22673" d="M292.456,89.58a10.668,10.668,0,0,0-2.067-3.405,3.987,3.987,0,0,0-3.275-1.383A7.153,7.153,0,0,0,283.7,86.3a25.153,25.153,0,0,0-2.948,2.665,45.344,45.344,0,0,0-5.144,6.3c-.791,1.114-1.4,2.342-2.083,3.52a32.406,32.406,0,0,0-1.792,3.672,66.606,66.606,0,0,0-4.716,15.489,44.329,44.329,0,0,0-.021,16.132l0,.008a.069.069,0,0,1-.131.039,33.294,33.294,0,0,1-1.3-16.412,49.106,49.106,0,0,1,5.491-15.588c.647-1.216,1.322-2.412,2.048-3.579s1.381-2.373,2.129-3.523a57.125,57.125,0,0,1,4.672-6.834,17.117,17.117,0,0,1,3.082-2.882,7.667,7.667,0,0,1,4.073-1.583,4.763,4.763,0,0,1,3.878,1.98,9.094,9.094,0,0,1,1.652,3.843.069.069,0,0,1-.055.081.074.074,0,0,1-.079-.047Z" transform="translate(18.648 4.437)" fill="#5504b0"/>
    <path id="Path_22674" data-name="Path 22674" d="M285.309,88.015a13.976,13.976,0,0,1,.229-3.54,11.172,11.172,0,0,1,1.167-3.4,8.118,8.118,0,0,1,2.4-2.762,8.391,8.391,0,0,1,3.422-1.4,16.27,16.27,0,0,1,7.18.759,33.9,33.9,0,0,1,6.544,2.837,40.717,40.717,0,0,1,10.94,8.97A62.783,62.783,0,0,1,330.4,114.237a45.283,45.283,0,0,1,1.642,14.131,37.709,37.709,0,0,0,.286,13.746,17.437,17.437,0,0,0,2.824,6.17,12.053,12.053,0,0,0,5.383,4.157l.008,0a.069.069,0,0,1-.039.132,11.686,11.686,0,0,1-5.965-3.795,16.589,16.589,0,0,1-3.359-6.351c-1.418-4.628-1.141-9.584-.592-14.185a45.616,45.616,0,0,0-1.32-13.726,63.707,63.707,0,0,0-4.589-13.162,46.508,46.508,0,0,0-7.886-11.5,43.581,43.581,0,0,0-11.1-8.3,45.023,45.023,0,0,0-6.339-2.75,15.218,15.218,0,0,0-6.668-.859,7.623,7.623,0,0,0-3.09,1.095,7.328,7.328,0,0,0-2.29,2.393,13.9,13.9,0,0,0-1.861,6.581.069.069,0,0,1-.068.07.074.074,0,0,1-.07-.065Z" transform="translate(24.103 2.568)" fill="#5504b0"/>
    <path id="Path_22675" data-name="Path 22675" d="M294.174,82.986a12.387,12.387,0,0,1,5.478,1.755,17.168,17.168,0,0,1,4.453,3.773,19.827,19.827,0,0,1,2.932,5.022,24.666,24.666,0,0,1,.892,2.746c.18.946.357,1.887.47,2.831-.417-.87-.72-1.759-1.111-2.614-.431-.836-.767-1.706-1.228-2.51a25.293,25.293,0,0,0-1.411-2.375,23.652,23.652,0,0,0-1.607-2.222,22.905,22.905,0,0,0-3.973-3.751A19.532,19.532,0,0,0,294.174,82.986Zm-25.045,71.943c.875-2.75,1.994-5.332,3.063-7.929.554-1.29,1.067-2.588,1.582-3.885a20.2,20.2,0,0,0,1.2-4.024,9.45,9.45,0,0,1-.173,4.334,26.1,26.1,0,0,1-1.34,4.106A30.574,30.574,0,0,1,269.129,154.929Zm15.575-5.864a24.114,24.114,0,0,0,4.337,5.4,8.573,8.573,0,0,0,2.828,1.566,12.7,12.7,0,0,0,3.451.486,6.194,6.194,0,0,1-3.7.732,7,7,0,0,1-3.594-1.558,9.582,9.582,0,0,1-2.335-3.036,9.028,9.028,0,0,1-.985-3.593Z" transform="translate(19.741 4.237)" fill="#5504b0"/>
    <path id="Path_22676" data-name="Path 22676" d="M301.7,147.021a.009.009,0,0,0-.01.01" transform="translate(28.534 21.529)" fill="none" stroke="#020202" stroke-linecap="round" stroke-linejoin="round" stroke-width="0.758"/>
    <path id="Path_22677" data-name="Path 22677" d="M308.759,155.9a204.287,204.287,0,0,0-38.4,32.511q-4.282,4.618-8.258,9.5c-1.238,1.367-1.2,3.345-.9,5.37s.72,4.131.941,6.268a36.508,36.508,0,0,1,.143,6.463,39.607,39.607,0,0,1-1.071,6.372c-.953,4.093-2.117,8.138-2.982,12.256a391.74,391.74,0,0,0-7.922,49.864c-.851,8.381-1.4,16.791-1.8,25.2s-.67,16.838-.653,25.238l-1.322-.479q12.2-15.129,23.742-30.8c7.656-10.461,15.217-20.995,22.353-31.814,7.155-10.8,14.077-21.767,20.34-33.108,3.15-5.656,6.152-11.405,8.876-17.279a157.474,157.474,0,0,0,7.262-18.02.1.1,0,0,1,.184.056c-3.576,12.511-9.066,24.4-15.094,35.907-6.108,11.486-12.813,22.646-19.944,33.516-7.163,10.849-14.577,21.534-22.4,31.912-7.808,10.389-15.77,20.658-24.17,30.587l-.013.015a.743.743,0,0,1-1.31-.494c.325-16.9,1.6-33.723,3.312-50.5.394-4.2.966-8.377,1.4-12.572.541-4.182,1.026-8.372,1.657-12.542s1.179-8.354,1.918-12.509c.647-4.171,1.465-8.312,2.278-12.456.378-2.078.848-4.137,1.319-6.2l1.416-6.178a38,38,0,0,0,.976-6.088,34.828,34.828,0,0,0-.185-6.159c-.223-2.057-.666-4.084-.949-6.231a12.708,12.708,0,0,1-.094-3.367,7.853,7.853,0,0,1,.448-1.746,5.818,5.818,0,0,1,.969-1.534q4.05-4.886,8.415-9.5a186.752,186.752,0,0,1,18.611-17.216,165.92,165.92,0,0,1,20.81-14.411.1.1,0,0,1,.1.164Zm31.146,10.7v-.01h0c.419-2.705.956-5.375,1.506-8.041s1.159-5.313,1.761-7.961l1.887-7.918c.622-2.632,1.283-5.283,1.859-7.888l.295.7a27.94,27.94,0,0,0-4.093-2.565,13.882,13.882,0,0,0-2.238-.927,6.935,6.935,0,0,0-2.41-.35h0a8.662,8.662,0,0,1,4.992.455,22.152,22.152,0,0,1,4.586,2.214.658.658,0,0,1,.3.639l-.008.059c-.35,2.755-.878,5.415-1.46,8.086s-1.238,5.311-1.93,7.946c-.716,2.629-1.478,5.245-2.307,7.841s-1.725,5.173-2.739,7.715h0Zm35.426,63.179q1.589,22.094,3.41,44.146c1.273,14.7,2.606,29.387,4.159,44.047.749,7.333,1.623,14.651,2.536,21.961q1.329,10.971,3.066,21.876c1.123,7.273,2.387,14.524,3.965,21.7a145.833,145.833,0,0,0,5.9,21.144l.017.044a.815.815,0,0,1,.03.486,82.2,82.2,0,0,1-3.024,9.674,55.284,55.284,0,0,1-4.406,9.118,23.536,23.536,0,0,1-6.773,7.52,10.276,10.276,0,0,1-4.77,1.707,10.476,10.476,0,0,1-4.927-.865A9.706,9.706,0,0,0,383.877,431a22.745,22.745,0,0,0,6.178-7.569,60.742,60.742,0,0,0,3.914-9.1,80.721,80.721,0,0,0,2.679-9.533l.047.53c-5.588-13.875-8.418-28.516-10.926-43.081-2.415-14.6-4.2-29.289-5.641-44s-2.545-29.442-3.3-44.2C376,259.308,375.462,244.544,375.331,229.776ZM483.879,398.615s-4.043,133.917-66.456,168.128c0,5.968,34.342,10.806,76.705,10.806s76.705-4.838,76.705-10.806c0,0-69.155-18.785-64.07-168.479" transform="translate(13.592 17.325)" fill="#5504b0"/>
    <path id="Path_22678" data-name="Path 22678" d="M381.141,447.533a1.845,1.845,0,1,0-1.782-1.844A1.845,1.845,0,0,0,381.141,447.533Zm6.785-5.31a1.845,1.845,0,1,0-1.781-1.844A1.845,1.845,0,0,0,387.925,442.223Zm4.72-6.49a1.845,1.845,0,1,0-1.781-1.844A1.845,1.845,0,0,0,392.645,435.733Zm2.95-8.555a1.845,1.845,0,1,0-1.781-1.844A1.845,1.845,0,0,0,395.595,427.179Zm55.014-35.988a1.845,1.845,0,1,0-1.781-1.844,1.845,1.845,0,0,0,1.781,1.844Zm-11.357,3.1a1.845,1.845,0,1,0-1.781-1.844A1.845,1.845,0,0,0,439.252,394.288ZM427.9,399.155a1.845,1.845,0,1,0-1.781-1.844A1.845,1.845,0,0,0,427.9,399.155Zm4.425,6.785a1.845,1.845,0,1,0-1.781-1.844,1.845,1.845,0,0,0,1.781,1.844Zm12.979,4.425a1.845,1.845,0,1,0-1.781-1.844,1.845,1.845,0,0,0,1.781,1.844Zm15.044,2.36a1.845,1.845,0,1,0-1.781-1.844,1.845,1.845,0,0,0,1.781,1.844Zm15.339.737a1.845,1.845,0,1,0-1.782-1.844A1.845,1.845,0,0,0,475.683,413.462Zm15.339.295a1.845,1.845,0,1,0-1.781-1.844A1.845,1.845,0,0,0,491.022,413.757Zm16.224-1.032a1.845,1.845,0,1,0-1.781-1.844A1.845,1.845,0,0,0,507.246,412.725Zm15.487-1.18a1.845,1.845,0,1,0-1.781-1.844A1.845,1.845,0,0,0,522.733,411.545Zm16.372-1.032a1.845,1.845,0,1,0-1.782-1.844A1.845,1.845,0,0,0,539.1,410.512Zm15.782-2.95a1.845,1.845,0,1,0-1.781-1.844A1.845,1.845,0,0,0,554.886,407.562Zm12.832-3.54a1.845,1.845,0,1,0-1.781-1.844A1.845,1.845,0,0,0,567.718,404.022Zm-.443-7.08a1.845,1.845,0,1,0-1.781-1.844,1.845,1.845,0,0,0,1.781,1.844Zm-9.587-4.13a1.845,1.845,0,1,0-1.781-1.844A1.845,1.845,0,0,0,557.688,392.813Zm-14.012-3.835a1.845,1.845,0,1,0-1.781-1.844A1.845,1.845,0,0,0,543.676,388.978ZM245.07,73.783c2.677,3.9,5.075,7.933,7.479,11.966l3.537,6.088,3.489,6.135a55.012,55.012,0,0,1-4.3-5.625c-1.335-1.945-2.579-3.948-3.783-5.973A107.132,107.132,0,0,1,245.07,73.783Zm18.858-6.49a110.239,110.239,0,0,1,4.245,11.617,108.965,108.965,0,0,1,3.072,11.981A108.986,108.986,0,0,1,267,79.275a110.281,110.281,0,0,1-3.072-11.981Zm-30.474,19.93a100.053,100.053,0,0,1,8.988,7.616,98.875,98.875,0,0,1,8.146,8.511,98.893,98.893,0,0,1-8.988-7.616,100.043,100.043,0,0,1-8.146-8.511Z" transform="translate(10.108)" fill="#5504b0"/>
    <path id="Path_22679" data-name="Path 22679" d="M222.817,158.36a12.33,12.33,0,0,1-.907-10.171,11.779,11.779,0,0,1,4.834-5.74,17.421,17.421,0,0,1-7.4,2.828c-.836.109-6.224.809-7.2-1.318a2.83,2.83,0,0,1,.3-2.316c2.553-5.045,15.45-7.708,19.675-2.267a8.06,8.06,0,0,1,1.4,5.85s1.086,11.607-1.215,14.806c0,0-.057,1.558-.079,2.815-.162,9.423,23.747,37.71,29.206,44.1" transform="translate(4.32 18.652)" fill="none"/>
    <path id="Path_22680" data-name="Path 22680" d="M261.547,207.1c-3.2-3.426-6.266-6.974-9.312-10.542q-4.514-5.4-8.764-11.021a121.926,121.926,0,0,1-7.936-11.7,42.022,42.022,0,0,1-3.18-6.426,14.68,14.68,0,0,1-.921-3.639,15.158,15.158,0,0,1-.019-1.858l.042-1.764a.917.917,0,0,1,.15-.482l.032-.048a8.41,8.41,0,0,0,.971-3.13,33.639,33.639,0,0,0,.308-3.627,67.513,67.513,0,0,0-.207-7.391v-.011a.993.993,0,0,1,0-.153,9.84,9.84,0,0,0-.14-2.911,6.568,6.568,0,0,0-.435-1.34,4.9,4.9,0,0,0-.682-1.1l-.049-.054a7.057,7.057,0,0,0-3.755-2.173,15.332,15.332,0,0,0-4.637-.385,18.208,18.208,0,0,0-4.644.943,12.108,12.108,0,0,0-4.093,2.242c-.253.278-.554.527-.775.826a8.524,8.524,0,0,0-.6.945,1.771,1.771,0,0,0-.073,1.832,3.062,3.062,0,0,0,1.867.942,10.165,10.165,0,0,0,2.384.193,17.782,17.782,0,0,0,9.364-2.4,17.261,17.261,0,0,1-9.352,3.058,10.833,10.833,0,0,1-2.536-.059,3.862,3.862,0,0,1-2.483-1.156,2.177,2.177,0,0,1-.467-1.472,3.857,3.857,0,0,1,.344-1.378,9.34,9.34,0,0,1,.678-1.164,11.848,11.848,0,0,1,.875-1,13.286,13.286,0,0,1,4.414-2.644,19.6,19.6,0,0,1,4.967-1.2,15.856,15.856,0,0,1,5.168.273,8.727,8.727,0,0,1,4.683,2.649l-.049-.053a6.26,6.26,0,0,1,1.054,1.581,8.353,8.353,0,0,1,.587,1.692,11.122,11.122,0,0,1,.226,3.466v-.164a69.259,69.259,0,0,1,.261,7.622,35.449,35.449,0,0,1-.306,3.857,9.557,9.557,0,0,1-1.321,3.964l.181-.53-.053,1.748a13.566,13.566,0,0,0,0,1.652,12.931,12.931,0,0,0,.79,3.152,45.532,45.532,0,0,0,2.977,6.186c2.274,4.035,4.895,7.9,7.546,11.743s5.476,7.574,8.31,11.3C255.745,199.746,258.663,203.408,261.547,207.1Z" transform="translate(4.207 18.489)" fill="#5504b0"/>
    <path id="Path_22681" data-name="Path 22681" d="M225,141.156a20.351,20.351,0,0,0-2.748,3.487,13.7,13.7,0,0,0-1.574,3.863,14.09,14.09,0,0,0-.349,4.168,24.752,24.752,0,0,0,.734,4.4,9.3,9.3,0,0,1-2.218-4.156,9.9,9.9,0,0,1-.04-4.857,9.787,9.787,0,0,1,2.25-4.314A8.748,8.748,0,0,1,225,141.156Z" transform="translate(6.075 19.945)" fill="#5504b0"/>
  </g>
</svg>
