<svg xmlns="http://www.w3.org/2000/svg" viewBox="0 0 370.4 77.25" fill="#fbd349" xmlns:v="https://vecta.io/nano"><path d="M-.009 74.251L29.973.006l7.418 2.996L7.409 77.246zm41.628-.002L71.601.005 79.019 3 49.037 77.245zm41.634.008L113.235.012l7.418 2.996-29.982 74.245zm41.628-.011L154.863.001l7.418 2.996-29.982 74.245zm41.625.008L196.488.009l7.418 2.996-29.982 74.245zm41.628-.002L238.116.008l7.418 2.996-29.982 74.245zm41.624.008L279.74.015l7.418 2.996-29.982 74.245zm41.628-.011L321.368.004 328.786 3l-29.982 74.245zm41.625.008L362.993.012l7.418 2.996-29.982 74.245z"/></svg>