<svg version="1.2" xmlns="http://www.w3.org/2000/svg" viewBox="0 0 435 241" width="435" height="241"><style>.a{fill:#5504b0}.b{fill:#fbd206}</style><path class="a" d="m315.4 128.2l32.7 37.7-150-30.4"/><path class="b" d="m0.9 58.1l418.7-57.5 15.4 231-423.3-11.4z"/><path class="b" d="m141.9 203.2l32.7 37.6-150-30.3"/><path fill-rule="evenodd" class="a" d="m116.3 89.1c0 21-15 32.7-29 33.7-10.7 0.9-17.7-4.6-19.2-7.8h-0.4l0.1 6.4c0 1-0.8 1.8-1.8 1.9l-12 0.9c-1 0.1-1.8-0.6-1.8-1.6v-79.4c0-1 0.8-1.8 1.7-1.9l12.1-0.9c1-0.1 1.7 0.6 1.7 1.6v28.6h0.4c1.5-3.5 8.4-10 19.2-10.8 14-1.1 29 8.3 29 29.3zm-15.4 1.2c0-11.4-8.2-16.9-16.7-16.3-8.8 0.7-16.8 7.4-16.8 18.8 0 11.5 8 16.9 16.8 16.3 8.6-0.7 16.7-7.5 16.7-18.8z"/><path class="a" d="m176.3 55.9v57.3c0 0.9-0.8 1.8-1.7 1.8l-12.1 1c-0.9 0-1.7-0.7-1.7-1.7v-1.6c0-1.6-1.8-2.2-2.9-1.1-3.6 3.8-8.8 6.5-15.6 7.1-12.3 0.9-22.7-6-22.7-24.5v-34c0-0.9 0.7-1.8 1.7-1.8l12-1c1 0 1.8 0.7 1.8 1.7v31.4c0 8.9 4.7 14.3 12.8 13.7 7.9-0.6 12.9-6.8 12.9-15.7v-31.4c0-1 0.7-1.8 1.7-1.9l12.1-0.9c0.9-0.1 1.7 0.6 1.7 1.6z"/><path class="a" d="m207.3 65.5l-23.8 1.8c-0.9 0.1-1.7-0.7-1.7-1.6v-10.2c0-1 0.8-1.8 1.7-1.9l48.7-3.7c1.4-0.1 2.2 1.4 1.4 2.6l-28.4 43.7c-0.8 1.2 0 2.7 1.4 2.6l24.9-1.9c0.9-0.1 1.7 0.7 1.7 1.6v10.3c0 1-0.8 1.8-1.7 1.9l-49.8 3.8c-1.3 0.1-2.2-1.4-1.4-2.6l28.5-43.8c0.8-1.2-0.1-2.7-1.5-2.6z"/><path class="a" d="m263.5 61.2l-23.8 1.8c-1 0.1-1.7-0.6-1.7-1.6v-10.2c0-0.9 0.7-1.8 1.7-1.9l48.7-3.7c1.4-0.1 2.2 1.4 1.4 2.7l-28.4 43.6c-0.8 1.2 0 2.7 1.4 2.6l24.8-1.9c1 0 1.8 0.7 1.8 1.7v10.2c0 1-0.8 1.8-1.8 1.9l-49.7 3.8c-1.4 0.1-2.2-1.4-1.4-2.6l28.4-43.8c0.8-1.2 0-2.7-1.4-2.6z"/><path class="a" d="m142.6 151.1v34.3c0 0.5-0.5 1-1 1l-13.7 1.1c-0.5 0-1-0.4-1-0.9v-33.6c0-8.7-4.4-13-11.1-12.5-6.8 0.5-11.7 5.6-11.7 14.2v33.6c0 0.6-0.4 1-1 1.1l-13.5 1c-0.5 0-1-0.4-1-0.9v-33.6c0-8.6-4.5-13-11.1-12.5-6.8 0.6-11.7 5.6-11.7 14.2v33.6c0 0.6-0.4 1.1-1 1.1l-13.5 1c-0.6 0.1-1-0.3-1-0.9v-58.7c0-0.6 0.4-1.1 1-1.1l13.5-1c0.5-0.1 1 0.3 1 0.9v3.8c0 0.9 1.1 1.3 1.7 0.5 3.4-4.2 8.4-7.3 15.5-7.8 7-0.5 13.1 1.8 16.9 7.6 0.4 0.5 1.2 0.5 1.6-0.1 3.6-5.3 10-9.7 19.1-10.4 12.7-0.9 22 6.4 22 25z"/><path fill-rule="evenodd" class="a" d="m146.7 155.7c0-21 15-32.7 29-33.8 10.7-0.8 17.7 4.7 19.2 7.9h0.3v-7.2c0-0.5 0.5-1 1-1l13.6-1.1c0.5 0 1 0.4 1 0.9v58.8c0 0.5-0.5 1-1 1.1l-13.6 1c-0.5 0-0.9-0.4-0.9-0.9v-7.2h-0.4c-1.5 3.5-8.4 10-19.2 10.8-14 1.1-29-8.3-29-29.3zm48.9-3.7c0-11.5-8.1-16.9-16.8-16.3-8.7 0.7-16.8 7.5-16.8 18.8 0 11.4 8.1 16.9 16.8 16.3 8.7-0.7 16.8-7.4 16.8-18.8z"/><path class="a" d="m240.2 156.4l-6.5 7.8q-0.2 0.3-0.2 0.7v13.6c0 0.5-0.5 1-1 1l-13.6 1.1c-0.5 0-0.9-0.4-0.9-1l-0.1-58.8c0-0.5 0.5-1 1-1l13.6-1.1c0.5 0 1 0.4 1 1v22.2c0 0.9 1.1 1.3 1.7 0.5l20.5-25c0.2-0.3 0.5-0.4 0.8-0.4l15.8-1.2c0.9-0.1 1.3 0.9 0.8 1.6l-21.9 26.1c-0.4 0.4-0.4 0.9-0.1 1.3l24.9 29.8c0.5 0.6 0 1.6-0.8 1.7l-14.9 1.1c-0.3 0-0.5-0.1-0.7-0.3l-17.9-20.7c-0.4-0.5-1.1-0.4-1.5 0z"/><path fill-rule="evenodd" class="a" d="m328.9 147.9l-42.9 3.3c-0.6 0-1.1 0.7-0.9 1.4 2.6 7.2 9.5 10.5 18 9.9 5.6-0.5 10.6-2.3 14.8-6.1 0.4-0.3 1-0.3 1.4 0l5.8 5.9c0.3 0.3 0.4 0.9 0 1.3-5 6.3-13.5 11.1-23.7 11.8-16.6 1.3-31.4-8.9-31.4-29.1 0-20.4 15-32.7 30.4-33.9 15.2-1.1 32.3 8.2 29.4 34.5 0 0.5-0.4 1-0.9 1zm-43.1-8.2l29-2.2c0.6 0 1.1-0.6 1-1.2-1.4-7.8-8.3-11.2-15.2-10.7-6.9 0.6-13.5 4.8-15.8 12.9-0.2 0.7 0.3 1.3 1 1.2z"/><path class="a" d="m372.8 108.2v13c0 0.6-0.5 1.1-1.1 1.1-0.9-0.1-1.8-0.1-2.8 0-11.7 0.9-19 9.6-19 21.8v25.5c0 0.5-0.4 1-1 1.1l-13.5 1c-0.6 0-1-0.4-1-0.9v-58.8c0-0.5 0.4-1 1-1l13.5-1.1c0.5 0 1 0.4 1 0.9v8.7c0 1.1 1.4 1.3 1.9 0.3 2.9-6.8 8.4-11.9 17-12.6 1.1 0 2.1 0 3.2 0.1 0.5 0 0.8 0.4 0.8 0.9z"/><path class="a" d="m373.2 152.7l10.6-3.7c0.5-0.2 1.1 0 1.2 0.5 1.3 3.6 4.2 6.9 9.7 6.5 3.9-0.3 7.8-2.6 7.8-6.9 0-3-1.9-4.9-6.6-6.3l-7.4-2.2c-10-2.9-14.2-9-14.2-16.4 0-10.8 9.5-18.1 20.9-19 10.5-0.8 18.3 4.4 20.6 13 0.1 0.6-0.2 1.1-0.7 1.3l-10.4 3.5c-0.5 0.1-1-0.1-1.1-0.5-1.7-4.2-4.7-5.3-7.7-5.1-4.1 0.4-6.5 2.9-6.5 5.8 0 2.6 1.5 4.7 6.2 5.9l6.7 2.1c7.5 2.1 15.6 5.9 15.6 16.7 0 12.1-10.3 19.5-23 20.4-11.6 0.9-20.2-4-22.4-14.4-0.1-0.5 0.2-1 0.7-1.2z"/></svg>