<svg xmlns="http://www.w3.org/2000/svg" width="313.164" height="420.809" fill="#5504b0" xmlns:v="https://vecta.io/nano"><path d="M198.069 134.789a51.2 51.2 0 0 1-5.87-8.652c-1.764-3.113-2.965-6.512-3.549-10.042-.03-.212.013-.427.123-.611l.017-.028a61.63 61.63 0 0 1 5.173-7.38 49.92 49.92 0 0 1 6.267-6.487c2.28-2.016 4.873-3.648 7.676-4.834 2.797-1.231 5.924-1.495 8.888-.751-2.909-.167-5.806.497-8.352 1.915-1.26.687-2.469 1.463-3.619 2.322-1.146.87-2.228 1.825-3.291 2.8a64.45 64.45 0 0 0-5.861 6.416 80.42 80.42 0 0 0-5.091 7.058l.14-.639a34.45 34.45 0 0 0 2.77 9.641c.655 1.58 1.4 3.127 2.161 4.676.777 1.54 1.566 3.08 2.418 4.596zm75.322-60.3l-2.435 16.407-.084-.012c-.883 1.873-1.581 3.827-2.085 5.835-.289.977-.458 1.977-.7 2.965l-.518 2.99c-.294 2.006-.479 4.026-.555 6.052a31.49 31.49 0 0 0 .289 6.184l.084.012-3.134 21.167-24.954-3.7c1.314-1.555 3.592-3.339 3.6-6.016 0 0 7.438-5.762 4.641-11.428 0 0 17.311-1.676 18.215-7.775s-20.711-.482-20.711-.482-14.406 4.943-20.433 2.881c-1.6-.543-3.219-.723-3.279-3l.4-2.724 1.712-11.549 3.665-24.677z"/><path d="M282.058 92.551l-.579 3.906-.1-.012c-.743 1.046-1.321 2.201-1.712 3.424-.241.579-.35 1.181-.53 1.76l-.338 1.8a20.38 20.38 0 0 0-.2 3.641 12.8 12.8 0 0 0 .651 3.773l.084.012v.012l-.844 5.714-11.006-1.64 1.868-12.003 1.7-12.019-.1-.024z"/><path d="M288.158 104.112a20.07 20.07 0 0 1-2.508 7.679l-6.22-.916-.1-.012v-.015l2.146-14.394.084.012 6.221.928a19.8 19.8 0 0 1 .374 6.715zm-37.45-38.613l10.889 1.618-.818 5.503-10.889-1.618zm20.452 12.268l5.443.809-.818 5.503-5.443-.809zm-24.005-31.178a21.91 21.91 0 0 1 1.084 3.8 36.22 36.22 0 0 1 .585 3.849 35.58 35.58 0 0 1 .188 3.888c.014 1.32-.092 2.638-.317 3.939a21.72 21.72 0 0 1-1.087-3.8 35.67 35.67 0 0 1-.582-3.849 36.05 36.05 0 0 1-.185-3.888c-.014-1.32.091-2.638.314-3.939zm10.173-2.23a31.54 31.54 0 0 1 .006 4.747l-.491 4.674-.885 4.615a31.14 31.14 0 0 1-1.387 4.541c-.124-1.58-.127-3.167-.009-4.748l.493-4.673.888-4.615a31.55 31.55 0 0 1 1.384-4.541zm3.9 17.551a16.92 16.92 0 0 1 .692-3.387 27.39 27.39 0 0 1 1.153-3.189 27.01 27.01 0 0 1 1.519-3.031 16.71 16.71 0 0 1 1.985-2.831 16.74 16.74 0 0 1-.689 3.388 27.01 27.01 0 0 1-1.155 3.188 27.39 27.39 0 0 1-1.522 3.03 16.91 16.91 0 0 1-1.982 2.832zm49.662 35.862a23.02 23.02 0 0 1-3.919 1.008 37.91 37.91 0 0 1-3.957.507 37.4 37.4 0 0 1-3.988.109 22.77 22.77 0 0 1-4.027-.4c1.273-.452 2.585-.79 3.918-1.01a37.4 37.4 0 0 1 3.958-.5 37.91 37.91 0 0 1 3.988-.107 23.06 23.06 0 0 1 4.027.394zm2.274 9.947a33.28 33.28 0 0 1-4.877-.059l-4.8-.555-4.736-.949a32.9 32.9 0 0 1-4.657-1.45c1.625-.102 3.255-.083 4.877.056l4.8.557 4.736.951a33.27 33.27 0 0 1 4.657 1.449zm-18.027 3.49a17.67 17.67 0 0 1 3.466.71c1.112.324 2.204.716 3.269 1.172a28.39 28.39 0 0 1 3.113 1.54 17.48 17.48 0 0 1 2.915 2.006 17.5 17.5 0 0 1-3.467-.708 28.27 28.27 0 0 1-3.268-1.175 28.72 28.72 0 0 1-3.112-1.542 17.69 17.69 0 0 1-2.916-2zm-103.065 13.452a17.13 17.13 0 0 0 4.262-3.828 16.1 16.1 0 0 0 1.539-2.378c.435-.821.791-1.71 1.2-2.612 1.587-3.574 3.13-7.185 5.048-10.672a29.37 29.37 0 0 1 3.4-5.043 24.03 24.03 0 0 1 4.58-4.088 30.74 30.74 0 0 1 5.3-2.984 30.09 30.09 0 0 1 5.791-1.947h.014a1.2 1.2 0 0 1 .908.162 1.21 1.21 0 0 1 .528.756c.032.149.036.303.012.454l-2.059 11.5-.009.051-.01.043a7.24 7.24 0 0 0-.411 3.119 1.46 1.46 0 0 0 .663 1 6.68 6.68 0 0 0 1.483.639c.6.229 1.088.342 1.633.5.566.06 1.118.191 1.7.2a21.51 21.51 0 0 0 3.49-.076 61.31 61.31 0 0 0 13.752-3.245l.029-.009h.009a97.6 97.6 0 0 1 10.634-2.335 35.97 35.97 0 0 1 5.521-.485 12.39 12.39 0 0 1 2.928.317 4.96 4.96 0 0 1 1.561.685 2.91 2.91 0 0 1 1.231 1.658 4.3 4.3 0 0 1-.8 3.511 8.75 8.75 0 0 1-2.281 2.141 21.24 21.24 0 0 1-5.2 2.4 58.45 58.45 0 0 1-10.834 2.311l1.161-2.085a8.1 8.1 0 0 1 .783 4 9.94 9.94 0 0 1-1.125 3.722 15.47 15.47 0 0 1-2.072 3.021 20.05 20.05 0 0 1-2.592 2.536l.592-1.2a6.79 6.79 0 0 1-1.246 3.776 19.74 19.74 0 0 1-2.213 2.584 12.14 12.14 0 0 0-.9 1.032c-.083.11-.153.229-.208.355a.38.38 0 0 0-.028.089l-.045.336a11.95 11.95 0 0 1-.727 3.442 12.55 12.55 0 0 1-4.577 5.276q-.69.472-1.393.912c-.506.28-.884.536-1.494.835-.581.246-1.191.418-1.815.512-.557.094-1.1.163-1.644.221-2.156.223-4.269.277-6.376.322l-3.141.092-.776.038a5.48 5.48 0 0 0-.654.112 21.56 21.56 0 0 0-1.481.382c-3.982 1.2-8.033 2.473-11.918 4l-.016.007c-.07.029-.15-.002-.182-.07s-.006-.15.06-.186c1.861-1.055 3.792-1.884 5.721-2.752 1.935-.85 3.872-1.685 5.882-2.4a23.3 23.3 0 0 1 1.545-.515 6.8 6.8 0 0 1 .89-.208l.8-.1 3.159-.314 6.209-.663a24 24 0 0 0 1.474-.262c.413-.079.816-.206 1.2-.377.328-.174.823-.514 1.226-.762.411-.284.817-.574 1.212-.869a9.96 9.96 0 0 0 3.461-4.241 10.44 10.44 0 0 0 .471-2.733l.051-.447a3.28 3.28 0 0 1 .167-.674c.136-.365.317-.711.541-1.029a14.16 14.16 0 0 1 1.138-1.374c1.488-1.551 2.594-2.95 2.572-4.359-.007-.449.192-.877.541-1.16l.051-.041c.777-.636 1.498-1.339 2.153-2.1.658-.743 1.226-1.561 1.69-2.438a7.64 7.64 0 0 0 .85-2.578c.064-.841-.078-1.685-.416-2.458l-.033-.079a1.45 1.45 0 0 1 .779-1.9 1.5 1.5 0 0 1 .415-.105c3.491-.322 6.945-.972 10.314-1.942 1.624-.464 3.186-1.12 4.654-1.956.651-.379 1.231-.87 1.713-1.449a2.2 2.2 0 0 0 .542-1.544c.008-.283-.488-.652-1.216-.879-.785-.23-1.593-.366-2.41-.407a34.29 34.29 0 0 0-5.252.131 86.05 86.05 0 0 0-10.57 1.734l.038-.011c-2.3.717-4.6 1.336-6.923 1.892a63.4 63.4 0 0 1-7.071 1.293 26.34 26.34 0 0 1-3.63.209c-.61.017-1.232-.1-1.849-.139-.6-.141-1.283-.262-1.808-.429a7.77 7.77 0 0 1-1.827-.662 2.92 2.92 0 0 1-1.392-1.8 8.53 8.53 0 0 1 .179-3.922l-.019.093 1.364-11.6 1.463 1.369a35.58 35.58 0 0 0-10.186 4.615c-1.549 1.027-2.964 2.242-4.213 3.617a27.09 27.09 0 0 0-3.3 4.55c-2 3.279-3.812 6.738-5.607 10.208-1.623 3.707-4.532 6.703-8.19 8.434-.068.03-.148.002-.183-.063s-.014-.147.048-.188z"/><path d="M247.646 116.151l-11.116-.255 10.909-2.147c.429-.093.874.053 1.165.382s.381.789.237 1.203-.502.718-.934.795a1.26 1.26 0 0 1-.262.023zm-54.255 10.637c-3.122-3.894-4.1-13.6-4.1-13.6-9.27 2.772-32.38 26.16-41.373 17.938-15.937-14.587-32.368-37.781-39.071-45.46-4.087-4.665-7.595-2.532-9.716-.157a10.5 10.5 0 0 0-2.423 5.3c-3.882 23.279-29.1-18.806-29.1-18.806-58.925 49.51-55.719 105.711-55.176 121.648a46.94 46.94 0 0 0 1.977 12.814c.241-.338.386-.518.386-.518a91.4 91.4 0 0 0 47.16 24.761c1.386-1.29 18.179-7.993 38.468-13.466a133.48 133.48 0 0 0 6.883-25.364q-8.481-5.877-16.527-12.3c-5.4-4.243-10.657-8.668-15.828-13.189-5.136-4.569-10.187-9.234-14.96-14.213-2.387-2.483-4.7-5.039-6.847-7.751a49.69 49.69 0 0 1-3-4.231 9.55 9.55 0 0 1-1.832-4.774 5.95 5.95 0 0 0 .916 2.314 18.97 18.97 0 0 0 1.435 2.1c1.06 1.33 2.186 2.605 3.375 3.821 2.327 2.483 4.8 4.846 7.281 7.185 4.991 4.665 10.09 9.222 15.226 13.743l15.431 13.562q7.739 6.763 15.334 13.731c16.624 11.019 27.088 11.947 27.088 11.947 20.011.8 52.367-35.816 52.367-35.816l16.274-15.226c3.048-3.04-6.524-22.099-9.646-25.993zm-143.01-16.009c-1.11 1.532-2.056 3.176-2.821 4.906-.801 1.72-1.435 3.512-1.893 5.353a47.32 47.32 0 0 0-1.061 5.811c-.711-1.95-.979-4.034-.784-6.1a17.1 17.1 0 0 1 1.531-6.064c.862-1.924 2.081-3.666 3.592-5.135a15.3 15.3 0 0 1 5.123-3.4c-1.3 1.615-2.616 3.026-3.689 4.629zm135.222 19.119l-6.606 4.81c-4.46 3.11-8.993 6.16-13.658 8.981s-9.391 5.558-14.249 8.041c-2.447 1.23-4.906 2.435-7.4 3.556a81.8 81.8 0 0 1-7.691 3.074l-.7.241-.53-.567-14.49-15.455c-2.411-2.58-4.882-5.1-7.342-7.631-2.435-2.568-4.943-5.051-7.426-7.57l-7.534-7.426-7.727-7.233q-3.906-3.6-8-6.932c-1.387-1.085-2.773-2.182-4.219-3.194a22.98 22.98 0 0 0-4.533-2.7 23.03 23.03 0 0 1 4.725 2.423c1.507.928 2.941 1.977 4.388 3a181.07 181.07 0 0 1 8.354 6.57c5.449 4.545 10.681 9.331 15.8 14.213s10.167 9.865 15.093 14.948c4.8 4.846 9.439 9.837 14.117 14.792a141.99 141.99 0 0 0 14.071-6.183c4.834-2.4 9.6-4.979 14.3-7.655l3.532-2.025 3.5-2.085c2.339-1.35 4.629-2.809 6.944-4.219l6.908-4.328 6.835-4.436q-3.2 2.531-6.449 4.991zm.735 268.226l-16.021-11.175h-.012l-4.46 1.5c-1.447.518-2.893 1-4.255 1.627a23.8 23.8 0 0 0-3.954 2.085c-1.262.863-2.405 1.889-3.4 3.05.396-1.61 1.25-3.072 2.459-4.207 1.215-1.121 2.614-2.027 4.135-2.676a19.37 19.37 0 0 1 4.665-1.314c1.591-.261 3.213-.281 4.81-.06l-9.451-6.7c-2.857 1.35-5.714 2.339-8.475 3.508a32.92 32.92 0 0 0-3.99 1.917c-1.331.644-2.406 1.719-3.05 3.05a3.82 3.82 0 0 1 .555-2.375 7.81 7.81 0 0 1 1.615-1.881 15.7 15.7 0 0 1 4.135-2.459 25 25 0 0 1 4.521-1.362 19.04 19.04 0 0 1 4.689-.4l-8.993-6.413c-.8.169-1.567.2-2.339.338s-1.519.2-2.254.373c-.374.084-.735.157-1.109.217l-1.085.289a21.61 21.61 0 0 0-2.134.639c-1.414.479-2.786 1.076-4.1 1.784-1.363.715-2.673 1.529-3.918 2.435.741-1.448 1.805-2.706 3.11-3.677 1.29-1.007 2.736-1.797 4.28-2.339a15.31 15.31 0 0 1 4.81-.82 13.41 13.41 0 0 1 4.738.759s.7-12.2-7.486-10.38a8.15 8.15 0 0 0-4.352 2.664c-2.363 2.712-8.294 8.089-16.733 5.678a13.36 13.36 0 0 1-8.511-7.523c-1.543-3.52-4.448-8.125-8.981-7.679-7.245.711-6.172 13.188-6.172 13.188s-.844 7.438-4.967 11.3a13.39 13.39 0 0 0-4.569 11.621c.8 5.449 4.906 10.862 18.83 9.114 0 0 9.741-1.844 30.753 7.957s50.173 18.288 54.646 1.422a3.99 3.99 0 0 0-2.1-3.99 4.19 4.19 0 0 0-2.315-.193 6.6 6.6 0 0 0-2.242.711c-1.05.542-1.958 1.323-2.652 2.279-.253.313-.506.687-.8.988a13.86 13.86 0 0 1-4.05 3.122 20.59 20.59 0 0 1-9.909 1.977 39.3 39.3 0 0 1-9.909-1.82h-.024l-.06-.024c-5.461-2.242-10.982-4.4-16.54-6.377-2.785-.989-5.582-1.929-8.4-2.761a35.87 35.87 0 0 0-8.487-1.676 41.29 41.29 0 0 1-8.921-1.579 86.83 86.83 0 0 1-8.523-2.761c-2.8-1.04-5.523-2.276-8.149-3.7a32.71 32.71 0 0 1-3.8-2.375 13.82 13.82 0 0 1-1.712-1.435c-.545-.512-1.023-1.092-1.422-1.724.934 1.15 2.064 2.126 3.339 2.881 1.245.787 2.542 1.489 3.882 2.1 2.681 1.222 5.426 2.301 8.222 3.231a88.24 88.24 0 0 0 8.5 2.4c2.828.692 5.713 1.124 8.619 1.29a39.71 39.71 0 0 1 2.315.145c.747.132 1.507.217 2.254.373l2.212.485 2.182.579c2.869.832 5.7 1.76 8.523 2.737q8.408 3.02 16.612 6.546a40.44 40.44 0 0 0 9.367 1.929c3.185.289 6.392-.221 9.331-1.483a12.95 12.95 0 0 0 3.834-2.737c.289-.289.518-.591.808-.9a9.38 9.38 0 0 1 .9-.928 7.89 7.89 0 0 1 2.158-1.4c.783-.356 1.624-.568 2.483-.627a4.81 4.81 0 0 1 2.532.373c.794.37 1.4 1.05 1.676 1.881a5.7 5.7 0 0 1 .265 2.459c0 0 4.187-4.777-7.976-13.071zm-60.107-8.812c-1.387 2.435-8.137 4.135-11.489-.06-3.882-4.882-7.824-6.425-6.438-8.849s6.534-2.4 11.489.06 7.836 6.425 6.438 8.848z"/><path d="M141.157 356.244l-.591 4.593-.542 5.28a13.06 13.06 0 0 1-1.326-5.316 26.98 26.98 0 0 1 .072-4.834l2.387.277zm-27.389-3.845l-.759 2.833a20.4 20.4 0 0 1-1.579 3.737c-.262-1.333-.359-2.693-.289-4.05a25.36 25.36 0 0 1 .289-2.881l2.338.361zM67.959 404.79a7.01 7.01 0 0 0-4.979-3.255l-6.341-.579q-3.183-.38-6.341-1.049c-4.26-.83-8.351-2.37-12.1-4.557a19.62 19.62 0 0 1-3.46-2.712c8.222 11.561 20.18 19.662 30.813 17.022.012 0 .024-.012.036-.012.955-.428 1.773-1.112 2.363-1.977a2.73 2.73 0 0 0 .009-2.881zm2.724-9.753c-5.1-6.4-11.115-6.377-10.271-11.79l.542-3.412-3.6-2.99c-1.193-.952-2.375-1.893-3.629-2.712a28.4 28.4 0 0 0-3.882-2.158 22.24 22.24 0 0 0-4.4-1.266c1.578-.477 3.254-.527 4.858-.145 1.595.409 3.11 1.082 4.484 1.989a19.19 19.19 0 0 1 3.6 3.231c1.068 1.199 1.935 2.563 2.568 4.038l1.772-10.922c-2.652-1.712-5-3.6-7.462-5.292-1.195-.859-2.452-1.628-3.761-2.3a7.66 7.66 0 0 0-4.231-.976c.681-.47 1.487-.726 2.314-.735.828-.019 1.653.091 2.447.326 1.536.476 2.987 1.192 4.3 2.122 1.289.912 2.485 1.951 3.568 3.1a18.06 18.06 0 0 1 2.821 3.761l1.712-10.415c-1.013-1.23-1.881-2.435-2.917-3.508-.977-1.084-2.05-2.077-3.207-2.966a25 25 0 0 0-3.653-2.435 43.1 43.1 0 0 0-4.1-1.989 10.94 10.94 0 0 1 4.689.639 14.24 14.24 0 0 1 7.45 5.847c.864 1.342 1.454 2.841 1.736 4.412 0 0 11.838-5.3 6.184-11.115a8.25 8.25 0 0 0-4.617-2.254c-3.677-.627-11.609-2.881-13.393-10.922a12.12 12.12 0 0 1 3-10.561c2.568-2.953 5.509-7.534 2.905-11.018-4.159-5.569-15.394 1.314-15.394 1.314s-7.414 2.881-13.031 1.374a15.92 15.92 0 0 0-13.14 1.857c-4.762 3.279-7.872 9.246.458 19.747 0 0 6.425 7.064 7.305 28.92a48.54 48.54 0 0 0 6.172 20.639 14.87 14.87 0 0 1-.422-1.639v-.036l-.012-.048c-.506-5.545-1.133-11.1-1.953-16.6-.4-2.749-.856-5.5-1.447-8.2a28.07 28.07 0 0 0-2.532-7.7 36.21 36.21 0 0 1-2.809-8.089 75.38 75.38 0 0 1-1.495-8.33 51.75 51.75 0 0 1-.434-8.427c.034-1.41.171-2.817.41-4.207.213-1.4.709-2.741 1.459-3.942a10.5 10.5 0 0 0-1.109 3.99 28.16 28.16 0 0 0-.133 4.159c.118 2.772.412 5.535.88 8.27a73.91 73.91 0 0 0 1.8 8.125c.705 2.64 1.678 5.201 2.905 7.643l.518.94c.181.338.326.675.482 1.013.277.675.518 1.362.735 2.037a43.5 43.5 0 0 1 1.109 4.123c.627 2.761 1.109 5.533 1.531 8.318.82 5.533 1.422 11.067 1.832 16.648l.012.084a13.02 13.02 0 0 0 2.351 5.353 18.39 18.39 0 0 0 4.46 4.111c3.552 2.212 7.453 3.805 11.537 4.713 4.141.926 8.331 1.622 12.549 2.085a7.57 7.57 0 0 1 5.184 3.761 3.25 3.25 0 0 1 .374 1.615 2.96 2.96 0 0 1-.555 1.555c-.642.818-1.491 1.451-2.459 1.832 1.23-.41 12.935-4.677 5.027-14.587zm-33.164-50c-2.953.024-7.812-4.665-5.461-9.4 2.737-5.521 2.279-9.488 5.244-9.512s5.4 4.171 5.461 9.4-2.29 9.472-5.243 9.508z"/><path d="M73.758 342.135l-2.5.928-5.256 2.049c1.226-1.523 2.737-2.792 4.448-3.737l2.688-1.447zm-6.944-25.111l-3.544.868a21.53 21.53 0 0 1-4.268.446 19.37 19.37 0 0 1 3.677-2.242c1.137-.534 2.306-.997 3.5-1.386z"/><path d="M100.379 217.082a229.93 229.93 0 0 1 26.925-6.507c4.565-.764 9.167-1.362 13.807-1.684a75.36 75.36 0 0 1 14.041.162 30.56 30.56 0 0 1 6.956 1.821 29.17 29.17 0 0 1 3.292 1.531 28.64 28.64 0 0 1 5.789 4.4c2.526 2.612 4.572 5.649 6.046 8.97a47.94 47.94 0 0 1 3.682 13.732 62.46 62.46 0 0 1 .18 14.169l-1.1-1.67a19.54 19.54 0 0 1 6.585 3.493 21.27 21.27 0 0 1 4.7 5.69 29.37 29.37 0 0 1 2.689 6.711c.618 2.327.981 4.714 1.082 7.119l-.008-.115a58.23 58.23 0 0 1-.205 14.06c-.326 2.338-.842 4.646-1.544 6.9a39.48 39.48 0 0 1-2.791 6.5 32.99 32.99 0 0 1-9.281 10.534c-3.78 2.819-8.112 4.808-12.713 5.837l.458-.488-2.154 19.371-2.056 19.38-.037.35-.3.146c-.785.337-1.618.545-2.469.616-.8.093-1.586.143-2.37.165-1.57.049-3.13.024-4.684-.038-3.11-.117-6.2-.361-9.288-.636-6.17-.527-12.3-1.388-18.438-2.164l-18.4-2.48-18.333-2.914-1.514-.24.28-1.548 1.664-9.2 2.119 1.784a59.11 59.11 0 0 1-9.4 2.4 136.83 136.83 0 0 1-9.448 1.389l-1.408.159-.395-1.4-8.3-29.515 1.963 1.343a64.84 64.84 0 0 1-19.14-.77 56.15 56.15 0 0 1-17.892-6.956c-5.503-3.322-10.407-7.548-14.505-12.5a51.99 51.99 0 0 1-2.911-3.834 36.82 36.82 0 0 1-1.32-2.049c-.474-.785-.739-1.44-1.118-2.166-.713-1.415-1.416-2.834-2.026-4.294l-.953-2.172-.851-2.216a76.61 76.61 0 0 1-4.724-37.253c.785-6.25 2.353-12.376 4.665-18.235 2.258-5.851 5.3-11.368 9.043-16.4l.278.205a76.29 76.29 0 0 0-12.086 34.638 73.37 73.37 0 0 0 .618 18.34 78.86 78.86 0 0 0 4.908 17.649l.864 2.126.964 2.085c.617 1.4 1.324 2.758 2.038 4.11.352.647.707 1.426 1.056 1.963a31.52 31.52 0 0 0 1.245 1.85 50.96 50.96 0 0 0 2.8 3.546c12.028 14.042 30.329 21.067 48.663 18.682l1.554-.165.409 1.508 8.025 29.6-1.8-1.246c3.058-.311 6.162-.725 9.2-1.251a56.32 56.32 0 0 0 8.865-2.146l2.647-.933-.528 2.717-1.783 9.174-1.234-1.788 18.232 3.254c3.033.577 6.085 1.009 9.131 1.5l9.142 1.44c6.1.949 12.181 2 18.313 2.664 3.059.351 6.123.67 9.185.862 1.531.1 3.062.162 4.58.153a24.67 24.67 0 0 0 2.254-.1 6.45 6.45 0 0 0 2.021-.439l-.339.5 2.235-19.362 2.137-19.374.043-.394.416-.094a31.73 31.73 0 0 0 12.09-5.816 31.05 31.05 0 0 0 8.533-10.285 37.7 37.7 0 0 0 2.451-6.246 41.71 41.71 0 0 0 1.264-6.6 55.84 55.84 0 0 0-.213-13.486h0l-.007-.111a30.76 30.76 0 0 0-1.188-6.43c-.597-2.091-1.442-4.102-2.518-5.991a18.28 18.28 0 0 0-4.09-4.8 16.48 16.48 0 0 0-5.5-2.9l-1.22-.426.121-1.244a64.76 64.76 0 0 0-.16-13.416 45.01 45.01 0 0 0-3.34-12.9 29.97 29.97 0 0 0-3.278-5.7c-.647-.878-1.344-1.718-2.087-2.516a25.92 25.92 0 0 0-5.113-4.024c-.952-.536-1.936-1.012-2.946-1.427a30.75 30.75 0 0 0-6.343-1.814 73.42 73.42 0 0 0-13.55-.539c-4.561.183-9.124.641-13.667 1.266a273.85 273.85 0 0 0-27.085 5.181zm-66.33 22.823a43.29 43.29 0 0 0 10.394-4.446 19.89 19.89 0 0 0 4.162-3.5c1.248-1.439 2.336-3.009 3.246-4.682a11.62 11.62 0 0 1-1.806 5.755 13.81 13.81 0 0 1-4.363 4.361 17.65 17.65 0 0 1-5.65 2.29 15.53 15.53 0 0 1-5.983.222zm13.307 0a57.53 57.53 0 0 1 6.991-5.079c2.426-1.56 4.966-2.933 7.6-4.107a56.8 56.8 0 0 1-6.991 5.079 57.55 57.55 0 0 1-7.6 4.107zm-13.136-19.39l-.7 16.64-.451 16.592.216 8.195.192 1.98.375 1.851 1.107 3.967c.646 2.488 1.767 4.827 3.3 6.89a7.86 7.86 0 0 0 6.148 2.943 20.22 20.22 0 0 0 7.569-1.559c2.53-1.009 4.975-2.217 7.313-3.614 4.8-2.725 9.515-5.678 14.209-8.645l14.139-8.845c4.77-2.862 9.571-5.71 14.629-8.122 5.038-2.563 10.366-4.51 15.87-5.8 2.87-.721 5.853-.872 8.781-.442a21.12 21.12 0 0 1 8.333 3.18 20.24 20.24 0 0 1 6.284 6.439 18.69 18.69 0 0 1 2.7 8.678 42.4 42.4 0 0 1-.045 4.338l-.266 4.2q-.3 4.194-.8 8.361a315.12 315.12 0 0 1-15.764 64.863l-.331-.1c5.234-21.59 10.024-43.266 12.445-65.19l.783-8.217c.118-1.37.183-2.741.271-4.111.048-1.353.184-2.8.116-3.983-.245-5.1-2.915-9.776-7.183-12.579a19.12 19.12 0 0 0-14.8-2.756c-5.363 1.042-10.596 2.663-15.608 4.836a180.19 180.19 0 0 0-28.941 16.185l-6.9 4.667-6.922 4.68a52.4 52.4 0 0 1-7.376 4.2 21.96 21.96 0 0 1-8.538 2.206 11.47 11.47 0 0 1-4.653-.923 10.72 10.72 0 0 1-3.807-2.907 21.23 21.23 0 0 1-3.884-8c-.4-1.374-.73-2.744-1.071-4.07-.167-.677-.284-1.494-.42-2.235l-.179-2.167c-.126-2.855-.083-5.659.035-8.452a308.73 308.73 0 0 1 3.48-33.208z"/><path d="M65.814 313.394q5.63-3.69 10.907-7.839 5.291-4.123 10.3-8.567c3.323-2.978 6.585-6.023 9.691-9.218 3.135-3.168 6.109-6.485 9.016-9.856l2.97-3.444-1 4.435-3.566 15.171-3.709 15.138q-1.9 7.559-3.875 15.1l-4.12 15.042 2.963-15.312q1.556-7.639 3.208-15.255l3.374-15.216 3.517-15.182 1.968.991c-2.978 3.394-6 6.759-9.261 9.876-3.205 3.176-6.586 6.168-10.065 9.031-3.461 2.885-7.088 5.566-10.8 8.112a115.13 115.13 0 0 1-11.523 6.995zm113.757-59.909c-.461 5.473-1.146 10.907-1.909 16.327l-2.539 16.219-3.039 16.133c-1.111 5.361-2.273 10.712-3.675 16.023.458-5.473 1.142-10.908 1.906-16.328s1.632-10.823 2.542-16.218l3.042-16.132c1.111-5.361 2.273-10.713 3.672-16.024zM2.96 241.547q3.31-.3 6.62-.482l.392-.022.087.444 2.248 10.8c.769 3.593 1.643 7.157 2.56 10.7.943 3.536 1.937 7.056 3.189 10.468.575 1.728 1.287 3.392 2.017 5.043l1.187 2.423 1.4 2.279.37.6-.43.422c-.729.725-1.411 1.495-2.043 2.305a30.3 30.3 0 0 0-1.787 2.553 21.67 21.67 0 0 0-1.4 2.789 13.69 13.69 0 0 0-.794 3.052 11.89 11.89 0 0 1 .294-3.208 17.73 17.73 0 0 1 1.073-3.073c.455-.989.98-1.944 1.571-2.858a24.89 24.89 0 0 1 1.95-2.656l-.06 1.024a38.3 38.3 0 0 1-5.38-9.933c-1.345-3.48-2.461-7.045-3.339-10.671-.918-3.6-1.646-7.246-2.248-10.9-.578-3.664-1.062-7.334-1.331-11.041l.478.422q-3.314-.184-6.624-.48zm116.378-219.34s7.937-1.465 3.865-10.5S96.888-2.893 73.598 1.57 56.127 20.923 57.657 27.597s7.238 38.72 13.568 29.617c0 0 4.954-8.76 4.947-9.874s-4.988-7.991-3.99-13.527c.622-3.452 4.74-6.038 8.01-1.548a12.49 12.49 0 0 1 2.266 7.953 81.6 81.6 0 0 1-1.143 9.835c-1.572 9.22.466 14.108 2.454 17.028s19.821 20.413 26.97 15.123c0 0 10.382-15.821 9.423-20.456s-5.272.184-7.495.942-13.373 4.806-21.39-5.612c0 0-6.557-8.682-3.184-15.166s.079-15.783 1.249-18.538 1.238-3.647 5.1-3.971c8.403-.802 16.881.153 24.896 2.803z"/><path d="M119.338 22.207a21.79 21.79 0 0 1 3.942 11.054c.062 1.004.049 2.012-.039 3.014l-.2 2.88-.333 5.735-.037 2.8a4.18 4.18 0 0 0 .1.889c.159.246.506.63.8.981a19.4 19.4 0 0 1 3.531 4.945 3.11 3.11 0 0 1 .212 1.916c-.157.663-.561 1.241-1.131 1.615-.482.26-.996.456-1.528.585l-1.409.41-1.445.338a8.52 8.52 0 0 1-.757.116c-.146.013-.278.089-.362.209a2.72 2.72 0 0 0-.393 1.25 8.3 8.3 0 0 0-.067 1.441 4.8 4.8 0 0 1-.068-3.007c.147-.313.427-.543.762-.627.225-.059.432-.129.656-.21l1.319-.539 1.319-.574a5.67 5.67 0 0 0 1.123-.571 1.25 1.25 0 0 0 .414-.76 1.47 1.47 0 0 0-.23-.9 21.24 21.24 0 0 0-3.5-4.224c-.385-.385-.738-.8-1.055-1.243-.207-.334-.337-.71-.38-1.1a8.67 8.67 0 0 1-.082-.818c-.059-1.036-.044-2.016-.014-3l.463-5.838.361-2.893.243-2.775c-.003-3.807-.756-7.576-2.217-11.092zm-5.526 25.133c.678.023 1.303-.367 1.578-.988s.147-1.345-.324-1.833-1.192-.641-1.821-.387-1.041.865-1.041 1.544c0 .897.711 1.633 1.608 1.664z"/><path d="M122.403 43.456a1.5 1.5 0 0 0-1.871-1.405l-2.112-.714-6.217-1.943-6.255-1.758c-4.185-1.126-8.413-2.112-12.655-3-4.262-.913-8.567-1.608-12.9-2.083 3.995 1.74 8.076 3.275 12.227 4.6 4.128 1.353 8.284 2.6 12.472 3.7l6.3 1.586c2.117.471 4.226 1 6.353 1.4l.08.016c-1.8 1.788-3.446 4.95-3.035 10.493.036.709.343 1.376.856 1.866 1.145 1.04 3.438 1.23 6.182-8.665a15.35 15.35 0 0 0 .576-4.092zm-42.69 7.754c-1.037-.145-2.013-.575-2.82-1.241-.838-.7-1.479-1.607-1.86-2.631l1.066-.306a5.45 5.45 0 0 0 1.18 2.539 5.39 5.39 0 0 0 2.433 1.639zm-9.878 7.37c-.037 4.029-.484 8.043-1.334 11.981-.412 1.982-.976 3.928-1.688 5.823a17.59 17.59 0 0 1-1.318 2.758c-.492.907-1.233 1.655-2.135 2.156a5.85 5.85 0 0 0 1.652-2.412c.382-.909.71-1.839.981-2.787.555-1.9 1.011-3.831 1.423-5.776l2.418-11.743z"/></svg>