<svg xmlns="http://www.w3.org/2000/svg" width="313.164" height="420.809" viewBox="0 0 313.164 420.809">
  <g id="man-taking-photo" transform="translate(-224.696 -106.615)">
    <path id="Path_22729" data-name="Path 22729" d="M385.092,227.9a51.2,51.2,0,0,1-5.87-8.652,30.436,30.436,0,0,1-3.549-10.042.937.937,0,0,1,.123-.611l.017-.028a61.63,61.63,0,0,1,5.173-7.38,49.918,49.918,0,0,1,6.267-6.487,28.134,28.134,0,0,1,7.676-4.834,13.756,13.756,0,0,1,8.888-.751,15.363,15.363,0,0,0-8.352,1.915,30.274,30.274,0,0,0-3.619,2.322c-1.146.87-2.228,1.825-3.291,2.8a64.451,64.451,0,0,0-5.861,6.416,80.418,80.418,0,0,0-5.091,7.058l.14-.639a34.451,34.451,0,0,0,2.77,9.641c.655,1.58,1.4,3.127,2.161,4.676C383.451,224.844,384.24,226.384,385.092,227.9Zm75.322-60.3-2.435,16.407-.084-.012a31.893,31.893,0,0,0-2.085,5.835c-.289.977-.458,1.977-.7,2.965l-.518,2.99a56.205,56.205,0,0,0-.555,6.052,31.488,31.488,0,0,0,.289,6.184l.084.012L451.276,229.2l-24.954-3.7c1.314-1.555,3.592-3.339,3.6-6.016,0,0,7.438-5.762,4.641-11.428,0,0,17.311-1.676,18.215-7.775s-20.711-.482-20.711-.482-14.406,4.943-20.433,2.881c-1.6-.543-3.219-.723-3.279-3l.4-2.724,1.712-11.549,3.665-24.677Z" transform="translate(37.673 13.504)" fill="#5504b0"/>
    <path id="Path_22730" data-name="Path 22730" d="M453.336,181.013l-.579,3.906-.1-.012a12.474,12.474,0,0,0-1.712,3.424c-.241.579-.35,1.181-.53,1.76-.133.6-.229,1.193-.338,1.8a20.378,20.378,0,0,0-.2,3.641,12.8,12.8,0,0,0,.651,3.773l.084.012v.012l-.844,5.714-11.006-1.64L440.63,191.4l1.7-12.019-.1-.024Z" transform="translate(53.418 18.153)" fill="#5504b0"/>
    <path id="Path_22731" data-name="Path 22731" d="M457.069,191.464a20.073,20.073,0,0,1-2.508,7.679l-6.22-.916-.1-.012V198.2l2.146-14.394.084.012,6.221.928a19.8,19.8,0,0,1,.374,6.715Z" transform="translate(55.785 19.263)" fill="#5504b0"/>
    <rect id="Rectangle_21027" data-name="Rectangle 21027" width="11.01" height="5.564" transform="matrix(0.989, 0.147, -0.147, 0.989, 475.404, 172.114)" fill="#5504b0"/>
    <rect id="Rectangle_21028" data-name="Rectangle 21028" width="5.504" height="5.564" transform="matrix(0.989, 0.147, -0.147, 0.989, 495.856, 184.382)" fill="#5504b0"/>
    <path id="Path_22732" data-name="Path 22732" d="M433.506,144.345a21.973,21.973,0,0,1,1.084,3.8,36.106,36.106,0,0,1,.585,3.849,35.582,35.582,0,0,1,.188,3.888,21.727,21.727,0,0,1-.317,3.939,21.719,21.719,0,0,1-1.087-3.8,35.574,35.574,0,0,1-.582-3.849,36.048,36.048,0,0,1-.185-3.888A21.964,21.964,0,0,1,433.506,144.345Zm10.173-2.23a31.539,31.539,0,0,1,.006,4.747c-.087,1.569-.279,3.123-.491,4.674-.245,1.546-.513,3.088-.885,4.615a31.176,31.176,0,0,1-1.387,4.541,31.193,31.193,0,0,1-.009-4.748c.087-1.569.279-3.123.493-4.673.247-1.545.515-3.088.888-4.615A31.548,31.548,0,0,1,443.678,142.115Zm3.9,17.551a16.918,16.918,0,0,1,.692-3.387,27.392,27.392,0,0,1,1.153-3.189,27.01,27.01,0,0,1,1.519-3.031,16.727,16.727,0,0,1,1.985-2.831,16.734,16.734,0,0,1-.689,3.388,27.01,27.01,0,0,1-1.155,3.188,27.39,27.39,0,0,1-1.522,3.03A16.911,16.911,0,0,1,447.58,159.666Zm49.662,35.862a23.02,23.02,0,0,1-3.919,1.008,37.911,37.911,0,0,1-3.957.507,37.4,37.4,0,0,1-3.988.109,22.767,22.767,0,0,1-4.027-.4,22.777,22.777,0,0,1,3.918-1.01,37.4,37.4,0,0,1,3.958-.5,37.884,37.884,0,0,1,3.988-.107,23.035,23.035,0,0,1,4.027.394Zm2.274,9.947a33.281,33.281,0,0,1-4.877-.059c-1.612-.109-3.207-.322-4.8-.555-1.587-.267-3.17-.556-4.736-.949a32.9,32.9,0,0,1-4.657-1.45,32.906,32.906,0,0,1,4.877.056c1.612.109,3.207.322,4.8.557,1.586.269,3.169.558,4.736.951A33.27,33.27,0,0,1,499.515,205.475Zm-18.027,3.49a17.706,17.706,0,0,1,3.466.71,28.717,28.717,0,0,1,3.269,1.172,28.356,28.356,0,0,1,3.113,1.54,17.506,17.506,0,0,1,2.915,2.006,17.5,17.5,0,0,1-3.467-.708,28.323,28.323,0,0,1-3.268-1.175,28.718,28.718,0,0,1-3.112-1.542,17.689,17.689,0,0,1-2.916-2ZM378.423,222.417a17.13,17.13,0,0,0,4.262-3.828,16.056,16.056,0,0,0,1.539-2.378c.435-.821.791-1.71,1.2-2.612,1.587-3.574,3.13-7.185,5.048-10.672a29.368,29.368,0,0,1,3.4-5.043,24.03,24.03,0,0,1,4.58-4.088,30.739,30.739,0,0,1,5.3-2.984,30.089,30.089,0,0,1,5.791-1.947l.014,0a1.205,1.205,0,0,1,1.436.918,1.223,1.223,0,0,1,.012.454c-.628,3.841-1.376,7.664-2.059,11.5l-.009.051-.01.043a7.241,7.241,0,0,0-.411,3.119,1.459,1.459,0,0,0,.663,1,6.682,6.682,0,0,0,1.483.639c.6.229,1.088.342,1.633.5.566.06,1.118.191,1.7.2a21.511,21.511,0,0,0,3.49-.076,61.309,61.309,0,0,0,13.752-3.245l.029-.009.009,0a97.6,97.6,0,0,1,10.634-2.335,35.972,35.972,0,0,1,5.521-.485,12.389,12.389,0,0,1,2.928.317,4.96,4.96,0,0,1,1.561.685,2.907,2.907,0,0,1,1.231,1.658,4.3,4.3,0,0,1-.8,3.511,8.749,8.749,0,0,1-2.281,2.141,21.24,21.24,0,0,1-5.2,2.4,58.449,58.449,0,0,1-10.834,2.311l1.161-2.085a8.1,8.1,0,0,1,.783,4,9.944,9.944,0,0,1-1.125,3.722,15.469,15.469,0,0,1-2.072,3.021,20.052,20.052,0,0,1-2.592,2.536l.592-1.2a6.789,6.789,0,0,1-1.246,3.776,19.741,19.741,0,0,1-2.213,2.584,12.139,12.139,0,0,0-.9,1.032,1.785,1.785,0,0,0-.208.355.379.379,0,0,0-.028.089l-.045.336a11.95,11.95,0,0,1-.727,3.442,12.55,12.55,0,0,1-4.577,5.276q-.69.472-1.393.912c-.506.28-.884.536-1.494.835a7.533,7.533,0,0,1-1.815.512c-.557.094-1.1.163-1.644.221-2.156.223-4.269.277-6.376.322l-3.141.092-.776.038a5.481,5.481,0,0,0-.654.112c-.479.1-.984.24-1.481.382-3.982,1.2-8.033,2.473-11.918,4l-.016.007a.142.142,0,0,1-.122-.256c1.861-1.055,3.792-1.884,5.721-2.752,1.935-.85,3.872-1.685,5.882-2.4.5-.182,1-.358,1.545-.515a6.736,6.736,0,0,1,.89-.208l.8-.1,3.159-.314c2.093-.209,4.185-.384,6.209-.663.5-.075,1-.16,1.474-.262a5.516,5.516,0,0,0,1.2-.377c.328-.174.823-.514,1.226-.762.411-.284.817-.574,1.212-.869a9.96,9.96,0,0,0,3.461-4.241,10.441,10.441,0,0,0,.471-2.733l.051-.447a3.278,3.278,0,0,1,.167-.674,4.557,4.557,0,0,1,.541-1.029,14.159,14.159,0,0,1,1.138-1.374c1.488-1.551,2.594-2.95,2.572-4.359a1.463,1.463,0,0,1,.541-1.16l.051-.041a17.316,17.316,0,0,0,2.153-2.1,12.466,12.466,0,0,0,1.69-2.438,7.638,7.638,0,0,0,.85-2.578,5.157,5.157,0,0,0-.416-2.458l-.033-.079a1.452,1.452,0,0,1,.779-1.9,1.5,1.5,0,0,1,.415-.105,55.853,55.853,0,0,0,10.314-1.942,21.135,21.135,0,0,0,4.654-1.956,6.446,6.446,0,0,0,1.713-1.449,2.2,2.2,0,0,0,.542-1.544c.008-.283-.488-.652-1.216-.879a10.424,10.424,0,0,0-2.41-.407,34.29,34.29,0,0,0-5.252.131,86.157,86.157,0,0,0-10.57,1.734l.038-.011c-2.3.717-4.6,1.336-6.923,1.892a63.4,63.4,0,0,1-7.071,1.293,26.338,26.338,0,0,1-3.63.209c-.61.017-1.232-.1-1.849-.139-.6-.141-1.283-.262-1.808-.429a7.77,7.77,0,0,1-1.827-.662,2.919,2.919,0,0,1-1.392-1.8,8.532,8.532,0,0,1,.179-3.922l-.019.093c.458-3.866.851-7.742,1.364-11.6l1.463,1.369a35.567,35.567,0,0,0-10.186,4.615,22.446,22.446,0,0,0-4.213,3.617,27.09,27.09,0,0,0-3.3,4.55c-2,3.279-3.812,6.738-5.607,10.208a16.774,16.774,0,0,1-8.19,8.434.143.143,0,0,1-.135-.251Z" transform="translate(38.345 8.859)" fill="#5504b0"/>
    <path id="Path_22733" data-name="Path 22733" d="M469.9,208.385l-11.116-.255,10.909-2.147a1.213,1.213,0,1,1,.468,2.38,1.262,1.262,0,0,1-.262.023Zm-54.255,10.637c-3.122-3.894-4.1-13.6-4.1-13.6-9.27,2.772-32.38,26.16-41.373,17.938-15.937-14.587-32.368-37.781-39.071-45.46-4.087-4.665-7.595-2.532-9.716-.157a10.5,10.5,0,0,0-2.423,5.3c-3.882,23.279-29.1-18.806-29.1-18.806-58.925,49.51-55.719,105.711-55.176,121.648a46.941,46.941,0,0,0,1.977,12.814c.241-.338.386-.518.386-.518a91.4,91.4,0,0,0,47.16,24.761c1.386-1.29,18.179-7.993,38.468-13.466a133.481,133.481,0,0,0,6.883-25.364q-8.481-5.877-16.527-12.3c-5.4-4.243-10.657-8.668-15.828-13.189-5.136-4.569-10.187-9.234-14.96-14.213-2.387-2.483-4.7-5.039-6.847-7.751a49.689,49.689,0,0,1-3-4.231,9.55,9.55,0,0,1-1.832-4.774,5.948,5.948,0,0,0,.916,2.314,18.97,18.97,0,0,0,1.435,2.1,50.566,50.566,0,0,0,3.375,3.821c2.327,2.483,4.8,4.846,7.281,7.185,4.991,4.665,10.09,9.222,15.226,13.743l15.431,13.562q7.739,6.763,15.334,13.731c16.624,11.019,27.088,11.947,27.088,11.947,20.011.8,52.367-35.816,52.367-35.816l16.274-15.226C428.341,241.975,418.769,222.916,415.647,219.022Zm-143.01-16.009a26.915,26.915,0,0,0-2.821,4.906,29.654,29.654,0,0,0-1.893,5.353,47.32,47.32,0,0,0-1.061,5.811,13.973,13.973,0,0,1-.784-6.1,17.1,17.1,0,0,1,1.531-6.064,16.657,16.657,0,0,1,3.592-5.135,15.3,15.3,0,0,1,5.123-3.4c-1.3,1.615-2.616,3.026-3.689,4.629Zm135.222,19.119c-2.206,1.6-4.376,3.243-6.606,4.81-4.46,3.11-8.993,6.16-13.658,8.981s-9.391,5.558-14.249,8.041c-2.447,1.23-4.906,2.435-7.4,3.556a81.8,81.8,0,0,1-7.691,3.074l-.7.241-.53-.567c-4.81-5.172-9.62-10.343-14.49-15.455-2.411-2.58-4.882-5.1-7.342-7.631-2.435-2.568-4.943-5.051-7.426-7.57s-5.027-4.943-7.534-7.426c-2.556-2.435-5.123-4.858-7.727-7.233q-3.906-3.6-8-6.932c-1.387-1.085-2.773-2.182-4.219-3.194a22.979,22.979,0,0,0-4.533-2.7,23.029,23.029,0,0,1,4.725,2.423c1.507.928,2.941,1.977,4.388,3,2.845,2.11,5.642,4.3,8.354,6.57,5.449,4.545,10.681,9.331,15.8,14.213s10.167,9.865,15.093,14.948c4.8,4.846,9.439,9.837,14.117,14.792A141.992,141.992,0,0,0,372.3,241.89c4.834-2.4,9.6-4.979,14.3-7.655l3.532-2.025,3.5-2.085c2.339-1.35,4.629-2.809,6.944-4.219l6.908-4.328c2.266-1.495,4.533-2.978,6.835-4.436q-3.2,2.531-6.449,4.991Zm.735,268.226c-4.5-3.074-10.392-7.2-16.021-11.175h-.012l-4.46,1.5c-1.447.518-2.893,1-4.255,1.627a23.8,23.8,0,0,0-3.954,2.085,17.457,17.457,0,0,0-3.4,3.05,8.584,8.584,0,0,1,2.459-4.207,14.487,14.487,0,0,1,4.135-2.676,19.37,19.37,0,0,1,4.665-1.314,16.085,16.085,0,0,1,4.81-.06c-3.363-2.375-6.63-4.689-9.451-6.7-2.857,1.35-5.714,2.339-8.475,3.508a32.919,32.919,0,0,0-3.99,1.917,6.564,6.564,0,0,0-3.05,3.05,3.82,3.82,0,0,1,.555-2.375,7.812,7.812,0,0,1,1.615-1.881,15.7,15.7,0,0,1,4.135-2.459,25,25,0,0,1,4.521-1.362,19.039,19.039,0,0,1,4.689-.4c-5.256-3.725-8.993-6.413-8.993-6.413-.8.169-1.567.2-2.339.338s-1.519.2-2.254.373c-.374.084-.735.157-1.109.217l-1.085.289a21.61,21.61,0,0,0-2.134.639,26.674,26.674,0,0,0-4.1,1.784,31.715,31.715,0,0,0-3.918,2.435,10.616,10.616,0,0,1,3.11-3.677,15.074,15.074,0,0,1,4.28-2.339,15.31,15.31,0,0,1,4.81-.82,13.411,13.411,0,0,1,4.738.759s.7-12.2-7.486-10.38a8.152,8.152,0,0,0-4.352,2.664c-2.363,2.712-8.294,8.089-16.733,5.678a13.359,13.359,0,0,1-8.511-7.523c-1.543-3.52-4.448-8.125-8.981-7.679-7.245.711-6.172,13.188-6.172,13.188s-.844,7.438-4.967,11.3a13.388,13.388,0,0,0-4.569,11.621c.8,5.449,4.906,10.862,18.83,9.114,0,0,9.741-1.844,30.753,7.957s50.173,18.288,54.646,1.422a3.989,3.989,0,0,0-2.1-3.99,4.191,4.191,0,0,0-2.315-.193,6.6,6.6,0,0,0-2.242.711,7.563,7.563,0,0,0-2.652,2.279c-.253.313-.506.687-.8.988a13.858,13.858,0,0,1-4.05,3.122,20.588,20.588,0,0,1-9.909,1.977,39.3,39.3,0,0,1-9.909-1.82h-.024l-.06-.024c-5.461-2.242-10.982-4.4-16.54-6.377-2.785-.989-5.582-1.929-8.4-2.761a35.871,35.871,0,0,0-8.487-1.676,41.289,41.289,0,0,1-8.921-1.579,86.831,86.831,0,0,1-8.523-2.761,63.475,63.475,0,0,1-8.149-3.7,32.708,32.708,0,0,1-3.8-2.375,13.818,13.818,0,0,1-1.712-1.435,8.876,8.876,0,0,1-1.422-1.724,12.526,12.526,0,0,0,3.339,2.881,32.485,32.485,0,0,0,3.882,2.1,83.087,83.087,0,0,0,8.222,3.231,88.238,88.238,0,0,0,8.5,2.4,47.716,47.716,0,0,0,8.619,1.29c.7.024,1.555.072,2.315.145.747.132,1.507.217,2.254.373L355.9,495l2.182.579c2.869.832,5.7,1.76,8.523,2.737q8.408,3.02,16.612,6.546a40.44,40.44,0,0,0,9.367,1.929,19.233,19.233,0,0,0,9.331-1.483,12.951,12.951,0,0,0,3.834-2.737c.289-.289.518-.591.808-.9a9.381,9.381,0,0,1,.9-.928,7.89,7.89,0,0,1,2.158-1.4,7.183,7.183,0,0,1,2.483-.627,4.81,4.81,0,0,1,2.532.373,3.184,3.184,0,0,1,1.676,1.881,5.7,5.7,0,0,1,.265,2.459S420.758,498.652,408.595,490.358Zm-60.107-8.812c-1.387,2.435-8.137,4.135-11.489-.06-3.882-4.882-7.824-6.425-6.438-8.849s6.534-2.4,11.489.06,7.836,6.425,6.438,8.848Z" transform="translate(2.442 14.381)" fill="#5504b0"/>
    <path id="Path_22734" data-name="Path 22734" d="M363.412,400.862l-.591,4.593c-.2,1.736-.458,3.46-.542,5.28a13.061,13.061,0,0,1-1.326-5.316,26.982,26.982,0,0,1,.072-4.834C361.833,400.682,362.629,400.778,363.412,400.862Zm-27.389-3.845c-.217.952-.458,1.893-.759,2.833a20.4,20.4,0,0,1-1.579,3.737,16.594,16.594,0,0,1-.289-4.05,25.358,25.358,0,0,1,.289-2.881C334.456,396.776,335.228,396.9,336.023,397.017Zm-45.809,52.391a7.012,7.012,0,0,0-4.979-3.255c-2.037-.265-4.231-.3-6.341-.579q-3.183-.38-6.341-1.049a38.713,38.713,0,0,1-12.1-4.557,19.619,19.619,0,0,1-3.46-2.712c8.222,11.561,20.18,19.662,30.813,17.022.012,0,.024-.012.036-.012a5.656,5.656,0,0,0,2.363-1.977A2.728,2.728,0,0,0,290.214,449.408Zm2.724-9.753c-5.1-6.4-11.115-6.377-10.271-11.79.181-1.133.362-2.279.542-3.412l-3.6-2.99c-1.193-.952-2.375-1.893-3.629-2.712a28.4,28.4,0,0,0-3.882-2.158,22.242,22.242,0,0,0-4.4-1.266,9.333,9.333,0,0,1,4.858-.145,14.825,14.825,0,0,1,4.484,1.989,19.19,19.19,0,0,1,3.6,3.231,14.913,14.913,0,0,1,2.568,4.038c.615-3.87,1.23-7.655,1.772-10.922-2.652-1.712-5-3.6-7.462-5.292a29.673,29.673,0,0,0-3.761-2.3,7.661,7.661,0,0,0-4.231-.976,4.155,4.155,0,0,1,2.314-.735,7.947,7.947,0,0,1,2.447.326,15.255,15.255,0,0,1,4.3,2.122,23.766,23.766,0,0,1,3.568,3.1,18.058,18.058,0,0,1,2.821,3.761c.988-6.075,1.712-10.415,1.712-10.415-1.013-1.23-1.881-2.435-2.917-3.508a23.984,23.984,0,0,0-3.207-2.966,25,25,0,0,0-3.653-2.435,43.1,43.1,0,0,0-4.1-1.989,10.939,10.939,0,0,1,4.689.639,14.238,14.238,0,0,1,7.45,5.847,12.114,12.114,0,0,1,1.736,4.412s11.838-5.3,6.184-11.115a8.25,8.25,0,0,0-4.617-2.254c-3.677-.627-11.609-2.881-13.393-10.922a12.122,12.122,0,0,1,3-10.561c2.568-2.953,5.509-7.534,2.905-11.018-4.159-5.569-15.394,1.314-15.394,1.314s-7.414,2.881-13.031,1.374a15.919,15.919,0,0,0-13.14,1.857c-4.762,3.279-7.872,9.246.458,19.747,0,0,6.425,7.064,7.305,28.92a48.541,48.541,0,0,0,6.172,20.639,14.871,14.871,0,0,1-.422-1.639v-.036l-.012-.048c-.506-5.545-1.133-11.1-1.953-16.6-.4-2.749-.856-5.5-1.447-8.2a28.07,28.07,0,0,0-2.532-7.7,36.211,36.211,0,0,1-2.809-8.089,75.38,75.38,0,0,1-1.495-8.33,51.751,51.751,0,0,1-.434-8.427,28.923,28.923,0,0,1,.41-4.207,10.386,10.386,0,0,1,1.459-3.942,10.5,10.5,0,0,0-1.109,3.99,28.159,28.159,0,0,0-.133,4.159,65.655,65.655,0,0,0,.88,8.27,73.908,73.908,0,0,0,1.8,8.125,40.056,40.056,0,0,0,2.905,7.643l.518.94c.181.338.326.675.482,1.013.277.675.518,1.362.735,2.037.446,1.375.808,2.749,1.109,4.123.627,2.761,1.109,5.533,1.531,8.318.82,5.533,1.422,11.067,1.832,16.648l.012.084a13.019,13.019,0,0,0,2.351,5.353,18.392,18.392,0,0,0,4.46,4.111,37.007,37.007,0,0,0,11.537,4.713,114.914,114.914,0,0,0,12.549,2.085,7.571,7.571,0,0,1,5.184,3.761,3.252,3.252,0,0,1,.374,1.615,2.96,2.96,0,0,1-.555,1.555,5.854,5.854,0,0,1-2.459,1.832c1.23-.41,12.935-4.677,5.027-14.587Zm-33.164-50c-2.953.024-7.812-4.665-5.461-9.4,2.737-5.521,2.279-9.488,5.244-9.512s5.4,4.171,5.461,9.4S262.728,389.615,259.775,389.651Z" transform="translate(2.441 61.997)" fill="#5504b0"/>
    <path id="Path_22735" data-name="Path 22735" d="M286.671,385.9l-2.5.928c-1.736.663-3.484,1.254-5.256,2.049a15.045,15.045,0,0,1,4.448-3.737c.88-.519,1.772-1.013,2.688-1.447Zm-6.944-25.111c-1.169.338-2.351.639-3.544.868a21.528,21.528,0,0,1-4.268.446,19.371,19.371,0,0,1,3.677-2.242,30.136,30.136,0,0,1,3.5-1.386Z" transform="translate(11.783 62.85)" fill="#5504b0"/>
    <path id="Path_22736" data-name="Path 22736" d="M325.075,282.484A229.932,229.932,0,0,1,352,275.977c4.565-.764,9.167-1.362,13.807-1.684a75.356,75.356,0,0,1,14.041.162,30.559,30.559,0,0,1,6.956,1.821,29.168,29.168,0,0,1,3.292,1.531,28.64,28.64,0,0,1,5.789,4.4,30.987,30.987,0,0,1,6.046,8.97,47.965,47.965,0,0,1,3.682,13.732,62.476,62.476,0,0,1,.18,14.169l-1.1-1.67a19.54,19.54,0,0,1,6.585,3.493,21.264,21.264,0,0,1,4.7,5.69,29.365,29.365,0,0,1,2.689,6.711,33.156,33.156,0,0,1,1.082,7.119l-.008-.115a58.228,58.228,0,0,1-.205,14.06,43.347,43.347,0,0,1-1.544,6.9,39.555,39.555,0,0,1-2.791,6.5A32.992,32.992,0,0,1,405.92,378.3a33.494,33.494,0,0,1-12.713,5.837l.458-.488c-.734,6.455-1.491,12.908-2.154,19.371L389.455,422.4l-.037.35-.3.146a7.947,7.947,0,0,1-2.469.616c-.8.093-1.586.143-2.37.165-1.57.049-3.13.024-4.684-.038-3.11-.117-6.2-.361-9.288-.636-6.17-.527-12.3-1.388-18.438-2.164-6.132-.823-12.293-1.478-18.4-2.48l-18.333-2.914-1.514-.24.28-1.548,1.664-9.2,2.119,1.784a59.087,59.087,0,0,1-9.4,2.4c-3.141.577-6.262,1.03-9.448,1.389l-1.408.159-.395-1.4-8.3-29.515,1.963,1.343a64.838,64.838,0,0,1-19.14-.77,56.152,56.152,0,0,1-17.892-6.956,57.214,57.214,0,0,1-14.505-12.5c-1.024-1.232-2-2.505-2.911-3.834-.46-.662-.895-1.342-1.32-2.049-.474-.785-.739-1.44-1.118-2.166-.713-1.415-1.416-2.834-2.026-4.294l-.953-2.172-.851-2.216a76.613,76.613,0,0,1-4.724-37.253,75.213,75.213,0,0,1,4.665-18.235,69.244,69.244,0,0,1,9.043-16.4l.278.205a76.293,76.293,0,0,0-12.086,34.638,73.355,73.355,0,0,0,.618,18.34,78.861,78.861,0,0,0,4.908,17.649l.864,2.126.964,2.085c.617,1.4,1.324,2.758,2.038,4.11.352.647.707,1.426,1.056,1.963.389.618.8,1.243,1.245,1.85.873,1.221,1.816,2.4,2.8,3.546a54.772,54.772,0,0,0,48.663,18.682l1.554-.165.409,1.508,8.025,29.6-1.8-1.246c3.058-.311,6.162-.725,9.2-1.251a56.321,56.321,0,0,0,8.865-2.146l2.647-.933-.528,2.717-1.783,9.174-1.234-1.788L333.9,415.69c3.033.577,6.085,1.009,9.131,1.5l9.142,1.44c6.1.949,12.181,2,18.313,2.664,3.059.351,6.123.67,9.185.862,1.531.1,3.062.162,4.58.153.759,0,1.515-.032,2.254-.1a6.452,6.452,0,0,0,2.021-.439l-.339.5,2.235-19.362c.767-6.452,1.44-12.914,2.137-19.374l.043-.394.416-.094a31.726,31.726,0,0,0,12.09-5.816,31.034,31.034,0,0,0,8.533-10.285,37.7,37.7,0,0,0,2.451-6.246,41.673,41.673,0,0,0,1.264-6.6,55.841,55.841,0,0,0-.213-13.486v0l-.007-.111a30.747,30.747,0,0,0-1.188-6.43,27.175,27.175,0,0,0-2.518-5.991,18.278,18.278,0,0,0-4.09-4.8,16.465,16.465,0,0,0-5.5-2.9l-1.22-.426.121-1.244a64.763,64.763,0,0,0-.16-13.416,44.994,44.994,0,0,0-3.34-12.9,29.968,29.968,0,0,0-3.278-5.7,28.405,28.405,0,0,0-2.087-2.516,25.919,25.919,0,0,0-5.113-4.024,26.547,26.547,0,0,0-2.946-1.427,30.752,30.752,0,0,0-6.343-1.814,73.417,73.417,0,0,0-13.55-.539c-4.561.183-9.124.641-13.667,1.266a273.852,273.852,0,0,0-27.085,5.181Z" transform="translate(0 41.213)" fill="#5504b0"/>
    <path id="Path_22737" data-name="Path 22737" d="M251.945,301.131a43.288,43.288,0,0,0,10.394-4.446,19.89,19.89,0,0,0,4.162-3.5,26.384,26.384,0,0,0,3.246-4.682,11.614,11.614,0,0,1-1.806,5.755,13.812,13.812,0,0,1-4.363,4.361,17.65,17.65,0,0,1-5.65,2.29A15.531,15.531,0,0,1,251.945,301.131Zm13.307,0a57.546,57.546,0,0,1,6.991-5.079,56.874,56.874,0,0,1,7.6-4.107,56.907,56.907,0,0,1-6.991,5.079A57.55,57.55,0,0,1,265.252,301.131Z" transform="translate(6.8 45.389)" fill="#5504b0"/>
    <path id="Path_22738" data-name="Path 22738" d="M252.868,283.1l-.7,16.64c-.209,5.54-.418,11.078-.451,16.592-.033,2.755.031,5.508.216,8.195l.192,1.98c.135.62.2,1.182.375,1.851.37,1.357.71,2.682,1.107,3.967a19.954,19.954,0,0,0,3.3,6.89,7.86,7.86,0,0,0,6.148,2.943,20.223,20.223,0,0,0,7.569-1.559,51.267,51.267,0,0,0,7.313-3.614c4.8-2.725,9.515-5.678,14.209-8.645s9.381-5.959,14.139-8.845c4.77-2.862,9.571-5.71,14.629-8.122a70.454,70.454,0,0,1,15.87-5.8,22.577,22.577,0,0,1,8.781-.442,21.122,21.122,0,0,1,8.333,3.18,20.234,20.234,0,0,1,6.284,6.439,18.689,18.689,0,0,1,2.7,8.678,42.4,42.4,0,0,1-.045,4.338c-.086,1.4-.149,2.8-.266,4.2q-.3,4.194-.8,8.361a315.121,315.121,0,0,1-15.764,64.863l-.331-.1C350.91,383.5,355.7,361.824,358.121,339.9c.294-2.738.59-5.476.783-8.217.118-1.37.183-2.741.271-4.111.048-1.353.184-2.8.116-3.983a15.965,15.965,0,0,0-7.183-12.579,19.117,19.117,0,0,0-14.8-2.756A75.366,75.366,0,0,0,321.7,313.09a180.193,180.193,0,0,0-28.941,16.185l-6.9,4.667c-2.288,1.579-4.576,3.161-6.922,4.68a52.373,52.373,0,0,1-7.376,4.2,21.962,21.962,0,0,1-8.538,2.206,11.468,11.468,0,0,1-4.653-.923,10.719,10.719,0,0,1-3.807-2.907,21.229,21.229,0,0,1-3.884-8c-.4-1.374-.73-2.744-1.071-4.07-.167-.677-.284-1.494-.42-2.235l-.179-2.167c-.126-2.855-.083-5.659.035-8.452a308.656,308.656,0,0,1,3.48-33.208Z" transform="translate(6.048 44.03)" fill="#5504b0"/>
    <path id="Path_22739" data-name="Path 22739" d="M289.919,420.009q5.63-3.69,10.907-7.839,5.291-4.123,10.3-8.567c3.323-2.978,6.585-6.023,9.691-9.218,3.135-3.168,6.109-6.485,9.016-9.856l2.97-3.444-1,4.435c-1.144,5.068-2.375,10.115-3.566,15.171l-3.709,15.138q-1.9,7.559-3.875,15.1c-1.366,5.016-2.673,10.045-4.12,15.042.914-5.121,1.968-10.21,2.963-15.312q1.556-7.639,3.208-15.255l3.374-15.216c1.171-5.061,2.3-10.132,3.517-15.182l1.968.991c-2.978,3.394-6,6.759-9.261,9.876-3.205,3.176-6.586,6.168-10.065,9.031-3.461,2.885-7.088,5.566-10.8,8.112a115.129,115.129,0,0,1-11.523,6.995ZM403.676,360.1c-.461,5.473-1.146,10.907-1.909,16.327s-1.631,10.823-2.539,16.219c-.95,5.388-1.928,10.772-3.039,16.133s-2.273,10.712-3.675,16.023c.458-5.473,1.142-10.908,1.906-16.328s1.632-10.823,2.542-16.218c.953-5.388,1.931-10.771,3.042-16.132S402.277,365.411,403.676,360.1ZM227.065,348.162q3.31-.3,6.62-.482l.392-.022.087.444c.7,3.608,1.45,7.217,2.248,10.8.769,3.593,1.643,7.157,2.56,10.7.943,3.536,1.937,7.056,3.189,10.468.575,1.728,1.287,3.392,2.017,5.043l1.187,2.423,1.4,2.279.37.6-.43.422a24.555,24.555,0,0,0-2.043,2.305,30.3,30.3,0,0,0-1.787,2.553,21.671,21.671,0,0,0-1.4,2.789,13.688,13.688,0,0,0-.794,3.052,11.889,11.889,0,0,1,.294-3.208,17.728,17.728,0,0,1,1.073-3.073,22.746,22.746,0,0,1,1.571-2.858,24.89,24.89,0,0,1,1.95-2.656l-.06,1.024a38.3,38.3,0,0,1-5.38-9.933,85.206,85.206,0,0,1-3.339-10.671c-.918-3.6-1.646-7.246-2.248-10.9-.578-3.664-1.062-7.334-1.331-11.041l.478.422Q230.375,348.458,227.065,348.162Zm116.378-219.34s7.937-1.465,3.865-10.5-26.315-14.6-49.605-10.137-17.471,19.353-15.941,26.027S289,172.932,295.33,163.829c0,0,4.954-8.76,4.947-9.874s-4.988-7.991-3.99-13.527c.622-3.452,4.74-6.038,8.01-1.548a12.49,12.49,0,0,1,2.266,7.953,81.6,81.6,0,0,1-1.143,9.835c-1.572,9.22.466,14.108,2.454,17.028s19.821,20.413,26.97,15.123c0,0,10.382-15.821,9.423-20.456s-5.272.184-7.495.942-13.373,4.806-21.39-5.612c0,0-6.557-8.682-3.184-15.166s.079-15.783,1.249-18.538,1.238-3.647,5.1-3.971A60.885,60.885,0,0,1,343.443,128.821Z" transform="translate(0.591 0)" fill="#5504b0"/>
    <path id="Path_22740" data-name="Path 22740" d="M321.626,124.387a21.788,21.788,0,0,1,3.942,11.054,20.215,20.215,0,0,1-.039,3.014l-.2,2.88c-.136,1.917-.278,3.833-.333,5.735-.042.946-.074,1.9-.037,2.8a4.179,4.179,0,0,0,.1.889c.159.246.506.63.8.981a19.4,19.4,0,0,1,3.531,4.945,3.109,3.109,0,0,1,.212,1.916,2.666,2.666,0,0,1-1.131,1.615,6.394,6.394,0,0,1-1.528.585l-1.409.41c-.475.123-.954.24-1.445.338-.243.047-.506.091-.757.116a.494.494,0,0,0-.362.209,2.721,2.721,0,0,0-.393,1.25,8.3,8.3,0,0,0-.067,1.441,4.8,4.8,0,0,1-.068-3.007,1.153,1.153,0,0,1,.762-.627c.225-.059.432-.129.656-.21.44-.163.88-.347,1.319-.539l1.319-.574a5.668,5.668,0,0,0,1.123-.571,1.251,1.251,0,0,0,.414-.76,1.47,1.47,0,0,0-.23-.9,21.24,21.24,0,0,0-3.5-4.224,9.875,9.875,0,0,1-1.055-1.243,2.623,2.623,0,0,1-.38-1.1c-.045-.3-.067-.557-.082-.818-.059-1.036-.044-2.016-.014-3,.1-1.963.252-3.9.463-5.838l.361-2.893c.118-.962.217-1.836.243-2.775a28.964,28.964,0,0,0-2.217-11.092ZM316.1,149.52a1.665,1.665,0,1,0-1.608-1.664,1.665,1.665,0,0,0,1.608,1.664Z" transform="translate(22.408 4.435)" fill="#5504b0"/>
    <path id="Path_22741" data-name="Path 22741" d="M334.446,143.57a1.5,1.5,0,0,0-1.871-1.405c-.7-.239-1.41-.481-2.112-.714-2.061-.7-4.148-1.3-6.217-1.943l-6.255-1.758c-4.185-1.126-8.413-2.112-12.655-3a128.237,128.237,0,0,0-12.9-2.083,128.445,128.445,0,0,0,12.227,4.6c4.128,1.353,8.284,2.6,12.472,3.7l6.3,1.586c2.117.471,4.226,1,6.353,1.4l.08.016c-1.8,1.788-3.446,4.95-3.035,10.493a2.776,2.776,0,0,0,.856,1.866c1.145,1.04,3.438,1.23,6.182-8.665a15.35,15.35,0,0,0,.576-4.092Zm-42.69,7.754a5.664,5.664,0,0,1-2.82-1.241,6.284,6.284,0,0,1-1.86-2.631l1.066-.306a5.449,5.449,0,0,0,1.18,2.539A5.389,5.389,0,0,0,291.755,151.324Zm-9.878,7.37a59.377,59.377,0,0,1-1.334,11.981,39.364,39.364,0,0,1-1.688,5.823,17.591,17.591,0,0,1-1.318,2.758,5.427,5.427,0,0,1-2.135,2.156A5.85,5.85,0,0,0,277.055,179a24.845,24.845,0,0,0,.981-2.787c.555-1.9,1.011-3.831,1.423-5.776C280.306,166.551,281,162.623,281.877,158.694Z" transform="translate(12.653 6.501)" fill="#5504b0"/>
  </g>
</svg>
