<svg xmlns="http://www.w3.org/2000/svg" width="346.257" height="320.07" xmlns:v="https://vecta.io/nano"><path d="M16.806 135.423l.483 5.508 15.39 175.6h296.772V87.454" fill="#fbd206"/><g fill="#5504b0"><path d="M294.961 94.709c-11.691 0 11.7-.007-.005 0zm1.658 34.4h0zM95.363 58.135s-29.5-29.936-7.484-43.752c0 0 3.166-15.688 19.861-14.248s29.072 1.109 31.951-.093 6.189 24.128-20.293 13.622c0 0-4.462 1.3-2.015 9.5s4.749 25.762-2.735 19.43c0 0 1.227-8.779-3.992-6.764s-6.082 6.189-3.924 10.65c-.003-.002-8.058 11.368-11.369 11.655z"/><path d="M129.329 31.078a10.18 10.18 0 0 1 2.627-.788 15.9 15.9 0 0 1 2.627-.217 15.62 15.62 0 0 1 2.627.215 10.04 10.04 0 0 1 2.627.791 10.04 10.04 0 0 1-2.627.791 15.62 15.62 0 0 1-2.627.215c-.88 0-1.759-.072-2.627-.217-.907-.143-1.791-.409-2.627-.79zm6.621 8.419a1.8 1.8 0 1 0-1.738-1.8 1.8 1.8 0 0 0 1.738 1.8zm-96.8 170.706c-3.265.498-6.567.72-9.87.664a66.49 66.49 0 0 1-9.875-.922 82.09 82.09 0 0 1-18.988-5.75L0 204.016l.058-.452c1.857-14.043 4.915-27.901 9.139-41.422 4.09-13.58 9.518-26.721 16.205-39.228a158.08 158.08 0 0 1 11.356-17.989l3.241-4.227 3.424-4.1c2.386-2.64 4.895-5.136 7.453-7.589a137.35 137.35 0 0 1 16.373-13.544 62.68 62.68 0 0 1 9.2-5.361 39.5 39.5 0 0 1 4.987-1.919c1.716-.506 3.482-.828 5.266-.958l-.054.009a17.76 17.76 0 0 0 3.139-1.26 13.68 13.68 0 0 0 2.82-1.877 8.98 8.98 0 0 0 2.1-2.637 7.32 7.32 0 0 0 .647-3.324 7.4 7.4 0 0 1-.51 3.387 9.2 9.2 0 0 1-2.038 2.8 13.78 13.78 0 0 1-2.826 2.021 18.18 18.18 0 0 1-3.192 1.4l-.018.006h-.036c-1.731.184-3.438.553-5.091 1.1a38.74 38.74 0 0 0-4.818 2.037 69.21 69.21 0 0 0-8.931 5.5c-5.66 4.158-10.989 8.749-15.94 13.73-2.49 2.475-4.915 5.026-7.257 7.622l-3.33 4.044-3.17 4.192a156.2 156.2 0 0 0-11.1 17.851 231.67 231.67 0 0 0-16.168 38.857c-2.116 6.705-3.965 13.495-5.592 20.338S2.271 196.772 1.27 203.71l-.359-.631a88.3 88.3 0 0 0 18.622 6.158 64.73 64.73 0 0 0 19.614.966zm16.971-5.098c3.129-1.636 6.134-3.501 8.99-5.578a76.9 76.9 0 0 0 8.041-6.818 82.55 82.55 0 0 0 6.977-7.874c1.068-1.388 2.107-2.8 3.054-4.267.48-.738.927-1.455 1.356-2.226l1.327-2.31c3.54-6.145 7.111-12.271 10.969-18.242.956-1.5 1.948-2.974 3-4.436.258-.365.527-.73.819-1.091a5.29 5.29 0 0 1 1.05-1.1 5.91 5.91 0 0 1 2.888-.81 29.5 29.5 0 0 1 5.425.2c1.781.2 3.539.469 5.3.81l-.5.228 9.2-15.312 8.935-15.466-.041.343-4.656-14.621-.036-.112.012-.161.31-4.213c.129-1.4.077-2.807.126-4.209.073-1.4-.1-2.795-.142-4.19a17.85 17.85 0 0 0-.212-2.075l-.276-2.063a24 24 0 0 0-2.68-7.668l-.524-.849c-.2-.263-.413-.51-.618-.767a10.95 10.95 0 0 0-1.361-1.388l-.775-.562c-.263-.177-.549-.309-.82-.469-.281-.132-.57-.251-.855-.352-.261-.088-.528-.153-.8-.195l-.919-.1-.005-.881a25.93 25.93 0 0 1 .683-6.43 9.99 9.99 0 0 1 1.342-3.181l.275-.38a4.06 4.06 0 0 1 .392-.416 3.28 3.28 0 0 1 .995-.576 5.12 5.12 0 0 1 1.934-.26c1.103.072 2.196.251 3.265.532l3.015.755c1.926.516 3.898.842 5.887.973a11.92 11.92 0 0 0 2.81-.179c.771-.182 1.443-.652 1.877-1.314.973-1.633 1.555-3.469 1.7-5.365a49.89 49.89 0 0 0-.273-12.11l-.121-.937.943-.05a6.16 6.16 0 0 0 2.025-.308c.225-.078.425-.213.583-.391a.9.9 0 0 0 .108-.6 4.1 4.1 0 0 0-.822-1.761l-.361-.458a13.13 13.13 0 0 1-.369-.511c-.238-.342-.455-.694-.662-1.051a21.24 21.24 0 0 1-2.789-9.316c-.088-1.659 0-3.179-.192-4.724a33.63 33.63 0 0 0-.917-4.594 43.75 43.75 0 0 0-3.5-8.767l.173-.1a44.2 44.2 0 0 1 4.01 8.663 30.8 30.8 0 0 1 1.177 4.671c.264 1.6.234 3.262.373 4.762a19.94 19.94 0 0 0 2.931 8.642 16.46 16.46 0 0 0 .636.94c.109.153.222.3.337.445l.385.467a5.54 5.54 0 0 1 1.178 2.494 2.52 2.52 0 0 1-.333 1.686 2.93 2.93 0 0 1-1.286 1.016 7.64 7.64 0 0 1-2.636.5l.822-.987a51.59 51.59 0 0 1 .562 12.61 19.26 19.26 0 0 1-.59 3.2 10.22 10.22 0 0 1-1.407 3.135 5.2 5.2 0 0 1-3.082 2.153 13.8 13.8 0 0 1-3.356.264 29.9 29.9 0 0 1-6.328-1.013c-1.909-.57-3.862-.983-5.838-1.235a3.09 3.09 0 0 0-1.12.127c-.3.125-.382.175-.661.582a7.99 7.99 0 0 0-1.068 2.494c-.471 1.917-.704 3.885-.694 5.859l-.924-.979c3.468.616 5.681 3.047 7.218 5.606a25.21 25.21 0 0 1 2.8 8.348l.243 2.162c.099.716.156 1.438.172 2.161.017 1.44.156 2.885.051 4.317-.082 1.432-.056 2.874-.229 4.3l-.459 4.267-.024-.272 4.185 14.751.053.188-.095.155-9.156 15.336-8.894 15.489-.157.282-.342-.053c-1.729-.27-3.486-.476-5.232-.606a28.69 28.69 0 0 0-5.187-.008 4.82 4.82 0 0 0-2.164.626c-.283.248-.53.534-.735.85-.253.337-.5.694-.738 1.061-.971 1.451-1.888 2.962-2.819 4.461l-10.941 18.194A66.44 66.44 0 0 1 74 193.594a67.44 67.44 0 0 1-8.42 6.6c-2.975 1.957-6.11 3.658-9.372 5.087z"/><path d="M86.729 67.491l7.828 12.972 4.1 6.316c1.366 2.069 2.873 4.04 4.512 5.9.754.889 1.627 1.669 2.595 2.319.353.247.77.386 1.2.4a.61.61 0 0 0 .22-.05l.34-.146a4.7 4.7 0 0 0 .654-.395c.887-.702 1.61-1.589 2.118-2.6a22.34 22.34 0 0 0 1.431-3.335c.406-1.175.688-2.343 1.019-3.6a15.84 15.84 0 0 1 1.508-3.624c1.292-2.248 3.171-4.103 5.436-5.366a15.74 15.74 0 0 0-4.561 5.807c-.507 1.108-.876 2.274-1.1 3.472l-.8 3.756a19.52 19.52 0 0 1-1.372 3.7c-.59 1.273-1.453 2.4-2.529 3.3-.295.234-.613.437-.949.607l-.528.233c-.224.088-.46.143-.7.165-.841.042-1.675-.18-2.384-.635a14.25 14.25 0 0 1-3.086-2.66 70.91 70.91 0 0 1-8.475-12.778c-2.432-4.453-4.595-9.047-6.477-13.758zm41.521 38.859c-1.549 4.124-3.333 8.143-5.215 12.112s-3.9 7.874-6 11.738c-2.136 3.842-4.365 7.639-6.8 11.314l-1.862 2.732-1.973 2.659c-.67.875-1.4 1.712-2.111 2.555s-1.539 1.594-2.31 2.37a123.81 123.81 0 0 0 6.919-11.138l6.373-11.461 6.369-11.486c2.145-3.825 4.313-7.637 6.609-11.395z"/><path d="M73.801 71.98c1.841-.601 3.758-.937 5.693-1 1.965-.084 3.928.217 5.778.887a10.55 10.55 0 0 1 4.734 3.58c1.17 1.635 1.977 3.5 2.367 5.472a41.3 41.3 0 0 1 .792 11.694c-.428 3.924-1.507 7.749-3.194 11.317-.36.915-.851 1.757-1.274 2.638l-.664 1.3-.727 1.264-1.466 2.521-1.573 2.446c-2.1 3.262-4.377 6.384-6.712 9.456-4.673 6.143-9.639 12.034-14.669 17.86l-.463.537-.587-.365q-7.209-4.487-14.381-9.036l-7.146-4.592q-3.577-2.289-7.121-4.633 3.726 2.042 7.415 4.147l7.39 4.187q7.368 4.224 14.691 8.522l-1.05.171c4.879-5.928 9.721-11.885 14.344-17.989 4.555-6.135 9.043-12.383 12.284-19.216a34.45 34.45 0 0 0 3.258-10.719c.377-3.754.24-7.542-.41-11.258a12.95 12.95 0 0 0-1.961-5.119c-1.032-1.536-2.474-2.751-4.163-3.508-1.738-.74-3.605-1.134-5.494-1.159a22.18 22.18 0 0 0-5.693.588z"/><path d="M64.861 213.593l-.358-.256c-1.36-.971-8.183-5.923-8.9-7.938-.347-.964-2.919-8.7-5.478-16.857-6.933-22.048-6.439-23.686-6.277-24.225.4-1.33 3.08-4.554 7.419-9.7 4.287-5.09 9.622-11.423 10.424-13.909l1.142.369c-.874 2.709-5.843 8.607-10.649 14.312-3.362 3.992-6.838 8.118-7.187 9.278-.129.428-.058 3.388 6.273 23.52l5.463 16.81c.442 1.238 5.067 4.908 8.117 7.114a59.56 59.56 0 0 1 8.718-5.529c2.849-1.213 5.332-3.147 7.206-5.612 1.041-1.528 2.021-1.525 2.508-1.39.579.162 1.573.822 1.714 3.426.218 4.3-7.291 9.064-8.148 9.593l-.631-1.02c2.161-1.335 7.735-5.466 7.581-8.51-.092-1.683-.57-2.26-.838-2.334-.216-.057-.668.139-1.195.911-2.004 2.648-4.665 4.728-7.718 6.035-3.124 1.363-8.772 5.608-8.828 5.651z"/><path d="M76.462 212.005l.02-.011h.008l10.208-4.445.039-.017.043-.007 2.921-.5 1.481-.13.742-.065h.745 1.493l1.491.129c.499.031.995.098 1.485.2s.989.165 1.475.288a21.4 21.4 0 0 1 5.6 2.212 17.91 17.91 0 0 1 4.782 3.811l1.234 1.427-2.119-.065-.5-.039c-.187 0-.4.039-.6.054-.429.057-.855.138-1.275.243l-1.3.38-1.3.457-5.119 2.2a103.83 103.83 0 0 0-9.845 5.317 90.82 90.82 0 0 1-9.75 5.835 49.79 49.79 0 0 1-10.583 4.214c-.464.121-.935.215-1.41.284-.48.097-.968.147-1.457.15-.978-.024-1.947-.205-2.868-.535a21.79 21.79 0 0 1-5.074-2.657 67.71 67.71 0 0 1-8.635-7.4l-2-2.007-.5-.495c-.183-.177-.354-.364-.514-.562l-.881-1.139-3.307-4.616c-2.184-3.087-4.23-6.255-6.308-9.408l-6.192-9.484q-3.043-4.778-6-9.609-2.957-4.831-5.734-9.8c-.919-1.668-1.8-3.338-2.589-5.144l-.28-.7c-.082-.27-.149-.579-.215-.869a4.25 4.25 0 0 1-.076-.837 4.65 4.65 0 0 1 .006-.8c.029-.511.091-1.019.187-1.522a13.51 13.51 0 0 1 .313-1.455c1.065-3.688 2.478-7.265 4.221-10.685q2.492-5.122 5.306-10.047c3.761-6.562 7.748-12.98 12.016-19.211l.17.108-5.577 9.839q-2.765 4.929-5.359 9.943c-1.716 3.347-3.426 6.7-4.959 10.113a63.27 63.27 0 0 0-3.839 10.42c-.114.432-.202.87-.266 1.312-.077.424-.125.853-.144 1.284a3.03 3.03 0 0 0 0 .607 2.53 2.53 0 0 0 .054.566l.124.5.251.607c.736 1.646 1.648 3.3 2.536 4.937 1.8 3.285 3.735 6.514 5.637 9.761q2.879 4.856 5.839 9.671l5.993 9.582 6 9.581 3.1 4.711c.266.383.535.766.81 1.128a4.96 4.96 0 0 0 .422.5l.487.521 1.923 2.068c2.53 2.77 5.331 5.279 8.362 7.489 1.498 1.101 3.142 1.987 4.885 2.635a8.56 8.56 0 0 0 2.673.477 6.99 6.99 0 0 0 1.35-.154 10.4 10.4 0 0 0 1.357-.293 43.82 43.82 0 0 0 10.231-4.508c3.258-1.866 6.397-3.932 9.4-6.186 1.577-1.1 3.211-2.072 4.868-3.008s3.343-1.818 5.063-2.637 3.468-1.591 5.279-2.247l1.374-.466 1.418-.4c.494-.119.995-.209 1.5-.269.269-.02.522-.057.8-.057a16.57 16.57 0 0 1 .908.1l-.885 1.361c-1.215-1.383-2.645-2.56-4.235-3.488a21.61 21.61 0 0 0-5.15-2.205c-.451-.133-.915-.214-1.373-.325a9.63 9.63 0 0 0-1.392-.247c-.468-.058-.936-.135-1.406-.18l-1.42-.061-.712-.03-.712.034-1.427.067c-.949.084-1.892.246-2.841.365l.081-.024-10.487 3.74h.008l-.02.009zm-7.386 68.359l-14.87-1.3 1.725-18.137c.958.172 1.935.431 2.922.537l2.951.316 5.912.479 3.727.2a29.66 29.66 0 0 0-1.178 3.957c-.355 1.514-.642 3.047-.853 4.58a53.34 53.34 0 0 0-.431 4.647 28.9 28.9 0 0 0 .1 4.723z"/><path d="M67.744 261.316c-3.942.075-7.886-.056-11.814-.393-4.034-.585-22.746-6.908-22.746-6.908C.666 240.199.666 203.637.666 203.637c5.767 2.606 11.81 4.553 18.013 5.806a29.57 29.57 0 0 0 3.516 15.751 31.53 31.53 0 0 0 11.21 11.794 40.6 40.6 0 0 0 7.368 3.66c1.255.537 2.587.891 3.88 1.341 1.322.345 2.635.747 3.976 1.025s2.673.6 4.034.786c1.351.22 2.7.441 4.063.565 2.721.345 5.423.46 8.144.68a298.71 298.71 0 0 0 32.614.307l16.259-.671a109.92 109.92 0 0 1 16.106.354c1.32.134 2.631.342 3.928.623l1.945.422 1.868.6c1.248.401 2.46.908 3.622 1.514.594.259 1.178.613 1.772.939l1.763 1c2.328 1.361 4.628 2.759 6.812 4.292 2.19 1.424 4.137 3.19 5.768 5.231.733.891 1.069 2.044.929 3.19-.037.271-.112.535-.22.786l-.163.393-.24.374c-.268.45-.785 1.179-1.1 1.677-1.396 2.172-3.412 3.874-5.787 4.886-.584.287-1.226.489-1.83.747a15.41 15.41 0 0 1-1.868.661l-1.916.546a17 17 0 0 1-1.945.489l-3.938.8-4 .575c-10.693 1.4-21.577 1.475-32.4 1.361-5.423.029-10.836-.23-16.259-.374l-15.961-.732c.269-1.246.508-2.51.68-3.775a50.41 50.41 0 0 0 .441-4.647c.075-1.383.059-2.769-.048-4.149l1.935.105 5.921.23c7.895.268 15.8.374 23.694.4l23.694-.23q11.842-.244 23.684-.9-11.857-.446-23.694-.594l-23.675-.192-23.675.019z"/><path d="M146.942 280.497c-19.661 3.612-57.075 1.475-77.866-.134a30.11 30.11 0 0 0 1.38-4.513l.163-.8 15.933 1.226c5.423.287 10.836.69 16.269.8 10.856.307 21.749.393 32.6-.834l4.072-.517c1.351-.23 2.692-.508 4.043-.757a17.95 17.95 0 0 0 2-.489l2-.556c.669-.188 1.325-.419 1.964-.69s1.313-.479 1.945-.786l1.868-1c.613-.355 1.178-.814 1.763-1.226.555-.468 1.082-.968 1.581-1.495a18.83 18.83 0 0 0 1.274-1.715c.422-.642.7-1.016 1.14-1.715l.307-.489.24-.546a5 5 0 0 0 .335-1.15c.062-.406.081-.816.057-1.226a9.94 9.94 0 0 0-.23-1.188c-.144-.354-.278-.719-.441-1.073l-.575-.968c-1.736-2.227-3.823-4.155-6.18-5.71-2.251-1.591-4.58-3.028-6.927-4.407l-1.772-1.016c-.6-.335-1.169-.69-1.821-.977a25.38 25.38 0 0 0-3.871-1.648l-1.993-.651-2.041-.45c-1.348-.309-2.715-.533-4.091-.671a110.47 110.47 0 0 0-16.4-.278l-16.259.747c-5.413.249-10.827.354-16.24.383-5.413-.038-10.817-.125-16.231-.412a101.01 101.01 0 0 1-16.058-1.734c-1.322-.259-2.606-.632-3.919-.949-1.265-.422-2.577-.747-3.823-1.255a40.87 40.87 0 0 1-7.253-3.449c-4.672-2.696-8.554-6.572-11.258-11.239-1.338-2.344-2.353-4.857-3.018-7.473a27.4 27.4 0 0 1-.939-8.039 62.9 62.9 0 0 0 20.465.757c3.583 5.48 6.324 9.457 6.994 10.137 2.3 2.309 12.666 14.1 19.574 13.241s17.371-7.445 21.011-10.079c4.867-3.5 18.137-10.357 21.586-9.495 0 0-6.975-8.93-21.433-6.017l-10.348 4.1c.469-.3 8.058-5.088 7.857-9.054-.163-3.143-1.725-3.785-3.123-1.725-1.941 2.554-4.513 4.559-7.464 5.816-3.229 1.408-8.949 5.72-8.949 5.72s-7.991-5.71-8.69-7.646c19.268-9.045 28.839-26.032 28.839-26.032l.92-1.562c53.012-18.856 64.136-14.554 64.136-14.554 37.712 9.792-3.171 63.331-3.171 63.331-3.095-1.408-6.237-2.644-9.409-3.8-3.171-1.178-6.371-2.252-9.581-3.3-3.219-1.016-6.448-2.012-9.706-2.894l-5.1-1.332c2.146-2.05 4.177-4.206 6.151-6.391 2.1-2.319 4.12-4.695 6.113-7.09 1.974-2.424 3.928-4.858 5.8-7.358s3.7-5.04 5.375-7.7c-2.29 2.156-4.436 4.426-6.534 6.745s-4.11 4.695-6.113 7.1c-1.964 2.414-3.919 4.848-5.787 7.358-1.782 2.376-3.516 4.791-5.126 7.31a107.09 107.09 0 0 0-4.647-1.025c3.085 1.408 6.237 2.644 9.409 3.8 3.171 1.178 6.371 2.252 9.581 3.3 3.219 1.016 6.448 2 9.706 2.893s6.534 1.734 9.869 2.386l17.85 11.794c17.849 11.819 10.367 37.152-17.783 42.335zm-92.52-3.753c-1.718-.051-3.41-.08-5.091-.028-1.662.032-3.317.213-4.947.539-1.589.268-3.086.927-4.357 1.917-.611.516-1.107 1.153-1.457 1.872a9.12 9.12 0 0 0-.7 2.4 6.68 6.68 0 0 1 .154-2.61c.258-.878.725-1.68 1.36-2.339a9.09 9.09 0 0 1 4.745-2.411 18.94 18.94 0 0 1 5.217-.3c1.724.11 3.427.432 5.072.96z"/><path d="M55.929 308.273c-4.388-3.238-16.556 1.514-16.336-5.183s0-19.641 0-19.641c-22.669-5.4-18.137-26.559-18.137-26.559-4.532.22-18.779 2.6-19.431 6.477s25.907 55.053 25.907 55.053h32.6s-.213-6.908-4.603-10.147zm-24.65-21.806c.631-.13 1.28-.146 1.916-.048a7.87 7.87 0 0 1 1.725.45 7.77 7.77 0 0 1 1.571.843c.54.361 1.007.819 1.38 1.351a5.47 5.47 0 0 1-1.926.048c-.591-.083-1.171-.237-1.725-.46a7.51 7.51 0 0 1-1.571-.834c-.53-.369-.993-.826-1.37-1.35zm5.739 11.038a7.38 7.38 0 0 1-1.725-.46 7.54 7.54 0 0 1-1.571-.843c-.534-.361-.998-.815-1.37-1.341.631-.13 1.28-.146 1.916-.048a7.36 7.36 0 0 1 1.725.45c.557.214 1.085.497 1.571.843.534.361.998.815 1.37 1.341a5.21 5.21 0 0 1-1.916.057zm0-4.426a7.38 7.38 0 0 1-1.725-.46 7.5 7.5 0 0 1-1.571-.834c-.532-.367-.996-.824-1.37-1.351a5.41 5.41 0 0 1 1.916-.048c.59.084 1.169.235 1.725.45a7.55 7.55 0 0 1 1.571.843c.534.361.998.815 1.37 1.341a5.21 5.21 0 0 1-1.916.057z"/><path d="M21.288 257.977a29.44 29.44 0 0 1 5.761-2.55 29.1 29.1 0 0 1 6.14-1.413 29.11 29.11 0 0 1-5.761 2.55 29.44 29.44 0 0 1-6.14 1.413zm72.053 23.9a31.49 31.49 0 0 1 .6 6.489 31.12 31.12 0 0 1-.6 6.489 31.14 31.14 0 0 1-.6-6.489 31.49 31.49 0 0 1 .6-6.485zm24.68.593a13.33 13.33 0 0 0 .521 3.977c.358 1.257.934 2.441 1.7 3.5a10.51 10.51 0 0 0 1.277 1.473l.711.679.778.614c.511.425 1.108.735 1.658 1.128l1.78 1.012-2-.568c-.649-.261-1.277-.568-1.881-.92a10.67 10.67 0 0 1-3.145-2.831 9.29 9.29 0 0 1-1.399-8.06z"/><path d="M137.39 303.741c-6.477.431-12.772-12.015-12.772-12.015-14.055 6.343-33.208 1.293-33.208 1.293-3.239 21.241 0 25.4 0 25.4h67.777c.201-8.421-15.32-15.109-21.797-14.678zm-15.982-3.89a5.49 5.49 0 0 1 1.2-1.475c.444-.392.932-.73 1.456-1.006s1.069-.494 1.639-.642c.619-.162 1.263-.211 1.9-.144a5.29 5.29 0 0 1-1.188 1.475 7.46 7.46 0 0 1-1.456 1.006 7.54 7.54 0 0 1-1.638.632c-.623.166-1.271.218-1.913.154zm2.1 2.826a5.15 5.15 0 0 1 1.2-1.476c.887-.786 1.948-1.351 3.095-1.648.619-.162 1.263-.211 1.9-.144a5.15 5.15 0 0 1-1.2 1.475 7.33 7.33 0 0 1-3.095 1.638 5.31 5.31 0 0 1-1.9.153zm8.086 1.092a7.34 7.34 0 0 1-1.447 1 7.45 7.45 0 0 1-1.648.642 5.54 5.54 0 0 1-1.9.153 5.2 5.2 0 0 1 1.2-1.485c.443-.389.928-.726 1.447-1.006s1.075-.488 1.648-.632c.618-.17 1.263-.222 1.9-.153a5.2 5.2 0 0 1-1.2 1.485zm-16.371-151.94c2.3 2.39 4.734 4.655 7.214 6.853 2.468 2.203 5.078 4.241 7.815 6.1a34.94 34.94 0 0 0 4.257 2.462 14.21 14.21 0 0 0 4.564 1.411 5 5 0 0 0 2.226-.242c.342-.122.666-.287.966-.491.281-.242.543-.506.782-.789.982-1.279 1.811-2.669 2.47-4.141a93.21 93.21 0 0 0 3.7-9.163q1.644-4.678 3.072-9.437c1.907-6.341 3.708-12.719 5.319-19.147 3.321-12.817 5.92-25.811 7.784-38.92.46-3.236.666-6.504.616-9.772-.09-3.21-.764-6.377-1.987-9.346-1.28-2.921-3.241-5.492-5.719-7.5-2.502-1.968-5.414-3.349-8.522-4.04l-.725-.151.008-.7a20.63 20.63 0 0 0-.111-2.315 13.11 13.11 0 0 0-.413-2.241c-.147-.648-.46-1.247-.908-1.737-.373-.347-.821-.349-1.446-.086l-.319.134-.3-.126a.81.81 0 0 0-.41-.035.51.51 0 0 0-.31.222 2.88 2.88 0 0 0-.382 1.323 13.91 13.91 0 0 0 .275 3.4 7.79 7.79 0 0 0 1.118 3.081 1.6 1.6 0 0 0 1.042.7c.47.015.932-.118 1.322-.381l.8-.491.117.927c.3 2.378.677 4.768 1.174 7.111a33.71 33.71 0 0 0 .907 3.452c.169.545.394 1.071.672 1.57.107.198.254.372.432.51.034.02.071.035.109.044a.48.48 0 0 0 .2-.116l.49-.442.219.622a24.29 24.29 0 0 0 1.692 3.988c.283.599.723 1.11 1.273 1.479.4.218.873-.486 1.094-1.112l.244-.691.3.679.455 1.03.03.069v.064l-.031-.127a10.48 10.48 0 0 0 .895 1.48 2.7 2.7 0 0 0 1.221 1.038c.475.166.949-.188 1.262-.645a9.45 9.45 0 0 0 .795-1.541 16.98 16.98 0 0 0 1.439-6.872c.107 2.385-.285 4.766-1.151 6.99-.208.568-.468 1.115-.779 1.634a2.22 2.22 0 0 1-.671.689 1.23 1.23 0 0 1-1 .159 3.09 3.09 0 0 1-1.495-1.154c-.372-.48-.704-.989-.992-1.524l-.03-.055v-.082l.029.123-.51-1.061.544-.012c-.117.387-.304.75-.551 1.071l-.225.246a2.84 2.84 0 0 1-.317.2c-.126.043-.257.071-.39.084a2.61 2.61 0 0 1-.38-.065 4.09 4.09 0 0 1-1.676-1.723c-.753-1.302-1.387-2.668-1.894-4.084l.709.18a1.35 1.35 0 0 1-.574.337 1.09 1.09 0 0 1-.762-.111 2.38 2.38 0 0 1-.788-.806c-.332-.548-.605-1.129-.816-1.734-.407-1.161-.746-2.345-1.017-3.546-.555-2.382-.979-4.772-1.335-7.19l.921.437a3.43 3.43 0 0 1-2.088.594 2.85 2.85 0 0 1-1.93-1.154 8.91 8.91 0 0 1-1.434-3.6c-.28-1.236-.404-2.502-.369-3.769.019-.741.237-1.464.63-2.093.271-.391.674-.671 1.134-.79.453-.11.93-.075 1.362.1l-.618.008a3.42 3.42 0 0 1 1.519-.351 2.53 2.53 0 0 1 1.574.623c.69.669 1.183 1.515 1.424 2.446a14.68 14.68 0 0 1 .519 2.515 22.21 22.21 0 0 1 .17 2.527l-.717-.848c3.409.71 6.611 2.192 9.357 4.333a21.78 21.78 0 0 1 6.3 8.142c1.337 3.172 2.085 6.56 2.207 10 .077 3.373-.111 6.747-.563 10.09-.787 6.641-2.029 13.19-3.395 19.7s-2.909 12.988-4.586 19.427-3.463 12.85-5.517 19.185q-1.529 4.753-3.28 9.44a94.49 94.49 0 0 1-3.937 9.223c-.731 1.546-1.642 3-2.715 4.332a7.86 7.86 0 0 1-.993.948 5.31 5.31 0 0 1-1.254.613 6.05 6.05 0 0 1-2.682.248 14.5 14.5 0 0 1-4.863-1.638 35.74 35.74 0 0 1-4.275-2.659 75.58 75.58 0 0 1-7.674-6.4c-2.429-2.269-4.737-4.666-6.943-7.147z"/><path d="M153.445 71.442l-.513-1.358c-.126.126-.287.21-.463.241l.46-10.89zm-5.424-14.462l1.366-2.448 1.048.585-1.366 2.448zm10.141 18.464l-.483-1.046a3.29 3.29 0 0 1-.473.925l.473-10.569zm-15.28-10.688l.947 3.182.441 1.566a7.67 7.67 0 0 0 .512 1.351l.851 1.418-1.545-.539-1.93-.734-1.906-.8-1.875-.88-1.853-.95a12.2 12.2 0 0 1 2.068.353l2.007.541 1.968.646 1.938.725-.693.879a5.5 5.5 0 0 1-.587-1.752 16.55 16.55 0 0 1-.252-1.665 20.13 20.13 0 0 1-.092-3.343zm-12.083 2.735a50.08 50.08 0 0 0 4.012 4.65 44.89 44.89 0 0 0 4.521 4.066 31.16 31.16 0 0 0 5.088 3.156 20.21 20.21 0 0 0 5.606 1.646l.985.129-.192.981c-.716 3.662-1.56 7.276-2.459 10.886-.927 3.6-1.91 7.192-3.061 10.737q-.842 2.664-1.831 5.285c-.653 1.749-1.355 3.482-2.153 5.177-.771 1.717-1.695 3.362-2.762 4.913a9.4 9.4 0 0 1-1.946 2.084 2.93 2.93 0 0 1-1.315.594 1.84 1.84 0 0 1-1.356-.334 1.74 1.74 0 0 0 1.316.143 2.86 2.86 0 0 0 1.117-.7 9.52 9.52 0 0 0 1.6-2.166 36.61 36.61 0 0 0 2.256-5c1.287-3.441 2.347-6.974 3.364-10.52l2.829-10.709 2.58-10.776.793 1.11a20.56 20.56 0 0 1-6.1-2.032 29.14 29.14 0 0 1-5.165-3.639 37.25 37.25 0 0 1-4.275-4.548 35.83 35.83 0 0 1-3.453-5.142z"/><path d="M144.501 70.622l6.7 3.057-7.112-1.929zm5.596 10.32a12.92 12.92 0 0 0 1.811.419c.633.102 1.271.165 1.912.187a10.83 10.83 0 0 0 3.862-.529c-1.152.733-2.427 1.251-3.764 1.53a16.54 16.54 0 0 1-2.055.32 14.61 14.61 0 0 1-2.14.05zm-43.368-34.464l1.531 1.857c.499.576 1.057 1.098 1.666 1.557a5.83 5.83 0 0 0 1.963.953c.764.158 1.549.192 2.324.1a3.97 3.97 0 0 1-2.434.682 4.77 4.77 0 0 1-2.448-.92 6.67 6.67 0 0 1-1.7-1.9 6.54 6.54 0 0 1-.902-2.329zm33.1 7.052a1.99 1.99 0 0 1 .436-1.4 2.35 2.35 0 0 1 1.194-.8 2.18 2.18 0 0 1 1.536.124 1.62 1.62 0 0 1 .917 1.21 9.7 9.7 0 0 0-1.184.349 7.26 7.26 0 0 1-.727.253 6.47 6.47 0 0 1-.868.175 8.92 8.92 0 0 1-1.298.094zm206.429 177.481l-4.286 21.5-4.5 21.94-4.773 22.167-5.106 22.167-.313 1.285-1.289-.01-19.307-.39-19.307-.459q-9.654-.192-19.307-.21-9.653-.018-19.307.1l-.534.007-.135-.539-5.431-21.729-5.457-21.723-5.287-21.762-5.21-21.78-.577-2.411 2.518-.028 14.891-.043 14.9.073 14.872.165 14.812.254 14.726.312 14.6.369zm-.3.239l-29.92.744-14.764.369-14.638.312-14.552.254-14.491.165q-7.243.094-14.467.073c-4.821 0-9.644.013-14.473-.043l1.941-2.439 4.846 21.863 4.769 21.881 4.6 21.92 4.625 21.914-.669-.532q9.654.124 19.307.1 9.653-.024 19.307-.21l19.307-.459 19.307-.39-1.6 1.275 4.95-21.475 5.283-21.476 5.561-21.7z"/><path d="M293.817 126.812a224.57 224.57 0 0 0-9.421 51.784l-.243 3.279-.092 3.286-.145 6.574c.08 4.382.055 8.774.407 13.15.376 8.789 1.743 17.477 3.059 26.247-2.656-8.483-4.465-17.209-5.4-26.049-.637-4.416-.669-8.875-.918-13.324-.061-2.226.042-4.454.055-6.681l.059-3.341.214-3.334.248-3.332c.074-1.111.163-2.221.313-3.325l.806-6.631 1.134-6.581c.382-2.192.917-4.356 1.389-6.528 1.931-8.681 4.794-17.127 8.539-25.193z"/><path d="M282.363 199.011c-.098-1.038-.025-2.085.215-3.1.19-.828.496-1.625.908-2.368a8.4 8.4 0 0 1 1.366-1.855 3.84 3.84 0 0 1 1.926-1.171c1.583-.405 3.737-.01 5.095-.629 1.413-.72 2.483-1.971 2.974-3.479a16.65 16.65 0 0 1 1.183-2.318 10.55 10.55 0 0 1 1.592-1.81 11.21 11.21 0 0 1 3.9-2.82 11.44 11.44 0 0 1 5.189-.594 10.11 10.11 0 0 1 2.86.731 6.72 6.72 0 0 1 2.618 1.9l-.059 1-3.063 3.955a14.76 14.76 0 0 1-1.362 1.463 9.02 9.02 0 0 1-1.49 1.21c-1.867.832-3.829 1.433-5.842 1.791-.762.081-1.613.049-2.454.059-1.537-.149-3.057.411-4.132 1.519-.976 1.1-1.129 3.243-1.825 4.624-.324.649-.837 1.185-1.471 1.536a8.41 8.41 0 0 1-1.992.9 9.67 9.67 0 0 1-2.408.439 11.09 11.09 0 0 1-3.053-.24zm-.4-23.15c-1.508-.54-2.92-1.318-4.182-2.305a6.49 6.49 0 0 1-1.153-1.206 2.32 2.32 0 0 1-.488-1.521c.011-.346.055-.689.134-1.026l.18-1.122a3.72 3.72 0 0 0-.113-2.09c-.231-.571-.662-1.038-1.212-1.314a5.69 5.69 0 0 0-1.978-.516l-2.134-.14a14.05 14.05 0 0 1-1.728-.443 9.09 9.09 0 0 1-3.046-1.238 10.62 10.62 0 0 1-2.339-2.759 15.47 15.47 0 0 1-1.1-1.941 15.25 15.25 0 0 1-1.007-2.605l.323-.952c.786-.532 1.646-.948 2.551-1.234a9.57 9.57 0 0 1 2.445-.533c.768-.043 1.539-.01 2.3.1a6.46 6.46 0 0 1 2.148.591 7.71 7.71 0 0 1 1.835 1.218 15.8 15.8 0 0 1 1.508 1.692 7.32 7.32 0 0 1 1.284 1.888 15.05 15.05 0 0 1 .742 2.362 5.79 5.79 0 0 0 1.932 3.8 8.39 8.39 0 0 0 2.158.968 7.85 7.85 0 0 1 2.359 1.066 3.36 3.36 0 0 1 .831.816c.2.32.362.663.48 1.022a6.69 6.69 0 0 1 .385 2.28 6.91 6.91 0 0 1-.451 2.479c-.358.962-.929 1.83-1.67 2.54zm60.183 72.445H233.189v5.029h107.8zm-67.717 70.11h-24.9a12.89 12.89 0 0 1 24.9 0zm25.783 0h-24.9a12.89 12.89 0 0 1 24.9 0z"/><path d="M275.314 317.975h24.899v.881h-24.899zm25.784 0h24.898v.881h-24.898zm-51.567 0h24.898v.881h-24.898z"/><path d="M325.996 318.416h-24.9a12.89 12.89 0 0 1 24.9 0zm-84.658-34.753h92.086v5.028h-92.086zm-8.464-41.941h-2.012c-.556 0-1.006-.45-1.006-1.006s.45-1.006 1.006-1.006h2.012c.556 0 1.006.45 1.006 1.006s-.45 1.006-1.006 1.006zm103.927 0h-4c-.556 0-1.006-.45-1.006-1.006s.45-1.006 1.006-1.006h4c.556 0 1.006.45 1.006 1.006s-.45 1.006-1.006 1.006zm-8 0h-4c-.556 0-1.006-.45-1.006-1.006s.45-1.006 1.006-1.006h4c.556 0 1.006.45 1.006 1.006s-.45 1.006-1.006 1.006zm-7.994 0h-4c-.556 0-1.006-.45-1.006-1.006s.45-1.006 1.006-1.006h4c.556 0 1.006.45 1.006 1.006s-.45 1.006-1.006 1.006zm-7.994 0h-4c-.556 0-1.006-.45-1.006-1.006s.45-1.006 1.006-1.006h4c.556 0 1.006.45 1.006 1.006s-.45 1.006-1.006 1.006zm-7.994 0h-4c-.556 0-1.006-.45-1.006-1.006s.45-1.006 1.006-1.006h4c.556 0 1.006.45 1.006 1.006s-.45 1.006-1.006 1.006zm-7.994 0h-4c-.556 0-1.006-.45-1.006-1.006s.45-1.006 1.006-1.006h4c.556 0 1.006.45 1.006 1.006s-.45 1.006-1.006 1.006zm-7.994 0h-4c-.556 0-1.006-.45-1.006-1.006s.45-1.006 1.006-1.006h4c.556 0 1.006.45 1.006 1.006s-.45 1.006-1.006 1.006zm-7.994 0h-4c-.556 0-1.006-.45-1.006-1.006s.45-1.006 1.006-1.006h4c.556 0 1.006.45 1.006 1.006s-.45 1.006-1.006 1.006zm-7.994 0h-4c-.556 0-1.006-.45-1.006-1.006s.45-1.006 1.006-1.006h4c.556 0 1.006.45 1.006 1.006s-.45 1.006-1.006 1.006zm-8 0h-4c-.556 0-1.006-.45-1.006-1.006s.45-1.006 1.006-1.006h4c.556 0 1.006.45 1.006 1.006s-.45 1.006-1.006 1.006zm-7.994 0h-4c-.556 0-1.006-.45-1.006-1.006s.45-1.006 1.006-1.006h4c.556 0 1.006.45 1.006 1.006s-.45 1.006-1.006 1.006zm-7.994 0h-4c-.556 0-1.006-.45-1.006-1.006s.45-1.006 1.006-1.006h4c.556 0 1.006.45 1.006 1.006s-.45 1.006-1.006 1.006zm-7.994 0h-4c-.556 0-1.006-.45-1.006-1.006s.45-1.006 1.006-1.006h4c.556 0 1.006.45 1.006 1.006s-.45 1.006-1.006 1.006zm101.941 0h-2.012c-.556 0-1.006-.45-1.006-1.006s.45-1.006 1.006-1.006h2.012c.556 0 1.006.45 1.006 1.006s-.45 1.006-1.006 1.006zm-104.679 27.145h-1.006c-.556 0-1.006-.45-1.006-1.006s.45-1.006 1.006-1.006h1.006c.556 0 1.006.45 1.006 1.006s-.45 1.006-1.006 1.006zm94.258 0h-1.964c-.556 0-1.006-.45-1.006-1.006s.45-1.006 1.006-1.006h1.964c.556 0 1.006.45 1.006 1.006s-.45 1.006-1.006 1.006zm-5.891 0h-1.961c-.556 0-1.006-.45-1.006-1.006s.45-1.006 1.006-1.006h1.964c.556 0 1.006.45 1.006 1.006s-.45 1.006-1.006 1.006zm-5.891 0h-1.964c-.556 0-1.006-.45-1.006-1.006s.45-1.006 1.006-1.006h1.964c.556 0 1.006.45 1.006 1.006s-.45 1.006-1.006 1.006zm-5.892 0h-1.964c-.556 0-1.006-.45-1.006-1.006s.45-1.006 1.006-1.006h1.964c.556 0 1.006.45 1.006 1.006s-.45 1.006-1.006 1.006zm-5.891 0h-1.964c-.556 0-1.006-.45-1.006-1.006s.45-1.006 1.006-1.006h1.964c.556 0 1.006.45 1.006 1.006s-.45 1.006-1.006 1.006zm-5.891 0h-1.964c-.556 0-1.006-.45-1.006-1.006s.45-1.006 1.006-1.006h1.968c.556 0 1.006.45 1.006 1.006s-.45 1.006-1.006 1.006zm-5.892 0h-1.963c-.556 0-1.006-.45-1.006-1.006s.45-1.006 1.006-1.006h1.959c.556 0 1.006.45 1.006 1.006s-.45 1.006-1.006 1.006zm-5.891 0h-1.963c-.556 0-1.006-.45-1.006-1.006s.45-1.006 1.006-1.006h1.964c.556 0 1.006.45 1.006 1.006s-.45 1.006-1.006 1.006zm-5.891 0h-1.964c-.556 0-1.006-.45-1.006-1.006s.45-1.006 1.006-1.006h1.964c.556 0 1.006.45 1.006 1.006s-.45 1.006-1.006 1.006zm-5.891 0h-1.964c-.556 0-1.006-.45-1.006-1.006s.45-1.006 1.006-1.006h1.964c.556 0 1.006.45 1.006 1.006s-.45 1.006-1.006 1.006zm-5.892 0h-1.964c-.556 0-1.006-.45-1.006-1.006s.45-1.006 1.006-1.006h1.964c.556 0 1.006.45 1.006 1.006s-.45 1.006-1.006 1.006zm-5.891 0h-1.964c-.556 0-1.006-.45-1.006-1.006s.45-1.006 1.006-1.006h1.964c.556 0 1.006.45 1.006 1.006s-.45 1.006-1.006 1.006zm-5.891 0h-1.964c-.556 0-1.006-.45-1.006-1.006s.45-1.006 1.006-1.006h1.964c.556 0 1.006.45 1.006 1.006s-.45 1.006-1.006 1.006zm-5.892 0h-1.965c-.556 0-1.006-.45-1.006-1.006s.45-1.006 1.006-1.006h1.963c.556 0 1.006.45 1.006 1.006s-.45 1.006-1.006 1.006zm-5.891 0h-1.964c-.556 0-1.006-.45-1.006-1.006s.45-1.006 1.006-1.006h1.964c.556 0 1.006.45 1.006 1.006s-.45 1.006-1.006 1.006zm-5.891 0h-1.964c-.556 0-1.006-.45-1.006-1.006s.45-1.006 1.006-1.006h1.964c.556 0 1.006.45 1.006 1.006s-.45 1.006-1.006 1.006zm93.3 0h-1.003c-.556 0-1.006-.45-1.006-1.006s.45-1.006 1.006-1.006h1.006c.556 0 1.006.45 1.006 1.006s-.45 1.006-1.006 1.006zm-92.2 30.356h-1c-.556 0-1.006-.45-1.006-1.006s.45-1.006 1.006-1.006h1c.556 0 1.006.45 1.006 1.006s-.45 1.006-1.006 1.006zm80.4 0h-2.061c-.556 0-1.006-.45-1.006-1.006s.45-1.006 1.006-1.006h2.061c.556 0 1.006.45 1.006 1.006s-.45 1.006-1.006 1.006zm-6.185 0h-2.062c-.556 0-1.006-.45-1.006-1.006s.45-1.006 1.006-1.006h2.062c.556 0 1.006.45 1.006 1.006s-.45 1.006-1.006 1.006zm-6.185 0h-2.053c-.556 0-1.006-.45-1.006-1.006s.45-1.006 1.006-1.006h2.062c.556 0 1.006.45 1.006 1.006s-.45 1.006-1.006 1.006zm-6.186 0h-2.061c-.556 0-1.006-.45-1.006-1.006s.45-1.006 1.006-1.006h2.061c.556 0 1.006.45 1.006 1.006s-.45 1.006-1.006 1.006zm-6.185 0h-2.061c-.556 0-1.006-.45-1.006-1.006s.45-1.006 1.006-1.006h2.061c.556 0 1.006.45 1.006 1.006s-.45 1.006-1.006 1.006zm-6.185 0h-2.061c-.556 0-1.006-.45-1.006-1.006s.45-1.006 1.006-1.006h2.061c.556 0 1.006.45 1.006 1.006s-.45 1.006-1.006 1.006zm-6.185 0h-2.062c-.556 0-1.006-.45-1.006-1.006s.45-1.006 1.006-1.006h2.062c.556 0 1.006.45 1.006 1.006s-.45 1.006-1.006 1.006zm-6.186 0h-2.061c-.556 0-1.006-.45-1.006-1.006s.45-1.006 1.006-1.006h2.075c.556 0 1.006.45 1.006 1.006s-.45 1.006-1.006 1.006zm-6.185 0h-2.061c-.556 0-1.006-.45-1.006-1.006s.45-1.006 1.006-1.006h2.061c.556 0 1.006.45 1.006 1.006s-.45 1.006-1.006 1.006zm-6.185 0h-2.061c-.556 0-1.006-.45-1.006-1.006s.45-1.006 1.006-1.006h2.061c.556 0 1.006.45 1.006 1.006s-.45 1.006-1.006 1.006zm-6.185 0h-2.062c-.556 0-1.006-.45-1.006-1.006s.45-1.006 1.006-1.006h2.062c.556 0 1.006.45 1.006 1.006s-.45 1.006-1.006 1.006zm-6.185 0h-2.046c-.556 0-1.006-.45-1.006-1.006s.45-1.006 1.006-1.006h2.062c.556 0 1.006.45 1.006 1.006s-.45 1.006-1.006 1.006zm-6.186 0h-2.061c-.556 0-1.006-.45-1.006-1.006s.45-1.006 1.006-1.006h2.061c.556 0 1.006.45 1.006 1.006s-.45 1.006-1.006 1.006zm79.348 0h-1c-.556 0-1.006-.45-1.006-1.006s.45-1.006 1.006-1.006h1c.556 0 1.006.45 1.006 1.006s-.45 1.006-1.006 1.006z"/><circle cx="299" cy="118.035" r="7"/></g></svg>