<svg xmlns="http://www.w3.org/2000/svg" width="435.3" height="268.986" xmlns:v="https://vecta.io/nano"><path d="M61 64.925l.483 5.508 15.39 175.6h296.772V16.956" fill="#fbd206"/><g fill="#5504b0"><path d="M335.832 137.229l.127-1.458.824 4.283 1.331 6.275 1.313 6.266a.27.27 0 0 0 .245.217h.009l.806.091.091 2.49-.869.344c-3.26 1.3-7.607-1.087-7.607-1.087.223-.655.327-1.345.308-2.037.646-1.646 1.181-3.335 1.6-5.053q.652-2.54 1.1-5.125l.722-5.206zm30.97-52.05v-.009l-.254-.552-.009-.009a15.09 15.09 0 0 0-5.207-1.612c-.027 0-.054-.009-.073-.009a36.88 36.88 0 0 0-4.057-.507c-.033-.008-.066-.011-.1-.009-3.6-.245-7.208.063-8.911 1.539l-.009.009c-1.558 1.304-3.191 2.516-4.89 3.631-.045.027-.082.063-.127.091l-6.837 4.31c-.009.009-.018.018-.027.018-3.124 1.974-4.854 5.388-5.8 8.494-.027.082-.045.154-.072.235.001.018-.002.037-.009.054-.036 1.476-.118 2.943-.235 4.41q-.3 3.681-.96 7.326c-.217 1.223-.489 2.427-.8 3.631a18.19 18.19 0 0 1-1.313 3.595c-.272.571-.6 1.141-.9 1.666a14.73 14.73 0 0 0-1.675 4.854 18.57 18.57 0 0 0 .235 6.955 32.93 32.93 0 0 0 4.283 10.06.19.19 0 0 1 .036.054c.036.054.073.118.109.172.045.073.1.154.145.235.027.036.045.073.073.109.009.01.016.022.018.036a1.47 1.47 0 0 0 .09.163l.308.543.579 1.114v.009c.109.208.208.426.317.643.082.163.154.335.226.507s.163.371.235.562a.78.78 0 0 1 .063.154c.109.272.217.552.317.833.018.054.036.1.054.154a12.06 12.06 0 0 1 .208.634.23.23 0 0 0 .018.063c.006.011.009.023.009.036.011.019.017.041.018.063l.163.562v.027a13.08 13.08 0 0 1 .145.634 5.7 5.7 0 0 1 .073.4 10.3 10.3 0 0 1 .073.489c.027.245.054.48.063.715a40.62 40.62 0 0 1 .226-4.944 71.74 71.74 0 0 1 .706-5.2 68.01 68.01 0 0 1 1.1-5.135c.317-1.222.661-2.436 1.078-3.64-.335-1.974-.571-3.966-.806-5.958-.431-4.275-.567-8.574-.408-12.868a49.53 49.53 0 0 1 .688-6.42c.091-.525.19-1.06.335-1.585.127-.525.235-1.05.407-1.557a11.7 11.7 0 0 1 1.241-3c.023-.042.075-.058.118-.036a.1.1 0 0 1 .036.118v.009c-.722 1.986-1.149 4.067-1.268 6.176-.197 2.104-.285 4.217-.263 6.33.018 4.229.344 8.449.724 12.677l.661 6.33.761 6.339c.317 2.11.571 4.22.969 6.312l1.231 6.058c4.093.362 8.231.5 12.333.453 2.083-.036 4.166-.091 6.221-.281a29.48 29.48 0 0 0 3.015-.435 7.61 7.61 0 0 0 2.273-.77l2.608-21.887 1.268-11.129.489-5.569c.163-1.865.226-3.722.217-5.587v-.009a.1.1 0 0 1 .091-.091c.047-.001.086.035.09.081a71.94 71.94 0 0 1 .281 11.256c-.118 3.749-.389 7.489-.7 11.229l-1.159 11.174c-.435 3.722-1 7.416-1.53 11.129l-.009.063c-.03.194-.138.368-.3.48a7.49 7.49 0 0 1-3.224 1.223v1.793c10.323-.453 16.644-4.374 20.076-7.489v-.001a21.15 21.15 0 0 0 2.391-2.517 11.54 11.54 0 0 0 .969-1.376 318.67 318.67 0 0 0-18.545-58.823zM342.425 149.2a1.36 1.36 0 1 1 1.311-1.358 1.36 1.36 0 0 1-1.311 1.358zm6.52.326a1.36 1.36 0 1 1 1.311-1.358 1.36 1.36 0 0 1-1.312 1.358zm5.542 0a1.36 1.36 0 1 1 1.31-1.358 1.36 1.36 0 0 1-1.311 1.358zm5.542-.326a1.36 1.36 0 1 1 1.31-1.358 1.36 1.36 0 0 1-1.31 1.358zM89.735 233.179c-.19 1.041-4.491 1.883-9.771 1.883-5.4 0-9.78-.878-9.78-1.956-.347 0-.68.141-.922.39a1.29 1.29 0 0 0-.364.932l.607 23.435a1.3 1.3 0 0 0 .6 1.06 17.95 17.95 0 0 0 19.84-.543c.353-.241.563-.641.561-1.068v-23.037a1.17 1.17 0 0 0-.77-1.1zm-11.174 22.756a5.56 5.56 0 0 1-5.143-2.536 10.04 10.04 0 0 1-1.712-7.362 14.2 14.2 0 0 1 1.585-4.781 5 5 0 0 1 4.8-2.554 1.97 1.97 0 0 1 1.965 1.467 2.36 2.36 0 0 1-.688 2.1c-1.467 1.494-4.827 5.605-1.25 8.657 3.341 2.854 2.951 4.728.443 5.009zm11.591-74.879c-5.958.081-11.917.353-17.857.851.934-1.324 1.562-2.84 1.838-4.437.489-4.564 7.281-8.8 7.281-8.8l-.027-1.222 5.949-1.06a12.13 12.13 0 0 0 9.78 6.194c6.846.362 31.313-10.54 34.392-12.062 22.167 12.225 11.573 27.057 11.573 27.057a18.26 18.26 0 0 0-4.048-1.929c-1.413-.507-2.861-.906-4.31-1.277-2.916-.7-5.868-1.2-8.838-1.6-5.922-.824-11.88-1.222-17.848-1.5-5.959-.242-11.918-.323-17.885-.214z"/><path d="M133.952 222.621H55.008s1.277-15.421.48-17.45c3.749-12.062 11.636-17.268 11.636-17.268a34.94 34.94 0 0 0 5.171-5.995q8.937.312 17.848.552l17.821.616 8.892.444c2.961.163 5.922.4 8.874.652 2.943.281 5.9.589 8.811 1.068 2.942.371 5.817 1.158 8.539 2.336 6.683 2.771 7.009 12.551 7.009 12.551 1.956 18.908-16.137 22.494-16.137 22.494zM47.402 77.392a12.6 12.6 0 0 0 2.368-2.062 12.26 12.26 0 0 0 1.749-2.51c.471-.913.842-1.874 1.106-2.867.165-.494.225-1.015.358-1.527.1-.518.156-1.045.276-1.578a15.05 15.05 0 0 1 .167 1.616c.004.546-.032 1.092-.109 1.633-.154 1.097-.492 2.161-1 3.146a9.03 9.03 0 0 1-2.058 2.593c-.817.738-1.796 1.271-2.859 1.557zm22 13.855a15.15 15.15 0 0 1 .053-3.33 9.19 9.19 0 0 1 .349-1.668c.196-.563.499-1.083.894-1.53.814-.921 1.954-1.491 3.179-1.589.617-.051 1.237.01 1.832.181.521.144 1.046.272 1.571.391a18.06 18.06 0 0 0 6.3.422 6.95 6.95 0 0 0 4.984-2.829l.029-.038.04-.049a5.53 5.53 0 0 0 .681-1.109 5.59 5.59 0 0 0 .322-3.926l-.008-.031a.67.67 0 0 1-.018-.1 8.6 8.6 0 0 1-.025-1.618c.035-.552.142-1.097.318-1.622a4.12 4.12 0 0 1 .93-1.564 3.53 3.53 0 0 1 1.7-.9.7.7 0 0 1 .14-.017h.053a5.08 5.08 0 0 0 2.622-.678 1.72 1.72 0 0 0 .7-.865 2.03 2.03 0 0 0 .1-.575l.006-.151v-.076-.038c0-.034.007.052.007.042h0a1.85 1.85 0 0 0-.083-.256 11.94 11.94 0 0 0-1.654-2.566 15.49 15.49 0 0 1-1.854-2.9 13.69 13.69 0 0 1-1.385-6.626c.064-2.21.337-4.409.816-6.567a45.28 45.28 0 0 0-.08 6.568 13.74 13.74 0 0 0 1.762 6.044c.513.916 1.127 1.773 1.83 2.553.811.856 1.49 1.827 2.015 2.883a3.28 3.28 0 0 1 .181.524l.011.052c.006.031.01.062.012.093v.065.13.261c-.001.353-.054.705-.157 1.043a3.38 3.38 0 0 1-1.258 1.716 6.35 6.35 0 0 1-3.633 1.067l.192-.018c-.299.071-.575.219-.8.429-.229.257-.4.561-.5.891a4.6 4.6 0 0 0-.215 1.185c-.028.414-.018.83.028 1.243l-.026-.125a7.26 7.26 0 0 1 .105 3.517 7.36 7.36 0 0 1-.573 1.663 7.02 7.02 0 0 1-.975 1.52l.069-.087a8.45 8.45 0 0 1-6.232 3.392 18.46 18.46 0 0 1-6.8-.766c-.544-.152-1.078-.334-1.609-.52-.458-.169-.942-.253-1.43-.248a4.12 4.12 0 0 0-2.7 1.08c-.375.348-.678.765-.893 1.229-.207.494-.368 1.006-.481 1.53a19.07 19.07 0 0 0-.45 3.258zm-2.363-19.071a12.95 12.95 0 0 0 .627 2.3 11.99 11.99 0 0 0 1.005 2.073c.403.659.861 1.283 1.369 1.865.5.6 1.078 1.144 1.645 1.752a7.17 7.17 0 0 1-2.14-1.248 7.7 7.7 0 0 1-1.648-1.9 7.27 7.27 0 0 1-.909-2.354 5.28 5.28 0 0 1 .052-2.485z"/><path d="M49.406 76.169a8.82 8.82 0 0 0-1.407-.731 2.81 2.81 0 0 0-.736-.2c-.246-.03-.459.023-.511.193a2.4 2.4 0 0 0 .254 1.39c.202.48.43.95.682 1.406l-.067-.091 4.814 3.733 5.06 3.353c1.714 1.042 3.499 1.962 5.341 2.755 1.798.779 3.693 1.311 5.633 1.581l.041.005c.217.026.414.138.546.312a4.31 4.31 0 0 1 .823 1.754 2.99 2.99 0 0 1-.326 2.082c-.346.567-.831 1.035-1.41 1.36a1.91 1.91 0 0 0-.737.739c-.373.763-.533 1.613-.462 2.459a12.5 12.5 0 0 0 .426 2.775l.016.06c.041.151.034.312-.02.459-.103.295-.262.567-.47.8-.223.252-.505.444-.821.561a2.36 2.36 0 0 1-1.764-.163c-.759-.43-1.433-.995-1.989-1.666-.035-.038-.066-.08-.092-.124l-.015-.026a6.65 6.65 0 0 0-.879-1.12 9.83 9.83 0 0 0-1.13-1.01c-.825-.612-1.724-1.118-2.676-1.506l-.03-.013a.7.7 0 0 1-.295-.23l-3.033-3.71-3.326-3.476a32.77 32.77 0 0 0-3.674-3.1c-1.305-.948-2.724-1.728-4.224-2.322 1.587.404 3.104 1.044 4.5 1.9a31.86 31.86 0 0 1 4.014 2.833c1.266 1.042 2.46 2.166 3.617 3.326l3.293 3.67-.325-.242c1.103.385 2.147.924 3.1 1.6.48.345.932.728 1.353 1.143a7.97 7.97 0 0 1 1.175 1.44l-.107-.149a5.74 5.74 0 0 0 1.487 1.215c.132.073.284.104.434.088.023-.021.057-.021.1-.08.041-.053.077-.11.106-.17v.518c-.299-1.049-.476-2.129-.527-3.218a6.39 6.39 0 0 1 .679-3.432 3.78 3.78 0 0 1 1.391-1.378c.312-.165.579-.406.775-.7a1.19 1.19 0 0 0 .135-.852 2.66 2.66 0 0 0-.445-.983l.587.317a21.28 21.28 0 0 1-6.1-1.829 37.65 37.65 0 0 1-5.444-3.05 55.76 55.76 0 0 1-4.976-3.683 57.43 57.43 0 0 1-4.578-4.143l-.019-.019c-.02-.021-.037-.045-.048-.072a15.25 15.25 0 0 1-.578-1.522 5.33 5.33 0 0 1-.189-.812c-.063-.302-.034-.616.085-.9.083-.162.233-.279.41-.32.152-.032.309-.03.46.005a3.03 3.03 0 0 1 .772.306 8.9 8.9 0 0 1 1.328.9zm22.283 7.617a20.53 20.53 0 0 1 6.11 3.345c1.85 1.446 3.519 3.109 4.971 4.954.711.937 1.373 1.91 1.983 2.915l.89 1.525.776 1.586c.542 1.048.893 2.176 1.349 3.262l1.05 3.37a.32.32 0 0 1 .014.072v.043a64.37 64.37 0 0 0 .826 6.847 32.64 32.64 0 0 0 .753 3.331c.272 1.061.682 2.082 1.218 3.037a.7.7 0 0 1 .066.141l.006.02 1.775 4.976.993 2.431a20.33 20.33 0 0 0 1.134 2.283c.189.317.148.72-.1.992l-3.252 3.225-3.515 2.917c-2.435 1.898-5.129 3.439-8 4.574l.592-.85-.039 11.05-.111 5.531-.342 5.607c-.004.034-.011.067-.021.1l-.008.027c-.073.243-.113.496-.117.75a.74.74 0 0 0 .026.207c-.02-.03-.049-.052-.082-.065-.056-.013.05.014.125.044s.145.06.212.1c.174.115.32.265.43.442a2.71 2.71 0 0 1 .3.676 7.76 7.76 0 0 1 .247 1.139c.182 1.418.267 2.846.254 4.275.002.266-.132.515-.355.661l-.018.012a25.15 25.15 0 0 0-4.558 3.75 12.8 12.8 0 0 0-1.729 2.308l-.319.627-.238.646c-.128.445-.186.829-.309 1.433a14.7 14.7 0 0 1-2.977 5.62c-1.287 1.63-2.71 3.149-4.254 4.539l-.043.034-.015.01c-1.404 1.007-2.706 2.148-3.887 3.409-1.203 1.267-2.306 2.626-3.3 4.063a35.9 35.9 0 0 0-2.66 4.533 42.21 42.21 0 0 0-2.059 4.86c.482-1.701 1.077-3.368 1.78-4.991.712-1.625 1.543-3.196 2.485-4.7a34.6 34.6 0 0 1 3.179-4.288 23.85 23.85 0 0 1 3.927-3.7l-.057.044a35.78 35.78 0 0 0 4-4.505 13.61 13.61 0 0 0 2.6-5.178l.3-1.568.271-.8.354-.75c.518-.948 1.143-1.833 1.862-2.639a24.8 24.8 0 0 1 4.81-4.106l-.373.672c-.007-1.345-.104-2.687-.292-4.019-.08-.587-.337-1.416-.387-1.139-.348-.165-.622-.453-.77-.809-.103-.257-.158-.532-.162-.809-.006-.44.054-.878.18-1.3l-.03.13c.183-1.717.223-3.59.278-5.407l.085-5.5.016-11.02a.91.91 0 0 1 .592-.85c2.71-1.063 5.256-2.506 7.559-4.287q1.759-1.327 3.41-2.8l3.167-3.057-.1.992a21.77 21.77 0 0 1-1.2-2.5l-.986-2.512-1.732-5.078.073.161c-.581-1.087-1.016-2.246-1.292-3.447-.291-1.15-.522-2.314-.691-3.488-.344-2.325-.562-4.667-.654-7.015l.017.114-.934-3.308-1.226-3.209a35.19 35.19 0 0 0-3.324-6.009 28.72 28.72 0 0 0-4.657-5.069c-1.749-1.521-3.732-2.751-5.872-3.641z"/><path d="M46.618 76.242a54.07 54.07 0 0 0-6.079 7.009l-5.322 7.621c-3.4 5.171-6.638 10.51-9.493 15.965-5.651 10.94-10.013 22.791-11.6 35.128l-.267 2.306c-.055.742-.025 1.546-.028 2.317l.021 4.671.064 9.342q.032 9.34-.051 18.673c-.027 12.448-.3 24.885-.719 37.325l-.139-.441a23.45 23.45 0 0 0 3.854 4.023 14.34 14.34 0 0 0 4.837 2.683 9.11 9.11 0 0 0 5.452-.051 13.15 13.15 0 0 0 4.758-3.028c.035-.035.093-.035.128 0s.031.088 0 .123a12.88 12.88 0 0 1-4.678 3.476c-1.877.761-3.948.901-5.91.4a15.42 15.42 0 0 1-5.35-2.622 22.18 22.18 0 0 1-4.279-4.147c-.09-.114-.139-.255-.139-.4v-.042l.408-37.361q.2-9.338.513-18.67l.346-9.329.162-4.664c.042-.784.025-1.54.092-2.348q.13-1.169.3-2.327c.97-6.169 2.318-12.272 4.035-18.276a99.06 99.06 0 0 1 6.755-17.498c.716-1.4 1.494-2.761 2.263-4.128l2.428-4.007c1.672-2.639 3.337-5.283 5.155-7.828 3.657-5.046 7.455-10.114 12.376-14.038a.09.09 0 1 1 .118.136zM35.669 95.538a18.25 18.25 0 0 1 5.43-2.37 19.04 19.04 0 0 1 5.982-.66 13.95 13.95 0 0 1 5.865 1.692 10.61 10.61 0 0 1 4.073 4.38 17.49 17.49 0 0 0-4.705-3.116 17.85 17.85 0 0 0-5.345-1.151c-1.87-.097-3.745-.018-5.6.235l-5.7.99zm-3.833 5.7a39.7 39.7 0 0 0-3 12.82 50.1 50.1 0 0 0-.046 6.576l.494 6.669c.112 2.258.067 4.521-.137 6.772a18.31 18.31 0 0 1-.625 3.413 5.05 5.05 0 0 1-.3.853c-.107.299-.25.583-.427.847l-.27.415-.209.305a3.26 3.26 0 0 0-.382.641 15.57 15.57 0 0 0-1.1 3.015l-.732 3.218a59.98 59.98 0 0 0-.872 6.585l-.175-.285a54.26 54.26 0 0 0 10.623 3.118 59.51 59.51 0 0 0 11.006.987 47.62 47.62 0 0 0 10.863-1.323c3.517-.895 6.882-2.306 9.984-4.189l-.444.909a384.78 384.78 0 0 0-1.431-10.8c-.262-1.793-.578-3.577-.931-5.331a23.3 23.3 0 0 0-.639-2.551c-.058-.188-.129-.372-.213-.551l-.3-.715a7.56 7.56 0 0 1-.29-1.513 58.69 58.69 0 0 1 .554-11.064c.423-3.635.983-7.246 1.649-10.839.004-.024.018-.045.038-.058s.044-.019.068-.015c.047.009.079.053.074.1q-.454 5.455-.79 10.905c-.1 1.816-.178 3.632-.206 5.441a36.35 36.35 0 0 0 .173 5.339 6.16 6.16 0 0 0 .259 1.162l.255.533c.118.23.221.468.308.712a24.77 24.77 0 0 1 .795 2.725c.438 1.806.759 3.616 1.064 5.425.614 3.62 1.066 7.245 1.455 10.891v.042c.037.353-.139.694-.449.867a38.44 38.44 0 0 1-10.6 4.2 44.36 44.36 0 0 1-11.271.958c-3.747-.198-7.47-.723-11.125-1.57-3.651-.812-7.236-1.9-10.723-3.254-.112-.044-.183-.154-.176-.274v-.011c.127-2.237.325-4.459.6-6.687.142-1.113.316-2.225.553-3.333.216-1.136.551-2.246 1-3.311.113-.286.256-.56.426-.816l.244-.4.162-.3a2.68 2.68 0 0 0 .282-.658 3.95 3.95 0 0 0 .212-.732c.237-1.042.389-2.101.454-3.168.158-2.169.154-4.373.1-6.576-.029-1.1-.08-2.206-.156-3.3s-.2-2.235-.208-3.359a43.38 43.38 0 0 1 .308-6.764 33.96 33.96 0 0 1 4.058-12.788.09.09 0 1 1 .161.082zm48.6 6.257a27.87 27.87 0 0 1 1.658 7.746 67.64 67.64 0 0 1 .266 7.9 161.78 161.78 0 0 1-.185 3.943c-.128 1.309-.206 2.622-.38 3.926a66.29 66.29 0 0 1-1.358 7.777c-.129-2.643-.1-5.259-.052-7.872l.166-7.816.137-7.8a76.16 76.16 0 0 0-.252-7.812zM70.222 91.956q.731 10.561 1.2 21.122L72.3 134.2l.763 21.118.447 10.553c.092 1.757.139 3.521.3 5.271l.217 2.631.336 2.621-.607-2.581c-.165-.869-.281-1.743-.423-2.616-.3-1.746-.48-3.5-.708-5.253a270.3 270.3 0 0 1-.973-10.546c-.3-3.518-.465-7.041-.687-10.562l-.474-10.569-.477-21.15q-.108-10.581.208-21.165zm.489-1.236a3.35 3.35 0 0 1 1.409-.512 2.24 2.24 0 0 1 1.573.368 2.48 2.48 0 0 1 .928 1.376 5.22 5.22 0 0 1 .2 1.552 8.66 8.66 0 0 0 .194 2.712c.116.393.386.723.748.915a2.2 2.2 0 0 0 1.347.109c-.434.297-.968.41-1.485.314-.555-.147-1.015-.533-1.256-1.054a6.68 6.68 0 0 1-.452-3 3.22 3.22 0 0 0-.658-2.371c-.743-.515-1.679-.665-2.545-.407zm3.2-3.3c.553.04 1.089.211 1.562.5.486.283.912.656 1.257 1.1a3.77 3.77 0 0 1 .718 1.525 3.14 3.14 0 0 1-.053 1.648c-.225-.513-.376-.984-.614-1.414a6.85 6.85 0 0 0-.768-1.207 15.96 15.96 0 0 0-2.1-2.147z"/><path d="M63.5 118.489l3.531-.466c.218-.024.416.127.451.343l.015.094c.518 3.218.838 6.449 1.055 9.686l.2 4.864-.038 4.879v.092a.39.39 0 0 1-.384.376c-1.1.014-2.2.033-3.3-.028l3.191-.851-.387.468-.655-4.835-.422-4.85-.18-9.742.465.437-3.542-.467zm18-2.522l-7.045 1.6.546-.626.2 4.944.073 4.944-.24 9.888-.921-.609 3.549-1.459 1.724-.849a7.2 7.2 0 0 0 1.586-1.088c-.359.557-.808 1.051-1.328 1.462a17.06 17.06 0 0 1-1.588 1.183 31.04 31.04 0 0 1-3.425 1.969.64.64 0 0 1-.917-.534v-.075l-.24-9.888.073-4.944.2-4.944v-.071c.015-.295.247-.533.542-.555l7.21-.348zm-51.92 39.295l.967 11.048.637 5.491c.31 1.844.462 3.711.453 5.581a89.64 89.64 0 0 1-.554 11.15l-.446 2.777s-.317 1.8-.447 2.7a40.51 40.51 0 0 0-.435 5.437 51.2 51.2 0 0 0 .838 10.877c.178.878.403 1.746.674 2.6.262.858.629 1.62.974 2.57.61 1.805 1.037 3.668 1.272 5.559.453 3.733.504 7.503.151 11.247a34.36 34.36 0 0 1-.948 5.589c-.241.95-.589 1.869-1.036 2.741-.244.477-.557.915-.93 1.3-.447.478-1.066.757-1.72.776l.176-.023c-1.789.4-3.518.65-5.281.883s-3.514.408-5.273.558a197.61 197.61 0 0 1-10.565.6h.041a11.42 11.42 0 0 0-3.675 1.084c-.532.3-.982.728-.932 1.188.151.559.493 1.048.967 1.381.072.061.116.148.124.242s-.024.187-.086.258c-.037.044-.085.078-.138.1-1.035.385-2.002.932-2.866 1.619-.402.306-.702.726-.862 1.206a1.37 1.37 0 0 0 .467 1.251 5.3 5.3 0 0 0 1.322.918c.484.236 1.003.39 1.537.456a6.4 6.4 0 0 0 3.219-.386.28.28 0 0 1 .362.16c.045.12.004.255-.1.33a8.52 8.52 0 0 0-2.283 2.279c-.287.403-.416.898-.362 1.39a1.7 1.7 0 0 0 .9 1.066l.032.022a3.34 3.34 0 0 0 1.455.276c.543 0 1.086-.045 1.622-.135a21.1 21.1 0 0 0 3.2-.858 46.98 46.98 0 0 0 6.1-2.73c.164-.092.372-.037.468.125s.045.371-.115.47l-.011.007c-1.202.781-2.316 1.688-3.324 2.706-1.031.898-1.716 2.128-1.937 3.477a1.91 1.91 0 0 0 .173.881 2.44 2.44 0 0 0 .22.4c.043.063.1.118.143.179l.072.089c.051.057-.037-.03.012.007a3.3 3.3 0 0 0 1.819.015c1.377-.333 2.709-.832 3.967-1.485a57.08 57.08 0 0 0 7.366-4.57c2.373-1.671 4.664-3.465 6.945-5.27l-.041.035c.8-.72 1.677-1.349 2.615-1.877a8.56 8.56 0 0 1 3.139-1.1c1.227-.167 2.469.177 3.436.95.875.764 1.535 1.742 1.916 2.839a20.63 20.63 0 0 1 1.087 6.242c.056 1.046.014 2.084.088 3.019a10.74 10.74 0 0 0 .557 2.75 4.06 4.06 0 0 0 .562 1.1c.232.288.413.375.59.374.295-.03.572-.153.792-.352a2.37 2.37 0 0 0 .605-.912 8.68 8.68 0 0 0 .394-1.318q.188-.773.411-1.52l.871-2.9c.95-3.824 1.036-7.812.252-11.674a1 1 0 0 1 0-.283c1.018-7.63 1.931-15.288 2.667-22.948.345-3.831.71-7.663.874-11.486.058-.958.048-1.906.076-2.859l-.066-2.857-.036-1.478.025-1.458a75.86 75.86 0 0 1 .086-2.909c.3-7.737 1-15.422 1.663-23.112s1.508-15.361 2.339-23.032c-.001-.035.019-.067.05-.083s.069-.012.097.009.041.057.034.091l-1.546 23.09-1.147 23.084c-.03.961-.046 1.92-.039 2.875v1.434l.057 1.413.114 2.925c-.012.974.011 1.956-.032 2.925-.121 3.886-.377 7.747-.733 11.6-.714 7.7-1.6 15.368-2.6 23.034v-.283a37.9 37.9 0 0 1 .572 6.223 22.8 22.8 0 0 1-.894 6.264c-.284 1.009-.618 1.981-.911 2.93q-.218.711-.4 1.417c-.124.543-.291 1.076-.5 1.592-.465 1.329-1.68 2.251-3.085 2.341a2.31 2.31 0 0 1-1.174-.342c-.307-.193-.577-.441-.795-.731a5.74 5.74 0 0 1-.818-1.6c-.348-1.038-.557-2.118-.623-3.211-.071-1.092-.015-2.089-.061-3.073a19.11 19.11 0 0 0-.923-5.729c-.272-.839-.754-1.595-1.4-2.195a2.94 2.94 0 0 0-2.269-.649 9.97 9.97 0 0 0-4.944 2.5l-.041.035c-2.326 1.788-4.666 3.56-7.115 5.19a58.15 58.15 0 0 1-7.623 4.483 18.76 18.76 0 0 1-4.255 1.476c-.823.213-1.694.149-2.477-.183a.73.73 0 0 1-.2-.164l-.1-.125c-.065-.084-.134-.165-.193-.254a3.33 3.33 0 0 1-.3-.563 2.79 2.79 0 0 1-.22-1.254 4.54 4.54 0 0 1 .8-2.249c.418-.635.906-1.223 1.453-1.751 1.07-1.039 2.249-1.96 3.516-2.746l.342.6c-1.015.5-2.019 1.01-3.056 1.461s-2.083.88-3.156 1.253c-1.078.373-2.184.66-3.307.859a10.35 10.35 0 0 1-1.731.13 3.58 3.58 0 0 1-1.8-.412l.032.022a2.26 2.26 0 0 1-1.16-1.46c-.079-.632.08-1.27.447-1.79.317-.49.693-.939 1.119-1.338a11.8 11.8 0 0 1 1.32-1.11l.262.49a6.98 6.98 0 0 1-3.507.455c-.603-.069-1.189-.238-1.736-.5s-1.047-.605-1.488-1.02c-.517-.458-.763-1.149-.65-1.831a3.12 3.12 0 0 1 1.057-1.566c.917-.75 1.949-1.348 3.056-1.772l-.1.594a3.07 3.07 0 0 1-1.236-1.853 1.65 1.65 0 0 1 .4-1.185 3.33 3.33 0 0 1 .866-.719c.609-.348 1.258-.621 1.932-.814.659-.199 1.329-.355 2.008-.469h.027.015c3.507-.2 7.008-.475 10.492-.863 1.742-.191 3.48-.413 5.208-.68s3.47-.569 5.1-.979l.033-.008c.047-.012.096-.017.144-.015.44.019 1-.615 1.362-1.361.372-.787.665-1.609.875-2.454a32.9 32.9 0 0 0 .861-5.343 50.93 50.93 0 0 0-.23-10.894 26.72 26.72 0 0 0-1.143-5.249c-.275-.792-.7-1.71-.965-2.625a26.53 26.53 0 0 1-.689-2.77 52.6 52.6 0 0 1-.761-11.208c.041-1.878.208-3.752.5-5.608a49.06 49.06 0 0 1 .51-2.759c.191-.914.364-1.775.5-2.688a88.6 88.6 0 0 0 .8-10.981 32.67 32.67 0 0 0-.309-5.472c-.2-1.856-.321-3.7-.437-5.55q-.338-5.544-.509-11.089c.002-.047.039-.085.086-.088s.088.031.095.078zm40.606 77.845c-.003-.236.096-.462.272-.619.163-.165.346-.308.545-.427a7.5 7.5 0 0 1 1.216-.594 15.8 15.8 0 0 1 2.556-.716c3.454-.66 7.001-.669 10.459-.026a15.7 15.7 0 0 1 2.564.712c.428.158.839.356 1.228.593a2.5 2.5 0 0 1 .556.451c.207.18.297.459.234.726-.013.043-.057.067-.1.055h-.008l-.37-.152.427-.007-.108.052c-.076-.314-.52-.446-.887-.555a9.7 9.7 0 0 0-1.214-.219c-.826-.1-1.665-.159-2.5-.2s-1.68-.081-2.523-.085c-.841-.042-1.685-.028-2.528-.037q-2.529-.018-5.056.079c-.84.045-1.684.078-2.515.179-.415.04-.826.107-1.232.2-.384.108-.844.183-1.017.59zm8.386 22.919a6.6 6.6 0 0 1-5.5-2.127 8.6 8.6 0 0 1-2.231-5.707c.02-1.032.196-2.056.523-3.035.295-.953.651-1.887 1.064-2.795a8.31 8.31 0 0 1 1.621-2.543c.735-.758 1.666-1.298 2.689-1.559.531-.132 1.08-.181 1.626-.145a2.92 2.92 0 0 1 1.726.653 2.81 2.81 0 0 1 .228 3.7c-.092.131-.192.256-.3.374l-.238.267c-.15.173-.3.346-.436.526-.279.351-.538.719-.774 1.1a7.1 7.1 0 0 0-1 2.313c-.181.735-.097 1.511.237 2.19.193.355.424.687.69.991.288.338.675.741.972 1.146.704.799 1.154 1.789 1.293 2.845a1.72 1.72 0 0 1-.184.812c-.137.236-.333.432-.57.567-.442.247-.934.393-1.439.426zm-.02-.18c.466-.049.914-.209 1.306-.466a1.03 1.03 0 0 0 .413-1.111c-.323-.843-.902-1.563-1.656-2.06-.367-.306-.741-.51-1.147-.851-.209-.182-.435-.345-.631-.552-.179-.225-.374-.44-.535-.685-.636-1.024-.86-2.252-.627-3.435.222-1.079.672-2.098 1.321-2.988.301-.426.627-.834.976-1.222.171-.194.351-.38.53-.563l.264-.261a1.91 1.91 0 0 0 .169-.186c.419-.45.48-1.127.148-1.645-.616-.486-1.405-.697-2.181-.583a4.3 4.3 0 0 0-2.436 1.03 5.61 5.61 0 0 0-1.5 2.321 11.07 11.07 0 0 0-.619 2.774 11.31 11.31 0 0 0 0 2.749 14.55 14.55 0 0 0 1.661 5.111c.426.814 1.058 1.502 1.833 1.995.81.507 1.767.728 2.717.628z"/><path d="M4.221 248.2l6.8-.781 3.351-.7c1.114-.262 2.191-.662 3.206-1.191a13.87 13.87 0 0 1-3.141 1.408c-1.092.365-2.205.669-3.326.929-2.244.527-4.508.928-6.8 1.238-.161.022-.321-.044-.42-.173s-.122-.3-.061-.45.199-.256.359-.277h.028zm2.894 5.69l14.045-6-13.665 6.822c-.22.088-.47-.007-.575-.22s-.028-.47.175-.59zm10.97 1.85l9.106-3.857-8.715 4.673c-.221.118-.496.035-.614-.186s-.035-.496.186-.614zm62.314-100.5c.942 1.894 1.992 3.725 3.1 5.5a44.7 44.7 0 0 0 3.646 5.059 22.38 22.38 0 0 0 4.479 4.122 11.47 11.47 0 0 0 5.5 2.056l-.12.01c5.168-.85 10.226-2.267 15.083-4.227 4.88-1.93 9.645-4.121 14.453-6.191l14.328-6.453 7.178-3.224c2.385-1.1 4.781-2.171 7.216-3.184.022-.01.047-.01.07-.001s.041.026.05.048c.017.041.002.089-.035.113-2.233 1.4-4.5 2.737-6.784 4.045s-4.628 2.508-6.96 3.731c-4.69 2.393-9.471 4.616-14.376 6.542-4.864 2.024-9.856 3.736-14.888 5.286l-7.524 2.383c-2.512.8-4.983 1.669-7.588 2.328a.3.3 0 0 1-.064.009h-.057c-2.272.033-4.499-.641-6.372-1.927a20.22 20.22 0 0 1-4.742-4.533 33.58 33.58 0 0 1-3.406-5.481c-.961-1.91-1.749-3.901-2.357-5.951-.007-.023-.004-.048.008-.069s.031-.037.054-.044c.043-.011.088.01.108.05zm12.49-24.858c.77 1.76 1.626 3.479 2.5 5.185s1.818 3.372 2.845 4.979a30.41 30.41 0 0 0 3.43 4.508c.616.672 1.323 1.254 2.1 1.73.692.451 1.53.619 2.342.47.025-.006.05-.011.076-.013h.032a84.61 84.61 0 0 0 10.748-1.678c3.549-.759 7.051-1.723 10.488-2.888a74.48 74.48 0 0 0 10-4.183l2.39-1.271c.785-.443 1.537-.941 2.31-1.4l1.154-.7c.375-.248.734-.519 1.1-.778l2.2-1.568-.129.123 4.2-4.882 2.106-2.435 1.076-1.228a8.42 8.42 0 0 1 6.35-2.735c.6.015 1.089.056 1.639.083l6.427.407 3.213.207 1.607.1c.307.008.612.047.911.117a3.1 3.1 0 0 1 .9.409c.551.373.962.919 1.167 1.552.189.614.189 1.269 0 1.883a4.82 4.82 0 0 1-2.071 2.821 4.6 4.6 0 0 1-1.643.643c-.559.082-1.126.103-1.69.061l-3.22-.086-6.439-.179.1-.166c.387 1.014.519 2.108.385 3.186.056-1.062-.147-2.121-.593-3.086-.013-.028-.015-.06-.005-.089s.032-.053.06-.066c.015-.007.032-.011.049-.011l6.439-.179 3.22-.086a6.96 6.96 0 0 0 1.516-.13c.468-.115.913-.313 1.311-.585 1.572-1 2.374-3.625.793-4.535-.175-.106-.365-.185-.564-.232a3.49 3.49 0 0 0-.686-.057l-1.609-.051-3.218-.1-6.437-.21-1.578-.054a6.88 6.88 0 0 0-1.432.153c-1.417.302-2.7 1.051-3.66 2.137l-1.025 1.211-2.078 2.459-4.171 4.906-.009.011a.77.77 0 0 1-.12.113c-2.953 2.263-6.114 4.242-9.439 5.911-3.31 1.664-6.745 3.068-10.273 4.2a91.34 91.34 0 0 1-10.726 2.75c-3.631.686-7.303 1.137-10.992 1.349l.108-.016c-1.099.19-2.228-.053-3.151-.679a10.71 10.71 0 0 1-2.27-1.983 27.5 27.5 0 0 1-3.314-4.806c-1.873-3.37-3.462-6.89-4.749-10.524z"/><path d="M189.208 105.752l-16.961 17.205c1.992.389 2.97 1.032 3.333 1.766.002.019.008.038.018.054 0 .009.009.009.009.018.218.562.178 1.191-.109 1.721l-.027.072c-.468.897-1.115 1.689-1.9 2.327l-.009.009a1.63 1.63 0 0 1-.534.263h-.018c-.728.191-1.476.3-2.228.326-2.282.145-5.044 0-5.044 0l-14.019 14.969 23.979 27.61 48.066-45.748zm-21.039 46.762a1.36 1.36 0 1 1 1.311-1.358 1.36 1.36 0 0 1-1.311 1.358zm-2.173-13.592l23.906-25.364 20.867 14.117-28.253 25.663zm18.073-14.003l2.9-3.4 3.075-3.5.21-.239.285.185q2.766 1.791 5.5 3.636l.479.322-.429.387-7.505 6.586-.2.166-.177-.162-4.138-3.981zm0 0l4.505 3.559h-.374l7.275-6.839.051.71q-2.723-1.854-5.419-3.749l.495-.055-3.178 3.138zm129.347-76.433a5.59 5.59 0 0 1 1.659-.793 7.51 7.51 0 0 1 1.815-.323c.626-.027 1.252.04 1.858.2a3.7 3.7 0 0 1 1.623.917 15.06 15.06 0 0 0-1.742-.221c-.568-.019-1.13-.02-1.7.009l-3.517.212zm3.043 6.466a1.36 1.36 0 1 0-1.312-1.358 1.36 1.36 0 0 0 1.312 1.358zm-232.6-.682a5.59 5.59 0 0 1 1.659-.793 7.51 7.51 0 0 1 1.815-.323c.626-.027 1.252.041 1.858.2a3.7 3.7 0 0 1 1.623.917 15.08 15.08 0 0 0-1.742-.221c-.568-.019-1.13-.02-1.7.009l-3.513.211zm3.043 6.466a1.36 1.36 0 1 0-1.312-1.358 1.36 1.36 0 0 0 1.312 1.358zm228.713-23.478c1.759 2.896 3.705 5.674 5.826 8.316a33.25 33.25 0 0 0 3.461 3.675 12.98 12.98 0 0 0 1.979 1.488 4.04 4.04 0 0 0 2.161.688l-.336.184c.585-.849 1.283-1.615 2.074-2.276a5.79 5.79 0 0 1 2.915-1.379 4.09 4.09 0 0 1 3.174 1.146 5.97 5.97 0 0 1 1.674 2.831 8.87 8.87 0 0 1 .186 3.188 11.7 11.7 0 0 1-.7 3.081 5.89 5.89 0 0 1-2.016 2.694 5.3 5.3 0 0 1-3.288.893l.835-.767-1.134 24.592c0 1.023-.021 2.048.027 3.064 0 .513.06 1.009.1 1.511a3.12 3.12 0 0 0 .4 1.343 1.4 1.4 0 0 0 .931.819 2.99 2.99 0 0 0 1.366-.181 14.8 14.8 0 0 0 2.715-1.307c3.463-2.19 6.803-4.568 10.005-7.123h.005a.3.3 0 0 1 .063-.036c4.403-1.799 9.252-2.203 13.893-1.159.57.162 1.155.284 1.716.48l1.655.586a4.6 4.6 0 0 0 1.444.324c.441-.023.651-.126.805-.42.159-.426.216-.885.164-1.337a9.79 9.79 0 0 0-.238-1.586 26.02 26.02 0 0 0-1-3.205 65.61 65.61 0 0 0-2.762-6.247l-.388-.76c-.071-.132-.125-.249-.185-.341l-.219-.354-.906-1.48-1.8-2.968c-2.382-3.966-4.728-7.954-6.911-12.057l-1.588-3.122a18.54 18.54 0 0 1-1.351-3.457l-.1-.587-.025-.361c-.008-.231-.071-.509-.1-.761-.1-.526-.23-1.057-.389-1.585a21.05 21.05 0 0 0-1.19-3.1c-1.715-4.124-4.996-7.399-9.124-9.105a14.02 14.02 0 0 0-6.571-.811 51.35 51.35 0 0 0-6.805.964 57.22 57.22 0 0 0-6.66 1.814c-.543.191-1.094.364-1.63.574a9.65 9.65 0 0 0-1.564.664c-.938.676-1.201 1.957-.607 2.948zm-.154.095c-.659-1.076-.384-2.478.634-3.224a9.6 9.6 0 0 1 1.606-.709l1.622-.616c2.171-.8 4.386-1.484 6.626-2.09 2.25-.597 4.537-1.043 6.846-1.337 2.368-.403 4.799-.236 7.09.485a15.52 15.52 0 0 1 6.145 3.732 20.6 20.6 0 0 1 4.189 5.832 22.87 22.87 0 0 1 1.331 3.347 18.7 18.7 0 0 1 .455 1.773c.046.319.116.607.138.953l.037.5c.028.088.052.175.07.263.326 1.018.737 2.006 1.229 2.955.489 1.024 1.019 2.039 1.548 3.055 2.169 4.045 4.448 8.054 6.758 12.043l1.748 2.984.881 1.487.23.386c.093.153.159.3.223.423l.388.788a60.91 60.91 0 0 1 2.729 6.465c.397 1.122.721 2.268.969 3.432a11.21 11.21 0 0 1 .226 1.842 4.15 4.15 0 0 1-.367 2.048 3.75 3.75 0 0 1-.376.511 2.38 2.38 0 0 1-.533.383 2.61 2.61 0 0 1-1.164.245 5.51 5.51 0 0 1-1.908-.468l-1.587-.633c-.521-.206-1.067-.34-1.6-.515a21.98 21.98 0 0 0-13.314.647l.068-.04c-3.3 2.449-6.6 4.917-10.152 7.042-.889.556-1.832 1.018-2.815 1.381a3.5 3.5 0 0 1-1.657.211 2.04 2.04 0 0 1-1.354-1.087 3.83 3.83 0 0 1-.516-1.566c-.057-.521-.127-1.045-.144-1.56-.068-1.035-.1-2.064-.139-3.1-.105-4.12-.078-8.234-.028-12.347s.156-8.223.357-12.333v-.021a.79.79 0 0 1 .257-.544.78.78 0 0 1 .566-.202h.011c1.697.107 3.25-.95 3.775-2.567a10.17 10.17 0 0 0 .632-2.644 7.44 7.44 0 0 0-.049-2.67c-.364-1.648-1.728-3.254-3.346-3.169-1.655.143-3.244 1.547-4.38 2.976l-.031.039a.39.39 0 0 1-.305.146 4.77 4.77 0 0 1-2.586-.929c-.718-.491-1.388-1.049-2-1.668a37.63 37.63 0 0 1-3.331-3.891c-2.055-2.713-3.926-5.55-5.7-8.444z"/><path d="M332.616 63.921a12.3 12.3 0 0 1-.794 2.468 15.7 15.7 0 0 1-1.213 2.3c-.47.747-1.039 1.426-1.691 2.02-.337.306-.72.557-1.134.744-.416.202-.896.229-1.332.075.805-.156 1.512-.63 1.963-1.315a20.7 20.7 0 0 0 1.435-2.016l2.766-4.276zm-1.22 84.51a6.86 6.86 0 0 1 .5 2.092c-.734 1.911-3.975 8.286-3.975 8.286a3.8 3.8 0 0 1-1.395-.58c-4.211-2.5-12.868-12.415-15.829-15.892l-.063-.063a.5.5 0 0 0-.054-.073l-.915-1.078c11.896-13.366 14.504-31.459 15.804-40.423s4.682-11.238 4.682-11.238l.054 1.829c-.009-.245-.036-.48-.054-.724.001.028-.002.055-.009.082q-.353 7.294-1.3 14.47c-.344 2.4-.743 4.79-1.25 7.145-.245 1.186-.552 2.345-.851 3.5-.295 1.128-.711 2.221-1.241 3.26-.254.525-.534 1.014-.851 1.557-.321.563-.602 1.147-.842 1.748a15.8 15.8 0 0 0-1.005 3.731 18.9 18.9 0 0 0 .444 7.579c.653 2.422 1.634 4.744 2.916 6.9.326.525.625 1.069.969 1.585l1.059 1.521c.706 1 1.53 1.9 2.291 2.852a13.95 13.95 0 0 1 .914 1.933z"/><path d="M332.047 150v.027a1.99 1.99 0 0 1-.154.5c.032-.383.023-.769-.027-1.15 0-.013-.003-.025-.009-.036a.23.23 0 0 1-.018-.063l-.208-.634-.054-.154-.317-.833a.78.78 0 0 0-.063-.154l-.235-.561-.226-.507-.317-.643v-.009l-.579-1.114-.308-.543a1.47 1.47 0 0 1-.09-.163c-.002-.014-.009-.026-.018-.036-.027-.036-.045-.073-.073-.109l-.145-.235-.109-.172c-.009-.02-.021-.038-.036-.054-1.978-3.091-3.426-6.491-4.283-10.06a18.57 18.57 0 0 1-.235-6.955 14.73 14.73 0 0 1 1.675-4.854c.3-.525.625-1.1.9-1.666a18.18 18.18 0 0 0 1.313-3.595c.308-1.2.58-2.409.8-3.631.443-2.424.764-4.869.96-7.326.118-1.467.2-2.934.235-4.41.007-.017.01-.036.009-.054l.036-1.594.036 1.358zm1.764 5.4a7.82 7.82 0 0 1 .453 2.766c.019.942-.135 1.879-.453 2.766-.318-.887-.471-1.824-.452-2.766-.017-.942.137-1.879.453-2.766zm27.5-2.82c.87 2.928 1.374 5.953 1.5 9.005q.346 4.552.456 9.114.11 4.562.094 9.121c.032 3.044-.184 6.09-.283 9.118l-.877 18.2-.44 9.1-.515 9.1-.033-.269a10.75 10.75 0 0 1 .378 4.458c-.208 1.515-.789 2.954-1.689 4.19-.06.078-.126.162-.2.249l-.174.194-.351.386-.7.771-1.405 1.541-2.811 3.082-1.405 1.541-.7.771-.351.385a4.53 4.53 0 0 0-.286.365 40.18 40.18 0 0 0-2.08 3.532 61.4 61.4 0 0 1-4.325 7.22 6.5 6.5 0 0 1-1.585 1.566 1.51 1.51 0 0 1-1.332.222 2.48 2.48 0 0 1-.327-.18l-.248-.237c-.127-.166-.226-.336-.336-.506-.32-.695-.454-1.462-.386-2.224.043-.721.169-1.435.375-2.127.396-1.358.922-2.675 1.569-3.933l.488-.935a3.21 3.21 0 0 0 .362-.883 2.4 2.4 0 0 0 .041-.918c-.021-.272-.139-.528-.334-.719-.345-.283-1.092-.02-1.585.328a6.89 6.89 0 0 0-1.356 1.464l-2.64 3.246c-.895 1.071-1.807 2.129-2.767 3.149q-.717.768-1.49 1.492c-.261.239-.528.473-.808.7-.147.108-.285.221-.445.322a2.54 2.54 0 0 1-.247.149c-.112.067-.236.113-.365.135l.048-.007a9.41 9.41 0 0 1-2.664.282c-.482-.018-.953-.143-1.38-.367-.461-.248-.801-.673-.944-1.176-.224-.946-.055-1.942.469-2.76a5.72 5.72 0 0 1 .861-1.066l.891-.942 3.563-3.77 1.781-1.885a18.57 18.57 0 0 0 1.666-1.871c.212-.319.376-.669.484-1.037.108-.274.129-.574.061-.86.034-.04-.253-.114-.621-.02a3.15 3.15 0 0 0-1.012.432c-.657.514-1.286 1.062-1.883 1.644-.643.587-1.312 1.149-1.975 1.716-1.346 1.131-2.76 2.176-4.236 3.131-.754.484-1.542.914-2.356 1.288a10.2 10.2 0 0 1-1.3.494 6.41 6.41 0 0 1-.708.174c-.296.06-.6.072-.9.037h.267a5.04 5.04 0 0 1-1.709.066c-.36-.053-.701-.193-.993-.409a1.83 1.83 0 0 1-.657-1 3.23 3.23 0 0 1 .158-1.891 4.13 4.13 0 0 1 .975-1.487c.205-.2.427-.382.663-.544l.6-.422 1.191-.848 2.372-1.707 4.681-3.471a20.14 20.14 0 0 0 2.108-1.793 1.16 1.16 0 0 0 .164-.2l.065-.091a.16.16 0 0 1 .017-.047c.018-.024.009-.018 0 .008a.73.73 0 0 1 .005.095 1.05 1.05 0 0 0 .053.137l.058.07a2.43 2.43 0 0 0-.823-.109l.351-.089-7.106 3.564-3.553 1.782-.888.445c-.3.145-.561.3-.975.465a4.25 4.25 0 0 1-2.5.2 3.07 3.07 0 0 1-1.289-.619c-.451-.387-.721-.943-.746-1.536a3.22 3.22 0 0 1 .265-1.379 4.1 4.1 0 0 1 .679-1.1c.527-.571 1.162-1.033 1.868-1.359l1.742-.959 6.967-3.837 6.966-3.837 3.483-1.918.871-.48c.271-.161.5-.324.752-.483a7.73 7.73 0 0 0 1.344-1.138 13.61 13.61 0 0 0 2.8-6.776c.394-2.54.458-5.121.189-7.678l-.006-.055h0l-.764-13.556-.715-13.555-.347-6.776c-.087-1.128-.063-2.261-.043-3.393l.063-3.4.262-13.576c.005-.046.044-.081.09-.081s.086.035.091.081l.262 13.56.063 3.388c.01 1.13.016 2.259.133 3.386l.527 6.764 1.034 13.525.984 13.524-.006-.057c.335 2.715.313 5.462-.065 8.172-.306 2.825-1.411 5.504-3.185 7.723-.499.54-1.059 1.021-1.669 1.433a20.79 20.79 0 0 1-.92.589l-.868.482-3.473 1.929-6.947 3.858-6.947 3.858-1.737.964a4.36 4.36 0 0 0-1.351.927 2.2 2.2 0 0 0-.369.581c-.08.174-.124.362-.129.553.015.125.013.129.087.2a1.27 1.27 0 0 0 .492.22 2.39 2.39 0 0 0 1.4-.114c.2-.075.524-.246.82-.387l.892-.437 3.552-1.757 7.138-3.5.022-.011c.103-.05.215-.077.329-.079.305-.007.61.016.91.068.391.055.762.21 1.076.449a1.32 1.32 0 0 1 .481.813c.042.275.007.556-.1.813-.041.1-.086.2-.133.286l-.143.21a2.58 2.58 0 0 1-.3.365c-.735.721-1.523 1.385-2.357 1.988-1.572 1.191-3.162 2.332-4.763 3.46l-2.409 1.676-1.209.831-.605.414c-.169.11-.328.235-.475.374a2.62 2.62 0 0 0-.637.931 1.86 1.86 0 0 0-.131.979c.057.192.119.26.471.344a3.7 3.7 0 0 0 1.2-.042h.267c-.058-.008.074 0 .134-.006l.253-.029c.186-.032.371-.075.552-.128a8.83 8.83 0 0 0 1.13-.411c.762-.337 1.501-.725 2.21-1.163 1.45-.89 2.843-1.869 4.171-2.932l1.981-1.638.971-.845a7.56 7.56 0 0 1 1.1-.859 4.23 4.23 0 0 1 1.376-.544 2.46 2.46 0 0 1 .823-.038 1.2 1.2 0 0 1 .91.584 1.56 1.56 0 0 1 .16.93 3.75 3.75 0 0 1-.156.737c-.147.459-.361.894-.636 1.291a18.68 18.68 0 0 1-1.813 1.967l-1.82 1.847-3.641 3.694a15.4 15.4 0 0 0-1.7 1.851 2.85 2.85 0 0 0-.428 2.2c.275.705.979 1.148 1.734 1.088.833.035 1.667-.049 2.477-.248l.048-.007c-.055.005.069-.028.116-.062.069-.036.136-.076.2-.12.136-.083.268-.19.4-.286.265-.208.523-.431.777-.66q.756-.7 1.471-1.451a69.06 69.06 0 0 0 2.768-3.1c.896-1.058 1.778-2.133 2.628-3.233.41-.597.906-1.13 1.472-1.582a3.3 3.3 0 0 1 1.028-.5 1.43 1.43 0 0 1 1.259.164 1.7 1.7 0 0 1 .577 1.1c.062.384.049.777-.038 1.156a3.85 3.85 0 0 1-.412 1.047l-.468.92c-.615 1.225-1.112 2.506-1.483 3.826a8.77 8.77 0 0 0-.33 1.978 3.51 3.51 0 0 0 .337 1.834c.342.594.632.728 1.15.372a5.82 5.82 0 0 0 1.323-1.4 60.89 60.89 0 0 0 4.057-7.198 40.22 40.22 0 0 1 2.065-3.712 6.59 6.59 0 0 1 .347-.465l.342-.395.684-.79 1.369-1.579 5.431-6.276a7.78 7.78 0 0 0 1.364-3.49 9.2 9.2 0 0 0-.358-3.8c-.026-.087-.037-.178-.033-.269l.455-9.094.53-9.09 1.062-18.181c.173-3.037.462-6.048.5-9.078q.12-4.545.128-9.093l-.132-9.09c-.064-1.513-.153-3.025-.3-4.53a21.53 21.53 0 0 0-.791-4.442v-.01c-.016-.047.009-.099.056-.115s.099.009.115.056z"/><path d="M342.615 214.833c.163 9.055-10.568 11.872-10.568 11.872s-57.755 9.662-62.1-12.723 21.95-31.947 21.95-31.947c45.422-26.3 48.808-22.167 48.808-22.167l-.109 10.8c.01 7.622.442 15.237 1.295 22.811 0 0 .4 8.612.625 16.725-3.314-.661-6.647-1.159-9.979-1.594-3.486-.471-6.973-.842-10.468-1.186l-10.495-.779c-3.504-.179-7.018-.317-10.55-.272 3.459.7 6.937 1.222 10.414 1.684s6.973.833 10.468 1.168l10.5.779c3.359.19 6.728.317 10.115.281l.094 4.548zm-13.446-71.479l.282.4-.009-.013.078.1-.011-.013c.035.032.056.077.057.125l-.014-.057.092.143.006.01c.354.523.662 1.072.977 1.619a.18.18 0 0 1 .024.082v.034l-.027-.11a22.4 22.4 0 0 1 .869 1.707l-.025-.051c.106.215.153.342.219.489l.189.438c.126.289.233.6.349.9l.016.113c-.015-.15-.02-.1 0-.066l-.022-.053c.015.03.027.061.036.093.011.041.017.083.017.126l-.043-.184a.55.55 0 0 1 .064.247l-.017-.118.187.56-.11.429c.013-.032.063-.015.119-.242.012-.093-.005-.187-.05-.269-.017-.029-.006-.013.01.019.029.063.046.131.048.2v.007l-.014-.111c.227.784.376 1.587.447 2.4a8.1 8.1 0 0 1-.012 1.263 6.88 6.88 0 0 1-.252 1.269l-.271-.709a13.62 13.62 0 0 0 1.951.766c.667.205 1.35.354 2.042.446.664.092 1.337.09 2-.008.315-.049.623-.131.921-.244l1.021-.419-.5.743-.124-2.783c-.01-.226.079-.445.243-.599s.388-.231.613-.208h.022l5.332.509a146.71 146.71 0 0 0 5.333.36c1.778.09 3.557.155 5.329.1 1.748-.002 3.49-.204 5.193-.6l.054-.015c.109-.03.225-.015.323.041s.169.149.199.259a.44.44 0 0 1 .015.126l-.03.987v-.06l.22 1.8-.366-.3a38.14 38.14 0 0 0 5.333-.515c1.759-.316 3.487-.784 5.165-1.4a25.99 25.99 0 0 0 8.968-5.613l-.173.39v.006c-.004-.139.051-.274.152-.37l.024-.023c.608-.577 1.181-1.19 1.716-1.835.266-.322.522-.651.761-.986a10.58 10.58 0 0 0 .646-1.009l-.071.47-1.851-7.479q-.93-3.737-1.959-7.448l-4.307-14.785-4.7-14.671q-2.444-7.31-5.179-14.531v-.013a.1.1 0 0 1-.006-.038v-.009l.012.052-.226-.569c-.018-.046.005-.098.051-.117a.1.1 0 0 1 .116.046l.281.535a.1.1 0 0 1 .011.041v.021l-.011-.05c2.316 4.613 4.326 9.369 6.244 14.159 1.849 4.816 3.644 9.66 5.207 14.58 1.613 4.9 2.993 9.883 4.253 14.888 1.3 5 2.382 10.045 3.388 15.105l.008.039a.6.6 0 0 1-.079.432c-.246.389-.516.764-.807 1.121a18.87 18.87 0 0 1-.874 1.009c-.601.646-1.241 1.256-1.914 1.827l.175-.393v.042a.49.49 0 0 1-.172.358 27.81 27.81 0 0 1-4.5 3.147c-1.593.888-3.261 1.634-4.984 2.231-1.717.594-3.476 1.062-5.261 1.4a52.78 52.78 0 0 1-5.4.67c-.175.013-.331-.108-.363-.28v-.022l-.32-1.785v-.035-.025l-.03-.987.591.407c-1.766.542-3.591.873-5.435.984a57.84 57.84 0 0 1-5.439.2c-3.615-.06-7.224-.332-10.807-.814l.878-.8.075 2.777c.008.329-.192.627-.5.743l-1.036.387a6.1 6.1 0 0 1-1.221.282c-.799.093-1.607.071-2.4-.064-.766-.126-1.518-.325-2.246-.593-.728-.262-1.435-.582-2.113-.956-.246-.135-.362-.425-.277-.692l.006-.017a6.07 6.07 0 0 0 .255-1.017 7.1 7.1 0 0 0 .083-1.078 11.53 11.53 0 0 0-.263-2.227l-.007-.032c-.005-.026-.008-.052-.007-.079v-.007a.49.49 0 0 0 .046.19c.015.029.025.043.006.012-.046-.084-.064-.181-.051-.276.058-.232.111-.218.127-.254l-.11.429-.139-.562-.018-.119a.29.29 0 0 0 .028.12c-.013-.04-.024-.081-.032-.123l-.011-.061a.42.42 0 0 0 .013.089c.006.02.013.04.023.058l-.022-.053a.56.56 0 0 1-.036-.192l.016.113c-.085-.295-.157-.59-.257-.888l-.147-.445c-.046-.146-.108-.315-.125-.39l-.025-.051c-.2-.575-.434-1.153-.689-1.716l-.01-.022a.2.2 0 0 1-.017-.088v-.009l.025.106-.8-1.7.006.009-.089-.183-.014-.057c.012.064.005.026.021.052h0 0l-.009-.015-.066-.113-.009-.014-.225-.415v-.005c-.028-.043-.016-.099.027-.127s.099-.016.127.027zm-13.25-105.507c-1.208 1.71-2.052 3.65-2.481 5.7-.218 1.004-.356 2.024-.411 3.05a22.61 22.61 0 0 0 .1 3.075l.087.768a5.88 5.88 0 0 1 .042.93c-.027.6-.128 1.195-.3 1.77-.344 1.165-1.027 2.201-1.962 2.976-.892.562-1.75 1.177-2.569 1.842-.346.329-.624.722-.818 1.158-.193.412-.255.874-.177 1.322l-.022-.049a1.71 1.71 0 0 0 .528.526 2.35 2.35 0 0 0 .764.317c.569.126 1.158.134 1.731.025a.27.27 0 0 1 .315.217v.029.02l.2 2.524a27.05 27.05 0 0 0 1.621 7.29 3.72 3.72 0 0 0 1.152 1.7c.052.02.091.06.146.075l.266.086c.186.056.377.108.572.155a17.46 17.46 0 0 0 1.182.26 26.54 26.54 0 0 0 4.9.383l2.477-.088 1.26-.091a5.4 5.4 0 0 1 1.526.1 4.96 4.96 0 0 1 2.648 1.575 7.29 7.29 0 0 1 1.39 2.5 16.55 16.55 0 0 1 .78 5.248c.012 1.729-.134 3.455-.435 5.158v-.04l-.083 1.148-.053.571c-.025.2-.025.352-.071.6-.009.04-.046.067-.087.066s-.075-.033-.08-.074v-.05l-.208-2.247v-.04a39.18 39.18 0 0 0-.233-5.015 18.34 18.34 0 0 0-1.1-4.724c-.404-1.36-1.478-2.418-2.844-2.8a4.55 4.55 0 0 0-1.007-.045l-1.28.086c-.869.049-1.741.072-2.613.045a28.28 28.28 0 0 1-5.219-.625c-.432-.1-.862-.208-1.291-.342a12.01 12.01 0 0 1-.643-.225l-.331-.135a2.9 2.9 0 0 1-.407-.238 3.53 3.53 0 0 1-1.028-1.222c-.221-.411-.404-.842-.547-1.286-1.008-3.449-.888-6.864-1.1-10.273l.32.265a5.36 5.36 0 0 1-1.95 0 3.53 3.53 0 0 1-.954-.354 2.27 2.27 0 0 1-.81-.73c-.009-.013-.015-.028-.02-.043v-.006c-.282-1.203.042-2.467.867-3.386a23.01 23.01 0 0 1 2.4-2.184 5.6 5.6 0 0 0 1.363-2.407 5.88 5.88 0 0 0 .221-1.382c.015-.223.012-.447-.008-.67l-.07-.827c-.199-2.22.055-4.458.746-6.577.658-2.112 1.863-4.012 3.491-5.509.035-.029.086-.028.12.003s.039.082.013.119zm70.95 112.675c-10.866 8.258-24.481 9.109-24.481 9.109s2.694 17.006-.883 46.092a23 23 0 0 0-.38 4.537 87.74 87.74 0 0 1 8.992-.208 83.15 83.15 0 0 1 9.354.67 30.09 30.09 0 0 0 12.179-8.259c12.17-16.734-4.781-51.941-4.781-51.941zm-16.78 60.435c-2.988-.091-5.977-.235-8.965-.616.073.9.3 1.594.788 1.684l-1.186 14.353 16.58 1.078s-2.744-10.378 1.675-16.381l.489-.353c-3.12.255-6.252.334-9.381.236zm3.468 14.851a1.36 1.36 0 0 1-1.026-2.302 1.36 1.36 0 0 1 2.337.944 1.36 1.36 0 0 1-1.311 1.358zm.978-12.985a1.36 1.36 0 0 1 1.024 2.302 1.36 1.36 0 0 1-2.336-.944 1.36 1.36 0 0 1 1.312-1.358zm-.978 5.377a1.36 1.36 0 0 1 1.026 2.302 1.36 1.36 0 0 1-2.337-.944 1.36 1.36 0 0 1 1.311-1.358z"/><path d="M391.635 202.375a22.41 22.41 0 0 1 7.056-.922c1.216.025 2.425.181 3.608.464a9.77 9.77 0 0 1 3.428 1.491c1.05.748 1.876 1.769 2.39 2.952l.6 1.64a6.4 6.4 0 0 0 .914 1.4c1.612 1.643 3.654 2.799 5.892 3.335 2.22.585 4.477 1.023 6.755 1.312l3.473.313a22.33 22.33 0 0 1 3.567.73 15.02 15.02 0 0 1 3.418 1.465 7.47 7.47 0 0 1 1.54 1.247c.502.527.843 1.186.983 1.9.113.709.008 1.436-.3 2.084a6.19 6.19 0 0 1-1.083 1.574c-.835.865-1.788 1.609-2.83 2.209-.021.012-.045.016-.069.01s-.044-.021-.056-.041c-.021-.037-.016-.083.014-.113.819-.806 1.561-1.686 2.218-2.629.306-.437.542-.919.7-1.429a2.54 2.54 0 0 0 .018-1.352c-.396-.877-1.111-1.571-2-1.941-.983-.484-2.014-.864-3.076-1.131-1.082-.297-2.18-.536-3.287-.717l-3.488-.5c-2.353-.404-4.648-1.097-6.831-2.063a19.46 19.46 0 0 1-5.985-3.87c-.427-.437-.806-.918-1.132-1.435-.173-.258-.327-.529-.459-.811l-.39-.739c-.569-.902-1.364-1.639-2.307-2.138a16.91 16.91 0 0 0-6.319-1.821 57.17 57.17 0 0 0-6.923-.3c-.025.003-.05-.005-.069-.022s-.03-.04-.031-.065a.1.1 0 0 1 .064-.092z"/><path d="M381.657 209.885a32.85 32.85 0 0 0 3.559-.6 11.59 11.59 0 0 0 1.681-.52 22.44 22.44 0 0 1 1.739-.63c2.362-.813 4.846-1.221 7.344-1.205a9.96 9.96 0 0 1 3.815.817 6.99 6.99 0 0 1 1.707 1.143 6.33 6.33 0 0 1 1.242 1.66 7.9 7.9 0 0 1 .682 1.9l.232.741a6.26 6.26 0 0 0 .351.7c.585.927 1.354 1.726 2.258 2.346 1.97 1.286 4.14 2.236 6.422 2.81l3.507.8 3.6.531a31.51 31.51 0 0 1 7.049 1.994 12.94 12.94 0 0 1 3.275 1.8 4.58 4.58 0 0 1 1.236 1.548 3.79 3.79 0 0 1 .319.981 5.96 5.96 0 0 1 .035 1.026 7.92 7.92 0 0 1-1.446 3.587 17.38 17.38 0 0 1-1.113 1.521l-.146.185-.218.209a2.16 2.16 0 0 1-.457.351 5.31 5.31 0 0 1-.937.473 24.01 24.01 0 0 1-7.43 1.061 78.86 78.86 0 0 1-14.643-1.134 43.17 43.17 0 0 1-7.192-1.828l-3.355-1.343-3.424-1.034c-4.639-1.233-9.414-2.088-14.2-2.865-.048-.007-.082-.051-.077-.1s.047-.079.093-.078a89.99 89.99 0 0 1 14.511 1.668c1.2.266 2.394.55 3.581.908 1.172.322 2.417.855 3.454 1.2a48.04 48.04 0 0 0 6.932 1.568 95.76 95.76 0 0 0 14.3 1.335c1.193.006 2.383-.035 3.559-.121a14.9 14.9 0 0 0 3.386-.583 3.98 3.98 0 0 0 .7-.311c.1-.047.192-.11.272-.186l.12-.1.143-.166c.398-.427.774-.875 1.125-1.341.728-.861 1.235-1.887 1.474-2.989a3.19 3.19 0 0 0-1.12-2.86c-.894-.766-1.907-1.379-3-1.816-2.193-.987-4.517-1.654-6.9-1.98-4.766-.488-9.817-.835-14.275-3.469a8.86 8.86 0 0 1-2.809-2.778 7.82 7.82 0 0 1-.467-.92l-.316-.992a7 7 0 0 0-.52-1.519c-.887-1.938-3.139-2.8-5.412-2.951a23.9 23.9 0 0 0-7.006.731c-.581.137-1.158.3-1.728.463a12.39 12.39 0 0 1-1.841.365 23.03 23.03 0 0 1-3.665.179c-.024-.001-.047-.011-.063-.029s-.025-.041-.025-.065c.003-.045.037-.082.082-.087zm-38.707.402h-.435v-.081zm-16.431-52.056a27.3 27.3 0 0 1-2.752 4.5 26.99 26.99 0 0 1-3.481 3.964 26.99 26.99 0 0 1 2.753-4.5 27.3 27.3 0 0 1 3.481-3.964z"/></g><path fill="none" stroke="#020202" stroke-linecap="round" stroke-linejoin="round" stroke-width=".906" d="M384.375 145.378l1.734 5.144"/><g fill="#5504b0"><path d="M310.697 142.336c-2.355 2.464-4.771 4.863-7.176 7.278l-3.676 3.557-.94.88c-.157.145-.347.3-.486.437l-.361.4a56.81 56.81 0 0 0-1.514 2.006l-11.8 16.658c-2 2.762-4.008 5.51-6.183 8.172-2.183 2.626-4.415 5.224-6.821 7.665a102.98 102.98 0 0 1-15.866 12.937c-.02.013-.042.024-.064.032q-6.8 2.48-13.5 5.2l-3.333 1.386c-1.09.429-2.143.947-3.149 1.547-.449.281-.849.633-1.186 1.041a1.09 1.09 0 0 0-.243.5.31.31 0 0 0 .1.3c.349.302.767.511 1.218.608a11.89 11.89 0 0 0 1.661.3.74.74 0 0 1 .282 1.372l-.019.011a21.4 21.4 0 0 0-2.256 1.495c-.347.262-.677.547-.987.852-.262.236-.474.523-.624.842-.049.121-.015.112-.024.087.041.036.085.067.132.094.334.158.692.259 1.059.3a16.68 16.68 0 0 0 2.658.122c.37-.006.703.226.824.576s.004.738-.291.963l-.02.015a11.25 11.25 0 0 0-1.354 1.2c-.381.367-.685.806-.894 1.292-.061.193-.036.275-.017.313.074.109.178.194.3.245a4.78 4.78 0 0 0 1.571.394c.284.033.536.197.682.443s.167.546.058.811l-.008.018a1.3 1.3 0 0 0-.092.677c0 .044 0-.039-.025-.019.03-.007.031.006.066.017.054.001.107.007.16.018a6.42 6.42 0 0 0 2.169-.567c1.541-.683 3.164-1.507 4.7-2.334s3.062-1.733 4.514-2.69c1.435-.9 2.746-1.983 3.9-3.223l.034-.039c.049-.056.106-.105.169-.145a13.59 13.59 0 0 1 1.895-1.012 8.16 8.16 0 0 1 2.154-.634c.208-.013.409-.034.622-.033a9.48 9.48 0 0 1 .67.079c.235.073.466.159.692.258a5.53 5.53 0 0 1 .613.47 3.8 3.8 0 0 1 .835 2.43c.011.109-.005.219-.049.32l-.025.057c-1.219 2.532-2.051 5.232-2.469 8.011a4.03 4.03 0 0 0 .179 1.79c.089.211.245.387.445.5.258.176.533.327.82.45.7.495 1.674-1.032 2.424-2.144 1.539-2.4 3.073-4.943 4.559-7.35a22.15 22.15 0 0 0 2.057-8.285c.002-.025.013-.048.032-.064s.043-.024.068-.021c.047.004.084.043.085.09.068 2.944-.465 5.87-1.568 8.6-.68 1.355-1.411 2.55-2.108 3.837l-2.148 3.8a15.33 15.33 0 0 1-1.266 1.882 3.13 3.13 0 0 1-1.034.863 1.9 1.9 0 0 1-.8.193 2.45 2.45 0 0 1-.742-.138 5.46 5.46 0 0 1-1.105-.546 2.39 2.39 0 0 1-.575-.456 2.52 2.52 0 0 1-.419-.621 5.3 5.3 0 0 1-.368-2.479 20.05 20.05 0 0 1 .876-4.433c.426-1.419.927-2.815 1.5-4.181l-.074.377c-.003-.453-.142-.895-.4-1.268a1.26 1.26 0 0 0-1.109-.2 6.47 6.47 0 0 0-1.637.517c-.555.251-1.09.544-1.6.877l.2-.184c-1.252 1.4-2.686 2.627-4.263 3.646-1.509 1.009-3.068 1.941-4.671 2.792-1.608.856-3.164 1.661-4.891 2.4a7.83 7.83 0 0 1-3 .667 7.43 7.43 0 0 1-.5-.074 3.38 3.38 0 0 1-.558-.221c-.394-.238-.684-.615-.813-1.056-.099-.343-.119-.704-.06-1.056a3.57 3.57 0 0 1 .241-.88l.732 1.271c-.769-.075-1.518-.288-2.211-.63a2.38 2.38 0 0 1-1.077-1.1 2.19 2.19 0 0 1-.03-1.608 5.54 5.54 0 0 1 1.317-1.934 12.85 12.85 0 0 1 1.612-1.386l.513 1.554c-.989.018-1.979-.044-2.958-.187-.567-.076-1.115-.253-1.619-.523a2.87 2.87 0 0 1-.443-.335 1.72 1.72 0 0 1-.376-.568 1.69 1.69 0 0 1 .021-1.279c.24-.537.594-1.017 1.036-1.405a11.38 11.38 0 0 1 1.168-.958 22.81 22.81 0 0 1 2.478-1.549l.263 1.383a13.23 13.23 0 0 1-1.886-.4c-.728-.183-1.388-.572-1.9-1.122-.152-.188-.266-.404-.336-.636a1.77 1.77 0 0 1-.025-.738l.082-.34.136-.28a2.5 2.5 0 0 1 .322-.483 6.14 6.14 0 0 1 1.563-1.285c1.089-.597 2.227-1.103 3.4-1.512l3.4-1.261 13.645-4.861-.063.032c5.726-3.656 10.934-8.066 15.483-13.111 2.266-2.513 4.37-5.174 6.427-7.873l5.975-8.24 5.991-8.268 6.093-8.218c.534-.671 1.068-1.342 1.646-2 .156-.171.345-.351.519-.521.169-.153.318-.261.479-.4l.959-.827 3.805-3.395 7.668-6.757c.038-.033.095-.029.128.008s.035.092 0 .128z"/><path d="M310.694 142.332c-2.354 2.463-4.772 4.863-7.172 7.281l-3.676 3.559-.942.878c-.154.145-.344.3-.489.435l-.362.407c-.516.643-1.014 1.322-1.512 2l-11.79 16.662c-2 2.762-4.011 5.515-6.185 8.177-2.182 2.626-4.419 5.216-6.819 7.661a103.47 103.47 0 0 1-15.874 12.94.44.44 0 0 1-.063.027q-6.792 2.486-13.5 5.2l-3.332 1.385c-1.086.434-2.136.951-3.142 1.548a4.8 4.8 0 0 0-1.186 1.041c-.066.085-.124.176-.172.272l-.063.127a.44.44 0 0 1-.009.109.29.29 0 0 0 .1.3c.35.302.771.511 1.223.607.263.072.534.127.806.181l.417.054.435.063a.75.75 0 0 1 .634.842.77.77 0 0 1-.362.543h-.009a20.65 20.65 0 0 0-1.25.788q-.516.34-1.005.706c-.345.265-.674.549-.987.851a2.88 2.88 0 0 0-.625.842.24.24 0 0 0-.018.091l.009.009a.66.66 0 0 0 .118.081 3.22 3.22 0 0 0 1.059.3c.675.094 1.356.136 2.037.127h.625a.86.86 0 0 1 .87.842.78.78 0 0 1-.082.353.73.73 0 0 1-.254.344l-.027.009a12.12 12.12 0 0 0-1.349 1.2 4.04 4.04 0 0 0-.9 1.295c-.063.19-.036.272-.018.308.076.111.183.196.308.245.391.186.81.305 1.24.353.109.018.218.036.326.045a.91.91 0 0 1 .806 1.014.69.69 0 0 1-.063.235l-.009.018a1.71 1.71 0 0 0-.054.163v.009a1.01 1.01 0 0 0-.036.5.12.12 0 0 1 .045.009.89.89 0 0 1 .154.018 6.36 6.36 0 0 0 2.173-.57c1.539-.679 3.16-1.5 4.7-2.327 1.548-.842 3.061-1.739 4.51-2.7 1.433-.899 2.744-1.98 3.9-3.215l.027-.045c.051-.056.109-.104.172-.145a15.28 15.28 0 0 1 1.892-1.014 8.3 8.3 0 0 1 2.155-.634c.208-.009.407-.027.625-.027a5.88 5.88 0 0 1 .67.082 5.66 5.66 0 0 1 .688.254 5.27 5.27 0 0 1 .616.471c.549.689.843 1.546.833 2.427a.69.69 0 0 1-.054.335l-.018.045a40.28 40.28 0 0 0-1.548 3.957 19.28 19.28 0 0 0-.924 4.057c-.072.601-.01 1.21.181 1.784a.94.94 0 0 0 .181.281c.026.043.06.08.1.109l.054.045.109.072a4.4 4.4 0 0 0 .824.444c.7.5 1.675-1.032 2.418-2.137l4.564-7.353c1.214-2.603 1.912-5.417 2.056-8.286.001-.025.013-.048.032-.063s.044-.022.068-.019.045.011.06.028.023.04.021.063c.07 2.944-.463 5.87-1.567 8.6-.679 1.349-1.413 2.545-2.11 3.83l-2.146 3.8a15.59 15.59 0 0 1-1.268 1.884 3.11 3.11 0 0 1-1.032.86 1.92 1.92 0 0 1-.8.2 2.35 2.35 0 0 1-.742-.145c-.387-.141-.757-.323-1.105-.543a2.23 2.23 0 0 1-.57-.453c-.175-.184-.319-.395-.426-.625a5.3 5.3 0 0 1-.362-2.481 20.2 20.2 0 0 1 .869-4.428 43.05 43.05 0 0 1 1.413-3.939c-.003-.408-.137-.804-.38-1.132a1.23 1.23 0 0 0-1.1-.2 6.44 6.44 0 0 0-1.639.516 12.42 12.42 0 0 0-1.53.833c-1.224 1.335-2.612 2.511-4.129 3.5a53.41 53.41 0 0 1-4.672 2.789c-1.6.86-3.16 1.666-4.89 2.409-.946.419-1.966.646-3 .67-.172-.027-.335-.045-.507-.082a3.87 3.87 0 0 1-.552-.217 1.95 1.95 0 0 1-.761-.887.63.63 0 0 1-.054-.172c-.078-.273-.106-.559-.082-.842a5.01 5.01 0 0 1-.86-.281 3.17 3.17 0 0 1-.353-.172 2.38 2.38 0 0 1-1.078-1.1c-.164-.378-.211-.795-.136-1.2.024-.142.061-.281.109-.417a5.25 5.25 0 0 1 1.24-1.856c-.172-.009-.344-.036-.516-.054-.082-.009-.163-.027-.245-.036a4.82 4.82 0 0 1-1.621-.525c-.157-.1-.305-.212-.444-.335-.161-.163-.288-.357-.371-.571-.155-.399-.155-.842 0-1.241.009-.018.009-.027.018-.036a4.08 4.08 0 0 1 1.042-1.4c.263-.254.534-.48.815-.706l.734-.525c.01-.009.022-.016.036-.018.145-.091.281-.19.426-.281-.009 0-.009 0-.018-.009-.717-.174-1.366-.557-1.865-1.1a1.94 1.94 0 0 1-.344-.634 1.88 1.88 0 0 1-.018-.743 2.36 2.36 0 0 1 .081-.344l.136-.272a2.84 2.84 0 0 1 .317-.489 6.27 6.27 0 0 1 1.567-1.286 23.21 23.21 0 0 1 3.4-1.512l3.4-1.259 13.61-4.845c5.716-3.652 10.915-8.056 15.458-13.094 2.264-2.517 4.365-5.171 6.429-7.869l5.967-8.24 12.089-16.49c.534-.67 1.068-1.34 1.648-2 .154-.172.344-.353.516-.525.172-.154.317-.263.48-.4l.96-.824 3.8-3.4 7.643-6.773a.1.1 0 0 1 .136.009c.02.017.031.043.03.069s-.015.051-.037.066z"/><path d="M249.749 207.2c-1.018.979-7.985 5.21-9.164 5.912q-1.446.856-2.938 1.612l-.7.347a29.23 29.23 0 0 1-2.838 1.242c.008-.015.008-.023.015-.031.205-.46.508-.869.887-1.2.224-.216.455-.409.694-.6l.625-.447a.06.06 0 0 1 .031-.015c.116-.085.231-.17.347-.247.463-.324.933-.64 1.411-.956.555-.355 1.111-.7 1.681-1.033 1.178-.709 8.6-4.153 9.949-4.584zm0 4.132c-1.11 1.2-8.159 6.14-9.466 7.061l-.716.494c-1.086.74-2.188 1.439-3.323 2.114l-.592.337a2.3 2.3 0 0 1 .1-.378 4.77 4.77 0 0 1 1.127-1.686c-.156-.008-.312-.033-.469-.049.617-.485 1.242-.962 1.875-1.423.346-.263.7-.51 1.053-.757 1.307-.923 8.906-5.073 10.411-5.714zm0 4c-.967 1.16-8.219 7.1-9.4 7.971-.235.177-.479.353-.723.521v.008a43.34 43.34 0 0 1-1.631 1.127c-.025-.051-.042-.104-.051-.16a2.15 2.15 0 0 1-.076-.782c-.274-.063-.542-.15-.8-.261.53-.446 2.06-1.631 2.279-1.8 1.174-.883 9.014-6.021 10.402-6.626zm98.334-125.35a14.25 14.25 0 0 1 9.081.708 20.39 20.39 0 0 1 7.345 5.591 42.3 42.3 0 0 1 5.21 7.63c1.474 2.698 2.772 5.489 3.886 8.355 2.196 5.722 4.027 11.578 5.481 17.532 1.522 5.93 2.622 11.951 3.645 17.973a.82.82 0 0 1 .011.127v.009l-.011-.126c1.414 8.787 2.393 17.633 3.169 26.485l1.049 13.287.763 13.308-.462-.246a26.84 26.84 0 0 1 9.015-3.161 23.89 23.89 0 0 1 9.568.293c1.578.372 3.079.969 4.542 1.433a26.75 26.75 0 0 0 4.535.951 16.44 16.44 0 0 0 4.552-.064 11.33 11.33 0 0 0 2.159-.572 6.98 6.98 0 0 0 1.831-1.012l.019 1.029c-1.937-2.006-3.531-4.316-4.719-6.839-1.258-2.415-2.379-4.88-3.448-7.365-2.129-4.972-4.06-10.009-5.957-15.054l-11.035-30.36c-3.755-10.077-7.445-20.186-11.875-29.965-1.1-2.452-2.254-4.848-3.56-7.177s-2.783-4.552-4.405-6.67a42.04 42.04 0 0 0-11.758-10.741h-.007c-.055-.032-.088-.091-.087-.155v-.009l.093.158c-.622-.362-1.257-.7-1.907-1.013q-.487-.233-.986-.443c-.318-.142-.7-.266-.985-.369l-.051-.018c-.045-.014-.07-.062-.056-.107s.062-.07.107-.056a10.31 10.31 0 0 1 1.068.339q.512.191 1.015.406a25.26 25.26 0 0 1 1.972.944c.056.03.092.088.093.151v.017l-.094-.159a40.92 40.92 0 0 1 12.343 10.456 64.72 64.72 0 0 1 8.48 13.858c4.6 9.777 8.6 19.809 12.332 29.917l11 30.374c1.843 5.051 3.717 10.091 5.779 15.039 1.04 2.468 2.09 4.934 3.284 7.313a24.51 24.51 0 0 0 4.268 6.487l.071.069a.64.64 0 0 1 .012.9.7.7 0 0 1-.065.058 9.73 9.73 0 0 1-4.735 1.828c-1.624.209-3.27.191-4.889-.054-1.596-.234-3.169-.607-4.7-1.114-1.533-.535-2.965-1.138-4.456-1.525a23.09 23.09 0 0 0-9.239-.49c-3.09.457-6.071 1.469-8.8 2.988l-.012.007a.3.3 0 0 1-.411-.114.31.31 0 0 1-.039-.139 271.96 271.96 0 0 0-.768-13.284l-1.254-13.25c-.5-4.408-1.084-8.8-1.716-13.193-.608-4.392-1.391-8.754-2.129-13.122a.85.85 0 0 1-.011-.126v-.01l.011.126c-1.035-5.993-2.3-11.94-3.688-17.85a143.3 143.3 0 0 0-5.236-17.409c-2.172-5.625-4.69-11.226-8.523-15.874a20.51 20.51 0 0 0-6.877-5.646 14.27 14.27 0 0 0-8.795-1.087c-.049.009-.096-.023-.106-.072s.022-.093.068-.105zm-264.9-46.056s5.819 7.248 14.513 4.858c0 0 18.242-8.011.8-16.535s-18.057-6.484-24.74-7.792c-1.767-.346-13.816-3.434-20.258 4.4-2.364 2.965-3.415 6.767-2.911 10.525.122 1.011.265 2.108.416 3.076a13.77 13.77 0 0 1-.087 4.738c-1.205 6.47-1.018 13.122.55 19.513 0 0 10.782 1.6 16.929-6.049 0 0 1.206-13.559 8.618-4.7-.003-.002 6.169 2.307 6.169-12.036zm227.541 21.428a16.36 16.36 0 0 0 3.352.041c.513-.074 1.011-.23 1.475-.462a6.39 6.39 0 0 0 1.338-1.012c-.125.62-.454 1.18-.934 1.592-.501.414-1.106.683-1.749.778a4.76 4.76 0 0 1-1.857-.133 4.26 4.26 0 0 1-1.625-.804zM88.843 74.5c-.004 1.891-1.408 3.487-3.283 3.733a3.71 3.71 0 0 1-2.871-.862 3.79 3.79 0 0 1 0-5.746 3.7 3.7 0 0 1 2.874-.864 3.78 3.78 0 0 1 3.28 3.738zm0 0a2.91 2.91 0 0 0-1.051-2.232 2.8 2.8 0 0 0-2.232-.6c-1.375.241-2.378 1.434-2.378 2.83s1.003 2.589 2.378 2.83a2.8 2.8 0 0 0 2.232-.6 2.91 2.91 0 0 0 1.05-2.233zm272.281 135.76c.005.024.005.048 0 .072l-.4-.045.4-.027zm-31.7-66.339c.009.01.016.022.018.036l-.091-.145.07.109zm87.98 54.174a1.36 1.36 0 1 0-1.313-1.358 1.36 1.36 0 0 0 1.313 1.358zm-6.846-1.63a1.36 1.36 0 1 0-1.312-1.358 1.36 1.36 0 0 0 1.312 1.358zm-6.194-1.63a1.36 1.36 0 1 0-1.312-1.358 1.36 1.36 0 0 0 1.317 1.358zm-6.194 0a1.36 1.36 0 1 0-1.312-1.358 1.36 1.36 0 0 0 1.311 1.358zm-200.224-71.347c1.244.439 2.427 1.037 3.518 1.779a15.14 15.14 0 0 1 3.019 2.535 15.12 15.12 0 0 1-3.517-1.779 15.32 15.32 0 0 1-3.019-2.535zm-2.885 3.7a15.08 15.08 0 0 1 3.491 1.762c1.104.704 2.11 1.55 2.993 2.517a14.9 14.9 0 0 1-3.491-1.762 15.06 15.06 0 0 1-2.993-2.517zm-4.322 3.151a21.7 21.7 0 0 1 4.153 2.2 21.45 21.45 0 0 1 3.654 2.954c-1.461-.579-2.853-1.317-4.153-2.2a21.7 21.7 0 0 1-3.654-2.954zm-14.418 2.034a73.27 73.27 0 0 1 7.458 4.38 72.34 72.34 0 0 1 6.96 5.135 72.4 72.4 0 0 1-7.458-4.38 73.21 73.21 0 0 1-6.96-5.14zm-2.938 3.66a73.2 73.2 0 0 1 7.458 4.38 72.35 72.35 0 0 1 6.96 5.135 72.4 72.4 0 0 1-7.458-4.38 73.2 73.2 0 0 1-6.96-5.135zm-3 4.024a73.19 73.19 0 0 1 7.458 4.38 72.33 72.33 0 0 1 6.96 5.135 72.4 72.4 0 0 1-7.458-4.38 73.2 73.2 0 0 1-6.96-5.135zm9.533-11.012a73.2 73.2 0 0 1 7.458 4.38 72.34 72.34 0 0 1 6.96 5.135 72.34 72.34 0 0 1-7.458-4.38 73.32 73.32 0 0 1-6.96-5.135zm1.045-87.4c.856-2.545 1.391-5.186 1.592-7.863a29.33 29.33 0 0 0 .053-4.014c-.022-.669-.149-1.331-.218-2a15.05 15.05 0 0 0-.315-1.979l-.439-1.956c-.158-.648-.4-1.273-.6-1.911a32.48 32.48 0 0 0-1.5-3.707 31.89 31.89 0 0 0-4.4-6.631l-.636-.766-.7-.706-1.414-1.4-1.54-1.26-.771-.628c-.267-.2-.551-.369-.826-.554l-1.659-1.1-1.746-.95a30.83 30.83 0 0 0-3.625-1.63 31.63 31.63 0 0 0-15.691-1.55 31 31 0 0 0-3.889.911l-1.9.615-1.853.76c-12.591 5.73-19.772 19.195-17.515 32.844a30.78 30.78 0 0 0 6.476 14.364l.149.183-.079.227-4.907 14.123-.549-.631 19.7-3.976.121-.024.119.038a31.21 31.21 0 0 0 23.027-1.557c7.269-3.468 12.861-9.683 15.545-17.277zm.088.031a31.8 31.8 0 0 1-15.39 17.724c-7.282 3.75-15.754 4.46-23.559 1.976l.239.013-19.694 3.988-.834.169.285-.8 5.009-14.087.07.409a31.36 31.36 0 0 1-4.657-30.776 31.95 31.95 0 0 1 23.918-19.8c5.379-.966 10.917-.502 16.061 1.343a30.58 30.58 0 0 1 13.2 9.283c.424.531.865 1.049 1.271 1.593l1.113 1.707a14.02 14.02 0 0 1 1.016 1.762c.307.6.645 1.194.926 1.81a33.28 33.28 0 0 1 1.42 3.8c.183.651.414 1.289.557 1.949l.394 1.989a32.19 32.19 0 0 1-1.337 15.941z"/></g></svg>