<svg xmlns="http://www.w3.org/2000/svg" width="481.322" height="229.074" xmlns:v="https://vecta.io/nano"><path d="M84 47.968l.483 5.508 15.39 175.6h296.772V-.001" fill="#fbd206"/><g fill="#5504b0"><path d="M191.877 184.074h-13.179c-.113 0-.205-.092-.205-.205v-5.963c-.76-.215-1.568-.191-2.314.068l-.081.053a6.45 6.45 0 0 1-3.054.673c-2.249 0-4.01-.859-4.01-1.956s1.761-1.957 4.01-1.957c1.061-.027 2.112.206 3.063.678l.095.063a3.86 3.86 0 0 0 2.291.06v-1.526c0-.113.092-.205.205-.205s.205.092.205.205v1.653c0 .075-.041.144-.106.18a4.08 4.08 0 0 1-2.749.015c-.017-.006-.034-.013-.049-.023l-.105-.07a6.1 6.1 0 0 0-2.85-.617c-2.153 0-3.6.8-3.6 1.547s1.446 1.546 3.6 1.546a6.02 6.02 0 0 0 2.849-.618l.116-.068a4.01 4.01 0 0 1 2.789 0 .2.2 0 0 1 .105.179v5.884h12.974c.113 0 .205.092.205.205s-.092.205-.205.205zm17.817 0h-13.571c-.113 0-.205-.092-.205-.205s.092-.205.205-.205h13.366v-13.841h-8.805c-.113 0-.205-.092-.205-.205s.092-.205.205-.205h9.01c.113 0 .205.092.205.205v14.251c0 .113-.092.205-.205.205z"/><path d="M231.259 176.743c0 .97 1.71 1.75 3.81 1.75a6.29 6.29 0 0 0 2.95-.64l.12-.07c.824-.288 1.721-.295 2.55-.02v6.11h-31v-6.09a3.83 3.83 0 0 0-2.58 0l-.12.07a6.29 6.29 0 0 1-2.95.64c-2.1 0-3.81-.78-3.81-1.75s1.71-1.75 3.81-1.75a6.3 6.3 0 0 1 2.96.65l.11.07a3.9 3.9 0 0 0 2.58 0v-6.09h13.26c1.17-.45 0-1.19 0-1.19l-.16-.06c-.86-.32-1.4-.81-1.4-1.35 0-.97 1.7-1.75 3.8-1.75s3.81.78 3.81 1.75c0 .55-.55 1.04-1.42 1.36l-.14.05s-1.18.74 0 1.19h13.25v6.1a3.91 3.91 0 0 1-2.55-.01l-.11-.07a6.33 6.33 0 0 0-2.96-.65c-2.1 0-3.81.78-3.81 1.75zm-21.57 7.23v14.25h-13.31c-1.08-.45.06-1.16.06-1.16l.15-.05c.86-.32 1.41-.81 1.41-1.36 0-.97-1.7-1.75-3.8-1.75s-3.81.78-3.81 1.75c0 .55.55 1.03 1.4 1.36l.16.05s1.13.71.07 1.16h-13.32v-6.089c-.838-.293-1.752-.293-2.59 0l-.11.07a6.3 6.3 0 0 1-2.95.64c-2.11 0-3.81-.78-3.81-1.75s1.7-1.75 3.81-1.75c1.026-.028 2.043.199 2.96.66l.1.06c.838.293 1.752.293 2.59 0v-6.09h13.25l.1-.04c.95.45-.14 1.13-.14 1.13l-.14.05c-.86.32-1.41.81-1.41 1.36 0 .97 1.7 1.75 3.8 1.75s3.81-.78 3.81-1.75c0-.55-.55-1.04-1.4-1.36l-.16-.05s-1.11-.7-.1-1.15l.13.06zm48.646-.06c-1.015.45.1 1.147.1 1.147l.157.056c.858.319 1.4.808 1.4 1.356 0 .967-1.7 1.75-3.806 1.75s-3.806-.783-3.806-1.75c0-.55.55-1.042 1.414-1.361l.145-.05s1.087-.678.133-1.131l-.1.042h-13.25v6.094a3.9 3.9 0 0 1-2.587 0l-.106-.067a6.23 6.23 0 0 0-2.962-.651c-2.1 0-3.806.784-3.806 1.75s1.7 1.75 3.806 1.75c1.022.03 2.035-.192 2.951-.645l.117-.073a3.9 3.9 0 0 1 2.587 0v6.093h30.994v-14.251h-13.25z"/><path d="M209.689 212.708h-30.99c-.113 0-.205-.092-.205-.205v-5.963c-.762-.214-1.572-.191-2.32.067l-.065.049a6.52 6.52 0 0 1-3.06.672c-2.251 0-4.015-.859-4.015-1.955s1.764-1.955 4.015-1.955a6.52 6.52 0 0 1 3.06.677l.091.062a3.86 3.86 0 0 0 2.294.06v-5.963c0-.113.092-.205.205-.205h13.21c.105-.043.226 0 .28.1.024.045.029.098.014.147s-.049.09-.094.113l-.05.021a.44.44 0 0 1-.11.029h-13.045v5.885c0 .075-.041.144-.106.18-.888.324-1.861.329-2.753.015-.019-.006-.036-.015-.052-.026l-.1-.069c-.885-.43-1.86-.64-2.843-.613-2.157 0-3.605.8-3.605 1.545s1.448 1.545 3.605 1.545a6.11 6.11 0 0 0 2.85-.613l.1-.064a4.06 4.06 0 0 1 2.8-.007c.065.036.106.105.106.18v5.885h30.58v-13.84h-13.051c-.031 0-.062-.007-.09-.02l-.062-.03c-.101-.051-.142-.174-.091-.275s.174-.142.275-.091l.016.008h13.2a.2.2 0 0 1 .205.205v14.25a.2.2 0 0 1-.205.205z"/><path d="M231.259 205.403c0 .97 1.71 1.76 3.81 1.76a6.29 6.29 0 0 0 2.95-.65l.12-.07c.825-.288 1.723-.291 2.55-.01v6.07h-31v-6.09a3.9 3.9 0 0 0-2.58 0l-.12.07a6.29 6.29 0 0 1-2.95.64c-2.1 0-3.81-.78-3.81-1.75s1.71-1.75 3.81-1.75a6.3 6.3 0 0 1 2.96.65l.11.07a3.9 3.9 0 0 0 2.58 0v-6.09h13.26c1.17-.45 0-1.19 0-1.19l-.16-.05c-.86-.33-1.4-.81-1.4-1.36 0-.97 1.7-1.75 3.8-1.75s3.81.78 3.81 1.75c0 .55-.55 1.04-1.42 1.36l-.14.05s-1.18.74 0 1.19h13.25v6.13a3.92 3.92 0 0 1-2.55-.01l-.11-.06c-.916-.463-1.934-.689-2.96-.66-2.1 0-3.81.79-3.81 1.75z"/><path d="M271.719 212.734h-31c-.113 0-.205-.092-.205-.205v-6a.2.2 0 0 1 .171-.305.3.3 0 0 1 .171.066c.04.039.064.092.064.148v5.885h30.59v-13.84h-30.59v5.885c0 .056-.024.109-.064.148a.3.3 0 0 1-.171.066c-.075 0-.143-.04-.18-.105s-.035-.145.005-.208v-5.992c0-.113.092-.205.205-.205h31c.113 0 .205.092.205.205v14.257c0 .113-.092.205-.205.205zm-17.82-28.66h-13.17a.2.2 0 0 1-.205-.205v-5.96a3.96 3.96 0 0 0-2.319.064l-.082.053c-.949.467-1.996.696-3.053.668-2.251 0-4.015-.859-4.015-1.955s1.764-1.955 4.015-1.955c1.06-.026 2.11.206 3.06.677l.119.074h0c.738.238 1.53.252 2.276.038v-5.954a.2.2 0 0 1 .205-.205h9.43c.113 0 .205.092.205.205s-.092.205-.205.205h-9.225v5.885c0 .076-.041.145-.108.181-.02.009-.041.017-.062.022a4.09 4.09 0 0 1-2.69-.009l-.154-.091c-.887-.433-1.865-.645-2.851-.618-1.954 0-3.605.707-3.605 1.545s1.651 1.545 3.605 1.545a6.11 6.11 0 0 0 2.85-.613l.116-.068c.885-.323 1.854-.332 2.745-.027.014.005.027.012.039.021a.2.2 0 0 1 .115.184v5.885H253.9c.113 0 .205.092.205.205s-.092.205-.205.205zm17.044 0h-12.8c-.113 0-.205-.092-.205-.205s.092-.205.205-.205h12.8c.113 0 .205.092.205.205s-.092.205-.205.205zm-64.808-29.308l15.609-.342 15.61-.2 31.219-.163 31.219.161 15.609.2 15.61.344-15.61.343-15.609.2-31.219.161-31.219-.163-15.61-.2-15.609-.341zM117.716 68.86a50.52 50.52 0 0 1-6.823-.5.5.5 0 0 1-.183-.062c-1.089-.63-6.556-3.847-7.259-5.254-.903-1.084-2.126-1.854-3.494-2.2-2.64-.862-7.063-1.229-13.149 1.912a.5.5 0 0 1-.727-.5c.05-.44 1.312-10.794 9.625-12.872.092-.015 2.96-.452 4.515-6.2 1.671-6.183 4.858-8.221 7.185-9.708l.258-.166c2.127-1.367 4.655-7.242 5.156-10.913.55-4.033 6.9-14.535 18.619-15.4 10-.733 23.359 6.413 25.141 10.824a2.18 2.18 0 0 1-.52 2.627c-6.146 8.048-13.539 15.062-21.9 20.776v15.2a10.52 10.52 0 0 1-3.1 8.229c-2.83 2.801-7.306 4.207-13.347 4.207zm-6.589-1.482c9.2 1.247 15.668.091 19.235-3.435a9.66 9.66 0 0 0 2.8-7.455V40.956a.5.5 0 0 1 .22-.414c8.372-5.68 15.768-12.679 21.9-20.726.025-.037.055-.071.089-.1.465-.366.587-1.02.283-1.528-1.644-4.067-14.687-10.893-24.141-10.2-11 .809-17.2 10.853-17.7 14.534-.477 3.5-2.956 9.916-5.606 11.62l-.26.166c-2.312 1.479-5.188 3.318-6.758 9.128-1.751 6.478-5.163 6.91-5.307 6.925-6.181 1.55-8.131 8.511-8.644 11.063 5.941-2.822 10.342-2.412 13.032-1.536a7.45 7.45 0 0 1 4.079 2.7c.436.872 4.353 3.375 6.781 4.786zm37.221 86.756l-.013.01-.353.625z"/><path d="M180.149 111.493c-1.26-1.76-2.01-14.63-2.01-14.63-1.77-30.52-23.62-35.48-23.62-35.48-.324.392-.693.745-1.1 1.05-4.42 3.28-13.12 1.77-13.12 1.77s-4.03 1.26-5.42 6.81 1.01 21.69-2.27 20.81-10.61-.77-11.17-23.47c0 0 .01-.08.04-.22a41.53 41.53 0 0 1-10.52-.27s-6.39-3.7-7.06-5.05-6.9-5.88-17.32-.5c0 0-10.59.97-21.82 13.2s-23.08 35.73-25.6 80.79l8.72 2.57c.04-4.7.29-9.39.67-14.07a149.76 149.76 0 0 1 2.74-18.94c1.39-6.2 3.1-12.48 6.37-17.98a49.91 49.91 0 0 0-3.24 8.93c-.85 3.05-1.52 6.15-2.08 9.26-1.1 6.24-1.87 12.54-2.4 18.85-.55 6.32-.85 12.66-.96 19-.05 3.17-.02 6.34.15 9.51.07 1.58.16 3.16.36 4.73a22.85 22.85 0 0 0 .4 2.34c.083.385.197.763.34 1.13a4.1 4.1 0 0 0 .3.59l.05.05a1.72 1.72 0 0 0 .35.27s30.54-12.16 52.46-22.87c-.05-2.51-.02-5.01-.03-7.5l-.11-7.49c-.19-4.99-.33-9.97-.78-14.93a160.6 160.6 0 0 0-1.78-14.82q-.6-3.675-1.49-7.31a48.66 48.66 0 0 0-2.2-7.14c2.215 4.516 3.813 9.309 4.75 14.25.56 2.45.93 4.94 1.32 7.42.3 2.49.62 4.99.8 7.49.22 2.5.31 5.01.41 7.51.08 2.51.07 5.02.05 7.52l-.29 7.51-.65 7.49s2.32 3.74 26.79-.88c0 0 17.67-4.06 18.16-4.65 10.96-19.18 6.18-33.06 6.18-33.06-.462-2.407-.796-4.837-1-7.28-.24-2.44-.35-4.88-.41-7.33-.04-2.45 0-4.9.19-7.35a32.61 32.61 0 0 1 1.22-7.27c-.16 2.45-.14 4.87-.13 7.3l.12 7.29c.07 4.87.19 9.73.01 14.64 6.65 1.26 25.63-9.59 25.63-9.59zm-88.65-23.69c-.352-.435-.748-.834-1.18-1.19l-1.25-1.09c-.44-.34-.92-.62-1.38-.93-1.863-1.188-3.943-1.994-6.12-2.37a22.84 22.84 0 0 0-6.61-.25 30.69 30.69 0 0 0-6.54 1.36c2.055-.948 4.238-1.589 6.48-1.9a22.15 22.15 0 0 1 6.8.1c2.258.419 4.402 1.312 6.29 2.62a16.89 16.89 0 0 1 4.64 4.89z"/><path d="M121.481 68.134l2.307-.457 2.228-.716a13.82 13.82 0 0 0 3.971-2.35 9.92 9.92 0 0 0 2.589-3.715c.557-1.401.779-2.914.649-4.416v-.054l-.224-15.47a.64.64 0 0 1 .266-.53l.025-.018 6.009-4.579 5.63-5.032s3.577-3.544 5.259-5.412c1.682-1.853 3.269-3.791 4.753-5.807.019-.027.041-.052.064-.076l.1-.1c.158-.131.255-.32.269-.525a1.85 1.85 0 0 0-.269-.842c-.44-.695-.982-1.32-1.607-1.855a25.22 25.22 0 0 0-4.391-3.011c-3.165-1.739-6.544-3.058-10.05-3.923a28.75 28.75 0 0 0-5.286-.812c-.878-.049-1.759-.027-2.634.065-.877.076-1.746.221-2.6.433a19.32 19.32 0 0 0-2.518.774 20.6 20.6 0 0 0-2.372 1.161c-1.547.868-2.969 1.942-4.227 3.192a22.64 22.64 0 0 0-3.358 4.126c-.977 1.44-1.648 3.065-1.972 4.775a24.57 24.57 0 0 1-1.7 5.468 18.45 18.45 0 0 1-2.982 4.946c-.171.187-.371.361-.556.54-.209.158-.451.347-.645.467l-1.156.733c-.745.478-1.442 1.025-2.084 1.634-1.263 1.243-2.258 2.731-2.923 4.374-.346.834-.644 1.688-.891 2.557a17 17 0 0 1-1.029 2.668c-.433.873-.992 1.677-1.66 2.387a4.9 4.9 0 0 1-2.6 1.521l.053-.01c-1.288.316-2.505.873-3.587 1.64-1.073.807-2.009 1.782-2.773 2.886-.751 1.129-1.378 2.336-1.871 3.6a20.07 20.07 0 0 0-1.111 3.938c.159-1.366.458-2.712.891-4.017.428-1.317 1.01-2.579 1.734-3.76a13.04 13.04 0 0 1 2.766-3.13 11.23 11.23 0 0 1 3.763-1.913l.054-.01a4.23 4.23 0 0 0 2.03-1.36c.569-.667 1.041-1.413 1.4-2.213.37-.814.671-1.658.9-2.523a24.41 24.41 0 0 1 .864-2.7c.683-1.813 1.731-3.467 3.078-4.859a15.36 15.36 0 0 1 2.225-1.843l1.166-.782c.2-.129.309-.238.469-.357.141-.148.289-.28.426-.438a17.13 17.13 0 0 0 2.587-4.589c.674-1.653 1.172-3.372 1.484-5.13a11.16 11.16 0 0 1 .311-1.46c.139-.476.309-.942.511-1.395.384-.889.833-1.748 1.344-2.57a24.4 24.4 0 0 1 3.585-4.484c1.357-1.369 2.893-2.549 4.565-3.508.836-.487 1.702-.92 2.593-1.295.902-.356 1.826-.65 2.768-.88a18.67 18.67 0 0 1 2.861-.5 18.31 18.31 0 0 1 2.9-.1 30.7 30.7 0 0 1 5.666.818c3.683.906 7.224 2.312 10.525 4.179a27.03 27.03 0 0 1 4.705 3.295c.775.677 1.44 1.47 1.971 2.351.317.544.485 1.162.487 1.791a2.61 2.61 0 0 1-.937 1.872l.166-.165a74.79 74.79 0 0 1-4.939 5.936c-1.731 1.889-3.524 3.72-5.4 5.463s-3.824 3.4-5.843 4.98c-2 1.6-4.1 3.062-6.222 4.492l.291-.547-.224 15.47v-.053c.085 1.642-.221 3.281-.893 4.782a10.5 10.5 0 0 1-2.9 3.819 13.72 13.72 0 0 1-4.191 2.239c-.752.24-1.529.4-2.29.6z"/><path d="M155.688 20.175c0 .1-.133.23-.214.365l-.274.391-.559.774-1.157 1.518-2.431 2.946-5.247 5.558-5.695 5.112-6.123 4.605.26-.488.033 7.735-.042 7.735v-.071c.1 1.668-.202 3.336-.881 4.863a10.67 10.67 0 0 1-2.936 3.895 14.14 14.14 0 0 1-4.241 2.292c-.759.251-1.541.422-2.309.627l-2.353.37.232-.215-.045.221v-.057l.141 3.683.3 3.672c.273 2.436.772 4.841 1.489 7.185a14.2 14.2 0 0 0 3.574 6.205c.883.794 1.928 1.385 3.063 1.732a16.86 16.86 0 0 0 1.756.437l.461.1.229.051a.62.62 0 0 1 .127.009c.142-.005.255-.09.391-.277a8.75 8.75 0 0 0 .631-3.374l.039-3.662-.134-7.4.141-3.748a12.9 12.9 0 0 1 .848-3.774 9.7 9.7 0 0 1 5.325-5.681.52.52 0 0 1 .266-.033l.072.01a30.6 30.6 0 0 0 6.761.215 11.1 11.1 0 0 0 6.078-2.1c.802-.706 1.442-1.577 1.877-2.552a15.92 15.92 0 0 0 1.13-3.139 31.58 31.58 0 0 0 .956-6.727c.01-.279.192-.522.457-.609h.014c.673-.126 1.16-.715 1.157-1.4a5.35 5.35 0 0 0-.416-2.358l-.013-.032a.55.55 0 0 1-.034-.26l.74-6.328a35.29 35.29 0 0 0 .467-6.26 23.33 23.33 0 0 0-1.18-6.143c-.342-.996-.743-1.971-1.2-2.919l-.743-1.4-.408-.678-.215-.333-.112-.163-.056-.081c-.005-.001.005-.015.003-.044zm0-.14c2.651 3.428 4.271 7.541 4.669 11.856a36.14 36.14 0 0 1-.241 6.426l-.573 6.332-.046-.292a7.72 7.72 0 0 1 .45 1.411 5.16 5.16 0 0 1 .12 1.523 2.65 2.65 0 0 1-2.034 2.52l.471-.613c-.014 2.383-.305 4.757-.867 7.073a17.32 17.32 0 0 1-1.214 3.415 8.85 8.85 0 0 1-2.221 3.022c-1.993 1.491-4.387 2.351-6.873 2.469a28.63 28.63 0 0 1-7.147-.264l.338-.022a7.35 7.35 0 0 0-2.694 1.891c-.775.852-1.388 1.839-1.807 2.912-.916 2.14-.91 4.592-.989 7.037-.048 2.447 0 4.911-.027 7.386-.012 1.238-.041 2.479-.141 3.727-.057.625-.119 1.251-.236 1.882a5.39 5.39 0 0 1-.663 1.912 1.37 1.37 0 0 1-1.12.631 4.07 4.07 0 0 1-.332-.044l-.22-.057-.437-.114c-.613-.141-1.218-.312-1.814-.514-1.218-.412-2.332-1.085-3.264-1.972a15.55 15.55 0 0 1-3.6-6.529c-.693-2.381-1.178-4.817-1.45-7.282l-.355-3.691-.194-3.7a.21.21 0 0 1 0-.049v-.008l.043-.226c.02-.108.105-.192.213-.212h.02l2.289-.413c.738-.228 1.489-.419 2.208-.685a13.39 13.39 0 0 0 3.921-2.3 9.67 9.67 0 0 0 3.216-7.974v-.031-.041l-.042-7.735.033-7.735a.6.6 0 0 1 .26-.489c2.081-1.423 4.144-2.878 6.108-4.466 1.977-1.568 3.912-3.195 5.778-4.9s3.656-3.5 5.412-5.318a91.91 91.91 0 0 0 2.567-2.8l2.482-2.95z"/><path d="M141.923 34.65a21.36 21.36 0 0 1 5.912-.123 17.21 17.21 0 0 1 5.708 1.552l-5.785-.856-5.835-.573zm6.7 6.642a1.05 1.05 0 1 0-1.015-1.051 1.05 1.05 0 0 0 1.015 1.051zm12.99-5.213a22.99 22.99 0 0 0-2.361.079l-2.35.174.265-.178a7.85 7.85 0 0 0-.493 2.214 7.94 7.94 0 0 0 .132 2.277 11.4 11.4 0 0 0 .765 2.2c.158.358.338.706.539 1.042.214.3.447.7.855.706-.43.1-.775-.288-1.044-.56a6.07 6.07 0 0 1-.724-.991 8.76 8.76 0 0 1-1-2.245 7.4 7.4 0 0 1-.216-2.483 7.29 7.29 0 0 1 .625-2.426v-.005a.3.3 0 0 1 .262-.172l2.384.035a11.57 11.57 0 0 1 2.363.338zm-3.215 5.402a1.05 1.05 0 1 0-1.015-1.051 1.05 1.05 0 0 0 1.015 1.051zm-9.269 11.245l2.209 1.192a13.71 13.71 0 0 0 2.234.959c.66.316 1.44.251 2.039-.17a3.95 3.95 0 0 0 .688-2.233 3.18 3.18 0 0 1-.272 2.587 1.79 1.79 0 0 1-1.3.661 3.9 3.9 0 0 1-1.358-.174 8.79 8.79 0 0 1-2.312-1.162 11.09 11.09 0 0 1-1.928-1.66zm2.333-7a11.51 11.51 0 0 0 .011 1.64 4.56 4.56 0 0 0 .493 1.512 1.48 1.48 0 0 1-.8-.515c-.215-.261-.348-.579-.385-.915a1.92 1.92 0 0 1 .684-1.723zm-17.8 10.7a15.61 15.61 0 0 1 1.746 1.972l.779 1.019a11.14 11.14 0 0 0 .838 1c-.455-.098-.877-.311-1.227-.618a5.83 5.83 0 0 1-.944-.974 6.42 6.42 0 0 1-1.193-2.4zm25.3-7.879l1.091 8.3.594 4.1a20.21 20.21 0 0 0 .456 2 5.5 5.5 0 0 0 .834 1.876c-1.029-1.007-1.741-2.293-2.048-3.7a27.11 27.11 0 0 1-.827-4.157 36.84 36.84 0 0 1-.1-8.42zM42.216 157.207c.018 1.943-.096 3.885-.341 5.813a42.51 42.51 0 0 1-1.036 5.73c-.02-1.943.094-3.885.341-5.813a42.92 42.92 0 0 1 1.036-5.73zm6.37 12.891q-4.739-.5-9.462-1.112l.242-.121a84.65 84.65 0 0 0-3.478 8.209l-2.757 8.493-2.132 8.677-1.594 8.809 1.144-8.9c.481-2.956 1.189-5.87 1.958-8.764a87.56 87.56 0 0 1 2.769-8.548 65.17 65.17 0 0 1 3.673-8.21c.048-.087.144-.135.242-.121q4.705.747 9.396 1.588zm4.213 12.213a53.08 53.08 0 0 0 2.059 7.914 35.22 35.22 0 0 0 3.353 7.408c1.405 2.313 3.134 4.412 5.135 6.234a30.22 30.22 0 0 0 6.662 4.536 28.78 28.78 0 0 0 15.675 2.692c.663-.1 1.338-.12 1.99-.285l1.966-.427 3.943-1.082 7.819-2.41q7.765-2.578 15.353-5.658c5.054-2.059 10.02-4.328 14.954-6.667s9.787-4.854 14.588-7.464c4.812-2.591 9.543-5.334 14.23-8.148l-.022.015c2.978-1.961 6.29-3.359 9.772-4.124a37.87 37.87 0 0 1 10.549-.924c3.541.174 7.045.802 10.425 1.87a19.35 19.35 0 0 0 2.516.66c.831.135 1.681.089 2.493-.135.775-.233 1.404-.805 1.708-1.555a5.6 5.6 0 0 0 .279-2.453v-.01a.34.34 0 0 1 .1-.25 13.7 13.7 0 0 0 1.542-1.84 9.77 9.77 0 0 0 1.149-2.087 5.69 5.69 0 0 0 .441-2.257c-.047-.751-.292-1.475-.711-2.1a.4.4 0 0 1 .117-.556l.038-.022a12.57 12.57 0 0 0 2.8-1.941c.841-.723 1.471-1.66 1.824-2.711a4.77 4.77 0 0 0 .139-.778c-.011-.271.014-.5-.024-.816a39.35 39.35 0 0 1-.119-1.788c-.072-1.218-.03-2.44.127-3.65a.4.4 0 0 1 .1-.207l.032-.036a18.92 18.92 0 0 0 4.376-7.69 9.09 9.09 0 0 0 .132-4.3 4 4 0 0 0-.291-1.03 9.89 9.89 0 0 0-.41-.991 7.66 7.66 0 0 0-1.186-1.709 3.54 3.54 0 0 0-3.636-.729 3.5 3.5 0 0 0-1.534 1.153c-.427.599-.817 1.224-1.166 1.871-.724 1.332-1.38 2.701-1.965 4.1a6.89 6.89 0 0 1-3.407 3.622 8.81 8.81 0 0 1-4.885.591 11.79 11.79 0 0 1-4.593-1.582 12.7 12.7 0 0 1-5.685-7.646c-.1-.393-.167-.8-.251-1.2l-.135-1.215-.159-2.277c-.126-1.515-.291-3.025-.535-4.512a21.41 21.41 0 0 0-1.086-4.3 4.43 4.43 0 0 0-1.02-1.646 1 1 0 0 0-1.3-.059l-.216.082a2.19 2.19 0 0 0-.369.176 4.1 4.1 0 0 0-.44.3 6.49 6.49 0 0 0-.807.8c-.502.617-.935 1.288-1.289 2a20.79 20.79 0 0 0-1.593 4.666c-.371 1.635-.647 3.29-.827 4.957-.166.871-.278 1.757-.5 2.615l-.4 1.268a7.04 7.04 0 0 1-.473 1.24 23.05 23.05 0 0 1-6.388 8.26 34.23 34.23 0 0 1-8.882 5.393.47.47 0 0 1-.05.017c-8.473 2.261-17 4.268-25.616 5.881-4.309.794-8.642 1.49-13.015 1.862-2.187.202-4.384.272-6.579.209-.549-.016-1.1-.049-1.645-.117-.549-.05-1.094-.132-1.633-.246a6.04 6.04 0 0 1-3-1.349.07.07 0 0 1 0-.1c.028-.026.072-.026.1 0 .849.671 1.867 1.095 2.942 1.225a13.7 13.7 0 0 0 1.615.2c.541.053 1.084.072 1.629.073a54.24 54.24 0 0 0 6.522-.38c4.334-.506 8.638-1.26 12.923-2.105 8.562-1.729 17.053-3.855 25.454-6.224l-.049.016a33.13 33.13 0 0 0 8.465-5.31 21.73 21.73 0 0 0 5.917-7.856c.182-.367.328-.751.434-1.146l.372-1.169c.2-.791.3-1.606.453-2.408.182-1.725.464-3.438.844-5.131a22.18 22.18 0 0 1 1.7-4.991 12.16 12.16 0 0 1 1.473-2.291 7.95 7.95 0 0 1 1.012-1 4.07 4.07 0 0 1 1.416-.758l-.216.081a2.85 2.85 0 0 1 1.484-.4 2.42 2.42 0 0 1 1.481.61 5.72 5.72 0 0 1 1.428 2.2c.555 1.49.952 3.034 1.185 4.607.257 1.542.429 3.085.561 4.628q.1 1.158.166 2.315l.113 1.073c.074.352.125.709.216 1.058.718 2.827 2.506 5.265 4.987 6.8a10.38 10.38 0 0 0 4.041 1.419c1.394.245 2.83.089 4.139-.45a5.53 5.53 0 0 0 2.761-2.929 45.94 45.94 0 0 1 2.044-4.189 18.61 18.61 0 0 1 1.284-2.023 4.72 4.72 0 0 1 7.029-.525 9.7 9.7 0 0 1 1.978 9.195 19.9 19.9 0 0 1-4.747 8.1l.13-.242a19.05 19.05 0 0 0-.155 3.418c.02.582.046 1.165.093 1.748a9.52 9.52 0 0 1 .013.954c-.033.324-.094.645-.183.959a7 7 0 0 1-2.106 3.077 13.34 13.34 0 0 1-3.032 2.037l.155-.577a5 5 0 0 1 .816 2.525 6.4 6.4 0 0 1-.529 2.549 10.42 10.42 0 0 1-1.266 2.213 14.3 14.3 0 0 1-1.655 1.916l.1-.26a6.18 6.18 0 0 1-.364 2.742 3.27 3.27 0 0 1-2.092 1.856 6.38 6.38 0 0 1-2.741.117c-.876-.173-1.74-.404-2.585-.691a40.85 40.85 0 0 0-10.3-1.905 35.23 35.23 0 0 0-10.42.906 28.74 28.74 0 0 0-9.559 4.1l-.016.011h-.007c-9.338 5.71-18.806 11.239-28.63 16.109a215.02 215.02 0 0 1-30.393 12.534c-2.611.842-5.24 1.625-7.88 2.37l-3.977 1.063-2.046.431c-.678.165-1.381.184-2.07.282a28.04 28.04 0 0 1-8.321-.312 30.76 30.76 0 0 1-7.876-2.666 29.05 29.05 0 0 1-11.913-11.27c-1.352-2.402-2.422-4.952-3.188-7.6a53.3 53.3 0 0 1-1.844-8.01.07.07 0 0 1 .059-.079c.02-.003.04.003.055.016s.025.031.027.051z"/><path d="M199.07 155.383c1.294-.396 2.547-.916 3.74-1.555a9.41 9.41 0 0 0 3.063-2.447l.007-.009a.35.35 0 1 1 .561.422l-.02.024a9.9 9.9 0 0 1-3.457 2.325 21.01 21.01 0 0 1-3.894 1.24zm-44.864-16.636l1.193 3.015c.428.978.907 1.933 1.436 2.861a20.19 20.19 0 0 0 1.815 2.611 15.71 15.71 0 0 0 2.337 2.2c-1.018-.436-1.946-1.057-2.737-1.831-.78-.79-1.459-1.674-2.02-2.632-1.103-1.911-1.793-4.032-2.024-6.227zm24.553-26.483l1.99 3.76-.41.16-1.58-3.921zm17.64 32.69a5.93 5.93 0 0 1-1.71-1.6l-1.4-1.88-1.49-2.34.61-.25 1.3 2.33 1.19 1.99a6.8 6.8 0 0 0 1.5 1.75zm138.089-54.258a24.45 24.45 0 0 0-3.126-8.078 5.58 5.58 0 0 0-3.006-2.645 9.01 9.01 0 0 0-4.111-.059l-4.3.891a14.13 14.13 0 0 1-2.279.28 4.77 4.77 0 0 1-2.432-.5 4.31 4.31 0 0 1-1.787-1.793c-.366-.711-.617-1.475-.744-2.264l-.179-1.057c-.081-.295-.205-.575-.369-.833-.362-.584-.791-1.123-1.278-1.606l.353-.9c-.005-.006-.013-.009-.021-.009s-.015.003-.021.009c.006 0 .044-.025.065-.035.066-.036.129-.078.187-.125.145-.114.284-.236.415-.365l.808-.858 1.518-1.864.567.554c-.089.051-.183.093-.281.125l-.2.037c-.133.025-.24.024-.361.037l-.675.013c-.443 0-.88-.023-1.316-.049l-2.6-.211a.28.28 0 0 1-.234-.175 9.92 9.92 0 0 0-.455-1.032c-.17-.316-.372-.685-.6-.774-.676-.259-1.461-.428-2.2-.635-.77-.187-1.529-.419-2.272-.694-.227-.118-.389-.331-.442-.581-.044-.218-.044-.444 0-.662.077-.4.203-.788.376-1.156a27.81 27.81 0 0 1 2.423-4.014c.436-.607.779-1.277 1.015-1.986a4.14 4.14 0 0 0 .171-2.085l.011.033a18.13 18.13 0 0 1-1-3.9 34.17 34.17 0 0 1-.378-3.976c-.106-2.654-.042-5.313.191-7.959.026-.297.253-.538.549-.58s.581.123.69.401l.011.029a42.44 42.44 0 0 0 2.757 5.679 32 32 0 0 0 3.639 5.107c1.317 1.561 2.95 2.825 4.792 3.708a7.99 7.99 0 0 0 5.77.3l-.452.541a12.38 12.38 0 0 1 .772-2.605 5.76 5.76 0 0 1 1.647-2.322c.216-.15.443-.284.679-.4a5.13 5.13 0 0 1 .782-.2c.264-.009.528.001.79.031a3.43 3.43 0 0 1 .72.212 2.25 2.25 0 0 1 .648.314l.6.37 1.025.888c.05.044.088.099.113.161a26.12 26.12 0 0 1 1.1 3.428 15.53 15.53 0 0 1 .5 3.576 4.58 4.58 0 0 1-1.2 3.43c-.994.745-2.272.998-3.475.688a.07.07 0 0 1-.058-.081c.007-.036.039-.061.076-.058a3.94 3.94 0 0 0 3.17-.849 4.13 4.13 0 0 0 .834-3.114 14.81 14.81 0 0 0-.648-3.373 25.27 25.27 0 0 0-1.222-3.232l.113.16-.943-.752-.5-.286a1.5 1.5 0 0 0-.505-.227c-.614-.287-1.339-.187-1.854.254-.549.515-.964 1.157-1.208 1.87a11.16 11.16 0 0 0-.611 2.318c-.038.247-.208.454-.443.539h-.009a9.21 9.21 0 0 1-6.784-.233c-2.057-.941-3.877-2.331-5.327-4.068a30.62 30.62 0 0 1-3.745-5.4c-1.064-1.907-1.984-3.891-2.751-5.935l1.25-.151a68.83 68.83 0 0 0-.4 7.792c.002 1.298.069 2.594.2 3.885a16.82 16.82 0 0 0 .78 3.759l.009.026v.008c.167 1.66-.356 3.316-1.446 4.58-.928 1.223-1.745 2.525-2.443 3.892-.162.331-.283.681-.359 1.041-.072.351-.03.682.217.8.711.256 1.437.469 2.174.638l2.273.621c.385.223.689.563.867.971.192.35.364.71.515 1.079l-.234-.175 2.582.086 1.281-.017.622-.043.283-.043.121-.028.533.313a.17.17 0 0 1 .057.234l-.005.008-1.463 1.989-.817.956c-.15.163-.31.317-.478.462a2.17 2.17 0 0 1-.308.227c-.159.109-.345.173-.538.184l.353-.9c.583.523 1.102 1.114 1.544 1.761.241.356.424.748.542 1.161l.221 1.108a4.26 4.26 0 0 0 1.925 3.172c1.257.468 2.63.526 3.922.166l4.339-.812a9.27 9.27 0 0 1 4.6.227 5.97 5.97 0 0 1 1.083.527 5.8 5.8 0 0 1 .913.777 6.28 6.28 0 0 1 .732.906c.228.3.417.631.613.953.749 1.295 1.333 2.678 1.738 4.118a23.61 23.61 0 0 1 .874 4.344.07.07 0 0 1-.063.076c-.036.002-.069-.022-.076-.058z"/><path d="M362.429 57.893c-1.14-3.28-9.21-12.23-11.6-13.3 0 0-.25-10.03-3.91-12.55 0 0 8.83-7.44-1.26-13.75 0 0-8.71-4.03-8.96 6.94 0 0-20.68-2.27-30.14 14.63 0 0 6.01 18.7 17.78 15.22 0 0 1.18-8.37 6.65-3.45 0 0 4.87 9.92-1.52 11.52-1.137 2.108-1.464 4.558-.92 6.89.92 3.87-.6 9.3-.6 9.3s-3.86 13.74 7.49 11.34 29.26-8.57 32.41-21.06c0 0-4.29-8.45-5.42-11.73zm-20.06-30.77c.562.345 1.076.762 1.53 1.24a2.73 2.73 0 0 1 .87 1.79c-.386-.478-.853-.885-1.38-1.2-.51-.33-1.01-.66-1.54-.97a27.36 27.36 0 0 1-3.13-2.12c1.294.147 2.54.577 3.65 1.26zm6.74 22.22c-1.016 1.645-2.277 3.126-3.74 4.39a25.57 25.57 0 0 1-4.75 3.21c-1.679.901-3.458 1.603-5.3 2.09 1.7-.83 3.32-1.78 4.91-2.76 1.576-.984 3.077-2.083 4.49-3.29 1.391-1.21 2.642-2.572 3.73-4.06a17.86 17.86 0 0 0 2.34-5.04 12.88 12.88 0 0 1-1.68 5.46z"/><path d="M308.074 55.122a5.37 5.37 0 0 1 2.173-1.889 4.79 4.79 0 0 1 1.411-.432c.494-.069.997-.008 1.46.177a9.55 9.55 0 0 0-2.566.885l-2.478 1.259zm3.153 3.7a1.05 1.05 0 0 0 .794-1.782 1.05 1.05 0 0 0-1.809.731 1.05 1.05 0 0 0 1.015 1.051zm56.626 10.769c4.826.314 9.569 1.408 14.046 3.238a60.43 60.43 0 0 1 12.724 6.868c7.825 5.707 14.445 12.903 19.48 21.176l1.87 3.093 1.737 3.168c.607 1.042 1.116 2.134 1.652 3.212.516 1.088 1.1 2.143 1.56 3.259.966 2.207 1.949 4.408 2.771 6.675.907 2.235 1.653 4.527 2.414 6.814.4 1.137.735 2.3 1.063 3.455l1 3.475c.606 2.334 1.147 4.69 1.7 7.038l2.279 14.264c.03.191-.093.372-.282.414l-10.281 2.256-10.3 2.186-10.3 2.186-10.309 2.13c-.019.004-.038-.008-.042-.027s.008-.038.027-.042l10.247-2.41 10.26-2.354 10.266-2.354 10.275-2.284-.282.413-2.224-14.254-1.635-7.005-.943-3.476c-.308-1.161-.622-2.32-1-3.459-2.706-9.236-6.664-18.058-11.762-26.22a83.36 83.36 0 0 0-8.8-11.371c-3.268-3.51-6.88-6.682-10.782-9.47-3.883-2.817-8.091-5.157-12.532-6.971a56.9 56.9 0 0 0-6.818-2.278 38.56 38.56 0 0 0-7.076-1.275c-.009 0-.018-.004-.025-.01s-.01-.015-.01-.025c0-.018.014-.034.032-.036z"/><path d="M428.025 156.215a30.41 30.41 0 0 1 1.467 4.674 30.05 30.05 0 0 1 .786 4.835c-.615-1.515-1.106-3.079-1.467-4.674a30.41 30.41 0 0 1-.786-4.835zM364.952 98.38a29.76 29.76 0 0 1 3.242-5.606 28.86 28.86 0 0 1 4.389-4.809c1.661-1.431 3.559-2.563 5.608-3.343 1.035-.355 2.104-.6 3.19-.73a13.56 13.56 0 0 1 3.244.112 15.02 15.02 0 0 0-6.241 1.121 19.78 19.78 0 0 0-5.348 3.373c-1.621 1.383-3.101 2.923-4.416 4.6-1.341 1.675-2.567 3.439-3.669 5.281zm37.582-4.54a18.12 18.12 0 0 1 3.237 3.116 20.65 20.65 0 0 1 2.478 3.778 17.15 17.15 0 0 1 1.532 4.258c.331 1.471.439 2.982.32 4.485-.138-.741-.138-1.484-.331-2.2l-.209-1.085-.3-1.062a23.09 23.09 0 0 0-1.634-4.075c-.667-1.31-1.429-2.569-2.279-3.769a34.05 34.05 0 0 0-2.812-3.443zm-39.536 12.136l-3.19 7.57-3.315 7.512-3.394 7.475-3.537 7.409-.18-.681 8.731 6.54c2.917 2.171 5.89 4.262 8.874 6.339l9.012 6.145 9 6.161-.844.089a114.1 114.1 0 0 0 7.43-9.577c2.318-3.314 4.53-6.705 6.515-10.226 1.995-3.514 3.733-7.167 5.2-10.932a53.3 53.3 0 0 0 2.945-11.752.07.07 0 0 1 .076-.063c.036.005.064.035.064.072-.187 4.099-.927 8.154-2.2 12.055a76.5 76.5 0 0 1-4.883 11.286 97.65 97.65 0 0 1-6.509 10.423c-2.385 3.336-4.956 6.536-7.7 9.583a.64.64 0 0 1-.845.089l-8.782-6.469-8.77-6.485-8.908-6.291-9.051-6.09c-.214-.144-.294-.42-.191-.656l.011-.025c1.095-2.509 2.236-5 3.4-7.473l3.542-7.406c1.163-2.477 2.415-4.912 3.621-7.37s2.47-4.887 3.746-7.311a.07.07 0 1 1 .127.059zm-42.139-25.942q-1.451 8.25-3.091 16.465l-3.494 16.387c-.643 2.716-1.326 5.437-2.173 8.1l-2.563 7.975c-.869 2.649-1.56 5.353-2.068 8.094-.25 1.366-.378 2.751-.382 4.14.016 1.375.281 2.736.782 4.016h-.352c1.312-2.784 3.153-5.286 5.42-7.367 2.248-2.108 4.867-3.781 7.724-4.935.71-.293 1.455-.494 2.181-.745.367-.112.726-.257 1.1-.34l1.129-.232c.755-.138 1.5-.346 2.264-.425l2.294-.2a14.16 14.16 0 0 1 2.3-.041l2.3.063c1.523.146 3.037.386 4.555.575l-.412.426c-1.057-5-1.883-10.037-2.609-15.091-.79-5.046-1.204-10.144-1.239-15.252 0-.009.004-.018.01-.025s.015-.01.025-.01.018.004.025.01.01.015.01.025c.055 2.549.31 5.085.6 7.614s.65 5.052 1.047 7.567.849 5.022 1.326 7.524l1.506 7.487c.02.093.001.189-.05.269s-.133.135-.226.154c-.038.008-.077.01-.115.005h-.021c-1.494-.18-2.984-.412-4.479-.551l-2.253-.054a13.69 13.69 0 0 0-2.248.047l-2.243.183c-.746.07-1.473.268-2.211.4l-1.1.216c-.366.077-.716.217-1.075.323-.709.239-1.438.428-2.132.707a25.45 25.45 0 0 0-7.6 4.717 23.3 23.3 0 0 0-5.439 7.108l-.008.016c-.033.067-.102.109-.176.106s-.141-.049-.169-.118a11.71 11.71 0 0 1-.732-4.168c.036-1.404.183-2.803.44-4.184a77.18 77.18 0 0 1 2.079-8.123l2.421-8.016c.782-2.676 1.386-5.393 1.981-8.12L320.8 80.02c.004-.019.022-.032.041-.028s.032.022.028.041z"/><path d="M308.72 143.37l.869 3.2c.312 1.043.7 2.062 1.159 3.049.433.983 1.001 1.902 1.687 2.728a7.38 7.38 0 0 0 2.573 1.943c-1.126-.211-2.162-.758-2.972-1.568a9.31 9.31 0 0 1-1.924-2.811 14.54 14.54 0 0 1-1.052-3.208 14.81 14.81 0 0 1-.342-3.333zm30-11.444a31.19 31.19 0 0 1 4.295 2.484 30.85 30.85 0 0 1 3.9 3.064 30.94 30.94 0 0 1-4.295-2.485 31.19 31.19 0 0 1-3.9-3.064zm-79.62 43.551a6.8 6.8 0 0 1 1.661-1.269 2.99 2.99 0 0 1 2.1-.368 2.89 2.89 0 0 1 1.685 1.4l.462.988.321 1.03a.35.35 0 0 1-.412.454.35.35 0 0 1-.258-.245l-.008-.028-.008-.037-.218-.982-.342-.93a2.46 2.46 0 0 0-1.32-1.31 2.73 2.73 0 0 0-1.926.19c-.633.278-1.219.653-1.737 1.11zm-8.015.967a48.6 48.6 0 0 0 3.05-4.326 24.29 24.29 0 0 0 1.286-2.316 7.92 7.92 0 0 0 .821-2.51 8 8 0 0 1-.66 2.58c-.336.827-.718 1.635-1.142 2.42a48.94 48.94 0 0 1-2.794 4.572.351.351 0 0 1-.578-.4l.013-.018zm-1.526-2.7l6.683-11.219-6.071 11.561a.351.351 0 1 1-.621-.326zm3.273-9.47l4.419-6.114-3.833 6.5a.35.35 0 0 1-.459.09.35.35 0 0 1-.141-.446zm-197.848 26.85L28.37 204.766l-13.351 6.73-13.361 6.711-.5-2.173 14.955-.187 14.951-.113 29.91-.161 59.82.221 29.91.339 14.955.172 14.955.1 59.82-.179 59.819-.7 29.91-.261 29.91-.164q59.82-.431 119.64-.018l-.806 2.978-23.663-14.113-23.616-14.193-23.58-14.254-23.513-14.38c-.06-.028-.1-.088-.101-.155s.035-.128.094-.159.13-.026.184.014l24.034 13.48 23.964 13.6 23.929 13.659 23.882 13.74a1.6 1.6 0 0 1-.778 2.978h-.029q-59.819.568-119.64.234l-29.91-.1-29.91-.2-59.819-.578-59.82-.053-14.955.131-14.955.2-29.91.4-59.82.347-29.91-.1-14.955-.084-14.955-.155h-.02a1.14 1.14 0 0 1-1.104-.897 1.14 1.14 0 0 1 .628-1.276l13.515-6.4 13.524-6.376 27.137-12.57c.087-.043.192-.006.234.08s.006.192-.081.234zm-53.829 36.9l59.82-.511 59.82-.294 119.64-.244 119.64.241 59.82.294 59.82.514-59.82.514-59.82.3-119.64.236-119.64-.24-59.82-.294z"/><path d="M349.674 136.144c-3.565 5.583-7.934 10.61-12.968 14.916a51.96 51.96 0 0 1-17.09 10.132 45.93 45.93 0 0 1-9.777 2.188 48.08 48.08 0 0 1-5.01.265l-2.488-.078-2.469.008-19.749.077a.72.72 0 0 1-.284-.059l-16.02-6.921c-1.325-.552-2.708-1.152-3.987-1.623l-.215-.075c-.033 0-.016.021-.027.006-.104.022-.205.057-.3.105a3.89 3.89 0 0 0-.776.5 9.6 9.6 0 0 0-1.445 1.429c-1.801 2.13-2.93 4.746-3.246 7.518a.73.73 0 0 1-.11.314c-.605.944-1.2 1.891-1.76 2.853a20.66 20.66 0 0 0-1.439 2.933 6.24 6.24 0 0 0-.365 1.455 2.72 2.72 0 0 0 .237 1.307 33.98 33.98 0 0 1 1.631 3c.055.143.063.3.025.448v.006c-.156.636-.224 1.291-.2 1.945a4.39 4.39 0 0 0 .428 1.812 2.69 2.69 0 0 0 1.22 1.23c.565.286 1.181.46 1.812.513h-.139a18.18 18.18 0 0 0 2.755-.6 15.4 15.4 0 0 0 2.617-1.014 10.44 10.44 0 0 0 2.271-1.535c.643-.606 1.163-1.331 1.529-2.135a.71.71 0 0 1 1.322.081l.005.017a9.82 9.82 0 0 0 2.133 3.714 9.33 9.33 0 0 0 3.548 2.409c1.392.467 2.856.681 4.323.633.74-.017 1.483-.146 2.225-.211l2.205-.492.025-.006a.75.75 0 0 1 .372.013 118.6 118.6 0 0 0 13.454 3.043c4.544.777 9.125 1.325 13.724 1.641 9.193.679 18.434.225 27.516-1.352 4.516-.847 8.957-2.053 13.281-3.608l3.207-1.247 3.132-1.423c1.069-.424 2.06-1.005 3.088-1.514 1.033-.501 2.04-1.054 3.016-1.658a61.59 61.59 0 0 0 11.061-8.214l2.494-2.4c.783-.847 1.539-1.721 2.311-2.581l1.152-1.3 1.049-1.381 2.1-2.766-1.989 2.85-1 1.427-1.1 1.346-2.218 2.688-2.413 2.519a62.43 62.43 0 0 1-10.864 8.766 58.5 58.5 0 0 1-12.548 6.2 87.64 87.64 0 0 1-13.509 3.67 113.83 113.83 0 0 1-27.866 1.372c-4.646-.319-9.273-.872-13.864-1.657a119.78 119.78 0 0 1-13.64-3.087l.4.007-2.348.524c-.805.075-1.6.21-2.415.229a13.71 13.71 0 0 1-4.851-.72c-1.565-.594-2.969-1.546-4.1-2.78s-1.974-2.711-2.457-4.317l1.327.1a8.2 8.2 0 0 1-1.871 2.627c-.782.699-1.654 1.29-2.593 1.759-.917.458-1.874.832-2.859 1.115-.981.294-1.985.51-3 .645h-.015c-.041.005-.084.005-.125 0a6.31 6.31 0 0 1-2.356-.678 4.1 4.1 0 0 1-1.8-1.82c-.364-.749-.563-1.567-.581-2.4a8.37 8.37 0 0 1 .256-2.383l.023.453c-.374-.992-1.021-1.766-1.608-2.947a4.15 4.15 0 0 1-.356-1.992c.072-.625.222-1.238.446-1.826a21.91 21.91 0 0 1 1.541-3.15c.577-.994 1.185-1.959 1.8-2.918l-.11.314a15.51 15.51 0 0 1 3.569-8.284 10.97 10.97 0 0 1 1.655-1.631c.325-.265.681-.49 1.06-.67a2.48 2.48 0 0 1 .733-.222c.173-.008.346.002.517.029l.3.1c1.453.533 2.739 1.1 4.1 1.665l16.038 6.929-.284-.059 19.791-.076 2.473-.008 2.452.077c1.622-.001 3.242-.087 4.855-.257 3.227-.355 6.404-1.07 9.471-2.132a56.82 56.82 0 0 0 17.013-9.442 69.59 69.59 0 0 0 7.242-6.651c2.282-2.377 4.38-4.925 6.274-7.622zm-169.322-19.928c-.694.353-1.391.7-2.1 1.011l.111-.257c.45.967.863 1.949 1.271 2.932s.8 1.972 1.148 2.981l1.043 3.022c.368.999.783 1.98 1.206 2.958 1.757 3.885 3.429 7.8 4.846 11.823l-.374-.162c1.414-.509 2.841-.987 4.283-1.425.018-.007.038.002.046.019s-.002.038-.019.046q-2.026 1-4.1 1.9a.28.28 0 0 1-.366-.143l-.008-.019c-1.727-3.9-3.2-7.895-4.584-11.927-.363-1-.737-2-1.152-2.979s-.879-1.942-1.314-2.915-.846-1.955-1.209-2.957l-1.087-3.005-.006-.018a.19.19 0 0 1 .117-.239 44.42 44.42 0 0 1 2.22-.709c.018-.007.038.002.046.019s-.002.038-.019.046zm12.044 22.635l5.945-2.526 5.971-2.46 12.007-4.761-.151.349-2.26-5.974-2.3-5.956-4.827-11.825.3.127q-6.124 2.535-12.274 5.006l-.015.006a.3.3 0 0 1-.194.01c-.258-.057-.498-.175-.7-.344-.206-.183-.354-.422-.427-.687-.062-.239-.082-.488-.059-.734.019-.236.066-.469.141-.694a.3.3 0 0 1 .047-.089l.007-.009c.394-.501.613-1.118.622-1.755a2.25 2.25 0 0 0-.728-1.639 3.53 3.53 0 0 0-3.651-.484c-1.256.441-2.166 1.539-2.368 2.854-.055.638.155 1.27.581 1.748.449.482 1.048.799 1.7.9h.013c.022.004.043.011.063.022a2.45 2.45 0 0 1 .985.943 1.3 1.3 0 0 1 .141.73 1.51 1.51 0 0 1-.263.673.2.2 0 0 1-.1.082h-.008q-4.895 1.886-9.822 3.687c-.018.007-.038-.002-.046-.019s.002-.038.019-.046q4.819-2.076 9.677-4.053l-.106.085c.198-.264.224-.62.067-.91-.193-.3-.464-.542-.784-.7l.075.025a3.49 3.49 0 0 1-2.042-1.024c-.552-.589-.838-1.38-.791-2.186a4.16 4.16 0 0 1 2.747-3.472c1.467-.648 3.174-.412 4.41.61.608.557.959 1.34.97 2.164 0 .804-.275 1.584-.779 2.21l.053-.1c-.114.316-.141.657-.078.987.075.279.307.488.592.534l-.209.016q6.168-2.424 12.366-4.774h.006c.056-.021.117-.019.171.005s.096.069.118.125l4.6 11.915 2.41 5.914 2.455 5.9c.056.135-.008.29-.143.346h0-.008l-12 4.769-6.033 2.3-6.06 2.239c-.018.007-.038-.002-.046-.019s.002-.038.019-.046zm247.467 54.871l-40.041-23.962 33.735-5.3s8.324 10.092 6.306 29.261z"/></g></svg>