<svg xmlns="http://www.w3.org/2000/svg" width="346.257" height="320.07" viewBox="0 0 346.257 320.07">
  <g id="Group_5455" data-name="Group 5455" transform="translate(-753 -3267.965)">
    <path id="Path_45404" data-name="Path 45404" d="M-3612.252,4091.689l.483,5.508,15.39,175.6h296.772V4043.72" transform="translate(4382.058 -688.301)" fill="#fbd206"/>
    <g id="Group_5452" data-name="Group 5452">
      <g id="male-investor-gaining-profit-from-investment" transform="translate(576.129 3153)">
        <path id="Path_45334" data-name="Path 45334" d="M471.832,209.674c-11.691,0,11.7-.007-.005,0Zm1.658,34.4h0ZM272.234,173.1s-29.5-29.936-7.484-43.752c0,0,3.166-15.688,19.861-14.248s29.072,1.109,31.951-.093,6.189,24.128-20.293,13.622c0,0-4.462,1.3-2.015,9.5s4.749,25.762-2.735,19.43c0,0,1.227-8.779-3.992-6.764s-6.082,6.189-3.924,10.65C283.6,161.443,275.545,172.813,272.234,173.1Z" fill="#5504b0"/>
        <path id="Path_45335" data-name="Path 45335" d="M306.2,146.043a10.165,10.165,0,0,1,2.627-.788,15.9,15.9,0,0,1,2.627-.217,15.62,15.62,0,0,1,2.627.215,10.039,10.039,0,0,1,2.627.791,10.041,10.041,0,0,1-2.627.791,15.622,15.622,0,0,1-2.627.215,15.906,15.906,0,0,1-2.627-.217A10.167,10.167,0,0,1,306.2,146.043Zm6.621,8.419a1.8,1.8,0,1,0-1.738-1.8,1.8,1.8,0,0,0,1.738,1.8Zm-96.8,170.706a58.776,58.776,0,0,1-9.87.664,66.488,66.488,0,0,1-9.875-.922,82.092,82.092,0,0,1-18.988-5.75l-.417-.179.058-.452a247.887,247.887,0,0,1,9.139-41.422,214.275,214.275,0,0,1,16.205-39.228,158.079,158.079,0,0,1,11.356-17.989l3.241-4.227c1.143-1.368,2.254-2.737,3.424-4.1,2.386-2.64,4.895-5.136,7.453-7.589a137.285,137.285,0,0,1,16.373-13.544,62.723,62.723,0,0,1,9.2-5.361,39.524,39.524,0,0,1,4.987-1.919,25.065,25.065,0,0,1,5.266-.958l-.054.009a17.762,17.762,0,0,0,3.139-1.26,13.687,13.687,0,0,0,2.82-1.877,8.979,8.979,0,0,0,2.1-2.637,7.321,7.321,0,0,0,.647-3.324,7.4,7.4,0,0,1-.51,3.387,9.2,9.2,0,0,1-2.038,2.8,13.782,13.782,0,0,1-2.826,2.021,18.179,18.179,0,0,1-3.192,1.4l-.018.006-.036,0a24.465,24.465,0,0,0-5.091,1.1,38.738,38.738,0,0,0-4.818,2.037,69.211,69.211,0,0,0-8.931,5.5,135.986,135.986,0,0,0-15.94,13.73c-2.49,2.475-4.915,5.026-7.257,7.622l-3.33,4.044-3.17,4.192a156.2,156.2,0,0,0-11.1,17.851A231.67,231.67,0,0,0,187.8,277.65c-2.116,6.705-3.965,13.495-5.592,20.338s-3.066,13.749-4.067,20.687l-.359-.631a88.3,88.3,0,0,0,18.622,6.158,64.728,64.728,0,0,0,19.614.966Z" fill="#5504b0"/>
        <path id="Path_45336" data-name="Path 45336" d="M232.992,320.07a71.965,71.965,0,0,0,8.99-5.578,76.9,76.9,0,0,0,8.041-6.818A82.548,82.548,0,0,0,257,299.8c1.068-1.388,2.107-2.8,3.054-4.267.48-.738.927-1.455,1.356-2.226l1.327-2.31c3.54-6.145,7.111-12.271,10.969-18.242.956-1.5,1.948-2.974,3-4.436.258-.365.527-.73.819-1.091a5.288,5.288,0,0,1,1.05-1.1,5.909,5.909,0,0,1,2.888-.81,29.5,29.5,0,0,1,5.425.2c1.781.2,3.539.469,5.3.81l-.5.228c3.132-5.065,6.126-10.211,9.2-15.312,2.979-5.155,6.006-10.281,8.935-15.466l-.041.343L305.126,221.5l-.036-.112.012-.161.31-4.213c.129-1.4.077-2.807.126-4.209.073-1.4-.1-2.795-.142-4.19a17.848,17.848,0,0,0-.212-2.075l-.276-2.063a24,24,0,0,0-2.68-7.668l-.524-.849c-.2-.263-.413-.51-.618-.767a10.925,10.925,0,0,0-1.361-1.388l-.775-.562c-.263-.177-.549-.309-.82-.469-.281-.132-.57-.251-.855-.352a4.806,4.806,0,0,0-.8-.195l-.919-.1-.005-.881a25.929,25.929,0,0,1,.683-6.43,9.991,9.991,0,0,1,1.342-3.181l.275-.38a3.986,3.986,0,0,1,.392-.416,3.285,3.285,0,0,1,.995-.576,5.124,5.124,0,0,1,1.934-.26,17.274,17.274,0,0,1,3.265.532l3.015.755a30.484,30.484,0,0,0,5.887.973,11.92,11.92,0,0,0,2.81-.179,3.094,3.094,0,0,0,1.877-1.314,12.313,12.313,0,0,0,1.7-5.365,49.891,49.891,0,0,0-.273-12.11l-.121-.937.943-.05A6.175,6.175,0,0,0,322.3,162a1.394,1.394,0,0,0,.583-.391.9.9,0,0,0,.108-.6,4.1,4.1,0,0,0-.822-1.761l-.361-.458c-.128-.169-.252-.34-.369-.511-.238-.342-.455-.694-.662-1.051a21.234,21.234,0,0,1-2.789-9.316c-.088-1.659,0-3.179-.192-4.724a33.628,33.628,0,0,0-.917-4.594,43.752,43.752,0,0,0-3.5-8.767l.173-.1a44.2,44.2,0,0,1,4.01,8.663,30.753,30.753,0,0,1,1.177,4.671c.264,1.6.234,3.262.373,4.762a19.944,19.944,0,0,0,2.931,8.642c.2.322.416.635.636.94.109.153.222.3.337.445l.385.467a5.539,5.539,0,0,1,1.178,2.494,2.52,2.52,0,0,1-.333,1.686,2.931,2.931,0,0,1-1.286,1.016,7.635,7.635,0,0,1-2.636.5l.822-.987a51.59,51.59,0,0,1,.562,12.61,19.258,19.258,0,0,1-.59,3.2,10.218,10.218,0,0,1-1.407,3.135,5.2,5.2,0,0,1-3.082,2.153,13.787,13.787,0,0,1-3.356.264,29.9,29.9,0,0,1-6.328-1.013,36.615,36.615,0,0,0-5.838-1.235,3.089,3.089,0,0,0-1.12.127c-.3.125-.382.175-.661.582a7.988,7.988,0,0,0-1.068,2.494,24.024,24.024,0,0,0-.694,5.859l-.924-.979c3.468.616,5.681,3.047,7.218,5.606a25.212,25.212,0,0,1,2.8,8.348l.243,2.162a18.923,18.923,0,0,1,.172,2.161c.017,1.44.156,2.885.051,4.317-.082,1.432-.056,2.874-.229,4.3l-.459,4.267-.024-.272,4.185,14.751.053.188-.095.155c-3.1,5.082-6.1,10.223-9.156,15.336-2.96,5.166-6,10.287-8.894,15.489l-.157.282-.342-.053c-1.729-.27-3.486-.476-5.232-.606a28.688,28.688,0,0,0-5.187-.008,4.815,4.815,0,0,0-2.164.626,4.084,4.084,0,0,0-.735.85c-.253.337-.5.694-.738,1.061-.971,1.451-1.888,2.962-2.819,4.461l-10.941,18.194a66.424,66.424,0,0,1-13.319,16.721,67.44,67.44,0,0,1-8.42,6.6,63.233,63.233,0,0,1-9.372,5.087Z" fill="#5504b0"/>
        <path id="Path_45337" data-name="Path 45337" d="M263.6,182.456c2.611,4.345,5.175,8.693,7.828,12.972,1.345,2.127,2.671,4.261,4.1,6.316a53.557,53.557,0,0,0,4.512,5.9,12.634,12.634,0,0,0,2.595,2.319,2.224,2.224,0,0,0,1.2.4.61.61,0,0,0,.22-.05l.34-.146a4.7,4.7,0,0,0,.654-.395,7.755,7.755,0,0,0,2.118-2.6,22.342,22.342,0,0,0,1.431-3.335c.406-1.175.688-2.343,1.019-3.6a15.84,15.84,0,0,1,1.508-3.624,14.314,14.314,0,0,1,5.436-5.366A15.741,15.741,0,0,0,292,197.054a14.975,14.975,0,0,0-1.1,3.472c-.207,1.211-.462,2.515-.8,3.756a19.521,19.521,0,0,1-1.372,3.7,9.527,9.527,0,0,1-2.529,3.3,5.555,5.555,0,0,1-.949.607l-.528.233a2.544,2.544,0,0,1-.7.165,4.036,4.036,0,0,1-2.384-.635,14.251,14.251,0,0,1-3.086-2.66,70.908,70.908,0,0,1-8.475-12.778A127.076,127.076,0,0,1,263.6,182.456Zm41.521,38.859c-1.549,4.124-3.333,8.143-5.215,12.112s-3.9,7.874-6,11.738c-2.136,3.842-4.365,7.639-6.8,11.314l-1.862,2.732-1.973,2.659c-.67.875-1.4,1.712-2.111,2.555s-1.539,1.594-2.31,2.37a123.809,123.809,0,0,0,6.919-11.138c2.139-3.81,4.278-7.621,6.373-11.461l6.369-11.486C300.656,228.885,302.824,225.073,305.12,221.315Z" fill="#5504b0"/>
        <path id="Path_45338" data-name="Path 45338" d="M250.672,186.945a20.493,20.493,0,0,1,5.693-1,15.083,15.083,0,0,1,5.778.887,10.548,10.548,0,0,1,4.734,3.58,14.106,14.106,0,0,1,2.367,5.472,41.3,41.3,0,0,1,.792,11.694,35.485,35.485,0,0,1-3.194,11.317c-.36.915-.851,1.757-1.274,2.638l-.664,1.3-.727,1.264-1.466,2.521-1.573,2.446c-2.1,3.262-4.377,6.384-6.712,9.456-4.673,6.143-9.639,12.034-14.669,17.86l-.463.537-.587-.365q-7.209-4.487-14.381-9.036l-7.146-4.592q-3.577-2.289-7.121-4.633,3.726,2.042,7.415,4.147l7.39,4.187q7.368,4.224,14.691,8.522l-1.05.171c4.879-5.928,9.721-11.885,14.344-17.989,4.555-6.135,9.043-12.383,12.284-19.216a34.451,34.451,0,0,0,3.258-10.719,41.356,41.356,0,0,0-.41-11.258,12.95,12.95,0,0,0-1.961-5.119,9.884,9.884,0,0,0-4.163-3.508,14.515,14.515,0,0,0-5.494-1.159,22.181,22.181,0,0,0-5.693.588Z" fill="#5504b0"/>
        <path id="Path_45339" data-name="Path 45339" d="M241.732,328.558l-.358-.256c-1.36-.971-8.183-5.923-8.9-7.938-.347-.964-2.919-8.7-5.478-16.857-6.933-22.048-6.439-23.686-6.277-24.225.4-1.33,3.08-4.554,7.419-9.7,4.287-5.09,9.622-11.423,10.424-13.909l1.142.369c-.874,2.709-5.843,8.607-10.649,14.312-3.362,3.992-6.838,8.118-7.187,9.278-.129.428-.058,3.388,6.273,23.52,2.684,8.555,5.189,16.05,5.463,16.81.442,1.238,5.067,4.908,8.117,7.114a59.56,59.56,0,0,1,8.718-5.529,17.826,17.826,0,0,0,7.206-5.612c1.041-1.528,2.021-1.525,2.508-1.39.579.162,1.573.822,1.714,3.426.218,4.3-7.291,9.064-8.148,9.593l-.631-1.02c2.161-1.335,7.735-5.466,7.581-8.51-.092-1.683-.57-2.26-.838-2.334-.216-.057-.668.139-1.195.911a19.107,19.107,0,0,1-7.718,6.035c-3.124,1.363-8.772,5.608-8.828,5.651Z" fill="#5504b0"/>
        <path id="Path_45340" data-name="Path 45340" d="M253.333,326.97l.02-.011.008,0c3.386-1.525,6.806-2.962,10.208-4.445l.039-.017.043-.007c.972-.163,1.941-.369,2.921-.5l1.481-.13.742-.065h.745l1.493,0c.5.027.993.086,1.491.129a10.554,10.554,0,0,1,1.485.2c.491.1.989.165,1.475.288a21.4,21.4,0,0,1,5.6,2.212,17.91,17.91,0,0,1,4.782,3.811l1.234,1.427-2.119-.065c-.169-.005-.334-.018-.5-.039-.187,0-.4.039-.6.054a11.407,11.407,0,0,0-1.275.243l-1.3.38-1.3.457c-1.725.655-3.429,1.413-5.119,2.2a103.83,103.83,0,0,0-9.845,5.317,90.822,90.822,0,0,1-9.75,5.835,49.792,49.792,0,0,1-10.583,4.214,12.965,12.965,0,0,1-1.41.284,7.577,7.577,0,0,1-1.457.15,9.174,9.174,0,0,1-2.868-.535A21.792,21.792,0,0,1,233.9,345.7a67.711,67.711,0,0,1-8.635-7.4l-2-2.007-.5-.495a6.214,6.214,0,0,1-.514-.562c-.309-.379-.593-.758-.881-1.139-1.137-1.523-2.223-3.067-3.307-4.616-2.184-3.087-4.23-6.255-6.308-9.408l-6.192-9.484q-3.043-4.778-6-9.609t-5.734-9.8c-.919-1.668-1.8-3.338-2.589-5.144l-.28-.7c-.082-.27-.149-.579-.215-.869a4.249,4.249,0,0,1-.076-.837,4.651,4.651,0,0,1,.006-.8,11.536,11.536,0,0,1,.187-1.522,13.51,13.51,0,0,1,.313-1.455,60.477,60.477,0,0,1,4.221-10.685q2.492-5.122,5.306-10.047c3.761-6.562,7.748-12.98,12.016-19.211l.17.108c-1.885,3.267-3.766,6.534-5.577,9.839q-2.765,4.929-5.359,9.943c-1.716,3.347-3.426,6.7-4.959,10.113a63.268,63.268,0,0,0-3.839,10.42,11.736,11.736,0,0,0-.266,1.312,9.574,9.574,0,0,0-.144,1.284,3.031,3.031,0,0,0,0,.607,2.528,2.528,0,0,0,.054.566l.124.5.251.607c.736,1.646,1.648,3.3,2.536,4.937,1.8,3.285,3.735,6.514,5.637,9.761q2.879,4.856,5.839,9.671l5.993,9.582c1.986,3.2,3.966,6.411,6,9.581,1.016,1.584,2.037,3.167,3.1,4.711.266.383.535.766.81,1.128a4.959,4.959,0,0,0,.422.5l.487.521,1.923,2.068a56.033,56.033,0,0,0,8.362,7.489,20.055,20.055,0,0,0,4.885,2.635,8.561,8.561,0,0,0,2.673.477,6.992,6.992,0,0,0,1.35-.154,10.4,10.4,0,0,0,1.357-.293,43.821,43.821,0,0,0,10.231-4.508,91.106,91.106,0,0,0,9.4-6.186c1.577-1.1,3.211-2.072,4.868-3.008s3.343-1.818,5.063-2.637,3.468-1.591,5.279-2.247l1.374-.466,1.418-.4a13.006,13.006,0,0,1,1.5-.269c.269-.02.522-.057.8-.057.3.025.607.058.908.1l-.885,1.361a17.137,17.137,0,0,0-4.235-3.488,21.612,21.612,0,0,0-5.15-2.205c-.451-.133-.915-.214-1.373-.325a9.632,9.632,0,0,0-1.392-.247c-.468-.058-.936-.135-1.406-.18l-1.42-.061-.712-.03-.712.034-1.427.067c-.949.084-1.892.246-2.841.365l.081-.024c-3.5,1.246-6.974,2.536-10.487,3.74l.008,0-.02.009Zm-7.386,68.359c-8.987-.7-14.87-1.3-14.87-1.3l1.725-18.137c.958.172,1.935.431,2.922.537l2.951.316,5.912.479,3.727.2a29.661,29.661,0,0,0-1.178,3.957c-.355,1.514-.642,3.047-.853,4.58s-.355,3.095-.431,4.647a28.9,28.9,0,0,0,.1,4.723Z" fill="#5504b0"/>
        <path id="Path_45341" data-name="Path 45341" d="M244.615,376.281a113.007,113.007,0,0,1-11.814-.393c-4.034-.585-22.746-6.908-22.746-6.908-32.518-13.816-32.518-50.378-32.518-50.378a84.255,84.255,0,0,0,18.013,5.806,29.568,29.568,0,0,0,3.516,15.751,31.532,31.532,0,0,0,11.21,11.794,40.6,40.6,0,0,0,7.368,3.66c1.255.537,2.587.891,3.88,1.341,1.322.345,2.635.747,3.976,1.025s2.673.6,4.034.786c1.351.22,2.7.441,4.063.565,2.721.345,5.423.46,8.144.68a298.709,298.709,0,0,0,32.614.307l16.259-.671A109.919,109.919,0,0,1,306.72,360a35.325,35.325,0,0,1,3.928.623l1.945.422,1.868.6a23.115,23.115,0,0,1,3.622,1.514c.594.259,1.178.613,1.772.939l1.763,1c2.328,1.361,4.628,2.759,6.812,4.292a24.445,24.445,0,0,1,5.768,5.231,4.215,4.215,0,0,1,.929,3.19,3.026,3.026,0,0,1-.22.786l-.163.393-.24.374c-.268.45-.785,1.179-1.1,1.677a12.883,12.883,0,0,1-5.787,4.886c-.584.287-1.226.489-1.83.747a15.412,15.412,0,0,1-1.868.661l-1.916.546a17,17,0,0,1-1.945.489l-3.938.8-4,.575c-10.693,1.4-21.577,1.475-32.4,1.361-5.423.029-10.836-.23-16.259-.374L247.5,390c.269-1.246.508-2.51.68-3.775.22-1.543.364-3.085.441-4.647a31.584,31.584,0,0,0-.048-4.149l1.935.105,5.921.23c7.895.268,15.8.374,23.694.4,7.9,0,15.8-.048,23.694-.23q11.842-.244,23.684-.9-11.857-.446-23.694-.594c-7.895-.125-15.78-.153-23.675-.192l-23.675.019Z" fill="#5504b0"/>
        <path id="Path_45342" data-name="Path 45342" d="M323.813,395.462c-19.661,3.612-57.075,1.475-77.866-.134a30.112,30.112,0,0,0,1.38-4.513c.058-.268.105-.537.163-.8,5.308.422,10.616.891,15.933,1.226,5.423.287,10.836.69,16.269.8,10.856.307,21.749.393,32.6-.834l4.072-.517c1.351-.23,2.692-.508,4.043-.757a17.948,17.948,0,0,0,2-.489l2-.556a16.477,16.477,0,0,0,1.964-.69c.642-.268,1.313-.479,1.945-.786l1.868-1c.613-.355,1.178-.814,1.763-1.226a19.415,19.415,0,0,0,1.581-1.495,18.831,18.831,0,0,0,1.274-1.715c.422-.642.7-1.016,1.14-1.715l.307-.489.24-.546a5,5,0,0,0,.335-1.15,5.844,5.844,0,0,0,.057-1.226,9.942,9.942,0,0,0-.23-1.188c-.144-.354-.278-.719-.441-1.073l-.575-.968a25.965,25.965,0,0,0-6.18-5.71c-2.251-1.591-4.58-3.028-6.927-4.407l-1.772-1.016c-.6-.335-1.169-.69-1.821-.977a25.38,25.38,0,0,0-3.871-1.648l-1.993-.651-2.041-.45a33.073,33.073,0,0,0-4.091-.671,110.469,110.469,0,0,0-16.4-.278l-16.259.747c-5.413.249-10.827.354-16.24.383-5.413-.038-10.817-.125-16.231-.412a101.012,101.012,0,0,1-16.058-1.734c-1.322-.259-2.606-.632-3.919-.949-1.265-.422-2.577-.747-3.823-1.255a40.869,40.869,0,0,1-7.253-3.449,30.814,30.814,0,0,1-11.258-11.239,29.967,29.967,0,0,1-3.018-7.473,27.4,27.4,0,0,1-.939-8.039,62.9,62.9,0,0,0,20.465.757c3.583,5.48,6.324,9.457,6.994,10.137,2.3,2.309,12.666,14.1,19.574,13.241s17.371-7.445,21.011-10.079c4.867-3.5,18.137-10.357,21.586-9.495,0,0-6.975-8.93-21.433-6.017l-10.348,4.1c.469-.3,8.058-5.088,7.857-9.054-.163-3.143-1.725-3.785-3.123-1.725a18.464,18.464,0,0,1-7.464,5.816c-3.229,1.408-8.949,5.72-8.949,5.72s-7.991-5.71-8.69-7.646c19.268-9.045,28.839-26.032,28.839-26.032s.335-.565.92-1.562c53.012-18.856,64.136-14.554,64.136-14.554,37.712,9.792-3.171,63.331-3.171,63.331-3.095-1.408-6.237-2.644-9.409-3.8-3.171-1.178-6.371-2.252-9.581-3.3-3.219-1.016-6.448-2.012-9.706-2.894-1.7-.469-3.392-.92-5.1-1.332,2.146-2.05,4.177-4.206,6.151-6.391,2.1-2.319,4.12-4.695,6.113-7.09,1.974-2.424,3.928-4.858,5.8-7.358s3.7-5.04,5.375-7.7c-2.29,2.156-4.436,4.426-6.534,6.745s-4.11,4.695-6.113,7.1c-1.964,2.414-3.919,4.848-5.787,7.358-1.782,2.376-3.516,4.791-5.126,7.31-1.543-.374-3.085-.719-4.647-1.025,3.085,1.408,6.237,2.644,9.409,3.8,3.171,1.178,6.371,2.252,9.581,3.3,3.219,1.016,6.448,2,9.706,2.893s6.534,1.734,9.869,2.386l17.85,11.794C359.445,364.946,351.963,390.279,323.813,395.462Zm-92.52-3.753c-1.718-.051-3.41-.08-5.091-.028a27.956,27.956,0,0,0-4.947.539,9.717,9.717,0,0,0-4.357,1.917,5.744,5.744,0,0,0-1.457,1.872,9.119,9.119,0,0,0-.7,2.4,6.68,6.68,0,0,1,.154-2.61,5.674,5.674,0,0,1,1.36-2.339A9.09,9.09,0,0,1,221,391.049a18.94,18.94,0,0,1,5.217-.3,20.973,20.973,0,0,1,5.072.96Z" fill="#5504b0"/>
        <path id="Path_45343" data-name="Path 45343" d="M232.8,423.238c-4.388-3.238-16.556,1.514-16.336-5.183s0-19.641,0-19.641c-22.669-5.4-18.137-26.559-18.137-26.559-4.532.22-18.779,2.6-19.431,6.477s25.907,55.053,25.907,55.053h32.6S237.19,426.477,232.8,423.238ZM208.15,401.432a5.415,5.415,0,0,1,1.916-.048,7.871,7.871,0,0,1,1.725.45,7.771,7.771,0,0,1,1.571.843,5.254,5.254,0,0,1,1.38,1.351,5.472,5.472,0,0,1-1.926.048,7.385,7.385,0,0,1-1.725-.46,7.51,7.51,0,0,1-1.571-.834A5.707,5.707,0,0,1,208.15,401.432Zm5.739,11.038a7.378,7.378,0,0,1-1.725-.46,7.542,7.542,0,0,1-1.571-.843,5.337,5.337,0,0,1-1.37-1.341,5.414,5.414,0,0,1,1.916-.048,7.36,7.36,0,0,1,1.725.45,7.127,7.127,0,0,1,1.571.843,5.335,5.335,0,0,1,1.37,1.341,5.211,5.211,0,0,1-1.916.057Zm0-4.426a7.38,7.38,0,0,1-1.725-.46,7.5,7.5,0,0,1-1.571-.834,5.544,5.544,0,0,1-1.37-1.351,5.412,5.412,0,0,1,1.916-.048,7.863,7.863,0,0,1,1.725.45,7.551,7.551,0,0,1,1.571.843,5.335,5.335,0,0,1,1.37,1.341,5.212,5.212,0,0,1-1.916.057Z" fill="#5504b0"/>
        <path id="Path_45344" data-name="Path 45344" d="M198.159,372.942a29.439,29.439,0,0,1,5.761-2.55,29.1,29.1,0,0,1,6.14-1.413,29.111,29.111,0,0,1-5.761,2.55A29.442,29.442,0,0,1,198.159,372.942Zm72.053,23.9a31.492,31.492,0,0,1,.6,6.489,31.121,31.121,0,0,1-.6,6.489,31.138,31.138,0,0,1-.6-6.489A31.491,31.491,0,0,1,270.212,396.846Zm24.68.593a13.329,13.329,0,0,0,.521,3.977,11.213,11.213,0,0,0,1.7,3.5,10.508,10.508,0,0,0,1.277,1.473c.238.224.453.475.711.679s.521.4.778.614c.511.425,1.108.735,1.658,1.128.577.352,1.19.64,1.78,1.012-.668-.157-1.33-.359-2-.568a14.375,14.375,0,0,1-1.881-.92,10.668,10.668,0,0,1-3.145-2.831A9.288,9.288,0,0,1,294.892,397.439Z" fill="#5504b0"/>
        <path id="Path_45345" data-name="Path 45345" d="M314.261,418.706c-6.477.431-12.772-12.015-12.772-12.015-14.055,6.343-33.208,1.293-33.208,1.293-3.239,21.241,0,25.4,0,25.4h67.777C336.259,424.963,320.738,418.275,314.261,418.706Zm-15.982-3.89a5.489,5.489,0,0,1,1.2-1.475,7.465,7.465,0,0,1,1.456-1.006,7.374,7.374,0,0,1,1.639-.642,5.315,5.315,0,0,1,1.9-.144,5.289,5.289,0,0,1-1.188,1.475,7.462,7.462,0,0,1-1.456,1.006,7.541,7.541,0,0,1-1.638.632A5.365,5.365,0,0,1,298.279,414.816Zm2.1,2.826a5.15,5.15,0,0,1,1.2-1.476,7.494,7.494,0,0,1,3.095-1.648,5.317,5.317,0,0,1,1.9-.144,5.15,5.15,0,0,1-1.2,1.475,7.331,7.331,0,0,1-3.095,1.638,5.308,5.308,0,0,1-1.9.153Zm8.086,1.092a7.34,7.34,0,0,1-1.447,1,7.452,7.452,0,0,1-1.648.642,5.539,5.539,0,0,1-1.9.153,5.2,5.2,0,0,1,1.2-1.485,7.823,7.823,0,0,1,1.447-1.006,7.427,7.427,0,0,1,1.648-.632,5.083,5.083,0,0,1,1.9-.153,5.2,5.2,0,0,1-1.2,1.485ZM292.094,266.794c2.3,2.39,4.734,4.655,7.214,6.853a75.025,75.025,0,0,0,7.815,6.1,34.94,34.94,0,0,0,4.257,2.462,14.209,14.209,0,0,0,4.564,1.411,5,5,0,0,0,2.226-.242,4.225,4.225,0,0,0,.966-.491,6.976,6.976,0,0,0,.782-.789,20.664,20.664,0,0,0,2.47-4.141,93.212,93.212,0,0,0,3.7-9.163q1.644-4.678,3.072-9.437c1.907-6.341,3.708-12.719,5.319-19.147a353.837,353.837,0,0,0,7.784-38.92,62.584,62.584,0,0,0,.616-9.772,26.494,26.494,0,0,0-1.987-9.346,19.973,19.973,0,0,0-5.719-7.5,21.235,21.235,0,0,0-8.522-4.04l-.725-.151.008-.7a20.629,20.629,0,0,0-.111-2.315,13.111,13.111,0,0,0-.413-2.241,3.823,3.823,0,0,0-.908-1.737c-.373-.347-.821-.349-1.446-.086l-.319.134-.3-.126a.811.811,0,0,0-.41-.035.508.508,0,0,0-.31.222,2.879,2.879,0,0,0-.382,1.323,13.912,13.912,0,0,0,.275,3.4,7.791,7.791,0,0,0,1.118,3.081,1.6,1.6,0,0,0,1.042.7,2.235,2.235,0,0,0,1.322-.381l.8-.491.117.927c.3,2.378.677,4.768,1.174,7.111a33.711,33.711,0,0,0,.907,3.452,8.275,8.275,0,0,0,.672,1.57,1.624,1.624,0,0,0,.432.51.364.364,0,0,0,.109.044.479.479,0,0,0,.2-.116l.49-.442.219.622a24.292,24.292,0,0,0,1.692,3.988,3.674,3.674,0,0,0,1.273,1.479c.4.218.873-.486,1.094-1.112l.244-.691.3.679.455,1.03.03.069v.064l-.031-.127a10.48,10.48,0,0,0,.895,1.48,2.7,2.7,0,0,0,1.221,1.038c.475.166.949-.188,1.262-.645a9.45,9.45,0,0,0,.795-1.541,16.981,16.981,0,0,0,1.439-6.872,17.136,17.136,0,0,1-1.151,6.99,9.586,9.586,0,0,1-.779,1.634,2.222,2.222,0,0,1-.671.689,1.231,1.231,0,0,1-1,.159,3.092,3.092,0,0,1-1.495-1.154,10.974,10.974,0,0,1-.992-1.524l-.03-.055v-.082l.029.123-.51-1.061.544-.012a3.333,3.333,0,0,1-.551,1.071l-.225.246a2.84,2.84,0,0,1-.317.2,1.733,1.733,0,0,1-.39.084,2.61,2.61,0,0,1-.38-.065,4.091,4.091,0,0,1-1.676-1.723,24.985,24.985,0,0,1-1.894-4.084l.709.18a1.351,1.351,0,0,1-.574.337,1.089,1.089,0,0,1-.762-.111,2.381,2.381,0,0,1-.788-.806,9.144,9.144,0,0,1-.816-1.734,32.053,32.053,0,0,1-1.017-3.546c-.555-2.382-.979-4.772-1.335-7.19l.921.437a3.43,3.43,0,0,1-2.088.594,2.85,2.85,0,0,1-1.93-1.154,8.912,8.912,0,0,1-1.434-3.6,15.153,15.153,0,0,1-.369-3.769,4.156,4.156,0,0,1,.63-2.093,1.986,1.986,0,0,1,1.134-.79,2.225,2.225,0,0,1,1.362.1l-.618.008a3.419,3.419,0,0,1,1.519-.351,2.532,2.532,0,0,1,1.574.623,5.233,5.233,0,0,1,1.424,2.446,14.678,14.678,0,0,1,.519,2.515,22.209,22.209,0,0,1,.17,2.527l-.717-.848a22.763,22.763,0,0,1,9.357,4.333,21.782,21.782,0,0,1,6.3,8.142,28.324,28.324,0,0,1,2.207,10,64.347,64.347,0,0,1-.563,10.09c-.787,6.641-2.029,13.19-3.395,19.7s-2.909,12.988-4.586,19.427-3.463,12.85-5.517,19.185q-1.529,4.753-3.28,9.44a94.49,94.49,0,0,1-3.937,9.223,21.636,21.636,0,0,1-2.715,4.332,7.862,7.862,0,0,1-.993.948,5.311,5.311,0,0,1-1.254.613,6.052,6.052,0,0,1-2.682.248A14.5,14.5,0,0,1,310.986,283a35.738,35.738,0,0,1-4.275-2.659,75.581,75.581,0,0,1-7.674-6.4C296.608,271.672,294.3,269.275,292.094,266.794Z" fill="#5504b0"/>
        <path id="Path_45346" data-name="Path 45346" d="M330.316,186.407c-.322-.784-.513-1.358-.513-1.358a.863.863,0,0,1-.463.241L329.8,174.4Z" fill="#5504b0"/>
        <rect id="Rectangle_42051" data-name="Rectangle 42051" width="2.803" height="1.2" transform="translate(324.892 171.945) rotate(-60.837)" fill="#5504b0"/>
        <path id="Path_45347" data-name="Path 45347" d="M335.033,190.409c-.3-.593-.483-1.046-.483-1.046a3.283,3.283,0,0,1-.473.925l.473-10.569Zm-15.28-10.688c.367,1.061.654,2.127.947,3.182l.441,1.566a7.672,7.672,0,0,0,.512,1.351l.851,1.418-1.545-.539c-.649-.226-1.29-.48-1.93-.734s-1.271-.531-1.906-.8c-.628-.285-1.256-.571-1.875-.88l-1.853-.95a12.2,12.2,0,0,1,2.068.353c.677.159,1.343.347,2.007.541.658.211,1.321.406,1.968.646s1.3.463,1.938.725l-.693.879a5.5,5.5,0,0,1-.587-1.752,16.548,16.548,0,0,1-.252-1.665,20.132,20.132,0,0,1-.092-3.343Zm-12.083,2.735a50.082,50.082,0,0,0,4.012,4.65,44.888,44.888,0,0,0,4.521,4.066,31.158,31.158,0,0,0,5.088,3.156,20.212,20.212,0,0,0,5.606,1.646l.985.129-.192.981c-.716,3.662-1.56,7.276-2.459,10.886-.927,3.6-1.91,7.192-3.061,10.737q-.842,2.664-1.831,5.285c-.653,1.749-1.355,3.482-2.153,5.177a31.274,31.274,0,0,1-2.762,4.913,9.4,9.4,0,0,1-1.946,2.084,2.93,2.93,0,0,1-1.315.594,1.841,1.841,0,0,1-1.356-.334,1.741,1.741,0,0,0,1.316.143,2.857,2.857,0,0,0,1.117-.7,9.505,9.505,0,0,0,1.6-2.166,36.726,36.726,0,0,0,2.256-5c1.287-3.441,2.347-6.974,3.364-10.52.991-3.553,1.945-7.121,2.829-10.709.9-3.58,1.756-7.185,2.58-10.776l.793,1.11a20.561,20.561,0,0,1-6.1-2.032,29.14,29.14,0,0,1-5.165-3.639,37.25,37.25,0,0,1-4.275-4.548,35.831,35.831,0,0,1-3.453-5.142Z" fill="#5504b0"/>
        <path id="Path_45348" data-name="Path 45348" d="M321.372,185.587l6.7,3.057-7.112-1.929Z" fill="#5504b0"/>
        <path id="Path_45349" data-name="Path 45349" d="M326.968,195.907a12.933,12.933,0,0,0,1.811.419,15.284,15.284,0,0,0,1.912.187,10.829,10.829,0,0,0,3.862-.529,11.335,11.335,0,0,1-3.764,1.53,16.542,16.542,0,0,1-2.055.32,14.61,14.61,0,0,1-2.14.05ZM283.6,161.443c.513.654,1.012,1.273,1.531,1.857a10.824,10.824,0,0,0,1.666,1.557,5.828,5.828,0,0,0,1.963.953,7.235,7.235,0,0,0,2.324.1,3.968,3.968,0,0,1-2.434.682,4.769,4.769,0,0,1-2.448-.92,6.668,6.668,0,0,1-1.7-1.9A6.54,6.54,0,0,1,283.6,161.443Zm33.1,7.052a1.988,1.988,0,0,1,.436-1.4,2.352,2.352,0,0,1,1.194-.8,2.177,2.177,0,0,1,1.536.124,1.62,1.62,0,0,1,.917,1.21,9.7,9.7,0,0,0-1.184.349,7.258,7.258,0,0,1-.727.253,6.471,6.471,0,0,1-.868.175A8.922,8.922,0,0,1,316.706,168.5ZM523.129,345.976l-4.286,21.5-4.5,21.94c-1.55,7.365-3.12,14.764-4.773,22.167-1.624,7.4-3.31,14.811-5.106,22.167l-.313,1.285-1.289-.01c-6.436-.048-12.871-.26-19.307-.39l-19.307-.459q-9.654-.192-19.307-.21t-19.307.1l-.534.007-.135-.539-5.431-21.729c-1.83-7.238-3.7-14.468-5.457-21.723-1.789-7.248-3.568-14.5-5.287-21.762l-5.21-21.78-.577-2.411,2.518-.028c4.959-.056,9.924-.044,14.891-.043s9.933.018,14.9.073l14.872.165,14.812.254,14.726.312,14.6.369Zm-.3.239-29.92.744-14.764.369-14.638.312-14.552.254-14.491.165q-7.243.094-14.467.073c-4.821,0-9.644.013-14.473-.043l1.941-2.439,4.846,21.863c1.633,7.284,3.206,14.581,4.769,21.881,1.594,7.293,3.078,14.611,4.6,21.92l4.625,21.914-.669-.532q9.654.124,19.307.1t19.307-.21l19.307-.459c6.436-.13,12.872-.342,19.307-.39l-1.6,1.275c1.556-7.191,3.222-14.329,4.95-21.475,1.7-7.144,3.482-14.293,5.283-21.476l5.561-21.7Z" fill="#5504b0"/>
        <path id="Path_45350" data-name="Path 45350" d="M470.688,241.777a224.572,224.572,0,0,0-9.421,51.784l-.243,3.279-.092,3.286c-.045,2.191-.142,4.383-.145,6.574.08,4.382.055,8.774.407,13.15.376,8.789,1.743,17.477,3.059,26.247a134.574,134.574,0,0,1-5.4-26.049c-.637-4.416-.669-8.875-.918-13.324-.061-2.226.042-4.454.055-6.681l.059-3.341.214-3.334.248-3.332c.074-1.111.163-2.221.313-3.325l.806-6.631,1.134-6.581c.382-2.192.917-4.356,1.389-6.528a123.527,123.527,0,0,1,8.539-25.193Z" fill="#5504b0"/>
        <path id="Path_45351" data-name="Path 45351" d="M459.234,313.976a9.555,9.555,0,0,1,.215-3.1,9.047,9.047,0,0,1,.908-2.368,8.4,8.4,0,0,1,1.366-1.855,3.842,3.842,0,0,1,1.926-1.171c1.583-.405,3.737-.01,5.095-.629a5.986,5.986,0,0,0,2.974-3.479,16.651,16.651,0,0,1,1.183-2.318,10.537,10.537,0,0,1,1.592-1.81,11.209,11.209,0,0,1,3.9-2.82,11.442,11.442,0,0,1,5.189-.594,10.108,10.108,0,0,1,2.86.731,6.722,6.722,0,0,1,2.618,1.9l-.059,1c-1.4,1.661-2.143,2.881-3.063,3.955a14.759,14.759,0,0,1-1.362,1.463,9.065,9.065,0,0,1-1.49,1.21,25.185,25.185,0,0,1-5.842,1.791c-.762.081-1.613.049-2.454.059a5.075,5.075,0,0,0-4.132,1.519c-.976,1.1-1.129,3.243-1.825,4.624a3.585,3.585,0,0,1-1.471,1.536,8.41,8.41,0,0,1-1.992.9,9.687,9.687,0,0,1-2.408.439,11.089,11.089,0,0,1-3.053-.24Zm-.4-23.15a14.974,14.974,0,0,1-4.182-2.305,6.487,6.487,0,0,1-1.153-1.206,2.318,2.318,0,0,1-.488-1.521,5.215,5.215,0,0,1,.134-1.026l.18-1.122a3.715,3.715,0,0,0-.113-2.09A2.535,2.535,0,0,0,452,280.242a5.673,5.673,0,0,0-1.978-.516c-.754-.044-1.505-.039-2.134-.14a14.052,14.052,0,0,1-1.728-.443,9.088,9.088,0,0,1-3.046-1.238,10.621,10.621,0,0,1-2.339-2.759,15.472,15.472,0,0,1-1.1-1.941,15.25,15.25,0,0,1-1.007-2.605l.323-.952a9.833,9.833,0,0,1,2.551-1.234,9.563,9.563,0,0,1,2.445-.533,11.536,11.536,0,0,1,2.3.1,6.461,6.461,0,0,1,2.148.591,7.711,7.711,0,0,1,1.835,1.218,15.8,15.8,0,0,1,1.508,1.692,7.324,7.324,0,0,1,1.284,1.888,15.014,15.014,0,0,1,.742,2.362,5.789,5.789,0,0,0,1.932,3.8,8.413,8.413,0,0,0,2.158.968,7.851,7.851,0,0,1,2.359,1.066,3.361,3.361,0,0,1,.831.816,4.714,4.714,0,0,1,.48,1.022,6.691,6.691,0,0,1,.385,2.28,6.908,6.908,0,0,1-.451,2.479,6.807,6.807,0,0,1-1.67,2.54Z" fill="#5504b0"/>
        <path id="Path_45352" data-name="Path 45352" d="M519.017,363.271H410.06V368.3h107.8Z" fill="#5504b0"/>
        <path id="Path_45353" data-name="Path 45353" d="M451.3,433.381H426.4a12.888,12.888,0,0,1,24.9,0Zm25.783,0h-24.9a12.888,12.888,0,0,1,24.9,0Z" fill="#5504b0"/>
        <rect id="Rectangle_42052" data-name="Rectangle 42052" width="24.899" height="0.881" transform="translate(452.185 432.94)" fill="#5504b0"/>
        <rect id="Rectangle_42053" data-name="Rectangle 42053" width="24.898" height="0.881" transform="translate(477.969 432.94)" fill="#5504b0"/>
        <rect id="Rectangle_42054" data-name="Rectangle 42054" width="24.898" height="0.881" transform="translate(426.402 432.94)" fill="#5504b0"/>
        <path id="Path_45354" data-name="Path 45354" d="M502.867,433.381h-24.9a12.888,12.888,0,0,1,24.9,0Z" fill="#5504b0"/>
        <rect id="Rectangle_42055" data-name="Rectangle 42055" width="92.086" height="5.028" transform="translate(418.209 398.628)" fill="#5504b0"/>
        <path id="Path_45355" data-name="Path 45355" d="M409.745,356.687h-2.012a1.006,1.006,0,0,1,0-2.012h2.012a1.006,1.006,0,0,1,0,2.012Zm103.927,0h-4a1.006,1.006,0,0,1,0-2.012h4a1.006,1.006,0,1,1,0,2.012Zm-8,0h-4a1.006,1.006,0,1,1,0-2.012h4a1.006,1.006,0,0,1,0,2.012Zm-7.994,0h-4a1.006,1.006,0,0,1,0-2.012h4a1.006,1.006,0,0,1,0,2.012Zm-7.994,0h-4a1.006,1.006,0,0,1,0-2.012h4a1.006,1.006,0,1,1,0,2.012Zm-7.994,0h-4a1.006,1.006,0,1,1,0-2.012h4a1.006,1.006,0,0,1,0,2.012Zm-7.994,0h-4a1.006,1.006,0,0,1,0-2.012h4a1.006,1.006,0,0,1,0,2.012Zm-7.994,0h-4a1.006,1.006,0,0,1,0-2.012h4a1.006,1.006,0,1,1,0,2.012Zm-7.994,0h-4a1.006,1.006,0,0,1,0-2.012h4a1.006,1.006,0,1,1,0,2.012Zm-7.994,0h-4a1.006,1.006,0,0,1,0-2.012h4a1.006,1.006,0,1,1,0,2.012Zm-8,0h-4a1.006,1.006,0,0,1,0-2.012h4a1.006,1.006,0,1,1,0,2.012Zm-7.994,0h-4a1.006,1.006,0,1,1,0-2.012h4a1.006,1.006,0,0,1,0,2.012Zm-7.994,0h-4a1.006,1.006,0,1,1,0-2.012h4a1.006,1.006,0,0,1,0,2.012Zm-7.994,0h-4a1.006,1.006,0,0,1,0-2.012h4a1.006,1.006,0,0,1,0,2.012Zm101.941,0h-2.012a1.006,1.006,0,1,1,0-2.012h2.012a1.006,1.006,0,1,1,0,2.012ZM414.994,383.832h-1.006a1.006,1.006,0,0,1,0-2.012h1.006a1.006,1.006,0,1,1,0,2.012Zm94.258,0h-1.964a1.006,1.006,0,0,1,0-2.012h1.964a1.006,1.006,0,0,1,0,2.012Zm-5.891,0H501.4a1.006,1.006,0,0,1,0-2.012h1.964a1.006,1.006,0,1,1,0,2.012Zm-5.891,0h-1.964a1.006,1.006,0,0,1,0-2.012h1.964a1.006,1.006,0,1,1,0,2.012Zm-5.892,0h-1.964a1.006,1.006,0,0,1,0-2.012h1.964a1.006,1.006,0,1,1,0,2.012Zm-5.891,0h-1.964a1.006,1.006,0,0,1,0-2.012h1.964a1.006,1.006,0,0,1,0,2.012Zm-5.891,0h-1.964a1.006,1.006,0,0,1,0-2.012H479.8a1.006,1.006,0,1,1,0,2.012Zm-5.892,0h-1.963a1.006,1.006,0,0,1,0-2.012H473.9a1.006,1.006,0,1,1,0,2.012Zm-5.891,0H466.05a1.006,1.006,0,0,1,0-2.012h1.964a1.006,1.006,0,0,1,0,2.012Zm-5.891,0h-1.964a1.006,1.006,0,0,1,0-2.012h1.964a1.006,1.006,0,0,1,0,2.012Zm-5.891,0h-1.964a1.006,1.006,0,0,1,0-2.012h1.964a1.006,1.006,0,0,1,0,2.012Zm-5.892,0h-1.964a1.006,1.006,0,0,1,0-2.012h1.964a1.006,1.006,0,0,1,0,2.012Zm-5.891,0h-1.964a1.006,1.006,0,1,1,0-2.012h1.964a1.006,1.006,0,1,1,0,2.012Zm-5.891,0h-1.964a1.006,1.006,0,0,1,0-2.012h1.964a1.006,1.006,0,0,1,0,2.012Zm-5.892,0H430.7a1.006,1.006,0,0,1,0-2.012h1.963a1.006,1.006,0,0,1,0,2.012Zm-5.891,0h-1.964a1.006,1.006,0,0,1,0-2.012h1.964a1.006,1.006,0,1,1,0,2.012Zm-5.891,0h-1.964a1.006,1.006,0,0,1,0-2.012h1.964a1.006,1.006,0,0,1,0,2.012Zm93.3,0H513.18a1.006,1.006,0,1,1,0-2.012h1.006a1.006,1.006,0,1,1,0,2.012Zm-92.2,30.356h-1a1.006,1.006,0,0,1,0-2.012h1a1.006,1.006,0,0,1,0,2.012Zm80.4,0h-2.061a1.006,1.006,0,0,1,0-2.012h2.061a1.006,1.006,0,0,1,0,2.012Zm-6.185,0h-2.062a1.006,1.006,0,1,1,0-2.012h2.062a1.006,1.006,0,1,1,0,2.012Zm-6.185,0H487.96a1.006,1.006,0,0,1,0-2.012h2.062a1.006,1.006,0,1,1,0,2.012Zm-6.186,0h-2.061a1.006,1.006,0,0,1,0-2.012h2.061a1.006,1.006,0,1,1,0,2.012Zm-6.185,0h-2.061a1.006,1.006,0,0,1,0-2.012h2.061a1.006,1.006,0,0,1,0,2.012Zm-6.185,0h-2.061a1.006,1.006,0,0,1,0-2.012h2.061a1.006,1.006,0,0,1,0,2.012Zm-6.185,0h-2.062a1.006,1.006,0,0,1,0-2.012h2.062a1.006,1.006,0,0,1,0,2.012Zm-6.186,0h-2.061a1.006,1.006,0,0,1,0-2.012H459.1a1.006,1.006,0,1,1,0,2.012Zm-6.185,0h-2.061a1.006,1.006,0,1,1,0-2.012h2.061a1.006,1.006,0,1,1,0,2.012Zm-6.185,0h-2.061a1.006,1.006,0,0,1,0-2.012h2.061a1.006,1.006,0,0,1,0,2.012Zm-6.185,0h-2.062a1.006,1.006,0,0,1,0-2.012h2.062a1.006,1.006,0,0,1,0,2.012Zm-6.185,0H432.3a1.006,1.006,0,0,1,0-2.012h2.062a1.006,1.006,0,0,1,0,2.012Zm-6.186,0h-2.061a1.006,1.006,0,0,1,0-2.012h2.061a1.006,1.006,0,1,1,0,2.012Zm79.348,0h-1a1.006,1.006,0,0,1,0-2.012h1a1.006,1.006,0,0,1,0,2.012Z" fill="#5504b0"/>
      </g>
      <circle id="Ellipse_2" data-name="Ellipse 2" cx="7" cy="7" r="7" transform="translate(1045 3379)" fill="#5504b0"/>
    </g>
  </g>
</svg>
