<svg xmlns="http://www.w3.org/2000/svg" width="481.322" height="229.074" viewBox="0 0 481.322 229.074">
  <g id="Group_5454" data-name="Group 5454" transform="translate(-1347 -3421.52)">
    <path id="Path_45405" data-name="Path 45405" d="M-3612.252,4091.689l.483,5.508,15.39,175.6h296.772V4043.72" transform="translate(5043.252 -622.201)" fill="#fbd206"/>
    <g id="problem-solving" transform="translate(1237.435 3264.254)">
      <path id="Path_45356" data-name="Path 45356" d="M301.442,341.34H288.263a.205.205,0,0,1-.205-.205v-5.963a3.855,3.855,0,0,0-2.314.068l-.081.053a6.45,6.45,0,0,1-3.054.673c-2.249,0-4.01-.859-4.01-1.956s1.761-1.957,4.01-1.957a6.516,6.516,0,0,1,3.063.678l.095.063a3.859,3.859,0,0,0,2.291.06v-1.526a.205.205,0,0,1,.41,0v1.653a.206.206,0,0,1-.106.18,4.079,4.079,0,0,1-2.749.015.224.224,0,0,1-.049-.023l-.105-.07a6.1,6.1,0,0,0-2.85-.617c-2.153,0-3.6.8-3.6,1.547s1.446,1.546,3.6,1.546a6.02,6.02,0,0,0,2.849-.618l.116-.068a4.01,4.01,0,0,1,2.789,0,.2.2,0,0,1,.105.179v5.884h12.974a.205.205,0,0,1,0,.41Zm17.817,0H305.688a.205.205,0,0,1,0-.41h13.366V327.089h-8.805a.205.205,0,0,1,0-.41h9.01a.205.205,0,0,1,.205.205v14.251a.205.205,0,0,1-.205.205Z" fill="#5504b0"/>
      <path id="Path_45357" data-name="Path 45357" d="M340.824,334.009c0,.97,1.71,1.75,3.81,1.75a6.293,6.293,0,0,0,2.95-.64l.12-.07a3.954,3.954,0,0,1,2.55-.02v6.11h-31v-6.09a3.832,3.832,0,0,0-2.58,0l-.12.07a6.293,6.293,0,0,1-2.95.64c-2.1,0-3.81-.78-3.81-1.75s1.71-1.75,3.81-1.75a6.3,6.3,0,0,1,2.96.65l.11.07a3.9,3.9,0,0,0,2.58,0v-6.09h13.26c1.17-.45,0-1.19,0-1.19l-.16-.06c-.86-.32-1.4-.81-1.4-1.35,0-.97,1.7-1.75,3.8-1.75s3.81.78,3.81,1.75c0,.55-.55,1.04-1.42,1.36l-.14.05s-1.18.74,0,1.19h13.25v6.1a3.91,3.91,0,0,1-2.55-.01l-.11-.07a6.33,6.33,0,0,0-2.96-.65C342.534,332.259,340.824,333.039,340.824,334.009Z" fill="#5504b0"/>
      <path id="Path_45358" data-name="Path 45358" d="M319.259,355.49h30.994V341.238H337c-1.179-.45,0-1.19,0-1.19l.146-.049c.863-.321,1.415-.812,1.415-1.362,0-.967-1.7-1.75-3.806-1.75s-3.806.784-3.806,1.75c0,.547.546,1.036,1.4,1.357l.158.054s1.179.74,0,1.19h-13.25Z" fill="none"/>
      <path id="Path_45359" data-name="Path 45359" d="M319.254,341.239v14.25h-13.31c-1.08-.45.06-1.16.06-1.16l.15-.05c.86-.32,1.41-.81,1.41-1.36,0-.97-1.7-1.75-3.8-1.75s-3.81.78-3.81,1.75c0,.55.55,1.03,1.4,1.36l.16.05s1.13.71.07,1.16h-13.32V349.4a3.925,3.925,0,0,0-2.59,0l-.11.07a6.3,6.3,0,0,1-2.95.64c-2.11,0-3.81-.78-3.81-1.75s1.7-1.75,3.81-1.75a6.206,6.206,0,0,1,2.96.66l.1.06a3.925,3.925,0,0,0,2.59,0v-6.09h13.25l.1-.04c.95.45-.14,1.13-.14,1.13l-.14.05c-.86.32-1.41.81-1.41,1.36,0,.97,1.7,1.75,3.8,1.75s3.81-.78,3.81-1.75c0-.55-.55-1.04-1.4-1.36l-.16-.05s-1.11-.7-.1-1.15l.13.06Zm48.646-.06c-1.015.45.1,1.147.1,1.147l.157.056c.858.319,1.4.808,1.4,1.356,0,.967-1.7,1.75-3.806,1.75s-3.806-.783-3.806-1.75c0-.55.55-1.042,1.414-1.361l.145-.05s1.087-.678.133-1.131l-.1.042h-13.25v6.094a3.9,3.9,0,0,1-2.587,0l-.106-.067a6.23,6.23,0,0,0-2.962-.651c-2.1,0-3.806.784-3.806,1.75s1.7,1.75,3.806,1.75a6.247,6.247,0,0,0,2.951-.645l.117-.073a3.9,3.9,0,0,1,2.587,0v6.093h30.994V341.238H368.031Z" fill="#5504b0"/>
      <path id="Path_45360" data-name="Path 45360" d="M319.254,369.974h-30.99a.205.205,0,0,1-.205-.205v-5.963a3.887,3.887,0,0,0-2.32.067l-.065.049a6.52,6.52,0,0,1-3.06.672c-2.251,0-4.015-.859-4.015-1.955s1.764-1.955,4.015-1.955a6.522,6.522,0,0,1,3.06.677l.091.062a3.862,3.862,0,0,0,2.294.06v-5.963a.205.205,0,0,1,.205-.205h13.21a.222.222,0,0,1,.28.1.191.191,0,0,1-.08.26l-.05.021a.442.442,0,0,1-.11.029H288.469v5.885a.206.206,0,0,1-.106.18,4.083,4.083,0,0,1-2.753.015.177.177,0,0,1-.052-.026l-.1-.069a6.124,6.124,0,0,0-2.843-.613c-2.157,0-3.605.8-3.605,1.545s1.448,1.545,3.605,1.545a6.112,6.112,0,0,0,2.85-.613l.1-.064a4.058,4.058,0,0,1,2.8-.007.206.206,0,0,1,.106.18v5.885h30.58v-13.84H306a.218.218,0,0,1-.09-.02l-.062-.03a.205.205,0,0,1,.184-.367l.016.008h13.2a.2.2,0,0,1,.205.205v14.25a.2.2,0,0,1-.205.205Z" fill="#5504b0"/>
      <path id="Path_45361" data-name="Path 45361" d="M340.824,362.669c0,.97,1.71,1.76,3.81,1.76a6.289,6.289,0,0,0,2.95-.65l.12-.07a3.917,3.917,0,0,1,2.55-.01v6.07h-31v-6.09a3.9,3.9,0,0,0-2.58,0l-.12.07a6.292,6.292,0,0,1-2.95.64c-2.1,0-3.81-.78-3.81-1.75s1.71-1.75,3.81-1.75a6.3,6.3,0,0,1,2.96.65l.11.07a3.9,3.9,0,0,0,2.58,0v-6.09h13.26c1.17-.45,0-1.19,0-1.19l-.16-.05c-.86-.33-1.4-.81-1.4-1.36,0-.97,1.7-1.75,3.8-1.75s3.81.78,3.81,1.75c0,.55-.55,1.04-1.42,1.36l-.14.05s-1.18.74,0,1.19h13.25v6.13a3.918,3.918,0,0,1-2.55-.01l-.11-.06a6.177,6.177,0,0,0-2.96-.66C342.534,360.919,340.824,361.709,340.824,362.669Z" fill="#5504b0"/>
      <path id="Path_45362" data-name="Path 45362" d="M381.284,370h-31a.205.205,0,0,1-.205-.205v-6a.2.2,0,0,1-.029-.105.2.2,0,0,1,.2-.2.3.3,0,0,1,.171.066.207.207,0,0,1,.064.148v5.885h30.59v-13.84h-30.59v5.885a.207.207,0,0,1-.064.148.3.3,0,0,1-.171.066.205.205,0,0,1-.175-.313v-5.992a.205.205,0,0,1,.205-.205h31a.205.205,0,0,1,.205.205V369.8a.205.205,0,0,1-.205.205Zm-17.82-28.66h-13.17a.2.2,0,0,1-.205-.205v-5.96a3.962,3.962,0,0,0-2.319.064l-.082.053a6.523,6.523,0,0,1-3.053.668c-2.251,0-4.015-.859-4.015-1.955s1.764-1.955,4.015-1.955a6.523,6.523,0,0,1,3.06.677l.119.074h0a3.905,3.905,0,0,0,2.276.038v-5.954a.2.2,0,0,1,.205-.205h9.43a.205.205,0,0,1,0,.41H350.5v5.885a.205.205,0,0,1-.108.181.313.313,0,0,1-.062.022,4.092,4.092,0,0,1-2.69-.009l-.154-.091a6.115,6.115,0,0,0-2.851-.618c-1.954,0-3.605.707-3.605,1.545s1.651,1.545,3.605,1.545a6.112,6.112,0,0,0,2.85-.613l.116-.068a4.116,4.116,0,0,1,2.745-.027.183.183,0,0,1,.039.021.2.2,0,0,1,.115.184v5.885h12.965a.205.205,0,0,1,0,.41Zm17.044,0h-12.8a.205.205,0,0,1,0-.41h12.8a.205.205,0,0,1,0,.41ZM315.7,312.032c5.2-.158,10.406-.226,15.609-.342l15.61-.2c10.406-.115,20.813-.1,31.219-.163,10.406.055,20.813.049,31.219.161l15.609.2c5.2.116,10.406.185,15.61.344-5.2.159-10.406.227-15.61.343l-15.609.2c-10.406.112-20.813.106-31.219.161-10.406-.059-20.813-.048-31.219-.163l-15.61-.2C326.1,312.258,320.9,312.19,315.7,312.032Zm-88.419-85.906a50.52,50.52,0,0,1-6.823-.5.5.5,0,0,1-.183-.062c-1.089-.63-6.556-3.847-7.259-5.254a6.687,6.687,0,0,0-3.494-2.2c-2.64-.862-7.063-1.229-13.149,1.912a.5.5,0,0,1-.727-.5c.05-.44,1.312-10.794,9.625-12.872.092-.015,2.96-.452,4.515-6.2,1.671-6.183,4.858-8.221,7.185-9.708l.258-.166c2.127-1.367,4.655-7.242,5.156-10.913.55-4.033,6.9-14.535,18.619-15.4,10-.733,23.359,6.413,25.141,10.824a2.182,2.182,0,0,1-.52,2.627,94.984,94.984,0,0,1-21.9,20.776v15.2a10.518,10.518,0,0,1-3.1,8.229C237.795,224.72,233.319,226.126,227.278,226.126Zm-6.589-1.482c9.2,1.247,15.668.091,19.235-3.435a9.66,9.66,0,0,0,2.8-7.455l0-15.532a.5.5,0,0,1,.22-.414,93.613,93.613,0,0,0,21.9-20.726.473.473,0,0,1,.089-.1,1.176,1.176,0,0,0,.283-1.528c-1.644-4.067-14.687-10.893-24.141-10.2-11,.809-17.2,10.853-17.7,14.534-.477,3.5-2.956,9.916-5.606,11.62l-.26.166c-2.312,1.479-5.188,3.318-6.758,9.128-1.751,6.478-5.163,6.91-5.307,6.925-6.181,1.55-8.131,8.511-8.644,11.063,5.941-2.822,10.342-2.412,13.032-1.536a7.448,7.448,0,0,1,4.079,2.7c.436.872,4.353,3.375,6.781,4.786ZM257.913,311.4l-.013.01c-.119.209-.23.415-.353.625Z" fill="#5504b0"/>
      <path id="Path_45363" data-name="Path 45363" d="M289.714,268.759c-1.26-1.76-2.01-14.63-2.01-14.63-1.77-30.52-23.62-35.48-23.62-35.48a6.406,6.406,0,0,1-1.1,1.05c-4.42,3.28-13.12,1.77-13.12,1.77s-4.03,1.26-5.42,6.81,1.01,21.69-2.27,20.81-10.61-.77-11.17-23.47c0,0,.01-.08.04-.22a41.532,41.532,0,0,1-10.52-.27s-6.39-3.7-7.06-5.05-6.9-5.88-17.32-.5c0,0-10.59.97-21.82,13.2s-23.08,35.73-25.6,80.79l8.72,2.57c.04-4.7.29-9.39.67-14.07a149.762,149.762,0,0,1,2.74-18.94c1.39-6.2,3.1-12.48,6.37-17.98a49.911,49.911,0,0,0-3.24,8.93c-.85,3.05-1.52,6.15-2.08,9.26-1.1,6.24-1.87,12.54-2.4,18.85-.55,6.32-.85,12.66-.96,19-.05,3.17-.02,6.34.15,9.51.07,1.58.16,3.16.36,4.73a22.852,22.852,0,0,0,.4,2.34,7.353,7.353,0,0,0,.34,1.13,4.1,4.1,0,0,0,.3.59l.05.05a1.719,1.719,0,0,0,.35.27s30.54-12.16,52.46-22.87c-.05-2.51-.02-5.01-.03-7.5l-.11-7.49c-.19-4.99-.33-9.97-.78-14.93-.36-4.96-.96-9.91-1.78-14.82q-.6-3.675-1.49-7.31a48.66,48.66,0,0,0-2.2-7.14,56.086,56.086,0,0,1,4.75,14.25c.56,2.45.93,4.94,1.32,7.42.3,2.49.62,4.99.8,7.49.22,2.5.31,5.01.41,7.51.08,2.51.07,5.02.05,7.52l-.29,7.51c-.22,2.5-.39,5-.65,7.49,0,0,2.32,3.74,26.79-.88,0,0,17.67-4.06,18.16-4.65,10.96-19.18,6.18-33.06,6.18-33.06a69.206,69.206,0,0,1-1-7.28c-.24-2.44-.35-4.88-.41-7.33-.04-2.45,0-4.9.19-7.35a32.61,32.61,0,0,1,1.22-7.27c-.16,2.45-.14,4.87-.13,7.3.03,2.43.06,4.86.12,7.29.07,4.87.19,9.73.01,14.64C270.734,279.609,289.714,268.759,289.714,268.759Zm-88.65-23.69a8.306,8.306,0,0,0-1.18-1.19l-1.25-1.09c-.44-.34-.92-.62-1.38-.93a16.647,16.647,0,0,0-6.12-2.37,22.839,22.839,0,0,0-6.61-.25,30.692,30.692,0,0,0-6.54,1.36,23.024,23.024,0,0,1,6.48-1.9,22.152,22.152,0,0,1,6.8.1,16.235,16.235,0,0,1,6.29,2.62,16.891,16.891,0,0,1,4.64,4.89Z" fill="#5504b0"/>
      <path id="Path_45364" data-name="Path 45364" d="M231.046,225.4l2.307-.457c.746-.238,1.5-.439,2.228-.716a13.821,13.821,0,0,0,3.971-2.35,9.922,9.922,0,0,0,2.589-3.715,9.685,9.685,0,0,0,.649-4.416c0-.016,0-.038,0-.054-.116-5.157-.146-10.313-.224-15.47a.641.641,0,0,1,.266-.53l.025-.018c2.052-1.463,4.082-2.956,6.009-4.579,1.952-1.591,3.807-3.3,5.63-5.032s3.577-3.544,5.259-5.412a73.337,73.337,0,0,0,4.753-5.807.686.686,0,0,1,.064-.076l.1-.1a.746.746,0,0,0,.269-.525,1.851,1.851,0,0,0-.269-.842,8.227,8.227,0,0,0-1.607-1.855,25.222,25.222,0,0,0-4.391-3.011,41.523,41.523,0,0,0-10.05-3.923,28.751,28.751,0,0,0-5.286-.812,16.363,16.363,0,0,0-2.634.065,16.736,16.736,0,0,0-2.6.433,19.321,19.321,0,0,0-2.518.774,20.6,20.6,0,0,0-2.372,1.161,19.646,19.646,0,0,0-4.227,3.192,22.64,22.64,0,0,0-3.358,4.126,12.736,12.736,0,0,0-1.972,4.775,24.57,24.57,0,0,1-1.7,5.468,18.45,18.45,0,0,1-2.982,4.946c-.171.187-.371.361-.556.54-.209.158-.451.347-.645.467l-1.156.733a14.034,14.034,0,0,0-2.084,1.634,12.946,12.946,0,0,0-2.923,4.374,23.267,23.267,0,0,0-.891,2.557,17,17,0,0,1-1.029,2.668A9.917,9.917,0,0,1,208.031,206a4.9,4.9,0,0,1-2.6,1.521l.053-.01a10.546,10.546,0,0,0-3.587,1.64,12.523,12.523,0,0,0-2.773,2.886,18.874,18.874,0,0,0-1.871,3.6,20.072,20.072,0,0,0-1.111,3.938,20.187,20.187,0,0,1,.891-4.017,17.635,17.635,0,0,1,1.734-3.76,13.04,13.04,0,0,1,2.766-3.13,11.232,11.232,0,0,1,3.763-1.913l.054-.01a4.232,4.232,0,0,0,2.03-1.36,9.236,9.236,0,0,0,1.4-2.213,15.966,15.966,0,0,0,.9-2.523,24.409,24.409,0,0,1,.864-2.7,14.173,14.173,0,0,1,3.078-4.859,15.361,15.361,0,0,1,2.225-1.843l1.166-.782c.2-.129.309-.238.469-.357.141-.148.289-.28.426-.438a17.128,17.128,0,0,0,2.587-4.589,25.314,25.314,0,0,0,1.484-5.13,11.158,11.158,0,0,1,.311-1.46,10.974,10.974,0,0,1,.511-1.395,19.554,19.554,0,0,1,1.344-2.57,24.4,24.4,0,0,1,3.585-4.484,21.455,21.455,0,0,1,4.565-3.508,22.435,22.435,0,0,1,2.593-1.295,21.236,21.236,0,0,1,2.768-.88,18.671,18.671,0,0,1,2.861-.5,18.308,18.308,0,0,1,2.9-.1,30.7,30.7,0,0,1,5.666.818,41.546,41.546,0,0,1,10.525,4.179,27.032,27.032,0,0,1,4.705,3.295,9.917,9.917,0,0,1,1.971,2.351,3.584,3.584,0,0,1,.487,1.791,2.608,2.608,0,0,1-.937,1.872L266,177.9a74.791,74.791,0,0,1-4.939,5.936c-1.731,1.889-3.524,3.72-5.4,5.463s-3.824,3.4-5.843,4.98c-2,1.6-4.1,3.062-6.222,4.492l.291-.547c-.077,5.156-.108,10.313-.224,15.47l0-.053a10.394,10.394,0,0,1-.893,4.782,10.5,10.5,0,0,1-2.9,3.819,13.721,13.721,0,0,1-4.191,2.239c-.752.24-1.529.4-2.29.6Z" fill="#5504b0"/>
      <path id="Path_45365" data-name="Path 45365" d="M265.253,177.441c0,.1-.133.23-.214.365l-.274.391-.559.774c-.371.518-.77,1.013-1.157,1.518-.792,1-1.6,1.983-2.431,2.946-1.656,1.936-3.421,3.779-5.247,5.558s-3.7,3.517-5.695,5.112c-1.964,1.632-4.033,3.135-6.123,4.605l.26-.488c.009,2.578.055,5.156.033,7.735l-.042,7.735,0-.071a10.427,10.427,0,0,1-.881,4.863,10.671,10.671,0,0,1-2.936,3.895,14.138,14.138,0,0,1-4.241,2.292c-.759.251-1.541.422-2.309.627l-2.353.37.232-.215-.045.221,0-.057.141,3.683c.077,1.225.2,2.447.3,3.672a39.684,39.684,0,0,0,1.489,7.185,14.2,14.2,0,0,0,3.574,6.205,8.146,8.146,0,0,0,3.063,1.732,16.862,16.862,0,0,0,1.756.437l.461.1.229.051a.622.622,0,0,1,.127.009c.142-.005.255-.09.391-.277a8.752,8.752,0,0,0,.631-3.374c.052-1.212.052-2.436.039-3.662-.03-2.454-.128-4.917-.134-7.4,0-1.241.032-2.487.141-3.748a12.9,12.9,0,0,1,.848-3.774,9.7,9.7,0,0,1,5.325-5.681.522.522,0,0,1,.266-.033l.072.01a30.6,30.6,0,0,0,6.761.215,11.1,11.1,0,0,0,6.078-2.1,7.444,7.444,0,0,0,1.877-2.552,15.918,15.918,0,0,0,1.13-3.139,31.58,31.58,0,0,0,.956-6.727.665.665,0,0,1,.457-.609l.014,0a1.417,1.417,0,0,0,1.157-1.4,5.348,5.348,0,0,0-.416-2.358l-.013-.032a.549.549,0,0,1-.034-.26l.74-6.328a35.29,35.29,0,0,0,.467-6.26,23.329,23.329,0,0,0-1.18-6.143,26.566,26.566,0,0,0-1.2-2.919c-.236-.471-.479-.94-.743-1.4l-.408-.678-.215-.333-.112-.163-.056-.081C265.245,177.484,265.255,177.47,265.253,177.441Zm0-.14a22.805,22.805,0,0,1,4.669,11.856,36.14,36.14,0,0,1-.241,6.426l-.573,6.332-.046-.292a7.719,7.719,0,0,1,.45,1.411,5.161,5.161,0,0,1,.12,1.523,2.649,2.649,0,0,1-2.034,2.52l.471-.613a30.765,30.765,0,0,1-.867,7.073,17.319,17.319,0,0,1-1.214,3.415,8.848,8.848,0,0,1-2.221,3.022,12.465,12.465,0,0,1-6.873,2.469,28.632,28.632,0,0,1-7.147-.264l.338-.022a7.351,7.351,0,0,0-2.694,1.891,9.423,9.423,0,0,0-1.807,2.912c-.916,2.14-.91,4.592-.989,7.037-.048,2.447,0,4.911-.027,7.386-.012,1.238-.041,2.479-.141,3.727-.057.625-.119,1.251-.236,1.882a5.389,5.389,0,0,1-.663,1.912,1.371,1.371,0,0,1-1.12.631c-.111-.01-.223-.025-.332-.044l-.22-.057-.437-.114a18.627,18.627,0,0,1-1.814-.514,8.853,8.853,0,0,1-3.264-1.972,15.548,15.548,0,0,1-3.6-6.529,42.933,42.933,0,0,1-1.45-7.282c-.117-1.23-.26-2.459-.355-3.691l-.194-3.7a.21.21,0,0,1,0-.049l0-.008.043-.226a.266.266,0,0,1,.213-.212l.02,0,2.289-.413c.738-.228,1.489-.419,2.208-.685a13.389,13.389,0,0,0,3.921-2.3,9.672,9.672,0,0,0,3.216-7.974l0-.031,0-.041-.042-7.735c-.022-2.578.024-5.157.033-7.735a.6.6,0,0,1,.26-.489c2.081-1.423,4.144-2.878,6.108-4.466,1.977-1.568,3.912-3.195,5.778-4.9s3.656-3.5,5.412-5.318c.877-.913,1.728-1.851,2.567-2.8C263.61,179.276,264.361,178.359,265.25,177.3Z" fill="#5504b0"/>
      <path id="Path_45366" data-name="Path 45366" d="M251.488,191.916a21.36,21.36,0,0,1,5.912-.123,17.185,17.185,0,0,1,5.708,1.552c-1.946-.355-3.85-.65-5.785-.856S253.454,192.121,251.488,191.916Zm6.7,6.642a1.052,1.052,0,1,0-1.015-1.051,1.052,1.052,0,0,0,1.015,1.051Zm12.99-5.213a22.991,22.991,0,0,0-2.361.079l-2.35.174.265-.178a7.851,7.851,0,0,0-.493,2.214,7.941,7.941,0,0,0,.132,2.277,11.4,11.4,0,0,0,.765,2.2,9.565,9.565,0,0,0,.539,1.042c.214.3.447.7.855.706-.43.1-.775-.288-1.044-.56a6.072,6.072,0,0,1-.724-.991,8.758,8.758,0,0,1-1-2.245,7.4,7.4,0,0,1-.216-2.483,7.285,7.285,0,0,1,.625-2.426l0-.005a.3.3,0,0,1,.262-.172c.8-.023,1.589-.012,2.384.035a11.527,11.527,0,0,1,2.363.338Z" fill="#5504b0"/>
      <path id="Path_45367" data-name="Path 45367" d="M267.963,198.747a1.052,1.052,0,1,0-1.015-1.051,1.052,1.052,0,0,0,1.015,1.051Zm-9.269,11.245,2.209,1.192a13.711,13.711,0,0,0,2.234.959,2.026,2.026,0,0,0,2.039-.17,3.955,3.955,0,0,0,.688-2.233,3.179,3.179,0,0,1-.272,2.587,1.791,1.791,0,0,1-1.3.661,3.9,3.9,0,0,1-1.358-.174,8.784,8.784,0,0,1-2.312-1.162A11.09,11.09,0,0,1,258.694,209.992Zm2.333-7a11.509,11.509,0,0,0,.011,1.64,4.563,4.563,0,0,0,.493,1.512,1.483,1.483,0,0,1-.8-.515,1.736,1.736,0,0,1-.385-.915,1.917,1.917,0,0,1,.684-1.723Zm-17.8,10.7a15.61,15.61,0,0,1,1.746,1.972l.779,1.019a11.142,11.142,0,0,0,.838,1,2.737,2.737,0,0,1-1.227-.618,5.831,5.831,0,0,1-.944-.974,6.419,6.419,0,0,1-1.193-2.4Zm25.3-7.879c.466,2.781.74,5.546,1.091,8.3.174,1.373.346,2.748.594,4.1a20.209,20.209,0,0,0,.456,2,5.5,5.5,0,0,0,.834,1.876,7.387,7.387,0,0,1-2.048-3.7,27.084,27.084,0,0,1-.827-4.157,36.839,36.839,0,0,1-.1-8.42ZM151.781,314.473a42.914,42.914,0,0,1-.341,5.813,42.414,42.414,0,0,1-1.036,5.73,42.417,42.417,0,0,1,.341-5.813,42.918,42.918,0,0,1,1.036-5.73Zm6.37,12.891q-4.739-.5-9.462-1.112l.242-.121a84.652,84.652,0,0,0-3.478,8.209c-1.008,2.8-1.936,5.63-2.757,8.493-.785,2.872-1.529,5.758-2.132,8.677-.628,2.915-1.118,5.857-1.594,8.809.259-2.976.6-5.953,1.144-8.9.481-2.956,1.189-5.87,1.958-8.764a87.561,87.561,0,0,1,2.769-8.548,65.168,65.168,0,0,1,3.673-8.21.238.238,0,0,1,.242-.121Q153.461,326.523,158.152,327.364Zm4.213,12.213a53.056,53.056,0,0,0,2.059,7.914,35.218,35.218,0,0,0,3.353,7.408,28.273,28.273,0,0,0,5.135,6.234,30.217,30.217,0,0,0,6.662,4.536,28.782,28.782,0,0,0,15.675,2.692c.663-.1,1.338-.12,1.99-.285l1.966-.427,3.943-1.082c2.62-.759,5.229-1.555,7.819-2.41q7.765-2.578,15.353-5.658c5.054-2.059,10.02-4.328,14.954-6.667s9.787-4.854,14.588-7.464c4.812-2.591,9.543-5.334,14.23-8.148l-.022.015a29.147,29.147,0,0,1,9.772-4.124,37.868,37.868,0,0,1,10.549-.924,41.327,41.327,0,0,1,10.425,1.87,19.348,19.348,0,0,0,2.516.66,5.855,5.855,0,0,0,2.493-.135,2.673,2.673,0,0,0,1.708-1.555,5.6,5.6,0,0,0,.279-2.453v-.01a.341.341,0,0,1,.1-.25,13.7,13.7,0,0,0,1.542-1.84,9.768,9.768,0,0,0,1.149-2.087,5.686,5.686,0,0,0,.441-2.257,4.245,4.245,0,0,0-.711-2.1.4.4,0,0,1,.117-.556l.038-.022a12.572,12.572,0,0,0,2.8-1.941,6.164,6.164,0,0,0,1.824-2.711,4.776,4.776,0,0,0,.139-.778c-.011-.271.014-.5-.024-.816-.055-.594-.091-1.19-.119-1.788a19.456,19.456,0,0,1,.127-3.65.394.394,0,0,1,.1-.207l.032-.036a18.92,18.92,0,0,0,4.376-7.69,9.089,9.089,0,0,0,.132-4.3,4,4,0,0,0-.291-1.03,9.889,9.889,0,0,0-.41-.991,7.658,7.658,0,0,0-1.186-1.709,3.539,3.539,0,0,0-3.636-.729,3.493,3.493,0,0,0-1.534,1.153,17.683,17.683,0,0,0-1.166,1.871,44.693,44.693,0,0,0-1.965,4.1,6.888,6.888,0,0,1-3.407,3.622,8.817,8.817,0,0,1-4.885.591,11.785,11.785,0,0,1-4.593-1.582,12.7,12.7,0,0,1-5.685-7.646c-.1-.393-.167-.8-.251-1.2l-.135-1.215-.159-2.277c-.126-1.515-.291-3.025-.535-4.512a21.412,21.412,0,0,0-1.086-4.3,4.423,4.423,0,0,0-1.02-1.646,1,1,0,0,0-1.3-.059l-.216.082a2.234,2.234,0,0,0-.369.176,4.1,4.1,0,0,0-.44.3,6.556,6.556,0,0,0-.807.8,10.767,10.767,0,0,0-1.289,2A20.792,20.792,0,0,0,281.916,287a43.377,43.377,0,0,0-.827,4.957c-.166.871-.278,1.757-.5,2.615l-.4,1.268a7.038,7.038,0,0,1-.473,1.24,23.051,23.051,0,0,1-6.388,8.26,34.229,34.229,0,0,1-8.882,5.393.472.472,0,0,1-.05.017c-8.473,2.261-17,4.268-25.616,5.881-4.309.794-8.642,1.49-13.015,1.862a54.574,54.574,0,0,1-6.579.209c-.549-.016-1.1-.049-1.645-.117a13.986,13.986,0,0,1-1.633-.246,6.039,6.039,0,0,1-3-1.349.07.07,0,0,1,0-.1.073.073,0,0,1,.1,0,5.884,5.884,0,0,0,2.942,1.225,13.724,13.724,0,0,0,1.615.2c.541.053,1.084.072,1.629.073a54.242,54.242,0,0,0,6.522-.38c4.334-.506,8.638-1.26,12.923-2.105,8.562-1.729,17.053-3.855,25.454-6.224l-.049.016a33.132,33.132,0,0,0,8.465-5.31,21.737,21.737,0,0,0,5.917-7.856,6.193,6.193,0,0,0,.434-1.146l.372-1.169c.2-.791.3-1.606.453-2.408a44.776,44.776,0,0,1,.844-5.131,22.176,22.176,0,0,1,1.7-4.991,12.16,12.16,0,0,1,1.473-2.291,7.95,7.95,0,0,1,1.012-1,4.075,4.075,0,0,1,1.416-.758l-.216.081a2.848,2.848,0,0,1,1.484-.4,2.418,2.418,0,0,1,1.481.61,5.724,5.724,0,0,1,1.428,2.2,22.734,22.734,0,0,1,1.185,4.607c.257,1.542.429,3.085.561,4.628q.1,1.158.166,2.315l.113,1.073c.074.352.125.709.216,1.058a11.257,11.257,0,0,0,4.987,6.8,10.38,10.38,0,0,0,4.041,1.419,7.474,7.474,0,0,0,4.139-.45,5.532,5.532,0,0,0,2.761-2.929,45.942,45.942,0,0,1,2.044-4.189,18.593,18.593,0,0,1,1.284-2.023,4.719,4.719,0,0,1,7.029-.525,9.7,9.7,0,0,1,1.978,9.195,19.9,19.9,0,0,1-4.747,8.1l.13-.242a19.007,19.007,0,0,0-.155,3.418c.02.582.046,1.165.093,1.748a9.521,9.521,0,0,1,.013.954,5.617,5.617,0,0,1-.183.959,7,7,0,0,1-2.106,3.077,13.338,13.338,0,0,1-3.032,2.037l.155-.577a5,5,0,0,1,.816,2.525,6.4,6.4,0,0,1-.529,2.549A10.454,10.454,0,0,1,310,327.866a14.3,14.3,0,0,1-1.655,1.916l.1-.26a6.181,6.181,0,0,1-.364,2.742,3.267,3.267,0,0,1-2.092,1.856,6.381,6.381,0,0,1-2.741.117,20.174,20.174,0,0,1-2.585-.691,40.85,40.85,0,0,0-10.3-1.905,35.207,35.207,0,0,0-10.42.906,28.738,28.738,0,0,0-9.559,4.1l-.016.011-.007,0c-9.338,5.71-18.806,11.239-28.63,16.109a215.02,215.02,0,0,1-30.393,12.534c-2.611.842-5.24,1.625-7.88,2.37l-3.977,1.063-2.046.431c-.678.165-1.381.184-2.07.282a28.04,28.04,0,0,1-8.321-.312,30.775,30.775,0,0,1-7.876-2.666,29.052,29.052,0,0,1-11.913-11.27,35.714,35.714,0,0,1-3.188-7.6,53.3,53.3,0,0,1-1.844-8.01.07.07,0,0,1,.059-.079A.073.073,0,0,1,162.364,339.577Z" fill="#5504b0"/>
      <path id="Path_45368" data-name="Path 45368" d="M308.635,312.649a20.846,20.846,0,0,0,3.74-1.555,9.41,9.41,0,0,0,3.063-2.447l.007-.009a.351.351,0,1,1,.561.422l-.02.024a9.9,9.9,0,0,1-3.457,2.325A21.008,21.008,0,0,1,308.635,312.649Zm-44.864-16.636c.358,1.031.77,2.03,1.193,3.015a30.176,30.176,0,0,0,1.436,2.861,20.188,20.188,0,0,0,1.815,2.611,15.712,15.712,0,0,0,2.337,2.2,8.954,8.954,0,0,1-2.737-1.831,13.316,13.316,0,0,1-2.02-2.632,15.755,15.755,0,0,1-2.024-6.227Zm24.553-26.483c.68,1.25,1.32,2.51,1.99,3.76l-.41.16C289.354,272.149,288.824,270.849,288.324,269.529Zm17.64,32.69a5.929,5.929,0,0,1-1.71-1.6c-.49-.6-.95-1.24-1.4-1.88-.52-.77-1.01-1.55-1.49-2.34l.61-.25c.42.78.85,1.56,1.3,2.33.38.67.77,1.34,1.19,1.99a6.8,6.8,0,0,0,1.5,1.75Zm138.089-54.258a24.452,24.452,0,0,0-3.126-8.078,5.58,5.58,0,0,0-3.006-2.645,9.011,9.011,0,0,0-4.111-.059c-1.413.232-2.831.614-4.3.891a14.129,14.129,0,0,1-2.279.28,4.768,4.768,0,0,1-2.432-.5,4.31,4.31,0,0,1-1.787-1.793,7.547,7.547,0,0,1-.744-2.264c-.068-.367-.117-.771-.179-1.057a3.047,3.047,0,0,0-.369-.833,8.765,8.765,0,0,0-1.278-1.606l.353-.9a.027.027,0,0,0-.041,0c.006,0,.044-.025.065-.035a1.207,1.207,0,0,0,.187-.125,4.823,4.823,0,0,0,.415-.365c.276-.266.546-.558.808-.858.525-.6,1.032-1.23,1.518-1.864l.567.554a1.543,1.543,0,0,1-.281.125l-.2.037c-.133.025-.24.024-.361.037-.229.011-.454.016-.675.013-.443,0-.88-.023-1.316-.049-.872-.05-1.736-.13-2.6-.211a.279.279,0,0,1-.234-.175,9.922,9.922,0,0,0-.455-1.032c-.17-.316-.372-.685-.6-.774-.676-.259-1.461-.428-2.2-.635a20.485,20.485,0,0,1-2.272-.694.856.856,0,0,1-.442-.581,1.686,1.686,0,0,1,0-.662,4.873,4.873,0,0,1,.376-1.156,27.808,27.808,0,0,1,2.423-4.014,7.423,7.423,0,0,0,1.015-1.986,4.14,4.14,0,0,0,.171-2.085l.011.033a18.129,18.129,0,0,1-1-3.9,34.172,34.172,0,0,1-.378-3.976,62.324,62.324,0,0,1,.191-7.959.643.643,0,0,1,1.239-.179l.011.029a42.442,42.442,0,0,0,2.757,5.679,32,32,0,0,0,3.639,5.107,14.433,14.433,0,0,0,4.792,3.708,7.989,7.989,0,0,0,5.77.3l-.452.541a12.382,12.382,0,0,1,.772-2.605,5.762,5.762,0,0,1,1.647-2.322,5.234,5.234,0,0,1,.679-.4,5.131,5.131,0,0,1,.782-.2,5.373,5.373,0,0,1,.79.031,3.432,3.432,0,0,1,.72.212,2.248,2.248,0,0,1,.648.314l.6.37c.351.288.687.59,1.025.888a.433.433,0,0,1,.113.161,26.122,26.122,0,0,1,1.1,3.428,15.528,15.528,0,0,1,.5,3.576,4.581,4.581,0,0,1-1.2,3.43,4.093,4.093,0,0,1-3.475.688.07.07,0,0,1-.058-.081.071.071,0,0,1,.076-.058,3.939,3.939,0,0,0,3.17-.849,4.13,4.13,0,0,0,.834-3.114,14.811,14.811,0,0,0-.648-3.373,25.269,25.269,0,0,0-1.222-3.232l.113.16-.943-.752-.5-.286a1.5,1.5,0,0,0-.505-.227,1.727,1.727,0,0,0-1.854.254,4.607,4.607,0,0,0-1.208,1.87,11.158,11.158,0,0,0-.611,2.318.683.683,0,0,1-.443.539l-.009,0a9.211,9.211,0,0,1-6.784-.233,15.144,15.144,0,0,1-5.327-4.068,30.62,30.62,0,0,1-3.745-5.4,43.673,43.673,0,0,1-2.751-5.935l1.25-.151a68.829,68.829,0,0,0-.4,7.792,38.867,38.867,0,0,0,.2,3.885,16.822,16.822,0,0,0,.78,3.759l.009.026,0,.008a6.083,6.083,0,0,1-1.446,4.58,25.983,25.983,0,0,0-2.443,3.892,4.464,4.464,0,0,0-.359,1.041c-.072.351-.03.682.217.8a19.045,19.045,0,0,0,2.174.638c.755.2,1.489.357,2.273.621a2.087,2.087,0,0,1,.867.971,10.454,10.454,0,0,1,.515,1.079l-.234-.175c.859.051,1.724.077,2.582.086.43,0,.858,0,1.281-.017.212-.008.42-.023.622-.043.094-.015.2-.022.283-.043l.121-.028c.014-.01.006-.01.018,0l.515.313a.17.17,0,0,1,.057.234l-.005.008c-.468.68-.947,1.341-1.463,1.989-.257.324-.524.644-.817.956a5.783,5.783,0,0,1-.478.462,2.169,2.169,0,0,1-.308.227,1.054,1.054,0,0,1-.538.184l.353-.9a9.793,9.793,0,0,1,1.544,1.761,4.053,4.053,0,0,1,.542,1.161c.1.429.144.756.221,1.108a4.259,4.259,0,0,0,1.925,3.172,6.355,6.355,0,0,0,3.922.166c1.42-.238,2.849-.595,4.339-.812a9.271,9.271,0,0,1,4.6.227,5.972,5.972,0,0,1,1.083.527,5.8,5.8,0,0,1,.913.777,6.28,6.28,0,0,1,.732.906c.228.3.417.631.613.953a17.923,17.923,0,0,1,1.738,4.118,23.611,23.611,0,0,1,.874,4.344.07.07,0,0,1-.063.076.073.073,0,0,1-.076-.058Z" fill="#5504b0"/>
      <path id="Path_45369" data-name="Path 45369" d="M471.994,215.159c-1.14-3.28-9.21-12.23-11.6-13.3,0,0-.25-10.03-3.91-12.55,0,0,8.83-7.44-1.26-13.75,0,0-8.71-4.03-8.96,6.94,0,0-20.68-2.27-30.14,14.63,0,0,6.01,18.7,17.78,15.22,0,0,1.18-8.37,6.65-3.45,0,0,4.87,9.92-1.52,11.52a9.815,9.815,0,0,0-.92,6.89c.92,3.87-.6,9.3-.6,9.3s-3.86,13.74,7.49,11.34,29.26-8.57,32.41-21.06C477.414,226.889,473.124,218.439,471.994,215.159Zm-20.06-30.77a7.563,7.563,0,0,1,1.53,1.24,2.73,2.73,0,0,1,.87,1.79,5.207,5.207,0,0,0-1.38-1.2c-.51-.33-1.01-.66-1.54-.97a27.362,27.362,0,0,1-3.13-2.12,8.883,8.883,0,0,1,3.65,1.26Zm6.74,22.22a18.967,18.967,0,0,1-3.74,4.39,25.57,25.57,0,0,1-4.75,3.21,24.373,24.373,0,0,1-5.3,2.09c1.7-.83,3.32-1.78,4.91-2.76a37.455,37.455,0,0,0,4.49-3.29,24.717,24.717,0,0,0,3.73-4.06,17.858,17.858,0,0,0,2.34-5.04,12.882,12.882,0,0,1-1.68,5.46Z" fill="#5504b0"/>
      <path id="Path_45370" data-name="Path 45370" d="M417.639,212.388a5.371,5.371,0,0,1,2.173-1.889,4.788,4.788,0,0,1,1.411-.432,2.863,2.863,0,0,1,1.46.177,9.548,9.548,0,0,0-2.566.885C419.3,211.518,418.521,211.976,417.639,212.388Zm3.153,3.7a1.052,1.052,0,1,0-1.015-1.051,1.052,1.052,0,0,0,1.015,1.051Zm56.626,10.769a44.806,44.806,0,0,1,14.046,3.238,60.428,60.428,0,0,1,12.724,6.868,73.513,73.513,0,0,1,19.48,21.176l1.87,3.093,1.737,3.168c.607,1.042,1.116,2.134,1.652,3.212.516,1.088,1.1,2.143,1.56,3.259.966,2.207,1.949,4.408,2.771,6.675.907,2.235,1.653,4.527,2.414,6.814.4,1.137.735,2.3,1.063,3.455l1,3.475c.606,2.334,1.147,4.69,1.7,7.038l2.279,14.264a.365.365,0,0,1-.282.414l-10.281,2.256-10.3,2.186-10.3,2.186-10.309,2.13a.035.035,0,0,1-.015-.069l10.247-2.41,10.26-2.354L531,314.577l10.275-2.284-.282.413-2.224-14.254c-.533-2.337-1.061-4.676-1.635-7.005l-.943-3.476c-.308-1.161-.622-2.32-1-3.459a105.477,105.477,0,0,0-11.762-26.22,83.358,83.358,0,0,0-8.8-11.371,71.645,71.645,0,0,0-10.782-9.47,59.915,59.915,0,0,0-12.532-6.971,56.9,56.9,0,0,0-6.818-2.278,38.558,38.558,0,0,0-7.076-1.275.035.035,0,0,1-.035-.035A.037.037,0,0,1,477.418,226.856Z" fill="#5504b0"/>
      <path id="Path_45371" data-name="Path 45371" d="M537.59,313.481a30.408,30.408,0,0,1,1.467,4.674,30.052,30.052,0,0,1,.786,4.835,30.057,30.057,0,0,1-1.467-4.674A30.411,30.411,0,0,1,537.59,313.481Zm-63.073-57.835a29.758,29.758,0,0,1,3.242-5.606,28.86,28.86,0,0,1,4.389-4.809,18.884,18.884,0,0,1,5.608-3.343,15.533,15.533,0,0,1,3.19-.73,13.562,13.562,0,0,1,3.244.112,15.021,15.021,0,0,0-6.241,1.121,19.782,19.782,0,0,0-5.348,3.373,32.005,32.005,0,0,0-4.416,4.6A47.286,47.286,0,0,0,474.516,255.645Zm37.582-4.54a18.12,18.12,0,0,1,3.237,3.116A20.649,20.649,0,0,1,517.814,258a17.148,17.148,0,0,1,1.532,4.258,15.035,15.035,0,0,1,.32,4.485c-.138-.741-.138-1.484-.331-2.2l-.209-1.085-.3-1.062a23.088,23.088,0,0,0-1.634-4.075,30.364,30.364,0,0,0-2.279-3.769,34.05,34.05,0,0,0-2.812-3.443Zm-39.536,12.136c-1.036,2.536-2.092,5.063-3.19,7.57s-2.166,5.028-3.315,7.512l-3.394,7.475c-1.148,2.484-2.319,4.957-3.537,7.409l-.18-.681,8.731,6.54c2.917,2.171,5.89,4.262,8.874,6.339s6,4.106,9.012,6.145,6.008,4.1,9,6.161l-.844.089a114.1,114.1,0,0,0,7.43-9.577c2.318-3.314,4.53-6.705,6.515-10.226a83.785,83.785,0,0,0,5.2-10.932,53.3,53.3,0,0,0,2.945-11.752.07.07,0,0,1,.076-.063.073.073,0,0,1,.064.072,45.527,45.527,0,0,1-2.2,12.055,76.5,76.5,0,0,1-4.883,11.286,97.65,97.65,0,0,1-6.509,10.423,109.356,109.356,0,0,1-7.7,9.583.64.64,0,0,1-.845.089c-2.935-2.145-5.875-4.283-8.782-6.469s-5.819-4.363-8.77-6.485-5.9-4.252-8.908-6.291l-9.051-6.09a.534.534,0,0,1-.191-.656l.011-.025c1.095-2.509,2.236-5,3.4-7.473l3.542-7.406c1.163-2.477,2.415-4.912,3.621-7.37s2.47-4.887,3.746-7.311a.07.07,0,0,1,.127.059ZM430.424,237.3q-1.451,8.25-3.091,16.465c-1.1,5.474-2.221,10.946-3.494,16.387-.643,2.716-1.326,5.437-2.173,8.1l-2.563,7.975a62.635,62.635,0,0,0-2.068,8.094,23.365,23.365,0,0,0-.382,4.14,11.383,11.383,0,0,0,.782,4.016l-.352,0a23.724,23.724,0,0,1,5.42-7.367,24.957,24.957,0,0,1,7.724-4.935c.71-.293,1.455-.494,2.181-.745.367-.112.726-.257,1.1-.34l1.129-.232c.755-.138,1.5-.346,2.264-.425l2.294-.2a14.162,14.162,0,0,1,2.3-.041l2.3.063c1.523.146,3.037.386,4.555.575l-.412.426c-1.057-5-1.883-10.037-2.609-15.091a103.287,103.287,0,0,1-1.239-15.252.035.035,0,0,1,.035-.035.035.035,0,0,1,.035.035c.055,2.549.31,5.085.6,7.614s.65,5.052,1.047,7.567.849,5.022,1.326,7.524.982,5,1.506,7.487a.357.357,0,0,1-.276.423.352.352,0,0,1-.115.005l-.021,0c-1.494-.18-2.984-.412-4.479-.551l-2.253-.054a13.688,13.688,0,0,0-2.248.047l-2.243.183c-.746.07-1.473.268-2.211.4l-1.1.216c-.366.077-.716.217-1.075.323-.709.239-1.438.428-2.132.707a25.452,25.452,0,0,0-7.6,4.717,23.3,23.3,0,0,0-5.439,7.108l-.008.016a.189.189,0,0,1-.345-.012,11.709,11.709,0,0,1-.732-4.168,26.626,26.626,0,0,1,.44-4.184,77.179,77.179,0,0,1,2.079-8.123c.813-2.673,1.661-5.333,2.421-8.016.782-2.676,1.386-5.393,1.981-8.12l7.082-32.736a.035.035,0,0,1,.069.013Z" fill="#5504b0"/>
      <path id="Path_45372" data-name="Path 45372" d="M418.285,300.636c.251,1.086.553,2.148.869,3.2a22.546,22.546,0,0,0,1.159,3.049A11.556,11.556,0,0,0,422,309.613a7.378,7.378,0,0,0,2.573,1.943,5.687,5.687,0,0,1-2.972-1.568,9.311,9.311,0,0,1-1.924-2.811,14.538,14.538,0,0,1-1.052-3.208,14.812,14.812,0,0,1-.342-3.333Zm30-11.444a31.192,31.192,0,0,1,4.295,2.484,30.848,30.848,0,0,1,3.9,3.064,30.817,30.817,0,0,1-4.295-2.485,31.191,31.191,0,0,1-3.9-3.064Zm-79.62,43.551a6.807,6.807,0,0,1,1.661-1.269,2.991,2.991,0,0,1,2.1-.368,2.888,2.888,0,0,1,1.685,1.4c.17.321.323.653.462.988l.321,1.03a.351.351,0,1,1-.67.209l-.008-.028-.008-.037-.218-.982c-.1-.314-.215-.627-.342-.93a2.458,2.458,0,0,0-1.32-1.31,2.731,2.731,0,0,0-1.926.19,6.713,6.713,0,0,0-1.737,1.11Zm-8.015.967a48.6,48.6,0,0,0,3.05-4.326,24.289,24.289,0,0,0,1.286-2.316,7.916,7.916,0,0,0,.821-2.51,8,8,0,0,1-.66,2.58,24.517,24.517,0,0,1-1.142,2.42,49.055,49.055,0,0,1-2.794,4.572.351.351,0,1,1-.578-.4l.013-.018Zm-1.526-2.7,6.683-11.219-6.071,11.561a.35.35,0,0,1-.621-.326Zm3.273-9.47,4.419-6.114-3.833,6.5a.351.351,0,0,1-.6-.356Z" fill="#5504b0"/>
      <path id="Path_45373" data-name="Path 45373" d="M164.549,348.39c-8.841,4.61-17.742,9.1-26.614,13.642l-13.351,6.73-13.361,6.711-.5-2.173,14.955-.187L140.629,373l29.91-.161c19.94-.085,39.88-.062,59.82.221l29.91.339,14.955.172,14.955.1c19.94.092,39.88-.04,59.82-.179l59.819-.7,29.91-.261,29.91-.164q59.82-.431,119.64-.018l-.806,2.978-23.663-14.113c-7.9-4.687-15.748-9.456-23.616-14.193l-23.58-14.254L494.1,318.387a.175.175,0,1,1,.177-.3l24.034,13.48,23.964,13.6c7.98,4.546,15.979,9.062,23.929,13.659l23.882,13.74a1.6,1.6,0,0,1-.778,2.978h-.029q-59.819.568-119.64.234l-29.91-.1-29.91-.2L350,374.9c-19.94-.1-39.88-.187-59.82-.053l-14.955.131-14.955.2-29.91.4c-19.94.325-39.88.389-59.82.347l-29.91-.1-14.955-.084-14.955-.155H110.7a1.141,1.141,0,0,1-.476-2.173l13.515-6.4,13.524-6.376c9.045-4.192,18.061-8.442,27.137-12.57a.175.175,0,0,1,.154.315Z" fill="#5504b0"/>
      <path id="Path_45374" data-name="Path 45374" d="M110.72,385.29l59.82-.511,59.82-.294L350,384.241l119.64.241,59.82.294,59.82.514-59.82.514-59.82.3L350,386.34,230.36,386.1l-59.82-.294Z" fill="#5504b0"/>
      <path id="Path_45375" data-name="Path 45375" d="M459.239,293.41a67.263,67.263,0,0,1-12.968,14.916,51.958,51.958,0,0,1-17.09,10.132,45.928,45.928,0,0,1-9.777,2.188,48.078,48.078,0,0,1-5.01.265l-2.488-.078-2.469.008-19.749.077a.721.721,0,0,1-.284-.059c-5.331-2.329-10.667-4.655-16.02-6.921-1.325-.552-2.708-1.152-3.987-1.623l-.215-.075c-.033,0-.016.021-.027.006a1.224,1.224,0,0,0-.3.105,3.891,3.891,0,0,0-.776.5,9.6,9.6,0,0,0-1.445,1.429,14.123,14.123,0,0,0-3.246,7.518.729.729,0,0,1-.11.314c-.605.944-1.2,1.891-1.76,2.853a20.66,20.66,0,0,0-1.439,2.933,6.242,6.242,0,0,0-.365,1.455,2.72,2.72,0,0,0,.237,1.307,33.979,33.979,0,0,1,1.631,3,.737.737,0,0,1,.025.448l0,.006a7.075,7.075,0,0,0-.2,1.945,4.391,4.391,0,0,0,.428,1.812,2.688,2.688,0,0,0,1.22,1.23,4.934,4.934,0,0,0,1.812.513h-.139a18.181,18.181,0,0,0,2.755-.6A15.4,15.4,0,0,0,370.1,338a10.442,10.442,0,0,0,2.271-1.535,6.816,6.816,0,0,0,1.529-2.135.708.708,0,0,1,1.322.081l.005.017a9.818,9.818,0,0,0,2.133,3.714,9.329,9.329,0,0,0,3.548,2.409,12.335,12.335,0,0,0,4.323.633c.74-.017,1.483-.146,2.225-.211l2.205-.492.025-.006a.75.75,0,0,1,.372.013,118.6,118.6,0,0,0,13.454,3.043,137.163,137.163,0,0,0,13.724,1.641,112.444,112.444,0,0,0,27.516-1.352,86.246,86.246,0,0,0,13.281-3.608l3.207-1.247,3.132-1.423c1.069-.424,2.06-1.005,3.088-1.514a33.445,33.445,0,0,0,3.016-1.658,61.59,61.59,0,0,0,11.061-8.214l2.494-2.4c.783-.847,1.539-1.721,2.311-2.581l1.152-1.3,1.049-1.381,2.1-2.766-1.989,2.85-1,1.427-1.1,1.346c-.739.894-1.464,1.8-2.218,2.688l-2.413,2.519a62.428,62.428,0,0,1-10.864,8.766,58.5,58.5,0,0,1-12.548,6.2,87.64,87.64,0,0,1-13.509,3.67,113.828,113.828,0,0,1-27.866,1.372,138.636,138.636,0,0,1-13.864-1.657,119.78,119.78,0,0,1-13.64-3.087l.4.007-2.348.524c-.805.075-1.6.21-2.415.229a13.708,13.708,0,0,1-4.851-.72,10.736,10.736,0,0,1-4.1-2.78,11.113,11.113,0,0,1-2.457-4.317l1.327.1a8.2,8.2,0,0,1-1.871,2.627,11.814,11.814,0,0,1-2.593,1.759,16.764,16.764,0,0,1-2.859,1.115,19.394,19.394,0,0,1-3,.645l-.015,0a.483.483,0,0,1-.125,0,6.309,6.309,0,0,1-2.356-.678,4.1,4.1,0,0,1-1.8-1.82,5.777,5.777,0,0,1-.581-2.4,8.37,8.37,0,0,1,.256-2.383l.023.453c-.374-.992-1.021-1.766-1.608-2.947a4.149,4.149,0,0,1-.356-1.992,7.546,7.546,0,0,1,.446-1.826,21.91,21.91,0,0,1,1.541-3.15c.577-.994,1.185-1.959,1.8-2.918l-.11.314a15.509,15.509,0,0,1,3.569-8.284,10.969,10.969,0,0,1,1.655-1.631,5.207,5.207,0,0,1,1.06-.67,2.481,2.481,0,0,1,.733-.222,2.515,2.515,0,0,1,.517.029l.3.1c1.453.533,2.739,1.1,4.1,1.665,5.367,2.272,10.7,4.6,16.038,6.929l-.284-.059,19.791-.076,2.473-.008,2.452.077a46.694,46.694,0,0,0,4.855-.257,43.456,43.456,0,0,0,9.471-2.132,56.82,56.82,0,0,0,17.013-9.442,69.589,69.589,0,0,0,7.242-6.651A64.664,64.664,0,0,0,459.239,293.41ZM289.917,273.482c-.694.353-1.391.7-2.1,1.011l.111-.257c.45.967.863,1.949,1.271,2.932s.8,1.972,1.148,2.981.675,2.023,1.043,3.022.783,1.98,1.206,2.958c1.757,3.885,3.429,7.8,4.846,11.823l-.374-.162c1.414-.509,2.841-.987,4.283-1.425a.035.035,0,0,1,.026.065q-2.026,1-4.1,1.9a.279.279,0,0,1-.366-.143l-.008-.019c-1.727-3.9-3.2-7.895-4.584-11.927-.363-1-.737-2-1.152-2.979s-.879-1.942-1.314-2.915-.846-1.955-1.209-2.957-.751-1.993-1.087-3.005l-.006-.018a.19.19,0,0,1,.117-.239c.731-.258,1.474-.489,2.22-.709a.035.035,0,0,1,.026.065Zm12.044,22.635c1.982-.84,3.954-1.709,5.945-2.526l5.971-2.46c3.988-1.623,7.981-3.233,12.007-4.761l-.151.349-2.26-5.974-2.3-5.956c-1.572-3.957-3.2-7.89-4.827-11.825l.3.127q-6.124,2.535-12.274,5.006l-.015.006a.3.3,0,0,1-.194.01,1.636,1.636,0,0,1-.7-.344,1.427,1.427,0,0,1-.427-.687,2.123,2.123,0,0,1-.059-.734,2.934,2.934,0,0,1,.141-.694.3.3,0,0,1,.047-.089l.007-.009a2.906,2.906,0,0,0,.622-1.755,2.248,2.248,0,0,0-.728-1.639,3.528,3.528,0,0,0-3.651-.484,3.606,3.606,0,0,0-2.368,2.854,2.326,2.326,0,0,0,.581,1.748,2.935,2.935,0,0,0,1.7.9l.013,0a.189.189,0,0,1,.063.022,2.451,2.451,0,0,1,.985.943,1.3,1.3,0,0,1,.141.73,1.512,1.512,0,0,1-.263.673.2.2,0,0,1-.1.082l-.008,0q-4.895,1.886-9.822,3.687a.035.035,0,0,1-.026-.065q4.819-2.076,9.677-4.053l-.106.085a.846.846,0,0,0,.067-.91,1.974,1.974,0,0,0-.784-.7l.075.025a3.492,3.492,0,0,1-2.042-1.024,2.943,2.943,0,0,1-.791-2.186,4.162,4.162,0,0,1,2.747-3.472,4.236,4.236,0,0,1,4.41.61,2.987,2.987,0,0,1,.97,2.164,3.523,3.523,0,0,1-.779,2.21l.053-.1a1.877,1.877,0,0,0-.078.987.735.735,0,0,0,.592.534l-.209.016q6.168-2.424,12.366-4.774l.006,0a.224.224,0,0,1,.289.13c1.519,3.978,3.031,7.958,4.6,11.915l2.41,5.914,2.455,5.9a.265.265,0,0,1-.143.346h0l-.008,0c-3.978,1.649-7.988,3.216-12,4.769l-6.033,2.3c-2.01.771-4.04,1.491-6.06,2.239a.035.035,0,1,1-.026-.065Zm247.467,54.871-40.041-23.962,33.735-5.3S551.446,331.818,549.428,350.987Z" fill="#5504b0"/>
    </g>
  </g>
</svg>
