<svg xmlns="http://www.w3.org/2000/svg" xmlns:xlink="http://www.w3.org/1999/xlink" width="2669" height="1256" viewBox="0 0 2669 1256">
  <defs>
    <clipPath id="clip-path">
      <rect id="Rectangle_42057" data-name="Rectangle 42057" width="2669" height="1256" transform="translate(0 0.098)" fill="#fbd206"/>
    </clipPath>
    <clipPath id="clip-path-2">
      <rect width="2704.153" height="1311.436" fill="none"/>
    </clipPath>
  </defs>
  <g id="Group_5459" data-name="Group 5459" transform="translate(141 -5580.098)">
    <g id="Group_5458" data-name="Group 5458" transform="translate(-141 5580)">
      <rect id="Rectangle_42056" data-name="Rectangle 42056" width="2669" height="1256" transform="translate(0 0.098)" fill="#fbd206"/>
      <g id="Mask_Group_1" data-name="Mask Group 1" transform="translate(0)" opacity="0.239" clip-path="url(#clip-path)">
        <g id="Repeat_Grid_1" data-name="Repeat Grid 1" transform="translate(-17.577 -36.426)" clip-path="url(#clip-path-2)">
          <g id="Group_5457" data-name="Group 5457" transform="translate(-967.188 -4788)">
            <path id="Path_45407" data-name="Path 45407" d="M1196.675,1131.385,1131.9,1234.878l58.754-2.707v31.9l65.24-107.648-59.215,7.819Z" transform="translate(173.427 3530.5) rotate(13)" fill="#fff"/>
            <circle id="Ellipse_218" data-name="Ellipse 218" cx="38" cy="38" r="38" transform="translate(1168 4797)" fill="#fff"/>
          </g>
          <g id="Group_5457-2" data-name="Group 5457" transform="translate(-661.188 -4788)">
            <path id="Path_45407-2" data-name="Path 45407" d="M1196.675,1131.385,1131.9,1234.878l58.754-2.707v31.9l65.24-107.648-59.215,7.819Z" transform="translate(173.427 3530.5) rotate(13)" fill="#fff"/>
            <circle id="Ellipse_218-2" data-name="Ellipse 218" cx="38" cy="38" r="38" transform="translate(1168 4797)" fill="#fff"/>
          </g>
          <g id="Group_5457-3" data-name="Group 5457" transform="translate(-355.188 -4788)">
            <path id="Path_45407-3" data-name="Path 45407" d="M1196.675,1131.385,1131.9,1234.878l58.754-2.707v31.9l65.24-107.648-59.215,7.819Z" transform="translate(173.427 3530.5) rotate(13)" fill="#fff"/>
            <circle id="Ellipse_218-3" data-name="Ellipse 218" cx="38" cy="38" r="38" transform="translate(1168 4797)" fill="#fff"/>
          </g>
          <g id="Group_5457-4" data-name="Group 5457" transform="translate(-49.188 -4788)">
            <path id="Path_45407-4" data-name="Path 45407" d="M1196.675,1131.385,1131.9,1234.878l58.754-2.707v31.9l65.24-107.648-59.215,7.819Z" transform="translate(173.427 3530.5) rotate(13)" fill="#fff"/>
            <circle id="Ellipse_218-4" data-name="Ellipse 218" cx="38" cy="38" r="38" transform="translate(1168 4797)" fill="#fff"/>
          </g>
          <g id="Group_5457-5" data-name="Group 5457" transform="translate(256.813 -4788)">
            <path id="Path_45407-5" data-name="Path 45407" d="M1196.675,1131.385,1131.9,1234.878l58.754-2.707v31.9l65.24-107.648-59.215,7.819Z" transform="translate(173.427 3530.5) rotate(13)" fill="#fff"/>
            <circle id="Ellipse_218-5" data-name="Ellipse 218" cx="38" cy="38" r="38" transform="translate(1168 4797)" fill="#fff"/>
          </g>
          <g id="Group_5457-6" data-name="Group 5457" transform="translate(562.813 -4788)">
            <path id="Path_45407-6" data-name="Path 45407" d="M1196.675,1131.385,1131.9,1234.878l58.754-2.707v31.9l65.24-107.648-59.215,7.819Z" transform="translate(173.427 3530.5) rotate(13)" fill="#fff"/>
            <circle id="Ellipse_218-6" data-name="Ellipse 218" cx="38" cy="38" r="38" transform="translate(1168 4797)" fill="#fff"/>
          </g>
          <g id="Group_5457-7" data-name="Group 5457" transform="translate(868.813 -4788)">
            <path id="Path_45407-7" data-name="Path 45407" d="M1196.675,1131.385,1131.9,1234.878l58.754-2.707v31.9l65.24-107.648-59.215,7.819Z" transform="translate(173.427 3530.5) rotate(13)" fill="#fff"/>
            <circle id="Ellipse_218-7" data-name="Ellipse 218" cx="38" cy="38" r="38" transform="translate(1168 4797)" fill="#fff"/>
          </g>
          <g id="Group_5457-8" data-name="Group 5457" transform="translate(1174.813 -4788)">
            <path id="Path_45407-8" data-name="Path 45407" d="M1196.675,1131.385,1131.9,1234.878l58.754-2.707v31.9l65.24-107.648-59.215,7.819Z" transform="translate(173.427 3530.5) rotate(13)" fill="#fff"/>
            <circle id="Ellipse_218-8" data-name="Ellipse 218" cx="38" cy="38" r="38" transform="translate(1168 4797)" fill="#fff"/>
          </g>
          <g id="Group_5457-9" data-name="Group 5457" transform="translate(1480.813 -4788)">
            <path id="Path_45407-9" data-name="Path 45407" d="M1196.675,1131.385,1131.9,1234.878l58.754-2.707v31.9l65.24-107.648-59.215,7.819Z" transform="translate(173.427 3530.5) rotate(13)" fill="#fff"/>
            <circle id="Ellipse_218-9" data-name="Ellipse 218" cx="38" cy="38" r="38" transform="translate(1168 4797)" fill="#fff"/>
          </g>
          <g id="Group_5457-10" data-name="Group 5457" transform="translate(-967.188 -4485)">
            <path id="Path_45407-10" data-name="Path 45407" d="M1196.675,1131.385,1131.9,1234.878l58.754-2.707v31.9l65.24-107.648-59.215,7.819Z" transform="translate(173.427 3530.5) rotate(13)" fill="#fff"/>
            <circle id="Ellipse_218-10" data-name="Ellipse 218" cx="38" cy="38" r="38" transform="translate(1168 4797)" fill="#fff"/>
          </g>
          <g id="Group_5457-11" data-name="Group 5457" transform="translate(-661.188 -4485)">
            <path id="Path_45407-11" data-name="Path 45407" d="M1196.675,1131.385,1131.9,1234.878l58.754-2.707v31.9l65.24-107.648-59.215,7.819Z" transform="translate(173.427 3530.5) rotate(13)" fill="#fff"/>
            <circle id="Ellipse_218-11" data-name="Ellipse 218" cx="38" cy="38" r="38" transform="translate(1168 4797)" fill="#fff"/>
          </g>
          <g id="Group_5457-12" data-name="Group 5457" transform="translate(-355.188 -4485)">
            <path id="Path_45407-12" data-name="Path 45407" d="M1196.675,1131.385,1131.9,1234.878l58.754-2.707v31.9l65.24-107.648-59.215,7.819Z" transform="translate(173.427 3530.5) rotate(13)" fill="#fff"/>
            <circle id="Ellipse_218-12" data-name="Ellipse 218" cx="38" cy="38" r="38" transform="translate(1168 4797)" fill="#fff"/>
          </g>
          <g id="Group_5457-13" data-name="Group 5457" transform="translate(-49.188 -4485)">
            <path id="Path_45407-13" data-name="Path 45407" d="M1196.675,1131.385,1131.9,1234.878l58.754-2.707v31.9l65.24-107.648-59.215,7.819Z" transform="translate(173.427 3530.5) rotate(13)" fill="#fff"/>
            <circle id="Ellipse_218-13" data-name="Ellipse 218" cx="38" cy="38" r="38" transform="translate(1168 4797)" fill="#fff"/>
          </g>
          <g id="Group_5457-14" data-name="Group 5457" transform="translate(256.813 -4485)">
            <path id="Path_45407-14" data-name="Path 45407" d="M1196.675,1131.385,1131.9,1234.878l58.754-2.707v31.9l65.24-107.648-59.215,7.819Z" transform="translate(173.427 3530.5) rotate(13)" fill="#fff"/>
            <circle id="Ellipse_218-14" data-name="Ellipse 218" cx="38" cy="38" r="38" transform="translate(1168 4797)" fill="#fff"/>
          </g>
          <g id="Group_5457-15" data-name="Group 5457" transform="translate(562.813 -4485)">
            <path id="Path_45407-15" data-name="Path 45407" d="M1196.675,1131.385,1131.9,1234.878l58.754-2.707v31.9l65.24-107.648-59.215,7.819Z" transform="translate(173.427 3530.5) rotate(13)" fill="#fff"/>
            <circle id="Ellipse_218-15" data-name="Ellipse 218" cx="38" cy="38" r="38" transform="translate(1168 4797)" fill="#fff"/>
          </g>
          <g id="Group_5457-16" data-name="Group 5457" transform="translate(868.813 -4485)">
            <path id="Path_45407-16" data-name="Path 45407" d="M1196.675,1131.385,1131.9,1234.878l58.754-2.707v31.9l65.24-107.648-59.215,7.819Z" transform="translate(173.427 3530.5) rotate(13)" fill="#fff"/>
            <circle id="Ellipse_218-16" data-name="Ellipse 218" cx="38" cy="38" r="38" transform="translate(1168 4797)" fill="#fff"/>
          </g>
          <g id="Group_5457-17" data-name="Group 5457" transform="translate(1174.813 -4485)">
            <path id="Path_45407-17" data-name="Path 45407" d="M1196.675,1131.385,1131.9,1234.878l58.754-2.707v31.9l65.24-107.648-59.215,7.819Z" transform="translate(173.427 3530.5) rotate(13)" fill="#fff"/>
            <circle id="Ellipse_218-17" data-name="Ellipse 218" cx="38" cy="38" r="38" transform="translate(1168 4797)" fill="#fff"/>
          </g>
          <g id="Group_5457-18" data-name="Group 5457" transform="translate(1480.813 -4485)">
            <path id="Path_45407-18" data-name="Path 45407" d="M1196.675,1131.385,1131.9,1234.878l58.754-2.707v31.9l65.24-107.648-59.215,7.819Z" transform="translate(173.427 3530.5) rotate(13)" fill="#fff"/>
            <circle id="Ellipse_218-18" data-name="Ellipse 218" cx="38" cy="38" r="38" transform="translate(1168 4797)" fill="#fff"/>
          </g>
          <g id="Group_5457-19" data-name="Group 5457" transform="translate(-967.188 -4182)">
            <path id="Path_45407-19" data-name="Path 45407" d="M1196.675,1131.385,1131.9,1234.878l58.754-2.707v31.9l65.24-107.648-59.215,7.819Z" transform="translate(173.427 3530.5) rotate(13)" fill="#fff"/>
            <circle id="Ellipse_218-19" data-name="Ellipse 218" cx="38" cy="38" r="38" transform="translate(1168 4797)" fill="#fff"/>
          </g>
          <g id="Group_5457-20" data-name="Group 5457" transform="translate(-661.188 -4182)">
            <path id="Path_45407-20" data-name="Path 45407" d="M1196.675,1131.385,1131.9,1234.878l58.754-2.707v31.9l65.24-107.648-59.215,7.819Z" transform="translate(173.427 3530.5) rotate(13)" fill="#fff"/>
            <circle id="Ellipse_218-20" data-name="Ellipse 218" cx="38" cy="38" r="38" transform="translate(1168 4797)" fill="#fff"/>
          </g>
          <g id="Group_5457-21" data-name="Group 5457" transform="translate(-355.188 -4182)">
            <path id="Path_45407-21" data-name="Path 45407" d="M1196.675,1131.385,1131.9,1234.878l58.754-2.707v31.9l65.24-107.648-59.215,7.819Z" transform="translate(173.427 3530.5) rotate(13)" fill="#fff"/>
            <circle id="Ellipse_218-21" data-name="Ellipse 218" cx="38" cy="38" r="38" transform="translate(1168 4797)" fill="#fff"/>
          </g>
          <g id="Group_5457-22" data-name="Group 5457" transform="translate(-49.188 -4182)">
            <path id="Path_45407-22" data-name="Path 45407" d="M1196.675,1131.385,1131.9,1234.878l58.754-2.707v31.9l65.24-107.648-59.215,7.819Z" transform="translate(173.427 3530.5) rotate(13)" fill="#fff"/>
            <circle id="Ellipse_218-22" data-name="Ellipse 218" cx="38" cy="38" r="38" transform="translate(1168 4797)" fill="#fff"/>
          </g>
          <g id="Group_5457-23" data-name="Group 5457" transform="translate(256.813 -4182)">
            <path id="Path_45407-23" data-name="Path 45407" d="M1196.675,1131.385,1131.9,1234.878l58.754-2.707v31.9l65.24-107.648-59.215,7.819Z" transform="translate(173.427 3530.5) rotate(13)" fill="#fff"/>
            <circle id="Ellipse_218-23" data-name="Ellipse 218" cx="38" cy="38" r="38" transform="translate(1168 4797)" fill="#fff"/>
          </g>
          <g id="Group_5457-24" data-name="Group 5457" transform="translate(562.813 -4182)">
            <path id="Path_45407-24" data-name="Path 45407" d="M1196.675,1131.385,1131.9,1234.878l58.754-2.707v31.9l65.24-107.648-59.215,7.819Z" transform="translate(173.427 3530.5) rotate(13)" fill="#fff"/>
            <circle id="Ellipse_218-24" data-name="Ellipse 218" cx="38" cy="38" r="38" transform="translate(1168 4797)" fill="#fff"/>
          </g>
          <g id="Group_5457-25" data-name="Group 5457" transform="translate(868.813 -4182)">
            <path id="Path_45407-25" data-name="Path 45407" d="M1196.675,1131.385,1131.9,1234.878l58.754-2.707v31.9l65.24-107.648-59.215,7.819Z" transform="translate(173.427 3530.5) rotate(13)" fill="#fff"/>
            <circle id="Ellipse_218-25" data-name="Ellipse 218" cx="38" cy="38" r="38" transform="translate(1168 4797)" fill="#fff"/>
          </g>
          <g id="Group_5457-26" data-name="Group 5457" transform="translate(1174.813 -4182)">
            <path id="Path_45407-26" data-name="Path 45407" d="M1196.675,1131.385,1131.9,1234.878l58.754-2.707v31.9l65.24-107.648-59.215,7.819Z" transform="translate(173.427 3530.5) rotate(13)" fill="#fff"/>
            <circle id="Ellipse_218-26" data-name="Ellipse 218" cx="38" cy="38" r="38" transform="translate(1168 4797)" fill="#fff"/>
          </g>
          <g id="Group_5457-27" data-name="Group 5457" transform="translate(1480.813 -4182)">
            <path id="Path_45407-27" data-name="Path 45407" d="M1196.675,1131.385,1131.9,1234.878l58.754-2.707v31.9l65.24-107.648-59.215,7.819Z" transform="translate(173.427 3530.5) rotate(13)" fill="#fff"/>
            <circle id="Ellipse_218-27" data-name="Ellipse 218" cx="38" cy="38" r="38" transform="translate(1168 4797)" fill="#fff"/>
          </g>
          <g id="Group_5457-28" data-name="Group 5457" transform="translate(-967.188 -3879)">
            <path id="Path_45407-28" data-name="Path 45407" d="M1196.675,1131.385,1131.9,1234.878l58.754-2.707v31.9l65.24-107.648-59.215,7.819Z" transform="translate(173.427 3530.5) rotate(13)" fill="#fff"/>
            <circle id="Ellipse_218-28" data-name="Ellipse 218" cx="38" cy="38" r="38" transform="translate(1168 4797)" fill="#fff"/>
          </g>
          <g id="Group_5457-29" data-name="Group 5457" transform="translate(-661.188 -3879)">
            <path id="Path_45407-29" data-name="Path 45407" d="M1196.675,1131.385,1131.9,1234.878l58.754-2.707v31.9l65.24-107.648-59.215,7.819Z" transform="translate(173.427 3530.5) rotate(13)" fill="#fff"/>
            <circle id="Ellipse_218-29" data-name="Ellipse 218" cx="38" cy="38" r="38" transform="translate(1168 4797)" fill="#fff"/>
          </g>
          <g id="Group_5457-30" data-name="Group 5457" transform="translate(-355.188 -3879)">
            <path id="Path_45407-30" data-name="Path 45407" d="M1196.675,1131.385,1131.9,1234.878l58.754-2.707v31.9l65.24-107.648-59.215,7.819Z" transform="translate(173.427 3530.5) rotate(13)" fill="#fff"/>
            <circle id="Ellipse_218-30" data-name="Ellipse 218" cx="38" cy="38" r="38" transform="translate(1168 4797)" fill="#fff"/>
          </g>
          <g id="Group_5457-31" data-name="Group 5457" transform="translate(-49.188 -3879)">
            <path id="Path_45407-31" data-name="Path 45407" d="M1196.675,1131.385,1131.9,1234.878l58.754-2.707v31.9l65.24-107.648-59.215,7.819Z" transform="translate(173.427 3530.5) rotate(13)" fill="#fff"/>
            <circle id="Ellipse_218-31" data-name="Ellipse 218" cx="38" cy="38" r="38" transform="translate(1168 4797)" fill="#fff"/>
          </g>
          <g id="Group_5457-32" data-name="Group 5457" transform="translate(256.813 -3879)">
            <path id="Path_45407-32" data-name="Path 45407" d="M1196.675,1131.385,1131.9,1234.878l58.754-2.707v31.9l65.24-107.648-59.215,7.819Z" transform="translate(173.427 3530.5) rotate(13)" fill="#fff"/>
            <circle id="Ellipse_218-32" data-name="Ellipse 218" cx="38" cy="38" r="38" transform="translate(1168 4797)" fill="#fff"/>
          </g>
          <g id="Group_5457-33" data-name="Group 5457" transform="translate(562.813 -3879)">
            <path id="Path_45407-33" data-name="Path 45407" d="M1196.675,1131.385,1131.9,1234.878l58.754-2.707v31.9l65.24-107.648-59.215,7.819Z" transform="translate(173.427 3530.5) rotate(13)" fill="#fff"/>
            <circle id="Ellipse_218-33" data-name="Ellipse 218" cx="38" cy="38" r="38" transform="translate(1168 4797)" fill="#fff"/>
          </g>
          <g id="Group_5457-34" data-name="Group 5457" transform="translate(868.813 -3879)">
            <path id="Path_45407-34" data-name="Path 45407" d="M1196.675,1131.385,1131.9,1234.878l58.754-2.707v31.9l65.24-107.648-59.215,7.819Z" transform="translate(173.427 3530.5) rotate(13)" fill="#fff"/>
            <circle id="Ellipse_218-34" data-name="Ellipse 218" cx="38" cy="38" r="38" transform="translate(1168 4797)" fill="#fff"/>
          </g>
          <g id="Group_5457-35" data-name="Group 5457" transform="translate(1174.813 -3879)">
            <path id="Path_45407-35" data-name="Path 45407" d="M1196.675,1131.385,1131.9,1234.878l58.754-2.707v31.9l65.24-107.648-59.215,7.819Z" transform="translate(173.427 3530.5) rotate(13)" fill="#fff"/>
            <circle id="Ellipse_218-35" data-name="Ellipse 218" cx="38" cy="38" r="38" transform="translate(1168 4797)" fill="#fff"/>
          </g>
          <g id="Group_5457-36" data-name="Group 5457" transform="translate(1480.813 -3879)">
            <path id="Path_45407-36" data-name="Path 45407" d="M1196.675,1131.385,1131.9,1234.878l58.754-2.707v31.9l65.24-107.648-59.215,7.819Z" transform="translate(173.427 3530.5) rotate(13)" fill="#fff"/>
            <circle id="Ellipse_218-36" data-name="Ellipse 218" cx="38" cy="38" r="38" transform="translate(1168 4797)" fill="#fff"/>
          </g>
          <g id="Group_5457-37" data-name="Group 5457" transform="translate(-967.188 -3576)">
            <path id="Path_45407-37" data-name="Path 45407" d="M1196.675,1131.385,1131.9,1234.878l58.754-2.707v31.9l65.24-107.648-59.215,7.819Z" transform="translate(173.427 3530.5) rotate(13)" fill="#fff"/>
            <circle id="Ellipse_218-37" data-name="Ellipse 218" cx="38" cy="38" r="38" transform="translate(1168 4797)" fill="#fff"/>
          </g>
          <g id="Group_5457-38" data-name="Group 5457" transform="translate(-661.188 -3576)">
            <path id="Path_45407-38" data-name="Path 45407" d="M1196.675,1131.385,1131.9,1234.878l58.754-2.707v31.9l65.24-107.648-59.215,7.819Z" transform="translate(173.427 3530.5) rotate(13)" fill="#fff"/>
            <circle id="Ellipse_218-38" data-name="Ellipse 218" cx="38" cy="38" r="38" transform="translate(1168 4797)" fill="#fff"/>
          </g>
          <g id="Group_5457-39" data-name="Group 5457" transform="translate(-355.188 -3576)">
            <path id="Path_45407-39" data-name="Path 45407" d="M1196.675,1131.385,1131.9,1234.878l58.754-2.707v31.9l65.24-107.648-59.215,7.819Z" transform="translate(173.427 3530.5) rotate(13)" fill="#fff"/>
            <circle id="Ellipse_218-39" data-name="Ellipse 218" cx="38" cy="38" r="38" transform="translate(1168 4797)" fill="#fff"/>
          </g>
          <g id="Group_5457-40" data-name="Group 5457" transform="translate(-49.188 -3576)">
            <path id="Path_45407-40" data-name="Path 45407" d="M1196.675,1131.385,1131.9,1234.878l58.754-2.707v31.9l65.24-107.648-59.215,7.819Z" transform="translate(173.427 3530.5) rotate(13)" fill="#fff"/>
            <circle id="Ellipse_218-40" data-name="Ellipse 218" cx="38" cy="38" r="38" transform="translate(1168 4797)" fill="#fff"/>
          </g>
          <g id="Group_5457-41" data-name="Group 5457" transform="translate(256.813 -3576)">
            <path id="Path_45407-41" data-name="Path 45407" d="M1196.675,1131.385,1131.9,1234.878l58.754-2.707v31.9l65.24-107.648-59.215,7.819Z" transform="translate(173.427 3530.5) rotate(13)" fill="#fff"/>
            <circle id="Ellipse_218-41" data-name="Ellipse 218" cx="38" cy="38" r="38" transform="translate(1168 4797)" fill="#fff"/>
          </g>
          <g id="Group_5457-42" data-name="Group 5457" transform="translate(562.813 -3576)">
            <path id="Path_45407-42" data-name="Path 45407" d="M1196.675,1131.385,1131.9,1234.878l58.754-2.707v31.9l65.24-107.648-59.215,7.819Z" transform="translate(173.427 3530.5) rotate(13)" fill="#fff"/>
            <circle id="Ellipse_218-42" data-name="Ellipse 218" cx="38" cy="38" r="38" transform="translate(1168 4797)" fill="#fff"/>
          </g>
          <g id="Group_5457-43" data-name="Group 5457" transform="translate(868.813 -3576)">
            <path id="Path_45407-43" data-name="Path 45407" d="M1196.675,1131.385,1131.9,1234.878l58.754-2.707v31.9l65.24-107.648-59.215,7.819Z" transform="translate(173.427 3530.5) rotate(13)" fill="#fff"/>
            <circle id="Ellipse_218-43" data-name="Ellipse 218" cx="38" cy="38" r="38" transform="translate(1168 4797)" fill="#fff"/>
          </g>
          <g id="Group_5457-44" data-name="Group 5457" transform="translate(1174.813 -3576)">
            <path id="Path_45407-44" data-name="Path 45407" d="M1196.675,1131.385,1131.9,1234.878l58.754-2.707v31.9l65.24-107.648-59.215,7.819Z" transform="translate(173.427 3530.5) rotate(13)" fill="#fff"/>
            <circle id="Ellipse_218-44" data-name="Ellipse 218" cx="38" cy="38" r="38" transform="translate(1168 4797)" fill="#fff"/>
          </g>
          <g id="Group_5457-45" data-name="Group 5457" transform="translate(1480.813 -3576)">
            <path id="Path_45407-45" data-name="Path 45407" d="M1196.675,1131.385,1131.9,1234.878l58.754-2.707v31.9l65.24-107.648-59.215,7.819Z" transform="translate(173.427 3530.5) rotate(13)" fill="#fff"/>
            <circle id="Ellipse_218-45" data-name="Ellipse 218" cx="38" cy="38" r="38" transform="translate(1168 4797)" fill="#fff"/>
          </g>
        </g>
      </g>
    </g>
  </g>
</svg>
