<svg xmlns="http://www.w3.org/2000/svg" width="435.3" height="268.986" viewBox="0 0 435.3 268.986">
  <g id="Group_5453" data-name="Group 5453" transform="translate(-2123 -3428)">
    <path id="Path_45406" data-name="Path 45406" d="M-3612.252,4091.689l.483,5.508,15.39,175.6h296.772V4043.72" transform="translate(5796.252 -598.764)" fill="#fbd206"/>
    <g id="small-team-discussing-ideas" transform="translate(1990.469 3287.2)">
      <path id="Path_45376" data-name="Path 45376" d="M468.49,276.571c-.127-.67-.245-1.349-.371-2.019-.027-.136-.045-.272-.072-.408" fill="none"/>
      <path id="Path_45377" data-name="Path 45377" d="M468.363,278.029c.045-.48.091-.969.127-1.458.254,1.431.507,2.87.824,4.283l1.331,6.275c.462,2.083.906,4.174,1.313,6.266a.269.269,0,0,0,.245.217h.009c.272.027.534.054.806.091l.091,2.49-.869.344c-3.26,1.3-7.607-1.087-7.607-1.087a5.826,5.826,0,0,0,.308-2.037,39.377,39.377,0,0,0,1.6-5.053q.652-2.54,1.1-5.125C467.956,281.506,468.191,279.776,468.363,278.029Z" fill="#5504b0"/>
      <path id="Path_45378" data-name="Path 45378" d="M499.333,225.979v-.009c-.172-.362-.254-.552-.254-.552l-.009-.009a15.085,15.085,0,0,0-5.207-1.612c-.027,0-.054-.009-.073-.009a37.053,37.053,0,0,0-4.057-.507.338.338,0,0,0-.1-.009c-3.6-.245-7.208.063-8.911,1.539l-.009.009a52.465,52.465,0,0,1-4.89,3.631c-.045.027-.082.063-.127.091-3.26,2.191-6.529,4.129-6.837,4.31-.009.009-.018.018-.027.018-3.124,1.974-4.854,5.388-5.8,8.494-.027.082-.045.154-.072.235a.113.113,0,0,1-.009.054c-.036,1.476-.118,2.943-.235,4.41q-.3,3.681-.96,7.326c-.217,1.223-.489,2.427-.8,3.631a18.185,18.185,0,0,1-1.313,3.595c-.272.571-.6,1.141-.9,1.666a14.728,14.728,0,0,0-1.675,4.854,18.57,18.57,0,0,0,.235,6.955,32.925,32.925,0,0,0,4.283,10.06.19.19,0,0,1,.036.054c.036.054.073.118.109.172.045.073.1.154.145.235.027.036.045.073.073.109a.069.069,0,0,1,.018.036,1.471,1.471,0,0,0,.09.163c.091.163.2.344.308.543.172.326.371.7.579,1.114v.009c.109.208.208.426.317.643.082.163.154.335.226.507s.163.371.235.562a.781.781,0,0,1,.063.154c.109.272.217.552.317.833.018.054.036.1.054.154.073.208.145.417.208.634a.231.231,0,0,0,.018.063.069.069,0,0,1,.009.036.131.131,0,0,1,.018.063c.054.181.109.371.163.562-.009.009,0,.009,0,.018v.009c.054.208.1.417.145.634.027.127.054.263.073.4.027.163.054.326.073.489.027.245.054.48.063.715a40.646,40.646,0,0,1,.226-4.944c.172-1.739.407-3.477.706-5.2s.667-3.432,1.1-5.135c.317-1.222.661-2.436,1.078-3.64-.335-1.974-.571-3.966-.806-5.958a93.816,93.816,0,0,1-.408-12.868,49.528,49.528,0,0,1,.688-6.42c.091-.525.19-1.06.335-1.585.127-.525.235-1.05.407-1.557a11.713,11.713,0,0,1,1.241-3,.089.089,0,0,1,.118-.036.1.1,0,0,1,.036.118v.009a21.666,21.666,0,0,0-1.268,6.176,61.267,61.267,0,0,0-.263,6.33c.018,4.229.344,8.449.724,12.677l.661,6.33c.254,2.11.444,4.229.761,6.339s.571,4.22.969,6.312c.4,2.028.8,4.039,1.231,6.058,4.093.362,8.231.5,12.333.453,2.083-.036,4.166-.091,6.221-.281a29.479,29.479,0,0,0,3.015-.435,7.609,7.609,0,0,0,2.273-.77l2.608-21.887,1.268-11.129c.181-1.856.353-3.713.489-5.569.163-1.865.226-3.722.217-5.587v-.009a.1.1,0,0,1,.091-.091.089.089,0,0,1,.09.081,71.938,71.938,0,0,1,.281,11.256c-.118,3.749-.389,7.489-.7,11.229-.335,3.731-.688,7.462-1.159,11.174-.435,3.722-1,7.416-1.53,11.129l-.009.063a.714.714,0,0,1-.3.48,7.492,7.492,0,0,1-3.224,1.223v1.793c10.323-.453,16.644-4.374,20.076-7.489V288.7a21.183,21.183,0,0,0,2.391-2.517,11.542,11.542,0,0,0,.969-1.376,318.644,318.644,0,0,0-18.545-58.823ZM474.956,290a1.359,1.359,0,1,1,1.311-1.358A1.359,1.359,0,0,1,474.956,290Zm6.52.326a1.359,1.359,0,1,1,1.311-1.358A1.359,1.359,0,0,1,481.475,290.326Zm5.542,0a1.359,1.359,0,1,1,1.31-1.358A1.359,1.359,0,0,1,487.017,290.326Zm5.542-.326a1.359,1.359,0,1,1,1.31-1.358,1.359,1.359,0,0,1-1.31,1.358ZM222.266,373.979c-.19,1.041-4.491,1.883-9.771,1.883-5.4,0-9.78-.878-9.78-1.956a1.287,1.287,0,0,0-1.286,1.322l.607,23.435a1.3,1.3,0,0,0,.6,1.06,17.949,17.949,0,0,0,19.84-.543,1.286,1.286,0,0,0,.561-1.068V375.075a1.167,1.167,0,0,0-.77-1.1Zm-11.174,22.756a5.562,5.562,0,0,1-5.143-2.536,10.039,10.039,0,0,1-1.712-7.362,14.2,14.2,0,0,1,1.585-4.781,5,5,0,0,1,4.8-2.554,1.971,1.971,0,0,1,1.965,1.467,2.359,2.359,0,0,1-.688,2.1c-1.467,1.494-4.827,5.605-1.25,8.657C213.99,394.58,213.6,396.454,211.092,396.735Zm11.591-74.879c-5.958.081-11.917.353-17.857.851a10.923,10.923,0,0,0,1.838-4.437c.489-4.564,7.281-8.8,7.281-8.8l-.027-1.222,5.949-1.06a12.128,12.128,0,0,0,9.78,6.194c6.846.362,31.313-10.54,34.392-12.062,22.167,12.225,11.573,27.057,11.573,27.057a18.262,18.262,0,0,0-4.048-1.929c-1.413-.507-2.861-.906-4.31-1.277-2.916-.7-5.868-1.2-8.838-1.6-5.922-.824-11.88-1.222-17.848-1.5C234.609,321.829,228.65,321.748,222.683,321.857Z" fill="#5504b0"/>
      <path id="Path_45379" data-name="Path 45379" d="M266.483,363.421H187.539s1.277-15.421.48-17.45c3.749-12.062,11.636-17.268,11.636-17.268a34.941,34.941,0,0,0,5.171-5.995q8.937.312,17.848.552c5.949.181,11.89.344,17.821.616,2.97.109,5.931.263,8.892.444,2.961.163,5.922.4,8.874.652,2.943.281,5.9.589,8.811,1.068a31.365,31.365,0,0,1,8.539,2.336c6.683,2.771,7.009,12.551,7.009,12.551C284.576,359.835,266.483,363.421,266.483,363.421Zm-86.55-145.229a12.6,12.6,0,0,0,2.368-2.062,12.262,12.262,0,0,0,1.749-2.51,14.275,14.275,0,0,0,1.106-2.867c.165-.494.225-1.015.358-1.527.1-.518.156-1.045.276-1.578a15.049,15.049,0,0,1,.167,1.616,11.053,11.053,0,0,1-.109,1.633,9.866,9.866,0,0,1-1,3.146,9.032,9.032,0,0,1-2.058,2.593,6.965,6.965,0,0,1-2.859,1.557Zm22,13.855a15.15,15.15,0,0,1,.053-3.33,9.19,9.19,0,0,1,.349-1.668,4.587,4.587,0,0,1,.894-1.53,4.746,4.746,0,0,1,3.179-1.589,5.114,5.114,0,0,1,1.832.181c.521.144,1.046.272,1.571.391a18.059,18.059,0,0,0,6.3.422,6.949,6.949,0,0,0,4.984-2.829l.029-.038.04-.049a5.532,5.532,0,0,0,.681-1.109,5.589,5.589,0,0,0,.322-3.926l-.008-.031a.67.67,0,0,1-.018-.1,8.6,8.6,0,0,1-.025-1.618,6.364,6.364,0,0,1,.318-1.622,4.118,4.118,0,0,1,.93-1.564,3.53,3.53,0,0,1,1.7-.9.7.7,0,0,1,.14-.017h.053a5.08,5.08,0,0,0,2.622-.678,1.721,1.721,0,0,0,.7-.865,2.028,2.028,0,0,0,.1-.575l.006-.151,0-.076,0-.038c0-.034.007.052.007.042h0a1.85,1.85,0,0,0-.083-.256,11.94,11.94,0,0,0-1.654-2.566,15.488,15.488,0,0,1-1.854-2.9,13.692,13.692,0,0,1-1.385-6.626,34.936,34.936,0,0,1,.816-6.567,45.28,45.28,0,0,0-.08,6.568,13.738,13.738,0,0,0,1.762,6.044,14.133,14.133,0,0,0,1.83,2.553,11.866,11.866,0,0,1,2.015,2.883,3.279,3.279,0,0,1,.181.524l.011.052a.763.763,0,0,1,.012.093v.065l0,.13v.261a3.637,3.637,0,0,1-.157,1.043,3.379,3.379,0,0,1-1.258,1.716,6.348,6.348,0,0,1-3.633,1.067l.192-.018a1.777,1.777,0,0,0-.8.429,2.384,2.384,0,0,0-.5.891,4.6,4.6,0,0,0-.215,1.185,6.974,6.974,0,0,0,.028,1.243l-.026-.125a7.262,7.262,0,0,1,.105,3.517,7.359,7.359,0,0,1-.573,1.663,7.022,7.022,0,0,1-.975,1.52l.069-.087a8.452,8.452,0,0,1-6.232,3.392,18.462,18.462,0,0,1-6.8-.766c-.544-.152-1.078-.334-1.609-.52a4.024,4.024,0,0,0-1.43-.248,4.121,4.121,0,0,0-2.7,1.08,3.933,3.933,0,0,0-.893,1.229,8.785,8.785,0,0,0-.481,1.53,19.068,19.068,0,0,0-.45,3.258Zm-2.363-19.071a12.948,12.948,0,0,0,.627,2.3,11.99,11.99,0,0,0,1.005,2.073,13.666,13.666,0,0,0,1.369,1.865c.5.6,1.078,1.144,1.645,1.752a7.171,7.171,0,0,1-2.14-1.248,7.7,7.7,0,0,1-1.648-1.9,7.27,7.27,0,0,1-.909-2.354,5.282,5.282,0,0,1,.052-2.485Z" fill="#5504b0"/>
      <path id="Path_45380" data-name="Path 45380" d="M181.937,216.969a8.818,8.818,0,0,0-1.407-.731,2.81,2.81,0,0,0-.736-.2c-.246-.03-.459.023-.511.193a2.4,2.4,0,0,0,.254,1.39,14.735,14.735,0,0,0,.682,1.406l-.067-.091c1.552,1.3,3.177,2.538,4.814,3.733,1.652,1.178,3.322,2.328,5.06,3.353a43.066,43.066,0,0,0,5.341,2.755A21.685,21.685,0,0,0,201,230.358l.041.005a.807.807,0,0,1,.546.312,4.31,4.31,0,0,1,.823,1.754,2.988,2.988,0,0,1-.326,2.082,3.874,3.874,0,0,1-1.41,1.36,1.912,1.912,0,0,0-.737.739,4.706,4.706,0,0,0-.462,2.459,12.5,12.5,0,0,0,.426,2.775l.016.06a.755.755,0,0,1-.02.459,2.375,2.375,0,0,1-.47.8,2.044,2.044,0,0,1-.821.561,2.361,2.361,0,0,1-1.764-.163,7.183,7.183,0,0,1-1.989-1.666.744.744,0,0,1-.092-.124l-.015-.026a6.651,6.651,0,0,0-.879-1.12,9.829,9.829,0,0,0-1.13-1.01,12.227,12.227,0,0,0-2.676-1.506l-.03-.013a.7.7,0,0,1-.295-.23c-.936-1.267-1.973-2.513-3.033-3.71s-2.155-2.381-3.326-3.476a32.768,32.768,0,0,0-3.674-3.1,19.247,19.247,0,0,0-4.224-2.322,16.316,16.316,0,0,1,4.5,1.9,31.858,31.858,0,0,1,4.014,2.833c1.266,1.042,2.46,2.166,3.617,3.326,1.144,1.178,2.241,2.376,3.293,3.67l-.325-.242a12.447,12.447,0,0,1,3.1,1.6,11.436,11.436,0,0,1,1.353,1.143,7.971,7.971,0,0,1,1.175,1.44l-.107-.149a5.74,5.74,0,0,0,1.487,1.215.734.734,0,0,0,.434.088c.023-.021.057-.021.1-.08a.984.984,0,0,0,.106-.17l0,.518a14.144,14.144,0,0,1-.527-3.218,6.392,6.392,0,0,1,.679-3.432,3.779,3.779,0,0,1,1.391-1.378,2.127,2.127,0,0,0,.775-.7,1.188,1.188,0,0,0,.135-.852,2.66,2.66,0,0,0-.445-.983l.587.317a21.278,21.278,0,0,1-6.1-1.829,37.649,37.649,0,0,1-5.444-3.05,55.759,55.759,0,0,1-4.976-3.683,57.43,57.43,0,0,1-4.578-4.143l-.019-.019a.238.238,0,0,1-.048-.072,15.252,15.252,0,0,1-.578-1.522,5.329,5.329,0,0,1-.189-.812,1.524,1.524,0,0,1,.085-.9.614.614,0,0,1,.41-.32,1.063,1.063,0,0,1,.46.005,3.032,3.032,0,0,1,.772.306,8.9,8.9,0,0,1,1.328.9Zm22.283,7.617a20.53,20.53,0,0,1,6.11,3.345,29.247,29.247,0,0,1,4.971,4.954,34.163,34.163,0,0,1,1.983,2.915c.294.509.631,1,.89,1.525l.776,1.586c.542,1.048.893,2.176,1.349,3.262.382,1.112.7,2.246,1.05,3.37a.32.32,0,0,1,.014.072l0,.043a64.37,64.37,0,0,0,.826,6.847,32.639,32.639,0,0,0,.753,3.331,12.586,12.586,0,0,0,1.218,3.037.7.7,0,0,1,.066.141l.006.02c.552,1.666,1.144,3.337,1.775,4.976.315.821.645,1.633.993,2.431a20.329,20.329,0,0,0,1.134,2.283.836.836,0,0,1-.1.992c-1.049,1.147-2.123,2.2-3.252,3.225s-2.3,1.991-3.515,2.917a32.366,32.366,0,0,1-8,4.574l.592-.85c.033,3.685,0,7.365-.039,11.05l-.111,5.531c-.066,1.858-.1,3.669-.342,5.607a.644.644,0,0,1-.021.1l-.008.027a2.765,2.765,0,0,0-.117.75.74.74,0,0,0,.026.207.175.175,0,0,0-.082-.065.016.016,0,0,0-.018-.006c-.038-.007.068.02.143.05a1.164,1.164,0,0,1,.212.1,1.443,1.443,0,0,1,.43.442,2.708,2.708,0,0,1,.3.676,7.761,7.761,0,0,1,.247,1.139,31.225,31.225,0,0,1,.254,4.275.784.784,0,0,1-.355.661l-.018.012a25.152,25.152,0,0,0-4.558,3.75,12.8,12.8,0,0,0-1.729,2.308l-.319.627-.238.646c-.128.445-.186.829-.309,1.433a14.7,14.7,0,0,1-2.977,5.62,36.766,36.766,0,0,1-4.254,4.539l-.043.034-.015.01a26.444,26.444,0,0,0-3.887,3.409,33.935,33.935,0,0,0-3.3,4.063,35.9,35.9,0,0,0-2.66,4.533,42.209,42.209,0,0,0-2.059,4.86,40.016,40.016,0,0,1,1.78-4.991,36.324,36.324,0,0,1,2.485-4.7,34.6,34.6,0,0,1,3.179-4.288,23.849,23.849,0,0,1,3.927-3.7l-.057.044a35.779,35.779,0,0,0,4-4.505,13.612,13.612,0,0,0,2.6-5.178c.077-.4.154-1.032.3-1.568l.271-.8.354-.75a14.194,14.194,0,0,1,1.862-2.639,24.8,24.8,0,0,1,4.81-4.106l-.373.672a29.824,29.824,0,0,0-.292-4.019c-.08-.587-.337-1.416-.387-1.139a1.556,1.556,0,0,1-.77-.809,2.263,2.263,0,0,1-.162-.809,4.336,4.336,0,0,1,.18-1.3l-.03.13c.183-1.717.223-3.59.278-5.407l.085-5.5.016-11.02a.911.911,0,0,1,.592-.85,30.657,30.657,0,0,0,7.559-4.287q1.759-1.327,3.41-2.8c1.1-.977,2.181-2.007,3.167-3.057l-.1.992a21.772,21.772,0,0,1-1.2-2.5c-.351-.834-.677-1.671-.986-2.512-.621-1.683-1.192-3.367-1.732-5.078l.073.161a13.913,13.913,0,0,1-1.292-3.447,34.006,34.006,0,0,1-.691-3.488,65.535,65.535,0,0,1-.654-7.015l.017.114c-.314-1.1-.591-2.215-.934-3.308-.415-1.065-.727-2.178-1.226-3.209a35.192,35.192,0,0,0-3.324-6.009,28.722,28.722,0,0,0-4.657-5.069,21.577,21.577,0,0,0-5.872-3.641Z" fill="#5504b0"/>
      <path id="Path_45381" data-name="Path 45381" d="M179.149,217.042a54.068,54.068,0,0,0-6.079,7.009c-1.883,2.46-3.635,5.021-5.322,7.621-3.4,5.171-6.638,10.51-9.493,15.965-5.651,10.94-10.013,22.791-11.6,35.128-.1.768-.192,1.538-.267,2.306-.055.742-.025,1.546-.028,2.317l.021,4.671.064,9.342q.032,9.34-.051,18.673c-.027,12.448-.3,24.885-.719,37.325l-.139-.441a23.463,23.463,0,0,0,3.854,4.023,14.337,14.337,0,0,0,4.837,2.683,9.114,9.114,0,0,0,5.452-.051,13.152,13.152,0,0,0,4.758-3.028.091.091,0,0,1,.128,0,.092.092,0,0,1,0,.123,12.88,12.88,0,0,1-4.678,3.476,9.484,9.484,0,0,1-5.91.4,15.419,15.419,0,0,1-5.35-2.622,22.182,22.182,0,0,1-4.279-4.147.645.645,0,0,1-.139-.4v-.042c-.04-12.455.059-24.913.408-37.361q.2-9.338.513-18.67l.346-9.329.162-4.664c.042-.784.025-1.54.092-2.348q.13-1.169.3-2.327a152.747,152.747,0,0,1,4.035-18.276A99.027,99.027,0,0,1,156.82,246.9c.716-1.4,1.494-2.761,2.263-4.128l2.428-4.007c1.672-2.639,3.337-5.283,5.155-7.828,3.657-5.046,7.455-10.114,12.376-14.038a.09.09,0,0,1,.118.136Z" fill="#5504b0"/>
      <path id="Path_45382" data-name="Path 45382" d="M168.2,236.338a18.249,18.249,0,0,1,5.43-2.37,19.038,19.038,0,0,1,5.982-.66A13.937,13.937,0,0,1,185.477,235a10.61,10.61,0,0,1,4.073,4.38,17.49,17.49,0,0,0-4.705-3.116,17.851,17.851,0,0,0-5.345-1.151,30.006,30.006,0,0,0-5.6.235C172.018,235.593,170.126,235.927,168.2,236.338Zm-3.833,5.7a39.7,39.7,0,0,0-3,12.82,50.1,50.1,0,0,0-.046,6.576c.162,2.166.424,4.421.494,6.669a48.443,48.443,0,0,1-.137,6.772,18.256,18.256,0,0,1-.625,3.413,5.063,5.063,0,0,1-.3.853,3.854,3.854,0,0,1-.427.847l-.27.415-.209.305a3.26,3.26,0,0,0-.382.641,15.57,15.57,0,0,0-1.1,3.015c-.292,1.054-.528,2.133-.732,3.218a59.979,59.979,0,0,0-.872,6.585l-.175-.285A54.26,54.26,0,0,0,167.209,297a59.508,59.508,0,0,0,11.006.987,47.62,47.62,0,0,0,10.863-1.323,36.666,36.666,0,0,0,9.984-4.189l-.444.909c-.421-3.6-.908-7.213-1.431-10.8-.262-1.793-.578-3.577-.931-5.331a23.3,23.3,0,0,0-.639-2.551,4.255,4.255,0,0,0-.213-.551l-.3-.715a7.573,7.573,0,0,1-.29-1.513,58.691,58.691,0,0,1,.554-11.064c.423-3.635.983-7.246,1.649-10.839a.091.091,0,0,1,.106-.073.092.092,0,0,1,.074.1q-.454,5.455-.79,10.905c-.1,1.816-.178,3.632-.206,5.441a36.348,36.348,0,0,0,.173,5.339,6.157,6.157,0,0,0,.259,1.162l.255.533a5.884,5.884,0,0,1,.308.712,24.767,24.767,0,0,1,.795,2.725c.438,1.806.759,3.616,1.064,5.425.614,3.62,1.066,7.245,1.455,10.891l0,.042a.887.887,0,0,1-.449.867,38.439,38.439,0,0,1-10.6,4.2,44.334,44.334,0,0,1-11.271.958,64.267,64.267,0,0,1-11.125-1.57,73.994,73.994,0,0,1-10.723-3.254.278.278,0,0,1-.176-.274v-.011c.127-2.237.325-4.459.6-6.687.142-1.113.316-2.225.553-3.333a16.463,16.463,0,0,1,1-3.311,4.353,4.353,0,0,1,.426-.816l.244-.4.162-.3a2.685,2.685,0,0,0,.282-.658,3.949,3.949,0,0,0,.212-.732,19.776,19.776,0,0,0,.454-3.168c.158-2.169.154-4.373.1-6.576-.029-1.1-.08-2.206-.156-3.3s-.2-2.235-.208-3.359a43.378,43.378,0,0,1,.308-6.764,33.959,33.959,0,0,1,4.058-12.788.09.09,0,0,1,.161.082Zm48.6,6.257a27.868,27.868,0,0,1,1.658,7.746,67.639,67.639,0,0,1,.266,7.9c-.041,1.316-.112,2.63-.185,3.943-.128,1.309-.206,2.622-.38,3.926a66.365,66.365,0,0,1-1.358,7.777c-.129-2.643-.1-5.259-.052-7.872l.166-7.816c.083-2.6.107-5.2.137-7.8a76.16,76.16,0,0,0-.252-7.812Zm-10.214-15.539q.731,10.561,1.2,21.122c.341,7.04.593,14.082.878,21.122l.763,21.118c.13,3.519.268,7.037.447,10.553.092,1.757.139,3.521.3,5.271.074.876.125,1.757.217,2.631l.336,2.621-.607-2.581c-.165-.869-.281-1.743-.423-2.616-.3-1.746-.48-3.5-.708-5.253-.39-3.51-.721-7.026-.973-10.546-.3-3.518-.465-7.041-.687-10.562l-.474-10.569c-.249-7.048-.425-14.1-.477-21.15Q202.437,243.336,202.753,232.752Zm.489-1.236a3.35,3.35,0,0,1,1.409-.512,2.24,2.24,0,0,1,1.573.368,2.483,2.483,0,0,1,.928,1.376,5.206,5.206,0,0,1,.2,1.552,8.661,8.661,0,0,0,.194,2.712,1.524,1.524,0,0,0,.748.915,2.2,2.2,0,0,0,1.347.109,1.985,1.985,0,0,1-1.485.314A1.926,1.926,0,0,1,206.9,237.3a6.682,6.682,0,0,1-.452-3,3.219,3.219,0,0,0-.658-2.371,2.976,2.976,0,0,0-2.545-.407Zm3.2-3.3a3.483,3.483,0,0,1,1.562.5,4.386,4.386,0,0,1,1.257,1.1,3.768,3.768,0,0,1,.718,1.525,3.141,3.141,0,0,1-.053,1.648c-.225-.513-.376-.984-.614-1.414a6.854,6.854,0,0,0-.768-1.207,15.933,15.933,0,0,0-2.1-2.147Z" fill="#5504b0"/>
      <path id="Path_45383" data-name="Path 45383" d="M196.031,259.289c1.177-.215,2.354-.34,3.531-.466a.412.412,0,0,1,.451.343l.015.094c.518,3.218.838,6.449,1.055,9.686.085,1.62.172,3.24.2,4.864s.017,3.25-.038,4.879l0,.092a.39.39,0,0,1-.384.376c-1.1.014-2.2.033-3.3-.028,1.057-.336,2.124-.591,3.191-.851l-.387.468c-.261-1.609-.484-3.22-.655-4.835s-.3-3.232-.422-4.85c-.2-3.239-.286-6.484-.18-9.742l.465.437C198.385,259.629,197.208,259.5,196.031,259.289Zm18-2.522c-2.334.637-4.688,1.132-7.045,1.6l.546-.626c.086,1.648.161,3.3.2,4.944.064,1.648.047,3.3.073,4.944-.012,3.3-.054,6.592-.24,9.888l-.921-.609c1.182-.451,2.385-.928,3.549-1.459.589-.258,1.156-.55,1.724-.849a7.2,7.2,0,0,0,1.586-1.088,6.007,6.007,0,0,1-1.328,1.462,17.059,17.059,0,0,1-1.588,1.183,31.039,31.039,0,0,1-3.425,1.969.638.638,0,0,1-.917-.534l0-.075c-.186-3.3-.228-6.592-.24-9.888.026-1.648.009-3.3.073-4.944.037-1.648.111-3.3.2-4.944l0-.071a.587.587,0,0,1,.542-.555C209.21,256.939,211.61,256.782,214.03,256.767Zm-51.92,39.295c.309,3.685.608,7.371.967,11.048.184,1.837.374,3.677.637,5.491a32.735,32.735,0,0,1,.453,5.581,89.641,89.641,0,0,1-.554,11.15c-.111.92-.268,1.881-.446,2.777s-.317,1.8-.447,2.7a40.509,40.509,0,0,0-.435,5.437,51.2,51.2,0,0,0,.838,10.877,25.006,25.006,0,0,0,.674,2.6c.262.858.629,1.62.974,2.57a28.263,28.263,0,0,1,1.272,5.559,52.455,52.455,0,0,1,.151,11.247,34.361,34.361,0,0,1-.948,5.589,13.007,13.007,0,0,1-1.036,2.741,5.377,5.377,0,0,1-.93,1.3,2.453,2.453,0,0,1-1.72.776l.176-.023c-1.789.4-3.518.65-5.281.883s-3.514.408-5.273.558c-3.519.3-7.042.489-10.565.6l.041,0a11.419,11.419,0,0,0-3.675,1.084c-.532.3-.982.728-.932,1.188a2.474,2.474,0,0,0,.967,1.381.352.352,0,0,1,.038.5.364.364,0,0,1-.138.1,10.475,10.475,0,0,0-2.866,1.619,2.513,2.513,0,0,0-.862,1.206,1.37,1.37,0,0,0,.467,1.251,5.3,5.3,0,0,0,1.322.918,4.867,4.867,0,0,0,1.537.456,6.4,6.4,0,0,0,3.219-.386.28.28,0,0,1,.362.16.283.283,0,0,1-.1.33,8.521,8.521,0,0,0-2.283,2.279,2.016,2.016,0,0,0-.362,1.39,1.7,1.7,0,0,0,.9,1.066l.032.022a3.342,3.342,0,0,0,1.455.276,9.765,9.765,0,0,0,1.622-.135,21.1,21.1,0,0,0,3.2-.858,46.98,46.98,0,0,0,6.1-2.73.346.346,0,0,1,.353.595l-.011.007a20.037,20.037,0,0,0-3.324,2.706,5.875,5.875,0,0,0-1.937,3.477,1.909,1.909,0,0,0,.173.881,2.44,2.44,0,0,0,.22.4c.043.063.1.118.143.179l.072.089c.051.057-.037-.03.012.007a3.3,3.3,0,0,0,1.819.015,17.555,17.555,0,0,0,3.967-1.485,57.08,57.08,0,0,0,7.366-4.57c2.373-1.671,4.664-3.465,6.945-5.27l-.041.035a14.646,14.646,0,0,1,2.615-1.877,8.559,8.559,0,0,1,3.139-1.1,4.525,4.525,0,0,1,3.436.95,6.674,6.674,0,0,1,1.916,2.839,20.629,20.629,0,0,1,1.087,6.242c.056,1.046.014,2.084.088,3.019a10.738,10.738,0,0,0,.557,2.75,4.06,4.06,0,0,0,.562,1.1c.232.288.413.375.59.374a1.393,1.393,0,0,0,.792-.352,2.37,2.37,0,0,0,.605-.912,8.678,8.678,0,0,0,.394-1.318q.188-.773.411-1.52c.3-.994.614-1.948.871-2.9a26.543,26.543,0,0,0,.252-11.674,1,1,0,0,1,0-.283c1.018-7.63,1.931-15.288,2.667-22.948.345-3.831.71-7.663.874-11.486.058-.958.048-1.906.076-2.859l-.066-2.857-.036-1.478.025-1.458c.009-.974.04-1.943.086-2.909.3-7.737,1-15.422,1.663-23.112s1.508-15.361,2.339-23.032a.091.091,0,1,1,.18.017c-.57,7.694-1.031,15.4-1.546,23.09-.469,7.695-.935,15.4-1.147,23.084-.03.961-.046,1.92-.039,2.875l0,1.434.057,1.413.114,2.925c-.012.974.011,1.956-.032,2.925-.121,3.886-.377,7.747-.733,11.6-.714,7.7-1.6,15.368-2.6,23.034l0-.283a37.9,37.9,0,0,1,.572,6.223,22.8,22.8,0,0,1-.894,6.264c-.284,1.009-.618,1.981-.911,2.93q-.218.711-.4,1.417a10.365,10.365,0,0,1-.5,1.592,3.506,3.506,0,0,1-3.085,2.341,2.311,2.311,0,0,1-1.174-.342,2.974,2.974,0,0,1-.795-.731,5.739,5.739,0,0,1-.818-1.6,12.447,12.447,0,0,1-.623-3.211c-.071-1.092-.015-2.089-.061-3.073a19.109,19.109,0,0,0-.923-5.729,5.177,5.177,0,0,0-1.4-2.195,2.942,2.942,0,0,0-2.269-.649,9.971,9.971,0,0,0-4.944,2.5l-.041.035c-2.326,1.788-4.666,3.56-7.115,5.19a58.15,58.15,0,0,1-7.623,4.483,18.761,18.761,0,0,1-4.255,1.476,3.867,3.867,0,0,1-2.477-.183.732.732,0,0,1-.2-.164l-.1-.125c-.065-.084-.134-.165-.193-.254a3.329,3.329,0,0,1-.3-.563,2.791,2.791,0,0,1-.22-1.254,4.541,4.541,0,0,1,.8-2.249,10.346,10.346,0,0,1,1.453-1.751,20.727,20.727,0,0,1,3.516-2.746l.342.6c-1.015.5-2.019,1.01-3.056,1.461s-2.083.88-3.156,1.253a21.676,21.676,0,0,1-3.307.859,10.352,10.352,0,0,1-1.731.13,3.58,3.58,0,0,1-1.8-.412l.032.022a2.26,2.26,0,0,1-1.16-1.46,2.557,2.557,0,0,1,.447-1.79,7.156,7.156,0,0,1,1.119-1.338,11.8,11.8,0,0,1,1.32-1.11l.262.49a6.98,6.98,0,0,1-3.507.455,5.437,5.437,0,0,1-1.736-.5,5.877,5.877,0,0,1-1.488-1.02,2.007,2.007,0,0,1-.65-1.831,3.118,3.118,0,0,1,1.057-1.566,11.094,11.094,0,0,1,3.056-1.772l-.1.594a3.07,3.07,0,0,1-1.236-1.853,1.651,1.651,0,0,1,.4-1.185,3.328,3.328,0,0,1,.866-.719,8.764,8.764,0,0,1,1.932-.814,16.274,16.274,0,0,1,2.008-.469l.027,0h.015c3.507-.2,7.008-.475,10.492-.863,1.742-.191,3.48-.413,5.208-.68s3.47-.569,5.1-.979l.033-.008a.514.514,0,0,1,.144-.015c.44.019,1-.615,1.362-1.361a13.255,13.255,0,0,0,.875-2.454,32.9,32.9,0,0,0,.861-5.343,50.932,50.932,0,0,0-.23-10.894,26.719,26.719,0,0,0-1.143-5.249c-.275-.792-.7-1.71-.965-2.625a26.532,26.532,0,0,1-.689-2.77,52.6,52.6,0,0,1-.761-11.208,41.927,41.927,0,0,1,.5-5.608c.139-.927.319-1.845.51-2.759s.364-1.775.5-2.688a88.6,88.6,0,0,0,.8-10.981,32.669,32.669,0,0,0-.309-5.472c-.2-1.856-.321-3.7-.437-5.55q-.338-5.544-.509-11.089a.091.091,0,0,1,.181-.01Zm40.606,77.845a.816.816,0,0,1,.272-.619,2.744,2.744,0,0,1,.545-.427,7.5,7.5,0,0,1,1.216-.594,15.8,15.8,0,0,1,2.556-.716,28.246,28.246,0,0,1,10.459-.026,15.7,15.7,0,0,1,2.564.712,7.053,7.053,0,0,1,1.228.593,2.5,2.5,0,0,1,.556.451.737.737,0,0,1,.234.726.081.081,0,0,1-.1.055l-.008,0-.37-.152.427-.007-.108.052c-.076-.314-.52-.446-.887-.555a9.7,9.7,0,0,0-1.214-.219c-.826-.1-1.665-.159-2.5-.2s-1.68-.081-2.523-.085c-.841-.042-1.685-.028-2.528-.037q-2.529-.018-5.056.079c-.84.045-1.684.078-2.515.179a9.685,9.685,0,0,0-1.232.2C203.349,373.425,202.889,373.5,202.716,373.907Zm8.386,22.919a6.6,6.6,0,0,1-5.5-2.127,8.6,8.6,0,0,1-2.231-5.707,10.216,10.216,0,0,1,.523-3.035,23.586,23.586,0,0,1,1.064-2.795,8.308,8.308,0,0,1,1.621-2.543,5.716,5.716,0,0,1,2.689-1.559,5.277,5.277,0,0,1,1.626-.145,2.92,2.92,0,0,1,1.726.653,2.808,2.808,0,0,1,.228,3.7,3.615,3.615,0,0,1-.3.374l-.238.267c-.15.173-.3.346-.436.526a11.517,11.517,0,0,0-.774,1.1,7.1,7.1,0,0,0-1,2.313,3.215,3.215,0,0,0,.237,2.19,5.506,5.506,0,0,0,.69.991c.288.338.675.741.972,1.146a5.367,5.367,0,0,1,1.293,2.845,1.721,1.721,0,0,1-.184.812,1.544,1.544,0,0,1-.57.567A3.407,3.407,0,0,1,211.1,396.825Zm-.02-.18a2.946,2.946,0,0,0,1.306-.466,1.029,1.029,0,0,0,.413-1.111,4.316,4.316,0,0,0-1.656-2.06c-.367-.306-.741-.51-1.147-.851-.209-.182-.435-.345-.631-.552-.179-.225-.374-.44-.535-.685a4.766,4.766,0,0,1-.627-3.435,7.706,7.706,0,0,1,1.321-2.988,13.356,13.356,0,0,1,.976-1.222c.171-.194.351-.38.53-.563l.264-.261a1.909,1.909,0,0,0,.169-.186,1.346,1.346,0,0,0,.148-1.645,2.853,2.853,0,0,0-2.181-.583,4.3,4.3,0,0,0-2.436,1.03,5.608,5.608,0,0,0-1.5,2.321,11.072,11.072,0,0,0-.619,2.774,11.308,11.308,0,0,0,0,2.749,14.551,14.551,0,0,0,1.661,5.111,5.256,5.256,0,0,0,1.833,1.995,4.283,4.283,0,0,0,2.717.628Z" fill="#5504b0"/>
      <path id="Path_45384" data-name="Path 45384" d="M136.752,389c2.265-.155,4.546-.406,6.8-.781,1.127-.185,2.247-.413,3.351-.7a13.764,13.764,0,0,0,3.206-1.191,13.871,13.871,0,0,1-3.141,1.408c-1.092.365-2.205.669-3.326.929-2.244.527-4.508.928-6.8,1.238a.453.453,0,1,1-.121-.9l.028,0Zm2.894,5.69,14.045-6-13.665,6.822a.453.453,0,0,1-.4-.81Zm10.97,1.85,9.106-3.857-8.715,4.673a.453.453,0,1,1-.428-.8Zm62.314-100.5c.942,1.894,1.992,3.725,3.1,5.5a44.7,44.7,0,0,0,3.646,5.059,22.38,22.38,0,0,0,4.479,4.122,11.47,11.47,0,0,0,5.5,2.056l-.12.01a71.174,71.174,0,0,0,15.083-4.227c4.88-1.93,9.645-4.121,14.453-6.191l14.328-6.453c2.4-1.055,4.757-2.2,7.178-3.224,2.385-1.1,4.781-2.171,7.216-3.184a.091.091,0,0,1,.12.047.093.093,0,0,1-.035.113c-2.233,1.4-4.5,2.737-6.784,4.045s-4.628,2.508-6.96,3.731c-4.69,2.393-9.471,4.616-14.376,6.542-4.864,2.024-9.856,3.736-14.888,5.286l-7.524,2.383c-2.512.8-4.983,1.669-7.588,2.328a.3.3,0,0,1-.064.009h-.057a10.976,10.976,0,0,1-6.372-1.927,20.221,20.221,0,0,1-4.742-4.533,33.581,33.581,0,0,1-3.406-5.481,36.055,36.055,0,0,1-2.357-5.951.091.091,0,0,1,.062-.113.094.094,0,0,1,.108.05Zm12.49-24.858c.77,1.76,1.626,3.479,2.5,5.185s1.818,3.372,2.845,4.979a30.411,30.411,0,0,0,3.43,4.508,9.746,9.746,0,0,0,2.1,1.73,3.224,3.224,0,0,0,2.342.47.515.515,0,0,1,.076-.013l.032,0a84.612,84.612,0,0,0,10.748-1.678,93.634,93.634,0,0,0,10.488-2.888,74.481,74.481,0,0,0,10-4.183l2.39-1.271c.785-.443,1.537-.941,2.31-1.4l1.154-.7c.375-.248.734-.519,1.1-.778l2.2-1.568-.129.123,4.2-4.882,2.106-2.435,1.076-1.228a8.421,8.421,0,0,1,6.35-2.735c.6.015,1.089.056,1.639.083l6.427.407,3.213.207,1.607.1a4.544,4.544,0,0,1,.911.117,3.1,3.1,0,0,1,.9.409,2.986,2.986,0,0,1,1.167,1.552,3.205,3.205,0,0,1,0,1.883,4.819,4.819,0,0,1-2.071,2.821,4.6,4.6,0,0,1-1.643.643,7.716,7.716,0,0,1-1.69.061l-3.22-.086-6.439-.179.1-.166a6.635,6.635,0,0,1,.385,3.186,6.534,6.534,0,0,0-.593-3.086.116.116,0,0,1,.055-.155.128.128,0,0,1,.049-.011l6.439-.179,3.22-.086a6.962,6.962,0,0,0,1.516-.13,4.033,4.033,0,0,0,1.311-.585c1.572-1,2.374-3.625.793-4.535a1.956,1.956,0,0,0-.564-.232,3.49,3.49,0,0,0-.686-.057l-1.609-.051-3.218-.1-6.437-.21c-.522-.017-1.1-.052-1.578-.054a6.882,6.882,0,0,0-1.432.153,6.773,6.773,0,0,0-3.66,2.137l-1.025,1.211-2.078,2.459-4.171,4.906-.009.011a.771.771,0,0,1-.12.113,59.124,59.124,0,0,1-9.439,5.911,71.584,71.584,0,0,1-10.273,4.2,91.339,91.339,0,0,1-10.726,2.75,85.736,85.736,0,0,1-10.992,1.349l.108-.016a4.307,4.307,0,0,1-3.151-.679,10.709,10.709,0,0,1-2.27-1.983,27.5,27.5,0,0,1-3.314-4.806A69.267,69.267,0,0,1,225.421,271.177Z" fill="#5504b0"/>
      <path id="Path_45385" data-name="Path 45385" d="M321.739,246.552l-16.961,17.205c1.992.389,2.97,1.032,3.333,1.766a.128.128,0,0,0,.018.054c0,.009.009.009.009.018a2.056,2.056,0,0,1-.109,1.721c-.009.027-.018.045-.027.072a7.434,7.434,0,0,1-1.9,2.327l-.009.009a1.628,1.628,0,0,1-.534.263h-.018a10.163,10.163,0,0,1-2.228.326c-2.282.145-5.044,0-5.044,0L284.25,285.282l23.979,27.61,48.066-45.748ZM300.7,293.314a1.359,1.359,0,1,1,1.311-1.358A1.359,1.359,0,0,1,300.7,293.314Zm-2.173-13.592,23.906-25.364L343.3,268.475l-28.253,25.663Z" fill="#5504b0"/>
      <path id="Path_45386" data-name="Path 45386" d="M316.6,265.719l2.9-3.4,3.075-3.5.21-.239.285.185q2.766,1.791,5.5,3.636l.479.322-.429.387c-2.469,2.231-4.956,4.443-7.505,6.586l-.2.166-.177-.162C319.268,268.362,317.9,266.975,316.6,265.719Zm0,0c1.574,1.258,3.089,2.385,4.505,3.559l-.374,0c2.377-2.332,4.818-4.6,7.275-6.839l.051.71q-2.723-1.854-5.419-3.749l.495-.055-3.178,3.138Zm129.347-76.433a5.574,5.574,0,0,1,1.659-.793,7.507,7.507,0,0,1,1.815-.323,6.243,6.243,0,0,1,1.858.2,3.7,3.7,0,0,1,1.623.917,15.059,15.059,0,0,0-1.742-.221c-.568-.019-1.13-.02-1.7.009C448.317,189.12,447.179,189.256,445.943,189.287Zm3.043,6.466a1.359,1.359,0,1,0-1.312-1.358,1.359,1.359,0,0,0,1.312,1.358Zm-232.6-.682a5.576,5.576,0,0,1,1.659-.793,7.51,7.51,0,0,1,1.815-.323,6.244,6.244,0,0,1,1.858.2,3.7,3.7,0,0,1,1.623.917,15.078,15.078,0,0,0-1.742-.221c-.568-.019-1.13-.02-1.7.009C218.764,194.9,217.626,195.04,216.39,195.07Zm3.043,6.466a1.359,1.359,0,1,0-1.312-1.358,1.359,1.359,0,0,0,1.312,1.358Z" fill="#5504b0"/>
      <path id="Path_45387" data-name="Path 45387" d="M448.146,178.058a77.956,77.956,0,0,0,5.826,8.316,33.25,33.25,0,0,0,3.461,3.675,12.965,12.965,0,0,0,1.979,1.488,4.036,4.036,0,0,0,2.161.688l-.336.184a11.363,11.363,0,0,1,2.074-2.276,5.789,5.789,0,0,1,2.915-1.379A4.091,4.091,0,0,1,469.4,189.9a5.969,5.969,0,0,1,1.674,2.831,8.869,8.869,0,0,1,.186,3.188,11.7,11.7,0,0,1-.7,3.081,5.886,5.886,0,0,1-2.016,2.694,5.3,5.3,0,0,1-3.288.893l.835-.767c-.391,8.194-.99,16.4-1.134,24.592,0,1.023-.021,2.048.027,3.064,0,.513.06,1.009.1,1.511a3.117,3.117,0,0,0,.4,1.343,1.4,1.4,0,0,0,.931.819,2.992,2.992,0,0,0,1.366-.181,14.8,14.8,0,0,0,2.715-1.307,112.214,112.214,0,0,0,10.005-7.123l.005,0a.3.3,0,0,1,.063-.036,23.245,23.245,0,0,1,13.893-1.159c.57.162,1.155.284,1.716.48l1.655.586a4.6,4.6,0,0,0,1.444.324c.441-.023.651-.126.805-.42a2.885,2.885,0,0,0,.164-1.337,9.791,9.791,0,0,0-.238-1.586,26.006,26.006,0,0,0-1-3.205,65.609,65.609,0,0,0-2.762-6.247l-.388-.76c-.071-.132-.125-.249-.185-.341l-.219-.354-.906-1.48-1.8-2.968c-2.382-3.966-4.728-7.954-6.911-12.057-.539-1.032-1.079-2.062-1.588-3.122a18.584,18.584,0,0,1-1.351-3.457l-.1-.587-.025-.361c-.008-.231-.071-.509-.1-.761-.1-.526-.23-1.057-.389-1.585a21.052,21.052,0,0,0-1.19-3.1,16.854,16.854,0,0,0-9.124-9.105,14.018,14.018,0,0,0-6.571-.811,51.349,51.349,0,0,0-6.805.964,57.221,57.221,0,0,0-6.66,1.814c-.543.191-1.094.364-1.63.574a9.665,9.665,0,0,0-1.564.664,2.224,2.224,0,0,0-.607,2.948Zm-.154.095a2.426,2.426,0,0,1,.634-3.224,9.6,9.6,0,0,1,1.606-.709l1.622-.616c2.171-.8,4.386-1.484,6.626-2.09a52.563,52.563,0,0,1,6.846-1.337,15.155,15.155,0,0,1,7.09.485,15.521,15.521,0,0,1,6.145,3.732,20.6,20.6,0,0,1,4.189,5.832,22.885,22.885,0,0,1,1.331,3.347c.18.576.329,1.167.455,1.773.046.319.116.607.138.953l.037.5c.028.088.052.175.07.263a19.057,19.057,0,0,0,1.229,2.955c.489,1.024,1.019,2.039,1.548,3.055,2.169,4.045,4.448,8.054,6.758,12.043l1.748,2.984.881,1.487.23.386c.093.153.159.3.223.423l.388.788a60.908,60.908,0,0,1,2.729,6.465,27.483,27.483,0,0,1,.969,3.432,11.209,11.209,0,0,1,.226,1.842,4.152,4.152,0,0,1-.367,2.048,3.751,3.751,0,0,1-.376.511,2.38,2.38,0,0,1-.533.383,2.623,2.623,0,0,1-1.164.245,5.512,5.512,0,0,1-1.908-.468l-1.587-.633c-.521-.206-1.067-.34-1.6-.515a21.978,21.978,0,0,0-13.314.647l.068-.04c-3.3,2.449-6.6,4.917-10.152,7.042a15.284,15.284,0,0,1-2.815,1.381,3.5,3.5,0,0,1-1.657.211,2.04,2.04,0,0,1-1.354-1.087,3.828,3.828,0,0,1-.516-1.566c-.057-.521-.127-1.045-.144-1.56-.068-1.035-.1-2.064-.139-3.1-.105-4.12-.078-8.234-.028-12.347s.156-8.223.357-12.333v-.021a.785.785,0,0,1,.823-.746h.011a3.723,3.723,0,0,0,3.775-2.567,10.171,10.171,0,0,0,.632-2.644,7.434,7.434,0,0,0-.049-2.67c-.364-1.648-1.728-3.254-3.346-3.169-1.655.143-3.244,1.547-4.38,2.976l-.031.039a.389.389,0,0,1-.305.146,4.772,4.772,0,0,1-2.586-.929,13.617,13.617,0,0,1-2-1.668,37.585,37.585,0,0,1-3.331-3.891c-2.055-2.713-3.926-5.55-5.7-8.444Z" fill="#5504b0"/>
      <path id="Path_45388" data-name="Path 45388" d="M465.147,204.721a12.3,12.3,0,0,1-.794,2.468,15.7,15.7,0,0,1-1.213,2.3,9.767,9.767,0,0,1-1.691,2.02,4.363,4.363,0,0,1-1.134.744,1.734,1.734,0,0,1-1.332.075,3.047,3.047,0,0,0,1.963-1.315,20.7,20.7,0,0,0,1.435-2.016C463.3,207.594,464.135,206.134,465.147,204.721Zm-1.22,84.51a6.861,6.861,0,0,1,.5,2.092c-.734,1.911-3.975,8.286-3.975,8.286a3.8,3.8,0,0,1-1.395-.58c-4.211-2.5-12.868-12.415-15.829-15.892l-.063-.063a.5.5,0,0,0-.054-.073c-.579-.679-.915-1.078-.915-1.078C454.092,268.557,456.7,250.464,458,241.5s4.682-11.238,4.682-11.238l.054,1.829c-.009-.245-.036-.48-.054-.724a.256.256,0,0,1-.009.082q-.353,7.294-1.3,14.47c-.344,2.4-.743,4.79-1.25,7.145-.245,1.186-.552,2.345-.851,3.5a16.126,16.126,0,0,1-1.241,3.26c-.254.525-.534,1.014-.851,1.557a14.065,14.065,0,0,0-.842,1.748,15.8,15.8,0,0,0-1.005,3.731,18.9,18.9,0,0,0,.444,7.579,27.506,27.506,0,0,0,2.916,6.9c.326.525.625,1.069.969,1.585l1.059,1.521c.706,1,1.53,1.9,2.291,2.852A13.951,13.951,0,0,1,463.926,289.23Z" fill="#5504b0"/>
      <path id="Path_45389" data-name="Path 45389" d="M464.578,290.8c-.009.009,0,.009,0,.018v.009a1.992,1.992,0,0,1-.154.5,5.436,5.436,0,0,0-.027-1.15.069.069,0,0,0-.009-.036.231.231,0,0,1-.018-.063c-.063-.217-.136-.426-.208-.634-.018-.054-.036-.1-.054-.154-.1-.281-.208-.561-.317-.833a.781.781,0,0,0-.063-.154c-.073-.19-.154-.38-.235-.561s-.145-.344-.226-.507c-.109-.217-.208-.435-.317-.643v-.009c-.208-.417-.407-.788-.579-1.114-.109-.2-.217-.38-.308-.543a1.468,1.468,0,0,1-.09-.163.068.068,0,0,0-.018-.036c-.027-.036-.045-.073-.073-.109-.045-.081-.1-.163-.145-.235-.036-.054-.073-.118-.109-.172a.189.189,0,0,0-.036-.054,32.925,32.925,0,0,1-4.283-10.06,18.57,18.57,0,0,1-.235-6.955,14.728,14.728,0,0,1,1.675-4.854c.3-.525.625-1.1.9-1.666a18.182,18.182,0,0,0,1.313-3.595c.308-1.2.58-2.409.8-3.631a73.043,73.043,0,0,0,.96-7.326c.118-1.467.2-2.934.235-4.41a.113.113,0,0,0,.009-.054c.018-.525.027-1.059.036-1.594l.036,1.358Zm1.764,5.4a7.822,7.822,0,0,1,.453,2.766,7.736,7.736,0,0,1-.453,2.766,7.735,7.735,0,0,1-.452-2.766,7.823,7.823,0,0,1,.453-2.766Zm27.5-2.82a36.957,36.957,0,0,1,1.5,9.005q.346,4.552.456,9.114t.094,9.121c.032,3.044-.184,6.09-.283,9.118l-.877,18.2-.44,9.1-.515,9.1-.033-.269a10.748,10.748,0,0,1,.378,4.458,9.256,9.256,0,0,1-1.689,4.19c-.06.078-.126.162-.2.249l-.174.194-.351.386-.7.771-1.405,1.541-2.811,3.082-1.405,1.541-.7.771-.351.385c-.1.118-.192.229-.286.365a40.178,40.178,0,0,0-2.08,3.532,61.4,61.4,0,0,1-4.325,7.22,6.5,6.5,0,0,1-1.585,1.566,1.512,1.512,0,0,1-1.332.222,2.479,2.479,0,0,1-.327-.18l-.248-.237c-.127-.166-.226-.336-.336-.506a4.387,4.387,0,0,1-.386-2.224,9.455,9.455,0,0,1,.375-2.127,22.173,22.173,0,0,1,1.569-3.933l.488-.935a3.209,3.209,0,0,0,.362-.883,2.4,2.4,0,0,0,.041-.918,1.127,1.127,0,0,0-.334-.719c-.345-.283-1.092-.02-1.585.328a6.888,6.888,0,0,0-1.356,1.464c-.873,1.087-1.745,2.175-2.64,3.246s-1.807,2.129-2.767,3.149q-.717.768-1.49,1.492c-.261.239-.528.473-.808.7-.147.108-.285.221-.445.322a2.54,2.54,0,0,1-.247.149,1.054,1.054,0,0,1-.365.135l.048-.007a9.409,9.409,0,0,1-2.664.282,3.226,3.226,0,0,1-1.38-.367,1.937,1.937,0,0,1-.944-1.176,3.584,3.584,0,0,1,.469-2.76,5.72,5.72,0,0,1,.861-1.066l.891-.942,3.563-3.77,1.781-1.885a18.57,18.57,0,0,0,1.666-1.871,3.823,3.823,0,0,0,.484-1.037,1.437,1.437,0,0,0,.061-.86c.034-.04-.253-.114-.621-.02a3.151,3.151,0,0,0-1.012.432,23.033,23.033,0,0,0-1.883,1.644c-.643.587-1.312,1.149-1.975,1.716a42.264,42.264,0,0,1-4.236,3.131,19.174,19.174,0,0,1-2.356,1.288,10.2,10.2,0,0,1-1.3.494,6.412,6.412,0,0,1-.708.174,2.866,2.866,0,0,1-.9.037l.267,0a5.042,5.042,0,0,1-1.709.066,2.216,2.216,0,0,1-.993-.409,1.832,1.832,0,0,1-.657-1,3.23,3.23,0,0,1,.158-1.891,4.131,4.131,0,0,1,.975-1.487,4.954,4.954,0,0,1,.663-.544l.6-.422,1.191-.848,2.372-1.707c1.576-1.143,3.152-2.289,4.681-3.471a20.138,20.138,0,0,0,2.108-1.793,1.161,1.161,0,0,0,.164-.2l.065-.091a.16.16,0,0,1,.017-.047c.018-.024.009-.018,0,.008a.731.731,0,0,1,.005.095,1.052,1.052,0,0,0,.053.137c.037.045.052.061.058.07a2.428,2.428,0,0,0-.823-.109l.351-.089-7.106,3.564-3.553,1.782-.888.445c-.3.145-.561.3-.975.465a4.25,4.25,0,0,1-2.5.2,3.069,3.069,0,0,1-1.289-.619,2.145,2.145,0,0,1-.746-1.536,3.218,3.218,0,0,1,.265-1.379,4.1,4.1,0,0,1,.679-1.1,5.925,5.925,0,0,1,1.868-1.359l1.742-.959,6.967-3.837,6.966-3.837,3.483-1.918.871-.48c.271-.161.5-.324.752-.483a7.731,7.731,0,0,0,1.344-1.138,13.612,13.612,0,0,0,2.8-6.776,29.765,29.765,0,0,0,.189-7.678l-.006-.055v0l-.764-13.556-.715-13.555-.347-6.776c-.087-1.128-.063-2.261-.043-3.393l.063-3.4.262-13.576a.091.091,0,0,1,.181,0l.262,13.56.063,3.388c.01,1.13.016,2.259.133,3.386l.527,6.764,1.034,13.525.984,13.524-.006-.057a31.364,31.364,0,0,1-.065,8.172,14.944,14.944,0,0,1-3.185,7.723,9.565,9.565,0,0,1-1.669,1.433c-.3.2-.622.413-.92.589l-.868.482-3.473,1.929-6.947,3.858-6.947,3.858-1.737.964a4.361,4.361,0,0,0-1.351.927,2.2,2.2,0,0,0-.369.581,1.406,1.406,0,0,0-.129.553c.015.125.013.129.087.2a1.269,1.269,0,0,0,.492.22,2.388,2.388,0,0,0,1.4-.114c.2-.075.524-.246.82-.387l.892-.437L455.7,376.3l7.138-3.5.022-.011a.784.784,0,0,1,.329-.079,4.717,4.717,0,0,1,.91.068,2.306,2.306,0,0,1,1.076.449,1.318,1.318,0,0,1,.481.813,1.523,1.523,0,0,1-.1.813c-.041.1-.086.2-.133.286l-.143.21a2.579,2.579,0,0,1-.3.365,20.637,20.637,0,0,1-2.357,1.988c-1.572,1.191-3.162,2.332-4.763,3.46l-2.409,1.676-1.209.831-.605.414a3.384,3.384,0,0,0-.475.374,2.62,2.62,0,0,0-.637.931,1.858,1.858,0,0,0-.131.979c.057.192.119.26.471.344a3.7,3.7,0,0,0,1.2-.042l.267,0c-.058-.008.074,0,.134-.006l.253-.029a5.046,5.046,0,0,0,.552-.128,8.83,8.83,0,0,0,1.13-.411,18.186,18.186,0,0,0,2.21-1.163,41.045,41.045,0,0,0,4.171-2.932c.664-.54,1.333-1.075,1.981-1.638l.971-.845a7.561,7.561,0,0,1,1.1-.859,4.23,4.23,0,0,1,1.376-.544,2.461,2.461,0,0,1,.823-.038,1.2,1.2,0,0,1,.91.584,1.56,1.56,0,0,1,.16.93,3.752,3.752,0,0,1-.156.737,4.877,4.877,0,0,1-.636,1.291,18.678,18.678,0,0,1-1.813,1.967l-1.82,1.847-3.641,3.694a15.4,15.4,0,0,0-1.7,1.851,2.849,2.849,0,0,0-.428,2.2,1.716,1.716,0,0,0,1.734,1.088,8.823,8.823,0,0,0,2.477-.248l.048-.007c-.055.005.069-.028.116-.062a1.984,1.984,0,0,0,.2-.12c.136-.083.268-.19.4-.286.265-.208.523-.431.777-.66q.756-.7,1.471-1.451c.956-1,1.872-2.042,2.768-3.1s1.778-2.133,2.628-3.233A7.357,7.357,0,0,1,474,383.516a3.3,3.3,0,0,1,1.028-.5,1.428,1.428,0,0,1,1.259.164,1.7,1.7,0,0,1,.577,1.1,3.027,3.027,0,0,1-.038,1.156,3.849,3.849,0,0,1-.412,1.047l-.468.92a21.537,21.537,0,0,0-1.483,3.826,8.772,8.772,0,0,0-.33,1.978,3.51,3.51,0,0,0,.337,1.834c.342.594.632.728,1.15.372a5.819,5.819,0,0,0,1.323-1.4A60.888,60.888,0,0,0,481,386.815a40.222,40.222,0,0,1,2.065-3.712c.1-.153.225-.311.347-.465l.342-.395.684-.79,1.369-1.579,5.431-6.276a7.778,7.778,0,0,0,1.364-3.49,9.2,9.2,0,0,0-.358-3.8.813.813,0,0,1-.033-.269l.455-9.094.53-9.09,1.062-18.181c.173-3.037.462-6.048.5-9.078q.12-4.545.128-9.093c0-3.031-.007-6.063-.132-9.09-.064-1.513-.153-3.025-.3-4.53a21.531,21.531,0,0,0-.791-4.442l0-.01a.09.09,0,0,1,.171-.059Z" fill="#5504b0"/>
      <path id="Path_45390" data-name="Path 45390" d="M475.146,355.633c.163,9.055-10.568,11.872-10.568,11.872s-57.755,9.662-62.1-12.723,21.95-31.947,21.95-31.947c45.422-26.3,48.808-22.167,48.808-22.167l-.109,10.8a206.383,206.383,0,0,0,1.295,22.811s.4,8.612.625,16.725c-3.314-.661-6.647-1.159-9.979-1.594-3.486-.471-6.973-.842-10.468-1.186-3.5-.308-6.991-.6-10.495-.779s-7.018-.317-10.55-.272c3.459.7,6.937,1.222,10.414,1.684s6.973.833,10.468,1.168c3.5.308,6.991.6,10.5.779,3.359.19,6.728.317,10.115.281C475.092,352.645,475.119,354.175,475.146,355.633ZM461.7,284.154l.282.4-.009-.013.078.1-.011-.013a.177.177,0,0,1,.057.125l-.014-.057.092.143.006.01c.354.523.662,1.072.977,1.619a.18.18,0,0,1,.024.082v.034l-.027-.11c.314.555.6,1.12.869,1.707l-.025-.051c.106.215.153.342.219.489l.189.438c.126.289.233.6.349.9l.016.113c-.015-.15-.02-.1,0-.066l-.022-.053a.485.485,0,0,1,.036.093.506.506,0,0,1,.017.126l-.043-.184a.548.548,0,0,1,.064.247l-.017-.118.187.56-.11.429c.013-.032.063-.015.119-.242a.443.443,0,0,0-.05-.269c-.017-.029-.006-.013.01.019a.513.513,0,0,1,.048.2v.007l-.014-.111a12.536,12.536,0,0,1,.447,2.4,8.1,8.1,0,0,1-.012,1.263,6.882,6.882,0,0,1-.252,1.269l-.271-.709a13.621,13.621,0,0,0,1.951.766,12.593,12.593,0,0,0,2.042.446,7.064,7.064,0,0,0,2-.008,4.637,4.637,0,0,0,.921-.244l1.021-.419-.5.743-.124-2.783a.777.777,0,0,1,.856-.807l.022,0c1.776.194,3.555.354,5.332.509s3.555.27,5.333.36,3.557.155,5.329.1a23.053,23.053,0,0,0,5.193-.6l.054-.015a.424.424,0,0,1,.522.3.439.439,0,0,1,.015.126l-.03.987,0-.06.22,1.8-.366-.3a38.142,38.142,0,0,0,5.333-.515,30.827,30.827,0,0,0,5.165-1.4,25.99,25.99,0,0,0,8.968-5.613l-.173.39V288.7a.493.493,0,0,1,.152-.37l.024-.023a21.267,21.267,0,0,0,1.716-1.835c.266-.322.522-.651.761-.986a10.582,10.582,0,0,0,.646-1.009l-.071.47c-.622-2.493-1.186-5-1.851-7.479q-.93-3.737-1.959-7.448c-1.37-4.948-2.818-9.872-4.307-14.785-1.519-4.9-3.015-9.818-4.7-14.671q-2.444-7.31-5.179-14.531l0-.013a.1.1,0,0,1-.006-.038v-.009l.012.052-.226-.569a.091.091,0,0,1,.051-.117.1.1,0,0,1,.116.046l.281.535a.1.1,0,0,1,.011.041v.021l-.011-.05c2.316,4.613,4.326,9.369,6.244,14.159,1.849,4.816,3.644,9.66,5.207,14.58,1.613,4.9,2.993,9.883,4.253,14.888,1.3,5,2.382,10.045,3.388,15.105l.008.039a.6.6,0,0,1-.079.432,11.577,11.577,0,0,1-.807,1.121c-.281.35-.573.684-.874,1.009a22.387,22.387,0,0,1-1.914,1.827l.175-.393v.042a.49.49,0,0,1-.172.358,27.808,27.808,0,0,1-4.5,3.147,31.276,31.276,0,0,1-4.984,2.231,37.384,37.384,0,0,1-5.261,1.4,52.782,52.782,0,0,1-5.4.67.343.343,0,0,1-.363-.28l0-.022-.32-1.785,0-.035V294.4l-.03-.987.591.407a23.313,23.313,0,0,1-5.435.984c-1.813.154-3.628.217-5.439.2a92.645,92.645,0,0,1-10.807-.814l.878-.8.075,2.777a.773.773,0,0,1-.5.743l-1.036.387a6.1,6.1,0,0,1-1.221.282,8.465,8.465,0,0,1-2.4-.064,12.307,12.307,0,0,1-2.246-.593,14.677,14.677,0,0,1-2.113-.956.586.586,0,0,1-.277-.692l.006-.017a6.068,6.068,0,0,0,.255-1.017,7.1,7.1,0,0,0,.083-1.078,11.53,11.53,0,0,0-.263-2.227l-.007-.032a.332.332,0,0,1-.007-.079v-.007a.49.49,0,0,0,.046.19c.015.029.025.043.006.012a.453.453,0,0,1-.051-.276c.058-.232.111-.218.127-.254l-.11.429-.139-.562-.018-.119a.289.289,0,0,0,.028.12,1.027,1.027,0,0,1-.032-.123l-.011-.061a.419.419,0,0,0,.013.089.283.283,0,0,0,.023.058l-.022-.053a.561.561,0,0,1-.036-.192l.016.113c-.085-.295-.157-.59-.257-.888l-.147-.445c-.046-.146-.108-.315-.125-.39l-.025-.051c-.2-.575-.434-1.153-.689-1.716l-.01-.022a.2.2,0,0,1-.017-.088v-.009l.025.106c-.268-.563-.516-1.137-.8-1.7l.006.009-.089-.183-.014-.057c.012.064.005.026.021.052v0h0l-.009-.015-.066-.113-.009-.014-.225-.415,0-.005a.09.09,0,0,1,.154-.1Zm-13.25-105.507a15.317,15.317,0,0,0-2.481,5.7,19.233,19.233,0,0,0-.411,3.05,22.612,22.612,0,0,0,.1,3.075l.087.768a5.878,5.878,0,0,1,.042.93,7.323,7.323,0,0,1-.3,1.77,6.114,6.114,0,0,1-1.962,2.976,26.346,26.346,0,0,0-2.569,1.842,3.634,3.634,0,0,0-.818,1.158,2.226,2.226,0,0,0-.177,1.322l-.022-.049a1.71,1.71,0,0,0,.528.526,2.351,2.351,0,0,0,.764.317,4.293,4.293,0,0,0,1.731.025.271.271,0,0,1,.315.217l0,.029v.02c.062.842.117,1.685.2,2.524a27.051,27.051,0,0,0,1.621,7.29,3.718,3.718,0,0,0,1.152,1.7c.052.02.091.06.146.075l.266.086c.186.056.377.108.572.155.387.1.783.186,1.182.26a26.538,26.538,0,0,0,4.9.383c.825-.021,1.651-.038,2.477-.088l1.26-.091a5.4,5.4,0,0,1,1.526.1,4.962,4.962,0,0,1,2.648,1.575,7.288,7.288,0,0,1,1.39,2.5,16.552,16.552,0,0,1,.78,5.248,28.454,28.454,0,0,1-.435,5.158l0-.04-.083,1.148-.053.571c-.025.2-.025.352-.071.6a.085.085,0,0,1-.167-.008l0-.05-.208-2.247,0-.04a39.178,39.178,0,0,0-.233-5.015,18.342,18.342,0,0,0-1.1-4.724,4.126,4.126,0,0,0-2.844-2.8,4.551,4.551,0,0,0-1.007-.045l-1.28.086c-.869.049-1.741.072-2.613.045a28.28,28.28,0,0,1-5.219-.625c-.432-.1-.862-.208-1.291-.342-.214-.068-.428-.143-.643-.225l-.331-.135a2.9,2.9,0,0,1-.407-.238,3.532,3.532,0,0,1-1.028-1.222,7.686,7.686,0,0,1-.547-1.286c-1.008-3.449-.888-6.864-1.1-10.273l.32.265a5.362,5.362,0,0,1-1.95,0,3.53,3.53,0,0,1-.954-.354,2.268,2.268,0,0,1-.81-.73.162.162,0,0,1-.02-.043l0-.006a3.777,3.777,0,0,1,.867-3.386,23.012,23.012,0,0,1,2.4-2.184,5.6,5.6,0,0,0,1.363-2.407,5.881,5.881,0,0,0,.221-1.382,4.253,4.253,0,0,0-.008-.67l-.07-.827a16.484,16.484,0,0,1,.746-6.577,12.565,12.565,0,0,1,3.491-5.509.091.091,0,0,1,.133.122ZM519.4,291.322c-10.866,8.258-24.481,9.109-24.481,9.109s2.694,17.006-.883,46.092a23,23,0,0,0-.38,4.537,87.739,87.739,0,0,1,8.992-.208,83.15,83.15,0,0,1,9.354.67,30.09,30.09,0,0,0,12.179-8.259C536.351,326.529,519.4,291.322,519.4,291.322Zm-16.78,60.435c-2.988-.091-5.977-.235-8.965-.616.073.9.3,1.594.788,1.684l-1.186,14.353,16.58,1.078s-2.744-10.378,1.675-16.381l.489-.353a83.236,83.236,0,0,1-9.381.236Zm3.468,14.851a1.359,1.359,0,1,1,1.311-1.358,1.359,1.359,0,0,1-1.311,1.358Zm.978-12.985a1.359,1.359,0,1,1-1.312,1.358,1.359,1.359,0,0,1,1.312-1.358ZM506.088,359a1.359,1.359,0,1,1-1.311,1.358A1.359,1.359,0,0,1,506.088,359Z" fill="#5504b0"/>
      <path id="Path_45391" data-name="Path 45391" d="M524.166,343.175a22.408,22.408,0,0,1,7.056-.922,17.026,17.026,0,0,1,3.608.464,9.769,9.769,0,0,1,3.428,1.491,7.094,7.094,0,0,1,2.39,2.952c.241.622.36,1.145.6,1.64a6.4,6.4,0,0,0,.914,1.4,12.253,12.253,0,0,0,5.892,3.335,52.324,52.324,0,0,0,6.755,1.312c1.163.15,2.223.246,3.473.313a22.332,22.332,0,0,1,3.567.73,15.022,15.022,0,0,1,3.418,1.465,7.472,7.472,0,0,1,1.54,1.247,3.817,3.817,0,0,1,.983,1.9,3.555,3.555,0,0,1-.3,2.084,6.188,6.188,0,0,1-1.083,1.574,12.837,12.837,0,0,1-2.83,2.209.091.091,0,0,1-.125-.031.094.094,0,0,1,.014-.113,18.637,18.637,0,0,0,2.218-2.629,5.153,5.153,0,0,0,.7-1.429,2.538,2.538,0,0,0,.018-1.352,3.793,3.793,0,0,0-2-1.941,15.524,15.524,0,0,0-3.076-1.131,31.965,31.965,0,0,0-3.287-.717c-1.08-.109-2.343-.289-3.488-.5a28.994,28.994,0,0,1-6.831-2.063,19.458,19.458,0,0,1-5.985-3.87,8.714,8.714,0,0,1-1.132-1.435,6.153,6.153,0,0,1-.459-.811l-.39-.739a6.106,6.106,0,0,0-2.307-2.138,16.908,16.908,0,0,0-6.319-1.821,57.168,57.168,0,0,0-6.923-.3.091.091,0,0,1-.1-.087.1.1,0,0,1,.064-.092Z" fill="#5504b0"/>
      <path id="Path_45392" data-name="Path 45392" d="M514.188,350.685a32.851,32.851,0,0,0,3.559-.6,11.588,11.588,0,0,0,1.681-.52c.572-.241,1.153-.438,1.739-.63a22.125,22.125,0,0,1,7.344-1.205,9.965,9.965,0,0,1,3.815.817,6.991,6.991,0,0,1,1.707,1.143,6.336,6.336,0,0,1,1.242,1.66,7.9,7.9,0,0,1,.682,1.9l.232.741a6.258,6.258,0,0,0,.351.7,8.066,8.066,0,0,0,2.258,2.346,21.237,21.237,0,0,0,6.422,2.81c1.153.315,2.323.588,3.507.8s2.384.326,3.6.531a31.51,31.51,0,0,1,7.049,1.994,12.936,12.936,0,0,1,3.275,1.8,4.584,4.584,0,0,1,1.236,1.548,3.791,3.791,0,0,1,.319.981,5.974,5.974,0,0,1,.035,1.026,7.921,7.921,0,0,1-1.446,3.587,17.378,17.378,0,0,1-1.113,1.521l-.146.185-.218.209a2.16,2.16,0,0,1-.457.351,5.275,5.275,0,0,1-.937.473,24.026,24.026,0,0,1-7.43,1.061,78.885,78.885,0,0,1-14.643-1.134,43.171,43.171,0,0,1-7.192-1.828c-1.238-.485-2.2-.966-3.355-1.343-1.117-.393-2.267-.723-3.424-1.034-4.639-1.233-9.414-2.088-14.2-2.865a.091.091,0,0,1-.077-.1.093.093,0,0,1,.093-.078,89.991,89.991,0,0,1,14.511,1.668c1.2.266,2.394.55,3.581.908,1.172.322,2.417.855,3.454,1.2a48.041,48.041,0,0,0,6.932,1.568,95.744,95.744,0,0,0,14.3,1.335c1.193.006,2.383-.035,3.559-.121a14.9,14.9,0,0,0,3.386-.583,3.926,3.926,0,0,0,.7-.311,1.015,1.015,0,0,0,.272-.186l.12-.1.143-.166a16.823,16.823,0,0,0,1.125-1.341,6.894,6.894,0,0,0,1.474-2.989,3.189,3.189,0,0,0-1.12-2.86,10.737,10.737,0,0,0-3-1.816,25.115,25.115,0,0,0-6.9-1.98c-4.766-.488-9.817-.835-14.275-3.469a8.863,8.863,0,0,1-2.809-2.778,7.822,7.822,0,0,1-.467-.92l-.316-.992a7,7,0,0,0-.52-1.519c-.887-1.938-3.139-2.8-5.412-2.951a23.9,23.9,0,0,0-7.006.731c-.581.137-1.158.3-1.728.463a12.277,12.277,0,0,1-1.841.365,22.944,22.944,0,0,1-3.665.179.091.091,0,0,1-.088-.094.093.093,0,0,1,.082-.087Z" fill="#5504b0"/>
      <path id="Path_45393" data-name="Path 45393" d="M475.481,351.087c-.145,0-.29.009-.435,0v-.081Z" fill="#5504b0"/>
      <path id="Path_45394" data-name="Path 45394" d="M459.05,299.031a27.3,27.3,0,0,1-2.752,4.5,26.992,26.992,0,0,1-3.481,3.964,26.991,26.991,0,0,1,2.753-4.5,27.3,27.3,0,0,1,3.481-3.964Z" fill="#5504b0"/>
      <line id="Line_4" data-name="Line 4" x2="1.734" y2="5.144" transform="translate(516.906 286.178)" fill="none" stroke="#020202" stroke-linecap="round" stroke-linejoin="round" stroke-width="0.906"/>
      <path id="Path_45395" data-name="Path 45395" d="M443.228,283.136c-2.355,2.464-4.771,4.863-7.176,7.278l-3.676,3.557-.94.88c-.157.145-.347.3-.486.437l-.361.4c-.516.643-1.015,1.324-1.514,2.006-3.979,5.5-7.827,11.122-11.8,16.658-2,2.762-4.008,5.51-6.183,8.172-2.183,2.626-4.415,5.224-6.821,7.665a102.98,102.98,0,0,1-15.866,12.937.325.325,0,0,1-.064.032q-6.8,2.48-13.5,5.2l-3.333,1.386a21.536,21.536,0,0,0-3.149,1.547,4.935,4.935,0,0,0-1.186,1.041,1.09,1.09,0,0,0-.243.5.309.309,0,0,0,.1.3,2.746,2.746,0,0,0,1.218.608,11.888,11.888,0,0,0,1.661.3.74.74,0,0,1,.282,1.372l-.019.011a21.4,21.4,0,0,0-2.256,1.495,9.847,9.847,0,0,0-.987.852,2.654,2.654,0,0,0-.624.842c-.049.121-.015.112-.024.087a.827.827,0,0,0,.132.094,3.357,3.357,0,0,0,1.059.3,16.679,16.679,0,0,0,2.658.122.857.857,0,0,1,.533,1.539l-.02.015a11.251,11.251,0,0,0-1.354,1.2,3.976,3.976,0,0,0-.894,1.292c-.061.193-.036.275-.017.313a.684.684,0,0,0,.3.245,4.778,4.778,0,0,0,1.571.394.913.913,0,0,1,.74,1.254l-.008.018a1.3,1.3,0,0,0-.092.677c0,.044,0-.039-.025-.019.03-.007.031.006.066.017a.807.807,0,0,1,.16.018,6.419,6.419,0,0,0,2.169-.567c1.541-.683,3.164-1.507,4.7-2.334s3.062-1.733,4.514-2.69a19.413,19.413,0,0,0,3.9-3.223l.034-.039a.794.794,0,0,1,.169-.145,13.589,13.589,0,0,1,1.895-1.012,8.161,8.161,0,0,1,2.154-.634c.208-.013.409-.034.622-.033.224.021.447.042.67.079a6.393,6.393,0,0,1,.692.258,5.531,5.531,0,0,1,.613.47,3.8,3.8,0,0,1,.835,2.43.637.637,0,0,1-.049.32l-.025.057a28.125,28.125,0,0,0-2.469,8.011,4.028,4.028,0,0,0,.179,1.79,1.033,1.033,0,0,0,.445.5,4.887,4.887,0,0,0,.82.45c.7.495,1.674-1.032,2.424-2.144,1.539-2.4,3.073-4.943,4.559-7.35a22.148,22.148,0,0,0,2.057-8.285.091.091,0,0,1,.1-.085.092.092,0,0,1,.085.09,21.617,21.617,0,0,1-1.568,8.6c-.68,1.355-1.411,2.55-2.108,3.837-.706,1.266-1.4,2.536-2.148,3.8a15.331,15.331,0,0,1-1.266,1.882,3.132,3.132,0,0,1-1.034.863,1.9,1.9,0,0,1-.8.193,2.449,2.449,0,0,1-.742-.138,5.459,5.459,0,0,1-1.105-.546,2.391,2.391,0,0,1-.575-.456,2.521,2.521,0,0,1-.419-.621,5.3,5.3,0,0,1-.368-2.479,20.049,20.049,0,0,1,.876-4.433,41.966,41.966,0,0,1,1.5-4.181l-.074.377a2.255,2.255,0,0,0-.4-1.268,1.262,1.262,0,0,0-1.109-.2,6.472,6.472,0,0,0-1.637.517,11.885,11.885,0,0,0-1.6.877l.2-.184a21.024,21.024,0,0,1-4.263,3.646,53.494,53.494,0,0,1-4.671,2.792c-1.608.856-3.164,1.661-4.891,2.4a7.828,7.828,0,0,1-3,.667c-.168-.019-.336-.044-.5-.074a3.38,3.38,0,0,1-.558-.221,1.837,1.837,0,0,1-.813-1.056,2.386,2.386,0,0,1-.06-1.056,3.572,3.572,0,0,1,.241-.88l.732,1.271a6.386,6.386,0,0,1-2.211-.63,2.378,2.378,0,0,1-1.077-1.1,2.192,2.192,0,0,1-.03-1.608,5.538,5.538,0,0,1,1.317-1.934,12.85,12.85,0,0,1,1.612-1.386l.513,1.554a18.187,18.187,0,0,1-2.958-.187,4.784,4.784,0,0,1-1.619-.523,2.871,2.871,0,0,1-.443-.335,1.719,1.719,0,0,1-.376-.568,1.688,1.688,0,0,1,.021-1.279,4.087,4.087,0,0,1,1.036-1.405,11.38,11.38,0,0,1,1.168-.958,22.811,22.811,0,0,1,2.478-1.549l.263,1.383a13.228,13.228,0,0,1-1.886-.4,3.886,3.886,0,0,1-1.9-1.122,1.864,1.864,0,0,1-.336-.636,1.772,1.772,0,0,1-.025-.738l.082-.34.136-.28a2.5,2.5,0,0,1,.322-.483,6.142,6.142,0,0,1,1.563-1.285,22.427,22.427,0,0,1,3.4-1.512l3.4-1.261,13.645-4.861-.063.032a75.694,75.694,0,0,0,15.483-13.111c2.266-2.513,4.37-5.174,6.427-7.873,2.023-2.7,3.986-5.483,5.975-8.24l5.991-8.268c2.013-2.748,3.989-5.521,6.093-8.218.534-.671,1.068-1.342,1.646-2,.156-.171.345-.351.519-.521.169-.153.318-.261.479-.4l.959-.827,3.805-3.395L443.1,283a.091.091,0,0,1,.128.008A.092.092,0,0,1,443.228,283.136Z" fill="#5504b0"/>
      <path id="Path_45396" data-name="Path 45396" d="M443.225,283.132c-2.354,2.463-4.772,4.863-7.172,7.281l-3.676,3.559-.942.878c-.154.145-.344.3-.489.435l-.362.407c-.516.643-1.014,1.322-1.512,2l-11.79,16.662c-2,2.762-4.011,5.515-6.185,8.177-2.182,2.626-4.419,5.216-6.819,7.661a103.471,103.471,0,0,1-15.874,12.94.442.442,0,0,1-.063.027q-6.792,2.486-13.5,5.2c-1.114.453-2.228.915-3.332,1.385a22.557,22.557,0,0,0-3.142,1.548,4.8,4.8,0,0,0-1.186,1.041,1.637,1.637,0,0,0-.172.272l-.063.127a.439.439,0,0,1-.009.109.291.291,0,0,0,.1.3,2.746,2.746,0,0,0,1.223.607c.263.072.534.127.806.181l.417.054.435.063a.751.751,0,0,1,.634.842.771.771,0,0,1-.362.543h-.009c-.417.245-.842.507-1.25.788q-.516.34-1.005.706a11.484,11.484,0,0,0-.987.851,2.879,2.879,0,0,0-.625.842.241.241,0,0,0-.018.091l.009.009a.66.66,0,0,0,.118.081,3.22,3.22,0,0,0,1.059.3,13.536,13.536,0,0,0,2.037.127h.625a.858.858,0,0,1,.87.842.778.778,0,0,1-.082.353.731.731,0,0,1-.254.344l-.027.009a12.12,12.12,0,0,0-1.349,1.2,4.04,4.04,0,0,0-.9,1.295c-.063.19-.036.272-.018.308a.667.667,0,0,0,.308.245,3.884,3.884,0,0,0,1.24.353c.109.018.218.036.326.045a.911.911,0,0,1,.806,1.014.692.692,0,0,1-.063.235l-.009.018a1.71,1.71,0,0,0-.054.163v.009a1.009,1.009,0,0,0-.036.5.12.12,0,0,1,.045.009.89.89,0,0,1,.154.018,6.358,6.358,0,0,0,2.173-.57c1.539-.679,3.16-1.5,4.7-2.327,1.548-.842,3.061-1.739,4.51-2.7a19.605,19.605,0,0,0,3.9-3.215l.027-.045a.857.857,0,0,1,.172-.145,15.282,15.282,0,0,1,1.892-1.014,8.3,8.3,0,0,1,2.155-.634c.208-.009.407-.027.625-.027a5.88,5.88,0,0,1,.67.082,5.66,5.66,0,0,1,.688.254,5.272,5.272,0,0,1,.616.471,3.827,3.827,0,0,1,.833,2.427.689.689,0,0,1-.054.335l-.018.045a40.282,40.282,0,0,0-1.548,3.957,19.282,19.282,0,0,0-.924,4.057,4.114,4.114,0,0,0,.181,1.784.938.938,0,0,0,.181.281.382.382,0,0,0,.1.109l.054.045.109.072a4.4,4.4,0,0,0,.824.444c.7.5,1.675-1.032,2.418-2.137,1.539-2.409,3.079-4.944,4.564-7.353a22.243,22.243,0,0,0,2.056-8.286.087.087,0,0,1,.1-.082.084.084,0,0,1,.081.091,21.557,21.557,0,0,1-1.567,8.6c-.679,1.349-1.413,2.545-2.11,3.83-.706,1.268-1.395,2.545-2.146,3.8a15.588,15.588,0,0,1-1.268,1.884,3.111,3.111,0,0,1-1.032.86,1.918,1.918,0,0,1-.8.2,2.35,2.35,0,0,1-.742-.145,5.713,5.713,0,0,1-1.105-.543,2.23,2.23,0,0,1-.57-.453,2.317,2.317,0,0,1-.426-.625,5.3,5.3,0,0,1-.362-2.481,20.2,20.2,0,0,1,.869-4.428c.407-1.34.878-2.644,1.413-3.939a1.925,1.925,0,0,0-.38-1.132,1.23,1.23,0,0,0-1.1-.2,6.442,6.442,0,0,0-1.639.516,12.42,12.42,0,0,0-1.53.833,21.645,21.645,0,0,1-4.129,3.5,53.41,53.41,0,0,1-4.672,2.789c-1.6.86-3.16,1.666-4.89,2.409a7.856,7.856,0,0,1-3,.67c-.172-.027-.335-.045-.507-.082a3.869,3.869,0,0,1-.552-.217,1.952,1.952,0,0,1-.761-.887.63.63,0,0,1-.054-.172,2.333,2.333,0,0,1-.082-.842,5.011,5.011,0,0,1-.86-.281,3.168,3.168,0,0,1-.353-.172,2.378,2.378,0,0,1-1.078-1.1,2.067,2.067,0,0,1-.136-1.2,2.535,2.535,0,0,1,.109-.417,5.248,5.248,0,0,1,1.24-1.856c-.172-.009-.344-.036-.516-.054-.082-.009-.163-.027-.245-.036a4.818,4.818,0,0,1-1.621-.525,3.547,3.547,0,0,1-.444-.335,1.683,1.683,0,0,1-.371-.571,1.715,1.715,0,0,1,0-1.241c.009-.018.009-.027.018-.036a4.081,4.081,0,0,1,1.042-1.4c.263-.254.534-.48.815-.706.245-.172.489-.353.734-.525a.069.069,0,0,1,.036-.018c.145-.091.281-.19.426-.281-.009,0-.009,0-.018-.009a3.723,3.723,0,0,1-1.865-1.1,1.939,1.939,0,0,1-.344-.634,1.878,1.878,0,0,1-.018-.743,2.358,2.358,0,0,1,.081-.344l.136-.272a2.842,2.842,0,0,1,.317-.489,6.269,6.269,0,0,1,1.567-1.286,23.211,23.211,0,0,1,3.4-1.512l3.4-1.259,13.61-4.845a75.673,75.673,0,0,0,15.458-13.094c2.264-2.517,4.365-5.171,6.429-7.869,2.019-2.7,3.984-5.488,5.967-8.24,3.984-5.524,7.914-11.075,12.089-16.49.534-.67,1.068-1.34,1.648-2,.154-.172.344-.353.516-.525.172-.154.317-.263.48-.4l.96-.824,3.8-3.4,7.643-6.773a.1.1,0,0,1,.136.009A.085.085,0,0,1,443.225,283.132Z" fill="#5504b0"/>
      <path id="Path_45397" data-name="Path 45397" d="M382.28,348c-1.018.979-7.985,5.21-9.164,5.912q-1.446.856-2.938,1.612c-.231.116-.463.231-.7.347a29.228,29.228,0,0,1-2.838,1.242c.008-.015.008-.023.015-.031a3.475,3.475,0,0,1,.887-1.2c.224-.216.455-.409.694-.6.208-.147.416-.3.625-.447a.059.059,0,0,1,.031-.015c.116-.085.231-.17.347-.247.463-.324.933-.64,1.411-.956.555-.355,1.111-.7,1.681-1.033C373.509,351.875,380.931,348.431,382.28,348Zm0,4.132c-1.11,1.2-8.159,6.14-9.466,7.061l-.716.494c-1.086.74-2.188,1.439-3.323,2.114-.2.115-.395.23-.592.337a2.3,2.3,0,0,1,.1-.378,4.767,4.767,0,0,1,1.127-1.686c-.156-.008-.312-.033-.469-.049.617-.485,1.242-.962,1.875-1.423.346-.263.7-.51,1.053-.757C373.176,356.922,380.775,352.772,382.28,352.131Zm0,4c-.967,1.16-8.219,7.1-9.4,7.971-.235.177-.479.353-.723.521v.008c-.538.387-1.076.765-1.631,1.127a.584.584,0,0,1-.051-.16,2.167,2.167,0,0,1-.076-.782,4.653,4.653,0,0,1-.8-.261c.53-.446,2.06-1.631,2.279-1.8C373.052,361.873,380.892,356.735,382.28,356.13Zm98.334-125.35a14.254,14.254,0,0,1,9.081.708,20.389,20.389,0,0,1,7.345,5.591,42.3,42.3,0,0,1,5.21,7.63,71.245,71.245,0,0,1,3.886,8.355,144.747,144.747,0,0,1,5.481,17.532c1.522,5.93,2.622,11.951,3.645,17.973a.818.818,0,0,1,.011.127v.009l-.011-.126c1.414,8.787,2.393,17.633,3.169,26.485.362,4.429.763,8.853,1.049,13.287s.563,8.865.763,13.308l-.462-.246a26.842,26.842,0,0,1,9.015-3.161,23.893,23.893,0,0,1,9.568.293c1.578.372,3.079.969,4.542,1.433a26.752,26.752,0,0,0,4.535.951,16.441,16.441,0,0,0,4.552-.064,11.331,11.331,0,0,0,2.159-.572,6.979,6.979,0,0,0,1.831-1.012l.019,1.029a25.474,25.474,0,0,1-4.719-6.839c-1.258-2.415-2.379-4.88-3.448-7.365-2.129-4.972-4.06-10.009-5.957-15.054-3.812-10.085-7.322-20.263-11.035-30.36-3.755-10.077-7.445-20.186-11.875-29.965-1.1-2.452-2.254-4.848-3.56-7.177a57.087,57.087,0,0,0-4.405-6.67,42.047,42.047,0,0,0-11.758-10.741l-.007,0a.176.176,0,0,1-.087-.155v-.009l.093.158c-.622-.362-1.257-.7-1.907-1.013q-.487-.233-.986-.443c-.318-.142-.7-.266-.985-.369l-.051-.018a.085.085,0,0,1,.051-.163,10.308,10.308,0,0,1,1.068.339q.512.191,1.015.406c.67.286,1.327.6,1.972.944a.175.175,0,0,1,.093.151v.017l-.094-.159a40.92,40.92,0,0,1,12.343,10.456,64.722,64.722,0,0,1,8.48,13.858c4.6,9.777,8.6,19.809,12.332,29.917,3.755,10.1,7.352,20.255,11,30.374,1.843,5.051,3.717,10.091,5.779,15.039,1.04,2.468,2.09,4.934,3.284,7.313a24.508,24.508,0,0,0,4.268,6.487l.071.069a.638.638,0,0,1,.012.9.7.7,0,0,1-.065.058,9.728,9.728,0,0,1-4.735,1.828,17.633,17.633,0,0,1-4.889-.054,27.817,27.817,0,0,1-4.7-1.114c-1.533-.535-2.965-1.138-4.456-1.525a23.089,23.089,0,0,0-9.239-.49,25.873,25.873,0,0,0-8.8,2.988l-.012.007a.3.3,0,0,1-.411-.114.307.307,0,0,1-.039-.139c-.143-4.429-.408-8.862-.768-13.284s-.73-8.844-1.254-13.25c-.5-4.408-1.084-8.8-1.716-13.193-.608-4.392-1.391-8.754-2.129-13.122a.851.851,0,0,1-.011-.126V288.7l.011.126c-1.035-5.993-2.3-11.94-3.688-17.85a143.3,143.3,0,0,0-5.236-17.409c-2.172-5.625-4.69-11.226-8.523-15.874a20.511,20.511,0,0,0-6.877-5.646,14.27,14.27,0,0,0-8.795-1.087.091.091,0,0,1-.106-.072.093.093,0,0,1,.068-.105Zm-264.9-46.056s5.819,7.248,14.513,4.858c0,0,18.242-8.011.8-16.535s-18.057-6.484-24.74-7.792c-1.767-.346-13.816-3.434-20.258,4.4a13.917,13.917,0,0,0-2.911,10.525c.122,1.011.265,2.108.416,3.076a13.768,13.768,0,0,1-.087,4.738,46.316,46.316,0,0,0,.55,19.513s10.782,1.6,16.929-6.049c0,0,1.206-13.559,8.618-4.7C209.541,196.758,215.713,199.067,215.713,184.724Z" fill="#5504b0"/>
      <path id="Path_45398" data-name="Path 45398" d="M468.49,276.571c-.127-.67-.245-1.349-.371-2.019-.027-.136-.045-.272-.072-.408" fill="none"/>
      <path id="Path_45399" data-name="Path 45399" d="M443.255,206.154a16.36,16.36,0,0,0,3.352.041,4.837,4.837,0,0,0,1.475-.462,6.389,6.389,0,0,0,1.338-1.012,2.837,2.837,0,0,1-.934,1.592,3.555,3.555,0,0,1-1.749.778,4.76,4.76,0,0,1-1.857-.133A4.262,4.262,0,0,1,443.255,206.154ZM221.374,215.3a3.773,3.773,0,0,1-3.283,3.733,3.71,3.71,0,0,1-2.871-.862,3.793,3.793,0,0,1,0-5.745,3.7,3.7,0,0,1,2.874-.864A3.778,3.778,0,0,1,221.374,215.3Zm0,0a2.908,2.908,0,0,0-1.051-2.232,2.8,2.8,0,0,0-2.232-.6,2.873,2.873,0,0,0,0,5.66,2.8,2.8,0,0,0,2.232-.6,2.911,2.911,0,0,0,1.05-2.233Z" fill="#5504b0"/>
      <path id="Path_45400" data-name="Path 45400" d="M493.655,351.06a.193.193,0,0,1,0,.072c-.136-.009-.263-.027-.4-.045C493.392,351.078,493.519,351.06,493.655,351.06Zm-31.7-66.339a.069.069,0,0,1,.018.036c-.036-.054-.063-.1-.091-.145C461.907,284.648,461.925,284.684,461.952,284.721Z" fill="#5504b0"/>
      <path id="Path_45401" data-name="Path 45401" d="M468.49,276.571c-.127-.67-.245-1.349-.371-2.019-.027-.136-.045-.272-.072-.408" fill="none"/>
      <path id="Path_45402" data-name="Path 45402" d="M549.935,338.895a1.359,1.359,0,1,0-1.313-1.358A1.359,1.359,0,0,0,549.935,338.895Zm-6.846-1.63a1.359,1.359,0,1,0-1.312-1.358,1.359,1.359,0,0,0,1.312,1.358Zm-6.194-1.63a1.359,1.359,0,1,0-1.312-1.358A1.359,1.359,0,0,0,536.9,335.635Zm-6.194,0a1.359,1.359,0,1,0-1.312-1.358A1.359,1.359,0,0,0,530.7,335.635Z" fill="#5504b0"/>
      <path id="Path_45403" data-name="Path 45403" d="M330.477,264.288a15.317,15.317,0,0,1,3.518,1.779,15.141,15.141,0,0,1,3.019,2.535,15.144,15.144,0,0,1-3.517-1.779,15.318,15.318,0,0,1-3.019-2.535Zm-2.885,3.7a15.076,15.076,0,0,1,3.491,1.762,14.905,14.905,0,0,1,2.993,2.517,14.9,14.9,0,0,1-3.491-1.762,15.073,15.073,0,0,1-2.993-2.517Zm-4.322,3.151a21.7,21.7,0,0,1,4.153,2.2,21.45,21.45,0,0,1,3.654,2.954,21.454,21.454,0,0,1-4.153-2.2,21.7,21.7,0,0,1-3.654-2.954Zm-14.418,2.034a73.206,73.206,0,0,1,7.458,4.38,72.338,72.338,0,0,1,6.96,5.135,72.344,72.344,0,0,1-7.458-4.38A73.209,73.209,0,0,1,308.852,273.168Zm-2.938,3.66a73.2,73.2,0,0,1,7.458,4.38,72.349,72.349,0,0,1,6.96,5.135,72.353,72.353,0,0,1-7.458-4.38,73.2,73.2,0,0,1-6.96-5.135Zm-3,4.024a73.19,73.19,0,0,1,7.458,4.38,72.331,72.331,0,0,1,6.96,5.135,72.336,72.336,0,0,1-7.458-4.38,73.2,73.2,0,0,1-6.96-5.135Zm9.533-11.012a73.2,73.2,0,0,1,7.458,4.38,72.342,72.342,0,0,1,6.96,5.135,72.341,72.341,0,0,1-7.458-4.38,73.194,73.194,0,0,1-6.96-5.135Zm1.045-87.4a32.254,32.254,0,0,0,1.592-7.863,29.328,29.328,0,0,0,.053-4.014c-.022-.669-.149-1.331-.218-2a15.05,15.05,0,0,0-.315-1.979l-.439-1.956c-.158-.648-.4-1.273-.6-1.911a32.481,32.481,0,0,0-1.5-3.707,31.893,31.893,0,0,0-4.4-6.631l-.636-.766c-.225-.244-.469-.47-.7-.706l-1.414-1.4-1.54-1.26-.771-.628c-.267-.2-.551-.369-.826-.554l-1.659-1.1c-.571-.334-1.165-.632-1.746-.95a30.831,30.831,0,0,0-3.625-1.63,31.629,31.629,0,0,0-15.691-1.55,30.937,30.937,0,0,0-3.889.911c-.632.209-1.29.351-1.9.615l-1.853.76A30.6,30.6,0,0,0,253.9,176.97a30.778,30.778,0,0,0,6.476,14.364l.149.183-.079.227-4.907,14.123-.549-.631,19.7-3.976.121-.024.119.038a31.209,31.209,0,0,0,23.027-1.557,30.346,30.346,0,0,0,15.545-17.277Zm.088.031A31.8,31.8,0,0,1,298.19,200.2a30.953,30.953,0,0,1-23.559,1.976l.239.013-19.694,3.988-.834.169.285-.8,5.009-14.087.07.409a31.362,31.362,0,0,1-4.657-30.776,31.952,31.952,0,0,1,23.918-19.8,31.224,31.224,0,0,1,16.061,1.343,30.58,30.58,0,0,1,13.2,9.283c.424.531.865,1.049,1.271,1.593l1.113,1.707a14.021,14.021,0,0,1,1.016,1.762c.307.6.645,1.194.926,1.81a33.279,33.279,0,0,1,1.42,3.8c.183.651.414,1.289.557,1.949l.394,1.989a32.192,32.192,0,0,1-1.337,15.941Z" fill="#5504b0"/>
    </g>
  </g>
</svg>
