<svg xmlns="http://www.w3.org/2000/svg" xmlns:xlink="http://www.w3.org/1999/xlink" width="618.534" height="481.73" xmlns:v="https://vecta.io/nano"><style><![CDATA[.B{fill:#263238}.C{fill:#e0e0e0}.D{fill:#ebebeb}.E{fill:#fbd206}.F{fill:#f5f5f5}.G{fill:#fafafa}]]></style><path d="M101.051 144.521L29.993 258.053l64.453-2.969v35l71.568-118.089-64.959 8.578z" class="E"/><path d="M415.831 120.54h129.144v115.54H415.831z" class="G"/><g class="C"><path d="M544.975 236.08l-.033-2.145-.034-6.191-.076-23.453-.15-83.751.292.293-129.132.052h-.011l.345-.345-.041 115.539-.3-.3 93.406.153 26.345.08 6.974.036 1.8.017.62.018-.586.017-1.765.017-6.915.036-26.277.08-93.6.153h-.3v-.305l-.041-115.539v-.345h.356l129.132.052h.294v.293l-.15 83.937-.076 23.387-.034 6.135-.043 2.079zm-79.626-95.011c0 .191-6.8.345-15.18.345s-15.183-.154-15.183-.345 6.8-.345 15.183-.345 15.18.155 15.18.345zm54.72 8.675c0 .191-18.674.345-41.705.345s-41.71-.154-41.71-.345 18.671-.345 41.71-.345l41.705.345z"/><use xlink:href="#B"/><use xlink:href="#B" x="13.393"/><use xlink:href="#B" x="27.033" y="-0.247"/><use xlink:href="#B" x="40.179"/><use xlink:href="#B" x="53.572"/><use xlink:href="#B" x="66.964"/></g><g class="D"><use xlink:href="#B" x="80.357"/><use xlink:href="#B" y="11.567"/></g><use xlink:href="#B" x="13.393" y="11.567" class="C"/><use xlink:href="#B" x="26.786" y="11.567" class="D"/><g class="C"><use xlink:href="#B" x="40.179" y="11.567"/><use xlink:href="#B" x="53.572" y="11.567"/><use xlink:href="#B" x="67.211" y="11.32"/><use xlink:href="#B" x="80.357" y="11.567"/><use xlink:href="#B" y="23.134"/><use xlink:href="#B" x="13.64" y="22.887"/><use xlink:href="#B" x="26.786" y="23.134"/></g><use xlink:href="#B" x="40.179" y="23.134" class="D"/><g class="C"><use xlink:href="#B" x="53.572" y="23.134"/><use xlink:href="#B" x="66.964" y="23.134"/><use xlink:href="#B" x="80.357" y="23.134"/><use xlink:href="#B" y="34.701"/><use xlink:href="#B" x="13.393" y="34.701"/><use xlink:href="#B" x="26.786" y="34.701"/><use xlink:href="#B" x="40.426" y="34.454"/><use xlink:href="#B" x="53.572" y="34.701"/></g><use xlink:href="#B" x="66.964" y="34.701" class="D"/><g class="C"><use xlink:href="#B" x="80.357" y="34.701"/><use xlink:href="#B" y="46.268"/></g><use xlink:href="#B" x="13.393" y="46.268" class="D"/><g class="C"><use xlink:href="#B" x="26.786" y="46.268"/><use xlink:href="#B" x="40.179" y="46.268"/><use xlink:href="#B" x="53.572" y="46.268"/><use xlink:href="#B" x="67.211" y="46.021"/><use xlink:href="#B" x="80.357" y="46.268"/><path d="M457.263 51.938s22.978.323 13.146 45.813-8.564 54.093-8.564 72.089c0 21.086 16.992 28.637 16.992 28.637h-31.16L424.758 92.294V51.938z"/><path d="M464.018 410.083H149.375l2.8-307.831 296.361-15.489z"/></g><path d="M453.219 402.137H138.575l2.8-307.832 305.506-5.965z" class="D"/><path d="M446.695 393.552H132.688V85.72l314.2-.734z" class="G"/><path d="M446.695 393.553l-.147-308.567.338.338-313.7.786h-.493l.391-.391-.053 307.83-.338-.338 314.006.34-314.006.34h-.34v-.341L132.3 85.72v-.391h.391.493l313.7-.679h.34v.338l-.529 308.565z" class="B"/><path d="M446.885 84.156c-16.22-18.887 2.6-32.868 8.947-33.163l-298.992-.17a25.18 25.18 0 0 0-24.833 29.483c.295 1.587.7 3.151 1.213 4.681" class="F"/><path d="M454.815 198.477a1.96 1.96 0 0 1 .41-.033l1.207-.033 4.7-.062 17.709-.11-.071.466c-2.684-.827-5.151-2.24-7.223-4.137a23.53 23.53 0 0 1-5.392-7.683 51.39 51.39 0 0 1-3.223-9.831l-1.1-5.386-.434-2.8c-.132-.957-.204-1.922-.216-2.888a107.12 107.12 0 0 1 .4-11.964c.3-4.092.757-8.281 1.252-12.561 1.025-8.555 2.313-17.463 3.829-26.593.622-3.9 1.413-7.752 2.057-11.526.618-3.791 1.124-7.55 1.6-11.243q.667-5.549 1.309-10.892c.191-1.785.437-3.542.478-5.265a31.72 31.72 0 0 0-.287-5.127 30.77 30.77 0 0 0-2.834-9.437 18.83 18.83 0 0 0-5.74-7.16 11.3 11.3 0 0 0-8.173-1.826 15 15 0 0 0-7.278 3.023 17.94 17.94 0 0 0-4.544 5.623 24.2 24.2 0 0 0-2.206 6.122 15.98 15.98 0 0 0 1.195 10.179 33.87 33.87 0 0 0 3.31 5.751l1.01 1.41a3.46 3.46 0 0 1 .331.491 3.18 3.18 0 0 1-.394-.443c-.254-.3-.612-.757-1.074-1.364-1.353-1.778-2.513-3.695-3.461-5.719a16.22 16.22 0 0 1-1.345-10.394 24.48 24.48 0 0 1 2.194-6.262 18.38 18.38 0 0 1 4.639-5.826 15.55 15.55 0 0 1 7.539-3.189 11.9 11.9 0 0 1 8.625 1.89 19.43 19.43 0 0 1 5.988 7.389c1.49 3.035 2.481 6.292 2.932 9.643.244 1.737.347 3.491.308 5.244-.039 1.785-.284 3.551-.47 5.33q-.6 5.349-1.291 10.905l-1.591 11.273-2.054 11.529c-1.515 9.118-2.809 18.016-3.845 26.554-.5 4.271-.965 8.451-1.276 12.528-.365 3.949-.511 7.915-.436 11.88a22.16 22.16 0 0 0 .2 2.827c.074.927.26 1.853.418 2.768.326 1.829.678 3.618 1.074 5.359a51.02 51.02 0 0 0 3.132 9.725 23.06 23.06 0 0 0 5.214 7.538 18.54 18.54 0 0 0 6.994 4.08l1.471.475-1.54-.009-17.709-.111-4.7-.062-1.207-.033a1.84 1.84 0 0 1-.411-.033zM261.154 60.404c.122.086-.772 1.282-1.663 3.465a19.7 19.7 0 0 0-1.127 3.963c-.577 3.332-.315 6.756.763 9.961a19.7 19.7 0 0 0 1.721 3.745c1.213 2.021 2.28 3.067 2.171 3.169-.038.039-.325-.2-.816-.664a12.8 12.8 0 0 1-1.823-2.209c-.797-1.183-1.446-2.459-1.934-3.8a19.32 19.32 0 0 1-.792-10.331c.277-1.399.724-2.76 1.33-4.051a12.79 12.79 0 0 1 1.465-2.463c.415-.54.663-.817.705-.785zm-7.465-10.644a32.09 32.09 0 0 0-3.972 4.852 19.87 19.87 0 0 0 5.005 26.84 32.2 32.2 0 0 0 5.452 3.093 5.94 5.94 0 0 1-1.65-.452 18.01 18.01 0 0 1-4.129-2.194 19.84 19.84 0 0 1-5.146-27.586 17.94 17.94 0 0 1 3.06-3.536 5.89 5.89 0 0 1 1.38-1.017zm168.996 240.296l-.984.041-2.885.039-11.1.074-40.816.125-134.66.114-58.073-.02h-.374v-.373l.14-95.061.108-27.466.06-7.33.032-1.89.033-.64a10.13 10.13 0 0 0 .032.64l.032 1.89.062 7.33.108 27.466.14 95.061-.373-.371 58.073-.02 134.66.114 40.816.125 11.1.074 2.885.039a17.75 17.75 0 0 1 .984.039z" class="B"/><path d="M194.365 257.35h25.104v25.104h-25.104zm36.802-17.947h25.104v43.05h-25.104zm36.95-20.387h25.104v63.437h-25.104zm35.82-22.693h25.104v86.131h-25.104zm36.655-29.057h25.104v115.188h-25.104zm36.379-22.16h25.104v136.156h-25.104z" class="E"/><g class="B"><path d="M194.365 231.612a1.9 1.9 0 0 1 .32-.248l.978-.673 3.824-2.559 14.385-9.484 49.817-32.559.576-.377v.691l.009 11.236-.6-.319 19.631-13.164 69.276-46.283 21.042-13.951 5.743-3.76 1.5-.962a3.33 3.33 0 0 1 .527-.305 3.6 3.6 0 0 1-.482.371l-1.462 1.026-5.661 3.881-20.9 14.158-69.148 46.474-19.64 13.15-.6.4v-.72l.011-11.236.577.313-49.969 32.324-14.5 9.3-3.892 2.457-1.013.621c-.109.078-.226.145-.349.198z"/><path d="M381.404 129.519a12.96 12.96 0 0 1-.266-3.1l-.123-7.587.389.389h-.959a262.1 262.1 0 0 1-8.233-.114 14.87 14.87 0 0 1-3.41-.277 14.87 14.87 0 0 1 3.41-.277l8.233-.114h.959.391v.389l-.125 7.587a12.98 12.98 0 0 1-.266 3.104zM248.749 310.303c0 .215-7.76.391-17.329.391s-17.331-.176-17.331-.391 7.758-.392 17.331-.392 17.329.176 17.329.392zm-17.798 11.865c-.216 0-.392-1.818-.392-4.059s.176-4.06.392-4.06.391 1.817.391 4.06-.175 4.059-.391 4.059zm42.464 4.06c0 .216-20.832.391-46.522.391s-46.526-.174-46.526-.391 20.827-.391 46.526-.391l46.522.391zm-92.423 11.552c-.216 0-.392-2.517-.392-5.62s.176-5.62.392-5.62.391 2.516.391 5.62-.176 5.62-.391 5.62z"/><path d="M214.089 336.531c-.216 0-.391-2.167-.391-4.84s.174-4.839.391-4.839.392 2.165.392 4.839-.176 4.84-.392 4.84zm34.035.626c-.216 0-.391-2.377-.391-5.309s.174-5.308.391-5.308.392 2.376.392 5.308-.176 5.309-.392 5.309zm25.916-.001c-.216 0-.392-2.448-.392-5.465s.176-5.464.392-5.464.391 2.446.391 5.464-.176 5.465-.391 5.465zm-81.495 3.747c0 .216-5.034.391-11.24.391s-11.242-.174-11.242-.391 5.033-.391 11.242-.391 11.24.174 11.24.391zm28.725 0c0 .216-3.844.391-8.586.391s-8.586-.174-8.586-.391 3.844-.391 8.586-.391l8.586.391zm36.533.936c0 .216-4.125.392-9.212.392s-9.212-.176-9.212-.392 4.123-.391 9.212-.391l9.212.391zm29.664-1.561c0 .216-4.4.392-9.835.392s-9.837-.176-9.837-.392 4.4-.391 9.837-.391l9.835.391zm-106.164 11.554c-.215 0-.391-1.468-.391-3.279s.176-3.279.391-3.279.392 1.468.392 3.279-.176 3.279-.392 3.279z"/><path d="M202.676 351.832c0 .215-9.088.391-20.3.391s-20.3-.176-20.3-.391 9.085-.392 20.3-.392 20.3.176 20.3.392z"/><path d="M202.676 361.203c-.216 0-.392-2.1-.392-4.682s.176-4.684.392-4.684.391 2.1.391 4.684-.174 4.682-.391 4.682zm-40.592.62c-.216 0-.391-2.238-.391-5s.174-4.995.391-4.995.391 2.236.391 4.995-.175 5-.391 5zm86.871-9.991c-.216 0-.392-1.468-.392-3.279s.176-3.279.392-3.279.391 1.468.391 3.279-.172 3.279-.391 3.279z"/><path d="M298.299 351.832c0 .215-15.35.391-34.279.391s-34.284-.176-34.284-.391 15.347-.392 34.284-.392l34.279.392z"/><path d="M270.324 361.203c-.216 0-.392-2.1-.392-4.682s.176-4.684.392-4.684.391 2.1.391 4.684-.173 4.682-.391 4.682zm29.375 0c-.216 0-.391-2.1-.391-4.682s.174-4.684.391-4.684.391 2.1.391 4.684-.175 4.682-.391 4.682zm-69.964.62c-.216 0-.391-2.238-.391-5s.174-4.995.391-4.995.392 2.236.392 4.995-.176 5-.392 5zm-59.651 5.757c0 .216-3.582.391-8 .391s-8-.174-8-.391 3.581-.391 8-.391l8 .391zm39.751-1.145c0 .215-3.871.391-8.645.391s-8.645-.176-8.645-.391 3.869-.392 8.645-.392l8.645.392zm28.728 0c0 .215-3.408.391-7.613.391s-7.614-.176-7.614-.391 3.408-.392 7.614-.392 7.613.176 7.613.392zm38.718 0c0 .215-3.7.391-8.257.391s-8.259-.176-8.259-.391 3.7-.392 8.259-.392l8.257.392zm30.97-1.034c0 .216-3.755.392-8.387.392s-8.388-.176-8.388-.392 3.755-.391 8.388-.391l8.387.391zm114.208 6.092H316.45v-65.641h106.009zm-105.932-.072h105.858v-65.494H316.527z"/></g><path d="M396.847 353.289c-7.347-2.785-15.795 4.917-23 1.776-4.19-1.827-6.09-6.567-8.143-10.651s-5.59-8.393-10.137-7.919c-4.586.479-8.293 5.788-12.723 4.508-2.792-.805-4.187-3.9-4.887-6.723s-1.186-5.939-3.313-7.916-6.565-1.449-6.9 1.438v34.757h82.839s-11.194-8.301-13.736-9.27z" class="E"/><path d="M412.799 362.564c0 .074-20.079.134-44.842.134s-44.846-.06-44.846-.134 20.074-.135 44.846-.135l44.842.135z" class="C"/><g class="B"><path d="M412.799 347.382c0 .075-20.079.135-44.842.135s-44.846-.06-44.846-.135 20.074-.135 44.846-.135l44.842.135zm0-15.181c0 .075-20.079.135-44.842.135s-44.846-.06-44.846-.135 20.074-.134 44.846-.134l44.842.134zm0-14.428c0 .074-20.079.135-44.842.135s-44.846-.062-44.846-.135 20.074-.135 44.846-.135l44.842.135zm-238.62-210.497a.6.6 0 0 1 .146-.009h.43c.553.002 1.105.052 1.65.149a9.05 9.05 0 0 1 2.5.854 8.26 8.26 0 0 1 2.661 2.286 9.55 9.55 0 0 1 1.752 3.9c.241 1.657.029 3.348-.616 4.893a14.48 14.48 0 0 1-1.214 2.409 25.62 25.62 0 0 0-1.372 2.427c-.866 1.764-1.484 3.64-1.835 5.574l-.023.131h-.128l-3.927-.095-4.117-.1h-.146v-.149a11.76 11.76 0 0 0-1.689-5.507l-1.393-2.409a23.08 23.08 0 0 1-1.3-2.334 7.67 7.67 0 0 1-.428-4.864c.288-1.403.864-2.731 1.692-3.9a7.68 7.68 0 0 1 2.681-2.224 9.73 9.73 0 0 1 2.478-.845c.538-.109 1.084-.176 1.633-.2h.427a.63.63 0 0 1 .144.015c-.047.01-.096.015-.144.014l-.424.027c-.543.046-1.082.129-1.614.249a9.81 9.81 0 0 0-2.428.878c-1.021.526-1.908 1.279-2.594 2.2a10.2 10.2 0 0 0-1.621 3.826 7.45 7.45 0 0 0 .44 4.709c.389.791.823 1.559 1.3 2.3l1.4 2.412a11.99 11.99 0 0 1 1.736 5.65l-.144-.152 4.117.1 3.927.1-.152.129a21.41 21.41 0 0 1 1.872-5.659 26.24 26.24 0 0 1 1.393-2.446c.472-.748.874-1.539 1.2-2.361a9.05 9.05 0 0 0 .63-4.756 9.42 9.42 0 0 0-1.679-3.823 8.19 8.19 0 0 0-2.577-2.268 9.2 9.2 0 0 0-2.442-.884 11.33 11.33 0 0 0-1.632-.2l-.427-.029a.49.49 0 0 1-.143-.018z"/><path d="M175.327 129.429s-.009-.042-.02-.125l-.045-.371-.159-1.428-.41-5.265-.033-1.752.066-1.9c.047-.684.226-1.353.527-1.97a3.02 3.02 0 0 1 1.578-1.456c.751-.269 1.591-.073 2.146.5a1.51 1.51 0 0 1 .419 1.107 1.93 1.93 0 0 1-.452 1.121c-.265.32-.604.572-.987.733s-.787.28-1.2.344c-.832.138-1.675.203-2.519.192-.845-.003-1.687-.078-2.519-.224a4.76 4.76 0 0 1-1.183-.394c-.371-.184-.701-.44-.972-.753a2.31 2.31 0 0 1-.533-1.086 1.79 1.79 0 0 1 .189-1.171 1.6 1.6 0 0 1 .863-.775c.374-.123.782-.087 1.129.1a2.16 2.16 0 0 1 .816.751 2.97 2.97 0 0 1 .382 1.007 11.96 11.96 0 0 1 .119 2.035l.044 3.647.053 5.28.009 1.435v.374.128s0-.044-.008-.128l-.012-.373-.032-1.437-.092-5.279-.059-3.646a11.92 11.92 0 0 0-.123-2.015 2.82 2.82 0 0 0-.37-.968 2.01 2.01 0 0 0-.772-.711c-.319-.171-.694-.204-1.038-.09a1.48 1.48 0 0 0-.8.721 1.68 1.68 0 0 0-.176 1.094 2.21 2.21 0 0 0 .508 1.029 3.59 3.59 0 0 0 2.087 1.1c.823.145 1.658.219 2.494.221a14.15 14.15 0 0 0 2.5-.188 4.92 4.92 0 0 0 1.168-.335c.366-.154.69-.394.944-.7.25-.296.4-.664.427-1.05a1.4 1.4 0 0 0-.386-1.02c-.523-.541-1.314-.725-2.023-.472a2.91 2.91 0 0 0-1.519 1.4c-.296.604-.473 1.258-.521 1.929-.063.649-.065 1.282-.072 1.89l.024 1.748.37 5.264.137 1.429.033.373.003.13z"/><path d="M170.087 129.428c.02.02.033.5.05 1.325q.018 1.44.039 3.449l-.029-.084 2.55 3.19-.135-.065 3.1-.05-.132.06 1.615-1.818.81-.909-.045.119.087-5.1.162.167-5.779-.17-1.669-.069c-.208-.001-.416-.017-.622-.048a2.95 2.95 0 0 1 .553-.03l1.633-.02 5.885.01h.164v.168l-.053 5.1v.068l-.047.051-.808.911-1.62 1.814-.054.06h-.08l-3.1.026h-.086l-.051-.066-2.5-3.231-.03-.041v-.045q.063-2.058.108-3.531c.004-.415.032-.829.084-1.241z"/><path d="M177.888 134.222a1.81 1.81 0 0 1-.288-.137l-.79-.35a7.82 7.82 0 0 0-5.561-.054 8.55 8.55 0 0 0-.8.335 1.76 1.76 0 0 1-.292.129c.083-.067.173-.125.269-.173a6.5 6.5 0 0 1 .787-.373 7.43 7.43 0 0 1 5.626.054 6.63 6.63 0 0 1 .78.389c.097.049.187.109.269.18zm.049-1.234c-.1-.036-.197-.081-.289-.135a8.86 8.86 0 0 0-.789-.35 7.84 7.84 0 0 0-5.563-.056l-.8.335a1.84 1.84 0 0 1-.29.131 1.27 1.27 0 0 1 .269-.173 6.16 6.16 0 0 1 .787-.374c1.81-.719 3.83-.698 5.625.056a6.29 6.29 0 0 1 .78.389 1.46 1.46 0 0 1 .27.177zm-.026-1.18a1.7 1.7 0 0 1-.289-.135 8.86 8.86 0 0 0-.789-.35c-1.785-.699-3.765-.718-5.563-.054l-.8.334a1.84 1.84 0 0 1-.29.131 1.35 1.35 0 0 1 .269-.173 6.48 6.48 0 0 1 .787-.374c1.81-.719 3.83-.698 5.625.056a6.51 6.51 0 0 1 .78.389c.096.048.187.107.27.176z"/></g><path d="M206.609 164.167s-3.032 27.719.866 42.9l37.037-1.62s-7.937-27.343-3.064-39.456z" class="D"/><path d="M206.756 163.276s.254 29.926 1.775 39.057l37.536-1.775s-3.3-29.42-2.029-37.282z" class="E"/><path d="M238.38 175.847c.009.138-5.625.589-12.578 1.008s-12.6.645-12.611.506 5.623-.589 12.579-1.007 12.601-.646 12.61-.507zm.011 6.337c.007.138-5.625.589-12.579 1.008s-12.6.646-12.609.508 5.623-.589 12.579-1.008 12.6-.644 12.609-.508zm-6.38 6.226a8.85 8.85 0 0 1-2.092.3l-5.069.379-5.078.231a8.9 8.9 0 0 1-2.113-.05 8.84 8.84 0 0 1 2.09-.3l5.07-.379 5.078-.231a8.9 8.9 0 0 1 2.114.05z" fill="#fff"/><path d="M292.344 114.683c0 .216-21.954.391-49.031.391s-49.034-.174-49.034-.391 21.95-.392 49.034-.392l49.031.392zm-62.057 8.938c0 .216-8.233.391-18.387.391s-18.388-.174-18.388-.391 8.232-.392 18.388-.392 18.387.176 18.387.392zm19.536 0c0 .216-3.174.391-7.087.391s-7.088-.174-7.088-.391 3.174-.392 7.088-.392 7.087.176 7.087.392zm204.99 94.274a1.12 1.12 0 0 1-.062-.34l-.1-1.005q-.111-1.427-.3-3.868l-.974-14.234-2.918-46.98-2.69-47-.726-14.249q-.1-2.446-.158-3.877l-.021-1.008a1.1 1.1 0 0 1 .02-.346c.037.11.057.225.06.341l.1 1.005q.11 1.427.3 3.866l.974 14.234 2.92 46.988 2.688 46.994.726 14.25q.1 2.443.158 3.877l.021 1.008a1.2 1.2 0 0 1-.018.344zm-7.928-166.908l-.872.039-2.556.033-9.828.051-36.146.045-119.247-.145-123.453-.4.063-.008a29.71 29.71 0 0 0-15.7 9.784 28.96 28.96 0 0 0-6.1 12.59c-.628 2.904-.824 5.884-.582 8.845.092 1.011.186 1.779.273 2.292s.1.78.1.78a20.81 20.81 0 0 1-.523-3.056 29.64 29.64 0 0 1 6.51-21.717c4.09-4.956 9.658-8.472 15.891-10.034l.032-.008h.033l123.453.146 119.248.376 36.144.2 9.828.095 2.556.044c.58.019.876.048.876.048z" class="B"/><circle cx="40.005" cy="40.005" r="40.005" transform="matrix(.958422 -.285354 .285354 .958422 330.429 22.831)" class="F"/><path d="M340.267 47.136a3.32 3.32 0 0 1 .039.651l.018 1.9v1.4l.155 1.68c.092 1.4.285 2.792.578 4.164.698 3.782 1.962 7.437 3.75 10.841a39.64 39.64 0 0 0 46.4 19.954c3.672-1.023 7.161-2.617 10.338-4.723a44.7 44.7 0 0 0 4.725-3.514 44.53 44.53 0 0 0 4.166-4.322 38.25 38.25 0 0 0 6.351-10.5c1.563-3.938 2.525-8.089 2.854-12.313.228-4.232-.182-8.475-1.216-12.585a38.26 38.26 0 0 0-4.927-11.245 44.77 44.77 0 0 0-3.566-4.832 44.78 44.78 0 0 0-4.224-4.1 36.37 36.37 0 0 0-9.634-6.037c-17.399-7.637-37.77-1.888-48.61 13.718a38.2 38.2 0 0 0-5.133 10.256 29.13 29.13 0 0 0-1.117 4.051c-.132.6-.281 1.141-.372 1.647q-.1.759-.184 1.387l-.267 1.882a3.32 3.32 0 0 1-.123.64 3.18 3.18 0 0 1 .028-.648l.175-1.9q.063-.635.14-1.4c.075-.511.212-1.062.329-1.665a28.4 28.4 0 0 1 1.043-4.107 37.88 37.88 0 0 1 5.049-10.441 40.3 40.3 0 0 1 28.314-17.3 40.46 40.46 0 0 1 21.076 3.087 37.07 37.07 0 0 1 9.866 6.143 45.19 45.19 0 0 1 4.331 4.188 45.35 45.35 0 0 1 3.656 4.936 39.08 39.08 0 0 1 5.052 11.5 43.13 43.13 0 0 1 1.249 12.883c-.336 4.325-1.322 8.574-2.925 12.605a39.12 39.12 0 0 1-6.513 10.741 37.03 37.03 0 0 1-9.109 8 37.29 37.29 0 0 1-10.583 4.8 40.46 40.46 0 0 1-21.295.3c-11.2-2.92-20.603-10.516-25.812-20.852a37.9 37.9 0 0 1-3.641-11.008 28.33 28.33 0 0 1-.5-4.208c-.039-.613-.1-1.178-.109-1.695l.044-1.408.075-1.906a3.29 3.29 0 0 1 .059-.645zm58.084 3.853c-.467.072-.94.102-1.413.092l-3.888.079-13.085.085h-.258v-.256-2.594l.075-14.839.083-4.5a9.89 9.89 0 0 1 .1-1.649 10.11 10.11 0 0 1 .1 1.649l.083 4.5.075 14.839v2.594l-.256-.258 13.085.085 3.888.079a7.8 7.8 0 0 1 1.411.094zm-18.264-34.665a11.1 11.1 0 0 1 .259 3.36 11.11 11.11 0 0 1-.259 3.361c-.255-1.101-.342-2.234-.258-3.361-.084-1.127.003-2.259.258-3.36zm18.228 5.396a10.79 10.79 0 0 1-2.158 2.526 10.79 10.79 0 0 1-2.526 2.158 10.9 10.9 0 0 1 2.16-2.524c.726-.845 1.577-1.573 2.524-2.16zm10.657 11.643c-.842.721-1.767 1.339-2.756 1.84a13.92 13.92 0 0 1-2.9 1.6 8.87 8.87 0 0 1 2.635-2.042 8.9 8.9 0 0 1 3.021-1.398zm6.247 17.278c-3.045.343-6.12.343-9.165 0a40.6 40.6 0 0 1 9.165 0zm-63.543-.611a18.46 18.46 0 0 1-4.329.258 18.44 18.44 0 0 1-4.327-.258 18.26 18.26 0 0 1 4.327-.259 18.28 18.28 0 0 1 4.329.259zm4.493 12.865c-.969 1.112-2.065 2.107-3.266 2.964a19.03 19.03 0 0 1-3.6 2.565 19 19 0 0 1 3.27-2.968 19.02 19.02 0 0 1 3.596-2.561zm11.087 9.944a29.53 29.53 0 0 1-2.226 3.858 29.39 29.39 0 0 1-2.362 3.775 14.53 14.53 0 0 1 1.919-4.042 14.52 14.52 0 0 1 2.669-3.591zm12.831 12.833a20.64 20.64 0 0 1-.258-4.581 20.65 20.65 0 0 1 .258-4.583 20.45 20.45 0 0 1 .259 4.583 20.44 20.44 0 0 1-.259 4.581zm19.753-6.105a13.48 13.48 0 0 1-3.777-2.589 13.43 13.43 0 0 1-3.08-3.389 42.4 42.4 0 0 1 3.42 3 42.27 42.27 0 0 1 3.437 2.978zm9.269-9.985a15.91 15.91 0 0 1-3.034-2.668 15.9 15.9 0 0 1-2.668-3.034 15.91 15.91 0 0 1 3.034 2.668c1.014.894 1.911 1.914 2.668 3.034zm-53.361-31.873a12.27 12.27 0 0 1-2.677-2.313 12.27 12.27 0 0 1-2.313-2.677 12.21 12.21 0 0 1 2.679 2.311 12.21 12.21 0 0 1 2.311 2.679zm11.441-12.051c-.983-.619-1.87-1.379-2.631-2.256a11.71 11.71 0 0 1-2.267-2.622 11.77 11.77 0 0 1 2.631 2.256 11.71 11.71 0 0 1 2.267 2.622z" class="B"/><g class="E"><path d="M548.558 377.703a54.76 54.76 0 0 1 52.229-14.334 95.13 95.13 0 0 1-52.846 16.511m18.332-64.908c-2.176-15.39 3.8-32.7 15.328-43.89.381 15.252-6.059 32.417-15.328 43.89"/><path d="M557.058 344.046a82.19 82.19 0 0 1 37.744-36.071c-5.145 18.041-19.633 31.897-37.885 36.234m-1.767 5.446c9.3.261 18.7-.066 27.693-2.445s17.6-6.951 23.582-14.071a92.54 92.54 0 0 0-51.138 15.611m4.582-17.573c-4.719-17.684-12.5-29.917-26.4-39.827-2.196 17.963 9.001 34.854 26.4 39.827m-35.089 30.498c-.065-10.548 6.205-20.105 15.907-24.245-.773 9.132-7.946 19.7-15.9 24.245m-4.448-14.91a39.01 39.01 0 0 0-25.552-33.275c3.211 14.778 11.756 27.08 25.553 33.272m6.691 26.463c-3.278-4.689-8.627-7.606-14.162-9.054s-11.319-1.576-17.039-1.7a39.83 39.83 0 0 0 30.766 12.819m7.08 35.63c-21.626-6.676-44.767 4.286-53.3 25.248 19.361-3.675 38.466-12.273 53.3-25.248m21.249-13.101c-3.217 9.508-2.6 21 4.55 29.192a34.88 34.88 0 0 0-4.55-29.192m12.562-5.281c1.056 12.462 8.545 23.466 19.75 29.022a2.22 2.22 0 0 0 1.746.287c.872-.355.951-1.544.844-2.479-1.4-12.18-10.425-23.959-22.344-26.83m8.204-1.235a29.33 29.33 0 0 0 42.847.219c-13.62-1.49-29.334-2.484-42.847-.219"/></g><g class="B"><path d="M577.726 282.424a2.47 2.47 0 0 1-.125.4l-.415 1.152-1.643 4.41-2.558 6.993-1.578 4.373-1.7 4.926c-2.413 6.9-5.092 15.175-7.984 24.391-2.84 9.233-5.823 19.426-8.758 30.18-2.895 10.769-5.461 21.077-7.646 30.488-2.122 9.424-3.948 17.932-5.266 25.118q-.508 2.691-.967 5.121-.413 2.432-.778 4.582l-1.2 7.347-.714 4.651-.2 1.208a.21.21 0 0 1 .151.243.21.21 0 0 1-.233.166.21.21 0 0 1-.181-.222.21.21 0 0 1 .21-.194l.147-1.215.618-4.667c.253-2.028.646-4.5 1.113-7.364q.347-2.152.739-4.592l.928-5.129c1.273-7.2 3.062-15.722 5.16-25.158 2.161-9.423 4.715-19.742 7.612-30.517 2.936-10.761 5.935-20.956 8.8-30.187l8.095-24.369 1.736-4.917q.858-2.314 1.616-4.361l2.642-6.965 1.735-4.376.463-1.133a2.4 2.4 0 0 1 .18-.383z"/><path d="M502.916 321.382c.086.065.165.14.235.222l.651.684 2.422 2.71a95.36 95.36 0 0 1 8.018 10.692 71.79 71.79 0 0 1 8.385 17.938c2.247 7.141 3.641 15.257 5.029 23.741 2.77 16.982 6.168 32.192 8.627 43.194l2.95 13.024.785 3.546.192.925a1.49 1.49 0 0 1 .048.319 1.51 1.51 0 0 1-.1-.307l-.242-.913-.88-3.523-3.111-12.988c-2.552-10.983-6.01-26.193-8.782-43.192-1.389-8.485-2.765-16.576-4.974-23.684-1.921-6.307-4.692-12.324-8.237-17.883a103.12 103.12 0 0 0-7.863-10.759l-2.345-2.769-.612-.719a1.45 1.45 0 0 1-.196-.258zm76.84 69.343c-.159.052-.324.082-.491.09l-1.41.156-1.019.1-1.2.181-2.924.493-1.691.336-1.811.459c-1.26.284-2.563.746-3.951 1.165a58.12 58.12 0 0 0-8.624 3.8 48.71 48.71 0 0 0-7.732 5.371 38.63 38.63 0 0 0-2.967 2.848 30.9 30.9 0 0 0-2.347 2.708 28.28 28.28 0 0 0-1.738 2.395 17.7 17.7 0 0 0-1.191 1.894l-.722 1.22a1.82 1.82 0 0 1-.284.41 1.77 1.77 0 0 1 .191-.458l.639-1.271c.326-.677.701-1.33 1.122-1.953a26.36 26.36 0 0 1 1.691-2.462c.717-.973 1.493-1.9 2.324-2.778a37.25 37.25 0 0 1 2.967-2.915 47.01 47.01 0 0 1 7.8-5.464 55.47 55.47 0 0 1 8.723-3.8l4-1.129 1.832-.433 1.71-.305c1.085-.217 2.081-.319 2.953-.42l1.216-.139 1.027-.055 1.421-.059a1.8 1.8 0 0 1 .486.015zm3.878-69.017a6.7 6.7 0 0 1-.981.946l-2.8 2.431-9.376 7.873-9.474 7.757-2.909 2.3a6.85 6.85 0 0 1-1.11.789 6.83 6.83 0 0 1 .984-.947l2.8-2.432 9.374-7.871 9.47-7.752 2.909-2.305a7.03 7.03 0 0 1 1.113-.789zm3.353 18.017c.041.138-7.111 2.372-15.971 4.99s-16.079 4.629-16.12 4.491 7.109-2.372 15.973-4.99l16.118-4.491zm-26.41-7.173a5.86 5.86 0 0 1-.738-1.027l-1.885-2.872c-1.6-2.419-3.869-5.719-6.553-9.233s-5.274-6.572-7.18-8.757l-2.264-2.584a5.9 5.9 0 0 1-.791-.987 5.85 5.85 0 0 1 .938.848c.582.568 1.4 1.413 2.391 2.477 1.98 2.127 4.621 5.161 7.32 8.687s4.926 6.875 6.449 9.351c.762 1.238 1.358 2.252 1.748 2.965.229.356.418.735.565 1.132zm-24.835 10c-.495.957-1.055 1.879-1.677 2.759l-4.02 6.651-3.664 6.855a23.62 23.62 0 0 1-1.515 2.852 17.19 17.19 0 0 1 1.182-3.01c.815-1.824 2.037-4.3 3.544-6.954l4.166-6.6c.58-.911 1.244-1.766 1.984-2.553z"/><path d="M527.245 373.718c-.037.07-1.4-.6-3.634-1.6l-8.873-3.554-9.155-2.756-3.838-1.015a4.25 4.25 0 0 1 1.064.111l2.859.546c6.266 1.376 12.343 3.503 18.1 6.335 1.1.546 1.981 1.012 2.576 1.357a4.16 4.16 0 0 1 .901.576zm6.69 37.259a1.61 1.61 0 0 1-.441.149l-1.288.328-4.756 1.1a156.43 156.43 0 0 0-15.534 4.1 68.92 68.92 0 0 0-14.494 6.809c-1.732 1.1-3.082 2.077-3.993 2.78a14.11 14.11 0 0 1-1.44 1.064c-.011-.014.1-.129.32-.338s.546-.519.994-.885c1.248-1.052 2.557-2.031 3.919-2.93a63.55 63.55 0 0 1 14.524-6.993 129.91 129.91 0 0 1 15.627-3.967l4.791-.936a11.8 11.8 0 0 1 1.771-.281z"/></g><path d="M558.124 420.16c-.142.021-.994-4.995-1.9-11.2s-1.529-11.258-1.386-11.279.993 4.994 1.9 11.2 1.528 11.258 1.386 11.279z" class="E"/><path d="M583.308 411.016c-.815-.849-1.573-1.751-2.269-2.7l-5.379-6.567-5.543-6.43a26.42 26.42 0 0 1-2.264-2.7c.269.17.512.378.722.617l1.814 1.833 5.67 6.344 5.272 6.677 1.493 2.1a3.34 3.34 0 0 1 .484.826z" class="B"/><path d="M516.661 434.373v12.444h3.111l11.061 34.913h24.529l10.716-34.567 4.148-.346v-12.444z" fill="#5504b0"/><path d="M568.152 447.163c0 .144-10.831.26-24.189.26s-24.191-.116-24.191-.26 10.829-.26 24.191-.26l24.189.26zm17.643-80.045a9.65 9.65 0 0 1-1.572.425l-4.306 1.038a184.06 184.06 0 0 0-14.017 4.078c-5.406 1.815-10.2 3.745-13.634 5.222l-4.058 1.775a9.67 9.67 0 0 1-1.509.611c.451-.304.927-.569 1.422-.794.929-.485 2.293-1.147 3.995-1.929a141.47 141.47 0 0 1 27.716-9.321c1.829-.406 3.316-.7 4.35-.878a9.64 9.64 0 0 1 1.613-.227z" class="B"/><path d="M560.009 466.55c0 .144-7.6.261-16.971.261s-16.973-.117-16.973-.261 7.6-.26 16.973-.26 16.971.117 16.971.26zm.954-2.886c0 .144-8.053.261-17.985.261s-17.987-.117-17.987-.261 8.051-.26 17.987-.26l17.985.26z" class="G"/><path d="M46.06 393.044c4.183-2.158 9.108-2.438 13.751-1.671 2.5.413 5.1 1.159 6.793 3.033s2.019 5.171.07 6.781c-1.257.851-2.772 1.235-4.283 1.087-3.635-.043-7.668-.683-10.572 1.5-1.657 1.248-2.76 3.323-4.741 3.936a4.68 4.68 0 0 1-5.153-2.292 8.01 8.01 0 0 1-.583-5.907 9.02 9.02 0 0 1 4.718-6.467zm-9.582-18.498c2.557 3.653 7.528 2.443 9.833.214s3.279-5.461 4.165-8.543c2.027-7.04 4.069-14.427 2.563-21.6a12 12 0 0 0-2.759-5.871 6.27 6.27 0 0 0-5.94-1.977c-2.506.662-4.064 3.117-5.19 5.452-3.316 6.895-5.054 14.442-5.087 22.093-.012 3.559.407 7.291 2.415 10.229m-7.023 5.247c2.776-3.3 3.3-8.1 2.068-12.231a23.58 23.58 0 0 0-7.245-10.508 39 39 0 0 0-12.976-7.661 13.82 13.82 0 0 0-5.834-.991 6.12 6.12 0 0 0-4.9 2.962c-1.365 2.6-.056 5.762 1.36 8.338 2.495 4.542 5.344 8.88 8.52 12.975 2.554 3.293 5.479 6.54 9.371 8.028s7.935 1.313 10-1.386" class="D"/><g class="C"><path d="M36.302 429.647c.134-.543.212-1.099.231-1.659l.441-4.53c.225-2.231.565-4.448 1.019-6.644.594-2.674 1.402-5.297 2.415-7.842.991-2.544 2.338-4.934 4-7.1 1.354-1.761 3.084-3.199 5.063-4.208a14.16 14.16 0 0 1 4.263-1.328 8.03 8.03 0 0 0 1.653-.239c-.558-.07-1.122-.079-1.682-.026a12.92 12.92 0 0 0-4.446 1.157c-2.084.984-3.912 2.437-5.34 4.245-1.734 2.194-3.133 4.633-4.151 7.238-1.03 2.582-1.833 5.249-2.4 7.971a56.18 56.18 0 0 0-.884 6.728l-.224 4.557a7.74 7.74 0 0 0 .042 1.68z"/><path d="M36.617 426.162c.044-.254.059-.512.044-.77v-2.2l.1-8.092c.169-6.831.757-14.183 1.893-24.548 1.076-9.746 2.52-21.089 4.043-28.463a121.83 121.83 0 0 1 .966-4.508l.791-3.39.515-2.141c.075-.247.12-.502.134-.76-.117.229-.207.472-.267.722l-.639 2.11c-.284.916-.575 2.051-.907 3.37l-1.066 4.5c-1.888 8.721-3.307 17.538-4.251 26.411-1.139 10.386-1.651 19.843-1.7 26.691-.04 3.424.033 6.2.12 8.109l.134 2.2a3.25 3.25 0 0 0 .09.759z"/><path d="M36.662 407.922c.056-.766.05-1.535-.016-2.3-.084-1.478-.288-3.615-.7-6.233a82.31 82.31 0 0 0-2.027-9.081 74.39 74.39 0 0 0-3.8-10.746 57.25 57.25 0 0 0-11.154-17.372 28.17 28.17 0 0 0-2.624-2.438l-1.121-.949-1.017-.7a14.99 14.99 0 0 0-1.937-1.24c2.231 1.755 4.351 3.647 6.348 5.664a60.29 60.29 0 0 1 10.874 17.3 84.72 84.72 0 0 1 3.819 10.647c1 3.337 1.658 6.406 2.158 8.991l.916 6.172a14.75 14.75 0 0 0 .281 2.285zm-17.63 32.175l1.828 25.04h32.168l1.828-25.04z"/><path d="M15.925 430.228h42.769v9.87H15.925z"/></g><path d="M15.925 464.179v2.736h42.062v-2.736z" class="D"/><path d="M19.902 471.73l-1.97-4.815h38.52l-2.3 4.815z" class="C"/><path d="M54.258 448.281a.97.97 0 0 1-.15.23l-.48.638-1.874 2.4-.083.106-.081-.111-4.6-6.368h.265l-4.533 6.418-.142.2-.159-.19-5.375-6.395h.31l-.3.371-4.807 6.026-.16.2-.148-.209-4.539-6.42.264.013-5.585 6.363-.1.113-.076-.127-1.749-2.938-.448-.782a1.21 1.21 0 0 1-.137-.279 1.27 1.27 0 0 1 .187.248l.5.753 1.835 2.884-.174-.014 5.5-6.441.139-.162.125.175 4.575 6.387-.308-.008 4.8-6.035.3-.372.153-.191.157.188 5.361 6.408-.3.012 4.578-6.386.134-.187.131.187 4.507 6.436h-.164l1.949-2.337.522-.6a1.1 1.1 0 0 1 .18-.204zm1.044-8.349c0 .111-8.06.2-18 .2s-18-.089-18-.2 8.059-.2 18-.2l18 .2zm1.627 27.253c0 .11-8.76.2-19.564.2s-19.565-.09-19.565-.2 8.758-.2 19.565-.2l19.564.2z" class="F"/><g fill="#fff"><path d="M64.802 201.1a15.75 15.75 0 0 1 4.042 1.067l2.971-2.489 5.1 3.884-1.608 3.527a15.68 15.68 0 0 1 2.106 3.611l3.86.341.862 6.354-3.629 1.357a15.7 15.7 0 0 1-1.068 4.042l2.489 2.972-3.883 5.1-3.527-1.607a15.72 15.72 0 0 1-3.612 2.105l-.34 3.86-6.355.863-1.357-3.63a15.72 15.72 0 0 1-4.042-1.068l-2.971 2.49-5.1-3.884 1.608-3.527a15.76 15.76 0 0 1-2.106-3.612l-3.859-.34-.863-6.355 3.63-1.356c.173-1.389.532-2.749 1.068-4.043l-2.49-2.971 3.883-5.1 3.528 1.608a15.74 15.74 0 0 1 3.612-2.106l.339-3.859 6.355-.862 1.357 3.629zm-2.609 8.823a6.88 6.88 0 0 0-5.891 7.742 6.88 6.88 0 0 0 7.741 5.891 6.88 6.88 0 0 0 3.24-12.291 6.88 6.88 0 0 0-5.093-1.342z"/><path d="M62.191 209.923a1.33 1.33 0 0 1 .433-.093 5.36 5.36 0 0 1 1.272-.027c1.589.135 3.081.821 4.218 1.939 1.363 1.337 2.127 3.167 2.121 5.076a7.07 7.07 0 0 1-2.156 5.061 7.09 7.09 0 0 1-8.377 1.137 7.08 7.08 0 0 1-2.735-9.763 6.84 6.84 0 0 1 3.548-2.991 5.35 5.35 0 0 1 1.233-.313 1.36 1.36 0 0 1 .443-.026c.011.059-.6.119-1.6.54a6.86 6.86 0 0 0-3.288 2.984 6.7 6.7 0 0 0-.053 6.365 6.56 6.56 0 0 0 2.707 2.726c2.532 1.38 5.666.954 7.739-1.05a6.55 6.55 0 0 0 1.882-3.348c.487-2.204-.17-4.506-1.747-6.121-1.063-1.087-2.458-1.791-3.964-2-1.065-.142-1.671-.036-1.676-.096zm2.611-8.823a1.02 1.02 0 0 1-.1-.216l-.277-.678-1.061-2.7.1.057-6.348.913.122-.127-.318 3.862-.008.1-.092.039a15.63 15.63 0 0 0-3.562 2.1l-.087.068-.1-.046-3.534-1.593.239-.061-3.866 5.115-.007-.272 2.5 2.964.09.106-.053.129a15.51 15.51 0 0 0-1.043 3.984l-.017.144-.137.051-3.641 1.351.159-.265.873 6.353-.233-.223 3.859.335.159.014.062.148c.532 1.269 1.229 2.462 2.074 3.548l.1.128-.067.148-1.606 3.529-.082-.329 5.1 3.88-.344.009 2.97-2.491.129-.108.155.064a15.5 15.5 0 0 0 3.967 1.048h0l.227.179h0v.008l.005.014.011.028.021.057.043.115.085.228.17.457.341.91.675 1.809-.3-.177 6.356-.86-.237.248q.172-1.948.342-3.86l.015-.164.152-.063a15.49 15.49 0 0 0 3.552-2.067l.129-.1.147.068 3.526 1.611-.321.081 3.891-5.1.007.319-2.484-2.976-.1-.116.058-.139a15.49 15.49 0 0 0 1.059-3.977l.019-.145.136-.05 3.632-1.348-.148.247-.843-6.357.191.183-3.858-.353-.121-.011-.046-.111c-.527-1.279-1.221-2.481-2.066-3.576l-.068-.089.046-.1 1.624-3.519.05.2-5.079-3.915h.156l-2.994 2.463-.042.035-.049-.021a16.61 16.61 0 0 0-2.993-.942l-.763-.151c-.086-.009-.171-.028-.252-.057.086-.004.173 0 .259.011l.773.107c1.042.181 2.063.471 3.044.867l-.091.014 2.948-2.517.075-.064.08.061 5.127 3.852.1.078-.054.121-1.591 3.534-.022-.187a15.88 15.88 0 0 1 2.146 3.647l-.166-.122 3.861.327.169.014.023.169.88 6.352.025.183-.173.065-3.626 1.365.154-.195a15.95 15.95 0 0 1-1.076 4.107l-.039-.254 2.494 2.966.132.156-.124.163-3.876 5.108-.128.169-.193-.088-3.529-1.6.277-.032a15.99 15.99 0 0 1-3.673 2.145l.167-.228q-.167 1.911-.337 3.86l-.019.219-.218.03-6.355.864-.219.03-.078-.207q-.337-.9-.676-1.81l-.341-.91-.17-.456-.086-.229-.042-.114-.022-.057-.01-.029-.006-.014v-.007h0l.225.178h0a16.02 16.02 0 0 1-4.109-1.086l.283-.044L54 234.095l-.169.141-.175-.133-5.1-3.887-.173-.132.09-.2 1.612-3.525.032.276a16.09 16.09 0 0 1-2.115-3.675l.22.161-3.859-.345-.206-.019-.027-.2-.852-6.357-.026-.2.185-.069 3.632-1.348-.154.194c.18-1.409.548-2.788 1.094-4.1l.036.235-2.482-2.978-.112-.135.106-.138q2.052-2.679 3.9-5.09l.1-.127.143.066 3.521 1.622-.187.022c1.121-.864 2.352-1.574 3.661-2.112l-.1.136.362-3.857.011-.113.111-.015 6.361-.81.072-.009.023.066.961 2.7.241.706a1.44 1.44 0 0 1 .065.254z"/></g><circle cx="21.743" cy="21.743" r="21.743" transform="matrix(.958422 -.285354 .285354 .958422 279.143 170.811)" class="F"/><path d="M284.49 184.021a1.75 1.75 0 0 1 .021.354l.01 1.034v.76l.084.913c.05.761.155 1.517.314 2.263.379 2.055 1.066 4.042 2.038 5.892 4.716 9.196 15.298 13.746 25.217 10.845 1.996-.556 3.892-1.422 5.619-2.567a19.69 19.69 0 0 0 4.832-4.259 20.79 20.79 0 0 0 3.452-5.707 21.29 21.29 0 0 0 .89-13.532 20.8 20.8 0 0 0-2.676-6.112 19.68 19.68 0 0 0-4.234-4.855c-1.563-1.361-3.33-2.468-5.236-3.281a21.6 21.6 0 0 0-26.42 7.456 20.76 20.76 0 0 0-2.79 5.574 15.82 15.82 0 0 0-.607 2.2c-.072.324-.153.62-.2.9s-.07.526-.1.754l-.145 1.023a1.8 1.8 0 0 1-.067.348 1.73 1.73 0 0 1 .015-.352l.1-1.032q.034-.345.076-.762c.041-.278.115-.577.179-.9.133-.757.323-1.503.567-2.232a20.59 20.59 0 0 1 2.744-5.675 21.9 21.9 0 0 1 15.389-9.4c3.9-.474 7.855.106 11.455 1.678a20.15 20.15 0 0 1 5.362 3.339 20.09 20.09 0 0 1 4.341 4.959 21.25 21.25 0 0 1 2.746 6.252 21.76 21.76 0 0 1-.911 13.853 21.27 21.27 0 0 1-3.54 5.838c-1.4 1.711-3.073 3.18-4.951 4.347a20.27 20.27 0 0 1-5.752 2.609 21.99 21.99 0 0 1-11.574.165c-6.092-1.588-11.206-5.721-14.036-11.344a20.6 20.6 0 0 1-1.979-5.986 15.4 15.4 0 0 1-.27-2.287c-.021-.333-.054-.64-.059-.921l.024-.765.041-1.036a1.79 1.79 0 0 1 .031-.351zm31.569 2.094a4.44 4.44 0 0 1-.768.05l-2.113.043-7.112.046h-.14v-.139-1.41l.041-8.065.045-2.444a5.4 5.4 0 0 1 .055-.9 5.42 5.42 0 0 1 .054.9l.045 2.444.041 8.065v1.41l-.139-.14 7.112.046 2.113.043a4.24 4.24 0 0 1 .766.051zm-9.927-18.841a6.03 6.03 0 0 1 .141 1.826c.046.613-.001 1.229-.141 1.827a6.1 6.1 0 0 1-.14-1.827 6.09 6.09 0 0 1 .14-1.826zm9.907 2.933a5.86 5.86 0 0 1-1.173 1.373 5.86 5.86 0 0 1-1.373 1.173 5.93 5.93 0 0 1 1.174-1.372 5.93 5.93 0 0 1 1.372-1.174zm5.793 6.328a7.54 7.54 0 0 1-1.5 1 7.56 7.56 0 0 1-1.578.87 8.02 8.02 0 0 1 3.076-1.87zm3.395 9.391a22.22 22.22 0 0 1-4.981 0c1.655-.188 3.326-.188 4.981 0zm-34.536-.336a19.8 19.8 0 0 1-4.705 0 19.7 19.7 0 0 1 4.705 0zm2.442 6.995c-.527.605-1.124 1.146-1.777 1.612a10.33 10.33 0 0 1-1.954 1.393 20.4 20.4 0 0 1 3.731-3.006zm6.026 5.405a15.97 15.97 0 0 1-1.21 2.1 15.97 15.97 0 0 1-1.284 2.052 12.43 12.43 0 0 1 2.494-4.149zm6.973 6.975a11.22 11.22 0 0 1-.14-2.49c-.046-.833.001-1.668.14-2.491a11.11 11.11 0 0 1 .141 2.491 11.11 11.11 0 0 1-.141 2.49zm10.736-3.318a10.74 10.74 0 0 1-3.727-3.249c.649.51 1.27 1.054 1.861 1.63.651.506 1.273 1.046 1.866 1.619zm5.034-5.427a8.65 8.65 0 0 1-1.649-1.45 8.65 8.65 0 0 1-1.45-1.649 17.1 17.1 0 0 1 3.1 3.1zm-29-17.323a6.67 6.67 0 0 1-1.455-1.257 6.67 6.67 0 0 1-1.255-1.45c.544.346 1.034.769 1.456 1.256.486.42.908.909 1.254 1.451zm6.22-6.55a6.42 6.42 0 0 1-1.43-1.226 6.38 6.38 0 0 1-1.232-1.425 6.4 6.4 0 0 1 1.43 1.226 6.38 6.38 0 0 1 1.232 1.425z" class="B"/><defs ><path id="B" d="M435.208 164.439h5.441v5.441h-5.441z"/></defs></svg>