<svg xmlns="http://www.w3.org/2000/svg" width="618.534" height="481.73" viewBox="0 0 618.534 481.73">
  <g id="Group_5451" data-name="Group 5451" transform="translate(-968.998 -2117.71)">
    <path id="Path_45333" data-name="Path 45333" d="M1202.958,1131.385,1131.9,1244.917l64.453-2.969v35l71.568-118.089-64.959,8.578Z" transform="translate(-132.909 1130.846)" fill="#fbd206"/>
    <g id="Group_5450" data-name="Group 5450" transform="translate(857.617 2187.244)">
      <g id="Group_105" data-name="Group 105">
        <g id="Group_101" data-name="Group 101">
          <g id="Group_100" data-name="Group 100">
            <rect id="Rectangle_4" data-name="Rectangle 4" width="129.144" height="115.54" transform="translate(527.212 51.006)" fill="#fafafa"/>
          </g>
        </g>
        <g id="Group_104" data-name="Group 104">
          <g id="Group_103" data-name="Group 103">
            <g id="Group_102" data-name="Group 102">
              <path id="Path_35" data-name="Path 35" d="M656.356,166.546s-.022-.741-.033-2.145-.019-3.491-.034-6.191c-.017-5.424-.043-13.353-.076-23.453-.036-20.187-.088-49.034-.15-83.751l.292.293-129.132.052h-.011l.345-.345c-.015,42.035-.029,81.589-.041,115.539l-.3-.3,93.406.153,26.345.08,6.974.036,1.8.017c.4.006.62.018.62.018s-.192.011-.586.017l-1.765.017-6.915.036-26.277.08-93.6.153h-.3v-.305c-.012-33.95-.026-73.5-.041-115.539v-.345h.356l129.132.052h.294v.293c-.062,34.794-.114,63.7-.15,83.937-.033,10.071-.058,17.978-.076,23.387-.015,2.676-.026,4.73-.034,6.135C656.377,165.848,656.356,166.546,656.356,166.546Z" fill="#e0e0e0"/>
            </g>
          </g>
        </g>
      </g>
      <g id="Group_108" data-name="Group 108">
        <g id="Group_107" data-name="Group 107">
          <g id="Group_106" data-name="Group 106">
            <path id="Path_36" data-name="Path 36" d="M576.73,71.535c0,.191-6.8.345-15.18.345s-15.183-.154-15.183-.345,6.8-.345,15.183-.345S576.73,71.345,576.73,71.535Z" fill="#e0e0e0"/>
          </g>
        </g>
      </g>
      <g id="Group_111" data-name="Group 111">
        <g id="Group_110" data-name="Group 110">
          <g id="Group_109" data-name="Group 109">
            <path id="Path_37" data-name="Path 37" d="M631.45,80.21c0,.191-18.674.345-41.705.345s-41.71-.154-41.71-.345,18.671-.345,41.71-.345S631.45,80.02,631.45,80.21Z" fill="#e0e0e0"/>
          </g>
        </g>
      </g>
      <g id="Group_113" data-name="Group 113">
        <g id="Group_112" data-name="Group 112">
          <rect id="Rectangle_5" data-name="Rectangle 5" width="5.441" height="5.441" transform="translate(546.589 94.905)" fill="#e0e0e0"/>
        </g>
      </g>
      <g id="Group_115" data-name="Group 115">
        <g id="Group_114" data-name="Group 114">
          <rect id="Rectangle_6" data-name="Rectangle 6" width="5.441" height="5.441" transform="translate(559.982 94.905)" fill="#e0e0e0"/>
        </g>
      </g>
      <g id="Group_117" data-name="Group 117">
        <g id="Group_116" data-name="Group 116">
          <rect id="Rectangle_7" data-name="Rectangle 7" width="5.441" height="5.441" transform="translate(573.622 94.658)" fill="#e0e0e0"/>
        </g>
      </g>
      <g id="Group_119" data-name="Group 119">
        <g id="Group_118" data-name="Group 118">
          <rect id="Rectangle_8" data-name="Rectangle 8" width="5.441" height="5.441" transform="translate(586.768 94.905)" fill="#e0e0e0"/>
        </g>
      </g>
      <g id="Group_121" data-name="Group 121">
        <g id="Group_120" data-name="Group 120">
          <rect id="Rectangle_9" data-name="Rectangle 9" width="5.441" height="5.441" transform="translate(600.161 94.905)" fill="#e0e0e0"/>
        </g>
      </g>
      <g id="Group_123" data-name="Group 123">
        <g id="Group_122" data-name="Group 122">
          <rect id="Rectangle_10" data-name="Rectangle 10" width="5.441" height="5.441" transform="translate(613.553 94.905)" fill="#e0e0e0"/>
        </g>
      </g>
      <g id="Group_125" data-name="Group 125">
        <g id="Group_124" data-name="Group 124">
          <rect id="Rectangle_11" data-name="Rectangle 11" width="5.441" height="5.441" transform="translate(626.946 94.905)" fill="#ebebeb"/>
        </g>
      </g>
      <g id="Group_127" data-name="Group 127">
        <g id="Group_126" data-name="Group 126">
          <rect id="Rectangle_12" data-name="Rectangle 12" width="5.441" height="5.441" transform="translate(546.589 106.472)" fill="#ebebeb"/>
        </g>
      </g>
      <g id="Group_129" data-name="Group 129">
        <g id="Group_128" data-name="Group 128">
          <rect id="Rectangle_13" data-name="Rectangle 13" width="5.441" height="5.441" transform="translate(559.982 106.472)" fill="#e0e0e0"/>
        </g>
      </g>
      <g id="Group_131" data-name="Group 131">
        <g id="Group_130" data-name="Group 130">
          <rect id="Rectangle_14" data-name="Rectangle 14" width="5.441" height="5.441" transform="translate(573.375 106.472)" fill="#ebebeb"/>
        </g>
      </g>
      <g id="Group_133" data-name="Group 133">
        <g id="Group_132" data-name="Group 132">
          <rect id="Rectangle_15" data-name="Rectangle 15" width="5.441" height="5.441" transform="translate(586.768 106.472)" fill="#e0e0e0"/>
        </g>
      </g>
      <g id="Group_135" data-name="Group 135">
        <g id="Group_134" data-name="Group 134">
          <rect id="Rectangle_16" data-name="Rectangle 16" width="5.441" height="5.441" transform="translate(600.161 106.472)" fill="#e0e0e0"/>
        </g>
      </g>
      <g id="Group_137" data-name="Group 137">
        <g id="Group_136" data-name="Group 136">
          <rect id="Rectangle_17" data-name="Rectangle 17" width="5.441" height="5.441" transform="translate(613.8 106.225)" fill="#e0e0e0"/>
        </g>
      </g>
      <g id="Group_139" data-name="Group 139">
        <g id="Group_138" data-name="Group 138">
          <rect id="Rectangle_18" data-name="Rectangle 18" width="5.441" height="5.441" transform="translate(626.946 106.472)" fill="#e0e0e0"/>
        </g>
      </g>
      <g id="Group_141" data-name="Group 141">
        <g id="Group_140" data-name="Group 140">
          <rect id="Rectangle_19" data-name="Rectangle 19" width="5.441" height="5.441" transform="translate(546.589 118.039)" fill="#e0e0e0"/>
        </g>
      </g>
      <g id="Group_143" data-name="Group 143">
        <g id="Group_142" data-name="Group 142">
          <rect id="Rectangle_20" data-name="Rectangle 20" width="5.441" height="5.441" transform="translate(560.229 117.792)" fill="#e0e0e0"/>
        </g>
      </g>
      <g id="Group_145" data-name="Group 145">
        <g id="Group_144" data-name="Group 144">
          <rect id="Rectangle_21" data-name="Rectangle 21" width="5.441" height="5.441" transform="translate(573.375 118.039)" fill="#e0e0e0"/>
        </g>
      </g>
      <g id="Group_147" data-name="Group 147">
        <g id="Group_146" data-name="Group 146">
          <rect id="Rectangle_22" data-name="Rectangle 22" width="5.441" height="5.441" transform="translate(586.768 118.039)" fill="#ebebeb"/>
        </g>
      </g>
      <g id="Group_149" data-name="Group 149">
        <g id="Group_148" data-name="Group 148">
          <rect id="Rectangle_23" data-name="Rectangle 23" width="5.441" height="5.441" transform="translate(600.161 118.039)" fill="#e0e0e0"/>
        </g>
      </g>
      <g id="Group_151" data-name="Group 151">
        <g id="Group_150" data-name="Group 150">
          <rect id="Rectangle_24" data-name="Rectangle 24" width="5.441" height="5.441" transform="translate(613.553 118.039)" fill="#e0e0e0"/>
        </g>
      </g>
      <g id="Group_153" data-name="Group 153">
        <g id="Group_152" data-name="Group 152">
          <rect id="Rectangle_25" data-name="Rectangle 25" width="5.441" height="5.441" transform="translate(626.946 118.039)" fill="#e0e0e0"/>
        </g>
      </g>
      <g id="Group_155" data-name="Group 155">
        <g id="Group_154" data-name="Group 154">
          <rect id="Rectangle_26" data-name="Rectangle 26" width="5.441" height="5.441" transform="translate(546.589 129.606)" fill="#e0e0e0"/>
        </g>
      </g>
      <g id="Group_157" data-name="Group 157">
        <g id="Group_156" data-name="Group 156">
          <rect id="Rectangle_27" data-name="Rectangle 27" width="5.441" height="5.441" transform="translate(559.982 129.606)" fill="#e0e0e0"/>
        </g>
      </g>
      <g id="Group_159" data-name="Group 159">
        <g id="Group_158" data-name="Group 158">
          <rect id="Rectangle_28" data-name="Rectangle 28" width="5.441" height="5.441" transform="translate(573.375 129.606)" fill="#e0e0e0"/>
        </g>
      </g>
      <g id="Group_161" data-name="Group 161">
        <g id="Group_160" data-name="Group 160">
          <rect id="Rectangle_29" data-name="Rectangle 29" width="5.441" height="5.441" transform="translate(587.015 129.359)" fill="#e0e0e0"/>
        </g>
      </g>
      <g id="Group_163" data-name="Group 163">
        <g id="Group_162" data-name="Group 162">
          <rect id="Rectangle_30" data-name="Rectangle 30" width="5.441" height="5.441" transform="translate(600.161 129.606)" fill="#e0e0e0"/>
        </g>
      </g>
      <g id="Group_165" data-name="Group 165">
        <g id="Group_164" data-name="Group 164">
          <rect id="Rectangle_31" data-name="Rectangle 31" width="5.441" height="5.441" transform="translate(613.553 129.606)" fill="#ebebeb"/>
        </g>
      </g>
      <g id="Group_167" data-name="Group 167">
        <g id="Group_166" data-name="Group 166">
          <rect id="Rectangle_32" data-name="Rectangle 32" width="5.441" height="5.441" transform="translate(626.946 129.606)" fill="#e0e0e0"/>
        </g>
      </g>
      <g id="Group_169" data-name="Group 169">
        <g id="Group_168" data-name="Group 168">
          <rect id="Rectangle_33" data-name="Rectangle 33" width="5.441" height="5.441" transform="translate(546.589 141.173)" fill="#e0e0e0"/>
        </g>
      </g>
      <g id="Group_171" data-name="Group 171">
        <g id="Group_170" data-name="Group 170">
          <rect id="Rectangle_34" data-name="Rectangle 34" width="5.441" height="5.441" transform="translate(559.982 141.173)" fill="#ebebeb"/>
        </g>
      </g>
      <g id="Group_173" data-name="Group 173">
        <g id="Group_172" data-name="Group 172">
          <rect id="Rectangle_35" data-name="Rectangle 35" width="5.441" height="5.441" transform="translate(573.375 141.173)" fill="#e0e0e0"/>
        </g>
      </g>
      <g id="Group_175" data-name="Group 175">
        <g id="Group_174" data-name="Group 174">
          <rect id="Rectangle_36" data-name="Rectangle 36" width="5.441" height="5.441" transform="translate(586.768 141.173)" fill="#e0e0e0"/>
        </g>
      </g>
      <g id="Group_177" data-name="Group 177">
        <g id="Group_176" data-name="Group 176">
          <rect id="Rectangle_37" data-name="Rectangle 37" width="5.441" height="5.441" transform="translate(600.161 141.173)" fill="#e0e0e0"/>
        </g>
      </g>
      <g id="Group_179" data-name="Group 179">
        <g id="Group_178" data-name="Group 178">
          <rect id="Rectangle_38" data-name="Rectangle 38" width="5.441" height="5.441" transform="translate(613.8 140.926)" fill="#e0e0e0"/>
        </g>
      </g>
      <g id="Group_181" data-name="Group 181">
        <g id="Group_180" data-name="Group 180">
          <rect id="Rectangle_39" data-name="Rectangle 39" width="5.441" height="5.441" transform="translate(626.946 141.173)" fill="#e0e0e0"/>
        </g>
      </g>
    </g>
    <g id="Panel" transform="translate(841.154 2107.46)">
      <g id="Group_325" data-name="Group 325" transform="translate(259.472 60.007)">
        <g id="Group_322" data-name="Group 322">
          <g id="Group_184" data-name="Group 184" transform="translate(293.13 2.181)">
            <path id="Path_40" data-name="Path 40" d="M487.046,61.459s22.978.323,13.146,45.813-8.564,54.093-8.564,72.089c0,21.086,16.992,28.637,16.992,28.637H477.46L454.541,101.815V61.459Z" transform="translate(-454.541 -61.459)" fill="#e0e0e0"/>
          </g>
          <g id="Group_185" data-name="Group 185" transform="translate(17.747 37.006)">
            <path id="Path_41" data-name="Path 41" d="M585.925,407.954H271.282l2.8-307.831L570.443,84.634Z" transform="translate(-271.282 -84.634)" fill="#e0e0e0"/>
          </g>
          <g id="Group_186" data-name="Group 186" transform="translate(6.947 38.583)">
            <path id="Path_42" data-name="Path 42" d="M578.738,399.48H264.094l2.8-307.832L572.4,85.683Z" transform="translate(-264.094 -85.683)" fill="#ebebeb"/>
          </g>
          <g id="Group_190" data-name="Group 190" transform="translate(0.668 34.891)">
            <g id="Group_187" data-name="Group 187" transform="translate(0.392 0.338)">
              <path id="Path_43" data-name="Path 43" d="M574.184,392.017H260.177V84.185l314.2-.734Z" transform="translate(-260.177 -83.451)" fill="#fafafa"/>
            </g>
            <g id="Group_189" data-name="Group 189">
              <g id="Group_188" data-name="Group 188">
                <path id="Path_44" data-name="Path 44" d="M574.315,392.131c0-2.876-.059-123.486-.147-308.567l.338.338c-91.05.228-198.739.5-313.7.786l-.493,0,.391-.391c-.02,112.609-.038,218.2-.053,307.83l-.338-.338,314.006.34-314.006.34h-.34v-.341c-.015-89.627-.033-195.221-.053-307.83v-.391l.391,0h.493l313.7-.679h.34l0,.338C574.526,268.645,574.319,389.258,574.315,392.131Z" transform="translate(-259.916 -83.226)" fill="#263238"/>
              </g>
            </g>
          </g>
          <g id="Group_191" data-name="Group 191" transform="translate(0 1.066)">
            <path id="Path_45" data-name="Path 45" d="M574.729,94.05c-16.22-18.887,2.6-32.868,8.947-33.163l-298.992-.17A25.182,25.182,0,0,0,259.851,90.2a34.654,34.654,0,0,0,1.213,4.681" transform="translate(-259.472 -60.717)" fill="#f5f5f5"/>
          </g>
          <g id="Group_193" data-name="Group 193" transform="translate(308.629 1.877)">
            <g id="Group_192" data-name="Group 192">
              <path id="Path_46" data-name="Path 46" d="M479.413,208.1a1.96,1.96,0,0,1,.41-.033l1.207-.033,4.7-.062,17.709-.11-.071.466a18.966,18.966,0,0,1-7.223-4.137,23.523,23.523,0,0,1-5.392-7.683,51.391,51.391,0,0,1-3.223-9.831c-.409-1.752-.768-3.549-1.1-5.386-.162-.918-.352-1.836-.434-2.8a23.147,23.147,0,0,1-.216-2.888,107.033,107.033,0,0,1,.4-11.964c.3-4.092.757-8.281,1.252-12.561,1.025-8.555,2.313-17.463,3.829-26.593.622-3.9,1.413-7.752,2.057-11.526.618-3.791,1.124-7.55,1.6-11.243q.667-5.549,1.309-10.892c.191-1.785.437-3.542.478-5.265a31.721,31.721,0,0,0-.287-5.127,30.77,30.77,0,0,0-2.834-9.437,18.828,18.828,0,0,0-5.74-7.16,11.3,11.3,0,0,0-8.173-1.826,15,15,0,0,0-7.278,3.023,17.942,17.942,0,0,0-4.544,5.623,24.2,24.2,0,0,0-2.206,6.122,15.983,15.983,0,0,0,1.195,10.179,33.869,33.869,0,0,0,3.31,5.751c.425.6.76,1.061,1.01,1.41a3.476,3.476,0,0,1,.331.491,3.181,3.181,0,0,1-.394-.443c-.254-.3-.612-.757-1.074-1.364a31.493,31.493,0,0,1-3.461-5.719,16.224,16.224,0,0,1-1.345-10.394,24.479,24.479,0,0,1,2.194-6.262,18.38,18.38,0,0,1,4.639-5.826,15.55,15.55,0,0,1,7.539-3.189,11.9,11.9,0,0,1,8.625,1.89A19.43,19.43,0,0,1,494.2,70.69a31.386,31.386,0,0,1,2.932,9.643,32.614,32.614,0,0,1,.308,5.244c-.039,1.785-.284,3.551-.47,5.33q-.6,5.349-1.291,10.905c-.472,3.7-.975,7.464-1.591,11.273-.651,3.817-1.432,7.622-2.054,11.529-1.515,9.118-2.809,18.016-3.845,26.554-.5,4.271-.965,8.451-1.276,12.528a107.136,107.136,0,0,0-.436,11.88,22.158,22.158,0,0,0,.2,2.827c.074.927.26,1.853.418,2.768.326,1.829.678,3.618,1.074,5.359a51.021,51.021,0,0,0,3.132,9.725,23.062,23.062,0,0,0,5.214,7.538,18.542,18.542,0,0,0,6.994,4.08l1.471.475-1.54-.009-17.709-.111-4.7-.062-1.207-.033A1.838,1.838,0,0,1,479.413,208.1Z" transform="translate(-464.855 -61.257)" fill="#263238"/>
            </g>
          </g>
          <g id="Group_195" data-name="Group 195" transform="translate(125.669 10.644)">
            <g id="Group_194" data-name="Group 194">
              <path id="Path_47" data-name="Path 47" d="M346.957,67.093c.122.086-.772,1.282-1.663,3.465a19.7,19.7,0,0,0-1.127,3.963,20.356,20.356,0,0,0,.763,9.961,19.7,19.7,0,0,0,1.721,3.745c1.213,2.021,2.28,3.067,2.171,3.169-.038.039-.325-.2-.816-.664a12.8,12.8,0,0,1-1.823-2.209,17.547,17.547,0,0,1-1.934-3.8,19.32,19.32,0,0,1-.792-10.331,17.543,17.543,0,0,1,1.33-4.051,12.785,12.785,0,0,1,1.465-2.463C346.667,67.338,346.915,67.061,346.957,67.093Z" transform="translate(-343.1 -67.09)" fill="#263238"/>
            </g>
          </g>
          <g id="Group_197" data-name="Group 197" transform="translate(114.167)">
            <g id="Group_196" data-name="Group 196">
              <path id="Path_48" data-name="Path 48" d="M343.34,60.01a32.091,32.091,0,0,0-3.972,4.852,19.867,19.867,0,0,0,5.005,26.84,32.2,32.2,0,0,0,5.452,3.093,5.942,5.942,0,0,1-1.65-.452,18.009,18.009,0,0,1-4.129-2.194A19.84,19.84,0,0,1,338.9,64.563a17.94,17.94,0,0,1,3.06-3.536A5.891,5.891,0,0,1,343.34,60.01Z" transform="translate(-335.446 -60.007)" fill="#263238"/>
            </g>
          </g>
          <g id="Group_199" data-name="Group 199" transform="translate(42.165 107.911)">
            <g id="Group_198" data-name="Group 198">
              <path id="Path_49" data-name="Path 49" d="M536.423,264.207s-.334.027-.984.041l-2.885.039-11.1.074-40.816.125-134.66.114-58.073-.02h-.374l0-.373c.057-38.472.105-71.561.14-95.061.047-11.717.083-21.042.108-27.466.026-3.18.047-5.637.06-7.33.013-.813.024-1.44.032-1.89.01-.424.033-.64.033-.64s.021.216.032.64c.008.451.018,1.077.032,1.89.015,1.694.035,4.15.062,7.33.024,6.424.062,15.75.108,27.466.035,23.5.083,56.589.14,95.061l-.373-.371,58.073-.02,134.66.114,40.816.125,11.1.074,2.885.039C536.089,264.18,536.423,264.207,536.423,264.207Z" transform="translate(-287.531 -131.819)" fill="#263238"/>
            </g>
          </g>
          <g id="Group_200" data-name="Group 200" transform="translate(62.737 207.593)">
            <rect id="Rectangle_40" data-name="Rectangle 40" width="25.104" height="25.104" fill="#fbd206"/>
          </g>
          <g id="Group_201" data-name="Group 201" transform="translate(99.539 189.646)">
            <rect id="Rectangle_41" data-name="Rectangle 41" width="25.104" height="43.05" fill="#fbd206"/>
          </g>
          <g id="Group_202" data-name="Group 202" transform="translate(136.489 169.259)">
            <rect id="Rectangle_42" data-name="Rectangle 42" width="25.104" height="63.437" fill="#fbd206"/>
          </g>
          <g id="Group_203" data-name="Group 203" transform="translate(172.309 146.566)">
            <rect id="Rectangle_43" data-name="Rectangle 43" width="25.104" height="86.131" fill="#fbd206"/>
          </g>
          <g id="Group_204" data-name="Group 204" transform="translate(208.964 117.509)">
            <rect id="Rectangle_44" data-name="Rectangle 44" width="25.104" height="115.188" fill="#fbd206"/>
          </g>
          <g id="Group_205" data-name="Group 205" transform="translate(245.343 95.349)">
            <rect id="Rectangle_45" data-name="Rectangle 45" width="25.104" height="136.156" fill="#fbd206"/>
          </g>
          <g id="Group_207" data-name="Group 207" transform="translate(62.737 69.138)">
            <g id="Group_206" data-name="Group 206">
              <path id="Path_50" data-name="Path 50" d="M301.221,218.733a1.9,1.9,0,0,1,.32-.248l.978-.673c.9-.606,2.182-1.461,3.824-2.559,3.389-2.235,8.268-5.452,14.385-9.484l49.817-32.559.576-.377,0,.691c0,3.555.006,7.36.009,11.236l-.6-.319c6.341-4.251,12.907-8.654,19.631-13.164l69.276-46.283c8.858-5.874,16.038-10.635,21.042-13.951,2.466-1.615,4.394-2.878,5.743-3.76l1.5-.962a3.332,3.332,0,0,1,.527-.305,3.6,3.6,0,0,1-.482.371l-1.462,1.026-5.661,3.881c-4.971,3.366-12.1,8.2-20.9,14.158-17.724,11.912-42.157,28.332-69.148,46.474l-19.64,13.15-.6.4v-.72c0-3.875.006-7.68.011-11.236l.577.313-49.969,32.324-14.5,9.3c-1.671,1.055-2.972,1.875-3.892,2.457l-1.013.621A1.867,1.867,0,0,1,301.221,218.733Z" transform="translate(-301.221 -106.016)" fill="#263238"/>
            </g>
          </g>
          <g id="Group_209" data-name="Group 209" transform="translate(237.174 68.689)">
            <g id="Group_208" data-name="Group 208">
              <path id="Path_51" data-name="Path 51" d="M429.906,116.791a12.977,12.977,0,0,1-.266-3.1c-.069-1.922-.116-4.592-.123-7.587l.389.389c-.305,0-.631,0-.959,0-3.216,0-6.126-.044-8.233-.114a14.869,14.869,0,0,1-3.41-.277,14.869,14.869,0,0,1,3.41-.277c2.107-.071,5.017-.114,8.233-.114h.959l.391,0v.389c-.009,2.995-.056,5.665-.125,7.587A12.981,12.981,0,0,1,429.906,116.791Z" transform="translate(-417.304 -105.718)" fill="#263238"/>
            </g>
          </g>
          <g id="Group_262" data-name="Group 262" transform="translate(22.455 260.154)">
            <g id="Group_211" data-name="Group 211" transform="translate(60.006)">
              <g id="Group_210" data-name="Group 210">
                <path id="Path_52" data-name="Path 52" d="M349.007,233.524c0,.215-7.76.391-17.329.391s-17.331-.176-17.331-.391,7.758-.392,17.331-.392S349.007,233.308,349.007,233.524Z" transform="translate(-314.347 -233.132)" fill="#263238"/>
              </g>
            </g>
            <g id="Group_213" data-name="Group 213" transform="translate(76.475 4.138)">
              <g id="Group_212" data-name="Group 212">
                <path id="Path_53" data-name="Path 53" d="M325.7,244.005c-.216,0-.392-1.818-.392-4.059s.176-4.06.392-4.06.391,1.817.391,4.06S325.916,244.005,325.7,244.005Z" transform="translate(-325.307 -235.886)" fill="#263238"/>
              </g>
            </g>
            <g id="Group_215" data-name="Group 215" transform="translate(26.284 15.926)">
              <g id="Group_214" data-name="Group 214">
                <path id="Path_54" data-name="Path 54" d="M384.954,244.121c0,.216-20.832.391-46.522.391s-46.526-.174-46.526-.391,20.827-.391,46.526-.391S384.954,243.9,384.954,244.121Z" transform="translate(-291.906 -243.73)" fill="#263238"/>
              </g>
            </g>
            <g id="Group_217" data-name="Group 217" transform="translate(26.517 16.629)">
              <g id="Group_216" data-name="Group 216">
                <path id="Path_55" data-name="Path 55" d="M292.453,255.438c-.216,0-.392-2.517-.392-5.62s.176-5.62.392-5.62.391,2.516.391,5.62S292.668,255.438,292.453,255.438Z" transform="translate(-292.061 -244.198)" fill="#263238"/>
              </g>
            </g>
            <g id="Group_219" data-name="Group 219" transform="translate(59.615 16.941)">
              <g id="Group_218" data-name="Group 218">
                <path id="Path_56" data-name="Path 56" d="M314.478,254.085c-.216,0-.391-2.167-.391-4.84s.174-4.839.391-4.839.392,2.165.392,4.839S314.694,254.085,314.478,254.085Z" transform="translate(-314.087 -244.406)" fill="#263238"/>
              </g>
            </g>
            <g id="Group_221" data-name="Group 221" transform="translate(93.65 16.629)">
              <g id="Group_220" data-name="Group 220">
                <path id="Path_57" data-name="Path 57" d="M337.127,254.815c-.216,0-.391-2.377-.391-5.309s.174-5.308.391-5.308.392,2.376.392,5.308S337.343,254.815,337.127,254.815Z" transform="translate(-336.736 -244.198)" fill="#263238"/>
              </g>
            </g>
            <g id="Group_223" data-name="Group 223" transform="translate(119.565 16.316)">
              <g id="Group_222" data-name="Group 222">
                <path id="Path_58" data-name="Path 58" d="M354.374,254.919c-.216,0-.392-2.448-.392-5.465s.176-5.464.392-5.464.391,2.446.391,5.464S354.589,254.919,354.374,254.919Z" transform="translate(-353.982 -243.99)" fill="#263238"/>
              </g>
            </g>
            <g id="Group_225" data-name="Group 225" transform="translate(15.98 30.601)">
              <g id="Group_224" data-name="Group 224">
                <path id="Path_59" data-name="Path 59" d="M307.531,253.887c0,.216-5.034.391-11.24.391s-11.242-.174-11.242-.391,5.033-.391,11.242-.391S307.531,253.67,307.531,253.887Z" transform="translate(-285.049 -253.496)" fill="#263238"/>
              </g>
            </g>
            <g id="Group_227" data-name="Group 227" transform="translate(50.014 30.601)">
              <g id="Group_226" data-name="Group 226">
                <path id="Path_60" data-name="Path 60" d="M324.871,253.887c0,.216-3.844.391-8.586.391s-8.586-.174-8.586-.391,3.844-.391,8.586-.391S324.871,253.67,324.871,253.887Z" transform="translate(-307.698 -253.496)" fill="#263238"/>
              </g>
            </g>
            <g id="Group_229" data-name="Group 229" transform="translate(85.298 31.537)">
              <g id="Group_228" data-name="Group 228">
                <path id="Path_61" data-name="Path 61" d="M349.6,254.51c0,.216-4.125.392-9.212.392s-9.212-.176-9.212-.392,4.123-.391,9.212-.391S349.6,254.295,349.6,254.51Z" transform="translate(-331.178 -254.119)" fill="#263238"/>
              </g>
            </g>
            <g id="Group_231" data-name="Group 231" transform="translate(113.712 29.976)">
              <g id="Group_230" data-name="Group 230">
                <path id="Path_62" data-name="Path 62" d="M369.759,253.471c0,.216-4.4.392-9.835.392s-9.837-.176-9.837-.392,4.4-.391,9.837-.391S369.759,253.256,369.759,253.471Z" transform="translate(-350.087 -253.08)" fill="#263238"/>
              </g>
            </g>
            <g id="Group_240" data-name="Group 240" transform="translate(7.61 35.363)">
              <g id="Group_233" data-name="Group 233" transform="translate(19.219)">
                <g id="Group_232" data-name="Group 232">
                  <path id="Path_63" data-name="Path 63" d="M292.66,263.223c-.215,0-.391-1.468-.391-3.279s.176-3.279.391-3.279.392,1.468.392,3.279S292.876,263.223,292.66,263.223Z" transform="translate(-292.269 -256.665)" fill="#263238"/>
                </g>
              </g>
              <g id="Group_235" data-name="Group 235" transform="translate(0.391 6.166)">
                <g id="Group_234" data-name="Group 234">
                  <path id="Path_64" data-name="Path 64" d="M320.331,261.16c0,.215-9.088.391-20.3.391s-20.3-.176-20.3-.391,9.085-.392,20.3-.392S320.331,260.944,320.331,261.16Z" transform="translate(-279.739 -260.768)" fill="#263238"/>
                </g>
              </g>
              <g id="Group_237" data-name="Group 237" transform="translate(40.591 6.558)">
                <g id="Group_236" data-name="Group 236">
                  <path id="Path_65" data-name="Path 65" d="M306.883,270.4c-.216,0-.392-2.1-.392-4.682s.176-4.684.392-4.684.391,2.1.391,4.684S307.1,270.4,306.883,270.4Z" transform="translate(-306.491 -261.029)" fill="#263238"/>
                </g>
              </g>
              <g id="Group_239" data-name="Group 239" transform="translate(0 6.558)">
                <g id="Group_238" data-name="Group 238">
                  <path id="Path_66" data-name="Path 66" d="M279.87,271.02c-.216,0-.391-2.238-.391-5s.174-4.995.391-4.995.391,2.236.391,4.995S280.086,271.02,279.87,271.02Z" transform="translate(-279.479 -261.029)" fill="#263238"/>
                </g>
              </g>
            </g>
            <g id="Group_251" data-name="Group 251" transform="translate(75.261 35.363)">
              <g id="Group_242" data-name="Group 242" transform="translate(19.219)">
                <g id="Group_241" data-name="Group 241">
                  <path id="Path_67" data-name="Path 67" d="M337.681,263.223c-.216,0-.392-1.468-.392-3.279s.176-3.279.392-3.279.391,1.468.391,3.279S337.9,263.223,337.681,263.223Z" transform="translate(-337.289 -256.665)" fill="#263238"/>
                </g>
              </g>
              <g id="Group_244" data-name="Group 244" transform="translate(0.391 6.166)">
                <g id="Group_243" data-name="Group 243">
                  <path id="Path_68" data-name="Path 68" d="M393.323,261.16c0,.215-15.35.391-34.279.391s-34.284-.176-34.284-.391,15.347-.392,34.284-.392S393.323,260.944,393.323,261.16Z" transform="translate(-324.759 -260.768)" fill="#263238"/>
                </g>
              </g>
              <g id="Group_246" data-name="Group 246" transform="translate(40.591 6.558)">
                <g id="Group_245" data-name="Group 245">
                  <path id="Path_69" data-name="Path 69" d="M351.9,270.4c-.216,0-.392-2.1-.392-4.682s.176-4.684.392-4.684.391,2.1.391,4.684S352.118,270.4,351.9,270.4Z" transform="translate(-351.511 -261.029)" fill="#263238"/>
                </g>
              </g>
              <g id="Group_248" data-name="Group 248" transform="translate(69.964 6.558)">
                <g id="Group_247" data-name="Group 247">
                  <path id="Path_70" data-name="Path 70" d="M371.449,270.4c-.216,0-.391-2.1-.391-4.682s.174-4.684.391-4.684.391,2.1.391,4.684S371.665,270.4,371.449,270.4Z" transform="translate(-371.058 -261.029)" fill="#263238"/>
                </g>
              </g>
              <g id="Group_250" data-name="Group 250" transform="translate(0 6.558)">
                <g id="Group_249" data-name="Group 249">
                  <path id="Path_71" data-name="Path 71" d="M324.89,271.02c-.216,0-.391-2.238-.391-5s.174-4.995.391-4.995.392,2.236.392,4.995S325.106,271.02,324.89,271.02Z" transform="translate(-324.499 -261.029)" fill="#263238"/>
                </g>
              </g>
            </g>
            <g id="Group_253" data-name="Group 253" transform="translate(0 57.278)">
              <g id="Group_252" data-name="Group 252">
                <path id="Path_72" data-name="Path 72" d="M290.416,271.64c0,.216-3.582.391-8,.391s-8-.174-8-.391,3.581-.391,8-.391S290.416,271.423,290.416,271.64Z" transform="translate(-274.415 -271.249)" fill="#263238"/>
              </g>
            </g>
            <g id="Group_255" data-name="Group 255" transform="translate(38.462 56.132)">
              <g id="Group_254" data-name="Group 254">
                <path id="Path_73" data-name="Path 73" d="M317.3,270.878c0,.215-3.871.391-8.645.391s-8.645-.176-8.645-.391,3.869-.392,8.645-.392S317.3,270.662,317.3,270.878Z" transform="translate(-300.01 -270.486)" fill="#263238"/>
              </g>
            </g>
            <g id="Group_257" data-name="Group 257" transform="translate(69.253 56.132)">
              <g id="Group_256" data-name="Group 256">
                <path id="Path_74" data-name="Path 74" d="M335.728,270.878c0,.215-3.408.391-7.613.391s-7.614-.176-7.614-.391,3.408-.392,7.614-.392S335.728,270.662,335.728,270.878Z" transform="translate(-320.501 -270.486)" fill="#263238"/>
              </g>
            </g>
            <g id="Group_259" data-name="Group 259" transform="translate(106.682 56.132)">
              <g id="Group_258" data-name="Group 258">
                <path id="Path_75" data-name="Path 75" d="M361.925,270.878c0,.215-3.7.391-8.257.391s-8.259-.176-8.259-.391,3.7-.392,8.259-.392S361.925,270.662,361.925,270.878Z" transform="translate(-345.409 -270.486)" fill="#263238"/>
              </g>
            </g>
            <g id="Group_261" data-name="Group 261" transform="translate(137.393 55.099)">
              <g id="Group_260" data-name="Group 260">
                <path id="Path_76" data-name="Path 76" d="M382.621,270.19c0,.216-3.755.392-8.387.392s-8.388-.176-8.388-.392,3.755-.391,8.388-.391S382.621,269.975,382.621,270.19Z" transform="translate(-365.846 -269.799)" fill="#263238"/>
              </g>
            </g>
          </g>
          <g id="Group_278" data-name="Group 278" transform="translate(184.822 256.095)">
            <g id="Group_263" data-name="Group 263">
              <path id="Path_77" data-name="Path 77" d="M488.474,296.072H382.465V230.431H488.474ZM382.542,296H488.4V230.506H382.542Z" transform="translate(-382.465 -230.431)" fill="#263238"/>
            </g>
            <g id="Group_265" data-name="Group 265" transform="translate(11.299 19.336)">
              <g id="Group_264" data-name="Group 264">
                <path id="Path_78" data-name="Path 78" d="M459.082,271.4c-7.347-2.785-15.795,4.917-23,1.776-4.19-1.827-6.09-6.567-8.143-10.651s-5.59-8.393-10.137-7.919c-4.586.479-8.293,5.788-12.723,4.508-2.792-.805-4.187-3.9-4.887-6.723s-1.186-5.939-3.313-7.916-6.565-1.449-6.9,1.438v34.757h82.839S461.624,272.369,459.082,271.4Z" transform="translate(-389.984 -243.299)" fill="#fbd206"/>
              </g>
            </g>
            <g id="Group_268" data-name="Group 268" transform="translate(6.661 56.577)">
              <g id="Group_267" data-name="Group 267">
                <g id="Group_266" data-name="Group 266">
                  <path id="Path_79" data-name="Path 79" d="M476.586,268.216c0,.074-20.079.134-44.842.134s-44.846-.06-44.846-.134,20.074-.135,44.846-.135S476.586,268.141,476.586,268.216Z" transform="translate(-386.898 -268.081)" fill="#e0e0e0"/>
                </g>
              </g>
            </g>
            <g id="Group_271" data-name="Group 271" transform="translate(6.661 41.395)">
              <g id="Group_270" data-name="Group 270">
                <g id="Group_269" data-name="Group 269">
                  <path id="Path_80" data-name="Path 80" d="M476.586,258.113c0,.075-20.079.135-44.842.135s-44.846-.06-44.846-.135,20.074-.135,44.846-.135S476.586,258.04,476.586,258.113Z" transform="translate(-386.898 -257.978)" fill="#263238"/>
                </g>
              </g>
            </g>
            <g id="Group_274" data-name="Group 274" transform="translate(6.661 26.215)">
              <g id="Group_273" data-name="Group 273">
                <g id="Group_272" data-name="Group 272">
                  <path id="Path_81" data-name="Path 81" d="M476.586,248.01c0,.075-20.079.135-44.842.135s-44.846-.06-44.846-.135,20.074-.134,44.846-.134S476.586,247.936,476.586,248.01Z" transform="translate(-386.898 -247.876)" fill="#263238"/>
                </g>
              </g>
            </g>
            <g id="Group_277" data-name="Group 277" transform="translate(6.661 11.786)">
              <g id="Group_276" data-name="Group 276">
                <g id="Group_275" data-name="Group 275">
                  <path id="Path_82" data-name="Path 82" d="M476.586,238.409c0,.074-20.079.135-44.842.135s-44.846-.062-44.846-.135,20.074-.135,44.846-.135S476.586,238.334,476.586,238.409Z" transform="translate(-386.898 -238.274)" fill="#263238"/>
                </g>
              </g>
            </g>
          </g>
          <g id="Group_298" data-name="Group 298" transform="translate(33.284 57.501)">
            <g id="Group_297" data-name="Group 297">
              <g id="Group_281" data-name="Group 281">
                <g id="Group_280" data-name="Group 280">
                  <g id="Group_279" data-name="Group 279">
                    <path id="Path_83" data-name="Path 83" d="M290.888,98.291a.6.6,0,0,1,.146-.009h.43a9.657,9.657,0,0,1,1.65.149,9.051,9.051,0,0,1,2.5.854,8.261,8.261,0,0,1,2.661,2.286,9.552,9.552,0,0,1,1.752,3.9,9.245,9.245,0,0,1-.616,4.893,14.48,14.48,0,0,1-1.214,2.409,25.613,25.613,0,0,0-1.372,2.427,21.265,21.265,0,0,0-1.835,5.574l-.023.131-.128,0-3.927-.095-4.117-.1-.146,0v-.149a11.76,11.76,0,0,0-1.689-5.507c-.445-.834-.935-1.617-1.393-2.409a23.078,23.078,0,0,1-1.3-2.334,7.668,7.668,0,0,1-.428-4.864,10.337,10.337,0,0,1,1.692-3.9,7.68,7.68,0,0,1,2.681-2.224,9.728,9.728,0,0,1,2.478-.845,10.484,10.484,0,0,1,1.633-.2c.188,0,.331-.006.427,0a.628.628,0,0,1,.144.015.606.606,0,0,1-.144.014l-.424.027a11.957,11.957,0,0,0-1.614.249,9.808,9.808,0,0,0-2.428.878,7.547,7.547,0,0,0-2.594,2.2,10.2,10.2,0,0,0-1.621,3.826,7.448,7.448,0,0,0,.44,4.709,22.817,22.817,0,0,0,1.3,2.3c.454.78.953,1.572,1.4,2.412a11.985,11.985,0,0,1,1.736,5.65l-.144-.152,4.117.1,3.927.1-.152.129a21.412,21.412,0,0,1,1.872-5.659,26.241,26.241,0,0,1,1.393-2.446,14.333,14.333,0,0,0,1.2-2.361,9.043,9.043,0,0,0,.63-4.756,9.422,9.422,0,0,0-1.679-3.823,8.188,8.188,0,0,0-2.577-2.268,9.2,9.2,0,0,0-2.442-.884,11.267,11.267,0,0,0-1.632-.2l-.427-.029A.491.491,0,0,1,290.888,98.291Z" transform="translate(-281.621 -98.273)" fill="#263238"/>
                  </g>
                </g>
              </g>
              <g id="Group_284" data-name="Group 284" transform="translate(4.094 7.425)">
                <g id="Group_283" data-name="Group 283">
                  <g id="Group_282" data-name="Group 282">
                    <path id="Path_84" data-name="Path 84" d="M290.667,117.96s-.009-.042-.02-.125l-.045-.371c-.038-.332-.092-.811-.159-1.428-.129-1.24-.322-3.035-.41-5.265-.02-.557-.035-1.142-.033-1.752s0-1.243.066-1.9a5.324,5.324,0,0,1,.527-1.97,3.02,3.02,0,0,1,1.578-1.456,2.034,2.034,0,0,1,2.146.5,1.509,1.509,0,0,1,.419,1.107,1.928,1.928,0,0,1-.452,1.121,2.583,2.583,0,0,1-.987.733,4.985,4.985,0,0,1-1.2.344,14.267,14.267,0,0,1-2.519.192,14.864,14.864,0,0,1-2.519-.224,4.759,4.759,0,0,1-1.183-.394,3.123,3.123,0,0,1-.972-.753,2.31,2.31,0,0,1-.533-1.086,1.791,1.791,0,0,1,.189-1.171,1.6,1.6,0,0,1,.863-.775,1.437,1.437,0,0,1,1.129.1,2.16,2.16,0,0,1,.816.751,2.971,2.971,0,0,1,.382,1.007,11.962,11.962,0,0,1,.119,2.035c.015,1.312.03,2.532.044,3.647.023,2.225.041,4.029.053,5.28,0,.619.007,1.1.009,1.435,0,.161,0,.286,0,.374s0,.128,0,.128,0-.044-.008-.128l-.012-.373c-.008-.334-.018-.816-.032-1.437-.021-1.252-.053-3.053-.092-5.279-.018-1.115-.038-2.337-.059-3.646a11.918,11.918,0,0,0-.123-2.015,2.821,2.821,0,0,0-.37-.968,2.01,2.01,0,0,0-.772-.711,1.317,1.317,0,0,0-1.038-.09,1.479,1.479,0,0,0-.8.721,1.681,1.681,0,0,0-.176,1.094,2.208,2.208,0,0,0,.508,1.029,3.591,3.591,0,0,0,2.087,1.1,14.526,14.526,0,0,0,2.494.221,14.149,14.149,0,0,0,2.5-.188,4.921,4.921,0,0,0,1.168-.335,2.475,2.475,0,0,0,.944-.7,1.823,1.823,0,0,0,.427-1.05,1.4,1.4,0,0,0-.386-1.02,1.917,1.917,0,0,0-2.023-.472,2.909,2.909,0,0,0-1.519,1.4,5.227,5.227,0,0,0-.521,1.929c-.063.649-.065,1.282-.072,1.89s.008,1.19.024,1.748c.077,2.225.257,4.023.37,5.264.06.616.105,1.1.137,1.429l.033.373C290.667,117.917,290.667,117.96,290.667,117.96Z" transform="translate(-284.346 -103.214)" fill="#263238"/>
                  </g>
                </g>
              </g>
              <g id="Group_287" data-name="Group 287" transform="translate(4.99 22.12)">
                <g id="Group_286" data-name="Group 286">
                  <g id="Group_285" data-name="Group 285">
                    <path id="Path_85" data-name="Path 85" d="M285.127,113.043c.02.02.033.5.05,1.325q.018,1.44.039,3.449l-.029-.084c.76.953,1.621,2.029,2.55,3.19l-.135-.065,3.1-.05-.132.06,1.615-1.818.81-.909-.045.119c.03-1.814.06-3.531.087-5.1l.162.167-5.779-.17-1.669-.069a4.445,4.445,0,0,1-.622-.048,2.948,2.948,0,0,1,.553-.03l1.633-.02L293.2,113h.164v.168c-.017,1.566-.035,3.283-.053,5.1v.068l-.047.051c-.266.3-.536.6-.808.911l-1.62,1.814-.054.06-.08,0-3.1.026h-.086l-.051-.066-2.5-3.231-.03-.041v-.045q.063-2.058.108-3.531A10.716,10.716,0,0,1,285.127,113.043Z" transform="translate(-284.942 -112.993)" fill="#263238"/>
                  </g>
                </g>
              </g>
              <g id="Group_290" data-name="Group 290" transform="translate(5.248 25.819)">
                <g id="Group_289" data-name="Group 289">
                  <g id="Group_288" data-name="Group 288">
                    <path id="Path_86" data-name="Path 86" d="M292.842,116.6a1.846,1.846,0,0,1-.288-.137c-.183-.092-.451-.218-.79-.35a7.823,7.823,0,0,0-5.561-.054,8.55,8.55,0,0,0-.8.335,1.761,1.761,0,0,1-.292.129,1.515,1.515,0,0,1,.269-.173,6.5,6.5,0,0,1,.787-.373,7.432,7.432,0,0,1,5.626.054,6.63,6.63,0,0,1,.78.389A1.356,1.356,0,0,1,292.842,116.6Z" transform="translate(-285.114 -115.455)" fill="#263238"/>
                  </g>
                </g>
              </g>
              <g id="Group_293" data-name="Group 293" transform="translate(5.298 24.583)">
                <g id="Group_292" data-name="Group 292">
                  <g id="Group_291" data-name="Group 291">
                    <path id="Path_87" data-name="Path 87" d="M292.874,115.779a1.705,1.705,0,0,1-.289-.135c-.182-.092-.449-.218-.789-.35a7.838,7.838,0,0,0-5.563-.056c-.341.126-.612.246-.8.335a1.844,1.844,0,0,1-.29.131,1.271,1.271,0,0,1,.269-.173,6.257,6.257,0,0,1,.787-.374,7.437,7.437,0,0,1,5.625.056,6.29,6.29,0,0,1,.78.389A1.427,1.427,0,0,1,292.874,115.779Z" transform="translate(-285.147 -114.632)" fill="#263238"/>
                  </g>
                </g>
              </g>
              <g id="Group_296" data-name="Group 296" transform="translate(5.272 23.403)">
                <g id="Group_295" data-name="Group 295">
                  <g id="Group_294" data-name="Group 294">
                    <path id="Path_88" data-name="Path 88" d="M292.857,114.994a1.7,1.7,0,0,1-.289-.135c-.182-.092-.449-.218-.789-.35a7.827,7.827,0,0,0-5.563-.054c-.341.125-.612.245-.8.334a1.838,1.838,0,0,1-.29.131,1.351,1.351,0,0,1,.269-.173,6.479,6.479,0,0,1,.787-.374,7.437,7.437,0,0,1,5.625.056,6.51,6.51,0,0,1,.78.389A1.427,1.427,0,0,1,292.857,114.994Z" transform="translate(-285.13 -113.847)" fill="#263238"/>
                  </g>
                </g>
              </g>
            </g>
          </g>
          <g id="Group_313" data-name="Group 313" transform="translate(73.857 113.519)">
            <g id="Group_300" data-name="Group 300" transform="translate(0 0.891)">
              <g id="Group_299" data-name="Group 299">
                <path id="Path_89" data-name="Path 89" d="M309.745,136.144s-3.032,27.719.866,42.9l37.037-1.62s-7.937-27.343-3.064-39.456Z" transform="translate(-308.621 -136.144)" fill="#ebebeb"/>
              </g>
            </g>
            <g id="Group_312" data-name="Group 312" transform="translate(1.271)">
              <g id="Group_302" data-name="Group 302">
                <g id="Group_301" data-name="Group 301">
                  <path id="Path_90" data-name="Path 90" d="M309.467,135.551s.254,29.926,1.775,39.057l37.536-1.775s-3.3-29.42-2.029-37.282Z" transform="translate(-309.467 -135.551)" fill="#fbd206"/>
                </g>
              </g>
              <g id="Group_305" data-name="Group 305" transform="translate(6.436 12.53)">
                <g id="Group_304" data-name="Group 304">
                  <g id="Group_303" data-name="Group 303">
                    <path id="Path_91" data-name="Path 91" d="M338.938,143.93c.009.138-5.625.589-12.578,1.008s-12.6.645-12.611.506,5.623-.589,12.579-1.007S338.929,143.791,338.938,143.93Z" transform="translate(-313.75 -143.889)" fill="#fff"/>
                  </g>
                </g>
              </g>
              <g id="Group_308" data-name="Group 308" transform="translate(6.447 18.869)">
                <g id="Group_307" data-name="Group 307">
                  <g id="Group_306" data-name="Group 306">
                    <path id="Path_92" data-name="Path 92" d="M338.945,148.147c.007.138-5.625.589-12.579,1.008s-12.6.646-12.609.508,5.623-.589,12.579-1.008S338.936,148.011,338.945,148.147Z" transform="translate(-313.757 -148.108)" fill="#fff"/>
                  </g>
                </g>
              </g>
              <g id="Group_311" data-name="Group 311" transform="translate(10.904 25.066)">
                <g id="Group_310" data-name="Group 310">
                  <g id="Group_309" data-name="Group 309">
                    <path id="Path_93" data-name="Path 93" d="M331.074,152.3a8.848,8.848,0,0,1-2.092.3c-1.3.123-3.087.26-5.069.379s-3.778.2-5.078.231a8.9,8.9,0,0,1-2.113-.05,8.84,8.84,0,0,1,2.09-.3c1.3-.123,3.088-.26,5.07-.379s3.776-.2,5.078-.231A8.9,8.9,0,0,1,331.074,152.3Z" transform="translate(-316.723 -152.232)" fill="#fff"/>
                  </g>
                </g>
              </g>
            </g>
          </g>
          <g id="Group_315" data-name="Group 315" transform="translate(62.65 64.534)">
            <g id="Group_314" data-name="Group 314">
              <path id="Path_94" data-name="Path 94" d="M399.229,103.345c0,.216-21.954.391-49.031.391s-49.034-.174-49.034-.391,21.95-.392,49.034-.392S399.229,103.129,399.229,103.345Z" transform="translate(-301.163 -102.953)" fill="#263238"/>
            </g>
          </g>
          <g id="Group_317" data-name="Group 317" transform="translate(61.883 73.472)">
            <g id="Group_316" data-name="Group 316">
              <path id="Path_95" data-name="Path 95" d="M337.429,109.293c0,.216-8.233.391-18.387.391s-18.388-.174-18.388-.391,8.232-.392,18.388-.392S337.429,109.077,337.429,109.293Z" transform="translate(-300.653 -108.901)" fill="#263238"/>
            </g>
          </g>
          <g id="Group_319" data-name="Group 319" transform="translate(104.02 73.472)">
            <g id="Group_318" data-name="Group 318">
              <path id="Path_96" data-name="Path 96" d="M342.869,109.293c0,.216-3.174.391-7.087.391s-7.088-.174-7.088-.391,3.174-.392,7.088-.392S342.869,109.077,342.869,109.293Z" transform="translate(-328.694 -108.901)" fill="#263238"/>
            </g>
          </g>
          <g id="Group_321" data-name="Group 321" transform="translate(315.238 35.229)">
            <g id="Group_320" data-name="Group 320">
              <path id="Path_97" data-name="Path 97" d="M477.2,216.36a1.115,1.115,0,0,1-.062-.34c-.027-.273-.059-.6-.1-1.005q-.111-1.427-.3-3.868c-.234-3.434-.567-8.278-.974-14.234-.751-12.086-1.781-28.665-2.918-46.98-1.049-18.327-2-34.914-2.69-47-.3-5.963-.552-10.812-.726-14.249q-.1-2.446-.158-3.877c-.009-.4-.015-.733-.021-1.008a1.1,1.1,0,0,1,.02-.346,1.174,1.174,0,0,1,.06.341l.1,1.005q.11,1.427.3,3.866c.234,3.434.566,8.278.974,14.234.751,12.088,1.781,28.667,2.92,46.988,1.047,18.319,2,34.9,2.688,46.994.3,5.963.552,10.812.726,14.25q.1,2.443.158,3.877c.009.4.017.735.021,1.008A1.2,1.2,0,0,1,477.2,216.36Z" transform="translate(-469.253 -83.451)" fill="#263238"/>
            </g>
          </g>
        </g>
        <g id="Group_324" data-name="Group 324" transform="translate(0.537 0.324)">
          <g id="Group_323" data-name="Group 323">
            <path id="Path_98" data-name="Path 98" d="M574.549,61.129s-.3.027-.872.039l-2.556.033-9.828.051-36.146.045L405.9,61.152l-123.453-.4.063-.008a29.706,29.706,0,0,0-15.7,9.784,28.96,28.96,0,0,0-6.1,12.59,30.216,30.216,0,0,0-.582,8.845c.092,1.011.186,1.779.273,2.292s.1.78.1.78a20.785,20.785,0,0,1-.523-3.056,29.641,29.641,0,0,1,6.51-21.717,30.086,30.086,0,0,1,15.891-10.034l.032-.008h.033l123.453.146,119.248.376c15.239.086,27.581.155,36.144.2l9.828.095,2.556.044C574.253,61.1,574.549,61.129,574.549,61.129Z" transform="translate(-259.829 -60.223)" fill="#263238"/>
          </g>
        </g>
      </g>
    </g>
    <g id="Group_5447" data-name="Group 5447" transform="translate(1106.286 2078.598)">
      <g id="Group_925" data-name="Group 925" transform="translate(193.141 39.112)">
        <g id="Group_924" data-name="Group 924">
          <g id="Group_923" data-name="Group 923">
            <g id="Group_922" data-name="Group 922">
              <g id="Group_921" data-name="Group 921">
                <g id="Group_920" data-name="Group 920">
                  <g id="Group_917" data-name="Group 917">
                    <circle id="Ellipse_1" data-name="Ellipse 1" cx="40.005" cy="40.005" r="40.005" transform="translate(0 22.831) rotate(-16.58)" fill="#f5f5f5"/>
                  </g>
                  <g id="Group_919" data-name="Group 919" transform="translate(9.661 9.404)">
                    <g id="Group_918" data-name="Group 918">
                      <path id="Path_271" data-name="Path 271" d="M198.569,81.955a3.322,3.322,0,0,1,.039.651c0,.477.009,1.106.018,1.9v1.4c.024.513.1,1.073.155,1.68a28.994,28.994,0,0,0,.578,4.164,38.226,38.226,0,0,0,3.75,10.841,39.636,39.636,0,0,0,46.4,19.954,36.386,36.386,0,0,0,10.338-4.723,44.7,44.7,0,0,0,4.725-3.514,44.529,44.529,0,0,0,4.166-4.322,38.254,38.254,0,0,0,6.351-10.5,42.285,42.285,0,0,0,2.854-12.313,42.244,42.244,0,0,0-1.216-12.585A38.262,38.262,0,0,0,271.8,63.343a44.769,44.769,0,0,0-3.566-4.832,44.78,44.78,0,0,0-4.224-4.1,36.383,36.383,0,0,0-9.634-6.037,39.739,39.739,0,0,0-48.61,13.718,38.2,38.2,0,0,0-5.133,10.256,29.132,29.132,0,0,0-1.117,4.051c-.132.6-.281,1.141-.372,1.647q-.1.759-.184,1.387c-.112.787-.2,1.411-.267,1.882a3.375,3.375,0,0,1-.123.64,3.179,3.179,0,0,1,.028-.648c.044-.477.1-1.1.175-1.9q.063-.635.14-1.4c.075-.511.212-1.062.329-1.665a28.4,28.4,0,0,1,1.043-4.107,37.884,37.884,0,0,1,5.049-10.441,40.3,40.3,0,0,1,28.314-17.3,40.465,40.465,0,0,1,21.076,3.087,37.071,37.071,0,0,1,9.866,6.143,45.274,45.274,0,0,1,4.331,4.188,45.35,45.35,0,0,1,3.656,4.936,39.083,39.083,0,0,1,5.052,11.5,43.137,43.137,0,0,1,1.249,12.883,43.154,43.154,0,0,1-2.925,12.605,39.135,39.135,0,0,1-6.513,10.741,37.031,37.031,0,0,1-9.109,8,37.289,37.289,0,0,1-10.583,4.8,40.458,40.458,0,0,1-21.295.3,40.284,40.284,0,0,1-25.812-20.852A37.9,37.9,0,0,1,199,91.817a28.33,28.33,0,0,1-.5-4.208c-.039-.613-.1-1.178-.109-1.695l.044-1.408c.031-.8.055-1.428.075-1.906A3.29,3.29,0,0,1,198.569,81.955Z" transform="translate(-198.392 -44.223)" fill="#263238"/>
                    </g>
                  </g>
                </g>
              </g>
            </g>
          </g>
        </g>
      </g>
      <g id="Group_932" data-name="Group 932" transform="translate(242.417 66.523)">
        <g id="Group_931" data-name="Group 931">
          <g id="Group_930" data-name="Group 930">
            <g id="Group_929" data-name="Group 929">
              <g id="Group_928" data-name="Group 928">
                <g id="Group_927" data-name="Group 927">
                  <g id="Group_926" data-name="Group 926">
                    <path id="Path_272" data-name="Path 272" d="M238.569,77.588a8.163,8.163,0,0,1-1.413.092l-3.888.079c-3.3.046-7.9.077-13.085.085h-.258v-.256c0-.832,0-1.707,0-2.594,0-5.8.029-11.041.075-14.839.033-1.831.061-3.345.083-4.5a9.934,9.934,0,0,1,.1-1.649,10.087,10.087,0,0,1,.1,1.649c.022,1.152.05,2.666.083,4.5.046,3.8.075,9.043.075,14.839,0,.887,0,1.763,0,2.594l-.256-.258c5.189.007,9.785.039,13.085.085l3.888.079A7.8,7.8,0,0,1,238.569,77.588Z" transform="translate(-219.923 -54.01)" fill="#263238"/>
                  </g>
                </g>
              </g>
            </g>
          </g>
        </g>
      </g>
      <g id="Group_939" data-name="Group 939" transform="translate(242.541 55.436)">
        <g id="Group_938" data-name="Group 938">
          <g id="Group_937" data-name="Group 937">
            <g id="Group_936" data-name="Group 936">
              <g id="Group_935" data-name="Group 935">
                <g id="Group_934" data-name="Group 934">
                  <g id="Group_933" data-name="Group 933">
                    <path id="Path_273" data-name="Path 273" d="M220.248,47.984a11.1,11.1,0,0,1,.259,3.36,11.108,11.108,0,0,1-.259,3.361,11.213,11.213,0,0,1-.258-3.361A11.206,11.206,0,0,1,220.248,47.984Z" transform="translate(-219.99 -47.984)" fill="#263238"/>
                  </g>
                </g>
              </g>
            </g>
          </g>
        </g>
      </g>
      <g id="Group_946" data-name="Group 946" transform="translate(256.335 60.825)">
        <g id="Group_945" data-name="Group 945">
          <g id="Group_944" data-name="Group 944">
            <g id="Group_943" data-name="Group 943">
              <g id="Group_942" data-name="Group 942">
                <g id="Group_941" data-name="Group 941">
                  <g id="Group_940" data-name="Group 940">
                    <path id="Path_274" data-name="Path 274" d="M232.179,50.92a10.792,10.792,0,0,1-2.158,2.526,10.791,10.791,0,0,1-2.526,2.158,10.9,10.9,0,0,1,2.16-2.524A10.883,10.883,0,0,1,232.179,50.92Z" transform="translate(-227.487 -50.913)" fill="#263238"/>
                  </g>
                </g>
              </g>
            </g>
          </g>
        </g>
      </g>
      <g id="Group_953" data-name="Group 953" transform="translate(266.021 72.458)">
        <g id="Group_952" data-name="Group 952">
          <g id="Group_951" data-name="Group 951">
            <g id="Group_950" data-name="Group 950">
              <g id="Group_949" data-name="Group 949">
                <g id="Group_948" data-name="Group 948">
                  <g id="Group_947" data-name="Group 947">
                    <path id="Path_275" data-name="Path 275" d="M238.415,57.253a13.873,13.873,0,0,1-2.756,1.84,13.957,13.957,0,0,1-2.9,1.6,8.868,8.868,0,0,1,2.635-2.042A8.887,8.887,0,0,1,238.415,57.253Z" transform="translate(-232.752 -57.236)" fill="#263238"/>
                  </g>
                </g>
              </g>
            </g>
          </g>
        </g>
      </g>
      <g id="Group_960" data-name="Group 960" transform="translate(268.766 89.494)">
        <g id="Group_959" data-name="Group 959">
          <g id="Group_958" data-name="Group 958">
            <g id="Group_957" data-name="Group 957">
              <g id="Group_956" data-name="Group 956">
                <g id="Group_955" data-name="Group 955">
                  <g id="Group_954" data-name="Group 954">
                    <path id="Path_276" data-name="Path 276" d="M243.409,66.754a40.887,40.887,0,0,1-9.165,0,40.6,40.6,0,0,1,9.165,0Z" transform="translate(-234.244 -66.495)" fill="#263238"/>
                  </g>
                </g>
              </g>
            </g>
          </g>
        </g>
      </g>
      <g id="Group_967" data-name="Group 967" transform="translate(205.731 88.883)">
        <g id="Group_966" data-name="Group 966">
          <g id="Group_965" data-name="Group 965">
            <g id="Group_964" data-name="Group 964">
              <g id="Group_963" data-name="Group 963">
                <g id="Group_962" data-name="Group 962">
                  <g id="Group_961" data-name="Group 961">
                    <path id="Path_277" data-name="Path 277" d="M208.641,66.422a18.461,18.461,0,0,1-4.329.258,18.438,18.438,0,0,1-4.327-.258,18.258,18.258,0,0,1,4.327-.259A18.28,18.28,0,0,1,208.641,66.422Z" transform="translate(-199.984 -66.163)" fill="#263238"/>
                  </g>
                </g>
              </g>
            </g>
          </g>
        </g>
      </g>
      <g id="Group_974" data-name="Group 974" transform="translate(212.013 101.998)">
        <g id="Group_973" data-name="Group 973">
          <g id="Group_972" data-name="Group 972">
            <g id="Group_971" data-name="Group 971">
              <g id="Group_970" data-name="Group 970">
                <g id="Group_969" data-name="Group 969">
                  <g id="Group_968" data-name="Group 968">
                    <path id="Path_278" data-name="Path 278" d="M210.266,73.3A18.864,18.864,0,0,1,207,76.264a19.03,19.03,0,0,1-3.6,2.565,19,19,0,0,1,3.27-2.968A19.024,19.024,0,0,1,210.266,73.3Z" transform="translate(-203.398 -73.291)" fill="#263238"/>
                  </g>
                </g>
              </g>
            </g>
          </g>
        </g>
      </g>
      <g id="Group_981" data-name="Group 981" transform="translate(225.366 111.951)">
        <g id="Group_980" data-name="Group 980">
          <g id="Group_979" data-name="Group 979">
            <g id="Group_978" data-name="Group 978">
              <g id="Group_977" data-name="Group 977">
                <g id="Group_976" data-name="Group 976">
                  <g id="Group_975" data-name="Group 975">
                    <path id="Path_279" data-name="Path 279" d="M215.258,78.7a29.529,29.529,0,0,1-2.226,3.858,29.388,29.388,0,0,1-2.362,3.775,14.529,14.529,0,0,1,1.919-4.042A14.519,14.519,0,0,1,215.258,78.7Z" transform="translate(-210.656 -78.7)" fill="#263238"/>
                  </g>
                </g>
              </g>
            </g>
          </g>
        </g>
      </g>
      <g id="Group_988" data-name="Group 988" transform="translate(242.541 115.619)">
        <g id="Group_987" data-name="Group 987">
          <g id="Group_986" data-name="Group 986">
            <g id="Group_985" data-name="Group 985">
              <g id="Group_984" data-name="Group 984">
                <g id="Group_983" data-name="Group 983">
                  <g id="Group_982" data-name="Group 982">
                    <path id="Path_280" data-name="Path 280" d="M220.248,89.859a20.638,20.638,0,0,1-.258-4.581,20.649,20.649,0,0,1,.258-4.583,20.451,20.451,0,0,1,.259,4.583A20.441,20.441,0,0,1,220.248,89.859Z" transform="translate(-219.99 -80.694)" fill="#263238"/>
                  </g>
                </g>
              </g>
            </g>
          </g>
        </g>
      </g>
      <g id="Group_995" data-name="Group 995" transform="translate(255.688 112.696)">
        <g id="Group_994" data-name="Group 994">
          <g id="Group_993" data-name="Group 993">
            <g id="Group_992" data-name="Group 992">
              <g id="Group_991" data-name="Group 991">
                <g id="Group_990" data-name="Group 990">
                  <g id="Group_989" data-name="Group 989">
                    <path id="Path_281" data-name="Path 281" d="M234,85.088a13.474,13.474,0,0,1-3.777-2.589,13.43,13.43,0,0,1-3.08-3.389,42.4,42.4,0,0,1,3.42,3A42.271,42.271,0,0,1,234,85.088Z" transform="translate(-227.136 -79.105)" fill="#263238"/>
                  </g>
                </g>
              </g>
            </g>
          </g>
        </g>
      </g>
      <g id="Group_1002" data-name="Group 1002" transform="translate(266.113 102.986)">
        <g id="Group_1001" data-name="Group 1001">
          <g id="Group_1000" data-name="Group 1000">
            <g id="Group_999" data-name="Group 999">
              <g id="Group_998" data-name="Group 998">
                <g id="Group_997" data-name="Group 997">
                  <g id="Group_996" data-name="Group 996">
                    <path id="Path_282" data-name="Path 282" d="M238.51,79.536a15.91,15.91,0,0,1-3.034-2.668,15.914,15.914,0,0,1-2.668-3.034,15.91,15.91,0,0,1,3.034,2.668A15.976,15.976,0,0,1,238.51,79.536Z" transform="translate(-232.802 -73.828)" fill="#263238"/>
                  </g>
                </g>
              </g>
            </g>
          </g>
        </g>
      </g>
      <g id="Group_1009" data-name="Group 1009" transform="translate(213.463 71.824)">
        <g id="Group_1008" data-name="Group 1008">
          <g id="Group_1007" data-name="Group 1007">
            <g id="Group_1006" data-name="Group 1006">
              <g id="Group_1005" data-name="Group 1005">
                <g id="Group_1004" data-name="Group 1004">
                  <g id="Group_1003" data-name="Group 1003">
                    <path id="Path_283" data-name="Path 283" d="M209.183,61.888a12.27,12.27,0,0,1-2.677-2.313,12.268,12.268,0,0,1-2.313-2.677,12.211,12.211,0,0,1,2.679,2.311A12.21,12.21,0,0,1,209.183,61.888Z" transform="translate(-204.186 -56.891)" fill="#263238"/>
                  </g>
                </g>
              </g>
            </g>
          </g>
        </g>
      </g>
      <g id="Group_1016" data-name="Group 1016" transform="translate(224.996 59.885)">
        <g id="Group_1015" data-name="Group 1015">
          <g id="Group_1014" data-name="Group 1014">
            <g id="Group_1013" data-name="Group 1013">
              <g id="Group_1012" data-name="Group 1012">
                <g id="Group_1011" data-name="Group 1011">
                  <g id="Group_1010" data-name="Group 1010">
                    <path id="Path_284" data-name="Path 284" d="M215.359,55.287a11.814,11.814,0,0,1-2.631-2.256,11.711,11.711,0,0,1-2.267-2.622,11.769,11.769,0,0,1,2.631,2.256A11.712,11.712,0,0,1,215.359,55.287Z" transform="translate(-210.454 -50.402)" fill="#263238"/>
                  </g>
                </g>
              </g>
            </g>
          </g>
        </g>
      </g>
    </g>
    <g id="Plant" transform="translate(887.685 2121)">
      <g id="Group_371" data-name="Group 371">
        <g id="Group_326" data-name="Group 326">
          <path id="Path_99" data-name="Path 99" d="M629.871,374.413A54.759,54.759,0,0,1,682.1,360.079a95.13,95.13,0,0,1-52.846,16.511" fill="#fbd206"/>
        </g>
        <g id="Group_361" data-name="Group 361">
          <g id="Group_327" data-name="Group 327">
            <path id="Path_100" data-name="Path 100" d="M647.586,311.682c-2.176-15.39,3.8-32.7,15.328-43.89.381,15.252-6.059,32.417-15.328,43.89" fill="#fbd206"/>
          </g>
          <g id="Group_328" data-name="Group 328">
            <path id="Path_101" data-name="Path 101" d="M638.371,340.756a82.185,82.185,0,0,1,37.744-36.071,51.863,51.863,0,0,1-37.885,36.234" fill="#fbd206"/>
          </g>
          <g id="Group_329" data-name="Group 329">
            <path id="Path_102" data-name="Path 102" d="M636.463,346.365c9.3.261,18.7-.066,27.693-2.445s17.6-6.951,23.582-14.071A92.539,92.539,0,0,0,636.6,345.46" fill="#fbd206"/>
          </g>
          <g id="Group_330" data-name="Group 330">
            <path id="Path_103" data-name="Path 103" d="M641.182,327.887c-4.719-17.684-12.5-29.917-26.4-39.827a36.78,36.78,0,0,0,26.4,39.827" fill="#fbd206"/>
          </g>
          <g id="Group_331" data-name="Group 331">
            <path id="Path_104" data-name="Path 104" d="M606.093,358.385A26.183,26.183,0,0,1,622,334.14c-.773,9.132-7.946,19.7-15.9,24.245" fill="#fbd206"/>
          </g>
          <g id="Group_332" data-name="Group 332">
            <path id="Path_105" data-name="Path 105" d="M601.652,343.475A39.008,39.008,0,0,0,576.1,310.2c3.211,14.778,11.756,27.08,25.553,33.272" fill="#fbd206"/>
          </g>
          <g id="Group_333" data-name="Group 333">
            <path id="Path_106" data-name="Path 106" d="M608.344,369.935c-3.278-4.689-8.627-7.606-14.162-9.054s-11.319-1.576-17.039-1.7A39.83,39.83,0,0,0,607.909,372" fill="#fbd206"/>
          </g>
          <g id="Group_334" data-name="Group 334">
            <path id="Path_107" data-name="Path 107" d="M614.989,407.63a43.646,43.646,0,0,0-53.3,25.248c19.361-3.675,38.466-12.273,53.3-25.248" fill="#fbd206"/>
          </g>
          <g id="Group_335" data-name="Group 335">
            <path id="Path_108" data-name="Path 108" d="M636.238,394.529c-3.217,9.508-2.6,21,4.55,29.192a34.881,34.881,0,0,0-4.55-29.192" fill="#fbd206"/>
          </g>
          <g id="Group_336" data-name="Group 336">
            <path id="Path_109" data-name="Path 109" d="M648.8,389.248A35.766,35.766,0,0,0,668.55,418.27a2.221,2.221,0,0,0,1.746.287c.872-.355.951-1.544.844-2.479-1.4-12.18-10.425-23.959-22.344-26.83" fill="#fbd206"/>
          </g>
          <g id="Group_337" data-name="Group 337">
            <path id="Path_110" data-name="Path 110" d="M657,388.013a29.329,29.329,0,0,0,42.847.219c-13.62-1.49-29.334-2.484-42.847-.219" fill="#fbd206"/>
          </g>
          <g id="Group_344" data-name="Group 344">
            <g id="Group_339" data-name="Group 339">
              <g id="Group_338" data-name="Group 338">
                <path id="Path_111" data-name="Path 111" d="M659.039,279.134a2.469,2.469,0,0,1-.125.4c-.1.283-.24.665-.415,1.152-.386,1.035-.937,2.516-1.643,4.41-.733,1.908-1.579,4.261-2.558,6.993l-1.578,4.373-1.7,4.926c-2.413,6.9-5.092,15.175-7.984,24.391-2.84,9.233-5.823,19.426-8.758,30.18-2.895,10.769-5.461,21.077-7.646,30.488-2.122,9.424-3.948,17.932-5.266,25.118q-.508,2.691-.967,5.121-.413,2.432-.778,4.582c-.494,2.86-.916,5.324-1.2,7.347-.307,2-.546,3.56-.714,4.651-.084.511-.15.912-.2,1.208a.209.209,0,1,1-.052-.007l.147-1.215c.145-1.094.352-2.661.618-4.667.253-2.028.646-4.5,1.113-7.364q.347-2.152.739-4.592L621,411.5c1.273-7.2,3.062-15.722,5.16-25.158,2.161-9.423,4.715-19.742,7.612-30.517,2.936-10.761,5.935-20.956,8.8-30.187,2.919-9.214,5.636-17.485,8.095-24.369l1.736-4.917q.858-2.314,1.616-4.361c1.007-2.724,1.88-5.068,2.642-6.965.746-1.88,1.328-3.35,1.735-4.376.2-.48.35-.855.463-1.133A2.4,2.4,0,0,1,659.039,279.134Z" fill="#263238"/>
              </g>
            </g>
            <g id="Group_341" data-name="Group 341">
              <g id="Group_340" data-name="Group 340">
                <path id="Path_112" data-name="Path 112" d="M584.229,318.092a1.464,1.464,0,0,1,.235.222l.651.684c.569.606,1.393,1.513,2.422,2.71a95.359,95.359,0,0,1,8.018,10.692,71.79,71.79,0,0,1,8.385,17.938c2.247,7.141,3.641,15.257,5.029,23.741,2.77,16.982,6.168,32.192,8.627,43.194l2.95,13.024.785,3.546.192.925a1.49,1.49,0,0,1,.048.319,1.511,1.511,0,0,1-.1-.307c-.062-.233-.141-.534-.242-.913-.209-.839-.5-2.02-.88-3.523-.743-3.1-1.8-7.53-3.111-12.988-2.552-10.983-6.01-26.193-8.782-43.192-1.389-8.485-2.765-16.576-4.974-23.684a72.606,72.606,0,0,0-8.237-17.883,103.136,103.136,0,0,0-7.863-10.759c-1-1.215-1.8-2.142-2.345-2.769l-.612-.719A1.457,1.457,0,0,1,584.229,318.092Z" fill="#263238"/>
              </g>
            </g>
            <g id="Group_343" data-name="Group 343">
              <g id="Group_342" data-name="Group 342">
                <path id="Path_113" data-name="Path 113" d="M661.069,387.435a1.846,1.846,0,0,1-.491.09l-1.41.156-1.019.1-1.2.181c-.864.128-1.85.254-2.924.493l-1.691.336-1.811.459c-1.26.284-2.563.746-3.951,1.165a58.119,58.119,0,0,0-8.624,3.8,48.709,48.709,0,0,0-7.732,5.371,38.632,38.632,0,0,0-2.967,2.848,30.9,30.9,0,0,0-2.347,2.708,28.278,28.278,0,0,0-1.738,2.395,17.7,17.7,0,0,0-1.191,1.894l-.722,1.22a1.821,1.821,0,0,1-.284.41,1.785,1.785,0,0,1,.191-.458l.639-1.271a15.533,15.533,0,0,1,1.122-1.953,26.362,26.362,0,0,1,1.691-2.462,29.517,29.517,0,0,1,2.324-2.778,37.248,37.248,0,0,1,2.967-2.915,47.008,47.008,0,0,1,7.8-5.464,55.47,55.47,0,0,1,8.723-3.8c1.405-.411,2.724-.86,4-1.129l1.832-.433,1.71-.305c1.085-.217,2.081-.319,2.953-.42l1.216-.139,1.027-.055,1.421-.059A1.767,1.767,0,0,1,661.069,387.435Z" fill="#263238"/>
              </g>
            </g>
          </g>
          <g id="Group_346" data-name="Group 346">
            <g id="Group_345" data-name="Group 345">
              <path id="Path_114" data-name="Path 114" d="M664.947,318.418a6.716,6.716,0,0,1-.981.946l-2.8,2.431c-2.381,2.036-5.7,4.821-9.376,7.873s-7.033,5.793-9.474,7.757l-2.909,2.3a6.849,6.849,0,0,1-1.11.789,6.834,6.834,0,0,1,.984-.947l2.8-2.432c2.382-2.036,5.694-4.82,9.374-7.871s7.028-5.789,9.47-7.752l2.909-2.305A7.032,7.032,0,0,1,664.947,318.418Z" fill="#263238"/>
            </g>
          </g>
          <g id="Group_348" data-name="Group 348">
            <g id="Group_347" data-name="Group 347">
              <path id="Path_115" data-name="Path 115" d="M668.3,336.435c.041.138-7.111,2.372-15.971,4.99s-16.079,4.629-16.12,4.491,7.109-2.372,15.973-4.99S668.255,336.3,668.3,336.435Z" fill="#263238"/>
            </g>
          </g>
          <g id="Group_350" data-name="Group 350">
            <g id="Group_349" data-name="Group 349">
              <path id="Path_116" data-name="Path 116" d="M641.89,329.262a5.858,5.858,0,0,1-.738-1.027c-.5-.766-1.135-1.728-1.885-2.872-1.6-2.419-3.869-5.719-6.553-9.233s-5.274-6.572-7.18-8.757l-2.264-2.584a5.9,5.9,0,0,1-.791-.987,5.837,5.837,0,0,1,.938.848c.582.568,1.4,1.413,2.391,2.477,1.98,2.127,4.621,5.161,7.32,8.687s4.926,6.875,6.449,9.351c.762,1.238,1.358,2.252,1.748,2.965A5.856,5.856,0,0,1,641.89,329.262Z" fill="#263238"/>
            </g>
          </g>
          <g id="Group_352" data-name="Group 352">
            <g id="Group_351" data-name="Group 351">
              <path id="Path_117" data-name="Path 117" d="M617.055,339.262a23.473,23.473,0,0,1-1.677,2.759c-1.069,1.679-2.518,4.014-4.02,6.651s-2.767,5.079-3.664,6.855a23.619,23.619,0,0,1-1.515,2.852,17.19,17.19,0,0,1,1.182-3.01c.815-1.824,2.037-4.3,3.544-6.954s3.016-4.966,4.166-6.6A17.243,17.243,0,0,1,617.055,339.262Z" fill="#263238"/>
            </g>
          </g>
          <g id="Group_354" data-name="Group 354">
            <g id="Group_353" data-name="Group 353">
              <path id="Path_118" data-name="Path 118" d="M608.558,370.428c-.037.07-1.4-.6-3.634-1.6s-5.35-2.319-8.873-3.554-6.782-2.15-9.155-2.756-3.854-.936-3.838-1.015a4.252,4.252,0,0,1,1.064.111c.68.1,1.658.286,2.859.546a79.777,79.777,0,0,1,18.1,6.335c1.1.546,1.981,1.012,2.576,1.357A4.162,4.162,0,0,1,608.558,370.428Z" fill="#263238"/>
            </g>
          </g>
          <g id="Group_356" data-name="Group 356">
            <g id="Group_355" data-name="Group 355">
              <path id="Path_119" data-name="Path 119" d="M615.248,407.687a1.612,1.612,0,0,1-.441.149l-1.288.328-4.756,1.1a156.625,156.625,0,0,0-15.534,4.1,68.918,68.918,0,0,0-14.494,6.809c-1.732,1.1-3.082,2.077-3.993,2.78a13.966,13.966,0,0,1-1.44,1.064c-.011-.014.1-.129.32-.338s.546-.519.994-.885a41.785,41.785,0,0,1,3.919-2.93,63.552,63.552,0,0,1,14.524-6.993,129.909,129.909,0,0,1,15.627-3.967l4.791-.936A11.8,11.8,0,0,1,615.248,407.687Z" fill="#263238"/>
            </g>
          </g>
          <g id="Group_358" data-name="Group 358">
            <g id="Group_357" data-name="Group 357">
              <path id="Path_120" data-name="Path 120" d="M639.437,416.87c-.142.021-.994-4.995-1.9-11.2s-1.529-11.258-1.386-11.279.993,4.994,1.9,11.2S639.579,416.849,639.437,416.87Z" fill="#fbd206"/>
            </g>
          </g>
          <g id="Group_360" data-name="Group 360">
            <g id="Group_359" data-name="Group 359">
              <path id="Path_121" data-name="Path 121" d="M664.621,407.726a26.576,26.576,0,0,1-2.269-2.7c-1.361-1.7-3.247-4.029-5.379-6.567s-4.108-4.8-5.543-6.43a26.421,26.421,0,0,1-2.264-2.7,3.334,3.334,0,0,1,.722.617c.441.421,1.061,1.047,1.814,1.833,1.506,1.572,3.531,3.8,5.67,6.344s3.983,4.922,5.272,6.677c.645.877,1.154,1.6,1.493,2.1A3.338,3.338,0,0,1,664.621,407.726Z" fill="#263238"/>
            </g>
          </g>
        </g>
        <g id="Group_362" data-name="Group 362">
          <path id="Path_122" data-name="Path 122" d="M597.974,431.083v12.444h3.111l11.061,34.913h24.529l10.716-34.567,4.148-.346V431.083Z" fill="#5504b0"/>
        </g>
        <g id="Group_364" data-name="Group 364">
          <g id="Group_363" data-name="Group 363">
            <path id="Path_123" data-name="Path 123" d="M649.465,443.873c0,.144-10.831.26-24.189.26s-24.191-.116-24.191-.26,10.829-.26,24.191-.26S649.465,443.729,649.465,443.873Z" fill="#263238"/>
          </g>
        </g>
        <g id="Group_366" data-name="Group 366">
          <g id="Group_365" data-name="Group 365">
            <path id="Path_124" data-name="Path 124" d="M667.108,363.828a9.652,9.652,0,0,1-1.572.425l-4.306,1.038c-3.629.9-8.611,2.263-14.017,4.078s-10.2,3.745-13.634,5.222l-4.058,1.775a9.615,9.615,0,0,1-1.509.611,9.767,9.767,0,0,1,1.422-.794c.929-.485,2.293-1.147,3.995-1.929a141.471,141.471,0,0,1,27.716-9.321c1.829-.406,3.316-.7,4.35-.878A9.723,9.723,0,0,1,667.108,363.828Z" fill="#263238"/>
          </g>
        </g>
        <g id="Group_368" data-name="Group 368">
          <g id="Group_367" data-name="Group 367">
            <path id="Path_125" data-name="Path 125" d="M641.322,463.26c0,.144-7.6.261-16.971.261s-16.973-.117-16.973-.261,7.6-.26,16.973-.26S641.322,463.117,641.322,463.26Z" fill="#fafafa"/>
          </g>
        </g>
        <g id="Group_370" data-name="Group 370">
          <g id="Group_369" data-name="Group 369">
            <path id="Path_126" data-name="Path 126" d="M642.276,460.374c0,.144-8.053.261-17.985.261s-17.987-.117-17.987-.261,8.051-.26,17.987-.26S642.276,460.23,642.276,460.374Z" fill="#fafafa"/>
          </g>
        </g>
      </g>
    </g>
    <g id="Group_5448" data-name="Group 5448" transform="translate(908 2111)">
      <g id="Group_22" data-name="Group 22">
        <g id="Group_3" data-name="Group 3">
          <g id="Group_2" data-name="Group 2">
            <g id="Group_1" data-name="Group 1">
              <path id="Path_1" data-name="Path 1" d="M107.058,399.754c4.183-2.158,9.108-2.438,13.751-1.671,2.5.413,5.1,1.159,6.793,3.033s2.019,5.171.07,6.781a6.507,6.507,0,0,1-4.283,1.087c-3.635-.043-7.668-.683-10.572,1.5-1.657,1.248-2.76,3.323-4.741,3.936a4.683,4.683,0,0,1-5.153-2.292,8.008,8.008,0,0,1-.583-5.907A9.02,9.02,0,0,1,107.058,399.754Z" fill="#ebebeb"/>
            </g>
          </g>
        </g>
        <g id="Group_6" data-name="Group 6">
          <g id="Group_5" data-name="Group 5">
            <g id="Group_4" data-name="Group 4">
              <path id="Path_2" data-name="Path 2" d="M97.476,381.256c2.557,3.653,7.528,2.443,9.833.214s3.279-5.461,4.165-8.543c2.027-7.04,4.069-14.427,2.563-21.6a12,12,0,0,0-2.759-5.871,6.268,6.268,0,0,0-5.94-1.977c-2.506.662-4.064,3.117-5.19,5.452a51.487,51.487,0,0,0-5.087,22.093c-.012,3.559.407,7.291,2.415,10.229" fill="#ebebeb"/>
            </g>
          </g>
        </g>
        <g id="Group_9" data-name="Group 9">
          <g id="Group_8" data-name="Group 8">
            <g id="Group_7" data-name="Group 7">
              <path id="Path_3" data-name="Path 3" d="M90.453,386.5c2.776-3.3,3.3-8.1,2.068-12.231a23.574,23.574,0,0,0-7.245-10.508A38.993,38.993,0,0,0,72.3,356.1a13.821,13.821,0,0,0-5.834-.991,6.12,6.12,0,0,0-4.9,2.962c-1.365,2.6-.056,5.762,1.36,8.338a98.744,98.744,0,0,0,8.52,12.975c2.554,3.293,5.479,6.54,9.371,8.028s7.935,1.313,10-1.386" fill="#ebebeb"/>
            </g>
          </g>
        </g>
        <g id="Group_13" data-name="Group 13">
          <g id="Group_12" data-name="Group 12">
            <g id="Group_11" data-name="Group 11">
              <g id="Group_10" data-name="Group 10">
                <path id="Path_4" data-name="Path 4" d="M97.3,436.357a8.053,8.053,0,0,0,.231-1.659c.118-1.209.265-2.725.441-4.53a65.276,65.276,0,0,1,1.019-6.644,51.307,51.307,0,0,1,2.415-7.842,28.887,28.887,0,0,1,4-7.1,14.955,14.955,0,0,1,5.063-4.208,14.159,14.159,0,0,1,4.263-1.328,8.031,8.031,0,0,0,1.653-.239,7.724,7.724,0,0,0-1.682-.026,12.921,12.921,0,0,0-4.446,1.157,14.925,14.925,0,0,0-5.34,4.245,28.236,28.236,0,0,0-4.151,7.238,47.933,47.933,0,0,0-2.4,7.971,56.179,56.179,0,0,0-.884,6.728c-.144,1.923-.2,3.481-.224,4.557A7.742,7.742,0,0,0,97.3,436.357Z" fill="#e0e0e0"/>
              </g>
            </g>
          </g>
        </g>
        <g id="Group_17" data-name="Group 17">
          <g id="Group_16" data-name="Group 16">
            <g id="Group_15" data-name="Group 15">
              <g id="Group_14" data-name="Group 14">
                <path id="Path_5" data-name="Path 5" d="M97.615,432.872a3.324,3.324,0,0,0,.044-.77c0-.579,0-1.308,0-2.2-.006-1.911,0-4.677.1-8.092.169-6.831.757-14.183,1.893-24.548,1.076-9.746,2.52-21.089,4.043-28.463.327-1.677.656-3.187.966-4.508s.548-2.466.791-3.39c.209-.87.379-1.579.515-2.141a3.254,3.254,0,0,0,.134-.76,3.276,3.276,0,0,0-.267.722c-.168.554-.38,1.253-.639,2.11-.284.916-.575,2.051-.907,3.37s-.708,2.822-1.066,4.5a249.855,249.855,0,0,0-4.251,26.411c-1.139,10.386-1.651,19.843-1.7,26.691-.04,3.424.033,6.2.12,8.109.055.894.1,1.623.134,2.2A3.252,3.252,0,0,0,97.615,432.872Z" fill="#e0e0e0"/>
              </g>
            </g>
          </g>
        </g>
        <g id="Group_21" data-name="Group 21">
          <g id="Group_20" data-name="Group 20">
            <g id="Group_19" data-name="Group 19">
              <g id="Group_18" data-name="Group 18">
                <path id="Path_6" data-name="Path 6" d="M97.66,414.632a14.477,14.477,0,0,0-.016-2.3c-.084-1.478-.288-3.615-.7-6.233a82.311,82.311,0,0,0-2.027-9.081,74.388,74.388,0,0,0-3.8-10.746A57.25,57.25,0,0,0,79.963,368.9a28.172,28.172,0,0,0-2.624-2.438c-.4-.341-.758-.68-1.121-.949l-1.017-.7a14.99,14.99,0,0,0-1.937-1.24,68.907,68.907,0,0,1,6.348,5.664,60.294,60.294,0,0,1,10.874,17.3,84.722,84.722,0,0,1,3.819,10.647c1,3.337,1.658,6.406,2.158,8.991.475,2.591.75,4.707.916,6.172A14.824,14.824,0,0,0,97.66,414.632Z" fill="#e0e0e0"/>
              </g>
            </g>
          </g>
        </g>
      </g>
      <g id="Group_25" data-name="Group 25">
        <g id="Group_24" data-name="Group 24">
          <g id="Group_23" data-name="Group 23">
            <path id="Path_7" data-name="Path 7" d="M80.03,446.807l1.828,25.04h32.168l1.828-25.04Z" fill="#e0e0e0"/>
          </g>
        </g>
      </g>
      <g id="Group_28" data-name="Group 28">
        <g id="Group_27" data-name="Group 27">
          <g id="Group_26" data-name="Group 26">
            <rect id="Rectangle_1" data-name="Rectangle 1" width="42.769" height="9.87" transform="translate(76.923 436.938)" fill="#e0e0e0"/>
          </g>
        </g>
      </g>
      <g id="Group_31" data-name="Group 31">
        <g id="Group_30" data-name="Group 30">
          <g id="Group_29" data-name="Group 29">
            <path id="Path_8" data-name="Path 8" d="M76.923,470.889v2.736h42.062v-2.736Z" fill="#ebebeb"/>
          </g>
        </g>
      </g>
      <g id="Group_34" data-name="Group 34">
        <g id="Group_33" data-name="Group 33">
          <g id="Group_32" data-name="Group 32">
            <path id="Path_9" data-name="Path 9" d="M80.9,478.44l-1.97-4.815h38.52l-2.3,4.815Z" fill="#e0e0e0"/>
          </g>
        </g>
      </g>
      <g id="Group_38" data-name="Group 38">
        <g id="Group_37" data-name="Group 37">
          <g id="Group_36" data-name="Group 36">
            <g id="Group_35" data-name="Group 35">
              <path id="Path_10" data-name="Path 10" d="M115.256,454.991a.965.965,0,0,1-.15.23l-.48.638c-.457.584-1.085,1.387-1.874,2.4l-.083.106-.081-.111-4.6-6.368h.265l-4.533,6.418-.142.2-.159-.19-5.375-6.395.31,0-.3.371-4.807,6.026-.16.2-.148-.209L88.4,451.887l.264.013-5.585,6.363-.1.113-.076-.127-1.749-2.938c-.182-.319-.33-.577-.448-.782a1.212,1.212,0,0,1-.137-.279,1.269,1.269,0,0,1,.187.248l.5.753,1.835,2.884-.174-.014,5.5-6.441.139-.162.125.175,4.575,6.387-.308-.008,4.8-6.035.3-.372.153-.191.157.188,5.361,6.408-.3.012,4.578-6.386.134-.187.131.187c1.813,2.59,3.354,4.79,4.507,6.436l-.164,0,1.949-2.337c.212-.245.384-.443.522-.6A1.1,1.1,0,0,1,115.256,454.991Z" fill="#f5f5f5"/>
            </g>
          </g>
        </g>
      </g>
      <g id="Group_42" data-name="Group 42">
        <g id="Group_41" data-name="Group 41">
          <g id="Group_40" data-name="Group 40">
            <g id="Group_39" data-name="Group 39">
              <path id="Path_11" data-name="Path 11" d="M116.3,446.642c0,.111-8.06.2-18,.2s-18-.089-18-.2,8.059-.2,18-.2S116.3,446.532,116.3,446.642Z" fill="#f5f5f5"/>
            </g>
          </g>
        </g>
      </g>
      <g id="Group_46" data-name="Group 46">
        <g id="Group_45" data-name="Group 45">
          <g id="Group_44" data-name="Group 44">
            <g id="Group_43" data-name="Group 43">
              <path id="Path_12" data-name="Path 12" d="M117.927,473.895c0,.11-8.76.2-19.564.2s-19.565-.09-19.565-.2,8.758-.2,19.565-.2S117.927,473.784,117.927,473.895Z" fill="#f5f5f5"/>
            </g>
          </g>
        </g>
      </g>
    </g>
    <g id="Icons" transform="translate(1055 2237)">
      <g id="Group_916" data-name="Group 916" transform="translate(-142 -113)">
        <g id="Group_903" data-name="Group 903">
          <g id="Group_902" data-name="Group 902">
            <g id="Group_901" data-name="Group 901">
              <g id="Group_900" data-name="Group 900">
                <g id="Group_899" data-name="Group 899">
                  <g id="Group_898" data-name="Group 898">
                    <g id="Group_897" data-name="Group 897">
                      <g id="Group_892" data-name="Group 892">
                        <path id="Path_265" data-name="Path 265" d="M120.8,194.81a15.749,15.749,0,0,1,4.042,1.067l2.971-2.489,5.1,3.884-1.608,3.527a15.68,15.68,0,0,1,2.106,3.611l3.86.341.862,6.354-3.629,1.357a15.7,15.7,0,0,1-1.068,4.042l2.489,2.972-3.883,5.1-3.527-1.607a15.718,15.718,0,0,1-3.612,2.105l-.34,3.86-6.355.863-1.357-3.63a15.721,15.721,0,0,1-4.042-1.068l-2.971,2.49-5.1-3.884,1.608-3.527a15.758,15.758,0,0,1-2.106-3.612l-3.859-.34-.863-6.355,3.63-1.356a15.626,15.626,0,0,1,1.068-4.043l-2.49-2.971,3.883-5.1,3.528,1.608a15.738,15.738,0,0,1,3.612-2.106l.339-3.859,6.355-.862,1.357,3.629Zm-2.609,8.823a6.879,6.879,0,1,0,7.742,5.892A6.879,6.879,0,0,0,118.189,203.633Z" fill="#fff"/>
                      </g>
                      <g id="Group_894" data-name="Group 894">
                        <g id="Group_893" data-name="Group 893">
                          <path id="Path_266" data-name="Path 266" d="M118.189,203.633a1.331,1.331,0,0,1,.433-.093,5.359,5.359,0,0,1,1.272-.027,6.847,6.847,0,0,1,4.218,1.939,7.076,7.076,0,0,1-.035,10.137,7.092,7.092,0,0,1-8.377,1.137,7.078,7.078,0,0,1-2.735-9.763,6.843,6.843,0,0,1,3.548-2.991,5.35,5.35,0,0,1,1.233-.313,1.358,1.358,0,0,1,.443-.026c.011.059-.6.119-1.6.54a6.86,6.86,0,0,0-3.288,2.984,6.7,6.7,0,0,0-.053,6.365,6.562,6.562,0,0,0,2.707,2.726,6.594,6.594,0,0,0,7.739-1.05,6.554,6.554,0,0,0,1.882-3.348,6.694,6.694,0,0,0-1.747-6.121,6.863,6.863,0,0,0-3.964-2C118.8,203.587,118.194,203.693,118.189,203.633Z" fill="#fff"/>
                        </g>
                      </g>
                      <g id="Group_896" data-name="Group 896">
                        <g id="Group_895" data-name="Group 895">
                          <path id="Path_267" data-name="Path 267" d="M120.8,194.81a1.018,1.018,0,0,1-.1-.216l-.277-.678-1.061-2.7.1.057-6.348.913.122-.127c-.1,1.172-.2,2.471-.318,3.862l-.008.1-.092.039a15.628,15.628,0,0,0-3.562,2.1l-.087.068-.1-.046-3.534-1.593.239-.061-3.866,5.115-.007-.272,2.5,2.964.09.106-.053.129a15.51,15.51,0,0,0-1.043,3.984l-.017.144-.137.051L99.6,210.1l.159-.265c.274,2,.57,4.148.873,6.353l-.233-.223,3.859.335.159.014.062.148a15.585,15.585,0,0,0,2.074,3.548l.1.128-.067.148-1.606,3.529-.082-.329,5.1,3.88-.344.009,2.97-2.491.129-.108.155.064a15.5,15.5,0,0,0,3.967,1.048h0l.227.179v0l0,.008.005.014.011.028.021.057.043.115.085.228.17.457.341.91.675,1.809-.3-.177,6.356-.86-.237.248q.172-1.948.342-3.86l.015-.164.152-.063a15.489,15.489,0,0,0,3.552-2.067l.129-.1.147.068,3.526,1.611-.321.081,3.891-5.1.007.319-2.484-2.976-.1-.116.058-.139a15.49,15.49,0,0,0,1.059-3.977l.019-.145.136-.05,3.632-1.348-.148.247c-.3-2.236-.577-4.347-.843-6.357l.191.183-3.858-.353-.121-.011-.046-.111a15.547,15.547,0,0,0-2.066-3.576l-.068-.089.046-.1c.59-1.278,1.122-2.43,1.624-3.519l.05.2-5.079-3.915.156,0-2.994,2.463-.042.035-.049-.021a16.614,16.614,0,0,0-2.993-.942l-.763-.151a1.083,1.083,0,0,1-.252-.057,1.444,1.444,0,0,1,.259.011c.171.018.43.048.773.107a14.984,14.984,0,0,1,3.044.867l-.091.014,2.948-2.517.075-.064.08.061,5.127,3.852.1.078-.054.121c-.492,1.094-1.013,2.251-1.591,3.534l-.022-.187a15.88,15.88,0,0,1,2.146,3.647l-.166-.122,3.861.327.169.014.023.169c.278,2.009.57,4.118.88,6.352l.025.183-.173.065-3.626,1.365.154-.195a15.937,15.937,0,0,1-1.076,4.107l-.039-.254,2.494,2.966.132.156-.124.163-3.876,5.108-.128.169-.193-.088-3.529-1.6.277-.032a15.991,15.991,0,0,1-3.673,2.145l.167-.228q-.167,1.911-.337,3.86l-.019.219-.218.03-6.355.864-.219.03-.078-.207q-.337-.9-.676-1.81l-.341-.91-.17-.456-.086-.229-.042-.114-.022-.057-.01-.029-.006-.014,0-.007,0,0,.225.178h0a16.018,16.018,0,0,1-4.109-1.086l.283-.044-2.972,2.489-.169.141-.175-.133-5.1-3.887-.173-.132.09-.2c.556-1.217,1.107-2.421,1.612-3.525l.032.276A16.066,16.066,0,0,1,104,216.67l.22.161-3.859-.345-.206-.019-.027-.2c-.3-2.207-.584-4.36-.852-6.357l-.026-.2.185-.069,3.632-1.348-.154.194a15.923,15.923,0,0,1,1.094-4.1l.036.235-2.482-2.978-.112-.135.106-.138q2.052-2.679,3.9-5.09l.1-.127.143.066,3.521,1.622-.187.022a15.924,15.924,0,0,1,3.661-2.112l-.1.136c.131-1.389.252-2.688.362-3.857l.011-.113.111-.015,6.361-.81.072-.009.023.066.961,2.7c.1.291.178.523.241.706A1.438,1.438,0,0,1,120.8,194.81Z" fill="#fff"/>
                        </g>
                      </g>
                    </g>
                  </g>
                </g>
              </g>
            </g>
          </g>
        </g>
      </g>
      <g id="Group_1017" data-name="Group 1017">
        <g id="Group_925-2" data-name="Group 925">
          <g id="Group_924-2" data-name="Group 924">
            <g id="Group_923-2" data-name="Group 923">
              <g id="Group_922-2" data-name="Group 922">
                <g id="Group_921-2" data-name="Group 921">
                  <g id="Group_920-2" data-name="Group 920">
                    <g id="Group_917-2" data-name="Group 917">
                      <circle id="Ellipse_1-2" data-name="Ellipse 1" cx="21.743" cy="21.743" r="21.743" transform="translate(193.141 51.521) rotate(-16.58)" fill="#f5f5f5"/>
                    </g>
                    <g id="Group_919-2" data-name="Group 919">
                      <g id="Group_918-2" data-name="Group 918">
                        <path id="Path_271-2" data-name="Path 271" d="M198.488,64.731a1.805,1.805,0,0,1,.021.354c0,.259.005.6.01,1.034v.76c.013.279.055.583.084.913a15.757,15.757,0,0,0,.314,2.263,20.776,20.776,0,0,0,2.038,5.892,21.543,21.543,0,0,0,25.217,10.845,19.776,19.776,0,0,0,5.619-2.567,19.688,19.688,0,0,0,4.832-4.259,20.791,20.791,0,0,0,3.452-5.707,21.293,21.293,0,0,0,.89-13.532,20.8,20.8,0,0,0-2.676-6.112,19.678,19.678,0,0,0-4.234-4.855,19.775,19.775,0,0,0-5.236-3.281,21.6,21.6,0,0,0-26.42,7.456,20.764,20.764,0,0,0-2.79,5.574,15.833,15.833,0,0,0-.607,2.2c-.072.324-.153.62-.2.9s-.07.526-.1.754c-.061.428-.109.767-.145,1.023a1.834,1.834,0,0,1-.067.348,1.728,1.728,0,0,1,.015-.352c.024-.259.055-.6.1-1.032q.034-.345.076-.762c.041-.278.115-.577.179-.9a15.436,15.436,0,0,1,.567-2.232,20.59,20.59,0,0,1,2.744-5.675,21.9,21.9,0,0,1,15.389-9.4,21.993,21.993,0,0,1,11.455,1.678,20.148,20.148,0,0,1,5.362,3.339,20.087,20.087,0,0,1,4.341,4.959,21.243,21.243,0,0,1,2.746,6.252,21.757,21.757,0,0,1-.911,13.853,21.27,21.27,0,0,1-3.54,5.838,20.127,20.127,0,0,1-4.951,4.347,20.267,20.267,0,0,1-5.752,2.609,21.989,21.989,0,0,1-11.574.165A21.895,21.895,0,0,1,200.7,76.077a20.6,20.6,0,0,1-1.979-5.986,15.4,15.4,0,0,1-.27-2.287c-.021-.333-.054-.64-.059-.921l.024-.765c.017-.434.03-.776.041-1.036A1.789,1.789,0,0,1,198.488,64.731Z" fill="#263238"/>
                      </g>
                    </g>
                  </g>
                </g>
              </g>
            </g>
          </g>
        </g>
        <g id="Group_932-2" data-name="Group 932">
          <g id="Group_931-2" data-name="Group 931">
            <g id="Group_930-2" data-name="Group 930">
              <g id="Group_929-2" data-name="Group 929">
                <g id="Group_928-2" data-name="Group 928">
                  <g id="Group_927-2" data-name="Group 927">
                    <g id="Group_926-2" data-name="Group 926">
                      <path id="Path_272-2" data-name="Path 272" d="M230.057,66.825a4.438,4.438,0,0,1-.768.05l-2.113.043c-1.794.025-4.292.042-7.112.046h-.14v-.139c0-.452,0-.928,0-1.41,0-3.15.016-6,.041-8.065.018-.995.033-1.818.045-2.444a5.4,5.4,0,0,1,.055-.9,5.485,5.485,0,0,1,.054.9c.012.626.027,1.449.045,2.444.025,2.064.041,4.915.041,8.065,0,.482,0,.958,0,1.41l-.139-.14c2.82,0,5.318.021,7.112.046l2.113.043A4.239,4.239,0,0,1,230.057,66.825Z" fill="#263238"/>
                    </g>
                  </g>
                </g>
              </g>
            </g>
          </g>
        </g>
        <g id="Group_939-2" data-name="Group 939">
          <g id="Group_938-2" data-name="Group 938">
            <g id="Group_937-2" data-name="Group 937">
              <g id="Group_936-2" data-name="Group 936">
                <g id="Group_935-2" data-name="Group 935">
                  <g id="Group_934-2" data-name="Group 934">
                    <g id="Group_933-2" data-name="Group 933">
                      <path id="Path_273-2" data-name="Path 273" d="M220.13,47.984a6.033,6.033,0,0,1,.141,1.826,6.037,6.037,0,0,1-.141,1.827,6.1,6.1,0,0,1-.14-1.827A6.091,6.091,0,0,1,220.13,47.984Z" fill="#263238"/>
                    </g>
                  </g>
                </g>
              </g>
            </g>
          </g>
        </g>
        <g id="Group_946-2" data-name="Group 946">
          <g id="Group_945-2" data-name="Group 945">
            <g id="Group_944-2" data-name="Group 944">
              <g id="Group_943-2" data-name="Group 943">
                <g id="Group_942-2" data-name="Group 942">
                  <g id="Group_941-2" data-name="Group 941">
                    <g id="Group_940-2" data-name="Group 940">
                      <path id="Path_274-2" data-name="Path 274" d="M230.037,50.917a5.865,5.865,0,0,1-1.173,1.373,5.865,5.865,0,0,1-1.373,1.173,5.923,5.923,0,0,1,1.174-1.372A5.915,5.915,0,0,1,230.037,50.917Z" fill="#263238"/>
                    </g>
                  </g>
                </g>
              </g>
            </g>
          </g>
        </g>
        <g id="Group_953-2" data-name="Group 953">
          <g id="Group_952-2" data-name="Group 952">
            <g id="Group_951-2" data-name="Group 951">
              <g id="Group_950-2" data-name="Group 950">
                <g id="Group_949-2" data-name="Group 949">
                  <g id="Group_948-2" data-name="Group 948">
                    <g id="Group_947-2" data-name="Group 947">
                      <path id="Path_275-2" data-name="Path 275" d="M235.83,57.245a7.54,7.54,0,0,1-1.5,1,7.586,7.586,0,0,1-1.578.87,8.02,8.02,0,0,1,3.076-1.87Z" fill="#263238"/>
                    </g>
                  </g>
                </g>
              </g>
            </g>
          </g>
        </g>
        <g id="Group_960-2" data-name="Group 960">
          <g id="Group_959-2" data-name="Group 959">
            <g id="Group_958-2" data-name="Group 958">
              <g id="Group_957-2" data-name="Group 957">
                <g id="Group_956-2" data-name="Group 956">
                  <g id="Group_955-2" data-name="Group 955">
                    <g id="Group_954-2" data-name="Group 954">
                      <path id="Path_276-2" data-name="Path 276" d="M239.225,66.636a22.222,22.222,0,0,1-4.981,0,22.066,22.066,0,0,1,4.981,0Z" fill="#263238"/>
                    </g>
                  </g>
                </g>
              </g>
            </g>
          </g>
        </g>
        <g id="Group_967-2" data-name="Group 967">
          <g id="Group_966-2" data-name="Group 966">
            <g id="Group_965-2" data-name="Group 965">
              <g id="Group_964-2" data-name="Group 964">
                <g id="Group_963-2" data-name="Group 963">
                  <g id="Group_962-2" data-name="Group 962">
                    <g id="Group_961-2" data-name="Group 961">
                      <path id="Path_277-2" data-name="Path 277" d="M204.689,66.3a19.835,19.835,0,0,1-4.705,0,19.7,19.7,0,0,1,4.705,0Z" fill="#263238"/>
                    </g>
                  </g>
                </g>
              </g>
            </g>
          </g>
        </g>
        <g id="Group_974-2" data-name="Group 974">
          <g id="Group_973-2" data-name="Group 973">
            <g id="Group_972-2" data-name="Group 972">
              <g id="Group_971-2" data-name="Group 971">
                <g id="Group_970-2" data-name="Group 970">
                  <g id="Group_969-2" data-name="Group 969">
                    <g id="Group_968-2" data-name="Group 968">
                      <path id="Path_278-2" data-name="Path 278" d="M207.131,73.295a10.253,10.253,0,0,1-1.777,1.612A10.344,10.344,0,0,1,203.4,76.3a20.4,20.4,0,0,1,3.731-3.006Z" fill="#263238"/>
                    </g>
                  </g>
                </g>
              </g>
            </g>
          </g>
        </g>
        <g id="Group_981-2" data-name="Group 981">
          <g id="Group_980-2" data-name="Group 980">
            <g id="Group_979-2" data-name="Group 979">
              <g id="Group_978-2" data-name="Group 978">
                <g id="Group_977-2" data-name="Group 977">
                  <g id="Group_976-2" data-name="Group 976">
                    <g id="Group_975-2" data-name="Group 975">
                      <path id="Path_279-2" data-name="Path 279" d="M213.157,78.7a16.047,16.047,0,0,1-1.21,2.1,15.972,15.972,0,0,1-1.284,2.052,12.429,12.429,0,0,1,2.494-4.149Z" fill="#263238"/>
                    </g>
                  </g>
                </g>
              </g>
            </g>
          </g>
        </g>
        <g id="Group_988-2" data-name="Group 988">
          <g id="Group_987-2" data-name="Group 987">
            <g id="Group_986-2" data-name="Group 986">
              <g id="Group_985-2" data-name="Group 985">
                <g id="Group_984-2" data-name="Group 984">
                  <g id="Group_983-2" data-name="Group 983">
                    <g id="Group_982-2" data-name="Group 982">
                      <path id="Path_280-2" data-name="Path 280" d="M220.13,85.675a11.217,11.217,0,0,1-.14-2.49,11.223,11.223,0,0,1,.14-2.491,11.115,11.115,0,0,1,.141,2.491A11.11,11.11,0,0,1,220.13,85.675Z" fill="#263238"/>
                    </g>
                  </g>
                </g>
              </g>
            </g>
          </g>
        </g>
        <g id="Group_995-2" data-name="Group 995">
          <g id="Group_994-2" data-name="Group 994">
            <g id="Group_993-2" data-name="Group 993">
              <g id="Group_992-2" data-name="Group 992">
                <g id="Group_991-2" data-name="Group 991">
                  <g id="Group_990-2" data-name="Group 990">
                    <g id="Group_989-2" data-name="Group 989">
                      <path id="Path_281-2" data-name="Path 281" d="M230.866,82.357a10.737,10.737,0,0,1-3.727-3.249A23.044,23.044,0,0,1,229,80.738,22.977,22.977,0,0,1,230.866,82.357Z" fill="#263238"/>
                    </g>
                  </g>
                </g>
              </g>
            </g>
          </g>
        </g>
        <g id="Group_1002-2" data-name="Group 1002">
          <g id="Group_1001-2" data-name="Group 1001">
            <g id="Group_1000-2" data-name="Group 1000">
              <g id="Group_999-2" data-name="Group 999">
                <g id="Group_998-2" data-name="Group 998">
                  <g id="Group_997-2" data-name="Group 997">
                    <g id="Group_996-2" data-name="Group 996">
                      <path id="Path_282-2" data-name="Path 282" d="M235.9,76.93a8.648,8.648,0,0,1-1.649-1.45,8.649,8.649,0,0,1-1.45-1.649,17.133,17.133,0,0,1,3.1,3.1Z" fill="#263238"/>
                    </g>
                  </g>
                </g>
              </g>
            </g>
          </g>
        </g>
        <g id="Group_1009-2" data-name="Group 1009">
          <g id="Group_1008-2" data-name="Group 1008">
            <g id="Group_1007-2" data-name="Group 1007">
              <g id="Group_1006-2" data-name="Group 1006">
                <g id="Group_1005-2" data-name="Group 1005">
                  <g id="Group_1004-2" data-name="Group 1004">
                    <g id="Group_1003-2" data-name="Group 1003">
                      <path id="Path_283-2" data-name="Path 283" d="M206.9,59.607a6.668,6.668,0,0,1-1.455-1.257A6.668,6.668,0,0,1,204.19,56.9a6.637,6.637,0,0,1,1.456,1.256A6.636,6.636,0,0,1,206.9,59.607Z" fill="#263238"/>
                    </g>
                  </g>
                </g>
              </g>
            </g>
          </g>
        </g>
        <g id="Group_1016-2" data-name="Group 1016">
          <g id="Group_1015-2" data-name="Group 1015">
            <g id="Group_1014-2" data-name="Group 1014">
              <g id="Group_1013-2" data-name="Group 1013">
                <g id="Group_1012-2" data-name="Group 1012">
                  <g id="Group_1011-2" data-name="Group 1011">
                    <g id="Group_1010-2" data-name="Group 1010">
                      <path id="Path_284-2" data-name="Path 284" d="M213.12,53.057a6.421,6.421,0,0,1-1.43-1.226,6.366,6.366,0,0,1-1.232-1.425,6.4,6.4,0,0,1,1.43,1.226A6.365,6.365,0,0,1,213.12,53.057Z" fill="#263238"/>
                    </g>
                  </g>
                </g>
              </g>
            </g>
          </g>
        </g>
      </g>
    </g>
  </g>
</svg>
