<svg xmlns="http://www.w3.org/2000/svg" xmlns:xlink="http://www.w3.org/1999/xlink" width="529.018" height="411.257" viewBox="0 0 529.018 411.257">
  <defs>
    <clipPath id="clip-path">
      <path id="Path_100" data-name="Path 100" d="M266.9,441.695H631.828V394.926l69.779-144.62L659.494,131.312l-407.743-9.093L266.9,391.633Z" transform="translate(-251.751 -122.219)" fill="none"/>
    </clipPath>
  </defs>
  <g id="Group_5476" data-name="Group 5476" transform="translate(-236.24 -6568.187)">
    <g id="Group_5471" data-name="Group 5471" transform="translate(-1497.296 -736.018)">
      <g id="Group_5468" data-name="Group 5468" transform="translate(1760.365 7336.379)">
        <path id="Path_45409" data-name="Path 45409" d="M-60,0H304.927L372.41,237.137H7.483Z" transform="translate(60 82.339)" fill="#6300b7"/>
        <g id="Group_110" data-name="Group 110" transform="translate(52.333 0)">
          <g id="Group_109" data-name="Group 109" clip-path="url(#clip-path)">
            <g id="Group_75" data-name="Group 75" transform="translate(43.474 123.343)">
              <g id="Group_70" data-name="Group 70" transform="translate(2.883 49.316)">
                <path id="Path_49" data-name="Path 49" d="M488.4,392.039c11.731,0,23.585-5.439,32.9-9.713,12.191-5.6,20.03-20.774,17.474-33.842C537,339.429,530.3,331.768,522.1,329.421c-.88-.253-1.776-.449-2.671-.646A25.638,25.638,0,0,1,515.5,327.7c-4.54-1.791-8.095-6.428-9.509-12.406-1.219-5.151-.872-10.646-.536-15.961l.056-.884c.566-9.141.841-18.807-2.49-27.679-3.075-8.19-10.687-16.792-20.756-17.55-1.208-.093-2.422-.068-3.6-.044a24.894,24.894,0,0,1-4.791-.209c-7.242-1.279-11.855-8.841-15.563-14.916-3.721-6.1-9.691-14.155-18.215-14.023-5.273.1-10.425,3.728-12.829,9.036-2.057,4.552-2.215,10.162-.439,15.8.492,1.567,1.121,3.165,1.728,4.71,1.927,4.89,3.745,9.509,1.915,13.809a18.213,18.213,0,0,1-3.848,5.124c-.568.6-1.138,1.2-1.677,1.825-7.659,8.846-8.723,22.977-2.473,32.867,4.133,6.545,10.805,11.1,17.259,15.5,8.141,5.558,15.831,10.805,18.42,19.59,1.343,4.562,1.009,9.3.658,14.314-.3,4.3-.616,8.74.231,13.054,1.711,8.721,8.249,16.407,17.065,20.05A31.848,31.848,0,0,0,488.4,392.039ZM480.29,255.128c.616,0,1.219.014,1.827.059,9.2.692,16.2,8.672,19.055,16.275,3.192,8.505,2.919,17.933,2.366,26.861l-.056.884c-.346,5.458-.7,11.1.587,16.538,1.562,6.608,5.565,11.763,10.705,13.788a27.546,27.546,0,0,0,4.238,1.174c.855.187,1.71.373,2.549.614h0c7.5,2.147,13.639,9.2,15.271,17.542,2.351,12.02-5.141,26.52-16.361,31.669-12.272,5.631-29.095,13.342-43.6,7.345-8.21-3.394-14.3-10.522-15.883-18.605-.8-4.057-.494-8.365-.2-12.533.349-4.969.712-10.106-.733-15.013-2.788-9.46-11.131-15.155-19.2-20.664-6.285-4.289-12.786-8.726-16.7-14.923a26.54,26.54,0,0,1,2.3-30.521c.519-.6,1.069-1.179,1.618-1.759a19.912,19.912,0,0,0,4.232-5.709c2.147-5.044.093-10.261-1.893-15.306-.6-1.513-1.213-3.077-1.686-4.579-1.626-5.171-1.5-10.281.359-14.389,2.091-4.628,6.536-7.791,11.06-7.874,7.525-.08,13.029,7.4,16.494,13.076,3.914,6.414,8.785,14.4,16.906,15.832a26.9,26.9,0,0,0,5.174.239C479.245,255.138,479.771,255.128,480.29,255.128Z" transform="translate(-418.413 -224.023)" fill="#ff9f9e"/>
              </g>
              <g id="Group_71" data-name="Group 71" transform="translate(0 24.209)">
                <path id="Path_50" data-name="Path 50" d="M490.168,222.558a6.67,6.67,0,1,0-6.67-6.67A6.677,6.677,0,0,0,490.168,222.558Zm0-11.363a4.694,4.694,0,1,1-4.693,4.693A4.7,4.7,0,0,1,490.168,211.195Z" transform="translate(-483.498 -209.219)" fill="#ff9f9e"/>
              </g>
              <g id="Group_72" data-name="Group 72" transform="translate(36.065)">
                <path id="Path_51" data-name="Path 51" d="M467.185,197.416a2.47,2.47,0,1,0,2.469-2.471A2.47,2.47,0,0,0,467.185,197.416Z" transform="translate(-467.185 -194.945)" fill="#ff9f9e"/>
              </g>
              <g id="Group_73" data-name="Group 73" transform="translate(298.398 141.789)">
                <ellipse id="Ellipse_11" data-name="Ellipse 11" cx="3.211" cy="3.211" rx="3.211" ry="3.211" transform="translate(0)" fill="#ff9f9e"/>
              </g>
              <g id="Group_74" data-name="Group 74" transform="translate(0.989 150.187)">
                <path id="Path_52" data-name="Path 52" d="M489.673,295.849a6.175,6.175,0,1,0-6.175-6.175A6.184,6.184,0,0,0,489.673,295.849Zm0-10.374a4.2,4.2,0,1,1-4.2,4.2A4.2,4.2,0,0,1,489.673,285.475Z" transform="translate(-483.498 -283.499)" fill="#ff9f9e"/>
              </g>
            </g>
            <g id="Group_108" data-name="Group 108" transform="translate(19.273 5.587)">
              <g id="Group_77" data-name="Group 77" transform="translate(128.938 261.85)">
                <path id="Path_53" data-name="Path 53" d="M457.755,279.906s19.1,31.619,24.7,58.955H353.678s9.881-47.427,21.078-58.626Z" transform="translate(-353.678 -279.906)" fill="#1e1c1b"/>
                <g id="Group_76" data-name="Group 76" transform="translate(11.363 9.058)">
                  <line id="Line_3" data-name="Line 3" x1="89.914" transform="translate(5.928 0.247)" fill="none" stroke="#fff" stroke-miterlimit="10" stroke-width="1.165"/>
                  <path id="Path_54" data-name="Path 54" d="M362.174,285.829s7.164,21,20.255,18.773" transform="translate(-279.425 -284.841)" fill="none" stroke="#fff" stroke-miterlimit="10" stroke-width="1.165"/>
                  <path id="Path_55" data-name="Path 55" d="M390.72,285.247v38.041L401.1,333.662V285.494" transform="translate(-346.505 -285.247)" fill="none" stroke="#fff" stroke-miterlimit="10" stroke-width="1.165"/>
                  <path id="Path_56" data-name="Path 56" d="M429.062,285.392s1.73,20.009-15.067,17.538" transform="translate(-413.994 -285.145)" fill="none" stroke="#fff" stroke-miterlimit="10" stroke-width="1.165"/>
                </g>
              </g>
              <g id="Group_97" data-name="Group 97" transform="translate(0)">
                <g id="Group_88" data-name="Group 88">
                  <g id="Group_87" data-name="Group 87" transform="translate(0)">
                    <g id="Group_80" data-name="Group 80" transform="translate(75.351 99.517)">
                      <g id="Group_78" data-name="Group 78" transform="translate(0)">
                        <path id="Path_57" data-name="Path 57" d="M426.09,203.307l15.886.478s5.139,23.376,12.176,54.557c2.325-3.694,4.5-7.191,6.513-10.456,7.088,13.9,15.776,26.824,25.131,39.291-5.3,9-11.4,18.832-18.317,29.064l-.287.424c-12.277,18.12-40.6,11.462-43.489-10.234-.034-.248-.066-.493-.1-.741C419.316,273.194,418.58,237.559,426.09,203.307Z" transform="translate(-416.588 -170.886)" fill="#f7bb8b"/>
                        <path id="Path_58" data-name="Path 58" d="M447.8,192.858c.363-4.14.9-8.458,1.572-8.319,1.114.231,1.774,3.124,2.262,6.777A26.288,26.288,0,0,0,447.8,192.858Z" transform="translate(-428.909 -183.95)" fill="#f28766"/>
                        <path id="Path_59" data-name="Path 59" d="M450.983,198.183c.066-4.447.385-13.147,1.857-13.944,1.152-.622,2.427,4.932,3.3,9.708A20.022,20.022,0,0,0,450.983,198.183Z" transform="translate(-438.802 -184.191)" fill="#f28766"/>
                        <path id="Path_60" data-name="Path 60" d="M445.916,191.735c1.055.758,2.836,2.907,5.113,8.935,0,0-1.547-13.59-.009-15.52,1.219-1.531,4.242,8.811,5.444,13.171a10.227,10.227,0,0,0-1.676,3.277,12.173,12.173,0,0,0-.426,4.739c-1.874,5.1,1.255,11.09,6.7,12.966a13.87,13.87,0,0,0,6.452.541,10.729,10.729,0,0,0,5.095.48,46.576,46.576,0,0,1-4.482,6.511l-11.063-2.112s-12.111-22.857-12.255-32.426A.672.672,0,0,1,445.916,191.735Z" transform="translate(-444.812 -183.63)" fill="#f7bb8b"/>
                      </g>
                      <g id="Group_79" data-name="Group 79" transform="translate(37.448 87.57)">
                        <path id="Path_61" data-name="Path 61" d="M438.293,260.361l-2.47-24.537,5.6,9.387" transform="translate(-435.823 -235.824)" fill="none" stroke="#121b46" stroke-miterlimit="10" stroke-width="1.165"/>
                      </g>
                    </g>
                    <g id="Group_86" data-name="Group 86">
                      <g id="Group_85" data-name="Group 85">
                        <g id="Group_83" data-name="Group 83">
                          <path id="Path_62" data-name="Path 62" d="M474.965,189.786l-19.07,35.7a3.71,3.71,0,0,1-4.277,1.82c-3.518-.979-9.091-3.205-10.466-7.695-2.05-6.692,15.161-40.037,15.161-40.037Z" transform="translate(-365.317 -87.887)" fill="#dfdfdf"/>
                          <path id="Path_63" data-name="Path 63" d="M435.491,158.268l6.443,1.928a4.07,4.07,0,0,1,2.854,4.508c-.875,5.843-3.461,18.586-10.783,35.536a4.073,4.073,0,0,1-4.9,2.288l-5.709-1.708Z" transform="translate(-305.355 -102.716)" fill="#1e1c1b"/>
                          <g id="Group_81" data-name="Group 81" transform="translate(78.23 38.206)">
                            <path id="Path_64" data-name="Path 64" d="M444.739,148.1l30.353,9.08c4.462,1.336,4.291,15.088-.385,30.718s-12.084,27.217-16.548,25.883l-30.352-9.08Z" transform="translate(-424.57 -147.997)" fill="#f26300"/>
                            <path id="Path_65" data-name="Path 65" d="M449.328,174.029c-4.676,15.629-4.849,29.381-.385,30.716s11.87-10.252,16.546-25.883,4.849-29.382.385-30.718S454,158.4,449.328,174.029Z" transform="translate(-445.705 -148.04)" fill="#1e1c1b"/>
                          </g>
                          <path id="Path_66" data-name="Path 66" d="M475.661,126.564l56.227,43.375-.19,3.86a84.672,84.672,0,0,1-13.4,41.567h0l-70.079.417Z" transform="translate(-434.517 -124.782)" fill="#dfdfdf"/>
                          <path id="Path_67" data-name="Path 67" d="M480.641,164.909c-7.456,24.921-4.288,47.88,7.077,51.28,8.8,2.632,19.943-7.237,27.984-23.4a98.69,98.69,0,0,0,6.1-15.562,99.707,99.707,0,0,0,3.255-14.83c2.571-18.632-1.286-33.749-10.335-36.456C503.354,122.536,488.1,139.988,480.641,164.909Z" transform="translate(-476.605 -125.513)" fill="#c4c4c4"/>
                          <path id="Path_68" data-name="Path 68" d="M480.641,167.03c-4.63,15.478-5.163,30.2-2.176,39.946,7.849-6.509,15.488-19.1,20.118-34.578s5.164-30.2,2.176-39.951C492.911,138.953,485.271,151.549,480.641,167.03Z" transform="translate(-453.388 -120.687)" fill="#919191"/>
                          <g id="Group_82" data-name="Group 82" transform="translate(18.4 35.084)">
                            <path id="Path_69" data-name="Path 69" d="M483.153,146.256,477.066,166.6l18.19,11.745a98.685,98.685,0,0,0,6.1-15.562,99.7,99.7,0,0,0,3.255-14.83Z" transform="translate(-474.559 -146.161)" fill="#ebebeb"/>
                            <path id="Path_70" data-name="Path 70" d="M489.149,155.08c-1.681,5.619-.967,10.8,1.6,11.562s6-3.166,7.683-8.785.967-10.8-1.6-11.562S490.83,149.462,489.149,155.08Z" transform="translate(-488.239 -146.2)" fill="#ffd600"/>
                          </g>
                        </g>
                        <g id="Group_84" data-name="Group 84" transform="translate(1.397 2.318)">
                          <path id="Path_71" data-name="Path 71" d="M468.844,150.183s-2.306,32.607-17.292,48.58" transform="translate(-378.521 -110.661)" fill="none" stroke="#121b46" stroke-miterlimit="10" stroke-width="1.165"/>
                          <line id="Line_4" data-name="Line 4" x1="25.36" y1="7.575" transform="translate(89.499 88.267)" fill="none" stroke="#121b46" stroke-miterlimit="10" stroke-width="1.165"/>
                          <path id="Path_72" data-name="Path 72" d="M490.717,153.535c-.707,2.915-.456,5.48.56,5.727s2.415-1.918,3.122-4.835.455-5.481-.561-5.727S491.424,150.618,490.717,153.535Z" transform="translate(-470.217 -111.707)" fill="none" stroke="#121b46" stroke-miterlimit="10" stroke-width="1.165"/>
                          <path id="Path_73" data-name="Path 73" d="M519.169,126.88s-11.034,2.469-17.621,12.35-20.749,37.712-16.633,58.3,15.81,15.479,15.81,15.479" transform="translate(-484.177 -126.88)" fill="none" stroke="#121b46" stroke-miterlimit="10" stroke-width="1.165"/>
                        </g>
                      </g>
                      <path id="Path_74" data-name="Path 74" d="M453.973,219.388S460.559,204.9,459.9,201.6s-8.151-11.361-11.692-10.045,1.894,11.528,1.894,11.528-8.811,10.705-7.822,16.139S453.973,219.388,453.973,219.388Z" transform="translate(-352.372 -79.647)" fill="#f7bb8b"/>
                    </g>
                  </g>
                  <path id="Path_75" data-name="Path 75" d="M458.9,201.026s-28.725,15.213-33.666,21.141-18.115,33.923-18.115,33.923l28.654,38.535S466.379,249,458.9,201.026Z" transform="translate(-293.006 -72.957)" fill="#fdb32c"/>
                </g>
                <g id="Group_92" data-name="Group 92" transform="translate(131.186 74.055)">
                  <g id="Group_89" data-name="Group 89" transform="translate(20.563)">
                    <path id="Path_76" data-name="Path 76" d="M368.913,233.182a9.379,9.379,0,0,0,1.411-5.882,23.045,23.045,0,0,0,4.371-4.053c.507-1.832,1.682-6.3,2.566-11.345a53.153,53.153,0,0,0,.945-13.356v-.017a11.553,11.553,0,0,0-1.318-4.8l43.652-24.546c-.032.146-.049.276-.081.424-.692,4.052-5.953,35.853-.556,52.722a31.777,31.777,0,0,0,12.328,2.758,22.409,22.409,0,0,1,14.609,5.807c4.247,3.989,8.012,10.7,8.08,21.892-4,.5-7.988,1.284-11.97,2-11.908,2.14-23.8,4.418-35.737,6.4-15.389,2.551-31.179,3.105-46.745,4.835C361.145,254.419,363.423,242.391,368.913,233.182Z" transform="translate(-360.467 -169.178)" fill="#ffd600"/>
                    <path id="Path_77" data-name="Path 77" d="M384.916,205.2c23.732,3,35.753-25.345,36.193-26.4a28,28,0,0,1-16.94,12.152,46.5,46.5,0,0,1-18.161.928c-.049-.017-.1-.017-.148-.032A53.151,53.151,0,0,1,384.916,205.2Z" transform="translate(-368.122 -162.48)" fill="#ffd600"/>
                  </g>
                  <g id="Group_91" data-name="Group 91" transform="translate(0 52.759)">
                    <path id="Path_78" data-name="Path 78" d="M436.249,200.286s-27.994,30.959-36.228,26.018-10.31-23.82-10.31-23.82-28.225,24.48-32.177,32.383-3.624,23.384,6.257,47.758,6.175,57.308,6.175,57.308h90.327s-7.576-15.808-5.27-34.252,24.043-77.4,24.043-77.4S483.347,201.273,436.249,200.286Z" transform="translate(-355.171 -200.286)" fill="#ffd600"/>
                    <g id="Group_90" data-name="Group 90" transform="translate(7.191 2.798)">
                      <path id="Path_79" data-name="Path 79" d="M429.1,202.431S406.7,230.921,392.7,228.78s-12.679-26.844-12.679-26.844" transform="translate(-354.386 -201.936)" fill="#ffd600" stroke="#121b46" stroke-miterlimit="10" stroke-width="1.165"/>
                      <path id="Path_80" data-name="Path 80" d="M427.959,223.719a56.4,56.4,0,0,1-2.385,6.954c-2.167,5.188-5.127,10.1-6.407,15.571-2.357,10.079,1.262,20.489,4.83,30.206" transform="translate(-418.415 -186.775)" fill="#ffd600" stroke="#121b46" stroke-miterlimit="10" stroke-width="1.165"/>
                      <path id="Path_81" data-name="Path 81" d="M412.924,254.38a50.3,50.3,0,0,0-19.438,1.664" transform="translate(-361.1 -165.646)" fill="#ffd600" stroke="#121b46" stroke-miterlimit="10" stroke-width="1.165"/>
                    </g>
                  </g>
                </g>
                <g id="Group_96" data-name="Group 96" transform="translate(224.67 130.292)">
                  <g id="Group_94" data-name="Group 94" transform="translate(0 51.109)">
                    <g id="Group_93" data-name="Group 93">
                      <path id="Path_82" data-name="Path 82" d="M333.035,261.375c1.844-1.723,3.709-3.421,5.541-5.158,8.494-8.049,17.26-15.724,25.671-23.746q3.513,3.816,7.12,7.88c5.424,6.128,10.961,12.671,16.482,19.6a25.144,25.144,0,0,1,.694,30.428c-4.384,6.062-9.011,12.079-13.885,17.981-14.187,17.2-30.458,33.423-48.962,46.877L314.162,344.32s16.175-28.878,35.574-64.241C344.032,273.653,338.421,267.367,333.035,261.375Z" transform="translate(-293.264 -232.472)" fill="#f7bb8b"/>
                      <path id="Path_83" data-name="Path 83" d="M386.789,306.589s-6.124,25.133-12.371,32.383a.673.673,0,0,1-1.2-.314c-.285-1.267-.19-4.057,2.11-10.076,0,0-7.868,11.189-10.3,11.609s5.551-15.215,5.551-15.215S360.4,336.61,358.2,336.095s7.517-15.006,7.517-15.006-11.185,11.38-11.964,10.332c-1.942-2.608,13.332-19.017,11.438-20.439-1.676-1.258-6.718,1.024-9.086,2.636a.936.936,0,0,1-1.4-.36c-.526-1.077-.855-2.932,1.523-4.79a50.6,50.6,0,0,1,23.695-10.8Z" transform="translate(-353.582 -187.098)" fill="#f7bb8b"/>
                    </g>
                    <line id="Line_5" data-name="Line 5" x1="7.575" y2="7.575" transform="translate(56.43 39.938)" fill="none" stroke="#121b46" stroke-miterlimit="10" stroke-width="1.165"/>
                  </g>
                  <g id="Group_95" data-name="Group 95" transform="translate(1.592)">
                    <path id="Path_84" data-name="Path 84" d="M401.5,260.118l-32.936,30.3-41.5-42.816s-2.69-44.433,6.212-45.241C346.5,201.164,388.985,242,401.5,260.118Z" transform="translate(-324.267 -202.337)" fill="#fdb32c"/>
                    <path id="Path_85" data-name="Path 85" d="M379.117,243.962l-16.8-15.809,12.186,30.466Z" transform="translate(-362.319 -184.369)" fill="#121b46"/>
                  </g>
                </g>
              </g>
              <g id="Group_107" data-name="Group 107" transform="translate(146.02 7.931)">
                <g id="Group_106" data-name="Group 106" transform="translate(0 4.267)">
                  <path id="Path_86" data-name="Path 86" d="M373.539,184.126c.489-12.868,2.052-26.11,6.482-37.5,5.7-14.66,32.577-20.36,51.309-4.072,8.706,7.566,10.539,21.283,10.022,33.806a6.7,6.7,0,0,1,1.123-.458c3.814-.951,7.644,1.923,8.785,5.509a10.321,10.321,0,0,1-1.336,8.6,12.989,12.989,0,0,1-5.905,4.934,16.648,16.648,0,0,1-5.081.5,37.867,37.867,0,0,1-12.478,21.236,34.2,34.2,0,0,1-29.107,7.362c-8.112-1.677-20.1-6.872-23.081-15.295a21.3,21.3,0,0,1-.879-6.889c-.017-.538-.017-1.075-.017-1.613C373.327,195.055,373.327,189.616,373.539,184.126Z" transform="translate(-373.349 -132.706)" fill="#f7bb8b"/>
                  <g id="Group_105" data-name="Group 105" transform="translate(0 24.879)">
                    <g id="Group_98" data-name="Group 98" transform="translate(0 26.292)">
                      <path id="Path_87" data-name="Path 87" d="M413.381,179.25a8.324,8.324,0,1,0,2.134-16.37,7.882,7.882,0,0,0-1.971.244C413.332,168.614,413.332,174.053,413.381,179.25Z" transform="translate(-413.354 -162.875)" fill="#eba771"/>
                      <path id="Path_88" data-name="Path 88" d="M405.57,171.2a8.328,8.328,0,1,1-8.327-8.327A8.328,8.328,0,0,1,405.57,171.2Z" transform="translate(-353.636 -162.877)" fill="#eba771"/>
                    </g>
                    <g id="Group_102" data-name="Group 102" transform="translate(7.527 11.56)">
                      <g id="Group_99" data-name="Group 99" transform="translate(0)">
                        <path id="Path_89" data-name="Path 89" d="M415.577,160.279c0,2.72-1.075,4.923-2.4,4.923s-2.4-2.2-2.4-4.923,1.077-4.923,2.4-4.923S415.577,157.561,415.577,160.279Z" transform="translate(-408.232 -153.38)" fill="#121b46"/>
                        <path id="Path_90" data-name="Path 90" d="M412,154.61a7.079,7.079,0,0,0,1.627,2.1,5.708,5.708,0,0,0,2.517,1.3l.041.01a.89.89,0,0,0,.4-1.735.851.851,0,0,0-.234-.022,5.2,5.2,0,0,1-3.858-1.954l-.017-.02a.287.287,0,0,0-.473.319Z" transform="translate(-411.97 -154.191)" fill="#121b46"/>
                      </g>
                      <g id="Group_101" data-name="Group 101" transform="translate(19.393 5.78)">
                        <g id="Group_100" data-name="Group 100" transform="translate(10.273 0.334)">
                          <path id="Path_91" data-name="Path 91" d="M399.26,157.916a5.2,5.2,0,0,1-3.858,1.954.89.89,0,1,0-.07,1.779.927.927,0,0,0,.229-.022l.046-.01a5.694,5.694,0,0,0,2.517-1.3,7.035,7.035,0,0,0,1.626-2.1.287.287,0,0,0-.473-.317Z" transform="translate(-394.477 -157.796)" fill="#121b46"/>
                        </g>
                        <path id="Path_92" data-name="Path 92" d="M408.369,160.131a8.045,8.045,0,0,0-2.754-1.94,7.052,7.052,0,0,0-3.268-.573,8.094,8.094,0,0,0-3.1.916c-.478.232-.894.553-1.34.826l-1.194.982a.533.533,0,0,0,.643.85l.053-.036,1.162-.816c.416-.209.807-.47,1.235-.634a6.678,6.678,0,0,1,2.593-.565,5.408,5.408,0,0,1,2.476.634,6.315,6.315,0,0,1,1.954,1.591l.049.061a.989.989,0,1,0,1.545-1.236C408.4,160.17,408.386,160.15,408.369,160.131Z" transform="translate(-396.516 -157.599)" fill="#121b46"/>
                      </g>
                    </g>
                    <g id="Group_103" data-name="Group 103" transform="translate(13.853 33.356)">
                      <path id="Path_93" data-name="Path 93" d="M400.72,167.042a11.775,11.775,0,0,0,3.626,4.123,9.186,9.186,0,0,0,5.383,1.786,9.315,9.315,0,0,0,5.359-1.849,17.547,17.547,0,0,0,2.076-1.847c.566-.729,1.119-1.459,1.615-2.213-.743.544-1.42,1.123-2.1,1.684-.756.46-1.433,1.026-2.2,1.411a9.938,9.938,0,0,1-4.756,1.352,9.688,9.688,0,0,1-4.776-1.289A20.727,20.727,0,0,1,400.72,167.042Z" transform="translate(-400.72 -167.042)" fill="#121b46"/>
                      <path id="Path_94" data-name="Path 94" d="M404.55,172.19a3.948,3.948,0,0,0,2.532.857,4.145,4.145,0,0,0,2.534-.857,13.075,13.075,0,0,1-2.536.283A10.962,10.962,0,0,1,404.55,172.19Z" transform="translate(-398.053 -163.459)" fill="#121b46"/>
                    </g>
                    <g id="Group_104" data-name="Group 104" transform="translate(3.152)">
                      <path id="Path_95" data-name="Path 95" d="M394.814,148.757a5.709,5.709,0,0,1,3.728-1.379,11.48,11.48,0,0,1,3.969.563,9.7,9.7,0,0,1,3.494,2A10.173,10.173,0,0,1,408.39,153a1.151,1.151,0,0,1-1.784,1.408l-.1-.09a14.194,14.194,0,0,0-2.374-1.886,8.315,8.315,0,0,0-2.622-1.077,10.161,10.161,0,0,0-2.842-.275,10.9,10.9,0,0,1-3.036-.176l-.305-.075a1.207,1.207,0,0,1-.514-2.073Z" transform="translate(-369.073 -147.375)" fill="#121b46"/>
                      <path id="Path_96" data-name="Path 96" d="M423.068,148.757a5.7,5.7,0,0,0-3.726-1.379,11.48,11.48,0,0,0-3.969.563,9.7,9.7,0,0,0-3.5,2A10.14,10.14,0,0,0,409.494,153a1.151,1.151,0,0,0,1.784,1.408l.1-.09a14.2,14.2,0,0,1,2.376-1.886,8.3,8.3,0,0,1,2.622-1.077,10.142,10.142,0,0,1,2.841-.275,10.91,10.91,0,0,0,3.038-.176l.3-.075a1.2,1.2,0,0,0,.514-2.073Z" transform="translate(-409.349 -147.375)" fill="#121b46"/>
                    </g>
                    <path id="Path_97" data-name="Path 97" d="M407,153.824c-.426,1.854-.739,3.7-1.082,5.522s-.692,3.636-1.209,5.361c-.12.434-.254.86-.409,1.27a4.552,4.552,0,0,0-.417,1.589,3.2,3.2,0,0,0,1.727,2.921,3.881,3.881,0,0,0,3.139.168,7.686,7.686,0,0,0,2.486-1.487c-1.727.648-3.743,1.155-4.959.237a1.9,1.9,0,0,1-.853-1.755,3.526,3.526,0,0,1,.361-1.094c.185-.46.348-.924.487-1.391a26.178,26.178,0,0,0,.9-5.665A30.1,30.1,0,0,0,407,153.824Z" transform="translate(-384.67 -142.886)" fill="#121b46"/>
                    <path id="Path_98" data-name="Path 98" d="M385.3,164.607a4.1,4.1,0,0,0-1.282-3.258,3.818,3.818,0,0,0-3.716-.358,7,7,0,0,0-3,2.188,11.208,11.208,0,0,0-1.864,3.144.82.82,0,0,0,1.345.884l.054-.054a7.241,7.241,0,0,1,2.758-1.95,1.277,1.277,0,0,1,1.158.127,3.073,3.073,0,0,1,.826,1.277c.421,1.08.673,2.342-.248,2.843a6.167,6.167,0,0,1-3.645.249,5.732,5.732,0,0,0,4,.538,2.258,2.258,0,0,0,1.414-1.888,5.858,5.858,0,0,0-.234-2.179,4.1,4.1,0,0,0-1.165-2.013,2.756,2.756,0,0,0-2.519-.519,7.907,7.907,0,0,0-3.589,2.415l1.4.828a8.8,8.8,0,0,1,3.78-4.73,3.088,3.088,0,0,1,2.8-.17A4.1,4.1,0,0,1,385.3,164.607Z" transform="translate(-310.401 -138.116)" fill="#121b46"/>
                  </g>
                </g>
                <path id="Path_99" data-name="Path 99" d="M263.949,152.647a27.1,27.1,0,0,1,6.262-12.486c6.976-7.627,18.122-9.7,28.437-9.94,6.955-.178,14.109.336,20.374,3.38,9.881,4.762,15.829,14.86,23.081,23.081a79.559,79.559,0,0,0,41.538,24.741c13.063,3,26.639,2.629,40.017,3.833,13.359,1.187,27.172,4.269,37.427,12.925,7.985,6.718,13.458,16.539,22.765,21.263,5.157,2.647,11.048,3.438,16.818,4.209l9.445,1.225c13.894,1.838,21.758,17.37,14.447,29.346-.039.08-.1.158-.139.258-4.8,7.707-12.528,13.693-15.452,22.309-2.668,7.885-.831,16.521-1.464,24.821-1.028,13.042-8.438,25.136-18.693,33.259s-23.14,12.489-36.143,13.912a89.492,89.492,0,0,1-14.367.434,25.029,25.029,0,0,0-5.336-18.081c-5.534-6.916-11.066-13.458-16.482-19.6a3.975,3.975,0,0,0-.276-.3l.989-.909c-12.51-18.1-55-58.948-68.217-57.742a19.814,19.814,0,0,0-8.874-.1,23.012,23.012,0,0,0-2.885-.276,32.076,32.076,0,0,1-12.332-2.727c-5.236-16.363-.455-46.737.5-52.289a16.6,16.6,0,0,0,5.018-.494,12.945,12.945,0,0,0,5.89-4.94,10.289,10.289,0,0,0,1.343-8.6c-1.058-3.3-4.413-5.977-7.924-5.624a37.6,37.6,0,0,1-5.958,7.707,3.7,3.7,0,0,1-2.591,1.381c-1.313-.07-2.152-1.381-2.768-2.541-.79-1.489-2.162-3.024-2.953-4.515a30.509,30.509,0,0,1-24.873-10.882,59.856,59.856,0,0,1-4.818-7.15l-5.989-9.876c-4.433,4.942-11.426,13.868-18.017,14.66A43.527,43.527,0,0,1,263.949,152.647Z" transform="translate(-259.726 -130.19)" fill="#1e1c1b"/>
              </g>
            </g>
          </g>
        </g>
      </g>
      <path id="Path_45408" data-name="Path 45408" d="M231.913,209.156c-9.175-5.655-14.895,5.381-14.93,5.448-.035-.067-5.754-11.1-14.931-5.448-10.541,6.5-.238,27.016,14.928,32h0C232.152,236.171,242.454,215.652,231.913,209.156Z" transform="translate(1740.754 7474.309)" fill="#ff4200"/>
      <g id="Group_5469" data-name="Group 5469" transform="translate(1773.791 7569.52)">
        <path id="Path_16" data-name="Path 16" d="M593.554,179.07H549.641a5.263,5.263,0,0,0-5.263,5.263v28.308a5.262,5.262,0,0,0,5.263,5.261h13.072l4.129,7.151,4.756,8.239,4.756-8.239,4.129-7.151h13.072a5.262,5.262,0,0,0,5.263-5.261V184.333A5.263,5.263,0,0,0,593.554,179.07Z" transform="translate(-192.256 -104.153)" fill="#fbd206"/>
        <g id="Group_31" data-name="Group 31" transform="translate(370.033 80.98)">
          <g id="Group_27" data-name="Group 27" transform="translate(4.729)">
            <path id="Path_17" data-name="Path 17" d="M565.583,210.447a49.405,49.405,0,0,0,11.478.069,6.213,6.213,0,0,0,2.645-.728,2.194,2.194,0,0,0,1.162-2.237,2.744,2.744,0,0,0,1.752-1.017,2.545,2.545,0,0,0,.53-.659,1.964,1.964,0,0,0,.15-.961,2.959,2.959,0,0,0-1.44-2.5,2.606,2.606,0,0,0,1.261-4.17,3.091,3.091,0,0,0-1.332-.865c.375-.335.9-.5,1.191-.911a1.492,1.492,0,0,0-.328-1.885,3.25,3.25,0,0,0-1.931-.7,29.58,29.58,0,0,0-3.812.1,7.708,7.708,0,0,1-3.773-.778c-.244-1.677.157-3.428-.292-5.062a5.149,5.149,0,0,0-4.546-3.677,1.035,1.035,0,0,0-1.32,1.163,17.322,17.322,0,0,0,.814,3.968,4.929,4.929,0,0,1-.38,3.924,13.194,13.194,0,0,0-.964,1.256,9.206,9.206,0,0,0-.484,2.126c-.175.709-.73,1.451-1.456,1.377Z" transform="translate(-564.507 -184.461)" fill="#fff"/>
          </g>
          <g id="Group_30" data-name="Group 30" transform="translate(0 10.294)">
            <g id="Group_28" data-name="Group 28">
              <rect id="Rectangle_3" data-name="Rectangle 3" width="5.823" height="17.115" rx="0.568" fill="#121b46"/>
            </g>
            <g id="Group_29" data-name="Group 29" transform="translate(2.059 1.42)">
              <path id="Path_18" data-name="Path 18" d="M563.553,195.587a.71.71,0,1,1-.71-.711A.71.71,0,0,1,563.553,195.587Z" transform="translate(-562.133 -194.876)" fill="#fff"/>
            </g>
          </g>
        </g>
        <g id="Group_5470" data-name="Group 5470" transform="translate(0 0)">
          <g id="Group_27-2" data-name="Group 27" transform="translate(4.729)">
            <path id="Path_17-2" data-name="Path 17" d="M565.583,210.447a49.405,49.405,0,0,0,11.478.069,6.213,6.213,0,0,0,2.645-.728,2.194,2.194,0,0,0,1.162-2.237,2.744,2.744,0,0,0,1.752-1.017,2.545,2.545,0,0,0,.53-.659,1.964,1.964,0,0,0,.15-.961,2.959,2.959,0,0,0-1.44-2.5,2.606,2.606,0,0,0,1.261-4.17,3.091,3.091,0,0,0-1.332-.865c.375-.335.9-.5,1.191-.911a1.492,1.492,0,0,0-.328-1.885,3.25,3.25,0,0,0-1.931-.7,29.58,29.58,0,0,0-3.812.1,7.708,7.708,0,0,1-3.773-.778c-.244-1.677.157-3.428-.292-5.062a5.149,5.149,0,0,0-4.546-3.677,1.035,1.035,0,0,0-1.32,1.163,17.322,17.322,0,0,0,.814,3.968,4.929,4.929,0,0,1-.38,3.924,13.194,13.194,0,0,0-.964,1.256,9.206,9.206,0,0,0-.484,2.126c-.175.709-.73,1.451-1.456,1.377Z" transform="translate(-564.507 -184.461)" fill="#fff"/>
          </g>
          <g id="Group_30-2" data-name="Group 30" transform="translate(0 10.294)">
            <g id="Group_28-2" data-name="Group 28">
              <rect id="Rectangle_3-2" data-name="Rectangle 3" width="5.823" height="17.115" rx="0.568" fill="#121b46"/>
            </g>
            <g id="Group_29-2" data-name="Group 29" transform="translate(2.059 1.42)">
              <path id="Path_18-2" data-name="Path 18" d="M563.553,195.587a.71.71,0,1,1-.71-.711A.71.71,0,0,1,563.553,195.587Z" transform="translate(-562.133 -194.876)" fill="#fff"/>
            </g>
          </g>
        </g>
      </g>
    </g>
    <path id="Path_45470" data-name="Path 45470" d="M1157.094,1131.385l-25.2,40.255,22.853-1.053V1183l25.376-41.872-23.033,3.042Z" transform="matrix(-0.174, -0.985, 0.985, -0.174, -646.202, 7935.809)" fill="#fff"/>
    <path id="Path_45471" data-name="Path 45471" d="M1152.286,1131.385,1131.9,1163.96l18.493-.852v10.041l20.534-33.882-18.638,2.461Z" transform="matrix(-0.574, -0.819, 0.819, -0.574, -15.193, 8254.911)" fill="#fff"/>
    <path id="Path_45472" data-name="Path 45472" d="M1158.308,1131.385l-26.411,42.2,23.955-1.1v13.007l26.6-43.889-24.143,3.188Z" transform="matrix(-0.866, -0.5, 0.5, -0.866, 694.579, 8299.354)" fill="#fff"/>
  </g>
</svg>
