<svg xmlns="http://www.w3.org/2000/svg" xmlns:xlink="http://www.w3.org/1999/xlink" width="529.018" height="411.257" xmlns:v="https://vecta.io/nano"><style><![CDATA[.B{stroke-miterlimit:10}.C{stroke-width:1.165}.D{fill:#f7bb8b}.E{fill:#1e1c1b}.F{stroke:#121b46}.G{fill:#121b46}]]></style><defs><clipPath id="A"><path d="M266.9 441.695h364.928v-46.769l69.779-144.62-42.113-118.994-407.743-9.093L266.9 391.633z" transform="translate(-251.751 -122.219)" fill="none"/></clipPath><path id="B" d="M416.093 372.281c3.81.469 7.662.492 11.478.069.925-.043 1.829-.291 2.645-.728.82-.427 1.284-1.321 1.162-2.237.692-.103 1.319-.467 1.752-1.017.212-.189.391-.411.53-.659.13-.303.181-.633.15-.961a2.96 2.96 0 0 0-1.44-2.5c.842-.249 1.502-.905 1.756-1.745s.068-1.752-.495-2.425a3.09 3.09 0 0 0-1.332-.865c.375-.335.9-.5 1.191-.911a1.49 1.49 0 0 0-.328-1.885 3.25 3.25 0 0 0-1.931-.7 29.58 29.58 0 0 0-3.812.1 7.71 7.71 0 0 1-3.773-.778c-.244-1.677.157-3.428-.292-5.062a5.15 5.15 0 0 0-4.546-3.677c-.343-.104-.715-.023-.984.214s-.396.596-.336.949a17.32 17.32 0 0 0 .814 3.968 4.93 4.93 0 0 1-.38 3.924c-.346.399-.668.818-.964 1.256-.245.687-.407 1.401-.484 2.126-.175.709-.73 1.451-1.456 1.377z"/></defs><path d="M26.829 114.513h364.927l67.483 237.137H94.312z" fill="#6300b7"/><g clip-path="url(#A)" transform="translate(79.162 32.174)"><g fill="#ff9f9e"><path d="M116.344 340.675c11.731 0 23.585-5.439 32.9-9.713 12.191-5.6 20.03-20.774 17.474-33.842-1.774-9.055-8.474-16.716-16.674-19.063-.88-.253-1.776-.449-2.671-.646a25.64 25.64 0 0 1-3.929-1.075c-4.54-1.791-8.095-6.428-9.509-12.406-1.219-5.151-.872-10.646-.536-15.961l.056-.884c.566-9.141.841-18.807-2.49-27.679-3.075-8.19-10.687-16.792-20.756-17.55-1.208-.093-2.422-.068-3.6-.044-1.6.085-3.204.015-4.791-.209-7.242-1.279-11.855-8.841-15.563-14.916-3.721-6.1-9.691-14.155-18.215-14.023-5.273.1-10.425 3.728-12.829 9.036-2.057 4.552-2.215 10.162-.439 15.8.492 1.567 1.121 3.165 1.728 4.71 1.927 4.89 3.745 9.509 1.915 13.809-.97 1.922-2.273 3.657-3.848 5.124-.568.6-1.138 1.2-1.677 1.825-7.659 8.846-8.723 22.977-2.473 32.867 4.133 6.545 10.805 11.1 17.259 15.5 8.141 5.558 15.831 10.805 18.42 19.59 1.343 4.562 1.009 9.3.658 14.314-.3 4.3-.616 8.74.231 13.054 1.711 8.721 8.249 16.407 17.065 20.05a31.85 31.85 0 0 0 12.294 2.332zm-8.11-136.911a24.63 24.63 0 0 1 1.827.059c9.2.692 16.2 8.672 19.055 16.275 3.192 8.505 2.919 17.933 2.366 26.861l-.056.884c-.346 5.458-.7 11.1.587 16.538 1.562 6.608 5.565 11.763 10.705 13.788a27.52 27.52 0 0 0 4.238 1.174c.855.187 1.71.373 2.549.614h0c7.5 2.147 13.639 9.2 15.271 17.542 2.351 12.02-5.141 26.52-16.361 31.669-12.272 5.631-29.095 13.342-43.6 7.345-8.21-3.394-14.3-10.522-15.883-18.605-.8-4.057-.494-8.365-.2-12.533.349-4.969.712-10.106-.733-15.013-2.788-9.46-11.131-15.155-19.2-20.664-6.285-4.289-12.786-8.726-16.7-14.923a26.54 26.54 0 0 1 2.3-30.521c.519-.6 1.069-1.179 1.618-1.759a19.91 19.91 0 0 0 4.232-5.709c2.147-5.044.093-10.261-1.893-15.306-.6-1.513-1.213-3.077-1.686-4.579-1.626-5.171-1.5-10.281.359-14.389 2.091-4.628 6.536-7.791 11.06-7.874 7.525-.08 13.029 7.4 16.494 13.076 3.914 6.414 8.785 14.4 16.906 15.832a26.9 26.9 0 0 0 5.174.239l1.571-.021zm-58.09-42.873a6.67 6.67 0 1 0-6.67-6.67 6.68 6.68 0 0 0 6.67 6.67zm0-11.363c1.899 0 3.611 1.143 4.337 2.897s.325 3.773-1.017 5.116-3.362 1.744-5.116 1.017-2.898-2.439-2.897-4.337a4.7 4.7 0 0 1 4.693-4.693zm29.395-23.714a2.47 2.47 0 1 0 .723-1.747 2.47 2.47 0 0 0-.723 1.747z"/><circle cx="345.083" cy="268.343" r="3.211"/><path d="M50.638 285.88c3.41 0 6.175-2.765 6.175-6.175s-2.765-6.175-6.175-6.175-6.175 2.765-6.175 6.175 2.767 6.17 6.175 6.175zm0-10.374a4.2 4.2 0 0 1 2.97 7.17 4.2 4.2 0 0 1-7.17-2.97 4.2 4.2 0 0 1 4.2-4.2z"/></g><path d="M252.288 267.437s19.1 31.619 24.7 58.955H148.211s9.881-47.427 21.078-58.626z" class="E"/><g fill="none" stroke="#fff" class="B C"><path d="M255.416 276.742h-89.914m76.821.741s7.164 21 20.255 18.773"/><path d="M203.789 276.495v38.041l10.38 10.374v-48.168m-39.527 0s1.73 20.009-15.067 17.538"/></g><path d="M104.126 137.525l15.886.478 12.176 54.557 6.513-10.456c7.088 13.9 15.776 26.824 25.131 39.291-5.3 9-11.4 18.832-18.317 29.064l-.287.424c-12.277 18.12-40.6 11.462-43.489-10.234l-.1-.741c-4.287-32.496-5.023-68.131 2.487-102.383z" class="D"/><g fill="#f28766"><path d="M113.515 114.012c.363-4.14.9-8.458 1.572-8.319 1.114.231 1.774 3.124 2.262 6.777a26.29 26.29 0 0 0-3.834 1.542zm-6.71 5.084c.066-4.447.385-13.147 1.857-13.944 1.152-.622 2.427 4.932 3.3 9.708a20.02 20.02 0 0 0-5.157 4.236z"/></g><path d="M95.728 113.209c1.055.758 2.836 2.907 5.113 8.935 0 0-1.547-13.59-.009-15.52 1.219-1.531 4.242 8.811 5.444 13.171-.752.982-1.32 2.092-1.676 3.277-.452 1.536-.597 3.147-.426 4.739-1.874 5.1 1.255 11.09 6.7 12.966a13.87 13.87 0 0 0 6.452.541 10.73 10.73 0 0 0 5.095.48c-1.307 2.293-2.806 4.472-4.482 6.511l-11.063-2.112s-12.111-22.857-12.255-32.426a.67.67 0 0 1 1.107-.562z" class="D"/><path d="M134.542 217.211l-2.47-24.537 5.6 9.387" fill="none" class="B C F"/><path d="M128.921 107.486l-19.07 35.7a3.71 3.71 0 0 1-4.277 1.82c-3.518-.979-9.091-3.205-10.466-7.695-2.05-6.692 15.161-40.037 15.161-40.037z" fill="#dfdfdf"/><path d="M149.409 61.139l6.443 1.928a4.07 4.07 0 0 1 2.854 4.508c-.875 5.843-3.461 18.586-10.783 35.536-.818 1.893-2.923 2.876-4.9 2.288l-5.709-1.708z" class="E"/><path d="M117.672 43.896l30.353 9.08c4.462 1.336 4.291 15.088-.385 30.718s-12.084 27.217-16.548 25.883l-30.352-9.08z" fill="#f26300"/><path d="M101.126 69.782c-4.676 15.629-4.849 29.381-.385 30.716s11.87-10.252 16.546-25.883 4.849-29.382.385-30.718-11.874 10.256-16.546 25.885z" class="E"/><path d="M60.417 7.369l56.227 43.375-.19 3.86a84.67 84.67 0 0 1-13.4 41.567h0l-70.079.417z" fill="#dfdfdf"/><path d="M23.309 44.983c-7.456 24.921-4.288 47.88 7.077 51.28 8.8 2.632 19.943-7.237 27.984-23.4a98.69 98.69 0 0 0 6.1-15.562c1.46-4.853 2.549-9.811 3.255-14.83C70.296 23.839 66.439 8.722 57.39 6.015 46.022 2.61 30.768 20.062 23.309 44.983z" fill="#c4c4c4"/><path d="M46.526 51.93c-4.63 15.478-5.163 30.2-2.176 39.946 7.849-6.509 15.488-19.1 20.118-34.578s5.164-30.2 2.176-39.951c-7.848 6.506-15.488 19.102-20.118 34.583z" fill="#919191"/><path d="M46.267 40.766L40.18 61.11l18.19 11.745c2.47-5.005 4.51-10.211 6.1-15.562a99.7 99.7 0 0 0 3.255-14.83z" fill="#ebebeb"/><path d="M38.583 49.551c-1.681 5.619-.967 10.8 1.6 11.562s6-3.166 7.683-8.785.967-10.8-1.6-11.562-6.002 3.167-7.683 8.785z" fill="#ffd600"/><g fill="none" class="B C F"><path d="M110.993 47.427s-2.306 32.607-17.292 48.58m41.828 7.74l-25.36-7.575M41.17 49.733c-.707 2.915-.456 5.48.56 5.727s2.415-1.918 3.122-4.835.455-5.481-.561-5.727-2.414 1.918-3.121 4.835zM55.662 7.905s-11.034 2.469-17.621 12.35-20.749 37.712-16.633 58.3 15.81 15.479 15.81 15.479"/></g><path d="M120.874 145.328s6.586-14.488 5.927-17.788-8.151-11.361-11.692-10.045 1.894 11.528 1.894 11.528-8.811 10.705-7.822 16.139 11.693.166 11.693.166z" class="D"/><path d="M185.167 133.656s-28.725 15.213-33.666 21.141-18.115 33.923-18.115 33.923l28.654 38.535s30.606-45.625 23.127-93.599z" fill="#fdb32c"/><g fill="#ffd600"><path d="M179.468 143.646a9.38 9.38 0 0 0 1.411-5.882c1.626-1.156 3.096-2.518 4.371-4.053.507-1.832 1.682-6.3 2.566-11.345.877-4.394 1.194-8.882.945-13.356v-.017c-.085-1.677-.535-3.315-1.318-4.8l43.652-24.546c-.032.146-.049.276-.081.424-.692 4.052-5.953 35.853-.556 52.722 3.883 1.735 8.075 2.673 12.328 2.758a22.41 22.41 0 0 1 14.609 5.807c4.247 3.989 8.012 10.7 8.08 21.892-4 .5-7.988 1.284-11.97 2l-35.737 6.4c-15.389 2.551-31.179 3.105-46.745 4.835.677-11.602 2.955-23.63 8.445-32.839z"/><path d="M187.816 122.362c23.732 3 35.753-25.345 36.193-26.4a28 28 0 0 1-16.94 12.152 46.5 46.5 0 0 1-18.161.928c-.049-.017-.1-.017-.148-.032a53.15 53.15 0 0 1-.944 13.352zm43.721 10.039s-27.994 30.959-36.228 26.018-10.31-23.82-10.31-23.82-28.225 24.48-32.177 32.383-3.624 23.384 6.257 47.758 6.175 57.308 6.175 57.308h90.327s-7.576-15.808-5.27-34.252 24.043-77.4 24.043-77.4 4.281-27.008-42.817-27.995z"/><g class="B C F"><path d="M232.364 135.694s-22.4 28.49-36.4 26.349-12.679-26.844-12.679-26.844m-16.091 36.944a56.4 56.4 0 0 1-2.385 6.954c-2.167 5.188-5.127 10.1-6.407 15.571-2.357 10.079 1.262 20.489 4.83 30.206m46.242-.941a50.3 50.3 0 0 0-19.438 1.664"/></g></g><g class="D"><path d="M283.714 215.891l5.541-5.158 25.671-23.746q3.513 3.816 7.12 7.88a495.27 495.27 0 0 1 16.482 19.6c7.041 8.835 7.325 21.281.694 30.428-4.384 6.062-9.011 12.079-13.885 17.981-14.187 17.2-30.458 33.423-48.962 46.877l-11.534-10.917 35.574-64.241-16.701-18.704z"/><path d="M277.15 306.479s-6.124 25.133-12.371 32.383c-.165.215-.442.31-.704.241s-.457-.287-.496-.555c-.285-1.267-.19-4.057 2.11-10.076 0 0-7.868 11.189-10.3 11.609s5.551-15.215 5.551-15.215-10.179 11.634-12.379 11.119 7.517-15.006 7.517-15.006-11.185 11.38-11.964 10.332c-1.942-2.608 13.332-19.017 11.438-20.439-1.676-1.258-6.718 1.024-9.086 2.636-.226.165-.514.22-.785.151s-.497-.257-.615-.511c-.526-1.077-.855-2.932 1.523-4.79a50.6 50.6 0 0 1 23.695-10.8z"/></g><path fill="none" d="M307.948 226.926l-7.575 7.575" class="B C F"/><path d="M322.768 193.66l-32.936 30.3-41.5-42.816s-2.69-44.433 6.212-45.241c13.224-1.197 55.709 39.639 68.224 57.757z" fill="#fdb32c"/><path d="M262.333 195.472l-16.8-15.809 12.186 30.466z" class="G"/><path d="M165.483 69.205c.489-12.868 2.052-26.11 6.482-37.5 5.7-14.66 32.577-20.36 51.309-4.072 8.706 7.566 10.539 21.283 10.022 33.806a6.7 6.7 0 0 1 1.123-.458c3.814-.951 7.644 1.923 8.785 5.509a10.32 10.32 0 0 1-1.336 8.6 12.99 12.99 0 0 1-5.905 4.934 16.65 16.65 0 0 1-5.081.5c-1.677 8.271-6.068 15.746-12.478 21.236a34.2 34.2 0 0 1-29.107 7.362c-8.112-1.677-20.1-6.872-23.081-15.295a21.3 21.3 0 0 1-.879-6.889c-.017-.538-.017-1.075-.017-1.613-.049-5.191-.049-10.63.163-16.12z" class="D"/><g fill="#eba771"><path d="M165.32 85.331c3.124.828 6.446-.227 8.519-2.706s2.524-5.935 1.155-8.864-4.308-4.8-7.541-4.8a7.88 7.88 0 0 0-1.971.244c-.212 5.49-.212 10.929-.163 16.126zm51.907-8.052a8.33 8.33 0 1 1-8.327-8.327 8.33 8.33 0 0 1 8.327 8.327z"/></g><g class="G"><path d="M180.165 61.123c0 2.72-1.075 4.923-2.4 4.923s-2.4-2.2-2.4-4.923 1.077-4.923 2.4-4.923 2.4 2.205 2.4 4.923z"/><path d="M172.85 54.643a7.08 7.08 0 0 0 1.627 2.1 5.71 5.71 0 0 0 2.517 1.3l.041.01a.89.89 0 1 0 .4-1.735.85.85 0 0 0-.234-.022 5.2 5.2 0 0 1-3.858-1.954l-.017-.02c-.095-.112-.258-.134-.379-.052s-.162.242-.094.371zm34.419 5.815a5.2 5.2 0 0 1-3.858 1.954.89.89 0 1 0-.07 1.779c.077.002.154-.005.229-.022l.046-.01c.935-.214 1.801-.662 2.517-1.3a7.04 7.04 0 0 0 1.626-2.1c.065-.129.023-.286-.097-.367s-.281-.059-.376.05z"/><path d="M204.066 62.536a8.04 8.04 0 0 0-2.754-1.94 7.05 7.05 0 0 0-3.268-.573c-1.084.094-2.139.405-3.1.916-.478.232-.894.553-1.34.826l-1.194.982c-.228.18-.271.509-.096.74s.504.28.739.11l.053-.036 1.162-.816c.416-.209.807-.47 1.235-.634a6.68 6.68 0 0 1 2.593-.565 5.41 5.41 0 0 1 2.476.634 6.32 6.32 0 0 1 1.954 1.591l.049.061a.99.99 0 0 0 1.694-.258.99.99 0 0 0-.149-.978c-.023-.021-.037-.041-.054-.06zm-24.92 13.484a11.77 11.77 0 0 0 3.626 4.123 9.19 9.19 0 0 0 5.383 1.786 9.32 9.32 0 0 0 5.359-1.849 17.5 17.5 0 0 0 2.076-1.847l1.615-2.213-2.1 1.684c-.756.46-1.433 1.026-2.2 1.411a9.94 9.94 0 0 1-4.756 1.352 9.69 9.69 0 0 1-4.776-1.289c-1.538-.868-2.958-1.93-4.227-3.158zm6.497 8.731a3.95 3.95 0 0 0 2.532.857c.916.002 1.807-.299 2.534-.857a13.02 13.02 0 0 1-2.536.283 10.96 10.96 0 0 1-2.53-.283zm8.543-40.705a5.71 5.71 0 0 1 3.728-1.379 11.48 11.48 0 0 1 3.969.563 9.7 9.7 0 0 1 3.494 2c.984.857 1.794 1.896 2.385 3.059a1.15 1.15 0 0 1-1.784 1.408l-.1-.09c-.722-.712-1.518-1.344-2.374-1.886a8.32 8.32 0 0 0-2.622-1.077 10.16 10.16 0 0 0-2.842-.275 10.9 10.9 0 0 1-3.036-.176l-.305-.075a1.21 1.21 0 0 1-.883-.881c-.108-.434.034-.894.369-1.192zm-12.022 0a5.7 5.7 0 0 0-3.726-1.379 11.48 11.48 0 0 0-3.969.563 9.7 9.7 0 0 0-3.5 2 10.14 10.14 0 0 0-2.379 3.059 1.15 1.15 0 0 0 1.784 1.408l.1-.09a14.2 14.2 0 0 1 2.376-1.886 8.3 8.3 0 0 1 2.622-1.077 10.14 10.14 0 0 1 2.841-.275 10.91 10.91 0 0 0 3.038-.176l.3-.075a1.2 1.2 0 0 0 .514-2.073zm5.459 9.556l-1.082 5.522-1.209 5.361-.409 1.27a4.55 4.55 0 0 0-.417 1.589 3.2 3.2 0 0 0 1.727 2.921 3.88 3.88 0 0 0 3.139.168c.915-.334 1.759-.838 2.486-1.487-1.727.648-3.743 1.155-4.959.237a1.9 1.9 0 0 1-.853-1.755c.06-.382.182-.752.361-1.094l.487-1.391a26.18 26.18 0 0 0 .9-5.665 30.1 30.1 0 0 0-.171-5.676zm52.569 15.553a4.1 4.1 0 0 0-1.282-3.258 3.82 3.82 0 0 0-3.716-.358 7 7 0 0 0-3 2.188 11.21 11.21 0 0 0-1.864 3.144.82.82 0 0 0 1.345.884l.054-.054a7.24 7.24 0 0 1 2.758-1.95 1.28 1.28 0 0 1 1.158.127c.378.35.662.789.826 1.277.421 1.08.673 2.342-.248 2.843a6.17 6.17 0 0 1-3.645.249 5.73 5.73 0 0 0 4 .538 2.26 2.26 0 0 0 1.414-1.888 5.86 5.86 0 0 0-.234-2.179 4.1 4.1 0 0 0-1.165-2.013 2.76 2.76 0 0 0-2.519-.519 7.91 7.91 0 0 0-3.589 2.415l1.4.828a8.8 8.8 0 0 1 3.78-4.73 3.09 3.09 0 0 1 2.8-.17 4.1 4.1 0 0 1 1.727 2.626z"/></g><path d="M169.516 35.975a27.1 27.1 0 0 1 6.262-12.486c6.976-7.627 18.122-9.7 28.437-9.94 6.955-.178 14.109.336 20.374 3.38 9.881 4.762 15.829 14.86 23.081 23.081a79.56 79.56 0 0 0 41.538 24.741c13.063 3 26.639 2.629 40.017 3.833 13.359 1.187 27.172 4.269 37.427 12.925 7.985 6.718 13.458 16.539 22.765 21.263 5.157 2.647 11.048 3.438 16.818 4.209l9.445 1.225c13.894 1.838 21.758 17.37 14.447 29.346-.039.08-.1.158-.139.258-4.8 7.707-12.528 13.693-15.452 22.309-2.668 7.885-.831 16.521-1.464 24.821-1.028 13.042-8.438 25.136-18.693 33.259s-23.14 12.489-36.143 13.912a89.49 89.49 0 0 1-14.367.434 25.03 25.03 0 0 0-5.336-18.081c-5.534-6.916-11.066-13.458-16.482-19.6-.087-.105-.179-.205-.276-.3l.989-.909c-12.51-18.1-55-58.948-68.217-57.742-2.912-.704-5.946-.738-8.874-.1a23.01 23.01 0 0 0-2.885-.276c-4.251-.083-8.443-1.01-12.332-2.727-5.236-16.363-.455-46.737.5-52.289a16.6 16.6 0 0 0 5.018-.494c2.418-1.012 4.472-2.735 5.89-4.94a10.29 10.29 0 0 0 1.343-8.6c-1.058-3.3-4.413-5.977-7.924-5.624a37.6 37.6 0 0 1-5.958 7.707 3.7 3.7 0 0 1-2.591 1.381c-1.313-.07-2.152-1.381-2.768-2.541-.79-1.489-2.162-3.024-2.953-4.515a30.51 30.51 0 0 1-24.873-10.882c-1.776-2.264-3.386-4.654-4.818-7.15l-5.989-9.876c-4.433 4.942-11.426 13.868-18.017 14.66-.001-4.646.742-9.261 2.2-13.672z" class="E"/></g><path d="M239.131 379.26c-9.175-5.655-14.895 5.381-14.93 5.448-.035-.067-5.754-11.1-14.931-5.448-10.541 6.5-.238 27.016 14.928 32h0c15.172-4.985 25.474-25.504 14.933-32z" fill="#ff4200"/><path d="M441.553 340.232H397.64c-1.396 0-2.734.554-3.722 1.541s-1.541 2.326-1.541 3.722v28.308a5.26 5.26 0 0 0 5.263 5.261h13.072l4.129 7.151 4.756 8.239 4.756-8.239 4.129-7.151h13.072a5.26 5.26 0 0 0 5.263-5.261v-28.308c0-1.396-.555-2.735-1.542-3.722s-2.326-1.541-3.722-1.541z" fill="#fbd206"/><use xlink:href="#B" fill="#fff"/><rect width="5.823" height="17.115" rx=".568" x="410.288" y="356.589" class="G"/><g fill="#fff"><path d="M413.767 358.72a.71.71 0 0 1-1.42-.001.71.71 0 0 1 1.212-.501.71.71 0 0 1 .208.503z"/><use xlink:href="#B" x="-370.033" y="-80.98"/></g><rect width="5.823" height="17.115" rx=".568" x="40.255" y="275.609" class="G"/><path d="M43.734 277.74a.71.71 0 1 1-.208-.502.71.71 0 0 1 .208.503zM30.638 31.023l44.036 17.818-5.014-22.327 12.227-2.16-45.659-17.71 7.004 22.158zM13.759 93.587l38.38-2.002-11.313-14.657 8.224-5.764-39.536 2.631 12.714 13.852zm7.178 78.647l43.972-23.34-21.295-11.025 6.504-11.264-44.98 24.708 22.502 9.311z" fill="#fff"/></svg>