<svg xmlns="http://www.w3.org/2000/svg" width="354.955" height="294.219" xmlns:v="https://vecta.io/nano"><path d="M0 91.448l.483 5.508 15.39 175.6h296.772V43.479" fill="#fbd206"/><g fill="#5504b0"><path d="M187.552 88.78a9.28 9.28 0 0 1 .533-2.711 24.92 24.92 0 0 1 1.04-2.579 44.1 44.1 0 0 1 2.7-4.866c.06-.093.038-.217-.05-.284h0a14.16 14.16 0 0 1-3.562-4.312 37.6 37.6 0 0 1-2.426-5.125c-1.379-3.541-2.385-7.209-3.491-10.877-.147-.458-.281-.917-.448-1.376-.146-.489-.353-.958-.616-1.395-.563-.843-1.275-1.576-2.1-2.165a24.7 24.7 0 0 0-5.129-2.768c-1.781-.744-3.605-1.362-5.422-1.953l-1.344-.45c-.376-.089-.712-.296-.96-.592a4.32 4.32 0 0 1-.683-2.384v-.02c-.007-.231-.168-.429-.393-.484l-2.3-.556-1.15-.278-.288-.07c-.1-.025.041 0 .059.03.017.008.03.02.04.036h.007a1.11 1.11 0 0 1-.082-.339c-.054-.741-.035-1.485.056-2.222.076-.763.187-1.536.309-2.29l-.531.454a13.35 13.35 0 0 0 4.423-.75 6.5 6.5 0 0 0 2.008-1.191c.6-.528 1.077-1.18 1.4-1.911 1.242-2.986.191-6.087.018-8.743a17.46 17.46 0 0 0-.72-4.368c-.395-1.365-.699-2.755-.91-4.161a18.73 18.73 0 0 0-.967-4.281 30.26 30.26 0 0 0-1.711-4.026l-.317.522a13.76 13.76 0 0 0 1.685-.131c.575-.079 1.135-.24 1.664-.478a2.72 2.72 0 0 0 1.334-1.238 2.47 2.47 0 0 0 .08-1.845c-.042-.123-.161-.202-.29-.192h-.01a2.67 2.67 0 0 1-1.6-.4 6.88 6.88 0 0 1-1.354-1.152c-.818-.946-1.713-1.824-2.675-2.623a9.57 9.57 0 0 0-3.442-1.554 20.26 20.26 0 0 0-3.7-.608 15.5 15.5 0 0 0-7.375 1.052 13.02 13.02 0 0 0-3.126 2.087c-.476.425-.889.915-1.229 1.455-.173.278-.305.579-.394.894-.105.335-.118.692-.036 1.034l.076-.231c-1.397.978-2.677 2.112-3.816 3.381a13.75 13.75 0 0 0-2.738 4.312c-.159.402-.281.818-.366 1.242-.041.213-.1.421-.125.637l-.051.65c-.026.434-.011.869.044 1.3.04.433.169.847.25 1.272a18.61 18.61 0 0 0 2.122 4.655 50 50 0 0 0 6.268 8l.44.46c.147.137.283.285.407.444.212.307.365.65.454 1.012a14.49 14.49 0 0 1 .413 2.423 42.95 42.95 0 0 1 .16 5l.418-.408-2.512-.016a.43.43 0 0 0-.433.411v.024c-.085 1.49-.41 2.956-.963 4.342-.268.693-.603 1.357-1 1.985a13.07 13.07 0 0 1-1.41 1.717c-2.115 2.185-4.5 4.158-6.817 6.2l-3.457 3.116q-.851.8-1.669 1.651l-1.566 1.706-1.617 1.654c-.588.576-1.1 1.225-1.522 1.932a6.28 6.28 0 0 0-.752 2.413 13.54 13.54 0 0 0-.059 2.419 25.55 25.55 0 0 0 .231 2.359l.252 1.211c.112.391.262.765.392 1.147a8.04 8.04 0 0 0 .465 1.107c.173.358.332.726.518 1.076.4.679.754 1.393 1.2 2.04a63.4 63.4 0 0 0 5.68 7.429c2.031 2.349 4.164 4.6 6.25 6.864l1.521 1.711c.252.286.445.577.672.865a7.04 7.04 0 0 1 .512.914c.294.563.389 1.208.269 1.832-.079.284-.215.549-.4.778a2.49 2.49 0 0 1-.684.564l-.027.014a.62.62 0 0 0-.256.838l.014.025 2.34 3.949c.117.197.335.313.564.3h.022a5.17 5.17 0 0 1 3.027.66c.398.26.707.634.886 1.074l.118.345.1.418c.062.281.12.565.172.852.409 2.3.642 4.671.824 7.021v.018c.021.263.227.473.49.5 3.3.333 6.616.609 9.936.65 3.318.095 6.639-.024 9.948-.243s6.6-.647 9.875-1.188c3.277-.529 6.517-1.267 9.7-2.208h.007c.075-.023.135-.08.162-.153a23.27 23.27 0 0 0 1.062-4.1c.24-1.384.387-2.782.439-4.186a17.04 17.04 0 0 0-.323-4.2c-.258-1.378-.618-2.73-1-4.072-.009-.033-.042-.052-.075-.043s-.052.042-.043.075a25.27 25.27 0 0 1 1.106 8.218 30.87 30.87 0 0 1-.539 4.122c-.257 1.354-.637 2.682-1.133 3.968l.169-.155a77.94 77.94 0 0 1-9.65 2.015c-3.256.48-6.532.84-9.819 1.007s-6.577.261-9.863.129c-3.289-.076-6.565-.385-9.83-.749l.491.519c-.16-2.395-.365-4.768-.763-7.16-.051-.3-.109-.6-.172-.9l-.1-.452c-.044-.16-.107-.335-.163-.5a3.51 3.51 0 0 0-1.332-1.642 5.17 5.17 0 0 0-1.87-.742 7.5 7.5 0 0 0-1.951-.129l.586.3-2.331-3.955-.268.877a3.62 3.62 0 0 0 1.105-.886c.305-.369.529-.798.657-1.259.197-.9.079-1.841-.333-2.665-.177-.384-.383-.753-.616-1.105-.248-.321-.488-.673-.746-.967-.509-.6-1.031-1.18-1.553-1.756l-6.211-6.852c-2.02-2.296-3.883-4.725-5.578-7.27-.435-.626-.771-1.3-1.159-1.948-.178-.331-.327-.673-.492-1.009a7.17 7.17 0 0 1-.437-1.023c-.119-.347-.262-.692-.365-1.041l-.226-1.055c-.117-.731-.186-1.5-.234-2.248a12.37 12.37 0 0 1 .038-2.205c.061-.696.266-1.372.6-1.986a21.35 21.35 0 0 1 2.945-3.366c.539-.573 1.055-1.173 1.557-1.716q.781-.825 1.614-1.617c1.108-1.056 2.255-2.083 3.407-3.108 2.3-2.062 4.651-4.068 6.809-6.351a13.93 13.93 0 0 0 1.5-1.88c.42-.685.773-1.409 1.052-2.162a14.65 14.65 0 0 0 .966-4.678l-.434.434 2.512-.016h.01a.41.41 0 0 0 .408-.408 43.67 43.67 0 0 0-.23-5.1 15.16 15.16 0 0 0-.472-2.551 3.68 3.68 0 0 0-.607-1.264c-.139-.172-.29-.333-.452-.482l-.44-.448c-2.356-2.385-4.465-5.002-6.294-7.812a18.1 18.1 0 0 1-2.126-4.491c-.081-.4-.212-.8-.254-1.2a6.47 6.47 0 0 1-.058-1.219l.042-.611c.018-.2.079-.4.116-.6.078-.404.192-.799.342-1.182.609-1.548 1.502-2.969 2.634-4.188 1.109-1.249 2.358-2.367 3.721-3.333a.2.2 0 0 0 .08-.211v-.02a2.33 2.33 0 0 1 .391-1.6 6.44 6.44 0 0 1 1.153-1.376 11.9 11.9 0 0 1 3.027-2.015c2.282-.901 4.748-1.234 7.187-.969 1.221.094 2.43.301 3.612.619a9.1 9.1 0 0 1 3.27 1.5 21.11 21.11 0 0 1 2.577 2.61c.425.484.911.911 1.447 1.269a3.26 3.26 0 0 0 1.937.513l-.3-.191c.14.445.11.926-.086 1.35a2.08 2.08 0 0 1-1.05.92c-.473.201-.972.334-1.483.394a13.05 13.05 0 0 1-1.584.1c-.2.005-.358.171-.354.371.002.052.014.104.037.151.627 1.275 1.162 2.593 1.6 3.944.45 1.341.739 2.73.861 4.139.291 2.943 1.514 5.671 1.479 8.426.033.744.114 1.485.243 2.218.107.71.2 1.41.258 2.108a8.35 8.35 0 0 1-.476 3.989 4.82 4.82 0 0 1-2.832 2.527c-1.305.444-2.676.665-4.055.655a.55.55 0 0 0-.531.455c-.134.792-.233 1.574-.31 2.372a12.11 12.11 0 0 0-.036 2.471 1.88 1.88 0 0 0 .25.779 1.38 1.38 0 0 0 .093.124 1.27 1.27 0 0 0 .152.131c.102.062.214.108.331.134l.284.067 1.137.267 2.275.534-.394-.5a6.69 6.69 0 0 0 .223 1.545 4.03 4.03 0 0 0 .7 1.472 2.39 2.39 0 0 0 .675.589 3.84 3.84 0 0 0 .745.32l1.374.45c1.816.578 3.615 1.175 5.362 1.891 1.745.676 3.405 1.556 4.944 2.621.735.519 1.373 1.162 1.886 1.9.235.378.421.785.552 1.21.167.436.308.891.459 1.339 1.156 3.62 2.231 7.311 3.682 10.867a38.22 38.22 0 0 0 2.553 5.174c.967 1.691 2.262 3.173 3.809 4.357l-.054-.286c-.967 1.604-1.832 3.268-2.589 4.982a25.14 25.14 0 0 0-.979 2.633 9.44 9.44 0 0 0-.467 2.77c0 .034.027.061.061.061s.06-.028.061-.061z"/><path d="M161.758 17.663a4.7 4.7 0 0 0-1.657-.677 5.99 5.99 0 0 0-1.808-.108 5.08 5.08 0 0 0-1.757.488c-.55.257-1.035.635-1.419 1.105a15.28 15.28 0 0 1 1.625-.559c.532-.145 1.075-.242 1.624-.29a18.51 18.51 0 0 1 3.393.041zm7.718.808a3.02 3.02 0 0 0-.99-.474c-.348-.101-.706-.16-1.068-.174a3.89 3.89 0 0 0-1.089.121 2.23 2.23 0 0 0-.982.526l1.049.053 1 .046a10.25 10.25 0 0 0 2.076-.098zm-11.304 3.814a1.12 1.12 0 0 1-.845-1.901 1.12 1.12 0 0 1 1.929.779 1.12 1.12 0 0 1-1.084 1.122zm-12.385 6.013a1.12 1.12 0 0 1-.844-1.901 1.12 1.12 0 0 1 1.929.779 1.12 1.12 0 0 1-1.084 1.122zm21.179-5.385a1.12 1.12 0 0 1-.845-1.901 1.12 1.12 0 0 1 1.929.779 1.12 1.12 0 0 1-1.084 1.122zm0 7.942c-.235.235-.483.457-.741.666-.234.188-.482.358-.743.507s-.535.284-.815.4l-.933.4a2.41 2.41 0 0 0 2.928-.927c.21-.308.316-.675.3-1.047zm-20.121 2.263c.848.643 1.714 1.216 2.608 1.765s1.807 1.053 2.75 1.5c1.86.955 3.886 1.544 5.968 1.737a16.2 16.2 0 0 1-5.8-2.069c-.9-.5-1.769-1.056-2.615-1.642l-2.438-1.872-.007-.006c-.157-.134-.393-.116-.528.04s-.116.393.041.528zm17.338-11.955a3.66 3.66 0 0 0 .076 2.263 4.15 4.15 0 0 0 .543 1.048c.231.265.447.544.644.836.333.539.411 1.161-.076 1.493-.271.181-.583.29-.908.318a7.15 7.15 0 0 1-1.086.056 3.56 3.56 0 0 0 1.091.311c.41.06.828-.005 1.2-.185a1.36 1.36 0 0 0 .75-1.127c.016-.442-.101-.878-.336-1.253a7.2 7.2 0 0 0-.725-.881 4.92 4.92 0 0 1-.566-.843 5.87 5.87 0 0 1-.609-2.036z"/><path d="M143.257 28.533c-1.09-2.053-.615-2.793.551-5.036s6.013 2.423 6.013 2.423v-8.082c-2.244-1.348-2.423-6.19 0-8.793s14.718.9 14.718.9h0c5.739 0 4.483-3.226 4.483-3.226-2.69.177-3.769-3.232-6.642-4.848s-10.228-2.69-14.533 0-3.592 4.666-3.592 4.666-7 4.672-7 10.411c0 3.515 3.024 7.969 5.7 11.227m21.79 16.487c-.657 1.491-1.262 3-1.837 4.517l-1.667 4.572.954-.159q-.981-1.393-2-2.758-1-1.377-2.043-2.725l-2.087-2.692-2.136-2.655-.021-.026a.36.36 0 0 0-.184-.122c-2.2-.623-4.408-1.233-6.644-1.753 2.105.915 4.24 1.74 6.379 2.552l-.2-.147 1.947 2.8 2 2.76 2.04 2.727 2.084 2.694.017.021a.54.54 0 0 0 .937-.18 156.25 156.25 0 0 0 1.319-4.685c.419-1.569.802-3.147 1.142-4.741zm1 3.655l3.1 4.66-2.022-5.221c-.132-.301-.478-.444-.784-.326s-.465.457-.36.769a.64.64 0 0 0 .066.118z"/><path d="M153.592 43.015l-.7 2.989-.57 3.006-.906 6.042 1.012-.367-2.1-1.89-2.145-1.843-4.466-3.495 3.835 4.178 2.006 1.994 2.049 1.946a.6.6 0 0 0 1.011-.357v-.01l.666-6.073.216-3.052.092-3.068zm33.907 46.158c-.052-3.017-.317-6.026-.793-9.006-.428-3.016-1.188-5.976-2.265-8.825l-3.936-8.123-3.985-8.088 3.114 8.473 1.775 4.155 1.906 4.05c1.05 2.773 1.873 5.627 2.459 8.534l1.725 8.83zm-46.833-23.368l3.347 4.937 3.261 4.957 1.612 2.486 1.5 2.554a17.53 17.53 0 0 1 2.026 5.526.21.21 0 0 0 .216.175h.012a9.56 9.56 0 0 1 3.8.693c.577.246 1.119.57 1.61.961.474.385.879.847 1.2 1.367l-.08-.343a17.59 17.59 0 0 1-1.778 5.013 22.59 22.59 0 0 1-1.375 2.3l-.781 1.091-.867 1.025a13.44 13.44 0 0 1-.925.976 10 10 0 0 1-.982.923l-1.03.878-1.1.789a22.29 22.29 0 0 1-2.322 1.439c-.8.456-1.648.8-2.47 1.237h-.006c-.026.015-.037.047-.026.075s.041.044.071.037q.668-.192 1.335-.4c.45-.127.894-.276 1.329-.448a23.01 23.01 0 0 0 2.538-1.22c1.664-.917 3.18-2.081 4.494-3.454a18.48 18.48 0 0 0 4.955-10.145v-.022c.015-.114-.015-.229-.083-.321-.419-.597-.937-1.119-1.531-1.543-.589-.399-1.234-.709-1.914-.918-1.326-.391-2.714-.531-4.091-.411l.228.174a33.2 33.2 0 0 0-1.928-5.7c-.762-1.858-1.669-3.653-2.713-5.369-1.059-1.7-2.213-3.338-3.456-4.908-1.231-1.577-2.559-3.075-3.977-4.487-.011-.012-.027-.018-.043-.018s-.032.007-.043.018c-.02.021-.023.054-.007.078z"/><path d="M142.888 98.604a22.86 22.86 0 0 0 3.4-2.256c1.078-.843 2.081-1.777 3-2.791.466-.5.881-1.052 1.3-1.6.399-.563.757-1.154 1.073-1.768.669-1.213 1.003-2.582.969-3.967-.248 1.312-.75 2.563-1.478 3.682-.705 1.125-1.516 2.179-2.422 3.149-.884 1-1.838 1.934-2.819 2.85l-3.023 2.701zm10.7 8.489a47.45 47.45 0 0 0 2.525-4.1c.784-1.408 1.49-2.857 2.116-4.342 1.369-2.991 2.074-6.243 2.068-9.533a.61.61 0 0 0-.934-.495.61.61 0 0 0-.286.539v.039.022c.137 1.546.067 3.103-.206 4.63-.286 1.556-.692 3.088-1.216 4.581a43.86 43.86 0 0 1-1.818 4.421c-.679 1.449-1.432 2.862-2.254 4.235zm38.05-28.583c-.497-.164-1.017-.246-1.54-.242-.526-.005-1.051.062-1.559.2-.527.133-1.02.378-1.444.718a2.08 2.08 0 0 0-.8 1.377c.31-.372.693-.676 1.127-.892a6.35 6.35 0 0 1 1.319-.483c.922-.268 1.889-.415 2.901-.679z"/><path d="M159.738 90.326l9.108.925 4.559.324.57.038a5.94 5.94 0 0 0 .624.018 11.36 11.36 0 0 0 1.2-.1c.78-.1 1.536-.26 2.288-.423l4.445-1.139c1.461-.412 2.946-.729 4.448-.949.371-.044.744-.065 1.118-.065a2.26 2.26 0 0 1 1.023.189.58.58 0 0 1 .166.131c.05.066.1.15.15.223.106.147.18.321.272.48a8.42 8.42 0 0 1 .827 3.218c.06.709-.076 1.421-.391 2.059a2.05 2.05 0 0 1-1.591 1c-.334.063-.675.075-1.012.035a4.44 4.44 0 0 1-1.009-.27 3.91 3.91 0 0 0-1.27-.238c-.43.001-.858.061-1.272.178a12.58 12.58 0 0 0-2.216.913 44.09 44.09 0 0 1-4.138 1.794l-4.265 1.548c-2.858.993-5.77 1.825-8.721 2.494-2.936.743-5.972 1.017-8.994.812h0c-.032-.003-.06.019-.066.051s.015.062.046.069a24.15 24.15 0 0 0 9.193.005 61.51 61.51 0 0 0 8.957-2.2c2.936-.951 5.789-2.142 8.53-3.562.634-.353 1.296-.652 1.98-.894.627-.234 1.315-.252 1.953-.049.393.133.799.218 1.212.256a4.17 4.17 0 0 0 1.26-.129 3 3 0 0 0 .6-.192c.21-.072.407-.178.582-.315l.266-.2.22-.251a2.39 2.39 0 0 0 .35-.55 4.48 4.48 0 0 0 .321-2.4 9.95 9.95 0 0 0-.541-2.281c-.136-.366-.292-.724-.466-1.073-.1-.17-.179-.349-.3-.511l-.172-.249c-.077-.091-.171-.167-.277-.223a2.79 2.79 0 0 0-1.2-.244 9.75 9.75 0 0 0-1.166.049c-3.065.326-6.061.989-9.051 1.485l-2.223.341a10.37 10.37 0 0 1-1.082.08c-.184.007-.33-.006-.519-.011l-.572-.027-4.579-.19-9.167-.1c-.034-.002-.062.024-.064.058s.024.062.058.064zm6.148-30.035a1.12 1.12 0 0 1-.845-1.901 1.12 1.12 0 0 1 1.929.779 1.12 1.12 0 0 1-1.084 1.122zm5.788 11.308a1.12 1.12 0 0 1-.845-1.901 1.12 1.12 0 0 1 1.929.779 1.12 1.12 0 0 1-1.084 1.122zm3.5 10.1a1.12 1.12 0 0 1-.845-1.901 1.12 1.12 0 0 1 1.929.779 1.12 1.12 0 0 1-1.084 1.122z"/><path d="M177.99 90.609c-.057-.541-.523-.946-1.067-.927-.326-.004-.636.139-.843.391s-.29.583-.224.902zm.819 15.316a1.12 1.12 0 1 1 1.084-1.122 1.12 1.12 0 0 1-1.081 1.122zm9.466 7.19l.371-.106zm-.6.173l.6-.173zm-9.546 27.239l-.1.49a4.96 4.96 0 0 0 1.9-1.684 9.54 9.54 0 0 0 1.22-2.745 21.83 21.83 0 0 0 .577-3 31.98 31.98 0 0 0 .259-3.083l.08-3.116-.04-3.135-.206-5.933-2.9.656.656 6.344a49.23 49.23 0 0 1-.332 10.215l-.219 1.273-.292 1.253zm-7.952 96.322a331.54 331.54 0 0 1-7.789 39.994c7 0 16.421-10.229 16.421-10.229l-5.582-15.618s13.391-47.385 15.744-72.152-1.611-65.47-1.611-65.47c-2.995.775-6.029 1.39-9.089 1.843.186.922.351 1.856.5 2.784 2.97-.411 5.927-.9 8.863-1.584a40.26 40.26 0 0 1-5.734 1.883 37.61 37.61 0 0 1 1.147 5.88 38.66 38.66 0 0 1 .259 6.384 21.02 21.02 0 0 1-1.18 6.358c-.384 1.04-.96 1.998-1.7 2.824a4.7 4.7 0 0 1-2.433 1.425c-.3 1.439-.57 2.884-.776 4.336-.5 3.348-.829 6.716-1.067 10.09s-.378 6.755-.464 10.149l-.3 10.189-1.041 20.358c-.973 13.556-2.266 27.099-4.168 40.556z"/><path d="M178.656 118.021l-.385-2.8a108.38 108.38 0 0 1-28.81.444q-.378 1.72-.709 3.447l4.906.126 2.446.04a60.24 60.24 0 0 0 2.44.02l2.446-.006 2.439-.066 4.866-.192q4.873-.3 9.705-.915l.656-.098z"/><path d="M141.387 281.688c7.537 4.037 21-4.846 21-4.846 1.545-6.616 2.784-13.291 3.871-19.987q1.671-10.033 2.917-20.139 2.516-20.2 3.845-40.518c.5-6.762.829-13.537 1.153-20.318l.365-10.169c.093-3.394.278-6.808.59-10.2s.7-6.775 1.26-10.143c.272-1.677.616-3.354 1.008-5.018l.656-2.473.3-1.213c.093-.411.159-.829.239-1.239.556-3.333.765-6.714.623-10.09a83.7 83.7 0 0 0-.458-6.331l-.6.119c-3.235.612-6.505 1.02-9.791 1.22a85.82 85.82 0 0 1-9.858-.02c-1.644-.06-3.275-.285-4.906-.444-1.631-.206-3.248-.477-4.859-.776h-.007c-6.908 35.453-.093 72.656-.093 72.656-5.373 26.124-7.255 89.929-7.255 89.929z"/><path d="M161.49 277.379a16.4 16.4 0 0 0 3.029 6.8 12.84 12.84 0 0 0 2.74 2.653 10.77 10.77 0 0 0 3.487 1.614 21.94 21.94 0 0 1 3.444 1.066 6.48 6.48 0 0 1 1.52.88c.42.361.806.873.629 1.36a1.1 1.1 0 0 1-.495.591 2.08 2.08 0 0 1-.788.3l-1.814.318c-1.206.19-2.422.315-3.642.375a24.74 24.74 0 0 1-3.612-.093 9.08 9.08 0 0 1-3.309-.919c-2.109-1.295-4.288-2.473-6.527-3.529a16.29 16.29 0 0 0-3.642-1.15 6.84 6.84 0 0 0-2-.041 8.85 8.85 0 0 0-.944.188l-.454.1c-.123.029-.249.049-.375.058-1.088.072-2.09-.591-2.45-1.62a2.84 2.84 0 0 1-.154-.823l-.062-.921-.136-1.842c0-.034-.027-.061-.061-.061s-.061.027-.061.061l-.136 1.842-.062.921a3.02 3.02 0 0 0 .079 1 3.16 3.16 0 0 0 3.08 2.4 3.34 3.34 0 0 0 .538-.05l.451-.072c.288-.056.579-.096.871-.12.558-.034 1.118.012 1.662.139a17.47 17.47 0 0 1 3.331 1.184c2.191.99 4.316 2.19 6.5 3.346a9.26 9.26 0 0 0 3.783.877c1.253.045 2.507-.024 3.747-.207l3.655-.632 1.808-.36c.329-.062.643-.182.929-.356a1.48 1.48 0 0 0 .667-.782c.061-.173.086-.356.075-.539a1.81 1.81 0 0 0-.143-.509c-.15-.301-.351-.574-.594-.807-.466-.443-.99-.82-1.559-1.12a20.89 20.89 0 0 0-3.475-1.436c-1.112-.364-2.169-.876-3.143-1.523a13.92 13.92 0 0 1-2.622-2.362c-1.554-1.859-2.786-3.965-3.643-6.231h0c-.011-.031-.043-.048-.075-.039s-.05.041-.042.073z"/><path d="M176.85 268.649a16.4 16.4 0 0 0 3.029 6.8 12.83 12.83 0 0 0 2.741 2.653 10.76 10.76 0 0 0 3.487 1.614c1.175.26 2.327.617 3.444 1.066.544.223 1.056.519 1.52.88.42.361.806.873.629 1.36a1.1 1.1 0 0 1-.495.591 2.08 2.08 0 0 1-.788.3l-1.814.318c-1.206.19-2.422.315-3.642.375a24.69 24.69 0 0 1-3.612-.093c-1.151-.093-2.274-.405-3.309-.919-2.109-1.295-4.288-2.473-6.527-3.529a16.27 16.27 0 0 0-3.642-1.15 6.84 6.84 0 0 0-2-.041 9.03 9.03 0 0 0-.944.188l-.454.1a2.4 2.4 0 0 1-2.824-1.563 2.84 2.84 0 0 1-.154-.823l-.062-.921-.136-1.842c0-.034-.027-.061-.061-.061s-.061.027-.061.061l-.136 1.842-.062.921a3.02 3.02 0 0 0 .079 1 3.16 3.16 0 0 0 3.08 2.4 3.34 3.34 0 0 0 .539-.05l.451-.072a8.06 8.06 0 0 1 .871-.12 5.76 5.76 0 0 1 1.662.14 17.47 17.47 0 0 1 3.331 1.184c2.192.99 4.317 2.19 6.5 3.346 1.185.557 2.474.856 3.783.877a20.58 20.58 0 0 0 3.747-.207l3.655-.632 1.808-.36c.326-.059.639-.176.924-.346a1.48 1.48 0 0 0 .667-.782c.061-.173.086-.356.074-.539a1.8 1.8 0 0 0-.143-.509c-.15-.301-.351-.575-.594-.808a7.03 7.03 0 0 0-1.559-1.12c-1.113-.582-2.277-1.063-3.476-1.436a12.95 12.95 0 0 1-3.143-1.523 13.93 13.93 0 0 1-2.622-2.362 21.66 21.66 0 0 1-3.643-6.231h0c-.011-.03-.043-.046-.074-.037s-.049.039-.043.07zm13.97-172.285c1.85-.39 3.597-1.164 5.129-2.273a24.86 24.86 0 0 0 4.219-3.731 42.8 42.8 0 0 0 3.793-4.177c1.127-1.573 1.881-3.381 2.206-5.288a33.62 33.62 0 0 0 .5-5.646l.1-5.589.433-11.161.075-1.394.036-.7a2.4 2.4 0 0 1 .093-.56 1.98 1.98 0 0 1 2.78-1.138l1.262.615 2.549 1.18c1.709.786 3.469 1.454 5.269 2a11.1 11.1 0 0 0 1.4.305c.505.103 1.028.073 1.517-.088.136-.065.257-.156.356-.269a2.97 2.97 0 0 1 .228-.229 7.36 7.36 0 0 1 .522-.437 26.57 26.57 0 0 1 1.118-.821l4.661-3.078s3.158-1.985 4.7-3.06l1.13-.857c.208-.161.386-.358.526-.581.024-.048.04-.098.048-.151.009-.089-.018-.177-.075-.246-.079-.081-.187-.129-.3-.134a2.1 2.1 0 0 0-.389.012c-.943.074-1.868.221-2.793.363l-5.512 1.043.25.549a23.43 23.43 0 0 0 3.6-3.1 3.7 3.7 0 0 0 .708-1.1c.125-.304.088-.651-.1-.921-.193-.22-.459-.365-.749-.407-.428-.07-.866-.07-1.294 0-.413.051-.822.139-1.219.264a14.09 14.09 0 0 0-4.173 2.4c-1.247.99-2.406 2.086-3.464 3.276l.806-.01c-1.026-1.159-2.145-2.231-3.347-3.207-.614-.499-1.267-.946-1.955-1.336-.74-.461-1.593-.71-2.465-.718l.585.808a1.66 1.66 0 0 1 .191-.278 2.32 2.32 0 0 1 .29-.291c.222-.184.467-.337.73-.455a4.98 4.98 0 0 1 1.782-.4c.657-.048 1.2.063 2.064.036a3.66 3.66 0 0 0 2.243-.93 5.07 5.07 0 0 0 1.284-1.953l.1-.265.047-.141.05-.208c.049-.294.011-.595-.109-.868a1.61 1.61 0 0 0-1.34-.951 1.67 1.67 0 0 0-.819.147l-.446.19q-.453.179-.924.325c-.631.195-1.274.35-1.925.466a30.66 30.66 0 0 1-4.026.291 9.34 9.34 0 0 0-4.231 1.051c-.646.36-1.242.805-1.771 1.322l-.392.382-.35.353c-.23.241-.474.454-.717.671s-.5.4-.78.622c-.325.233-.611.516-.847.84a9.79 9.79 0 0 0-.975 1.973l-2.77 7.785-2.826 7.726-6.134 15.288c-.014.031-.001.067.03.081s.067.001.081-.03c2.379-4.955 4.64-9.969 6.744-15.051 1.06-2.538 2.079-5.094 3.035-7.677l2.9-7.687c.228-.596.519-1.166.868-1.7a2.54 2.54 0 0 1 .626-.587 14.19 14.19 0 0 0 .838-.652c.273-.233.544-.477.789-.732l.376-.377.348-.335c.455-.443.967-.823 1.522-1.13a8.1 8.1 0 0 1 3.7-.882 31.32 31.32 0 0 0 4.186-.292c.703-.122 1.397-.287 2.079-.494q.514-.156 1.02-.354a11 11 0 0 0 .5-.211c.057-.028.12-.04.183-.036.113.011.212.08.26.183.018.044.025.092.018.139-.005.014-.009.028-.01.042l-.034.1c-.025.073-.048.148-.077.219a3.81 3.81 0 0 1-.931 1.476 2.39 2.39 0 0 1-1.483.628c-.512.034-1.337-.075-2.052-.014a6.18 6.18 0 0 0-2.206.534 4.34 4.34 0 0 0-1 .644c-.156.135-.3.283-.43.443a2.49 2.49 0 0 0-.366.585.57.57 0 0 0 .55.81h.035a3.7 3.7 0 0 1 1.839.556 13.21 13.21 0 0 1 1.8 1.207 29.32 29.32 0 0 1 3.25 3.028l.006.006c.097.104.231.166.373.171s.281-.047.385-.144l.042-.044c.994-1.158 2.085-2.229 3.262-3.2a13.7 13.7 0 0 1 3.839-2.33 6.06 6.06 0 0 1 1.054-.26 3.3 3.3 0 0 1 1.031-.041c.098.011.192.045.274.1.008 0 .036.05-.01.193-.131.316-.313.607-.539.863a22.23 22.23 0 0 1-3.4 3.077l-.009.007c-.115.088-.153.245-.09.376s.208.2.349.166c1.807-.432 3.628-.834 5.454-1.173.912-.17 1.832-.312 2.747-.4.102-.014.205-.019.308-.016.045 0 .056.025.019-.015a.1.1 0 0 1-.026-.083 2.07 2.07 0 0 1-.422.457c-.342.3-.715.572-1.091.843-3.031 2.151-6.266 4.02-9.369 6.11a27.05 27.05 0 0 0-1.147.821c-.188.144-.374.292-.556.454a3.4 3.4 0 0 0-.268.263c-.056.063-.124.113-.2.148-.405.115-.834.123-1.243.024-.447-.082-.889-.193-1.322-.332a40.72 40.72 0 0 1-5.12-2.129q-1.254-.6-2.491-1.247l-1.234-.648a2.84 2.84 0 0 0-1.585-.337 2.91 2.91 0 0 0-2.5 1.916 3.4 3.4 0 0 0-.163.81l-.05.7-.089 1.4c-.219 3.728-.435 7.458-.476 11.2-.116 3.739.179 7.491-.452 11.089a12.46 12.46 0 0 1-1.941 5 42.39 42.39 0 0 1-3.605 4.2c-1.198 1.411-2.538 2.695-4 3.831a16.36 16.36 0 0 1-2.334 1.484c-.812.442-1.677.778-2.574 1h-.007c-.03.009-.048.04-.042.07s.035.052.066.049z"/><path d="M226.264 50.259l-4.289 3.122 4.685-2.487c.122-.061.201-.183.207-.319s-.062-.265-.179-.336-.262-.074-.38-.007a.43.43 0 0 0-.044.027zm77.717 31.003l.232-6.119.133-6.006-.013-5.31 5.747-.093 6.079-.2.139 5.734-.086 6.105-.252 6.105-.033 5.542-5.681.172-3.222.166-3.321.179zm-32.543-27.9l.186-4.263 1.266-.033 1.969-.06 3.6-.212.126 2.194-.027 2.592-.331 4.594-3.182.133-4.077.4.471-5.343zm0 0l.186-4.263 1.266-.033 1.969-.06 3.6-.212.126 2.194-.027 2.592-.331 4.594-3.182.133-4.077.4.471-5.343zm32.543 27.9l.232-6.119.133-6.006-.013-5.31 5.747-.093 6.079-.2.139 5.734-.086 6.105-.252 6.105-.033 5.542-5.681.172-3.222.166-3.321.179zm0 0l.232-6.119.133-6.006-.013-5.31 5.747-.093 6.079-.2.139 5.734-.086 6.105-.252 6.105-.033 5.542-5.681.172-3.222.166-3.321.179zm-32.543-27.9l.186-4.263 1.266-.033 1.969-.06 3.6-.212.126 2.194-.027 2.592-.331 4.594-3.182.133-4.077.4.471-5.343zm0 0l.186-4.263 1.266-.033 1.969-.06 3.6-.212.126 2.194-.027 2.592-.331 4.594-3.182.133-4.077.4.471-5.343zm32.543 27.9l.232-6.119.133-6.006-.013-5.31 5.747-.093 6.079-.2.139 5.734-.086 6.105-.252 6.105-.033 5.542-5.681.172-3.222.166-3.321.179zm0 0l.232-6.119.133-6.006-.013-5.31 5.747-.093 6.079-.2.139 5.734-.086 6.105-.252 6.105-.033 5.542-5.681.172-3.222.166-3.321.179zm-32.543-27.9l.186-4.263 1.266-.033 1.969-.06 3.6-.212.126 2.194-.027 2.592-.331 4.594-3.182.133-4.077.4.471-5.343zm0 0l.186-4.263 1.266-.033 1.969-.06 3.6-.212.126 2.194-.027 2.592-.331 4.594-3.182.133-4.077.4.471-5.343zm32.543 27.9l.232-6.119.133-6.006-.013-5.31 5.747-.093 6.079-.2.139 5.734-.086 6.105-.252 6.105-.033 5.542-5.681.172-3.222.166-3.321.179zm-34.843-43.773h50.289a6.62 6.62 0 0 1 6.616 6.614v44.775a6.62 6.62 0 0 1-6.615 6.616h-40.635v-9.731c1.611.258 3.222.4 4.833.5l4.972.146 4.972-.146a48.34 48.34 0 0 0 4.965-.517 46.52 46.52 0 0 0-4.965-.517l-4.972-.146-4.972.146a45.8 45.8 0 0 0-4.833.5v-4.813a44.45 44.45 0 0 0 4.939.517l4.932.146 4.939-.146a46.11 46.11 0 0 0 4.932-.517 46.14 46.14 0 0 0-4.932-.51l-4.939-.152-4.932.146a48.03 48.03 0 0 0-4.939.517v-4.521a47.76 47.76 0 0 0 4.833.5l4.972.146 4.972-.146a48.25 48.25 0 0 0 4.965-.517 48.34 48.34 0 0 0-4.965-.517l-4.972-.146-4.972.146-4.833.5v-.663a6.62 6.62 0 0 0-6.616-6.622h-9.659V44.105a6.61 6.61 0 0 1 6.616-6.616zm38.953 10.4l-8.412-.146-8.413.146-8.419.517 8.419.517 8.413.146 8.412-.146 8.412-.517-8.41-.516zm0 5.244l-8.412-.152-8.413.146-8.419.517 8.419.517 8.413.146 8.412-.146 8.412-.517-8.412-.51zm-5.131 16.268l.139 6.2.225 6.1.285 5.926 3.1.185 3.2.166 6.589.179.57.007.007-.583-.033-6.106-.245-6.105-.086-6.105.152-6.105.013-.351-.378-.013-6.424-.206-6.424-.106-.663-.013-.013.689-.014 6.242zm-3.281-9.984l8.412-.146 8.412-.51-8.412-.517-8.412-.146-8.413.146-8.419.517 8.419.517 8.413.139zm-15.943 12.642l4.932.146 4.939-.152a46.06 46.06 0 0 0 4.932-.51 46.08 46.08 0 0 0-4.932-.517l-4.939-.146-4.932.146a44.51 44.51 0 0 0-4.939.517 47.84 47.84 0 0 0 4.939.517zm0-5.051l4.932.146 4.939-.146c1.652-.087 3.298-.259 4.932-.517a47.9 47.9 0 0 0-4.932-.517l-4.939-.146-4.932.146a46.2 46.2 0 0 0-4.939.517 44.59 44.59 0 0 0 4.938.518zm-13.331-13.212l.471 5.012 3.8.4 4.123.146.6-.006-.007-.583c0-1.73-.252-3.454-.345-5.177l-.033-2.592.152-2.585.02-.331-.384-.033-3.938-.239-1.969-.06-1.969-.047-.7.007-.007.7.185 5.389zm1.22-4.694l1.266-.033 1.969-.06 3.6-.212.126 2.194-.027 2.592-.331 4.594-3.182.133-4.077.4.471-5.343.186-4.263zm32.589 26.04l.133-6.006-.013-5.31 5.747-.093 6.079-.2.139 5.734-.086 6.105-.252 6.105-.033 5.542-5.681.172-3.222.166-3.321.179.278-6.278.232-6.119zm-.232 6.119l.232-6.119.133-6.006-.013-5.31 5.747-.093 6.079-.2.139 5.734-.086 6.105-.252 6.105-.033 5.542-5.681.172-3.222.166-3.321.179zm-32.543-27.9l.186-4.263 1.266-.033 1.969-.06 3.6-.212.126 2.194-.027 2.592-.331 4.594-3.182.133-4.077.4.471-5.343zm0 0l.186-4.263 1.266-.033 1.969-.06 3.6-.212.126 2.194-.027 2.592-.331 4.594-3.182.133-4.077.4.471-5.343zm32.543 27.9l.232-6.119.133-6.006-.013-5.31 5.747-.093 6.079-.2.139 5.734-.086 6.105-.252 6.105-.033 5.542-5.681.172-3.222.166-3.321.179zm0 0l.232-6.119.133-6.006-.013-5.31 5.747-.093 6.079-.2.139 5.734-.086 6.105-.252 6.105-.033 5.542-5.681.172-3.222.166-3.321.179zm-32.543-27.9l.186-4.263 1.266-.033 1.969-.06 3.6-.212.126 2.194-.027 2.592-.331 4.594-3.182.133-4.077.4.471-5.343zm0 0l.186-4.263 1.266-.033 1.969-.06 3.6-.212.126 2.194-.027 2.592-.331 4.594-3.182.133-4.077.4.471-5.343zm32.543 27.9l.232-6.119.133-6.006-.013-5.31 5.747-.093 6.079-.2.139 5.734-.086 6.105-.252 6.105-.033 5.542-5.681.172-3.222.166-3.321.179zm-32.543-27.9l.186-4.263 1.266-.033 1.969-.06 3.6-.212.126 2.194-.027 2.592-.331 4.594-3.182.133-4.077.4.471-5.343zm0 0l.186-4.263 1.266-.033 1.969-.06 3.6-.212.126 2.194-.027 2.592-.331 4.594-3.182.133-4.077.4.471-5.343zM50.793 64.901l15.624.1 15.624.223 15.624.146 7.843-.018a7.65 7.65 0 0 0 6.533-4.554c.283-.638.471-1.314.558-2.006a8.11 8.11 0 0 0 .073-1.039l-.008-.98-.043-3.906-.087-7.812-.089-7.812-.039-7.812V13.807l.013-3.906a10.04 10.04 0 0 0-.133-1.993 7.8 7.8 0 0 0-.66-1.905 7.4 7.4 0 0 0-2.708-2.953 7.49 7.49 0 0 0-3.861-1.126l-31.247-.24-15.624-.062c-2.62-.006-5.171-.032-7.849.017a7.77 7.77 0 0 0-6.64 4.612 7.6 7.6 0 0 0-.579 2.037c-.05.35-.078.703-.083 1.057v.98l.006 3.906.036 7.812.179 15.624.232 15.624.041 3.906a9.83 9.83 0 0 0 .159 1.967 7.65 7.65 0 0 0 .674 1.859c1.256 2.39 3.735 3.885 6.435 3.88zm0-.122a7.1 7.1 0 0 1-3.667-1.059 7.03 7.03 0 0 1-2.58-2.8c-.288-.573-.501-1.181-.633-1.809a9.58 9.58 0 0 1-.131-1.92l.041-3.906.232-15.624.179-15.624.036-7.812.006-3.906v-.972a7 7 0 0 1 .074-.888 6.33 6.33 0 0 1 .489-1.7 6.5 6.5 0 0 1 5.565-3.843c.285-.02.608-.022.939-.019h.976 1.953l3.906-.011 15.624-.062 31.247-.24a6.87 6.87 0 0 1 6.108 3.654 7.29 7.29 0 0 1 .647 1.763 9.34 9.34 0 0 1 .157 1.895l.013 3.906v15.624l-.04 7.812-.089 7.812-.087 7.812-.043 3.906-.013.973a7.14 7.14 0 0 1-.084.906 6.79 6.79 0 0 1-.51 1.736c-1.012 2.259-3.2 3.764-5.672 3.9l-7.78.025-15.624.146-15.624.223-15.615.101z"/><path d="M23.763 113.402l15.624.1 15.624.223 15.624.146 7.843-.018a7.65 7.65 0 0 0 6.533-4.554 7.18 7.18 0 0 0 .558-2.006c.047-.344.071-.691.073-1.039l-.008-.98-.043-3.906-.087-7.812-.089-7.812-.04-7.812V62.308l.013-3.906a10.04 10.04 0 0 0-.133-1.993 7.8 7.8 0 0 0-.66-1.906 7.4 7.4 0 0 0-2.708-2.953c-1.162-.722-2.499-1.112-3.866-1.128l-31.248-.24-15.624-.062c-2.62-.006-5.171-.033-7.849.017a7.77 7.77 0 0 0-6.64 4.612 7.6 7.6 0 0 0-.579 2.037c-.051.35-.079.703-.084 1.057v.98l.006 3.906.036 7.812.18 15.624.232 15.624.041 3.906c-.013.659.04 1.318.158 1.967.143.646.37 1.271.674 1.859a7.25 7.25 0 0 0 6.435 3.88zm0-.122a7.1 7.1 0 0 1-3.668-1.059 7.03 7.03 0 0 1-2.58-2.8c-.288-.573-.501-1.181-.633-1.809-.108-.634-.152-1.277-.131-1.92l.041-3.906.232-15.624.179-15.624.036-7.812.006-3.906v-.972c.006-.297.031-.594.074-.888a6.34 6.34 0 0 1 .489-1.7 6.5 6.5 0 0 1 5.565-3.843c.285-.02.608-.022.938-.019h.977 1.953l3.906-.011 15.629-.06 31.248-.24a6.87 6.87 0 0 1 6.108 3.654 7.3 7.3 0 0 1 .647 1.762 9.34 9.34 0 0 1 .157 1.895l.013 3.906v15.624l-.04 7.812-.089 7.812-.087 7.812-.043 3.906-.013.973a7.11 7.11 0 0 1-.084.906c-.092.599-.263 1.183-.51 1.736a6.61 6.61 0 0 1-5.672 3.9l-7.78.025-15.624.146-15.624.223-15.624.1z"/><path d="M78.023 50.755a7.14 7.14 0 0 1 7.139 7.14v6.943H50.797a7.14 7.14 0 0 1-7.14-7.139v-6.945zm219.55 110.858l28.96.322 14.48.146 7.271-.017a7.13 7.13 0 0 0 6.086-4.245 6.67 6.67 0 0 0 .519-1.869 7.56 7.56 0 0 0 .067-.968l-.008-.908-.043-3.62-.087-7.24-.089-7.24-.039-7.24v-14.48l.013-3.62c.021-.62-.02-1.24-.122-1.851a7.26 7.26 0 0 0-.612-1.771 6.88 6.88 0 0 0-2.515-2.747 6.97 6.97 0 0 0-3.595-1.051q-14.48-.176-28.96-.24l-14.48-.062c-2.43-.007-4.79-.031-7.277.016-2.706.162-5.095 1.821-6.193 4.3a7.07 7.07 0 0 0-.54 1.9 7.7 7.7 0 0 0-.078.986v.909l.006 3.62.036 7.24.179 14.48.232 14.48.041 3.62a9.14 9.14 0 0 0 .148 1.825 7.1 7.1 0 0 0 .626 1.725c1.168 2.217 3.468 3.603 5.974 3.601zm0-.122a6.58 6.58 0 0 1-5.783-3.572 6.89 6.89 0 0 1-.585-1.674 8.86 8.86 0 0 1-.121-1.778l.041-3.62.232-14.48.18-14.48.036-7.24.006-3.62v-.9a6.44 6.44 0 0 1 .068-.816 5.83 5.83 0 0 1 .45-1.568c.91-2.043 2.885-3.406 5.118-3.533.261-.019.561-.02.867-.017h.9 1.81l3.62-.011 14.48-.062q14.48-.053 28.96-.24a6.36 6.36 0 0 1 5.644 3.371c.269.515.471 1.062.6 1.628a8.62 8.62 0 0 1 .146 1.752l.013 3.62v14.48l-.04 7.24-.089 7.24-.087 7.24-.043 3.62-.013.9a6.62 6.62 0 0 1-.079.835 6.28 6.28 0 0 1-.471 1.6 6.09 6.09 0 0 1-5.225 3.591l-7.208.023-14.48.146-28.96.322zm-18.915-85.122l.139.02v-.04zm0 9.374l.139.02v-.04zm-8.828-7.26l-8.414-.474-8.414-.135-8.414.133-8.414.476 8.414.476 8.414.134 8.414-.136 8.414-.474zm0 5.239l-8.414-.474-8.414-.136-8.414.134-8.414.476 8.414.476 8.414.133 8.414-.135 8.414-.479zm0 5.113l-8.414-.474-8.414-.135-8.414.134-8.414.476 8.414.476 8.414.134 8.414-.135 8.414-.481zm-45.629.043l3.813.366 4.108.135h.545v-.54c0-1.725-.232-3.451-.321-5.176l-.027-2.588.138-2.588.019-.307-.353-.027-3.939-.223-1.969-.053-1.969-.039h-.643l-.007.645.174 5.373.431 5.017zm.086-.086l.433-5.33.173-4.978-.65.65 1.969-.039 1.969-.053 3.939-.223-.334-.334.138 2.588-.027 2.588-.321 5.176.544-.544c-1.248-.01-2.486.049-3.77.135l-4.063.355zm32.648 28.915l3.112.169 3.207.15 6.576.167h.523l.007-.533-.029-6.106-.228-6.106q-.109-3.054-.081-6.107l.143-6.106.01-.321-.344-.013-6.426-.191-6.426-.1-.61-.009-.01.63-.015 6.228.131 6.194.46 12.049zm.086-.086l.461-12.379.131-6.019-.015-5.985-.621.621 6.426-.1 6.426-.191-.334-.334.143 6.106-.081 6.107-.228 6.106-.029 6.106.529-.529a190.67 190.67 0 0 0-6.276.167zm-5.156-21.052l-6.859-.474-6.859-.135-6.859.134-6.859.476 6.859.476 6.859.134 6.859-.135 6.86-.481zm0 5.048l-6.859-.474-6.859-.135-6.859.134-6.859.476 6.859.476 6.859.134 6.859-.136 6.86-.481zm0 4.828l-6.894-.474-6.894-.135-6.893.133-6.894.476 6.894.476a203.23 203.23 0 0 0 6.893.134l6.894-.136 6.895-.479zm0 4.544l-6.859-.474-6.859-.136-6.859.134-6.859.476 6.859.476 6.859.134 6.859-.135 6.86-.481zm0 4.828l-6.894-.474a203.24 203.24 0 0 0-6.894-.135l-6.893.134-6.894.476 6.894.476 6.893.134 6.894-.135 6.895-.48z"/><path d="M221.892 127.131l28.96.322 14.48.146 7.271-.017a7.13 7.13 0 0 0 6.086-4.245 6.66 6.66 0 0 0 .519-1.869 7.55 7.55 0 0 0 .067-.968l-.009-.908-.043-3.62-.087-7.24-.089-7.24-.04-7.24v-14.48l.013-3.62c.021-.62-.02-1.24-.122-1.851-.127-.614-.332-1.21-.612-1.771a6.88 6.88 0 0 0-2.515-2.746c-1.08-.672-2.323-1.035-3.595-1.051q-14.48-.176-28.96-.24l-14.48-.062c-2.43-.007-4.79-.031-7.277.016-2.706.162-5.095 1.821-6.193 4.3a7.08 7.08 0 0 0-.539 1.9c-.047.327-.073.656-.078.986v.909l.006 3.62.036 7.24.179 14.48.232 14.48.041 3.62c-.012.612.038 1.223.148 1.825a7.1 7.1 0 0 0 .626 1.725c1.168 2.215 3.467 3.602 5.971 3.6zm0-.122a6.58 6.58 0 0 1-5.783-3.572 6.89 6.89 0 0 1-.585-1.675 8.87 8.87 0 0 1-.121-1.778l.041-3.62.232-14.48.179-14.48.036-7.24.006-3.62v-.9a6.42 6.42 0 0 1 .068-.816 5.83 5.83 0 0 1 .45-1.568c.91-2.043 2.885-3.406 5.118-3.533.261-.019.561-.02.867-.017h.905 1.81l3.62-.011 14.48-.062q14.48-.054 28.96-.24c2.365-.011 4.54 1.291 5.649 3.379a6.74 6.74 0 0 1 .6 1.628c.108.578.157 1.165.146 1.752l.013 3.62v14.48l-.039 7.24-.089 7.24-.087 7.24-.043 3.62-.013.9c-.009.279-.035.558-.079.834-.085.552-.243 1.09-.471 1.6a6.09 6.09 0 0 1-5.225 3.591l-7.208.023-14.48.145-28.957.32zM102.445 43.176c-4.086-.335-8.173-.511-12.259-.63l-12.259-.18-12.259.177c-4.086.128-8.173.3-12.259.633 4.086.338 8.173.514 12.259.633s8.173.163 12.259.177l12.259-.18c4.086-.129 8.172-.299 12.259-.63z"/><path d="M98.391 9.844l-.63 9.548-.18 9.548.178 9.548.633 9.548.633-9.548.178-9.548-.18-9.548-.632-9.548zM85.164 43.405l4.4.219 4.578.112h.353l.006-.363-.193-7.426-.032-3.713.088-3.713.007-.213-.229-.009q-2.238-.092-4.476-.136l-4.475-.065-.419-.006v.429l.007 3.792.09 3.769.295 7.323zm.057-.057l.3-7.533.09-3.657.006-3.634-.423.423 4.475-.065q2.238-.045 4.475-.136l-.222-.222.088 3.713-.032 3.713-.193 7.426.359-.359-4.373.112-4.549.219z"/><path d="M76.23 43.406l4.416.183 4.563.113h.321v-.326l.029-5.526-.147-5.526q-.1-2.763-.08-5.526.02-2.763.094-5.526l.006-.215-.228-.007q-4.475-.139-8.951-.172h-.39v.4l-.032 5.607.075 5.59.139 5.524zm.057-.057l.183-5.641.139-5.527.075-5.462-.032-5.445-.394.394q4.475-.037 8.951-.172l-.222-.222q.08 2.763.094 5.526.014 2.763-.08 5.526l-.147 5.526.03 5.526.325-.325-4.388.113z"/><path d="M67.279 43.406l4.421.172 4.559.114h.313v-.316l.045-6.34-.14-6.34-.095-6.34.026-3.17.07-3.17V17.8l-.227-.006-8.951-.163h-.382v.388l-.04 6.421.067 6.407.141 6.339zm.057-.057l.189-6.459.141-6.341.067-6.273-.04-6.259-.385.385 8.951-.163-.222-.222.07 3.17.026 3.17-.095 6.34-.139 6.34.045 6.34.315-.315-4.392.114z"/><path d="M58.329 43.406l4.416.183 4.563.113h.321v-.326l.03-5.526-.147-5.526q-.1-2.763-.08-5.526.02-2.763.094-5.526l.006-.215-.228-.007q-4.475-.139-8.951-.172h-.39v.4l-.032 5.607.075 5.59.139 5.524zm.058-.062l.183-5.641.139-5.527.075-5.462-.032-5.445-.394.394q4.475-.037 8.951-.172l-.222-.222q.08 2.763.094 5.526.014 2.763-.08 5.526l-.147 5.526.029 5.526.325-.325-4.388.113zm8.828 54c-1.274-3.617-2.635-7.2-4.049-10.756q-1.055-2.67-2.152-5.324l-.136-.332a2.44 2.44 0 0 0-.228-.415 1.98 1.98 0 0 0-.708-.644 2.2 2.2 0 0 0-1.849-.126 2.24 2.24 0 0 0-.79.54 2.84 2.84 0 0 0-.455.741l-.613 1.3-4.8 10.44-.626 1.292a3.25 3.25 0 0 1-.327.594 1.26 1.26 0 0 1-.489.394 1.44 1.44 0 0 1-1.228.01c-.193-.086-.361-.218-.491-.384a2.98 2.98 0 0 1-.331-.585l-2.5-5.171q-2.457-5.193-5.013-10.336l-1.279-2.571-.64-1.285-.32-.643c-.062-.118-.086-.19-.18-.346a2.18 2.18 0 0 0-.288-.4c-.459-.503-1.121-.771-1.8-.73s-1.304.386-1.7.94c-.09.131-.169.27-.237.414l-.151.326-.3.652-.6 1.3c-3.151 6.979-6.228 13.991-9.083 21.106l.111.051c3.557-6.791 6.892-13.685 10.154-20.612l.6-1.3.3-.652.15-.326c.034-.072.073-.142.118-.208a.99.99 0 0 1 1.5-.1c.118.14.215.296.288.464l.334.636.667 1.271 1.334 2.543q2.661 5.089 5.44 10.118l2.726 5.055c.192.492.56.895 1.032 1.131a1.82 1.82 0 0 0 1.549-.026 2.15 2.15 0 0 0 .991-1.155l.643-1.284 5.353-10.166.655-1.278a2 2 0 0 1 .3-.475c.11-.112.242-.201.387-.261a1.11 1.11 0 0 1 .924.07c.138.074.256.181.345.31a1.35 1.35 0 0 1 .122.21l.141.33q1.122 2.643 2.276 5.272c1.539 3.506 3.13 6.99 4.808 10.438z"/><path d="M76.316 97.345c-1.274-3.617-2.635-7.2-4.049-10.756q-1.055-2.67-2.152-5.324l-.136-.332c-.062-.145-.139-.284-.228-.415a1.98 1.98 0 0 0-.708-.644 2.2 2.2 0 0 0-1.849-.126 2.24 2.24 0 0 0-.79.54 2.83 2.83 0 0 0-.455.741l-.613 1.3-4.8 10.44-.626 1.292a3.24 3.24 0 0 1-.327.594c-.127.17-.295.306-.489.394a1.44 1.44 0 0 1-1.228.01c-.193-.086-.361-.218-.491-.384-.132-.182-.243-.378-.331-.585l-2.5-5.171q-2.457-5.193-5.013-10.336l-1.279-2.571-.64-1.285-.32-.643c-.062-.118-.087-.19-.18-.346a2.18 2.18 0 0 0-.288-.4c-.459-.503-1.121-.771-1.8-.73s-1.304.386-1.7.94a2.92 2.92 0 0 0-.237.414l-.151.326-.3.652-.6 1.3c-3.151 6.979-6.229 13.991-9.083 21.106l.111.051c3.558-6.791 6.892-13.685 10.154-20.612l.6-1.3.3-.652.15-.326c.033-.072.073-.142.117-.208a.99.99 0 0 1 1.5-.1 1.89 1.89 0 0 1 .288.464l.334.636.667 1.271 1.334 2.543q2.661 5.089 5.44 10.118l2.726 5.055c.192.492.56.894 1.032 1.131a1.82 1.82 0 0 0 1.549-.026 2.15 2.15 0 0 0 .991-1.155l.643-1.284 5.353-10.166.655-1.278a2 2 0 0 1 .3-.475c.11-.112.242-.201.387-.261a1.11 1.11 0 0 1 .924.07c.138.074.256.181.345.31a1.35 1.35 0 0 1 .122.21l.141.33q1.122 2.643 2.276 5.272c1.539 3.506 3.13 6.99 4.808 10.438z"/><path d="M47.924 94.497a1.62 1.62 0 0 0 2.892-.021l3.042-6.176 3.167 6.2a1.62 1.62 0 0 0 2.892-.021l3.263-6.624 3.977 9.517H33.009l7.77-16.85zm273.783 39l-2.479 17.455c.04.007.079.007.113.013q.378.04.756.06h.079c7.617.387 14.645-4.089 17.516-11.155.006-.033.02-.06.026-.086.093-.225.186-.457.265-.689.04-.106.073-.219.106-.325l.159-.491c.086-.278.159-.564.232-.848.079-.318.146-.643.212-.961.013-.073.02-.146.033-.219a15.53 15.53 0 0 0 .119-.769c.013-.066.02-.133.027-.2a17.03 17.03 0 0 0 .08-.809c.006-.048.008-.097.007-.146a20.01 20.01 0 0 0 .04-.882v-.073a17.8 17.8 0 0 0-.895-5.847l-.04-.106q-.129-.4-.278-.776l-.08-.2a28.13 28.13 0 0 0-.292-.676 6.03 6.03 0 0 0-.1-.225l-.338-.683c-.033-.06-.066-.119-.093-.179q-.229-.428-.477-.835c-.027-.04-.053-.08-.079-.126a21.82 21.82 0 0 0-.431-.669 7.43 7.43 0 0 0-.179-.245 1.58 1.58 0 0 0-.079-.113zm-.517-1.292l13.63-10.567c-6.107-7.308-16.866-8.554-24.482-2.837zm-4.4 18.323a16.56 16.56 0 0 0 1.12.239l2.473-17.441-11.091-13.688a18.41 18.41 0 0 0-.524.484 1.28 1.28 0 0 0-.106.1c-.332.318-.656.65-.961.994h0 0c-.638.717-1.216 1.484-1.73 2.294-.007.007-.007.013-.013.02-.51.803-.956 1.645-1.332 2.519-.007.012-.012.026-.013.04a16.9 16.9 0 0 0-.477 1.253c-.027.073-.053.146-.073.219a16.6 16.6 0 0 0-.371 1.273c-1.141 4.614-.402 9.493 2.055 13.562s6.43 6.995 11.045 8.134z"/><path d="M335.648 122.682l-.325-.418.312.431zm-.815-1.054l-.013.013.418.51zm-15.7 29.321l-.437-.053.53.073v-.013c-.025-.001-.058-.008-.094-.008zm-.736-.1l-.491-.079v.013zm-8.074-32.059l-.517.424.53-.411zm-1.034.842l.007.006.491-.411z"/></g></svg>