<svg xmlns="http://www.w3.org/2000/svg" width="354.955" height="294.219" viewBox="0 0 354.955 294.219">
  <g id="Group_5472" data-name="Group 5472" transform="translate(-1609.806 -7638.825)">
    <path id="Path_45469" data-name="Path 45469" d="M-3612.252,4091.689l.483,5.508,15.39,175.6h296.772V4043.72" transform="translate(5222.058 3638.584)" fill="#fbd206"/>
    <g id="marketing-employee-working-on-marketing-strategy" transform="translate(1625.806 7638.825)">
      <path id="Path_45424" data-name="Path 45424" d="M404.109,151.14a9.279,9.279,0,0,1,.533-2.711,24.92,24.92,0,0,1,1.04-2.579,44.1,44.1,0,0,1,2.7-4.866.213.213,0,0,0-.05-.284l0,0a14.162,14.162,0,0,1-3.562-4.312,37.6,37.6,0,0,1-2.426-5.125c-1.379-3.541-2.385-7.209-3.491-10.877-.147-.458-.281-.917-.448-1.376a6.035,6.035,0,0,0-.616-1.395,8.385,8.385,0,0,0-2.1-2.165,24.7,24.7,0,0,0-5.129-2.768c-1.781-.744-3.605-1.362-5.422-1.953l-1.344-.45a1.787,1.787,0,0,1-.96-.592,4.319,4.319,0,0,1-.683-2.384v-.02a.515.515,0,0,0-.393-.484l-2.3-.556-1.15-.278-.288-.07c-.1-.025.041,0,.059.03a.094.094,0,0,1,.04.036l.007,0a1.108,1.108,0,0,1-.082-.339,11.327,11.327,0,0,1,.056-2.222c.076-.763.187-1.536.309-2.29l-.531.454a13.348,13.348,0,0,0,4.423-.75,6.5,6.5,0,0,0,2.008-1.191,5.507,5.507,0,0,0,1.4-1.911c1.242-2.986.191-6.087.018-8.743a17.458,17.458,0,0,0-.72-4.368,32.054,32.054,0,0,1-.91-4.161,18.73,18.73,0,0,0-.967-4.281,30.258,30.258,0,0,0-1.711-4.026l-.317.522a13.761,13.761,0,0,0,1.685-.131,6.075,6.075,0,0,0,1.664-.478,2.721,2.721,0,0,0,1.334-1.238,2.469,2.469,0,0,0,.08-1.845.284.284,0,0,0-.29-.192h-.01a2.67,2.67,0,0,1-1.6-.4,6.881,6.881,0,0,1-1.354-1.152,22.786,22.786,0,0,0-2.675-2.623,9.568,9.568,0,0,0-3.442-1.554,20.26,20.26,0,0,0-3.7-.608,15.5,15.5,0,0,0-7.375,1.052,13.019,13.019,0,0,0-3.126,2.087,6.813,6.813,0,0,0-1.229,1.455,3.487,3.487,0,0,0-.394.894,1.945,1.945,0,0,0-.036,1.034l.076-.231a22.316,22.316,0,0,0-3.816,3.381,13.75,13.75,0,0,0-2.738,4.312,7.245,7.245,0,0,0-.366,1.242c-.041.213-.1.421-.125.637l-.051.65a6.936,6.936,0,0,0,.044,1.3c.04.433.169.847.25,1.272a18.608,18.608,0,0,0,2.122,4.655,50,50,0,0,0,6.268,8l.44.46a3.764,3.764,0,0,1,.407.444,3.067,3.067,0,0,1,.454,1.012,14.492,14.492,0,0,1,.413,2.423,42.951,42.951,0,0,1,.16,5l.418-.408-2.512-.016a.431.431,0,0,0-.433.411v.024a13.836,13.836,0,0,1-.963,4.342,11.446,11.446,0,0,1-1,1.985,13.07,13.07,0,0,1-1.41,1.717c-2.115,2.185-4.5,4.158-6.817,6.2-1.162,1.021-2.323,2.048-3.457,3.116q-.851.8-1.669,1.651c-.549.588-1.043,1.157-1.566,1.706s-1.071,1.086-1.617,1.654a9.566,9.566,0,0,0-1.522,1.932,6.28,6.28,0,0,0-.752,2.413,13.54,13.54,0,0,0-.059,2.419c.047.8.111,1.566.231,2.359l.252,1.211c.112.391.262.765.392,1.147a8.042,8.042,0,0,0,.465,1.107c.173.358.332.726.518,1.076.4.679.754,1.393,1.2,2.04a63.4,63.4,0,0,0,5.68,7.429c2.031,2.349,4.164,4.6,6.25,6.864.516.568,1.033,1.135,1.521,1.711.252.286.445.577.672.865a7.039,7.039,0,0,1,.512.914,2.813,2.813,0,0,1,.269,1.832,2.166,2.166,0,0,1-.4.778,2.492,2.492,0,0,1-.684.564l-.027.014a.619.619,0,0,0-.256.838l.014.025,2.34,3.949a.616.616,0,0,0,.564.3h.022a5.169,5.169,0,0,1,3.027.66,2.336,2.336,0,0,1,.886,1.074l.118.345.1.418c.062.281.12.565.172.852.409,2.3.642,4.671.824,7.021v.018a.547.547,0,0,0,.49.5c3.3.333,6.616.609,9.936.65,3.318.095,6.639-.024,9.948-.243s6.6-.647,9.875-1.188a78.156,78.156,0,0,0,9.7-2.208l.007,0a.252.252,0,0,0,.162-.153,23.27,23.27,0,0,0,1.062-4.1,31.256,31.256,0,0,0,.439-4.186,17.04,17.04,0,0,0-.323-4.2c-.258-1.378-.618-2.73-1-4.072a.061.061,0,0,0-.118.032,25.271,25.271,0,0,1,1.106,8.218,30.868,30.868,0,0,1-.539,4.122,22.877,22.877,0,0,1-1.133,3.968l.169-.155a77.942,77.942,0,0,1-9.65,2.015c-3.256.48-6.532.84-9.819,1.007s-6.577.261-9.863.129c-3.289-.076-6.565-.385-9.83-.749l.491.519c-.16-2.395-.365-4.768-.763-7.16-.051-.3-.109-.6-.172-.9l-.1-.452c-.044-.16-.107-.335-.163-.5a3.512,3.512,0,0,0-1.332-1.642,5.172,5.172,0,0,0-1.87-.742,7.5,7.5,0,0,0-1.951-.129l.586.3-2.331-3.955-.268.877a3.621,3.621,0,0,0,1.105-.886,3.413,3.413,0,0,0,.657-1.259,4.035,4.035,0,0,0-.333-2.665,8.235,8.235,0,0,0-.616-1.105c-.248-.321-.488-.673-.746-.967-.509-.6-1.031-1.18-1.553-1.756-2.094-2.283-4.206-4.523-6.211-6.852a68.346,68.346,0,0,1-5.578-7.27c-.435-.626-.771-1.3-1.159-1.948-.178-.331-.327-.673-.492-1.009a7.171,7.171,0,0,1-.437-1.023c-.119-.347-.262-.692-.365-1.041l-.226-1.055c-.117-.731-.186-1.5-.234-2.248a12.369,12.369,0,0,1,.038-2.205,5.086,5.086,0,0,1,.6-1.986,21.352,21.352,0,0,1,2.945-3.366c.539-.573,1.055-1.173,1.557-1.716q.781-.825,1.614-1.617c1.108-1.056,2.255-2.083,3.407-3.108,2.3-2.062,4.651-4.068,6.809-6.351a13.93,13.93,0,0,0,1.5-1.88,12.345,12.345,0,0,0,1.052-2.162,14.652,14.652,0,0,0,.966-4.678l-.434.434,2.512-.016h.01a.411.411,0,0,0,.408-.408,43.668,43.668,0,0,0-.23-5.1,15.16,15.16,0,0,0-.472-2.551,3.678,3.678,0,0,0-.607-1.264,4.475,4.475,0,0,0-.452-.482l-.44-.448a49.647,49.647,0,0,1-6.294-7.812,18.1,18.1,0,0,1-2.126-4.491c-.081-.4-.212-.8-.254-1.2a6.469,6.469,0,0,1-.058-1.219l.042-.611c.018-.2.079-.4.116-.6a6.783,6.783,0,0,1,.342-1.182,13.325,13.325,0,0,1,2.634-4.188,21.933,21.933,0,0,1,3.721-3.333.2.2,0,0,0,.08-.211l0-.02a2.33,2.33,0,0,1,.391-1.6,6.438,6.438,0,0,1,1.153-1.376,11.9,11.9,0,0,1,3.027-2.015,15.116,15.116,0,0,1,7.187-.969,19.794,19.794,0,0,1,3.612.619,9.1,9.1,0,0,1,3.27,1.5,21.111,21.111,0,0,1,2.577,2.61,7.394,7.394,0,0,0,1.447,1.269,3.262,3.262,0,0,0,1.937.513l-.3-.191a1.876,1.876,0,0,1-.086,1.35,2.082,2.082,0,0,1-1.05.92,5.416,5.416,0,0,1-1.483.394,13.048,13.048,0,0,1-1.584.1.363.363,0,0,0-.354.371.372.372,0,0,0,.037.151,29.734,29.734,0,0,1,1.6,3.944,17.867,17.867,0,0,1,.861,4.139c.291,2.943,1.514,5.671,1.479,8.426a17.063,17.063,0,0,0,.243,2.218c.107.71.2,1.41.258,2.108a8.351,8.351,0,0,1-.476,3.989,4.818,4.818,0,0,1-2.832,2.527,12.316,12.316,0,0,1-4.055.655.549.549,0,0,0-.531.455c-.134.792-.233,1.574-.31,2.372a12.112,12.112,0,0,0-.036,2.471,1.882,1.882,0,0,0,.25.779c.029.043.059.084.093.124a1.271,1.271,0,0,0,.152.131,1.094,1.094,0,0,0,.331.134l.284.067,1.137.267,2.275.534-.394-.5a6.688,6.688,0,0,0,.223,1.545,4.031,4.031,0,0,0,.7,1.472,2.392,2.392,0,0,0,.675.589,3.842,3.842,0,0,0,.745.32l1.374.45c1.816.578,3.615,1.175,5.362,1.891a23.813,23.813,0,0,1,4.944,2.621,7.714,7.714,0,0,1,1.886,1.9,5.174,5.174,0,0,1,.552,1.21c.167.436.308.891.459,1.339,1.156,3.62,2.231,7.311,3.682,10.867a38.219,38.219,0,0,0,2.553,5.174,14.637,14.637,0,0,0,3.809,4.357l-.054-.286a44.425,44.425,0,0,0-2.589,4.982,25.142,25.142,0,0,0-.979,2.633,9.438,9.438,0,0,0-.467,2.77.061.061,0,0,0,.061.061.062.062,0,0,0,.061-.061Z" transform="translate(-232.557 -62.36)" fill="#5504b0"/>
      <path id="Path_45425" data-name="Path 45425" d="M390.186,87.527a4.7,4.7,0,0,0-1.657-.677,5.988,5.988,0,0,0-1.808-.108,5.078,5.078,0,0,0-1.757.488,4.044,4.044,0,0,0-1.419,1.105,15.28,15.28,0,0,1,1.625-.559,9.154,9.154,0,0,1,1.624-.29,18.508,18.508,0,0,1,3.393.041Zm7.718.808a3.022,3.022,0,0,0-.99-.474,4.423,4.423,0,0,0-1.068-.174,3.888,3.888,0,0,0-1.089.121,2.228,2.228,0,0,0-.982.526l1.049.053c.335.022.665.031,1,.046A10.248,10.248,0,0,0,397.9,88.335ZM386.6,92.149a1.122,1.122,0,1,1,1.084-1.122A1.122,1.122,0,0,1,386.6,92.149Zm-12.385,6.013A1.122,1.122,0,1,1,375.3,97.04a1.122,1.122,0,0,1-1.084,1.122Zm21.179-5.385a1.122,1.122,0,1,1,1.084-1.122,1.122,1.122,0,0,1-1.084,1.122Zm0,7.942a9.687,9.687,0,0,1-.741.666,5.724,5.724,0,0,1-.743.507,7.336,7.336,0,0,1-.815.4c-.29.129-.6.233-.933.4a2.41,2.41,0,0,0,2.928-.927,1.727,1.727,0,0,0,.3-1.047Zm-20.121,2.263c.848.643,1.714,1.216,2.608,1.765s1.807,1.053,2.75,1.5a16.373,16.373,0,0,0,5.968,1.737,16.2,16.2,0,0,1-5.8-2.069c-.9-.5-1.769-1.056-2.615-1.642s-1.67-1.213-2.438-1.872l-.007-.006a.374.374,0,0,0-.487.568Zm17.338-11.955a3.661,3.661,0,0,0,.076,2.263,4.151,4.151,0,0,0,.543,1.048,8.654,8.654,0,0,1,.644.836c.333.539.411,1.161-.076,1.493a1.937,1.937,0,0,1-.908.318,7.149,7.149,0,0,1-1.086.056,3.562,3.562,0,0,0,1.091.311,2.066,2.066,0,0,0,1.2-.185,1.361,1.361,0,0,0,.75-1.127,2.213,2.213,0,0,0-.336-1.253,7.2,7.2,0,0,0-.725-.881,4.92,4.92,0,0,1-.566-.843A5.872,5.872,0,0,1,392.609,91.027Z" transform="translate(-244.428 -69.864)" fill="#5504b0"/>
      <path id="Path_45426" data-name="Path 45426" d="M379.612,90.995c-1.09-2.053-.615-2.793.551-5.036s6.013,2.423,6.013,2.423V80.3c-2.244-1.348-2.423-6.19,0-8.793s14.718.9,14.718.9l0,0c5.739,0,4.483-3.226,4.483-3.226-2.69.177-3.769-3.232-6.642-4.848s-10.228-2.69-14.533,0-3.592,4.666-3.592,4.666-7,4.672-7,10.411c0,3.515,3.024,7.969,5.7,11.227M401.1,107.124c-.657,1.491-1.262,3-1.837,4.517s-1.135,3.041-1.667,4.572l.954-.159q-.981-1.393-2-2.758-1-1.377-2.043-2.725c-.682-.907-1.382-1.8-2.087-2.692s-1.422-1.771-2.136-2.655l-.021-.026a.361.361,0,0,0-.184-.122c-2.2-.623-4.408-1.233-6.644-1.753,2.105.915,4.24,1.74,6.379,2.552l-.2-.147c.648.933,1.281,1.877,1.947,2.8s1.317,1.85,2,2.76,1.35,1.826,2.04,2.727,1.378,1.8,2.084,2.694l.017.021a.539.539,0,0,0,.937-.18c.467-1.553.9-3.116,1.319-4.685S400.76,108.718,401.1,107.124Zm1,3.655,3.1,4.66-2.022-5.221a.614.614,0,0,0-1.144.443A.638.638,0,0,0,402.1,110.779Z" transform="translate(-252.355 -62.462)" fill="#5504b0"/>
      <path id="Path_45427" data-name="Path 45427" d="M360.015,124.53c-.27.991-.481,1.991-.7,2.989s-.4,2-.57,3.006c-.354,2.008-.647,4.023-.906,6.042l1.012-.367c-.7-.629-1.389-1.273-2.1-1.89s-1.417-1.243-2.145-1.843c-1.446-1.212-2.917-2.4-4.466-3.495,1.217,1.458,2.514,2.832,3.835,4.178.655.678,1.333,1.333,2.006,1.994s1.367,1.3,2.049,1.946a.6.6,0,0,0,1.011-.357v-.01c.265-2.019.5-4.042.666-6.073.089-1.015.157-2.033.216-3.052S360.024,125.558,360.015,124.53Zm33.907,46.158a64.214,64.214,0,0,0-.793-9.006,41.387,41.387,0,0,0-2.265-8.825l-3.936-8.123c-1.292-2.707-2.594-5.415-3.985-8.088.922,2.87,1.981,5.686,3.114,8.473.557,1.4,1.165,2.775,1.775,4.155s1.355,2.743,1.906,4.05a54.547,54.547,0,0,1,2.459,8.534C392.829,164.778,393.382,167.725,393.922,170.688ZM347.089,147.32l3.347,4.937c1.119,1.635,2.2,3.293,3.261,4.957l1.612,2.486c.512.843,1.041,1.68,1.5,2.554a17.532,17.532,0,0,1,2.026,5.526.209.209,0,0,0,.216.175h.012a9.558,9.558,0,0,1,3.8.693,6.976,6.976,0,0,1,1.61.961,5.463,5.463,0,0,1,1.2,1.367l-.08-.343a17.588,17.588,0,0,1-1.778,5.013,22.589,22.589,0,0,1-1.375,2.3l-.781,1.091-.867,1.025a13.441,13.441,0,0,1-.925.976,10,10,0,0,1-.982.923l-1.03.878-1.1.789a22.292,22.292,0,0,1-2.322,1.439c-.8.456-1.648.8-2.47,1.237l-.006,0a.061.061,0,0,0,.045.112q.668-.192,1.335-.4a13.774,13.774,0,0,0,1.329-.448,23.011,23.011,0,0,0,2.538-1.22,18.736,18.736,0,0,0,4.494-3.454,18.482,18.482,0,0,0,4.955-10.145l0-.022a.446.446,0,0,0-.083-.321,6.455,6.455,0,0,0-1.531-1.543,7.156,7.156,0,0,0-1.914-.918,11.076,11.076,0,0,0-4.091-.411l.228.174a33.2,33.2,0,0,0-1.928-5.7,38.255,38.255,0,0,0-2.713-5.369,53.285,53.285,0,0,0-3.456-4.908,48.127,48.127,0,0,0-3.977-4.487.061.061,0,0,0-.087,0,.063.063,0,0,0-.007.078Z" transform="translate(-222.423 -81.515)" fill="#5504b0"/>
      <path id="Path_45428" data-name="Path 45428" d="M341.091,195.816a22.861,22.861,0,0,0,3.4-2.256,24.034,24.034,0,0,0,3-2.791c.466-.5.881-1.052,1.3-1.6a14.656,14.656,0,0,0,1.073-1.768,7.817,7.817,0,0,0,.969-3.967,10.254,10.254,0,0,1-1.478,3.682,20.713,20.713,0,0,1-2.422,3.149c-.884,1-1.838,1.934-2.819,2.85S342.124,194.935,341.091,195.816Zm10.7,8.489a47.452,47.452,0,0,0,2.525-4.1,44.264,44.264,0,0,0,2.116-4.342,22.816,22.816,0,0,0,2.068-9.533.61.61,0,1,0-1.22.044c0,.013,0,.026,0,.039l0,.022a17.525,17.525,0,0,1-.206,4.63,30.406,30.406,0,0,1-1.216,4.581,43.86,43.86,0,0,1-1.818,4.421,47.376,47.376,0,0,1-2.254,4.235Zm38.05-28.583a4.784,4.784,0,0,0-1.54-.242,5.713,5.713,0,0,0-1.559.2,3.784,3.784,0,0,0-1.444.718,2.079,2.079,0,0,0-.8,1.377,3.485,3.485,0,0,1,1.127-.892,6.348,6.348,0,0,1,1.319-.483C387.866,176.132,388.833,175.985,389.845,175.721Z" transform="translate(-214.203 -97.212)" fill="#5504b0"/>
      <path id="Path_45429" data-name="Path 45429" d="M346.028,178.535c3.035.39,6.07.686,9.108.925,1.519.123,3.039.228,4.559.324l.57.038a5.942,5.942,0,0,0,.624.018,11.358,11.358,0,0,0,1.2-.1c.78-.1,1.536-.26,2.288-.423,1.5-.349,2.97-.758,4.445-1.139a34.994,34.994,0,0,1,4.448-.949,9.435,9.435,0,0,1,1.118-.065,2.262,2.262,0,0,1,1.023.189.581.581,0,0,1,.166.131c.05.066.1.15.15.223.106.147.18.321.272.48a8.419,8.419,0,0,1,.827,3.218,3.906,3.906,0,0,1-.391,2.059,2.049,2.049,0,0,1-1.591,1,3.356,3.356,0,0,1-1.012.035,4.442,4.442,0,0,1-1.009-.27,3.909,3.909,0,0,0-1.27-.238,4.737,4.737,0,0,0-1.272.178,12.581,12.581,0,0,0-2.216.913,44.089,44.089,0,0,1-4.138,1.794c-1.409.547-2.834,1.059-4.265,1.548a81.393,81.393,0,0,1-8.721,2.494,28.735,28.735,0,0,1-8.994.812h0a.061.061,0,0,0-.02.12,24.151,24.151,0,0,0,9.193.005,61.509,61.509,0,0,0,8.957-2.2,56.105,56.105,0,0,0,8.53-3.562,12.906,12.906,0,0,1,1.98-.894,2.993,2.993,0,0,1,1.953-.049,5.287,5.287,0,0,0,1.212.256,4.168,4.168,0,0,0,1.26-.129,3,3,0,0,0,.6-.192,1.987,1.987,0,0,0,.582-.315c.089-.067.184-.128.266-.2l.22-.251a2.391,2.391,0,0,0,.35-.55,4.481,4.481,0,0,0,.321-2.4,9.951,9.951,0,0,0-.541-2.281,11.014,11.014,0,0,0-.466-1.073c-.1-.17-.179-.349-.3-.511-.058-.083-.106-.165-.172-.249a.934.934,0,0,0-.277-.223,2.79,2.79,0,0,0-1.2-.244,9.751,9.751,0,0,0-1.166.049c-3.065.326-6.061.989-9.051,1.485-.744.134-1.49.245-2.223.341a10.372,10.372,0,0,1-1.082.08c-.184.007-.33-.006-.519-.011l-.572-.027c-1.525-.075-3.052-.142-4.579-.19-3.054-.1-6.11-.151-9.167-.1a.061.061,0,0,0-.006.122Zm6.148-30.035a1.122,1.122,0,1,1,1.084-1.122,1.122,1.122,0,0,1-1.084,1.122Zm5.788,11.308a1.122,1.122,0,1,1,1.084-1.122,1.122,1.122,0,0,1-1.084,1.122Zm3.5,10.1a1.122,1.122,0,1,1,1.084-1.122,1.122,1.122,0,0,1-1.084,1.122Z" transform="translate(-202.29 -88.209)" fill="#5504b0"/>
      <path id="Path_45430" data-name="Path 45430" d="M347.578,192.905a1.036,1.036,0,0,0-1.067-.927,1.075,1.075,0,0,0-1.067,1.293Zm.819,15.316a1.122,1.122,0,1,1,1.084-1.122A1.122,1.122,0,0,1,348.4,208.221Zm9.466,7.19c.166-.046.292-.08.371-.106Zm-.6.173c.239-.066.444-.126.6-.173Zm-9.546,27.239c-.04.166-.066.331-.1.49a4.96,4.96,0,0,0,1.9-1.684,9.542,9.542,0,0,0,1.22-2.745,21.829,21.829,0,0,0,.577-3c.139-1.021.219-2.048.259-3.083.073-1.034.08-2.075.08-3.116s-.02-2.088-.04-3.135l-.206-5.933c-.961.245-1.929.457-2.9.656.305,2.108.53,4.223.656,6.344a49.228,49.228,0,0,1-.332,10.215c-.073.424-.133.849-.219,1.273l-.292,1.253Z" transform="translate(-185.588 -102.296)" fill="#5504b0"/>
      <path id="Path_45431" data-name="Path 45431" d="M351.662,349.694a331.543,331.543,0,0,1-7.789,39.994c7,0,16.421-10.229,16.421-10.229l-5.582-15.618s13.391-47.385,15.744-72.152-1.611-65.47-1.611-65.47a87.185,87.185,0,0,1-9.089,1.843c.186.922.351,1.856.5,2.784,2.97-.411,5.927-.9,8.863-1.584a40.267,40.267,0,0,1-5.734,1.883,37.611,37.611,0,0,1,1.147,5.88,38.661,38.661,0,0,1,.259,6.384,21.035,21.035,0,0,1-1.18,6.358,8.794,8.794,0,0,1-1.7,2.824,4.7,4.7,0,0,1-2.433,1.425c-.3,1.439-.57,2.884-.776,4.336-.5,3.348-.829,6.716-1.067,10.09s-.378,6.755-.464,10.149l-.3,10.189c-.292,6.788-.564,13.577-1.041,20.358C354.857,322.694,353.564,336.237,351.662,349.694Z" transform="translate(-197.485 -112.845)" fill="#5504b0"/>
      <path id="Path_45432" data-name="Path 45432" d="M389.764,231.687c-.113-.941-.239-1.876-.385-2.8a108.382,108.382,0,0,1-28.81.444q-.378,1.72-.709,3.447c1.644,0,3.268.1,4.906.126l2.446.04c.815.02,1.631.033,2.44.02s1.631-.013,2.446-.006l2.439-.066c1.624-.006,3.248-.126,4.866-.192q4.873-.3,9.705-.915C389.326,231.747,389.545,231.713,389.764,231.687Z" transform="translate(-227.108 -113.666)" fill="#5504b0"/>
      <path id="Path_45433" data-name="Path 45433" d="M358.983,397.043c7.537,4.037,21-4.846,21-4.846,1.545-6.616,2.784-13.291,3.871-19.987q1.671-10.033,2.917-20.139,2.516-20.2,3.845-40.518c.5-6.762.829-13.537,1.153-20.318l.365-10.169c.093-3.394.278-6.808.59-10.2s.7-6.775,1.26-10.143c.272-1.677.616-3.354,1.008-5.018l.656-2.473.3-1.213c.093-.411.159-.829.239-1.239a48.845,48.845,0,0,0,.623-10.09c-.073-2.115-.225-4.229-.458-6.331l-.6.119a78.217,78.217,0,0,1-9.791,1.22,85.819,85.819,0,0,1-9.858-.02c-1.644-.06-3.275-.285-4.906-.444-1.631-.206-3.248-.477-4.859-.776h-.007c-6.908,35.453-.093,72.656-.093,72.656C360.865,333.238,358.983,397.043,358.983,397.043Z" transform="translate(-233.596 -115.355)" fill="#5504b0"/>
      <path id="Path_45434" data-name="Path 45434" d="M378.441,463.223a16.4,16.4,0,0,0,3.029,6.8,12.839,12.839,0,0,0,2.74,2.653,10.77,10.77,0,0,0,3.487,1.614,21.938,21.938,0,0,1,3.444,1.066,6.479,6.479,0,0,1,1.52.88c.42.361.806.873.629,1.36a1.1,1.1,0,0,1-.495.591,2.079,2.079,0,0,1-.788.3c-.608.107-1.207.229-1.814.318a34.313,34.313,0,0,1-3.642.375,24.741,24.741,0,0,1-3.612-.093,9.081,9.081,0,0,1-3.309-.919,67.483,67.483,0,0,0-6.527-3.529,16.291,16.291,0,0,0-3.642-1.15,6.841,6.841,0,0,0-2-.041,8.85,8.85,0,0,0-.944.188l-.454.1a2.336,2.336,0,0,1-.375.058,2.425,2.425,0,0,1-2.45-1.62,2.84,2.84,0,0,1-.154-.823l-.062-.921c-.04-.614-.081-1.228-.136-1.842a.061.061,0,0,0-.122,0c-.055.614-.1,1.228-.136,1.842l-.062.921a3.021,3.021,0,0,0,.079,1,3.16,3.16,0,0,0,3.08,2.4,3.339,3.339,0,0,0,.538-.05l.451-.072a7.914,7.914,0,0,1,.871-.12,5.773,5.773,0,0,1,1.662.139,17.469,17.469,0,0,1,3.331,1.184c2.191.99,4.316,2.19,6.5,3.346a9.258,9.258,0,0,0,3.783.877,20.615,20.615,0,0,0,3.747-.207c1.233-.152,2.445-.4,3.655-.632l1.808-.36A2.776,2.776,0,0,0,393,478.5a1.481,1.481,0,0,0,.667-.782,1.365,1.365,0,0,0,.075-.539,1.809,1.809,0,0,0-.143-.509,2.937,2.937,0,0,0-.594-.807,7.014,7.014,0,0,0-1.559-1.12,20.888,20.888,0,0,0-3.475-1.436,12.964,12.964,0,0,1-3.143-1.523,13.918,13.918,0,0,1-2.622-2.362,21.653,21.653,0,0,1-3.643-6.231l0,0a.061.061,0,0,0-.117.034Z" transform="translate(-232.951 -185.844)" fill="#5504b0"/>
      <path id="Path_45435" data-name="Path 45435" d="M293.641,348.851a16.4,16.4,0,0,0,3.029,6.8,12.829,12.829,0,0,0,2.741,2.653,10.761,10.761,0,0,0,3.487,1.614,21.917,21.917,0,0,1,3.444,1.066,6.465,6.465,0,0,1,1.52.88c.42.361.806.873.629,1.36a1.1,1.1,0,0,1-.495.591,2.081,2.081,0,0,1-.788.3c-.608.107-1.207.229-1.814.318a34.224,34.224,0,0,1-3.642.375,24.691,24.691,0,0,1-3.612-.093,9.086,9.086,0,0,1-3.309-.919,67.433,67.433,0,0,0-6.527-3.529,16.271,16.271,0,0,0-3.642-1.15,6.841,6.841,0,0,0-2-.041,9.028,9.028,0,0,0-.944.188l-.454.1a2.4,2.4,0,0,1-2.824-1.563,2.838,2.838,0,0,1-.154-.823l-.062-.921c-.04-.614-.081-1.228-.136-1.842a.061.061,0,0,0-.122,0c-.055.614-.1,1.228-.136,1.842l-.062.921a3.022,3.022,0,0,0,.079,1,3.161,3.161,0,0,0,3.08,2.4,3.342,3.342,0,0,0,.539-.05l.451-.072a8.062,8.062,0,0,1,.871-.12,5.76,5.76,0,0,1,1.662.14,17.469,17.469,0,0,1,3.331,1.184c2.192.99,4.317,2.19,6.5,3.346a9.246,9.246,0,0,0,3.783.877,20.582,20.582,0,0,0,3.747-.207c1.233-.151,2.445-.4,3.655-.632l1.808-.36a2.777,2.777,0,0,0,.924-.346,1.482,1.482,0,0,0,.667-.782,1.364,1.364,0,0,0,.074-.539,1.8,1.8,0,0,0-.143-.509,2.936,2.936,0,0,0-.594-.808,7.028,7.028,0,0,0-1.559-1.12,20.913,20.913,0,0,0-3.476-1.436,12.948,12.948,0,0,1-3.143-1.523,13.931,13.931,0,0,1-2.622-2.362,21.659,21.659,0,0,1-3.643-6.231l0,0a.061.061,0,0,0-.117.033Zm13.97-172.285a13.493,13.493,0,0,0,5.129-2.273,24.861,24.861,0,0,0,4.219-3.731,42.8,42.8,0,0,0,3.793-4.177,12.763,12.763,0,0,0,2.206-5.288,33.622,33.622,0,0,0,.5-5.646c.034-1.879.043-3.725.1-5.589.123-3.719.23-7.442.433-11.161l.075-1.394.036-.7a2.4,2.4,0,0,1,.093-.56,1.979,1.979,0,0,1,2.78-1.138l1.262.615c.844.4,1.692.8,2.549,1.18a41.273,41.273,0,0,0,5.269,2,11.1,11.1,0,0,0,1.4.305,2.957,2.957,0,0,0,1.517-.088,1.116,1.116,0,0,0,.356-.269,2.968,2.968,0,0,1,.228-.229c.164-.151.342-.3.522-.437.361-.283.738-.554,1.118-.821,1.524-1.062,3.1-2.065,4.661-3.078s3.158-1.985,4.7-3.06c.383-.271.764-.546,1.13-.857a2.254,2.254,0,0,0,.526-.581.513.513,0,0,0,.048-.151.332.332,0,0,0-.075-.246.446.446,0,0,0-.3-.134,2.1,2.1,0,0,0-.389.012c-.943.074-1.868.221-2.793.363-1.848.3-3.681.653-5.512,1.043l.25.549a23.431,23.431,0,0,0,3.6-3.1,3.7,3.7,0,0,0,.708-1.1.967.967,0,0,0-.1-.921,1.234,1.234,0,0,0-.749-.407,4.017,4.017,0,0,0-1.294,0,6.874,6.874,0,0,0-1.219.264,14.088,14.088,0,0,0-4.173,2.4,27.585,27.585,0,0,0-3.464,3.276l.806-.01a28.286,28.286,0,0,0-3.347-3.207,14.275,14.275,0,0,0-1.955-1.336,4.743,4.743,0,0,0-2.465-.718l.585.808a1.658,1.658,0,0,1,.191-.278,2.321,2.321,0,0,1,.29-.291,3.166,3.166,0,0,1,.73-.455,4.98,4.98,0,0,1,1.782-.4c.657-.048,1.2.063,2.064.036a3.66,3.66,0,0,0,2.243-.93,5.07,5.07,0,0,0,1.284-1.953c.037-.088.066-.177.1-.265l.047-.141.05-.208a1.536,1.536,0,0,0-.109-.868,1.611,1.611,0,0,0-1.34-.951,1.67,1.67,0,0,0-.819.147l-.446.19q-.453.179-.924.325a16.054,16.054,0,0,1-1.925.466,30.66,30.66,0,0,1-4.026.291,9.338,9.338,0,0,0-4.231,1.051,8.365,8.365,0,0,0-1.771,1.322l-.392.382-.35.353c-.23.241-.474.454-.717.671s-.5.4-.78.622a3.737,3.737,0,0,0-.847.84,9.792,9.792,0,0,0-.975,1.973c-1,2.6-1.852,5.2-2.77,7.785s-1.854,5.159-2.826,7.726c-1.966,5.123-4,10.227-6.134,15.288a.061.061,0,1,0,.111.051c2.379-4.955,4.64-9.969,6.744-15.051,1.06-2.538,2.079-5.094,3.035-7.677s1.877-5.176,2.9-7.687a8.943,8.943,0,0,1,.868-1.7,2.541,2.541,0,0,1,.626-.587c.266-.194.565-.419.838-.652s.544-.477.789-.732l.376-.377.348-.335a7.136,7.136,0,0,1,1.522-1.13,8.1,8.1,0,0,1,3.7-.882,31.318,31.318,0,0,0,4.186-.292,17.274,17.274,0,0,0,2.079-.494q.514-.156,1.02-.354c.168-.067.336-.136.5-.211a.362.362,0,0,1,.183-.036.322.322,0,0,1,.26.183.266.266,0,0,1,.018.139.166.166,0,0,0-.01.042l-.034.1c-.025.073-.048.148-.077.219a3.808,3.808,0,0,1-.931,1.476,2.39,2.39,0,0,1-1.483.628c-.512.034-1.337-.075-2.052-.014a6.179,6.179,0,0,0-2.206.534,4.341,4.341,0,0,0-1,.644,3.505,3.505,0,0,0-.43.443,2.492,2.492,0,0,0-.366.585.572.572,0,0,0,.55.81l.035,0a3.7,3.7,0,0,1,1.839.556,13.212,13.212,0,0,1,1.8,1.207,29.322,29.322,0,0,1,3.25,3.028l.006.006a.536.536,0,0,0,.758.027l.042-.044a26.635,26.635,0,0,1,3.262-3.2,13.7,13.7,0,0,1,3.839-2.33,6.06,6.06,0,0,1,1.054-.26,3.3,3.3,0,0,1,1.031-.041.606.606,0,0,1,.274.1c.008,0,.036.05-.01.193a3.076,3.076,0,0,1-.539.863,22.228,22.228,0,0,1-3.4,3.077l-.009.007a.307.307,0,0,0,.259.542c1.807-.432,3.628-.834,5.454-1.173.912-.17,1.832-.312,2.747-.4a1.907,1.907,0,0,1,.308-.016c.045,0,.056.025.019-.015a.1.1,0,0,1-.026-.083c-.007,0,0-.006-.008.013a2.068,2.068,0,0,1-.414.444c-.342.3-.715.572-1.091.843-3.031,2.151-6.266,4.02-9.369,6.11-.386.265-.771.533-1.147.821-.188.144-.374.292-.556.454a3.4,3.4,0,0,0-.268.263.607.607,0,0,1-.2.148,2.444,2.444,0,0,1-1.243.024,10.587,10.587,0,0,1-1.322-.332,40.721,40.721,0,0,1-5.12-2.129q-1.254-.6-2.491-1.247l-1.234-.648a2.839,2.839,0,0,0-1.585-.337,2.909,2.909,0,0,0-2.5,1.916,3.4,3.4,0,0,0-.163.81l-.05.7-.089,1.4c-.219,3.728-.435,7.458-.476,11.2-.116,3.739.179,7.491-.452,11.089a12.459,12.459,0,0,1-1.941,5,42.388,42.388,0,0,1-3.605,4.2,26.886,26.886,0,0,1-4,3.831,16.359,16.359,0,0,1-2.334,1.484,10.786,10.786,0,0,1-2.574,1l-.007,0a.061.061,0,0,0,.024.119Z" transform="translate(-132.791 -80.202)" fill="#5504b0"/>
      <path id="Path_45436" data-name="Path 45436" d="M294.479,134.968l-4.289,3.122,4.685-2.487a.375.375,0,1,0-.352-.662A.431.431,0,0,0,294.479,134.968Z" transform="translate(-84.215 -84.709)" fill="#5504b0"/>
      <path id="Path_45437" data-name="Path 45437" d="M407.788,144.338c.093-2.068.172-4.1.232-6.119s.106-4.011.133-6.006c.013-1.77.013-3.54-.013-5.31,1.916-.027,3.832-.046,5.747-.093,2.029-.047,4.05-.113,6.079-.2.06,1.909.133,3.825.139,5.734.026,2.035-.007,4.07-.086,6.105l-.252,6.105c-.053,1.85-.053,3.7-.033,5.542-1.883.027-3.765.086-5.681.172l-3.222.166-3.321.179Zm-32.543-27.9c.1-1.452.179-2.857.186-4.263.424-.006.842-.02,1.266-.033l1.969-.06c1.2-.027,2.4-.119,3.6-.212.053.729.106,1.465.126,2.194.013.868.02,1.73-.027,2.592-.086,1.531-.285,3.062-.331,4.594-1.054.007-2.1.06-3.182.133-1.286.1-2.612.239-4.077.4.179-1.889.351-3.653.471-5.343Zm0,0c.1-1.452.179-2.857.186-4.263.424-.006.842-.02,1.266-.033l1.969-.06c1.2-.027,2.4-.119,3.6-.212.053.729.106,1.465.126,2.194.013.868.02,1.73-.027,2.592-.086,1.531-.285,3.062-.331,4.594-1.054.007-2.1.06-3.182.133-1.286.1-2.612.239-4.077.4.179-1.889.351-3.653.471-5.343Zm32.543,27.9c.093-2.068.172-4.1.232-6.119s.106-4.011.133-6.006c.013-1.77.013-3.54-.013-5.31,1.916-.027,3.832-.046,5.747-.093,2.029-.047,4.05-.113,6.079-.2.06,1.909.133,3.825.139,5.734.026,2.035-.007,4.07-.086,6.105l-.252,6.105c-.053,1.85-.053,3.7-.033,5.542-1.883.027-3.765.086-5.681.172l-3.222.166-3.321.179Zm0,0c.093-2.068.172-4.1.232-6.119s.106-4.011.133-6.006c.013-1.77.013-3.54-.013-5.31,1.916-.027,3.832-.046,5.747-.093,2.029-.047,4.05-.113,6.079-.2.06,1.909.133,3.825.139,5.734.026,2.035-.007,4.07-.086,6.105l-.252,6.105c-.053,1.85-.053,3.7-.033,5.542-1.883.027-3.765.086-5.681.172l-3.222.166-3.321.179Zm-32.543-27.9c.1-1.452.179-2.857.186-4.263.424-.006.842-.02,1.266-.033l1.969-.06c1.2-.027,2.4-.119,3.6-.212.053.729.106,1.465.126,2.194.013.868.02,1.73-.027,2.592-.086,1.531-.285,3.062-.331,4.594-1.054.007-2.1.06-3.182.133-1.286.1-2.612.239-4.077.4.179-1.889.351-3.653.471-5.343Zm0,0c.1-1.452.179-2.857.186-4.263.424-.006.842-.02,1.266-.033l1.969-.06c1.2-.027,2.4-.119,3.6-.212.053.729.106,1.465.126,2.194.013.868.02,1.73-.027,2.592-.086,1.531-.285,3.062-.331,4.594-1.054.007-2.1.06-3.182.133-1.286.1-2.612.239-4.077.4.179-1.889.351-3.653.471-5.343Zm32.543,27.9c.093-2.068.172-4.1.232-6.119s.106-4.011.133-6.006c.013-1.77.013-3.54-.013-5.31,1.916-.027,3.832-.046,5.747-.093,2.029-.047,4.05-.113,6.079-.2.06,1.909.133,3.825.139,5.734.026,2.035-.007,4.07-.086,6.105l-.252,6.105c-.053,1.85-.053,3.7-.033,5.542-1.883.027-3.765.086-5.681.172l-3.222.166-3.321.179Zm0,0c.093-2.068.172-4.1.232-6.119s.106-4.011.133-6.006c.013-1.77.013-3.54-.013-5.31,1.916-.027,3.832-.046,5.747-.093,2.029-.047,4.05-.113,6.079-.2.06,1.909.133,3.825.139,5.734.026,2.035-.007,4.07-.086,6.105l-.252,6.105c-.053,1.85-.053,3.7-.033,5.542-1.883.027-3.765.086-5.681.172l-3.222.166-3.321.179Zm-32.543-27.9c.1-1.452.179-2.857.186-4.263.424-.006.842-.02,1.266-.033l1.969-.06c1.2-.027,2.4-.119,3.6-.212.053.729.106,1.465.126,2.194.013.868.02,1.73-.027,2.592-.086,1.531-.285,3.062-.331,4.594-1.054.007-2.1.06-3.182.133-1.286.1-2.612.239-4.077.4.179-1.889.351-3.653.471-5.343Zm0,0c.1-1.452.179-2.857.186-4.263.424-.006.842-.02,1.266-.033l1.969-.06c1.2-.027,2.4-.119,3.6-.212.053.729.106,1.465.126,2.194.013.868.02,1.73-.027,2.592-.086,1.531-.285,3.062-.331,4.594-1.054.007-2.1.06-3.182.133-1.286.1-2.612.239-4.077.4.179-1.889.351-3.653.471-5.343Zm32.543,27.9c.093-2.068.172-4.1.232-6.119s.106-4.011.133-6.006c.013-1.77.013-3.54-.013-5.31,1.916-.027,3.832-.046,5.747-.093,2.029-.047,4.05-.113,6.079-.2.06,1.909.133,3.825.139,5.734.026,2.035-.007,4.07-.086,6.105l-.252,6.105c-.053,1.85-.053,3.7-.033,5.542-1.883.027-3.765.086-5.681.172l-3.222.166-3.321.179Zm-34.843-43.773h50.289a6.617,6.617,0,0,1,6.616,6.614v44.775a6.617,6.617,0,0,1-6.615,6.616H382.6v-9.731c1.611.258,3.222.4,4.833.5,1.657.106,3.315.132,4.972.146,1.657-.013,3.315-.046,4.972-.146a48.334,48.334,0,0,0,4.965-.517,46.521,46.521,0,0,0-4.965-.517c-1.657-.106-3.315-.133-4.972-.146-1.657.013-3.315.04-4.972.146a45.785,45.785,0,0,0-4.833.5v-4.813a44.594,44.594,0,0,0,4.939.517c1.644.106,3.288.139,4.932.146,1.651-.013,3.295-.04,4.939-.146a46.077,46.077,0,0,0,4.932-.517,46.141,46.141,0,0,0-4.932-.51c-1.644-.106-3.288-.139-4.939-.152-1.644.013-3.288.04-4.932.146a48.029,48.029,0,0,0-4.939.517v-4.521a47.747,47.747,0,0,0,4.833.5c1.657.106,3.315.133,4.972.146,1.657-.013,3.315-.039,4.972-.146a48.249,48.249,0,0,0,4.965-.517,48.339,48.339,0,0,0-4.965-.517c-1.657-.106-3.315-.133-4.972-.146-1.657.013-3.315.04-4.972.146a47.747,47.747,0,0,0-4.833.5v-.663a6.619,6.619,0,0,0-6.616-6.622h-9.659V107.181a6.613,6.613,0,0,1,6.616-6.616Zm38.953,10.4c-2.8-.106-5.608-.132-8.412-.146-2.8.013-5.608.04-8.413.146s-5.615.239-8.419.517c2.8.278,5.608.418,8.419.517s5.608.133,8.413.146c2.8-.013,5.608-.04,8.412-.146s5.608-.245,8.412-.517C417.506,111.212,414.7,111.066,411.9,110.966Zm0,5.244c-2.8-.106-5.608-.139-8.412-.152-2.8.013-5.608.04-8.413.146s-5.615.245-8.419.517c2.8.278,5.608.424,8.419.517s5.608.139,8.413.146c2.8-.013,5.608-.04,8.412-.146s5.608-.239,8.412-.517c-2.8-.272-5.608-.418-8.412-.51Zm-5.131,16.268c.033,2.075.073,4.15.139,6.2s.135,4.088.225,6.1.179,3.991.285,5.926l3.1.185,3.2.166c2.168.093,4.382.159,6.589.179l.57.007.007-.583c.033-2.035.027-4.07-.033-6.106l-.245-6.105c-.079-2.035-.113-4.07-.086-6.105.007-2.035.086-4.07.152-6.105l.013-.351-.378-.013c-2.141-.093-4.282-.166-6.424-.206s-4.282-.073-6.424-.106l-.663-.013-.013.689C406.747,128.315,406.754,130.4,406.767,132.478Zm-3.281-9.984c2.8-.013,5.608-.04,8.412-.146s5.608-.239,8.412-.51c-2.8-.279-5.608-.424-8.412-.517s-5.608-.133-8.412-.146c-2.8.006-5.608.039-8.413.146s-5.615.239-8.419.517c2.8.272,5.608.418,8.419.517s5.608.133,8.413.139Zm-15.943,12.642c1.644.106,3.288.133,4.932.146,1.651-.013,3.295-.046,4.939-.152a46.061,46.061,0,0,0,4.932-.51,46.078,46.078,0,0,0-4.932-.517c-1.644-.106-3.288-.133-4.939-.146-1.644.007-3.288.04-4.932.146a44.509,44.509,0,0,0-4.939.517,47.934,47.934,0,0,0,4.939.517Zm0-5.051c1.644.106,3.288.132,4.932.146,1.651-.013,3.295-.04,4.939-.146a47.807,47.807,0,0,0,4.932-.517,47.9,47.9,0,0,0-4.932-.517c-1.644-.106-3.288-.133-4.939-.146-1.644.013-3.288.04-4.932.146a46.2,46.2,0,0,0-4.939.517A44.59,44.59,0,0,0,387.542,130.085Zm-13.331-13.212c.119,1.763.292,3.454.471,5.012,1.16.159,2.459.3,3.8.4s2.738.152,4.123.146l.6-.006-.007-.583c0-1.73-.252-3.454-.345-5.177-.053-.862-.046-1.724-.033-2.592s.093-1.724.152-2.585l.02-.331-.384-.033c-1.313-.106-2.625-.206-3.938-.239l-1.969-.06c-.656-.013-1.313-.047-1.969-.047l-.7.007-.007.7C374,113.293,374.092,115.116,374.211,116.873Zm1.22-4.694c.424-.006.842-.02,1.266-.033l1.969-.06c1.2-.027,2.4-.119,3.6-.212.053.729.106,1.465.126,2.194.013.868.02,1.73-.027,2.592-.086,1.531-.285,3.062-.331,4.594-1.054.007-2.1.06-3.182.133-1.286.1-2.612.239-4.077.4.179-1.889.351-3.653.471-5.343.1-1.452.179-2.857.186-4.263Zm32.589,26.04c.066-2.015.106-4.011.133-6.006.013-1.77.013-3.54-.013-5.31,1.916-.027,3.832-.046,5.747-.093,2.029-.047,4.05-.113,6.079-.2.06,1.909.133,3.825.139,5.734.026,2.035-.007,4.07-.086,6.105l-.252,6.105c-.053,1.85-.053,3.7-.033,5.542-1.883.027-3.765.086-5.681.172l-3.222.166-3.321.179.278-6.278c.093-2.068.172-4.1.232-6.119Zm-.232,6.119c.093-2.068.172-4.1.232-6.119s.106-4.011.133-6.006c.013-1.77.013-3.54-.013-5.31,1.916-.027,3.832-.046,5.747-.093,2.029-.047,4.05-.113,6.079-.2.06,1.909.133,3.825.139,5.734.026,2.035-.007,4.07-.086,6.105l-.252,6.105c-.053,1.85-.053,3.7-.033,5.542-1.883.027-3.765.086-5.681.172l-3.222.166-3.321.179Zm-32.543-27.9c.1-1.452.179-2.857.186-4.263.424-.006.842-.02,1.266-.033l1.969-.06c1.2-.027,2.4-.119,3.6-.212.053.729.106,1.465.126,2.194.013.868.02,1.73-.027,2.592-.086,1.531-.285,3.062-.331,4.594-1.054.007-2.1.06-3.182.133-1.286.1-2.612.239-4.077.4.179-1.889.351-3.653.471-5.343Zm0,0c.1-1.452.179-2.857.186-4.263.424-.006.842-.02,1.266-.033l1.969-.06c1.2-.027,2.4-.119,3.6-.212.053.729.106,1.465.126,2.194.013.868.02,1.73-.027,2.592-.086,1.531-.285,3.062-.331,4.594-1.054.007-2.1.06-3.182.133-1.286.1-2.612.239-4.077.4.179-1.889.351-3.653.471-5.343Zm32.543,27.9c.093-2.068.172-4.1.232-6.119s.106-4.011.133-6.006c.013-1.77.013-3.54-.013-5.31,1.916-.027,3.832-.046,5.747-.093,2.029-.047,4.05-.113,6.079-.2.06,1.909.133,3.825.139,5.734.026,2.035-.007,4.07-.086,6.105l-.252,6.105c-.053,1.85-.053,3.7-.033,5.542-1.883.027-3.765.086-5.681.172l-3.222.166-3.321.179Zm0,0c.093-2.068.172-4.1.232-6.119s.106-4.011.133-6.006c.013-1.77.013-3.54-.013-5.31,1.916-.027,3.832-.046,5.747-.093,2.029-.047,4.05-.113,6.079-.2.06,1.909.133,3.825.139,5.734.026,2.035-.007,4.07-.086,6.105l-.252,6.105c-.053,1.85-.053,3.7-.033,5.542-1.883.027-3.765.086-5.681.172l-3.222.166-3.321.179Zm-32.543-27.9c.1-1.452.179-2.857.186-4.263.424-.006.842-.02,1.266-.033l1.969-.06c1.2-.027,2.4-.119,3.6-.212.053.729.106,1.465.126,2.194.013.868.02,1.73-.027,2.592-.086,1.531-.285,3.062-.331,4.594-1.054.007-2.1.06-3.182.133-1.286.1-2.612.239-4.077.4.179-1.889.351-3.653.471-5.343Zm0,0c.1-1.452.179-2.857.186-4.263.424-.006.842-.02,1.266-.033l1.969-.06c1.2-.027,2.4-.119,3.6-.212.053.729.106,1.465.126,2.194.013.868.02,1.73-.027,2.592-.086,1.531-.285,3.062-.331,4.594-1.054.007-2.1.06-3.182.133-1.286.1-2.612.239-4.077.4.179-1.889.351-3.653.471-5.343Zm32.543,27.9c.093-2.068.172-4.1.232-6.119s.106-4.011.133-6.006c.013-1.77.013-3.54-.013-5.31,1.916-.027,3.832-.046,5.747-.093,2.029-.047,4.05-.113,6.079-.2.06,1.909.133,3.825.139,5.734.026,2.035-.007,4.07-.086,6.105l-.252,6.105c-.053,1.85-.053,3.7-.033,5.542-1.883.027-3.765.086-5.681.172l-3.222.166-3.321.179Zm-32.543-27.9c.1-1.452.179-2.857.186-4.263.424-.006.842-.02,1.266-.033l1.969-.06c1.2-.027,2.4-.119,3.6-.212.053.729.106,1.465.126,2.194.013.868.02,1.73-.027,2.592-.086,1.531-.285,3.062-.331,4.594-1.054.007-2.1.06-3.182.133-1.286.1-2.612.239-4.077.4.179-1.889.351-3.653.471-5.343Zm0,0c.1-1.452.179-2.857.186-4.263.424-.006.842-.02,1.266-.033l1.969-.06c1.2-.027,2.4-.119,3.6-.212.053.729.106,1.465.126,2.194.013.868.02,1.73-.027,2.592-.086,1.531-.285,3.062-.331,4.594-1.054.007-2.1.06-3.182.133-1.286.1-2.612.239-4.077.4.179-1.889.351-3.653.471-5.343ZM154.6,127.977c5.208.035,10.416.033,15.624.1l15.624.223c5.208.095,10.416.107,15.624.146,2.618.017,5.177.037,7.843-.018a7.654,7.654,0,0,0,6.533-4.554,7.173,7.173,0,0,0,.558-2.006,8.108,8.108,0,0,0,.073-1.039l-.008-.98-.043-3.906-.087-7.812-.089-7.812-.039-7.812c-.04-5.208-.017-10.416,0-15.624l.013-3.906a10.041,10.041,0,0,0-.133-1.993,7.8,7.8,0,0,0-.66-1.905,7.4,7.4,0,0,0-2.708-2.953A7.493,7.493,0,0,0,208.864,65c-10.416-.076-20.832-.208-31.247-.24l-15.624-.062c-2.62-.006-5.171-.032-7.849.017a7.769,7.769,0,0,0-6.64,4.612,7.6,7.6,0,0,0-.579,2.037,8.254,8.254,0,0,0-.083,1.057v.98l.006,3.906c0,2.6,0,5.208.036,7.812.052,5.208.083,10.416.179,15.624l.232,15.624.041,3.906a9.834,9.834,0,0,0,.159,1.967,7.666,7.666,0,0,0,.674,1.859,7.253,7.253,0,0,0,6.435,3.88Zm0-.122a7.1,7.1,0,0,1-3.667-1.059,7.024,7.024,0,0,1-2.58-2.8,7.445,7.445,0,0,1-.633-1.809,9.582,9.582,0,0,1-.131-1.92l.041-3.906.232-15.624c.1-5.208.128-10.416.179-15.624.033-2.6.034-5.208.036-7.812l.006-3.906,0-.972a7,7,0,0,1,.074-.888,6.33,6.33,0,0,1,.489-1.7,6.5,6.5,0,0,1,5.565-3.843c.285-.02.608-.022.939-.019l.976,0,1.953,0,3.906-.011,15.624-.062c10.416-.032,20.832-.163,31.247-.24a6.869,6.869,0,0,1,6.108,3.654,7.289,7.289,0,0,1,.647,1.763,9.336,9.336,0,0,1,.157,1.895l.013,3.906c.02,5.208.043,10.416,0,15.624l-.04,7.812-.089,7.812-.087,7.812-.043,3.906-.013.973a7.14,7.14,0,0,1-.084.906,6.79,6.79,0,0,1-.51,1.736,6.613,6.613,0,0,1-5.672,3.9l-7.78.025c-5.208.038-10.416.051-15.624.146l-15.624.223C165.02,127.822,159.812,127.82,154.6,127.854Z" transform="translate(-119.807 -63.076)" fill="#5504b0"/>
      <path id="Path_45438" data-name="Path 45438" d="M502.058,198.075c5.208.035,10.416.033,15.624.1l15.624.223c5.208.095,10.416.107,15.624.146,2.618.018,5.177.037,7.843-.018a7.652,7.652,0,0,0,6.533-4.554,7.179,7.179,0,0,0,.558-2.006,8.133,8.133,0,0,0,.073-1.039l-.008-.98-.043-3.906-.087-7.812-.089-7.812-.04-7.812c-.04-5.208-.017-10.416,0-15.624l.013-3.906a10.04,10.04,0,0,0-.133-1.993,7.8,7.8,0,0,0-.66-1.906,7.4,7.4,0,0,0-2.708-2.953,7.493,7.493,0,0,0-3.866-1.128c-10.416-.077-20.832-.208-31.248-.24l-15.624-.062c-2.62-.006-5.171-.033-7.849.017a7.769,7.769,0,0,0-6.64,4.612,7.6,7.6,0,0,0-.579,2.037,8.266,8.266,0,0,0-.084,1.057v.98l.006,3.906c0,2.6,0,5.208.036,7.812.052,5.208.083,10.416.18,15.624l.232,15.624.041,3.906a9.844,9.844,0,0,0,.158,1.967,7.665,7.665,0,0,0,.674,1.859,7.251,7.251,0,0,0,6.435,3.88Zm0-.122a7.1,7.1,0,0,1-3.668-1.059,7.03,7.03,0,0,1-2.58-2.8,7.433,7.433,0,0,1-.633-1.809,9.576,9.576,0,0,1-.131-1.92l.041-3.906.232-15.624c.1-5.208.128-10.416.179-15.624.032-2.6.034-5.208.036-7.812l.006-3.906,0-.972a7.015,7.015,0,0,1,.074-.888,6.342,6.342,0,0,1,.489-1.7,6.5,6.5,0,0,1,5.565-3.843c.285-.02.608-.022.938-.019h.977l1.953,0,3.906-.011L525.071,136c10.416-.032,20.832-.163,31.248-.24a6.869,6.869,0,0,1,6.108,3.654,7.3,7.3,0,0,1,.647,1.762,9.341,9.341,0,0,1,.157,1.895l.013,3.906c.02,5.208.043,10.416,0,15.624l-.04,7.812-.089,7.812-.087,7.812-.043,3.906-.013.973a7.109,7.109,0,0,1-.084.906,6.773,6.773,0,0,1-.51,1.736,6.612,6.612,0,0,1-5.672,3.9l-7.78.025c-5.208.038-10.416.051-15.624.146l-15.624.223c-5.208.066-10.416.063-15.624.1Z" transform="translate(-494.295 -84.673)" fill="#5504b0"/>
      <path id="Path_45439" data-name="Path 45439" d="M139.419,135.717a7.139,7.139,0,0,1,7.139,7.14V149.8H112.193a7.14,7.14,0,0,1-7.14-7.139v-6.945Zm219.55,110.858c9.653-.019,19.307.176,28.96.322,4.827.095,9.653.107,14.48.146,2.427.018,4.8.036,7.271-.017a7.131,7.131,0,0,0,6.086-4.245,6.666,6.666,0,0,0,.519-1.869,7.561,7.561,0,0,0,.067-.968l-.008-.908-.043-3.62-.087-7.24-.089-7.24-.039-7.24c-.04-4.827-.017-9.653,0-14.48l.013-3.62a9.343,9.343,0,0,0-.122-1.851,7.26,7.26,0,0,0-.612-1.771,6.882,6.882,0,0,0-2.515-2.747,6.967,6.967,0,0,0-3.595-1.051q-14.48-.176-28.96-.24l-14.48-.062c-2.43-.007-4.79-.031-7.277.016a7.247,7.247,0,0,0-6.193,4.3,7.087,7.087,0,0,0-.54,1.9,7.7,7.7,0,0,0-.078.986v.909l.006,3.62c0,2.413,0,4.827.036,7.24.052,4.827.083,9.653.179,14.48l.232,14.48.041,3.62a9.14,9.14,0,0,0,.148,1.825,7.1,7.1,0,0,0,.626,1.725A6.746,6.746,0,0,0,358.969,246.576Zm0-.122a6.579,6.579,0,0,1-5.783-3.572,6.889,6.889,0,0,1-.585-1.674,8.861,8.861,0,0,1-.121-1.778l.041-3.62.232-14.48c.1-4.827.128-9.653.18-14.48.032-2.413.034-4.827.036-7.24l.006-3.62,0-.9a6.442,6.442,0,0,1,.068-.816,5.828,5.828,0,0,1,.45-1.568,5.974,5.974,0,0,1,5.118-3.533c.261-.019.561-.02.867-.017l.9,0,1.81,0,3.62-.011,14.48-.062q14.48-.053,28.96-.24a6.363,6.363,0,0,1,5.644,3.371,6.754,6.754,0,0,1,.6,1.628,8.621,8.621,0,0,1,.146,1.752l.013,3.62c.02,4.827.043,9.653,0,14.48l-.04,7.24-.089,7.24-.087,7.24-.043,3.62-.013.9a6.621,6.621,0,0,1-.079.835,6.281,6.281,0,0,1-.471,1.6,6.09,6.09,0,0,1-5.225,3.591l-7.208.023c-4.827.038-9.653.051-14.48.146-9.653.145-19.306.341-28.96.322Z" transform="translate(-77.396 -84.962)" fill="#5504b0"/>
      <path id="Path_45440" data-name="Path 45440" d="M215.127,172.728l.139.02v-.04Zm0,9.374.139.02v-.04Z" transform="translate(47.531 -96.359)" fill="#5504b0"/>
      <path id="Path_45441" data-name="Path 45441" d="M273.535,175.5c-2.8-.252-5.61-.385-8.414-.474s-5.61-.123-8.414-.135c-2.8.01-5.61.037-8.414.133s-5.609.222-8.414.476c2.8.254,5.61.387,8.414.476s5.61.123,8.414.134c2.8-.012,5.61-.038,8.414-.136S270.73,175.748,273.535,175.5Zm0,5.239c-2.8-.252-5.61-.384-8.414-.474s-5.61-.123-8.414-.136c-2.8.011-5.61.037-8.414.134s-5.609.222-8.414.476c2.8.254,5.61.387,8.414.476s5.61.123,8.414.133c2.8-.012,5.61-.038,8.414-.135S270.73,180.987,273.535,180.734Zm0,5.113c-2.8-.252-5.61-.385-8.414-.474s-5.61-.123-8.414-.135c-2.8.011-5.61.037-8.414.134s-5.609.222-8.414.476c2.8.254,5.61.387,8.414.476s5.61.123,8.414.134c2.8-.012,5.61-.038,8.414-.135S270.73,186.1,273.535,185.847Zm-45.629.043c1.175.149,2.472.275,3.813.366s2.73.145,4.108.135l.545,0v-.54c0-1.725-.232-3.451-.321-5.176-.047-.863-.041-1.725-.027-2.588s.085-1.725.138-2.588l.019-.307-.353-.027c-1.313-.1-2.626-.192-3.939-.223l-1.969-.053c-.657-.015-1.313-.045-1.969-.039l-.643,0-.007.645c-.019,1.8.067,3.617.174,5.373S227.742,184.319,227.906,185.89Zm.086-.086c.164-1.88.323-3.637.433-5.33s.192-3.331.173-4.978l-.65.65c.656.005,1.313-.025,1.969-.039l1.969-.053c1.313-.031,2.626-.125,3.939-.223l-.334-.334c.052.863.118,1.725.138,2.588s.02,1.725-.027,2.588c-.089,1.725-.316,3.451-.321,5.176l.544-.544c-1.248-.01-2.486.049-3.77.135S229.443,185.655,227.992,185.8Zm32.648,28.915,3.112.169,3.207.15c2.165.086,4.372.151,6.576.167l.523,0,.007-.533c.026-2.035.025-4.071-.029-6.106l-.228-6.106q-.109-3.054-.081-6.107c.007-2.035.08-4.071.143-6.106l.01-.321-.344-.013c-2.142-.082-4.284-.151-6.426-.191l-6.426-.1-.61-.009-.01.63c-.034,2.072-.032,4.152-.015,6.228s.063,4.146.131,6.194C260.283,206.78,260.454,210.825,260.64,214.719Zm.086-.086c.186-4.248.356-8.345.461-12.379.069-2.022.106-4.022.131-6.019s.019-3.987-.015-5.985l-.621.621,6.426-.1c2.142-.04,4.284-.109,6.426-.191l-.334-.334c.063,2.035.136,4.071.143,6.106s-.006,4.071-.081,6.107l-.228,6.106c-.054,2.035-.055,4.071-.029,6.106l.529-.529c-2.08.016-4.156.081-6.276.167Zm-5.156-21.052c-2.286-.253-4.573-.385-6.859-.474s-4.573-.123-6.859-.135c-2.286.011-4.573.037-6.859.134s-4.573.222-6.859.476c2.286.254,4.573.386,6.859.476s4.573.123,6.859.134c2.286-.012,4.573-.038,6.859-.135S253.284,193.833,255.571,193.581Zm0,5.048c-2.286-.253-4.573-.385-6.859-.474s-4.573-.123-6.859-.135c-2.286.011-4.573.037-6.859.134s-4.573.222-6.859.476c2.286.254,4.573.386,6.859.476s4.573.123,6.859.134c2.286-.012,4.573-.038,6.859-.136S253.284,198.88,255.571,198.628Zm0,4.828c-2.3-.252-4.6-.385-6.894-.474s-4.6-.123-6.894-.135c-2.3.011-4.6.037-6.893.133s-4.6.222-6.894.476c2.3.254,4.6.387,6.894.476s4.6.123,6.893.134c2.3-.012,4.6-.038,6.894-.136S253.273,203.709,255.571,203.457Zm0,4.544c-2.286-.253-4.573-.384-6.859-.474s-4.573-.123-6.859-.136c-2.286.011-4.573.037-6.859.134s-4.573.222-6.859.476c2.286.254,4.573.386,6.859.476s4.573.123,6.859.134c2.286-.012,4.573-.038,6.859-.135S253.284,208.254,255.571,208Zm0,4.828c-2.3-.252-4.6-.384-6.894-.474s-4.6-.123-6.894-.135c-2.3.011-4.6.037-6.893.134s-4.6.222-6.894.476c2.3.254,4.6.386,6.894.476s4.6.123,6.893.134c2.3-.012,4.6-.038,6.894-.135S253.273,213.082,255.571,212.83Z" transform="translate(-19.705 -97.017)" fill="#5504b0"/>
      <path id="Path_45442" data-name="Path 45442" d="M382.917,208.355c9.653-.019,19.307.177,28.96.322,4.827.095,9.653.107,14.48.146,2.427.018,4.8.036,7.271-.017a7.131,7.131,0,0,0,6.086-4.245,6.66,6.66,0,0,0,.519-1.869,7.549,7.549,0,0,0,.067-.968l-.009-.908-.043-3.62-.087-7.24-.089-7.24-.04-7.24c-.04-4.827-.017-9.653,0-14.48l.013-3.62a9.327,9.327,0,0,0-.122-1.851,7.255,7.255,0,0,0-.612-1.771,6.879,6.879,0,0,0-2.515-2.746,6.967,6.967,0,0,0-3.595-1.051q-14.48-.176-28.96-.24l-14.48-.062c-2.43-.007-4.79-.031-7.277.016a7.247,7.247,0,0,0-6.193,4.3,7.079,7.079,0,0,0-.539,1.9,7.693,7.693,0,0,0-.078.986v.909l.006,3.62c0,2.413,0,4.827.036,7.24.052,4.827.083,9.653.179,14.48l.232,14.48.041,3.62a9.125,9.125,0,0,0,.148,1.825,7.1,7.1,0,0,0,.626,1.725,6.745,6.745,0,0,0,5.971,3.6Zm0-.122a6.578,6.578,0,0,1-5.783-3.572,6.892,6.892,0,0,1-.585-1.675,8.872,8.872,0,0,1-.121-1.778l.041-3.62.232-14.48c.1-4.827.128-9.653.179-14.48.032-2.413.034-4.827.036-7.24l.006-3.62,0-.9a6.42,6.42,0,0,1,.068-.816,5.828,5.828,0,0,1,.45-1.568,5.974,5.974,0,0,1,5.118-3.533c.261-.019.561-.02.867-.017h.905l1.81,0,3.62-.011,14.48-.062q14.48-.054,28.96-.24A6.363,6.363,0,0,1,438.849,154a6.742,6.742,0,0,1,.6,1.628,8.634,8.634,0,0,1,.146,1.752l.013,3.62c.02,4.827.043,9.653,0,14.48l-.039,7.24-.089,7.24-.087,7.24-.043,3.62-.013.9a6.564,6.564,0,0,1-.079.834,6.274,6.274,0,0,1-.471,1.6,6.091,6.091,0,0,1-5.225,3.591l-7.208.023c-4.827.038-9.653.051-14.48.145C402.224,208.056,392.571,208.252,382.917,208.233ZM263.47,124.4c-4.086-.335-8.173-.511-12.259-.63s-8.173-.164-12.259-.18c-4.086.014-8.173.049-12.259.177s-8.173.3-12.259.633c4.086.338,8.173.514,12.259.633s8.173.163,12.259.177c4.086-.016,8.173-.051,12.259-.18S259.383,124.731,263.47,124.4Z" transform="translate(-177.025 -81.224)" fill="#5504b0"/>
      <path id="Path_45443" data-name="Path 45443" d="M488.327,76.588c-.336,3.183-.511,6.365-.63,9.548s-.164,6.365-.18,9.548c.014,3.183.049,6.365.178,9.548s.3,6.365.633,9.548c.337-3.183.514-6.365.633-9.548s.163-6.365.178-9.548c-.016-3.183-.051-6.365-.18-9.548S488.663,79.771,488.327,76.588ZM475.1,110.149c1.414.086,2.894.16,4.4.219s3.045.1,4.578.112l.353,0,.006-.363c.042-2.475-.1-4.951-.193-7.426-.035-1.238-.057-2.476-.032-3.713,0-1.238.046-2.476.088-3.713l.007-.213-.229-.009q-2.238-.092-4.476-.136l-4.475-.065-.419-.006,0,.429c-.011,1.262-.017,2.531.007,3.792s.05,2.522.09,3.769C474.866,105.332,474.985,107.785,475.1,110.149Zm.057-.057c.115-2.586.233-5.084.3-7.533.04-1.228.077-2.446.09-3.657s.017-2.421.006-3.634l-.423.423,4.475-.065q2.238-.045,4.475-.136l-.222-.222c.042,1.237.083,2.475.088,3.713.025,1.237,0,2.475-.032,3.713-.089,2.475-.235,4.951-.193,7.426l.359-.359c-1.451.014-2.893.04-4.373.112s-2.98.133-4.549.219Z" transform="translate(-405.936 -66.744)" fill="#5504b0"/>
      <path id="Path_45444" data-name="Path 45444" d="M494.792,115.062c1.435.061,2.908.138,4.416.183s3.032.106,4.563.113l.321,0,0-.326c.019-1.842.055-3.684.029-5.526s-.1-3.684-.147-5.526q-.1-2.763-.08-5.526t.094-5.526l.006-.215-.228-.007q-4.475-.139-8.951-.172l-.39,0,0,.4c-.019,1.865-.042,3.737-.032,5.607s.027,3.739.075,5.59.073,3.706.139,5.524Zm.057-.057.183-5.641c.066-1.865.092-3.693.139-5.527s.064-3.646.075-5.462-.012-3.625-.032-5.445l-.394.394q4.475-.037,8.951-.172l-.222-.222q.08,2.763.094,5.526t-.08,5.526c-.049,1.842-.126,3.684-.147,5.526s.01,3.684.03,5.526l.325-.325c-1.452.007-2.907.059-4.388.113Z" transform="translate(-434.562 -71.656)" fill="#5504b0"/>
      <path id="Path_45445" data-name="Path 45445" d="M507.725,113.616l4.421.172c1.5.039,3.028.11,4.559.114h.313l0-.316c.013-2.113.065-4.227.045-6.34s-.086-4.226-.14-6.34c-.069-2.113-.088-4.227-.095-6.34l.026-3.17.07-3.17,0-.216-.227-.006c-2.984-.081-5.967-.141-8.951-.163l-.382,0,0,.388c-.015,2.135-.052,4.28-.04,6.421s.029,4.281.067,6.407.074,4.249.141,6.339Zm.057-.057.189-6.459.141-6.341c.038-2.1.069-4.189.067-6.273s-.025-4.167-.04-6.259l-.385.385c2.984-.022,5.967-.083,8.951-.163l-.222-.222.07,3.17.026,3.17c-.007,2.113-.025,4.227-.095,6.34-.053,2.113-.128,4.227-.139,6.34s.033,4.227.045,6.34l.315-.315c-1.453,0-2.913.074-4.392.114Z" transform="translate(-456.446 -70.21)" fill="#5504b0"/>
      <path id="Path_45446" data-name="Path 45446" d="M554.742,115.062c1.435.061,2.908.138,4.416.183s3.032.106,4.563.113l.321,0,0-.326c.019-1.842.055-3.684.03-5.526s-.1-3.684-.147-5.526q-.1-2.763-.08-5.526t.094-5.526l.006-.215-.228-.007q-4.475-.139-8.951-.172l-.39,0,0,.4c-.019,1.865-.042,3.737-.032,5.607s.027,3.739.075,5.59.073,3.706.139,5.524ZM554.8,115l.183-5.641c.066-1.865.092-3.693.139-5.527s.064-3.646.075-5.462-.012-3.625-.032-5.445l-.394.394q4.475-.037,8.951-.172l-.222-.222q.08,2.763.094,5.526t-.08,5.526c-.049,1.842-.126,3.684-.147,5.526s.01,3.684.029,5.526l.325-.325c-1.452.007-2.907.059-4.388.113Zm8.828,54c-1.274-3.617-2.635-7.2-4.049-10.756q-1.055-2.67-2.152-5.324l-.136-.332a2.441,2.441,0,0,0-.228-.415,1.979,1.979,0,0,0-.708-.644,2.2,2.2,0,0,0-1.849-.126,2.238,2.238,0,0,0-.79.54,2.838,2.838,0,0,0-.455.741l-.613,1.3c-1.613,3.473-3.145,6.986-4.8,10.44l-.626,1.292a3.25,3.25,0,0,1-.327.594,1.261,1.261,0,0,1-.489.394,1.442,1.442,0,0,1-1.228.01,1.285,1.285,0,0,1-.491-.384,2.98,2.98,0,0,1-.331-.585c-.856-1.712-1.666-3.448-2.5-5.171q-2.457-5.193-5.013-10.336l-1.279-2.571-.64-1.285-.32-.643c-.062-.118-.086-.19-.18-.346a2.18,2.18,0,0,0-.288-.4,2.255,2.255,0,0,0-3.5.21,2.925,2.925,0,0,0-.237.414l-.151.326-.3.652-.6,1.3c-3.151,6.979-6.228,13.991-9.083,21.106l.111.051c3.557-6.791,6.892-13.685,10.154-20.612l.6-1.3.3-.652.15-.326a1.533,1.533,0,0,1,.118-.208.991.991,0,0,1,1.5-.1,1.885,1.885,0,0,1,.288.464l.334.636.667,1.271,1.334,2.543q2.661,5.089,5.44,10.118c.908,1.685,1.84,3.359,2.726,5.055a2.135,2.135,0,0,0,1.032,1.131,1.82,1.82,0,0,0,1.549-.026,2.15,2.15,0,0,0,.991-1.155l.643-1.284c1.732-3.415,3.583-6.77,5.353-10.166l.655-1.278a2,2,0,0,1,.3-.475,1.167,1.167,0,0,1,.387-.261,1.11,1.11,0,0,1,.924.07.985.985,0,0,1,.345.31,1.35,1.35,0,0,1,.122.21l.141.33q1.122,2.643,2.276,5.272c1.539,3.506,3.13,6.99,4.808,10.438Z" transform="translate(-512.413 -71.656)" fill="#5504b0"/>
      <path id="Path_45447" data-name="Path 45447" d="M551.134,192.032c-1.274-3.617-2.635-7.2-4.049-10.756q-1.055-2.67-2.152-5.324l-.136-.332a2.446,2.446,0,0,0-.228-.415,1.98,1.98,0,0,0-.708-.644,2.2,2.2,0,0,0-1.849-.126,2.238,2.238,0,0,0-.79.54,2.832,2.832,0,0,0-.455.741l-.613,1.3c-1.613,3.473-3.146,6.986-4.8,10.44l-.626,1.292a3.238,3.238,0,0,1-.327.594,1.263,1.263,0,0,1-.489.394,1.442,1.442,0,0,1-1.228.01,1.284,1.284,0,0,1-.491-.384,2.974,2.974,0,0,1-.331-.585c-.856-1.712-1.666-3.448-2.5-5.171q-2.457-5.193-5.013-10.336l-1.279-2.571-.64-1.285-.32-.643c-.062-.118-.087-.19-.18-.346a2.181,2.181,0,0,0-.288-.4,2.255,2.255,0,0,0-3.5.21,2.92,2.92,0,0,0-.237.414l-.151.326-.3.652-.6,1.3c-3.151,6.979-6.229,13.991-9.083,21.106l.111.051c3.558-6.791,6.892-13.685,10.154-20.612l.6-1.3.3-.652.15-.326a1.516,1.516,0,0,1,.117-.208.991.991,0,0,1,1.5-.1,1.891,1.891,0,0,1,.288.464l.334.636.667,1.271,1.334,2.543q2.661,5.089,5.44,10.118c.908,1.685,1.84,3.359,2.726,5.055a2.136,2.136,0,0,0,1.032,1.131,1.82,1.82,0,0,0,1.549-.026,2.15,2.15,0,0,0,.991-1.155l.643-1.284c1.732-3.415,3.583-6.77,5.353-10.166l.655-1.278a2,2,0,0,1,.3-.475,1.167,1.167,0,0,1,.387-.261,1.11,1.11,0,0,1,.924.07.986.986,0,0,1,.345.31,1.351,1.351,0,0,1,.122.21l.141.33q1.122,2.643,2.276,5.272c1.539,3.506,3.13,6.99,4.808,10.438Z" transform="translate(-490.818 -94.687)" fill="#5504b0"/>
      <path id="Path_45448" data-name="Path 45448" d="M143.032,192.712a1.618,1.618,0,0,0,2.892-.021l3.042-6.176,3.167,6.2a1.618,1.618,0,0,0,2.892-.021l3.263-6.624,3.977,9.517H128.117l7.77-16.85Zm273.783,39-2.479,17.455c.04.007.079.007.113.013q.378.04.756.06h.079A17.925,17.925,0,0,0,432.8,238.085c.006-.033.02-.06.026-.086.093-.225.186-.457.265-.689.04-.106.073-.219.106-.325.053-.159.106-.325.159-.491.086-.278.159-.564.232-.848.079-.318.146-.643.212-.961.013-.073.02-.146.033-.219.046-.258.086-.51.119-.769.013-.066.02-.133.027-.2.033-.272.06-.537.08-.809a1.075,1.075,0,0,0,.007-.146c.02-.292.033-.59.04-.882v-.073a17.8,17.8,0,0,0-.895-5.847c-.013-.033-.027-.073-.04-.106q-.129-.4-.278-.776l-.08-.2c-.093-.225-.192-.451-.292-.676-.033-.079-.066-.152-.1-.225-.113-.232-.225-.457-.338-.683-.033-.06-.066-.119-.093-.179q-.229-.428-.477-.835c-.027-.04-.053-.08-.079-.126-.139-.225-.285-.451-.431-.669-.06-.086-.119-.166-.179-.245-.026-.04-.053-.08-.079-.113Zm-.517-1.292,13.63-10.567a17.9,17.9,0,0,0-24.482-2.837Zm-4.4,18.323c.371.093.749.173,1.12.239l2.473-17.441L404.4,217.853c-.179.159-.351.318-.524.484-.04.033-.073.066-.106.1-.332.318-.656.65-.961.994a.006.006,0,0,1,0,0l0,0a17.774,17.774,0,0,0-1.73,2.294c-.007.007-.007.013-.013.02a17.866,17.866,0,0,0-1.332,2.519.094.094,0,0,0-.013.04c-.179.411-.331.829-.477,1.253-.027.073-.053.146-.073.219-.139.418-.265.842-.371,1.273A17.916,17.916,0,0,0,411.9,248.745Z" transform="translate(-111.108 -98.215)" fill="#5504b0"/>
      <path id="Path_45449" data-name="Path 45449" d="M159.316,237.939l-.325-.418c.106.139.212.285.312.431Zm-.815-1.054-.013.013c.139.166.278.338.418.51Zm-15.7,29.321c-.146-.02-.292-.033-.437-.053l.53.073v-.013C142.869,266.212,142.836,266.205,142.8,266.205Zm-.736-.1c-.166-.02-.325-.046-.491-.079v.013Zm-8.074-32.059-.517.424c.172-.139.351-.279.53-.411Zm-1.034.842.007.006c.159-.139.325-.278.491-.411Z" transform="translate(160.332 -115.257)" fill="#5504b0"/>
    </g>
  </g>
</svg>
