<svg xmlns="http://www.w3.org/2000/svg" width="454.689" height="229.684" xmlns:v="https://vecta.io/nano"><path d="M22.045 47.969l.483 5.508 15.39 175.6H334.69V0" fill="#fbd206"/><g fill="#5504b0"><path d="M165.022 102.979a33.22 33.22 0 0 1 4.247-10.973c1.077-1.628 2.294-3.13 4.084-3.593a12.24 12.24 0 0 1 5.585-.08l5.844 1.21c1.021.211 2.058.338 3.1.38 1.14.07 2.279-.163 3.3-.675 1.034-.551 1.88-1.399 2.427-2.435a10.26 10.26 0 0 0 1.01-3.076l.244-1.435c.109-.4.278-.782.5-1.132.491-.793 1.074-1.526 1.736-2.183l-.479-1.226c.007-.008.017-.012.027-.012s.02.004.027.012c-.009 0-.059-.034-.089-.047a1.62 1.62 0 0 1-.254-.17c-.197-.156-.385-.323-.563-.5a19.48 19.48 0 0 1-1.1-1.165l-2.062-2.532-.77.752c.121.069.249.125.381.169l.268.051c.181.033.326.033.49.05l.917.018 1.788-.067 3.537-.286h.007a.37.37 0 0 0 .311-.237c.179-.478.386-.945.618-1.4.231-.429.506-.93.815-1.051.918-.351 1.985-.581 2.989-.862 1.046-.254 2.077-.569 3.087-.942.308-.161.528-.45.6-.79.059-.297.059-.603 0-.9-.104-.543-.275-1.071-.51-1.571a37.84 37.84 0 0 0-3.292-5.453 10.09 10.09 0 0 1-1.379-2.7 5.62 5.62 0 0 1-.233-2.832l-.015.045a24.63 24.63 0 0 0 1.358-5.3 46.32 46.32 0 0 0 .513-5.4 78.59 78.59 0 0 0 .04-5.406l-.3-5.407c-.039-.403-.349-.726-.749-.783s-.788.168-.937.544l-.013.034c-1.055 2.661-2.307 5.24-3.745 7.715-1.417 2.469-3.072 4.792-4.943 6.937-1.789 2.121-4.008 3.837-6.51 5.037-1.219.56-2.534.881-3.874.945a12.2 12.2 0 0 1-3.964-.532l.613.735c-.254-1.446-.708-2.85-1.348-4.171-.333-.691-.76-1.333-1.269-1.908-.563-.629-1.29-1.09-2.1-1.329a4.48 4.48 0 0 0-1.28-.113c-.41.042-.813.135-1.2.277a6.17 6.17 0 0 0-2.01 1.174 7.71 7.71 0 0 0-2.27 3.809c-.426 1.337-.76 2.702-1 4.085-.265 1.399-.32 2.83-.165 4.245.102 1.494.883 2.86 2.119 3.706a6.07 6.07 0 0 0 4.15.5.1.1 0 0 0 .079-.109.1.1 0 0 0-.1-.08c-1.329.192-2.683-.072-3.843-.748-1.017-.816-1.603-2.053-1.589-3.357a20.36 20.36 0 0 1 1.538-7.844 6.5 6.5 0 0 1 2.026-3.108 4.7 4.7 0 0 1 1.561-.846c.262-.089.535-.145.811-.167a1.41 1.41 0 0 1 .385.027c.123.028.261-.008.373.065 1.058.475 1.873 1.364 2.255 2.459.522 1.179.882 2.424 1.069 3.7v.005a.92.92 0 0 0 .613.73 13.07 13.07 0 0 0 4.633.727 12.44 12.44 0 0 0 4.582-1.043 20.57 20.57 0 0 0 7.236-5.525c1.954-2.257 3.66-4.717 5.087-7.339a59.33 59.33 0 0 0 3.738-8.062l-1.7-.2.422 5.28a74.41 74.41 0 0 1 .124 5.3l-.273 5.277a22.87 22.87 0 0 1-1.059 5.107l-.012.034v.012a6.39 6.39 0 0 0 .37 3.378 10.88 10.88 0 0 0 1.6 2.844 35.23 35.23 0 0 1 3.319 5.286c.22.449.384.924.488 1.414.1.476.04.926-.294 1.086-.465.192-.944.348-1.433.466l-1.521.4-3.088.844c-.161.061-.308.153-.431.273-.11.104-.211.218-.3.341a6.12 6.12 0 0 0-.449.705 14.15 14.15 0 0 0-.7 1.465l.317-.237-3.508.117a35.91 35.91 0 0 1-1.74-.022 13.43 13.43 0 0 1-.846-.058l-.385-.059-.164-.038c-.018-.014-.008-.014-.024 0l-.7.421c-.053.032-.091.084-.106.144s-.005.123.027.176l.008.012a47.42 47.42 0 0 0 1.987 2.7l1.11 1.3a7.84 7.84 0 0 0 .65.628c.13.115.27.218.419.308.216.149.469.236.731.251l-.479-1.226c-.793.71-1.498 1.513-2.1 2.392a5.5 5.5 0 0 0-.737 1.577l-.3 1.506a9.73 9.73 0 0 1-.883 2.575 4.14 4.14 0 0 1-1.733 1.734c-1.452.784-3.407.543-5.327.225s-3.871-.808-5.895-1.1a12.59 12.59 0 0 0-6.249.308 8.11 8.11 0 0 0-1.471.715l-.647.5a3.06 3.06 0 0 0-.593.554l-.54.6c-.165.205-.3.42-.454.629-.309.413-.567.857-.833 1.295a24.35 24.35 0 0 0-2.361 5.595c-.58 1.925-.977 3.9-1.187 5.9a.1.1 0 0 0 .085.1.1.1 0 0 0 .1-.079z"/><path d="M171.837 65.557a13.36 13.36 0 0 1 1.256 9.365c-1.256 5.254.813 12.626.813 12.626s5.24 18.668-10.179 15.413-39.746-11.65-44.029-28.61c0 0 4.7-12.048 7.367-15.933 6.011-8.746 16.1-31.694 21.072-35.12 1.111-1.727 2.559-3.212 4.256-4.367a25.75 25.75 0 0 1 17.819-4.795c9.315.867 24.315 4.717 32.747 19.783 0 0-8.163 25.4-24.156 20.672 0 0-1.261-8.985-6.757-6.284-1.433.743-2.533 1.999-3.081 3.518-1.45 3.803-3.761 12.067 2.872 13.732z"/><path d="M200.905 54.651a6.05 6.05 0 0 0-1.3-1.48 7.97 7.97 0 0 0-1.652-1.086c-.605-.294-1.252-.492-1.917-.587a3.83 3.83 0 0 0-1.984.241 12.98 12.98 0 0 1 3.486 1.2l3.367 1.712zm-4.288 5.029a1.43 1.43 0 0 1-1.076-2.419 1.43 1.43 0 0 1 2.455.991 1.43 1.43 0 0 1-1.379 1.428zm-76.924 14.54a48.84 48.84 0 0 0-9.789 1.195 66.49 66.49 0 0 0-9.484 2.8 78.82 78.82 0 0 0-9.057 4.029l-4.306 2.469-2.114 1.3-2.047 1.405c-5.436 3.79-10.419 8.193-14.849 13.122a106.13 106.13 0 0 0-11.645 15.963 187.53 187.53 0 0 0-16.078 35.842c-.566 1.541-1.039 3.11-1.5 4.683l-1.428 4.711-2.5 9.553-3.318 19.358c-.09.549.186 1.092.682 1.343l.017.008a193.32 193.32 0 0 0 18.548 8.183q4.753 1.772 9.592 3.3c3.238.974 6.487 1.917 9.769 2.727 6.56 1.625 13.203 2.895 19.9 3.806a183.26 183.26 0 0 0 20.163 1.585h.037c.146.004.289-.05.395-.151l9.112-8.642c.042-.052.04-.126-.005-.176s-.118-.06-.174-.024l-9.733 7.937.431-.15c-6.679-.5-13.31-1.423-19.9-2.521-6.586-1.113-13.1-2.593-19.536-4.331a223.15 223.15 0 0 1-19.046-6.069c-6.261-2.309-12.416-4.87-18.422-7.776l.7 1.351 2.8-19.383 2.034-9.523 1.212-4.733c.4-1.58.8-3.159 1.3-4.709l1.429-4.676c.472-1.561 1.1-3.067 1.641-4.6 1.078-3.078 2.338-6.085 3.651-9.068a113.93 113.93 0 0 1 9.485-17.048c3.626-5.372 7.679-10.445 12.118-15.168 4.394-4.731 9.234-9.028 14.453-12.83 5.221-3.811 10.851-7.029 16.785-9.593 5.952-2.608 12.24-4.367 18.681-5.225h.01c.069-.011.118-.073.113-.142s-.06-.125-.129-.128z"/><path d="M37.442 191.98a24.11 24.11 0 0 0-1.977 4.55c-.502 1.54-.909 3.11-1.22 4.7s-.532 3.195-.648 4.811c-.134 1.653-.095 3.315.116 4.96a23.8 23.8 0 0 0 1.98-4.549 39.16 39.16 0 0 0 1.217-4.7c.312-1.589.527-3.196.644-4.811a24.12 24.12 0 0 0-.112-4.96zm78.051-71.442c-.994-2.796-2.361-5.445-4.064-7.876-1.684-2.478-3.684-4.726-5.95-6.687a28.59 28.59 0 0 0-3.68-2.639 22.49 22.49 0 0 0-4.136-1.889 18.75 18.75 0 0 0-4.451-.856 15.97 15.97 0 0 0-4.444.417c1.449.073 2.889.265 4.306.574a24.38 24.38 0 0 1 4.019 1.35 29.86 29.86 0 0 1 7.067 4.6 37.12 37.12 0 0 1 3.114 2.917l2.9 3.181 5.316 6.907zm-34.8-14.97a19.27 19.27 0 0 0-4.461 4.281 24.48 24.48 0 0 0-3.159 5.371c-.838 1.923-1.381 3.961-1.611 6.045-.256 2.069-.12 4.167.4 6.186a54.92 54.92 0 0 1 1.167-5.9 39 39 0 0 1 1.922-5.538 55.39 55.39 0 0 1 2.6-5.292l3.137-5.154zm111.072 27.721c.95 3.67 1.97 7.37 3.2 10.98l3.69 10.78c.54 1.7 1.06 3.41 1.52 5.13l.69-.58c-.43-1.61-.9-3.21-1.37-4.81l-3.08-10.95c-.98-3.65-1.71-7.33-2.44-11.05l-4.85-22.21-5.4-22.12a.14.14 0 0 0-.17-.09c-.033.007-.062.026-.081.054s-.026.063-.019.096c1 7.53 2.23 15.02 3.61 22.48s2.865 14.909 4.694 22.289zm-36.85 50.13c.755.224 1.547.295 2.33.21q.87-3.36 1.55-6.77c.59-2.9 1.06-5.81 1.45-8.75.34-2.62.6-5.26.68-7.94a53 53 0 0 1 10.59-.56c3.981.151 7.912.945 11.64 2.35a33.76 33.76 0 0 1 8.66 4.92c.61-.45 1.23-.93 1.86-1.42a33.79 33.79 0 0 0-9.55-5.92c-3.965-1.612-8.167-2.564-12.44-2.82a49.76 49.76 0 0 0-10.64.55 233.93 233.93 0 0 0 1.45-8.26l1.49-10.32c.39-3.46.74-6.91.96-10.39a90.77 90.77 0 0 0 .12-10.43c-.001-.036-.017-.07-.043-.094s-.061-.037-.097-.036c-.068.008-.122.062-.13.13-.23 3.45-.65 6.88-1.14 10.3-.47 3.42-1.06 6.82-1.69 10.22-.58 3.4-1.23 6.79-1.92 10.18l-2.14 10.12a1.4 1.4 0 0 0 1.08 1.67 1.53 1.53 0 0 0 .52.02l.02-.01 1.04-.15c-.923 2.451-1.72 4.948-2.39 7.48-.78 2.85-1.46 5.73-2.04 8.62q-.725 3.539-1.225 7.099zm35.46 25.59l-3.98 3.99 26.34-.07 42.55-.34q21.27-.21 42.54-.59l21.28-.46 10.63-.23 10.64-.31-10.64-.31-10.63-.23-21.28-.46q-21.27-.36-42.54-.59l-42.55-.34z"/><path d="M0 210.998l10.64.31 10.63.23 21.28.45q21.27.36 42.54.59l42.55.34 2.04.01-3.94-3.84-40.65.33q-21.27.2-42.54.59l-21.28.45-10.63.23zM312.1 94.053c.568-.31 1.358-.531 1.759-.173a2.04 2.04 0 0 1 .363 1.639 17.92 17.92 0 0 1-.864 3.824c-.789 2.539-1.8 5.029-2.8 7.518l-3.055 7.514-2.98 7.54-5.858 15.093-3.094 7.443a25.04 25.04 0 0 1-1.835 3.512c-.331.5-.848 1.114-1.161.949a1.33 1.33 0 0 1-.48-.717c-.114-.318-.205-.644-.27-.975-.015.345-.005.69.032 1.033.014.391.166.764.429 1.054a.8.8 0 0 0 .7.174c.207-.043.405-.123.583-.238.31-.203.599-.437.86-.7.948-1.027 1.798-2.14 2.541-3.324a78.7 78.7 0 0 0 4.007-7.175l3.458-7.407a308.88 308.88 0 0 0 3.108-7.541l2.828-7.643 2.563-7.74a59.62 59.62 0 0 0 1.973-8.011 17.01 17.01 0 0 0 .214-4.21 4.69 4.69 0 0 0-.251-1.085 1.63 1.63 0 0 0-.75-.939c-.365-.163-.783-.156-1.143.018a3.1 3.1 0 0 0-.871.569z"/><path d="M314.679 95.642a52.05 52.05 0 0 1-9.636.374l-9.6-.782c-6.376-.809-12.701-1.982-18.943-3.514-6.273-1.417-12.435-3.285-18.615-5.1l-9.192-3-9.164-3.14c2.94 1.341 5.922 2.586 8.888 3.885l9.076 3.441 4.608 1.534c1.542.496 3.067 1.043 4.633 1.463 3.121.868 6.228 1.793 9.4 2.5 3.148.776 6.34 1.368 9.529 1.961 3.209.481 6.418.98 9.659 1.212 6.438.489 13.036.67 19.357-.834zm-85.684 13.311a56.99 56.99 0 0 1 9.088 2.989 135.89 135.89 0 0 1 4.4 1.87c1.436.694 2.9 1.322 4.308 2.069a182.75 182.75 0 0 1 16.6 9.462c5.428 3.347 10.622 7.059 15.852 10.727l7.7 5.718 7.633 5.83c-2.342-2.186-4.755-4.295-7.134-6.448l-7.445-6.1q-1.907-1.467-3.838-2.906c-1.292-.952-2.554-1.946-3.886-2.844-2.646-1.819-5.276-3.666-8.014-5.351-2.7-1.741-5.5-3.321-8.294-4.918-2.85-1.492-5.688-3.006-8.639-4.3-5.868-2.589-11.95-4.954-18.331-5.798z"/><path d="M241.939 78.98l-13.8 31.935-12.666-14.295 7.376-17.068zM110.164 189.018a94.02 94.02 0 0 0 25.35 30.295 52.24 52.24 0 0 0 17.734 9.267 27.79 27.79 0 0 0 10.075 1.014 22.39 22.39 0 0 0 2.522-.46 17.83 17.83 0 0 0 2.427-.846 26.89 26.89 0 0 0 4.323-2.58 91.34 91.34 0 0 0 7.662-6.3q3.666-3.321 7.205-6.766l14.272-13.616c4.819-4.553 9.281-9.47 13.347-14.707l12.319-15.411-1.1.553c2.931-.115 5.834-.611 8.636-1.476a49.55 49.55 0 0 0 8.042-3.2 39.1 39.1 0 0 0 7.309-4.734 11.18 11.18 0 0 0 1.653-1.71 5.01 5.01 0 0 0 .94-2.547 4.72 4.72 0 0 0-.659-2.619 6.69 6.69 0 0 0-1.655-1.907l.125 1.545.93-1.129c.281-.408.548-.83.8-1.255a8.03 8.03 0 0 0 .953-2.937 5.77 5.77 0 0 0-.579-3.108 6.33 6.33 0 0 0-2.035-2.35l-.436 1.354c1.482-.115 2.846-.856 3.748-2.038s1.258-2.692.979-4.152a5.62 5.62 0 0 0-2.078-3.479 5.11 5.11 0 0 0-3.78-1.057h-.021c-.072.008-.125.072-.119.145s.068.127.14.124a4.78 4.78 0 0 1 3.367 1.273 4.83 4.83 0 0 1 1.55 3.126 4.1 4.1 0 0 1-.964 3.164c-.684.846-1.697 1.359-2.783 1.411-.316-.025-.612.158-.731.452s-.034.631.21.833l.085.069a4.87 4.87 0 0 1 1.379 1.823c.294.692.389 1.452.274 2.195a6.2 6.2 0 0 1-.859 2.161 42.11 42.11 0 0 1-.724 1l-.837.944c-.393.444-.353 1.122.091 1.516h.006l.028.024a4.7 4.7 0 0 1 1.035 1.3 2.5 2.5 0 0 1 .316 1.412 2.75 2.75 0 0 1-.567 1.322 9.3 9.3 0 0 1-1.326 1.253 36.78 36.78 0 0 1-6.963 4.147c-2.459 1.178-5.015 2.146-7.638 2.891a35.01 35.01 0 0 1-7.933 1.316h-.006a1.47 1.47 0 0 0-1.09.553l-12.079 15.6a151.2 151.2 0 0 1-12.7 14.884l-13.588 14.326c-2.287 2.359-4.626 4.662-7.05 6.869a66.63 66.63 0 0 1-7.65 6.12 22.38 22.38 0 0 1-4.233 2.3c-.74.268-1.498.483-2.268.644-.776.14-1.56.236-2.347.288a26.3 26.3 0 0 1-9.373-1.494 52.6 52.6 0 0 1-8.76-3.97 72.87 72.87 0 0 1-8.125-5.269c-10.384-7.776-19.152-17.675-26.549-28.526-.039-.064-.123-.085-.187-.046s-.085.123-.046.187z"/><path d="M249.19 132.924h.021l.036-.005a13.74 13.74 0 0 0 4.459-1.309c.775-.376 1.427-.966 1.879-1.7.439-.842.47-1.839.086-2.707a6.64 6.64 0 0 0-3.448-3.636 9.71 9.71 0 0 0-2.392-.761 5.97 5.97 0 0 0-2.691 0l-8.784 2.483-8.746 2.608 1.459 1.637 1.639-3.946.02-.049a1.12 1.12 0 0 0-.607-1.465c-.174-.071-.363-.099-.55-.079a46.55 46.55 0 0 0-6.435 1.159 18.62 18.62 0 0 0-3.179 1.085 6.31 6.31 0 0 0-.788.432l-.39.263c-.134.112-.261.231-.382.357a1.45 1.45 0 0 0-.318.4 4.53 4.53 0 0 0-.238.411l-.365.746c-1.743 3.948-3.361 7.874-5.007 11.822-.826 1.987-1.655 3.9-2.35 6.026l-.1.423a1.72 1.72 0 0 1-.085.315c-.079.224-.179.44-.3.645a8.35 8.35 0 0 1-.865 1.244c-.665.807-1.376 1.575-2.13 2.3-3.089 2.899-6.327 5.636-9.7 8.2-3.352 2.635-6.679 5.229-10.139 7.661-3.445 2.434-7.051 4.611-10.723 6.71l-2.763 1.564c-.912.506-1.824.975-2.762 1.434a68.72 68.72 0 0 1-5.732 2.523c-1.949.753-3.919 1.457-5.911 2.005a28 28 0 0 1-2.978.654 6.84 6.84 0 0 1-2.639.01l-.12-.037c.011-.01.112.042.039.011l-.161-.069-.323-.138-.645-.275-1.266-.562c-.832-.385-1.67-.754-2.472-1.178a23.74 23.74 0 0 1-4.531-2.947c-2.699-2.525-5.172-5.283-7.388-8.241-.045-.055-.125-.067-.184-.025s-.075.12-.038.181c.968 1.6 1.97 3.179 3.037 4.73a29.02 29.02 0 0 0 3.6 4.419 25.4 25.4 0 0 0 4.577 3.516c.815.505 1.643.982 2.49 1.408l1.264.635.628.3.314.152.157.076a2.85 2.85 0 0 0 .364.141l-.119-.037a5.93 5.93 0 0 0 1.951.34c.584.011 1.167-.014 1.748-.074 1.109-.125 2.211-.311 3.3-.558a51.63 51.63 0 0 0 6.276-1.856q3.066-1.109 6.026-2.5a48.1 48.1 0 0 0 2.913-1.512l2.8-1.6a127 127 0 0 0 20.754-15.242 121.33 121.33 0 0 0 9.271-8.943 28.33 28.33 0 0 0 2.067-2.525 11.95 11.95 0 0 0 .887-1.426 4.58 4.58 0 0 0 .339-.819 2.63 2.63 0 0 0 .1-.46c.026-.161.051-.234.075-.356a60.14 60.14 0 0 1 2.193-5.923c1.624-3.928 3.45-7.77 5.47-11.51l.39-.664a2.95 2.95 0 0 1 .182-.268.55.55 0 0 1 .194-.206c.076-.055.128-.117.215-.173l.288-.159c.205-.11.418-.206.637-.286.954-.337 1.936-.591 2.935-.757a56.6 56.6 0 0 1 6.212-.69l-1.136-1.593-1.761 3.894a1.21 1.21 0 0 0 1.45 1.64h.009c2.921-.854 5.821-1.775 8.724-2.685l8.686-2.81a4.19 4.19 0 0 1 1.83-.079c.679.079 1.344.245 1.98.495 1.268.456 2.309 1.389 2.9 2.6a1.98 1.98 0 0 1 .157 1.687 3.56 3.56 0 0 1-1.326 1.46c-1.273.782-2.65 1.381-4.09 1.779l.038-.005h-.02c-.075 0-.136.061-.136.136s.061.136.136.136z"/><path d="M249.962 132.194l-5.349.817 5.4.4zm.34 9.838l-7.988 1.267 8.087-.057zm-.535 9.469l-5.85 2.231 6.171-1.059zm5.86-31.757c-1.166-.138-2.345-.129-3.509.027-1.146.129-2.279.355-3.386.678l-.35.1-.075.234a13.18 13.18 0 0 0-.659 2.916 13.18 13.18 0 0 0 1.726-2.441l-.425.336a20.11 20.11 0 0 0 3.4-.6 14.02 14.02 0 0 0 3.278-1.25zm-19.809-9.022l-1.784 3.162-1.621 3.233-.109.227.12.264 1.035 2.285-.012-.547c-1.413 3.13-2.711 6.31-3.828 9.567l.223-.206c-1.067.463-2.128.941-3.169 1.481 1.153-.21 2.285-.483 3.412-.771l.132-.034.091-.172c1.607-3.046 3.033-6.17 4.345-9.344l.117-.282-.129-.265c-.365-.752-.772-1.483-1.156-2.226l.011.491c.433-1.124.855-2.253 1.243-3.4s.765-2.287 1.079-3.462z"/><path d="M248.841 121.023a26.18 26.18 0 0 0-3.648-.88l-3.683-.5-3.712-.206c-1.252-.033-2.505.026-3.748.174a25.93 25.93 0 0 0 3.647.882l3.684.5 3.712.2a26.2 26.2 0 0 0 3.748-.172zm96.489-13.821q13.61 1.865 27.26 3.268l27.317 2.6 27.362 2.062q13.69.926 27.42 1.382-13.61-1.869-27.26-3.271l-27.317-2.592-27.363-2.058q-13.689-.93-27.419-1.392zm-19.793 45.8c5.375 5.038 10.9 9.89 16.481 14.677l16.908 14.155 17.247 13.74c5.815 4.499 11.665 8.955 17.678 13.212-5.373-5.04-10.9-9.894-16.479-14.68l-16.91-14.152-17.249-13.737c-5.815-4.499-11.665-8.955-17.676-13.214zm41.778-17.3c3.886 1.5 7.831 2.765 11.8 3.95s7.959 2.261 11.962 3.3c4.014.991 8.036 1.952 12.093 2.776s8.127 1.594 12.26 2.115c-3.885-1.5-7.83-2.769-11.8-3.953s-7.959-2.26-11.963-3.292c-4.015-.988-8.037-1.949-12.094-2.773s-8.126-1.603-12.258-2.127zm11.5 25.2c4.644 3.487 9.415 6.771 14.23 9.984s9.69 6.33 14.588 9.411l14.871 8.957c5.012 2.897 10.054 5.746 15.232 8.378-4.643-3.49-9.413-6.775-14.229-9.987s-9.691-6.329-14.59-9.408l-14.873-8.954c-5.013-2.897-10.049-5.753-15.227-8.387zm-259.2-33.454l4.314 10.293 4.507 10.2 4.627 10.147c1.562 3.373 3.219 6.7 4.885 10.027l.207-.81-8.692 6.8c-2.929 2.225-5.91 4.375-8.9 6.521l-9.059 6.3-9.026 6.344 1.131.084c-3.616-3.83-6.998-7.875-10.127-12.113-3.17-4.209-6.105-8.591-8.792-13.124q-2.006-3.4-3.765-6.939c-1.15-2.368-2.183-4.787-3.157-7.234a73.46 73.46 0 0 1-2.4-7.527c-.643-2.567-1.121-5.172-1.432-7.8a.1.1 0 0 0-.1-.085.1.1 0 0 0-.086.1 53.72 53.72 0 0 0 .811 7.962 71.31 71.31 0 0 0 2 7.775c1.712 5.082 3.888 9.995 6.5 14.678 2.615 4.672 5.555 9.154 8.8 13.413s6.756 8.314 10.514 12.131l.005.005c.303.305.784.338 1.126.078l8.748-6.723 8.715-6.768 8.878-6.546 9.082-6.269c.249-.173.342-.497.222-.776l-.015-.034-4.538-10.188-4.8-10.068-4.915-10.013c-1.645-3.334-3.365-6.634-5.108-9.923a.1.1 0 0 0-.173.08zm52.364-65.868a1.53 1.53 0 0 1-1.153-2.59 1.53 1.53 0 0 1 2.629 1.062 1.53 1.53 0 0 1-1.476 1.528z"/></g></svg>