<svg xmlns="http://www.w3.org/2000/svg" width="454.689" height="229.684" viewBox="0 0 454.689 229.684">
  <g id="Group_5474" data-name="Group 5474" transform="translate(-413.761 -7675)">
    <path id="Path_45404" data-name="Path 45404" d="M-3612.252,4091.689l.483,5.508,15.39,175.6h296.772V4043.72" transform="translate(4048.058 3631.28)" fill="#fbd206"/>
    <g id="lady-with-megaphone" transform="translate(413.761 7689)">
      <path id="Path_45410" data-name="Path 45410" d="M369.84,256.5a33.22,33.22,0,0,1,4.247-10.973c1.077-1.628,2.294-3.13,4.084-3.593a12.239,12.239,0,0,1,5.585-.08c1.919.316,3.846.835,5.844,1.21a19.225,19.225,0,0,0,3.1.38,6.474,6.474,0,0,0,3.3-.675,5.856,5.856,0,0,0,2.427-2.435,10.258,10.258,0,0,0,1.01-3.076c.093-.5.159-1.047.244-1.435a4.147,4.147,0,0,1,.5-1.132,11.907,11.907,0,0,1,1.736-2.183l-.479-1.226a.037.037,0,0,1,.055,0c-.009,0-.059-.034-.089-.047a1.622,1.622,0,0,1-.254-.17,6.537,6.537,0,0,1-.563-.5c-.375-.361-.742-.758-1.1-1.165-.713-.812-1.4-1.671-2.062-2.532l-.77.752a2.093,2.093,0,0,0,.381.169l.268.051c.181.033.326.033.49.05.311.015.616.022.917.018.6-.006,1.2-.031,1.788-.067,1.185-.067,2.358-.177,3.537-.286h.007a.369.369,0,0,0,.311-.237,13.546,13.546,0,0,1,.618-1.4c.231-.429.506-.93.815-1.051.918-.351,1.985-.581,2.989-.862a27.946,27.946,0,0,0,3.087-.942,1.163,1.163,0,0,0,.6-.79,2.294,2.294,0,0,0,0-.9,6.623,6.623,0,0,0-.51-1.571,37.841,37.841,0,0,0-3.292-5.453,10.088,10.088,0,0,1-1.379-2.7,5.621,5.621,0,0,1-.233-2.832l-.015.045a24.629,24.629,0,0,0,1.358-5.3,46.322,46.322,0,0,0,.513-5.4c.08-1.8.084-3.606.04-5.406s-.128-3.591-.3-5.407a.876.876,0,0,0-1.686-.239l-.013.034a57.686,57.686,0,0,1-3.745,7.715,43.483,43.483,0,0,1-4.943,6.937,19.613,19.613,0,0,1-6.51,5.037,10.475,10.475,0,0,1-3.874.945,12.2,12.2,0,0,1-3.964-.532l.613.735a15.884,15.884,0,0,0-1.348-4.171,8.346,8.346,0,0,0-1.269-1.908,4.547,4.547,0,0,0-2.1-1.329,4.478,4.478,0,0,0-1.28-.113,4.915,4.915,0,0,0-1.2.277,6.172,6.172,0,0,0-2.01,1.174,7.709,7.709,0,0,0-2.27,3.809,30.966,30.966,0,0,0-1,4.085,14.383,14.383,0,0,0-.165,4.245A4.895,4.895,0,0,0,374,217.756a6.068,6.068,0,0,0,4.15.5.1.1,0,0,0,.079-.109.1.1,0,0,0-.1-.08,5.945,5.945,0,0,1-3.843-.748,4.244,4.244,0,0,1-1.589-3.357,20.36,20.36,0,0,1,1.538-7.844,6.5,6.5,0,0,1,2.026-3.108,4.7,4.7,0,0,1,1.561-.846,3.387,3.387,0,0,1,.811-.167,1.412,1.412,0,0,1,.385.027c.123.028.261-.008.373.065a4.216,4.216,0,0,1,2.255,2.459,14.226,14.226,0,0,1,1.069,3.7v.005a.921.921,0,0,0,.613.73,13.07,13.07,0,0,0,4.633.727,12.441,12.441,0,0,0,4.582-1.043,20.571,20.571,0,0,0,7.236-5.525,41.594,41.594,0,0,0,5.087-7.339,59.332,59.332,0,0,0,3.738-8.062l-1.7-.2c.187,1.738.32,3.517.422,5.28s.148,3.538.124,5.3-.07,3.533-.273,5.277a22.868,22.868,0,0,1-1.059,5.107l-.012.034,0,.012a6.388,6.388,0,0,0,.37,3.378,10.88,10.88,0,0,0,1.6,2.844,35.232,35.232,0,0,1,3.319,5.286,6.057,6.057,0,0,1,.488,1.414c.1.476.04.926-.294,1.086a9.836,9.836,0,0,1-1.433.466l-1.521.4c-1.026.271-2.023.485-3.088.844a1.257,1.257,0,0,0-.431.273,2.455,2.455,0,0,0-.3.341,6.122,6.122,0,0,0-.449.705,14.148,14.148,0,0,0-.7,1.465l.317-.237c-1.166.07-2.342.105-3.508.117-.583.006-1.166,0-1.74-.022-.288-.01-.571-.031-.846-.058-.127-.021-.278-.03-.385-.059l-.164-.038c-.018-.014-.008-.014-.024,0l-.7.421a.233.233,0,0,0-.079.32l.008.012c.636.924,1.286,1.821,1.987,2.7.35.441.711.875,1.11,1.3a7.841,7.841,0,0,0,.65.628,2.927,2.927,0,0,0,.419.308,1.435,1.435,0,0,0,.731.251l-.479-1.226a13.294,13.294,0,0,0-2.1,2.392,5.5,5.5,0,0,0-.737,1.577c-.14.583-.2,1.027-.3,1.506a9.731,9.731,0,0,1-.883,2.575,4.14,4.14,0,0,1-1.733,1.734c-1.452.784-3.407.543-5.327.225s-3.871-.808-5.895-1.1a12.592,12.592,0,0,0-6.249.308,8.111,8.111,0,0,0-1.471.715l-.647.5a3.061,3.061,0,0,0-.593.554l-.54.6c-.165.205-.3.42-.454.629-.309.413-.567.857-.833,1.295a24.352,24.352,0,0,0-2.361,5.595,32.063,32.063,0,0,0-1.187,5.9.1.1,0,0,0,.085.1.1.1,0,0,0,.1-.079Z" transform="translate(-204.818 -167.521)" fill="#5504b0"/>
      <path id="Path_45411" data-name="Path 45411" d="M426.522,219.078a13.361,13.361,0,0,1,1.256,9.365c-1.256,5.254.813,12.626.813,12.626s5.24,18.668-10.179,15.413-39.746-11.65-44.029-28.61c0,0,4.7-12.048,7.367-15.933,6.011-8.746,16.1-31.694,21.072-35.12a15.293,15.293,0,0,1,4.256-4.367,25.751,25.751,0,0,1,17.819-4.795c9.315.867,24.315,4.717,32.747,19.783,0,0-8.163,25.4-24.156,20.672,0,0-1.261-8.985-6.757-6.284a6.416,6.416,0,0,0-3.081,3.518C422.2,209.149,419.889,217.413,426.522,219.078Z" transform="translate(-254.685 -167.521)" fill="#5504b0"/>
      <path id="Path_45412" data-name="Path 45412" d="M545.788,208.171a6.048,6.048,0,0,0-1.3-1.48,7.97,7.97,0,0,0-1.652-1.086,6.506,6.506,0,0,0-1.917-.587,3.831,3.831,0,0,0-1.984.241,12.978,12.978,0,0,1,3.486,1.2C543.527,206.988,544.588,207.612,545.788,208.171ZM541.5,213.2a1.428,1.428,0,1,1,1.379-1.428A1.429,1.429,0,0,1,541.5,213.2Zm-76.924,14.54a48.84,48.84,0,0,0-9.789,1.195,66.491,66.491,0,0,0-9.484,2.8,78.821,78.821,0,0,0-9.057,4.029c-1.44.812-2.916,1.57-4.306,2.469l-2.114,1.3-2.047,1.405A86.415,86.415,0,0,0,412.93,254.06a106.128,106.128,0,0,0-11.645,15.963,187.53,187.53,0,0,0-16.078,35.842c-.566,1.541-1.039,3.11-1.5,4.683l-1.428,4.711c-.878,3.164-1.693,6.36-2.5,9.553-1.118,6.448-2.258,12.9-3.318,19.358a1.273,1.273,0,0,0,.682,1.343l.017.008a193.319,193.319,0,0,0,18.548,8.183q4.753,1.772,9.592,3.3c3.238.974,6.487,1.917,9.769,2.727a188.435,188.435,0,0,0,19.9,3.806,183.262,183.262,0,0,0,20.163,1.585h.037a.553.553,0,0,0,.395-.151c3.036-2.882,6.1-5.729,9.112-8.642a.136.136,0,0,0-.179-.2c-3.273,2.613-6.487,5.292-9.733,7.937l.431-.15c-6.679-.5-13.31-1.423-19.9-2.521-6.586-1.113-13.1-2.593-19.536-4.331s-12.785-3.76-19.046-6.069-12.416-4.87-18.422-7.776l.7,1.351c.979-6.451,1.878-12.917,2.8-19.383.671-3.172,1.308-6.353,2.034-9.523l1.212-4.733c.4-1.58.8-3.159,1.3-4.709l1.429-4.676c.472-1.561,1.1-3.067,1.641-4.6,1.078-3.078,2.338-6.085,3.651-9.068a113.93,113.93,0,0,1,9.485-17.048,120.967,120.967,0,0,1,12.118-15.168,100.453,100.453,0,0,1,14.453-12.83,87.015,87.015,0,0,1,16.785-9.593,69.364,69.364,0,0,1,18.681-5.225h.01a.136.136,0,0,0-.016-.27Z" transform="translate(-344.883 -167.52)" fill="#5504b0"/>
      <path id="Path_45413" data-name="Path 45413" d="M240.9,345.5a24.11,24.11,0,0,0-1.977,4.55,39.806,39.806,0,0,0-1.22,4.7,39.146,39.146,0,0,0-.648,4.811,23.806,23.806,0,0,0,.116,4.96,23.8,23.8,0,0,0,1.98-4.549,39.159,39.159,0,0,0,1.217-4.7,39.823,39.823,0,0,0,.644-4.811,24.12,24.12,0,0,0-.112-4.96Zm78.051-71.442a32.977,32.977,0,0,0-4.064-7.876,34.427,34.427,0,0,0-5.95-6.687,28.588,28.588,0,0,0-3.68-2.639,22.49,22.49,0,0,0-4.136-1.889,18.751,18.751,0,0,0-4.451-.856,15.972,15.972,0,0,0-4.444.417,26.547,26.547,0,0,1,4.306.574,24.38,24.38,0,0,1,4.019,1.35,29.86,29.86,0,0,1,7.067,4.6,37.118,37.118,0,0,1,3.114,2.917c1.012,1.01,1.949,2.1,2.9,3.181C315.483,269.345,317.245,271.65,318.948,274.057Zm-34.8-14.97a19.269,19.269,0,0,0-4.461,4.281,24.479,24.479,0,0,0-3.159,5.371,20.877,20.877,0,0,0-1.611,6.045,16.614,16.614,0,0,0,.4,6.186,54.918,54.918,0,0,1,1.167-5.9,39,39,0,0,1,1.922-5.538,55.39,55.39,0,0,1,2.6-5.292C281.982,262.518,283.027,260.818,284.146,259.087Zm111.072,27.721c.95,3.67,1.97,7.37,3.2,10.98s2.54,7.17,3.69,10.78c.54,1.7,1.06,3.41,1.52,5.13.23-.19.46-.39.69-.58-.43-1.61-.9-3.21-1.37-4.81-1.07-3.65-2.13-7.29-3.08-10.95-.98-3.65-1.71-7.33-2.44-11.05-1.521-7.42-3.16-14.82-4.85-22.21s-3.45-14.77-5.4-22.12a.14.14,0,0,0-.17-.09.127.127,0,0,0-.1.15c1,7.53,2.23,15.02,3.61,22.48S393.388,279.428,395.217,286.808Zm-36.85,50.13a5.933,5.933,0,0,0,2.33.21q.87-3.36,1.55-6.77c.59-2.9,1.06-5.81,1.45-8.75.34-2.62.6-5.26.68-7.94a53,53,0,0,1,10.59-.56,36.995,36.995,0,0,1,11.64,2.35,33.758,33.758,0,0,1,8.66,4.92c.61-.45,1.23-.93,1.86-1.42a33.792,33.792,0,0,0-9.55-5.92,39.266,39.266,0,0,0-12.44-2.82,49.758,49.758,0,0,0-10.64.55c.53-2.75,1.02-5.5,1.45-8.26.54-3.43,1.05-6.87,1.49-10.32.39-3.46.74-6.91.96-10.39a90.77,90.77,0,0,0,.12-10.43.135.135,0,0,0-.14-.13.149.149,0,0,0-.13.13c-.23,3.45-.65,6.88-1.14,10.3-.47,3.42-1.06,6.82-1.69,10.22-.58,3.4-1.23,6.79-1.92,10.18l-2.14,10.12a1.4,1.4,0,0,0,1.08,1.67,1.53,1.53,0,0,0,.52.02l.02-.01c.35-.05.7-.09,1.04-.15a77.423,77.423,0,0,0-2.39,7.48c-.78,2.85-1.46,5.73-2.04,8.62Q358.868,333.378,358.368,336.938Zm35.46,25.59c-1.31,1.33-2.64,2.67-3.98,3.99l26.34-.07c14.18-.11,28.37-.15,42.55-.34q21.27-.21,42.54-.59l21.28-.46,10.63-.23,10.64-.31-10.64-.31-10.63-.23-21.28-.46q-21.27-.36-42.54-.59c-14.18-.19-28.37-.23-42.55-.34Z" transform="translate(-203.458 -167.52)" fill="#5504b0"/>
      <path id="Path_45414" data-name="Path 45414" d="M262.18,364.518l10.64.31,10.63.23,21.28.45q21.27.36,42.54.59c14.19.19,28.37.23,42.55.34l2.04.01c-1.32-1.22-2.64-2.5-3.94-3.84-13.55.1-27.09.15-40.65.33q-21.27.2-42.54.59l-21.28.45-10.63.23Zm312.1-116.945c.568-.31,1.358-.531,1.759-.173a2.039,2.039,0,0,1,.363,1.639,17.919,17.919,0,0,1-.864,3.824c-.789,2.539-1.8,5.029-2.8,7.518-1.052,2.486-2.025,5.016-3.055,7.514l-2.98,7.54-5.858,15.093c-1,2.5-1.982,5.01-3.094,7.443a25.042,25.042,0,0,1-1.835,3.512c-.331.5-.848,1.114-1.161.949a1.331,1.331,0,0,1-.48-.717,6.747,6.747,0,0,1-.27-.975,6.855,6.855,0,0,0,.032,1.033,1.654,1.654,0,0,0,.429,1.054.8.8,0,0,0,.7.174,1.713,1.713,0,0,0,.583-.238,5.317,5.317,0,0,0,.86-.7,22.633,22.633,0,0,0,2.541-3.324,78.7,78.7,0,0,0,4.007-7.175c1.251-2.429,2.339-4.926,3.458-7.407,1.077-2.5,2.1-5.02,3.108-7.541.959-2.543,1.923-5.082,2.828-7.643.871-2.575,1.782-5.126,2.563-7.74a59.619,59.619,0,0,0,1.973-8.011,17.011,17.011,0,0,0,.214-4.21,4.688,4.688,0,0,0-.251-1.085,1.631,1.631,0,0,0-.75-.939,1.354,1.354,0,0,0-1.143.018,3.1,3.1,0,0,0-.871.569Z" transform="translate(-262.18 -167.52)" fill="#5504b0"/>
      <path id="Path_45415" data-name="Path 45415" d="M348.35,249.162a52.048,52.048,0,0,1-9.636.374c-3.211-.113-6.417-.366-9.6-.782a168.456,168.456,0,0,1-18.943-3.514c-6.273-1.417-12.435-3.285-18.615-5.1l-9.192-3c-3.052-1.043-6.087-2.14-9.164-3.14,2.94,1.341,5.922,2.586,8.888,3.885l9.076,3.441c1.531.523,3.066,1.038,4.608,1.534s3.067,1.043,4.633,1.463c3.121.868,6.228,1.793,9.4,2.5,3.148.776,6.34,1.368,9.529,1.961,3.209.481,6.418.98,9.659,1.212C335.431,250.485,342.029,250.666,348.35,249.162Zm-85.684,13.311a56.988,56.988,0,0,1,9.088,2.989c1.476.6,2.945,1.218,4.4,1.87,1.436.694,2.9,1.322,4.308,2.069a182.751,182.751,0,0,1,16.6,9.462c5.428,3.347,10.622,7.059,15.852,10.727l7.7,5.718c2.543,1.939,5.052,3.923,7.633,5.83-2.342-2.186-4.755-4.295-7.134-6.448l-7.445-6.1q-1.907-1.467-3.838-2.906c-1.292-.952-2.554-1.946-3.886-2.844-2.646-1.819-5.276-3.666-8.014-5.351-2.7-1.741-5.5-3.321-8.294-4.918-2.85-1.492-5.688-3.006-8.639-4.3C275.129,265.682,269.047,263.317,262.666,262.473Z" transform="translate(-33.671 -167.52)" fill="#5504b0"/>
      <path id="Path_45416" data-name="Path 45416" d="M361.873,232.5l-13.8,31.935-12.666-14.295,7.376-17.068Z" transform="translate(-119.934 -167.52)" fill="#5504b0"/>
      <path id="Path_45417" data-name="Path 45417" d="M322.206,342.538a94.02,94.02,0,0,0,25.35,30.295A52.239,52.239,0,0,0,365.29,382.1a27.783,27.783,0,0,0,10.075,1.014,22.388,22.388,0,0,0,2.522-.46,17.876,17.876,0,0,0,2.427-.846,26.875,26.875,0,0,0,4.323-2.58,91.342,91.342,0,0,0,7.662-6.3q3.666-3.321,7.205-6.766l14.272-13.616a129.457,129.457,0,0,0,13.347-14.707c4.106-5.137,8.268-10.23,12.319-15.411l-1.1.553a33.745,33.745,0,0,0,8.636-1.476,49.627,49.627,0,0,0,8.042-3.2,39.1,39.1,0,0,0,7.309-4.734,11.182,11.182,0,0,0,1.653-1.71,5.011,5.011,0,0,0,.94-2.547,4.718,4.718,0,0,0-.659-2.619,6.689,6.689,0,0,0-1.655-1.907l.125,1.545.93-1.129c.281-.408.548-.83.8-1.255a8.035,8.035,0,0,0,.953-2.937,5.771,5.771,0,0,0-.579-3.108,6.331,6.331,0,0,0-2.035-2.35l-.436,1.354a5.223,5.223,0,0,0,4.727-6.19,5.625,5.625,0,0,0-2.078-3.479,5.107,5.107,0,0,0-3.78-1.057l-.021,0a.135.135,0,0,0,.021.269,4.779,4.779,0,0,1,3.367,1.273,4.834,4.834,0,0,1,1.55,3.126,4.1,4.1,0,0,1-.964,3.164,3.814,3.814,0,0,1-2.783,1.411.727.727,0,0,0-.521,1.285l.085.069a4.868,4.868,0,0,1,1.379,1.823,4.034,4.034,0,0,1,.274,2.195,6.2,6.2,0,0,1-.859,2.161c-.234.336-.478.668-.724,1l-.837.944a1.074,1.074,0,0,0,.091,1.516l.006,0,.028.024a4.7,4.7,0,0,1,1.035,1.3,2.5,2.5,0,0,1,.316,1.412,2.748,2.748,0,0,1-.567,1.322,9.234,9.234,0,0,1-1.326,1.253,36.781,36.781,0,0,1-6.963,4.147,48.094,48.094,0,0,1-7.638,2.891,35.011,35.011,0,0,1-7.933,1.316h-.006a1.47,1.47,0,0,0-1.09.553c-4.082,5.156-8.052,10.4-12.079,15.6a151.107,151.107,0,0,1-12.7,14.884l-13.588,14.326c-2.287,2.359-4.626,4.662-7.05,6.869a66.631,66.631,0,0,1-7.65,6.12,22.378,22.378,0,0,1-4.233,2.3,16.685,16.685,0,0,1-2.268.644,21.116,21.116,0,0,1-2.347.288,26.294,26.294,0,0,1-9.373-1.494,52.6,52.6,0,0,1-8.76-3.97,72.87,72.87,0,0,1-8.125-5.269c-10.384-7.776-19.152-17.675-26.549-28.526a.136.136,0,0,0-.233.141Z" transform="translate(-212.042 -167.52)" fill="#5504b0"/>
      <path id="Path_45418" data-name="Path 45418" d="M432.407,286.444h.021l.036-.005a13.741,13.741,0,0,0,4.459-1.309,4.524,4.524,0,0,0,1.879-1.7,3.124,3.124,0,0,0,.086-2.707,6.639,6.639,0,0,0-3.448-3.636,9.708,9.708,0,0,0-2.392-.761,5.972,5.972,0,0,0-2.691,0c-2.93.82-5.866,1.623-8.784,2.483s-5.843,1.7-8.746,2.608l1.459,1.637c.571-1.3,1.094-2.63,1.639-3.946l.02-.049a1.122,1.122,0,0,0-.607-1.465,1.135,1.135,0,0,0-.55-.079,46.548,46.548,0,0,0-6.435,1.159,18.622,18.622,0,0,0-3.179,1.085,6.312,6.312,0,0,0-.788.432l-.39.263a4.675,4.675,0,0,0-.382.357,1.448,1.448,0,0,0-.318.4,4.528,4.528,0,0,0-.238.411l-.365.746c-1.743,3.948-3.361,7.874-5.007,11.822-.826,1.987-1.655,3.9-2.35,6.026l-.1.423a1.721,1.721,0,0,1-.085.315,3.656,3.656,0,0,1-.3.645,8.352,8.352,0,0,1-.865,1.244,27.255,27.255,0,0,1-2.13,2.3,122.474,122.474,0,0,1-9.7,8.2c-3.352,2.635-6.679,5.229-10.139,7.661-3.445,2.434-7.051,4.611-10.723,6.71l-2.763,1.564c-.912.506-1.824.975-2.762,1.434-1.865.924-3.783,1.77-5.732,2.523s-3.919,1.457-5.911,2.005a28,28,0,0,1-2.978.654,6.839,6.839,0,0,1-2.639.01l-.12-.037c.011-.01.112.042.039.011l-.161-.069-.323-.138-.645-.275-1.266-.562c-.832-.385-1.67-.754-2.472-1.178a23.742,23.742,0,0,1-4.531-2.947,63.077,63.077,0,0,1-7.388-8.241.136.136,0,0,0-.222.156c.968,1.6,1.97,3.179,3.037,4.73a29.022,29.022,0,0,0,3.6,4.419,25.4,25.4,0,0,0,4.577,3.516c.815.505,1.643.982,2.49,1.408.422.215.846.438,1.264.635l.628.3.314.152.157.076a2.851,2.851,0,0,0,.364.141l-.119-.037a5.931,5.931,0,0,0,1.951.34,14.244,14.244,0,0,0,1.748-.074,30.306,30.306,0,0,0,3.3-.558,51.628,51.628,0,0,0,6.276-1.856q3.066-1.109,6.026-2.5c.985-.461,1.961-.984,2.913-1.512l2.8-1.6A127,127,0,0,0,383.5,314.962a121.331,121.331,0,0,0,9.271-8.943,28.33,28.33,0,0,0,2.067-2.525,11.952,11.952,0,0,0,.887-1.426,4.58,4.58,0,0,0,.339-.819,2.629,2.629,0,0,0,.1-.46c.026-.161.051-.234.075-.356a60.138,60.138,0,0,1,2.193-5.923,123.494,123.494,0,0,1,5.47-11.51l.39-.664a2.952,2.952,0,0,1,.182-.268.55.55,0,0,1,.194-.206c.076-.055.128-.117.215-.173l.288-.159a4.877,4.877,0,0,1,.637-.286,17.365,17.365,0,0,1,2.935-.757,56.6,56.6,0,0,1,6.212-.69l-1.136-1.593c-.589,1.3-1.2,2.585-1.761,3.894a1.21,1.21,0,0,0,1.45,1.64l.009,0c2.921-.854,5.821-1.775,8.724-2.685s5.793-1.866,8.686-2.81a4.188,4.188,0,0,1,1.83-.079,7.936,7.936,0,0,1,1.98.495,5.177,5.177,0,0,1,2.9,2.6,1.982,1.982,0,0,1,.157,1.687,3.562,3.562,0,0,1-1.326,1.46,15.905,15.905,0,0,1-4.09,1.779l.038-.005h-.02a.136.136,0,0,0,0,.272Z" transform="translate(-183.217 -167.52)" fill="#5504b0"/>
      <path id="Path_45419" data-name="Path 45419" d="M332.685,285.714l-5.349.817,5.4.4Z" transform="translate(-82.723 -167.52)" fill="#5504b0"/>
      <path id="Path_45420" data-name="Path 45420" d="M334.932,295.552l-7.988,1.267,8.087-.057Z" transform="translate(-84.63 -167.52)" fill="#5504b0"/>
      <path id="Path_45421" data-name="Path 45421" d="M333.107,305.021l-5.85,2.231,6.171-1.059Z" transform="translate(-83.34 -167.52)" fill="#5504b0"/>
      <path id="Path_45422" data-name="Path 45422" d="M350.672,273.264a14.024,14.024,0,0,0-3.509.027,20.114,20.114,0,0,0-3.386.678l-.35.1-.075.234a13.18,13.18,0,0,0-.659,2.916,13.18,13.18,0,0,0,1.726-2.441l-.425.336a20.114,20.114,0,0,0,3.4-.6A14.019,14.019,0,0,0,350.672,273.264Zm-19.809-9.022c-.641,1.034-1.222,2.094-1.784,3.162s-1.1,2.147-1.621,3.233l-.109.227.12.264c.346.761.67,1.533,1.035,2.285l-.012-.547c-1.413,3.13-2.711,6.31-3.828,9.567l.223-.206c-1.067.463-2.128.941-3.169,1.481,1.153-.21,2.285-.483,3.412-.771l.132-.034.091-.172c1.607-3.046,3.033-6.17,4.345-9.344l.117-.282-.129-.265c-.365-.752-.772-1.483-1.156-2.226l.011.491c.433-1.124.855-2.253,1.243-3.4S330.549,265.418,330.863,264.243Z" transform="translate(-95.045 -167.52)" fill="#5504b0"/>
      <path id="Path_45423" data-name="Path 45423" d="M297.746,274.543a26.178,26.178,0,0,0-3.648-.88c-1.223-.217-2.451-.388-3.683-.5s-2.47-.186-3.712-.206a25.916,25.916,0,0,0-3.748.174,25.929,25.929,0,0,0,3.647.882c1.223.216,2.451.388,3.684.5s2.47.185,3.712.2a26.2,26.2,0,0,0,3.748-.172Zm96.489-13.821q13.61,1.865,27.26,3.268c9.1.969,18.206,1.8,27.317,2.6,9.115.755,18.233,1.479,27.362,2.062q13.69.926,27.42,1.382-13.61-1.869-27.26-3.271c-9.1-.968-18.206-1.8-27.317-2.592-9.115-.751-18.233-1.475-27.363-2.058Q407.965,261.183,394.235,260.721Zm-19.793,45.8c5.375,5.038,10.9,9.89,16.481,14.677s11.23,9.487,16.908,14.155c5.706,4.632,11.432,9.241,17.247,13.74s11.665,8.955,17.678,13.212c-5.373-5.04-10.9-9.894-16.479-14.68s-11.231-9.487-16.91-14.152c-5.708-4.63-11.434-9.238-17.249-13.737S380.453,310.782,374.442,306.523Zm41.778-17.3c3.886,1.5,7.831,2.765,11.8,3.95s7.959,2.261,11.962,3.3c4.014.991,8.036,1.952,12.093,2.776s8.127,1.594,12.26,2.115c-3.885-1.5-7.83-2.769-11.8-3.953s-7.959-2.26-11.963-3.292c-4.015-.988-8.037-1.949-12.094-2.773S420.352,289.742,416.22,289.218Zm11.5,25.2c4.644,3.487,9.415,6.771,14.23,9.984s9.69,6.33,14.588,9.411c4.921,3.043,9.859,6.06,14.871,8.957s10.054,5.746,15.232,8.378c-4.643-3.49-9.413-6.775-14.229-9.987s-9.691-6.329-14.59-9.408c-4.923-3.04-9.86-6.057-14.873-8.954S432.9,317.05,427.722,314.416Zm-259.2-33.454c1.4,3.45,2.819,6.888,4.314,10.293,1.48,3.411,2.952,6.827,4.507,10.2s3.045,6.783,4.627,10.147c1.562,3.373,3.219,6.7,4.885,10.027l.207-.81c-2.9,2.26-5.763,4.575-8.692,6.8s-5.91,4.375-8.9,6.521c-3,2.125-6.031,4.211-9.059,6.3s-6.027,4.216-9.026,6.344l1.131.084a130.953,130.953,0,0,1-10.127-12.113,143.026,143.026,0,0,1-8.792-13.124q-2.006-3.4-3.765-6.939c-1.15-2.368-2.183-4.787-3.157-7.234a73.46,73.46,0,0,1-2.4-7.527,62.136,62.136,0,0,1-1.432-7.8.1.1,0,0,0-.1-.085.1.1,0,0,0-.086.1,53.722,53.722,0,0,0,.811,7.962,71.311,71.311,0,0,0,2,7.775,87.445,87.445,0,0,0,6.5,14.678,113.945,113.945,0,0,0,8.8,13.413,126.345,126.345,0,0,0,10.514,12.131l.005.005a.856.856,0,0,0,1.126.078c2.926-2.227,5.856-4.449,8.748-6.723s5.791-4.537,8.715-6.768c2.939-2.21,5.872-4.427,8.878-6.546s6.059-4.173,9.082-6.269a.637.637,0,0,0,.222-.776l-.015-.034c-1.475-3.414-2.959-6.823-4.538-10.188-1.559-3.374-3.2-6.711-4.8-10.068s-3.255-6.685-4.915-10.013c-1.645-3.334-3.365-6.634-5.108-9.923a.1.1,0,0,0-.173.08ZM220.884,215.1a1.529,1.529,0,1,1,1.476-1.528,1.529,1.529,0,0,1-1.476,1.528Z" transform="translate(-48.905 -167.52)" fill="#5504b0"/>
    </g>
  </g>
</svg>
